<?xml version="1.0" encoding="iso-8859-1"?>
<!-- Generator: Adobe Illustrator 19.0.0, SVG Export Plug-In . SVG Version: 6.00 Build 0)  -->
<svg xmlns="http://www.w3.org/2000/svg" xmlns:xlink="http://www.w3.org/1999/xlink" version="1.1" id="Layer_1" x="0px" y="0px" viewBox="0 0 511.992 511.992" style="enable-background:new 0 0 511.992 511.992;" xml:space="preserve">
<g>
	<g>
		<path d="M64.405,264.475c-1.737-2.13-4.197-3.831-6.958-4.179c-2.198-0.276-3.835,0.326-5.112,1.674    c-2.895,1.173-5.011,3.805-5.091,7.417c-0.139,6.278,6.198,9.418,11.573,7.668c3.002-0.977,4.758-1.466,6.199-4.516    C66.258,269.915,66.285,266.78,64.405,264.475z M62.28,269.448c-0.278,2.785-2.24,3.351-4.448,4.028    c-1.743,0.534-3.418,0.872-5.062-0.235c-1.635-1.101-2.458-3.241-2.039-5.155c0.202-0.926,0.986-2.1,1.993-3.11    c0.538-0.127,1.046-0.332,1.623-0.564c1.891-0.762,3.471-0.677,5.263,0.522C61.267,266.041,62.488,267.37,62.28,269.448z"/>
	</g>
</g>
<g>
	<g>
		<path d="M138.937,263.706c-3.745-3.833-9.8-4.389-13.534-0.933c-0.076,0.037-0.149,0.068-0.226,0.105    c-2.845,1.393-4.286,3.766-4.401,6.913c-0.243,6.67,8.074,9.637,13.435,7.35C138.929,275.128,143.364,268.235,138.937,263.706z     M134.642,271.992c-2.369,2.292-8.871,2.804-9.876-1.369c-0.545-2.268,1.608-5.161,4.029-6.184    c1.631-0.274,3.279-0.214,4.875,0.569C137.051,266.666,137.399,269.325,134.642,271.992z"/>
	</g>
</g>
<g>
	<g>
		<path d="M203.768,268.022c-0.297-3.081-2.534-5.283-5.41-6.185c-1.257-0.394-2.386-0.446-3.457-0.269    c-3.167-0.392-7.632,2.019-9.025,4.041c-1.374,1.995-1.881,5.421-0.753,7.609c1.579,3.066,3.544,4.506,6.88,4.86    c3.331,0.353,5.619,0.197,8.22-2.105C202.547,273.915,204.075,271.216,203.768,268.022z M196.945,273.281    c-1.562,1.148-3.617,0.932-5.439,0.55c-1.905-0.399-3.256-2.625-2.978-4.537c0.287-1.975,1.93-3.284,3.617-4.179    c0.134-0.071,0.279-0.128,0.418-0.191c2.793,0.32,6.438,0.373,7.112,3.063C200.21,270.131,198.53,272.116,196.945,273.281z"/>
	</g>
</g>
<g>
	<g>
		<path d="M97.318,229.855c-2.328-7.36-9.984-12.167-16.745-15.145c-8.219-3.62-18.8-6.709-27.843-6.108    c-8.339,0.554-16.013,3.829-23.346,7.536c-4.034,2.039-10.936,5.862-14.008,10.536c-1.242,0.565-2.281,1.411-2.597,2.84    c-0.146,0.664-0.033,1.464,0.512,1.937c1.591,1.379,3.521,1.414,5.574,1.236c3.787-0.329,7.56-1.032,11.364-1.362    c8.583-0.746,17.35-0.74,25.952-0.105c6.786,0.501,13.404,1.689,20.233,1.689c4.555,0,9.11-0.076,13.655,0.15    c2.087,0.104,4.457,0.502,6.254-0.758C97.092,231.762,97.623,230.818,97.318,229.855z M84.592,229.016    c-3.92,0.008-7.935,0.302-11.847,0.054c-5.331-0.339-10.631-1.102-15.965-1.458c-7.362-0.492-14.953-0.74-22.328-0.389    c-2.912,0.138-5.842,0.495-8.753,0.694c-1.255,0.086-2.495,0.376-3.73,0.593c-0.562,0.098-3.547,0.922-3.226-0.19    c0.211-0.735,1.248-1.23,1.833-1.636c0.797-0.551,1.6-1.091,2.388-1.654c3.206-2.291,6.149-4.354,9.706-6.089    c6.683-3.258,14.227-6.102,21.772-5.77c7.648,0.336,14.673,2.52,21.859,4.922c6.051,2.022,12.252,5.91,15.834,11.326    C89.789,229.686,85.878,229.013,84.592,229.016z"/>
	</g>
</g>
<g>
	<g>
		<path d="M141.04,203.603c-0.654-2.193-2.479-4.074-4.586-5.064c-2.284-1.073-4.28-0.302-6.165,0.822    c-4.455,0.627-7.969,5.175-8.567,9.8c-0.863,6.679,6.857,10.307,12.473,8.811C140.297,216.347,142.699,209.161,141.04,203.603z     M135.616,212.526c-2.827,2.313-8.073,2.317-10.097-1.245c-2.005-3.528,2.009-8.58,5.878-9.757c1.79,0.098,3.497-0.19,5.023,1.167    C139.542,205.466,138.798,209.923,135.616,212.526z"/>
	</g>
</g>
<g>
	<g>
		<path d="M204.437,207.282c-0.689-2.61-1.603-4.818-4.081-6.218c-2.63-1.485-4.865-0.788-7.235,0.395    c-4.423,0.326-8.206,3.372-9.11,8.351c-1.278,7.042,4.596,11.626,11.228,10.634C201.713,219.475,206.128,213.678,204.437,207.282z     M195.69,216.348c-4.115,1.393-8.768-0.747-8.598-5.565c0.134-3.794,2.743-6.254,5.972-7.158c3.131,0.209,6.285-0.551,7.584,3.202    C202.198,211.302,200.097,214.856,195.69,216.348z"/>
	</g>
</g>
<g>
	<g>
		<path d="M511.534,349.604c-0.594-2.457-2.958-3.493-5.587-3.794c0.031-0.415,0.032-0.836,0.022-1.251    c-0.061-2.587-0.349-5.136-0.34-7.762c0.036-9.742-0.602-19.242-1.117-28.927c-0.575-10.808-2.72-21.509-2.869-32.353    c-0.044-3.22,0.272-5.036,1.48-8.147c0.617-1.59,1.009-2.9,1.35-4.587c0.518-2.558,1.257-5.374-0.863-7.473    c-0.346-0.343-0.748-0.627-1.189-0.865c0.34-3.244,1.932-8.304,1.24-11.968c2.732,0.306,5.358-0.122,6.658-2.362    c3.401-5.861-0.833-13.895-4.184-18.6c-0.279-0.392-0.59-0.762-0.886-1.143c1.15-7.284-0.738-15.059-0.722-22.438    c0.004-2.467,0.621-5.647,0.289-8.204c2.318,0.388,4.549,0.05,5.645-2.337c1.747-3.805,0.832-10.83-0.584-14.584    c-0.485-1.284-1.833-1.619-2.889-0.762c-1.18,0.959-1.615,2.135-3.057,2.881c-2.006,1.038-5.545,0.396-7.621-0.395    c-2.608-0.994-4.06-3.494-6.623-4.374c-1.028-0.353-1.964,0.406-2.302,1.308c-1.317,3.497-5.23,3.818-8.794,2.951    c0.762-4.087,3.565-10.859-1.667-12.225c-2.697-0.704-5.481-0.362-8.226-0.137c1.007-2.878,1.372-7.034-0.485-8.81    c-0.617-0.591-1.379-0.892-2.194-1.053c0.929-1.096,1.474-2.35,2.202-3.705c1.488-2.772,3.42-5.258,5.087-7.935    c1.445-2.32,3.994-7.519,0.537-9.658c-2.924-1.809-4.824,1.389-6.605,2.779c-4.51,3.523-2.098-1.504-1.551-3.388    c0.416-1.432,1.102-3.159,0.475-4.648c-1.119-2.659-2.983-1.657-4.923-0.815c-1.605,0.696-3.29,2.211-4.329,0.115    c-0.428-0.864,0.245-4.873,0.237-5.874c-0.034-4.349,1.465-8.59,1.203-12.93c-0.145-2.399,0.344-7.644-2.038-9.321    c-2.172-1.529-4.926,0.253-6.433,2.018c-1.169,1.37-1.643,2.788-1.948,4.585c-0.246,1.444,0.654,6.038-0.717,3.236    c-1.206-2.464-4.411-15.674-9.74-9.475c-1.913,2.225-1.807,5.494-1.466,8.204c0.517,4.118,1.738,8.307,3.105,12.225    c0.508,1.456,2.631,6.825,0.801,6.589c-1.319-0.17-2.661-3.097-4.433-3.493c-2.908-0.649-4.64,1.468-5.495,3.869    c-0.996,2.79-0.243,5.956,1.573,8.478c0.188,0.261,0.578,0.766,0.815,1.165c-0.085,0.003-0.163,0.002-0.275,0.021    c-2.069,0.335-2.466-0.194-4.305,0.886c-8.914,5.237,3.538,12.309,6.568,17.097c-1.599,1.965-1.571,5.592-1.177,8.384    c-2.521-0.087-5.039-0.136-7.539-0.118c-2.01,0.014-4.89,0.273-5.708,2.464c-0.591,1.581,0.048,3.219,0.469,4.752    c0.216,0.783,0.429,1.603,0.376,2.423c-0.054,0.825-0.601,1.107-1.204,1.623c-2.438,2.082-5.029,3.106-8.264,2.737    c-2.822-0.321-4.93-1.771-7.065-3.149c-0.035-0.264-0.178-0.521-0.488-0.708c-19.397-11.71-41.162-19.952-61.757-29.332    c-10.527-4.794-21.01-9.699-31.554-14.444c-8.192-3.687-16.73-6.382-24.989-9.806c1.152-2.596,2.057-5.358,0.823-8.197    c-1.093-2.516-3.528-3.363-6.116-2.893c-1.241,0.226-2.652,0.802-3.633,1.609c-0.112,0.092-0.312,0.343-0.539,0.632    c-1-2.191-2.505-3.292-4.265-3.534c0.648-1.345,0.942-2.953,1.046-4.372c0.113-1.532,0.033-3.147-0.755-4.535    c-0.769-1.354-2.531-1.736-3.248-2.894c-1.537-2.484,1.824-7.309,1.463-10.209c-0.218-1.745-1.174-3.359-1.489-5.11    c-0.408-2.263-0.152-4.619-1.506-6.633c-1.525-2.265-5.917-4.34-8.586-4.595c-4.393-0.418-7.905,1.122-11.167,3.934    c-4.349,3.751-6.586,9.23-5.617,14.856c0.336,1.951,2.206,6.372,1.349,7.757c-0.716,1.157-2.479,1.54-3.248,2.894    c-0.788,1.389-0.867,3.003-0.755,4.535c0.104,1.418,0.397,3.027,1.046,4.372c-1.76,0.242-3.265,1.343-4.265,3.534    c-0.226-0.289-0.427-0.54-0.539-0.632c-0.982-0.807-2.393-1.383-3.633-1.609c-2.589-0.47-5.023,0.377-6.116,2.893    c-1.235,2.839-0.329,5.602,0.823,8.197c-8.259,3.424-16.797,6.119-24.989,9.806c-10.544,4.746-21.028,9.65-31.555,14.444    c-20.596,9.38-42.36,17.62-61.757,29.332c-0.31,0.187-0.453,0.444-0.488,0.708c-2.135,1.377-4.243,2.827-7.065,3.149    c-3.235,0.368-5.825-0.655-8.264-2.737c-0.603-0.514-1.151-0.798-1.204-1.623c-0.054-0.82,0.16-1.64,0.376-2.423    c0.423-1.533,1.06-3.172,0.469-4.752c-0.818-2.191-3.699-2.45-5.708-2.464c-2.502-0.018-5.017,0.031-7.539,0.118    c0.394-2.792,0.422-6.419-1.177-8.384c3.029-4.788,15.482-11.861,6.568-17.097c-1.839-1.08-2.236-0.551-4.305-0.886    c-0.114-0.019-0.19-0.018-0.276-0.021c0.237-0.398,0.627-0.904,0.815-1.165c1.817-2.523,2.569-5.688,1.573-8.478    c-0.856-2.4-2.588-4.517-5.495-3.869c-1.772,0.396-3.113,3.323-4.433,3.493c-1.83,0.237,0.293-5.133,0.801-6.589    c1.366-3.917,2.588-8.107,3.105-12.225c0.341-2.708,0.447-5.978-1.466-8.204c-5.328-6.199-8.534,7.011-9.74,9.475    c-1.372,2.801-0.472-1.794-0.718-3.236c-0.305-1.797-0.779-3.214-1.948-4.585c-1.507-1.765-4.261-3.547-6.433-2.018    c-2.382,1.678-1.893,6.923-2.038,9.321c-0.262,4.339,1.237,8.581,1.203,12.93c-0.008,1.001,0.666,5.011,0.237,5.874    c-1.039,2.096-2.725,0.581-4.329-0.115c-1.941-0.841-3.805-1.843-4.923,0.815c-0.626,1.489,0.06,3.216,0.475,4.648    c0.547,1.884,2.958,6.911-1.551,3.388c-1.781-1.391-3.68-4.588-6.605-2.779c-3.457,2.139-0.908,7.338,0.537,9.658    c1.667,2.677,3.599,5.164,5.087,7.935c0.728,1.355,1.272,2.609,2.202,3.705c-0.815,0.162-1.577,0.464-2.194,1.053    c-1.857,1.776-1.491,5.934-0.485,8.81c-2.745-0.225-5.529-0.566-8.226,0.137c-5.231,1.365-2.43,8.138-1.667,12.225    c-3.564,0.869-7.477,0.548-8.794-2.951c-0.339-0.901-1.275-1.661-2.302-1.308c-2.562,0.88-4.015,3.38-6.623,4.374    c-2.076,0.792-5.615,1.433-7.621,0.395c-1.443-0.747-1.876-1.923-3.057-2.881c-1.054-0.856-2.404-0.522-2.889,0.762    c-1.416,3.755-2.332,10.78-0.584,14.584c1.095,2.386,3.327,2.724,5.645,2.337c-0.332,2.557,0.284,5.737,0.289,8.204    c0.014,7.379-1.872,15.153-0.722,22.438c-0.297,0.381-0.609,0.752-0.886,1.143c-3.351,4.704-7.585,12.739-4.184,18.6    c1.3,2.24,3.928,2.67,6.659,2.362c-0.693,3.664,0.899,8.724,1.24,11.968c-0.441,0.238-0.843,0.522-1.189,0.865    c-2.12,2.099-1.38,4.915-0.863,7.473c0.342,1.687,0.732,2.997,1.35,4.587c1.208,3.111,1.525,4.928,1.48,8.147    c-0.149,10.844-2.295,21.545-2.869,32.353c-0.516,9.684-1.154,19.185-1.117,28.927c0.009,2.627-0.279,5.176-0.34,7.762    c-0.01,0.415-0.009,0.835,0.022,1.251c-2.629,0.301-4.993,1.337-5.587,3.794c-1.373,5.681,0.306,8.219,5.597,8.467    c-2.232,20.625-0.168,41.927-0.289,62.619c-0.028,4.826-1.789,17.336,3.716,20.06c2.663,1.318,6.907,0.98,9.799,1.088    c5.597,0.209,11.202,0.553,16.796,0.61c19.947,0.199,39.863-1.111,59.805-0.209c19.523,0.883,38.977,2.094,58.524,2.08    c11.417-0.008,22.71-0.01,34.12,0.373c8.402,0.282,17.678,0.904,26.37,0.089c3.935,1.123,8.581,0.737,12.935,0.127    c1.974,0.102,3.974,0.041,6.029-0.013c6.352-0.167,12.83-0.191,19.184,0.06c10.126,0.401,20.582,1.631,30.633-0.118    c4.495,0.648,9.345,1.11,13.43-0.055c8.692,0.815,17.968,0.194,26.37-0.089c11.41-0.383,22.703-0.381,34.12-0.373    c19.547,0.013,39-1.197,58.524-2.08c19.942-0.902,39.858,0.408,59.804,0.209c5.594-0.056,11.199-0.401,16.796-0.61    c2.892-0.107,7.136,0.23,9.799-1.088c5.504-2.724,3.744-15.235,3.716-20.06c-0.121-20.692,1.943-41.993-0.289-62.619    C511.229,357.823,512.907,355.286,511.534,349.604z M506.038,230.469c0.235,0.986,0.677,5.498-0.166,6.606    c-0.574,0.755-1.467,0.579-2.398,0.687c-1.644,0.193-3.316,0.091-4.98,0.129c-2.698-0.501-5.81-0.264-8.316-0.191    c-4.247,0.123-8.278,0.123-12.518-0.038c-7.246-0.272-14.492-0.083-21.706-0.306c-7.063-0.219-14.119-1.196-21.203-1.404    c-9.741-0.287-19.518,0.212-29.287,0.482c0.415-4.076,1.592-7.922,3.789-11.265c3.069-4.669,6.52-9.309,11.17-12.44    c10.244-6.896,24.49-9.088,36.64-8.801c12.759,0.302,25.584,4.152,36.265,11.238C498.585,218.653,504.507,224.048,506.038,230.469    z M487.207,275.199c-0.323,8.911-0.5,17.802-0.509,26.754c-0.008,8.249-0.049,16.518,0.44,24.723    c0.229,3.835,0.593,7.745,0.591,11.633c-3.234-0.274-7.085-0.76-10.227-0.142c0.031-10.146,1.154-20.115,1.99-30.207    c0.966-11.658,0.933-23.469,1.546-35.145c0.096-1.838-0.017-4.182-0.635-5.959c-0.625-1.796-2.28-3.077-2.608-4.941    c-0.361-2.048,0.654-2.837,2.113-3.194c2.631,0.075,5.292,0.166,7.945,0.17C486.541,264.086,487.403,269.816,487.207,275.199z     M487.538,342.658c-0.083,0.923-0.188,1.842-0.342,2.758c-0.023,0.137-0.023,0.266-0.027,0.395    c-0.358-0.009-0.709-0.016-1.04-0.016c-1.021,0-2.887,0.321-4.582,0.404c-0.718-0.034-1.436-0.068-2.153-0.098    c-0.401-0.08-0.746-0.201-0.998-0.389c-0.849-0.632-1.05-2.099-1.054-3.622c1.813,0.307,3.713,0.186,5.668,0.352    C484.485,342.567,486.02,342.641,487.538,342.658z M484.777,253.679c-3.754-0.101-7.517-0.092-11.268-0.138    c-9.23-0.114-18.365-1.137-27.582-1.356c-16.867-0.399-33.759,1.162-50.723,0.96c-18.228-0.217-36.535-1.208-54.734-0.461    c-9.333,0.384-18.706,0.134-28.065,0.24c-4.67,0.053-9.324,0.435-13.977,0.655c-2.691-0.454-5.814-0.116-7.858,0.018    c-3.049,0.2-6.452-0.141-9.582,0.277c-0.751-0.014-1.488,0.01-2.202,0.072c-8.146-2.119-17.336-0.685-25.664-0.902    c-5.92-0.155-11.602-0.356-17.492,0.232c-2.114,0.211-4.261,0.302-6.403,0.441c-2.616-0.147-5.334,0.043-7.818-0.121    c-2.044-0.135-5.167-0.471-7.858-0.018c-4.655-0.22-9.307-0.602-13.977-0.655c-9.359-0.106-18.731,0.144-28.065-0.24    c-18.199-0.747-36.507,0.245-54.734,0.461c-16.963,0.201-33.856-1.36-50.723-0.96c-9.216,0.218-18.353,1.242-27.582,1.356    c-3.751,0.047-7.512,0.038-11.268,0.138c-2.384-0.081-4.828,0.065-7.079-0.083c-1.811-0.12-4.471-0.399-6.925-0.146    c0.368-2.54,0.288-5.112,0.027-7.679c-0.638-6.28,9.144-4.168,13.399-3.945c8.922,0.465,17.804-0.792,26.759,0.056    c8.159,0.773,16.669-0.635,24.872-0.656c10.575-0.027,21.133,0.389,31.718,0.387c10.382-0.002,20.799-0.162,31.159-0.689    c8.549-0.435,16.957,0.237,25.486,0.406c10.579,0.209,21.439,0.644,31.965-0.104c4.734-0.336,9.452-0.145,14.145-0.285    c0.186,0.058,0.375,0.107,0.571,0.136c1.046,0.156,2.169-0.105,3.22-0.133c3.646-0.097,7.322-0.175,10.971-0.152    c8.368,0.052,16.845,0.534,25.196-0.058c8.204-0.581,16.49-0.143,24.714-0.232c4.583-0.049,9.731,0.434,14.521-0.197    c7.101,1.106,14.266,0.408,21.468,0.921c10.526,0.748,21.385,0.313,31.965,0.104c8.529-0.169,16.937-0.841,25.486-0.406    c10.36,0.528,20.777,0.687,31.159,0.689c10.584,0.002,21.142-0.414,31.718-0.387c8.203,0.021,16.713,1.428,24.872,0.656    c8.955-0.85,17.837,0.408,26.759-0.056c4.255-0.221,14.038-2.333,13.399,3.945c-0.261,2.568-0.341,5.14,0.027,7.679    c-2.454-0.253-5.114,0.027-6.925,0.146C489.605,253.745,487.162,253.599,484.777,253.679z M473.372,345.899    c-3.471-0.081-6.95-0.091-10.489,0.023c-8.191,0.264-16.319,0.277-24.522,0.175c0.065-0.504,0.053-1.029,0.041-1.538    c-0.061-2.587-0.35-5.136-0.34-7.762c0.035-9.742-0.602-19.242-1.117-28.927c-0.402-7.556-1.561-15.058-2.279-22.595    c2.909,0.589,5.907,0.292,8.997,0.392c4.754,0.154,9.453,0.523,14.211,0.159c4.132-0.318,8.272-0.692,12.4-1.057    c1.842-0.163,3.693-0.184,5.458-0.532c-0.071,2.912-0.083,5.83-0.08,8.711c0.01,9.673-1.063,19.085-1.807,28.701    c-0.41,5.302-0.583,10.587-0.576,15.911C473.273,339.627,472.814,343.166,473.372,345.899z M458.827,280.121    c-4.451,0.424-8.879,0.197-13.33-0.008c-3.48-0.16-7.675-0.759-11.248-0.116c-0.087-1.491-0.152-2.983-0.173-4.479    c-0.044-3.22,0.272-5.036,1.48-8.147c0.617-1.59,1.008-2.9,1.35-4.587c0.349-1.724,0.795-3.565,0.402-5.225    c3.065-0.003,6.128,0.014,9.19,0.09c8.939,0.217,17.787,1.069,26.738,0.987c-0.218,0.984-0.24,2.143,0,3.527    c0.303,1.744,0.866,2.767,1.703,4.258c1.87,3.327,1.518,5.676,1.213,9.407c-0.097,1.195-0.168,2.401-0.231,3.608    C470.627,278.099,463.681,279.658,458.827,280.121z M423.807,257.734c0.919-0.021,1.839-0.044,2.758-0.062    c2.666,0.055,5.49-0.196,6.036,2.884c0.386,2.173-0.394,5.076-1.124,7.013c-2.643,7.019-1.237,16.399-0.595,23.769    c0.792,9.097,1.662,18.122,2.307,27.229c0.335,4.739,0.066,9.575,0.06,14.323c-0.003,1.915,0.116,3.924,0.219,5.938    c-2.638-0.657-5.73-0.487-8.48-0.401c0.325-10.698-1.123-21.591-1.132-32.259c-0.008-9.117-0.496-18.366,0.239-27.449    C424.649,271.852,424.583,264.629,423.807,257.734z M424.751,342.655c2.743,0.124,6.107,0.45,8.835-0.152    c0.01,0.719,0.022,1.442-0.003,2.143c-2.186,1.068-5.041,1.33-7.873,1.339c-0.113,0-0.225-0.001-0.337-0.001    c-0.319-0.001-0.637-0.002-0.954-0.009C424.559,344.872,424.663,343.765,424.751,342.655z M419.641,275.199    c-0.323,8.911-0.5,17.802-0.509,26.754c-0.008,8.249-0.05,16.518,0.44,24.723c0.229,3.835,0.593,7.745,0.591,11.633    c-3.234-0.274-7.085-0.76-10.227-0.142c0.031-10.146,1.154-20.115,1.99-30.207c0.966-11.658,0.933-23.469,1.546-35.145    c0.096-1.838-0.017-4.182-0.635-5.959c-0.625-1.796-2.28-3.077-2.609-4.941c-0.604-3.431,2.642-3.338,5.391-3.579    c1.718-0.152,3.338-0.287,4.974-0.526C418.847,263.283,419.849,269.441,419.641,275.199z M419.971,342.658    c-0.083,0.923-0.188,1.842-0.342,2.758c-0.023,0.137-0.023,0.266-0.027,0.395c-0.358-0.009-0.709-0.016-1.04-0.016    c-0.528,0-1.283,0.086-2.122,0.18c-1.702-0.001-3.404-0.005-5.106-0.012c-0.189-0.069-0.364-0.148-0.503-0.253    c-0.849-0.632-1.051-2.099-1.054-3.622c1.813,0.306,3.713,0.186,5.668,0.352C416.919,342.567,418.452,342.641,419.971,342.658z     M405.811,345.925c-4.525-0.047-9.056-0.135-13.598-0.323c-8.628-0.356-17.178,0.195-25.809-0.03    c0.013-0.339,0.014-0.678,0.007-1.012c-0.061-2.587-0.35-5.136-0.34-7.762c0.036-9.742-0.602-19.242-1.117-28.927    c-0.388-7.301-1.484-14.554-2.205-21.832c6.482,2.052,15.654,0.125,22.128,0.067c7.163-0.063,15.948,0.897,23.271-0.79    c-0.05,2.554-0.063,5.107-0.061,7.633c0.01,9.673-1.063,19.085-1.807,28.701c-0.41,5.302-0.583,10.587-0.575,15.911    C405.707,339.634,405.243,343.188,405.811,345.925z M401.137,280.466c-5.058,0.004-10.127-0.164-15.186-0.209    c-4.201-0.038-8.331,0.22-12.512,0.28c-3.732,0.053-7.587-0.573-11.104,0.576c-0.126-1.863-0.226-3.727-0.251-5.597    c-0.044-3.22,0.272-5.036,1.48-8.148c0.617-1.59,1.008-2.9,1.35-4.587c0.305-1.508,0.683-3.105,0.511-4.593    c9.932,0.116,19.872,0.343,29.781,0.226c3.524-0.042,7.048-0.121,10.572-0.209c-0.319,1.067-0.385,2.365-0.107,3.954    c0.304,1.744,0.866,2.767,1.704,4.258c1.869,3.327,1.518,5.676,1.213,9.407c-0.138,1.692-0.23,3.401-0.303,5.117    C405.988,280.419,403.701,280.464,401.137,280.466z M351.857,258.154c2.317-0.02,4.636-0.025,6.956-0.016    c0.893,0.38,1.56,1.083,1.797,2.417c0.386,2.173-0.394,5.076-1.124,7.013c-2.643,7.019-1.237,16.399-0.595,23.769    c0.792,9.097,1.662,18.122,2.307,27.229c0.335,4.739,0.066,9.575,0.06,14.323c-0.003,1.915,0.116,3.924,0.219,5.938    c-2.638-0.657-5.73-0.487-8.481-0.401c0.325-10.698-1.123-21.591-1.132-32.259c-0.008-9.117-0.495-18.366,0.239-27.449    C352.645,271.991,352.589,264.923,351.857,258.154z M352.758,342.655c2.743,0.124,6.107,0.45,8.835-0.152    c0.009,0.719,0.022,1.442-0.004,2.143c-0.593,0.29-1.239,0.516-1.916,0.698c-2.387-0.086-4.776-0.163-7.165-0.186    C352.601,344.327,352.692,343.493,352.758,342.655z M347.648,275.199c-0.323,8.911-0.5,17.802-0.509,26.754    c-0.008,8.249-0.05,16.518,0.44,24.723c0.229,3.835,0.593,7.745,0.591,11.633c-3.234-0.274-7.085-0.76-10.227-0.142    c0.031-10.146,1.154-20.115,1.99-30.207c0.966-11.658,0.933-23.469,1.546-35.145c0.096-1.838-0.017-4.182-0.635-5.959    c-0.625-1.796-2.28-3.077-2.609-4.941c-0.604-3.431,2.642-3.338,5.39-3.579c0.121-0.011,0.233-0.022,0.353-0.032    c1.504-0.043,3.007-0.087,4.512-0.112C346.907,263.568,347.851,269.573,347.648,275.199z M347.978,342.658    c-0.077,0.853-0.176,1.702-0.312,2.548c-1.403,0.041-2.804,0.102-4.201,0.21c-1.547,0.121-3.093,0.208-4.641,0.282    c-0.835-0.638-1.037-2.096-1.04-3.61c1.813,0.306,3.713,0.186,5.668,0.352C344.926,342.567,346.459,342.641,347.978,342.658z     M333.808,345.879c-5.162,0.119-10.332,0.08-15.508,0.084c-4.452,0.004-9.071-0.323-13.632-0.239    c0.023-0.387,0.025-0.779,0.017-1.165c-0.061-2.587-0.35-5.136-0.34-7.762c0.036-9.742-0.602-19.242-1.117-28.927    c-0.385-7.23-1.463-14.412-2.185-21.621c1.964,0.365,4.018,0.12,6.105,0.118c3.382-0.003,6.802,0.121,10.175-0.079    c5.443-0.322,13.115,0.839,18.829-0.828c-0.048,2.505-0.062,5.009-0.059,7.486c0.011,9.673-1.062,19.085-1.807,28.701    c-0.41,5.302-0.583,10.587-0.575,15.911C333.714,339.623,333.257,343.149,333.808,345.879z M318.794,280.366    c-5.909,0.403-12.277,0.813-18.219,0.241c-0.107-1.694-0.193-3.39-0.216-5.091c-0.044-3.22,0.272-5.036,1.48-8.147    c0.617-1.59,1.008-2.9,1.35-4.587c0.251-1.239,0.551-2.538,0.555-3.788c2.926-0.157,5.832-0.337,8.662-0.361    c7.093-0.061,14.195,0.056,21.281-0.048c-0.228,0.994-0.257,2.167-0.011,3.574c0.304,1.744,0.866,2.767,1.704,4.258    c1.869,3.327,1.518,5.676,1.213,9.407c-0.137,1.688-0.23,3.393-0.303,5.105C330.98,279.317,323.729,280.03,318.794,280.366z     M290.207,258.905c2.69,0.314,5.429,0.373,8.178,0.312c0.228,0.357,0.402,0.792,0.499,1.34c0.386,2.173-0.394,5.076-1.124,7.013    c-2.643,7.019-1.237,16.399-0.595,23.769c0.792,9.097,1.662,18.122,2.307,27.229c0.335,4.739,0.066,9.575,0.06,14.323    c-0.003,1.915,0.116,3.924,0.219,5.938c-2.638-0.657-5.73-0.487-8.481-0.401c0.325-10.698-1.123-21.591-1.132-32.259    c-0.008-9.117-0.496-18.366,0.239-27.448C290.901,272.239,290.863,265.444,290.207,258.905z M291.034,342.655    c2.743,0.124,6.107,0.45,8.835-0.152c0.01,0.719,0.022,1.442-0.003,2.143c-2.519,1.23-5.926,1.392-9.163,1.329    C290.841,344.872,290.945,343.765,291.034,342.655z M285.923,275.199c-0.323,8.911-0.5,17.802-0.509,26.754    c-0.008,8.249-0.05,16.518,0.44,24.723c0.229,3.835,0.593,7.745,0.591,11.633c-3.234-0.274-7.085-0.76-10.227-0.142    c0.031-10.146,1.154-20.115,1.99-30.207c0.966-11.658,0.933-23.469,1.546-35.145c0.096-1.838-0.017-4.182-0.635-5.959    c-0.625-1.796-2.28-3.077-2.609-4.941c-0.604-3.431,2.642-3.338,5.391-3.579c1.171-0.103,2.294-0.211,3.409-0.337    c0.469,0.124,0.942,0.231,1.416,0.333C285.2,263.672,286.126,269.622,285.923,275.199z M286.254,342.658    c-0.083,0.923-0.188,1.842-0.342,2.758c-0.023,0.137-0.024,0.266-0.026,0.395c-0.359-0.009-0.709-0.016-1.04-0.016    c-1.001,0-2.812,0.308-4.48,0.398c-0.689-0.023-1.376-0.042-2.061-0.057c-0.486-0.075-0.899-0.207-1.192-0.425    c-0.849-0.632-1.05-2.099-1.054-3.622c1.813,0.306,3.713,0.186,5.668,0.352C283.201,342.567,284.735,342.641,286.254,342.658z     M272.102,345.97c-5.064-0.187-10.24-0.464-15.212-0.158c-5.742,0.353-11.281,0.301-17.016,0.195    c0.593-2.747,0.121-6.353,0.123-8.445c0.008-5.325-0.166-10.609-0.575-15.911c-0.744-9.616-1.817-19.028-1.807-28.701    c0.002-2.019-0.01-4.058-0.038-6.099c6.583,1.292,14.214,0.361,20.631,0.381c4.888,0.016,11.345,1.174,16.201-0.527    c-0.029,2.09-0.042,4.177-0.04,6.246c0.011,9.673-1.062,19.085-1.807,28.701c-0.411,5.302-0.583,10.587-0.575,15.911    C271.989,339.645,271.521,343.228,272.102,345.97z M273.593,281.456c-5.333,1.928-12.563,0.776-18.186,0.798    c-5.638,0.023-12.173-0.693-17.929,0.405c-0.075-2.291-0.18-4.578-0.364-6.833c-0.304-3.731-0.656-6.08,1.213-9.407    c0.838-1.49,1.4-2.515,1.704-4.258c0.232-1.331,0.222-2.456,0.029-3.417c4.339-0.09,8.635-0.049,13.064,0.097    c6.291,0.208,12.571-0.108,18.836-0.241c-0.225,0.991-0.252,2.161-0.008,3.56c0.304,1.744,0.866,2.767,1.704,4.258    c1.869,3.327,1.518,5.676,1.213,9.407c-0.148,1.816-0.242,3.652-0.316,5.494C274.25,281.297,273.929,281.334,273.593,281.456z     M226.568,301.953c-0.009-8.952-0.186-17.843-0.509-26.754c-0.198-5.468,0.674-11.29-0.73-16.547    c2.897,0.382,5.855,0.418,8.736,0.294c1.06,0.439,1.706,1.272,1.406,2.971c-0.329,1.864-1.983,3.146-2.609,4.941    c-0.618,1.777-0.731,4.121-0.635,5.959c0.613,11.676,0.58,23.488,1.546,35.145c0.836,10.091,1.959,20.061,1.99,30.207    c-3.142-0.618-6.994-0.133-10.227,0.142c-0.002-3.888,0.362-7.798,0.591-11.633C226.618,318.472,226.576,310.202,226.568,301.953z     M230.256,342.442c1.955-0.166,3.855-0.047,5.668-0.352c-0.003,1.524-0.206,2.991-1.054,3.622    c-0.066,0.049-0.145,0.09-0.224,0.131c-1.281-0.023-2.565-0.006-3.891,0.152c-0.103,0.012-0.28,0.043-0.508,0.09    c-1.22-0.124-2.38-0.287-3.109-0.287c-0.332,0-0.682,0.007-1.04,0.016c-0.003-0.129-0.003-0.258-0.027-0.395    c-0.154-0.915-0.259-1.836-0.342-2.758C227.248,342.641,228.782,342.567,230.256,342.442z M220.712,338.43    c-2.75-0.086-5.843-0.257-8.481,0.401c0.102-2.013,0.221-4.022,0.219-5.938c-0.007-4.749-0.276-9.585,0.06-14.323    c0.645-9.109,1.514-18.133,2.307-27.229c0.642-7.37,2.048-16.75-0.595-23.769c-0.729-1.937-1.509-4.84-1.124-7.013    c0.097-0.548,0.271-0.982,0.499-1.34c2.749,0.061,5.49,0.002,8.18-0.312c-0.657,6.54-0.694,13.334-0.169,19.818    c0.734,9.082,0.247,18.332,0.239,27.448C221.835,316.839,220.387,327.731,220.712,338.43z M221.282,345.975    c-3.237,0.064-6.644-0.098-9.163-1.329c-0.025-0.701-0.013-1.424-0.003-2.143c2.727,0.602,6.092,0.275,8.835,0.152    C221.038,343.765,221.142,344.872,221.282,345.975z M207.314,345.724c-4.561-0.084-9.18,0.243-13.632,0.239    c-5.176-0.004-10.346,0.035-15.508-0.084c0.552-2.731,0.094-6.257,0.097-8.318c0.008-5.325-0.166-10.609-0.575-15.911    c-0.743-9.616-1.817-19.028-1.807-28.701c0.002-2.477-0.011-4.981-0.059-7.486c5.713,1.666,13.385,0.506,18.829,0.828    c3.373,0.199,6.793,0.075,10.176,0.079c2.087,0.001,4.141,0.247,6.105-0.118c-0.722,7.208-1.8,14.391-2.185,21.621    c-0.516,9.684-1.153,19.185-1.117,28.927c0.01,2.627-0.279,5.176-0.34,7.762C207.288,344.945,207.291,345.337,207.314,345.724z     M193.19,280.366c-4.935-0.336-12.187-1.049-17.497,0.564c-0.073-1.712-0.166-3.417-0.303-5.105    c-0.304-3.731-0.656-6.08,1.213-9.407c0.838-1.49,1.4-2.515,1.704-4.258c0.246-1.406,0.216-2.58-0.011-3.574    c7.086,0.104,14.188-0.013,21.281,0.048c2.83,0.023,5.734,0.204,8.662,0.361c0.004,1.249,0.305,2.549,0.555,3.788    c0.342,1.687,0.732,2.997,1.35,4.587c1.208,3.111,1.525,4.928,1.48,8.147c-0.023,1.701-0.108,3.396-0.216,5.091    C205.466,281.18,199.098,280.769,193.19,280.366z M164.844,301.953c-0.009-8.952-0.186-17.843-0.509-26.754    c-0.204-5.626,0.74-11.631-0.842-17.006c1.505,0.025,3.008,0.069,4.512,0.112c0.119,0.011,0.232,0.022,0.353,0.032    c2.749,0.241,5.994,0.148,5.39,3.579c-0.329,1.864-1.983,3.145-2.609,4.941c-0.618,1.777-0.731,4.121-0.635,5.959    c0.613,11.676,0.58,23.488,1.546,35.145c0.836,10.091,1.959,20.061,1.99,30.207c-3.142-0.618-6.994-0.133-10.227,0.142    c-0.002-3.888,0.362-7.798,0.591-11.633C164.893,318.472,164.852,310.202,164.844,301.953z M168.53,342.442    c1.955-0.166,3.855-0.047,5.668-0.352c-0.003,1.515-0.205,2.972-1.04,3.61c-1.548-0.074-3.095-0.161-4.641-0.282    c-1.397-0.108-2.799-0.169-4.201-0.21c-0.135-0.846-0.235-1.696-0.312-2.548C165.523,342.641,167.057,342.567,168.53,342.442z     M158.988,338.43c-2.75-0.086-5.843-0.257-8.481,0.401c0.102-2.013,0.221-4.022,0.219-5.938c-0.007-4.749-0.275-9.585,0.06-14.323    c0.645-9.109,1.514-18.133,2.307-27.229c0.642-7.37,2.048-16.75-0.595-23.769c-0.729-1.937-1.509-4.84-1.124-7.013    c0.237-1.334,0.904-2.037,1.797-2.417c2.32-0.01,4.638-0.004,6.956,0.016c-0.731,6.768-0.788,13.835-0.245,20.567    c0.734,9.082,0.247,18.332,0.239,27.448C160.111,316.839,158.662,327.731,158.988,338.43z M159.476,345.16    c-2.389,0.023-4.779,0.098-7.165,0.186c-0.678-0.183-1.323-0.408-1.916-0.698c-0.025-0.701-0.013-1.424-0.004-2.143    c2.727,0.602,6.092,0.276,8.835,0.152C159.291,343.493,159.382,344.327,159.476,345.16z M145.579,345.573    c-8.632,0.225-17.181-0.326-25.809,0.03c-4.542,0.188-9.072,0.275-13.598,0.323c0.566-2.737,0.104-6.291,0.106-8.364    c0.008-5.325-0.166-10.609-0.575-15.911c-0.743-9.616-1.817-19.028-1.807-28.701c0.002-2.526-0.011-5.079-0.061-7.633    c7.324,1.687,16.108,0.727,23.271,0.79c6.475,0.058,15.646,1.985,22.129-0.068c-0.722,7.28-1.817,14.533-2.205,21.832    c-0.516,9.684-1.153,19.185-1.117,28.927c0.01,2.627-0.279,5.176-0.34,7.762C145.565,344.894,145.566,345.234,145.579,345.573z     M138.544,280.538c-4.181-0.06-8.311-0.318-12.512-0.28c-5.06,0.045-10.128,0.212-15.186,0.209    c-2.565-0.002-4.85-0.048-7.145,0.476c-0.073-1.715-0.165-3.424-0.303-5.117c-0.304-3.731-0.656-6.08,1.214-9.407    c0.838-1.49,1.4-2.515,1.703-4.258c0.277-1.589,0.211-2.887-0.107-3.954c3.524,0.089,7.049,0.167,10.572,0.209    c9.908,0.117,19.848-0.11,29.781-0.226c-0.172,1.488,0.206,3.085,0.511,4.593c0.342,1.687,0.732,2.997,1.35,4.587    c1.208,3.111,1.525,4.928,1.48,8.147c-0.025,1.87-0.125,3.734-0.251,5.597C146.13,279.965,142.276,280.591,138.544,280.538z     M92.851,301.953c-0.009-8.952-0.186-17.843-0.509-26.754c-0.208-5.759,0.793-11.917-0.952-17.388    c1.636,0.239,3.256,0.374,4.974,0.526c2.749,0.241,5.996,0.148,5.391,3.579c-0.329,1.864-1.983,3.145-2.609,4.941    c-0.618,1.777-0.731,4.121-0.635,5.959c0.613,11.676,0.58,23.488,1.546,35.145c0.836,10.091,1.959,20.061,1.99,30.207    c-3.142-0.618-6.993-0.133-10.227,0.142c-0.002-3.888,0.362-7.798,0.591-11.633C92.901,318.472,92.859,310.202,92.851,301.953z     M96.538,342.442c1.955-0.166,3.855-0.047,5.668-0.352c-0.003,1.524-0.206,2.991-1.054,3.622    c-0.139,0.104-0.314,0.185-0.503,0.253c-1.702,0.005-3.404,0.011-5.106,0.012c-0.839-0.094-1.594-0.18-2.122-0.18    c-0.332,0-0.682,0.007-1.04,0.016c-0.003-0.129-0.003-0.258-0.027-0.395c-0.154-0.915-0.259-1.836-0.342-2.758    C93.53,342.641,95.065,342.567,96.538,342.442z M86.995,338.43c-2.75-0.086-5.843-0.257-8.48,0.401    c0.102-2.013,0.221-4.022,0.219-5.938c-0.007-4.749-0.276-9.585,0.06-14.323c0.645-9.109,1.514-18.133,2.307-27.229    c0.642-7.37,2.048-16.75-0.595-23.769c-0.729-1.937-1.509-4.84-1.124-7.013c0.547-3.08,3.37-2.829,6.036-2.884    c0.919,0.019,1.839,0.041,2.758,0.062c-0.776,6.895-0.842,14.118-0.287,20.988c0.734,9.082,0.247,18.332,0.239,27.448    C88.118,316.839,86.669,327.731,86.995,338.43z M87.565,345.975c-0.316,0.007-0.635,0.008-0.954,0.009    c-0.113,0-0.226,0.001-0.337,0.001c-2.832-0.01-5.687-0.272-7.872-1.339c-0.025-0.701-0.013-1.424-0.003-2.143    c2.727,0.602,6.092,0.275,8.835,0.152C87.32,343.765,87.424,344.872,87.565,345.975z M73.622,346.097    c-8.203,0.102-16.331,0.09-24.522-0.175c-3.538-0.114-7.019-0.103-10.489-0.023c0.559-2.733,0.098-6.272,0.102-8.338    c0.007-5.325-0.166-10.609-0.576-15.911c-0.744-9.616-1.817-19.028-1.807-28.701c0.003-2.881-0.009-5.799-0.08-8.711    c1.765,0.349,3.617,0.37,5.458,0.532c4.128,0.365,8.267,0.739,12.4,1.057c4.758,0.365,9.457-0.006,14.212-0.159    c3.089-0.1,6.089,0.196,8.997-0.392c-0.718,7.537-1.878,15.039-2.279,22.595c-0.516,9.684-1.153,19.185-1.117,28.927    c0.01,2.627-0.279,5.176-0.34,7.762C73.569,345.068,73.556,345.593,73.622,346.097z M66.487,280.113    c-4.452,0.206-8.88,0.431-13.33,0.008c-4.854-0.462-11.801-2.021-17.095-0.687c-0.064-1.208-0.134-2.414-0.231-3.608    c-0.304-3.731-0.656-6.08,1.213-9.407c0.838-1.49,1.4-2.515,1.704-4.258c0.241-1.384,0.218-2.544,0-3.527    c8.95,0.083,17.799-0.77,26.738-0.987c3.061-0.074,6.125-0.092,9.19-0.09c-0.393,1.661,0.053,3.502,0.402,5.225    c0.342,1.687,0.732,2.997,1.35,4.587c1.208,3.111,1.525,4.928,1.48,8.147c-0.021,1.496-0.085,2.987-0.173,4.479    C74.161,279.354,69.966,279.953,66.487,280.113z M25.285,301.953c-0.009-8.952-0.186-17.843-0.509-26.754    c-0.195-5.383,0.667-11.114-0.644-16.307c2.653-0.003,5.314-0.095,7.945-0.17c1.458,0.357,2.474,1.146,2.113,3.194    c-0.328,1.864-1.983,3.145-2.608,4.941c-0.62,1.777-0.731,4.121-0.635,5.959c0.613,11.676,0.58,23.488,1.546,35.145    c0.835,10.091,1.959,20.061,1.99,30.207c-3.142-0.618-6.994-0.133-10.228,0.142c-0.002-3.888,0.362-7.798,0.591-11.633    C25.333,318.472,25.292,310.202,25.285,301.953z M28.971,342.442c1.955-0.166,3.855-0.047,5.668-0.352    c-0.003,1.524-0.206,2.991-1.054,3.622c-0.252,0.188-0.597,0.31-0.998,0.389c-0.717,0.031-1.434,0.064-2.153,0.098    c-1.695-0.083-3.559-0.404-4.582-0.404c-0.331,0-0.682,0.007-1.04,0.016c-0.003-0.129-0.003-0.258-0.027-0.395    c-0.154-0.915-0.258-1.835-0.342-2.758C25.964,342.641,27.497,342.567,28.971,342.442z M19.428,338.43    c-2.749-0.086-5.843-0.257-8.481,0.401c0.102-2.013,0.221-4.022,0.218-5.938c-0.007-4.749-0.275-9.585,0.06-14.323    c0.645-9.109,1.514-18.133,2.307-27.229c0.642-7.37,2.048-16.75-0.595-23.769c-0.729-1.937-1.509-4.84-1.124-7.013    c0.234-1.321,0.892-2.024,1.772-2.406c2.264,0.385,4.577,0.59,6.913,0.679c-0.664,6.563-0.703,13.385-0.177,19.893    c0.734,9.082,0.247,18.332,0.238,27.448C20.55,316.839,19.102,327.731,19.428,338.43z M19.997,345.975    c-3.237,0.064-6.644-0.098-9.163-1.329c-0.025-0.701-0.013-1.424-0.003-2.143c2.727,0.602,6.092,0.275,8.835,0.152    C19.754,343.765,19.858,344.872,19.997,345.975z M11.736,191.306c1.173-2.339,8.544-1.424,11.347-1.434    c17.302-0.062,34.62,0.072,51.968,0.118c10.967,0.029,21.988-0.349,33.003-0.528c-0.29,2.398-0.219,5.031-0.16,7.252    c0.113,4.272-0.041,8.586,0.189,12.857c0.27,5.01,0.371,9.97,0.161,14.977c-1.086-1.93-2.383-3.748-3.693-5.525    c-4.067-5.519-8.627-10.142-14.908-13.194c-13.09-6.358-30.234-8.045-44.494-5.605c-11.572,1.98-25.328,7.251-34.473,15.84    c1.057-4.871,1.031-10.587,1.142-14.983C11.876,198.831,10.789,193.195,11.736,191.306z M398.39,224.725    c0.107,1.439,0.198,2.939,0.607,4.277c-1.709-0.065-3.426-0.122-5.169-0.297c-4.804-0.481-9.719-0.663-14.538-0.911    c-6.002-0.309-11.994-0.281-17.989-0.2c1.424-7.26,0.817-16.293-0.844-23.369c-1.362-5.803-7.351-4.911-12.123-5.008    c-7.023-0.141-11.105,0.716-12.296,8.091c-1.065,6.596-1.479,14.113-1.144,20.809c-5.854,0.243-11.707,0.493-17.531,0.351    c-4.24-0.104-8.694-0.323-13.132-0.315c-0.595-0.217-1.194-0.389-1.796-0.532c0.271-3.583-0.294-7.385-0.347-10.867    c-0.062-4.058,0.066-10.958-1.578-14.74c-1.875-4.313-8.596-2.922-12.232-2.943c-3.964-0.022-8.756-1.062-11.071,2.793    c-2.2,3.662-2.724,9.191-3.028,13.356c-0.25,3.417-0.829,8.126,0.511,11.649c-1.397-0.038-2.78-0.049-4.125-0.057    c-8.134-0.051-16.267,0.08-24.402,0.133c-2.954,0.02-5.956,0.069-8.976,0.17c1.467-3.547,0.872-8.397,0.616-11.895    c-0.304-4.166-0.829-9.694-3.028-13.356c-2.315-3.854-7.105-2.815-11.071-2.793c-3.637,0.021-10.357-1.37-12.232,2.943    c-1.644,3.783-1.516,10.682-1.578,14.74c-0.054,3.482-0.62,7.284-0.347,10.867c-0.602,0.143-1.2,0.315-1.796,0.532    c-4.439-0.008-8.893,0.211-13.132,0.315c-5.824,0.143-11.677-0.108-17.531-0.351c0.335-6.696-0.079-14.213-1.144-20.809    c-1.192-7.375-5.273-8.233-12.296-8.091c-4.773,0.095-10.761-0.796-12.123,5.008c-1.661,7.076-2.268,16.109-0.844,23.369    c-5.994-0.082-11.987-0.108-17.989,0.2c-4.821,0.248-9.734,0.429-14.538,0.911c-1.743,0.174-3.46,0.23-5.169,0.297    c0.409-1.338,0.5-2.837,0.607-4.277c0.396-5.303-0.077-10.729-0.378-16.017c-0.367-6.438,0.456-13.149-1.497-19.3    c7-0.081,13.994-0.054,20.963,0.243c9.141,0.392,18.274,0.412,27.444,0.41c5.187-0.001,10.615,0.063,15.956-0.274    c4.919,0.221,9.934,0.003,14.816,0.011c5.729,0.009,11.506-0.153,17.24,0.03c7.103,1.458,14.992,0.446,22.106,0.569    c7.814,0.134,15.613,0.027,23.412-0.209c7.153-0.215,14.352-0.003,21.556-0.007c5.243-0.002,11.055,0.722,16.499,0.162    c2.558,0.096,5.171-0.113,7.346-0.273c7.294-0.537,14.703-0.261,22.033-0.272c4.881-0.008,9.897,0.21,14.816-0.011    c5.342,0.337,10.77,0.273,15.956,0.274c9.17,0.001,18.302-0.019,27.444-0.41c6.969-0.299,13.963-0.325,20.963-0.243    c-1.953,6.15-1.13,12.861-1.497,19.3C398.468,213.996,397.994,219.422,398.39,224.725z M358.319,227.638    c-3.48,0.054-6.96,0.112-10.445,0.118c-2.845,0.006-5.694,0.086-8.545,0.189c0.423-4.553-0.021-9.107,0.152-13.696    c0.093-2.469-0.153-5.52,0.551-7.88c1.049-3.517,4.998-3.778,8.301-3.917c3.515-0.146,8.309-1.013,10.12,3.103    c0.701,1.596-0.251,4.977-0.345,6.709C357.833,217.331,357.372,222.616,358.319,227.638z M298.576,227.082    c-1.684-0.097-3.386-0.069-5.097-0.053c-3.344,0.03-9.066,0.495-12.115-0.787c-3.436-1.445-2.976-6.186-2.805-9.588    c0.171-3.409-0.02-7.968,1.258-11.182c1.739-4.372,10.102-3.087,14.032-2.929c4.396,0.176,3.299,4.22,3.651,7.691    C298.062,215.775,297.76,221.562,298.576,227.082z M230.62,226.244c-3.049,1.281-8.771,0.817-12.115,0.787    c-1.713-0.016-3.414-0.044-5.097,0.053c0.815-5.521,0.513-11.308,1.076-16.849c0.352-3.471-0.745-7.515,3.651-7.691    c3.929-0.158,12.293-1.443,14.032,2.929c1.279,3.214,1.086,7.775,1.258,11.182C233.596,220.058,234.056,224.799,230.62,226.244z     M153.874,212.267c-0.094-1.733-1.047-5.113-0.345-6.709c1.81-4.117,6.605-3.249,10.12-3.103c3.304,0.138,7.254,0.399,8.301,3.917    c0.703,2.359,0.458,5.41,0.551,7.88c0.173,4.589-0.271,9.143,0.152,13.696c-2.851-0.104-5.7-0.185-8.545-0.189    c-3.485-0.007-6.966-0.064-10.445-0.118C154.611,222.616,154.151,217.331,153.874,212.267z M113.515,232.424    c2.369,0.145,4.594,0.539,7.027,0.506c3.783-0.051,7.559-0.311,11.331-0.584c10.719-0.778,21.493-0.047,32.236-0.025    c9.871,0.019,19.78,0.927,29.635,0.742c5.271-0.098,10.482,0.002,15.737,0.179c2.378,0.08,4.597-0.274,6.808-0.736    c4.254,0.257,8.514-0.018,12.829-0.124c6.013-0.147,12.061-0.547,18.078-0.479c8.14,0.091,16.287,0.215,24.428,0.121    c4.211-0.049,8.659,0.596,12.643-0.576c1.546,0.025,3.029-0.02,4.231,0.045c0.984,0.052,2.007,0.086,3.044,0.105    c3.663,0.765,7.103,1.775,10.961,1.644c5.255-0.176,10.466-0.278,15.737-0.179c9.855,0.185,19.763-0.724,29.635-0.742    c10.743-0.021,21.517-0.752,32.236,0.025c3.772,0.273,7.548,0.532,11.331,0.584c2.434,0.033,4.659-0.361,7.027-0.506    c2.073-0.127,2.752,1.423,1.367,2.915c-1.59,1.716-4.199,1.261-6.291,1.242c-2.934-0.025-5.868-0.108-8.798-0.279    c-15.868-0.925-31.695,0.274-47.558,0.294c-13.107,0.016-26.192,0.353-39.268,0.513c-0.102-0.084-0.217-0.152-0.36-0.173    c-16.044-2.403-32.171-1.55-48.359-1.3c-8.562,0.133-17.269-0.403-25.8,0.326c-3.044,0.26-6.116,0.541-9.137,0.79    c-1.503,0.124-2.745,0.02-3.931,0.316c-11.835-0.174-23.679-0.459-35.542-0.474c-15.863-0.019-31.689-1.218-47.558-0.294    c-2.93,0.17-5.864,0.253-8.798,0.279c-2.092,0.019-4.701,0.474-6.291-1.242C110.763,233.847,111.442,232.297,113.515,232.424z     M403.93,189.463c11.013,0.18,22.036,0.558,33.003,0.528c17.348-0.046,34.665-0.179,51.968-0.118    c2.804,0.01,10.174-0.905,11.347,1.434c0.947,1.889-0.141,7.525-0.084,9.775c0.111,4.397,0.085,10.111,1.142,14.983    c-9.144-8.589-22.901-13.86-34.473-15.84c-14.259-2.441-31.404-0.753-44.494,5.605c-6.28,3.051-10.84,7.676-14.908,13.194    c-1.31,1.777-2.607,3.597-3.693,5.525c-0.209-5.008-0.107-9.968,0.161-14.977c0.229-4.272,0.076-8.586,0.189-12.857    C404.148,194.494,404.219,191.859,403.93,189.463z M491.483,258.829c2.337-0.09,4.649-0.294,6.913-0.679    c0.881,0.383,1.538,1.084,1.772,2.406c0.386,2.173-0.395,5.076-1.124,7.013c-2.643,7.019-1.237,16.399-0.595,23.769    c0.792,9.097,1.662,18.122,2.307,27.229c0.335,4.739,0.067,9.575,0.06,14.323c-0.003,1.915,0.116,3.924,0.218,5.938    c-2.637-0.657-5.73-0.487-8.481-0.401c0.326-10.698-1.123-21.591-1.132-32.259c-0.008-9.117-0.496-18.366,0.238-27.448    C492.187,272.213,492.148,265.392,491.483,258.829z M492.318,342.655c2.742,0.124,6.107,0.45,8.835-0.152    c0.009,0.719,0.022,1.442-0.003,2.143c-2.519,1.23-5.926,1.392-9.163,1.329C492.125,344.872,492.23,343.765,492.318,342.655z     M428.701,140.645c-0.843-5.078,5.825-0.545,7.633-3.441c1.27-2.035-0.804-4.243-1.735-5.938    c-0.714-1.301-2.488-3.997-1.292-5.407c1.842-2.172,4.047,1.545,4.634,2.209c0.397,0.45,0.664,1.065,1.193,1.369    c6.772,3.887,5.3-7.019,4.324-10.073c-1.301-4.074-2.474-8.004-3.64-12.094c-0.483-1.695-2.265-7.265,1.279-6.799    c1.788,0.235,1.576,2.25,1.933,3.61c0.383,1.46,0.77,2.931,1.335,4.334c0.903,2.242,2.604,4.694,5.143,2.785    c2.154-1.62,0.739-5.508,1.012-7.599c0.114-0.864,0.334-3.566,1.457-3.762c1.002-0.175,2.207,1.508,2.5,2.266    c0.84,2.166,0.01,4.771-0.31,6.927c-0.56,3.786-0.907,7.137-1.012,10.962c-0.082,3.002-0.905,6.572,1.195,9.156    c0.979,1.204,2.795,2.136,4.38,1.86c1.121-0.196,1.707-1.021,2.433-1.801c0.555-0.596,1.005-1.152,1.727-0.446    c1.157,1.13-0.454,3.204-0.882,4.325c-0.685,1.796-1.868,3.601,0.212,5.189c1.68,1.282,3.793,0.414,5.257-0.704    c1.177-0.9,4.075-4.133,3.736-0.31c-0.128,1.451-3.171,4.971-3.982,6.239c-1.784,2.793-2.881,5.404-3.727,8.521    c-0.738,0.01-1.463,0.034-2.115-0.004c-2.163-0.129-4.296-0.541-6.446-0.803c1.947-3.408,4.077-8.519,2.912-12.351    c-0.404-1.327-1.117-1.962-2.503-2.078c-0.742-0.063-1.532,0.53-2.17,0.468c-0.989,0.821-1.59,0.362-1.806-1.377    c-0.032-0.568-0.049-1.135-0.049-1.705c-0.376-3.287-2.389-6.69-6.117-4.545c-4.054,2.332-1.931,6.445-1.527,10.266    c-2.644-0.501-6.045-1.572-5.539,2.703c0.173,1.46,1.165,2.939,2.115,4.028c1.339,1.537,2.151,2.778,2.871,4.267    c-0.291-0.003-0.582-0.001-0.873-0.006c-1.224-0.023-2.841-0.25-4.335-0.179c-0.739-1.311-1.6-2.113-2.934-3.379    C433.343,145.77,429.073,142.884,428.701,140.645z M445.754,136.239c-0.214-1.267-1.029-5.397,1.415-4.501    c1.146,0.42,1.186,1.449,1.228,2.872c0.064,2.128-0.426,4.322,1.653,5.702c0.723,0.48,1.692,0.782,2.579,0.618    c0.616-0.114,1.187-1.042,1.828-0.978c1.031,0.103,0.355,0.923,0.194,2.202c-0.352,2.768-1.701,6.078-1.677,8.877    c-1.949-0.124-3.904-0.138-5.862-0.132c-0.613-1.693-1.19-3.173-2.571-4.733c-0.45-0.509-2.985-2.206-2.832-2.897    c0.261-1.184,2.593-0.268,3.473-0.276c0.823-0.008,1.411-0.664,1.454-1.455C446.74,139.639,446.066,138.088,445.754,136.239z     M445.812,154.211c2.204,0.2,4.413,0.34,6.625,0.433c2.975,0.125,5.981,0.475,8.951,0.761c1.431-0.006,2.824,0.227,4.181,0.698    c-0.043,0.44-0.086,0.882-0.129,1.323c0.364,1.14,0.061,3.161-0.025,4.776c-4.652,0.094-9.433-0.163-14.043-0.5    c-4.682-0.343-9.424-0.694-14.163-0.933c-0.041-1.422-0.243-2.884,0.113-4.021c0.61-1.943,0.947-1.859,3.273-2.144    C442.348,154.389,444.055,154.053,445.812,154.211z M432.02,165.286c2.798-0.04,5.469,0.086,8.243,0.326    c5.826,0.504,11.77,0.538,17.613,0.418c3.491-0.072,6.991-0.044,10.47-0.335c1.608-0.135,5.439-0.905,7.177,0.003    c-0.019,0.149-0.02,0.356,0.009,0.646c0.094,0.969-0.076,2.027-0.072,3.008c0.007,1.456,0.141,2.748,0.33,4.124    c-0.907-0.396-1.719-0.846-2.362-1.303c-1.516-1.078-2.811-3.308-4.974-2.911c-2.483,0.456-3.481,3.748-5.873,4.573    c-4.33,1.492-10.148-0.833-13.189-3.743c-0.548-0.524-1.366-0.79-2.111-0.558c-2.078,0.648-2.333,1.747-3.939,3.059    c-2.708,2.214-6.686,2.065-9.852,1.064c-2.425-0.766-4.971-3.289-7.677-4.211c-0.219-1.446-0.838-2.995-1.172-4.381    C426.828,164.719,430.302,165.31,432.02,165.286z M377.652,162.559c5.224,2.399,10.244,5.17,15.559,7.376    c0.876,0.364,1.782,0.761,2.705,1.141c-2.596,3.008-5.345,4.102-9.8,3.053c-4.026-0.949-6.188-3.699-9.662-5.415    c-1.059-0.522-2.441-0.308-3.05,0.8c-2.885,5.242-12.269,6.323-15.241,0.381c-0.046-0.093-0.121-0.157-0.179-0.238    c-0.763-6.333-5.254-12.781-8.897-17.547c-1.029-1.346-2.112-2.585-3.233-3.763C356.504,152.97,367.097,157.71,377.652,162.559z     M301.393,133.07c7.563,0.793,14.885,2.588,21.899,5.441c1.532,0.685,3.066,1.367,4.603,2.044    c6.779,3.277,12.427,7.103,17.246,12.92c2.092,2.525,3.888,5.254,5.524,8.097c1.322,2.296,3.012,4.984,4.225,7.605    c-0.453,0.278-0.809,0.69-0.916,1.265c-1.541,8.311-12.385,2.385-16.247-0.086c-0.122-0.077-0.248-0.136-0.376-0.185    c-0.077-0.304-0.131-0.498-0.118-0.46c-0.568-1.746-1.272-3.327-2.102-4.967c-1.967-3.887-4.332-7.479-6.96-10.947    c-3.709-4.892-8.014-9.434-12.932-13.131c-4.338-3.261-9.119-5.765-14.143-7.63C301.196,133.049,301.294,133.06,301.393,133.07z     M259.912,153.781c-0.086-4.183-0.129-8.57-0.533-12.731c-0.273-2.822-1.277-7.271-1.189-10.662    c0.482,0.114,0.984,0.193,1.491,0.258c1.986,1.993,3.764,4.788,5.187,6.78c2.609,3.651,4.711,7.105,6.783,11.105    c1.708,3.296,3.024,6.743,4.271,10.272c1.49,4.218,1.352,7.97,1.531,12.158c-4.44,4.637-12.49,4.528-16.776-0.501    c-0.313-0.367-0.725-0.575-1.167-0.667c0.363-1.977,0.308-4.208,0.462-5.914C260.285,160.44,259.983,157.206,259.912,153.781z     M273.541,144.459c-2.263-4.024-4.949-7.761-7.89-11.334c-0.584-0.709-1.27-1.525-2.036-2.282    c1.174,0.135,2.378,0.164,3.591,0.133c1.957,1.268,4.163,2.098,6.06,3.522c4.576,3.435,8.25,8.078,11.274,12.932    c4.862,7.805,8.122,15.797,10.918,24.436c-1.578,1.885-3.255,2.776-5.043,3.08c-2.82-0.863-7.093-1.158-8.643-3.844l-0.002-0.003    c-0.075-4.63-0.362-8.76-2.123-13.327C277.86,153.134,275.969,148.776,273.541,144.459z M294.134,158.821    c-2.016-4.801-4.721-9.37-7.407-13.808c-2.731-4.512-6.331-9.44-10.793-12.736c2.668,1.278,5.64,2.276,8.143,3.396    c4.918,2.2,9.156,4.977,13.114,8.688c4.935,4.629,9.191,9.444,12.552,15.332c2.267,3.971,3.94,8.097,5.909,12.159    c-1.604,1.434-2.635,3.044-4.971,3.818c-3.06,1.015-9.349,1.042-10.892-2.683c-0.343-0.829-1.12-1.549-1.98-1.82    C297.463,166.944,295.68,162.507,294.134,158.821z M312.911,158.818c-3.349-6.04-7.266-10.688-12.177-15.513    c-3.613-3.548-7.55-6.892-12.062-9.292c-1.408-0.749-2.904-1.386-4.398-2.014c9.46,1.967,18.958,4.087,27.007,9.762    c10.838,7.642,17.523,17.956,23.365,29.452c-1.551,2.488-0.658,4.042-4.821,3.713c-1.111-0.087-2.136-0.292-3.12-0.569    c-1.526-0.57-3.033-1.181-4.524-1.873c-0.729-0.384-1.458-0.792-2.206-1.218c-0.227-0.129-0.45-0.204-0.669-0.253    c-0.046-0.027-0.094-0.049-0.141-0.075c-0.29-0.167-0.634-0.259-0.984-0.293C317.516,166.423,314.914,162.43,312.911,158.818z     M283.502,121.059c0.064,0.051,0.123,0.106,0.196,0.15c5.04,3.109,10.868,5.168,16.619,7.275    c-5.47-0.902-11.433-1.764-17.147-1.797c-0.267-0.561-0.48-1.091-0.54-1.474C282.437,123.984,282.887,122.497,283.502,121.059z     M244.885,96.988c1.445-1.598,2.918-1.626,3.266-4.014c0.45-3.098-1.54-6.035-2.017-9.023    c-1.013-6.357,4.941-13.107,11.497-12.511c5.701,0.519,8.841,7.284,8.221,12.478c-0.35,2.926-2.452,6.094-2.02,9.057    c0.349,2.387,1.82,2.415,3.265,4.013c2.211,2.445,0.919,5.448,0.408,8.456c-0.41,0.187-0.824,0.398-1.239,0.643    c-2.414-3.184-7.314-4.442-10.275-1.592c-2.961-2.85-7.861-1.592-10.275,1.592c-0.415-0.245-0.829-0.456-1.239-0.643    C243.965,102.436,242.674,99.433,244.885,96.988z M234.36,111.003l0.44,0.801c0.524,0.224,0.874,0.711,1.529,0.921    c0.866,0.277,1.775-0.326,2.027-1.152c2.15-7.001,4.673-3.079,6.675-1.157c1.173,1.126,2.806,0.498,3.352-0.885    c1.145-2.899,3.899-2.825,6.443-1.649c0.383,0.177,0.791,0.181,1.167,0.083c0.376,0.098,0.786,0.095,1.167-0.083    c2.542-1.176,5.297-1.25,6.443,1.649c0.547,1.383,2.18,2.011,3.352,0.885c2-1.922,4.524-5.843,6.675,1.157    c0.253,0.824,1.161,1.428,2.027,1.152c0.654-0.209,1.005-0.697,1.529-0.921l0.44-0.801c3.843-1.636,5.409-1.088,4.699,1.645    c-0.328,3.427-2.968,6.684-3.476,10.194c-0.179,1.237-0.072,2.656,0.316,3.974c-0.52,0.039-1.033,0.09-1.545,0.147    c-0.809-0.144-1.63-0.269-2.456-0.373c0.003-0.012,0.008-0.025,0.011-0.036c0.19-0.812,0.113-1.501,0.017-2.309    c-0.193-1.633,0.417-3.344,0.288-4.973c-0.22-2.768-4.253-3.594-5.014-0.678c-0.495,1.895-0.73,4.414-0.232,6.354    c0.12,0.467,0.241,0.906,0.381,1.321c-0.028,0-0.055,0.001-0.083,0.001c-0.448-0.029-0.903-0.049-1.374-0.059    c-1.355-0.027-2.833-0.206-4.346-0.382c0.226-0.811,0.353-1.662,0.579-2.497c0.31-1.154,0.522-3.137,0.081-4.296    c-0.549-1.443-1.725-2.09-3.231-1.834c-0.035,0.005-0.07,0.012-0.105,0.018c-1.074,0.181-1.796,1.392-1.82,2.39    c-0.007,0.287,0.077,0.912,0.09,0.755c0.003,0.233,0,0.467,0.01,0.7c0.025,0.616-0.018,1.07-0.127,1.671    c-0.159,0.874-0.143,1.83,0.069,2.731c-1.489-0.024-2.925,0.101-4.215,0.536c-0.054,0.019-0.102,0.048-0.154,0.07    c-0.049-0.021-0.087-0.053-0.138-0.07c-1.29-0.436-2.725-0.56-4.215-0.536c0.211-0.901,0.228-1.857,0.069-2.731    c-0.11-0.601-0.153-1.054-0.127-1.671c0.009-0.233,0.007-0.467,0.01-0.7c0.012,0.157,0.096-0.467,0.09-0.755    c-0.024-0.998-0.746-2.208-1.82-2.39c-0.035-0.006-0.07-0.012-0.105-0.018c-1.506-0.256-2.682,0.392-3.231,1.834    c-0.441,1.161-0.229,3.143,0.081,4.296c0.225,0.835,0.353,1.686,0.579,2.497c-1.511,0.176-2.991,0.354-4.346,0.382    c-0.47,0.009-0.925,0.03-1.374,0.059c-0.028,0-0.055-0.001-0.083-0.001c0.139-0.415,0.26-0.854,0.379-1.321    c0.497-1.94,0.262-4.458-0.232-6.354c-0.761-2.914-4.794-2.09-5.014,0.678c-0.129,1.63,0.48,3.34,0.288,4.973    c-0.096,0.808-0.174,1.497,0.017,2.309c0.002,0.011,0.008,0.024,0.011,0.037c-0.826,0.104-1.647,0.229-2.456,0.373    c-0.511-0.057-1.025-0.109-1.544-0.147c0.389-1.317,0.496-2.737,0.316-3.974c-0.508-3.511-3.148-6.768-3.476-10.194    C228.949,109.915,230.516,109.366,234.36,111.003z M202.241,159.693c3.361-5.888,7.617-10.703,12.552-15.332    c3.958-3.712,8.196-6.489,13.114-8.688c2.503-1.12,5.476-2.118,8.143-3.396c-4.462,3.296-8.062,8.225-10.793,12.736    c-2.686,4.438-5.391,9.007-7.407,13.808c-1.547,3.685-3.33,8.123-3.674,12.346c-0.861,0.271-1.637,0.99-1.98,1.82    c-1.543,3.725-7.832,3.698-10.891,2.683c-2.336-0.774-3.368-2.384-4.971-3.818C198.3,167.79,199.974,163.664,202.241,159.693z     M193.801,170.645c-0.35,0.034-0.694,0.126-0.984,0.293c-0.046,0.027-0.094,0.049-0.141,0.075    c-0.22,0.051-0.443,0.125-0.669,0.253c-0.748,0.426-1.477,0.834-2.206,1.218c-1.491,0.693-2.998,1.303-4.524,1.873    c-0.982,0.277-2.008,0.481-3.12,0.569c-4.162,0.328-3.269-1.225-4.821-3.713c5.842-11.497,12.527-21.809,23.365-29.452    c8.048-5.675,17.547-7.795,27.007-9.762c-1.494,0.627-2.988,1.265-4.398,2.014c-4.512,2.401-8.45,5.743-12.062,9.292    c-4.912,4.825-8.829,9.473-12.177,15.513C197.069,162.43,194.466,166.423,193.801,170.645z M227.44,147.43    c3.024-4.854,6.698-9.496,11.274-12.932c1.896-1.424,4.102-2.254,6.06-3.522c0.71,0.019,1.418,0.017,2.119-0.01    c-1.508,2.208-2.629,4.746-3.734,7.126c-2.371,5.104-4.554,10.181-6.346,15.526c-1.699,5.068-2.526,10.368-3.477,15.62    c-0.149,0.825-0.33,1.711-0.446,2.602c-2.172,0.424-4.43,1.654-6.349,2.259c-0.874,0.276-1.732,0.6-2.586,0.938    c-2.705,0.199-5.171-0.471-7.433-3.173C219.318,163.227,222.58,155.233,227.44,147.43z M239.175,155.327    c2.97-8.725,6.543-16.87,11.452-24.54c1.433-0.062,2.829-0.248,4.086-0.661c-0.089,2.475,0.453,5.135,0.647,7.47    c0.312,3.735,0.585,7.412,0.854,11.146c0.272,3.783,0.674,7.748,0.714,11.553c0.029,2.835,0.298,7.05-0.17,10.211    c-2.706,1.607-4.424,3.961-8.143,4.34c-5.282,0.539-8.405-1.905-13.132-3.026c-0.045-0.011-0.092-0.016-0.137-0.024    C237.091,166.509,237.359,160.662,239.175,155.327z M228.284,121.211c0.073-0.045,0.132-0.1,0.196-0.15    c0.615,1.438,1.065,2.924,0.872,4.154c-0.061,0.383-0.273,0.913-0.54,1.474c-5.713,0.032-11.677,0.895-17.147,1.797    C217.416,126.377,223.246,124.318,228.284,121.211z M184.088,140.555c1.537-0.676,3.07-1.359,4.603-2.044    c7.013-2.853,14.336-4.648,21.899-5.441c0.098-0.01,0.197-0.021,0.295-0.032c-5.024,1.864-9.804,4.368-14.143,7.63    c-4.918,3.695-9.222,8.237-12.932,13.131c-2.629,3.467-4.993,7.06-6.96,10.947c-0.83,1.639-1.533,3.221-2.102,4.967    c0.012-0.037-0.041,0.156-0.118,0.46c-0.128,0.049-0.256,0.106-0.376,0.185c-3.862,2.472-14.706,8.398-16.247,0.086    c-0.106-0.574-0.464-0.987-0.916-1.265c1.215-2.621,2.903-5.308,4.225-7.605c1.636-2.842,3.432-5.572,5.524-8.097    C171.661,147.658,177.31,143.832,184.088,140.555z M118.771,169.935c5.315-2.206,10.335-4.978,15.559-7.376    c10.555-4.847,21.148-9.588,31.798-14.212c-1.121,1.178-2.204,2.416-3.233,3.763c-3.641,4.766-8.132,11.214-8.896,17.547    c-0.059,0.081-0.133,0.145-0.179,0.238c-2.972,5.942-12.354,4.862-15.241-0.381c-0.61-1.107-1.991-1.322-3.05-0.8    c-3.474,1.716-5.636,4.465-9.662,5.415c-4.455,1.051-7.205-0.044-9.8-3.053C116.99,170.696,117.895,170.298,118.771,169.935z     M44.752,143.503c-0.81-1.268-3.852-4.79-3.982-6.239c-0.339-3.825,2.559-0.591,3.736,0.31c1.464,1.119,3.577,1.986,5.256,0.704    c2.079-1.588,0.897-3.393,0.212-5.189c-0.427-1.12-2.039-3.195-0.882-4.325c0.722-0.706,1.172-0.15,1.727,0.446    c0.725,0.78,1.312,1.605,2.433,1.801c1.585,0.277,3.402-0.655,4.38-1.86c2.1-2.585,1.277-6.155,1.195-9.157    c-0.104-3.826-0.453-7.176-1.012-10.962c-0.319-2.157-1.148-4.761-0.31-6.927c0.293-0.758,1.498-2.44,2.5-2.266    c1.123,0.196,1.343,2.898,1.457,3.762c0.274,2.091-1.142,5.978,1.012,7.599c2.538,1.91,4.24-0.542,5.143-2.785    c0.565-1.403,0.951-2.873,1.335-4.334c0.357-1.36,0.144-3.375,1.933-3.61c3.544-0.466,1.763,5.104,1.279,6.799    c-1.166,4.09-2.339,8.02-3.64,12.094c-0.976,3.053-2.447,13.958,4.324,10.073c0.53-0.303,0.795-0.918,1.193-1.369    c0.585-0.664,2.791-4.381,4.634-2.209c1.196,1.41-0.579,4.106-1.292,5.407c-0.93,1.695-3.005,3.903-1.735,5.938    c1.807,2.895,8.476-1.636,7.633,3.441c-0.372,2.238-4.642,5.125-6.288,6.685c-1.334,1.267-2.194,2.069-2.934,3.379    c-1.494-0.071-3.112,0.156-4.335,0.179c-0.291,0.006-0.582,0.002-0.873,0.006c0.719-1.489,1.531-2.731,2.871-4.267    c0.949-1.09,1.942-2.567,2.115-4.028c0.507-4.275-2.894-3.204-5.539-2.703c0.404-3.822,2.527-7.934-1.527-10.266    c-3.73-2.145-5.741,1.258-6.117,4.545c0,0.569-0.017,1.136-0.049,1.705c-0.215,1.739-0.817,2.198-1.806,1.377    c-0.637,0.063-1.427-0.53-2.17-0.468c-1.385,0.115-2.1,0.75-2.504,2.078c-1.165,3.831,0.965,8.943,2.912,12.351    c-2.15,0.262-4.283,0.674-6.446,0.803c-0.653,0.039-1.377,0.014-2.115,0.004C47.634,148.907,46.535,146.296,44.752,143.503z     M46.413,156.103c1.358-0.471,2.752-0.704,4.181-0.698c2.97-0.287,5.976-0.636,8.951-0.761c2.212-0.093,4.42-0.232,6.625-0.433    c1.757-0.158,3.464,0.178,5.219,0.394c2.326,0.285,2.664,0.201,3.273,2.144c0.356,1.135,0.154,2.599,0.113,4.021    c-4.74,0.239-9.481,0.59-14.163,0.933c-4.61,0.337-9.391,0.594-14.043,0.5c-0.087-1.615-0.391-3.637-0.025-4.776    C46.5,156.985,46.456,156.544,46.413,156.103z M63.586,134.61c0.043-1.423,0.082-2.452,1.228-2.872    c2.444-0.896,1.629,3.234,1.415,4.501c-0.312,1.849-0.985,3.401-0.881,5.301c0.043,0.79,0.632,1.447,1.454,1.455    c0.88,0.008,3.212-0.908,3.473,0.276c0.153,0.69-2.382,2.388-2.832,2.897c-1.381,1.56-1.958,3.04-2.571,4.733    c-1.957-0.007-3.912,0.007-5.862,0.132c0.023-2.798-1.325-6.108-1.677-8.877c-0.163-1.28-0.839-2.099,0.194-2.202    c0.641-0.064,1.211,0.864,1.828,0.978c0.886,0.164,1.855-0.137,2.579-0.618C64.012,138.932,63.521,136.738,63.586,134.61z     M36.451,166.346c0.029-0.29,0.027-0.497,0.009-0.646c1.738-0.908,5.57-0.138,7.177-0.003c3.478,0.291,6.98,0.263,10.47,0.335    c5.843,0.119,11.786,0.087,17.613-0.418c2.774-0.24,5.445-0.367,8.243-0.326c1.718,0.024,5.192-0.566,7.381-0.219    c-0.334,1.386-0.953,2.935-1.172,4.381c-2.705,0.922-5.251,3.444-7.676,4.211c-3.166,1.001-7.144,1.151-9.852-1.064    c-1.605-1.312-1.861-2.411-3.939-3.059c-0.745-0.232-1.563,0.034-2.111,0.558c-3.042,2.91-8.859,5.235-13.189,3.743    c-2.391-0.824-3.39-4.117-5.873-4.573c-2.163-0.397-3.457,1.833-4.974,2.911c-0.644,0.458-1.456,0.907-2.363,1.303    c0.189-1.375,0.324-2.669,0.33-4.124C36.528,168.373,36.357,167.315,36.451,166.346z M5.774,183.848    c-0.553-1.174-0.787-4.147-0.732-6.642c0.24,0.24,0.509,0.464,0.836,0.653c2.165,1.256,5.148,1.391,7.537,1.06    c1.681-0.232,3.528-0.725,5.05-1.49c1.255-0.631,2.392-2.018,3.584-2.933c1.552,2.384,3.877,3.804,6.998,4.361    c2.289,0.409,4.974,0.168,7.189-0.601c1.214-0.422,2.245-1.245,3.258-2.008c0.875-0.659,1.637-1.194,2.643-1.628    c0.376-0.162,0.596-0.393,0.992-0.228c0.294,0.122,0.663,0.685,0.939,0.886c0.627,0.458,1.047,1.017,1.778,1.469    c1.641,1.013,3.777,1.65,5.653,1.722c2.422,0.093,5.346-0.314,7.672-1.02c1.504-0.457,4.398-3.304,5.492-3.29    c-0.299-0.003,3.161,3.49,3.872,3.814c1.992,0.905,4.576,0.991,6.724,0.867c2.029-0.118,4.189-0.518,6.084-1.252    c1.3-0.505,2.596-1.372,3.818-2.034c1.396-0.756,3.046-2.165,4.453-0.71c1.265,1.308,2.559,2.97,4.33,3.595    c2.236,0.79,4.703,0.834,7.041,0.623c2.258-0.205,4.438-0.772,6.486-1.751c1.732-0.828,3.361-2.534,5.089-3.504    c2.554,3.058,5.15,5.259,9.724,5.405c3.057,0.097,6.092-0.753,8.885-1.937c2.055-0.871,3.346-2.309,4.939-3.569    c2.767,3.419,6.365,5.14,11.172,4.738c2.767-0.231,5.638-1.221,7.816-2.973c3.859,5.754,13.032,3.775,19.011,0.322    c0.118,0.491,0.302,0.978,0.669,1.41c1.443,1.693,3.768,2.38,5.921,2.529c4.502,0.312,8.505-1.581,12.283-3.704    c0.216-0.098,0.43-0.199,0.645-0.3c1.307,1.392,2.165,3.247,3.893,4.34c2.375,1.503,5.679,1.535,8.369,1.394    c3.344-0.175,6.865-1.475,9.211-3.9c-0.141,0.145,3.893,2.094,4.281,2.218c1.702,0.548,3.506,0.776,5.29,0.647    c2.404-0.173,4.57-1.263,6.742-2.212c2.692-1.175,3.44-0.871,6.108,0.019c4.402,1.797,9.378,2.484,14.067,1.375    c2.9-0.686,4.837-2.552,7.005-4.099c-0.096,0.07,4.881,2.836,5.422,3.02c2.087,0.715,4.312,1.033,6.516,0.903    c2.874-0.17,5.303-1.913,8.101-2.359c2.03-0.324,2.996,0.467,4.484,1.653c1.861,1.483,3.839,1.873,6.215,1.695    c0.705-0.053,7.997-2.402,7.552-2.861c2.344,2.426,5.867,3.726,9.211,3.9c2.69,0.141,5.993,0.108,8.369-1.394    c1.728-1.093,2.587-2.948,3.893-4.34c0.215,0.101,0.429,0.202,0.645,0.3c3.778,2.123,7.781,4.015,12.283,3.704    c2.152-0.149,4.478-0.836,5.921-2.529c0.367-0.433,0.551-0.918,0.669-1.41c5.98,3.453,15.152,5.434,19.011-0.322    c2.177,1.751,5.047,2.741,7.816,2.973c4.807,0.403,8.404-1.319,11.172-4.738c1.593,1.26,2.884,2.698,4.939,3.569    c2.794,1.184,5.83,2.035,8.885,1.937c4.573-0.146,7.171-2.347,9.724-5.405c1.728,0.97,3.358,2.676,5.089,3.504    c2.049,0.978,4.228,1.547,6.486,1.751c2.338,0.211,4.805,0.168,7.041-0.623c1.77-0.625,3.066-2.287,4.33-3.595    c1.407-1.456,3.057-0.045,4.453,0.71c1.223,0.662,2.519,1.529,3.818,2.034c1.895,0.735,4.055,1.134,6.084,1.252    c2.148,0.125,4.732,0.039,6.724-0.867c0.71-0.323,4.17-3.817,3.871-3.814c1.094-0.013,3.989,2.833,5.492,3.29    c2.326,0.707,5.25,1.113,7.672,1.02c1.875-0.072,4.012-0.708,5.653-1.722c0.731-0.453,1.151-1.011,1.778-1.469    c0.277-0.201,0.645-0.764,0.939-0.886c0.397-0.165,0.617,0.066,0.992,0.228c1.006,0.434,1.768,0.968,2.643,1.628    c1.015,0.763,2.045,1.587,3.258,2.008c2.215,0.769,4.899,1.01,7.189,0.601c3.121-0.558,5.447-1.977,6.998-4.361    c1.192,0.916,2.329,2.302,3.584,2.933c1.521,0.765,3.368,1.257,5.05,1.49c2.389,0.332,5.372,0.197,7.537-1.06    c0.327-0.189,0.596-0.414,0.836-0.653c0.054,2.495-0.179,5.468-0.732,6.642c-0.893,1.894-2.801,1.865-4.65,1.704    c-0.526-0.147-1.103-0.252-1.797-0.269c-9.409-0.232-18.853,0.7-28.274,0.139c-8.65-0.514-17.458-0.448-26.126-0.476    c-20.667-0.068-41.351-0.25-62.024-0.466c-9.809-0.103-19.661,0.365-29.501,0.367c-2.511,0.001-5.083-0.071-7.677-0.137    c-1.74-0.268-3.505-0.378-5.232-0.314c-5.949,0.223-11.916,0.079-17.903,0.056c-7.075-0.027-14.235-0.313-21.304-0.023    c-2.762,0.114-5.494,0.347-8.269,0.393c-0.725,0.011-1.447,0.063-2.167,0.129c-5.322-0.69-11.034-0.379-16.075-0.383    c-7.218-0.003-14.393-0.224-21.556,0.035c-7.803,0.282-15.596,0.351-23.412,0.482c-2.551,0.043-5.225,0.017-7.934,0.039    c-1.254-0.158-2.511-0.284-3.776-0.304c-2.775-0.045-5.507-0.28-8.269-0.393c-7.069-0.289-14.228-0.003-21.304,0.023    c-5.987,0.023-11.953,0.167-17.903-0.056c-1.727-0.064-3.492,0.045-5.232,0.314c-2.594,0.066-5.166,0.138-7.677,0.137    c-9.839-0.002-19.692-0.47-29.501-0.367c-20.674,0.217-41.358,0.398-62.026,0.466c-8.669,0.028-17.477-0.039-26.126,0.476    c-9.421,0.561-18.866-0.372-28.274-0.139c-0.693,0.017-1.271,0.122-1.796,0.269C8.576,185.712,6.667,185.742,5.774,183.848z     M8.508,237.762c-0.93-0.11-1.823,0.068-2.398-0.687c-0.843-1.109-0.402-5.62-0.166-6.606c1.531-6.422,7.454-11.816,12.707-15.302    c10.682-7.086,23.508-10.937,36.265-11.238c12.15-0.287,26.395,1.905,36.64,8.801c4.65,3.131,8.101,7.77,11.17,12.44    c2.197,3.344,3.375,7.19,3.789,11.265c-9.769-0.271-19.547-0.77-29.287-0.482c-7.083,0.208-14.139,1.185-21.202,1.404    c-7.215,0.223-14.461,0.034-21.706,0.306c-4.24,0.16-8.27,0.16-12.518,0.038c-2.506-0.073-5.617-0.31-8.316,0.191    C11.824,237.853,10.152,237.955,8.508,237.762z M24.788,437.674c-3.335,0.072-10.02,1.369-13.123-0.293    c-2.961-1.585-0.734-9.628-0.721-12.592c0.01-2.703-0.039-5.403-0.114-8.101c4.069,0.461,8.126,0.132,12.246,0.169    c3.515,0.032,8.378,0.95,12.033,0.094c0.052,0.374,0.095,0.747,0.152,1.122c0.59,3.952,0.944,7.833,1.753,11.738    c0.467,2.258,0.426,4.71,0.922,6.898c0.073,0.323,0.199,0.665,0.335,1.011C33.771,437.664,29.274,437.578,24.788,437.674z     M10.471,406.766c0.686,0.141,1.413,0.197,2.298,0.228c3.804,0.133,7.818-0.153,11.627-0.294c3.075-0.114,6.693,0.147,9.872-0.522    c0.012,2.309,0.155,4.61,0.381,6.918c-7.723-0.366-16.188-0.688-23.916,0.564C10.655,411.362,10.565,409.063,10.471,406.766z     M53.29,437.501c-4.089,0.253-8.185,0.279-12.281,0.247c0.762-10.545-3.404-21.056-2.955-31.659    c0.457-10.779,1.535-25.134,11.431-31.529c2.599-1.68,5.383-3.08,8.609-2.679c5.709,0.71,6.238,5.578,6.873,10.275    c0.693,5.125,0.708,10.502,0.759,15.681c0.127,13.026-0.774,26.108,0.17,39.101C61.699,437.063,57.499,437.24,53.29,437.501z     M69.931,405.078c1.496,0.136,3.072,0.028,4.359,0.059c3.792,0.091,7.631,0.467,11.399,0.321    c5.998-0.235,14.85,1.453,20.688-0.749c-0.138,2.348-0.24,4.7-0.308,7.047c-7.526-0.146-15.065,0.031-22.574-0.204    c-3.165-0.1-6.273,0.493-9.417,0.741c-1.213,0.095-2.705,0.406-4.13,0.623C69.95,410.302,69.946,407.69,69.931,405.078z     M70.741,436.828c0.003-6.951-0.646-13.879-0.766-20.832c3.635,0.77,8.714-0.299,11.366-0.368    c8.177-0.219,16.454,0.378,24.674,0.252c-0.01,1.008-0.042,2.022-0.039,3.025c0.017,5.75-0.617,12.686,1.187,18.397    C94.982,436.858,82.875,436.605,70.741,436.828z M144.276,400.172c-0.094,6.274-0.489,12.543-0.549,18.806    c-0.061,6.341-0.791,12.88-0.451,19.178c0.011,0.196,0.044,0.377,0.085,0.552c-10.857-0.226-21.723-0.835-32.528-1.269    c0.302-4.517-0.401-9.17-0.438-13.684c-0.059-6.941,0.24-13.819,0.647-20.742c0.687-11.672,1.87-27.411,14.333-32.73    c2.618-1.117,5.173-1.547,8.02-1.411c6.537,0.314,9.45,4.212,10.315,10.223C144.719,386.099,144.381,393.128,144.276,400.172z     M165.926,438.416c-5.666,0.32-11.349,0.401-17.037,0.362c0.025-0.194,0.032-0.399,0.014-0.62    c-0.28-3.607,0.266-7.315,0.195-10.952c-0.07-3.573-0.164-7.163-0.102-10.74c2.642,0.653,5.384,0.775,8.164,0.841    c3.834,0.091,8.49,1.213,12.353,0.319c-0.061,6.757-0.497,14.116,1.04,20.705C169.009,438.315,167.466,438.328,165.926,438.416z     M169.512,413.524c-3.76-0.545-7.745-0.537-11.521-0.439c-2.935,0.076-5.973,0.009-8.927,0.311    c0.093-3.116,0.149-6.26,0.164-9.413c0.358,0.085,0.657,0.15,0.774,0.172c1.826,0.344,3.698,0.58,5.552,0.686    c4.65,0.267,9.351-0.224,13.991,0.17C169.471,407.849,169.492,410.691,169.512,413.524z M193.046,439.809    c-6.436-0.302-12.925-1.134-19.396-1.403c-0.08-11.988-0.529-24.101,0.11-36.081c0.601-11.266,4.116-32.466,19.124-32.558    c9.305-0.058,10.578,9.588,11.289,16.835c0.55,5.619,0.604,11.273,1.031,16.894c0.922,12.144,0.762,24.426,0.964,36.598    c0.001,0.091,0.021,0.168,0.03,0.255C201.766,440.225,197.342,440.01,193.046,439.809z M210.068,405.963    c3.937,0.623,8.061,0.174,12.016,0.084c4.889-0.112,9.684,0.455,14.566,0.243c0.089-0.003,0.175-0.018,0.26-0.03    c0.012,1.569,0.012,3.031-0.027,4.33c-0.028,0.939-0.072,1.872-0.12,2.801c-4.246-1.225-9.117,0.104-13.423,0.218    c-2.957,0.079-8.862-1.244-12.844-0.392C210.361,410.799,210.216,408.38,210.068,405.963z M236.933,430.892    c-0.032,1.504,0.048,6.228-0.791,7.193c-1.077,1.239-5.566,1.333-7.458,1.634c-2.155,0.343-4.322,0.662-6.504,0.652    c-0.032,0-0.062-0.001-0.093-0.002c-0.221-0.101-0.474-0.158-0.762-0.142c-0.41,0.023-0.83,0.028-1.242,0.046    c-2.412-0.187-4.499-0.519-6.645,0.155c-0.626,0.001-1.248,0.016-1.876,0.012c0.011-0.115,0.03-0.224,0.027-0.347    c-0.167-7.632-0.472-15.263-0.866-22.886c5.126,0.71,10.406,0.905,15.556,0.591c2.836-0.174,5.638-0.196,8.446-0.268    c0.766-0.02,1.351-0.065,1.848-0.217c-0.095,2.329-0.121,4.656,0.097,7.016C236.869,426.506,236.978,428.703,236.933,430.892z     M270.231,432.963c0.095,2.039-0.139,4.718,0.289,6.749c-0.054,0-0.108-0.001-0.163-0.001c-6.072,0.011-12.1-0.499-18.149-0.528    c-3.512-0.017-7.084-0.052-10.645,0.009c0.295-1.953,0.102-4.361,0.189-6.229c0.113-2.432,0.089-4.966-0.081-7.394    c-0.676-9.69,0.06-19.543,0.135-29.286c0.045-5.993-1.032-12.302,1.755-17.903c0.726-1.457,1.807-3.154,3.098-4.707    c4.646-1.693,8.818-4.678,14.144-2.523c1.546,0.625,3.094,1.496,4.529,2.533c1.287,1.549,2.365,3.243,3.089,4.697    c2.788,5.601,1.709,11.909,1.755,17.903c0.075,9.743,0.811,19.596,0.135,29.286C270.143,427.998,270.117,430.533,270.231,432.963z     M300.422,440.441c-0.628,0.003-1.25-0.01-1.876-0.012c-2.146-0.674-4.233-0.342-6.645-0.155c-0.413-0.02-0.833-0.023-1.244-0.046    c-0.289-0.017-0.541,0.041-0.762,0.142c-0.032,0-0.062,0.002-0.093,0.002c-2.183,0.01-4.348-0.309-6.505-0.652    c-1.892-0.301-6.382-0.395-7.458-1.634c-0.839-0.966-0.759-5.69-0.791-7.192c-0.046-2.19,0.064-4.386,0.264-6.563    c0.218-2.36,0.193-4.687,0.097-7.016c0.497,0.152,1.082,0.198,1.848,0.217c2.807,0.071,5.611,0.094,8.446,0.268    c5.15,0.314,10.43,0.118,15.556-0.591c-0.394,7.624-0.699,15.254-0.866,22.886C300.393,440.218,300.411,440.326,300.422,440.441z     M301.487,413.218c-3.983-0.852-9.887,0.471-12.844,0.392c-4.306-0.114-9.176-1.443-13.423-0.218    c-0.048-0.929-0.092-1.862-0.119-2.801c-0.039-1.299-0.039-2.762-0.027-4.33c0.086,0.012,0.173,0.027,0.26,0.03    c4.88,0.211,9.677-0.355,14.566-0.243c3.955,0.09,8.08,0.539,12.017-0.084C301.767,408.38,301.622,410.799,301.487,413.218z     M338.333,438.405c-6.47,0.27-12.96,1.102-19.395,1.403c-4.296,0.201-8.721,0.416-13.152,0.539    c0.008-0.085,0.028-0.164,0.03-0.254c0.201-12.173,0.042-24.455,0.964-36.598c0.427-5.62,0.481-11.274,1.031-16.894    c0.709-7.247,1.984-16.892,11.289-16.835c15.008,0.092,18.523,21.291,19.124,32.558    C338.862,414.305,338.411,426.418,338.333,438.405z M363.094,438.777c-5.689,0.039-11.371-0.043-17.037-0.362    c-1.54-0.087-3.083-0.1-4.628-0.086c1.537-6.589,1.101-13.948,1.04-20.705c3.862,0.894,8.519-0.228,12.353-0.319    c2.78-0.066,5.522-0.188,8.164-0.841c0.062,3.577-0.032,7.167-0.102,10.74c-0.071,3.637,0.475,7.345,0.195,10.952    C363.063,438.378,363.07,438.584,363.094,438.777z M342.438,405.011c4.64-0.393,9.342,0.096,13.991-0.17    c1.854-0.106,3.726-0.343,5.552-0.686c0.117-0.022,0.416-0.087,0.774-0.172c0.014,3.153,0.071,6.297,0.164,9.413    c-2.954-0.302-5.991-0.235-8.927-0.311c-3.776-0.097-7.761-0.106-11.521,0.439C342.491,410.691,342.513,407.849,342.438,405.011z     M401.149,437.44c-10.805,0.434-21.67,1.043-32.528,1.269c0.041-0.175,0.075-0.355,0.085-0.552    c0.339-6.299-0.392-12.837-0.451-19.178c-0.06-6.263-0.455-12.532-0.549-18.806c-0.105-7.044-0.443-14.073,0.564-21.076    c0.864-6.011,3.778-9.909,10.315-10.223c2.847-0.137,5.404,0.293,8.021,1.411c12.464,5.32,13.647,21.058,14.333,32.73    c0.407,6.923,0.706,13.8,0.647,20.742C401.549,428.27,400.846,432.922,401.149,437.44z M441.242,436.828    c-12.134-0.223-24.241,0.031-36.422,0.474c1.805-5.712,1.171-12.648,1.187-18.397c0.003-1.004-0.029-2.017-0.039-3.025    c8.219,0.127,16.496-0.47,24.674-0.252c2.652,0.071,7.732,1.14,11.366,0.368C441.889,422.948,441.24,429.875,441.242,436.828z     M442.034,412.914c-1.426-0.217-2.918-0.527-4.13-0.623c-3.143-0.248-6.251-0.841-9.417-0.741    c-7.509,0.235-15.048,0.058-22.574,0.204c-0.068-2.347-0.17-4.699-0.308-7.047c5.838,2.202,14.691,0.514,20.688,0.749    c3.768,0.147,7.608-0.23,11.399-0.321c1.287-0.031,2.863,0.077,4.359-0.059C442.036,407.69,442.033,410.302,442.034,412.914z     M458.693,437.501c-4.21-0.261-8.41-0.438-12.605-0.562c0.945-12.993,0.043-26.075,0.17-39.101    c0.051-5.179,0.066-10.557,0.759-15.681c0.635-4.697,1.164-9.566,6.873-10.275c3.226-0.401,6.01,1,8.609,2.679    c9.897,6.395,10.974,20.749,11.431,31.529c0.449,10.604-3.717,21.113-2.955,31.659    C466.878,437.779,462.782,437.754,458.693,437.501z M500.319,437.382c-3.103,1.662-9.788,0.364-13.123,0.293    c-4.488-0.096-8.983-0.01-13.48,0.048c0.136-0.346,0.262-0.688,0.335-1.011c0.496-2.188,0.455-4.64,0.922-6.898    c0.809-3.904,1.163-7.786,1.753-11.738c0.056-0.375,0.1-0.748,0.152-1.122c3.656,0.856,8.518-0.063,12.033-0.094    c4.118-0.038,8.176,0.293,12.246-0.169c-0.075,2.698-0.124,5.398-0.114,8.101C501.052,427.755,503.28,435.797,500.319,437.382z     M477.333,413.097c0.226-2.309,0.368-4.61,0.381-6.918c3.18,0.669,6.797,0.408,9.872,0.522c3.81,0.142,7.823,0.427,11.627,0.294    c0.885-0.031,1.612-0.087,2.298-0.228c-0.093,2.298-0.183,4.596-0.262,6.895C493.521,412.409,485.056,412.731,477.333,413.097z     M501.935,392.114c-0.028,4.027-0.163,8.051-0.321,12.075c-2.546-0.173-5.471-1.244-7.727-1.468    c-3.074-0.305-6.195-0.167-9.284-0.459c-1.875-0.177-4.718-0.693-7.017-0.326c-0.079-1.242-0.185-2.489-0.347-3.745    c-1.541-11.865-4.608-24.545-17.042-29.058c-4.684-1.701-10.463-1.144-13.918,2.777c-3.371,3.825-3.618,11.748-3.848,16.645    c-0.214,4.527-0.311,9.057-0.358,13.59c-2.631-0.039-5.942-0.782-8.003-0.804c-3.422-0.038-6.676,0.121-10.098-0.092    c-3.75-0.232-7.517,0.158-11.265-0.045c-2.635-0.143-4.898-0.669-7.306,0.236c-0.16-2.133-0.347-4.261-0.58-6.369    c-1.332-12.147-5.484-25.662-18.51-29.553c-5.792-1.73-13.806-1.35-18.22,3.372c-4.493,4.807-4.61,13.117-4.966,19.248    c-0.239,4.125-0.349,8.313-0.376,12.506c-0.921-0.096-1.883-0.273-2.733-0.232c-1.665,0.081-3.28,0.285-4.954,0.264    c-4.249-0.051-8.6-0.337-12.836,0.049c-0.157-2.239-0.395-4.47-0.786-6.68c-1.109-6.28-2.789-13.92-6.734-19.106    c-3.384-4.449-9.422-9.227-15.317-9.222c-15.587,0.017-16.039,19.166-16.84,30.543c-0.155,2.194-0.297,4.39-0.437,6.586    c-4.637-0.985-9.553-1.099-14.244-1.198c-3.739-0.079-8.985-1.071-12.756-0.061c0.051-7.869-0.16-17.228-3.043-24.153    c1.573-4.96-5.283-8.954-9.069-10.649c-5.467-2.447-15.815-1.071-19.124,4.588c-6.677,6.446-7.079,19.667-7.011,30.212    c-3.771-1.011-9.016-0.019-12.756,0.061c-4.691,0.1-9.607,0.214-14.244,1.198c-0.141-2.196-0.282-4.392-0.437-6.586    c-0.8-11.377-1.254-30.526-16.84-30.543c-5.895-0.005-11.932,4.772-15.317,9.222c-3.944,5.187-5.625,12.826-6.734,19.106    c-0.391,2.212-0.628,4.441-0.786,6.68c-4.236-0.386-8.588-0.1-12.836-0.049c-1.674,0.021-3.288-0.184-4.954-0.264    c-0.85-0.042-1.812,0.135-2.733,0.232c-0.028-4.192-0.137-8.381-0.376-12.506c-0.355-6.13-0.472-14.442-4.966-19.248    c-4.414-4.722-12.427-5.104-18.22-3.372c-13.026,3.891-17.178,17.407-18.51,29.553c-0.231,2.11-0.419,4.236-0.58,6.37    c-2.408-0.906-4.67-0.38-7.306-0.236c-3.748,0.204-7.516-0.187-11.265,0.045c-3.422,0.212-6.677,0.054-10.098,0.092    c-2.061,0.022-5.372,0.766-8.003,0.804c-0.048-4.532-0.145-9.062-0.358-13.59c-0.23-4.898-0.477-12.82-3.848-16.645    c-3.455-3.921-9.234-4.478-13.918-2.777c-12.432,4.513-15.499,17.193-17.042,29.058c-0.163,1.256-0.269,2.503-0.347,3.745    c-2.299-0.366-5.141,0.149-7.017,0.326c-3.089,0.292-6.21,0.154-9.284,0.459c-2.255,0.225-5.18,1.296-7.727,1.468    c-0.157-4.024-0.293-8.048-0.321-12.075c-0.076-11.157,0.12-22.784-1.059-33.922c7.639,0.331,15.259,0.6,22.919,0.842    c9.037,0.285,18.113-0.666,27.159-0.679c19.197-0.029,38.458,0.935,57.663,0.844c10.08-0.048,20.113,0.83,30.207,0.82    c10.018-0.011,20.057-0.087,30.051,0.545c10.683,0.676,21.599-0.289,32.31-0.295c4.491-0.003,8.978-0.208,13.465-0.422    c3.964,0.969,8.303,0.599,12.32,0.994c6.626,0.651,13.345-0.141,20.029,0.345c9.668,0.701,19.708,1.001,29.064-1.57    c6.167,0.268,12.334,0.649,18.509,0.653c10.711,0.007,21.627,0.971,32.31,0.295c9.994-0.633,20.032-0.557,30.051-0.545    c10.094,0.01,20.126-0.869,30.207-0.82c19.205,0.091,38.466-0.873,57.663-0.844c9.046,0.013,18.122,0.965,27.159,0.679    c7.66-0.242,15.28-0.511,22.919-0.842C501.816,369.33,502.012,380.956,501.935,392.114z M507.936,352.844    c-0.215,3.251-3.653,2.134-5.915,2.185c-2.004,0.045-3.992,0.272-5.99,0.366c-8.378,0.393-17.047,0.453-25.407-0.131    c-16.763-1.169-33.777-0.47-50.582-0.477c-16.223-0.007-32.396,0.998-48.598,1.078c-17.6,0.085-35.367,1.259-52.93,0.381    c-7.666-0.384-15.366,0.046-23.031-0.365c-1.901-0.102-3.823-0.196-5.751-0.278c-0.075-0.035-0.143-0.077-0.233-0.101    c-5.336-1.355-11.631-0.573-17.059-0.233c-6.413,0.401-12.743-0.036-19.126-0.168c-6.802-0.141-13.501,0.464-20.256,0.219    c-3.428-0.124-7.786-0.958-11.133,0.295c-1.82,0.079-3.633,0.169-5.429,0.266c-7.665,0.412-15.365-0.019-23.031,0.365    c-17.562,0.878-35.329-0.295-52.93-0.381c-16.202-0.079-32.374-1.083-48.598-1.078c-16.805,0.007-33.819-0.693-50.582,0.477    c-8.36,0.583-17.03,0.523-25.407,0.131c-1.997-0.094-3.986-0.32-5.99-0.366c-2.26-0.051-5.7,1.064-5.915-2.185    c-0.138-2.093,0.56-2.021,2.27-2.648c0.973-0.356,2.458-0.595,3.776-0.726c2.4,0.517,5.268,0.372,6.986,0.521    c4.172,0.364,8.385,0.042,12.573,0.117c1.258,0.023,2.842,0.127,4.32-0.046c5.043,0.331,10.083,0.66,15.129,0.881    c9.097,0.397,18.145-0.114,27.266,0.071c14.506,0.294,28.881,0.161,43.404-0.367c8.692-0.316,17.231,0.152,25.936,0.309    c7.706,0.138,15.444-0.492,23.159-0.103c8.254,0.416,16.544,0.271,24.818,0.263c7.29-0.007,15.154,0.364,22.345-1.218    c0.882,0.023,1.691,0.038,2.335,0.094c1.925,0.168,3.86,0.187,5.797,0.17c1.405,0.638,2.859,0.67,4.562,0.694    c3.096,0.042,6.176,0.288,9.268,0.344c6.086,0.11,12.031,0.539,18.123,0.157c10.487-0.658,21.02,1.802,31.103-1.199    c2.141,0.028,4.278,0.021,6.407-0.165c0.644-0.056,1.453-0.071,2.334-0.094c7.19,1.582,15.055,1.211,22.345,1.218    c8.274,0.008,16.564,0.153,24.818-0.263c7.716-0.389,15.454,0.242,23.159,0.103c8.705-0.157,17.243-0.625,25.936-0.309    c14.523,0.528,28.898,0.662,43.404,0.367c9.121-0.185,18.169,0.328,27.266-0.071c5.046-0.22,10.087-0.55,15.129-0.881    c1.477,0.174,3.063,0.07,4.32,0.046c4.189-0.075,8.401,0.247,12.573-0.117c1.717-0.149,4.586-0.004,6.986-0.521    c1.318,0.131,2.804,0.37,3.776,0.726C507.378,350.823,508.076,350.751,507.936,352.844z"/>
	</g>
</g>
<g>
	<g>
		<path d="M459.647,261.971c-1.277-1.348-2.913-1.949-5.112-1.674c-2.762,0.347-5.221,2.048-6.958,4.179    c-1.88,2.305-1.852,5.439-0.612,8.064c1.442,3.05,3.198,3.539,6.199,4.516c5.376,1.749,11.712-1.39,11.573-7.668    C464.658,265.776,462.541,263.143,459.647,261.971z M459.213,273.242c-1.644,1.106-3.319,0.77-5.062,0.235    c-2.208-0.677-4.17-1.245-4.448-4.028c-0.208-2.079,1.012-3.408,2.67-4.514c1.793-1.199,3.372-1.285,5.264-0.522    c0.576,0.232,1.084,0.437,1.623,0.564c1.008,1.01,1.79,2.184,1.994,3.11C461.67,270.001,460.848,272.141,459.213,273.242z"/>
	</g>
</g>
<g>
	<g>
		<path d="M386.806,262.879c-0.076-0.038-0.15-0.069-0.226-0.105c-3.734-3.456-9.788-2.901-13.534,0.932    c-4.428,4.529,0.009,11.421,4.727,13.435c5.359,2.288,13.678-0.679,13.435-7.35C391.092,266.645,389.651,264.272,386.806,262.879z     M387.217,270.622c-1.005,4.172-7.507,3.661-9.876,1.369c-2.757-2.667-2.41-5.326,0.971-6.985    c1.595-0.782,3.244-0.842,4.875-0.569C385.609,265.461,387.763,268.355,387.217,270.622z"/>
	</g>
</g>
<g>
	<g>
		<path d="M326.106,265.609c-1.392-2.021-5.857-4.432-9.024-4.041c-1.07-0.177-2.201-0.125-3.457,0.269    c-2.877,0.902-5.114,3.103-5.411,6.185c-0.308,3.195,1.22,5.894,3.546,7.951c2.601,2.302,4.889,2.458,8.22,2.105    c3.337-0.354,5.301-1.795,6.88-4.86C327.987,271.031,327.48,267.603,326.106,265.609z M320.478,273.831    c-1.822,0.382-3.878,0.6-5.439-0.55c-1.586-1.166-3.266-3.151-2.728-5.295c0.674-2.69,4.319-2.743,7.112-3.063    c0.139,0.063,0.284,0.12,0.418,0.191c1.686,0.895,3.33,2.204,3.617,4.179C323.734,271.205,322.383,273.431,320.478,273.831z"/>
	</g>
</g>
<g>
	<g>
		<path d="M499.206,229.513c-0.316-1.429-1.355-2.275-2.598-2.84c-3.072-4.675-9.974-8.497-14.008-10.536    c-7.333-3.706-15.007-6.982-23.346-7.536c-9.044-0.6-19.624,2.488-27.843,6.108c-6.761,2.977-14.417,7.786-16.745,15.145    c-0.304,0.963,0.227,1.907,0.996,2.446c1.798,1.26,4.167,0.861,6.254,0.758c4.545-0.227,9.1-0.15,13.655-0.15    c6.829,0,13.446-1.188,20.233-1.689c8.601-0.634,17.368-0.641,25.953,0.105c3.804,0.33,7.577,1.033,11.364,1.362    c2.053,0.178,3.983,0.143,5.574-1.236C499.239,230.977,499.352,230.177,499.206,229.513z M490.014,228.509    c-1.236-0.217-2.475-0.507-3.73-0.593c-2.911-0.199-5.841-0.555-8.753-0.694c-7.375-0.351-14.965-0.103-22.328,0.389    c-5.334,0.356-10.635,1.121-15.965,1.458c-3.912,0.248-7.927-0.048-11.847-0.054c-1.287-0.003-5.198,0.669-7.542,0.403    c3.581-5.417,9.783-9.305,15.834-11.326c7.186-2.402,14.211-4.586,21.859-4.922c7.544-0.332,15.089,2.512,21.772,5.77    c3.557,1.735,6.5,3.797,9.706,6.089c0.788,0.563,1.592,1.103,2.388,1.654c0.585,0.405,1.622,0.901,1.833,1.636    C493.561,229.431,490.577,228.608,490.014,228.509z"/>
	</g>
</g>
<g>
	<g>
		<path d="M390.259,209.161c-0.596-4.626-4.11-9.173-8.566-9.8c-1.885-1.124-3.88-1.895-6.165-0.822    c-2.107,0.99-3.932,2.871-4.587,5.064c-1.66,5.559,0.742,12.746,6.844,14.37C383.401,219.468,391.121,215.84,390.259,209.161z     M386.462,211.281c-2.023,3.561-7.269,3.558-10.097,1.245c-3.182-2.603-3.924-7.06-0.804-9.836    c1.525-1.358,3.233-1.069,5.023-1.167C384.453,202.7,388.467,207.753,386.462,211.281z"/>
	</g>
</g>
<g>
	<g>
		<path d="M327.972,209.813c-0.904-4.98-4.686-8.026-9.109-8.352c-2.37-1.183-4.606-1.88-7.235-0.395    c-2.479,1.4-3.392,3.608-4.083,6.219c-1.691,6.396,2.724,12.192,9.199,13.162C323.376,221.439,329.249,216.854,327.972,209.813z     M316.292,216.348c-4.406-1.492-6.508-5.046-4.959-9.523c1.298-3.753,4.453-2.993,7.584-3.202c3.23,0.904,5.838,3.366,5.972,7.158    C325.061,215.601,320.407,217.741,316.292,216.348z"/>
	</g>
</g>
<g>
	<g>
		<path d="M262.929,266.753c-0.46-2.379-1.635-3.574-4.052-3.916c-0.908-0.128-1.934-0.187-2.868,0.001    c-1.081-0.011-2.176,0.189-3.068,0.519c-1.236,0.456-2.332,1.301-3.36,2.104c-0.092,0.072-0.156,0.148-0.233,0.222    c-1.51,0.894-2.732,2.136-3.102,3.668c-1.297,5.367,3.584,8.114,8.346,7.928c2.354-0.092,4.928-0.607,6.561-2.404    C263.132,272.697,263.469,269.539,262.929,266.753z M259.078,269.661c-0.368,3.185-3.962,3.944-6.746,3.432    c-1.379-0.254-2.431-0.669-2.758-2.081c-0.189-0.817,0.019-1.413,0.412-2.092c0.704-1.215,2.427-2.44,3.998-3.041    c0.202-0.043,0.408-0.073,0.615-0.094c0.882-0.044,1.986,0.24,2.818,0.495C259.109,266.798,259.28,267.914,259.078,269.661z"/>
	</g>
</g>
<g>
	<g>
		<path d="M265.019,207.979c-1.301-2.511-3.298-3.798-5.982-4.595c-2.898-0.861-6.626,0.76-8.929,2.512    c-2.487,1.891-4.481,4.836-4.666,8.021c-0.164,2.818,2.048,5.557,4.361,6.887c3.002,1.725,6.378,1.075,9.498,0.106    c2.576-0.8,5.764-1.967,6.735-4.741C267.103,213.121,266.44,210.72,265.019,207.979z M261.451,215.691    c-3.188,2.219-9.949,3.449-12.049-0.597c-1.987-3.828,1.918-7.215,5.476-8.571c1.654-0.126,2.57-0.11,4.41,0.747    C262.019,208.539,264.777,213.375,261.451,215.691z"/>
	</g>
</g>
<g>
</g>
<g>
</g>
<g>
</g>
<g>
</g>
<g>
</g>
<g>
</g>
<g>
</g>
<g>
</g>
<g>
</g>
<g>
</g>
<g>
</g>
<g>
</g>
<g>
</g>
<g>
</g>
<g>
</g>
</svg>
