<?xml version="1.0" encoding="iso-8859-1"?>
<!-- Generator: Adobe Illustrator 19.0.0, SVG Export Plug-In . SVG Version: 6.00 Build 0)  -->
<svg xmlns="http://www.w3.org/2000/svg" xmlns:xlink="http://www.w3.org/1999/xlink" version="1.1" id="Layer_1" x="0px" y="0px" viewBox="0 0 511.997 511.997" style="enable-background:new 0 0 511.997 511.997;" xml:space="preserve">
<g>
	<g>
		<path d="M432.92,481.901c-2.467-0.329-4.841-0.457-7.194-0.481c0.386-1.158,0.625-2.366,0.678-3.57    c0.435-9.823,1.504-19.848,0.592-29.647c-1.822-19.575-3.121-39.118-6.009-58.58c-0.692-4.67-0.938-9.761-1.051-14.46    c-0.13-5.401-0.958-10.759-0.974-16.18c-0.032-10.417-1.406-20.923-2.346-31.274c-1.005-11.066-2.965-22.15-3.828-33.172    c-0.715-9.119-1.402-18.239-2.321-27.355c-0.601-5.966-1.48-11.901-2.059-17.875c-0.576-5.937-2.329-11.583-3.074-17.464    c-1.134-8.94-2.373-17.852-3.687-26.768c-1.214-11.073-0.945-22.24-1.96-33.363c-1.132-12.405-0.283-25.148-2.153-37.469    c-1.751-11.54-2.898-23.208-4.223-34.817c-2.663-23.306-8.513-46.094-10.646-69.427c-0.495-5.415-0.172-10.968-1.294-16.287    c-0.763-3.614-0.895-10.609-4.454-12.754c-3.217-1.939-8.169-0.433-11.546,0.173c-5.591,1.004-11.298,1.673-16.845,2.916    c-5.887,1.32-11.985,1.925-17.969,2.715c-7.705,1.017-15.158,2.981-22.597,5.186c-4.132,1.224-11.756,2.119-14.808,5.635    c-2.085,2.402-1.603,5.209-0.718,7.968c-0.335,3.347-0.107,6.685,0.043,10.254c0.1,2.387,0.239,4.806,0.386,7.224    c-2.744,0.356-6.107,0.068-8.466,0.389c-4.645,0.632-9.168,1.418-13.766,2.33c-9.174,1.822-18.343,3.881-27.59,5.318    c-18.362,2.852-36.688,6.649-54.899,10.428c-9.159,1.901-18.597,2.975-27.636,5.489c-6.434,1.789-17.05,2.392-21.441,8.011    c-3.522,4.51-4.75,13.815-5.329,19.291c-1.005,9.497-2.312,18.938-3.728,28.382c-1.252,8.348-0.567,16.849-1.38,25.219    c-0.879,9.034-0.654,18.088-1.68,27.161c-2.027,17.923-4.302,35.82-5.641,53.776c-0.645,8.648-3.086,17.093-3.649,25.725    c-0.595,9.133-1.272,18.153-2.542,27.227c-2.767,19.76-4.166,39.765-6.9,59.507c-2.59,18.695-3.821,37.774-5.634,56.613    c-0.93,9.667-3.111,19.267-3.424,28.959c-0.296,9.176-2.214,18.194-2.016,27.359c-1.025,5.752-2.06,11.518-2.161,17.431    c-0.054,3.12-1.19,6.568-0.331,9.581c-5.247,0.005-10.632,0.303-15.758,0.707c-4.235,0.334-9.289,0.744-10.949,5.395    c-0.849,2.379-0.329,5.016-0.496,7.453c-0.191,2.789-1.115,5.481,0.473,8.088c2.402,3.943,7.574,3.361,11.501,3.803    c6.53,0.735,12.886-0.513,19.477,0.136c14.119,1.39,28.382,0.922,42.557,1.949c31.07,2.253,62.244-0.067,93.41,1.37    c7.756,0.358,15.453-0.404,23.227,0.06c7.745,0.461,15.489,0.201,23.243,0.37c14.488,0.316,29.516-0.542,43.875,1.003    c8.458,0.91,17.326,0.226,25.753-0.424c3.803-0.293,7.691,0.076,11.505,0.024c4.073-0.056,8.05-0.717,12.133-0.483    c8.051,0.461,15.872-0.107,23.904-0.095c6.478,0.01,12.394-0.081,18.475-1.384c2.45,0.029,4.895,0.011,7.323-0.123    c5.009-0.279,10.715-0.048,15.59-1.276c4.213-1.061,4.37-4.307,4.885-8.128C445.961,490.886,442.183,483.139,432.92,481.901z     M420.763,447.094c0.35,5.137,0.977,10.012,0.451,15.204c-0.239,2.368-0.67,4.714-0.894,7.083    c-0.229,2.425,0.815,7.897-1.186,9.738c-1.375,1.264-6.573,1.888-8.45,2.119c-3.584,0.441-7.242,0.046-10.838,0.389    c-5.029,0.478-10.143,0.578-15.269,0.549c1.659-3.806,2.765-8.044,4.437-11.583c3.314-7.019,7.004-13.553,11.125-20.114    c3.625-5.771,7.307-11.386,11.034-17.103c2.479-3.804,5.012-7.74,7.358-11.736C419.694,430.056,420.195,438.738,420.763,447.094z     M414.014,386.361c0.349,5.089,1.355,10.181,2.001,15.236c0.565,4.437,0.569,8.838,1.423,13.285    c0.108,0.563,0.197,1.135,0.297,1.702c-4.023,4.684-6.825,10.303-10.42,15.294c-3.29,4.567-6.469,9.021-9.151,13.971    c-3.541,6.534-7.709,12.592-11.12,19.234c-1.744,3.397-3.474,6.878-4.926,10.412c-0.866,2.109-1.398,4.515-2.387,6.625    c-4.886-0.087-9.765-0.226-14.576-0.222c-2.315,0.001-4.626-0.015-6.938-0.03c-0.057-0.07-0.113-0.137-0.168-0.209    c-2.451-2.446-4.845-4.873-7.178-7.33c3.788-5.549,7.779-10.983,11.312-16.725c6.46-10.502,13.966-20.28,20.319-30.86    c2.686-4.472,5.875-8.353,8.534-12.964c3.077-5.338,6.506-10.474,10.24-15.373c4.526-5.939,8.339-12.515,12.272-18.955    C413.702,381.758,413.857,384.06,414.014,386.361z M256.366,133.319c-4.178-4.626-8.123-9.465-12.079-14.297    c0.131-0.14,0.267-0.276,0.398-0.416c5.292-5.652,10.3-11.288,15.879-16.638c1.089,1.282,2.178,2.564,3.26,3.851    c2.922,3.475,6.414,6.375,9.469,9.671c-4.645,4.814-9.125,9.807-13.789,14.573C258.458,131.132,257.414,132.225,256.366,133.319z     M268.096,152.366c-7.495,0.113-15.011,1.009-22.445,1.897c-1.327,0.158-2.698,0.367-4.044,0.658    c4.661-5.164,9.684-9.906,14.354-15.031C260.02,144.027,264.306,147.994,268.096,152.366z M250.698,134.145    c0.746,0.894,1.518,1.767,2.306,2.629c-0.376,0.378-0.751,0.76-1.131,1.132c-1.311,1.284-2.82,2.369-4.127,3.64    c-1.48,1.44-2.343,3.183-3.669,4.772c-5.518,6.602-12.116,12.429-18.168,18.525c-1.61,1.622-3.178,3.278-4.731,4.95    c-4.055-4.65-8.129-9.27-12.206-13.897c-0.132-0.15-0.262-0.304-0.394-0.455c5.751-5.842,11.52-11.667,17.253-17.557    c5.024-5.163,10.133-10.202,15.131-15.376C244.21,126.378,247.456,130.257,250.698,134.145z M221.205,265.479    c-0.129,1.453-0.256,2.906-0.391,4.358c-5.752,3.641-9.484,10.46-13.982,15.452c-4.658,5.168-9.214,10.315-13.732,15.615    c-1.591,1.867-3.162,3.755-4.735,5.642c-5.162-6.302-9.724-13.294-14.037-20.253c3.842-4.668,7.745-9.303,11.495-14.038    c5.502-6.947,10.763-14.427,16.932-20.8c1.67-1.726,3.384-3.429,5.092-5.143c0.586,0.804,1.183,1.597,1.751,2.418    c1.596,2.305,3.182,4.384,4.955,6.549c0.601,0.733,5.883,8.572,6.795,8.616c-0.006,0.063-0.011,0.124-0.017,0.186    C221.061,264.546,221.046,265.033,221.205,265.479z M205.766,368.658c1.424-1.554,2.746-3.169,3.808-4.867    c-0.23,2.745-0.433,5.491-0.621,8.237C207.899,370.887,206.825,369.768,205.766,368.658z M208.533,378.942    c-0.176,3.266-0.327,6.532-0.427,9.794c-5.435-0.038-10.872-0.146-16.307-0.165c-1.824-0.006-3.634,0.097-5.441,0.215    c0.41-0.37,0.814-0.744,1.198-1.129c3.135-3.136,5.698-6.842,8.856-9.944c1.811-1.779,3.925-3.663,6.009-5.655    C204.371,374.412,206.369,376.803,208.533,378.942z M209.259,357.846c-2.726,1.608-4.716,4.583-6.742,7.239    c-3.635-4.294-6.571-9.258-10.176-13.645c1.17-1.354,2.347-2.704,3.528-4.067c3.127-3.607,5.442-7.733,8.575-11.345    c2.858-3.294,5.758-6.62,8.47-10.03c0.414-0.521,0.782-1.06,1.134-1.605c-1.512,11.019-2.867,22.126-3.922,33.26    C209.835,357.631,209.534,357.685,209.259,357.846z M211.473,321.115c-2.858,3.571-5.893,7.048-8.912,10.493    c-4.544,5.187-8.922,10.626-13.181,16.106c-4.842-6.102-9.48-12.38-14.014-18.732c7.11-8.161,13.809-16.725,20.847-24.964    c4.524-5.297,9.073-10.445,13.747-15.601c3.261-3.596,7.06-7.551,10.17-11.675c-0.369,3.484-0.781,6.959-1.274,10.416    c-1.406,9.838-2.468,19.765-3.775,29.582C213.69,317.984,212.597,319.71,211.473,321.115z M187.992,237.842    c2.174-2.739,4.527-5.313,6.905-7.86c0.675,0.842,1.338,1.697,2.02,2.532c2.747,3.361,5.498,6.687,8.149,10.1    c-2.695,2.685-5.39,5.369-7.779,8.292c-8.529,10.43-16.966,20.938-25.412,31.422c-2.779-4.481-5.819-8.854-8.943-13.163    c3.817-5.067,7.391-10.322,11.464-15.194C178.903,248.583,183.616,243.358,187.992,237.842z M169.048,233.081    c2.773-3.158,5.606-6.257,8.559-9.237c2.356-2.378,4.674-4.795,6.976-7.227c2.476,3.324,4.979,6.621,7.528,9.872    c-5.11,5.678-10.144,11.444-15.029,17.322C174.614,240.134,171.843,236.473,169.048,233.081z M171.397,289.891    c4.359,6.933,8.815,13.857,14.001,20.211c-4.203,5.075-8.392,10.162-12.673,15.155c-0.855-1.207-1.713-2.412-2.566-3.62    c-3.541-5.013-7.937-9.412-11.839-14.126c-0.106-0.128-0.213-0.255-0.319-0.383c4.113-5.453,8.274-10.872,12.552-16.198    C170.831,290.583,171.117,290.238,171.397,289.891z M171.009,333.874c0.439-0.478,0.866-0.967,1.302-1.449    c1.924,2.39,3.902,4.735,5.579,7.347c1.602,2.494,2.976,5.319,4.72,7.704c1.089,1.489,2.438,2.803,3.757,4.143    c-0.103,0.135-0.208,0.268-0.311,0.402c-5.214,6.822-12.282,12.109-17.263,19.056c-4.469-5.378-8.374-11.266-12.796-16.689    c-0.315-0.386-0.613-0.779-0.924-1.165c0.801-1.001,1.607-1.997,2.373-3.029c2.027-2.73,4.633-4.885,6.707-7.565    C166.436,339.683,168.476,336.635,171.009,333.874z M211.007,243.093c2.656-2.763,5.205-5.611,7.426-8.685    c1.854-2.566,4.052-4.861,6.156-7.249c-0.326,4.352-1.146,8.764-1.542,13.11c-0.45,4.938-0.451,9.883-0.91,14.82    c-0.092,0.993-0.178,1.99-0.268,2.984C218.376,252.979,214.735,248.002,211.007,243.093z M220.184,225.261    c-1.972,2.271-3.895,4.491-5.637,6.876c-1.9,2.601-4.074,4.987-6.332,7.307c-3.335-4.325-6.721-8.612-10.109-12.896    c1.97-2.118,3.91-4.257,5.733-6.498c4.61-5.669,9.099-11.366,14.07-16.757c3.273-3.549,6.796-6.792,10.067-10.325    c-0.107,0.96-0.228,1.92-0.327,2.879c-0.841,8.171-1.832,16.296-2.525,24.466C223.585,222.086,221.336,223.934,220.184,225.261z     M213.334,201.94c-2.01,2.341-3.937,4.739-6.103,6.916c-3.017,3.033-5.082,6.601-7.958,9.746c-1.33,1.455-2.661,2.913-3.989,4.375    c-2.54-3.216-5.072-6.438-7.578-9.681c11.054-11.872,21.642-24.217,32.522-36.24c0.136-0.149,0.276-0.294,0.413-0.443    c2.278,2.898,4.534,6.816,7.699,8.53l0.203,0.127c0.108,0.067,0.218,0.115,0.327,0.16c-0.058,0.461-0.12,0.921-0.177,1.382    C223.394,191.579,217.98,196.528,213.334,201.94z M227.413,176.73c-1.041-1.298-2.184-2.534-3.333-3.764    c2.403-2.479,4.855-4.905,7.3-7.335c-0.544,4.728-1.17,9.471-1.791,14.216C228.849,178.83,228.211,177.725,227.413,176.73z     M217.905,173.376c-3.957,4.38-7.843,8.82-11.879,13.138c-6.656,7.123-13.438,14.242-19.657,21.756    c-0.435,0.526-0.886,1.036-1.33,1.553c-1.89-2.48-3.761-4.977-5.6-7.497c-2.181-2.985-4.336-5.983-6.473-8.993    c5.158-5.799,10.341-11.578,15.654-17.241c5.506-5.871,11.102-11.625,16.722-17.352c0.583,0.663,1.162,1.333,1.753,1.985    C210.831,164.835,214.311,169.149,217.905,173.376z M175.721,204.499c2.089,2.907,4.2,5.802,6.321,8.69    c-4.88,5.28-10.106,10.238-14.878,15.635c-0.284,0.32-0.561,0.651-0.844,0.974c-3.866-4.758-7.094-9.52-10.506-14.673    c-0.327-0.495-0.642-0.995-0.961-1.494c5.108-5.635,10.15-11.334,15.2-17.029C171.939,199.245,173.836,201.876,175.721,204.499z     M166.4,236.142c0.962,1.282,1.889,2.584,2.752,3.912c1.603,2.469,3.504,4.681,5.159,7.107c-1.711,2.105-3.405,4.225-5.062,6.368    c-3.044,3.933-6.087,7.858-9.131,11.783c-1.262-1.711-2.527-3.414-3.786-5.113c-1.532-2.068-3.042-4.146-4.538-6.232    C156.615,247.994,161.414,241.98,166.4,236.142z M160.037,272.9c3.018,4.324,6.055,8.621,8.891,13.086    c-0.824,1.021-1.647,2.047-2.473,3.069c-3.839,4.752-7.689,9.57-11.476,14.449c-3.345-4.009-6.65-8.035-9.6-12.348    c4.084-5.31,8.135-10.632,12.526-15.701C158.631,274.616,159.34,273.763,160.037,272.9z M155.388,310.586    c4.249,4.961,9.101,9.852,12.347,15.438c0.572,0.985,1.203,1.92,1.854,2.836c-0.766,0.872-1.524,1.753-2.298,2.616    c-1.941,2.166-3.647,4.453-5.36,6.799c-2.144,2.935-4.789,5.24-7.031,8.072c-0.877,1.107-1.774,2.197-2.674,3.284    c-3.839-4.97-7.441-10.05-10.9-15.334c-0.499-0.763-1.01-1.52-1.516-2.28C144.933,324.822,150.108,317.664,155.388,310.586z     M152.354,356.556c4.437,5.849,8.469,12.987,13.73,18.151c-2.12,2.665-4.474,5.229-6.705,7.767    c-1.497,1.703-3.257,3.186-4.559,5.06c-0.302,0.435-0.759,1.368-1.242,2.202c-0.17,0.007-0.342,0.003-0.512,0.01    c-3.553-2.71-6.1-6.547-9.409-9.542c-1.991-1.802-3.847-3.772-5.672-5.775c1.987-2.41,3.91-4.847,5.737-7.297    C146.455,363.469,149.437,360.036,152.354,356.556z M160.718,386.265c2.928-2.899,6.099-5.872,8.685-9.041    c0.227-0.278,0.446-0.548,0.67-0.825c0.372-0.242,0.662-0.605,0.834-1.026c2.449-3.016,4.825-5.923,7.63-8.739    c3.028-3.04,6.173-5.86,8.842-9.238c0.645-0.816,1.298-1.618,1.957-2.414c3.46,4.4,6.31,9.24,10.001,13.437    c0.05,0.057,0.101,0.119,0.152,0.177c-2.431,2.564-5.007,4.968-7.338,7.611c-2.825,3.202-5.49,6.549-8.366,9.705    c-0.955,1.049-1.981,2.105-2.963,3.201c-0.765,0.035-1.53,0.075-2.298,0.084c-4.219,0.049-8.478-0.326-12.687-0.176    c-2.67,0.096-5.307,0.298-7.95,0.473C158.858,388.359,159.785,387.189,160.718,386.265z M178.525,397.654    c3.819-0.025,7.639-0.166,11.463-0.312c-3.905,4.604-7.655,9.355-11.373,14.138c-1.95-2.626-3.971-5.125-5.789-7.879    c-1.578-2.389-3.589-4.189-5.537-6.12C171.033,397.475,174.778,397.679,178.525,397.654z M185.335,410.699    c2.647-3.722,5.713-7.293,8.194-11.104c0.532-0.82,1.059-1.614,1.388-2.428c2.908-0.101,5.817-0.189,8.73-0.203    c4.164-0.018,8.401-0.263,12.549,0.08c0.928,0.076,1.83,0.113,2.72,0.125c-1.655,2.255-3.087,4.678-4.872,6.835    c-2.796,3.376-5.41,6.753-8.313,10.093c-4.748,5.463-8.98,11.324-13.319,17.1c-4-4.976-7.408-10.496-10.974-15.737    C182.803,413.937,184.138,412.382,185.335,410.699z M208.912,416.698c0.838,1.627,1.554,3.461,2.337,4.824    c1.483,2.584,3.268,4.873,5.109,7.207c1.817,2.304,3.633,4.612,5.439,6.931c-0.71,0.989-1.433,1.97-2.133,2.967    c-3.316,4.72-6.6,9.516-9.961,14.272c-2.492-3.15-5.464-5.906-7.752-9.199c-2.174-3.13-4.431-6.217-6.833-9.188    C199.52,428.406,203.88,422.186,208.912,416.698z M219.751,426.835c-2.845-3.422-5.599-8.695-9.337-11.789    c2.872-3.119,5.357-6.242,7.893-9.706c1.786-2.441,3.247-5.165,5.209-7.479c0.27-0.319,0.522-0.588,0.758-0.84    c0.751-0.042,1.513-0.084,2.282-0.125c3.928,3.75,6.683,9.517,9.794,13.784c0.695,0.954,1.398,1.921,2.095,2.877    c-4.78,6.211-9.574,12.396-14.206,18.704C222.748,430.443,221.247,428.635,219.751,426.835z M230.492,396.752    c6.601-0.19,13.237-0.046,19.853,0.035c-0.733,0.969-1.412,1.99-2.077,3.019c-2.265,3.505-4.731,6.982-7.252,10.361    c-0.797-1.004-1.588-2.019-2.397-3.006C235.927,403.879,233.604,399.814,230.492,396.752z M241.091,417.187    c3.827,5.253,7.656,10.524,11.41,15.813c0.245,0.345,0.502,0.684,0.751,1.026c-0.122,0.17-0.244,0.339-0.366,0.508    c-4.456,6.191-8.372,12.73-12.523,19.103c-2.142-2.988-4.353-5.924-6.49-8.95c-2.157-3.055-4.45-6.028-6.8-8.956    C231.751,429.559,236.446,423.391,241.091,417.187z M243.745,413.648c3.015-4.066,5.961-8.212,8.813-12.389    c0.948-1.388,2.474-2.846,3.521-4.433c0.054,0,0.107,0.001,0.161,0.001c8.132-0.011,16.253,0.336,24.369,0.454    c-5.065,5.28-8.831,12.019-13.327,17.757c-3.884,4.958-7.596,10.054-11.289,15.178c-0.458-0.645-0.915-1.295-1.379-1.93    C251.05,423.397,247.449,418.462,243.745,413.648z M270.981,417.889c5.155-6.245,8.991-13.498,13.842-19.968    c0.15-0.201,0.243-0.405,0.288-0.603c0.645,0.001,1.29-0.011,1.936-0.015c3.552,6.463,8.113,12.659,12.944,18.262    c0.286,0.331,0.556,0.679,0.836,1.017c-6.365,7.959-11.689,16.792-18.255,24.554c-3.356,3.966-6.657,7.936-9.935,11.924    c-0.177-0.212-0.346-0.43-0.527-0.64c-4.841-5.618-9.077-12.036-13.368-18.275C262.687,428.613,266.687,423.089,270.981,417.889z     M290.51,397.261c4.487-0.092,8.974-0.323,13.461-0.806c3.473-0.375,7.054-0.516,10.635-0.726    c-0.278,0.238-0.548,0.482-0.787,0.749c-1.505,1.679-2.397,3.81-3.525,5.74c-2.1,3.592-4.279,7.244-6.699,10.677    c-0.283-0.294-0.567-0.586-0.834-0.904C298.67,407.105,294.911,401.898,290.51,397.261z M288.743,440.877    c4.84-6.957,10.076-13.616,15.114-20.422c2.738,3.715,5.298,7.628,8.033,11.399c-1.599,2.361-3.176,4.735-4.687,7.147    c-4.267,6.805-8.999,13.461-13.565,20.09c-2.523,3.661-5.463,6.925-7.919,10.637c-0.038,0.056-0.076,0.113-0.114,0.169    c-0.145-0.229-0.289-0.457-0.434-0.687c-0.268-0.423-0.592-0.7-0.936-0.866c-3.163-3.714-5.849-7.78-8.739-11.661    C280.048,451.534,284.834,446.492,288.743,440.877z M310.203,421.891c-1.136-1.592-1.942-3.366-2.991-4.992    c-0.117-0.182-0.26-0.337-0.386-0.508c0.203-0.284,0.416-0.562,0.618-0.846c3.096-4.359,5.546-9.232,8.079-13.927    c0.475-0.882,1.093-1.722,1.721-2.563c0.062,0.106,0.115,0.194,0.151,0.24c1.965,2.68,4.352,4.823,6.328,7.446    c1.033,1.371,2.077,2.73,3.115,4.095c-4.092,5.701-8.255,11.355-12.262,17.094C313.081,425.924,311.624,423.884,310.203,421.891z     M325.722,189.299c3.634-4.806,7.009-9.787,10.25-14.868c1.424,1.789,2.9,3.525,4.528,5.107c2.459,2.392,5.037,4.917,7.448,7.544    c-4.583,6.794-9.172,13.583-13.426,20.589c-1.906,3.138-4.054,6.157-6.148,9.203c-3.53-4.275-7.089-8.519-10.697-12.714    c-0.092-1.117-0.193-2.234-0.307-3.348C320.258,197.072,322.902,193.028,325.722,189.299z M316.804,195.847    c-0.161-1.271-0.329-2.543-0.507-3.819c-0.844-6.06-0.689-12.14-1.537-18.199c-1.394-9.957-2.208-19.985-3.445-29.962    c2.475,3.161,4.872,6.401,7.227,9.635c3.266,4.482,7.215,8.391,10.832,12.581c1.37,1.588,2.659,3.255,3.941,4.927    C327.844,179.368,322.042,187.403,316.804,195.847z M350.341,183.514c-1.524-1.607-3.065-3.191-4.537-4.767    c-2.506-2.681-4.978-4.861-7.162-7.871c-0.062-0.086-0.13-0.165-0.192-0.251c5.602-8.435,11.681-16.535,17.132-25.051    c1.034-1.616,2.059-3.236,3.083-4.855c3.685,4.479,7.675,8.906,11.655,12.901c-6.178,8.292-11.524,17.197-17.237,25.805    C352.175,180.792,351.256,182.152,350.341,183.514z M362.412,204.165c-2.055,2.999-4.107,5.995-6.124,8.991    c-4.641,6.892-8.968,14.095-13.539,21.112c-3.937-4.709-7.832-9.455-11.732-14.193c1.878-2.736,3.713-5.516,5.547-8.229    c4.818-7.121,9.419-14.393,14.16-21.574c0.65,0.789,1.284,1.583,1.876,2.388C355.596,196.723,358.951,200.488,362.412,204.165z     M326.13,220.209c-0.055,0.084-0.113,0.166-0.168,0.25c-1.461,2.251-3.232,4.236-4.657,6.507c-0.719,1.146-1.33,2.376-1.938,3.609    c-0.499-6.86-0.953-13.727-1.315-20.573C320.581,213.512,323.327,216.898,326.13,220.209z M327.415,225.137    c0.454-0.605,0.893-1.231,1.338-1.849c1.369,1.595,2.735,3.182,4.073,4.758c2.63,3.099,5.236,6.229,7.842,9.361    c-1.054,1.572-2.119,3.136-3.215,4.675c-4.285,6.022-8.097,12.357-12.478,18.307c-0.986,1.339-1.914,2.713-2.788,4.125    c-0.676-6.785-1.282-13.57-1.8-20.345c-0.227-2.965-0.454-5.935-0.676-8.907C322.498,232.103,324.973,228.4,327.415,225.137z     M328.801,261.455c3.909-5.005,7.085-10.581,10.804-15.724c1.238-1.711,2.446-3.458,3.659-5.201    c4.692,5.637,9.407,11.263,14.283,16.727c4.79,5.368,9.574,10.753,14.365,16.128c-3.411,4.618-6.363,9.767-9.53,14.514    c-3.485,5.223-7.022,10.406-10.082,15.853c-0.631,1.124-1.436,2.107-2.23,3.104c-3.024-3.318-6.154-6.501-9.001-10.044    c-4.233-5.266-8.402-10.583-12.592-15.884c-1.62-2.05-3.465-3.916-5.173-5.879c-0.18-1.624-0.367-3.249-0.538-4.874    C324.881,267.357,326.717,264.123,328.801,261.455z M332.916,375.511c0.148-0.199,0.294-0.4,0.427-0.608    c1.569-2.458,3.472-4.642,5.176-7.003c1.222-1.693,2.438-3.374,3.665-5.042c3.22,4.303,6.458,8.592,9.801,12.791    c-4.284,5.395-8.708,10.838-12.47,16.535c-2.094-2.616-4.166-5.082-6.406-7.598c-0.017-0.019-0.048-0.044-0.067-0.064    C333.161,381.505,333.086,378.504,332.916,375.511z M332.141,341.234c1.993-2.185,3.175-4.844,4.887-7.208    c1.488-2.055,2.907-4.172,4.324-6.295c3.758,4.622,7.553,9.223,11.435,13.753c-3.004,4.161-6.09,8.237-9.215,12.156    c-0.494,0.619-0.985,1.268-1.477,1.901c-3.274-4.487-6.742-9.162-10.897-12.878c-0.005-0.15-0.007-0.3-0.011-0.451    C331.507,341.892,331.832,341.573,332.141,341.234z M330.882,335.779c-0.347-5.657-0.903-11.301-1.75-16.795    c-0.43-2.787-0.834-5.583-1.244-8.38c0.625,0.711,1.239,1.444,1.839,2.272c2.796,3.864,5.776,7.633,8.777,11.349    C335.891,328.025,333.328,331.882,330.882,335.779z M355.71,344.87c1.508,1.721,3.024,3.437,4.57,5.126    c1.971,2.154,3.822,4.397,5.626,6.677c-3.465,4.963-6.89,9.933-10.637,14.795c-0.049,0.064-0.1,0.128-0.149,0.191    c-3.27-4.221-6.935-8.182-10.23-12.377c1.304-1.68,2.633-3.339,4.047-4.935C351.424,351.536,353.551,348.139,355.71,344.87z     M339.387,359.124c-2.425,3.293-4.782,6.723-6.921,10.254c-0.492-5.745-1.092-11.489-1.101-17.309    c-0.002-1.173-0.019-2.356-0.035-3.537C334.055,352.029,336.729,355.57,339.387,359.124z M340.106,399.211    c0.029,0.039,0.058,0.078,0.087,0.117c2.802,3.83,5.797,7.493,8.836,11.127c-2.682,3.893-5.582,7.754-8.088,11.753    c-1.358-1.844-2.732-3.673-4.177-5.433c-1.635-1.994-3.185-4.102-4.746-6.205c2.442-3.406,4.902-6.803,7.283-10.237    C339.563,399.955,339.84,399.587,340.106,399.211z M342.489,395.886c3.744-5.111,7.649-10.129,11.179-15.381    c0.337-0.5,0.682-1.017,1.026-1.529c0.476,0.579,0.942,1.167,1.424,1.743c2.405,2.872,4.727,5.797,7.053,8.715    c-4.016,5.74-7.953,11.524-11.724,17.394c-0.001-0.001-0.002-0.002-0.005-0.005C348.403,403.226,345.436,399.563,342.489,395.886z     M355.672,408.759c3.579-5.117,7.114-10.266,10.641-15.422c1.818,2.249,3.655,4.486,5.565,6.669    c0.644,0.735,1.296,1.477,1.949,2.223c-0.019,0.025-0.038,0.052-0.057,0.079c-3.851,5.019-7.239,10.26-11.186,15.171    c-0.282,0.35-0.538,0.728-0.807,1.092c-2.429-2.703-4.837-5.423-7.223-8.162C354.928,409.86,355.292,409.303,355.672,408.759z     M368.965,389.456c3.497-5.124,6.996-10.248,10.511-15.362c2.299,2.661,4.714,5.228,7.05,7.861    c-0.172,0.268-0.344,0.538-0.518,0.805c-3.322,5.103-6.152,10.577-9.497,15.652c-0.869-1.028-1.746-2.042-2.655-3.015    C372.111,393.527,370.526,391.499,368.965,389.456z M365.936,385.514c-0.087-0.109-0.17-0.222-0.256-0.333    c-2.664-3.363-5.627-6.555-8.038-10.091c-0.054-0.079-0.113-0.155-0.168-0.234c2.982-4.377,6.167-8.826,9.513-12.5    c0.596-0.655,1.17-1.349,1.732-2.059c2.612,3.43,5.178,6.902,7.867,10.298C373.032,375.561,369.466,380.525,365.936,385.514z     M368.383,353.156c-1.228-1.516-2.483-3.014-3.798-4.47c-2.175-2.406-4.345-4.832-6.507-7.268    c0.038-0.052,0.074-0.106,0.112-0.157c2.491-3.416,4.889-6.981,7.191-10.574c3.641,3.934,7.241,7.904,10.821,11.893    c-2.333,3.034-4.637,6.103-6.908,9.286C368.986,352.294,368.687,352.725,368.383,353.156z M355.177,338.129    c-3.624-4.147-7.184-8.347-10.585-12.633c-0.311-0.393-0.634-0.777-0.95-1.167c1.09-1.612,2.191-3.216,3.342-4.783    c1.362-1.854,2.674-3.738,3.966-5.637c3.437,3.893,6.363,8.184,9.952,11.975c0.489,0.518,0.969,1.043,1.457,1.563    C360.049,331.031,357.654,334.604,355.177,338.129z M327.719,285.676c3.713,4.929,7.445,9.855,11.239,14.721    c2.735,3.509,5.748,6.767,8.767,10.005c-1.043,1.904-2.043,3.691-3.356,5.506c-1.189,1.643-2.374,3.304-3.553,4.979    c-2.539-3.033-5.116-6.037-7.585-9.125c-2.084-2.606-3.881-4.291-6.062-6.113c-1.175-8.312-2.253-16.652-3.228-25.002    C325.188,282.338,326.464,284.01,327.719,285.676z M328.067,393.951c3.003-0.785,4.044-2.482,4.142-4.519    c0.088-0.138,0.169-0.285,0.242-0.439c0.471,0.689,0.891,1.3,1.227,1.725c1.241,1.575,2.467,3.18,3.681,4.794    c-2.534,3.95-5.195,7.82-7.908,11.658c-1.357-1.749-2.755-3.448-4.26-5.023c-1.928-2.018-3.906-3.942-5.732-6.071    c-0.043-0.05-0.083-0.107-0.125-0.161c0.096-0.186,0.194-0.372,0.275-0.562C322.48,395.078,325.32,394.669,328.067,393.951z     M324.94,420.714c1.455-2.183,2.962-4.34,4.481-6.49c1.719,2.231,3.451,4.454,5.207,6.665c1.364,1.718,2.713,3.439,4.058,5.16    c-3.05,5.558-7.037,11.191-11.054,16.147c-0.275,0.339-0.54,0.686-0.811,1.028c-2.454-3.177-4.981-6.29-7.528-9.297    c-0.612-0.723-1.213-1.475-1.811-2.227C319.99,428.056,322.483,424.4,324.94,420.714z M330.616,445.566    c4.124-4.885,7.758-10.118,11.237-15.462c2.157,2.763,4.32,5.515,6.515,8.242c-3.245,5.01-6.543,10.001-9.997,14.876    c-0.726,1.025-1.475,2.039-2.221,3.055c-0.107-0.162-0.22-0.313-0.326-0.475c-1.966-3.009-4.066-5.995-6.246-8.938    C329.928,446.434,330.261,445.987,330.616,445.566z M344.13,426.56c2.649-4.162,5.252-8.359,7.957-12.484    c2.368,2.763,4.796,5.465,7.141,8.246c-0.98,1.564-1.926,3.151-2.905,4.661c-1.743,2.694-3.832,5.133-5.625,7.801    c-0.404-0.461-0.816-0.917-1.214-1.38C347.603,431.216,345.852,428.902,344.13,426.56z M362.14,425.76    c1.46,1.697,2.959,3.353,4.514,4.974c1.771,1.848,3.082,4.024,5.14,5.486c-2.876,4.247-5.876,8.421-8.744,12.674    c-3.052-3.731-6.314-7.323-9.545-10.926C356.326,433.852,359.191,429.766,362.14,425.76z M364.901,422.068    c1.256-1.657,2.523-3.304,3.807-4.929c2.919-3.691,5.518-7.601,8.007-11.589c1.184,1.375,2.357,2.758,3.481,4.147    c1.632,2.017,3.052,4.063,4.791,5.857c-2.335,3.402-4.714,6.765-6.737,10.373c-1.287,2.295-2.677,4.529-4.106,6.739    C371.136,429.073,368.03,425.559,364.901,422.068z M379.137,401.608c3.321-5.498,6.567-11.054,10.189-16.372    c2.523,3.162,4.952,6.773,7.935,9.431c0.111,0.143,0.236,0.278,0.391,0.394c0.157,0.116,0.313,0.233,0.471,0.349    c-0.288,0.418-0.569,0.842-0.861,1.258c-3.082,4.391-5.996,9.138-8.853,13.721c-0.264,0.425-0.538,0.842-0.809,1.262    C384.594,408.514,381.882,405.029,379.137,401.608z M392.897,382.929c-0.353-0.449-0.718-0.888-1.083-1.328    c2.876-4.135,5.655-8.327,8.536-12.462c2.812,2.979,5.646,5.937,8.54,8.838c0.009-0.016,0.018-0.031,0.027-0.048    c0.051,0.052,0.103,0.103,0.157,0.148c-0.539,0.903-1.072,1.799-1.59,2.665c-2.283,3.819-4.628,7.59-7.078,11.29    C397.763,389.253,395.248,385.918,392.897,382.929z M388.89,378.257c-2.33-2.558-4.735-5.051-6.972-7.681    c2.144-3.104,4.282-6.214,6.453-9.299c0.678-0.964,1.358-1.921,2.036-2.884c2.272,2.506,4.559,4.996,6.861,7.473    C394.274,369.769,391.564,374.038,388.89,378.257z M384.099,360.018c-1.66,2.363-3.333,4.72-5.012,7.077    c-2.665-3.396-5.199-6.865-7.815-10.272c2.141-3.118,4.139-6.428,6.259-9.425c0.439-0.621,0.893-1.232,1.341-1.846    c2.879,3.216,5.759,6.43,8.646,9.637C386.379,356.798,385.235,358.399,384.099,360.018z M378.814,339.212    c-3.687-4.084-7.391-8.152-11.133-12.184c0.262-0.424,0.532-0.848,0.791-1.271c4.838-7.903,10.19-14.957,15.192-22.677    c1.93-2.979,3.998-5.852,6.093-8.708c1.357,1.745,2.745,3.463,4.244,5.084c1.839,1.989,3.957,3.667,5.838,5.607    c1.295,1.336,2.296,2.786,3.521,4.047c-2.217,3.07-5.06,5.95-7.239,8.513c-3.28,3.857-6.207,7.966-9.435,11.853    C383.989,332.728,381.379,335.954,378.814,339.212z M379.743,300.788c-4.956,7.734-10.053,15.281-15.045,23.045    c-0.506-0.538-1.004-1.083-1.513-1.62c-3.512-3.71-6.648-7.826-9.941-11.739c4.217-6.417,8.204-12.992,12.448-19.444    c3.11-4.728,6.365-9.301,9.598-13.876c2.26,2.528,4.516,5.066,6.787,7.578c1.652,1.827,3.179,3.769,4.683,5.732    C384.295,293.817,381.975,297.306,379.743,300.788z M374.652,269.792c-4.26-4.73-8.581-9.407-12.95-14.013    c-5.626-5.932-11.003-12.098-16.285-18.349c4.905-7.185,9.636-14.539,14.29-21.77c1.825-2.836,3.709-5.641,5.61-8.438    c3.745,3.889,7.537,7.74,11.09,11.794c1.803,2.058,3.174,4.282,5.227,6.086c1.897,1.667,3.718,3.242,5.431,5.119    c1.854,2.032,3.818,3.978,5.801,5.883c0.854,0.82,2.239,1.811,3.391,2.883c-1.002,1.686-1.934,3.44-3.214,4.915    c-3.767,4.341-7.134,9.052-10.299,13.924C380.035,262.002,377.565,265.896,374.652,269.792z M365.029,200.338    c-3.061-3.195-6.039-6.46-8.716-9.976c-0.975-1.281-2.034-2.529-3.128-3.761c0.977-1.455,1.945-2.916,2.942-4.357    c5.857-8.467,11.047-17.435,17.138-25.748c3.86,3.694,7.884,7.345,11.339,11.348c0.358,0.414,0.81,0.585,1.269,0.588    c-0.585,0.764-1.154,1.54-1.686,2.344c-1.621,2.443-2.655,5.036-4.482,7.398c-1.605,2.073-2.883,4.247-4.279,6.466    C372.086,189.941,368.57,195.154,365.029,200.338z M372.9,150.058c-4.119-4.125-8.222-8.401-11.997-12.858    c3.721-5.825,7.531-11.566,11.905-16.92c0.354-0.434,0.707-0.88,1.057-1.331c0.938,1.073,1.848,2.164,2.696,3.296    c1.729,2.307,3.384,4.84,5.278,7.015c0.95,1.092,2.158,1.999,3.203,3.032c-1.304,1.667-2.597,3.333-3.753,5.06    C378.453,141.597,375.83,145.903,372.9,150.058z M358.022,133.682c-2.495-3.194-4.456-6.669-7.163-9.696    c-2.958-3.309-5.819-6.708-8.414-10.321c-3.207-4.466-6.556-8.332-10.108-12.263c4.334-5.933,8.742-11.817,12.537-18.142    c0.054-0.089,0.111-0.177,0.164-0.266c6.582,8.44,13.399,16.702,19.628,25.353c1.799,2.499,3.917,4.806,6.044,7.114    C366.713,121.606,362.2,127.526,358.022,133.682z M339.835,116.26c4.854,6.699,10.039,13.198,15.07,19.739    c0.28,0.365,0.572,0.731,0.857,1.097c-0.634,0.985-1.258,1.977-1.865,2.98c-5.64,9.33-12.165,18.09-18.139,27.219    c-0.945-1.089-1.915-2.156-2.879-3.239c-4.528-5.086-9.239-9.865-13.362-15.31c-2.547-3.364-5.334-7.324-8.869-9.901    c-0.199-1.409-0.405-2.817-0.63-4.222c2.126-2.915,3.953-6.133,6.104-8.915c3.11-4.024,5.273-8.172,7.969-12.422    c2.046-3.226,4.239-6.347,6.474-9.441C333.631,108.003,336.804,112.078,339.835,116.26z M311.694,235.54    c0.292,12.427,1.954,24.784,3.201,37.137c1.215,12.026,2.664,24.109,4.394,36.07c3.766,26.038,3.539,52.285,5.719,78.424    c-0.083-0.006-0.154-0.008-0.244-0.015c-1.208,0.028-2.416,0.057-3.624,0.086c-3.929,0.327-7.826,0.944-11.773,1.14    c-9.515,0.475-19.302,1.497-28.823,1.246c-8.767-0.231-17.447-0.777-26.231-0.79c-10.268-0.015-21.035-1.034-31.235,0.284    c-1.956,0.253-4.017,0.22-6.1,0.104c0.504-19.09,2.215-38.522,4.801-57.405c0.611-4.459,1.266-9.187,1.465-13.684    c0.259-5.856,1.175-11.379,2.015-17.195c1.372-9.497,2.666-19.389,3.127-28.971c0.878-18.222,3.095-36.443,3.52-54.632    c0.109-4.665,0.561-9.428,1.208-14.035c0.826-5.875,0.536-11.88,1.402-17.76c0.666-4.51,1.266-9.019,1.903-13.532    c0.771-5.468,0.993-8.675,6.785-10.088c4.917-1.199,9.96-0.911,14.913-1.459c5.377-0.595,10.809-1.38,16.229-0.91    c10.609,0.92,20.817-0.397,31.281-1.286c0.13,1.526,0.252,3.054,0.358,4.584C307.664,187.103,311.123,211.188,311.694,235.54z     M299.567,152.251c-2.298,0.049-4.554,0.572-6.87,0.581c-5.488,0.022-11.122,0.153-16.593-0.253    c-0.57-0.042-1.142-0.057-1.713-0.087c-1.688-2.841-4.979-5.344-6.918-7.756c-2.512-3.127-5.484-5.655-8.279-8.423    c5.39-6.024,11.364-11.625,17.068-17.424c3.086,3.571,6.336,7.061,9.534,10.508c2.71,2.919,5.371,5.841,8.048,8.818    c3.073,3.417,7.905,7.102,9.771,11.348c0.285,0.647,0.751,0.983,1.269,1.092c0.076,0.718,0.164,1.435,0.237,2.154    C303.257,152.513,301.359,152.212,299.567,152.251z M300.96,139.044c-3.081-3.492-6.007-7.589-9.374-10.785    c-3.951-3.752-7.734-7.839-11.424-11.897c-0.237-0.261-0.486-0.506-0.725-0.764c0.164-0.173,0.333-0.345,0.497-0.52    c3.17-3.382,6.791-6.556,10.21-9.908c2.572,2.866,5.021,5.876,7.291,8.971c1.065,1.451,1.11,1.58,2.662,2.348    c0.155,0.076,0.311,0.113,0.465,0.131c0.326,2.239,0.641,4.477,0.926,6.715c0.797,6.254,1.637,12.502,2.406,18.756    C302.854,141.004,301.789,139.982,300.96,139.044z M278.686,110.092c-0.793,0.757-1.556,1.549-2.333,2.323    c-2.42-2.412-4.883-4.771-7.213-7.31c-1.883-2.053-3.747-4.125-5.6-6.211c2.066-2.446,3.729-5.115,6.011-7.48    c1.272-1.318,2.504-2.67,3.733-4.025c0.293,0.34,0.583,0.681,0.877,1.02c4.063,4.675,8.602,8.961,12.922,13.466    C284.34,104.684,281.505,107.397,278.686,110.092z M263.766,91.088c-1.167,1.471-1.887,3.143-3.039,4.608    c-4.84-5.506-9.636-11.062-14.495-16.561c3.218-3.555,6.473-7.074,10.04-10.324c0.218-0.198,0.432-0.404,0.65-0.603    c4.478,5.155,8.852,10.396,13.302,15.619C267.952,86.178,265.756,88.58,263.766,91.088z M257.766,98.675    c-0.593,0.532-1.184,1.067-1.738,1.637c-2.785,2.869-5.976,5.415-8.532,8.489c-1.948,2.343-3.956,4.606-5.986,6.844    c-2.314-2.801-4.652-5.581-7.071-8.288c-2.332-2.61-4.507-5.358-6.629-8.149c3.389-3.706,6.687-7.528,10.144-11.089    c1.905-1.962,3.745-3.975,5.573-5.996C248.28,87.638,253.042,93.143,257.766,98.675z M229.74,109.192    c2.834,3.346,5.654,6.696,8.473,10.049c-2.887,3.08-5.827,6.113-8.799,9.16c-6.308,6.468-13.14,12.43-19.027,19.305    c-1.401,1.636-2.878,3.208-4.398,4.747c-4.921-5.763-9.675-11.753-14.359-17.755c3.204-3.529,6.511-6.955,10.23-9.974    c6.408-5.201,11.538-11.733,17.711-17.222c1.732-1.539,3.395-3.174,5.023-4.856C226.247,104.876,227.945,107.072,229.74,109.192z     M202.71,155.678c-3.603,3.479-7.293,6.898-10.642,10.624c-7.077,7.876-14.454,15.589-21.58,23.488    c-4.228-6.044-8.333-12.166-12.265-18.411c1.307-1.371,2.605-2.75,3.869-4.154c6.967-7.733,13.881-15.463,20.999-23.056    c1.926-2.055,3.796-4.166,5.669-6.274C193.316,143.877,197.877,149.928,202.71,155.678z M167.558,193.081    c-3.296,3.723-6.528,7.49-9.622,11.351c-1.62,2.021-3.313,4.042-5.048,6.051c-3.454-5.694-6.585-11.573-10.038-17.261    c-0.632-1.041-1.276-2.095-1.928-3.148c0.405-0.446,0.809-0.888,1.203-1.37c4.076-5,8.636-9.612,13.147-14.257    C159.084,180.809,163.265,186.991,167.558,193.081z M153.203,217.566c3.192,4.968,5.866,9.58,9.67,14.134    c0.294,0.353,0.583,0.711,0.873,1.068c-4.548,5.312-8.975,10.783-13.306,16.244c-0.209,0.262-0.61,0.755-1.154,1.418    c-3.354-4.755-6.643-9.553-9.893-14.406c-0.703-1.05-1.387-2.109-2.068-3.169c4.852-5.645,10.042-11.06,15.087-16.549    C152.676,216.724,152.935,217.147,153.203,217.566z M149.323,257.016c1.728,2.515,3.44,5.037,5.092,7.595    c0.944,1.461,1.918,2.893,2.894,4.325c-4.788,6.175-9.563,12.365-14.337,18.556c-2.788-4.254-5.988-8.223-8.857-12.442    c2.392-2.829,4.822-5.636,7.251-8.462C144.062,263.451,146.7,260.243,149.323,257.016z M142.802,294.489    c2.902,4.321,6.241,8.413,9.547,12.439c-5.29,6.918-10.425,13.963-15.208,21.142c-3.148-4.596-6.396-9.133-9.71-13.62    c4.654-6.607,9.81-12.834,14.784-19.202C142.412,294.996,142.606,294.741,142.802,294.489z M137.275,335.522    c3.893,5.943,7.952,11.708,12.255,17.346c-2.408,2.875-4.807,5.758-7.037,8.781c-2.401,3.255-5.023,6.295-7.646,9.331    c-0.745-0.815-1.491-1.63-2.254-2.422c-3.783-3.932-6.734-8.453-10.292-12.557c-0.103-0.119-0.211-0.237-0.315-0.356    c0.179-0.252,0.361-0.518,0.538-0.751C127.426,348.434,132.523,342.095,137.275,335.522z M135.361,377.547    c1.713,1.949,3.456,3.866,5.315,5.64c2.069,1.976,3.835,4.404,5.79,6.599c-3.722-0.04-7.456-0.08-11.163,0.097    c-4.025,0.192-8.07,0.34-12.112,0.537C127.419,386.374,131.503,382.03,135.361,377.547z M154.978,398.313    c3.139-0.007,6.217-0.504,9.321-0.727c0.747,1.871,2.241,3.733,3.202,5.15c1.996,2.939,3.635,6.223,5.963,8.946    c0.882,1.032,1.716,2.097,2.527,3.178c-4.84,6.253-9.677,12.516-14.783,18.541c-5.333,6.292-10.235,12.743-15.12,19.286    c-3.945-5.146-8.034-10.143-11.636-15.616c-4.728-7.183-9.783-14.105-14.275-21.467c-0.254-0.416-0.499-0.836-0.749-1.253    c3.85-5.09,7.403-10.62,11.414-15.609C138.892,398.495,146.901,398.33,154.978,398.313z M147.455,462.202    c3.248,4.546,6.592,10.664,11.304,13.954c-0.489,0.732-0.994,1.45-1.508,2.102c-5.02-0.107-10.071,0.049-15.076,0.044    c-3.883-0.003-7.871-0.245-11.819-0.241c5.341-5.827,10.695-11.691,15.51-18.019C146.395,460.764,146.937,461.475,147.455,462.202    z M149.179,456.807c-0.14-0.193-0.284-0.382-0.425-0.575c6.08-8.072,12.153-16.034,18.859-23.685    c2.659-3.034,5.105-6.208,7.416-9.5c1.108-1.579,2.341-3.04,3.609-4.471c3.614,5.313,6.853,10.901,10.877,15.994    c0.056,0.072,0.111,0.144,0.168,0.214c-0.411,0.533-0.821,1.07-1.237,1.6c-5.994,7.639-12.416,15.007-17.816,23.103    c-2.597,3.893-5.374,7.659-8.304,11.286c-0.36,0.446-0.76,1.029-1.187,1.684C156.005,468.996,152.713,461.675,149.179,456.807z     M162.816,476.362c2.893-3.142,5.318-6.764,7.938-10.143c3.294-4.25,5.926-8.996,9.336-13.176    c3.185-3.903,6.735-7.534,9.825-11.52c0.833-1.075,1.656-2.167,2.471-3.268c1.701,2.198,3.382,4.408,4.997,6.664    c2.947,4.113,6.677,7.671,9.55,11.846c-0.952,1.315-1.901,2.633-2.875,3.935c-4.557,6.094-10.107,11.998-13.148,19.085    c-3.585-0.301-7.163-0.666-10.768-0.808c-6.382-0.252-12.725-0.241-19.105-0.592c-0.018-0.001-0.035-0.001-0.054-0.002    C161.649,477.667,162.264,476.962,162.816,476.362z M197.91,475.212c2.857-4.027,6.125-7.699,9.035-11.673    c0.792-1.081,1.566-2.173,2.348-3.261c4.342,6.547,8.438,12.857,13.889,18.708c-0.197,0.462-0.382,0.928-0.554,1.398    c-7.907-0.031-15.814-0.074-23.724-0.161c-1.471-0.016-2.936-0.082-4.399-0.173C195.66,478.477,196.752,476.847,197.91,475.212z     M219.729,467.234c-2.55-3.631-5.074-7.258-7.589-10.934c3.993-5.64,7.932-11.305,12.044-16.763    c0.099-0.132,0.201-0.264,0.301-0.397c2.563,3.372,5.058,6.792,7.396,10.319c1.878,2.833,3.842,5.509,5.777,8.221    c-0.503,0.736-1.004,1.473-1.52,2.201c-3.378,4.771-7.576,9.501-10.671,14.677C223.565,472.103,221.543,469.815,219.729,467.234z     M230.511,475.347c3.141-3.998,5.982-8.326,8.954-12.461c0.305-0.425,0.601-0.858,0.902-1.287    c0.449,0.669,0.905,1.328,1.341,2.017c3.237,5.111,6.543,9.485,11.125,13.547c0.076,0.08,0.159,0.145,0.241,0.207    c-0.703,1.001-1.366,2.022-1.917,3.081c-8.101-0.014-16.204-0.024-24.307-0.049C228.127,478.739,229.273,476.922,230.511,475.347z     M250.089,468.058c-2.139-2.493-3.937-5.689-5.671-8.455c-0.425-0.677-0.878-1.33-1.319-1.994    c4.37-6.552,8.442-13.317,13.005-19.756c1.563,2.059,3.126,4.117,4.579,6.249c2.369,3.473,4.26,7.234,7.037,10.405    c0.665,0.758,1.272,1.53,1.858,2.304c-1.03,1.269-2.073,2.523-3.097,3.802c-3.016,3.767-6.502,7.194-9.257,11.159    c-0.528,0.76-1.105,1.526-1.696,2.302C253.929,471.837,251.881,470.148,250.089,468.058z M261.722,472.571    c2.981-3.697,6.392-7.042,9.379-10.736c0.383-0.473,0.781-0.938,1.172-1.406c0.645,0.84,1.315,1.672,2.06,2.482    c2.9,3.151,4.657,7.179,7.936,9.985c0.305,0.261,0.647,0.415,0.999,0.494c-0.545,0.853-1.066,1.716-1.497,2.607    c-0.695,1.437-1.004,3.429-2.238,4.557c-8.272-0.049-16.545-0.082-24.817-0.098C256.964,477.734,259.651,475.141,261.722,472.571z     M290.109,470.128c1.949-2.683,4.367-4.912,6.215-7.675c2.071-3.097,4.009-6.323,6.161-9.351    c4.119-5.793,8.222-11.611,12.284-17.466c0.233,0.29,0.455,0.588,0.691,0.874c2.845,3.449,5.676,6.972,8.421,10.561    c-3.611,4.904-6.963,10.006-10.498,14.976c-2.46,3.46-4.592,7.041-6.917,10.59c-1.773,2.704-3.93,5.059-4.922,8.131    c-6.162-0.082-12.325-0.147-18.487-0.189C285.966,477.694,288.039,472.978,290.109,470.128z M309.519,474.422    c2.54-3.349,4.898-6.922,7.366-10.328c3.22-4.445,6.361-9.041,9.692-13.44c2.13,2.893,4.187,5.83,6.132,8.81    c0.17,0.26,0.351,0.505,0.523,0.763c-2.789,3.736-5.585,7.464-8.153,11.296c-1.99,2.971-4.603,6.151-6.233,9.548    c-5.077-0.111-10.153-0.205-15.229-0.277C305.594,478.683,307.748,476.759,309.519,474.422z M325.325,478.044    c1.524-2.053,2.72-4.414,4.308-6.406c2.045-2.566,4.104-5.168,6.124-7.805c3.001,4.087,6.247,7.885,9.661,11.567    c-1.203,1.938-2.255,4.084-2.943,6.265c-3.863-0.079-7.728-0.169-11.598-0.286c-2.751-0.083-5.501-0.143-8.252-0.21    C323.546,480.146,324.503,479.151,325.325,478.044z M338.677,459.917c1.492-2.043,2.955-4.101,4.328-6.206    c2.633-4.034,5.307-8.075,8.021-12.098c3.078,3.73,6.254,7.392,9.613,10.947c-0.987,1.537-1.952,3.086-2.874,4.66    c-2.919,4.991-6.125,9.646-9.567,14.243C344.837,467.79,341.641,463.998,338.677,459.917z M348.195,478.34    c1.113,1.158,2.234,2.312,3.372,3.464c-1.836-0.023-3.673-0.041-5.508-0.072C346.751,480.591,347.467,479.462,348.195,478.34z     M413.038,371.951c-0.563,0.769-1.105,1.566-1.634,2.373c-2.874-2.885-5.698-5.818-8.499-8.774    c0.258-0.356,0.506-0.717,0.766-1.072c2.071-2.824,3.448-5.981,5.292-8.923c0.805-1.284,1.728-2.356,2.599-3.435    C412.118,358.728,412.588,365.341,413.038,371.951z M410.95,345.213c-0.207,0.217-0.378,0.494-0.483,0.849    c-0.969,3.316-4.636,6.649-6.304,9.798c-1.248,2.355-2.707,4.456-4.253,6.527c-2.343-2.508-4.669-5.032-6.982-7.567    c3.064-4.336,6.137-8.659,9.284-12.94c2.426-3.301,5.053-6.463,7.347-9.825C410.082,336.432,410.538,340.819,410.95,345.213z     M408.329,322.575c0.127,0.88,0.231,1.763,0.351,2.645c-0.859,1.355-1.636,2.787-2.461,4.106    c-2.305,3.683-5.156,6.883-7.681,10.405c-2.844,3.968-5.677,7.93-8.502,11.902c-2.869-3.164-5.73-6.336-8.591-9.508    c4.471-5.791,9.257-11.325,13.848-17.039c3.566-4.438,8.418-9.016,11.834-14.074C407.547,314.864,407.777,318.73,408.329,322.575z     M404.189,291.183c0.337,4.52,1.054,8.682,1.912,13.078c-0.097,0.254-0.205,0.507-0.318,0.759    c-2.091-2.685-4.82-4.881-7.272-7.288c-2.213-2.172-4.177-4.557-6.085-6.987c0.915-1.245,1.83-2.491,2.729-3.748    c2.222-3.104,3.816-6.538,6.242-9.525c0.519-0.638,1.01-1.225,1.475-1.818C403.38,280.836,403.805,286.024,404.189,291.183z     M401.162,261.032c0.429,3.07,0.797,6.157,1.14,9.248c-0.478,0.099-0.914,0.372-1.194,0.867c-1.24,2.208-3.642,3.983-5.15,6.082    c-2.292,3.191-4.073,6.599-6.504,9.702c-0.979-1.251-1.971-2.491-3.001-3.697c-2.81-3.289-5.67-6.549-8.552-9.793    c2.712-3.878,5.377-7.788,7.891-11.829c3.484-5.602,7.717-10.523,11.675-15.681c0.462-0.602,0.953-1.269,1.443-1.965    C399.531,249.714,400.384,255.463,401.162,261.032z M391.584,172.728c0.99,10.906,0.127,22.17,2.159,32.926    c1.399,7.398,2.476,15.288,4.282,22.872c0.003,0.367,0.017,0.733,0.016,1.1c-0.003,1.551,0.05,3.119,0.123,4.691    c-1.172-0.979-2.364-1.897-3.304-2.799c-2.235-2.145-4.164-4.48-6.287-6.702c-2.092-2.19-4.667-3.435-6.523-5.892    c-4.214-5.58-9.182-10.543-14.092-15.56c3.59-5.221,7.213-10.427,10.703-15.717c1.898-2.878,3.659-5.683,5.758-8.43    c1.513-1.98,2.178-4.197,3.509-6.254c0.978-1.512,2.11-2.907,3.266-4.282C391.327,170.031,391.462,171.379,391.584,172.728z     M389.705,136.957c0.789,6.386,0.479,12.798,0.586,19.211c0.035,2.151,0.177,4.294,0.349,6.435    c-0.91,1.115-1.84,2.214-2.759,3.322c-0.771-2.463-2.851-3.602-4.657-5.343c-2.541-2.449-4.855-5.099-7.363-7.576    c-0.008-0.008-0.017-0.016-0.025-0.024c3.351-4.715,6.202-9.68,9.444-14.491c0.733-1.088,1.556-2.162,2.403-3.239    c0.584,0.195,1.268,0.109,1.799-0.201C389.556,135.687,389.626,136.323,389.705,136.957z M386.079,106.085    c1.003,7.135,1.752,14.313,2.542,21.483c-0.263,0.375-0.546,0.739-0.82,1.108c-1.822-1.987-3.644-3.764-5.287-6.014    c-1.9-2.604-3.88-5.051-5.907-7.462c1.708-2.455,3.335-5,4.85-7.439c1.271-2.047,2.785-3.929,4.041-5.969    C385.687,103.224,385.878,104.656,386.079,106.085z M376.727,44.095c1.866,9.561,2.787,19.057,4.633,28.613    c1.376,7.126,2.295,14.361,3.194,21.587c-1.466,2.338-2.574,5.329-3.674,6.81c-2.489,3.351-5.075,6.825-7.484,10.324    c-1.018-1.184-2.042-2.373-3.071-3.583c-4.145-4.875-7.87-10.312-11.874-15.366c-3.589-4.531-7.35-8.939-10.951-13.463    c5.263-8.278,11.158-16.291,16.885-24.2c2.897-4.001,5.997-7.908,8.891-11.828c0.975-1.32,1.824-2.728,2.639-4.157    C376.128,40.597,376.387,42.353,376.727,44.095z M299.885,21.223c5.501-2.019,11.788-2.996,17.514-4.228    c10.747-2.31,21.733-2.705,32.454-4.895c4.785-0.978,9.616-1.524,14.426-2.355c1.942-0.336,4.276-0.496,6.15-1.131    c0.788-0.267,1.491-0.294,1.745-0.513c0.394,1.318,0.649,3.19,0.817,3.914c1.582,6.753,1.818,13.76,2.344,20.731    c-1.414,1.983-2.681,4.078-4.029,6.125c-2.508,3.812-5.604,7.544-8.446,11.172c-6.359,8.119-12.502,16.657-18.216,25.297    c-0.133-0.177-0.275-0.348-0.407-0.526c-7.884-10.495-16.375-20.857-24.972-30.766c-4.203-4.844-8.466-9.74-12.361-14.865    c-2.136-2.812-4.561-5.635-7.428-7.798C299.611,21.335,299.734,21.279,299.885,21.223z M305.868,33.98    c3.208,4.499,6.778,8.91,10.469,13.001c4.637,5.139,8.62,10.861,12.849,16.339c3.806,4.929,8.074,9.476,11.832,14.452    c0.358,0.474,0.723,0.943,1.083,1.415c-6.427,9.887-12.797,19.714-19.268,29.334c-2.785,4.139-4.822,8.61-7.777,12.595    c-1.946,2.624-4.091,5.195-5.816,7.973c-0.022,0.034-0.039,0.072-0.06,0.106c-0.013-0.08-0.025-0.161-0.038-0.24    c0.139-12.293-1.659-25.302-3.581-37.399c-1.993-12.543-4.348-25.096-5.648-37.727c-0.213-2.067-0.378-4.155-0.528-6.255    c-0.108-3.559-0.196-7.117-0.528-10.655c-0.422-4.499-0.318-9.028-0.814-13.442C301.071,26.627,303.619,30.825,305.868,33.98z     M299.338,108.359c-1.792-2.398-4.152-4.565-5.988-6.488c1.582-1.729,3.071-3.529,4.369-5.46    C298.174,100.396,298.748,104.379,299.338,108.359z M295.828,71.627c0.405,5.451,0.794,10.902,1.131,16.351    c0.058,0.939,0.141,1.879,0.218,2.818c-0.424,0.115-0.833,0.366-1.162,0.806c-1.815,2.433-3.774,4.742-5.815,6.976    c-4.318-4.453-8.792-8.707-13.027-13.183c-0.351-0.372-0.695-0.751-1.043-1.129c0.89-0.967,1.787-1.927,2.708-2.867    c3.522-3.594,7.109-7.081,10.214-11.053c1.694-2.167,3.431-5.695,5.428-8.31C294.879,65.24,295.337,68.436,295.828,71.627z     M272.384,53.847c0.986-1.056,2.259-3.141,3.676-3.673c0.346-0.13,0.619-0.323,0.836-0.548c2.923-0.591,5.841-1.219,8.671-1.969    c2.258-0.598,5.023-0.963,7.479-1.742c0.157,2.365,0.321,4.734,0.504,7.073c0.099,1.266,0.221,2.531,0.348,3.795    c-1.499,1.328-2.536,3.185-3.73,4.781c-3.049,4.081-6.039,8.15-9.582,11.824c-2.42,2.51-4.964,4.992-7.48,7.51    c-4.438-5.083-8.684-10.436-13.238-15.449c2.259-2.145,4.506-4.307,6.834-6.372C268.651,57.346,270.604,55.754,272.384,53.847z     M269.006,51.191c-0.262,0.294-0.531,0.583-0.81,0.858c-3.587,3.546-7.475,6.914-11.217,10.329    c-2.435-2.508-4.979-4.893-7.707-7.064C255.857,53.972,262.407,52.515,269.006,51.191z M240.288,57.048    c1.839-0.326,3.667-0.684,5.496-1.042c2.87,2.96,5.652,5.982,8.369,9.049c-2.298,2.283-4.456,4.654-6.785,6.915    c-1.386,1.346-2.677,2.678-3.942,4.015c-5.038-5.63-10.201-11.145-15.598-16.437C231.967,58.643,236.117,57.788,240.288,57.048z     M224.967,60.18c5.179,6.295,10.459,12.512,15.774,18.698c-1.154,1.271-2.308,2.559-3.5,3.901    c-2.577,2.905-5.524,5.541-8.271,8.274c-1.407,1.4-2.699,2.894-3.976,4.401c-4.268-5.768-8.461-11.593-13.358-16.79    c-3.415-3.624-6.624-9.142-10.599-12.912C209.027,63.955,216.981,61.979,224.967,60.18z M197.99,66.434    c1.581,2.077,2.969,4.687,4.323,6.556c1.898,2.621,3.898,5.304,6.055,7.802c4.945,5.725,9.178,12.048,13.592,18.232    c-0.862,0.996-1.738,1.978-2.662,2.918c-2.956,3.013-6.221,5.662-9.132,8.734c-2.934,3.096-5.925,6.438-9.157,9.219    c-4.179,3.595-8.177,7.412-12.07,11.348c-1.374-1.769-2.745-3.537-4.112-5.295c-6.278-8.076-12.153-16.589-18.36-24.739    c0.1-0.109,0.202-0.219,0.303-0.328c5.782-6.319,11.405-12.84,17.044-19.283c4.557-5.208,9.572-9.815,13.976-15.117    C197.857,66.464,197.923,66.449,197.99,66.434z M155.007,76.085c9.362-2.396,18.731-5.211,28.282-6.788    c2.593-0.429,5.176-0.909,7.755-1.418c-1.078,1.228-2.157,2.446-3.278,3.583c-2.952,2.991-5.856,6.038-8.554,9.252    c-4.887,5.817-10.059,11.624-15.307,17.182c-0.634-0.807-1.265-1.618-1.909-2.414c-2.934-3.63-6.056-7.107-8.888-10.84    c-1.627-2.144-3.258-4.636-5.255-6.604C150.105,77.124,152.685,76.679,155.007,76.085z M137.025,117.351    c1.189-8.264,1.489-16.874,3.012-25.067c0.579-3.115,1.433-6.701,2.691-9.632c0.579-1.35,1.445-2.357,2.484-3.147    c2.42,2.977,4.31,6.416,6.711,9.395c3.047,3.78,6.107,7.576,8.824,11.579c0.099,0.145,0.201,0.288,0.3,0.433    c-6.138,6.381-11.87,13.066-17.993,19.42c-2.189,2.271-4.882,4.798-7.203,7.535C136.139,124.382,136.515,120.892,137.025,117.351z     M135.503,132.87c4.074-4.529,9.091-8.526,13.235-12.8c4.959-5.116,9.888-10.356,14.751-15.625    c6.766,9.635,14.102,18.997,21.302,28.276c0.399,0.514,0.794,1.033,1.192,1.549c-8.797,9.17-17.058,18.935-25.393,28.44    c-1.514,1.727-3.069,3.419-4.64,5.095c-3.535-5.656-7.376-11.147-11.072-16.722c-2.899-4.373-6.349-7.844-9.675-11.684    C135.282,137.211,135.376,135.035,135.503,132.87z M133.699,171.206c0.771-9.054,1.149-18.078,1.362-27.163    c0.008-0.329,0.022-0.652,0.03-0.98c1.906,3.115,4.496,6.086,6.243,8.858c3.611,5.732,7.618,11.366,10.893,17.27    c0.294,0.53,0.608,1.052,0.907,1.58c-4.024,4.214-8.096,8.386-11.929,12.764c-0.861,0.983-1.722,1.968-2.583,2.951    c-0.435-0.647-0.875-1.289-1.326-1.914c-1.559-2.162-2.681-4.588-4.2-6.75C133.307,175.619,133.511,173.414,133.699,171.206z     M132.735,181.591c0.788,1.566,1.538,3.174,2.446,4.612c0.516,0.818,1.004,1.662,1.505,2.495    c-1.349,1.543-2.693,3.087-4.025,4.627c-0.405,0.467-0.774,0.955-1.132,1.451C131.886,190.375,132.311,185.984,132.735,181.591z     M131.088,200.51c1.372-1.555,2.681-3.18,4.105-4.653c1.215-1.257,2.428-2.4,3.617-3.574c0.748,1.303,1.493,2.608,2.224,3.908    c3.174,5.646,6.174,11.418,9.483,17.001c-3.928,4.425-8.027,8.761-12.052,12.86c-1.119,1.139-2.193,2.317-3.251,3.511    c-0.889-1.382-1.786-2.756-2.723-4.105c-0.993-1.429-1.989-3.081-3.077-4.632C130.078,214.049,130.603,207.262,131.088,200.51z     M128.881,225.934c0.596,0.791,1.208,1.572,1.717,2.434c0.765,1.296,1.541,2.583,2.315,3.872c-1.209,1.455-2.395,2.93-3.552,4.431    c-0.767,0.996-1.518,2.032-2.27,3.076C127.792,235.163,128.374,230.554,128.881,225.934z M125.763,247.711    c0.13-0.702,0.24-1.409,0.365-2.113c3.187-3.042,6.013-6.557,8.85-9.974c0.877,1.421,1.75,2.842,2.662,4.254    c2.958,4.583,6.083,9.056,9.192,13.533c-3.658,4.441-9.436,11.46-14.908,18.284c-2.436-3.805-4.98-7.663-7.651-11.346    C124.58,256.086,124.997,251.843,125.763,247.711z M123.28,275.188c0.296-3.433,0.487-6.919,0.699-10.411    c1.866,3.249,3.821,6.427,5.83,9.567c-2.809,3.53-5.445,6.909-7.557,9.73C122.654,281.12,123.023,278.161,123.28,275.188z     M119.879,302.47c0.316-3.59,0.787-7.156,1.289-10.718c0.693-0.898,1.292-1.848,1.726-2.459c2.857-4.014,5.904-7.862,9.043-11.646    c2.833,4.356,5.704,8.697,8.489,13.135c-0.88,1.142-1.766,2.279-2.645,3.422c-4.319,5.623-8.739,11.142-12.805,16.948    c-1.74-2.324-3.492-4.636-5.253-6.938C119.776,303.635,119.828,303.051,119.879,302.47z M119.314,308.888    c0.054,0.086,0.109,0.169,0.162,0.254c1.057,1.726,2.128,3.485,3.243,5.213c-1.44,2.056-2.926,4.049-4.418,6.053    C118.645,316.564,118.978,312.727,119.314,308.888z M117.75,326.432c1.327-1.401,2.763-2.77,3.859-4.055    c1.256-1.474,2.372-3.009,3.468-4.571c0.198,0.274,0.388,0.556,0.591,0.825c3.162,4.196,6.143,8.594,9.051,13.002    c-4.467,6.553-9.208,12.955-14.002,19.274c-0.457,0.602-0.898,1.215-1.341,1.827c-1.343-1.492-2.677-3.03-3.835-4.654    C116.359,340.89,117.079,333.666,117.75,326.432z M114.51,356.698c0.178-1.4,0.341-2.803,0.508-4.205    c0.753,1.056,1.57,2.071,2.384,3.057c-1.139,1.675-2.248,3.368-3.357,5.064C114.198,359.306,114.345,357.996,114.51,356.698z     M111.892,381.542c0.451-4.559,0.891-9.167,1.366-13.767c2.527-2.526,4.708-6.017,6.694-9.098    c3.084,3.927,5.852,8.117,9.233,11.827c1.04,1.142,2.061,2.312,3.079,3.488c-1.458,1.713-2.895,3.445-4.27,5.238    c-2.984,3.891-6.444,7.531-9.419,11.454c-2.537,0.155-5.07,0.333-7.594,0.578C111.275,388.019,111.572,384.779,111.892,381.542z     M110.279,399.102c5.315,0.383,10.591,0.013,15.943-0.213c-2.698,4.108-5.782,8.123-8.859,11.968    c-1.396-2.39-2.788-4.782-4.269-7.13c-0.871-1.382-1.753-2.966-2.842-4.301L110.279,399.102z M109.682,405.908    c0.016-0.184,0.032-0.366,0.048-0.549c0.677,1.077,1.339,2.054,1.742,2.754c1.129,1.961,2.234,3.936,3.359,5.9    c-2.313,2.883-4.616,5.758-6.989,8.585C108.525,417.036,109.197,411.461,109.682,405.908z M102.984,477.863    c0.137-1.515,0.103-3.017,0.041-4.527c0.129-1.67,0.215-3.341,0.201-5.05c-0.026-3.028,0.318-6.012,0.495-8.985    c0.258-0.451,0.443-0.981,0.498-1.616c0.744-8.579,1.491-17.146,2.485-25.702c0.105-0.899,0.218-1.805,0.326-2.705    c3.31-3.87,6.671-7.71,9.881-11.7c0.641,1.066,1.294,2.121,1.97,3.164c4.777,7.372,9.42,14.756,14.306,22.061    c3.152,4.712,6.639,9.19,10.055,13.705c-0.198,0.266-0.396,0.529-0.594,0.796c-5.214,7.006-12.17,13.369-16.715,20.895    c-0.743,0.049-1.484,0.114-2.219,0.199c-5.452,0.63-11.04,0.341-16.538,0.293c-1.432-0.013-2.907,0.187-4.279-0.325    C102.934,478.235,102.966,478.076,102.984,477.863z M438.093,500.125c-0.125,0.18-0.27,0.344-0.435,0.495    c-2.664,2.447-10.206,1.281-13.5,1.506c-13.206,0.904-26.424,1.816-39.667,1.785c-11.967-0.027-24.274-1.199-36.203,0.288    c-6.767,0.844-14.291,0.766-21.111,0.307c-6.429-0.433-12.557-0.609-19.017-0.581c-13.464,0.057-26.906-0.584-40.371-0.578    c-27.655,0.013-55.369-1.246-83.07-0.601c-2.685,0.063-5.331,0.293-7.999,0.578c-4.018,0.429-7.695-0.135-11.681-0.307    c-7.179-0.309-14.348-0.302-21.529-0.611c-13.216-0.569-26.339-1.318-39.541-1.673c-3.294-0.089-6.532-0.652-9.815-0.789    c-3.535-0.147-6.805,0.706-10.299,0.836c-2.298,0.086-5.431-0.115-7.714-0.699c-2.299-0.588-2.102-0.227-2.347-3.218    c-0.108-1.317,0.025-3.62,0.348-4.927c1.268-5.139,14.288-2.78,18.705-3.182c3.568-0.324,7.034-0.673,10.625-0.863    c0.767-0.041,2.153-0.397,3.557-0.716c0.049,0,0.1,0,0.149,0c25.341-0.179,50.756-1.907,76.112-0.075    c12.935,0.935,25.793,0.845,38.762,0.912c13.653,0.07,27.245,0.856,40.876,1.01c24.667,0.277,49.35,0.622,73.99,1.816    c15.346,0.743,30.797,0.283,46.16,0.284c7.763,0,15.097-0.359,22.615-1.827c5.269-1.029,10.661-1.391,16.022-1.188    c4.119,0.155,9.86-0.013,13.561,2.05C438.332,491.863,440.343,496.895,438.093,500.125z"/>
	</g>
</g>
<g>
</g>
<g>
</g>
<g>
</g>
<g>
</g>
<g>
</g>
<g>
</g>
<g>
</g>
<g>
</g>
<g>
</g>
<g>
</g>
<g>
</g>
<g>
</g>
<g>
</g>
<g>
</g>
<g>
</g>
</svg>
