<?xml version="1.0" encoding="iso-8859-1"?>
<!-- Generator: Adobe Illustrator 19.0.0, SVG Export Plug-In . SVG Version: 6.00 Build 0)  -->
<svg xmlns="http://www.w3.org/2000/svg" xmlns:xlink="http://www.w3.org/1999/xlink" version="1.1" id="Layer_1" x="0px" y="0px" viewBox="0 0 512 512" style="enable-background:new 0 0 512 512;" xml:space="preserve">
<g>
	<g>
		<path d="M393.994,420.16c-4.604-0.742-9.215-1.294-13.707-2.63c-10.59-3.149-21.028-6.382-30.96-11.281    c-5.124-2.527-10.203-5.081-15.14-7.938c-3.092-1.79-6.2-3.522-9.268-5.36c-0.813-0.488-1.956-0.859-2.88-1.395    c6.544-0.899,14.027-2.747,17.656-7.581c0.066-0.038,0.13-0.082,0.199-0.116c0.458-0.219,0.949-0.329,1.392-0.587    c1.305-0.762,2.796-2.24,2.908-3.828c0.121-1.714-1.254-2.683-2.727-3.148c-0.31-0.097-0.669-0.231-1.045-0.363    c-3.036-1.592-6.652-3.34-6.986-6.811c-0.169-1.758-1.468-2.709-3.193-2.433c-2.398,0.385-4.506,1.527-6.953,1.89    c-3,0.445-6.086,0.459-9.113,0.307c-0.703-0.036-1.385-0.109-2.055-0.203c0.958-3.197,0.786-9.628-0.178-11.874    c-1.914-4.456-7.955-6.359-12.307-6.432c-0.109-0.002-0.218-0.001-0.327-0.003c0.494-1.867,0.803-3.44,0.791-4.734    c5.078,0.458,10.344,0.104,15.37-0.355c7.118-0.649,19.27-1.688,24.227-8.29c0.066-0.038,0.13-0.082,0.199-0.116    c0.458-0.219,0.949-0.329,1.392-0.587c1.305-0.762,2.796-2.24,2.908-3.828c0.12-1.714-1.254-2.683-2.727-3.148    c-0.311-0.097-0.669-0.231-1.045-0.363c-3.036-1.592-6.652-3.34-6.985-6.811c-0.169-1.758-1.468-2.709-3.193-2.433    c-2.398,0.385-4.506,1.527-6.953,1.89c-3,0.445-6.086,0.459-9.113,0.307c-0.703-0.036-1.385-0.109-2.055-0.203    c0.958-3.197,0.786-9.627-0.178-11.873c-1.914-4.456-7.955-6.359-12.307-6.432c-0.109-0.002-0.218-0.001-0.327-0.003    c0.494-1.867,0.802-3.44,0.791-4.734c5.078,0.458,10.344,0.104,15.37-0.355c7.118-0.649,19.27-1.688,24.227-8.29    c0.066-0.038,0.13-0.082,0.199-0.116c0.458-0.219,0.949-0.329,1.392-0.587c1.305-0.762,2.796-2.24,2.908-3.828    c0.12-1.714-1.254-2.683-2.727-3.148c-0.311-0.099-0.669-0.231-1.045-0.363c-3.036-1.592-6.652-3.34-6.986-6.811    c-0.169-1.758-1.468-2.709-3.193-2.433c-2.398,0.383-4.506,1.527-6.953,1.89c-3,0.445-6.086,0.459-9.113,0.307    c-0.703-0.036-1.385-0.109-2.055-0.203c0.958-3.197,0.786-9.628-0.178-11.874c-1.914-4.456-7.955-6.359-12.307-6.432    c-0.109-0.002-0.218-0.001-0.327-0.003c0.494-1.867,0.802-3.44,0.791-4.734c5.078,0.458,10.344,0.104,15.37-0.355    c7.118-0.649,19.27-1.688,24.227-8.29c0.066-0.038,0.13-0.082,0.199-0.116c0.458-0.219,0.949-0.329,1.392-0.587    c1.305-0.762,2.796-2.24,2.908-3.828c0.12-1.714-1.254-2.683-2.727-3.148c-0.311-0.099-0.669-0.231-1.045-0.363    c-3.036-1.591-6.652-3.34-6.986-6.811c-0.169-1.758-1.468-2.709-3.193-2.433c-2.398,0.383-4.506,1.527-6.953,1.89    c-3,0.445-6.086,0.459-9.113,0.307c-0.703-0.036-1.385-0.109-2.055-0.203c0.958-3.197,0.786-9.628-0.178-11.874    c-1.914-4.456-7.955-6.359-12.307-6.432c-0.109-0.002-0.218-0.001-0.327-0.003c0.494-1.867,0.802-3.44,0.791-4.734    c5.078,0.458,10.344,0.104,15.37-0.355c7.118-0.649,19.27-1.688,24.227-8.29c0.066-0.038,0.13-0.082,0.199-0.116    c0.458-0.219,0.949-0.329,1.392-0.587c1.305-0.762,2.796-2.24,2.908-3.828c0.121-1.714-1.254-2.683-2.727-3.148    c-0.31-0.097-0.669-0.231-1.045-0.363c-3.036-1.592-6.652-3.34-6.986-6.811c-0.169-1.758-1.468-2.709-3.193-2.433    c-2.398,0.385-4.506,1.527-6.953,1.89c-3,0.445-6.086,0.459-9.113,0.307c-0.703-0.036-1.385-0.109-2.055-0.203    c0.958-3.197,0.786-9.628-0.178-11.874c-1.914-4.456-7.955-6.359-12.307-6.432c-0.109-0.002-0.218-0.001-0.327-0.003    c0.378-1.427,0.645-2.681,0.746-3.773c2.62-0.127,5.235-0.631,7.895-0.846c3.966-0.319,7.758-1.342,11.558-2.375    c5.689-1.547,12.59-3.57,16.199-8.608c2.802-0.346,2.741-4.754-0.255-4.747c-25.113,0.056-34.735-32.069-47.956-48.228    c-3.825-4.675-8.681-8.226-14.178-10.256c0.051-0.202,0.079-0.415,0.054-0.654c-0.745-7.449-0.861-23.948-10.553-25.289    c-0.049-6.872-0.091-13.578-0.901-20.432c-0.038-0.321-0.067-0.647-0.096-0.972c-0.258-8.715,0.127-17.584-0.658-26.242    c-0.029-0.326-0.126-0.605-0.265-0.845c0.52-0.483,0.863-1.096,1.056-1.755c0.164-0.432,0.266-0.9,0.317-1.38    c0.381-0.779,0.462-1.664,0.232-2.503c-0.38-1.383-1.436-2.466-2.693-3.103c-0.777-0.394-1.641-0.59-2.503-0.334    c-0.229,0.068-0.451,0.169-0.657,0.295c-0.152,0.028-0.307,0.059-0.468,0.109c-1.24,0.38-2.387,1.608-2.807,2.817    c-0.646,1.854-0.232,3.718,0.928,4.917c0.685,0.883,1.723,1.521,2.78,1.788c0.074,0.018,0.151,0.02,0.227,0.034    c0.355,4.507,0.408,9.055,0.425,13.607c-0.448,4.566-0.277,9.328,0.041,13.564c0.124,1.664,0.218,3.321,0.293,4.975    c0.023,3.601-0.056,7.367,0.285,10.967c0.021,1.604,0.037,3.211,0.057,4.823c-5.208,1.403-5.685,6.979-6.028,11.61    c-0.279,3.778-0.63,7.542-0.864,11.321c-0.064,1.032-0.093,2.014,0.14,2.95c-0.032,0.013-0.067,0.023-0.1,0.036    c-11.313,1.95-18.047,17.147-23.7,26.008c-5.264,8.253-11.575,15.509-20.399,20.099c-3.849,2.001-7.697,3.863-11.714,5.478    c-3.659,1.471-6.685,1.4-10.194,2.011c-1.226,0.213-2.02,2.042-1.244,3.058c4.5,5.895,13.355,9.603,20.001,12.418    c4.523,1.916,11.866,6.032,17.391,4.815c0.005,1.276,0.312,2.816,0.793,4.635c-0.109,0.002-0.218,0.001-0.327,0.003    c-4.353,0.073-10.393,1.975-12.308,6.432c-0.965,2.245-1.137,8.676-0.178,11.874c-0.671,0.094-1.352,0.167-2.055,0.203    c-3.026,0.153-6.113,0.139-9.113-0.307c-2.447-0.363-4.555-1.506-6.953-1.89c-1.725-0.277-3.024,0.674-3.193,2.433    c-0.334,3.47-3.951,5.22-6.986,6.811c-0.377,0.132-0.735,0.265-1.045,0.363c-1.474,0.465-2.849,1.434-2.727,3.148    c0.112,1.59,1.604,3.066,2.908,3.828c0.443,0.258,0.934,0.368,1.392,0.587c0.07,0.034,0.133,0.078,0.199,0.116    c4.957,6.602,17.11,7.641,24.227,8.29c5.025,0.459,10.291,0.812,15.37,0.355c-0.01,1.294,0.298,2.868,0.791,4.734    c-0.109,0.002-0.218,0.001-0.327,0.003c-4.353,0.074-10.393,1.975-12.308,6.432c-0.965,2.245-1.137,8.676-0.178,11.874    c-0.671,0.094-1.352,0.167-2.055,0.203c-3.026,0.153-6.113,0.139-9.113-0.307c-2.447-0.363-4.555-1.506-6.953-1.89    c-1.725-0.277-3.024,0.675-3.193,2.433c-0.334,3.47-3.951,5.22-6.986,6.811c-0.377,0.132-0.735,0.265-1.045,0.363    c-1.474,0.465-2.849,1.434-2.727,3.148c0.112,1.59,1.604,3.066,2.908,3.828c0.443,0.258,0.934,0.368,1.392,0.587    c0.07,0.034,0.133,0.078,0.199,0.116c4.957,6.602,17.11,7.641,24.227,8.29c5.025,0.458,10.291,0.812,15.37,0.355    c-0.01,1.294,0.298,2.868,0.791,4.734c-0.109,0.002-0.218,0.001-0.327,0.003c-4.353,0.073-10.393,1.976-12.308,6.432    c-0.965,2.245-1.137,8.676-0.178,11.874c-0.671,0.094-1.352,0.167-2.055,0.203c-3.026,0.153-6.113,0.139-9.113-0.307    c-2.447-0.363-4.555-1.506-6.953-1.89c-1.725-0.277-3.024,0.675-3.193,2.433c-0.334,3.47-3.951,5.22-6.986,6.811    c-0.377,0.132-0.735,0.265-1.045,0.363c-1.474,0.465-2.849,1.434-2.727,3.148c0.112,1.589,1.604,3.066,2.908,3.828    c0.443,0.258,0.934,0.368,1.392,0.587c0.07,0.034,0.133,0.078,0.199,0.116c4.957,6.602,17.11,7.641,24.227,8.29    c5.025,0.459,10.291,0.812,15.37,0.355c-0.01,1.294,0.298,2.868,0.791,4.734c-0.109,0.002-0.218,0.001-0.327,0.003    c-4.353,0.074-10.393,1.975-12.308,6.432c-0.965,2.245-1.137,8.676-0.178,11.873c-0.671,0.094-1.352,0.167-2.055,0.203    c-3.026,0.153-6.113,0.139-9.113-0.307c-2.447-0.363-4.555-1.506-6.953-1.89c-1.725-0.277-3.024,0.676-3.193,2.433    c-0.334,3.47-3.951,5.22-6.986,6.811c-0.377,0.132-0.735,0.265-1.045,0.363c-1.474,0.465-2.849,1.434-2.727,3.148    c0.112,1.59,1.604,3.066,2.908,3.828c0.443,0.258,0.934,0.368,1.392,0.587c0.07,0.034,0.133,0.078,0.199,0.116    c4.957,6.602,17.11,7.641,24.227,8.29c5.025,0.459,10.291,0.812,15.37,0.355c-0.012,1.294,0.298,2.868,0.791,4.734    c-0.109,0.002-0.218,0.001-0.327,0.003c-4.353,0.073-10.393,1.975-12.308,6.432c-0.965,2.245-1.137,8.676-0.178,11.874    c-0.671,0.094-1.352,0.167-2.055,0.203c-3.026,0.153-6.113,0.139-9.113-0.307c-2.447-0.363-4.555-1.506-6.953-1.89    c-1.725-0.277-3.024,0.674-3.193,2.433c-0.334,3.47-3.951,5.22-6.986,6.811c-0.377,0.132-0.735,0.265-1.045,0.363    c-1.474,0.465-2.849,1.434-2.727,3.148c0.112,1.59,1.604,3.066,2.908,3.828c0.443,0.258,0.934,0.368,1.392,0.587    c0.07,0.034,0.133,0.078,0.199,0.116c3.809,5.073,11.858,6.857,18.614,7.709c-1.511,0.771-3.156,1.456-4.403,2.219    c-2.981,1.825-6.154,3.389-9.204,5.14c-6.944,3.985-14.538,7.039-21.956,10.051c-7.593,3.084-14.877,6.448-22.741,8.847    c-8.596,2.624-17.853,4.08-26.818,4.635c-2.804,0.174-3.858,3.724-1.431,5.282c6.705,4.301,15.307,6.589,23.022,8.286    c3.066,0.674,6.18,1.138,9.313,1.441c0.137,0.46,0.456,0.866,0.977,1.029c-1.915-0.599-2.263,10.731-2.352,11.949    c-0.454,6.128-0.085,12.417-0.093,18.56c-0.005,4.18-1.102,10.154,0.353,14.337c-0.593,0.039-1.184,0.073-1.779,0.115    c-4.894,0.346-12.029-0.765-16.336,2.033c-3.321,2.157-3.798,8.552-4.233,12.186c-0.627,5.256-1.27,9.248,4.682,10.163    c13.4,2.059,27.053-0.546,40.408,0.502c6.348,0.497,12.859-0.176,19.243-0.197c7.273-0.023,14.482,0.33,21.739,0.355    c7.045,0.024,14.057,0.888,21.138,0.856c7.169-0.031,14.333,0.073,21.481,0.553c15.183,1.018,30.571,0.534,45.798,0.717    c14.936,0.18,29.955,1.495,44.863,1.225c12.045-0.218,24.353,0.19,36.299-0.827c4.87-0.415,9.028-0.386,11.136-5.359    c1.166-2.752,1.295-4.814,0.959-7.719c-0.448-3.878-0.371-8.079-1.001-11.894c-1.027-6.223-6.667-3.426-11.066-3.15    c-3.018,0.189-6.039,0.336-9.061,0.474c2.189-3.134,2.767-7.151,3.336-10.852c0.911-5.921,1.659-11.641,1.847-17.625    c0.096-3.076,0.251-6.141,0.359-9.219c0.09-2.596-0.114-5.531,0.086-8.259c4.391,0.209,8.686-0.12,12.497-1.539    c0.583-0.218,1.016-0.553,1.316-0.95c1.168-0.614,2.294-1.412,3.417-2.215c2.196-1.568,6.011-4.343,6.563-7.217    C399.723,422.25,396.794,420.612,393.994,420.16z M324.549,373.456c1.6-0.256,3.083-0.827,4.592-1.299    c1.48,3.607,5.017,6.666,8.898,7.006c-3.43,0.577-7.001-1.116-10.152-2.258c-1.544-0.56-1.659-1.218-3.559-0.819    c-0.019,0.005-0.037,0.01-0.056,0.014c-1.97-0.912-4.055-1.566-6.155-2.181C320.273,373.913,322.435,373.793,324.549,373.456z     M321.444,377.004c-2.423,0.971-4.81,2.298-7.337,2.901c-4.08,0.977-8.128,0.915-12.231,0.168    c-3.839-0.699-6.663-2.016-9.981-4.055c-1.659-1.02-3.487-2.491-5.482-2.798c-0.432-0.358-0.867-0.711-1.332-1.021    c-0.672-0.447-1.33-0.907-1.988-1.371c3.089,0.001,6.148-0.08,9.049-0.108c2.749-0.027,5.572,0.068,8.342,0.023    C307.2,373.904,314.246,375.658,321.444,377.004z M243.963,345.604c2.623,0.147,5.274,0.206,7.776-0.081    c1.675,0.086,3.352,0.171,5.025,0.261c3.935,0.21,7.954,0.271,11.896,0.075c1.492-0.074,3.058-0.054,4.607-0.137    c1.507,0.025,3.04-0.031,4.564-0.117c-0.065,0.928,0.034,1.83,0.036,2.775c0.001,0.586-0.023,1.171-0.047,1.757    c-2.113,0.002-4.231,0.051-6.345-0.08c-0.182-0.012-0.358-0.021-0.536-0.032c-4.3-0.819-9.18-0.11-13.335-0.003    c-1.947,0.05-4.588-0.275-6.913,0.014c-0.123,0.007-0.242,0.014-0.368,0.022c-2.112,0.131-4.23,0.082-6.345,0.08    c-0.023-0.585-0.049-1.17-0.047-1.757C243.933,347.435,244.029,346.532,243.963,345.604z M250.749,353.746    c2.285,0.421,4.9,0.225,6.853,0.199c4.192-0.053,9.141,0.6,13.457-0.264c-0.271,1.371-0.334,2.782-0.176,4.177    c0.294,2.608,0.374,5.106-0.122,7.646c-4.539-0.255-9.275,0.241-13.588,0.197c-1.893-0.02-4-0.112-6.115-0.079    c-0.523-2.581-0.444-5.114-0.145-7.764C251.069,356.485,251.009,355.096,250.749,353.746z M257.378,370.722    c5.742,0.192,12.238,0.735,18.098-0.161c0.95,0.072,1.907,0.126,2.867,0.166c0.117,0.065,0.239,0.124,0.352,0.193    c1.11,0.687,2.2,1.404,3.294,2.116c0.385,0.249,0.802,0.494,1.236,0.725c-1.51,0.626-3.069,1.551-4.52,1.901    c-1.907,0.459-3.778,1.018-5.67,1.506c-5.693-0.502-12.067,0.393-17.337,0.233c-3.047-0.094-6.038-0.409-9.05-0.795    c-1.181-0.328-2.361-0.658-3.556-0.945c-1.451-0.349-3.01-1.276-4.52-1.901c0.435-0.232,0.852-0.476,1.236-0.725    c1.094-0.71,2.184-1.429,3.294-2.116c0.112-0.07,0.235-0.13,0.352-0.193c1.503-0.061,2.992-0.174,4.465-0.323    C251.077,370.77,254.41,370.622,257.378,370.722z M302.925,361.139c0.166-2.192,0.671-4.5,0.375-6.687    c2.82,1.093,4.83,3.361,5.063,7.815c0.103,1.971-0.275,4.004,0.185,5.719c-0.842-0.193-1.684-0.39-2.536-0.578    c-0.861-0.385-1.755-0.652-2.66-0.872C303.468,364.757,302.803,362.753,302.925,361.139z M301.706,353.958    c-0.647,2.02-0.906,4.009-1.365,6.174c-0.273,1.291-0.343,2.376-0.177,3.696c0.08,0.641,0.291,1.462,0.26,2.205    c-3.121-0.308-6.36-0.082-9.43-0.112c-4.923-0.049-10.336-0.207-15.549,0.196c-0.409-0.089-0.82-0.168-1.236-0.237    c0.294-2.322,0.254-4.285-0.12-6.879c-0.265-1.835-0.345-3.764-0.751-5.596c6.331,0.396,12.651,1.06,18.997,0.441    C295.516,353.535,298.882,353.322,301.706,353.958z M280.307,345.451c1.616-0.114,3.199-0.229,4.704-0.29    c-0.079,0.56-0.146,1.125-0.2,1.715c-0.107,1.162-0.311,2.318-0.459,3.477c-0.907-0.031-1.812-0.058-2.726-0.12    c-0.326-0.023-0.652-0.023-0.979-0.037c0.028-1.042-0.094-2.117-0.216-3.033C280.374,346.735,280.365,346.096,280.307,345.451z     M287.195,345.099c2.157-0.044,4.317-0.147,6.476-0.239c0.876,0.092,1.739,0.195,2.593,0.306c0.782,1.25,0.575,3.643,0.912,5.193    c-3.314,0.001-6.579,0.081-9.86,0.057C287.46,348.621,287.322,346.894,287.195,345.099z M324.549,326.476    c1.6-0.256,3.083-0.827,4.592-1.299c1.48,3.607,5.017,6.665,8.898,7.006c-3.43,0.577-7.001-1.116-10.152-2.258    c-1.544-0.56-1.659-1.218-3.559-0.819c-0.019,0.003-0.037,0.01-0.056,0.014c-1.97-0.912-4.055-1.567-6.155-2.181    C320.273,326.933,322.435,326.813,324.549,326.476z M321.444,330.024c-2.423,0.971-4.81,2.298-7.337,2.901    c-4.08,0.977-8.128,0.915-12.231,0.168c-3.839-0.699-6.663-2.016-9.981-4.055c-1.659-1.02-3.487-2.491-5.482-2.798    c-0.432-0.358-0.867-0.711-1.332-1.021c-0.672-0.447-1.33-0.907-1.988-1.371c3.089,0.001,6.148-0.08,9.049-0.108    c2.749-0.027,5.572,0.068,8.342,0.023C307.2,326.924,314.246,328.678,321.444,330.024z M243.963,298.624    c2.623,0.147,5.274,0.206,7.776-0.081c1.675,0.086,3.352,0.17,5.025,0.261c3.935,0.21,7.954,0.271,11.896,0.074    c1.492-0.074,3.058-0.054,4.607-0.137c1.507,0.026,3.04-0.031,4.564-0.117c-0.065,0.928,0.034,1.83,0.036,2.775    c0.001,0.586-0.023,1.171-0.047,1.756c-2.113,0.002-4.231,0.051-6.345-0.08c-0.182-0.012-0.358-0.021-0.536-0.032    c-4.3-0.819-9.18-0.11-13.335-0.003c-1.947,0.05-4.588-0.275-6.913,0.014c-0.123,0.007-0.242,0.014-0.368,0.022    c-2.112,0.131-4.23,0.082-6.345,0.08c-0.023-0.585-0.049-1.17-0.047-1.756C243.933,300.455,244.029,299.552,243.963,298.624z     M250.749,306.766c2.285,0.421,4.9,0.225,6.853,0.199c4.192-0.053,9.141,0.601,13.457-0.264c-0.271,1.371-0.334,2.782-0.176,4.177    c0.294,2.608,0.374,5.106-0.122,7.646c-4.539-0.255-9.275,0.242-13.588,0.197c-1.893-0.02-4-0.112-6.115-0.079    c-0.523-2.581-0.444-5.114-0.145-7.764C251.069,309.505,251.009,308.116,250.749,306.766z M257.378,323.742    c5.742,0.193,12.238,0.735,18.098-0.161c0.95,0.072,1.907,0.126,2.867,0.166c0.117,0.065,0.239,0.124,0.352,0.193    c1.11,0.687,2.2,1.404,3.294,2.116c0.385,0.249,0.802,0.494,1.236,0.725c-1.51,0.626-3.069,1.551-4.52,1.901    c-1.907,0.459-3.778,1.018-5.67,1.506c-5.693-0.502-12.067,0.393-17.337,0.233c-3.047-0.094-6.038-0.409-9.05-0.795    c-1.181-0.328-2.361-0.658-3.556-0.945c-1.451-0.349-3.01-1.276-4.52-1.901c0.435-0.232,0.852-0.476,1.236-0.725    c1.094-0.71,2.184-1.429,3.294-2.116c0.112-0.07,0.235-0.13,0.352-0.193c1.503-0.061,2.992-0.174,4.465-0.323    C251.077,323.791,254.41,323.643,257.378,323.742z M302.925,314.16c0.166-2.192,0.671-4.5,0.375-6.687    c2.82,1.093,4.83,3.361,5.063,7.815c0.103,1.971-0.275,4.004,0.185,5.719c-0.842-0.193-1.684-0.39-2.536-0.578    c-0.861-0.385-1.755-0.652-2.66-0.871C303.468,317.777,302.803,315.774,302.925,314.16z M301.706,306.978    c-0.647,2.02-0.906,4.009-1.365,6.174c-0.273,1.291-0.343,2.376-0.177,3.696c0.08,0.641,0.291,1.462,0.26,2.205    c-3.121-0.308-6.36-0.082-9.43-0.112c-4.923-0.049-10.336-0.207-15.549,0.196c-0.409-0.089-0.82-0.168-1.236-0.237    c0.294-2.322,0.254-4.285-0.12-6.879c-0.265-1.835-0.345-3.764-0.751-5.596c6.331,0.396,12.651,1.06,18.997,0.441    C295.516,306.555,298.882,306.342,301.706,306.978z M280.307,298.47c1.616-0.112,3.199-0.228,4.704-0.288    c-0.079,0.56-0.146,1.124-0.2,1.715c-0.107,1.162-0.311,2.318-0.459,3.477c-0.907-0.031-1.812-0.058-2.726-0.121    c-0.326-0.023-0.652-0.023-0.979-0.037c0.028-1.041-0.094-2.117-0.216-3.033C280.374,299.755,280.365,299.116,280.307,298.47z     M287.196,298.119c2.157-0.044,4.317-0.147,6.476-0.237c0.876,0.091,1.739,0.193,2.593,0.306c0.781,1.249,0.574,3.642,0.911,5.192    c-3.314,0.001-6.579,0.081-9.86,0.057C287.46,301.641,287.322,299.914,287.196,298.119z M324.549,279.496    c1.6-0.256,3.083-0.827,4.592-1.299c1.48,3.607,5.017,6.665,8.898,7.006c-3.43,0.577-7.001-1.116-10.152-2.258    c-1.544-0.56-1.659-1.218-3.559-0.819c-0.019,0.003-0.037,0.01-0.056,0.014c-1.97-0.912-4.055-1.566-6.155-2.181    C320.273,279.953,322.435,279.833,324.549,279.496z M321.444,283.045c-2.423,0.971-4.81,2.298-7.337,2.901    c-4.08,0.977-8.128,0.915-12.231,0.168c-3.839-0.699-6.663-2.016-9.981-4.056c-1.659-1.02-3.487-2.491-5.482-2.798    c-0.432-0.358-0.867-0.711-1.332-1.021c-0.672-0.447-1.33-0.907-1.988-1.371c3.089,0.002,6.148-0.08,9.049-0.108    c2.749-0.027,5.572,0.068,8.342,0.023C307.2,279.944,314.246,281.698,321.444,283.045z M243.963,251.644    c2.623,0.147,5.274,0.206,7.776-0.081c1.675,0.086,3.352,0.17,5.025,0.261c3.935,0.21,7.954,0.271,11.896,0.074    c1.492-0.074,3.058-0.054,4.607-0.137c1.507,0.026,3.04-0.031,4.564-0.117c-0.065,0.928,0.034,1.829,0.036,2.775    c0.001,0.586-0.023,1.171-0.047,1.757c-2.113,0.003-4.231,0.051-6.345-0.08c-0.182-0.012-0.358-0.021-0.536-0.032    c-4.3-0.818-9.18-0.11-13.335-0.003c-1.947,0.051-4.588-0.275-6.913,0.014c-0.123,0.007-0.242,0.014-0.368,0.022    c-2.112,0.131-4.23,0.082-6.345,0.08c-0.023-0.585-0.049-1.17-0.047-1.757C243.933,253.475,244.029,252.572,243.963,251.644z     M250.749,259.786c2.285,0.421,4.9,0.225,6.853,0.199c4.192-0.053,9.141,0.601,13.457-0.264c-0.271,1.371-0.334,2.782-0.176,4.177    c0.294,2.609,0.374,5.106-0.122,7.646c-4.539-0.255-9.275,0.241-13.588,0.197c-1.893-0.02-4-0.112-6.115-0.079    c-0.523-2.581-0.444-5.114-0.145-7.764C251.069,262.526,251.009,261.136,250.749,259.786z M257.378,276.763    c5.742,0.193,12.238,0.735,18.098-0.161c0.95,0.072,1.907,0.126,2.867,0.166c0.117,0.065,0.239,0.124,0.352,0.194    c1.11,0.687,2.2,1.404,3.294,2.116c0.385,0.249,0.802,0.494,1.236,0.725c-1.51,0.626-3.069,1.551-4.52,1.901    c-1.907,0.459-3.778,1.018-5.67,1.506c-5.693-0.502-12.067,0.393-17.337,0.233c-3.047-0.094-6.038-0.409-9.05-0.795    c-1.181-0.328-2.361-0.658-3.556-0.945c-1.451-0.349-3.01-1.276-4.52-1.901c0.435-0.232,0.852-0.476,1.236-0.725    c1.094-0.71,2.184-1.429,3.294-2.116c0.112-0.07,0.235-0.13,0.352-0.193c1.503-0.061,2.992-0.174,4.465-0.323    C251.077,276.811,254.41,276.663,257.378,276.763z M302.925,267.18c0.166-2.192,0.671-4.5,0.375-6.687    c2.82,1.093,4.83,3.361,5.063,7.815c0.103,1.971-0.275,4.004,0.185,5.72c-0.842-0.194-1.684-0.391-2.536-0.578    c-0.861-0.383-1.755-0.652-2.66-0.871C303.468,270.797,302.803,268.794,302.925,267.18z M301.706,259.998    c-0.647,2.02-0.906,4.009-1.365,6.174c-0.273,1.291-0.343,2.376-0.177,3.696c0.08,0.641,0.291,1.462,0.26,2.205    c-3.121-0.308-6.36-0.082-9.43-0.112c-4.923-0.049-10.336-0.207-15.549,0.196c-0.409-0.089-0.82-0.168-1.236-0.238    c0.294-2.322,0.254-4.285-0.12-6.879c-0.265-1.835-0.345-3.764-0.751-5.596c6.331,0.396,12.651,1.06,18.997,0.441    C295.516,259.575,298.882,259.363,301.706,259.998z M280.307,251.491c1.616-0.114,3.199-0.229,4.704-0.29    c-0.079,0.56-0.146,1.124-0.2,1.715c-0.107,1.162-0.311,2.318-0.459,3.477c-0.907-0.031-1.812-0.058-2.726-0.121    c-0.326-0.023-0.652-0.023-0.979-0.037c0.028-1.04-0.094-2.117-0.216-3.033C280.374,252.775,280.365,252.137,280.307,251.491z     M287.196,251.139c2.157-0.044,4.317-0.147,6.476-0.238c0.876,0.092,1.739,0.194,2.593,0.306c0.781,1.249,0.574,3.642,0.911,5.192    c-3.314,0.001-6.579,0.081-9.86,0.057C287.46,254.661,287.322,252.934,287.196,251.139z M324.549,232.516    c1.6-0.256,3.083-0.827,4.592-1.299c1.48,3.607,5.017,6.665,8.898,7.006c-3.43,0.577-7.001-1.116-10.152-2.258    c-1.544-0.56-1.659-1.218-3.559-0.819c-0.019,0.003-0.037,0.01-0.056,0.014c-1.97-0.912-4.055-1.567-6.155-2.181    C320.273,232.974,322.435,232.853,324.549,232.516z M321.444,236.065c-2.423,0.971-4.81,2.298-7.337,2.901    c-4.08,0.977-8.128,0.915-12.231,0.167c-3.839-0.699-6.663-2.016-9.981-4.055c-1.659-1.02-3.487-2.491-5.482-2.798    c-0.432-0.358-0.867-0.711-1.332-1.021c-0.672-0.447-1.33-0.907-1.988-1.371c3.089,0.001,6.148-0.08,9.049-0.108    c2.749-0.027,5.572,0.068,8.342,0.023C307.2,232.964,314.246,234.72,321.444,236.065z M243.963,204.665    c2.623,0.146,5.274,0.206,7.776-0.081c1.675,0.086,3.352,0.17,5.025,0.261c3.935,0.21,7.954,0.271,11.896,0.074    c1.492-0.074,3.058-0.055,4.607-0.137c1.507,0.025,3.04-0.031,4.564-0.117c-0.065,0.928,0.034,1.83,0.036,2.775    c0.001,0.586-0.023,1.171-0.047,1.757c-2.113,0.002-4.231,0.051-6.345-0.08c-0.182-0.012-0.358-0.021-0.536-0.032    c-4.3-0.819-9.18-0.11-13.335-0.005c-1.947,0.051-4.588-0.275-6.913,0.014c-0.123,0.007-0.242,0.014-0.368,0.022    c-2.112,0.131-4.23,0.082-6.345,0.08c-0.023-0.585-0.049-1.17-0.047-1.757C243.933,206.495,244.029,205.592,243.963,204.665z     M250.749,212.806c2.285,0.422,4.9,0.225,6.853,0.199c4.192-0.053,9.141,0.601,13.457-0.263c-0.271,1.371-0.334,2.782-0.176,4.177    c0.294,2.609,0.374,5.106-0.122,7.646c-4.539-0.255-9.275,0.242-13.588,0.197c-1.893-0.02-4-0.112-6.115-0.079    c-0.523-2.581-0.444-5.114-0.145-7.764C251.069,215.546,251.009,214.156,250.749,212.806z M257.378,229.783    c5.742,0.193,12.238,0.735,18.098-0.161c0.95,0.072,1.907,0.126,2.867,0.166c0.117,0.065,0.239,0.124,0.352,0.193    c1.11,0.687,2.2,1.404,3.294,2.116c0.385,0.249,0.802,0.494,1.236,0.725c-1.51,0.625-3.069,1.551-4.52,1.901    c-1.907,0.459-3.778,1.018-5.67,1.506c-5.693-0.502-12.067,0.393-17.337,0.233c-3.047-0.094-6.038-0.409-9.05-0.795    c-1.181-0.328-2.361-0.658-3.556-0.945c-1.451-0.349-3.01-1.276-4.52-1.901c0.435-0.232,0.852-0.476,1.236-0.725    c1.094-0.71,2.184-1.429,3.294-2.116c0.112-0.07,0.235-0.13,0.352-0.194c1.503-0.061,2.992-0.174,4.465-0.323    C251.077,229.831,254.41,229.683,257.378,229.783z M302.925,220.201c0.166-2.192,0.671-4.5,0.375-6.687    c2.82,1.093,4.83,3.361,5.063,7.815c0.103,1.971-0.275,4.004,0.185,5.72c-0.842-0.193-1.684-0.39-2.536-0.578    c-0.861-0.385-1.755-0.652-2.66-0.872C303.468,223.817,302.803,221.815,302.925,220.201z M301.706,213.018    c-0.647,2.02-0.906,4.009-1.365,6.174c-0.273,1.291-0.343,2.376-0.177,3.696c0.08,0.641,0.291,1.462,0.26,2.205    c-3.121-0.308-6.36-0.082-9.43-0.112c-4.923-0.049-10.336-0.207-15.549,0.196c-0.409-0.089-0.82-0.168-1.236-0.237    c0.294-2.322,0.254-4.285-0.12-6.879c-0.265-1.835-0.345-3.763-0.751-5.596c6.331,0.396,12.651,1.06,18.997,0.441    C295.516,212.595,298.882,212.383,301.706,213.018z M280.307,204.51c1.616-0.112,3.199-0.228,4.704-0.289    c-0.079,0.56-0.146,1.124-0.2,1.715c-0.107,1.162-0.311,2.318-0.459,3.477c-0.907-0.031-1.812-0.058-2.726-0.12    c-0.326-0.023-0.652-0.023-0.979-0.037c0.028-1.04-0.094-2.117-0.216-3.033C280.374,205.795,280.365,205.157,280.307,204.51z     M287.196,204.16c2.157-0.043,4.317-0.147,6.476-0.237c0.876,0.091,1.739,0.193,2.593,0.306c0.781,1.248,0.574,3.641,0.911,5.192    c-3.314,0.001-6.579,0.081-9.86,0.057C287.46,207.682,287.322,205.954,287.196,204.16z M324.549,185.536    c1.6-0.256,3.083-0.827,4.592-1.299c1.48,3.607,5.017,6.666,8.898,7.006c-3.43,0.577-7.001-1.116-10.152-2.258    c-1.544-0.56-1.659-1.218-3.559-0.819c-0.019,0.003-0.037,0.01-0.056,0.014c-1.97-0.912-4.055-1.567-6.155-2.181    C320.273,185.994,322.435,185.873,324.549,185.536z M321.444,189.085c-2.423,0.971-4.81,2.298-7.337,2.901    c-4.08,0.977-8.128,0.915-12.231,0.168c-3.839-0.699-6.663-2.016-9.981-4.055c-1.659-1.02-3.487-2.491-5.482-2.798    c-0.432-0.358-0.867-0.711-1.332-1.021c-0.672-0.447-1.33-0.907-1.988-1.371c3.089,0.001,6.148-0.08,9.049-0.108    c2.749-0.027,5.572,0.07,8.342,0.023C307.2,185.984,314.246,187.74,321.444,189.085z M243.905,157.092    c0.57,0.039,1.164,0.054,1.791,0.085c5.047,0.242,10.11,0.308,15.161,0.476c5.19,0.173,11.372,0.161,17.039-0.613    c-0.197,1.162-0.032,2.257-0.03,3.42c0.001,0.586-0.023,1.171-0.048,1.756c-2.113,0.002-4.231,0.051-6.345-0.08    c-0.182-0.012-0.358-0.021-0.536-0.032c-4.3-0.819-9.18-0.11-13.335-0.003c-1.947,0.05-4.588-0.275-6.913,0.014    c-0.123,0.007-0.242,0.014-0.368,0.022c-2.112,0.131-4.23,0.082-6.345,0.08c-0.023-0.585-0.049-1.17-0.048-1.757    C243.933,159.314,244.089,158.235,243.905,157.092z M250.749,165.826c2.285,0.422,4.9,0.225,6.853,0.199    c4.192-0.053,9.141,0.6,13.457-0.264c-0.271,1.371-0.334,2.782-0.176,4.177c0.294,2.609,0.374,5.106-0.122,7.646    c-4.539-0.255-9.275,0.241-13.588,0.197c-1.893-0.02-4-0.112-6.115-0.079c-0.523-2.581-0.444-5.114-0.145-7.764    C251.069,168.566,251.009,167.177,250.749,165.826z M257.378,182.803c5.742,0.193,12.238,0.735,18.098-0.161    c0.95,0.072,1.907,0.126,2.867,0.166c0.117,0.065,0.239,0.124,0.352,0.193c1.11,0.687,2.2,1.404,3.294,2.116    c0.385,0.249,0.802,0.494,1.236,0.725c-1.51,0.626-3.069,1.551-4.52,1.901c-1.907,0.459-3.778,1.018-5.67,1.506    c-5.693-0.502-12.067,0.393-17.337,0.233c-3.047-0.094-6.038-0.409-9.05-0.795c-1.181-0.328-2.361-0.658-3.556-0.945    c-1.451-0.349-3.01-1.276-4.52-1.901c0.435-0.232,0.852-0.476,1.236-0.725c1.094-0.71,2.184-1.429,3.294-2.116    c0.112-0.07,0.235-0.13,0.352-0.193c1.503-0.061,2.992-0.174,4.465-0.323C251.077,182.851,254.41,182.703,257.378,182.803z     M302.925,173.221c0.166-2.192,0.671-4.5,0.375-6.687c2.82,1.093,4.83,3.361,5.063,7.815c0.103,1.971-0.275,4.004,0.185,5.719    c-0.842-0.194-1.684-0.391-2.536-0.578c-0.861-0.385-1.755-0.652-2.66-0.872C303.468,176.837,302.803,174.835,302.925,173.221z     M301.706,166.038c-0.647,2.02-0.906,4.01-1.365,6.174c-0.273,1.291-0.343,2.376-0.177,3.696c0.08,0.641,0.291,1.462,0.26,2.205    c-3.121-0.308-6.36-0.082-9.43-0.112c-4.923-0.047-10.336-0.207-15.549,0.196c-0.409-0.089-0.82-0.168-1.236-0.238    c0.294-2.322,0.254-4.285-0.12-6.879c-0.265-1.835-0.345-3.764-0.751-5.596c6.331,0.396,12.651,1.059,18.997,0.441    C295.516,165.615,298.882,165.403,301.706,166.038z M280.199,156.725c1.623-0.063,3.258-0.144,4.916-0.196    c-0.141,0.793-0.227,1.587-0.306,2.429c-0.107,1.162-0.311,2.318-0.459,3.477c-0.907-0.031-1.812-0.058-2.726-0.12    c-0.326-0.023-0.652-0.023-0.979-0.037c0.028-1.04-0.094-2.117-0.216-3.033C280.351,158.634,280.372,157.602,280.199,156.725z     M287.146,156.471c2.695-0.138,6.571-1.151,8.968,0.575c0.169,0.122,0.315,0.48,0.44,0.956c0.411,1.571,0.592,4.439,0.621,4.439    c-3.314,0.001-6.579,0.081-9.86,0.057C287.48,160.466,287.279,158.525,287.146,156.471z M293.681,111.701    c7.445,12.394,16.482,27.876,30.389,33.249c-1.199,0.131-2.359,0.235-3.418,0.321c-4.2,0.343-8.382,0.126-12.496-0.75    c-3.98-0.846-7.962-1.807-11.771-3.252c-3.058-1.159-4.362-3.892-6.005-6.633c-1.606-2.679-4.268-4.531-5.682-7.395    c-2.053-4.156-3.964-8.4-5.672-12.71c-3.389-8.557-5.544-18.275-9.706-26.559C281.44,91.283,287.479,101.376,293.681,111.701z     M257.249,87.856c3.087-0.75,6.287-1.038,9.792-0.418c3.303,10.417,6.046,20.936,10.037,31.161    c2.174,5.571,5.31,16.073,11.108,19.814c-0.66,0.158-1.124,0.674-1.728,0.951c-2.409,1.102-4.735,2.337-7.254,3.226    c-4.266,1.505-8.813,2.645-13.355,2.307c-7.917-0.59-15.169-3.001-21.68-7.424c5.119-4.162,7.663-13.743,9.064-19.027    C255.785,108.819,257.625,97.943,257.249,87.856z M256.384,65.372c0.791-2.754,2.863-5.002,5.974-4.601    c3.649,0.47,4.822,4.379,5.299,7.629c0.678,4.625,0.608,9.338,1.202,13.94c-1.737-0.359-3.521-0.574-5.346-0.629    c-2.646-0.08-5.529,0.294-8.377,1.054C257.037,77.503,254.881,70.599,256.384,65.372z M193.187,142.027    c0.628-0.037,1.263-0.118,1.911-0.276c3.121-0.761,6.469-2.31,9.35-3.726c8.031-3.944,14.786-8.623,20.63-15.371    c5.217-6.024,8.235-13.301,12.475-19.984c2.221-3.501,4.622-7.366,7.578-10.511c2.982-1.098,5.835-2.331,8.725-3.308    c-0.523,8.839-1.134,17.698-3.255,26.326c-1.12,4.562-2.458,8.955-4.35,13.258c-1.468,3.338-3.636,5.951-5.509,8.908    c-7.793,5.485-15.567,10.172-25.508,9.859C207.149,146.949,199.912,145.794,193.187,142.027z M211.852,151.217    c0.115,0.008,0.236,0.019,0.349,0.027c6.709,0.461,12.507,0.3,18.767-2.548c3.993-1.817,7.801-4.394,11.407-6.913    c6.305,4.193,13.186,6.622,20.849,7.495c4.197,0.479,7.95,0.197,12.081-0.736c2.34-0.528,4.565-1.269,6.808-2.112    c1.893-0.711,4.635-2.563,6.535-2.89c2.171-0.373,6.173,2.142,8.544,2.992c3.832,1.373,8.043,2.179,12.051,2.865    c4.538,0.777,9.237,0.818,13.805,0.213c0.584-0.078,1.208-0.153,1.847-0.231c-3.196,1.233-6.685,1.98-9.316,2.587    c-5.482,1.266-11.117,1.761-16.7,2.641c-0.929-0.826-2.444-1.316-4.769-1.477c-4.316-0.299-8.671-0.293-12.998,0.026    c-10.533-2.077-21.748,0.475-32.593,0.945c-6.859-1.141-13.896-1.452-20.834-0.971c-1.762,0.122-3.052,0.437-3.985,0.939    C219.517,153.975,215.657,152.687,211.852,151.217z M241.597,156.725c-0.172,0.877-0.152,1.909-0.232,2.517    c-0.122,0.917-0.242,1.993-0.214,3.033c-0.326,0.014-0.654,0.015-0.979,0.037c-0.914,0.063-1.819,0.089-2.726,0.12    c-0.148-1.159-0.352-2.314-0.459-3.477c-0.078-0.841-0.165-1.636-0.306-2.429C238.34,156.581,239.974,156.662,241.597,156.725z     M234.482,162.497c-3.282,0.024-6.546-0.056-9.86-0.057c0.387-1.78,0.054-4.669,1.324-5.665c1.544-1.211,6.555-0.414,8.705-0.305    C234.518,158.525,234.317,160.466,234.482,162.497z M229.465,165.927c6.346,0.619,12.665-0.045,18.997-0.441    c-0.406,1.832-0.487,3.761-0.751,5.596c-0.372,2.579-0.412,4.534-0.124,6.838c-0.543,0.065-1.081,0.144-1.607,0.247    c-5.097-0.367-10.369-0.213-15.175-0.166c-3.07,0.03-6.309-0.196-9.43,0.112c-0.031-0.743,0.18-1.564,0.26-2.205    c0.166-1.32,0.096-2.405-0.177-3.696c-0.458-2.166-0.717-4.155-1.365-6.174C222.915,165.403,226.281,165.615,229.465,165.927z     M213.434,174.349c0.233-4.453,2.243-6.723,5.063-7.815c-0.295,2.186,0.209,4.494,0.375,6.687    c0.122,1.614-0.543,3.617-0.428,5.398c-0.906,0.22-1.801,0.488-2.66,0.872c-0.853,0.188-1.693,0.385-2.535,0.578    C213.708,178.353,213.331,176.32,213.434,174.349z M221.313,182.824c2.771,0.046,5.593-0.05,8.342-0.023    c2.901,0.028,5.96,0.11,9.049,0.108c-0.658,0.462-1.317,0.923-1.988,1.371c-0.466,0.309-0.901,0.663-1.332,1.021    c-1.994,0.307-3.822,1.779-5.482,2.798c-3.318,2.04-6.142,3.357-9.981,4.055c-4.102,0.748-8.151,0.809-12.231-0.168    c-2.527-0.604-4.914-1.93-7.337-2.901C207.551,187.74,214.597,185.984,221.313,182.824z M183.758,191.245    c3.881-0.342,7.418-3.401,8.898-7.006c1.509,0.472,2.992,1.043,4.592,1.299c2.113,0.337,4.275,0.458,6.433,0.465    c-2.099,0.614-4.185,1.269-6.155,2.181c-0.019-0.003-0.037-0.01-0.056-0.014c-1.901-0.399-2.016,0.26-3.559,0.819    C190.759,190.129,187.188,191.822,183.758,191.245z M212.895,198.915c-5.703-0.403-12.213-0.315-17.723-1.719    c-0.995-0.254-5.272-1.183-5.697-2.241c-0.403-1.001,2.219-1.141,3.019-1.436c1.283-0.473,2.599-0.921,3.987-0.727    c2.389,0.337,4.56,1.883,6.761,2.61c3.478,1.149,6.455,1.76,10.112,1.962c4.213,0.232,8.362-0.611,12.304-2.059    c1.997-0.733,3.937-1.611,5.852-2.535c1.802-0.87,3.498-2.315,5.376-1.715c1.248,0.397,2.451,0.651,3.707,0.968    c1.093,0.275,2.154,0.52,3.207,0.73c4.058,1.211,9.195,1.398,11.899,1.556c4.134,0.241,14.447,1.478,19.877-1.142    c1.858-0.249,3.697-0.656,5.632-1.144c1.255-0.316,2.459-0.569,3.707-0.967c1.879-0.599,3.574,0.846,5.376,1.715    c1.914,0.925,3.855,1.802,5.852,2.535c3.942,1.448,8.091,2.291,12.304,2.059c3.657-0.202,6.633-0.812,10.112-1.962    c2.2-0.728,4.372-2.273,6.761-2.61c1.388-0.196,2.704,0.253,3.987,0.726c0.799,0.293,3.423,0.433,3.019,1.436    c-0.425,1.058-4.702,1.987-5.697,2.241c-5.509,1.403-12.02,1.316-17.723,1.719c-5.864,0.414-11.258,0.236-17.132-0.087    c-4.636-0.255-9.837-0.618-14.54-0.017c-0.934,0.118-1.88,0.211-2.832,0.301c-5.34-0.889-12.072,0.414-16.772,0.269    c-3.837-0.118-8.268-0.615-12.555-0.513c-0.168-0.02-0.338-0.036-0.508-0.057c-4.703-0.6-9.904-0.237-14.54,0.017    C224.153,199.151,218.759,199.329,212.895,198.915z M241.489,204.51c-0.059,0.645-0.068,1.284-0.124,1.713    c-0.122,0.917-0.242,1.993-0.214,3.033c-0.326,0.014-0.654,0.015-0.979,0.037c-0.914,0.063-1.819,0.089-2.726,0.12    c-0.148-1.159-0.352-2.314-0.459-3.477c-0.054-0.589-0.121-1.153-0.199-1.71C238.294,204.286,239.872,204.398,241.489,204.51z     M234.482,209.477c-3.282,0.024-6.546-0.056-9.86-0.057c0.337-1.55,0.13-3.943,0.911-5.192c0.854-0.112,1.717-0.214,2.593-0.306    c2.159,0.09,4.318,0.195,6.476,0.237C234.475,205.954,234.336,207.682,234.482,209.477z M229.465,212.907    c6.346,0.619,12.665-0.045,18.997-0.441c-0.406,1.832-0.487,3.761-0.751,5.596c-0.372,2.579-0.412,4.535-0.124,6.838    c-0.543,0.065-1.081,0.144-1.607,0.247c-5.097-0.367-10.369-0.213-15.175-0.166c-3.07,0.03-6.309-0.196-9.43,0.112    c-0.031-0.743,0.18-1.564,0.26-2.205c0.166-1.32,0.096-2.405-0.177-3.696c-0.458-2.166-0.717-4.155-1.365-6.174    C222.915,212.383,226.281,212.595,229.465,212.907z M213.434,221.328c0.233-4.453,2.243-6.722,5.063-7.815    c-0.295,2.186,0.209,4.494,0.375,6.687c0.122,1.614-0.543,3.617-0.428,5.398c-0.906,0.22-1.801,0.488-2.66,0.872    c-0.853,0.188-1.693,0.385-2.535,0.578C213.708,225.332,213.331,223.3,213.434,221.328z M221.313,229.803    c2.771,0.046,5.593-0.05,8.342-0.023c2.901,0.028,5.96,0.11,9.049,0.108c-0.658,0.462-1.317,0.923-1.988,1.371    c-0.466,0.309-0.901,0.663-1.332,1.021c-1.994,0.307-3.822,1.779-5.482,2.798c-3.318,2.04-6.142,3.357-9.981,4.055    c-4.102,0.748-8.151,0.809-12.231-0.167c-2.527-0.604-4.914-1.93-7.337-2.901C207.551,234.72,214.597,232.964,221.313,229.803z     M183.758,238.225c3.881-0.342,7.418-3.401,8.898-7.006c1.509,0.472,2.992,1.043,4.592,1.299c2.113,0.337,4.275,0.458,6.433,0.465    c-2.099,0.614-4.185,1.269-6.155,2.181c-0.019-0.003-0.037-0.01-0.056-0.014c-1.901-0.399-2.016,0.26-3.559,0.819    C190.759,237.109,187.188,238.802,183.758,238.225z M212.895,245.895c-5.703-0.403-12.213-0.316-17.723-1.719    c-0.995-0.254-5.272-1.183-5.697-2.241c-0.403-1.001,2.219-1.141,3.019-1.436c1.283-0.473,2.599-0.922,3.987-0.725    c2.389,0.337,4.56,1.883,6.761,2.61c3.478,1.149,6.455,1.76,10.112,1.962c4.213,0.232,8.362-0.611,12.304-2.059    c1.997-0.733,3.937-1.611,5.852-2.535c1.802-0.87,3.498-2.314,5.376-1.715c1.248,0.397,2.451,0.651,3.707,0.966    c1.093,0.275,2.154,0.52,3.207,0.73c4.058,1.21,9.195,1.398,11.899,1.556c4.134,0.241,14.447,1.478,19.877-1.142    c1.858-0.249,3.697-0.656,5.632-1.144c1.255-0.315,2.459-0.569,3.707-0.966c1.879-0.599,3.574,0.845,5.376,1.715    c1.914,0.925,3.855,1.802,5.852,2.535c3.942,1.448,8.091,2.291,12.304,2.059c3.657-0.202,6.633-0.812,10.112-1.962    c2.2-0.728,4.372-2.273,6.761-2.61c1.388-0.196,2.704,0.253,3.987,0.725c0.799,0.293,3.423,0.435,3.019,1.436    c-0.425,1.058-4.702,1.987-5.697,2.241c-5.509,1.403-12.02,1.316-17.723,1.719c-5.864,0.414-11.258,0.236-17.132-0.087    c-4.636-0.255-9.837-0.618-14.54-0.017c-0.934,0.119-1.88,0.211-2.832,0.301c-5.34-0.889-12.072,0.414-16.772,0.269    c-3.837-0.118-8.268-0.615-12.555-0.513c-0.168-0.02-0.338-0.036-0.508-0.057c-4.703-0.6-9.904-0.238-14.54,0.017    C224.153,246.131,218.759,246.308,212.895,245.895z M241.489,251.49c-0.059,0.645-0.068,1.284-0.124,1.711    c-0.122,0.916-0.242,1.993-0.214,3.033c-0.326,0.014-0.654,0.015-0.979,0.037c-0.914,0.063-1.819,0.089-2.726,0.121    c-0.148-1.159-0.352-2.314-0.459-3.477c-0.054-0.589-0.121-1.153-0.199-1.71C238.294,251.266,239.872,251.376,241.489,251.49z     M234.482,256.457c-3.282,0.024-6.546-0.056-9.86-0.057c0.337-1.55,0.13-3.944,0.911-5.192c0.854-0.111,1.717-0.214,2.593-0.306    c2.159,0.092,4.318,0.195,6.476,0.238C234.475,252.935,234.336,254.662,234.482,256.457z M229.465,259.887    c6.346,0.619,12.665-0.045,18.997-0.441c-0.406,1.832-0.487,3.761-0.751,5.596c-0.372,2.579-0.412,4.535-0.124,6.838    c-0.543,0.065-1.081,0.144-1.607,0.247c-5.097-0.367-10.369-0.213-15.175-0.166c-3.07,0.03-6.309-0.197-9.43,0.112    c-0.031-0.743,0.18-1.564,0.26-2.205c0.166-1.32,0.096-2.405-0.177-3.696c-0.458-2.166-0.717-4.155-1.365-6.174    C222.915,259.363,226.281,259.575,229.465,259.887z M213.434,268.308c0.233-4.453,2.243-6.723,5.063-7.815    c-0.295,2.186,0.209,4.494,0.375,6.687c0.122,1.614-0.543,3.617-0.428,5.398c-0.906,0.22-1.801,0.488-2.66,0.871    c-0.853,0.188-1.693,0.385-2.535,0.578C213.708,272.312,213.331,270.279,213.434,268.308z M221.313,276.783    c2.771,0.046,5.593-0.05,8.342-0.023c2.901,0.028,5.96,0.11,9.049,0.108c-0.658,0.462-1.317,0.923-1.988,1.371    c-0.466,0.309-0.901,0.663-1.332,1.021c-1.994,0.307-3.822,1.779-5.482,2.798c-3.318,2.04-6.142,3.358-9.981,4.056    c-4.102,0.748-8.151,0.809-12.231-0.168c-2.527-0.604-4.914-1.93-7.337-2.901C207.551,281.698,214.597,279.944,221.313,276.783z     M183.758,285.204c3.881-0.342,7.418-3.399,8.898-7.006c1.509,0.472,2.992,1.043,4.592,1.299c2.113,0.337,4.275,0.458,6.433,0.465    c-2.099,0.614-4.185,1.269-6.155,2.181c-0.019-0.003-0.037-0.01-0.056-0.014c-1.901-0.399-2.016,0.26-3.559,0.819    C190.759,284.088,187.188,285.781,183.758,285.204z M212.895,292.874c-5.703-0.403-12.213-0.316-17.723-1.719    c-0.995-0.254-5.272-1.183-5.697-2.241c-0.403-1.001,2.219-1.141,3.019-1.436c1.283-0.473,2.599-0.921,3.987-0.725    c2.389,0.337,4.56,1.883,6.761,2.61c3.478,1.149,6.455,1.76,10.112,1.962c4.213,0.232,8.362-0.611,12.304-2.059    c1.997-0.733,3.937-1.611,5.852-2.535c1.802-0.87,3.498-2.314,5.376-1.715c1.248,0.397,2.451,0.651,3.707,0.966    c1.093,0.275,2.154,0.52,3.207,0.73c4.058,1.21,9.195,1.397,11.899,1.556c4.134,0.242,14.447,1.478,19.877-1.142    c1.858-0.249,3.697-0.656,5.632-1.144c1.255-0.315,2.459-0.569,3.707-0.966c1.879-0.599,3.574,0.845,5.376,1.715    c1.914,0.925,3.855,1.802,5.852,2.535c3.942,1.448,8.091,2.291,12.304,2.059c3.657-0.202,6.633-0.812,10.112-1.962    c2.2-0.728,4.372-2.273,6.761-2.61c1.388-0.196,2.704,0.253,3.987,0.725c0.799,0.293,3.423,0.435,3.019,1.436    c-0.425,1.058-4.702,1.987-5.697,2.241c-5.509,1.403-12.02,1.316-17.723,1.719c-5.864,0.414-11.258,0.236-17.132-0.087    c-4.636-0.255-9.837-0.618-14.54-0.017c-0.934,0.119-1.88,0.211-2.832,0.301c-5.34-0.889-12.072,0.414-16.772,0.269    c-3.837-0.118-8.268-0.615-12.555-0.513c-0.168-0.02-0.338-0.036-0.508-0.057c-4.703-0.6-9.904-0.237-14.54,0.017    C224.153,293.111,218.759,293.288,212.895,292.874z M241.489,298.47c-0.059,0.645-0.068,1.284-0.124,1.713    c-0.122,0.916-0.242,1.993-0.214,3.033c-0.326,0.014-0.654,0.015-0.979,0.037c-0.914,0.063-1.819,0.089-2.726,0.121    c-0.148-1.159-0.352-2.314-0.459-3.477c-0.054-0.589-0.121-1.153-0.199-1.71C238.294,298.246,239.872,298.356,241.489,298.47z     M234.482,303.437c-3.282,0.024-6.546-0.056-9.86-0.057c0.337-1.55,0.13-3.944,0.911-5.193c0.854-0.111,1.717-0.213,2.593-0.306    c2.159,0.092,4.318,0.195,6.476,0.238C234.475,299.915,234.336,301.642,234.482,303.437z M229.465,306.867    c6.346,0.619,12.665-0.045,18.997-0.441c-0.406,1.832-0.487,3.761-0.751,5.596c-0.372,2.579-0.412,4.535-0.124,6.838    c-0.543,0.065-1.081,0.144-1.607,0.247c-5.097-0.367-10.369-0.213-15.175-0.166c-3.07,0.03-6.309-0.196-9.43,0.112    c-0.031-0.743,0.18-1.564,0.26-2.205c0.166-1.32,0.096-2.405-0.177-3.696c-0.458-2.165-0.717-4.155-1.365-6.174    C222.915,306.342,226.281,306.555,229.465,306.867z M213.434,315.288c0.233-4.453,2.243-6.723,5.063-7.815    c-0.295,2.186,0.209,4.494,0.375,6.687c0.122,1.614-0.543,3.617-0.428,5.398c-0.906,0.22-1.801,0.488-2.66,0.871    c-0.853,0.188-1.693,0.385-2.535,0.578C213.708,319.292,213.331,317.259,213.434,315.288z M221.313,323.763    c2.771,0.045,5.593-0.05,8.342-0.023c2.901,0.028,5.96,0.11,9.049,0.108c-0.658,0.462-1.317,0.923-1.988,1.371    c-0.466,0.309-0.901,0.663-1.332,1.021c-1.994,0.307-3.822,1.779-5.482,2.798c-3.318,2.04-6.142,3.357-9.981,4.055    c-4.102,0.749-8.151,0.809-12.231-0.168c-2.527-0.604-4.914-1.93-7.337-2.901C207.551,328.678,214.597,326.924,221.313,323.763z     M183.758,332.184c3.881-0.342,7.418-3.399,8.898-7.006c1.509,0.472,2.992,1.043,4.592,1.299c2.113,0.337,4.275,0.458,6.433,0.465    c-2.099,0.614-4.185,1.269-6.155,2.181c-0.019-0.003-0.037-0.01-0.056-0.014c-1.901-0.399-2.016,0.26-3.559,0.819    C190.759,331.068,187.188,332.761,183.758,332.184z M212.895,339.854c-5.703-0.403-12.213-0.316-17.723-1.719    c-0.995-0.254-5.272-1.183-5.697-2.241c-0.403-1.001,2.219-1.141,3.019-1.436c1.283-0.473,2.599-0.921,3.987-0.725    c2.389,0.337,4.56,1.883,6.761,2.61c3.478,1.149,6.455,1.76,10.112,1.962c4.213,0.232,8.362-0.611,12.304-2.059    c1.997-0.733,3.937-1.611,5.852-2.535c1.802-0.87,3.498-2.315,5.376-1.715c1.248,0.397,2.451,0.651,3.707,0.967    c1.093,0.275,2.154,0.52,3.207,0.73c4.058,1.21,9.195,1.398,11.899,1.556c4.134,0.241,14.447,1.478,19.877-1.142    c1.858-0.249,3.697-0.656,5.632-1.144c1.255-0.315,2.459-0.569,3.707-0.967c1.879-0.599,3.574,0.846,5.376,1.715    c1.914,0.925,3.855,1.802,5.852,2.535c3.942,1.448,8.091,2.291,12.304,2.059c3.657-0.202,6.633-0.812,10.112-1.962    c2.2-0.728,4.372-2.273,6.761-2.61c1.388-0.196,2.704,0.253,3.987,0.725c0.799,0.293,3.423,0.435,3.019,1.436    c-0.425,1.058-4.702,1.987-5.697,2.241c-5.509,1.403-12.02,1.316-17.723,1.719c-5.864,0.414-11.258,0.236-17.132-0.087    c-4.636-0.255-9.837-0.618-14.54-0.017c-0.934,0.119-1.88,0.211-2.832,0.301c-5.34-0.889-12.072,0.414-16.772,0.269    c-3.837-0.118-8.268-0.615-12.555-0.513c-0.168-0.02-0.338-0.036-0.508-0.057c-4.703-0.6-9.904-0.237-14.54,0.017    C224.153,340.09,218.759,340.268,212.895,339.854z M241.489,345.449c-0.059,0.645-0.068,1.284-0.124,1.711    c-0.122,0.917-0.242,1.993-0.214,3.033c-0.326,0.014-0.654,0.015-0.979,0.037c-0.914,0.063-1.819,0.089-2.726,0.12    c-0.148-1.159-0.352-2.314-0.459-3.477c-0.054-0.589-0.121-1.152-0.199-1.71C238.294,345.226,239.872,345.336,241.489,345.449z     M234.482,350.417c-3.282,0.024-6.546-0.056-9.86-0.057c0.337-1.55,0.13-3.943,0.912-5.192c0.854-0.111,1.717-0.214,2.593-0.306    c2.159,0.091,4.319,0.195,6.476,0.239C234.475,346.894,234.336,348.622,234.482,350.417z M229.465,353.846    c6.346,0.619,12.665-0.045,18.997-0.441c-0.406,1.832-0.487,3.761-0.751,5.596c-0.372,2.578-0.412,4.534-0.124,6.838    c-0.543,0.065-1.081,0.144-1.607,0.247c-5.097-0.367-10.369-0.213-15.175-0.166c-3.07,0.03-6.309-0.196-9.43,0.112    c-0.031-0.743,0.18-1.564,0.26-2.205c0.166-1.32,0.096-2.405-0.177-3.696c-0.458-2.166-0.717-4.155-1.365-6.174    C222.915,353.322,226.281,353.535,229.465,353.846z M213.434,362.268c0.233-4.453,2.243-6.723,5.063-7.815    c-0.295,2.186,0.209,4.494,0.375,6.687c0.122,1.614-0.543,3.617-0.428,5.398c-0.906,0.22-1.801,0.488-2.66,0.872    c-0.853,0.188-1.693,0.385-2.535,0.578C213.708,366.272,213.331,364.239,213.434,362.268z M221.313,370.742    c2.771,0.046,5.593-0.05,8.342-0.023c2.901,0.028,5.96,0.11,9.049,0.108c-0.658,0.462-1.317,0.923-1.988,1.371    c-0.466,0.309-0.901,0.663-1.332,1.021c-1.994,0.307-3.822,1.779-5.482,2.798c-3.318,2.04-6.142,3.357-9.981,4.055    c-4.102,0.749-8.151,0.809-12.231-0.168c-2.527-0.604-4.914-1.93-7.337-2.901C207.551,375.658,214.597,373.904,221.313,370.742z     M183.758,379.164c3.881-0.342,7.418-3.401,8.898-7.006c1.509,0.472,2.992,1.043,4.592,1.299c2.113,0.337,4.275,0.458,6.433,0.465    c-2.099,0.614-4.185,1.269-6.155,2.181c-0.019-0.003-0.037-0.01-0.056-0.014c-1.901-0.399-2.016,0.26-3.559,0.819    C190.759,378.047,187.188,379.741,183.758,379.164z M195.172,385.114c-0.995-0.254-5.272-1.183-5.697-2.241    c-0.403-1.001,2.219-1.141,3.019-1.436c1.283-0.473,2.599-0.921,3.987-0.725c2.389,0.337,4.56,1.883,6.761,2.61    c3.478,1.149,6.455,1.76,10.112,1.962c4.213,0.232,8.362-0.611,12.304-2.059c1.997-0.733,3.937-1.611,5.852-2.535    c1.802-0.87,3.498-2.315,5.376-1.715c1.248,0.397,2.451,0.651,3.707,0.967c1.093,0.275,2.154,0.52,3.207,0.73    c4.058,1.21,9.195,1.398,11.899,1.556c4.134,0.241,14.447,1.478,19.877-1.142c1.858-0.249,3.697-0.656,5.632-1.144    c1.255-0.315,2.459-0.569,3.707-0.967c1.879-0.599,3.574,0.845,5.376,1.715c1.914,0.925,3.855,1.802,5.852,2.535    c3.942,1.448,8.091,2.291,12.304,2.059c3.657-0.202,6.633-0.812,10.112-1.962c2.2-0.728,4.372-2.273,6.761-2.61    c1.388-0.196,2.704,0.253,3.987,0.725c0.799,0.293,3.423,0.433,3.019,1.436c-0.425,1.058-4.702,1.987-5.697,2.241    c-5.509,1.403-12.02,1.316-17.723,1.719c-5.864,0.414-11.258,0.236-17.132-0.087c-4.636-0.255-9.837-0.618-14.54-0.017    c-0.934,0.119-1.88,0.211-2.832,0.301c-5.34-0.889-12.072,0.414-16.772,0.269c-3.837-0.118-8.268-0.615-12.555-0.513    c-0.168-0.02-0.338-0.036-0.508-0.057c-4.703-0.6-9.904-0.237-14.54,0.017c-5.873,0.323-11.267,0.502-17.132,0.087    C207.191,386.431,200.682,386.518,195.172,385.114z M299.508,408.3c5.037,3.555,10.647,6.456,16.042,9.413    c3,1.644,5.892,3.635,8.92,5.311c-0.228,0.099-0.456,0.197-0.715,0.311c-4.481,1.958-9.024,3.814-13.71,5.221    c-9.339,2.803-18.585,5.04-28.401,5.288c-19.892,0.502-39.379-2.572-58.94-5.599c-7.642-1.183-14.996-3.111-22.326-5.329    c6.362-2.723,12.408-6.953,17.869-10.536c5.114-3.355,9.573-7.604,14.088-11.699c2.651-2.405,6.338-4.884,7.662-8.353    c3.847,0.264,7.962,0.611,11.74,0.176c1.675,0.086,3.352,0.171,5.025,0.261c3.935,0.21,7.954,0.271,11.896,0.075    c1.492-0.074,3.058-0.054,4.607-0.137c2.498,0.042,5.062-0.134,7.538-0.308C285.605,398.777,293.208,403.853,299.508,408.3z     M144.867,432.26c-6.47-0.453-14.264-1.589-20.632-4.528c15.507-1.747,29.516-7.812,43.942-14.101    c7.934-3.46,15.699-7.121,23.124-11.558c4.191-2.503,11.168-5.323,13.856-9.915c0.401,0.037,0.797,0.073,1.171,0.108    c5.904,0.539,12.143,0.943,18.015,0.043c1.229-0.189,2.498-0.333,3.782-0.467c2.408,0.101,4.817,0.229,7.221,0.26    c0.118,0.001,0.243,0.009,0.363,0.012c-7.455,5.185-13.431,12.723-21.171,17.519c-3.649,2.262-6.87,5.047-10.423,7.466    c-2.02,1.374-4.709,3.413-7.386,5.053c-6.713-0.434-12.392,4.826-18.828,6.612C166.89,431.817,156.216,433.055,144.867,432.26z     M370.006,489.117c3.552-0.108,7.413-0.063,10.942-0.412c3.924-0.389,2.544-0.9,2.843,2.94c0.339,4.375,3.608,12.284-2.518,13.157    c-4.474,0.637-9.136,0.221-13.655,0.352c-23.006,0.663-45.967-0.451-69.026-0.799c-13.102-0.198-26.233-0.538-39.333-0.46    c-5.543,0.032-11.066-0.45-16.595-0.743c-6.979-0.368-13.998,0.283-20.973-0.17c-22.991-1.491-45.882-0.753-68.857-0.65    c-6.929,0.031-13.819-0.437-20.726-0.596c0.099,0.002-1.984-0.152-3.238-0.216l-0.002-0.032c0.708-3.196-1.057-7.992,1.228-10.961    c0.872-1.134,7.346-1.619,9.105-1.755c2.146-0.166,4.321-0.02,6.483-0.224c2.595-0.245,5.103-0.283,7.529-0.615    c0.383,0.007,0.768,0.009,1.152,0.012c21.931,0.093,43.557,4.576,65.553,4.591c44.547,0.029,89.021-1.419,133.475-3.569    C358.838,489.431,364.551,489.283,370.006,489.117z M157.998,463.458c-0.052,3.176-0.029,6.351,0.002,9.525    c-0.654-0.057-1.3,0.013-2.025-0.003c-0.824-0.02-1.553-0.295-2.362-0.353c-0.875-0.063-1.746,0.08-2.627,0.034    c-0.351-0.019-0.71,0.061-1.066,0.148c0.068-0.965,0.133-1.897,0.132-2.715c-0.009-6.952,0.241-13.962,0.175-20.938    c1.469,0.198,3.162,0.59,4.077,0.609c1.503,0.032,3.013,0.071,4.522,0.103C157.174,453.821,158.063,459.51,157.998,463.458z     M152.73,475.795c1.84,0.181,3.54,0.85,5.301,0.517c0.02,2.179,0.034,4.359,0.016,6.539c-1.176,0.017-2.573,0.166-3.683,0.002    c-2.644-0.39-3.632-1.35-4.3-3.841c-0.29-1.079-0.328-2.383-0.284-3.726C150.752,475.624,151.893,475.713,152.73,475.795z     M165.329,467.857c-0.034,5.063,0.059,10.196,0.314,15.278c-1.221-0.092-2.445-0.169-3.669-0.218    c-0.19-11.032-0.795-22.025-1.417-33.016c1.941,0.029,3.879,0.009,5.813-0.061C165.017,455.688,165.368,461.911,165.329,467.857z     M193.957,485.925c-6.728-0.45-13.452-1.063-20.177-1.942c-1.346-0.176-2.694-0.331-4.041-0.475    c-0.193-2.367-0.345-4.741-0.479-7.115c7.984,1.673,16.449,1.283,24.501,2.271c0.138,0.017,0.265,0.015,0.388,0.008    C193.913,481.129,193.781,483.592,193.957,485.925z M193.761,474.59c-4.223-0.482-8.409-0.548-12.648-0.908    c-3.836-0.327-8.1-0.775-11.99-0.151c-0.088-1.892-0.178-3.785-0.235-5.673c-0.174-5.8,0.87-12.384-0.395-18.096    c6.973-0.418,14.18-0.4,21.155-0.381c2.284,0.006,4.585,0.01,6.892,0.007c-1.043,6.553-0.772,13.184-1.324,19.789    c-0.149,1.792-0.397,3.709-0.64,5.67C194.34,474.717,194.07,474.625,193.761,474.59z M199.055,449.375    c1.78-0.009,3.561-0.03,5.34-0.061c-1.074,5.552-0.637,11.453-0.704,17.052c-0.081,6.69-0.503,13.362-0.543,20.053    c-1.52-0.068-3.042-0.12-4.56-0.204c0.006-5.935,0.346-11.869,0.518-17.78C199.283,462.27,199.929,455.573,199.055,449.375z     M222.854,486.958c-5.177-0.06-10.346-0.165-15.507-0.351c0.017-2.731,0.042-5.463,0.064-8.195    c4.971,1.51,10.551,1.871,15.702,1.642c0.024-0.001,0.044-0.008,0.068-0.009c-0.032,0.656-0.061,1.312-0.107,1.969    C222.966,483.603,222.675,485.34,222.854,486.958z M223.113,475.898c-3.632-0.126-7.254-0.059-10.886-0.203    c-1.473-0.058-3.228-0.429-4.792-0.261c0.024-3.788,0.031-7.575-0.014-11.361c-0.049-4.081,1.038-10.61-0.782-14.801    c2.523-0.06,5.04-0.152,7.539-0.293c3.638-0.205,7.255-0.117,10.87,0.019c-1.516,6.662-1.324,13.851-1.542,20.618    c-0.068,2.106-0.105,4.208-0.163,6.309C223.265,475.918,223.194,475.902,223.113,475.898z M232.393,475.365    c0.051,3.898-0.458,7.75-0.468,11.647c-1.542-0.005-3.087-0.005-4.627-0.015c-0.458-2.909,0.221-6.155,0.275-9.037    c0.07-3.729-0.3-7.486-0.09-11.207c0.333-5.877,0.409-11.921-0.884-17.691c2.268,0.09,4.536,0.166,6.808,0.206    c-1.334,5.952-1.03,12.776-1.352,18.789C231.922,470.51,232.36,472.915,232.393,475.365z M286.985,485.757    c-4.461,0.052-8.926,0.071-13.385,0.199c0.003-0.074,0.016-0.143,0.012-0.221c-0.458-9.466,1.334-19.104-0.133-28.564    c-0.465-3.001-2.19-5.516-4.533-7.056c2.962,0.059,5.921,0.095,8.878,0.071c3.734-0.03,7.479-0.059,11.229-0.075    c-0.001,0.209-0.006,0.431-0.026,0.688c-0.27,3.572-0.572,7.031-0.736,10.609C287.921,469.494,286.451,477.645,286.985,485.757z     M269.998,463.773c0.202,7.36-1.016,14.65-0.893,21.963c0.002,0.143,0.024,0.272,0.046,0.401c-0.824,0.042-1.648,0.079-2.47,0.133    c-4.748,0.313-9.522,0.488-14.299,0.594c0.747-4.154,0.301-8.883,0.526-13.042c0.287-5.317-0.569-15.706,4.19-19.179    c2.285-1.668,5.699-2.863,8.438-1.999C270.905,454.34,269.876,459.348,269.998,463.773z M250.026,464.634    c-0.824,7.531-0.487,14.832-0.314,22.284c-4.38,0.074-8.758,0.099-13.126,0.103c0.107-6.347-0.202-12.655-0.147-18.966    c0.052-6.081,0.638-12.731-0.676-18.753c0.074,0,0.147,0.003,0.221,0.003c7.498-0.032,15.01,0.256,22.52,0.513    C252.044,452.835,250.82,457.389,250.026,464.634z M292.162,455.32c0.057-1.746-0.363-3.517-0.598-5.217    c1.978-0.005,3.957-0.001,5.936,0.006c0.02,3.423-0.745,7.24-0.813,10.547c-0.174,8.291-0.411,16.588-0.424,24.883    c-1.58,0.064-3.162,0.114-4.744,0.147c0.561-7.1,0.382-14.359,0.647-21.471C292.274,461.242,292.066,458.285,292.162,455.32z     M318.108,484.648c-5.668,0.227-11.336,0.455-17.003,0.696c-0.006-2.714-0.043-5.427-0.089-8.141    c5.449,0.66,10.813,0.388,16.306,0.448c0.205,0.002,0.402-0.039,0.592-0.1C317.723,480.037,317.695,482.508,318.108,484.648z     M317.321,473.577c-3.323,0.037-6.663,0.41-9.995,0.578c-1.965,0.098-4.274-0.054-6.366,0.285    c-0.116-5.813-0.27-11.626-0.345-17.439c-0.017-1.348,0.326-4.521-0.151-6.875c6.601,0.046,13.204,0.174,19.782,0.469    c0.28,0.013,0.56,0.02,0.84,0.031c-0.257,2.489-1.036,5.148-1.284,7.549c-0.364,3.528-0.482,7.071-0.87,10.591    c-0.169,1.524-0.418,3.271-0.644,5.092C317.993,473.692,317.669,473.574,317.321,473.577z M323.724,450.726    c1.868,0.068,3.736,0.123,5.602,0.17c-1.506,11.09-2.777,22.18-2.664,33.403c-1.246,0.05-2.49,0.104-3.737,0.154    c-0.174-6.329,0.174-12.635,0.379-18.951c0.126-3.886,0.298-7.772,0.357-11.654C323.679,452.719,323.836,451.683,323.724,450.726z     M331.677,450.944c7.208,0.148,14.414,0.166,21.622,0.176c-0.981,6.274-1.307,12.748-1.788,19.048    c-0.047,0.623-0.11,1.253-0.177,1.886c-0.007,0-0.012-0.001-0.012-0.001c-5.254,0.25-10.536,0.109-15.783,0.424    c-1.131,0.068-2.744,0.131-4.088,0.553c0.05-2.818,0.146-5.63,0.375-8.419C332.16,460.559,332.448,455.312,331.677,450.944z     M350.883,475.86c-0.304,2.466-0.582,4.957-0.568,7.403c-6.294,0.304-12.59,0.579-18.887,0.84    c-0.01-2.767-0.028-5.547-0.012-8.325C337.602,476.765,344.737,476.728,350.883,475.86z M356.082,451.125    c2.018,0.003,4.038,0.019,6.056,0.026c-1.82,6.568-2.652,25.632-2.732,31.362c-1.349,0.286-2.828,0.426-4.417,0.521    C355.451,472.539,357.539,461.461,356.082,451.125z M365.054,451.162c1.387,0.007,2.771,0.005,4.158,0.017    c-0.108,3.081-0.204,6.164-0.491,9.23c-0.289,3.086-0.608,6.398-1.104,9.618c-0.367,0.022-0.735,0.065-1.101,0.17    c-0.209,0.06-0.395,0.152-0.578,0.248c-0.556,0.096-1.134,0.199-1.675,0.38c0.065-2.007,0.146-4.012,0.258-6.006    C364.769,460.424,365.839,455.594,365.054,451.162z M364.683,473.559c0.738,0.227,1.363,0.234,2.213,0.079    c0.023-0.003,0.049-0.002,0.072-0.006c-0.143,0.679-0.293,1.351-0.46,2.007c-0.513,2.026-1.323,3.475-2.369,4.528    c-0.019-2.222,0.005-4.449,0.052-6.675C364.351,473.522,364.515,473.545,364.683,473.559z M369.51,444.979    c-0.043,0.587-0.065,1.177-0.096,1.765c-29.592,0.304-59.328,0.286-88.877-0.613c-6.611-0.202-13.298,0.073-19.924-0.37    c-7.294-0.488-15.196-0.671-22.494-0.382c-14.691,0.579-29.468-0.694-44.192,0.269c-9.148,0.598-18.345,0.498-27.5,1.018    c-4.529,0.257-9.151,0.14-13.691,0.167c-0.87,0.005-1.726-0.088-2.547-0.086c-0.064-2.978-0.191-5.947-0.441-8.902    c4.223,0.265,8.464,0.268,12.653,0.123c10.054-0.348,20.188-2.762,28.87-7.804c4.095-2.378,6.385-2.39,10.911-1.199    c4.267,1.124,8.597,1.779,12.894,2.79c19.105,4.493,38.628,6.637,58.193,7.784c9.946,0.583,20.533,0.139,30.214-2.418    c4.635-1.224,9.312-2.575,13.83-4.17c2.108-0.745,4.187-1.54,6.25-2.398c0.243-0.101,4.338-2.154,3.658-2.338    c1.819,0.002,5.04,1.741,6.853,2.169c2.753,0.648,5.485,1.386,8.257,1.955c4.786,0.981,9.647,1.62,14.451,2.469    c4.044,0.715,8.578,1.661,13.17,2.249C369.6,439.63,369.707,442.24,369.51,444.979z M384.223,431.258    c-8.569,1.184-18.373-1.054-26.632-2.427c-8.455-1.407-17.177-2.631-25.339-5.362c-0.067-0.233-0.165-0.459-0.333-0.656    c-3.067-3.58-9.479-6.173-13.62-8.397c-5.626-3.019-11.473-6.009-16.719-9.662c-4.967-3.459-9.408-7.345-14.134-11.091    c-0.567-0.448-1.157-0.981-1.769-1.541c0.258-0.007,0.521-0.019,0.773-0.022c2.405-0.029,4.813-0.158,7.221-0.26    c1.284,0.134,2.554,0.278,3.782,0.467c5.872,0.9,12.111,0.496,18.015-0.043c1.045-0.095,2.207-0.202,3.431-0.33    c0.313,4.368,8.195,8.106,10.85,9.755c7.45,4.631,15.116,9.017,23.138,12.642c7.237,3.271,14.415,6.213,22.104,8.356    c3.513,0.979,6.94,1.86,10.501,2.641c1.575,0.344,3.094,0.677,4.688,0.91c0.424,0.042,0.845,0.102,1.269,0.152    C389.421,428.386,386.65,429.716,384.223,431.258z"/>
	</g>
</g>
<g>
</g>
<g>
</g>
<g>
</g>
<g>
</g>
<g>
</g>
<g>
</g>
<g>
</g>
<g>
</g>
<g>
</g>
<g>
</g>
<g>
</g>
<g>
</g>
<g>
</g>
<g>
</g>
<g>
</g>
</svg>
