<?xml version="1.0" encoding="iso-8859-1"?>
<!-- Generator: Adobe Illustrator 19.0.0, SVG Export Plug-In . SVG Version: 6.00 Build 0)  -->
<svg xmlns="http://www.w3.org/2000/svg" xmlns:xlink="http://www.w3.org/1999/xlink" version="1.1" id="Layer_1" x="0px" y="0px" viewBox="0 0 512.004 512.004" style="enable-background:new 0 0 512.004 512.004;" xml:space="preserve">
<g>
	<g>
		<path d="M67.149,216.822c-0.306-4.5,0.573-9.508-1.518-13.708c-1.958-3.932-6.693-5.131-10.74-4.13    c-4.915,1.217-8.05,4.508-9.714,8.593c-0.907,1.38-0.952,2.836-1.262,4.756c-0.421,2.612-0.993,5.032-1.069,7.693    c-0.152,5.313,2.592,7.08,7.674,7.089c3.444,0.006,6.811-0.166,10.206,0.336c1.563,0.232,2.873,0.414,4.255-0.565    C68.009,224.738,67.365,219.999,67.149,216.822z M62.969,221.396c-0.69,2.257-1.469,1.179-3.311,1.195    c-1.536,0.014-3.075-0.015-4.613-0.011c-1.58,0.005-4.2,0.481-5.687-0.011c-2.525-0.837-1.996-1.794-1.887-3.61    c0.184-3.033,0.235-7.899,1.464-10.696c0.127-0.289,0.174-0.574,0.163-0.845c0.619-1.11,1.461-2.108,2.612-2.945    c3.533-2.57,9.13-3.492,10.852,1.713c0.943,2.85,0.217,6.253,0.275,9.17C62.87,217.166,63.503,219.649,62.969,221.396z"/>
	</g>
</g>
<g>
	<g>
		<path d="M249.497,195.846c-0.352-1.525-0.216-3.49-1.446-4.643c-1.618-1.516-4.806-1.052-6.755-1.327    c-3.133-0.442-8.131,0.047-9.212,3.738c-1.27,4.339-0.471,9.856-0.749,14.382c-0.083,1.355-0.153,2.78,0.437,4.004    c2.191,4.543,10.159,2.1,13.863,2.466c0.663,0.066,1.424-0.422,1.729-0.991C250.246,208.087,250.864,201.761,249.497,195.846z     M244.423,210.352c-1.374-0.112-2.715-0.156-4.114,0.015c-1.416,0.173-2.663,0.052-3.947-0.128    c0.232-1.73,0.195-3.465,0.081-5.259c-0.041-0.631-0.135-1.253-0.255-1.868c-0.04-1.537-0.068-3.07,0.078-4.605    c0.109-1.149,0.188-2.418,0.548-3.521c0.561-1.718-0.447-1.834,2.417-1.599c1.195,0.099,2.353,0.456,3.529,0.658    c2.309,0.396,2.352,0.212,2.765,2.353C246.444,201.156,246.449,205.893,244.423,210.352z"/>
	</g>
</g>
<g>
	<g>
		<path d="M505.72,434.995c-4.31-1.417-9.816,1.543-11.935-3.364c-2.005-4.638-0.977-10.632-1.075-15.536    c-0.034-1.719-0.089-3.441-0.139-5.162c0.187-0.411,0.295-0.891,0.293-1.441c-0.028-11.375-0.057-22.748-0.085-34.122    c-0.014-5.385-0.052-10.769,0.036-16.154c0.085-5.188-0.837-10.093-1.025-15.211c-0.187-5.097,0.356-10.235,0.118-15.34    c-0.261-5.576-0.774-11.027-0.798-16.633c-0.034-8.044-0.116-16.568-1.611-24.599c2.519-0.212,5.034-0.409,7.556-0.362    c4.106,0.076,8.163,0.85,12.236,0.224c1.444-0.222,2.871-2.114,2.698-3.544c-0.796-6.6-7.037-10.71-11.293-15.334    c-3.059-3.325-6.387-6.394-9.667-9.499c-1.555-1.471-3.566-2.814-5.35-4.259c1.755-2.644,1.227-6.469,1.193-9.691    c-0.07-6.815,0.041-13.631-0.055-20.446c-0.16-11.423,2.517-23.519,0.037-34.857c1.41-0.051,2.931-0.079,4.234-0.484    c0.184,0.015,0.35,0.052,0.543,0.058c1.072,0.035,1.918-0.764,2.254-1.716c1.25-3.552,2.648-10.341-1.097-12.951    c-1.69-1.178-3.965-1.101-5.915-1.296c-3.367-0.338-6.695-1.052-10.075-1.292c-4.036-0.286-8.118,0.012-12.161-0.052    c-3.123-0.049-5.934-0.888-8.988-1.042c-6.411-0.323-12.781-0.608-19.213-0.807c-3.2-0.099-6.17-0.096-9.335,0.351    c-1.854,0.262-4.03,0.191-5.665,1.187c-3.391,2.069-3.312,7.515-3.287,11.037c0.03,4.315,2.525,6.064,6.675,6.039    c0.095,0,0.19,0.005,0.285,0.005c-0.184,0.601-0.346,1.241-0.488,1.93c-1.601,7.759-1.082,17.279-0.465,25.133    c0.325,4.14,2.27,9.078-2.778,10.167c-4.099,0.884-7.767,0.12-11.868-0.02c-3.845-0.133-11.569,1.779-12.966-2.512    c-1.401-4.308,0.646-9.278,0.669-13.656c0.027-5.441,0.227-10.689,0.644-16.101c0.831-10.799,0.661-22.133,0.1-32.946    c-0.547-10.552-1.07-20.856-0.999-31.454c0.066-9.687-1.195-19.445-2.116-29.078c-0.922-9.642-3.252-19.563-2.376-29.291    c0.541-6.01,1.31-11.42-6.112-12.663c-3.753-0.629-7.753-1.097-11.565-1.311c-2.959-0.167-5.419-0.036-6.771,2.919    c-0.817,1.786-0.283,3.685-0.456,5.557c-0.276,2.961-2.102,5.869-2.184,8.782c-0.053,0.394-0.106,0.789-0.158,1.184    c-0.279,0.018-0.654,0.07-1.128,0.157c-1.133-0.26-2.39,0.008-3.588,0.092c-0.48-2.486-0.593-5.249-0.989-7.618    c-0.484-2.894,0.026-5.972-1.907-8.424c-2.892-3.669-13.503-4.738-17.935-3.45c-6.082,1.768-3.855,12.471-3.729,17.044    c-0.002-0.058,0.134,1.632,0.385,2.743c-0.991-0.12-1.983-0.111-2.975,0.052c-3.658,0.259-7.347,0.103-11.034-0.261    c-0.216-3.853,0.733-7.313,0.507-11.244c-0.202-3.521-1.371-6.076-5.027-6.962c-5.344-1.295-11.6-0.024-16.979,0.373    c-3.024,0.224-6.5-0.753-8.092,2.51c-1.001,2.054-0.485,5.033-0.519,7.225c-0.015,0.954,0.669,6.819,0.008,7.536    c-0.705,0.766-6.046-0.447-7.611-0.821c0.047-0.083,0.082-0.184,0.092-0.324c0.082-1.108-0.135-2.191-0.025-3.322    c0.166-1.698,0.342-3.395,0.199-5.008c0.04-0.254,0.041-0.521-0.014-0.799c-1.766-9.021-11.934-10.18-19.617-8.537    c-4.089,0.875-5.669,2.558-6.129,6.634c-0.346,3.074,0.25,16.283-5.872,11.745c-2.564-1.9-0.897-9.165-1.975-12.348    c-1.385-4.089-4.226-5.146-8.185-5.423c-3.793-0.266-7.771-0.086-11.101,1.896c-0.805,0.361-1.568,0.822-2.252,1.433    c-3.205,2.857-2.765,6.631-2.399,10.407c0.11,1.131-0.107,2.214-0.025,3.322c0.01,0.14,0.045,0.241,0.092,0.324    c-1.564,0.373-6.906,1.587-7.611,0.821c-0.661-0.717,0.024-6.583,0.008-7.536c-0.034-2.192,0.482-5.172-0.519-7.225    c-1.591-3.264-5.067-2.286-8.092-2.51c-5.378-0.397-11.634-1.669-16.979-0.373c-3.655,0.885-4.823,3.441-5.027,6.962    c-0.226,3.931,0.723,7.391,0.507,11.244c-3.687,0.364-7.376,0.519-11.034,0.261c-0.992-0.163-1.984-0.173-2.975-0.052    c0.251-1.11,0.387-2.801,0.385-2.743c0.126-4.571,2.352-15.276-3.729-17.044c-4.432-1.288-15.042-0.219-17.935,3.45    c-1.933,2.452-1.424,5.531-1.907,8.424c-0.396,2.369-0.509,5.131-0.989,7.618c-1.198-0.084-2.455-0.352-3.588-0.092    c-0.474-0.086-0.849-0.138-1.128-0.157c-0.052-0.394-0.104-0.789-0.158-1.184c-0.082-2.913-1.909-5.82-2.184-8.782    c-0.174-1.871,0.361-3.77-0.456-5.557c-1.351-2.954-3.812-3.084-6.771-2.919c-3.812,0.215-7.811,0.682-11.565,1.311    c-7.422,1.244-6.652,6.653-6.112,12.663c0.875,9.729-1.455,19.649-2.376,29.291c-0.921,9.633-2.181,19.391-2.116,29.078    c0.071,10.598-0.453,20.902-0.999,31.454c-0.561,10.814-0.731,22.147,0.1,32.946c0.417,5.413,0.616,10.659,0.644,16.101    c0.023,4.378,2.069,9.348,0.669,13.656c-1.396,4.291-9.121,2.379-12.966,2.512c-4.1,0.141-7.769,0.905-11.868,0.02    c-5.048-1.089-3.102-6.027-2.778-10.167c0.616-7.854,1.134-17.374-0.465-25.133c-0.142-0.689-0.305-1.329-0.488-1.93    c0.095,0,0.19-0.005,0.285-0.005c4.151,0.025,6.645-1.724,6.675-6.039c0.024-3.522,0.103-8.969-3.287-11.037    c-1.635-0.998-3.811-0.925-5.665-1.187c-3.165-0.447-6.133-0.448-9.335-0.351c-6.432,0.199-12.8,0.482-19.213,0.807    c-3.055,0.154-5.865,0.993-8.988,1.042c-4.044,0.065-8.126-0.234-12.161,0.052c-3.379,0.24-6.708,0.954-10.075,1.292    c-1.95,0.196-4.225,0.118-5.915,1.296c-3.745,2.61-2.346,9.399-1.097,12.951c0.335,0.952,1.182,1.752,2.254,1.716    c0.192-0.006,0.358-0.043,0.543-0.058c1.303,0.403,2.824,0.431,4.234,0.484c-2.48,11.338,0.196,23.434,0.037,34.857    c-0.095,6.814,0.016,13.631-0.055,20.446c-0.033,3.222-0.562,7.048,1.193,9.691c-1.786,1.445-3.796,2.788-5.35,4.259    c-3.281,3.105-6.608,6.174-9.667,9.499c-4.256,4.625-10.498,8.734-11.293,15.334c-0.173,1.432,1.254,3.322,2.698,3.544    c4.072,0.627,8.13-0.148,12.236-0.224c2.521-0.047,5.036,0.15,7.556,0.362c-1.494,8.031-1.576,16.555-1.61,24.599    c-0.024,5.607-0.537,11.058-0.798,16.633c-0.24,5.106,0.304,10.244,0.118,15.34c-0.188,5.119-1.11,10.024-1.025,15.211    c0.089,5.384,0.049,10.768,0.036,16.154c-0.028,11.375-0.057,22.748-0.085,34.122c-0.001,0.549,0.106,1.03,0.293,1.441    c-0.049,1.721-0.103,3.444-0.138,5.162c-0.098,4.904,0.93,10.897-1.075,15.536c-2.119,4.906-7.625,1.947-11.935,3.364    c-5.872,1.931-6.139,8.803-5.366,14.082c1.201,8.21,7.28,7.786,13.907,6.902c10.029-1.338,20.333,0.926,30.385-0.26    c10.309-1.216,20.791,0.044,31.153-0.467c10.41-0.513,20.853-0.126,31.22-1.106c10.099-0.955,20.681-0.009,30.83,0.025    c11.345,0.039,22.689,0.076,34.034,0.115c11.738,0.04,23.497,0.198,35.231-0.053c4.968-0.107,9.98,0.553,14.947,0.838    c2.835,0.162,5.073,0.613,7.224,0.003c0.364,0.022,0.729,0.045,1.092,0.075c8.606,0.696,17.33,0.754,25.965,0.846    c6.542,0.069,13.019-0.359,19.545-0.77c1.77-0.111,3.526-0.195,5.276-0.283c2.284,0.806,4.628,0.301,7.65,0.127    c4.966-0.285,9.978-0.944,14.946-0.838c11.734,0.251,23.494,0.093,35.231,0.053c11.345-0.037,22.689-0.076,34.034-0.115    c10.15-0.034,20.732-0.98,30.83-0.025c10.365,0.981,20.809,0.593,31.219,1.106c10.362,0.511,20.844-0.749,31.153,0.467    c10.051,1.185,20.356-1.078,30.385,0.26c6.627,0.884,12.706,1.308,13.907-6.902C511.86,443.799,511.592,436.926,505.72,434.995z     M424.565,178.294c1.133-2.448,3.946-3.182,6.322-3.366c4.125-0.32,8.784-0.235,12.896,0.005    c8.391,0.489,16.548,1.651,24.973,1.518c5.096-0.079,9.693,0.212,14.741,0.96c2.491,0.369,5.997-0.199,6.73,3.098    c0.497,2.233-0.116,3.134-1.175,3.494c-1.085,0.369-2.64,0.17-3.954,0.255c-0.745,0.048-1.485,0.148-2.225,0.255    c-7.536-0.715-15.19-0.21-22.764-0.53c-8.669-0.367-17.099-1.854-25.802-1.841c-1.288,0.002-2.41,0.137-3.401,0.395    c-1.167-0.074-2.332-0.111-3.49-0.087C424.48,182.508,423.004,181.668,424.565,178.294z M121.457,157.523    c0.78-11.578-0.076-23.067,0.394-34.641c0.413-10.153,1.521-20.389,2.72-30.471c0.548-4.61,0.923-9.55,0.971-14.205    c0.025-2.428-0.061-4.93-0.408-7.334c-0.221-1.537-1.597-4.693-0.85-6.104c0.534-1.007,13.471-2.899,14.36-2.001    c0.148,0.15-0.258,4.558-0.121,5.441c0.432,2.81,1.467,5.534,1.963,8.339c0.394,2.227,0.586,3.814,2.798,4.936    c2.556,1.295,8.153,1.337,10.918,0.628c6.15-1.578,3.164-12.812,4.507-17.356c0.912-3.084,4.709-2.548,7.564-2.789    c0.597-0.05,2.033-0.386,2.69-0.237c2.511,0.569,0.723-0.111,1.285,2.085c0.596,2.329,0.178,6.151,0.051,8.567    c-0.099,1.89-1.024,3.785-0.767,5.668c0.462,3.392,3.15,3.614,5.978,3.77c5.846,0.321,11.328,0.781,17.187,0.249    c1.358-0.124,2.99-0.948,3.244-2.47c0.605-3.619,0.492-7.902-0.54-11.431c-0.515-1.764-2.447-4.372,0.319-5.724    c1.532-0.748,5.428-0.009,7.124-0.005c2.838,0.008,5.533,0.487,8.34,0.747c3.222,0.299,3.077-0.741,3.043,2.581    c-0.037,3.596-1.371,9.455,0.265,12.809c1.336,2.74,4.358,2.517,7.054,2.394c2.673-0.123,7.791,0.18,9.959-1.634    c2.148-1.796,1.315-5.222,0.85-7.573c-0.144-0.731-0.549-1.631-0.621-2.332c-0.064-0.627,0.1-2.427,0.406-4.026    c0.697-1.394,1.976-2.453,3.872-3.157c1.249-0.274,2.504-0.337,3.765-0.19c1.283,0.11,4.893,0.4,5.984,1.424    c1.36,1.276,1.214,4.712,1.234,6.296c0.084,6.718,0.988,11.206,8.768,11.42c8.339,0.229,8.32-6.095,8.627-12.754    c0.257-5.553,0.524-6.599,6.434-6.483c3.327,0.065,6.866,0.691,9.002,3.264c0.329,1.643,0.509,3.557,0.443,4.207    c-0.072,0.7-0.477,1.601-0.621,2.332c-0.464,2.351-1.298,5.777,0.85,7.573c2.168,1.814,7.286,1.511,9.959,1.634    c2.697,0.123,5.718,0.346,7.054-2.394c1.636-3.354,0.302-9.213,0.264-12.809c-0.034-3.323-0.178-2.283,3.043-2.581    c2.806-0.26,5.502-0.739,8.34-0.747c1.696-0.005,5.593-0.744,7.124,0.005c2.765,1.351,0.834,3.958,0.319,5.724    c-1.032,3.529-1.145,7.811-0.54,11.431c0.254,1.523,1.887,2.348,3.244,2.47c5.859,0.532,11.34,0.073,17.187-0.249    c2.828-0.156,5.516-0.378,5.978-3.77c0.257-1.883-0.668-3.777-0.767-5.668c-0.126-2.417-0.544-6.238,0.051-8.567    c0.562-2.195-1.226-1.516,1.285-2.085c0.657-0.149,2.093,0.186,2.69,0.237c2.855,0.241,6.652-0.295,7.564,2.789    c1.344,4.544-1.644,15.778,4.507,17.356c2.765,0.709,8.362,0.667,10.918-0.628c2.212-1.122,2.404-2.709,2.798-4.936    c0.496-2.804,1.53-5.529,1.963-8.339c0.136-0.884-0.269-5.292-0.121-5.441c0.889-0.898,13.828,0.994,14.36,2.001    c0.747,1.411-0.629,4.566-0.85,6.104c-0.346,2.403-0.432,4.906-0.408,7.334c0.049,4.655,0.422,9.595,0.971,14.205    c1.199,10.082,2.308,20.317,2.72,30.47c0.471,11.574-0.385,23.063,0.394,34.641c0.756,11.222,0.218,22.843-0.278,34.076    c-0.268,6.083-0.794,12.026-0.774,18.144c0.013,3.686,0.648,7.367,0.363,11.057c-0.309,4.021-1.076,5.036-4.96,5.048    c-8.781,0.028-17.711,1.144-26.462,0.156c-8.063-0.912-16.385-0.444-24.465-0.98c-8.174-0.542-16.444,1.553-24.728,0.937    c-1.839-0.136-3.695-0.274-5.559-0.397c-9.198-1.36-19.035-0.622-28.026-1.108c-11.745-0.635-23.37-1.073-35.149-0.859    c-8.274,0.15-16.486,0.519-24.728,1.534c-0.252,0.031-0.505,0.053-0.757,0.079c-2.046,0.073-4.091,0.184-6.125,0.314    c-4.98,0.048-9.986-0.235-14.919,0.303c-5.344-0.409-10.67-1.153-15.955-0.804c-8.08,0.535-16.402,0.068-24.465,0.98    c-8.751,0.989-17.682-0.127-26.462-0.156c-3.883-0.013-4.65-1.027-4.96-5.048c-0.284-3.69,0.352-7.371,0.363-11.057    c0.019-6.117-0.505-12.06-0.774-18.144C121.238,180.366,120.701,168.745,121.457,157.523z M95.166,233.547    c4.206,0.198,8.573-0.648,12.855-0.648c5.029,0,10.057,0.003,15.084,0.007c16.42,0.009,32.69,0.294,49.044-0.011    c4.735-0.089,8.983-0.669,13.76-0.153c4.894,0.529,9.932,0.554,14.841,0.258c0.257-0.016,0.513-0.04,0.77-0.056    c12.907,1.12,26.041,0.309,38.997,0.111c11.418-0.174,22.798,0.225,34.201,0.262c6.22,0.02,12.447-0.337,18.666-0.481    c3.287-0.076,6.771-0.104,10.204-0.411c2.558,0.221,5.116,0.419,7.672,0.574c4.91,0.296,9.948,0.271,14.841-0.258    c4.777-0.515,9.024,0.065,13.76,0.153c16.355,0.305,32.624,0.02,49.044,0.011c5.028-0.002,10.055-0.007,15.084-0.007    c4.281,0,8.649,0.846,12.855,0.648c4.713-0.221,11.677-0.431,13.925-5.44c1.456-3.247,0.765-7.119,0.404-10.51    c-0.418-3.939-0.36-7.87-0.362-11.827c-0.003-4.447-1.3-11.529,0.943-15.5c0.445-0.787,0.535-1.126,0.722-1.277    c3.071,0.16,6.136,0.249,9.272-0.187c0.103-0.015,0.188-0.044,0.283-0.067c5.41,0.005,10.857,0.381,16.31,0.734    c8.075,1.854,16.42,1.214,24.645,0.485c-1.014,5.084-1.131,10.472-1.804,15.537c-0.336,2.523-0.015,5.023-0.116,7.553    c-0.11,2.76-0.84,5.411-0.958,8.176c-0.285,6.684-0.11,13.419-0.131,20.109c-0.008,2.645,0.542,5.937,0.108,8.517    c-0.137,0.814-0.345,1.455-0.53,2.063c-0.403,0.076-0.849,0.082-1.442,0.235c-3.919,1.009-7.914,1.452-11.95,1.69    c-4.705,0.278-9.037-0.09-13.688-0.553c-3.744-0.373-7.511,0.322-11.233-0.246c-3.91-0.597-7.631-0.551-11.594-0.647    c-3.194-0.077-6.33-0.757-9.511-0.512c-4.779,0.368-9.076-0.395-13.828-0.351c-4.014,0.037-7.919,0.918-11.951,0.679    c-17.752-1.051-35.777,0.75-53.636,0.691c-9.181-0.031-18.365-0.126-27.546-0.091c-4.198,0.016-8.395,0.085-12.586,0.272    c-0.689,0.031-1.342,0.09-1.982,0.158c-3.973-1.028-8.094-1.109-12.207-1.427c-4.968-0.384-9.919-0.517-14.9-0.396    c-10.352,0.25-20.699,0.644-31.052,0.942c-10.682,0.308-21.39,0.295-32.072,0.625c-3.18-0.102-6.36-0.164-9.543-0.176    c-9.181-0.035-18.365,0.06-27.546,0.091c-17.859,0.059-35.884-1.742-53.636-0.691c-4.032,0.238-7.938-0.641-11.951-0.679    c-4.752-0.045-9.049,0.719-13.828,0.351c-3.181-0.245-6.316,0.435-9.51,0.512c-3.963,0.095-7.684,0.05-11.594,0.647    c-3.722,0.568-7.489-0.127-11.234,0.246c-4.651,0.463-8.983,0.831-13.688,0.553c-4.036-0.238-8.031-0.682-11.95-1.69    c-0.593-0.152-1.039-0.159-1.44-0.235c-0.185-0.607-0.393-1.249-0.53-2.063c-0.434-2.58,0.116-5.872,0.108-8.517    c-0.02-6.69,0.154-13.425-0.131-20.109c-0.118-2.764-0.848-5.416-0.958-8.176c-0.1-2.53,0.22-5.03-0.115-7.554    c-0.674-5.065-0.791-10.454-1.804-15.537c8.224,0.728,16.57,1.369,24.645-0.485c5.453-0.353,10.9-0.73,16.31-0.734    c0.094,0.023,0.179,0.052,0.283,0.067c3.136,0.436,6.201,0.347,9.272,0.187c0.187,0.15,0.277,0.49,0.722,1.277    c2.243,3.971,0.947,11.053,0.943,15.5c-0.002,3.957,0.056,7.888-0.362,11.827c-0.36,3.391-1.052,7.263,0.404,10.509    C83.49,233.117,90.454,233.325,95.166,233.547z M22.957,184.003c-1.059-0.36-1.672-1.261-1.175-3.494    c0.733-3.297,4.24-2.729,6.73-3.098c5.048-0.748,9.646-1.04,14.741-0.96c8.425,0.133,16.582-1.028,24.973-1.518    c4.112-0.24,8.772-0.325,12.896-0.005c2.376,0.184,5.189,0.918,6.322,3.366c1.561,3.374,0.085,4.214-2.852,4.155    c-1.159-0.024-2.323,0.015-3.49,0.087c-0.992-0.259-2.113-0.394-3.401-0.395c-8.702-0.013-17.132,1.475-25.802,1.841    c-7.574,0.32-15.227-0.185-22.764,0.53c-0.74-0.108-1.48-0.208-2.224-0.255C25.598,184.173,24.043,184.372,22.957,184.003z     M18.036,280.691c-2.825-0.196-5.68,0.133-8.501,0.104c1.117-1.183,2.421-2.25,3.466-3.396c2.777-3.051,5.347-6.28,8.164-9.301    c2.635-2.827,6.898-6.387,9.206-10.28c0.275,0.099,0.547,0.199,0.851,0.277c7.515,1.934,16.744,3.173,24.516,2.552    c8.153-0.652,16.582-1.324,24.761-1.32c4.341,0.001,8.524-0.396,12.832-0.049c4.212,0.341,8.162-0.741,12.368-0.686    c4.742,0.062,9.128,0.964,13.906,0.564c4.735-0.397,8.843-0.085,13.56,0.24c9.822,0.677,19.759,0.888,29.601,0.919    c8.253,0.027,16.504,0.055,24.757,0.082c5.542,1.083,11.943,0.418,16.905,0.468c11.273,0.114,22.553-0.146,33.826-0.17    c10.368-0.023,20.804-0.506,31.154-1.059c5.341-0.285,10.704-0.688,16.059-0.622c1.039,0.013,2.099,0.032,3.166,0.044    c0.451,0.516,1.066,0.893,1.805,0.96c4.63,0.421,9.638,0.188,14.34,0.317c4.912,0.134,9.831,0.095,14.744,0.079    c9.907-0.033,19.813-0.066,29.721-0.099c9.842-0.032,19.779-0.243,29.601-0.919c4.717-0.325,8.825-0.637,13.56-0.24    c4.778,0.401,9.164-0.501,13.906-0.564c4.205-0.056,8.155,1.026,12.368,0.686c4.308-0.349,8.49,0.05,12.832,0.049    c8.179-0.003,16.608,0.669,24.761,1.32c7.773,0.621,17.003-0.618,24.516-2.552c0.304-0.078,0.578-0.178,0.851-0.277    c2.308,3.894,6.572,7.455,9.206,10.28c2.818,3.022,5.388,6.25,8.164,9.301c1.043,1.147,2.349,2.214,3.466,3.396    c-2.821,0.029-5.676-0.3-8.501-0.104c-4.763,0.33-9.339,0.986-14.145,0.966c-10.923-0.048-21.85-0.286-32.771-0.524    c-11.152-0.244-22.301-0.338-33.454-0.434c-10.441-0.089-21.129,0.463-31.499-0.629c-4.92-0.518-9.876,0.025-14.797-0.397    c-3.601-0.309-6.811,0.184-10.419,0.149c-10.814-0.107-21.64-0.049-32.453,0.087c-8.626,0.109-17.25,0.302-25.875,0.45    c-14.779-3.189-30.457-2.13-45.464-2.055c-9.397,0.048-18.728,0.074-28.093,0.806c-4.322,0.338-8.625,0.786-12.932,1.215    c-0.02,0.002-0.042,0.007-0.062,0.009c-8.145-0.144-16.289-0.321-24.435-0.425c-10.813-0.136-21.639-0.194-32.452-0.087    c-3.608,0.036-6.818-0.457-10.419-0.149c-4.921,0.422-9.877-0.12-14.797,0.397c-10.37,1.092-21.058,0.54-31.499,0.629    c-11.153,0.095-22.302,0.19-33.454,0.434c-10.92,0.238-21.848,0.477-32.771,0.524C27.376,281.678,22.8,281.021,18.036,280.691z     M486.247,426.633c-0.022,0.706-0.064,3.173-0.4,4.727c-0.377-0.377-2.056,0.115-2.795-0.386    c-1.207-0.818-0.998-1.485-1.329-2.961c-0.628-2.793-0.842-5.919-0.875-8.76c-0.124-10.557-1.083-21.668-0.22-32.174    c0.821-10.01,1.039-19.617-0.221-29.648c-0.992-7.888-2.206-16.476-7.312-22.897c-5.325-6.698-13.983-10.447-22.59-8.6    c-7.339,1.576-13.906,6.472-16.927,13.421c-2.031,4.672-1.377,9.996-1.28,14.957c0.101,5.247-0.982,10.18-1.252,15.374    c-0.49,9.433,1.208,18.716,1.084,28.081c-0.132,9.875,1.723,19.32-0.053,29.105c-0.296,1.628-1.048,3.612-2.701,3.705    c-1.001,0.057-1.906-0.698-2.34-1.602c-0.434-0.905-0.495-1.935-0.548-2.937c0-10.444-1.339-20.927-1.688-31.366    c-0.154-4.607,0.986-9.161,0.868-13.864c-0.133-5.317-0.83-10.601-1.428-15.88c-0.965-8.508-3.131-15.823-6.667-23.556    c-2.981-6.522-8.991-13.293-16.133-15.2c-6.046-1.613-14.217-1.628-19.345,2.361c-5.66,4.402-10.399,10.398-12.568,17.327    c-2.805,8.962-2.069,18.146-3.274,27.253c-1.203,9.1-0.695,18.307-1.799,27.402c-0.656,5.402-0.422,10.671-0.388,16.097    c0.013,2.091-0.041,4.182-0.043,6.273c0,0.683,0.138,1.859,0.186,3.022c-0.127,0.426-0.25,0.85-0.35,1.267    c-0.345,1.447-0.504,4.254-2.298,2.506c-1.06-1.033-0.468-3.686-0.671-5.203c-0.316-2.346-0.724-4.288-0.66-6.678    c0.308-11.32-1.184-22.519-1.139-33.785c0.017-4.104-0.716-8.01-0.864-12.073c-0.142-3.907,0.328-7.672-0.218-11.586    c-1.068-7.666-3.184-15.966-6.967-22.78c-3.469-6.247-9.753-9.923-16.486-11.724c-6.371-1.705-15.267-2.111-20.154,3.031    c-5.54,5.83-8.521,11.187-10.021,19.185c-1.773,9.454-1.535,18.692-1.537,28.291c-0.003,10.008,1.232,21.018-0.62,30.869    c-0.832,4.428-1.845,9.026-2.335,13.497c-0.317,2.888,0.209,7.44-2.545,8.851c-2.08-1.128-2.467-5.339-2.46-7.466    c0.01-2.761-0.53-5.323-0.966-8.025c-1.081-6.707-1.127-13.378-1.091-20.169c0.074-13.616,1.561-27.905,0.274-41.45    c-1.06-11.146-1.668-23.789-8.274-33.312c-3.537-5.1-8.768-12.498-15.077-16.108c-0.292-0.274-0.577-0.521-0.849-0.734    c-2.798-2.199-6.585-3.27-11.396-3.158c-3.257,0.076-6.326,0.717-9.256,1.832c-8.993,0.994-16.466,11.529-21.072,18.169    c-6.606,9.523-7.213,22.167-8.274,33.312c-1.287,13.544,0.199,27.833,0.274,41.45c0.037,6.791-0.01,13.462-1.091,20.169    c-0.435,2.702-0.975,5.265-0.966,8.025c0.007,2.127-0.38,6.338-2.46,7.466c-2.753-1.411-2.227-5.963-2.545-8.851    c-0.49-4.473-1.503-9.07-2.335-13.497c-1.85-9.852-0.616-20.862-0.62-30.869c-0.002-9.599,0.235-18.837-1.538-28.291    c-1.5-7.997-4.481-13.354-10.021-19.185c-4.887-5.142-13.783-4.736-20.154-3.031c-6.733,1.802-13.018,5.477-16.486,11.724    c-3.784,6.812-5.898,15.114-6.967,22.78c-0.546,3.914-0.076,7.678-0.218,11.586c-0.148,4.063-0.881,7.969-0.864,12.073    c0.045,11.267-1.446,22.465-1.139,33.785c0.065,2.392-0.343,4.332-0.659,6.678c-0.203,1.515,0.389,4.169-0.671,5.203    c-1.794,1.747-1.953-1.06-2.298-2.506c-0.1-0.418-0.221-0.841-0.35-1.267c0.048-1.161,0.186-2.339,0.186-3.022    c-0.002-2.091-0.056-4.182-0.043-6.273c0.034-5.426,0.268-10.696-0.388-16.097c-1.105-9.095-0.596-18.302-1.799-27.402    c-1.204-9.109-0.469-18.292-3.274-27.253c-2.169-6.929-6.909-12.925-12.568-17.327c-5.128-3.989-13.299-3.975-19.345-2.361    c-7.143,1.907-13.152,8.678-16.133,15.2c-3.536,7.732-5.702,15.048-6.667,23.556c-0.598,5.279-1.295,10.563-1.428,15.88    c-0.118,4.703,1.023,9.257,0.868,13.864c-0.348,10.439-1.688,20.922-1.688,31.366c-0.053,1.001-0.116,2.032-0.548,2.937    c-0.434,0.905-1.338,1.66-2.34,1.602c-1.653-0.094-2.404-2.077-2.701-3.705c-1.777-9.785,0.077-19.23-0.053-29.105    c-0.125-9.364,1.575-18.648,1.084-28.081c-0.269-5.193-1.353-10.126-1.252-15.374c0.095-4.961,0.75-10.285-1.281-14.957    c-3.022-6.95-9.588-11.844-16.927-13.421c-8.607-1.848-17.265,1.903-22.59,8.6c-5.106,6.421-6.321,15.008-7.312,22.897    c-1.26,10.03-1.041,19.638-0.221,29.648c0.862,10.506-0.096,21.617-0.22,32.174c-0.033,2.841-0.247,5.968-0.875,8.76    c-0.333,1.477-0.123,2.142-1.329,2.961c-0.738,0.501-2.418,0.008-2.795,0.386c-0.336-1.554-0.378-4.021-0.4-4.727    c-0.084-2.812,0.059-5.648,0.026-8.463c-0.028-2.42-0.074-4.847-0.137-7.275c0.177-0.403,0.279-0.868,0.278-1.401    c-0.028-11.374-0.057-22.748-0.085-34.122c-0.014-5.385,0-10.769-0.116-16.154c-0.11-5.172,0.822-10.094,0.95-15.211    c0.127-5.102-0.403-10.231-0.193-15.34c0.229-5.591,0.787-11.003,0.715-16.633c-0.101-8.055,1.008-16.277-0.103-24.253    c0.983,0.057,1.966,0.102,2.953,0.109c11.641,0.081,23.262-0.028,34.905,0.226c22.201,0.486,44.891,1.657,66.985-0.261    c8.955-0.776,18.005,0.045,26.956,0.057c11.053,0.014,22.105,0.034,33.159-0.142c11.322-0.18,22.641-0.462,33.965-0.579    c4.73-0.049,13.173,1.655,18.016-0.951c2.656-0.027,5.316-0.04,7.985-0.027c5.247,0.023,10.513-0.05,15.773-0.078    c4.811,2.755,13.409,1.008,18.2,1.057c11.325,0.118,22.642,0.398,33.965,0.579c11.053,0.176,22.105,0.156,33.159,0.142    c8.95-0.01,18.001-0.833,26.956-0.057c22.094,1.917,44.784,0.746,66.985,0.261c11.642-0.254,23.263-0.146,34.904-0.226    c0.986-0.007,1.969-0.051,2.953-0.109c-1.111,7.976-0.002,16.198-0.103,24.253c-0.072,5.629,0.486,11.042,0.715,16.633    c0.21,5.108-0.32,10.238-0.193,15.34c0.128,5.116,1.06,10.04,0.95,15.211c-0.115,5.384-0.101,10.768-0.116,16.154    c-0.028,11.374-0.057,22.748-0.085,34.122c-0.001,0.532,0.101,0.999,0.278,1.401c-0.064,2.428-0.108,4.856-0.137,7.275    C486.188,420.985,486.331,423.822,486.247,426.633z M438.196,425.77c0.621-8.916-0.436-18.304-0.322-27.05    c0.138-10.691-2.126-21.531-0.706-32.215c0.731-5.494,0.756-10.659,0.578-16.209c-0.182-5.688,0.297-10.742,4.844-14.8    c9.504-8.483,23.431-3.298,28.117,7.437c7.85,17.981,4.819,39.225,4.777,58.256c-0.022,9.901-0.875,20.203,0.644,30.01    c0.182,1.174,0.657,2.242,1.321,3.184c-9.839-0.043-19.773,0.358-29.596-0.101c-3.552-0.166-7.086-0.359-10.618-0.543    C438.463,431.498,438.542,428.616,438.196,425.77z M371.23,422.017c-0.052-5.72-0.636-11.508-0.363-17.222    c0.531-11.133,1.143-22.255,2.252-33.333c0.882-8.815-0.527-18.379,3.812-26.579c4.081-7.716,9.952-13.841,19.207-13.04    c10.38,0.899,15.847,11.16,19.014,20.022c3.199,8.949,3.199,18.94,3.978,28.26c0.22,2.637,0.927,4.708,0.683,7.421    c-0.156,1.729-0.458,3.401-0.535,5.148c-0.188,4.268,0.548,8.208,0.702,12.404c0.314,8.678-0.408,17.494,1.006,26.063    c0.118,0.717,0.224,1.396,0.36,2.03c-0.633-0.006-1.262-0.031-1.897-0.031c-10.333-0.001-20.668,0.079-31.002-0.01    c-5.008-0.043-9.801-0.602-14.762-0.933c-1.232-0.083-2.455-0.037-3.676,0.052C371.933,429.101,371.266,425.827,371.23,422.017z     M309.821,389.549c-0.003-10.839-0.728-21.936-0.015-32.747c0.35-5.294,1.226-11.722,3.627-16.495    c1.874-3.726,5.82-8.283,9.937-9.059c10.665-2.006,20.866,4.318,24.426,14.106c1.59,4.373,3.095,8.507,3.941,13.107    c0.902,4.904,0.467,9.488,0.81,14.388c0.66,9.375,1.592,18.91,1.575,28.316c-0.01,5.846-0.276,11.703-0.422,17.545    c-0.087,3.461,0.586,6.75,0.652,10.19c0.024,1.283,0.289,2.48,0.739,3.543c-7.032-0.473-14.124-1.099-21.146-1.147    c-4.97-0.034-9.951,1.023-14.917,0.627c-4.297-0.342-8.172-0.863-12.515-0.713c-0.415,0.014-0.828,0.016-1.239,0.015    c1.059-2.875,1.201-6.708,1.791-10.565c0.759-4.973,1.905-9.946,2.555-14.925C310.307,400.47,309.822,394.848,309.821,389.549z     M225.55,380.357c0.089-14.224,0.422-28.154,2.424-42.228c1.224-8.606,5.327-18.086,11.779-24.728    c5.554-2.575,10.422-6.26,16.983-6.691c3.038-0.2,6.063,0.509,8.919,1.462c10.275,5.921,16.783,18.7,18.382,29.956    c2,14.074,2.335,28.004,2.424,42.228c0.048,7.566-0.077,15.149,0.048,22.713c0.101,6.156,2.223,12.108,2.506,18.226    c0.148,3.18-0.252,6.997,1.253,9.875c-0.511,0.053-1.019,0.095-1.525,0.103c-1.741,0.026-3.09-0.045-4.535,0.212    c-3.626-0.243-7.303-0.229-11.159-0.345c-7.686-0.23-15.323-0.487-23.039-0.375c-7.357,0.108-14.672,0.451-22.021,0.751    c-1.517-0.301-2.905-0.218-4.721-0.245c-0.505-0.008-1.015-0.05-1.525-0.103c1.505-2.877,1.106-6.695,1.253-9.875    c0.285-6.119,2.405-12.07,2.506-18.226C225.627,395.506,225.502,387.923,225.55,380.357z M157.886,401.165    c-0.017-9.406,0.916-18.942,1.574-28.316c0.344-4.901-0.092-9.484,0.811-14.388c0.847-4.6,2.351-8.734,3.941-13.107    c3.56-9.788,13.761-16.11,24.426-14.106c4.116,0.774,8.062,5.332,9.936,9.059c2.402,4.773,3.278,11.201,3.627,16.495    c0.713,10.81-0.011,21.908-0.015,32.747c-0.001,5.299-0.487,10.922,0.201,16.187c0.65,4.979,1.796,9.952,2.555,14.925    c0.59,3.858,0.732,7.691,1.791,10.565c-0.411,0.001-0.823-0.001-1.239-0.015c-4.343-0.15-8.219,0.371-12.515,0.713    c-4.968,0.395-9.949-0.661-14.917-0.627c-7.022,0.048-14.114,0.673-21.146,1.147c0.45-1.061,0.714-2.26,0.739-3.543    c0.066-3.441,0.738-6.729,0.652-10.19C158.162,412.868,157.896,407.011,157.886,401.165z M92.029,405.101    c0.152-4.196,0.889-8.136,0.702-12.404c-0.077-1.748-0.379-3.419-0.535-5.148c-0.244-2.713,0.463-4.784,0.683-7.421    c0.779-9.321,0.779-19.313,3.978-28.26c3.168-8.862,8.634-19.123,19.014-20.022c9.255-0.801,15.126,5.324,19.207,13.04    c4.339,8.201,2.93,17.764,3.812,26.579c1.109,11.078,1.721,22.201,2.252,33.333c0.272,5.713-0.311,11.502-0.363,17.222    c-0.035,3.809-0.703,7.082,1.221,10.254c-1.22-0.09-2.444-0.134-3.676-0.052c-4.962,0.331-9.753,0.89-14.762,0.933    c-10.333,0.09-20.668,0.009-31.003,0.01c-0.635,0-1.263,0.024-1.897,0.031c0.137-0.633,0.242-1.312,0.36-2.03    C92.436,422.595,91.714,413.778,92.029,405.101z M73.812,425.77c-0.346,2.845-0.268,5.727,0.961,7.97    c-3.533,0.183-7.066,0.377-10.618,0.543c-9.823,0.459-19.758,0.058-29.596,0.101c0.665-0.942,1.14-2.01,1.321-3.184    c1.519-9.807,0.666-20.11,0.644-30.01c-0.042-19.031-3.073-40.275,4.777-58.256c4.686-10.734,18.614-15.921,28.117-7.437    c4.545,4.058,5.025,9.112,4.844,14.8c-0.178,5.55-0.153,10.714,0.578,16.209c1.42,10.683-0.843,21.524-0.706,32.215    C74.249,407.468,73.191,416.855,73.812,425.77z M504.593,446.73c-0.698,3.772-3.041,3.354-6.184,2.908    c-2.062-0.293-4.112-0.304-6.191-0.311c-5.558-0.018-11.118,0.163-16.677,0.192c-5.277,0.026-10.404-0.893-15.66-1.001    c-5.648-0.116-11.298-0.076-16.946-0.144c-5.473-0.065-10.892-0.658-16.356-0.855c-5.642-0.203-11.328,0.219-16.96-0.176    c-22.498-1.577-45.278-0.825-67.863-0.901c-11.567-0.039-23.144,0.132-34.71-0.016c-4.65-0.059-9.062,0.417-13.664,0.69    c-12.084-1.778-25.576,0.708-37.37,0.836c-8.834,0.095-17.729,0.128-26.551-0.352c-2.13-0.116-4.271-0.137-6.396-0.041    c-1.29-0.177-2.577-0.334-3.848-0.404c-4.818-0.266-9.403-0.791-14.251-0.729c-11.566,0.148-23.143-0.023-34.71,0.016    c-22.586,0.076-45.365-0.675-67.863,0.901c-5.632,0.395-11.319-0.028-16.96,0.176c-5.464,0.196-10.883,0.79-16.356,0.855    c-5.649,0.067-11.3,0.028-16.946,0.144c-5.256,0.108-10.382,1.027-15.66,1.001c-5.559-0.028-11.119-0.21-16.677-0.192    c-2.081,0.007-4.13,0.018-6.191,0.311c-3.143,0.447-5.486,0.865-6.185-2.908c-1.137-6.148,3.494-6.148,8.156-6.387    c0.989-0.05,1.932-0.132,2.857-0.228c3.731,0.61,7.59,0.41,11.359,0.452c10.723,0.12,21.454,0.162,32.178,0.133    c9.461-0.026,18.895-0.443,28.381-0.373c11.073,0.081,22.144,0.279,33.216,0.24c5.031-0.018,9.788-0.453,14.762-0.858    c4.219-0.344,8.287,0.882,12.412,0.647c9.689-0.553,19.801-1.54,29.541-1.131c5.223,0.219,10.236,1.034,15.461,0.355    c4.182-0.543,8.123-0.431,12.333-0.329c3.457,0.084,6.828-0.467,10.168-0.149c1.963,0.186,3.967,0.06,5.926-0.318    c0.492,0.016,0.982,0.031,1.459,0.049c8.155,0.32,16.235,0.162,24.387,0.281c12.049,0.176,24.042,0.597,35.928-0.776    c2.547,0.721,5.226,1.011,7.833,0.764c3.34-0.318,6.711,0.234,10.168,0.149c4.21-0.102,8.151-0.213,12.333,0.329    c5.226,0.679,10.239-0.136,15.461-0.355c9.74-0.41,19.852,0.577,29.541,1.131c4.124,0.235,8.191-0.991,12.412-0.647    c4.974,0.405,9.731,0.84,14.762,0.858c11.073,0.04,22.144-0.159,33.216-0.24c9.486-0.069,18.919,0.347,28.381,0.373    c10.723,0.03,21.455-0.012,32.178-0.133c3.77-0.042,7.628,0.158,11.359-0.452c0.925,0.096,1.869,0.178,2.857,0.228    C501.1,440.581,505.73,440.581,504.593,446.73z"/>
	</g>
</g>
<g>
	<g>
		<path d="M468.093,212.335c-0.31-1.921-0.356-3.376-1.262-4.756c-1.664-4.087-4.798-7.378-9.714-8.593    c-4.047-1.001-8.783,0.198-10.74,4.13c-2.09,4.199-1.21,9.209-1.517,13.71c-0.216,3.176-0.862,7.916,2.167,10.063    c1.382,0.98,2.692,0.797,4.255,0.565c3.395-0.503,6.762-0.33,10.206-0.336c5.082-0.009,7.826-1.778,7.674-7.089    C469.086,217.366,468.514,214.947,468.093,212.335z M462.653,222.57c-1.487,0.493-4.108,0.015-5.687,0.011    c-1.538-0.003-3.077,0.024-4.613,0.011c-1.844-0.016-2.621,1.061-3.311-1.195c-0.535-1.747,0.098-4.231,0.134-6.038    c0.056-2.919-0.671-6.321,0.272-9.171c1.722-5.205,7.319-4.283,10.852-1.713c1.151,0.837,1.992,1.834,2.612,2.945    c-0.01,0.27,0.035,0.555,0.164,0.845c1.229,2.798,1.28,7.662,1.464,10.696C464.65,220.776,465.178,221.733,462.653,222.57z"/>
	</g>
</g>
<g>
	<g>
		<path d="M280.673,207.996c-0.277-4.526,0.522-10.043-0.749-14.382c-1.081-3.692-6.079-4.18-9.212-3.738    c-1.948,0.275-5.138-0.188-6.755,1.327c-1.231,1.153-1.094,3.118-1.446,4.643c-1.367,5.914-0.748,12.241,2.134,17.628    c0.307,0.569,1.067,1.057,1.73,0.991c3.704-0.366,11.672,2.077,13.862-2.466C280.826,210.776,280.756,209.352,280.673,207.996z     M275.821,203.109c-0.12,0.615-0.215,1.237-0.255,1.869c-0.116,1.795-0.151,3.529,0.081,5.259    c-1.284,0.18-2.531,0.301-3.947,0.128c-1.399-0.17-2.74-0.127-4.115-0.015c-2.026-4.46-2.021-9.197-1.102-13.956    c0.413-2.141,0.456-1.957,2.765-2.353c1.176-0.202,2.334-0.56,3.529-0.658c2.864-0.236,1.857-0.119,2.417,1.599    c0.36,1.103,0.439,2.373,0.548,3.521C275.888,200.041,275.86,201.573,275.821,203.109z"/>
	</g>
</g>
<g>
</g>
<g>
</g>
<g>
</g>
<g>
</g>
<g>
</g>
<g>
</g>
<g>
</g>
<g>
</g>
<g>
</g>
<g>
</g>
<g>
</g>
<g>
</g>
<g>
</g>
<g>
</g>
<g>
</g>
</svg>
