<?xml version="1.0" encoding="iso-8859-1"?>
<!-- Generator: Adobe Illustrator 19.0.0, SVG Export Plug-In . SVG Version: 6.00 Build 0)  -->
<svg xmlns="http://www.w3.org/2000/svg" xmlns:xlink="http://www.w3.org/1999/xlink" version="1.1" id="Layer_1" x="0px" y="0px" viewBox="0 0 512.001 512.001" style="enable-background:new 0 0 512.001 512.001;" xml:space="preserve">
<g>
	<g>
		<path d="M182.754,218.625c-0.732,0.027-1.439,0.184-2.143,0.354c-0.21-0.051-0.425-0.087-0.661-0.102    c-0.461-0.028-0.928,0.042-1.377,0.139c-0.366,0.08-0.89,0.398-1.052,0.456c-0.544,0.195-0.764,0.753-0.628,1.217    c-0.089,0.738,0.344,1.535,1.321,1.576c1.014,0.042,2.039,0.027,3.06-0.012c0.394,0.082,0.784,0.097,1.198-0.055    c0.094-0.006,0.189-0.006,0.282-0.013C184.967,222.023,185.015,218.541,182.754,218.625z"/>
	</g>
</g>
<g>
	<g>
		<path d="M195.1,218.883c-1.536-0.086-3.127,0.445-4.472,1.138c-0.798,0.411-0.454,1.469,0.223,1.75    c1.348,0.559,2.829,0.208,4.249,0.134C197.002,221.803,197.003,218.989,195.1,218.883z"/>
	</g>
</g>
<g>
	<g>
		<path d="M190.07,224.177c-1.286-0.607-2.897,0.375-4.124-0.472c-0.746-0.517-1.533,0.47-1.163,1.189    c0.485,0.945,1.494,1.139,2.455,1.197c0.924,0.056,2.034,0.076,2.831-0.398C190.588,225.385,190.671,224.461,190.07,224.177z"/>
	</g>
</g>
<g>
	<g>
		<path d="M191.483,229.082c-0.793-0.954-2.081-0.316-3.101-0.122c-1.387,0.264-2.962-0.227-4.232,0.47    c-0.37,0.204-0.362,0.787,0,0.992c1.129,0.64,2.795,0.493,4.048,0.353c0.987-0.11,2.551-0.195,3.284-0.911    C191.706,229.645,191.669,229.305,191.483,229.082z"/>
	</g>
</g>
<g>
	<g>
		<path d="M197.989,262.69c-3.717-0.706-7.916-1.222-11.673-0.826c-4.401,0.464-8.797,0.234-13.189,0.929    c-0.704,0.111-0.704,1.345,0.001,1.457c4.036,0.639,8.296,1.023,12.36,0.503c4.179-0.535,8.29,0.384,12.5-0.4    C198.796,264.202,198.793,262.843,197.989,262.69z"/>
	</g>
</g>
<g>
	<g>
		<path d="M106.283,218.623c-0.732,0.027-1.439,0.184-2.143,0.354c-0.21-0.051-0.425-0.087-0.661-0.102    c-0.461-0.028-0.928,0.042-1.379,0.139c-0.365,0.08-0.89,0.398-1.051,0.456c-0.544,0.196-0.763,0.754-0.628,1.217    c-0.088,0.738,0.344,1.535,1.321,1.576c1.014,0.042,2.039,0.027,3.061-0.012c0.394,0.082,0.784,0.097,1.197-0.055    c0.094-0.006,0.189-0.006,0.281-0.013C108.496,222.021,108.544,218.54,106.283,218.623z"/>
	</g>
</g>
<g>
	<g>
		<path d="M118.629,218.883c-1.536-0.086-3.127,0.445-4.472,1.138c-0.798,0.411-0.453,1.469,0.224,1.751    c1.348,0.559,2.829,0.208,4.249,0.134C120.531,221.804,120.532,218.989,118.629,218.883z"/>
	</g>
</g>
<g>
	<g>
		<path d="M113.599,224.177c-1.286-0.607-2.897,0.375-4.124-0.472c-0.746-0.517-1.533,0.47-1.164,1.189    c0.486,0.945,1.495,1.139,2.456,1.197c0.924,0.056,2.034,0.076,2.831-0.398C114.117,225.385,114.2,224.461,113.599,224.177z"/>
	</g>
</g>
<g>
	<g>
		<path d="M115.013,229.082c-0.793-0.954-2.082-0.316-3.101-0.122c-1.387,0.264-2.962-0.227-4.232,0.47    c-0.369,0.204-0.361,0.787,0,0.992c1.129,0.64,2.795,0.493,4.048,0.353c0.987-0.11,2.551-0.195,3.284-0.911    C115.236,229.645,115.2,229.305,115.013,229.082z"/>
	</g>
</g>
<g>
	<g>
		<path d="M121.519,262.69c-3.717-0.706-7.917-1.222-11.673-0.826c-4.401,0.464-8.797,0.234-13.188,0.929    c-0.707,0.112-0.707,1.345,0,1.457c4.035,0.639,8.296,1.023,12.359,0.503c4.179-0.535,8.29,0.384,12.502-0.4    C122.326,264.201,122.323,262.842,121.519,262.69z"/>
	</g>
</g>
<g>
	<g>
		<path d="M334.476,219.469c-0.162-0.058-0.686-0.376-1.052-0.456c-0.451-0.098-0.918-0.168-1.377-0.139    c-0.236,0.015-0.451,0.052-0.661,0.102c-0.704-0.17-1.411-0.327-2.143-0.354c-2.261-0.082-2.212,3.399,0,3.56    c0.093,0.006,0.189,0.006,0.281,0.013c0.414,0.153,0.804,0.137,1.198,0.055c1.021,0.04,2.046,0.055,3.06,0.012    c0.977-0.041,1.41-0.837,1.321-1.576C335.239,220.223,335.02,219.665,334.476,219.469z"/>
	</g>
</g>
<g>
	<g>
		<path d="M321.37,220.02c-1.345-0.692-2.936-1.224-4.472-1.138c-1.904,0.107-1.904,2.922,0,3.022    c1.42,0.074,2.901,0.425,4.249-0.134C321.824,221.49,322.169,220.431,321.37,220.02z"/>
	</g>
</g>
<g>
	<g>
		<path d="M326.05,223.706c-1.226,0.849-2.838-0.135-4.124,0.472c-0.6,0.284-0.518,1.208,0.001,1.516    c0.797,0.472,1.907,0.454,2.831,0.398c0.961-0.059,1.97-0.252,2.455-1.197C327.583,224.176,326.796,223.19,326.05,223.706z"/>
	</g>
</g>
<g>
	<g>
		<path d="M327.846,229.429c-1.269-0.696-2.844-0.204-4.232-0.469c-1.019-0.194-2.308-0.832-3.101,0.121    c-0.185,0.224-0.223,0.564,0,0.782c0.732,0.716,2.298,0.8,3.285,0.911c1.253,0.14,2.919,0.287,4.048-0.353    C328.208,230.217,328.216,229.633,327.846,229.429z"/>
	</g>
</g>
<g>
	<g>
		<path d="M338.868,262.792c-4.39-0.696-8.788-0.465-13.189-0.929c-3.756-0.396-7.956,0.12-11.673,0.826    c-0.804,0.153-0.806,1.512,0,1.662c4.211,0.784,8.323-0.135,12.502,0.4c4.064,0.52,8.324,0.136,12.36-0.503    C339.574,264.137,339.574,262.903,338.868,262.792z"/>
	</g>
</g>
<g>
	<g>
		<path d="M410.947,219.47c-0.162-0.058-0.686-0.376-1.051-0.456c-0.451-0.098-0.918-0.168-1.378-0.139    c-0.236,0.015-0.451,0.052-0.661,0.102c-0.703-0.17-1.411-0.327-2.143-0.354c-2.261-0.083-2.212,3.398,0,3.56    c0.094,0.006,0.188,0.006,0.281,0.013c0.413,0.153,0.804,0.137,1.198,0.055c1.021,0.04,2.046,0.055,3.06,0.012    c0.977-0.041,1.41-0.837,1.321-1.576C411.71,220.224,411.491,219.666,410.947,219.47z"/>
	</g>
</g>
<g>
	<g>
		<path d="M397.841,220.021c-1.345-0.693-2.936-1.224-4.472-1.138c-1.904,0.107-1.903,2.921,0,3.021    c1.419,0.074,2.901,0.425,4.249-0.134C398.294,221.49,398.639,220.432,397.841,220.021z"/>
	</g>
</g>
<g>
	<g>
		<path d="M402.521,223.706c-1.226,0.849-2.838-0.135-4.124,0.472c-0.6,0.284-0.518,1.208,0,1.516    c0.797,0.472,1.906,0.454,2.831,0.398c0.961-0.059,1.97-0.252,2.455-1.197C404.054,224.176,403.266,223.19,402.521,223.706z"/>
	</g>
</g>
<g>
	<g>
		<path d="M404.317,229.429c-1.27-0.696-2.844-0.204-4.232-0.469c-1.019-0.194-2.308-0.832-3.101,0.121    c-0.187,0.224-0.223,0.564,0,0.782c0.732,0.716,2.296,0.8,3.285,0.911c1.253,0.14,2.919,0.287,4.048-0.353    C404.679,230.217,404.686,229.633,404.317,229.429z"/>
	</g>
</g>
<g>
	<g>
		<path d="M415.339,262.792c-4.39-0.696-8.788-0.465-13.189-0.929c-3.756-0.396-7.955,0.12-11.673,0.826    c-0.804,0.153-0.806,1.512,0,1.662c4.211,0.784,8.323-0.135,12.502,0.4c4.064,0.52,8.324,0.136,12.36-0.503    C416.045,264.137,416.044,262.904,415.339,262.792z"/>
	</g>
</g>
<g>
	<g>
		<path d="M508.251,403.412c-2.285-5.802-4.844-11.221-6.466-17.304c-3.201-12.003-8.1-23.522-11.885-35.355    c-6.335-19.801-11.25-39.955-16.701-60.031c-5.557-20.47-9.438-41.824-16.745-61.771c-1.716-4.687-3.164-9.466-4.879-14.164    c-1.759-4.819-2.486-9.858-3.993-14.761c-3-9.758-6.092-19.814-8.352-29.786c-2.386-10.537-6.003-20.627-8.643-31.076    c-1.381-5.463-2.636-10.966-4.019-16.431c-0.662-2.62-1.019-5.257-1.565-7.893c-0.211-1.019-0.631-2.038-0.987-3.06    c-0.142-0.866-0.293-1.742-0.463-2.65c-0.715-3.832-1.437-9.668-4.521-12.37c-3.321-2.91-8.844-3.31-13.016-3.649    c-3.151-0.257-8.381-0.827-10.79,1.821c-0.187,0.205-0.342,0.413-0.483,0.621c-3.089-0.413-6.25-0.325-9.398-0.805    c-5.425-0.827-10.682-0.977-16.11-1.563c-11.353-1.223-23.228-0.272-34.639-0.265c-5.428,0.003-10.939-0.286-16.339,0.283    c-4.763,0.502-9.449-0.21-14.234,0.364c-5.8,0.695-11.7,0.456-17.46,1.037c-2.752-0.064-5.519-0.071-8.323-0.072    c-8.653-0.002-17.346-0.252-25.984-0.14c-8.145,0.106-16.376-0.105-24.48,0.495c-6.495-0.949-13.214-0.53-19.801-1.318    c-4.785-0.573-9.471,0.138-14.234-0.364c-5.401-0.568-10.912-0.279-16.339-0.283c-11.412-0.006-23.287-0.958-34.639,0.265    c-5.427,0.585-10.685,0.735-16.11,1.563c-3.149,0.48-6.309,0.392-9.398,0.805c-0.141-0.208-0.297-0.416-0.483-0.621    c-2.409-2.648-7.638-2.077-10.79-1.821c-4.172,0.34-9.695,0.74-13.017,3.649c-3.085,2.702-3.805,8.538-4.521,12.37    c-0.169,0.908-0.32,1.784-0.463,2.65c-0.356,1.023-0.776,2.041-0.987,3.06c-0.547,2.635-0.903,5.272-1.565,7.892    c-1.382,5.467-2.638,10.968-4.019,16.431c-2.639,10.449-6.256,20.539-8.643,31.076c-2.259,9.972-5.351,20.028-8.352,29.786    c-1.508,4.904-2.235,9.942-3.993,14.761c-1.715,4.698-3.162,9.477-4.879,14.164c-7.307,19.947-11.187,41.3-16.745,61.771    c-5.45,20.077-10.366,40.23-16.701,60.031c-3.785,11.833-8.684,23.352-11.886,35.355c-1.622,6.083-4.182,11.502-6.466,17.304    c-1.418,3.601-3.609,8.335-3.745,12.233c-0.052,1.461,1.029,2.707,2.332,3.129c4.5,1.457,9.22,0.083,13.796-0.074    c3.698-0.126,9.603,1.114,13.193-1.033c5.791-0.889,11.483-4.92,16.483-7.425c3.359-1.683,6.438-3.74,9.849-5.349    c2.968-1.4,5.995-2.717,8.615-4.691c4.457,1.237,10.819-0.096,14.41-0.123c10.016-0.073,20.038-0.049,30.053,0.14    c17.037,0.323,34.012-0.822,51.031-0.745c11.286,0.05,22.573,0.13,33.859,0.137c4.221,0.003,8.368-0.568,12.601-0.595    c0.465-0.003,0.934-0.011,1.403-0.022c2.87,0.284,5.793,0.167,8.637-0.01c2.602-0.162,6.25-0.164,9.279-0.976    c3.789,1.512,9.773,0.579,13.069,0.42c3.041-0.148,5.949-0.68,8.984-0.93c2.839-0.234,5.703,0.126,8.406-0.633    c2.703,0.76,5.567,0.399,8.406,0.633c3.035,0.25,5.944,0.782,8.984,0.93c3.296,0.16,9.281,1.093,13.069-0.42    c3.029,0.812,6.677,0.814,9.279,0.976c2.843,0.177,5.766,0.294,8.637,0.01c0.469,0.011,0.937,0.018,1.403,0.022    c4.232,0.027,8.38,0.598,12.601,0.595c11.286-0.007,22.572-0.087,33.858-0.137c17.018-0.076,33.993,1.069,51.031,0.745    c10.014-0.19,20.037-0.215,30.053-0.14c3.591,0.026,9.953,1.36,14.41,0.123c2.62,1.974,5.647,3.291,8.615,4.691    c3.411,1.609,6.49,3.666,9.849,5.349c5,2.505,10.691,6.537,16.483,7.425c3.59,2.148,9.495,0.907,13.193,1.033    c4.576,0.156,9.296,1.532,13.796,0.074c1.302-0.422,2.383-1.669,2.332-3.129C511.859,411.746,509.669,407.013,508.251,403.412z     M28.847,401.289c-0.822,3.04-2.146,5.798-3.14,8.76c-0.263,0.784-0.735,1.429-0.745,1.65c-1.833,0.37-4.513-0.063-6.005-0.087    c-4.221-0.071-8.387,0.701-12.587,0.831c0.29-1.394,0.823-2.878,1.048-3.926c0.496-2.306,1.1-4.461,1.952-6.664    c1.974-5.105,3.871-10.187,5.357-15.47c3-10.67,7.679-20.844,11.374-31.283c6.863-19.384,11.559-39.226,17.17-58.995    c5.915-20.84,11.068-41.902,17.046-62.749c2.633-9.183,6.239-17.969,8.529-27.289c2.545-10.355,5.957-20.485,8.762-30.77    c1.605-5.885,2.646-11.896,4.487-17.726c1.76-5.571,3.66-11.112,5.113-16.773c1.4-5.454,2.608-10.979,3.953-16.449    c1.135-4.613,2.715-9.984,2.833-14.755c0.525-1.671,1.123-3.304,1.916-4.835c2.368-4.573,7.016-4.604,11.739-4.884    c0.903-0.054,2.51-0.338,3.744-0.29c-0.238,1.273-0.689,2.454-1.365,3.538c-2.923,6.52-5.708,12.859-7.68,19.775    c-0.244,0.855-0.508,1.716-0.782,2.581c-6.225,16.661-8.954,34.373-13.253,51.716c-4.435,17.887-13.471,35.139-15.928,53.473    c-1.294,9.656-3.628,19.498-5.703,29.017c-2.413,11.064-3.752,22.423-7.498,33.18c-3.749,10.767-6.642,22.229-9.507,33.281    c-1.374,5.302-3.425,10.344-4.678,15.691c-1.524,6.499-2.737,13.064-4.393,19.531C37.163,374.809,32.469,387.888,28.847,401.289z     M61.332,353.76c-1.828,6.993-2.314,14.137-2.539,21.336c-0.13,4.142-0.442,8.276-0.064,12.407    c0.277,3.017-0.174,6.495,1.203,9.312c-2.292,0.674-4.469,1.792-6.68,2.809c-4.241,1.951-8.464,4.209-12.527,6.482    c-2.597,1.453-5.48,3.1-8.059,4.875c0.576-1.468,1.267-2.902,1.77-4.393c2.139-6.346,3.41-13.041,5.317-19.47    c3.734-12.585,7.119-24.984,9.77-37.866c2.443-11.874,6.443-23.253,9.518-34.94c5.713-21.709,11.964-43.264,15.085-65.521    c2.768-19.737,9.261-38.367,14.653-57.437c3.138-11.099,6.326-22.209,9.039-33.408c1.94-8.009,3.289-16.211,5.162-24.255    c0.13-0.395,0.261-0.79,0.395-1.183c1.854-5.431,4.576-10.377,6.769-15.644c1.383-3.32,2.72-6.506,4.199-9.699    c-0.781,4.537-1.385,9.107-2.117,13.649c-0.941,5.834-1.919,11.621-2.266,17.526c-0.86,14.616-3.981,28.844-3.969,43.498    c-1.264,0.385-2.51,0.902-3.597,1.615c-2.589,0.475-4.013,3.484-4.497,6.635c-0.415,2.698-0.064,5.456,0.094,8.145    c0.119,2.034,0.156,4.394,0.093,6.588c-3.122,1.907-6.312,3.98-9.07,6.248c-2.608,2.144-2.543,4.644-3.072,7.847    c-1.126,6.829-3.407,14.008-3.352,20.945c-3.953,2.755-5.213,6.376-5.307,11.93c-0.113,6.775-0.867,13.567-1.652,20.293    c-0.373,3.198,0.328,6.067,0.349,9.224c0.023,3.241-0.675,6.448,0.217,9.651c1.464,5.255,6.047,5.508,10.58,5.315    c-0.299,0.714-0.525,1.479-0.709,2.264c-1.907,0.375-3.862,0.166-5.532,1.685c-1.534,1.395-2.018,3.403-2.252,5.402    c-0.897,7.642-2.165,15.499-1.772,23.254c0.169,3.33,0.451,6.536,0.429,9.914c-0.017,2.648-0.789,5.454-0.728,8.133    c-0.635,0.007-1.271,0.001-1.904,0.033C68.802,347.241,62.967,347.506,61.332,353.76z M125.778,209.471    c2.416,2.127,4.817,4.541,6.091,7.47c1.171,2.691,0.703,6.363,0.924,9.404c0.252,3.469,0.297,7.052,0.286,10.569    c-1.603-0.758-3.199-1.494-4.855-2.208c-0.769-0.331-1.46-0.747-2.144-1.113c0.73-2.032,0.649-4.412,1.07-6.487    C128.244,221.705,127.96,214.938,125.778,209.471z M139.094,249.747c0.963,4.237,0.845,8.815,1.24,13.127    c0.354,3.858,0.527,8.045,0.321,11.934c-0.118,2.216-0.848,4.259-0.882,6.499c-0.032,2.101,0.563,4.482,0.082,6.546    c-0.688,2.951-2.425,2.524-5.025,2.588c-2.178,0.053-4.113-0.159-6.205-0.806c-1.936-0.6-3.541-0.853-5.565-0.812    c-2.368,0.049-4.175,0.732-3.995-2.74c0.292-5.627,7.826-3.639,11.21-3.933c1.663-0.143,2.233-2.715,0.415-3.135    c-0.003,0-0.006-0.001-0.009-0.002c-0.148-5.43-0.102-10.863-0.203-16.31c-0.05-2.687-0.245-5.375-0.237-8.051    c0.004-1.358,0.186-2.026-0.566-3.218c-0.162-0.256-0.567-0.296-0.719,0c-1.898,3.698-1.686,7.121-1.763,11.269    c-0.054,2.949,0.282,6.099-0.312,8.978c-0.463,2.247-0.713,4.356-0.814,6.639c-3.136-0.157-6.171,0.485-8.85,2.798    c-1.795,1.549-1.85,3.803-1.771,6.056c0.001,0.04,0.001,0.083,0.002,0.123c-0.95-0.157-1.892-0.085-2.978-0.068    c-1.66,0.027-3.336-0.091-4.99-0.041c-0.756,0.023-1.196,0.245-1.675,0.496c0.002-0.172,0.003-0.351,0.009-0.511    c0.078-2.251,0.023-4.505-1.772-6.056c-2.679-2.313-5.715-2.954-8.85-2.798c-0.102-2.284-0.352-4.392-0.814-6.639    c-0.592-2.879-0.257-6.029-0.312-8.978c-0.077-4.147,0.136-7.571-1.763-11.269c-0.152-0.296-0.558-0.256-0.719,0    c-0.752,1.192-0.571,1.86-0.566,3.218c0.008,2.676-0.188,5.364-0.237,8.051c-0.1,5.447-0.055,10.881-0.203,16.31    c-0.003,0.001-0.006,0.001-0.009,0.002c-1.818,0.42-1.248,2.991,0.415,3.135c3.385,0.293,10.918-1.695,11.21,3.933    c0.181,3.473-1.628,2.788-3.994,2.74c-2.024-0.042-3.629,0.212-5.565,0.812c-2.093,0.648-4.029,0.86-6.207,0.806    c-2.6-0.064-4.337,0.364-5.024-2.588c-0.481-2.065,0.114-4.445,0.082-6.546c-0.035-2.24-0.765-4.284-0.882-6.499    c-0.206-3.891-0.031-8.077,0.323-11.934c0.395-4.312,0.276-8.89,1.24-13.127c1.576-6.929,9.454-9.601,15.141-13.315    c1.907,1.285,4.544,1.643,5.801,3.452c1.797,2.588,0.009,6.509,1.245,9.279c1.058,2.374,3.428,3.222,5.737,2.506    c0.217-0.067,0.391-0.172,0.54-0.291c0.15,0.121,0.323,0.224,0.54,0.291c2.309,0.716,4.678-0.132,5.737-2.506    c1.235-2.77-0.552-6.691,1.245-9.279c1.257-1.809,3.893-2.168,5.8-3.452C129.64,240.146,137.518,242.818,139.094,249.747z     M130.404,341.179c0.348,1.07,1.124,2.529,1.626,3.931c-2.38,0.057-4.689,0.037-7.165-0.06c-2.347-0.092-5.404-0.093-7.962-0.584    c0.003-3.375,2.466-5.424,2.864-8.782c0.498-4.207,0.323-9.013,0.123-13.242c-0.216-4.569-0.194-9.288-0.803-13.836    c-0.571-4.265-0.376-11.192,2.309-14.587c0.033-0.043,0.058-0.087,0.087-0.13c0.547-0.046,1.082-0.09,1.577-0.077    c1.843,0.047,3.561,0.619,5.286,1.196c1.581,0.828,2.839,1.878,3.452,4.225c0.641,2.456,0.455,5.037,0.491,7.541    c0.066,4.539-0.823,8.879-1.219,13.427c-0.397,4.553-1.546,9.107-1.751,13.661C129.205,336.406,129.621,338.779,130.404,341.179z     M105.803,295.08c0.057,0.013,0.155,0.03,0.328,0.055c0.625,0.091,1.15,0.327,1.835,0.352c2.387,0.087,5.283,0.338,7.848-0.186    c-0.297,0.916-0.437,1.911-0.533,2.963c-0.005-0.002-0.009-0.005-0.014-0.008c-1.743-0.684-3.629,0.28-5.451,0.08    c-1.399-0.153-2.575-0.239-3.821,0.07c-0.1-1.192-0.255-2.313-0.617-3.33C105.587,295.083,105.72,295.083,105.803,295.08z     M105.501,291.353c0.126-0.465,0.187-0.97,0.227-1.479c0.581-0.083,1.237-0.329,1.753-0.325c2.528,0.017,5.494,0.708,8.034,0.146    c0.05,0.723,0.15,1.438,0.38,2.061c-3.159-0.326-6.367-0.281-9.476-0.463C106.093,291.275,105.793,291.305,105.501,291.353z     M105.469,328.062c0.021-3.076,0.263-5.999,0.548-9.049c0.313-3.336-0.126-6.614,0.271-9.979c0.283-2.39,0.251-4.616-0.01-7.021    c-0.024-0.216-0.041-0.428-0.06-0.642c1.298,0.417,2.728,0.724,3.967,0.838c1.469,0.136,3.393,0.036,4.832-0.586    c-0.013,0.131-0.023,0.259-0.037,0.389c-0.261,2.405-0.292,4.631-0.01,7.021c0.398,3.363-0.041,6.642,0.272,9.979    c0.285,3.049,0.529,5.972,0.548,9.049c0.018,2.728,0.635,6.623-0.684,8.967c-1.654,2.937-3.173,5.321-3.204,8.62    c-0.769-0.016-1.542-0.044-2.321-0.091c-0.077-0.004-0.154-0.001-0.231-0.005c-0.06-3.248-1.562-5.615-3.198-8.523    C104.834,334.685,105.452,330.79,105.469,328.062z M90.191,320.202c-0.396-4.548-1.285-8.888-1.219-13.427    c0.036-2.505-0.15-5.086,0.491-7.541c0.613-2.348,1.87-3.397,3.452-4.225c1.726-0.577,3.443-1.149,5.286-1.196    c0.496-0.013,1.03,0.029,1.577,0.077c0.029,0.043,0.054,0.087,0.087,0.131c2.686,3.395,2.88,10.322,2.309,14.587    c-0.608,4.548-0.587,9.267-0.804,13.836c-0.2,4.228-0.375,9.034,0.123,13.242c0.397,3.357,2.861,5.407,2.864,8.782    c-2.557,0.491-5.615,0.492-7.962,0.584c-2.477,0.096-4.787,0.118-7.165,0.06c0.5-1.4,1.276-2.861,1.626-3.931    c0.783-2.399,1.199-4.773,1.085-7.314C91.737,329.309,90.588,324.756,90.191,320.202z M94.111,227.105    c0.421,2.075,0.339,4.455,1.07,6.487c-0.684,0.366-1.376,0.782-2.144,1.113c-1.95,0.84-3.817,1.709-5.708,2.611    c0.673-4.778,0.423-9.737,1.266-14.527c0.677-3.85,1.243-7.359,3.908-10.313c0.906-1.004,1.895-1.91,2.902-2.797    C93.296,215.109,93.031,221.773,94.111,227.105z M113.702,243.205c-0.225,1.058-0.44,1.917-0.547,2.259    c-0.341,1.101-0.729,2.102-1.812,2.48c-0.727,0.253-1.816,0.09-2.68-0.263c-1.969-2.276-0.515-6.712-1.387-9.756    c0.099-0.868,0.333-1.655,1.011-2.173c1.54-1.178,3.307-0.62,5.016-0.161c0.167,0.205,0.397,0.361,0.644,0.453    c0.24,0.09,0.379,0.412,0.448,0.876c-0.018,0.031-0.041,0.059-0.057,0.091C113.455,238.679,113.693,241.022,113.702,243.205z     M122.456,227.452c-0.667,3.194-0.402,4.711-3.498,6.091c-0.774,0.345-1.626,0.749-2.412,1.25c-0.015-0.139-0.05-0.278-0.129-0.41    c-1.708-2.824-7.06-2.73-9.487-1c-0.667,0.476-1.155,1.148-1.494,1.918c-0.957-0.754-2.115-1.304-3.135-1.758    c-3.096-1.38-2.831-2.896-3.498-6.091c-1.182-5.666-2.29-12.56,0.317-18.048c1.251-2.633,3.276-3.909,5.541-4.854    c-0.551,3.094,0.017,7.676,3.142,7.793c1.897,0.071,4.411,0.987,6.204,0.014c1.525-0.828,1.937-2.593,2.029-4.22    c0.072-1.27-0.074-2.552-0.288-3.801c-0.008-0.043-0.013-0.087-0.019-0.13c2.609,0.988,4.998,2.235,6.407,5.199    C124.746,214.892,123.638,221.786,122.456,227.452z M107.461,204.418c0.255-1.032,0.785-1.217,1.746-1.395    c0.572-0.107,1.425-0.321,2.134-0.308c0.058,0.08,0.132,0.154,0.223,0.219c0.265,0.188,0.596,0.187,0.83,0.341    c0.355,0.235,0.236-0.023,0.475,0.518c0.438,0.99,0.397,2.559,0.392,3.635c-0.005,1.074,0.068,2.267-1.163,2.446    c-1.046,0.152-2.273-0.437-3.342-0.482c-0.41-0.017-0.75,0.099-0.98-0.146c-0.176-0.187-0.196-0.854-0.243-1.151    C107.363,207.003,107.195,205.496,107.461,204.418z M119.702,202.015c-0.672-0.366-1.38-0.686-2.129-0.961    c-1.478-0.54-3.27-1.11-4.859-1.16c-0.138-0.004-2.134,0.045-2.066,0.417c-0.005,0.005-0.012,0.012-0.017,0.018    c-0.005-0.006-0.012-0.012-0.017-0.018c0.068-0.373-1.929-0.422-2.066-0.417c-1.588,0.049-3.382,0.619-4.859,1.16    c-0.75,0.274-1.457,0.595-2.129,0.961c0.224-1.295,0.291-2.611,0.216-3.75c-0.271-4.07-1.376-8.856,2.103-11.32    c1.916-0.723,3.842-1.737,5.83-1.949c2.158-0.232,4.088,0.452,6.052,1.031c0.091,0.071,0.188,0.132,0.29,0.174    c5.092,2.117,3.739,7.54,3.438,12.065C119.411,199.403,119.479,200.72,119.702,202.015z M80.465,327.56    c-0.149-5.956-0.182-12.094,0.225-18.015c0.259-3.756-0.184-6.147,4.325-8.121c0.2-0.087,0.393-0.156,0.588-0.228    c-0.113,0.892-0.196,1.781-0.274,2.631c-0.255,2.792-0.781,5.289-0.603,8.076c0.407,6.334,0.654,12.705,1.382,19.041    c0.428,3.721,0.299,6.961-0.968,10.548c-0.672,1.905-1.37,3.287-1.468,5.034c-0.543,0.033-1.088,0.043-1.649-0.014    c-1.662-0.171-1.061,0.984-1.503-0.662c-0.191-0.712,0.427-2.659,0.485-3.355C81.428,337.45,80.589,332.515,80.465,327.56z     M226.029,370.492c-0.013,4.307-0.545,8.474-0.7,12.749c-0.064,1.76,0.299,3.844-0.077,5.56c-0.703,3.213-1.664,2.632-4.798,3.075    c-1.343,0.19-2.671,0.367-3.993,0.556c-7.844-0.719-15.885,0.663-23.703,0.627c-10.295-0.049-20.59,0.03-30.885,0.079    c-19.086,0.09-38.046,1.766-57.165,1.576c-10.758-0.107-21.584,0.44-32.333-0.058c-1.706-0.08-3.844,0.108-5.3-1.029    c-1.458-1.139-1.189-1.338-1.406-3.672c-0.434-4.665-0.839-9.202-0.987-13.898c-0.134-4.242-0.488-8.533-0.369-12.763    c0.059-2.145-0.038-4.583,0.7-6.615c1.41-3.882,3.747-3.867,7.167-4.337c2.635-0.362,5.283-0.494,7.936-0.613    c1.358,0.181,2.907,0.027,4.385-0.228c0.222-0.014,0.444-0.022,0.667-0.038c0.752-0.053,1.455-0.15,2.142-0.264    c1.945,0.015,3.936-0.305,6.001-0.228c5.149,0.192,10.253-1.012,15.355-0.778c3.097,0.141,6.129,0.778,9.245,0.658    c1.989-0.076,3.95-0.286,5.923-0.427c2.301,0.169,4.538,0.095,6.785-0.016c0.177,0.011,0.353,0.021,0.53,0.031    c0.488,0.115,1.009,0.186,1.632,0.201c0.095,0.038,0.185,0.08,0.293,0.101c2.617,0.534,7.124,1.791,9.793,0.489    c3.467,0.022,6.924,0.019,10.392,0.16c0.949,0.038,1.824,0.159,2.648,0.218c2.371,0.564,5.576-0.174,7.877-0.678    c5.014,0.033,10.026,0.079,15.034,0.09c5.962,0.013,11.968,0.26,17.926,0.065c3.253-0.107,6.752,0.505,9.897-0.387    c1.412,0.121,2.829,0.233,4.248,0.334c2.417,0.53,5.614,1.18,7.869,0.434c0.91,0.037,1.827,0.083,2.729,0.108    c2.427,0.068,2.544-0.456,3.22,2.054c0.37,1.372,0.594,2.914,0.844,4.33C226.236,361.872,226.041,366.5,226.029,370.492z     M135.932,303.828c-0.078-0.851-0.161-1.739-0.274-2.631c0.194,0.071,0.387,0.141,0.587,0.228c4.51,1.974,4.066,4.365,4.325,8.121    c0.408,5.921,0.373,12.058,0.225,18.015c-0.123,4.955-0.963,9.889-0.541,14.936c0.056,0.674,0.633,2.516,0.494,3.277    c-1.095-0.009-2.193-0.051-3.292-0.11c-0.235-1.363-0.779-2.595-1.335-4.17c-1.266-3.588-1.396-6.827-0.968-10.548    c0.729-6.335,0.975-12.708,1.382-19.041C136.713,309.116,136.186,306.62,135.932,303.828z M161.197,311.903    c0.407,6.334,0.653,12.705,1.382,19.041c0.427,3.721,0.299,6.961-0.968,10.548c-0.545,1.541-1.087,2.748-1.333,4.075    c-1.106,0-2.21,0.009-3.316,0.012c-0.031-0.845,0.464-2.461,0.516-3.084c0.422-5.047-0.417-9.981-0.54-14.936    c-0.149-5.956-0.182-12.094,0.224-18.015c0.259-3.756-0.184-6.147,4.325-8.121c0.2-0.087,0.394-0.156,0.588-0.228    c-0.113,0.892-0.196,1.781-0.274,2.631C161.545,306.62,161.019,309.116,161.197,311.903z M157.076,274.808    c-0.206-3.891-0.031-8.077,0.321-11.934c0.395-4.313,0.276-8.89,1.24-13.127c1.576-6.929,9.454-9.601,15.141-13.315    c1.907,1.285,4.544,1.643,5.801,3.452c1.797,2.588,0.009,6.509,1.245,9.279c1.059,2.374,3.428,3.222,5.737,2.506    c0.218-0.067,0.39-0.172,0.54-0.291c0.15,0.121,0.323,0.224,0.54,0.291c2.309,0.716,4.678-0.132,5.737-2.506    c1.235-2.77-0.552-6.691,1.245-9.279c1.257-1.809,3.894-2.168,5.801-3.452c5.687,3.715,13.565,6.387,15.141,13.315    c0.963,4.237,0.845,8.815,1.24,13.127c0.354,3.858,0.527,8.045,0.321,11.934c-0.118,2.216-0.848,4.259-0.882,6.499    c-0.032,2.101,0.563,4.482,0.082,6.546c-0.688,2.951-2.425,2.524-5.025,2.588c-2.178,0.053-4.114-0.159-6.206-0.806    c-1.936-0.6-3.541-0.853-5.565-0.812c-2.368,0.049-4.175,0.732-3.995-2.74c0.292-5.627,7.826-3.639,11.21-3.933    c1.663-0.143,2.233-2.715,0.415-3.135c-0.003,0-0.006-0.001-0.009-0.002c-0.148-5.43-0.102-10.863-0.203-16.31    c-0.05-2.687-0.245-5.375-0.237-8.051c0.003-1.358,0.186-2.026-0.566-3.218c-0.161-0.256-0.567-0.296-0.719,0    c-1.898,3.698-1.686,7.121-1.763,11.269c-0.054,2.949,0.282,6.099-0.312,8.978c-0.463,2.247-0.713,4.356-0.814,6.639    c-3.136-0.157-6.171,0.485-8.85,2.798c-1.795,1.549-1.85,3.803-1.772,6.056c0.001,0.04,0.002,0.083,0.003,0.123    c-0.95-0.157-1.892-0.085-2.978-0.068c-1.66,0.027-3.336-0.091-4.99-0.041c-0.756,0.023-1.196,0.245-1.675,0.496    c0.002-0.172,0.003-0.351,0.009-0.511c0.078-2.251,0.023-4.505-1.772-6.056c-2.679-2.313-5.715-2.954-8.85-2.798    c-0.102-2.284-0.352-4.392-0.814-6.639c-0.593-2.879-0.257-6.029-0.312-8.978c-0.077-4.147,0.136-7.571-1.763-11.269    c-0.152-0.296-0.558-0.256-0.719,0c-0.752,1.192-0.57,1.86-0.566,3.218c0.008,2.676-0.188,5.364-0.237,8.051    c-0.1,5.447-0.055,10.881-0.203,16.31c-0.003,0.001-0.006,0.001-0.009,0.002c-1.818,0.42-1.248,2.991,0.415,3.135    c3.385,0.293,10.918-1.695,11.21,3.933c0.181,3.473-1.628,2.788-3.994,2.74c-2.024-0.042-3.629,0.212-5.565,0.812    c-2.093,0.648-4.028,0.86-6.206,0.806c-2.6-0.064-4.337,0.364-5.025-2.588c-0.481-2.065,0.114-4.445,0.082-6.546    C157.924,279.068,157.194,277.024,157.076,274.808z M170.582,227.105c0.421,2.075,0.339,4.455,1.07,6.487    c-0.684,0.366-1.376,0.782-2.144,1.113c-1.95,0.84-3.816,1.709-5.708,2.611c0.673-4.778,0.423-9.737,1.266-14.527    c0.677-3.85,1.244-7.359,3.908-10.313c0.906-1.004,1.895-1.91,2.903-2.797C169.767,215.109,169.502,221.773,170.582,227.105z     M196.173,202.015c-0.672-0.366-1.38-0.686-2.129-0.961c-1.478-0.54-3.27-1.11-4.859-1.16c-0.138-0.004-2.134,0.045-2.066,0.417    c-0.005,0.005-0.012,0.012-0.017,0.018c-0.005-0.006-0.012-0.012-0.017-0.018c0.068-0.373-1.929-0.422-2.066-0.417    c-1.588,0.049-3.382,0.619-4.859,1.16c-0.75,0.274-1.457,0.595-2.129,0.961c0.223-1.295,0.291-2.611,0.215-3.75    c-0.271-4.07-1.376-8.856,2.103-11.32c1.916-0.723,3.842-1.737,5.83-1.949c2.158-0.232,4.088,0.452,6.052,1.031    c0.091,0.071,0.188,0.132,0.29,0.174c5.092,2.117,3.739,7.54,3.438,12.065C195.882,199.403,195.948,200.72,196.173,202.015z     M189.73,207.428c-0.005,1.074,0.068,2.267-1.164,2.446c-1.045,0.152-2.273-0.437-3.342-0.482c-0.41-0.017-0.75,0.099-0.981-0.146    c-0.176-0.187-0.197-0.854-0.243-1.151c-0.168-1.092-0.337-2.598-0.07-3.677c0.255-1.032,0.785-1.217,1.746-1.395    c0.572-0.107,1.425-0.321,2.134-0.308c0.058,0.08,0.132,0.154,0.223,0.219c0.264,0.188,0.596,0.187,0.829,0.341    c0.355,0.235,0.236-0.023,0.476,0.518C189.778,204.783,189.735,206.352,189.73,207.428z M181.134,204.55    c-0.551,3.094,0.017,7.676,3.142,7.793c1.897,0.071,4.411,0.987,6.204,0.014c1.525-0.828,1.937-2.593,2.029-4.22    c0.072-1.27-0.074-2.552-0.288-3.801c-0.008-0.043-0.013-0.087-0.019-0.13c2.61,0.988,5,2.235,6.407,5.199    c2.607,5.489,1.499,12.382,0.317,18.048c-0.667,3.194-0.402,4.711-3.498,6.091c-0.773,0.345-1.627,0.749-2.411,1.25    c-0.015-0.139-0.05-0.278-0.129-0.41c-1.708-2.824-7.061-2.73-9.487-1c-0.667,0.476-1.155,1.148-1.494,1.918    c-0.956-0.754-2.114-1.304-3.135-1.758c-3.096-1.38-2.831-2.896-3.498-6.091c-1.182-5.666-2.29-12.56,0.317-18.048    C176.843,206.771,178.869,205.495,181.134,204.55z M190.172,243.205c-0.225,1.058-0.44,1.917-0.547,2.259    c-0.342,1.101-0.729,2.102-1.812,2.48c-0.727,0.253-1.816,0.09-2.68-0.263c-1.967-2.276-0.515-6.712-1.387-9.756    c0.099-0.868,0.333-1.655,1.011-2.173c1.54-1.178,3.307-0.62,5.016-0.161c0.166,0.205,0.397,0.361,0.644,0.453    c0.241,0.09,0.379,0.412,0.448,0.876c-0.017,0.031-0.041,0.059-0.057,0.091C189.926,238.679,190.164,241.022,190.172,243.205z     M202.249,209.471c2.416,2.127,4.817,4.541,6.091,7.47c1.171,2.691,0.703,6.363,0.924,9.404c0.252,3.469,0.297,7.052,0.286,10.569    c-1.603-0.758-3.199-1.494-4.855-2.208c-0.768-0.331-1.461-0.747-2.144-1.113c0.73-2.032,0.649-4.412,1.07-6.487    C204.715,221.705,204.43,214.938,202.249,209.471z M206.874,341.179c0.348,1.07,1.124,2.529,1.626,3.931    c-2.378,0.057-4.689,0.037-7.166-0.06c-2.347-0.092-5.404-0.093-7.961-0.584c0.003-3.375,2.467-5.424,2.864-8.782    c0.498-4.207,0.323-9.013,0.123-13.242c-0.216-4.569-0.194-9.288-0.802-13.836c-0.571-4.265-0.376-11.192,2.309-14.587    c0.033-0.043,0.058-0.087,0.087-0.13c0.547-0.046,1.082-0.09,1.577-0.077c1.843,0.047,3.561,0.619,5.286,1.196    c1.581,0.828,2.839,1.878,3.452,4.225c0.641,2.456,0.455,5.037,0.491,7.541c0.066,4.539-0.823,8.879-1.219,13.427    c-0.397,4.553-1.546,9.107-1.751,13.661C205.676,336.406,206.092,338.779,206.874,341.179z M182.274,295.08    c0.057,0.013,0.155,0.03,0.328,0.055c0.625,0.091,1.151,0.327,1.836,0.352c2.386,0.087,5.283,0.338,7.848-0.186    c-0.297,0.916-0.437,1.911-0.533,2.963c-0.005-0.002-0.009-0.005-0.013-0.008c-1.743-0.684-3.629,0.28-5.451,0.08    c-1.399-0.153-2.575-0.239-3.821,0.07c-0.101-1.192-0.255-2.313-0.617-3.33C182.058,295.083,182.191,295.083,182.274,295.08z     M181.971,291.353c0.126-0.465,0.187-0.97,0.227-1.479c0.581-0.083,1.237-0.329,1.753-0.325c2.528,0.017,5.494,0.708,8.034,0.146    c0.05,0.723,0.15,1.438,0.38,2.061c-3.159-0.326-6.367-0.281-9.477-0.463C182.562,291.275,182.264,291.305,181.971,291.353z     M181.94,328.062c0.02-3.076,0.263-5.999,0.548-9.049c0.312-3.336-0.126-6.614,0.271-9.979c0.283-2.39,0.251-4.616-0.01-7.021    c-0.024-0.216-0.041-0.428-0.06-0.642c1.298,0.417,2.728,0.724,3.967,0.838c1.47,0.136,3.393,0.036,4.832-0.586    c-0.012,0.131-0.023,0.259-0.037,0.389c-0.261,2.405-0.292,4.631-0.01,7.021c0.398,3.363-0.041,6.642,0.271,9.979    c0.286,3.049,0.529,5.972,0.549,9.049c0.018,2.728,0.635,6.623-0.684,8.967c-1.591,2.826-3.046,5.147-3.183,8.256    c-0.865,0.04-1.726,0.082-2.582,0.124c-0.102-3.172-1.578-5.516-3.19-8.38C181.305,334.685,181.922,330.79,181.94,328.062z     M166.662,320.202c-0.396-4.548-1.285-8.888-1.219-13.427c0.036-2.505-0.15-5.086,0.491-7.541c0.613-2.348,1.87-3.397,3.452-4.225    c1.726-0.577,3.443-1.149,5.286-1.196c0.496-0.013,1.03,0.029,1.577,0.077c0.029,0.043,0.054,0.087,0.087,0.131    c2.686,3.395,2.88,10.322,2.309,14.587c-0.608,4.548-0.587,9.267-0.803,13.836c-0.2,4.228-0.375,9.034,0.123,13.242    c0.397,3.357,2.861,5.407,2.864,8.782c-2.557,0.491-5.614,0.492-7.962,0.584c-2.477,0.096-4.787,0.118-7.165,0.06    c0.5-1.4,1.276-2.861,1.624-3.931c0.783-2.399,1.199-4.773,1.085-7.314C168.208,329.309,167.059,324.756,166.662,320.202z     M212.403,303.828c-0.078-0.851-0.162-1.739-0.274-2.631c0.194,0.071,0.388,0.141,0.587,0.228c4.51,1.974,4.067,4.365,4.325,8.121    c0.408,5.921,0.373,12.058,0.225,18.015c-0.124,4.955-0.962,9.889-0.54,14.936c0.057,0.687,0.658,2.593,0.489,3.324    c-1.082-0.094-2.17-0.159-3.276-0.163c-0.237-1.362-0.79-2.59-1.346-4.165c-1.266-3.588-1.396-6.827-0.968-10.548    c0.729-6.335,0.975-12.708,1.382-19.041C213.184,309.116,212.657,306.62,212.403,303.828z M267.747,338.066    c-0.027,3.098-0.177,6.131-0.598,9.203c-1.28,9.35-1.947,18.73-1.073,28.187c0.375,4.056-1.294,10.702-0.469,15.772    c-6.404-0.27-12.784-0.271-19.217,0c0.825-5.071-0.844-11.717-0.469-15.772c0.875-9.458,0.207-18.838-1.073-28.187    c-0.421-3.071-0.571-6.105-0.598-9.203c-0.013-1.564-0.631-6.346,0.239-7.141c1.865-1.702,8.174-0.706,11.508-0.89    c3.334,0.182,9.643-0.812,11.508,0.89C268.378,331.72,267.761,336.502,267.747,338.066z M280.2,385.744    c-0.017,2.141-0.086,4.747,0.539,6.999c-1.094-0.155-2.192-0.279-3.294-0.341c-2.516-0.139-5.625,0.517-6.886-2.171    c-1.001-2.134-0.366-6.152-0.046-8.381c0.585-4.078-0.015-7.995-0.059-12.115c-0.053-4.925,0.413-9.564,0.951-14.446    c0.52-4.72,1.128-9.558,1.3-14.328c0.123-3.444,1.136-9.003-0.153-12.25c-1.902-4.79-11.821-4.029-16.552-3.195    c-4.732-0.834-14.651-1.595-16.552,3.195c-1.288,3.247-0.276,8.806-0.152,12.25c0.172,4.77,0.779,9.609,1.299,14.328    c0.537,4.882,1.003,9.521,0.951,14.446c-0.044,4.12-0.644,8.038-0.059,12.115c0.319,2.229,0.954,6.248-0.046,8.381    c-1.262,2.688-4.37,2.032-6.886,2.171c-1.102,0.062-2.199,0.186-3.294,0.341c0.626-2.252,0.557-4.858,0.539-6.999    c-0.047-5.801,0.666-11.492,0.317-17.324c-0.263-4.416-0.798-8.842-1.679-13.172c2.288-10.61-0.45-21.899,1.107-32.509    c0.198-1.354,0.312-5.243,1.509-6.349c1.335-1.233,6.169-0.875,7.775-0.98c3.321-0.218,6.6-1.191,9.935-1.179    c3.621,0.013,7.254,0.215,10.86,0.178c3.195-0.033,6.34,0.791,9.55,1.001c1.606,0.106,6.44-0.252,7.775,0.981    c1.197,1.106,1.311,4.995,1.509,6.349c1.556,10.612-1.181,21.9,1.107,32.509c-0.88,4.331-1.416,8.756-1.679,13.172    C279.534,374.251,280.247,379.943,280.2,385.744z M285.975,333.526c0.557-5.95,0.905-13.546-1.943-19.017    c-2.622-5.038-9.647-4.378-14.507-4.696c-1.918-0.126-5.185-0.675-8.145-0.544c-3.12-0.177-6.369,0.098-9.316,0.004    c-2.349-0.076-5.707-0.353-8.37,0.428c-0.445,0.046-0.861,0.087-1.222,0.111c-4.859,0.318-11.885-0.341-14.507,4.696    c-2.848,5.471-2.498,13.067-1.943,19.017c0.372,3.982,0.044,7.846,0.174,11.85c0.01,0.321,0.012,0.643,0.009,0.964    c-1.536-0.523-3.119-0.176-4.698-0.214c-0.08-2.436-0.7-4.949-0.716-7.337c-0.023-3.378,0.26-6.585,0.429-9.914    c0.393-7.753-0.875-15.61-1.772-23.254c-0.234-2-0.717-4.007-2.252-5.402c-1.671-1.52-3.625-1.309-5.532-1.685    c-0.183-0.785-0.41-1.55-0.709-2.264c4.534,0.194,9.117-0.059,10.58-5.315c0.892-3.203,0.194-6.408,0.217-9.651    c0.023-3.156,0.724-6.024,0.351-9.224c-0.785-6.725-1.539-13.518-1.652-20.293c-0.105-6.252-1.673-10.059-6.914-12.934    c-0.191-4.235-0.344-8.53-0.668-12.751c-0.209-2.739-0.07-6.456-0.94-9.089c-1.906-5.777-7.968-8.891-12.283-12.374    c-0.057-2.143-0.019-4.43,0.096-6.41c0.157-2.689,0.509-5.447,0.094-8.145c-0.33-2.145-1.096-4.224-2.368-5.485    c-0.092-0.395-0.326-0.752-0.743-0.969c-3.402-1.771-7.212-3.07-11.06-2.512c-2.218,0.321-4.782,1.009-6.8,2.331    c-2.589,0.475-4.013,3.484-4.497,6.635c-0.415,2.698-0.064,5.456,0.094,8.145c0.119,2.034,0.156,4.394,0.093,6.588    c-3.122,1.907-6.312,3.98-9.069,6.248c-2.608,2.144-2.543,4.644-3.072,7.847c-1.126,6.829-3.407,14.008-3.352,20.945    c-3.953,2.755-5.213,6.376-5.306,11.93c-0.113,6.775-0.867,13.567-1.652,20.293c-0.373,3.198,0.328,6.067,0.351,9.224    c0.023,3.241-0.675,6.448,0.217,9.651c1.464,5.255,6.048,5.508,10.58,5.315c-0.3,0.714-0.525,1.479-0.709,2.264    c-1.907,0.375-3.862,0.166-5.532,1.685c-1.535,1.395-2.018,3.403-2.252,5.402c-0.897,7.642-2.165,15.499-1.772,23.254    c0.168,3.33,0.451,6.536,0.429,9.914c-0.014,2.214-0.537,4.536-0.678,6.805c-2.575,0.019-5.147,0.067-7.721,0.121    c-0.127-2.306-0.676-4.672-0.691-6.926c-0.023-3.378,0.26-6.585,0.429-9.914c0.394-7.753-0.875-15.61-1.771-23.254    c-0.234-2-0.718-4.007-2.252-5.402c-1.672-1.52-3.625-1.31-5.532-1.685c-0.183-0.785-0.41-1.55-0.709-2.264    c4.534,0.194,9.117-0.059,10.581-5.315c0.892-3.203,0.194-6.408,0.217-9.651c0.023-3.156,0.724-6.024,0.351-9.224    c-0.786-6.725-1.539-13.518-1.653-20.293c-0.105-6.252-1.673-10.06-6.915-12.934c-0.191-4.235-0.344-8.53-0.667-12.751    c-0.209-2.739-0.071-6.456-0.94-9.089c-1.906-5.777-7.968-8.891-12.283-12.374c-0.057-2.143-0.019-4.43,0.096-6.41    c0.157-2.689,0.509-5.447,0.094-8.145c-0.33-2.145-1.096-4.224-2.368-5.485c-0.092-0.395-0.326-0.752-0.743-0.969    c-2.734-1.424-5.734-2.524-8.804-2.618c0.184-14.319,2.528-28.345,3.423-42.676c0.367-5.879,1.413-11.675,2.001-17.526    c0.478-4.755,0.855-9.533,1.565-14.258c0.284-1.888,0.567-3.739,0.634-5.597c2.109,0.253,4.238,0.328,6.234,0.298    c5.002-0.077,10.207-0.526,15.204-0.838c11.917-0.742,23.903-0.441,35.858-0.448c5.257-0.002,10.601-0.297,15.846,0.077    c4.783,0.34,9.317-0.505,14.085-0.276c7.588,0.363,15.509,0.705,23.208,0.05c7.299-0.234,14.675,0.086,21.988,0.157    c12.658,0.123,25.372,0.731,38.031,0.189c5.428,0.095,10.883-0.142,16.174-0.396c4.768-0.229,9.302,0.616,14.085,0.276    c5.246-0.373,10.589-0.079,15.846-0.077c11.955,0.006,23.94-0.294,35.858,0.448c4.996,0.311,10.201,0.762,15.204,0.838    c1.995,0.03,4.125-0.045,6.234-0.298c0.066,1.859,0.349,3.711,0.633,5.597c0.71,4.724,1.087,9.503,1.566,14.258    c0.588,5.851,1.633,11.647,2,17.526c0.894,14.33,3.239,28.356,3.424,42.676c-3.07,0.094-6.07,1.195-8.804,2.618    c-0.417,0.217-0.653,0.574-0.743,0.969c-1.272,1.26-2.038,3.338-2.368,5.485c-0.415,2.698-0.064,5.456,0.094,8.145    c0.115,1.979,0.153,4.267,0.096,6.41c-4.315,3.483-10.377,6.598-12.283,12.374c-0.868,2.633-0.73,6.35-0.94,9.089    c-0.323,4.22-0.476,8.516-0.667,12.751c-5.241,2.875-6.81,6.682-6.915,12.934c-0.113,6.775-0.867,13.567-1.653,20.293    c-0.374,3.198,0.328,6.067,0.349,9.224c0.023,3.241-0.675,6.448,0.217,9.651c1.464,5.255,6.047,5.508,10.581,5.315    c-0.3,0.714-0.525,1.479-0.709,2.264c-1.907,0.375-3.862,0.166-5.532,1.685c-1.534,1.395-2.018,3.403-2.252,5.402    c-0.897,7.642-2.165,15.499-1.771,23.254c0.168,3.33,0.451,6.536,0.429,9.914c-0.015,2.254-0.563,4.62-0.691,6.926    c-2.573-0.055-5.146-0.101-7.721-0.121c-0.141-2.268-0.664-4.591-0.678-6.805c-0.023-3.378,0.26-6.585,0.429-9.914    c0.393-7.753-0.875-15.61-1.772-23.254c-0.234-2-0.718-4.007-2.252-5.402c-1.671-1.52-3.625-1.31-5.532-1.685    c-0.183-0.785-0.41-1.55-0.709-2.264c4.534,0.194,9.117-0.059,10.581-5.315c0.892-3.203,0.194-6.408,0.217-9.651    c0.022-3.156,0.724-6.024,0.349-9.224c-0.785-6.725-1.539-13.518-1.653-20.293c-0.093-5.554-1.354-9.175-5.306-11.93    c0.055-6.937-2.226-14.116-3.352-20.945c-0.529-3.204-0.464-5.703-3.072-7.847c-2.758-2.267-5.948-4.342-9.069-6.248    c-0.064-2.193-0.026-4.554,0.093-6.588c0.157-2.689,0.509-5.447,0.094-8.145c-0.484-3.152-1.908-6.16-4.497-6.635    c-2.019-1.322-4.582-2.01-6.8-2.331c-3.849-0.558-7.658,0.741-11.06,2.512c-0.417,0.217-0.652,0.574-0.743,0.969    c-1.272,1.26-2.038,3.338-2.368,5.485c-0.415,2.698-0.064,5.456,0.094,8.145c0.115,1.979,0.153,4.267,0.096,6.41    c-4.315,3.483-10.377,6.598-12.283,12.374c-0.868,2.633-0.73,6.35-0.94,9.089c-0.323,4.22-0.476,8.516-0.668,12.751    c-5.241,2.875-6.81,6.682-6.914,12.934c-0.113,6.775-0.867,13.567-1.652,20.293c-0.373,3.198,0.328,6.067,0.351,9.224    c0.023,3.241-0.675,6.448,0.217,9.651c1.464,5.255,6.047,5.508,10.58,5.315c-0.3,0.714-0.525,1.479-0.709,2.264    c-1.907,0.375-3.862,0.166-5.532,1.685c-1.535,1.395-2.018,3.403-2.252,5.402c-0.897,7.642-2.165,15.499-1.772,23.254    c0.168,3.33,0.451,6.536,0.429,9.914c-0.015,2.387-0.636,4.901-0.716,7.337c-1.578,0.038-3.162-0.31-4.698,0.214    c-0.003-0.321-0.001-0.643,0.009-0.964C285.931,341.372,285.602,337.508,285.975,333.526z M416.594,209.679    c1.006,0.887,1.997,1.793,2.902,2.797c2.665,2.954,3.231,6.462,3.908,10.313c0.844,4.79,0.593,9.749,1.266,14.527    c-1.892-0.903-3.759-1.771-5.708-2.611c-0.769-0.331-1.461-0.747-2.144-1.113c0.73-2.032,0.649-4.412,1.069-6.487    C418.966,221.773,418.7,215.109,416.594,209.679z M429.83,249.747c0.963,4.237,0.845,8.815,1.24,13.127    c0.354,3.858,0.528,8.045,0.321,11.934c-0.118,2.216-0.848,4.259-0.882,6.499c-0.032,2.101,0.563,4.482,0.082,6.546    c-0.688,2.951-2.425,2.524-5.025,2.588c-2.178,0.053-4.114-0.159-6.205-0.806c-1.936-0.6-3.542-0.853-5.565-0.812    c-2.368,0.049-4.175,0.732-3.995-2.74c0.292-5.627,7.826-3.639,11.21-3.933c1.663-0.143,2.233-2.715,0.415-3.135    c-0.003,0-0.006-0.001-0.01-0.002c-0.148-5.43-0.102-10.863-0.203-16.31c-0.05-2.687-0.245-5.375-0.236-8.051    c0.003-1.358,0.186-2.026-0.566-3.218c-0.162-0.256-0.567-0.296-0.719,0c-1.898,3.698-1.686,7.121-1.763,11.269    c-0.055,2.949,0.281,6.099-0.312,8.978c-0.463,2.247-0.712,4.356-0.814,6.639c-3.136-0.157-6.171,0.485-8.85,2.798    c-1.795,1.549-1.85,3.803-1.772,6.056c0.005,0.16,0.006,0.34,0.009,0.511c-0.479-0.251-0.919-0.474-1.675-0.496    c-1.654-0.051-3.33,0.068-4.99,0.041c-1.086-0.017-2.028-0.09-2.978,0.068c0.001-0.04,0.001-0.083,0.002-0.123    c0.079-2.251,0.023-4.506-1.771-6.056c-2.679-2.313-5.715-2.954-8.85-2.798c-0.102-2.284-0.352-4.392-0.814-6.639    c-0.593-2.879-0.257-6.029-0.312-8.978c-0.077-4.147,0.136-7.571-1.763-11.269c-0.152-0.296-0.559-0.256-0.719,0    c-0.752,1.192-0.571,1.86-0.566,3.218c0.008,2.676-0.188,5.364-0.237,8.051c-0.1,5.447-0.055,10.881-0.203,16.31    c-0.002,0.001-0.005,0.001-0.009,0.002c-1.818,0.42-1.249,2.991,0.415,3.135c3.385,0.293,10.918-1.695,11.21,3.933    c0.181,3.473-1.628,2.788-3.994,2.74c-2.024-0.042-3.629,0.212-5.565,0.812c-2.093,0.648-4.029,0.86-6.206,0.806    c-2.601-0.064-4.337,0.364-5.025-2.588c-0.481-2.065,0.114-4.445,0.082-6.546c-0.035-2.24-0.765-4.284-0.882-6.499    c-0.206-3.891-0.031-8.077,0.321-11.934c0.395-4.312,0.277-8.89,1.24-13.127c1.576-6.929,9.454-9.601,15.141-13.315    c1.907,1.285,4.544,1.643,5.801,3.452c1.797,2.588,0.01,6.509,1.245,9.279c1.059,2.374,3.428,3.222,5.737,2.506    c0.218-0.067,0.39-0.172,0.54-0.291c0.15,0.121,0.323,0.224,0.54,0.291c2.308,0.716,4.678-0.132,5.737-2.506    c1.235-2.77-0.552-6.691,1.244-9.279c1.257-1.809,3.893-2.168,5.801-3.452C420.376,240.146,428.254,242.818,429.83,249.747z     M421.141,341.179c0.348,1.07,1.124,2.529,1.626,3.931c-2.378,0.057-4.69,0.037-7.165-0.06c-2.347-0.092-5.404-0.093-7.962-0.584    c0.003-3.375,2.467-5.424,2.864-8.782c0.498-4.207,0.323-9.013,0.123-13.242c-0.216-4.569-0.194-9.288-0.804-13.836    c-0.571-4.265-0.376-11.192,2.309-14.587c0.033-0.043,0.058-0.087,0.087-0.13c0.548-0.046,1.082-0.09,1.578-0.077    c1.843,0.047,3.561,0.619,5.286,1.196c1.581,0.828,2.84,1.878,3.452,4.225c0.641,2.456,0.455,5.037,0.491,7.541    c0.066,4.539-0.823,8.879-1.219,13.427c-0.397,4.553-1.546,9.107-1.751,13.661C419.941,336.406,420.357,338.779,421.141,341.179z     M405.579,291.294c-3.11,0.181-6.317,0.136-9.476,0.463c0.23-0.623,0.33-1.339,0.38-2.061c2.54,0.562,5.505-0.128,8.034-0.146    c0.516-0.003,1.172,0.242,1.753,0.325c0.041,0.509,0.101,1.014,0.228,1.479C406.205,291.305,405.905,291.275,405.579,291.294z     M406.617,295.079c-0.362,1.017-0.517,2.138-0.617,3.33c-1.246-0.31-2.422-0.223-3.821-0.07c-1.823,0.2-3.708-0.764-5.451-0.08    c-0.005,0.002-0.009,0.005-0.013,0.008c-0.096-1.052-0.237-2.047-0.533-2.963c2.564,0.523,5.462,0.273,7.848,0.186    c0.685-0.025,1.211-0.261,1.836-0.352c0.174-0.025,0.271-0.043,0.329-0.055C406.276,295.083,406.409,295.083,406.617,295.079z     M396.205,328.062c0.021-3.076,0.263-5.999,0.548-9.049c0.313-3.336-0.126-6.614,0.272-9.979c0.283-2.39,0.251-4.616-0.01-7.021    c-0.014-0.131-0.025-0.26-0.037-0.389c1.44,0.621,3.363,0.722,4.832,0.586c1.239-0.114,2.67-0.42,3.966-0.838    c-0.018,0.214-0.036,0.426-0.059,0.642c-0.261,2.405-0.292,4.631-0.01,7.021c0.397,3.363-0.041,6.642,0.271,9.979    c0.285,3.049,0.529,5.972,0.549,9.049c0.017,2.728,0.634,6.623-0.684,8.967c-1.636,2.908-3.138,5.277-3.198,8.524    c-0.078,0.004-0.154,0.001-0.231,0.005c-0.779,0.046-1.552,0.074-2.321,0.091c-0.031-3.299-1.551-5.682-3.204-8.62    C395.57,334.685,396.187,330.79,396.205,328.062z M380.927,320.202c-0.397-4.548-1.285-8.888-1.219-13.427    c0.036-2.505-0.15-5.086,0.491-7.541c0.613-2.348,1.87-3.397,3.452-4.225c1.726-0.577,3.443-1.149,5.286-1.196    c0.495-0.013,1.03,0.029,1.577,0.077c0.029,0.043,0.054,0.087,0.087,0.131c2.686,3.395,2.88,10.322,2.309,14.587    c-0.609,4.548-0.587,9.267-0.803,13.836c-0.201,4.228-0.375,9.034,0.123,13.242c0.398,3.357,2.862,5.407,2.865,8.782    c-2.557,0.491-5.615,0.492-7.963,0.584c-2.477,0.096-4.786,0.118-7.166,0.06c0.5-1.4,1.276-2.861,1.626-3.931    c0.782-2.399,1.199-4.773,1.085-7.314C382.474,329.309,381.324,324.756,380.927,320.202z M384.847,227.105    c0.421,2.075,0.339,4.455,1.07,6.487c-0.684,0.366-1.376,0.782-2.144,1.113c-1.656,0.713-3.252,1.45-4.855,2.208    c-0.011-3.516,0.033-7.1,0.286-10.569c0.221-3.041-0.246-6.712,0.924-9.404c1.275-2.929,3.675-5.343,6.092-7.47    C384.037,214.938,383.753,221.705,384.847,227.105z M403.334,247.681c-0.864,0.353-1.953,0.517-2.68,0.263    c-1.083-0.378-1.471-1.38-1.812-2.48c-0.106-0.343-0.321-1.201-0.547-2.259c0.009-2.183,0.246-4.525-0.633-6.194    c-0.017-0.031-0.04-0.059-0.058-0.091c0.069-0.464,0.208-0.786,0.448-0.876c0.247-0.092,0.478-0.248,0.645-0.453    c1.709-0.46,3.474-1.017,5.016,0.161c0.677,0.518,0.911,1.304,1.011,2.173C403.849,240.969,405.303,245.405,403.334,247.681z     M413.192,227.452c-0.667,3.194-0.402,4.711-3.498,6.091c-1.019,0.454-2.178,1.005-3.135,1.758    c-0.339-0.77-0.827-1.442-1.494-1.918c-2.427-1.73-7.779-1.824-9.487,1c-0.08,0.13-0.114,0.271-0.129,0.41    c-0.785-0.502-1.637-0.905-2.412-1.25c-3.096-1.38-2.831-2.896-3.497-6.091c-1.182-5.666-2.29-12.56,0.317-18.048    c1.409-2.965,3.798-4.211,6.407-5.199c-0.008,0.043-0.012,0.087-0.019,0.131c-0.212,1.249-0.36,2.532-0.288,3.801    c0.092,1.627,0.504,3.392,2.029,4.22c1.794,0.974,4.307,0.057,6.204-0.014c3.125-0.117,3.692-4.699,3.142-7.793    c2.265,0.945,4.291,2.221,5.541,4.854C415.482,214.892,414.374,221.786,413.192,227.452z M399.129,203.793    c0.238-0.54,0.121-0.283,0.475-0.518c0.233-0.154,0.564-0.153,0.829-0.341c0.092-0.065,0.164-0.139,0.223-0.219    c0.709-0.013,1.562,0.203,2.134,0.308c0.961,0.178,1.492,0.362,1.746,1.395c0.266,1.078,0.097,2.586-0.071,3.677    c-0.045,0.297-0.067,0.963-0.243,1.151c-0.23,0.245-0.571,0.128-0.98,0.146c-1.069,0.046-2.295,0.634-3.342,0.482    c-1.232-0.179-1.159-1.372-1.164-2.446C398.733,206.352,398.691,204.783,399.129,203.793z M410.438,202.015    c-0.672-0.366-1.38-0.686-2.129-0.961c-1.478-0.54-3.272-1.11-4.859-1.16c-0.138-0.004-2.134,0.045-2.066,0.417    c-0.007,0.005-0.012,0.012-0.017,0.018c-0.005-0.006-0.012-0.012-0.017-0.018c0.068-0.373-1.929-0.422-2.067-0.417    c-1.588,0.049-3.382,0.619-4.858,1.16c-0.75,0.274-1.457,0.595-2.129,0.961c0.223-1.295,0.291-2.611,0.215-3.75    c-0.301-4.525-1.655-9.947,3.438-12.065c0.102-0.042,0.2-0.101,0.29-0.174c1.965-0.579,3.895-1.263,6.052-1.031    c1.987,0.214,3.913,1.226,5.83,1.949c3.479,2.465,2.374,7.251,2.102,11.32C410.148,199.403,410.215,200.72,410.438,202.015z     M371.201,327.56c-0.148-5.956-0.182-12.094,0.225-18.015c0.259-3.756-0.184-6.147,4.325-8.121c0.2-0.087,0.394-0.156,0.587-0.228    c-0.112,0.892-0.196,1.781-0.274,2.631c-0.255,2.792-0.781,5.289-0.603,8.076c0.407,6.334,0.653,12.705,1.382,19.041    c0.428,3.721,0.299,6.961-0.968,10.548c-0.555,1.576-1.1,2.807-1.335,4.17c-1.099,0.06-2.197,0.102-3.292,0.11    c-0.139-0.76,0.438-2.603,0.494-3.277C372.164,337.45,371.325,332.515,371.201,327.56z M354.52,342.496    c0.052,0.622,0.547,2.239,0.516,3.084c-1.106-0.003-2.21-0.012-3.316-0.012c-0.246-1.327-0.79-2.534-1.333-4.075    c-1.266-3.588-1.396-6.827-0.968-10.548c0.729-6.335,0.975-12.708,1.382-19.041c0.179-2.787-0.348-5.284-0.603-8.076    c-0.078-0.851-0.161-1.739-0.274-2.631c0.194,0.071,0.388,0.141,0.588,0.228c4.51,1.974,4.066,4.365,4.325,8.121    c0.408,5.921,0.373,12.058,0.224,18.015C354.937,332.515,354.098,337.45,354.52,342.496z M344.67,341.179    c0.348,1.07,1.124,2.529,1.625,3.931c-2.378,0.057-4.689,0.037-7.166-0.06c-2.347-0.092-5.404-0.093-7.961-0.584    c0.003-3.375,2.467-5.424,2.864-8.782c0.498-4.207,0.323-9.013,0.123-13.242c-0.216-4.569-0.194-9.288-0.802-13.836    c-0.571-4.265-0.376-11.192,2.309-14.587c0.033-0.043,0.058-0.087,0.087-0.13c0.547-0.046,1.082-0.09,1.577-0.077    c1.843,0.047,3.561,0.619,5.286,1.196c1.581,0.828,2.839,1.878,3.452,4.225c0.641,2.456,0.455,5.037,0.491,7.541    c0.065,4.539-0.823,8.879-1.219,13.427c-0.397,4.553-1.546,9.107-1.751,13.661C343.47,336.406,343.887,338.779,344.67,341.179z     M342.89,289.635c-1.936-0.6-3.541-0.853-5.565-0.812c-2.368,0.049-4.175,0.732-3.995-2.74c0.292-5.627,7.826-3.639,11.21-3.933    c1.663-0.143,2.233-2.715,0.415-3.135c-0.003,0-0.006-0.001-0.009-0.002c-0.148-5.43-0.102-10.863-0.203-16.31    c-0.05-2.687-0.244-5.375-0.237-8.051c0.003-1.358,0.186-2.026-0.566-3.218c-0.161-0.256-0.567-0.296-0.719,0    c-1.898,3.698-1.686,7.121-1.763,11.269c-0.054,2.949,0.281,6.099-0.312,8.978c-0.463,2.247-0.712,4.356-0.814,6.639    c-3.136-0.157-6.171,0.485-8.85,2.798c-1.795,1.549-1.85,3.803-1.772,6.056c0.005,0.16,0.005,0.34,0.009,0.511    c-0.479-0.251-0.919-0.474-1.675-0.496c-1.654-0.051-3.33,0.068-4.99,0.041c-1.086-0.017-2.028-0.09-2.978,0.068    c0.001-0.04,0.001-0.083,0.003-0.123c0.078-2.251,0.023-4.505-1.771-6.056c-2.679-2.313-5.715-2.954-8.85-2.798    c-0.102-2.284-0.352-4.392-0.814-6.639c-0.593-2.879-0.257-6.029-0.312-8.978c-0.077-4.147,0.136-7.571-1.763-11.269    c-0.152-0.296-0.559-0.256-0.719,0c-0.752,1.192-0.57,1.86-0.566,3.218c0.008,2.676-0.188,5.364-0.237,8.051    c-0.1,5.447-0.055,10.881-0.203,16.31c-0.003,0.001-0.005,0.001-0.009,0.002c-1.818,0.42-1.248,2.991,0.415,3.135    c3.385,0.293,10.918-1.695,11.21,3.933c0.181,3.473-1.628,2.788-3.994,2.74c-2.024-0.042-3.629,0.212-5.565,0.812    c-2.093,0.648-4.028,0.86-6.205,0.806c-2.6-0.064-4.337,0.364-5.024-2.588c-0.481-2.065,0.113-4.445,0.082-6.546    c-0.033-2.24-0.765-4.284-0.882-6.499c-0.206-3.891-0.031-8.077,0.321-11.934c0.395-4.312,0.277-8.89,1.24-13.127    c1.576-6.929,9.454-9.601,15.141-13.315c1.907,1.285,4.544,1.643,5.801,3.452c1.797,2.588,0.009,6.509,1.245,9.279    c1.059,2.374,3.428,3.222,5.737,2.506c0.218-0.067,0.39-0.172,0.54-0.291c0.15,0.121,0.323,0.224,0.54,0.291    c2.309,0.716,4.678-0.132,5.737-2.506c1.235-2.77-0.552-6.691,1.245-9.279c1.257-1.809,3.893-2.168,5.801-3.452    c5.687,3.715,13.565,6.387,15.141,13.315c0.963,4.237,0.845,8.815,1.239,13.127c0.354,3.858,0.529,8.045,0.323,11.934    c-0.118,2.216-0.849,4.259-0.882,6.499c-0.032,2.101,0.563,4.482,0.082,6.546c-0.688,2.951-2.425,2.524-5.025,2.588    C346.918,290.495,344.982,290.284,342.89,289.635z M329.108,291.294c-3.11,0.181-6.318,0.136-9.477,0.463    c0.23-0.623,0.33-1.339,0.38-2.061c2.54,0.562,5.505-0.128,8.034-0.146c0.516-0.003,1.172,0.242,1.753,0.325    c0.041,0.509,0.1,1.014,0.227,1.479C329.734,291.305,329.435,291.275,329.108,291.294z M330.146,295.079    c-0.362,1.017-0.516,2.138-0.617,3.33c-1.245-0.31-2.422-0.223-3.821-0.07c-1.823,0.2-3.708-0.764-5.451-0.08    c-0.005,0.002-0.009,0.005-0.013,0.008c-0.096-1.052-0.237-2.047-0.533-2.963c2.565,0.523,5.462,0.273,7.848,0.186    c0.685-0.025,1.21-0.261,1.836-0.352c0.173-0.025,0.271-0.043,0.328-0.055C329.806,295.083,329.94,295.083,330.146,295.079z     M319.734,328.062c0.021-3.076,0.263-5.999,0.549-9.049c0.312-3.336-0.126-6.614,0.271-9.979c0.283-2.39,0.251-4.616-0.01-7.021    c-0.014-0.131-0.025-0.26-0.037-0.389c1.44,0.621,3.363,0.722,4.832,0.586c1.239-0.114,2.67-0.42,3.967-0.838    c-0.019,0.214-0.037,0.426-0.06,0.642c-0.261,2.405-0.293,4.631-0.01,7.021c0.398,3.363-0.041,6.642,0.271,9.979    c0.286,3.049,0.529,5.972,0.548,9.049c0.018,2.728,0.635,6.623-0.684,8.967c-1.612,2.864-3.087,5.208-3.19,8.38    c-0.855-0.042-1.716-0.084-2.582-0.124c-0.137-3.109-1.592-5.43-3.183-8.256C319.099,334.685,319.717,330.79,319.734,328.062z     M304.458,320.202c-0.397-4.548-1.285-8.888-1.219-13.427c0.036-2.505-0.15-5.086,0.491-7.541c0.613-2.348,1.87-3.397,3.452-4.225    c1.726-0.577,3.443-1.149,5.286-1.196c0.495-0.013,1.03,0.029,1.577,0.077c0.029,0.043,0.054,0.087,0.087,0.131    c2.686,3.395,2.88,10.322,2.309,14.587c-0.608,4.548-0.587,9.267-0.802,13.836c-0.2,4.228-0.375,9.034,0.123,13.242    c0.397,3.357,2.861,5.407,2.864,8.782c-2.557,0.491-5.615,0.492-7.961,0.584c-2.477,0.096-4.787,0.118-7.166,0.06    c0.5-1.4,1.276-2.861,1.626-3.931c0.782-2.399,1.199-4.773,1.085-7.314C306.003,329.309,304.853,324.756,304.458,320.202z     M308.376,227.105c0.421,2.075,0.339,4.455,1.07,6.487c-0.684,0.366-1.376,0.782-2.144,1.113c-1.656,0.713-3.252,1.45-4.855,2.208    c-0.011-3.516,0.033-7.1,0.286-10.569c0.221-3.041-0.246-6.712,0.924-9.404c1.274-2.929,3.675-5.343,6.091-7.47    C307.566,214.938,307.283,221.705,308.376,227.105z M333.967,202.015c-0.672-0.366-1.38-0.686-2.129-0.961    c-1.478-0.54-3.271-1.11-4.859-1.16c-0.137-0.004-2.134,0.045-2.066,0.417c-0.005,0.005-0.012,0.012-0.017,0.018    c-0.005-0.006-0.012-0.012-0.017-0.018c0.068-0.373-1.929-0.422-2.066-0.417c-1.588,0.049-3.382,0.619-4.859,1.16    c-0.75,0.274-1.457,0.595-2.129,0.961c0.223-1.295,0.291-2.611,0.215-3.75c-0.301-4.525-1.655-9.947,3.438-12.065    c0.102-0.042,0.2-0.101,0.29-0.174c1.964-0.579,3.894-1.263,6.052-1.031c1.987,0.214,3.913,1.226,5.83,1.949    c3.479,2.465,2.374,7.251,2.103,11.32C333.677,199.403,333.744,200.72,333.967,202.015z M327.995,208.095    c-0.045,0.297-0.067,0.963-0.243,1.151c-0.23,0.245-0.571,0.128-0.981,0.146c-1.069,0.046-2.296,0.634-3.342,0.482    c-1.232-0.179-1.159-1.372-1.163-2.446c-0.005-1.075-0.047-2.645,0.39-3.635c0.238-0.54,0.121-0.283,0.476-0.518    c0.233-0.154,0.564-0.153,0.829-0.341c0.092-0.065,0.165-0.139,0.223-0.219c0.709-0.013,1.562,0.203,2.134,0.308    c0.961,0.178,1.492,0.362,1.746,1.395C328.331,205.496,328.163,207.003,327.995,208.095z M319.795,204.205    c-0.008,0.043-0.013,0.087-0.019,0.131c-0.212,1.249-0.359,2.532-0.288,3.801c0.092,1.627,0.504,3.392,2.029,4.22    c1.794,0.974,4.307,0.057,6.204-0.014c3.125-0.116,3.693-4.699,3.142-7.793c2.265,0.945,4.291,2.221,5.541,4.854    c2.607,5.489,1.499,12.382,0.317,18.048c-0.667,3.194-0.401,4.71-3.498,6.091c-1.019,0.454-2.178,1.005-3.135,1.758    c-0.339-0.77-0.827-1.442-1.494-1.918c-2.427-1.73-7.779-1.824-9.487,1c-0.079,0.13-0.114,0.271-0.129,0.41    c-0.785-0.502-1.637-0.905-2.411-1.25c-3.096-1.38-2.831-2.896-3.498-6.091c-1.182-5.666-2.29-12.56,0.317-18.048    C314.796,206.439,317.186,205.193,319.795,204.205z M326.863,247.681c-0.864,0.353-1.953,0.517-2.68,0.263    c-1.083-0.378-1.47-1.38-1.812-2.48c-0.106-0.343-0.321-1.201-0.547-2.259c0.009-2.183,0.247-4.525-0.633-6.194    c-0.017-0.031-0.04-0.059-0.057-0.091c0.069-0.464,0.207-0.786,0.448-0.876c0.247-0.092,0.478-0.248,0.644-0.453    c1.709-0.46,3.475-1.017,5.016,0.161c0.677,0.518,0.911,1.304,1.011,2.173C327.379,240.969,328.832,245.405,326.863,247.681z     M340.123,209.679c1.006,0.887,1.997,1.793,2.903,2.797c2.664,2.954,3.231,6.462,3.908,10.313    c0.844,4.79,0.593,9.749,1.266,14.527c-1.892-0.903-3.759-1.771-5.708-2.611c-0.768-0.331-1.461-0.747-2.144-1.113    c0.73-2.032,0.649-4.412,1.07-6.487C342.495,221.773,342.23,215.109,340.123,209.679z M294.731,327.56    c-0.149-5.956-0.182-12.094,0.225-18.015c0.259-3.756-0.184-6.147,4.325-8.121c0.2-0.087,0.393-0.156,0.587-0.228    c-0.113,0.892-0.196,1.781-0.274,2.631c-0.255,2.792-0.781,5.289-0.602,8.076c0.407,6.334,0.653,12.705,1.382,19.041    c0.428,3.721,0.299,6.961-0.968,10.548c-0.557,1.576-1.109,2.802-1.346,4.165c-1.106,0.004-2.194,0.069-3.276,0.163    c-0.17-0.731,0.43-2.637,0.489-3.324C295.693,337.45,294.854,332.515,294.731,327.56z M447.316,376.055    c-0.148,4.695-0.553,9.232-0.987,13.898c-0.217,2.334,0.053,2.533-1.405,3.672c-1.455,1.137-3.593,0.95-5.299,1.029    c-10.749,0.498-21.574-0.049-32.333,0.058c-19.12,0.191-38.081-1.486-57.165-1.576c-10.295-0.049-20.59-0.127-30.885-0.079    c-7.818,0.037-15.859-1.346-23.703-0.627c-1.323-0.189-2.651-0.366-3.994-0.556c-3.133-0.443-4.095,0.138-4.798-3.075    c-0.375-1.716-0.013-3.8-0.077-5.56c-0.155-4.275-0.687-8.442-0.7-12.749c-0.012-3.993-0.207-8.622,0.482-12.537    c0.249-1.415,0.474-2.957,0.844-4.33c0.676-2.509,0.793-1.986,3.22-2.054c0.902-0.025,1.819-0.071,2.729-0.108    c2.254,0.745,5.451,0.096,7.869-0.434c1.418-0.101,2.836-0.214,4.248-0.334c3.144,0.893,6.642,0.28,9.897,0.387    c5.958,0.195,11.964-0.053,17.926-0.065c5.008-0.011,10.022-0.056,15.034-0.09c2.303,0.505,5.508,1.243,7.877,0.678    c0.824-0.059,1.699-0.18,2.648-0.218c3.469-0.14,6.926-0.139,10.393-0.16c2.667,1.302,7.176,0.045,9.793-0.489    c0.107-0.022,0.198-0.065,0.292-0.101c0.623-0.015,1.146-0.085,1.632-0.201c0.176-0.011,0.353-0.022,0.529-0.031    c2.247,0.112,4.484,0.186,6.785,0.016c1.973,0.142,3.934,0.352,5.923,0.427c3.116,0.119,6.149-0.517,9.246-0.658    c5.102-0.234,10.205,0.97,15.355,0.778c2.063-0.077,4.056,0.243,6,0.228c0.688,0.113,1.39,0.21,2.142,0.264    c0.223,0.015,0.444,0.024,0.667,0.038c1.478,0.255,3.027,0.409,4.385,0.228c2.652,0.119,5.299,0.25,7.936,0.613    c3.418,0.47,5.757,0.455,7.167,4.337c0.738,2.032,0.641,4.47,0.7,6.615C447.803,367.523,447.449,371.813,447.316,376.055z     M426.668,303.828c-0.078-0.851-0.161-1.739-0.274-2.631c0.194,0.071,0.388,0.141,0.587,0.228c4.51,1.974,4.066,4.365,4.325,8.121    c0.408,5.921,0.373,12.058,0.224,18.015c-0.124,4.955-0.963,9.889-0.542,14.936c0.059,0.696,0.676,2.643,0.485,3.355    c-0.441,1.646,0.16,0.491-1.503,0.662c-0.561,0.058-1.107,0.047-1.649,0.014c-0.097-1.747-0.795-3.129-1.468-5.034    c-1.266-3.588-1.396-6.827-0.968-10.548c0.728-6.335,0.975-12.708,1.382-19.041C427.45,309.116,426.922,306.62,426.668,303.828z     M471.273,406.106c-4.063-2.273-8.285-4.53-12.527-6.482c-2.212-1.017-4.388-2.134-6.68-2.809    c1.376-2.817,0.925-6.295,1.203-9.312c0.379-4.131,0.067-8.265-0.064-12.407c-0.227-7.199-0.712-14.343-2.54-21.336    c-1.634-6.255-7.471-6.52-12.976-6.803c-0.633-0.032-1.268-0.027-1.904-0.033c0.06-2.679-0.711-5.485-0.727-8.133    c-0.023-3.378,0.26-6.585,0.429-9.914c0.393-7.753-0.875-15.61-1.772-23.254c-0.234-2-0.718-4.007-2.252-5.402    c-1.672-1.52-3.625-1.31-5.532-1.685c-0.184-0.785-0.41-1.55-0.709-2.264c4.534,0.194,9.117-0.059,10.581-5.315    c0.892-3.203,0.193-6.408,0.217-9.651c0.023-3.156,0.724-6.024,0.349-9.224c-0.785-6.725-1.539-13.518-1.653-20.293    c-0.094-5.554-1.354-9.175-5.307-11.93c0.055-6.937-2.226-14.116-3.352-20.945c-0.529-3.204-0.464-5.703-3.071-7.847    c-2.758-2.267-5.948-4.342-9.07-6.248c-0.064-2.193-0.026-4.554,0.093-6.588c0.157-2.689,0.509-5.447,0.094-8.145    c-0.484-3.152-1.907-6.16-4.497-6.635c-1.087-0.712-2.333-1.229-3.597-1.615c0.012-14.654-3.11-28.882-3.969-43.498    c-0.347-5.905-1.327-11.692-2.267-17.526c-0.732-4.542-1.336-9.114-2.116-13.649c1.479,3.193,2.816,6.379,4.198,9.699    c2.194,5.268,4.914,10.214,6.77,15.644c0.134,0.394,0.264,0.788,0.395,1.183c1.873,8.044,3.221,16.246,5.161,24.255    c2.714,11.199,5.901,22.309,9.04,33.408c5.392,19.071,11.886,37.7,14.654,57.437c3.121,22.257,9.373,43.813,15.086,65.521    c3.075,11.687,7.075,23.065,9.518,34.94c2.651,12.883,6.035,25.281,9.77,37.866c1.907,6.429,3.178,13.124,5.317,19.47    c0.503,1.492,1.195,2.924,1.77,4.393C476.753,409.206,473.869,407.559,471.273,406.106z M493.039,411.611    c-1.491,0.025-4.172,0.457-6.005,0.087c-0.01-0.221-0.482-0.866-0.745-1.65c-0.993-2.961-2.318-5.72-3.14-8.76    c-3.622-13.401-8.316-26.48-11.76-39.922c-1.657-6.468-2.869-13.032-4.393-19.531c-1.253-5.347-3.304-10.39-4.678-15.691    c-2.866-11.052-5.759-22.515-9.507-33.281c-3.745-10.757-5.085-22.116-7.498-33.18c-2.075-9.519-4.408-19.361-5.703-29.017    c-2.457-18.334-11.494-35.586-15.928-53.473c-4.299-17.343-7.028-35.055-13.253-51.716c-0.274-0.864-0.538-1.725-0.782-2.581    c-1.972-6.916-4.757-13.253-7.68-19.775c-0.675-1.084-1.125-2.265-1.365-3.538c1.234-0.047,2.841,0.236,3.744,0.29    c4.723,0.28,9.371,0.311,11.739,4.884c0.792,1.531,1.39,3.164,1.916,4.834c0.118,4.771,1.698,10.14,2.833,14.755    c1.345,5.471,2.553,10.996,3.953,16.449c1.452,5.661,3.352,11.202,5.113,16.773c1.841,5.829,2.883,11.84,4.487,17.725    c2.805,10.285,6.217,20.415,8.763,30.77c2.29,9.32,5.895,18.107,8.529,27.289c5.978,20.846,11.132,41.91,17.046,62.749    c5.611,19.77,10.307,39.61,17.17,58.995c3.695,10.438,8.375,20.613,11.374,31.283c1.486,5.282,3.383,10.365,5.357,15.47    c0.852,2.203,1.456,4.358,1.952,6.664c0.225,1.048,0.758,2.533,1.048,3.926C501.426,412.312,497.26,411.54,493.039,411.611z"/>
	</g>
</g>
<g>
	<g>
		<path d="M271.86,214.247c-2.455-2.234-6.222-1.884-9.205-1.86c-4.164,0.034-8.311-0.531-12.467-0.429    c-3.32,0.082-6.561,0.357-8.695,3.262c-1.26,1.716-1.853,3.748-2.094,5.854c-1.128,6.034,0.204,13.357,0.565,18.888    c0.567,8.7,0.036,17.524,0.338,26.242c0.18,5.184-0.743,13.938,5.656,15.272c5.75,1.197,12.857,1.467,18.68,0.957    c6.995-0.613,6.642-7.835,7.244-13.492c0.995-9.359,1.383-18.948,1.409-28.373c0.015-5.483,0.049-10.967,0.073-16.451    C273.378,221.105,274.404,216.563,271.86,214.247z M243.709,239.905c-0.079-1.856-0.168-3.713-0.321-5.573    c-0.277-3.387-0.906-6.877-0.795-10.283c0.146-4.453,1.485-7.192,6.268-7.4c0.689-0.03,1.395,0.006,2.101,0.045    c-2.8,2.411-4.638,6.747-4.759,10.145c-0.078,2.188,1.29,3.823,1.61,5.875c0.588,3.763-1.865,3.718-3.484,6.094    C244.096,239.152,243.898,239.526,243.709,239.905z M245.698,276.162c-0.576-0.759-0.56-3.624-0.644-4.637    c-0.38-4.561-0.464-9.147-0.574-13.732c1.16,0.22,2.452,0.174,3.548-0.216c-0.132,2.621-0.195,5.268-0.142,7.88    c0.067,3.328-0.69,8.183,0.413,11.708C247.296,277.069,246.217,276.847,245.698,276.162z M268.249,262.512    c-0.206,3.93-0.071,8.372-1.423,12.154c-0.48,1.343-0.561,2.166-1.596,2.72c0.04-1.445,0.275-2.924,0.287-4.336    c0.024-2.746-0.046-5.498-0.069-8.244c-0.022-2.632-0.024-5.267-0.084-7.899c0.32-0.035,0.636-0.077,0.931-0.1    c0.744-0.06,1.566-0.096,2.286-0.306C268.467,258.499,268.355,260.502,268.249,262.512z M268.724,253.754    c-1.004-0.172-2.145-0.098-3.204-0.092c-0.06-1.013-0.122-2.027-0.234-3.031c-0.097-0.877-0.155-1.692-0.14-2.577    c0.01-0.576-0.146-1.194-0.208-1.783c0.339-0.922-0.07-2.232-1.098-2.373c-0.069-0.01-0.139-0.019-0.208-0.029    c-1.204-0.166-2.104,0.456-2.224,1.73c-0.079,0.842,0.2,1.614,0.225,2.454c0.031,1.047,0.126,2.012,0.242,3.048    c0.083,0.739,0.133,1.474,0.208,2.211c-0.005,0.032-0.018,0.082-0.02,0.108c-0.327,3.448-0.165,7.003-0.194,10.466    c-0.039,4.598-0.784,9.57-0.568,14.212c-0.784,0.019-1.562,0.008-2.131-0.014c-0.478-0.018-0.955-0.053-1.432-0.086    c0.711-2.293,0.631-4.576,0.591-7.16c-0.053-3.453,0.334-7.727-1.03-10.899c-0.257-0.596-1.282-0.596-1.538,0    c-1.454,3.38-0.52,7.287-0.502,10.899c0.011,2.066-0.299,4.735,0.116,6.956c-1.212-0.124-2.426-0.262-3.638-0.376    c0.875-3.503,0.046-7.891-0.179-11.327c-0.292-4.448,0.427-9.724-0.602-14.2c0.008-0.05,0.015-0.098,0.023-0.148    c0.08-0.485,0.161-0.964,0.252-1.418c0.305-1.514,0.094-3.392,0.67-4.816c0.861-2.129-2.597-3.133-3.413-0.961    c-0.368,0.981-0.349,2.103-0.498,3.135c-0.179,1.239-0.26,2.45-0.48,3.697c-0.111,0.631-0.06,1.422-0.306,2.005    c-0.33,0.784,0.142,0.467-0.653,0.785c-0.508,0.203-1.15,0.318-1.779,0.414c0.145-0.976,0.082-2.01,0.153-3.002    c0.034-0.482,0.037-0.964,0.029-1.446c0.305-1.339,0.53-2.657,0.708-4.022c0.48-3.672,0.441-3.717,3.219-7.045    c1.138-1.363,1.965-2,2.301-3.898c0.617-3.499-1.567-6.457-1.649-9.878c-0.115-4.851,2.962-5.958,6.194-7.064    c1.975,0.078,3.817,0.841,5.089,2.954c1.198,1.989,1.509,4.809,1.352,7.114c-0.071,1.04-0.815,3.351-0.51,4.573    c0.617,2.471,2.774,3.397,4.287,5.269c2.519,3.12,2.3,7.854,2.981,11.849C268.862,251.243,268.792,252.498,268.724,253.754z     M269.303,235.619c0.001,0.316-0.004,0.631-0.004,0.947c-1.864-2.17-4.216-3.021-3.858-6.286c0.271-2.467,0.307-4.797-0.299-7.231    c-0.607-2.443-1.88-4.84-3.803-6.33c3.269-0.063,7.159-1.06,7.958,2.824C270.292,224.37,269.281,230.655,269.303,235.619z"/>
	</g>
</g>
<g>
</g>
<g>
</g>
<g>
</g>
<g>
</g>
<g>
</g>
<g>
</g>
<g>
</g>
<g>
</g>
<g>
</g>
<g>
</g>
<g>
</g>
<g>
</g>
<g>
</g>
<g>
</g>
<g>
</g>
</svg>
