<?xml version="1.0" encoding="iso-8859-1"?>
<!-- Generator: Adobe Illustrator 19.0.0, SVG Export Plug-In . SVG Version: 6.00 Build 0)  -->
<svg xmlns="http://www.w3.org/2000/svg" xmlns:xlink="http://www.w3.org/1999/xlink" version="1.1" id="Layer_1" x="0px" y="0px" viewBox="0 0 512 512" style="enable-background:new 0 0 512 512;" xml:space="preserve">
<g>
	<g>
		<path d="M359.239,484.221c-0.026-8.261-0.091-16.513-1.016-24.704c-0.479-4.24-0.328-8.576-0.335-12.846    c-0.003-2.226,0.161-4.485-1.173-6.411c-2.959-4.269-9.774-3.81-15.248-3.497c0.897-1.855,0.713-3.683,0.606-6.056    c-0.183-4.035-0.244-8.081-0.408-12.119c-0.197-4.861-0.327-9.726-0.317-14.591c0.004-2.52,0.362-5.24-1.787-6.995    c-2.016-1.648-4.549-2.33-7.25-2.565c0.459-2.82-0.339-5.302-0.444-8.268c-0.087-2.454,0.103-4.855-0.298-7.297    c-0.539-3.279-0.878-6.478-1.309-9.751c-0.187-1.422-0.411-2.785-1.589-3.78c-2.822-2.381-8.195-1.379-11.499-1.49    c-1.443-0.048-3.239-0.493-4.997-0.712c0.667-13.658-0.229-27.377,0.524-41.011c0.716-12.955,1.082-26.121,1.083-39.091    c0.001-6.804-0.054-13.607-0.104-20.409c-0.046-6.167,0.511-12.459-0.412-18.578c-0.838-5.559-1.052-11.763-1.01-17.411    c0.023-3.008,0.119-5.979-0.344-8.965c-0.107-0.685-0.285-2.775-0.635-4.114c0.63-0.065,1.26-0.129,1.909-0.222    c2.636-0.378,4.637-0.456,5.644-3.312c1.112-3.154,0.188-7,0.566-10.29c0.542-4.727,0.993-11.061-4.953-12.041    c-4.816-0.793-10.22-1.367-15.292-1.161c0.619-1.258,1.09-2.633,1.379-4.068c0.609-3.023,1.026-6.908-0.745-9.641    c-1.102-1.701-3.063-2.908-5.124-3.328c0.832-2.953,0.887-6.239,1.188-9.195c0.603-5.914,0.195-12.006,0.161-17.947    c-0.049-8.712-0.353-17.959-2.428-26.47c-0.699-2.866-1.707-5.999-3.094-8.942c0.056-4.164-1.326-7.872-2.636-11.867    c-1.271-3.871-2.477-8.17-4.704-11.624c-0.524-0.812-1.107-1.619-1.738-2.411c-0.841-5.996-1.956-13.518-6.121-18.202    c-1.166-1.31-2.571-2.563-4.12-3.669c0.28-1.498-0.495-3.007-1.104-4.437c-0.868-2.038-1.773-4.21-3.282-5.869    c-0.831-0.913-2.491-2.516-4.249-3.543c0.043-1.402-1.725-2.391-3.477-2.929c-0.026-5.333-1.27-10.586-1.712-15.894    c0.031-0.82,0.059-1.639,0.065-2.458c0.023-4.233,0.029-8.485,0.071-12.705c0.01-1.009-0.059-2.065-0.143-3.132    c0.018-2.316-0.015-4.63-0.184-6.934c-0.083-1.121-1.772-1.866-2.343-0.635c-2.873,6.193-2.387,14.19-2.315,20.854    c0.076,7.108-0.821,14.284-0.177,21.397c-1.483,0.667-2.824,1.655-3.648,2.95c-0.005,0.003-0.012,0.008-0.017,0.012    c-1.554,1.017-3.245,2.435-4.137,3.932c-1.092,1.504-1.858,3.267-2.577,4.954c-0.599,1.407-1.354,2.893-1.111,4.368    c-0.2,0.167-0.397,0.335-0.58,0.513c-1.315,0.994-2.518,2.085-3.532,3.226c-4.165,4.684-5.279,12.206-6.121,18.202    c-0.63,0.791-1.214,1.599-1.738,2.411c-2.227,3.454-3.434,7.753-4.704,11.624c-1.31,3.995-2.692,7.703-2.636,11.867    c-1.388,2.943-2.396,6.076-3.094,8.942c-2.075,8.511-2.379,17.757-2.428,26.47c-0.034,5.941-0.441,12.033,0.161,17.947    c0.301,2.955,0.356,6.241,1.188,9.195c-2.063,0.42-4.024,1.627-5.126,3.328c-1.77,2.733-1.352,6.618-0.745,9.641    c0.289,1.435,0.761,2.809,1.378,4.068c-5.071-0.207-10.476,0.367-15.292,1.161c-5.946,0.98-5.497,7.314-4.953,12.041    c0.378,3.291-0.546,7.136,0.566,10.29c1.007,2.855,3.007,2.934,5.644,3.312c0.649,0.093,1.278,0.157,1.909,0.222    c-0.35,1.338-0.528,3.429-0.635,4.114c-0.463,2.987-0.366,5.957-0.344,8.965c0.042,5.648-0.172,11.852-1.01,17.411    c-0.923,6.12-0.366,12.411-0.412,18.578c-0.051,6.803-0.104,13.606-0.104,20.41c0.001,12.97,0.368,26.136,1.083,39.091    c0.753,13.634-0.143,27.352,0.524,41.01c-1.759,0.219-3.555,0.664-4.997,0.712c-3.304,0.111-8.677-0.891-11.499,1.49    c-1.178,0.994-1.402,2.357-1.589,3.78c-0.431,3.273-0.77,6.471-1.309,9.751c-0.401,2.441-0.21,4.843-0.298,7.297    c-0.105,2.966-0.905,5.448-0.444,8.268c-2.702,0.234-5.234,0.917-7.25,2.565c-2.149,1.756-1.791,4.476-1.787,6.995    c0.01,4.865-0.12,9.73-0.317,14.591c-0.164,4.038-0.225,8.083-0.408,12.119c-0.108,2.373-0.292,4.201,0.606,6.056    c-5.474-0.312-12.29-0.771-15.248,3.497c-1.334,1.925-1.169,4.185-1.173,6.411c-0.006,4.27,0.143,8.606-0.335,12.846    c-0.924,8.192-0.99,16.444-1.016,24.704c-0.023,7.348-0.405,14.815,0.417,22.109c0.612,5.432,3.796,5.668,8.139,5.185    c7.31-0.813,14.848,0.492,22.195,0.483c9.654-0.011,19.279-0.75,28.946-0.885c2.639-0.038,5.321-0.115,7.997-0.156    c6.826,1.723,14.987,0.651,21.69,0.764c3.39,0.057,6.723-0.087,10.073-0.222c1.221,0.155,2.455,0.025,3.78-0.046    c1.324,0.071,2.558,0.201,3.78,0.046c3.35,0.136,6.683,0.279,10.074,0.222c6.704-0.113,14.863,0.959,21.69-0.764    c2.676,0.041,5.358,0.118,7.997,0.156c9.668,0.135,19.292,0.875,28.946,0.885c7.347,0.008,14.886-1.296,22.195-0.483    c4.343,0.483,7.527,0.246,8.139-5.185C359.644,499.036,359.262,491.569,359.239,484.221z M331.722,400.688    c1.303,0.218,3.453,0.633,3.803,1.378c0.131,0.28-0.236,2.854-0.245,3.583c-0.047,3.73-0.124,7.463-0.258,11.19    c-0.104,2.915-0.281,5.827-0.368,8.742c-0.129,4.344,2.619,10.632-3.313,11.075c-1.719,0.128-3.466,0.119-5.227,0.048    c2.193-3.057,0.945-8.189,0.827-11.722c-0.084-2.525-0.213-5.065-0.397-7.577c-0.188-2.57-1.277-4.956-1.555-7.516    c-0.105-0.97-0.644-2.034-1.712-2.249c-4.879-0.977-10.327-0.813-15.275-0.824c-2.946-0.006-5.945,0.109-8.878,0.38    c-0.402,0.038-1.155,0.261-1.925,0.474c0-0.383-0.005-0.765-0.005-1.148c0.003-2.577-0.026-5.158-0.052-7.74    c5.179,1.462,10.293,1.571,15.704,1.648c3.13,0.045,6.268,0.639,9.375,0.611C325.458,401.015,328.45,400.138,331.722,400.688z     M297.639,465.592c4.634,0.678,9.416,0.141,14.076,0.388c8.414,0.445,17.571,1.683,25.886,0.012    c0.229-0.045,0.428-0.133,0.605-0.246c0.157,1.56,0.282,3.127,0.435,4.695c0,0.004,0,0.009,0.001,0.013    c-0.257-0.019-0.513-0.033-0.761-0.045c-5.836-0.26-12.022-0.385-17.804-0.174c-5.197,0.189-10.546,1.084-15.709,1.125    c-2.585,0.02-5.258-0.033-7.923,0.06c0.701-1.862,1.029-3.946,1.114-5.841C297.586,465.585,297.611,465.589,297.639,465.592z     M297.634,461.763c0.058-2.016,0.154-4.976,0.224-8.028c1.049,0.085,2.144,0.048,3.432-0.012c3.565-0.168,7.045,0.53,10.603,0.618    c7.317,0.18,14.805,0.09,22.115,0.603c0.598,0.14,1.199,0.181,1.8,0.16c0.592,0.839,0.927,2.451,1.136,3.208    c0.34,1.235,0.589,2.481,0.789,3.732c-0.045-0.012-0.085-0.03-0.132-0.04c-7.005-1.383-14.736-0.067-21.874-0.413    C309.846,461.307,303.549,460.742,297.634,461.763z M316.704,381.172c-2.399-0.288-4.914-0.228-7.253-0.24    c-4.238-0.021-8.031-0.243-11.999,0.47c0.084-1.224,0.176-2.448,0.303-3.668c0.04-0.386,0.068-0.773,0.095-1.159    c1.976,0.519,3.931,0.833,6.028,0.96c1.855,0.112,3.675,0.425,5.53,0.506c1.65,0.072,4.156-0.454,5.689,0.072    c1.671-0.543,2.214,0,1.631,1.629c-0.01,0.453-0.018,0.905-0.028,1.358C316.701,381.123,316.704,381.147,316.704,381.172z     M308.468,384.966c3.029-0.001,5.765,0.119,8.496-0.272c0.057,0.62,0.104,1.239,0.1,1.856c-0.003,0.548-0.075,1.103-0.158,1.66    c-2.429-0.255-4.754,0.032-7.374,0.132c-4.018,0.153-8.334-0.363-12.373,0.194c0.025-1.328,0.068-2.655,0.125-3.981    C300.877,385.251,304.96,384.967,308.468,384.966z M316.55,391.643c0.031,0.995,0.213,1.924,0.322,2.878    c-3.491-0.123-7.001,0.059-10.491,0.04c-3.371-0.019-6.116-0.227-9.267,0.548c-0.008-1.284-0.005-2.568,0.002-3.851    C303.312,392.848,310.161,391.745,316.55,391.643z M309.892,415.369c-3.849-0.048-8.633-0.557-12.652,0.276    c-0.01-1.473-0.016-2.947-0.02-4.421c2.477,0.375,5.453,0.06,7.325,0.111c5.118,0.139,10.908-0.144,16.053,0.583    c0.195,1.331,0.415,2.647,0.63,3.965C317.393,414.987,313.981,415.42,309.892,415.369z M321.605,418.392    c0.219,1.549,0.403,3.111,0.466,4.722c0.015,0.407,0.013,0.819,0.011,1.23c-4.355-0.462-8.986,0.737-13.358,0.936    c-3.561,0.161-7.69,0.641-11.408,0.432c-0.025-2.283-0.044-4.566-0.062-6.85c4.168,1.349,9.41,0.493,13.541,0.582    C314.18,419.516,318.537,420.153,321.605,418.392z M297.351,428.795c2.558,0.826,5.864,0.685,8.036,0.695    c5.559,0.026,11.047-0.283,16.541-1.109c-0.153,2.735-0.276,5.481,0.312,8.084c-3.537-0.274-7.091-0.632-10.557-0.573    c-4.536,0.077-9.598-0.712-14.254-0.235C297.402,433.37,297.378,431.082,297.351,428.795z M313.621,369.034    c1.74,0.254,3.464,0.668,5.207,0.581c2.927-0.147,4.841-1.333,6.155,1.475c1.252,2.677,0.283,7.334,0.432,10.246    c0.306,5.943,2.335,12.312-3.675,13.216c0.032-0.648-0.071-1.332-0.094-2.231c-0.055-2.159,0.449-4.283,0.33-6.435    c-0.161-2.929,0.416-9.201-2.004-11.443c-2.4-2.223-7.67-0.882-10.564-0.932c-3.638-0.062-7.733-0.931-11.464-0.495    c-0.017-2.273-0.142-4.547-0.158-6.833c-0.032-4.38,0.557-8.717,0.543-13.121c-0.03-9.62,0.462-19.357-0.353-28.941    c-0.708-8.339-0.808-17.038-0.821-25.387c-0.015-9.961-0.073-19.922-0.1-29.883c-0.026-9.721,0.549-19.655-0.107-29.353    c-0.535-7.906-0.508-15.889-1.359-23.788c-0.048-0.448-0.083-0.896-0.116-1.345c2.445,0.194,4.89-0.387,7.498-0.424    c1.429-0.02,2.788-0.048,4.137-0.098c-0.568,3.533,0.217,7.69,0.132,10.98c-0.154,5.973-0.125,12.33,0.474,18.263    c1.296,12.837,0.245,26.041,0.213,38.958c-0.069,27.17-2.973,54.326-1.574,81.54c0.019,0.384,0.105,0.719,0.225,1.023    c-0.261,0.478-0.168,1.024,0.185,1.468C308.575,368.348,310.968,368.646,313.621,369.034z M308.088,192.551    c1.519,0.096,4.793,0.198,6.127,0.843c1.745,0.844,1.099,3.485,0.839,5.453c-0.193,1.458,0.112,7.6-0.69,8.347    c-0.389,0.363-5.177,0.766-5.662,0.797c-4.211,0.264-9.088-0.729-13.366,0.133c0.011-1.842,0.03-3.684-0.039-5.524    c-0.133-3.583-1.245-7.156-1.33-10.727c0.538-0.232,1.037-0.539,1.518-0.876C299.252,192.84,304.008,192.293,308.088,192.551z     M290.555,177.068c1.197-1.374,1.987-3.408,4.158-2.295c2.138,1.097,1.851,4.031,1.499,6.062c-0.57,3.287-2.506,7.909-6.597,6.691    C284.753,186.08,288.352,179.598,290.555,177.068z M277.26,314.642c-1.025-12.757,0.023-26.032,0.027-38.839    c0.004-12.391,0.377-24.754,0.544-37.12c0.081-5.883,0.634-11.623,0.556-17.548c-0.009-0.682-0.002-1.365-0.008-2.047    c0.044-0.033,0.085-0.072,0.13-0.104c0.058-0.28,0.009-0.579-0.133-0.82c-0.019-3.448-0.025-6.899-0.015-10.348    c0.242-0.361,0.242-0.882,0.002-1.245c0.002-1.255,0.01-2.509,0.005-3.763c-0.015-5.268-0.025-10.534-0.037-15.802    c1.079,0.015,2.152,0.014,3.189-0.343c0.002-0.001,0.003-0.002,0.005-0.003c0.38-0.008,0.758-0.011,1.137-0.017    c0.047-0.001,0.087-0.013,0.133-0.016c0.599,2.368,2.1,4.496,4.46,5.318c0.947,0.33,1.851,0.513,2.712,0.581    c-0.538,3.588-0.063,7.275-0.132,10.902c-0.091,4.841-0.26,9.579,0.17,14.401c0.436,4.876,0.079,9.777-0.037,14.659    c-0.101,4.304,0.431,8.552,0.355,12.886c-0.182,10.311-0.065,20.637-0.091,30.95c-0.027,9.908-0.901,20.172-0.263,30.041    c0.541,8.372,1.154,16.861,1.144,25.271c-0.013,9.838,0.766,20.025-0.416,29.771c-0.512,4.215,0.204,8.509,0.132,12.743    c-0.074,4.349-0.868,8.572-0.813,12.95c0.115,9.331,0.057,18.663,0.123,27.996c0.062,8.845-0.125,18.253,0.825,27.03    c0.704,6.509-0.075,13.474,0.581,20.104c-0.036,0.236-0.061,0.467-0.103,0.705c-0.169,0.963-0.098,2.296-0.415,3.169    c-0.62,1.7-0.278,1.292-2.059,1.964c-2.805,1.057-6.463,0.706-9.358,0.594c-0.239-0.01-0.48-0.01-0.719-0.018    c-0.056-27.434-0.453-54.824-1.052-82.265c-0.26-11.911-0.557-23.705-0.553-35.639    C277.293,338.657,278.232,326.733,277.26,314.642z M253.311,459.836c-4.384,0.072-9.465-0.417-14.351-0.323    c-0.032-2.694-0.047-5.389-0.026-8.08c4.901,0.105,9.995-0.371,14.377-0.299c6.287,0.103,13.273,0.85,19.756,0.282    c0.021,2.711,0.006,5.425-0.026,8.137C266.565,458.989,259.58,459.733,253.311,459.836z M272.998,462.97    c-0.027,1.856-0.053,3.711-0.072,5.561c-4.038-0.024-8.091,0.025-12.176,0.023c-1.335-0.001-3.058-0.109-4.75-0.004    c-1.692-0.104-3.415,0.003-4.75,0.004c-4.085,0.002-8.137-0.046-12.176-0.023c-0.018-1.841-0.045-3.686-0.071-5.532    c4.879,0.094,9.948-0.388,14.307-0.316C259.576,462.786,266.534,463.526,272.998,462.97z M234.713,350.737    c0.004,11.935-0.293,23.729-0.553,35.639c-0.599,27.44-0.996,54.831-1.052,82.265c-0.24,0.009-0.48,0.009-0.719,0.018    c-2.895,0.112-6.553,0.463-9.357-0.594c-1.782-0.671-1.44-0.264-2.059-1.964c-0.318-0.872-0.246-2.207-0.415-3.168    c-0.042-0.239-0.068-0.469-0.103-0.705c0.656-6.631-0.123-13.596,0.581-20.104c0.95-8.777,0.763-18.186,0.825-27.031    c0.066-9.332,0.008-18.664,0.123-27.996c0.054-4.378-0.739-8.602-0.813-12.95c-0.072-4.234,0.643-8.527,0.132-12.743    c-1.182-9.746-0.404-19.934-0.416-29.771c-0.012-8.409,0.601-16.899,1.144-25.271c0.639-9.869-0.236-20.132-0.263-30.041    c-0.027-10.313,0.09-20.639-0.091-30.95c-0.076-4.333,0.456-8.582,0.355-12.886c-0.115-4.882-0.471-9.783-0.035-14.659    c0.43-4.821,0.26-9.559,0.17-14.401c-0.068-3.627,0.406-7.313-0.132-10.902c0.862-0.068,1.764-0.25,2.712-0.581    c1.932-0.673,3.283-2.228,4.042-4.067c0.251,0.005,0.496,0.005,0.724,0.006c1.221,0.005,2.948,0.3,4.157-0.258    c-0.011,5.061-0.02,10.121-0.036,15.181c-0.017,6.108,0.061,12.221-0.018,18.329c-0.077,5.925,0.476,11.665,0.556,17.548    c0.169,12.367,0.541,24.73,0.546,37.12c0.004,12.806,1.051,26.082,0.027,38.839C233.77,326.733,234.709,338.657,234.713,350.737z     M234.461,144.456c-0.515-0.777-1.07-1.465-1.832-2.253c-0.713-0.737-2.99-2.405-3.958-3.601c2.295-0.981,4.846-2.27,6.913-3.646    C235.088,138.091,234.731,141.267,234.461,144.456z M233.604,125.957c-0.856-1.657-1.861-3.233-2.665-4.918    c-0.476-0.996-1.216-2.104-1.176-3.255c0.06-1.706,0.857-1.717,2.173-1.26c0.336,0.114,0.671,0.229,1.007,0.344    c1.068,0.31,2.102,0.841,3.143,1.24c1.01,0.387,2.652,1.357,4.238,2.004c-0.923,0.934-1.826,1.938-2.306,2.916    c-1.024,2.086-1.215,4.887-1.611,7.236C235.505,128.821,234.384,127.467,233.604,125.957z M262.738,69.328    c-2.5-0.204-5.035-0.085-7.491,0.238c0.878-1.548,1.797-3.086,2.776-4.543c0.185-0.275,2.641-2.651,3.587-3.827    c0.013,0.124,0.039,0.246,0.043,0.372C261.533,63.188,261.869,66.566,262.738,69.328z M266.186,82.839    c-0.839,0.671-6.361,3.878-5.445,4.538c-1.608-1.16-2.854-7.111-3.663-8.821c-0.48-1.013-1.015-2.181-1.667-3.219h0.003    c2.954,0.25,5.965,0.835,8.871,1.397c2.116,0.41,4.381,1.514,6.591,1.774c0.073,0.052,0.151,0.101,0.222,0.154    C269.382,79.952,267.862,81.498,266.186,82.839z M271.961,81.924c-0.066,1.91-0.552,4.95-0.578,5.642    c-0.049,1.304-0.2,2.488-0.222,3.648c-0.141-0.041-0.281-0.083-0.422-0.122c-1.573-1.438-3.754-2.222-6.151-2.604    c0.96-0.817,1.849-1.648,2.539-2.205C268.794,84.939,270.313,83.321,271.961,81.924z M256.831,61.08    c-1.877,2.05-3.377,4.616-4.679,7.158c-1.327-1.374-2.887-2.628-4.239-3.806c-0.547-0.476-1.179-1.232-1.872-1.964    c2.266-1.036,4.552-2.089,7.074-2.501c1.66-0.271,3.33-0.368,4.993-0.276C257.624,60.195,257.191,60.689,256.831,61.08z     M252.115,76.04c0.848-0.309,3.432,7.855,5.445,12.189c-1.818,0.091-3.531,0.263-4.964,0.396c-1.665,0.156-3.34,0.416-5.008,0.742    c0.314-1.395,0.406-2.959,0.766-4.071C248.929,83.521,250.445,76.648,252.115,76.04z M253.326,94.209    c3.583,3.394,5.357,10.193,7.149,14.246c0.33,0.748,0.679,1.699,1.077,2.692c-3.513-0.828-7.405-0.639-10.208,0.36    c-1.231,0.44-2.892,1.29-4.577,2.401c0.105-0.653,0.208-1.244,0.335-1.703C248.737,106.308,250.423,99.729,253.326,94.209z     M252.341,117.739c2.454-0.64,4.92-1.058,7.47-0.926c1.065,0.055,2.053,0.349,3.026,0.655c1.156,0.821,2.169,1.763,3.371,2.465    c1.108,1.394,1.998,2.911,2.717,4.516c-5.249-0.08-10.653,0.397-15.612,0.479c-3.179,0.053-6.727-0.195-10.303-0.302    c0.117-0.269,0.23-0.54,0.358-0.804c0.45-0.634,0.918-1.254,1.444-1.83C247.034,119.561,249.265,118.541,252.341,117.739z     M253.311,127.774c5.392,0.089,11.297,0.64,16.959,0.44c0.713,2.529,1.129,5.195,1.386,7.899    c-6.08-0.365-12.517,0.267-18.345,0.363c-3.971,0.066-8.515-0.332-12.97-0.343c0.26-2.75,0.68-5.463,1.415-8.031    C245.756,128.027,249.769,127.716,253.311,127.774z M253.311,139.323c5.917,0.098,12.453,0.762,18.606,0.365    c0.146,2.713,0.203,5.415,0.303,8.006c-6.244-0.44-12.902,0.232-18.91,0.331c-4.139,0.068-8.898-0.361-13.53-0.335    c0.1-2.599,0.156-5.311,0.303-8.033C244.628,139.666,249.274,139.256,253.311,139.323z M240,428.378    c4.569,0.013,9.249-0.409,13.311-0.341c5.946,0.098,12.51,0.752,18.689,0.342c0.041,2.689,0.165,5.364,0.38,8.026    c-6.29-0.461-13.013,0.234-19.07,0.335c-4.186,0.069-9.008-0.379-13.69-0.338C239.836,433.74,239.959,431.066,240,428.378z     M239.879,416.831c4.608,0.017,9.337-0.41,13.432-0.342c5.986,0.098,12.598,0.76,18.812,0.332    c-0.072,2.678-0.124,5.355-0.133,8.027c-6.178-0.408-12.745,0.245-18.678,0.342c-4.069,0.067-8.739-0.355-13.299-0.344    C240.001,422.178,239.95,419.505,239.879,416.831z M272.217,413.317c-6.244-0.44-12.899,0.226-18.906,0.325    c-4.137,0.068-8.895-0.368-13.527-0.344c-0.075-2.677-0.143-5.35-0.171-8.013c4.692,0.037,9.523-0.413,13.698-0.344    c6.071,0.1,12.786,0.779,19.078,0.314C272.361,407.933,272.293,410.623,272.217,413.317z M253.311,277.905    c5.719,0.095,12.012,0.705,17.982,0.387c0.001,2.643,0.002,5.287,0.004,7.929c-5.974-0.316-12.274,0.292-17.987,0.385    c-3.862,0.065-8.269-0.32-12.607-0.353c0.001-2.666,0.002-5.332,0.004-7.998C245.051,278.225,249.461,277.843,253.311,277.905z     M240.709,274.707c0.001-2.672,0.002-5.345,0.004-8.017c4.341-0.026,8.747-0.396,12.598-0.332    c5.717,0.094,12.008,0.706,17.977,0.391c0.001,2.641,0.002,5.283,0.004,7.924c-5.973-0.316-12.27,0.294-17.981,0.387    C249.451,275.123,245.045,274.74,240.709,274.707z M271.284,257.259c0.001,1.953,0.002,3.906,0.003,5.859    c-5.971-0.314-12.267,0.298-17.976,0.392c-3.861,0.063-8.262-0.307-12.596-0.333c0.001-1.972,0.002-3.945,0.003-5.918    c0-0.707-0.022-1.414-0.032-2.121c4.35-0.025,8.766-0.394,12.625-0.33c5.726,0.095,12.027,0.71,18.004,0.393    C271.304,255.887,271.284,256.574,271.284,257.259z M240.7,294.473c0.001-1.557,0.001-3.114,0.002-4.67    c4.344-0.031,8.757-0.412,12.609-0.349c5.721,0.094,12.015,0.703,17.989,0.385c0.001,1.545,0.001,3.09,0.002,4.634    c0,1.102,0.024,2.2,0.032,3.301c-5.985-0.322-12.298,0.288-18.023,0.382c-3.873,0.063-8.294-0.32-12.644-0.351    C240.676,296.695,240.699,295.585,240.7,294.473z M253.311,301.003c5.744,0.095,12.064,0.707,18.058,0.381    c0.038,2.65,0.083,5.298,0.141,7.943c-6.037-0.342-12.419,0.282-18.199,0.378c-3.927,0.065-8.413-0.325-12.82-0.343    c0.058-2.668,0.104-5.339,0.142-8.011C245,301.322,249.439,300.939,253.311,301.003z M253.311,312.551    c5.812,0.096,12.217,0.727,18.273,0.375c0.06,2.651,0.117,5.302,0.165,7.953c-6.107-0.372-12.583,0.278-18.437,0.373    c-3.998,0.066-8.576-0.341-13.059-0.346c0.047-2.671,0.105-5.342,0.166-8.013C244.854,312.88,249.375,312.486,253.311,312.551z     M271.412,251.576c-6.008-0.329-12.352,0.292-18.101,0.386c-3.898,0.065-8.346-0.313-12.719-0.332    c-0.102-2.676-0.252-5.354-0.417-8.031c4.513,0.004,9.127-0.404,13.137-0.338c5.889,0.097,12.387,0.742,18.515,0.358    C271.661,246.271,271.514,248.924,271.412,251.576z M240.211,324.446c4.503-0.002,9.102-0.412,13.1-0.346    c5.878,0.097,12.363,0.751,18.479,0.372c0.027,2.056,0.058,4.11,0.058,6.168c0,0.597-0.009,1.196-0.01,1.793    c-6.133-0.385-12.645,0.271-18.529,0.368c-4.025,0.067-8.638-0.346-13.149-0.344c-0.001-0.606-0.01-1.213-0.01-1.817    C240.152,328.574,240.184,326.51,240.211,324.446z M240.745,370.64c4.332-0.033,8.727-0.409,12.566-0.345    c5.708,0.094,11.986,0.706,17.947,0.396c0.026,2.637,0.101,5.278,0.211,7.921c-6.025-0.337-12.392,0.292-18.158,0.386    c-3.914,0.065-8.387-0.326-12.779-0.35C240.643,375.975,240.719,373.306,240.745,370.64z M240.565,359.093    c4.389-0.025,8.853-0.412,12.746-0.349c5.765,0.095,12.111,0.718,18.124,0.385c-0.048,2.015-0.097,4.031-0.148,6.042    c-0.016,0.626-0.012,1.254-0.02,1.881c-5.965-0.311-12.254,0.3-17.955,0.394c-3.853,0.063-8.248-0.312-12.576-0.346    c-0.008-0.642-0.004-1.286-0.02-1.928C240.663,363.15,240.615,361.12,240.565,359.093z M253.311,355.899    c-3.928,0.065-8.42-0.33-12.829-0.351c-0.06-2.666-0.117-5.333-0.165-8c4.468-0.011,9.028-0.416,12.993-0.352    c5.844,0.096,12.287,0.735,18.373,0.369c-0.047,2.651-0.103,5.303-0.164,7.954C265.48,355.176,259.094,355.804,253.311,355.899z     M253.311,344.351c-3.993,0.066-8.566-0.345-13.045-0.354c-0.04-2.671-0.068-5.34-0.086-8.007    c4.512,0.002,9.123-0.408,13.131-0.342c5.887,0.097,12.384,0.751,18.509,0.369c-0.018,2.653-0.046,5.309-0.085,7.969    C265.632,343.614,259.163,344.254,253.311,344.351z M240.369,382.193c4.451-0.014,8.991-0.415,12.941-0.35    c5.827,0.096,12.251,0.736,18.322,0.379c0.129,2.654,0.269,5.308,0.398,7.963c-6.188-0.41-12.775,0.264-18.719,0.36    c-4.081,0.068-8.768-0.364-13.341-0.354C240.099,387.525,240.24,384.859,240.369,382.193z M253.311,393.392    c6.003,0.099,12.645,0.786,18.875,0.354c0.086,2.105,0.16,4.209,0.195,6.311c0.01,0.565,0.002,1.135,0.005,1.702    c-6.292-0.463-13.017,0.236-19.077,0.336c-4.187,0.069-9.013-0.382-13.697-0.346c0.003-0.563-0.003-1.129,0.005-1.69    c0.035-2.103,0.11-4.209,0.196-6.315C244.443,393.762,249.196,393.324,253.311,393.392z M272.041,240.071    c-6.193-0.413-12.78,0.245-18.73,0.343c-4.086,0.068-8.775-0.35-13.35-0.331c-0.162-2.693-0.303-5.383-0.384-8.067    c4.703,0.054,9.543-0.373,13.735-0.305c6.082,0.1,12.812,0.784,19.114,0.316C272.344,234.704,272.204,237.386,272.041,240.071z     M253.311,228.865c-4.225,0.069-9.086-0.364-13.804-0.307c-0.008-1.282,0.002-2.564,0.042-3.842    c0.043-1.41,0.074-2.823,0.101-4.235c4.679,0.043,9.493-0.387,13.661-0.318c6.057,0.1,12.761,0.792,19.04,0.335    c0.027,1.407,0.058,2.813,0.101,4.219c0.039,1.278,0.048,2.557,0.042,3.839C266.17,228.076,259.406,228.764,253.311,228.865z     M272.279,205.425c-6.261-0.447-12.944,0.243-18.968,0.342c-4.155,0.069-8.937-0.371-13.588-0.343    c-0.015-2.672-0.039-5.345-0.061-8.016c4.677,0.033,9.489-0.41,13.65-0.342c6.055,0.1,12.751,0.777,19.029,0.321    C272.318,200.065,272.294,202.745,272.279,205.425z M272.3,216.976c-6.267-0.449-12.959,0.241-18.99,0.341    c-4.165,0.068-8.953-0.362-13.611-0.322c0.03-2.678,0.04-5.358,0.034-8.038c4.654,0.027,9.438-0.41,13.577-0.342    c6.029,0.099,12.701,0.789,18.956,0.344C272.262,211.632,272.271,214.304,272.3,216.976z M253.311,194.22    c-4.182,0.069-9-0.378-13.679-0.344c-0.017-2.18-0.032-4.359-0.039-6.538c-0.001-0.498-0.005-0.996-0.008-1.495    c4.699,0.046,9.54-0.394,13.725-0.325c6.08,0.1,12.805,0.783,19.104,0.315c-0.002,0.501-0.006,1.003-0.008,1.504    c-0.006,2.186-0.022,4.375-0.039,6.563C266.082,193.439,259.366,194.12,253.311,194.22z M272.434,182.358    c-6.306-0.471-13.046,0.213-19.123,0.313c-4.202,0.069-9.044-0.378-13.743-0.335c-0.018-2.676-0.041-5.354-0.061-8.031    c4.724,0.046,9.597-0.406,13.805-0.337c6.106,0.1,12.862,0.785,19.184,0.306C272.475,176.968,272.452,179.664,272.434,182.358z     M253.311,439.586c6.15,0.101,12.967,0.815,19.329,0.315c0.195,2.692,0.314,5.393,0.375,8.101    c-6.47-0.559-13.444,0.182-19.705,0.285c-4.376,0.072-9.445-0.417-14.324-0.328c0.061-2.689,0.18-5.37,0.373-8.042    C244.13,439.977,249.059,439.516,253.311,439.586z M272.517,170.819c-6.331-0.484-13.102,0.202-19.206,0.302    c-4.226,0.069-9.101-0.386-13.826-0.34c-0.015-2.674-0.024-5.347-0.013-8.018c4.735,0.047,9.623-0.414,13.839-0.344    c6.116,0.101,12.887,0.789,19.218,0.302C272.54,165.419,272.532,168.119,272.517,170.819z M253.311,159.573    c-4.221,0.069-9.089-0.392-13.809-0.348c0.028-2.677,0.082-5.35,0.162-8.02c4.676,0.037,9.485-0.403,13.647-0.335    c6.054,0.099,12.749,0.779,19.025,0.322c0.082,2.689,0.136,5.38,0.164,8.076C266.174,158.788,259.409,159.473,253.311,159.573z     M269.849,118.291c-0.089-0.395-0.197-0.777-0.332-1.141c2.915-0.353,6.016-1.521,8.735-1.023c1.732,0.317,1.88,0.181,1.674,2.303    c-0.127,1.313-1.072,3.053-1.543,4.279c-0.847,2.2-1.944,4.281-2.972,6.386c-0.298-2.067-0.569-4.318-1.428-6.066    C273.167,121.367,271.132,119.621,269.849,118.291z M276.155,133.434c0.845,0.726,1.844,1.265,2.864,1.946    c0.984,0.657,1.947,1.332,2.959,1.919c-0.892,1.139-3.105,4.116-3.324,4.439c-0.371,0.548-0.797,1.041-1.211,1.535    C277.135,139.964,276.713,136.676,276.155,133.434z M288.133,121.266c0.529,8.463,1.045,16.698,0.995,25.211    c-0.038,6.48,0.217,12.958,0.172,19.438c-0.039,5.511-2.924,8.004-4.954,12.841c-0.015,0.037-0.037,0.066-0.047,0.107    c-0.117,0.457-0.822,1.227-1.059,1.783c-0.203,0.477-0.351,0.988-0.471,1.507c-0.035-0.001-0.067-0.009-0.103-0.009    c-0.979-0.016-1.96-0.02-2.938-0.057c-0.486-0.018-0.947,0.025-1.406,0.08c-0.015-6.669-0.034-13.339-0.069-20.008    c-0.019-3.707,0.018-7.467-0.305-11.162c-0.28-3.192,0.28-3.502,2.6-5.921c1.326-1.381,2.096-3.191,3.339-4.641    c1.076-1.256,2.833-2.979,1.915-4.775c-0.729-1.427-2.929-2.334-4.267-3.103c-1.136-0.654-2.128-1.339-3.216-1.846    c1.11-2.26,2.354-4.481,3.206-6.87c0.838-2.35,2.546-5.32,2.602-7.786c0.109-4.748-5.899-3.596-8.994-3.497    c-1.883,0.06-6.929,1.547-8.546,0.582c-0.042-0.025-1.593-3.711-1.661-3.841c-0.91-1.759-1.603-3.487-2.368-5.328    c-1.484-3.57-3.301-8.211-6.104-11.409c0.256-0.001,0.511,0.015,0.767,0.019c1.845,0.442,3.741,0.679,5.59,1.232    c2.089,0.625,4.547,2.045,6.815,2.012c4.482,1.94,9.084,3.7,12.44,7.364C286.522,108.05,287.743,115.002,288.133,121.266z     M283.023,97.441c-2.561-1.972-5.405-3.703-8.416-4.989c0.03-2.93,0.254-5.871,0.303-8.789c0.01-0.541,0.057-1.119,0.087-1.699    c1.718,1.673,3.26,3.544,4.295,5.582C280.814,90.542,281.85,94.183,283.023,97.441z M272.465,67.13    c1.683,2.523,2.451,5.474,3.216,8.425c-1.027-0.74-2.109-1.388-3.223-1.946c-0.271-0.136-0.653-0.671-0.998-0.871    c-0.531-0.307-1.248-0.414-1.811-0.708c-1.144-0.596-2.237-1.418-3.033-2.441c-0.996-1.281-0.99-3.227-1.328-4.812    c-0.272-1.277-0.552-2.6-0.799-3.921c0.218,0.04,0.426,0.072,0.625,0.1C267.887,62.671,270.645,64.4,272.465,67.13z     M247.743,53.066c0.203-0.321,0.435-0.623,0.684-0.914c1.559-1.264,2.987-2.811,5.06-3.299c1.789-0.421,3.567-0.449,5.278,0.186    c0.766,0.285,1.332,0.482,1.891,0.524c1.379,1.047,2.731,2.13,3.601,3.503c0.501,0.79,0.946,1.618,1.393,2.443    c-4.362-1.954-10.101-1.526-14.488-0.673c-1.525,0.296-3.394,0.768-5.243,1.46C246.521,55.218,247.083,54.108,247.743,53.066z     M243.022,69.131c0.075-1.418-0.003-2.848,0.072-4.268c0.027-0.504,0.04-0.865,0.047-1.135c0.045-0.018,0.091-0.036,0.137-0.054    c0.082,0.273,0.215,0.584,0.443,0.797c1.89,1.767,4.503,3.842,6.282,6.017c-1.661,0.363-3.425,0.822-5.184,1.379    c-0.732,0.112-1.452,0.293-2.166,0.505C242.841,71.301,242.964,70.219,243.022,69.131z M240.878,78.677    c0.419-0.312,0.866-0.606,1.323-0.893c0.115-0.048,0.228-0.099,0.343-0.146c2.076-0.763,4.254-1.395,6.383-1.815    c-0.083,0.159-0.166,0.321-0.247,0.481c-1.196,2.319-1.973,4.37-2.816,6.816c-0.238,0.692-0.768,3.803-1.244,5.541    c-2.561-1.91-5.03-4.863-7.849-6.466C238.074,80.9,239.486,79.717,240.878,78.677z M239.536,67.13    c0.084-0.126,0.176-0.241,0.264-0.363c-0.067,2.179,0.063,4.567,0.43,6.506c-1.362,0.62-2.674,1.391-3.911,2.282    C237.086,72.604,237.853,69.653,239.536,67.13z M234.883,84.565c0.057-0.097,0.128-0.191,0.215-0.283    c1.046,1.659,3.63,3.157,5.206,4.401c0.776,0.612,1.49,1.303,2.224,1.965c-0.545,0.171-1.086,0.357-1.623,0.549    c-1.964,0.572-3.878,1.35-5.713,2.289c0.188-1.191,0.221-2.386,0.199-3.629c-0.017-0.98-0.07-1.87-0.308-2.792    C234.879,86.266,234.427,85.34,234.883,84.565z M232.131,88.829c0.394,1.962,0.98,3.898,1.447,5.533    c-1.61,0.926-3.15,1.964-4.599,3.079C229.991,94.626,230.921,91.551,232.131,88.829z M222.872,146.477    c-0.049-8.513,0.467-16.748,0.995-25.211c0.392-6.264,1.613-13.216,6.067-18.078c4.627-5.051,11.615-6.491,17.401-9.765    c0.901-0.166,1.806-0.309,2.72-0.424c-3.073,5.937-4.938,12.933-6.578,19.257c-0.311,1.199-0.371,2.758-0.903,3.889    c-0.271,0.579-0.231,0.932-0.165,1.101c-0.182-0.182-0.703-0.558-2.01-1.073c-2.481-0.976-5.258-1.936-7.889-2.452    c-6.044-1.187-6.859,1.334-4.814,6.296c0.973,2.358,2.311,4.539,3.484,6.799c0.771,1.484,1.968,3.045,2.138,4.759    c0.17,1.711-1.497,1.89-2.799,2.533c-1.285,0.634-2.884,1.75-4.193,2.237c-0.6,0.223-1.135,0.753-1.101,1.446    c0.146,2.994,5.993,8.144,9.031,9.19c-0.352,5.079-0.484,10.175-0.51,15.179c-0.037,7.046-0.056,14.092-0.072,21.138    c-0.119-0.017-0.243-0.027-0.378-0.022c-0.325-0.008-0.642,0.004-0.958,0.023c-0.926,0.012-1.944,0.019-2.897,0.172    c-0.09-0.976-0.31-1.952-0.683-2.826c-0.237-0.556-0.943-1.324-1.059-1.783c-0.011-0.041-0.032-0.07-0.047-0.107    c-2.03-4.837-4.916-7.33-4.954-12.841C222.655,159.436,222.91,152.957,222.872,146.477z M217.288,174.773    c2.171-1.115,2.961,0.92,4.158,2.295c2.203,2.53,5.802,9.012,0.94,10.459c-4.092,1.218-6.028-3.404-6.597-6.691    C215.438,178.804,215.151,175.871,217.288,174.773z M197.637,207.194c-0.802-0.748-0.497-6.889-0.69-8.347    c-0.259-1.968-0.906-4.609,0.839-5.453c1.335-0.646,4.608-0.748,6.127-0.844c4.08-0.258,8.836,0.289,12.602-1.554    c0.481,0.338,0.98,0.643,1.518,0.876c-0.085,3.571-1.196,7.145-1.33,10.727c-0.069,1.839-0.049,3.682-0.039,5.524    c-4.278-0.863-9.154,0.13-13.366-0.133C202.815,207.961,198.027,207.557,197.637,207.194z M187.018,371.09    c1.314-2.808,3.228-1.622,6.155-1.475c1.743,0.087,3.468-0.326,5.207-0.581c2.652-0.387,5.046-0.685,6.854-2.96    c0.353-0.443,0.446-0.99,0.185-1.467c0.118-0.305,0.204-0.639,0.225-1.023c1.399-27.214-1.505-54.37-1.574-81.54    c-0.032-12.917-1.084-26.121,0.213-38.958c0.599-5.933,0.628-12.29,0.474-18.263c-0.085-3.29,0.7-7.446,0.132-10.98    c1.349,0.049,2.708,0.078,4.137,0.098c2.608,0.037,5.052,0.618,7.498,0.424c-0.032,0.449-0.068,0.897-0.116,1.345    c-0.851,7.899-0.824,15.882-1.359,23.788c-0.655,9.698-0.081,19.633-0.107,29.353c-0.027,9.961-0.084,19.922-0.1,29.883    c-0.013,8.349-0.112,17.047-0.821,25.387c-0.814,9.584-0.323,19.322-0.353,28.941c-0.014,4.405,0.576,8.742,0.543,13.122    c-0.018,2.553-0.171,5.088-0.158,7.626c-3.392-0.313-6.974,0.058-10.321-0.069c-3.296-0.125-6.788,0.1-10.007,0.828    c-0.707,0.16-1.229,0.903-1.225,1.609c0.012,2.475-0.009,4.981,0.083,7.472c-0.023,0.146-0.023,0.29,0.012,0.425    c0.04,0.932,0.096,1.86,0.18,2.783c0.228,2.51-0.024,5.22,0.25,7.757c-9.335,0.695-6.784-6.566-6.44-13.282    C186.735,378.424,185.766,373.766,187.018,371.09z M176.042,456.62c7.909-0.665,16.076,0.046,24.022,0.099    c4.541,0.029,9.585,0.692,14.154,0.005c0.077,2.792,0.158,5.23,0.187,6.556c-1.258-0.104-2.552-0.013-4.067,0.113    c-4.65,0.383-9.576,0.547-14.251,0.423c-4.877-0.128-9.772-0.138-14.666-0.067c-2.588,0.038-5.847-0.271-8.675,0.209    c-0.005-0.688-0.006-1.376-0.006-2.07c0-0.579-0.51-4.739-0.001-5.151C172.318,457.08,175.471,456.668,176.042,456.62z     M180.43,467.825c5.246,0.109,10.501,0.229,15.723,0.411c6.111,0.212,12.373-0.775,18.497-0.459c0.201,1.4,0.549,2.813,1.088,4.1    c-6.28,0.061-12.62,0.572-18.73,0.66c-5.025,0.072-9.981,0.764-15,0.77c-2.61,0.004-5.88,0.201-8.683,1.05    c-0.087-1.173-0.185-2.336-0.288-3.468c-0.101-1.098-0.159-2.19-0.203-3.284C175.321,467.998,178.052,467.776,180.43,467.825z     M210.32,416.492c-3.561,0.186-7.132,0.288-10.69,0.521c-2.551,0.167-5.088,0.553-7.618,0.698    c0.081-0.004-1.502-0.043-2.825,0.112c-0.219-1.854-0.544-4.116-0.136-5.164c1.063-2.733,9.849-1.965,12.452-1.954    c4.462,0.017,8.833-0.298,13.285-0.288c-0.004,1.908-0.014,3.814-0.027,5.719C213.354,416.129,211.908,416.409,210.32,416.492z     M214.742,420.125c-0.017,1.901-0.038,3.801-0.058,5.701c-4.754,0.522-9.521-0.069-14.272,0.414    c-3.64,0.37-7.213,0.906-10.783,1.412c-0.011-0.209-0.004-0.409-0.018-0.62c-0.131-2.014-0.224-3.988-0.244-5.993    c3.605,0.492,7.417-0.156,11.008-0.303C204.537,420.563,210.295,421.392,214.742,420.125z M189.653,430.932    c2.561,0.371,5.531-0.244,7.859-0.436c5.706-0.471,11.446-0.056,17.126-0.68c-0.023,1.947-0.043,3.895-0.067,5.841    c-4.655-0.478-9.717,0.312-14.254,0.235c-3.694-0.063-7.485,0.346-11.252,0.625C189.396,434.643,189.589,432.807,189.653,430.932z     M196.139,385.025c6.099,0.555,12.504,0.006,18.567-0.741c0.056,1.232,0.1,2.464,0.127,3.697    c-3.044-0.173-6.321,0.158-9.161,0.449c-3.232,0.33-6.414,0.117-9.495,0.95C196.213,387.934,196.189,386.48,196.139,385.025z     M205.204,381.238c-3.121,0.358-6.215,0.105-9.197,0.651c-0.067-1.448-0.132-2.893-0.156-4.323    c6.027-0.907,12.275,0.868,18.395,0.187c0.117,1.124,0.2,2.253,0.28,3.38C211.764,380.019,207.977,380.92,205.204,381.238z     M196.011,392.173c3.003,0.654,6.549,0.174,9.435-0.049c3.109-0.241,6.353,0.2,9.438-0.206c0.004,1.064,0.008,2.128,0.002,3.192    c-3.15-0.776-5.896-0.567-9.267-0.548c-3.297,0.018-6.611-0.15-9.911-0.067C195.839,393.725,195.938,392.95,196.011,392.173z     M176.477,402.066c0.351-0.746,2.5-1.16,3.803-1.378c3.273-0.55,6.265,0.327,9.499,0.356c3.107,0.028,6.244-0.567,9.375-0.611    c5.411-0.077,10.524-0.186,15.704-1.648c-0.023,2.301-0.043,4.601-0.046,6.899c-5.675-0.132-11.448,0.152-17.104,0.552    c-2.824,0.199-5.546,0.868-8.342,1.245c-1.284,0.173-2.6,0.066-3.525,1.191c-0.838,1.022-0.667,2.456-0.634,3.658    c0.096,3.425,0.31,6.892,0.412,10.337c0.059,2.001,0.285,3.988,0.403,5.984c-0.069,0.184-0.072,0.386,0.037,0.577    c0.04,0.856,0.058,1.714,0.02,2.577c-0.077,1.773-0.233,3.278-0.067,4.896c-1.802,0.076-3.592,0.089-5.354-0.042    c-5.93-0.443-3.184-6.731-3.313-11.075c-0.087-2.916-0.264-5.827-0.368-8.742c-0.135-3.728-0.21-7.461-0.258-11.19    C176.713,404.921,176.345,402.346,176.477,402.066z M160.185,479.185c-0.015-5.677,0.073-11.441,0.452-17.089    c0.344-5.141,0.018-10.295,0.341-15.425c0.184-2.932,0.998-2.538,4.127-2.617c2.86-0.071,5.731,0.109,8.594,0.071    c5.627-0.074,11.377-0.279,17.008-0.522c5.077-0.219,10.167-0.462,15.253-0.7c2.916-0.137,5.73-0.882,8.549-1.615    c-0.484,0.126-0.506,5.171-0.407,10.508c-6.948-0.474-14.181,0.1-21.057,0.164c-4.505,0.041-9.017,0.077-13.52,0.209    c-2.641,0.076-6.334-0.153-8.735,1.031c-1.727,0.851-1.988,1.768-2.246,3.54c-0.514,3.527-0.19,7.906-0.016,11.5    c0.135,2.782,0.576,5.545,0.766,8.331c0.297,4.357-0.207,8.68,0.683,12.963c-3.259-0.226-6.541-0.445-9.76-0.186    C160.205,485.96,160.195,482.573,160.185,479.185z M174.935,503.047c-0.052,0.411-0.083,0.811-0.103,1.204    c-4.701-0.241-9.389-0.408-14.065,0.003c-0.087-0.492-0.225-0.992-0.27-1.39c-0.252-2.19-0.252-4.347-0.259-6.556    c-0.003-1.017-0.006-2.033-0.01-3.05c5.088,0.793,10.246,1.287,15.431,1.578C175.164,497.527,175.273,500.339,174.935,503.047z     M193.081,504.483c-0.161,0.012-0.324,0.019-0.485,0.032c-4.271,0.33-8.534,0.203-12.789-0.005    c-0.439-3.097-0.022-6.354-0.522-9.504c4.851,0.197,9.71,0.256,14.543,0.281C193.195,498.205,192.707,501.482,193.081,504.483z     M210.861,500.069c-0.069,1.215-0.12,2.659-0.031,4.061c-4.083-0.046-8.182-0.065-12.262,0.069    c-0.48-2.892,0.001-6.053-0.749-8.865c4.505,0.061,8.984,0.229,13.48,0.324C210.981,497.1,210.942,498.65,210.861,500.069z     M226.44,504.737c-0.859-0.237-1.684-0.439-2.369-0.458c-2.535-0.071-5.086-0.074-7.63-0.09c-0.193-1.44-0.536-2.9-0.639-4.12    c-0.111-1.308-0.156-2.896-0.426-4.355c0.224,0.001,0.445,0.008,0.669,0.009c3.016,0.014,5.928-0.242,8.933-0.358    c3.175-0.123,7.847-1.167,10.895-0.134c0.231,0.079,0.472,0.104,0.715,0.102c-0.166,3.178-0.301,6.324,0.327,9.437    C233.5,504.654,229.909,504.511,226.44,504.737z M236.695,489.835c-4.585-1.136-10.844-0.21-15.313,0.257    c-7.764,0.811-15.444-0.175-23.208-0.044c-7.375,0.125-14.723-0.122-22.094-0.207c-1.112-0.013-2.237-0.068-3.365-0.135    c0.33-1.448,0.551-2.943,0.689-4.462c11.773,1.375,23.749,0.039,35.515-0.158c6.814-0.115,13.586-0.141,20.394-0.341    c2.812-0.083,5.533,0.068,8.201-0.001C236.89,486.282,236.73,488.062,236.695,489.835z M256.001,504.332    c-4.643-0.355-9.764,0.498-13.853,0.535c-0.494,0.004-1.002,0-1.512-0.005c1.079-4.933,0.619-10.31,1.325-15.321    c0.681-4.831,1.449-3.884,6.043-3.688c3.629,0.154,7.271-0.116,10.903,0.012c3.009,0.107,6.883-0.176,9.77,0.693    c0.198,0.059,0.337,0.049,0.441,0.008c-0.003,0.13-0.003,0.275,0.004,0.458c0.052,1.262-0.053,2.554-0.072,3.817    c-0.064,4.25-0.512,9.714,0.593,14.021C265.588,504.798,260.567,503.983,256.001,504.332z M269.081,481.46    c-4.029-0.358-8.124-0.59-12.195-0.578c-4.157,0.012-8.468-0.531-12.598-0.252c-4.683-0.657-10.011-0.509-14.445-0.201    c-7.799,0.542-15.62,0.029-23.416,0.586c-6.465,0.463-12.865,0.333-19.337,0.684c-3.626,0.196-9.402-0.893-13.513,0.284    c0.03-1.442,0.008-2.892-0.055-4.331c8.425,0.411,16.938-0.392,25.374-0.706c5.357-0.2,10.616-0.171,15.961-0.32    c1.616-0.045,3.11-0.224,4.559-0.47c0.671,0.332,1.416,0.568,2.261,0.652c2.269,0.226,4.781-0.679,7.099-0.664    c3.952,0.026,7.78,0.385,11.739-0.057c5.165-0.578,10.37,0.173,15.485-0.368c5.115,0.541,10.32-0.209,15.485,0.368    c3.959,0.442,7.787,0.083,11.739,0.057c2.317-0.015,4.829,0.891,7.099,0.664c1.132-0.113,2.097-0.477,2.922-1.019    c6.273,0.644,12.819-0.252,18.999-0.354c3.739-0.061,7.518,0.02,11.205,0.073c4.987,0.072,10.336-0.538,15.315,0.03    c-0.036,1.36-0.103,2.729-0.16,4.096c-2.413-0.107-4.82,0.292-7.27,0.348c-3.386,0.076-6.817-0.119-10.196,0.053    c-6.28,0.322-12.481,1.104-18.783,1.183c-6.037,0.077-12.085,0.92-18.132,0.593c-0.909-0.048-6.909-0.001-11.948,0.316    C271.451,481.722,270.398,481.577,269.081,481.46z M286.065,503.97c-0.024,0.216-0.035,0.43-0.039,0.643    c-0.154,0.04-0.308,0.08-0.465,0.124c-3.456-0.225-7.034-0.083-10.438,0.031c0.196-2.984-0.077-6.032-0.278-8.997    c-0.031-0.465-0.047-0.946-0.057-1.434c4.143,0.346,8.292,0.625,12.631,0.609c0.18-0.001,0.36-0.006,0.541-0.009    C287.116,497.884,286.396,501.018,286.065,503.97z M309.741,500.121c-0.113,1.377-0.208,2.698-0.124,3.996    c-4.016-0.048-8.04,0.008-12.038,0.057c-2.038,0.025-4.084,0.033-6.129,0.053c0.024-0.126,0.052-0.267,0.076-0.445    c0.186-1.334,0.047-2.695,0.185-4.044c0.178-1.724,0.037-3.276-0.32-4.865c6.332-0.179,12.735-0.6,19.04-0.175    C310.035,496.47,309.89,498.304,309.741,500.121z M285.837,489.721c-3.422,0.039-7.482-0.548-11.055,0.088    c-0.018-1.441-0.1-2.855-0.353-4.158c3.291-0.009,6.593-0.088,9.795,0.165c6.297,0.497,12.497-0.299,18.769-0.308    c6.082-0.008,12.082-0.857,18.146-1.088c5.021-0.19,12.34,1.669,17.384-0.2c0.039,1.776,0.188,3.523,0.562,5.212    c0,0,0.001,0.001,0.001,0.002c-1.616,0.079-3.222,0.154-4.805,0.192c-7.828,0.19-15.713,0.089-23.505-0.378    C302.476,488.751,294.128,489.628,285.837,489.721z M329.802,504.615c-3.46,0.133-6.927,0.168-10.397-0.1    c-1.392-0.108-2.79-0.183-4.19-0.245c0.11-3.008-0.167-6.34-0.907-9.259c5.173,0.406,10.512,0.351,15.761,0.251    c-0.296,1.615-0.199,3.317-0.295,4.964C329.692,501.642,329.59,503.189,329.802,504.615z M351.763,496.307    c-0.006,2.21-0.008,4.366-0.259,6.556c-0.046,0.399-0.183,0.898-0.27,1.39c-5.23-0.461-10.477-0.197-15.737,0.085    c-0.028-1.556-0.427-3.223-0.516-4.616c-0.091-1.423-0.374-3.04-0.856-4.538c0.314-0.005,0.632-0.012,0.945-0.017    c3.46-0.056,6.732-0.622,10.22-0.24c2.268,0.249,4.343,0.243,6.479-0.055C351.766,495.352,351.765,495.83,351.763,496.307z     M351.785,489.321c-2.335-0.176-4.709-0.187-7.092-0.12c0.056-0.493-0.016-1.004-0.209-1.476    c-0.605-6.984-0.154-14.103-0.811-21.126c-0.377-4.026-0.717-13.898-4.922-16.271c-2.109-1.191-6.038-0.707-8.279-0.743    c-3.954-0.062-7.948,0.398-11.888,0.184c-7.12-0.386-13.705-0.701-20.652-0.09c0.053-4.482-0.019-8.282-0.439-8.391    c2.819,0.734,5.633,1.478,8.549,1.615c5.086,0.239,10.176,0.482,15.253,0.7c5.63,0.242,11.381,0.448,17.008,0.522    c2.863,0.038,5.734-0.142,8.594-0.071c3.129,0.077,3.943-0.316,4.127,2.617c0.323,5.13-0.003,10.284,0.341,15.425    c0.379,5.648,0.467,11.412,0.452,17.089C351.807,482.563,351.795,485.942,351.785,489.321z"/>
	</g>
</g>
<g>
</g>
<g>
</g>
<g>
</g>
<g>
</g>
<g>
</g>
<g>
</g>
<g>
</g>
<g>
</g>
<g>
</g>
<g>
</g>
<g>
</g>
<g>
</g>
<g>
</g>
<g>
</g>
<g>
</g>
</svg>
