<?xml version="1.0" encoding="iso-8859-1"?>
<!-- Generator: Adobe Illustrator 19.0.0, SVG Export Plug-In . SVG Version: 6.00 Build 0)  -->
<svg xmlns="http://www.w3.org/2000/svg" xmlns:xlink="http://www.w3.org/1999/xlink" version="1.1" id="Layer_1" x="0px" y="0px" viewBox="0 0 512.002 512.002" style="enable-background:new 0 0 512.002 512.002;" xml:space="preserve">
<g>
	<g>
		<path d="M280.732,164.189c-0.526-4.705-0.628-9.389-1.682-14.021c-1.501-6.603-0.803-18.78-7.518-22.816    c-3.81-2.29-7.682-1.71-11.064,0.291c-11.008,3.634-10.844,20.273-10.113,29.779c0.225,2.939,0.157,5.983,0.875,8.867    c0.667,2.674,0.596,7.018,2.008,9.375c2.425,4.051,9.176,2.103,12.843,1.477c4.197-0.716,12.257,0.06,14.31-4.439    C281.533,170.202,281.023,166.789,280.732,164.189z M261.515,172.903c-0.007,0.001-2.367-0.073-2.579-0.136    c-0.425-0.002-0.796,0.12-1.115,0.368c-0.151-0.94-0.302-1.878-0.453-2.818c-0.321-2.034-0.901-3.874-1.341-5.863    c-0.03-0.133-0.059-0.269-0.087-0.403c-0.053-2.576-0.087-5.144-0.312-7.583c-0.59-6.408-1.311-13.593,1.517-19.629    c1.621-3.458,5.223-6.974,8.825-6.802c-3.163,3.184-4.098,11.75-3.866,14.571c0.508,6.18,1.698,12.217,2.476,18.354    c0.357,2.819,0.444,6.265,1.276,9.095C264.402,172.405,262.919,172.799,261.515,172.903z M276.261,170.711    c-0.648,0.876-3.923,0.779-6.318,0.799c-0.031-0.063-0.068-0.122-0.105-0.182c-2.027-5.084-2.181-12.62-2.877-17.93    c-0.881-6.73-2.975-16.33,2.138-22.135c0.172,0.134,0.346,0.256,0.515,0.415c3.868,3.639,3.638,9.537,4.243,14.456    c0.551,4.484,1.789,8.775,2.055,13.316C276.067,162.106,277.79,168.639,276.261,170.711z"/>
	</g>
</g>
<g>
	<g>
		<path d="M313.41,36.221c-0.018-2.908-0.086-5.828-0.794-8.664c-0.439-1.761-0.39-3.223-2.122-4.094    c-0.995-0.5-2.796-1.305-3.886-1.239c-3.56,0.215-4.513,5.043-5.182,7.604c-0.924,3.534-0.56,6.912-0.188,10.532    c0.099,0.964,0.289,2.006,1.01,2.652c0.82,0.731,2.042,0.715,3.14,0.656c1.268-0.068,2.534-0.135,3.801-0.204    c1.018-0.054,2.076-0.12,2.962-0.621C314.219,41.673,313.422,38.174,313.41,36.221z M310.129,37.844    c-0.169,2.344-1.192,3.602-3.602,2.27c-0.445-0.247-0.815-0.534-1.123-0.856c-1.765-1.85-1.423-4.815-1.059-7.322    c0.214-1.476,0.658-6.192,2.813-6.293c0.133-0.006,0.268-0.004,0.4,0.013C311.581,26.172,310.313,35.281,310.129,37.844z"/>
	</g>
</g>
<g>
	<g>
		<path d="M394.225,127.644c-3.382-2.002-7.253-2.582-11.064-0.291c-6.715,4.036-6.017,16.213-7.518,22.816    c-1.053,4.632-1.156,9.316-1.683,14.022c-0.291,2.6-0.801,6.013,0.341,8.514c2.053,4.499,10.114,3.723,14.31,4.439    c3.666,0.626,10.417,2.574,12.843-1.477c1.411-2.358,1.342-6.7,2.008-9.375c0.718-2.884,0.65-5.928,0.875-8.867    C405.067,147.916,405.231,131.279,394.225,127.644z M387.733,153.397c-0.695,5.31-0.85,12.846-2.877,17.93    c-0.037,0.059-0.073,0.117-0.105,0.182c-2.395-0.019-5.671,0.079-6.318-0.799c-1.53-2.072,0.193-8.605,0.348-11.26    c0.267-4.541,1.505-8.831,2.055-13.316c0.605-4.919,0.375-10.817,4.243-14.456c0.169-0.159,0.342-0.28,0.515-0.415    C390.709,137.067,388.614,146.667,387.733,153.397z M399.065,156.466c-0.225,2.438-0.26,5.006-0.312,7.583    c-0.029,0.134-0.059,0.272-0.087,0.403c-0.439,1.99-1.02,3.831-1.341,5.863c-0.151,0.94-0.302,1.878-0.451,2.818    c-0.318-0.248-0.691-0.37-1.115-0.367c-0.212,0.063-2.573,0.138-2.58,0.136c-1.404-0.105-2.886-0.498-4.34-0.849    c0.832-2.829,0.919-6.274,1.276-9.095c0.777-6.138,1.967-12.175,2.476-18.354c0.232-2.822-0.703-11.386-3.865-14.571    c3.602-0.172,7.204,3.344,8.825,6.802C400.377,142.873,399.655,150.058,399.065,156.466z"/>
	</g>
</g>
<g>
	<g>
		<path d="M353.268,29.826c-0.668-2.558-1.621-7.387-5.182-7.603c-1.091-0.066-2.891,0.739-3.886,1.239    c-1.732,0.872-1.683,2.333-2.122,4.094c-0.708,2.836-0.776,5.756-0.794,8.662c-0.012,1.954-0.81,5.453,1.259,6.622    c0.887,0.502,1.945,0.567,2.962,0.621c1.267,0.068,2.534,0.135,3.801,0.203c1.098,0.059,2.321,0.075,3.14-0.656    c0.723-0.645,0.912-1.688,1.01-2.652C353.828,36.738,354.192,33.36,353.268,29.826z M349.29,39.258    c-0.306,0.322-0.678,0.609-1.123,0.856c-2.41,1.331-3.433,0.073-3.602-2.27c-0.184-2.562-1.452-11.672,2.57-12.187    c0.132-0.017,0.267-0.02,0.4-0.013c2.155,0.102,2.599,4.816,2.813,6.293C350.713,34.443,351.056,37.408,349.29,39.258z"/>
	</g>
</g>
<g>
	<g>
		<path d="M327.385,17.899c-5.315,1.383-7.216,5.831-7.585,10.803c-0.099,0.125-0.182,0.275-0.22,0.482    c-0.462,2.509-0.265,4.702-0.277,7.215c-0.008,1.669-0.692,3.657,0.471,5.091c0.906,1.119,2.459,1.353,3.794,1.465    c3.195,0.269,6.593-0.176,9.792-0.224c1.17-0.018,1.938-0.922,2.034-2.034C335.877,35.055,337.562,15.253,327.385,17.899z     M331.778,38.531c-0.842-0.028-1.683-0.017-2.574-0.046c-0.821-0.026-5.473,0.345-5.746,0.129    c-0.286-0.226-0.599-1.635-0.877-3.297c-0.321-4.927-0.301-10.331,3.383-13.099c5.932-4.458,5.685,4.191,5.88,7.893    C331.992,32.912,332.273,35.763,331.778,38.531z"/>
	</g>
</g>
<g>
	<g>
		<path d="M347.239,160.939c0.213-3.979,0.369-7.974,0.006-11.948c-0.648-7.092-0.827-13.711-2.514-20.642    c-0.97-3.983-1.787-8.288-5.224-10.952c-3.813-2.957-9.365-2.966-13.912-2.201c-9.588,1.611-13.889,10.967-15.853,19.424    c-1.306,5.623-1.012,11.194-0.936,16.908c0.028,2.054-0.019,4.409,0.062,6.794c-0.801,3.812-0.718,8.456,1.176,10.942    c3.741,4.909,14.507,3.182,19.653,3.359c4.334,0.148,13.292,2.248,16.379-1.993C347.766,168.306,347.094,163.639,347.239,160.939z     M342.222,155.454c-0.211,3.59-1.49,7.604-0.87,11.142c-0.259,0.433-1.043,0.316-3.061,0.481    c-3.095,0.254-6.147,0.293-9.233,0.073c-4.015-0.286-13.163,1.925-15.624-2.212c-0.087-0.148-0.164-0.302-0.238-0.457    c-0.193-7.755-0.405-15.826,0.326-23.462c0.836-8.735,4.087-20.321,14.399-21.199c4.805-0.409,9.037-0.048,10.968,5.027    c1.648,4.329,2.631,9.578,2.77,14.185C341.826,144.497,342.542,149.992,342.222,155.454z"/>
	</g>
</g>
<g>
	<g>
		<path d="M121.67,215.484c-1.554-8.218-7.701-13.448-16.093-11.086c-8.228,2.315-10.128,11.35-10.936,18.77    c-0.379,3.492-0.226,6.913-0.032,10.362c-0.447,3.93-0.588,7.954-0.19,11.752c0.615,5.901,2.113,7.544,8.373,8.398    c5.051,0.688,11.448,2.009,16.435,0.424c3.206-1.019,4.109-3.401,4.261-6.112c0.289-0.545,0.399-1.184,0.278-1.767    C124.432,236.047,123.564,225.495,121.67,215.484z M107.345,220.329c0.943-0.193,1.86-0.119,2.847,0.101    c3.315,0.737,3.922,3.843,4.034,6.838c0.023,0.612,0.192,1.429,0.066,2.041c-0.125,0.605-0.589,1.088-0.517,1.183    c-0.737,0.139-1.579,0.044-2.167,0.043c-1.523-0.002-3.042-0.168-4.557-0.186c-1.022-0.012-2.193,0.475-3.261,0.488    c-0.256-1.84-0.279-3.791,0.25-5.561c0.444-1.484,1.36-2.95,2.298-4.326C106.78,220.729,107.55,220.34,107.345,220.329z     M119.344,240.783c-0.03,0.068-0.063,0.132-0.089,0.206c-0.808,2.452,0.105,5.105-0.675,7.505    c-0.354,1.089,0.278,0.596-1.162,1.028c-4.347,1.302-9.992,0.231-14.407-0.449c-0.822-0.127-2.577-0.229-3.57-0.743    c0.165-0.117-0.151-1.021-0.199-1.232c-0.535-2.328-0.742-4.705-0.929-7.08c-0.045-4.744-0.269-9.973-0.272-10.962    c-0.013-6.08,0.518-16.202,6.208-19.835c0.695-0.444,1.411-0.788,2.134-1.049c-0.071,1.674-0.105,3.354-0.111,5.027    c-0.005,1.161-0.041,2.658,0.363,3.879c-1.091,0.399-2.052,1.135-2.516,2.148c-0.846,0.633-1.494,1.526-1.901,2.637    c-0.241,0.657-0.524,1.334-0.741,2.022c-1.001,2.472-1.137,5.386-0.733,7.97c0.431,2.749,3.147,2.284,5.34,2.037    c0.151-0.017,0.304-0.016,0.456-0.025c-0.059,0.233-0.101,0.479-0.132,0.74c-0.012,0.102-0.023,0.205-0.035,0.306    c0.056-0.509-0.006,0.023-0.036,0.231c-0.108,0.768-0.18,1.354,0.013,2.124c0.292,1.173,1.675,1.992,2.843,1.614    c1.241-0.401,1.894-1.577,1.614-2.843c-0.148-0.673-0.233-1.344-0.397-1.986c1.482,0.126,2.959,0.18,4.36-0.282    c4.715-1.555,2.692-10.774,0.714-13.797c-1.195-1.824-3.433-2.789-5.596-3.12c0.419-1.182,0.405-2.488,0.528-3.791    c0.169-1.792,0.193-3.585,0.286-5.379c3.006,0.413,5.624,2.449,6.719,6.006c0.921,2.987,0.814,6.615,1.192,9.699    C119.321,229.139,119.541,234.966,119.344,240.783z"/>
	</g>
</g>
<g>
	<g>
		<path d="M66.303,215.484c-1.554-8.218-7.701-13.448-16.093-11.086c-8.228,2.315-10.128,11.35-10.936,18.77    c-0.38,3.492-0.226,6.913-0.032,10.362c-0.447,3.93-0.588,7.954-0.19,11.752c0.615,5.901,2.113,7.544,8.373,8.398    c5.051,0.688,11.448,2.009,16.435,0.424c3.206-1.019,4.109-3.401,4.261-6.112c0.289-0.545,0.397-1.184,0.278-1.767    C69.065,236.047,68.197,225.495,66.303,215.484z M51.979,220.329c0.943-0.193,1.86-0.119,2.847,0.101    c3.315,0.737,3.922,3.843,4.034,6.838c0.023,0.612,0.192,1.429,0.066,2.041c-0.125,0.605-0.589,1.088-0.517,1.183    c-0.737,0.139-1.579,0.044-2.167,0.043c-1.523-0.002-3.042-0.168-4.557-0.186c-1.022-0.012-2.193,0.475-3.261,0.488    c-0.256-1.84-0.279-3.791,0.25-5.561c0.444-1.484,1.36-2.95,2.298-4.326C51.413,220.729,52.183,220.34,51.979,220.329z     M63.975,240.783c-0.03,0.068-0.063,0.132-0.089,0.206c-0.808,2.452,0.105,5.105-0.675,7.505    c-0.354,1.089,0.278,0.596-1.164,1.028c-4.347,1.302-9.992,0.231-14.407-0.449c-0.822-0.127-2.577-0.229-3.57-0.743    c0.165-0.117-0.151-1.021-0.2-1.232c-0.535-2.328-0.742-4.705-0.929-7.08c-0.045-4.744-0.269-9.973-0.272-10.962    c-0.008-6.08,0.523-16.202,6.213-19.835c0.696-0.444,1.411-0.788,2.134-1.049c-0.071,1.674-0.105,3.354-0.111,5.027    c-0.004,1.161-0.041,2.658,0.363,3.879c-1.091,0.399-2.052,1.135-2.516,2.148c-0.846,0.633-1.494,1.526-1.901,2.637    c-0.241,0.657-0.524,1.334-0.741,2.022c-1,2.472-1.137,5.386-0.733,7.97c0.431,2.749,3.147,2.284,5.34,2.037    c0.151-0.017,0.304-0.016,0.456-0.025c-0.059,0.233-0.101,0.479-0.132,0.74c-0.012,0.102-0.023,0.205-0.035,0.306    c0.056-0.509-0.006,0.023-0.036,0.231c-0.108,0.768-0.18,1.354,0.012,2.124c0.292,1.173,1.676,1.992,2.843,1.614    c1.241-0.401,1.895-1.577,1.614-2.843c-0.15-0.673-0.233-1.344-0.399-1.986c1.482,0.126,2.959,0.18,4.36-0.282    c4.715-1.555,2.692-10.774,0.713-13.797c-1.195-1.824-3.433-2.789-5.596-3.12c0.419-1.182,0.405-2.488,0.528-3.791    c0.169-1.792,0.193-3.585,0.286-5.379c3.006,0.413,5.624,2.449,6.719,6.006c0.921,2.987,0.814,6.615,1.192,9.699    C63.952,229.139,64.172,234.966,63.975,240.783z"/>
	</g>
</g>
<g>
	<g>
		<path d="M177.038,215.484c-1.554-8.218-7.701-13.448-16.093-11.086c-8.228,2.315-10.128,11.35-10.936,18.77    c-0.379,3.492-0.226,6.913-0.032,10.362c-0.448,3.93-0.589,7.954-0.192,11.752c0.615,5.901,2.113,7.544,8.373,8.398    c5.051,0.688,11.448,2.009,16.435,0.424c3.206-1.019,4.109-3.401,4.261-6.112c0.289-0.545,0.397-1.184,0.278-1.767    C179.798,236.047,178.93,225.495,177.038,215.484z M162.712,220.329c0.943-0.193,1.86-0.119,2.847,0.101    c3.314,0.737,3.922,3.843,4.034,6.838c0.023,0.612,0.192,1.429,0.066,2.041c-0.125,0.605-0.589,1.088-0.517,1.183    c-0.736,0.139-1.579,0.044-2.167,0.043c-1.523-0.002-3.042-0.168-4.557-0.186c-1.022-0.012-2.193,0.475-3.261,0.488    c-0.256-1.84-0.279-3.791,0.25-5.561c0.444-1.484,1.36-2.95,2.298-4.326C162.147,220.729,162.917,220.34,162.712,220.329z     M174.709,240.783c-0.03,0.068-0.063,0.132-0.089,0.206c-0.808,2.452,0.105,5.105-0.675,7.505    c-0.354,1.089,0.278,0.596-1.162,1.028c-4.347,1.302-9.992,0.231-14.407-0.449c-0.822-0.127-2.577-0.229-3.57-0.743    c0.165-0.117-0.151-1.021-0.2-1.232c-0.535-2.328-0.742-4.705-0.929-7.08c-0.045-4.744-0.269-9.973-0.272-10.962    c-0.011-6.08,0.521-16.202,6.211-19.835c0.695-0.444,1.411-0.788,2.134-1.049c-0.071,1.674-0.105,3.354-0.111,5.027    c-0.004,1.161-0.041,2.658,0.363,3.879c-1.091,0.399-2.052,1.135-2.516,2.148c-0.846,0.633-1.494,1.526-1.901,2.637    c-0.241,0.657-0.524,1.334-0.741,2.022c-1.001,2.472-1.137,5.386-0.733,7.97c0.431,2.749,3.147,2.284,5.34,2.037    c0.151-0.017,0.304-0.016,0.456-0.025c-0.059,0.233-0.102,0.479-0.132,0.74c-0.012,0.102-0.023,0.205-0.035,0.306    c0.056-0.509-0.006,0.023-0.036,0.231c-0.108,0.768-0.18,1.354,0.012,2.124c0.292,1.173,1.675,1.992,2.843,1.614    c1.241-0.401,1.894-1.577,1.614-2.843c-0.148-0.673-0.233-1.344-0.397-1.986c1.482,0.126,2.959,0.18,4.36-0.282    c4.715-1.555,2.692-10.774,0.714-13.797c-1.195-1.824-3.433-2.789-5.597-3.12c0.419-1.182,0.405-2.488,0.528-3.791    c0.169-1.792,0.193-3.585,0.286-5.379c3.006,0.413,5.624,2.449,6.719,6.006c0.921,2.987,0.813,6.615,1.192,9.699    C174.687,229.139,174.907,234.966,174.709,240.783z"/>
	</g>
</g>
<g>
	<g>
		<path d="M93.687,151.289c-1.554-8.218-7.701-13.448-16.093-11.086c-8.228,2.315-10.128,11.35-10.936,18.77    c-0.38,3.492-0.226,6.913-0.032,10.362c-0.446,3.93-0.588,7.954-0.19,11.752c0.615,5.901,2.113,7.544,8.373,8.398    c5.051,0.688,11.448,2.009,16.435,0.424c3.206-1.019,4.109-3.401,4.261-6.112c0.288-0.545,0.399-1.184,0.278-1.767    C96.449,171.852,95.581,161.299,93.687,151.289z M79.363,156.133c0.943-0.193,1.86-0.119,2.847,0.101    c3.315,0.737,3.922,3.843,4.034,6.838c0.023,0.612,0.192,1.429,0.066,2.041c-0.125,0.605-0.589,1.088-0.517,1.183    c-0.737,0.139-1.579,0.044-2.167,0.043c-1.523-0.002-3.042-0.168-4.557-0.186c-1.022-0.012-2.193,0.475-3.261,0.488    c-0.256-1.84-0.279-3.791,0.25-5.561c0.444-1.484,1.36-2.95,2.298-4.326C78.798,156.533,79.567,156.144,79.363,156.133z     M91.361,176.589c-0.03,0.068-0.063,0.132-0.089,0.206c-0.808,2.452,0.105,5.104-0.675,7.505    c-0.354,1.089,0.278,0.596-1.162,1.028c-4.347,1.302-9.992,0.231-14.407-0.449c-0.822-0.127-2.577-0.229-3.57-0.743    c0.165-0.117-0.151-1.021-0.2-1.232c-0.535-2.328-0.742-4.705-0.929-7.08c-0.045-4.744-0.269-9.973-0.272-10.962    c-0.012-6.081,0.52-16.203,6.209-19.836c0.695-0.444,1.411-0.788,2.134-1.049c-0.071,1.674-0.105,3.354-0.111,5.027    c-0.005,1.162-0.041,2.658,0.363,3.88c-0.907,0.333-1.707,0.91-2.224,1.674c-0.217,0.248-0.415,0.499-0.594,0.739    c-0.695,0.611-1.244,1.402-1.599,2.373c-0.241,0.657-0.524,1.334-0.741,2.022c-1,2.472-1.137,5.386-0.733,7.97    c0.431,2.749,3.147,2.284,5.34,2.037c0.151-0.017,0.304-0.016,0.456-0.025c-0.059,0.233-0.101,0.479-0.132,0.74    c-0.012,0.102-0.023,0.205-0.035,0.306c0.056-0.509-0.006,0.023-0.036,0.231c-0.108,0.769-0.18,1.354,0.013,2.124    c0.292,1.173,1.675,1.992,2.843,1.614c1.241-0.401,1.894-1.577,1.614-2.843c-0.148-0.673-0.233-1.344-0.397-1.986    c1.482,0.126,2.959,0.18,4.36-0.282c4.715-1.555,2.692-10.774,0.714-13.797c-1.195-1.824-3.433-2.789-5.597-3.12    c0.419-1.182,0.405-2.488,0.528-3.791c0.169-1.792,0.193-3.585,0.286-5.379c3.006,0.414,5.624,2.449,6.719,6.006    c0.921,2.987,0.814,6.615,1.192,9.699C91.339,164.944,91.559,170.772,91.361,176.589z"/>
	</g>
</g>
<g>
	<g>
		<path d="M150.101,151.289c-1.554-8.218-7.701-13.448-16.093-11.086c-8.228,2.315-10.128,11.35-10.936,18.77    c-0.38,3.492-0.226,6.913-0.032,10.362c-0.447,3.93-0.588,7.954-0.19,11.752c0.615,5.901,2.113,7.544,8.373,8.398    c5.051,0.688,11.448,2.009,16.435,0.424c3.206-1.019,4.109-3.401,4.261-6.112c0.288-0.545,0.399-1.184,0.278-1.767    C152.863,171.852,151.995,161.299,150.101,151.289z M135.777,156.133c0.943-0.193,1.86-0.119,2.847,0.101    c3.315,0.737,3.922,3.843,4.034,6.838c0.023,0.612,0.192,1.429,0.066,2.041c-0.125,0.605-0.589,1.088-0.517,1.183    c-0.737,0.139-1.579,0.044-2.167,0.043c-1.523-0.002-3.042-0.168-4.557-0.186c-1.022-0.012-2.193,0.475-3.261,0.488    c-0.256-1.84-0.279-3.791,0.25-5.561c0.444-1.484,1.36-2.95,2.298-4.326C135.212,156.533,135.981,156.144,135.777,156.133z     M147.775,176.589c-0.03,0.068-0.063,0.132-0.089,0.206c-0.808,2.452,0.105,5.104-0.675,7.505    c-0.354,1.089,0.278,0.596-1.162,1.028c-4.347,1.302-9.992,0.231-14.407-0.449c-0.822-0.127-2.577-0.229-3.57-0.743    c0.165-0.117-0.151-1.021-0.199-1.232c-0.535-2.328-0.742-4.705-0.929-7.08c-0.045-4.744-0.269-9.973-0.272-10.962    c-0.013-6.081,0.518-16.203,6.208-19.836c0.696-0.444,1.411-0.788,2.134-1.049c-0.071,1.674-0.105,3.354-0.111,5.027    c-0.005,1.162-0.041,2.658,0.363,3.88c-1.091,0.399-2.052,1.135-2.516,2.148c-0.846,0.633-1.494,1.526-1.901,2.637    c-0.241,0.657-0.524,1.334-0.741,2.022c-1.001,2.472-1.137,5.386-0.733,7.97c0.431,2.749,3.147,2.284,5.34,2.038    c0.151-0.017,0.304-0.016,0.456-0.025c-0.059,0.233-0.101,0.479-0.132,0.74c-0.012,0.102-0.023,0.205-0.035,0.306    c0.056-0.509-0.006,0.023-0.036,0.231c-0.108,0.769-0.18,1.354,0.013,2.124c0.292,1.173,1.675,1.992,2.843,1.614    c1.241-0.401,1.894-1.577,1.614-2.843c-0.148-0.673-0.233-1.344-0.397-1.986c1.482,0.126,2.959,0.18,4.36-0.283    c4.715-1.555,2.692-10.774,0.714-13.797c-1.195-1.824-3.433-2.789-5.597-3.12c0.419-1.182,0.405-2.488,0.528-3.791    c0.169-1.792,0.193-3.585,0.286-5.379c3.006,0.414,5.624,2.449,6.719,6.006c0.921,2.987,0.814,6.615,1.192,9.699    C147.753,164.944,147.973,170.772,147.775,176.589z"/>
	</g>
</g>
<g>
	<g>
		<path d="M492.203,349.446c-0.273-3.831-0.555-7.685-0.806-11.538c1.34-3.925,0.047-9.456-0.23-13.081    c-0.474-6.22-0.591-12.841-1.512-18.948c-0.206-1.364-1.561-2.374-2.768-2.768c-1.215-0.396-2.539-0.582-3.905-0.666    c-0.006-0.138-0.014-0.274-0.035-0.408c-0.042-5.923-0.294-11.727-0.674-17.674c-0.056-0.877-0.038-2.07-0.19-3.215    c6.304-0.617,7.371-3.163,7.948-9.6c0.352-3.924,2.344-10.239-1.622-12.929c-2.308-1.566-5.946-1.025-8.519-0.964    c-2.952,0.069-5.953-0.034-8.904,0.13c-0.7,0.04-1.403,0.057-2.104,0.081c0.093-2.528-0.263-5.207-0.188-7.675    c0.122-3.958,0.035-7.557-0.338-11.533c-0.627-6.686-2.576-11.681-9.919-12.615c-8.326-1.058-16.706-0.291-25.034,0.104    c0.249-1.109,0.403-2.389,0.497-3.892c0.394-6.278,1.718-13.909-0.672-19.969c-1.683-4.269-5.889-5.643-10.077-6.473    c0.302-0.504,0.481-1.08,0.442-1.729c-0.342-5.603,0.572-11.494,0.448-17.161c-0.141-6.488-0.115-13.031,0.06-19.515    c0.17-6.336,0.566-12.929,0.002-19.242c-0.359-4.019-0.442-8.386-1.524-12.36c3.442,0.735,7.372,0.942,9.765-1.596    c5.053-5.359-0.576-13.331-5.003-16.988c-2.717-2.245-5.767-3.745-8.954-4.915c-0.911-3.863-4.161-7.782-6.233-11.063    c-2.295-3.631-4.654-6.751-7.42-10.046c-6.757-8.052-13.678-14.95-22.748-20.319c-5.51-3.262-11.158-6.672-17.113-9.238    c1.018-4.342,0.336-9.697,0-13.694c-0.424-5.043,0.243-10.966-1.99-15.685c3.126-1.264,6.08-4.096,6.329-7.623    c0.299-4.244-3.806-6.857-7.172-8.459c-6.188-2.945-14.79-5.886-22.673-5.756c-4.803-0.899-10.628-0.144-14.619,0.148    c-1.703,0.125-3.431,0.193-5.166,0.26c-8.893-1.622-19.604,1.862-26.93,5.349c-3.366,1.603-7.472,4.215-7.172,8.459    c0.249,3.526,3.203,6.358,6.329,7.623c-2.234,4.718-1.566,10.641-1.99,15.685c-0.336,3.996-1.016,9.352,0,13.694    c-5.953,2.565-11.602,5.976-17.113,9.238c-9.069,5.37-15.991,12.268-22.748,20.319c-2.765,3.294-5.125,6.414-7.42,10.046    c-2.073,3.281-5.322,7.201-6.233,11.063c-3.188,1.171-6.238,2.672-8.954,4.915c-4.428,3.657-10.056,11.629-5.004,16.988    c2.394,2.539,6.323,2.332,9.765,1.596c-1.083,3.973-1.165,8.34-1.524,12.36c-0.564,6.314-0.168,12.906,0.002,19.242    c0.174,6.484,0.201,13.026,0.059,19.515c-0.125,5.667,0.791,11.558,0.449,17.161c-0.039,0.649,0.14,1.225,0.442,1.729    c-4.19,0.83-8.395,2.204-10.077,6.473c-2.389,6.06-1.065,13.691-0.672,19.969c0.078,1.235,0.194,2.322,0.371,3.288    c-0.315,0-0.63-0.001-0.937-0.01c-4.848-0.13-12.121-1.178-17.668,0.403c0.536-3.031,0.509-6.352,0.66-8.322    c0.387-5.043,0.321-9.988,0.257-15.039c-0.049-3.81-0.991-6.286-3.736-7.385c-0.479-0.752-1.284-1.311-2.376-1.361    c-9.586-0.441-19.204-0.795-28.835-1.051c0.104-0.637,0.066-1.269-0.128-1.844c-0.827-12.199,0.097-24.477-0.401-36.687    c-0.257-6.318-0.105-13.42-1.683-19.566c-1.004-3.91-3.418-7.041-7.469-7.802c-4.839-0.907-10.338-0.047-15.232,0.081    c-0.983,0.025-1.969,0.044-2.955,0.065c0.676-2.846-0.346-6.467-0.579-9.17c-0.312-3.609-0.874-7.197-1.149-10.805    c-0.684-8.97-0.445-18.045-1.276-26.985c-0.221-2.38-0.342-4.583-0.943-6.349c1.487-12.312-12.852-22.282-24.128-23.337    c0.192-2.685,0.189-5.409,0.123-8.143c1.481,0.038,2.963,0.047,4.448-0.034c3.53-0.192,3.518-5.757,0-5.495    c-1.545,0.116-3.089,0.142-4.632,0.145c-0.005-0.111-0.008-0.223-0.013-0.334c0.109-2.921,0.11-5.843-0.165-8.766    c0.066-3.267-4.876-3.229-5.051,0c-0.159,2.951-0.443,6.017-0.644,9.089c-1.684,0.022-3.369,0.108-5.053,0.306    c-0.284,0.019-0.578,0.05-0.898,0.103c-2.759,0.454-2.145,5.167,0.666,4.917c1.694-0.151,3.382-0.166,5.069-0.134    c-0.022,1.774,0.022,3.531,0.183,5.247c0.092,0.98,0.121,2.176,0.417,3.237C94.224,52.12,81.72,61.942,81.046,75.346    c-0.012,0.242,0.042,0.472,0.121,0.692c-0.356,0.893-0.627,1.873-0.758,3.006c-0.854,7.419-0.122,15.25-0.259,22.731    c-0.09,4.845-0.394,9.627-0.241,14.476c0.111,3.534-0.224,7.271,1.002,10.6c-5.57,0.378-11.139,0.7-16.707,1.112    c-4.636,0.342-9.736,0.69-12.223,5.132c-5.765,10.298-3.693,24.31-4.908,35.653c-0.589,5.502-0.771,10.973-0.706,16.502    c0.032,2.757-0.183,6.16,0.74,8.932c-1.275,0.034-2.552,0.053-3.827,0.092c-1.501,0.048-2.994,0.154-4.483,0.286    c-2.7-0.824-6.141,0.007-8.77,0.114c-3.405,0.138-7.791-0.218-10.264,2.61c-2.755,3.148-1.237,8.18-1.019,11.913    c0.182,3.108,0.406,6.217,0.701,9.318c0.229,7.634,0.864,15.234,1.025,22.87c0.12,5.691-1.545,13.808,1.481,19.22    c-0.454,0.497-0.846,1.093-1.148,1.816c-1.711,4.099-3.588,13.568,1.296,16.24c0.669,0.366,1.417,0.611,2.202,0.784    c-1.938,5.288-1.598,11.351-1.769,16.881c-0.114,3.678-0.534,8.182,2.027,10.642c-1.353,2.203-1.44,5.049-1.802,7.778    c-1.556,11.762-1.029,23.496-1.015,35.328c0.014,11.889,0.52,23.78,0.147,35.673c-0.274,8.74-0.56,17.258,1.307,25.57    c0.081,3.054,0.201,6.096-0.075,9.23c-0.807,9.158-1.73,18.225-1.729,27.431c0.001,9.488-0.198,19.027-0.448,28.506    c-0.164,6.213-0.743,13.276,0.382,19.733c-0.47,3.897,0.006,8.178,1.715,10.541c3.561,4.921,13.92,4.052,19.315,4.305    c17.31,0.812,34.569-0.192,51.866-0.52c17.058-0.324,34.078-0.922,51.137-0.531c10.535,0.241,21.019,1.217,31.567,1.171    c4.245-0.019,8.368-0.119,12.458-0.314c3.997,0.187,8.005,0.279,11.968,0.436c17.01,0.673,34.252,0.493,51.275,0.117    c15.347-0.339,30.937-0.761,46.267-0.309c11.855,0.35,23.701,0.771,35.511,0.229c1.003-0.02,1.985-0.043,2.934-0.061    c7.468-0.133,15.031,0.333,22.517,0.514c17.868,0.43,35.642,0.154,53.491-0.429c18.419-0.601,36.842-0.353,55.249-0.505    c6.706-0.055,17.458,1.93,21.719-4.926c2.52-4.053,2.101-10.221,0.723-15.345c0.066-1.982-0.036-3.989-0.101-5.916    c-0.178-5.273-0.164-10.53-0.011-15.803c0.321-11.052,0.64-22.084,0.561-33.147c-0.079-11.06,0.536-22.104,0.388-33.159    c-0.022-1.574-0.019-3.208-0.018-4.871c0.608-1.68,0.923-3.563,1.057-4.496C494.97,378.916,493.22,363.762,492.203,349.446z     M303.652,7.125c2.04-0.555,4.165-1.044,6.306-1.342c3.334-0.002,6.676,0.23,10.003,0.171c4.056-0.072,8.071-0.323,12.124-0.36    c1.95,0.356,3.952,0.188,6.054,0.02c0.933-0.012,1.873-0.049,2.8-0.126c3.4,0.028,6.857,0.753,10.102,1.636    c3.522,0.958,12.663,3.297,11.525,8.224c-0.133,0.577-1.156,2.133-2.102,3.354c-4.482-5.006-11.953-7.018-19.22-7.324    c-5.625-2.246-13.478-0.955-18.858-0.521c-1.605,0.129-3.172,0.312-4.721,0.529c-8.446-0.371-18.078,1.331-23.437,7.317    c-0.946-1.222-1.969-2.779-2.102-3.354C290.989,10.422,300.13,8.082,303.652,7.125z M358.965,49.454    c-0.789-0.242-1.575-0.49-2.377-0.691c-10.142-2.539-19.124-2.921-29.241-1.561c-10.118-1.36-19.099-0.978-29.241,1.561    c-0.801,0.201-1.589,0.449-2.378,0.691c0.273-2.096,0.273-4.264,0.388-6.354c0.247-4.483,0.494-9.102,1.036-13.56    c0.698-5.751,4.366-8.879,9.512-11.187c1.262-0.565,2.661-1.099,4.131-1.593c3.863-0.333,7.73-0.681,11.591-0.969    c4.279-0.318,8.468-0.293,12.761-0.328c1.662-0.013,3.8,0.358,5.797,0.388c2.552,0.719,5,1.568,7.083,2.502    c5.146,2.307,8.814,5.436,9.512,11.187c0.541,4.458,0.789,9.077,1.035,13.56C358.692,45.189,358.692,47.357,358.965,49.454z     M245.628,99.47c2.352-3.14,4.615-6.401,7.085-9.414c6.419-7.829,13.241-16.248,22.034-21.466    c7.438-4.414,15.057-9.579,23.309-12.345c5.273-1.766,10.612-3.169,16.134-3.819c4.362-0.514,8.81-0.511,13.158-1.11    c4.347,0.6,8.795,0.597,13.158,1.11c5.521,0.649,10.86,2.053,16.134,3.819c8.252,2.764,15.871,7.931,23.309,12.345    c8.792,5.217,15.615,13.636,22.034,21.466c2.47,3.013,4.732,6.274,7.085,9.414c0.014,0.018,0.028,0.039,0.042,0.057    c-0.844-0.232-1.686-0.467-2.521-0.712c-6.306-1.854-12.28-4.599-18.859-5.901c-8.713-1.724-17.608-3.019-26.43-4.071    c-2.558-0.305-4.987-1.131-7.518-1.462c-1.28-0.166-2.558-0.104-3.838-0.016c-8.263-1.433-17.182-1.2-25.015-1.323    c-6.655-0.104-13.319,0.345-19.901,1.342c-1.372-0.098-2.743-0.182-4.113-0.004c-2.531,0.329-4.96,1.156-7.517,1.462    c-8.822,1.052-17.717,2.348-26.43,4.071c-6.579,1.301-12.552,4.046-18.859,5.901c-0.836,0.245-1.677,0.48-2.521,0.712    C245.6,99.51,245.615,99.488,245.628,99.47z M227.742,118.312c-0.983-3.257,6.02-7.89,8.142-9.09    c3.016-1.706,6.436-2.86,9.749-3.857c5.247-1.579,10.166-3.421,15.44-5.091c6.17-1.954,12.524-2.616,18.873-3.751    c7.834-1.401,16.037-4.204,23.94-4.68c3.809-0.229,9.129,0.195,13.3-1.034c2.597-0.031,5.184-0.012,7.741,0.104    c5.26,0.239,10.541,0.549,15.78,1.055c6.985,0.673,14.109,2.164,21.106,1.719c0.055-0.004,0.103-0.025,0.154-0.036    c4.296,0.98,8.591,2.125,12.779,2.873c6.348,1.135,12.703,1.797,18.873,3.751c5.276,1.67,10.195,3.512,15.44,5.091    c3.314,0.997,6.734,2.151,9.749,3.857c2.121,1.2,9.124,5.832,8.142,9.09c-0.296,0.978-7.812-1.519-12.13-3.01    c-2.634-1.334-5.519-2.727-8.15-3.703c-3.504-1.299-7.72-1.749-11.377-2.896c-4.216-1.323-8.388-2.677-12.591-3.991    c-4.146-1.296-8.465-1.792-12.693-2.865c-5.004-1.27-10.259-1.993-15.391-2.588c-8.075-0.936-16.122-0.634-24.22-0.742    c-0.226-0.093-0.478-0.154-0.776-0.141c-0.76,0.035-1.518,0.051-2.277,0.074c-0.759-0.023-1.517-0.04-2.277-0.074    c-0.298-0.014-0.549,0.048-0.776,0.141c-8.097,0.108-16.146-0.194-24.22,0.742c-5.132,0.595-10.386,1.318-15.391,2.588    c-4.227,1.073-8.546,1.568-12.692,2.865c-4.204,1.314-8.376,2.668-12.592,3.991c-3.656,1.147-7.872,1.597-11.377,2.896    c-2.631,0.976-5.516,2.369-8.15,3.703C235.554,116.793,228.037,119.291,227.742,118.312z M418.033,138.99    c0.011,6.727-0.854,13.497-1.172,20.21c-0.316,6.662-0.407,13.328-0.482,20.003c-0.053,4.599-1.348,10.715-0.096,15.323    c-0.607-0.11-1.237-0.214-1.872-0.293c-2.401-0.482-4.79-0.861-7.033-1.238c-9.129-1.532-18.323-3.312-27.556-4.02    c-13.781-1.056-28.274-4.154-42.092-2.158c-5.674-0.158-11.332-0.353-17.016-0.417c-2.142-0.024-4.262,0.012-6.376,0.084    c-13.02-1.291-26.557,1.501-39.467,2.49c-9.233,0.708-18.427,2.488-27.556,4.02c-2.243,0.376-4.632,0.755-7.033,1.238    c-0.636,0.079-1.265,0.182-1.872,0.293c1.252-4.608-0.043-10.725-0.096-15.323c-0.075-6.675-0.166-13.341-0.482-20.003    c-0.318-6.712-1.183-13.483-1.172-20.21c0.007-4.525,0.973-9.838-0.243-14.334c0.235-0.069,0.458-0.135,0.667-0.194    c7.762-2.191,15.632-4.89,23.274-7.488c4.75-1.615,9.448-3.724,14.364-4.817c3.794-0.843,6.636-1.608,9.779-3.041    c0.37-0.08,0.74-0.158,1.109-0.25c3.33-0.83,6.843-1.403,10.344-1.858c6.79,0.88,14.608-0.05,20.95-0.148    c4.494-0.069,8.958-0.625,13.445-0.643c3.511-0.013,6.936,0.05,10.365-0.286c3.986,0.101,7.986-0.006,11.689,0.354    c5.494,0.535,11.324,1.246,16.679,2.581c0.369,0.092,0.739,0.17,1.109,0.25c3.144,1.433,5.986,2.197,9.779,3.041    c4.918,1.093,9.615,3.202,14.365,4.817c7.642,2.598,15.512,5.297,23.274,7.488c0.208,0.059,0.432,0.125,0.667,0.194    C417.06,129.152,418.026,134.464,418.033,138.99z M227.344,208.145c0.215-2.468,1.375-3.986,3.022-4.979    c1.487-0.117,2.984-0.447,4.338-0.719c4.543-0.918,8.963-1.821,13.538-2.568c9.128-1.49,18.47-2.905,27.685-3.646    c8.594-0.692,17.071-2.122,25.69-2.569c8.549-0.444,17.265,0.656,25.728-0.168c8.464,0.824,17.18-0.275,25.728,0.168    c8.619,0.448,17.097,1.877,25.69,2.569c9.214,0.742,18.557,2.156,27.685,3.646c4.575,0.747,8.995,1.65,13.538,2.568    c1.353,0.274,2.852,0.602,4.338,0.719c1.646,0.992,2.806,2.51,3.022,4.979c0.28,3.219,0.059,6.293-0.32,9.496    c-0.097,0.821-0.077,2.695-0.195,4.415c-0.943,0.854-1.78,1.963-2.518,2.859c-0.52,0.169-0.991,0.334-1.203,0.368    c-2.014,0.32-3.992,0.311-6.025,0.335c-3.772,0.044-7.645-0.193-11.404,0.079c-9.515,0.687-18.916,1.191-28.384,1.241    c-6.757-0.967-13.707-0.705-20.527-0.694c-9.965,0.016-19.949-0.4-29.89,0.3c-6.154,0.433-12.375,0.172-18.576,0.123    c-6.504-0.236-13.035-0.147-19.452,0.098c-13.392,0.514-26.509-0.107-39.848-1.07c-3.759-0.272-7.632-0.035-11.404-0.079    c-2.031-0.024-4.012-0.014-6.025-0.335c-0.093-0.014-0.249-0.06-0.426-0.116c-0.311-0.171-0.619-0.35-0.919-0.548    c-0.866-0.573-1.689-1.342-2.344-2.222c-0.147-1.808-0.121-3.877-0.225-4.754C227.287,214.437,227.064,211.362,227.344,208.145z     M201.69,241.636c0.084-2.521,0.39-5.313,0.621-8.163c0.122-0.096,0.235-0.2,0.365-0.287c2.767-1.847,7.796-0.911,10.976-1.049    c3.616-0.157,7.208,0.054,10.828-0.074c1.082-0.038,2.359,0.034,3.723,0.115c0.595,0.111,1.222,0.211,1.917,0.291    c8.348,0.962,17.49,0.441,25.902,0.611c8.087,0.163,16.11,0.752,24.225,0.49c6.861-0.221,13.642-1.104,20.503-1.319    c7.865,0.281,16.063,0.544,23.891,0.324c9.336-0.262,18.654,0.342,27.974,0.002c2.034-0.074,4.074-0.086,6.116-0.081    c5.24,0.35,10.456,0.904,15.716,1.074c8.114,0.262,16.137-0.327,24.225-0.49c8.412-0.17,17.555,0.352,25.902-0.611    c0.472-0.054,0.918-0.116,1.343-0.184c0.595,0,1.155,0.004,1.662,0.019c6.669,0.211,13.353,0.59,20.019,0.936    c3.25,0.169,9.509-0.675,12.344,0.991c2.456,1.444,1.84,7.45,1.99,10.056c0.253,4.397-1.083,9.351-0.591,13.83    c-1.432,0.069-2.861,0.163-4.287,0.333c-1.282,0.153-2.569,0.289-3.859,0.411c-1.398-0.042-2.739-0.083-3.931-0.05    c-7.287,0.198-14.617-0.114-21.922-0.085c-14.192,0.057-28.422,0.201-42.631,0.673c-14.283,0.475-28.574,0.599-42.866,0.736    c-6.265,0.06-12.546-0.369-18.792-0.266c-2.343,0.039-4.687,0.286-7.033,0.488c-5.522-0.449-11.101-0.225-16.664-0.564    c-8.417-0.514-16.842-0.687-25.277-0.582c-17.938,0.226-35.831,0.133-53.757-0.243c-4.353-0.091-8.708-0.183-13.062-0.214    c-1.584-0.012-5.035,0.496-6.476-0.157c-0.019-0.008-0.032-0.017-0.051-0.026C201.554,253.021,201.507,247.201,201.69,241.636z     M90.231,65.575c4.07-5.285,11.972-9.128,18.452-9.627c5.914-0.455,10.31,1.73,15.037,4.84c3.584,2.358,5.237,4.296,6.476,8.245    c0.061,0.196,0.111,0.387,0.165,0.579c-5.722-0.482-12.396-0.104-18.361-0.116c-4.319-0.008-8.68,0.921-12.998,0.709    c-3.388-0.166-6.02-0.431-9.433,0.074c-0.565,0.084-1.097,0.199-1.616,0.324C88.646,68.665,89.309,66.772,90.231,65.575z     M85.317,107.679c0.174-6.563,0.441-13.096,0.371-19.653c-0.032-3.12-0.846-6.921,0.016-9.99c0.899-3.201,4.038-3.35,7.076-3.582    c3.127-0.239,6.187,0.347,9.316,0.232c3.663-0.134,7.392-0.401,11.046-0.139c5.382,0.385,10.828,0.736,16.202,0.549    c3.087-0.107,2.136,0.012,2.474,3.633c0.315,3.37,0.144,6.704,0.213,10.084c0.148,7.219,0.287,14.49,0.887,21.686    c0.43,5.156,1.635,12.814,1.616,16.621c-3.527,0.022-7.053-0.011-10.549-0.142c-0.223-0.008-0.444-0.007-0.666-0.013    c0.08-0.448,0.141-0.906,0.168-1.379c0.289-0.545,0.399-1.184,0.278-1.767c0.667-10.177-0.201-20.729-2.095-30.74    c-1.554-8.218-7.701-13.448-16.093-11.086c-8.228,2.315-10.128,11.35-10.936,18.77c-0.379,3.492-0.226,6.913-0.032,10.362    c-0.448,3.93-0.588,7.952-0.19,11.752c0.158,1.518,0.377,2.75,0.718,3.763c-3.595-0.159-7.189-0.186-10.782,0.004    C86.526,120.895,85.159,113.626,85.317,107.679z M118.583,126.087c-0.318,0.98,0.148,0.685-0.803,0.929    c-3.068,0.12-6.13,0.34-9.2,0.455c-1.943-0.22-3.849-0.541-5.568-0.806c-0.822-0.127-2.577-0.229-3.57-0.743    c0.165-0.117-0.151-1.021-0.199-1.232c-0.535-2.328-0.742-4.705-0.929-7.08c-0.046-4.744-0.269-9.973-0.272-10.962    c-0.014-6.078,0.517-16.199,6.207-19.834c0.695-0.444,1.411-0.788,2.134-1.049c-0.071,1.674-0.105,3.354-0.111,5.027    c-0.005,1.162-0.041,2.658,0.363,3.88c-1.091,0.4-2.052,1.135-2.516,2.148c-0.846,0.633-1.494,1.526-1.901,2.637    c-0.241,0.657-0.524,1.334-0.741,2.021c-1.001,2.472-1.137,5.386-0.733,7.97c0.431,2.749,3.147,2.284,5.34,2.037    c0.151-0.017,0.304-0.016,0.456-0.025c-0.059,0.233-0.101,0.479-0.132,0.74c-0.012,0.102-0.023,0.204-0.035,0.306    c0.056-0.509-0.006,0.023-0.036,0.231c-0.108,0.769-0.18,1.354,0.013,2.124c0.292,1.173,1.675,1.992,2.843,1.614    c1.241-0.401,1.894-1.577,1.614-2.843c-0.148-0.673-0.233-1.344-0.397-1.986c1.482,0.126,2.959,0.18,4.36-0.282    c4.715-1.555,2.692-10.774,0.714-13.797c-1.195-1.824-3.433-2.789-5.596-3.12c0.419-1.182,0.405-2.488,0.528-3.791    c0.169-1.792,0.193-3.585,0.286-5.379c3.006,0.414,5.624,2.449,6.719,6.006c0.921,2.987,0.814,6.615,1.192,9.699    c0.708,5.75,0.928,11.577,0.73,17.394c-0.03,0.068-0.063,0.132-0.089,0.206C118.45,121.034,119.364,123.687,118.583,126.087z     M107.345,97.924c0.943-0.193,1.86-0.119,2.847,0.101c3.315,0.737,3.922,3.843,4.034,6.838c0.023,0.612,0.192,1.429,0.066,2.041    c-0.125,0.605-0.589,1.088-0.517,1.184c-0.737,0.139-1.579,0.044-2.167,0.043c-1.523-0.002-3.042-0.168-4.557-0.186    c-1.022-0.012-2.193,0.475-3.261,0.488c-0.256-1.84-0.279-3.791,0.25-5.561c0.444-1.483,1.36-2.95,2.298-4.325    C106.78,98.323,107.55,97.934,107.345,97.924z M54.239,167.813c0.415-6.132,0.253-12.276,0.193-18.42    c-0.055-5.588-1.015-12.642,5.523-14.701c4.413-1.39,9.905-1.057,14.491-1.324c4.368-0.254,8.716-0.686,13.07-1.089    c3.636-0.336,7.924,0.032,12.083-0.026c1.301,0.189,2.644,0.255,3.906,0.375c5.308,0.506,10.646,0.132,15.97,0.198    c10.913,0.133,21.958,0.698,32.848,0.4c1.89-0.051,4.549-0.735,6.378-0.037c3.16,1.207,2.944,4.348,3.004,7.29    c0.117,5.745,0.028,11.573-0.357,17.313c-0.776,11.571-1.589,23.222-0.934,34.799c-17.778-0.354-35.584-0.311-53.311,0.369    c-13.454,0.516-27.033,0.595-40.507,0.832c-3.754,0.066-7.511,0.125-11.266,0.193c-0.048-0.468-0.178-0.934-0.429-1.374    c0.512,0.901,0.065-0.382-0.008-0.891c-0.169-1.168-0.2-2.334-0.274-3.505c-0.134-2.089-0.136-4.184-0.237-6.281    C54.155,177.184,53.915,172.582,54.239,167.813z M28.432,200.986c1.435-0.271,3.059-0.415,4.524-0.831    c11.205,0.317,22.532-0.256,33.64-0.406c13.857-0.187,27.777-0.298,41.621-0.685c15.662-0.437,31.35,0.287,47.016-0.05    c7.51-0.162,15.077-0.104,22.579,0.256c3.694,0.177,7.365,0.202,11.063,0.291c1.648,0.04,3.329,0.292,4.994,0.391    c0.254,0.243,0.488,0.488,0.687,0.74c2.163,2.739,1.782,5.759,1.732,9.071c-0.099,6.681-0.947,13.113-1.608,19.745    c-0.371,3.727-0.668,7.462-0.996,11.193c-0.668,2.847-1.215,5.637-1.492,8.698c-0.305,3.381-1.216,8.163-0.298,11.63    c-4.817-0.498-9.818-0.418-14.513-0.469c-6.864-0.075-13.745-0.302-20.598-0.615c-13.895-0.636-27.943-0.839-41.839-1.201    c-14.385-0.373-28.775-0.281-43.163-0.699c-8.55-0.249-17.231-0.437-25.781-0.22c-2.383,0.06-13.149,1.544-17.978,0.509    c-0.711-5.652-0.437-11.249-0.684-16.951c-0.254-5.877-0.949-11.689-1.448-17.545c-0.564-6.602-0.287-12.943-0.415-19.497    c0.016,0.809,0.233-2.442-0.13-2.862C26.114,201.316,28.454,200.982,28.432,200.986z M26.782,264.437    c0.261-0.207,0.578-0.367,0.923-0.506c0.79,0.181,1.629,0.315,2.497,0.415c8.008,0.933,16.314,0.023,24.379,0.174    c17.623,0.33,35.384-0.527,52.972,0.472c15.293,0.868,30.57,1.05,45.894,1.347c6.883,0.133,13.762,0.634,20.651,0.735    c6.995,0.103,15.207,1.676,22.156-0.071c3.9,0.316,7.79,0.126,11.703,0.09c8.413-0.078,16.988,0.414,25.258-1.498    c0.208-0.048,0.347-0.169,0.454-0.315c2.65-0.02,5.298,0,7.943,0.182c2.424,0.166,5.581,0.354,8.316-0.176    c3.494,0.086,6.989,0.159,10.483,0.156c11.054-0.01,22.098-0.637,33.155-0.134c4.603,0.209,9.144,0.536,13.657,0.577    c4.073,0.927,9.316,0.59,12.369,0.528c6.53-0.132,13.213,0.274,19.746,0.472c14.866,0.45,29.817,0.005,44.679-0.33    c15.079-0.341,30.155-0.242,45.216-0.236c7.211,0.002,14.42,0.162,21.612-0.044c4.209-0.121,9.701,0.581,13.981-0.579    c4.107,0.293,8.191,0.372,12.322,0.318c1.13-0.014,2.248-0.121,3.369-0.152c0.747,0.007,1.494,0.012,2.241,0.013    c0.33,1.55-0.317,4.123-0.462,5.673c-0.022,0.224-0.272,1.431-0.254,2.076c-1.32,0.217-2.649,0.368-3.988,0.444    c-3.54,0.135-7.258-0.113-10.793-0.308c-5.861-0.323-11.57-0.855-17.456-0.706c-6.546,0.164-13.202-0.037-19.845-0.056    c-5.975-1.756-13.175-0.727-19.259-0.722c-7.641,0.005-15.224,0.008-22.854-0.136c-16.132-0.305-32.216,1.639-48.349,1.227    c-35.28-0.901-70.78,0.31-106.011,1.698c-9.572,0.377-19.211,0.358-28.784,0.169c-3.814-0.075-7.616-0.22-11.43-0.294    c-0.74-0.014-1.486,0.014-2.233,0.057c-8.343-0.722-16.797-0.785-25.165-0.719c-6.455,0.051-12.818-0.582-19.27-0.569    c-16.815,0.034-33.495-0.267-50.3,0.218c-16.062,0.463-32.22,0.399-48.287,0.412c-4.669,0.004-9.369,0.056-14.035-0.029    c-2.254-0.041-6.393,0.202-7.809-1.344C24.553,271.193,25.066,265.797,26.782,264.437z M475.354,302.619    c-0.685,0.031-1.36,0.055-2.008,0.056c-4.768,0.01-9.522,0.316-14.289,0.326c-9.803,0.018-19.678-1.034-29.467-0.559    c-3.759,0.182-7.52,0.455-11.282,0.73c-9.023-0.578-18.003-0.593-27.237-0.017c-15.397,0.961-30.894,0.936-46.318,0.372    c-18.625-0.681-37.667-0.464-56.3,0.125c-17.343,0.548-34.481-0.169-51.786-0.909c-9.02-0.385-17.974,0.067-26.966-0.485    c-2.069-0.127-4.092,0.025-6.116,0.23c-2.598,0.089-5.145,0.248-7.506,0.322c-10.786,0.341-21.641,0.12-32.429-0.122    c-17.723-0.397-35.292-0.426-53.017,0.419c-18.069,0.862-35.987,0.747-54.031-0.006c-5.104-0.213-10.243-0.078-15.353-0.211    c-3.165-0.083-9.449,1.194-11.112-1.691c-1.117-1.938-0.164-7.818-0.412-10.08c-0.396-3.603-0.101-7.723-0.921-11.322    c1.298-0.018,2.568-0.087,3.699-0.095c4.794-0.031,9.573-0.403,14.374-0.387c10.306,0.037,20.606,0.132,30.919,0.328    c19.128,0.363,38.21,1.231,57.341,1.538c9.249,0.148,18.018-1.672,27.182-2.221c6.472-0.387,12.931-0.164,19.397-0.217    c4.911,1.591,10.812,1.439,15.718,1.744c8.183,0.509,16.355,0.603,24.561,0.619c18.63,0.037,37.238-1.703,55.834-1.589    c17.909,0.11,35.855-0.478,53.758,0.113c16.527,0.545,32.892-0.818,49.389-0.797c8.845,0.011,17.649,0.16,26.49,0.166    c3.086,0.002,6.456,0.177,9.841,0.16c13.106,0.907,26.378-0.35,39.477,0.594c6.387,0.46,12.859,1.435,19.31,1.562    c-0.567,2.229-0.524,4.608-0.624,6.903C475.27,292.945,475.196,297.902,475.354,302.619z M254.141,480.249    c0.166,4.349,0.238,8.72,0.346,13.07c0.073,2.947-0.603,6.605,0.12,9.65c-7.94,0.026-15.882,0.159-23.823,0.314    c-0.024-1.311-0.198-2.71-0.221-3.328c-0.116-3.029-0.247-6.048-0.346-9.071c-0.187-5.723,0.177-11.501,0.499-17.211    c0.182-3.235,0.347-6.492,0.44-9.731c0.092-3.207-1.404-10.299,0.575-13.027c1.48-2.039,7.846-1.399,10.354-1.348    c3.136,0.065,6.39,0.344,9.523,0.565c1.034,0.073,2.065,0.119,3.096,0.153C252.51,459.718,253.778,470.743,254.141,480.249z     M279.873,502.783c-6.615,0.069-13.215,0.139-19.788,0.153c0.622-3.335,0.257-7.056,0.159-10.344    c-0.132-4.417-0.134-8.861-0.321-13.27c-0.229-5.399-0.463-10.769-0.564-16.175c-0.073-3.915,0.345-8.849-0.892-12.788    c3.676,0.023,7.348-0.049,11.053,0.095c1.484,0.057,8.179-0.265,9.247,0.546c1.99,1.508,0.97,8.836,1.143,11.339    C280.84,475.778,279.928,489.331,279.873,502.783z M484.944,384.937c-0.243,5.865-0.108,11.751-0.311,17.623    c-0.393,11.365-1.023,22.731-1.111,34.112c-0.085,11.003-0.576,21.985-0.927,32.977c-0.182,5.704-0.054,11.379-0.013,17.079    c0.022,3.109-0.709,7.714,1.281,10.5c0.039,0.894,0.023,1.779-0.164,2.404c-1.086,3.645-3.781,2.823-6.773,2.898    c-7.8,0.195-15.595,0.184-23.404,0.248c-16.239,0.132-32.436-0.044-48.676,0.785c-16.198,0.827-32.387,0.375-48.603,0.42    c-6.306,0.018-12.612-0.648-18.901-0.382c-3.363,0.142-7.104-0.108-10.841-0.164c-13.623-0.818-27.351-0.828-41.041-0.709    c-0.13-16.434,0.696-33.008-0.974-49.395c-0.861-8.452-5.021-6.721-11.89-7.294c-7.249-0.606-14.519-0.031-21.771-0.327    c-4.031-0.164-8.033-0.376-12.056-0.195c-2.738,0.123-6.539-0.499-9.021,0.966c-5.383,3.178-2.944,15.513-3.025,20.437    c-0.203,12.245-0.777,24.269,0.614,36.426c-4.952,0.095-9.905,0.186-14.855,0.239c-7.185,0.078-14.365,0.017-21.546,0.042    c-12.383-0.887-24.82-1.174-37.236-1.859c-15.644-0.862-31.299-0.504-46.947-0.136c-15.829,0.372-31.736,1.703-47.571,1.286    c-7.468-0.198-14.928,0.083-22.381-0.534c-3.306-0.274-5.986,0.396-7.304-2.071c0.942-7.78-0.139-15.888,0.122-23.685    c0.328-9.81,0.439-19.694,0.436-29.516c-0.004-8.913,1.025-17.743,1.239-26.644c0.105-4.386-0.291-8.562-1.141-12.858    c-0.024-0.119-0.038-0.254-0.059-0.377c0.162-5.677,0.014-11.385,0.139-17.029c0.201-9.171,0.412-18.431-0.113-27.595    c-0.294-5.138-3.57-54.098,0.992-53.383c0.339,0.053,0.649,0.031,0.941-0.023c5.167,0.348,10.719-0.508,15.679-0.492    c7.707,0.025,15.326,0.605,23.023,0.746c8.115,0.15,16.154,0.859,24.278,0.796c8.172-0.063,16.339-0.381,24.506-0.458    c15.015-0.142,30.015,0.273,45.024-0.177c13.658-0.411,27.369-0.391,41-1.244c2.995,0.114,5.916,0.669,8.907,0.955    c4.204,0.403,8.432,0.038,12.648,0.22c8.428,0.364,16.858,1.092,25.272,1.689c9.452,0.67,18.924,0.304,28.391,0.281    c19.04-0.047,38.231,0.382,57.258-0.226c15.98-0.51,32.134,1.384,48.1,0.007c3.066-0.265,6.148-0.439,9.241-0.571    c0.242,0.008,0.484,0.019,0.725,0.028c10.417,0.354,21.031-0.382,31.447-0.927c9.479-0.497,19.007,0.815,28.484,0.991    c4.35,0.081,8.678-0.163,13.023-0.275c3.628-0.095,9.063-0.818,13.233-0.298c0.554,5.486,0.356,11.349,0.746,16.8    c0.219,3.055-0.315,7.221,0.807,10.308c0.039,1.468,0.078,2.937,0.105,4.411c0.244,12.821,1.203,25.613,1.208,38.415    C485.049,381.795,485.007,383.401,484.944,384.937z"/>
	</g>
</g>
<g>
	<g>
		<path d="M280.311,419.217c-0.002-2.574,0.078-6.009-1.097-8.297c-0.289-0.563-1.025-0.995-1.659-0.952    c-5.978,0.408-12.163-0.684-18.148-0.976c-5.234-0.255-10.486-0.186-15.729-0.139c-2.864,0.026-7.164-0.76-9.604,1.149    c-2.881,2.255-2.978,9.929-3.247,13.258c-0.223,2.773-0.666,7.033,1.635,9.133c2.752,2.51,9.007,2.193,12.4,2.211    c7.547,0.038,15.516,0.178,23.132-0.69c0.194-0.002,0.387,0.004,0.581-0.001c4.247-0.093,9.231-0.16,10.992-4.749    C280.702,426.207,280.314,422.268,280.311,419.217z M276.474,413.93c-0.347-0.474-0.211,3.508-0.214,4.463    c-0.012,3.314,0.654,9.247-2.667,10.911c-1.987,0.996-5.138,0.45-7.183,0.402c-6.322-0.148-12.904-1.104-19.209-0.763    c-3.494,0.19-7.62-0.645-11.239-0.085c-0.039-0.032-0.089-0.061-0.123-0.097c-1.895-1.924,0.146-8.868,0.389-10.867    c0.506-4.154,0.215-4.882,4.25-5.006c6.618-0.203,13.383-0.397,19.992,0.017c3.977,0.249,7.951,0.449,11.915,0.761    c0.985,0.146,1.978,0.218,2.976,0.214C277.149,413.774,277.52,413.789,276.474,413.93z"/>
	</g>
</g>
<g>
	<g>
		<path d="M277.763,375.283c-0.054-6.461-0.236-13.063-2.161-19.258c-2.659-8.564-10.099-20.319-20.732-18.39    c-18.219,3.304-21.057,25.907-19.752,43.645c-0.876,4.348-1.001,9.688,0.482,12.425c2.902,5.35,13.069,2.977,18.032,3.092    c4.56,0.107,9.196,0.266,13.753,0.069c2.009-0.086,4.937,0.154,6.842-0.658c2.926-1.249,3.699-4.44,3.548-7.852    C278.519,384.182,277.793,378.733,277.763,375.283z M272.574,382.165c-0.357,1.317-0.551,2.653-0.67,4.19    c-0.067,0.863-0.059,1.894-0.15,2.805c-0.092,0.192-0.178,0.381-0.266,0.549c-0.219,0.419-0.364,0.863-0.543,1.294    c-1.575,0.449-4.349,0.123-5.749,0.139c-3.576,0.039-7.142,0.052-10.725,0.049c-2.355-0.002-4.657,0.171-6.997,0.263    c-1.676,0.066-4.636,0.435-6.121-0.279c-1.835-0.881-0.874-0.129-1.182-1.238c0.526-6.349-0.52-13.167-0.218-19.421    c0.478-9.888,2.061-22.717,12.175-26.956c5.549-2.325,9.71-0.711,13.718,3.83c2.817,3.191,4.525,7.421,5.498,11.513    c1.252,5.26,1.267,10.98,1.223,16.381C272.55,377.489,272.604,379.828,272.574,382.165z"/>
	</g>
</g>
<g>
	<g>
		<path d="M188.955,375.284c-0.055-6.461-0.237-13.063-2.161-19.258c-2.659-8.564-10.099-20.319-20.732-18.39    c-18.218,3.304-21.057,25.907-19.752,43.644c-0.878,4.346-1.002,9.686,0.481,12.423c2.902,5.35,13.069,2.977,18.033,3.092    c4.559,0.108,9.195,0.267,13.752,0.072c2.009-0.086,4.937,0.154,6.842-0.658c2.926-1.249,3.699-4.44,3.548-7.852    C189.71,384.183,188.985,378.734,188.955,375.284z M183.763,382.164c-0.357,1.317-0.551,2.653-0.67,4.19    c-0.067,0.863-0.059,1.894-0.15,2.805c-0.092,0.192-0.178,0.381-0.266,0.549c-0.219,0.419-0.364,0.863-0.544,1.294    c-1.575,0.449-4.35,0.123-5.749,0.139c-3.576,0.039-7.142,0.052-10.725,0.049c-2.355-0.002-4.656,0.17-6.996,0.262    c-1.676,0.066-4.636,0.435-6.121-0.279c-1.835-0.881-0.874-0.129-1.182-1.238c0.526-6.348-0.521-13.166-0.219-19.42    c0.478-9.888,2.061-22.716,12.175-26.956c5.549-2.325,9.71-0.711,13.718,3.83c2.817,3.192,4.525,7.421,5.498,11.513    c1.252,5.26,1.267,10.98,1.223,16.381C183.739,377.488,183.793,379.827,183.763,382.164z"/>
	</g>
</g>
<g>
	<g>
		<path d="M100.145,375.284c-0.054-6.461-0.237-13.063-2.161-19.258c-2.659-8.564-10.099-20.319-20.732-18.39    C59.034,340.94,56.195,363.542,57.5,381.28c-0.878,4.346-1.002,9.686,0.481,12.423c2.902,5.35,13.069,2.977,18.032,3.092    c4.56,0.107,9.196,0.266,13.753,0.069c2.009-0.086,4.937,0.154,6.842-0.658c2.926-1.249,3.699-4.44,3.548-7.852    C100.899,384.183,100.173,378.734,100.145,375.284z M94.955,382.164c-0.357,1.317-0.551,2.653-0.67,4.19    c-0.067,0.863-0.059,1.894-0.15,2.805c-0.092,0.192-0.178,0.381-0.266,0.549c-0.219,0.419-0.364,0.863-0.544,1.294    c-1.575,0.449-4.349,0.123-5.749,0.139c-3.576,0.039-7.142,0.052-10.725,0.049c-2.355-0.002-4.657,0.171-6.997,0.263    c-1.676,0.066-4.636,0.435-6.121-0.279c-1.835-0.881-0.874-0.129-1.182-1.238c0.526-6.348-0.521-13.166-0.219-19.42    c0.478-9.888,2.061-22.716,12.175-26.956c5.549-2.325,9.71-0.711,13.718,3.83c2.817,3.192,4.525,7.421,5.498,11.513    c1.252,5.26,1.267,10.98,1.223,16.381C94.931,377.488,94.985,379.827,94.955,382.164z"/>
	</g>
</g>
<g>
	<g>
		<path d="M452.32,375.284c-0.055-6.461-0.237-13.063-2.161-19.258c-2.659-8.564-10.098-20.319-20.732-18.39    c-18.219,3.304-21.057,25.907-19.752,43.644c-0.878,4.346-1.002,9.686,0.481,12.423c2.902,5.35,13.069,2.977,18.033,3.092    c4.56,0.107,9.196,0.266,13.753,0.069c2.01-0.086,4.937,0.154,6.842-0.658c2.926-1.249,3.699-4.44,3.548-7.852    C453.074,384.183,452.35,378.734,452.32,375.284z M447.13,382.164c-0.357,1.317-0.552,2.653-0.67,4.19    c-0.067,0.863-0.059,1.894-0.15,2.805c-0.092,0.192-0.178,0.381-0.266,0.549c-0.219,0.419-0.364,0.863-0.544,1.294    c-1.575,0.449-4.35,0.123-5.749,0.139c-3.576,0.039-7.142,0.052-10.725,0.049c-2.355-0.002-4.657,0.171-6.997,0.263    c-1.676,0.066-4.636,0.435-6.121-0.279c-1.835-0.881-0.874-0.129-1.182-1.238c0.526-6.348-0.521-13.166-0.219-19.42    c0.478-9.888,2.061-22.716,12.175-26.956c5.549-2.325,9.71-0.711,13.718,3.83c2.817,3.192,4.525,7.421,5.498,11.513    c1.252,5.26,1.267,10.98,1.224,16.381C447.106,377.488,447.16,379.827,447.13,382.164z"/>
	</g>
</g>
<g>
	<g>
		<path d="M363.51,375.284c-0.054-6.461-0.237-13.063-2.161-19.258c-2.659-8.564-10.098-20.319-20.732-18.39    c-18.219,3.304-21.057,25.907-19.752,43.644c-0.878,4.346-1.002,9.686,0.481,12.423c2.902,5.35,13.069,2.977,18.032,3.092    c4.56,0.107,9.196,0.266,13.753,0.069c2.009-0.086,4.937,0.154,6.841-0.658c2.926-1.249,3.699-4.44,3.548-7.852    C364.265,384.183,363.539,378.734,363.51,375.284z M358.321,382.164c-0.357,1.317-0.551,2.653-0.67,4.19    c-0.067,0.863-0.059,1.894-0.15,2.805c-0.092,0.192-0.178,0.381-0.266,0.549c-0.219,0.419-0.364,0.863-0.543,1.294    c-1.575,0.449-4.349,0.123-5.749,0.139c-3.576,0.039-7.142,0.052-10.725,0.049c-2.355-0.002-4.657,0.171-6.997,0.263    c-1.676,0.066-4.636,0.435-6.121-0.279c-1.835-0.881-0.874-0.129-1.182-1.238c0.524-6.348-0.521-13.166-0.219-19.42    c0.478-9.888,2.061-22.716,12.175-26.956c5.549-2.325,9.71-0.711,13.718,3.83c2.817,3.192,4.525,7.421,5.498,11.513    c1.252,5.26,1.267,10.98,1.224,16.381C358.297,377.488,358.351,379.827,358.321,382.164z"/>
	</g>
</g>
<g>
	<g>
		<path d="M195.171,473.975c-0.035-3.041,0.208-6.153,0.096-9.135c-0.174-4.559-0.663-9.025-1.312-13.535    c-1.006-6.98-3.619-18.032-12.819-16.855c-8.191,1.046-11.737,8.795-13.102,15.976c-0.828,4.36-1.304,9.069-1.331,13.781    c-0.196,0.98-0.248,2.014-0.306,2.914c-0.18,2.773-0.559,5.958-0.318,8.699c0.534,6.081,7.441,5.198,12.123,5.461    c4.409,0.249,9.83,1.265,14.183,0.468C196.578,480.982,196.013,477.247,195.171,473.975z M190.965,476.997    c-0.144,0.006-0.326,0.032-0.566,0.093c-0.67,0.172-1.471-0.018-2.161-0.035c-3.34-0.083-6.709-0.194-10.038-0.432    c-1.765-0.127-4.766,0.212-6.457-0.468c-1.161-0.467-0.491,0.269-1.12-0.96c0.559-5.644-0.375-11.851-0.062-17.398    c0.395-7.022,1.994-18.748,10.844-19.864c9.05-1.141,9.285,15.96,9.39,21.822c0.065,3.563,0.287,7.155,0.235,10.713    C191,472.522,190.489,474.914,190.965,476.997z"/>
	</g>
</g>
<g>
	<g>
		<path d="M346.605,473.975c-0.034-3.041,0.21-6.153,0.097-9.135c-0.174-4.559-0.662-9.025-1.312-13.535    c-1.006-6.98-3.619-18.032-12.82-16.855c-8.19,1.046-11.737,8.795-13.102,15.976c-0.828,4.36-1.304,9.069-1.331,13.781    c-0.196,0.98-0.248,2.014-0.307,2.914c-0.18,2.773-0.559,5.958-0.318,8.699c0.534,6.081,7.441,5.198,12.123,5.461    c4.409,0.249,9.83,1.265,14.183,0.468C348.012,480.982,347.447,477.247,346.605,473.975z M342.4,476.997    c-0.144,0.006-0.326,0.032-0.566,0.093c-0.67,0.172-1.471-0.018-2.161-0.035c-3.339-0.083-6.709-0.194-10.038-0.432    c-1.765-0.127-4.766,0.212-6.456-0.468c-1.161-0.467-0.491,0.269-1.121-0.96c0.559-5.644-0.375-11.851-0.062-17.398    c0.395-7.022,1.994-18.748,10.844-19.864c9.05-1.141,9.285,15.96,9.39,21.822c0.065,3.563,0.287,7.155,0.235,10.713    C342.435,472.522,341.924,474.914,342.4,476.997z"/>
	</g>
</g>
<g>
</g>
<g>
</g>
<g>
</g>
<g>
</g>
<g>
</g>
<g>
</g>
<g>
</g>
<g>
</g>
<g>
</g>
<g>
</g>
<g>
</g>
<g>
</g>
<g>
</g>
<g>
</g>
<g>
</g>
</svg>
