<?xml version="1.0" encoding="iso-8859-1"?>
<!-- Generator: Adobe Illustrator 19.0.0, SVG Export Plug-In . SVG Version: 6.00 Build 0)  -->
<svg xmlns="http://www.w3.org/2000/svg" xmlns:xlink="http://www.w3.org/1999/xlink" version="1.1" id="Layer_1" x="0px" y="0px" viewBox="0 0 511.997 511.997" style="enable-background:new 0 0 511.997 511.997;" xml:space="preserve">
<g>
	<g>
		<path d="M315.888,498.112c-0.34-5.114-0.96-10.315-1.549-15.401c-1.208-10.451-1.872-20.934-3.15-31.383    c-0.616-5.04-0.733-10.096-0.716-15.172c0.015-4.927-1.089-9.648-0.924-14.611c0.342-10.245-1.588-20.549-2.009-30.782    c-0.412-10.023-1.305-20.012-1.967-30.019c-0.678-10.246-2.047-20.797-2.094-31.046c-0.04-8.833-1.118-18.13-2.396-26.903    c-0.832-5.709-1.371-11.293-1.901-17.026c-0.405-4.381-0.215-8.768-0.657-13.124c-2.019-19.928-2.118-40.009-4.476-59.921    c-2.169-18.311-2.693-36.748-4.733-55.086c-1.032-9.284-2.163-18.551-2.935-27.843c-0.774-9.314-2.314-18.679-2.176-28.033    c0.063-4.318-0.374-8.515-0.771-12.799c-0.488-5.261-0.45-10.185-0.331-15.481c0.206-9.278-1.636-18.707-2.445-27.948    c-0.353-4.035-0.443-9.181-1.828-12.976c-1.185-3.247-4.115-6.151-6.052-8.96c-1.336-1.94-2.596-3.923-3.84-5.912    c-0.209-1.193-0.402-2.387-0.809-3.524c-0.828-2.313-2.686-4.329-3.963-6.408c-1.896-3.087-3.801-8.609-8.533-7.641    c-3.731,0.763-6.46,5.683-8.07,8.67c-1.651,3.064-3.535,6.084-4.765,9.325c-1.157,1.847-2.333,3.685-3.575,5.488    c-1.936,2.81-4.866,5.713-6.051,8.96c-1.387,3.796-1.475,8.941-1.828,12.976c-0.809,9.241-2.651,18.67-2.445,27.948    c0.117,5.295,0.156,10.22-0.331,15.481c-0.397,4.284-0.834,8.481-0.771,12.799c0.138,9.354-1.403,18.718-2.176,28.033    c-0.772,9.291-1.903,18.559-2.935,27.843c-2.041,18.339-2.565,36.775-4.733,55.086c-2.358,19.913-2.457,39.992-4.476,59.921    c-0.442,4.357-0.253,8.745-0.657,13.124c-0.529,5.735-1.068,11.318-1.901,17.026c-1.28,8.773-2.356,18.07-2.396,26.903    c-0.047,10.249-1.416,20.801-2.094,31.046c-0.663,10.007-1.554,19.997-1.967,30.019c-0.421,10.233-2.351,20.537-2.009,30.782    c0.166,4.963-0.939,9.684-0.924,14.611c0.016,5.075-0.101,10.13-0.716,15.172c-1.277,10.449-1.941,20.933-3.15,31.383    c-0.588,5.088-1.208,10.288-1.549,15.401c-0.218,3.272-0.122,7.364,3.048,9.292c1.383,0.842,2.951,0.811,4.497,0.939    c3.062,0.253,5.806,1.02,8.807,1.575c4.825,0.891,10.166,0.817,15.043,1.102c3.085,0.18,6.393-0.353,9.467-0.507    c5.501,1.226,11.862,0.818,17.197,0.982c3.984,0.122,7.974,0.25,11.951,0.361c3.454,0.096,8.397,0.603,11.625-1.144    c2.255,0.202,4.561,0.437,6.754,0.308c4.875-0.285,10.218-0.211,15.043-1.102c3.001-0.554,5.745-1.322,8.807-1.575    c1.546-0.128,3.114-0.097,4.497-0.939C316.011,505.476,316.106,501.384,315.888,498.112z M307.712,501.014    c-1.828,0.681-4.5,0.547-6.473,0.986c-2.754,0.614-5.288,1.031-8.129,1.1c-4.259,0.103-8.489,0.407-12.69,0.127    c-4.522-0.303-8.886,0.268-13.359,0.631c-4.348-0.618-9.123-0.237-13.205-0.125c-2.791,0.077-6.382-0.278-9.665,0.067    c-4.215-0.363-8.343-0.86-12.616-0.574c-4.202,0.281-8.433-0.024-12.69-0.127c-2.841-0.069-5.374-0.486-8.129-1.1    c-1.972-0.44-4.645-0.305-6.473-0.986c-1.558-0.581-1.018-0.168-0.837-2.902c0.122-1.837,0.405-3.658,0.607-5.487    c0.529-4.798,1.26-9.633,1.53-14.445c0.497-8.842,1.56-17.652,2.577-26.444c0.491-4.242,0.939-8.615,0.832-12.894    c-0.122-4.884,0.961-9.547,0.927-14.417c-0.071-10.172,0.608-20.479,1.693-30.594c2.111-19.672,1.535-39.652,3.865-59.31    c0.467-3.939,0.262-7.801,0.909-11.697c0.723-4.355,1.035-9.042,1.464-13.454c0.948-9.718,2.77-19.567,2.931-29.368    c0.305-18.528,2.135-37.171,3.515-55.655c2.647-35.44,5.425-70.955,9.079-106.268c1.024-9.895,0.687-19.898,1.737-29.781    c0.528-4.974,0.179-9.82,0.057-14.817c-0.138-5.623,0.659-11.806,1.343-17.39c0.537-4.395,0.822-8.812,1.378-13.196    c0.286-2.256,0.459-4.961,0.953-7.185c0.477-2.153,1.734-3.606,2.826-5.498c2.719-4.713,4.545-9.904,7.416-14.545    c1.969-3.182,3.906-6.376,5.83-9.592c0.583-0.542,1.031-0.675,1.925-0.401c2.001,3.353,4.02,6.68,6.071,9.993    c2.871,4.641,4.697,9.831,7.415,14.545c1.091,1.892,2.349,3.344,2.826,5.498c0.492,2.223,0.666,4.929,0.953,7.185    c0.556,4.382,0.841,8.8,1.378,13.196c0.682,5.583,1.481,11.766,1.343,17.39c-0.122,4.998-0.471,9.844,0.057,14.817    c1.05,9.884,0.713,19.887,1.737,29.781c3.655,35.313,6.434,70.828,9.079,106.268c1.38,18.484,3.21,37.127,3.515,55.655    c0.162,9.8,1.984,19.649,2.931,29.368c0.431,4.412,0.741,9.099,1.464,13.454c0.647,3.897,0.442,7.758,0.909,11.697    c2.329,19.658,1.754,39.638,3.865,59.31c1.085,10.115,1.765,20.421,1.693,30.594c-0.034,4.869,1.05,9.533,0.927,14.417    c-0.107,4.278,0.342,8.652,0.832,12.894c1.017,8.792,2.08,17.601,2.577,26.444c0.27,4.813,1.001,9.648,1.53,14.445    c0.202,1.829,0.484,3.649,0.607,5.487C308.73,500.846,309.271,500.432,307.712,501.014z"/>
	</g>
</g>
<g>
	<g>
		<path d="M261.976,31.629c-0.218-2.853-0.888-3.929-3.763-4.374c-0.363-0.057-0.725-0.101-1.087-0.136    c-1.898-0.295-4.136-0.091-5.91,0.581c-0.297,0.097-0.594,0.203-0.888,0.324c-0.273,0.113-0.465,0.292-0.583,0.499    c-1.609,1.312-1.739,3.402-1.932,5.627c-0.177,2.028-0.362,5.036,0.596,6.912c0.501,0.981,1.136,1.173,2.146,1.464    c1.348,0.388,2.884,0.906,4.263,1.055c2.248,0.245,4.91,0.252,6.158-1.931C262.59,38.823,262.214,34.725,261.976,31.629z     M258.897,39.426c-1.167,1.677-4.829,0.62-6.475,0.27c-2.785-0.593-1.754-4.454-1.474-6.455c0.165-1.179,0.071-2.066,1.23-2.712    c1.972-1.1,4.283-0.762,6.353-0.418c0.188,0.031,0.376,0.062,0.564,0.094c0.155,0.632,0.235,1.274,0.24,1.926    C259.463,33.808,259.933,37.935,258.897,39.426z"/>
	</g>
</g>
<g>
</g>
<g>
</g>
<g>
</g>
<g>
</g>
<g>
</g>
<g>
</g>
<g>
</g>
<g>
</g>
<g>
</g>
<g>
</g>
<g>
</g>
<g>
</g>
<g>
</g>
<g>
</g>
<g>
</g>
</svg>
