<?xml version="1.0" encoding="iso-8859-1"?>
<!-- Generator: Adobe Illustrator 19.0.0, SVG Export Plug-In . SVG Version: 6.00 Build 0)  -->
<svg xmlns="http://www.w3.org/2000/svg" xmlns:xlink="http://www.w3.org/1999/xlink" version="1.1" id="Layer_1" x="0px" y="0px" viewBox="0 0 512.004 512.004" style="enable-background:new 0 0 512.004 512.004;" xml:space="preserve">
<g>
	<g>
		<path d="M421.615,500.287c-2.636-5.51-8.098-11.051-13.937-12.896c-7.055-2.229-14.871-4.032-22.225-4.872    c-3.858-0.441-7.723-0.789-11.591-1.075c0.913-23.445-0.147-47.161-0.209-70.611c-0.031-11.619,0.55-23.154,0.548-34.788    c-0.002-12.756,0.025-25.512-0.009-38.268c-0.026-9.889-0.883-19.684-1.154-29.533c-0.28-10.149-1.166-20.323-1.121-30.44    c0.05-11.321-2.061-22.747-1.95-34.06c0.111-11.38,0.712-22.671,0.712-34.052c0-13.518-0.039-27.035-0.022-40.553    c0.008-6.211-0.634-12.329-0.667-18.551c-0.029-5.507,0.134-11.052-0.495-16.523c4.681-0.137,9.357-0.306,14.053-0.593    c6.566-0.4,14.21,0.75,20.576-1.315c5.417-1.758,3.786-7.262,3.617-11.933c-0.147-4.036-0.532-8.866-5.399-8.861    c-5.881,0.007-11.897,1.181-17.769,1.622c-7.521,0.566-15.341,0.533-22.9,0.518c-3.273-0.007-6.603-0.202-9.86,0.128    c-2.238,0.226-5.024,0.114-7.502,0.419c-0.26-10.323-0.754-20.658-0.748-30.974c0.002-4.584,0.431-9.378-0.142-13.928    c-0.494-3.917-0.025-7.813-0.455-11.727c-0.287-2.607-1.159-5.578-3.613-6.98c-1.667-0.953-3.427-0.614-5.143,0.021    c-0.235-11.553-0.333-23.123,0.56-34.511c0.346-4.413,1.866-11.925-2.839-14.477c-3.572-1.937-8.804-2.478-10.952,1.583    c-1.354,2.559-1.135,5.868-1.231,8.674c-0.129,3.742-0.395,7.373-0.465,11.153c-0.087,4.744-0.577,9.652-0.541,14.503    c-2.085-0.115-4.499,0.702-6.741,1.936c-6.474,3.561-12.384,6.852-18.368,11.204c-3.622,2.634-7.583,4.844-11.171,7.47    c-3.028,2.217-5.582,4.978-8.765,7.029c-4.528,2.918-9.219,6.7-13.367,10.538c-0.08,0.063-0.161,0.122-0.24,0.186    c-3.2,2.557-5.853,5.676-9.093,8.212c-2.851,2.231-5.515,4.435-7.91,7.163c-1.619,1.844-3.25,3.678-4.884,5.508    c-0.672,0.674-1.343,1.35-2.003,2.039c-0.105,0.11-0.141,0.232-0.131,0.347c-8.964,10.01-17.976,19.971-25.987,30.743    c-4.986,6.704-10.795,12.732-15.588,19.637c-4.657,6.71-8.627,13.895-13.678,20.294c-9.688,12.272-16.207,27.869-21.31,42.53    c-1.22,3.506-3.207,6.55-4.682,9.977c-1.841,4.275-3.481,8.639-5.317,12.921c-3.539,8.254-4.854,17.25-7.24,25.862    c-2.197,7.931-3.175,16.516-4.267,24.67c-1.216,9.077-2.683,18.134-3.994,27.207c-2.736,18.932-2.548,37.548-2.715,56.623    c-0.18,20.561,1.665,41.042,4.398,61.424c1.34,9.995,4.302,19.432,6.265,29.279c0.916,4.596,2.873,9.001,4.192,13.524    c0.739,2.535,2.248,5.371,3.403,8.166c-12.944,0.056-26.239-0.576-38.565,3.319c-2.347,0.742-4.787,1.408-7.069,2.411    c-2.878,1.264-4.691,3.746-6.917,5.844c-2.696,2.543-8.919,7.65-7.773,11.955c1.192,4.48,7.578,3.172,10.942,3.297    c9.111,0.338,18.135,0.671,27.265,0.669c9.155-0.003,18.225,0.782,27.379,0.814c8.154,0.028,16.54-0.511,24.659,0.243    c8.614,0.8,17.12,0.313,25.754,0.372c4.43,0.03,8.796,0.83,13.239,0.865c4.789,0.038,9.555,0.011,14.342,0.23    c8.357,0.38,16.562-0.366,24.899-0.258c9.063,0.118,18.398,0.547,27.434-0.164c21.347-1.679,43.301-0.395,64.725-0.392    c5.375,0.001,10.849-0.28,16.202,0.202c4.918,0.442,9.58-0.127,14.496-0.229c8.436-0.177,16.968,1.765,25.068-0.587    c3.668,0.301,7.412,0.811,11.008,0.57C423.217,510.594,424.159,505.602,421.615,500.287z M370.016,328.948    c0.85,12.255-0.002,24.878-0.004,37.165c-0.002,12.006-0.479,23.988-0.587,35.951c-0.236,26.285,0.994,52.813-0.062,79.082    c-3.189-0.192-6.381-0.353-9.574-0.461c0.175-9.53,0.98-18.983,1.117-28.51c0.168-11.717-0.58-23.545,0.135-35.243    c0.751-12.257,1.028-24.496,1.026-36.778c-0.001-12.093,0.625-24.139,0.563-36.272c-0.231-45.031-3.166-89.794-3.861-134.784    c-0.204-13.182,0.518-26.308,0.449-39.513c-0.06-11.703-0.655-23.543-0.196-35.238c0.037-0.001,0.071,0,0.108-0.001    c2.475-0.066,4.94-0.13,7.405-0.195c-1.288,10.074-0.36,20.383,0.059,30.443c0.503,12.07-0.041,24.288-0.044,36.37    c-0.002,11.203-0.587,22.353-0.588,33.522c-0.002,11.727,0.799,23.33,1.185,35.051c0.344,10.448,1.67,20.941,1.745,31.388    C368.958,310.315,369.368,319.609,370.016,328.948z M344.569,118.954c3.375,0.325,6.852-0.608,10.295-0.697    c6.026-0.155,12.17,0.427,18.164-0.25c5.57-0.63,11.167-0.567,16.743-1.05c2.5-0.216,5.147-0.502,7.65-0.518    c0.59-0.003,2.988-0.272,3.605-0.037c0.421-0.065,0.841-0.129,1.262-0.194c0.422,1.034,0.605,2.096,0.546,3.185    c0.086,1.297,0.67,6.403-0.101,7.302c-1.038,1.211-5.804,1.124-7.425,1.162c-7.111,0.168-14.334-0.08-21.434,0.432    c-6.24,0.45-12.486,0.884-18.766,0.957c-3.472,0.04-7.195-0.762-10.78-0.771C345.321,125.892,344.877,122.12,344.569,118.954z     M356.556,134.365c-1.624,9.42-0.568,19.785-0.627,29.252c-0.073,11.53-0.579,22.999-0.874,34.488    c-0.285,11.109,0.335,22.2,0.682,33.26c0.375,11.971-0.164,24.111,0.748,36.052c3.549,46.456,1.976,93.604,0.658,140.183    c-0.393,13.87-0.595,27.695-0.612,41.586c-0.012,10.482-0.932,20.893-1.126,31.377c-3.824-0.089-7.652-0.132-11.482-0.131    c-0.104-1.732,0.263-3.557,0.162-5.265c-0.16-2.722-0.264-5.052-0.065-7.789c0.262-3.594-0.056-7.19-0.063-10.786    c-0.007-3.326,0.542-6.576,0.575-9.898c0.157-15.585-0.095-31.195-0.133-46.782c-0.035-14.091-0.095-28.174-0.62-42.209    c-0.217-5.827,0.645-11.739,0.096-17.539c-0.675-7.137-0.176-14.196-0.754-21.316c-1.038-12.802-1.301-25.778-1.703-38.614    c-0.026-0.809-0.027-1.621-0.048-2.431c0.092-0.002,0.183-0.003,0.274-0.006c-0.124-1.13-0.235-2.263-0.343-3.395    c-0.246-12.76-0.027-25.602,0.682-38.284c0.35-6.246,0.448-12.558,0.542-18.813c0.048-3.162,0.607-6.265,0.672-9.421    c0.074-3.556-0.776-6.989-0.851-10.52c-0.137-6.439,0.132-12.922,0.123-19.368c-0.009-6.711-0.653-13.328-0.607-20.041    c0.034-4.889-0.338-9.716-0.502-14.578c0.008,0,0.016,0,0.023,0c-0.013-0.232-0.032-0.464-0.046-0.696    c-0.047-1.6-0.071-3.205-0.044-4.817c0.03-1.82,0.068-3.763-0.106-5.666C346.267,133.659,351.204,134.321,356.556,134.365z     M335.899,54.379c3.38,1.659,2.556,6.029,2.466,9.367c-0.184,6.73,0.6,13.568,0.604,20.364c0.003,8.174,0.674,16.296,0.521,24.475    c-0.066,3.49-0.151,6.979-0.226,10.468c-0.039,1.829-0.063,3.66-0.101,5.489c-0.012,0.604,0.006,1.015,0.018,1.323    c-0.111-0.162-0.221-0.324-0.344-0.481c-0.976-1.243-2.2-2.026-3.558-2.513c-0.155-2.755-0.493-5.449-0.641-8.277    c-0.24-4.584,0.13-9.298,0.113-13.893c-0.034-9.247-0.089-18.495-0.137-27.743c-0.032-6.297-0.189-12.642-0.329-18.995    C334.815,54.025,335.35,54.11,335.899,54.379z M336.069,476.85c0.015,1.246-0.111,2.447-0.151,3.635    c-21.286,0.285-42.626,1.555-63.892,1.881c-5.481,0.084-10.981,0.509-16.457,0.515c-1.376,0.001-2.742-0.052-4.107-0.124    c-1.762-0.31-3.524-0.614-5.349-0.683c-4.297-0.164-8.612-0.148-12.911-0.239c-8.832-0.185-17.66-0.94-26.464-0.419    c-8.966,0.53-18.259,0.973-27.203,0.146c-2.868-0.266-5.697-0.344-8.515-0.327c-0.021-0.476-0.157-0.979-0.476-1.498    c-1.342-2.178-1.821-6.45-2.378-8.936c-0.915-4.088-1.387-8.322-1.73-12.481c-0.037-0.447-0.056-0.894-0.09-1.341    c5.09,0.259,10.251,0.192,15.164,0.192c7.781,0,15.551-0.249,23.327-0.393c1.352,0.571,2.804,0.995,4.316,1.282    c7.339,1.39,14.778,1.784,22.228,1.728c4.289-0.032,8.585-0.166,12.876-0.136c3.62,0.026,7.261,0.919,10.853,0.532    c8.026-0.864,16.326-0.392,24.426-0.383c5.815,0.008,13.576,1.243,19.045-1.406c0.643-0.311,1.213-0.661,1.735-1.036    c12.057,0.058,24.121,0.015,36.168-0.216c-0.11,3.878-0.251,7.759-0.68,11.564C335.481,471.581,336.036,474,336.069,476.85z     M334.664,161.664c-8.954-0.158-17.917-0.215-26.878-0.206c0.17-3.889,0.329-7.78,0.451-11.673    c0.064-2.034,0.139-4.054,0.207-6.072c8.763,0.007,17.528-0.05,26.284-0.205C334.764,149.557,334.559,155.629,334.664,161.664z     M334.8,165.911c0.283,6.06,0.602,12.02,0.594,18.114c0,0.02-0.001,0.039-0.001,0.059c-9.541-0.174-19.093-0.234-28.643-0.22    c0.263-5.918,0.553-11.831,0.828-17.744C316.655,166.13,325.732,166.072,334.8,165.911z M335.323,188.302    c-0.114,4.509-0.273,9.058,0.305,13.49c0.204,1.567,0.298,3.137,0.323,4.708c-10.219-0.192-20.449-0.252-30.678-0.23    c0.491-5.917,0.95-11.833,1.256-17.749C316.128,188.538,325.732,188.477,335.323,188.302z M336.117,337.62    c0.13,1.108,0.211,2.215,0.274,3.32c-11.294-0.22-22.605-0.28-33.909-0.24l-0.013-17.769c11.164,0.04,22.334-0.012,33.489-0.224    C335.994,327.68,335.534,332.645,336.117,337.62z M336.424,357.704c0.038,1.879,0.076,3.758,0.114,5.638    c-11.348-0.218-22.711-0.272-34.069-0.23c-0.003-0.277-0.01-0.567-0.015-0.84c-0.093-5.636,0.024-11.288,0.027-16.927    c11.349,0.04,22.702-0.021,34.04-0.243C336.547,349.29,336.34,353.48,336.424,357.704z M303.998,390.158    c10.985,0.031,21.974-0.035,32.947-0.252c0.017,2.619,0.032,5.239,0.026,7.859c-0.009,3.451,0.023,6.918,0.067,10.39    c-10.914-0.215-21.844-0.278-32.768-0.245c-0.002-0.816,0-1.631,0.013-2.448C304.367,400.392,304.248,395.269,303.998,390.158z     M303.73,385.508c-0.188-2.899-0.402-5.789-0.662-8.655c-0.264-2.913-0.4-6.035-0.49-9.113    c11.351,0.041,22.706-0.012,34.047-0.232c0.121,6.078,0.225,12.163,0.289,18.253C325.861,385.542,314.793,385.475,303.73,385.508z     M263.819,430.704c-18.173,0.248-36.341,0.483-54.516,0.277c-3.181-0.036-6.362-0.108-9.542-0.183    c-0.883-5.023-1.6-10.077-2.348-15.067c-1.274-8.492-2.183-17.286-2.759-25.953c4.882-0.108,9.763-0.233,14.648-0.288    c18.175-0.206,36.342,0.03,54.516,0.277c11.164,0.151,22.361,0.292,33.567,0.358c0.385,13.406,0.839,26.809,1.467,40.207    C287.157,430.397,275.469,430.546,263.819,430.704z M298.784,434.945c-0.067,1.215-0.132,2.431-0.211,3.646    c-0.198,3.04,0.085,6.795-0.653,9.734c-0.953,3.795-3.67,4.297-7.163,4.436c-0.799,0.032-1.601,0.036-2.401,0.055    c-1.853,0.018-3.705,0.034-5.556,0.054c-4.043-0.016-8.09-0.097-12.117-0.093c-3.679,0.005-7.456,0.251-11.202,0.388    c-1.89,0.025-3.781,0.049-5.671,0.073c-0.649-0.012-1.297-0.027-1.938-0.059c-12.686-0.633-25.418,0.314-38.064-1.092    c-2.813-0.313-6.138-0.338-8.611-1.909c-0.274-0.174-0.522-0.364-0.76-0.562c-1.74-4.918-2.982-10.009-3.994-15.158    c2.952-0.066,5.905-0.127,8.86-0.16c18.175-0.206,36.342,0.03,54.516,0.277C275.448,434.731,287.111,434.879,298.784,434.945z     M209.304,299.872c18.175-0.206,36.342,0.03,54.516,0.277c10.783,0.147,21.598,0.283,32.422,0.352    c-0.067,13.416-0.055,26.829,0.084,40.233c-10.852,0.068-21.695,0.205-32.506,0.352c-18.173,0.248-36.341,0.483-54.516,0.277    c-5.117-0.058-10.23-0.199-15.344-0.314c0.436-8.387,1.265-16.753,2.665-25.064c0.887-5.266,1.519-10.589,2.144-15.915    C202.279,299.99,205.791,299.912,209.304,299.872z M199.208,296.358c0.593-4.97,1.225-9.934,2.102-14.842    c1.583-8.856,3.362-17.655,5.36-26.408c0.877-0.013,1.754-0.035,2.632-0.045c18.175-0.206,36.342,0.03,54.516,0.277    c10.934,0.149,21.901,0.287,32.877,0.355c-0.19,13.402-0.344,26.814-0.429,40.229c-10.834,0.069-21.657,0.207-32.448,0.353    c-18.173,0.248-36.341,0.483-54.516,0.277C205.936,296.516,202.572,296.439,199.208,296.358z M209.303,344.68    c18.175-0.206,36.342,0.03,54.516,0.277c10.831,0.148,21.693,0.283,32.566,0.352c0.104,8.361,0.244,16.72,0.461,25.069    c0.131,5.053,0.264,10.107,0.404,15.16c-11.161,0.066-22.314,0.205-33.432,0.356c-18.173,0.248-36.341,0.483-54.516,0.277    c-4.964-0.056-9.924-0.192-14.884-0.304c-0.036-0.669-0.089-1.348-0.121-2.015c-0.622-12.926-1.003-25.918-0.513-38.866    C198.956,344.875,204.127,344.74,209.303,344.68z M296.908,241.454c-0.049,3.218-0.096,6.44-0.143,9.661    c-10.999,0.068-21.989,0.206-32.945,0.355c-18.173,0.246-36.341,0.483-54.516,0.277c-0.613-0.007-1.225-0.022-1.838-0.031    c0.268-1.134,0.521-2.271,0.796-3.403c1.331-5.474,2.792-10.828,4.327-16.253c1.566-5.532,3.758-10.979,5.006-16.552    c0.397-1.773,0.848-3.542,1.322-5.306c14.968-0.053,29.933,0.129,44.903,0.333c11.717,0.159,23.471,0.307,35.233,0.369    C298.029,221.089,297.064,231.276,296.908,241.454z M263.819,206.664c-14.674,0.199-29.343,0.379-44.015,0.337    c2.402-8.203,5.514-16.277,8.865-24.068c2.498-5.807,5.304-11.768,8.441-17.501c8.902,0.062,17.805,0.172,26.709,0.293    c12.873,0.175,25.789,0.342,38.716,0.39c-0.398,5.92-0.84,11.841-1.154,17.765c-0.395,7.466-1.116,14.938-1.865,22.411    C287.597,206.351,275.69,206.503,263.819,206.664z M334.018,251.273c-10.346-0.177-20.704-0.225-31.058-0.19    c0.009-2.001,0.031-4.004,0.031-6.003c0-3.92,0.114-7.839,0.299-11.759c10.486,0.035,20.977-0.015,31.457-0.199    c-0.204,2.78-0.42,5.56-0.602,8.322C333.934,244.688,333.955,247.982,334.018,251.273z M334.104,255.538    c0.026,1.338,0.046,2.672,0.045,3.999c-0.003,4.687-0.155,9.421-0.156,14.139c-10.401-0.178-20.816-0.222-31.226-0.185    c0.073-5.924,0.128-11.844,0.168-17.762C313.326,255.765,323.721,255.716,334.104,255.538z M334.051,277.944    c0.035,1.387,0.084,2.77,0.169,4.149c0.288,4.661,0.445,9.33,0.583,13.999c-10.752-0.192-21.516-0.243-32.274-0.204    c0.048-5.92,0.114-11.842,0.187-17.762C313.162,278.165,323.612,278.121,334.051,277.944z M334.926,300.329    c0.178,6.07,0.385,12.141,0.863,18.198c-11.1-0.208-22.214-0.262-33.323-0.222l-0.006-7.969c-0.002-3.265,0.027-6.532,0.046-9.799    C313.314,300.577,324.126,300.523,334.926,300.329z M335.879,210.695c-0.144,3.416-0.442,6.837-0.497,10.256    c-0.043,2.637-0.183,5.286-0.35,7.937c-10.49-0.188-20.99-0.239-31.488-0.206c0.357-5.919,0.845-11.84,1.341-17.759    C315.218,210.949,325.555,210.888,335.879,210.695z M304.384,131.115c-0.323,2.135-0.325,4.29-0.356,6.443    c-0.076,5.179-0.581,10.301-0.771,15.475c-0.102,2.811-0.252,5.62-0.421,8.43c-13.027,0.046-26.044,0.215-39.017,0.391    c-8.284,0.112-16.566,0.217-24.847,0.281c1.78-3.063,3.652-6.045,5.646-8.858c3.597-5.075,7.486-10.706,11.831-15.153    c1.619-1.658,3.487-3.053,4.998-4.817c1.124-1.312,1.961-2.836,2.891-4.286c3.721-0.119,7.452-0.315,11.157-0.22    c4.443,0.114,9.289-0.738,13.642-0.132c2.919,0.407,5.218-0.168,8.16-0.182c2.609-0.011,5.18-0.208,7.771-0.329    C304.848,129.221,304.506,130.301,304.384,131.115z M295.083,85.625c-0.372,12.041-1.018,24.145-0.64,36.125    c-6.591,0.411-13.268,0.913-19.979,0.999c-7.613,0.097-15.119,0.883-22.66,0.679c-2.163-0.058-5.147,0.168-8.024,0.79    c0.837-1.075,1.685-2.143,2.563-3.192c4.864-5.803,9.831-11.525,14.818-17.224c6.207-7.094,11.974-15.554,19.565-21.25    c0.999-0.749,1.997-1.57,3.001-2.425c1.973-1.68,4.859-2.242,6.871-3.925c1.442-1.206,3.394-2.886,4.104-1.124    c0.068,0.17,0.125,0.373,0.169,0.613C295.441,78.788,295.18,82.454,295.083,85.625z M253.862,128.837    c2.103,0.206,4.219,0.263,6.341,0.258c-3.578,3.09-6.774,6.795-9.764,10.514c-6.163,0.069-12.327,0.122-18.491,0.15    c2.845-3.411,5.444-6.999,8.076-10.568C244.635,129.451,249.106,128.371,253.862,128.837z M247.653,143.13    c-0.698,0.892-1.391,1.776-2.073,2.637c-4.108,5.187-7.508,10.717-10.715,16.388c-5.839,0.034-11.678,0.039-17.518,0.01    c3.599-6.654,7.457-13.182,12.027-19.168C235.466,143.017,241.56,143.065,247.653,143.13z M233.045,165.414    c-1.503,2.727-2.985,5.473-4.499,8.226c-1.959,3.565-3.716,7.229-5.325,10.961c-4.639,0-9.278-0.015-13.917-0.067    c-1.213-0.013-2.425-0.044-3.637-0.068c1.467-2.835,2.945-5.653,4.411-8.445c1.841-3.506,3.662-7.061,5.533-10.602    C221.422,165.383,227.234,165.385,233.045,165.414z M209.303,187.852c4.197-0.048,8.395-0.06,12.592-0.065    c-2.539,6.263-4.706,12.696-6.713,19.186c-1.959-0.012-3.919-0.011-5.879-0.034c-4.756-0.054-9.509-0.169-14.263-0.273    c2.685-6.338,5.707-12.573,8.837-18.712C205.685,187.916,207.493,187.872,209.303,187.852z M209.304,210.256    c1.628-0.019,3.255-0.017,4.883-0.028c-1.923,6.376-3.74,12.78-5.649,19.102c-7.237-0.093-14.464-0.33-21.7-0.41    c1.504-4.401,3.057-8.771,4.602-13.094c0.63-1.762,1.296-3.516,1.99-5.263C198.72,210.451,204.01,210.316,209.304,210.256z     M207.512,232.69c-0.412,1.329-0.83,2.653-1.256,3.97c-1.591,4.926-2.896,9.928-4.084,14.961    c-6.517-0.144-13.03-0.342-19.552-0.342c-0.816,0-1.659-0.005-2.486-0.007c1.499-6.112,3.316-12.179,5.297-18.183    C192.794,233.019,200.149,232.796,207.512,232.69z M181.509,255.532c6.616,0,13.223-0.184,19.834-0.328    c-1.253,5.56-2.405,11.146-3.655,16.701c-0.15,0.669-0.301,1.336-0.451,2.003c-4.871-0.115-9.741-0.225-14.616-0.225    c-2.397,0-4.854-0.008-7.327-0.003c0.99-4.232,1.998-8.458,2.759-12.73c0.322-1.808,0.687-3.612,1.079-5.413    C179.927,255.534,180.724,255.532,181.509,255.532z M181.51,277.936c4.968,0,9.932-0.103,14.894-0.216    c-0.706,3.356-1.311,6.725-1.618,10.16c-0.252,2.817-0.715,5.59-1.219,8.353c-3.647-0.08-7.296-0.147-10.947-0.147    c-3.662,0-7.447-0.024-11.241,0.054c0.397-3.562,0.83-7.125,1.434-10.688c0.428-2.525,0.952-5.03,1.509-7.526    C176.75,277.939,179.161,277.936,181.51,277.936z M181.51,300.341c3.779,0,7.554-0.066,11.329-0.144    c-0.438,2.393-0.85,4.792-1.127,7.22c-0.425,3.729-0.929,7.445-1.435,11.157c-2.551-0.047-5.103-0.083-7.654-0.083    c-4.538,0-9.265-0.058-13.967,0.108c0.37-3.139,0.766-6.271,1.201-9.391c0.416-2.981,0.747-5.96,1.071-8.937    C174.502,300.352,178.066,300.341,181.51,300.341z M181.509,322.746c2.739,0,5.477-0.038,8.213-0.086    c-0.768,5.711-1.483,11.426-1.872,17.192c-0.025,0.364-0.035,0.727-0.056,1.091c-1.724-0.023-3.449-0.046-5.174-0.046    c-5.236,0-10.723-0.084-16.131,0.196c0.477-6.184,1.051-12.348,1.726-18.487C172.693,322.778,177.194,322.746,181.509,322.746z     M181.508,345.15c2.029,0,4.057-0.022,6.085-0.052c-0.158,4.587-0.156,9.172-0.169,13.774c-0.005,1.483-0.039,2.971-0.082,4.463    c-1.574-0.021-3.147-0.035-4.722-0.035c-5.684,0-11.667-0.106-17.521,0.267c0.301-6.212,0.668-12.425,1.11-18.631    C171.342,345.21,176.55,345.15,181.508,345.15z M181.509,367.553c1.904,0,3.809-0.019,5.712-0.045    c-0.092,3.408-0.128,6.816,0.143,10.191c0.215,2.668,0.401,5.357,0.585,8.053c-1.776-0.025-3.552-0.047-5.329-0.047    c-5.971,0-12.27-0.117-18.404,0.326c0.195-6.234,0.422-12.489,0.705-18.759C170.468,367.63,176.135,367.553,181.509,367.553z     M181.509,389.958c2.242,0,4.483-0.022,6.724-0.057c0.418,6.113,0.875,12.245,1.631,18.283c-2.413-0.043-4.827-0.075-7.242-0.075    c-6.163,0-12.679-0.125-19,0.37c0.089-6.296,0.291-12.564,0.479-18.863C169.909,390.038,175.87,389.958,181.509,389.958z     M181.509,412.361c2.975,0,5.947-0.044,8.919-0.099c0.025,0.164,0.044,0.329,0.069,0.494c0.878,5.684,1.453,11.816,2.368,17.889    c-3.414-0.073-6.829-0.132-10.245-0.132c-5.777,0-11.862-0.105-17.807,0.29c-0.525-5.454-1.243-10.86-1.241-16.37    c0.001-0.819,0.015-1.633,0.02-2.45C169.56,412.448,175.706,412.361,181.509,412.361z M181.509,434.766    c4.007,0,8.01-0.073,12.012-0.158c0.744,4.088,1.707,8.097,3.103,11.869c0.145,0.757,0.319,1.507,0.553,2.242    c0.562,1.767,1.428,3.247,2.519,4.482c-5.692-0.134-11.381-0.283-17.078-0.283c-5.365,0-10.996-0.093-16.535,0.207    c-0.356-6.195-0.513-12.388-0.951-18.591c-0.001-0.012-0.002-0.026-0.003-0.038C170.612,434.837,176.204,434.766,181.509,434.766z     M303.895,452.71c0.999-2.5,1.251-5.402,1.386-8.372c0.147-3.209,0.364-6.309,0.374-9.363c10.53,0.025,21.063-0.043,31.582-0.252    c-0.05,4.369-0.173,8.725-0.421,13.059c-0.099,1.712-0.162,3.436-0.215,5.166C325.708,452.738,314.8,452.676,303.895,452.71z     M305.468,430.303c-0.059-0.633-0.134-1.264-0.23-1.895c-0.348-5.289-0.728-10.555-0.889-15.848    c10.917,0.032,21.836-0.029,32.743-0.244c0.089,6.075,0.183,12.163,0.171,18.239C326.673,430.344,316.069,430.277,305.468,430.303    z M322.762,54.061c0.212-3.687,1.772-7.496,1.146-11.217c-0.205-1.218-0.556-2.184-1.009-2.96    c0.193-4.331-0.038-8.726,0.457-12.998c0.652-5.618,0.515-11.285,1.054-16.902c0.193-2.011,0.065-5.091,2.547-5.04    c1.706,0.035,2.844,1.306,3.246,2.915c0.662,2.649-0.174,6.789-0.472,9.412c-0.772,6.793-0.153,13.831-0.213,20.67    c-0.131,15.266-0.199,30.534-0.279,45.801c-0.066,12.688-0.986,25.774,0.102,38.469c-1.658,0.083-3.306,0.297-4.806,0.461    c-0.586,0.065-1.156,0.142-1.721,0.223c0.355-8.146,1.186-16.207,0.434-24.359c-0.957-10.36-0.417-21.047-0.464-31.447    C322.768,62.777,322.514,58.37,322.762,54.061z M319.735,129.288c0.243,0.009,0.468-0.008,0.686-0.037    c0.171,0.012,0.344,0.025,0.509,0.022c2.266-0.031,4.381-0.266,6.72-0.222c1.473,0.028,2.732-0.031,3.749,0.134    c0.297,0.138,0.612,0.222,0.932,0.252c1.117,0.457,1.805,1.476,1.997,3.761c0.17,2.013,0.261,4.035,0.323,6.059    c-8.687-0.152-17.383-0.208-26.078-0.203c0.034-1.697,0.055-3.398,0.036-5.11c-0.021-1.905,0.378-3.953,0.236-5.85    C312.502,128.252,316.059,129.145,319.735,129.288z M144.999,439.859c-2.336-17.253-5.202-34.535-5.044-51.971    c0.084-9.259-0.667-18.641-0.764-27.938c-0.103-9.85-0.252-19.485,1.005-29.255c2.22-17.264,3.228-34.79,6.749-51.894    c0.786-3.822,0.913-7.71,1.641-11.533c0.852-4.48,2.242-8.88,3.216-13.341c1.916-8.765,5.237-16.683,8.242-25.079    c1.326-3.705,3.361-6.953,4.854-10.523c1.33-3.18,1.905-6.66,3.225-9.869c3.12-7.588,6.207-15.429,10.269-22.553    c3.796-6.66,8.666-12.541,12.464-19.144c4.18-7.268,8.769-14.363,13.788-21.097c9.77-13.112,19.773-26.02,29.943-38.834    c5.564-7.01,11.856-14.11,18.871-19.67c3.887-3.082,7.091-6.88,11.114-9.783c2.841-2.05,5.769-3.921,8.547-6.04    c5.281-4.029,10.668-8.207,16.144-12.15c5.441-3.65,10.968-7.173,16.525-10.497c2.582-1.545,5.638-2.926,8.448-3.979    c2.71-1.016,3.598-1.062,3.625,2.267c0.009,1.109-0.585,2.5-0.755,3.624c-1.256,8.258-0.393,17.11-0.476,25.446    c-0.087,8.793-0.125,17.475,0.242,26.242c0.271,6.456-1.314,13-1.395,19.484c-2.694-0.366-5.362-0.765-8.143-0.681    c-2.209,0.067-4.427,0.175-6.643,0.295c-0.091-2.923-0.506-5.825-0.23-8.809c0.412-4.447,0.02-9.069-0.057-13.538    c-0.145-8.347-0.12-16.398-1.54-24.552c-0.285-1.637-1.1-5.416-2.975-5.859c-2.266-0.535-5.776,2.155-7.507,3.372    c-2.384,1.676-4.569,3.614-6.936,5.312c-5.98,4.289-11.081,8.866-16.085,14.342c-10.612,11.613-21.217,23.638-30.631,36.25    c-8.56,11.468-17.233,22.774-23.745,35.614c-2.905,5.725-6.291,11.154-9.186,16.864c-3.459,6.824-6.707,13.752-10.225,20.555    c-7.177,13.876-12.363,30.035-16.188,45.141c-4.065,16.05-7.928,32.193-10.413,48.589c-1.115,7.354-1.721,15-2.126,22.413    c-0.394,7.211-2.072,14.202-2.206,21.453c-0.132,7.196-0.733,14.631-1.361,21.802c-0.623,7.113-0.494,14.271-1.194,21.362    c-0.849,8.604-1.045,17.275-1.033,25.928c0.013,9.101,0.932,17.862,1.584,26.91c0.616,8.558,0.63,17.1,1.405,25.653    c0.4,4.409,1.081,9.005,2.147,13.304c0.617,2.489,1.062,5.497,2.183,7.922c-2.497,0.105-4.998,0.23-7.52,0.324    c-0.4-1.162-0.864-2.312-1.299-3.477c-1.452-3.888-2.386-7.883-3.662-11.823C149.153,457.975,146.196,448.701,144.999,439.859z     M415.674,503.952c-1.259-0.084-2.534-0.068-3.796-0.144c-2.209-0.133-4.406-0.326-6.62-0.331    c-3.579-0.008-7.885-0.271-11.358,0.762c-2.603-0.153-5.207-0.286-7.807-0.338c-4.414-0.09-8.705,0.296-13.1,0.498    c-4.747,0.22-9.494-0.49-14.259-0.488c-17.651,0.002-35.301,0.062-52.952,0.045c-32.538-0.031-65.141,2.049-97.631-0.032    c-8.148-0.522-16.354,0.811-24.511,0.222c-7.92-0.572-15.756-0.557-23.708-0.529c-16.403,0.058-32.783-0.28-49.197-0.333    c-4.239-0.013-8.463-0.457-12.701-0.456c-0.423,0-0.856,0-1.287,0.007c1.75-1.133,3.839-3.975,5.269-5.311    c2.711-2.534,5.185-4.166,8.763-5.315c12.912-4.143,27.527-4.379,41.098-4.173c8.199,0.125,16.341-1.056,24.582-0.924    c9.192,0.148,18.255,0.21,27.465-0.206c6.113-0.276,12.244-0.365,18.379-0.4c2.237,0.703,4.791,0.325,7.241,0.443    c7.743,0.372,15.395,0.434,23.085,1.237c8.761,0.915,18.034,0.169,26.848,0.232c8.325,0.059,16.711-0.104,25.002-0.803    c9.036-0.761,18.368-0.12,27.441-0.109c7.289,0.009,15.046,0.586,22.238-0.136c7.457-0.748,15.572,0.197,23.073,0.874    c7.673,0.692,14.954,2.525,22.355,4.374c3.773,0.943,6.456,1.226,9.534,3.665c1.87,1.482,6.221,4.964,6.693,7.679    C415.766,503.958,415.726,503.955,415.674,503.952z"/>
	</g>
</g>
<g>
</g>
<g>
</g>
<g>
</g>
<g>
</g>
<g>
</g>
<g>
</g>
<g>
</g>
<g>
</g>
<g>
</g>
<g>
</g>
<g>
</g>
<g>
</g>
<g>
</g>
<g>
</g>
<g>
</g>
</svg>
