<?xml version="1.0" encoding="iso-8859-1"?>
<!-- Generator: Adobe Illustrator 19.0.0, SVG Export Plug-In . SVG Version: 6.00 Build 0)  -->
<svg xmlns="http://www.w3.org/2000/svg" xmlns:xlink="http://www.w3.org/1999/xlink" version="1.1" id="Layer_1" x="0px" y="0px" viewBox="0 0 511.995 511.995" style="enable-background:new 0 0 511.995 511.995;" xml:space="preserve">
<g>
	<g>
		<path d="M188.872,282.688c-3.644-6.484-18.645-1.762-23.657,0.156c-10.805,4.136-19.589,9.57-26.931,18.413    c-0.955,1.151,0.271,3.156,1.71,2.218c2.956-1.929,5.495-4.271,8.506-6.186c4.094-2.604,8.58-4.235,12.95-6.299    c5.203-2.457,9.912-3.653,15.499-4.816c3.342-0.696,7.152-2.281,10.599-1.763C188.523,284.557,189.414,283.652,188.872,282.688z"/>
	</g>
</g>
<g>
	<g>
		<path d="M195.806,292.615c-14.769-4.253-30.639,3.43-42.479,11.494c-2.365,1.61-0.231,5.407,2.269,3.883    c6.434-3.92,12.328-6.362,19.648-8.267c6.876-1.789,13.963-1.82,20.562-4.526C196.965,294.722,197.183,293.012,195.806,292.615z"/>
	</g>
</g>
<g>
	<g>
		<path d="M243.042,81.227c-3.867-1.837-7.121-1.826-11.264-1.287c-2.453,0.318-5.034,0.634-7.505,0.692    c-2.142,0.05-3.753-0.323-5.559,1.049c-0.209,0.159-0.279,0.336-0.241,0.594c0.69,4.699,8.583,4.993,12.21,4.881    c4.074-0.126,10.872-0.143,12.736-4.49C243.628,82.181,243.604,81.494,243.042,81.227z"/>
	</g>
</g>
<g>
	<g>
		<path d="M209.196,268.366c-6.426-10.162-10.324-20.461-10.951-32.587c-0.291-5.628-0.626-11.297-0.71-16.932    c-0.093-6.129,1.206-12.207,1.14-18.301c-0.013-1.237-1.787-1.196-1.894,0c-0.617,6.857-2.564,13.413-2.597,20.389    c-0.033,6.684-0.233,13.538,0.462,20.192c1.073,10.289,4.302,22.297,13.216,28.574C208.67,270.27,209.7,269.162,209.196,268.366z"/>
	</g>
</g>
<g>
	<g>
		<path d="M200.857,274.079c-9.408-8.56-11.39-20.79-13.609-32.647c-2.393-12.786-0.223-25.096,0.802-37.85    c0.179-2.221-3.155-2.132-3.415,0c-0.914,7.464-2.788,14.485-3.115,22.049c-0.301,6.956,0.233,13.462,1.57,20.287    c2.318,11.832,4.215,24.266,16.307,30.054C200.557,276.528,201.934,275.06,200.857,274.079z"/>
	</g>
</g>
<g>
	<g>
		<path d="M180.524,176.277c-7.282,10.152-10.171,23.399-12.409,35.448c-1.207,6.498-1.921,12.995-0.996,19.579    c0.46,3.272,0.867,8.501,3.311,10.96c0.689,0.694,2.095-0.006,1.727-1.005c-1.389-3.771-0.993-9.929-1.085-13.964    c-0.147-6.456,0.855-12.783,2.067-19.104c1.961-10.229,4.084-21.607,9.912-30.436    C184.102,176.161,181.605,174.769,180.524,176.277z"/>
	</g>
</g>
<g>
	<g>
		<path d="M134.359,326.891c-4.345-1.072-8.471,3.948-10.55,7.062c-3.24,4.852-7.47,10.747-5.185,16.765    c0.667,1.762,3.413,1.092,2.878-0.792c-1.309-4.611,3.015-9.623,5.478-13.233c1.307-1.915,4.865-7.518,7.38-8.252    C135.102,328.224,135.147,327.086,134.359,326.891z"/>
	</g>
</g>
<g>
	<g>
		<path d="M169.717,369.861c-5.549-4.563-6.936-11.401-7.045-18.226c-0.102-6.369,1.868-11.058,3.767-16.938    c0.383-1.184-1.436-1.964-2.019-0.851c-2.054,3.916-4.623,6.955-5.57,11.421c-0.858,4.052-1.075,8.456-0.631,12.559    c0.607,5.577,4.144,13.768,10.828,13.652C169.802,371.464,170.38,370.407,169.717,369.861z"/>
	</g>
</g>
<g>
	<g>
		<path d="M240.858,68.107c-1.13-5.977-8.789-5.061-13.045-4.265c-3.974,0.745-10.272,2.851-11.669,7.084    c-0.157,0.476,0.36,1.025,0.847,0.847c3.378-1.233,6.456-2.356,10.064-2.792c1.648-0.2,4.061-0.88,5.671-0.765    c2.131,0.152,3.551,1.969,5.572,2.45C239.923,71.054,241.154,69.669,240.858,68.107z"/>
	</g>
</g>
<g>
	<g>
		<path d="M201.383,340.236c-0.445-0.582-1.31-0.103-0.992,0.579c1.897,4.054,3.131,8.716,3.401,13.182    c0.279,4.634-1.467,8.912-1.249,13.471c0.078,1.646,2.197,1.832,2.763,0.374C209.208,357.77,207.858,348.71,201.383,340.236z"/>
	</g>
</g>
<g>
	<g>
		<path d="M373.709,301.258c-7.342-8.843-16.126-14.279-26.931-18.413c-5.014-1.918-20.014-6.641-23.659-0.157    c-0.541,0.964,0.349,1.869,1.324,1.722c3.446-0.519,7.257,1.068,10.599,1.763c5.586,1.162,10.294,2.359,15.499,4.816    c4.371,2.063,8.857,3.696,12.95,6.299c3.011,1.915,5.55,4.258,8.506,6.186C373.438,304.414,374.663,302.408,373.709,301.258z"/>
	</g>
</g>
<g>
	<g>
		<path d="M358.663,304.109c-11.84-8.064-27.71-15.747-42.479-11.494c-1.376,0.397-1.159,2.108,0,2.583    c6.597,2.708,13.685,2.737,20.561,4.526c7.32,1.906,13.214,4.347,19.648,8.267C358.894,309.516,361.029,305.721,358.663,304.109z"/>
	</g>
</g>
<g>
	<g>
		<path d="M486.9,397.538c-0.669-12.987-18.218-13.222-27.871-13.378c-1.048-0.017-2.097-0.006-3.146-0.016    c0.916-5.609-0.249-11.338-5.05-14.827c-0.38-0.276-0.776-0.52-1.174-0.76c7.585-4.809,10.716-21.531,10.831-27.968    c0.242-13.559-9.285-29.678-24.542-28.277c-3.518,0.323-7.459,1.351-11.022,0.933c-4.428-0.519-4.69-4.946-7.894-7.269    c-5.398-3.914-12.621-1.368-18.728,0.009c-1.174-3.52-3.393-6.726-6.113-9.604c2.919-12.287-0.41-22.821-3.796-34.855    c-1.803-6.406-2.901-12.897-4.908-19.247c-2.023-6.402-0.887-12.898-1.429-19.467c-0.892-10.786-3.389-21.53-9.057-30.831    c-1.591-2.61-3.164-5.671-5.308-7.858c-1.506-1.537-3.483-2.279-5.09-3.682c-3.946-3.445-9.181-6.596-12.731-10.371    c-2.09-2.224-3.309-4.88-5.614-6.94c-1.877-1.679-4.018-3.108-6.013-4.641c-3.58-2.751-7.037-5.728-11.269-7.441    c-3.211-1.301-6.622-1.416-9.757-2.938c-2.437-1.184-4.694-2.559-7.22-3.584c-4.558-1.849-9.408-4.542-14.435-4.779    c-1.716-0.081-3.006,0.269-3.974,0.926c-0.713-0.451-1.373-0.972-2.095-1.707c-1.252-1.271-2.367-2.315-2.668-4.058    c-0.119-0.689-0.263-1.296-0.453-1.857c1.073-0.462,2.141-0.938,3.201-1.419c3.878-1.757,7.486-4.256,10.531-7.306    c0.629,6.433,4.049,13.955,10.957,13.625c3.216-0.153,7.35-1.621,8.943-4.64c1.85-3.506,0.266-6.727-0.312-10.202    c-0.241-1.451,0.471-6.395,1.357-7.567c0.91-1.203,2.907-1.876,3.957-3.239c2.383-3.095,4.717-7.256,4.294-11.248    c-0.37-3.491-3.423-11.569-7.675-15.19c2.818-2.529,4.368-6.897,4.737-10.452c0.95-9.168-1.984-19.401-6.306-27.47    c-3.512-6.558-7.231-14.021-13.235-18.607c-0.994-0.76-1.983-1.476-2.969-2.161c0.383-0.372,0.656-0.855,0.674-1.373    c0.257-7.598-10.333-15.629-16.459-18.437c-4.709-2.158-10.504-4.52-16.276-5.492c-5.59-2.442-12.92-1.868-18.609-1.662    c-4.754,0.173-10.125,0.549-14.978,2.049c-5.097,1.127-10.113,3.195-14.278,5.104c-6.127,2.808-16.716,10.839-16.459,18.437    c0.017,0.518,0.292,1,0.675,1.373c-0.986,0.686-1.973,1.401-2.969,2.161c-6.002,4.586-9.721,12.048-13.233,18.607    c-4.322,8.069-7.256,18.302-6.306,27.47c0.369,3.555,1.919,7.925,4.737,10.452c-4.252,3.621-7.305,11.7-7.675,15.19    c-0.423,3.992,1.912,8.154,4.294,11.248c1.049,1.364,3.047,2.037,3.957,3.239c0.885,1.172,1.599,6.116,1.358,7.567    c-0.578,3.475-2.164,6.696-0.312,10.202c1.593,3.019,5.728,4.487,8.943,4.64c6.908,0.329,10.328-7.191,10.957-13.625    c3.044,3.051,6.651,5.549,10.531,7.306c1.061,0.481,2.128,0.958,3.201,1.419c-0.19,0.561-0.334,1.167-0.453,1.857    c-0.301,1.744-1.417,2.787-2.668,4.058c-0.723,0.735-1.383,1.255-2.095,1.707c-0.967-0.656-2.259-1.005-3.974-0.926    c-5.028,0.235-9.877,2.929-14.435,4.779c-2.526,1.025-4.783,2.4-7.22,3.584c-3.135,1.523-6.546,1.639-9.757,2.938    c-4.232,1.713-7.689,4.692-11.269,7.441c-1.996,1.533-4.137,2.962-6.013,4.641c-2.305,2.06-3.523,4.716-5.614,6.94    c-3.549,3.777-8.785,6.927-12.731,10.371c-1.607,1.403-3.583,2.146-5.09,3.682c-2.143,2.187-3.717,5.248-5.307,7.858    c-5.669,9.301-8.166,20.045-9.057,30.831c-0.544,6.568,0.594,13.064-1.429,19.467c-2.007,6.35-3.106,12.84-4.907,19.247    c-3.386,12.034-6.716,22.57-3.796,34.855c-2.721,2.878-4.94,6.084-6.113,9.604c-6.107-1.376-13.331-3.922-18.729-0.009    c-3.204,2.323-3.464,6.75-7.894,7.269c-3.562,0.418-7.503-0.61-11.022-0.933c-15.256-1.401-24.785,14.719-24.541,28.277    c0.115,6.437,3.245,23.159,10.831,27.968c-0.398,0.24-0.795,0.484-1.174,0.76c-4.802,3.489-5.965,9.218-5.05,14.827    c-1.048,0.011-2.097,0-3.146,0.016c-9.654,0.156-27.203,0.391-27.871,13.378c-0.185,3.588,0.325,7.283,0.349,10.883    c0.012,1.909,0.009,4.03,1.059,5.717c2.688,4.316,10.028,4.825,14.235,6.233c1.182,0.396,2.357,0.697,3.532,0.961    c-0.358,0.711-0.681,1.405-0.845,1.935c-1.247,4.02-1.342,8.392-1.806,12.568c-1.121,10.09-0.896,20.211-1.254,30.336    c-0.306,8.702-0.501,15.81,7.651,20.958c7.587,4.791,17.065,7.915,25.867,9.548c19.582,3.637,39.167,4.701,58.904,6.843    c9.404,1.02,18.645,2.507,28.057,3.447c10.581,1.056,21.463,1.199,32.12,1.728c11.984,0.595,23.96,1.39,35.934,2.04    c1.838,0.1,3.708,0.119,5.586,0.103c5.813,0.465,11.646,0.712,17.372,0.939c8.679,0.347,18.393,0.43,27.411-0.933    c1.286-0.012,2.568-0.04,3.833-0.109c11.974-0.65,23.95-1.445,35.934-2.04c10.657-0.529,21.54-0.672,32.119-1.728    c9.412-0.941,18.654-2.427,28.057-3.447c19.737-2.142,39.323-3.207,58.904-6.843c8.801-1.635,18.28-4.758,25.867-9.548    c8.151-5.148,7.958-12.256,7.651-20.958c-0.356-10.125-0.133-20.247-1.254-30.336c-0.464-4.176-0.558-8.548-1.806-12.568    c-0.164-0.53-0.486-1.223-0.845-1.935c1.174-0.263,2.35-0.565,3.532-0.961c4.205-1.408,11.546-1.917,14.235-6.233    c1.051-1.686,1.046-3.807,1.059-5.717C486.575,404.821,487.085,401.125,486.9,397.538z M322.404,102.922    c-1.203,5.725-7.381,6.903-8.138,12.522c-0.316,2.34-0.806,5.109-0.446,7.498c0.483,3.196,4.393,9.356-2.214,9.575    c-6.542,0.218-4.902-8.983-7.467-13.073c1.362-2.005,2.506-4.153,3.359-6.423c3.327-8.848,4.389-18.603,2.307-27.855    c-0.075-0.336-0.122-0.674-0.181-1.01c1.472,1.947,3.294,3.391,5.635,3.708c0.529,0.071,1.031,0.077,1.521,0.053    C319.889,92.325,323.382,98.267,322.404,102.922z M317.694,60.759c1.272,4.989,1.729,10.222,0.702,14.689    c-2.105,9.159-6.788,2.715-9.667-3.522c-0.089-0.69-0.2-1.378-0.349-2.062c-0.22-1.012-0.501-1.945-0.808-2.85    c0.392-0.558,0.727-1.165,1.105-1.728c1.027-1.536,2.22-2.733,3.876-3.597c1.505-0.784,3.131-1.318,4.825-0.999    C317.49,60.71,317.594,60.734,317.694,60.759z M313.277,49.512c0.031,0.055,0.055,0.108,0.086,0.163    c1.125,2.048,2.168,4.387,3.046,6.865c-3.491-0.179-8.45,2.616-10.625,6.122c-0.667-2.96-1.455-6.017-2.497-8.932    c0.682-0.618,1.327-1.301,1.983-1.786C307.772,50.089,310.129,48.994,313.277,49.512z M307.906,38.401    c0.227,0.407,0.452,0.816,0.656,1.254c0.898,1.92,1.71,3.749,2.564,5.57c-2.611,0.033-5.36,1.448-7.291,2.981    c-0.547,0.435-1.336,1.091-2.06,1.855c-0.43-0.907-0.883-1.797-1.39-2.638c-0.622-1.034-1.37-2.079-2.212-3.12    c1.146-1.801,2.498-3.451,4.363-4.598C304.263,38.643,306.124,38.747,307.906,38.401z M299.267,29.705    c2.192,1.539,4.137,3.052,5.8,4.83c-1.724,0.31-3.451,1.054-4.534,1.744c-1.735,1.105-3.818,2.946-5.053,5.053    c0.072-0.122-4.137-3.415-4.421-3.905c-1.287-2.218,0.218-4.66,1.973-6.126c1.282-1.072,2.566-1.909,4.34-1.997    c0.416-0.021,0.805-0.04,1.176-0.078C298.789,29.384,299.03,29.538,299.267,29.705z M280.002,27.355    c0.703-0.905,1.482-1.984,2.436-2.632c1.069-0.727,2.23-0.561,3.401-0.969c0.191-0.066,0.36-0.162,0.507-0.278    c2.346,0.742,4.628,1.619,6.848,2.684c-0.988,0.427-1.893,0.988-2.501,1.646c-1.229,1.331-3.412,3.806-4.105,6.186    c-0.87-0.312-1.77-0.589-2.68-0.835c-1.847-0.857-3.729-1.526-5.603-1.964C278.775,29.884,279.122,28.488,280.002,27.355z     M277.461,24.674c-1.176,1.462-2.465,3.843-2.498,5.999c-0.168-0.012-0.337-0.031-0.503-0.039    c-2.305-0.791-4.59-1.678-6.924-2.359c-0.148-0.778-0.376-1.565-0.41-2.234c-0.109-2.182,0.202-4.182,0.636-6.242    c0.77,0.107,1.537,0.206,2.318,0.329c0.201,0.032,3.124,0.435,5.567,0.674c0.776,0.19,1.559,0.372,2.364,0.541    c0.757,0.158,1.501,0.327,2.246,0.498C279.209,22.64,278.281,23.654,277.461,24.674z M230.053,11.36    c4.144-1.532,8.553-2.984,12.91-3.793c2.863-0.531,4.912-0.494,7.092-1.38c0.692-0.073,1.383-0.152,2.077-0.191    c3.248-0.184,6.503-0.085,9.743,0.165c2.204,0.914,4.264,0.868,7.156,1.405c4.357,0.808,8.766,2.261,12.91,3.793    c6.822,2.52,11.814,7.015,16.308,12.312c-4.651-2.567-9.517-4.416-15.199-5.691c-2.485-0.557-5.039-1.168-7.61-1.61    c-6.063-2.18-13.514-2.894-19.235-2.436c-5.358,0.429-10.582,0.907-15.891,1.751c-0.856,0.136-1.701,0.31-2.548,0.483    c-2.978,0.44-5.944,1.168-8.82,1.814c-0.36,0.081-0.708,0.17-1.062,0.256c-0.392,0.066-0.779,0.152-1.173,0.208    c-0.272,0.039-0.498,0.135-0.687,0.269c-4.46,1.221-8.445,2.841-12.278,4.956C218.239,18.375,223.23,13.88,230.053,11.36z     M264.555,19.416c-0.812,1.538-1.196,3.324-1.418,5.091c-0.102,0.817-0.22,1.812-0.208,2.804c-2.921-0.342-5.903-0.22-8.837-0.157    c-0.037-1.483-0.174-3.033-0.263-4.47c-0.072-1.15-0.299-2.441-0.795-3.526c0.703-0.04,1.403-0.1,2.109-0.124    C258.356,18.928,261.449,19.093,264.555,19.416z M249.528,21.386c0.043,1.074-0.01,2.07-0.096,3.14    c-0.075,0.931-0.192,1.956-0.129,2.927c-2.806,0.298-5.604,0.808-8.345,1.539c-0.178-2.487-1.226-4.862-2.779-6.827    c-0.338-0.427-0.731-0.835-1.161-1.204c4.166-0.585,8.335-1.174,12.538-1.557C249.579,20.132,249.51,20.911,249.528,21.386z     M236.722,30.298c-0.549,0.192-1.097,0.385-1.639,0.591c-2.848,0.485-5.745,1.56-8.52,3.015c-0.107-0.872-0.3-1.735-0.498-2.529    c-0.464-1.858-1.479-3.341-2.913-4.58c-0.768-0.664-1.608-1.147-2.482-1.473c3.665-1.564,7.502-2.662,11.51-3.567    c1.482,1.029,2.841,2.092,3.648,3.872c0.436,0.963,0.84,2.246,0.89,3.306C236.745,29.448,236.716,29.88,236.722,30.298z     M212.723,29.705c0.909-0.638,1.832-1.22,2.764-1.77c1.703,0.049,3.424,0.026,4.804,1.199c0.936,0.796,1.596,1.793,1.793,3.019    c0.171,1.069,0.435,2.72,0.037,3.729c-0.062,0.159-0.104,0.314-0.129,0.463c-0.424,0.219-0.845,0.441-1.247,0.681    c-1.841,1.103-2.878,2.413-3.984,3.804c-1.118-2.017-3.086-3.851-4.536-4.669c-1.762-0.996-4.019-1.183-6.121-0.71    C207.93,33.256,210.164,31.504,212.723,29.705z M203.33,39.87c2.294-0.898,5.059-1.711,6.973-0.42    c0.858,0.579,1.946,1.637,2.393,2.487c0.445,0.844,0.566,1.883,0.746,2.853c-0.687,0.879-1.312,1.761-1.836,2.632    c-0.895,1.488-1.652,3.099-2.319,4.771c-1.223-2.097-3.129-3.756-5.545-4.347c-1.499-0.367-2.973-0.146-4.358,0.382    C200.816,45.454,201.984,42.758,203.33,39.87z M197.011,52.992c1.413-1.085,2.938-1.973,4.922-1.921    c4.226,0.111,4.211,4.361,5.309,7.381c-0.393,1.463-0.747,2.931-1.07,4.371c-0.441,0.893-0.843,1.798-1.214,2.726    c-0.911-1.828-2.175-3.723-3.765-4.575c-2.209-1.184-4.749-1.199-6.864-0.35C195.02,57.95,195.956,55.367,197.011,52.992z     M193.503,64.587c2.526-1.43,5.625-1.39,7.518,1.407c1.345,1.985,1.555,4.192,2.045,6.351c-2.893,6.099-7.413,12.058-9.47,3.103    C192.829,72.114,192.895,68.354,193.503,64.587z M200.385,132.517c-6.608-0.219-2.697-6.379-2.214-9.575    c0.36-2.389-0.13-5.157-0.446-7.498c-0.757-5.619-6.935-6.797-8.138-12.522c-0.978-4.655,2.514-10.597,5.623-15.005    c0.49,0.024,0.992,0.018,1.521-0.053c2.34-0.317,4.162-1.761,5.634-3.708c-0.059,0.337-0.107,0.676-0.181,1.01    c-2.082,9.252-1.02,19.007,2.307,27.855c0.854,2.27,1.997,4.418,3.359,6.423C205.287,123.536,206.927,132.735,200.385,132.517z     M209.74,105.11c-2.3-7.486-2.066-14.634-1.868-22.348c0.098-3.812-0.127-7.471,0.198-11.224    c2.57-7.098,3.839-15.185,7.877-21.578c2.946-4.665,7.174-8.22,11.916-10.989c1.441-0.419,2.889-0.843,4.331-1.352    c8.105-2.866,15.76-4.676,24.42-4.579c8.094,0.091,15.381,3.117,22.959,5.658c2.124,0.711,5.243,2.204,8.023,2.52    c3.316,2.386,6.242,5.252,8.446,8.743c4.039,6.393,5.306,14.48,7.877,21.578c0.326,3.752,0.1,7.411,0.198,11.224    c0.197,7.714,0.431,14.861-1.868,22.348c-2.787,9.077-7.732,15.865-16.59,19.716c-4.049,1.761-7.936,3.651-12.334,4.335    c-1.216,0.19-2.387,0.37-3.534,0.572c-1.259-0.081-2.54,0.056-3.99,0.202c-3.703,0.371-7.441,0.302-11.123,0.742    c-2.428,0.29-4.628,0.503-6.882,0.437c-2.957-1.02-5.895-1.449-9.132-1.953c-4.399-0.685-8.286-2.574-12.334-4.335    C217.472,120.975,212.527,114.187,209.74,105.11z M216.715,179.671c1.761-6.369,3.366-12.639,4.286-19.18    c0.446-3.173,2.056-8.91,1.942-13.55c1.461-0.4,2.855-1.089,3.826-1.864c3.123-2.491,5.281-5.62,6.178-9.306    c1.497,0.441,3.003,0.796,4.518,1.035c4.82,2.006,10.79,2.067,15.708,1.957c5.517-0.124,12.969,0.572,18.493-1.667    c2.482-0.129,4.943-0.607,7.376-1.325c0.898,3.686,3.055,6.815,6.178,9.306c0.972,0.775,2.365,1.463,3.826,1.864    c-0.114,4.64,1.496,10.377,1.942,13.55c0.92,6.542,2.525,12.811,4.286,19.18c1.663,6.014,1.684,12.159,2.064,18.34    c0.356,5.802,1.183,11.608,1.264,17.422c0.044,3.142,0.328,6.402,0.386,9.612c-7.391,0.591-15.199-0.186-21.727-3.824    c-3.384-1.886-6.64-4.121-9.555-6.678c-1.23-1.078-1.549-1.839-3.139-2.008c-0.636-0.067-0.843,0.893-0.318,1.177    c0.727,0.394,1.663,3.108,2.172,3.98c0.981,1.675,2.174,3.092,3.544,4.467c2.704,2.714,6.129,5.284,9.764,6.565    c4.38,1.544,13.549,3.472,19.081,1.316c-0.032,0.314-0.053,0.629-0.094,0.939c-0.858,6.413-1.901,13.825-4.979,19.621    c-1.752,3.299-4.799,5.712-7.732,8.18c-3.681,1.566-6.689,6.238-9.866,7.927c-6.74,3.584-14.357,5.048-21.964,4.934    c-6.653-0.098-13.933-2.036-19.663-5.574c-1.444-0.892-2.776-1.968-4.096-3.063c-0.04-0.051-0.069-0.105-0.114-0.157    c-3.701-4.253-9.381-7.219-12.05-12.248c-3.079-5.796-4.121-13.208-4.979-19.621c-0.042-0.31-0.063-0.626-0.094-0.939    c5.533,2.154,14.7,0.228,19.081-1.316c3.635-1.281,7.06-3.851,9.764-6.565c1.37-1.375,2.563-2.791,3.544-4.467    c0.509-0.871,1.444-3.586,2.172-3.98c0.524-0.284,0.317-1.244-0.318-1.177c-1.59,0.17-1.909,0.931-3.139,2.008    c-2.915,2.556-6.171,4.792-9.555,6.678c-6.529,3.637-14.337,4.415-21.727,3.825c0.058-3.208,0.342-6.469,0.386-9.612    c0.081-5.812,0.907-11.618,1.264-17.422C215.032,191.831,215.052,185.685,216.715,179.671z M122.443,304.561    c4.437-5.345,9.746-9.79,15.842-13.446c10.359-6.214,22.374-9.53,33.986-12.638c1.215-0.326,1.292-2.256,0-2.537    c-12.736-2.776-26.655,2.684-37.52,9.13c-3.458,2.051-7.416,4.608-11.014,7.629c0.032-3.741,0.056-7.459,0.643-11.24    c0.876-5.638,2.806-10.941,4.554-16.34c1.653-5.107,2.519-10.376,3.994-15.525c1.353-4.723,3.092-8.746,3.629-13.688    c0.585-5.379,0.119-10.725,0.98-16.116c0.854-5.344,2.019-10.727,3.973-15.787c2.07-5.364,5.396-12.118,10.065-15.581    c3.843-2.85,7.307-6.137,11.15-9.082c3.905-2.993,5.403-6.056,8.068-9.986c3.033-4.474,9.432-8.981,14.076-11.635    c4.389-2.508,9.787-1.859,14.542-3.776c5.037-2.03,11.007-3.506,15.785-5.969c-0.002,0.153-0.006,0.307-0.009,0.46    c-0.845,3.096-0.975,6.852-1.463,10.047c-0.887,5.79-2.251,11.342-3.738,17.006c-2.694,10.261-3.494,20.944-4.316,31.48    c-0.895,11.476-2.564,22.8,0.354,34.192c1.341,5.235,2.9,11.144,6.111,15.602c3.174,4.405,7.847,6.199,11.952,9.125    c1.124,0.905,2.24,1.821,3.324,2.784c6.413,5.687,14.487,8.18,22.768,9.411c7.458,1.107,16.55-0.012,23.608-2.749    c3.327-1.291,7.021-2.975,9.699-5.382c0.814-0.731,1.541-1.545,2.236-2.389c0.132-0.088,0.266-0.171,0.396-0.283    c4.469-3.843,10.093-5.456,13.739-10.516c3.211-4.456,4.77-10.366,6.112-15.602c2.918-11.391,1.249-22.716,0.354-34.192    c-0.822-10.537-1.621-21.219-4.316-31.48c-1.487-5.663-2.851-11.216-3.738-17.006c-0.49-3.195-0.618-6.951-1.463-10.047    c-0.002-0.153-0.006-0.307-0.009-0.46c4.778,2.461,10.748,3.937,15.785,5.969c4.755,1.917,10.155,1.268,14.542,3.776    c4.644,2.654,11.041,7.162,14.076,11.635c2.665,3.93,4.163,6.993,8.068,9.986c3.843,2.945,7.307,6.232,11.15,9.082    c4.669,3.463,7.994,10.217,10.065,15.581c1.952,5.06,3.119,10.442,3.973,15.787c0.861,5.391,0.394,10.739,0.98,16.116    c0.538,4.94,2.275,8.964,3.63,13.688c1.476,5.147,2.34,10.418,3.993,15.525c1.749,5.401,3.679,10.702,4.554,16.34    c0.587,3.78,0.611,7.497,0.643,11.24c-3.598-3.021-7.556-5.578-11.014-7.629c-10.865-6.444-24.784-11.905-37.52-9.13    c-1.292,0.282-1.215,2.212,0,2.537c11.612,3.108,23.627,6.424,33.986,12.638c6.096,3.657,11.406,8.101,15.842,13.446    c0.729,0.878,1.417,1.799,2.12,2.705c-2.099,0.484-4.126,1.14-6.108,2.247c-3.98,2.224-7.22,5.467-11.482,7.283    c-5.254,2.24-11.444,1.579-17.392,1.4c-1.738-0.93-3.444-1.898-4.41-2.121c-3.588-0.823-9.166-0.602-12.872-0.12    c-3.877,0.505-7.38,3.139-10.769,4.916c-4.581,2.401-8.447,4.427-13.759,4.982c-10.175,1.062-20.407-0.693-30.558,1.069    c-3.991,0.693-7.239,2.551-10.074,5.408c-2.052-0.767-4.17-0.737-6.737-0.148c-2.771,0.637-5.437,1.932-8.367,1.639    c-2.719-0.272-4.801-1.979-7.238-2.929c-3.474-1.354-7.381-1.685-11.063-1.139c-1.834,0.272-3.162,0.746-4.34,1.414    c-2.537-2.198-5.409-3.652-8.827-4.246c-10.152-1.762-20.383-0.007-30.558-1.069c-5.312-0.555-9.179-2.579-13.759-4.982    c-3.39-1.777-6.892-4.411-10.769-4.916c-3.706-0.483-9.284-0.703-12.872,0.12c-0.966,0.222-2.672,1.19-4.41,2.121    c-5.948,0.179-12.138,0.84-17.392-1.4c-4.262-1.816-7.502-5.059-11.482-7.283c-1.981-1.107-4.008-1.763-6.108-2.247    C121.024,306.36,121.713,305.439,122.443,304.561z M62.228,329.825c3.392-7.481,8.356-10.539,16.512-9.705    c0.747,0.076,1.543,0.168,2.365,0.254c-0.463,0.502-0.922,1.053-1.379,1.679c-3.316,4.535-5.879,10.098-7.098,15.598    c-1.068,4.823-0.922,17.19,5.932,18.102c1.097,0.146,1.302-1.266,0.795-1.919c-1.809-2.334-1.302-4.95-1.549-7.616    c-0.465-5.006-0.185-8.578,1.664-13.29c1.265-3.223,2.888-6.417,4.887-9.251c0.876-1.241,1.892-2.185,2.978-3.011    c2.177-0.108,4.269-0.53,5.99-1.577c1.93-1.176,2.67-3.046,3.993-4.722c3.087-3.91,5.948-3.314,10.381-2.313    c2.757,0.622,5.601,0.953,8.375,1.528c-1.961,0.075-3.953,0.4-6.025,1.116c-6.181,2.135-11.81,6.584-15.844,11.676    c-5.636,7.113-8.545,23.49,0.56,29.104c0.866,0.534,1.789-0.506,1.342-1.342c-1.875-3.5-1.512-9.337-1.062-13.161    c0.686-5.807,2.496-10.055,6.727-14.157c6.892-6.682,14.716-8.574,23.676-8.698c0.448,0.344,0.899,0.691,1.358,1.042    c4.723,3.61,9.712,6.64,15.743,7.164c0.747,0.065,1.482,0.089,2.209,0.097c-1.517,1.161-2.906,2.475-4.106,3.952    c-3.404,4.189-5.034,9.629-6.268,14.796c-1.543,6.465-0.834,10.413,2.308,16.161c0.637,1.163,2.215,0.522,2.318-0.628    c0.437-4.881-0.372-9.136,0.921-14.005c1.063-4.006,2.002-8.283,4.378-11.766c5.114-7.498,16.307-11.482,25.033-10.533    c1.653,0.181,3.327,0.187,4.988,0.336c1.132,0.703,2.09,1.568,3.331,2.21c0.19,0.098,0.38,0.2,0.569,0.3    c2.931,2.524,5.429,5.646,7.457,8.56c1.668,2.398,3.708,4.731,5.152,7.255c2.672,4.671,3.095,9.975,3.493,15.225    c0.091,1.192,1.65,1.406,2.059,0.278c3.701-10.228-2.63-18.7-8.539-26.497c-0.036-0.048-0.075-0.093-0.11-0.141    c0.306,0.118,0.611,0.239,0.921,0.348c9.784,3.427,20.024,1.915,30.128,2.451c6.112,0.323,10.93,0.987,14.682,6.221    c4.797,6.689,4.929,13.897,3.978,21.802c-0.23,1.912,2.351,2.076,3.235,0.877c4.472-6.061,4.227-17.188,1.394-23.9    c-1.045-2.474-3.136-3.924,0.926-4.143c5.099-0.274,7.91,2.476,12.404,3.888c3.164,0.994,6.334,0.84,9.54,0.132    c0.899-0.198,4.481-1.265,5.199-0.611c0.911,0.83-0.331,4.116-0.573,5.123c-1.869,7.764-6.7,20.167,3.798,24.136    c1.242,0.47,2.083-0.878,1.924-1.924c-0.811-5.323-3.43-8.967-2.199-14.697c0.482-2.247,1.16-4.389,1.943-6.484    c1.429-1.04,2.36-2.626,3.487-4.198c3.752-5.233,8.571-5.897,14.682-6.221c10.104-0.535,20.345,0.977,30.127-2.45    c0.309-0.108,0.615-0.229,0.921-0.348c-0.037,0.048-0.075,0.093-0.11,0.141c-5.909,7.797-12.24,16.27-8.539,26.497    c0.408,1.128,1.968,0.912,2.059-0.278c0.398-5.25,0.82-10.554,3.493-15.225c1.444-2.524,3.485-4.857,5.152-7.255    c2.028-2.916,4.526-6.037,7.457-8.56c0.19-0.1,0.38-0.202,0.569-0.3c1.239-0.643,2.199-1.508,3.331-2.21    c1.661-0.148,3.335-0.154,4.988-0.336c8.727-0.949,19.92,3.035,25.033,10.533c2.376,3.483,3.315,7.759,4.378,11.766    c1.292,4.869,0.482,9.122,0.921,14.005c0.103,1.15,1.681,1.792,2.318,0.628c3.142-5.748,3.851-9.695,2.308-16.161    c-1.233-5.167-2.862-10.605-6.268-14.796c-1.2-1.477-2.59-2.791-4.106-3.952c0.729-0.007,1.462-0.032,2.209-0.097    c6.03-0.524,11.019-3.554,15.743-7.164c0.459-0.351,0.91-0.698,1.358-1.042c8.959,0.125,16.784,2.017,23.676,8.699    c4.231,4.101,6.041,8.351,6.727,14.157c0.451,3.824,0.813,9.662-1.062,13.161c-0.448,0.835,0.476,1.875,1.342,1.342    c9.105-5.615,6.195-21.992,0.56-29.104c-4.034-5.092-9.664-9.541-15.844-11.676c-2.072-0.715-4.065-1.041-6.025-1.116    c2.774-0.576,5.619-0.906,8.375-1.528c4.433-1,7.294-1.597,10.381,2.313c1.324,1.676,2.064,3.547,3.994,4.722    c1.719,1.047,3.811,1.47,5.99,1.577c1.086,0.827,2.103,1.771,2.978,3.011c2,2.834,3.622,6.028,4.888,9.251    c1.849,4.711,2.128,8.282,1.664,13.29c-0.247,2.667,0.258,5.282-1.55,7.616c-0.506,0.654-0.302,2.065,0.795,1.919    c6.854-0.912,7-13.28,5.932-18.102c-1.219-5.5-3.782-11.063-7.098-15.598c-0.457-0.625-0.916-1.177-1.379-1.679    c0.822-0.087,1.618-0.178,2.365-0.254c8.156-0.835,13.118,2.223,16.512,9.705c4.895,10.795,1.995,28.998-9.081,35.07    c-0.323,0.178-0.568,0.442-0.745,0.745c-5.704-0.579-11.825,0.084-17.03,0.153c-8.188,0.108-15.888,2.77-23.935,3.378    c-0.408,0.031-0.825,0.061-1.236,0.092c3.119-3.272,5.256-7.602,6.337-11.919c1.119-4.47,1.1-8.368-0.447-12.681    c-0.535-1.493-0.988-3.412-1.973-4.696c-1.214-1.583-3.179-2.251-4.22-4.08c-0.347-0.609-1.313-0.338-1.31,0.355    c0.006,2.315,1.77,3.375,2.51,5.483c0.97,2.758,1.646,7.035,1.539,9.823c-0.301,7.784-4.183,13.486-9.541,18.263    c-5.216,0.415-10.461,0.904-15.539,1.7c-6.486,1.015-13.09,1.843-19.727,2.546c6.573-2.601,10.973-7.523,12.296-15.264    c1.545-9.029-2.77-17.359-7.831-24.339c-0.841-1.16-2.578-0.179-1.934,1.13c2.976,6.037,5.474,12.154,5.511,19.066    c0.045,8.294-5.909,14.465-12.414,18.664c-0.471,0.304-0.565,0.813-0.416,1.232c-8.291,0.801-16.602,1.416-24.768,1.942    c-7.579,0.489-15.125,0.938-22.686,1.288c-1.38-1.38-2.526-3.013-3.613-4.644c-2.362-3.55-4.919-7.419-6.324-11.466    c-0.347-0.998-1.83-1.101-2.131,0c-1.587,5.786,3.22,11.313,6.564,15.522c0.011,0.013,0.027,0.029,0.038,0.043    c-4.295-0.114-8.587,0.404-13.16,0.594c-8.675,0.36-17.52,0.214-26.191-0.096c-6.602-0.236-13.137-0.796-19.748-0.665    c-3.69,0.072-7.366,0.116-11.046,0.381c-1.895,0.136-4.431,0.803-6.855,1.195c-0.245-0.028-0.485-0.051-0.737-0.088    c-1.512-0.222-2.904-0.435-4.447-0.494c-0.6-0.022-1.199-0.053-1.798-0.077c0.257-0.272,0.494-0.54,0.697-0.794    c3.343-4.208,8.151-9.735,6.564-15.522c-0.301-1.101-1.784-0.998-2.131,0c-1.406,4.049-3.963,7.916-6.324,11.466    c-1.086,1.632-2.232,3.264-3.613,4.644c-7.561-0.35-15.107-0.8-22.686-1.288c-8.166-0.527-16.477-1.141-24.768-1.942    c0.148-0.419,0.054-0.928-0.416-1.232c-6.504-4.199-12.458-10.37-12.414-18.664c0.038-6.912,2.535-13.03,5.511-19.066    c0.645-1.308-1.092-2.29-1.934-1.13c-5.061,6.98-9.378,15.31-7.833,24.339c1.325,7.74,5.724,12.663,12.296,15.264    c-6.637-0.703-13.243-1.53-19.727-2.546c-5.078-0.795-10.324-1.285-15.539-1.7c-5.359-4.777-9.241-10.479-9.541-18.263    c-0.108-2.786,0.569-7.064,1.539-9.823c0.742-2.109,2.504-3.169,2.51-5.483c0.001-0.693-0.964-0.964-1.31-0.355    c-1.041,1.83-3.005,2.497-4.22,4.08c-0.986,1.285-1.438,3.204-1.973,4.696c-1.547,4.313-1.566,8.211-0.447,12.681    c1.081,4.317,3.218,8.647,6.337,11.919c-0.41-0.031-0.827-0.061-1.236-0.092c-8.047-0.607-15.747-3.27-23.935-3.378    c-5.205-0.069-11.325-0.731-17.03-0.153c-0.178-0.304-0.421-0.568-0.745-0.745C60.233,358.823,57.333,340.62,62.228,329.825z     M448.985,384.108c-27.773,0.067-55.504,2.15-83.126,4.524c-14.263,1.226-28.416,3.081-42.768,3.613    c-15.463,0.572-31.347-0.005-46.641,2.733c-8.378,0.132-16.817-0.427-25.195-0.397c-7.491,0.027-15.068-0.322-22.615-0.625    c-13.138-1.569-26.591-1.225-39.742-1.711c-14.351-0.53-28.503-2.387-42.768-3.613c-27.623-2.373-55.353-4.456-83.126-4.524    c0.424-3.074,0.558-6.389,2.978-8.266c3.487-2.706,10.529-2.001,14.754-2.022c8.59-0.043,17.077,0.374,25.537,1.694    c13.754,2.146,27.71,1.779,41.527,3.246c8.269,0.878,16.753,1.396,25.056,1.842c7.255,0.389,14.519,1.315,21.803,1.455    c7.993,0.153,16.123,0.094,24.088,0.879c1.397,0.282,2.888,0.375,4.407,0.372c3.102,0.136,6.273-0.082,9.431-0.509    c0.411-0.01,0.814-0.012,1.205-0.004c7.077,0.153,14.099,0.509,21.151,0.923c14.756,0.866,30.438,1.618,45.097-1.272    c5.758-0.278,11.557-0.279,17.286-0.389c7.284-0.14,14.549-1.067,21.803-1.455c8.303-0.446,16.787-0.964,25.056-1.842    c13.819-1.467,27.773-1.1,41.527-3.246c8.46-1.32,16.948-1.735,25.537-1.694c4.226,0.021,11.268-0.685,14.754,2.022    C448.427,377.719,448.562,381.034,448.985,384.108z M82.512,472.245c-0.219,3.058-0.967,6.029-1.009,9.099    c-0.032,2.324-0.393,5.146-0.231,7.716c-5.447-1.116-10.837-2.406-16.275-3.859c-4.076-1.089-7.648-2.462-11.367-4.507    c-5.102-2.804-5.53-6.356-5.328-11.831c0.108-2.916,0.162-5.833,0.201-8.749c1.581,0.841,3.16,1.692,4.892,2.28    c3.44,1.165,6.674,1.423,10.231,1.963c6.39,0.971,12.801,1.647,19.23,2.115C82.657,468.385,82.652,470.286,82.512,472.245z     M49.815,422.285c3.005,0.389,6.029,0.669,9.131,1.236c7.419,1.356,14.841,2.143,22.269,3.207    c-0.271,2.329-0.175,4.767-0.223,7.024c-0.051,2.395-0.653,5.06-0.531,7.522c-4.949-0.68-9.856-1.757-14.741-2.932    c-0.12-0.125-0.274-0.222-0.484-0.258c-0.152-0.027-0.305-0.053-0.457-0.08c-0.164-0.028-0.329-0.026-0.491-0.006    c-5.057-1.234-10.09-2.546-15.118-3.613C49.572,430.426,50.174,426.18,49.815,422.285z M84.441,434.442    c-0.043-2.311,0.076-4.837-0.167-7.255c0.301,0.047,0.601,0.089,0.903,0.138c6.07,0.974,12.121,0.927,18.208,1.794    c4.63,0.66,9.281,1.326,13.945,1.789c-0.5,2.747-0.449,5.631-0.91,8.374c-0.359,2.141-0.086,4.35,0.193,6.51    c-9.634-1.672-19.25-3.385-29.032-3.847c-1.181-0.055-2.357-0.151-3.532-0.262C84.619,439.354,84.485,436.848,84.441,434.442z     M155.031,449.307c-7.844,0.051-15.669-0.114-23.377-1.127c-3.576-0.47-7.135-1.038-10.689-1.64    c0.002-0.029,0.01-0.055,0.011-0.085c0.102-2.648-0.578-4.993-0.224-7.666c0.329-2.481,0.252-5.112-0.269-7.601    c2.082,0.159,4.165,0.272,6.249,0.309c3.949,0.071,7.844,0.663,11.786,0.839c4.679,0.209,9.37-0.29,14.044-0.002    c0.99,0.061,1.978,0.1,2.966,0.152c-0.269,2.863-0.224,5.77-0.279,8.631C155.201,443.661,154.642,446.678,155.031,449.307z     M130.257,452.061c3.13,0.5,6.292,0.855,9.468,1.141c-0.67,2.601-0.978,5.031-0.944,7.949c0.026,2.22-0.494,3.97-0.795,6.105    c-0.094,0.666-0.062,1.211,0.033,1.722c-0.888-0.143-1.777-0.29-2.664-0.431c-7.315-1.155-14.709-1.708-22.005-3.026    c-2.733-0.494-5.415-0.85-8.147-1.095c-0.898-5.457,1.078-11.123-0.434-16.363C113.254,449.285,121.709,450.698,130.257,452.061z     M101.607,447.616c-0.036,0.937,0.069,1.855,0,2.862c-0.105,1.538-0.664,2.988-0.791,4.537c-0.235,2.852-0.456,6.019-0.233,8.972    c-3.463-0.478-6.84-1.336-10.342-1.652c-7.867-0.711-15.739-1.019-23.602-1.876c-0.016-3.784,0.021-7.573-0.051-11.356    c-0.011-0.581-0.509-4.481-0.83-6.976c5.533,1.619,11.376,2.932,17.017,3.385C89.111,446.02,95.371,446.758,101.607,447.616z     M62.355,441.088c0.016,0.005,0.032,0.01,0.047,0.015c-0.495,2.12-0.331,4.308-0.306,6.625c0.044,4.078-0.023,8.16-0.047,12.238    c-2.283-0.252-4.562-0.544-6.794-1.02c-0.337-0.072-4.005-0.882-6.726-1.525c0.065-6.446,0.082-12.893,0.353-19.341    c0.012-0.296,0.038-0.606,0.058-0.909C53.256,439.14,57.487,439.528,62.355,441.088z M119.977,493.555    c-9.291-0.666-18.594-1.193-27.779-2.54c-1.974-0.289-3.921-0.625-5.863-0.972c-0.712-2.962-0.394-7.896-0.236-10.576    c0.258-4.399,0.794-8.443,0.238-12.745c8.456,0.549,17.365,2.119,25.742,3.413c3.12,0.482,6.268,0.738,9.421,0.939    C119.153,477.884,119.856,486.331,119.977,493.555z M157.609,491.471c-0.154,1.608-0.604,3.969-0.463,6.067    c-4.356-0.207-8.699-0.517-12.926-1.275c-6.351-1.139-12.761-1.808-19.186-2.326c0.063-7.24,0.643-15.56-0.66-22.689    c4.017,0.231,8.038,0.453,12.026,1.01c0.992,0.138,1.984,0.289,2.976,0.445c0.544,0.478,1.304,0.555,2.001,0.325    c5.982,0.996,11.966,2.217,17.966,3.283C157.796,481.071,158.071,486.67,157.609,491.471z M143.161,469.816    c-0.023-1.245-0.231-2.463-0.089-3.766c0.224-2.048,0.027-4.056-0.119-6.106c-0.154-2.161,0.294-4.347,0.167-6.46    c11.475,0.8,23.128,0.492,34.523,0.133c0.471-0.015,0.944-0.022,1.417-0.032c-2.088,6.227-1.465,14.011-1.402,20.514    C166.131,473.594,154.584,471.698,143.161,469.816z M198.969,444.149c0.075-1.43,0.512-2.802,0.578-4.234    c0.086-1.839,0.002-3.778-0.242-5.674c4.242,0.058,8.482,0.011,12.713-0.163c4.681,0.323,9.717-0.38,13.904-0.555    c2.916-0.122,5.839-0.163,8.763-0.157c-0.344,2.479-0.091,5.266-0.131,7.518c-0.058,3.153,0.081,6.222,0.625,9.291    c-3.621,0.001-7.24-0.022-10.849-0.131c-4.921-0.148-9.894,0.049-14.817,0.129c-1.525,0.024-3.075,0.173-4.634,0.35    c-1.685-0.077-3.368-0.198-5.042-0.432c-0.529-0.073-1.054-0.119-1.579-0.151c0.383-0.38,0.659-0.922,0.723-1.647    C199.105,446.905,198.896,445.536,198.969,444.149z M312.443,439.914c0.067,1.433,0.503,2.803,0.578,4.234    c0.073,1.388-0.136,2.757-0.015,4.144c0.064,0.725,0.339,1.268,0.723,1.647c-0.523,0.032-1.048,0.077-1.579,0.151    c-1.156,0.16-2.316,0.263-3.478,0.342c-8.436-1.49-18.257-0.165-26.536-0.168c-1.19,0-2.381-0.012-3.571-0.02    c0.003-0.153-0.006-0.311-0.043-0.478c-0.612-2.743-0.069-6.112-0.186-8.905c-0.093-2.204-0.061-4.379-0.153-6.562    c3.124,0.009,6.248,0.024,9.375,0.078c7.24,0.126,14.767,0.606,22.076-0.124c1.016-0.002,2.033-0.001,3.051-0.016    C312.441,436.137,312.357,438.075,312.443,439.914z M352.419,448.523c-0.016,0.022-0.036,0.038-0.051,0.06    c-0.073,0.105-0.148,0.209-0.222,0.315c-0.077,0.11-0.137,0.23-0.184,0.354c-6.697-0.098-13.393-0.256-20.025-0.086    c-3.101,0.08-6.031,0.655-9.099,0.827c-1.979,0.11-3.913-0.02-5.854-0.078c0.399-0.382,0.698-0.918,0.789-1.62    c0.376-2.909-0.054-5.419-0.524-8.254c-0.326-1.964-0.315-3.925-0.479-5.879c4.666-0.125,9.333-0.344,13.994-0.599    c7.326-0.4,14.618-0.566,21.918-0.883c-0.193,2.27-0.192,4.562-0.236,6.841C352.392,442.29,352.877,445.686,352.419,448.523z     M329.789,453.544c-0.623,2.475-0.348,4.906-0.185,7.595c0.263,4.331,0.01,8.765-0.066,13.126    c-6.968,0.167-13.964,0.524-20.948,0.91c-4.603,0.255-9.194,0.162-13.777,0.207c2.241-2.504,0.943-8.635,1.003-11.572    c0.066-3.22-0.096-6.41-0.393-9.597c0.421-0.016,0.841-0.021,1.263-0.038c3.85-0.163,7.779,0.119,11.605-0.338    C315.468,453.834,322.661,453.509,329.789,453.544z M282.139,454.461c3.516-0.001,7.011-0.065,10.511-0.165    c-0.634,3.102-0.702,6.352-0.898,9.514c-0.167,2.693-0.239,5.458-0.333,8.15c-0.053,1.49-0.086,2.47,0.909,3.48    c-0.891,0.022-1.783,0.032-2.675,0.075c-4.355-0.151-8.969,0.426-13.061,0.322c-5.718-0.146-11.45-0.097-17.18-0.047    c0.505-3.635-0.311-7.872-0.267-11.382c0.036-2.848,0.974-6.874,0.465-10.089C267.121,454.393,274.632,454.465,282.139,454.461z     M274.895,442.791c-0.032,1.983-0.713,5.26-0.045,7.435c-7.975-0.07-15.947-0.208-23.927-0.156    c-4.018,0.027-8.041,0.075-12.063,0.099c0.337-3.036-0.125-6.288-0.157-9.286c-0.024-2.275,0.22-5.047-0.26-7.485    c5.969,0.094,11.94,0.36,17.88,0.606c6.395,0.266,12.789,0.278,19.185,0.29C275.277,437.119,274.94,439.916,274.895,442.791z     M249.747,454.236c2.31,0.016,4.62,0.04,6.931,0.06c-0.429,3.717-0.829,7.432-0.966,11.176c-0.114,3.122-0.756,7.044-0.246,10.347    c-1.619,0.011-3.238,0.024-4.856,0.024c-7.838,0.002-15.648,0.004-23.463-0.266c-1.44-0.049-2.886-0.097-4.334-0.137    c0.375-4.344-0.091-9.087-0.229-13.418c-0.091-2.841-0.451-5.486-1.051-8.178c0.175,0.001,0.355-0.002,0.529-0.001    C231.286,453.941,240.499,454.175,249.747,454.236z M200.766,453.821c6.048,0.562,12.423,0.119,18.428,0.032    c-0.404,2.688-0.202,5.437-0.203,8.169c-0.004,4.475-0.104,8.896,0.145,13.357c-0.803-0.01-1.608-0.033-2.408-0.029    c-0.129,0.001-0.267,0.012-0.4,0.018c-4.301-0.026-8.608,0.048-12.926-0.191c-6.984-0.387-13.979-0.743-20.948-0.91    c-0.076-4.361-0.329-8.794-0.066-13.126c0.163-2.689,0.438-5.12-0.185-7.595C188.358,453.513,194.564,453.752,200.766,453.821z     M194.219,448.293c0.091,0.702,0.388,1.238,0.789,1.62c-1.941,0.059-3.876,0.189-5.854,0.078c-3.068-0.17-5.997-0.747-9.099-0.827    c-6.633-0.17-13.328-0.012-20.025,0.086c-0.048-0.125-0.107-0.244-0.184-0.354c-0.073-0.105-0.147-0.209-0.222-0.315    c-0.016-0.023-0.034-0.039-0.051-0.06c-0.458-2.837,0.026-6.233-0.027-9.002c-0.044-2.279-0.043-4.57-0.236-6.841    c7.301,0.317,14.594,0.483,21.918,0.883c4.661,0.255,9.327,0.474,13.994,0.599c-0.164,1.955-0.153,3.915-0.479,5.879    C194.273,442.874,193.843,445.384,194.219,448.293z M202.653,500.41c-0.616-0.034-1.233-0.062-1.849-0.105    c-9.785-0.671-19.617-1.125-29.38-2.01c-3.051-0.277-6.15-0.414-9.258-0.54c-1.037-0.978,0.582-9.197,0.574-10.869    c-0.013-2.664-0.119-5.206,0.018-7.873c0.042-0.806,0.049-1.483-0.009-2.122c5.745,0.948,11.507,1.695,17.308,1.872    c7.889,0.242,15.913,0.926,23.934,1.288C202.632,486.548,202.659,493.801,202.653,500.41z M235.885,502.082    c-1.167-0.066-2.332-0.116-3.504-0.209c-1.702-0.136-3.462-0.255-5.249-0.331c-6.491-0.672-12.971-0.7-19.462-0.91    c-0.069-3.842-0.351-7.716-0.105-11.538c0.193-3.016,0.391-5.955-0.026-8.904c5.582,0.174,11.154,0.135,16.67-0.375    c0.294,0.013,0.598,0.018,0.883,0.038c3.772,0.258,7.546,0.396,11.324,0.476C235.153,487.287,235.728,495.034,235.885,502.082z     M270.958,501.884c-4.808,0.156-9.616,0.304-14.426,0.404c-5.328,0.111-10.591,0.156-15.87,0.004    c0.078-7.208,0.103-14.829-1.318-21.912c3.359,0.047,6.722,0.061,10.089,0.062c7.616,0.003,15.234-0.035,22.85,0.004    C271.171,487.454,271.077,494.826,270.958,501.884z M304.321,500.632c-5.233,0.168-10.461,0.216-15.692,0.579    c-2.455,0.114-4.846,0.271-7.032,0.336c-1.82,0.054-3.637,0.115-5.457,0.173c-0.058-4.185,0.004-8.326,0.067-12.506    c0.047-3.058,0.191-5.932-0.593-8.761h0.018c4.946,0.045,9.971,0.362,14.841-0.426c4.634,0.304,9.301,0.309,13.977,0.163    c-0.416,2.948-0.219,5.888-0.026,8.904C304.672,492.916,304.389,496.792,304.321,500.632z M349.826,497.755    c-3.109,0.126-6.208,0.265-9.258,0.54c-9.763,0.884-19.595,1.337-29.379,2.01c-0.617,0.043-1.233,0.071-1.849,0.105    c-0.005-6.608,0.021-13.862-1.337-20.358c8.021-0.362,16.045-1.047,23.934-1.288c5.801-0.178,11.563-0.925,17.308-1.872    c-0.058,0.639-0.05,1.316-0.009,2.122c0.137,2.666,0.032,5.21,0.018,7.873C349.243,488.557,350.863,496.777,349.826,497.755z     M334.335,474.101c0.062-6.503,0.685-14.286-1.402-20.514c0.473,0.01,0.945,0.017,1.417,0.032    c11.395,0.358,23.049,0.665,34.523-0.133c-0.127,2.111,0.321,4.297,0.167,6.46c-0.147,2.05-0.343,4.058-0.119,6.106    c0.142,1.303-0.066,2.519-0.089,3.766C357.406,471.698,345.861,473.594,334.335,474.101z M427.551,434.442    c-0.044,2.405-0.179,4.912,0.392,7.244c-1.176,0.111-2.351,0.206-3.532,0.262c-9.782,0.462-19.398,2.175-29.032,3.846    c0.28-2.16,0.552-4.369,0.193-6.51c-0.459-2.744-0.409-5.627-0.91-8.374c4.662-0.463,9.313-1.129,13.945-1.789    c6.086-0.867,12.137-0.822,18.208-1.794c0.301-0.049,0.601-0.091,0.903-0.138C427.475,429.605,427.592,432.133,427.551,434.442z     M462.821,434.386c-5.028,1.067-10.062,2.378-15.118,3.613c-0.162-0.02-0.326-0.022-0.491,0.006    c-0.152,0.027-0.305,0.053-0.457,0.08c-0.209,0.037-0.364,0.134-0.484,0.258c-4.885,1.174-9.792,2.252-14.741,2.932    c0.121-2.46-0.48-5.126-0.531-7.522c-0.048-2.256,0.048-4.694-0.223-7.024c7.427-1.064,14.85-1.852,22.269-3.207    c3.102-0.567,6.126-0.846,9.131-1.236C461.818,426.18,462.418,430.426,462.821,434.386z M449.589,441.103    c0.016-0.005,0.032-0.01,0.047-0.015c4.868-1.56,9.099-1.948,13.415-3.916c0.02,0.302,0.045,0.612,0.058,0.909    c0.271,6.448,0.288,12.894,0.353,19.341c-2.721,0.644-6.389,1.452-6.726,1.525c-2.232,0.475-4.512,0.767-6.794,1.02    c-0.023-4.079-0.091-8.161-0.047-12.238C449.92,445.411,450.085,443.223,449.589,441.103z M446.235,442.126    c-0.321,2.495-0.819,6.395-0.83,6.976c-0.072,3.783-0.036,7.572-0.051,11.356c-7.863,0.858-15.735,1.166-23.602,1.876    c-3.502,0.316-6.879,1.174-10.342,1.652c0.223-2.953,0.001-6.119-0.234-8.972c-0.127-1.549-0.686-2.999-0.791-4.537    c-0.069-1.007,0.036-1.924,0-2.862c6.236-0.857,12.496-1.596,18.832-2.105C434.86,445.059,440.702,443.746,446.235,442.126z     M407.222,448.064c-1.51,5.24,0.464,10.906-0.432,16.363c-2.731,0.244-5.414,0.6-8.147,1.095    c-7.296,1.318-14.689,1.871-22.005,3.026c-0.885,0.14-1.776,0.287-2.664,0.431c0.096-0.511,0.127-1.056,0.033-1.722    c-0.302-2.135-0.822-3.886-0.795-6.105c0.034-2.918-0.274-5.348-0.944-7.949c3.174-0.287,6.337-0.642,9.468-1.141    C390.283,450.698,398.736,449.285,407.222,448.064z M391.239,438.79c0.354,2.673-0.326,5.018-0.224,7.666    c0.001,0.031,0.009,0.055,0.011,0.084c-3.554,0.6-7.114,1.169-10.689,1.64c-7.708,1.013-15.533,1.177-23.377,1.127    c0.391-2.628-0.17-5.646-0.218-8.19c-0.055-2.861-0.01-5.769-0.279-8.631c0.988-0.051,1.977-0.091,2.966-0.152    c4.674-0.288,9.365,0.211,14.044,0.002c3.942-0.175,7.836-0.767,11.786-0.839c2.084-0.038,4.169-0.149,6.249-0.309    C390.987,433.678,390.91,436.309,391.239,438.79z M386.958,493.937c-6.426,0.518-12.835,1.187-19.186,2.326    c-4.227,0.758-8.57,1.068-12.926,1.275c0.14-2.097-0.309-4.458-0.463-6.067c-0.462-4.801-0.187-10.4-1.733-15.16    c6.001-1.067,11.983-2.288,17.966-3.283c0.697,0.23,1.457,0.153,2.001-0.325c0.992-0.156,1.984-0.305,2.976-0.445    c3.987-0.558,8.008-0.78,12.026-1.01C386.316,478.377,386.897,486.697,386.958,493.937z M425.657,490.043    c-1.942,0.348-3.889,0.682-5.864,0.972c-9.186,1.347-18.488,1.875-27.779,2.54c0.121-7.224,0.824-15.673-1.521-22.479    c3.153-0.201,6.301-0.457,9.421-0.939c8.376-1.294,17.286-2.866,25.742-3.413c-0.556,4.302-0.021,8.346,0.238,12.745    C426.05,482.146,426.369,487.082,425.657,490.043z M458.361,480.695c-3.719,2.045-7.291,3.418-11.367,4.507    c-5.439,1.452-10.828,2.744-16.275,3.859c0.163-2.57-0.2-5.392-0.231-7.716c-0.042-3.07-0.791-6.041-1.009-9.099    c-0.14-1.958-0.144-3.86-0.342-5.773c6.429-0.468,12.84-1.144,19.23-2.115c3.556-0.54,6.791-0.798,10.231-1.963    c1.733-0.587,3.311-1.439,4.892-2.28c0.039,2.917,0.093,5.833,0.201,8.749C463.891,474.339,463.463,477.89,458.361,480.695z     M479.225,407.714c-0.19,4.23-1.812,3.367-5.519,4.502c-2.922,0.894-5.628,2.389-8.623,3.107    c-5.078,1.217-10.788,0.945-16.016,1.879c-14.06,2.509-28.327,2.556-42.45,4.313c-13.294,1.653-26.849,3.033-40.272,2.817    c-7.438-0.12-14.737,0.823-22.185,0.709c-7.425-0.114-14.885,0.498-22.308,0.737c-10.631,0.342-21.256,1.38-31.884,2.041    c-0.805-0.001-1.61,0.001-2.409-0.011c-9.882-0.16-19.767,0.305-29.642-0.131c-9.532-0.421-18.938-0.291-28.468-0.257    c-3.332,0.012-6.677,0.108-10.013,0.239c-9.766-0.659-19.529-1.566-29.299-1.881c-7.422-0.239-14.883-0.851-22.308-0.737    c-7.448,0.114-14.747-0.829-22.185-0.709c-13.423,0.217-26.977-1.163-40.272-2.817c-14.122-1.756-28.391-1.804-42.45-4.313    c-5.228-0.933-10.936-0.661-16.016-1.879c-2.993-0.718-5.701-2.213-8.623-3.107c-3.707-1.135-5.33-0.272-5.519-4.502    c-0.118-2.606-0.24-5.513-0.058-8.12c0.358-5.151,3.596-5.595,7.874-6.342c7.191-1.255,14.361-1.304,21.648-1.362    c28.087-0.222,56.606,0.478,84.527,3.455c13.952,1.488,28.084,2.147,42.141,2.329c7.736,0.1,15.61,0.426,23.463,0.385    c2.88,0.545,5.867,0.703,8.843,0.857c9.421,0.487,18.723,1.473,28.184,1.509c9.777,0.036,19.664,0.806,29.422,0.443    c9.128-0.339,19.453-0.003,28.281-2.861c5.364-0.091,10.715-0.263,16.001-0.332c14.056-0.184,28.188-0.843,42.141-2.329    c27.921-2.977,56.439-3.675,84.527-3.455c7.288,0.058,14.458,0.105,21.648,1.362c4.279,0.747,7.517,1.192,7.874,6.342    C479.464,402.202,479.341,405.109,479.225,407.714z"/>
	</g>
</g>
<g>
	<g>
		<path d="M293.278,81.682c-1.805-1.373-3.417-0.999-5.559-1.049c-2.47-0.058-5.05-0.372-7.505-0.692    c-4.144-0.539-7.397-0.551-11.264,1.287c-0.562,0.267-0.587,0.953-0.377,1.44c1.863,4.346,8.659,4.363,12.735,4.49    c3.626,0.111,11.52-0.182,12.211-4.881C293.557,82.017,293.487,81.841,293.278,81.682z"/>
	</g>
</g>
<g>
	<g>
		<path d="M317.81,220.934c-0.034-6.975-1.98-13.532-2.597-20.389c-0.108-1.196-1.881-1.237-1.895,0    c-0.066,6.094,1.233,12.173,1.14,18.301c-0.086,5.635-0.419,11.303-0.71,16.932c-0.628,12.127-4.525,22.425-10.952,32.587    c-0.505,0.797,0.527,1.906,1.335,1.336c8.914-6.279,12.143-18.285,13.217-28.575C318.042,234.472,317.841,227.618,317.81,220.934z    "/>
	</g>
</g>
<g>
	<g>
		<path d="M330.473,225.63c-0.327-7.565-2.202-14.585-3.115-22.049c-0.261-2.132-3.594-2.221-3.415,0    c1.024,12.755,3.195,25.063,0.801,37.849c-2.219,11.857-4.202,24.087-13.609,32.647c-1.078,0.981,0.3,2.449,1.461,1.893    c12.092-5.788,13.989-18.22,16.307-30.054C330.239,239.094,330.773,232.587,330.473,225.63z"/>
	</g>
</g>
<g>
	<g>
		<path d="M343.877,211.725c-2.239-12.048-5.128-25.296-12.409-35.448c-1.081-1.506-3.58-0.115-2.528,1.478    c5.827,8.828,7.95,20.206,9.912,30.436c1.212,6.322,2.213,12.647,2.067,19.104c-0.092,4.035,0.304,10.194-1.085,13.964    c-0.369,0.999,1.037,1.7,1.727,1.005c2.443-2.459,2.851-7.688,3.311-10.96C345.798,224.718,345.084,218.222,343.877,211.725z"/>
	</g>
</g>
<g>
	<g>
		<path d="M326.564,312.919l-0.234-0.435c-0.196-0.363-0.731-0.509-1.08-0.283c0.387-0.251-9.982-4.758-10.909-5.195    c-2.902-1.368-5.61-3.078-8.532-4.432c-5.469-2.534-11.274-5.15-17.242-6.43c-7.282-1.563-13.719-0.192-20.885,0.437    c-4.463-1.274-9.727-0.207-14.168-0.164c-4.508,0.044-8.842,0.032-13.292-0.315c-1.069-0.083-2.28-0.274-3.463-0.317    c-4.373-0.438-8.681-0.641-13.335,0.359c-5.969,1.281-11.772,3.897-17.242,6.431c-2.923,1.353-5.632,3.064-8.533,4.432    c-0.928,0.437-11.297,4.943-10.909,5.195c-0.349-0.227-0.884-0.08-1.08,0.283l-0.234,0.435c-0.476,0.883,0.132,1.821,1.087,1.895    c6.679,0.514,12.874-2.621,18.793-5.36c5.453-2.524,11.177-4.813,16.97-6.45c7.282-2.057,13.764-0.718,21.087,0.089    c1.624,0.179,3.251,0.211,4.88,0.195c-0.004-0.069-0.007-0.138-0.011-0.207c5.779,0.79,12.495,1.41,17.962,0.182    c0.811-0.028,1.621-0.081,2.432-0.17c7.325-0.807,13.806-2.147,21.087-0.089c5.792,1.636,11.518,3.925,16.97,6.45    c5.919,2.741,12.114,5.875,18.793,5.36C326.432,314.74,327.041,313.802,326.564,312.919z"/>
	</g>
</g>
<g>
	<g>
		<path d="M286.863,313.885c-0.743-1.788-1.929-3.417-3.571-4.489c-2.23-1.456-4.095-0.873-6.494-1.301    c-3.717-0.663-7.131-1.899-10.76-1.433c-4.59-1.223-9.246-1.359-14.126-1.051c-2.643,0.167-5.752,0.231-8.511,0.977    c-2.713,0.163-5.374,1.002-8.209,1.506c-2.398,0.427-4.264-0.156-6.494,1.301c-1.643,1.073-2.829,2.702-3.577,4.489    c-1.745,4.176-0.31,8.574,3.885,10.52c2.291,1.062,4.973,1.086,7.408,1.617c0.007,0.001,0.013,0.004,0.021,0.005    c5.668,2.229,13.647,1.97,19.121,1.759c3.99-0.154,10.756,0.418,15.593-1.128c1.419,0.069,2.818-0.285,4.422-0.636    c2.435-0.531,5.118-0.555,7.408-1.617C287.173,322.46,288.609,318.061,286.863,313.885z M281.772,317.859    c-0.628,1.782-3.599,1.659-5.098,1.937c-2.008,0.374-4.009,1.018-5.932,1.794c-4.984-0.314-10.461,0.789-15.184,0.997    c-3.572,0.157-6.936-0.328-10.478-0.509c-0.353-0.018-1.354,0.015-2.584,0.048c-2.296-1.015-4.731-1.874-7.181-2.329    c-1.499-0.279-4.469-0.157-5.098-1.937c-0.409-1.157,0.79-3.073,1.607-3.717c1.176-0.926,2.667-0.612,4.045-0.975    c1.297-0.342,2.328-0.727,3.643-0.996c1.15-0.235,2.039-0.748,3.09-1.247c0.017-0.007,0.033-0.013,0.05-0.021    c3.63,0.454,7.674-0.474,11.165-0.427c4.343,0.058,9.444,0.988,13.728-0.189c0.621,0.157,1.237,0.35,1.842,0.637    c1.051,0.5,1.94,1.012,3.09,1.247c1.314,0.268,2.346,0.654,3.643,0.996c1.378,0.362,2.871,0.049,4.045,0.975    C280.984,314.787,282.181,316.701,281.772,317.859z"/>
	</g>
</g>
<g>
	<g>
		<path d="M388.184,333.956c-2.079-3.114-6.205-8.134-10.55-7.062c-0.787,0.195-0.742,1.334,0,1.55    c2.513,0.731,6.072,6.335,7.378,8.25c2.463,3.61,6.787,8.623,5.478,13.233c-0.535,1.885,2.21,2.553,2.879,0.794    C395.653,344.703,391.423,338.808,388.184,333.956z"/>
	</g>
</g>
<g>
	<g>
		<path d="M353.142,345.266c-0.945-4.466-3.516-7.504-5.57-11.421c-0.583-1.112-2.403-0.333-2.019,0.851    c1.899,5.879,3.869,10.569,3.767,16.938c-0.109,6.824-1.496,13.662-7.045,18.226c-0.665,0.545-0.087,1.603,0.669,1.617    c6.684,0.118,10.222-8.075,10.828-13.652C354.218,353.722,354.001,349.319,353.142,345.266z"/>
	</g>
</g>
<g>
	<g>
		<path d="M295.847,70.926c-1.397-4.232-7.695-6.34-11.669-7.084c-4.257-0.797-11.916-1.712-13.045,4.265    c-0.295,1.563,0.936,2.946,2.561,2.559c2.021-0.481,3.441-2.299,5.572-2.45c1.609-0.114,4.023,0.567,5.67,0.765    c3.609,0.436,6.688,1.559,10.064,2.792C295.487,71.951,296.004,71.402,295.847,70.926z"/>
	</g>
</g>
<g>
	<g>
		<path d="M311.599,340.815c0.318-0.682-0.547-1.161-0.992-0.579c-6.473,8.474-7.824,17.534-3.922,27.606    c0.566,1.458,2.684,1.272,2.764-0.374c0.218-4.559-1.527-8.837-1.249-13.471C308.469,349.529,309.704,344.868,311.599,340.815z"/>
	</g>
</g>
<g>
	<g>
		<path d="M266.833,62.851c0.081-0.273,0.062-0.583-0.087-0.872c-0.907-1.756-2.796-2.436-4.28-3.523    c-2.011-1.474-4.777-2.524-7.263-2.622c-3.112-0.122-6.62,1.163-8.768,3.556c-1.012,0.779-1.986,1.885-2.185,3.053    c-0.238,0.253-0.378,0.607-0.3,0.99C246.328,75.015,268.641,70.538,266.833,62.851z M255.416,66.651    c-2.692,0.242-5.005-0.126-7.12-1.929c-0.414-0.353-0.753-0.709-1.092-1.059c1.091-1.195,2.279-2.353,3.691-3.166    c0.404-0.23,0.844-0.419,1.307-0.565c1.675-0.528,3.644-0.494,5.179,0.082c2.378,0.892,3.679,2.377,5.608,3.139    C261.182,65.363,258.334,66.387,255.416,66.651z"/>
	</g>
</g>
<g>
	<g>
		<path d="M265.994,97.929c-3.93-0.816-7.486,3.306-11.412,2.847c-1.968-0.23-3.836-0.189-5.675-1.143    c-1.705-0.884-2.294-1.877-4.24-1.467c-0.787,0.167-0.974,1.059-0.686,1.686c2.064,4.507,6.57,5.589,11.088,6.047    c4.169,0.422,10.7-2.654,11.456-7.035C266.592,98.48,266.428,98.018,265.994,97.929z"/>
	</g>
</g>
<g>
	<g>
		<path d="M270.658,244.627c-7.396-5.424-19.721-3.134-28.17-2.245c-6.683,0.702-14.125,2.137-19.181,2.99    c-0.932,0.157-0.754,1.461,0,1.716c0.544,0.292,1.087,0.582,1.63,0.873c0.338,0.367,0.975,0.551,1.452,0.385    c2.852-1.004,7.224-0.369,10.273-0.574c3.838-0.257,7.713-0.806,11.556-0.89c7.277-0.159,14.612,0.18,21.861-0.115    C271.28,246.717,271.557,245.285,270.658,244.627z"/>
	</g>
</g>
<g>
	<g>
		<path d="M284.162,280.142c-3.653-0.393-7.924,1.646-11.568,2.381c-5.844,1.178-11.736,3.054-17.695,3.462    c-5.8,0.397-11.072-0.872-16.539-2.64c-5.141-1.663-14.065-4.485-16.425-10.053c-0.409-0.964-1.771-0.371-1.819,0.492    c-0.599,10.921,18.922,16.052,26.879,17.145c5.975,0.82,11.827,0.009,17.597-1.555c4.089-1.108,8.206-2.195,12.207-3.586    c2.611-0.907,5.087-2.939,7.625-3.701C285.55,281.749,285.237,280.257,284.162,280.142z"/>
	</g>
</g>
<g>
	<g>
		<path d="M290.285,277.396c-0.078,0-0.08,0.122,0,0.122S290.364,277.396,290.285,277.396z"/>
	</g>
</g>
<g>
	<g>
		<path d="M266.844,115.895c-3.974-0.082-7.925,1.728-12.012,1.757c-3.521,0.024-6.677-1.75-10.099-1.614    c-0.747,0.029-1.2,0.566-1.277,1.277c-0.018,0.159-0.035,0.318-0.053,0.478c-0.07,0.64,0.4,1.193,0.878,1.531    c6.269,4.429,17.76,3.538,23.568-1.004C268.875,117.518,267.962,115.918,266.844,115.895z"/>
	</g>
</g>
<g>
</g>
<g>
</g>
<g>
</g>
<g>
</g>
<g>
</g>
<g>
</g>
<g>
</g>
<g>
</g>
<g>
</g>
<g>
</g>
<g>
</g>
<g>
</g>
<g>
</g>
<g>
</g>
<g>
</g>
</svg>
