<?xml version="1.0" encoding="iso-8859-1"?>
<!-- Generator: Adobe Illustrator 19.0.0, SVG Export Plug-In . SVG Version: 6.00 Build 0)  -->
<svg xmlns="http://www.w3.org/2000/svg" xmlns:xlink="http://www.w3.org/1999/xlink" version="1.1" id="Layer_1" x="0px" y="0px" viewBox="0 0 511.999 511.999" style="enable-background:new 0 0 511.999 511.999;" xml:space="preserve">
<g>
	<g>
		<path d="M98.554,109.352c-0.662-4.551-5.075-10.484-10.057-6.487c-0.136,0.109-0.224,0.228-0.286,0.352    c-6.517,1.479-6.319,14.968-6.781,20.078c-0.302,3.35-1.835,10.476,1.583,12.746c2.73,1.814,10.255,1.5,13.285,0.575    c0.585-0.179,1.154-0.655,1.283-1.283c0.807-3.954,0.686-7.813,0.74-11.838C98.385,118.754,99.25,114.134,98.554,109.352z     M95.3,119.414c-0.352,4.246,0.332,9.51-0.87,13.718c-2.48,0.165-6.485,0.189-7.994-0.539c-1.872-0.903-1.308-0.779-1.47-3.247    c-0.109-1.669-0.249-3.467-0.247-5.134c0.01-7.408-0.413-15.515,7.088-19.422C96.829,105.967,95.608,115.703,95.3,119.414z"/>
	</g>
</g>
<g>
	<g>
		<path d="M97.147,60.806c-0.257-2.053,0.237-4.757-1.995-5.904c-1.357-0.697-3.02-0.307-4.444,0.265    c-5.361-0.115-6.756,4.864-6.905,9.628c-0.064,2.036-0.375,5.457,1.792,6.577c1.14,0.589,2.486,0.248,3.697,0.27    c1.179,0.021,2.322,0.249,3.507,0.164C98.553,71.391,97.675,65.018,97.147,60.806z M91.763,68.373    c-1.194-0.03-2.363,0.006-3.549,0.01c-1.177,0.004-0.649,0.31-1.214-0.455c-0.527-0.714-0.344-2.233-0.407-3.133    c-0.114-1.619-0.278-3.377,0.305-4.933c0.546-1.46,1.709-2.142,3.024-2.592c1.005,0.343,1.94-0.083,2.933,0.139    c1.579,0.353,1.078,1.749,1.228,3.13c0.157,1.448,0.329,2.837,0.35,4.299C94.464,66.932,94.127,68.431,91.763,68.373z"/>
	</g>
</g>
<g>
	<g>
		<path d="M96.706,273.777c-2.156-1.639-5.049-2.1-7.618-1.284c-1.265,0.402-2.714,1.189-3.494,2.317    c-0.728,0.365-1.413,0.804-2.035,1.386c-2.526,2.364-3.329,5.55-2.346,8.87c0.761,2.566,3.015,5.643,5.521,6.699    c2.697,1.136,7.16,0.951,9.557-0.828C101.164,287.322,101.57,277.474,96.706,273.777z M92.091,288.343    c-2.319,0.359-4.255,0.036-5.75-1.876c-1.528-1.953-2.444-4.342-1.199-6.731c0.585-1.12,1.555-2.077,2.562-2.902    c2.291-1.28,5.207-1.904,7.281,0.088C98.102,279.913,96.521,287.657,92.091,288.343z"/>
	</g>
</g>
<g>
	<g>
		<path d="M99.923,332.223c-0.155-2.018-0.314-4.031-0.449-6.048c-0.083-1.237-0.185-2.425-1.306-3.192    c-1.389-0.95-3.738-0.71-5.821-0.084c-0.532,0.051-1.024,0.111-1.417,0.142c-2.52,0.202-6.255,0.573-7.429,3.189    c-0.585,1.302-0.576,2.771-0.586,4.169c-0.017,2.241-0.291,4.637-0.005,6.862c0.349,2.711,1.468,4.721,4.452,4.434    c0.908-0.088,1.72-0.388,2.636-0.421c1.281-0.047,2.521,0.353,3.806,0.286c1.106-0.058,2.658-0.258,3.636-0.856    C99.964,339.159,100.121,334.806,99.923,332.223z M95.704,337.997c-1.625,1.151-4.645-0.089-6.502,0.101    c-1.108,0.113-2.158,0.84-3.141-0.343c-0.641-0.772-0.3-2.77-0.289-3.711c0.018-1.603-0.773-5.019,0.202-6.435    c1.164-1.691,4.841-1.357,6.623-1.687c0.534-0.099,1.067-0.296,1.598-0.497c0.609-0.153,1.243-0.276,1.579-0.043    c1.247,0.865,0.906,5.38,1.031,6.841C96.929,333.659,97.078,337.024,95.704,337.997z"/>
	</g>
</g>
<g>
	<g>
		<path d="M99.923,359.765c-0.155-2.018-0.314-4.031-0.449-6.048c-0.083-1.237-0.185-2.425-1.306-3.192    c-1.389-0.95-3.738-0.71-5.821-0.084c-0.532,0.051-1.024,0.111-1.417,0.142c-2.52,0.202-6.255,0.573-7.429,3.189    c-0.585,1.302-0.576,2.771-0.586,4.169c-0.017,2.241-0.291,4.637-0.005,6.862c0.349,2.711,1.468,4.721,4.452,4.434    c0.908-0.088,1.72-0.388,2.636-0.421c1.281-0.047,2.521,0.353,3.806,0.286c1.106-0.058,2.658-0.258,3.636-0.856    C99.964,366.701,100.121,362.347,99.923,359.765z M95.704,365.539c-1.625,1.151-4.645-0.089-6.502,0.101    c-1.108,0.113-2.158,0.84-3.141-0.343c-0.641-0.772-0.3-2.77-0.289-3.711c0.018-1.603-0.773-5.019,0.202-6.435    c1.164-1.691,4.841-1.357,6.623-1.687c0.534-0.099,1.067-0.296,1.598-0.497c0.609-0.153,1.243-0.276,1.579-0.043    c1.247,0.865,0.906,5.38,1.031,6.841C96.929,361.2,97.078,364.566,95.704,365.539z"/>
	</g>
</g>
<g>
	<g>
		<path d="M99.923,418.791c-0.155-2.016-0.314-4.029-0.449-6.045c-0.083-1.237-0.185-2.425-1.306-3.192    c-1.389-0.95-3.738-0.71-5.821-0.085c-0.532,0.051-1.024,0.111-1.417,0.142c-2.52,0.202-6.255,0.573-7.429,3.189    c-0.585,1.302-0.576,2.771-0.586,4.167c-0.017,2.241-0.291,4.637-0.005,6.862c0.349,2.712,1.468,4.721,4.452,4.434    c0.908-0.088,1.72-0.388,2.636-0.421c1.281-0.047,2.521,0.353,3.806,0.286c1.106-0.058,2.658-0.258,3.636-0.856    C99.964,425.727,100.121,421.373,99.923,418.791z M95.704,424.566c-1.625,1.151-4.645-0.089-6.502,0.101    c-1.108,0.113-2.158,0.84-3.141-0.343c-0.641-0.772-0.3-2.77-0.289-3.711c0.018-1.603-0.773-5.019,0.202-6.435    c1.164-1.691,4.841-1.357,6.623-1.686c0.534-0.099,1.067-0.296,1.598-0.497c0.609-0.153,1.243-0.276,1.579-0.043    c1.247,0.865,0.906,5.378,1.031,6.841C96.929,420.229,97.078,423.595,95.704,424.566z"/>
	</g>
</g>
<g>
	<g>
		<path d="M99.923,446.333c-0.155-2.015-0.314-4.029-0.449-6.046c-0.083-1.237-0.185-2.425-1.306-3.192    c-1.389-0.95-3.738-0.71-5.821-0.085c-0.532,0.051-1.024,0.111-1.417,0.142c-2.52,0.202-6.255,0.573-7.429,3.189    c-0.585,1.302-0.576,2.771-0.586,4.167c-0.017,2.241-0.291,4.637-0.005,6.862c0.349,2.712,1.468,4.721,4.452,4.434    c0.908-0.088,1.72-0.388,2.636-0.421c1.281-0.047,2.521,0.353,3.806,0.286c1.106-0.058,2.658-0.258,3.636-0.856    C99.964,453.27,100.121,448.915,99.923,446.333z M95.704,452.109c-1.625,1.151-4.645-0.089-6.502,0.101    c-1.108,0.113-2.158,0.84-3.141-0.343c-0.641-0.772-0.3-2.77-0.289-3.711c0.018-1.603-0.773-5.019,0.202-6.435    c1.164-1.691,4.841-1.357,6.623-1.686c0.534-0.099,1.067-0.296,1.598-0.497c0.609-0.153,1.243-0.276,1.579-0.043    c1.247,0.865,0.906,5.378,1.031,6.841C96.929,447.771,97.078,451.136,95.704,452.109z"/>
	</g>
</g>
<g>
	<g>
		<path d="M99.923,483.331c-0.155-2.015-0.314-4.029-0.449-6.045c-0.083-1.237-0.185-2.425-1.306-3.192    c-1.389-0.95-3.738-0.71-5.821-0.085c-0.532,0.051-1.024,0.111-1.417,0.142c-2.52,0.202-6.255,0.573-7.429,3.189    c-0.585,1.302-0.576,2.771-0.586,4.167c-0.017,2.241-0.291,4.637-0.005,6.862c0.349,2.712,1.468,4.721,4.452,4.434    c0.908-0.088,1.72-0.388,2.636-0.421c1.281-0.047,2.521,0.353,3.806,0.286c1.106-0.058,2.658-0.258,3.636-0.856    C99.964,490.268,100.121,485.914,99.923,483.331z M95.704,489.108c-1.625,1.151-4.645-0.089-6.502,0.101    c-1.108,0.114-2.158,0.84-3.141-0.343c-0.641-0.772-0.3-2.77-0.289-3.711c0.018-1.603-0.773-5.019,0.202-6.435    c1.164-1.691,4.841-1.357,6.623-1.686c0.534-0.099,1.067-0.296,1.598-0.497c0.609-0.153,1.243-0.276,1.579-0.043    c1.247,0.865,0.906,5.378,1.031,6.841C96.929,484.769,97.078,488.135,95.704,489.108z"/>
	</g>
</g>
<g>
	<g>
		<path d="M180.134,412.805c-0.239-4.199,0.143-10.066-2.649-13.606c-2.483-3.146-5.286-3.088-7.86-1.484    c-2.505,0.165-4.738,1.254-6.145,4.215c-1.484,3.121-1.352,7.286-1.443,10.677c-0.11,4.091-0.66,8.568,0.338,12.573    c0.158,0.634,0.76,1.318,1.431,1.431c3.781,0.633,10.557,1.934,14.135-0.121C181.559,424.412,180.32,416.078,180.134,412.805z     M175.843,421.798c-0.713,1.041-0.366,0.53-1.686,0.993c-2.394,0.837-5.512,0.343-8.183-0.01    c-1.214-4.889-1.107-11.512-0.294-16.171c0.536-3.068,1.85-4.941,3.906-5.827c1.157-0.282,2.52-0.625,3.463-0.22    c2.049,0.879,2.554,4.652,2.673,6.435c0.222,3.331,0.302,6.687,0.308,10.03C176.033,418.284,176.534,420.79,175.843,421.798z"/>
	</g>
</g>
<g>
	<g>
		<path d="M229.714,390.105c-0.652-3.849-2.22-9.221-6.814-9.802c-2.56-0.323-4.83,0.578-6.749,2.074    c-7.824,3.215-10.025,14.885-9.359,22.388c0.243,2.738,0.327,7.104,3.049,8.67c1.999,1.152,5.441,0.429,7.59,0.445    c3.713,0.027,7.475,0.453,11.172,0.183c1.248-0.091,1.96-0.902,2.11-2.11C231.584,404.984,230.886,397.025,229.714,390.105z     M226.731,409.987c-3.42,0.232-6.9,0.101-10.319,0.123c-2.976,0.018-4.304-0.387-5.012-1.884    c0.492-4.513-0.493-9.012,0.567-13.398c1.126-4.657,7.132-15.033,12.657-9.712c2.38,2.293,2.045,7.924,2.109,11.047    C226.823,400.542,227.18,405.527,226.731,409.987z"/>
	</g>
</g>
<g>
	<g>
		<path d="M225.317,443.818c-2.51-1.522-6.111-1.529-8.753-0.374c-1.117,0.488-2.225,1.199-3.003,2.148    c-0.453,0.552-0.672,1.217-0.847,1.891c-2.045,2.723-2.907,6.837-2.13,9.724c1.83,6.803,11.407,7.305,15.994,3.229    C231.365,456.185,231.114,447.332,225.317,443.818z M225.654,456.203c-2.152,3.905-10.282,5.01-12.034,0.169    c-0.717-1.982,0.212-5.297,1.216-7.077c0.007-0.012,0.016-0.022,0.022-0.035c0.352-0.495,0.687-0.952,1.048-1.352    c0.619-0.603,1.332-1.051,2.104-1.458c0.316-0.12,0.651-0.224,1.037-0.3C224.646,445.07,228.293,451.417,225.654,456.203z"/>
	</g>
</g>
<g>
	<g>
		<path d="M430.575,123.295c-0.461-5.111-0.264-18.6-6.781-20.079c-0.062-0.123-0.15-0.243-0.286-0.352    c-4.984-3.997-9.395,1.936-10.057,6.488c-0.696,4.783,0.169,9.403,0.233,14.142c0.054,4.024-0.067,7.884,0.74,11.838    c0.128,0.628,0.698,1.104,1.283,1.283c3.03,0.925,10.553,1.238,13.285-0.575C432.41,133.771,430.877,126.645,430.575,123.295z     M427.286,124.211c0.003,1.667-0.138,3.467-0.247,5.134c-0.162,2.469,0.402,2.344-1.47,3.247c-1.51,0.728-5.514,0.704-7.994,0.539    c-1.201-4.209-0.518-9.473-0.869-13.718c-0.307-3.711-1.529-13.448,3.493-14.624C427.699,108.697,427.276,116.803,427.286,124.211    z"/>
	</g>
</g>
<g>
	<g>
		<path d="M428.202,64.795c-0.15-4.764-1.544-9.743-6.905-9.628c-1.423-0.572-3.087-0.962-4.444-0.265    c-2.232,1.147-1.738,3.85-1.995,5.904c-0.528,4.212-1.406,10.585,4.347,11.001c1.185,0.085,2.328-0.143,3.507-0.164    c1.211-0.021,2.557,0.319,3.697-0.27C428.577,70.253,428.268,66.832,428.202,64.795z M425.413,64.796    c-0.063,0.899,0.12,2.42-0.407,3.133c-0.565,0.766-0.037,0.46-1.214,0.455c-1.186-0.004-2.356-0.039-3.549-0.01    c-2.364,0.058-2.701-1.442-2.67-3.535c0.021-1.463,0.194-2.851,0.35-4.299c0.15-1.381-0.35-2.777,1.228-3.13    c0.993-0.222,1.928,0.203,2.933-0.139c1.315,0.45,2.478,1.132,3.024,2.592C425.69,61.419,425.527,63.176,425.413,64.796z"/>
	</g>
</g>
<g>
	<g>
		<path d="M428.445,276.195c-0.622-0.582-1.306-1.022-2.035-1.386c-0.778-1.128-2.227-1.915-3.494-2.317    c-2.569-0.815-5.462-0.355-7.618,1.284c-4.863,3.699-4.457,13.546,0.416,17.162c2.396,1.778,6.859,1.963,9.557,0.828    c2.506-1.056,4.76-4.134,5.52-6.7C431.774,281.745,430.971,278.559,428.445,276.195z M425.664,286.467    c-1.496,1.912-3.432,2.236-5.75,1.876c-4.431-0.686-6.012-8.43-2.895-11.421c2.074-1.991,4.99-1.368,7.281-0.088    c1.005,0.825,1.977,1.781,2.562,2.902C428.109,282.125,427.192,284.514,425.664,286.467z"/>
	</g>
</g>
<g>
	<g>
		<path d="M429.092,330.398c-0.011-1.396-0.003-2.864-0.587-4.167c-1.173-2.616-4.91-2.987-7.429-3.189    c-0.393-0.032-0.885-0.091-1.417-0.142c-2.083-0.627-4.432-0.866-5.821,0.084c-1.121,0.767-1.223,1.955-1.306,3.192    c-0.134,2.016-0.294,4.03-0.448,6.047c-0.197,2.583-0.042,6.937,2.484,8.481c0.978,0.598,2.529,0.798,3.636,0.856    c1.285,0.067,2.525-0.332,3.806-0.286c0.915,0.033,1.728,0.334,2.636,0.421c2.985,0.287,4.103-1.723,4.452-4.434    C429.383,335.036,429.109,332.64,429.092,330.398z M425.944,337.754c-0.983,1.183-2.034,0.456-3.141,0.343    c-1.857-0.19-4.876,1.05-6.502-0.101c-1.375-0.973-1.226-4.339-1.103-5.775c0.125-1.461-0.216-5.977,1.032-6.841    c0.335-0.233,0.969-0.11,1.579,0.043c0.532,0.202,1.066,0.398,1.598,0.497c1.782,0.329,5.458-0.005,6.624,1.687    c0.974,1.416,0.183,4.832,0.201,6.435C426.244,334.986,426.585,336.982,425.944,337.754z"/>
	</g>
</g>
<g>
	<g>
		<path d="M429.092,357.941c-0.011-1.397-0.003-2.865-0.587-4.167c-1.173-2.616-4.91-2.987-7.429-3.189    c-0.393-0.032-0.885-0.091-1.417-0.142c-2.083-0.626-4.432-0.866-5.821,0.084c-1.121,0.767-1.223,1.955-1.306,3.192    c-0.134,2.016-0.294,4.03-0.448,6.047c-0.197,2.582-0.042,6.937,2.484,8.481c0.978,0.598,2.529,0.798,3.636,0.856    c1.285,0.067,2.525-0.332,3.806-0.286c0.915,0.033,1.728,0.334,2.636,0.421c2.985,0.287,4.103-1.723,4.452-4.434    C429.383,362.579,429.109,360.183,429.092,357.941z M425.944,365.297c-0.983,1.183-2.034,0.456-3.141,0.343    c-1.857-0.19-4.876,1.05-6.502-0.101c-1.375-0.973-1.226-4.339-1.103-5.775c0.125-1.461-0.216-5.977,1.032-6.841    c0.335-0.233,0.969-0.11,1.579,0.043c0.532,0.202,1.066,0.398,1.598,0.497c1.782,0.329,5.458-0.005,6.624,1.687    c0.974,1.416,0.183,4.832,0.201,6.435C426.244,362.527,426.585,364.525,425.944,365.297z"/>
	</g>
</g>
<g>
	<g>
		<path d="M429.092,416.969c-0.011-1.397-0.003-2.866-0.587-4.169c-1.173-2.617-4.91-2.987-7.429-3.189    c-0.393-0.032-0.885-0.091-1.417-0.142c-2.083-0.627-4.432-0.866-5.821,0.085c-1.121,0.767-1.223,1.955-1.306,3.192    c-0.134,2.016-0.294,4.03-0.448,6.047c-0.197,2.583-0.042,6.937,2.484,8.481c0.978,0.598,2.529,0.798,3.636,0.856    c1.285,0.067,2.525-0.332,3.806-0.286c0.915,0.033,1.728,0.334,2.636,0.421c2.985,0.287,4.103-1.723,4.452-4.434    C429.383,421.608,429.109,419.211,429.092,416.969z M425.944,424.325c-0.983,1.183-2.034,0.456-3.141,0.343    c-1.857-0.19-4.876,1.05-6.502-0.101c-1.375-0.973-1.226-4.339-1.103-5.776c0.125-1.461-0.216-5.976,1.032-6.841    c0.335-0.233,0.969-0.11,1.579,0.043c0.532,0.202,1.066,0.398,1.598,0.497c1.782,0.329,5.458-0.005,6.624,1.686    c0.974,1.416,0.183,4.832,0.201,6.435C426.244,421.555,426.585,423.553,425.944,424.325z"/>
	</g>
</g>
<g>
	<g>
		<path d="M429.092,444.511c-0.011-1.397-0.003-2.865-0.587-4.169c-1.173-2.616-4.91-2.987-7.429-3.189    c-0.393-0.032-0.885-0.091-1.417-0.142c-2.083-0.627-4.432-0.866-5.821,0.085c-1.121,0.767-1.223,1.955-1.306,3.192    c-0.134,2.016-0.294,4.03-0.448,6.047c-0.197,2.582-0.042,6.937,2.484,8.481c0.978,0.598,2.529,0.798,3.636,0.856    c1.285,0.067,2.525-0.332,3.806-0.286c0.915,0.033,1.728,0.334,2.636,0.421c2.985,0.287,4.103-1.723,4.452-4.434    C429.383,449.149,429.109,446.753,429.092,444.511z M425.944,451.866c-0.983,1.183-2.034,0.456-3.141,0.343    c-1.857-0.19-4.876,1.049-6.502-0.101c-1.375-0.973-1.226-4.339-1.103-5.776c0.125-1.461-0.216-5.977,1.032-6.841    c0.335-0.233,0.969-0.11,1.579,0.043c0.532,0.202,1.066,0.398,1.598,0.497c1.782,0.329,5.458-0.005,6.624,1.686    c0.974,1.416,0.183,4.832,0.201,6.435C426.244,449.098,426.585,451.094,425.944,451.866z"/>
	</g>
</g>
<g>
	<g>
		<path d="M429.092,481.51c-0.011-1.397-0.003-2.865-0.587-4.169c-1.173-2.616-4.91-2.987-7.429-3.189    c-0.393-0.032-0.885-0.091-1.417-0.142c-2.083-0.626-4.432-0.866-5.821,0.085c-1.121,0.767-1.223,1.955-1.306,3.192    c-0.134,2.016-0.294,4.03-0.448,6.047c-0.197,2.583-0.042,6.937,2.484,8.481c0.978,0.598,2.529,0.798,3.636,0.856    c1.285,0.067,2.525-0.332,3.806-0.286c0.915,0.033,1.728,0.334,2.636,0.421c2.985,0.287,4.103-1.723,4.452-4.434    C429.383,486.148,429.109,483.752,429.092,481.51z M425.944,488.865c-0.983,1.183-2.034,0.456-3.141,0.343    c-1.857-0.19-4.876,1.05-6.502-0.101c-1.375-0.973-1.226-4.339-1.103-5.775c0.125-1.461-0.216-5.977,1.032-6.841    c0.335-0.233,0.969-0.11,1.579,0.043c0.532,0.202,1.066,0.398,1.598,0.497c1.782,0.329,5.458-0.005,6.624,1.686    c0.974,1.416,0.183,4.832,0.201,6.435C426.244,486.096,426.585,488.093,425.944,488.865z"/>
	</g>
</g>
<g>
	<g>
		<path d="M349.969,412.607c-0.091-3.39,0.041-7.555-1.443-10.677c-1.407-2.961-3.641-4.051-6.145-4.215    c-2.574-1.604-5.377-1.662-7.86,1.484c-2.792,3.539-2.41,9.406-2.649,13.606c-0.186,3.273-1.426,11.608,2.194,13.686    c3.578,2.055,10.353,0.754,14.135,0.121c0.67-0.112,1.273-0.797,1.431-1.431C350.628,421.175,350.078,416.698,349.969,412.607z     M346.031,422.781c-2.67,0.353-5.789,0.847-8.182,0.01c-1.32-0.461-0.973,0.048-1.686-0.993c-0.689-1.008-0.19-3.514-0.189-4.77    c0.005-3.343,0.086-6.7,0.308-10.03c0.118-1.782,0.624-5.556,2.672-6.435c0.943-0.404,2.306-0.063,3.463,0.22    c2.056,0.888,3.371,2.759,3.906,5.827C347.137,411.269,347.245,417.892,346.031,422.781z"/>
	</g>
</g>
<g>
	<g>
		<path d="M295.854,382.376c-1.919-1.496-4.188-2.398-6.749-2.074c-4.594,0.581-6.161,5.953-6.814,9.802    c-1.172,6.92-1.87,14.88-0.999,21.848c0.15,1.209,0.862,2.019,2.11,2.11c3.697,0.271,7.459-0.154,11.172-0.182    c2.148-0.016,5.59,0.707,7.591-0.445c2.722-1.568,2.806-5.932,3.049-8.67C305.878,397.261,303.678,385.591,295.854,382.376z     M295.592,410.11c-3.419-0.022-6.898,0.11-10.319-0.123c-0.45-4.46-0.093-9.445-0.003-13.825    c0.064-3.123-0.271-8.754,2.109-11.047c5.525-5.32,11.532,5.055,12.658,9.712c1.061,4.387,0.075,8.886,0.567,13.398    C299.898,409.723,298.569,410.128,295.592,410.11z"/>
	</g>
</g>
<g>
	<g>
		<path d="M299.291,447.483c-0.176-0.673-0.396-1.338-0.847-1.891c-0.778-0.951-1.886-1.66-3.003-2.148    c-2.64-1.156-6.242-1.147-8.753,0.374c-5.796,3.514-6.048,12.367-1.262,16.618c4.588,4.076,14.163,3.574,15.994-3.229    C302.198,454.321,301.334,450.206,299.291,447.483z M298.384,456.372c-1.751,4.841-9.881,3.736-12.034-0.169    c-2.638-4.785,1.009-11.133,6.607-10.051c0.386,0.075,0.721,0.18,1.037,0.3c0.771,0.407,1.485,0.855,2.104,1.458    c0.36,0.4,0.697,0.856,1.048,1.352c0.007,0.012,0.016,0.022,0.022,0.035C298.172,451.073,299.102,454.39,298.384,456.372z"/>
	</g>
</g>
<g>
	<g>
		<path d="M487.579,375.722c-0.265-0.063-0.539-0.097-0.807-0.152c0.019-0.128,0.052-0.247,0.06-0.382    c0.53-9.367-0.592-19.075,0.421-28.389c0.908-8.355,0.968-18.443-0.665-26.993c2.068-0.018,4.012,0.24,5.719-1.278    c3.281-2.92,1.463-8.975,1.146-12.731c-0.461-5.475-1.587-6.728-7.013-7.135c-0.269-0.02-0.525-0.031-0.786-0.047    c0.881-4.809-0.075-10.712-0.318-15.311c-0.181-3.443-1.301-5.951-4.588-7.418c-1.703-0.761-3.606-0.966-5.46-0.837    c-3.199,0.222-2.311,0.646-2.206-2.73c0.111-3.564,0.408-7.466-0.575-10.942c0.286,0.011,0.566,0.018,0.855,0.032    c1.887,0.085,3.517,0.224,5.027-1.154c2.162-1.974,2.236-6.695,1.724-9.373c-0.713-3.731-3.542-5.154-7.173-5.399    c-0.006-0.001-0.012,0-0.02-0.001c1.259-4.668,0.3-10.128,0.34-14.893c0.054-6.425,0.926-12.811,0.979-19.219    c0.064-7.608-0.245-15.231-0.323-22.839c-0.026-2.537-0.713-4.747-0.834-7.25c-0.123-2.559-0.036-4.907-0.467-7.281    c6.097-0.115,9.911-1.643,9.697-8.965c-0.211-7.229-2.854-9.816-9.888-10.669c-4.191-0.508-8.369-0.885-12.545-1.029    c2.113-9.5,0.559-20.136,0.874-29.758c0.366-11.129,0.01-22.683,1.32-33.708c0.903-7.604,0.8-12.09-8.016-13.26    c-3.081-0.408-6.196-0.65-9.319-0.733c0.795-5.713,0.813-11.523,1.518-17.257c0.697-5.66,0.913-12.322,0.252-18.016    c-0.501-4.309-2.85-5.477-6.88-5.493c-1.793-0.007-3.51,0.186-5.24,0.429c-0.462-2.095-1.912-4.371-2.83-5.852    c-1.564-2.521-4.014-4.629-6.855-5.57c0.861-3.711,0.705-7.669,0.639-11.451c-0.064-3.63,0.134-7.971-0.941-11.413    c-0.543-1.736-2.811-1.607-3.4,0c-1.359,3.699-0.286,7.602-0.122,11.413c0.158,3.678-0.155,7.328,0.54,10.913    c-5.565,0.137-7.66,6.245-10.696,10.485c-0.337,0.47-0.388,1.105-0.273,1.688c-2.243-0.337-4.426-0.654-6.731-0.644    c-4.03,0.016-6.381,1.184-6.88,5.493c-0.661,5.695-0.445,12.356,0.252,18.016c0.705,5.735,0.724,11.546,1.518,17.257    c-3.123,0.083-6.238,0.324-9.319,0.733c-8.818,1.169-8.92,5.655-8.016,13.26c1.31,11.026,0.955,22.579,1.32,33.708    c0.316,9.622-1.237,20.258,0.874,29.758c-4.176,0.144-8.353,0.52-12.545,1.029c-7.035,0.853-9.678,3.44-9.888,10.669    c-0.213,7.322,3.6,8.85,9.697,8.965c-0.432,2.373-0.344,4.722-0.467,7.281c-0.121,2.504-0.808,4.714-0.834,7.25    c-0.078,7.608-0.387,15.231-0.323,22.839c0.054,6.408,0.925,12.794,0.979,19.219c0.041,4.767-0.92,10.225,0.34,14.893    c-0.006,0-0.012,0-0.02,0.001c-3.631,0.245-6.459,1.669-7.173,5.399c-0.512,2.677-0.439,7.398,1.724,9.373    c1.51,1.379,3.14,1.239,5.027,1.154c0.289-0.012,0.569-0.02,0.855-0.032c-0.984,3.475-0.686,7.378-0.575,10.942    c0.105,3.377,0.993,2.951-2.206,2.73c-1.854-0.128-3.755,0.078-5.46,0.837c-3.285,1.466-4.407,3.975-4.588,7.418    c-0.242,4.6-1.199,10.503-0.318,15.311c-0.261,0.015-0.517,0.026-0.786,0.047c-5.425,0.407-6.551,1.66-7.012,7.135    c-0.317,3.757-2.135,9.811,1.146,12.731c1.707,1.518,3.651,1.259,5.719,1.278c-1.633,8.55-1.572,18.637-0.665,26.993    c0.298,2.754,0.401,5.545,0.425,8.349c-2.719,0.089-1.533-3.548-1.851-5.695c-0.36-2.427-1.253-4.917-2.611-6.968    c-2.05-3.098-5.975-5.643-9.919-6.219c0.855-3.017,1.184-7.746,1.173-8.547c-0.035-2.594-4.132-2.578-4.018,0    c0.1,2.254-0.292,4.405-0.516,6.642c-0.058,0.587-0.084,1.272-0.005,1.934c-3.655,0.66-7.199,3.755-8.48,7.173    c-0.988,2.633-0.486,5.164-0.398,7.889c-0.016,0.935-0.026,1.87-0.03,2.803c-0.005,0.025-0.005,0.042-0.009,0.065    c-0.291,0.026-0.592,0.044-0.895,0.062c-1.508-3.638-1.03-8.777-1.225-12.467c-0.139-2.634-0.451-5.145-0.358-7.796    c0.072-2.018,0.591-4.965-0.068-6.973c-0.476-1.452-1.352-2.257-2.431-2.703c-0.06-0.75-0.259-1.516-0.379-2.195    c-0.028-0.163-0.19-1.034-0.131-1.54c0.03-0.252,0.047-0.456,0.052-0.647c0.971-0.809,1.755-1.877,2.116-3.038    c0.138-0.183,0.269-0.361,0.381-0.532c1.989-2.991,2.141-7.357,0.731-10.594c-1.501-3.449-4.223-5.56-7.246-6.213    c0.236-0.973,0.25-2.028,0.285-3.003c0.064-1.815,0.036-3.638,0.053-5.455c0.026-2.645-4.13-2.642-4.104,0    c0.017,1.817-0.011,3.639,0.053,5.455c0.033,0.94,0.049,1.951,0.261,2.895c-2.099,0.308-4.182,1.288-5.97,3.012    c-1.158,1.116-1.596,2.242-1.988,3.832c-0.417,1.697-1.172,3.885-1.257,5.622c-0.149,3.073,1.529,6.297,3.959,8.204    c-0.068,0.355-0.123,0.71-0.115,1.062c0.014,0.576,0.215,1.061,0.086,1.634c-0.085,0.381-0.175,0.73-0.25,1.068    c-2.003-0.02-3.995-0.076-5.886-0.236c-1.089-0.091-2.211-0.188-3.284-0.408c-5.01-1.032-2.135-0.342-3.589-2.685    c-1.159-1.87-1.789-3.993-2.876-5.907c-2.311-4.07-4.842-8.306-8.411-11.329c-4.194-3.553-9.243-5.576-14.706-5.84    c-7.214-0.349-9.379-5.396-13.054-10.869c-0.127-0.189-0.278-0.327-0.437-0.442c-0.171-0.432-0.326-0.877-0.453-1.339    c-0.348-1.263-1.757-2.113-3.039-1.725c-1.619,0.49-2.606,2.069-3.438,3.72c-3.59,5.389-5.794,10.31-12.914,10.656    c-5.461,0.264-10.511,2.288-14.706,5.84c-3.569,3.024-6.1,7.259-8.411,11.329c-1.086,1.914-1.717,4.038-2.876,5.907    c-1.454,2.343,1.421,1.653-3.589,2.685c-1.072,0.221-2.195,0.316-3.284,0.408c-1.892,0.159-3.884,0.216-5.886,0.236    c-0.075-0.339-0.165-0.687-0.25-1.068c-0.128-0.573,0.073-1.058,0.086-1.634c0.009-0.352-0.048-0.708-0.115-1.062    c2.428-1.908,4.108-5.13,3.959-8.204c-0.085-1.738-0.84-3.924-1.257-5.622c-0.391-1.59-0.83-2.716-1.988-3.832    c-1.788-1.723-3.871-2.703-5.97-3.012c0.211-0.942,0.228-1.955,0.261-2.895c0.064-1.815,0.036-3.638,0.053-5.455    c0.026-2.642-4.13-2.645-4.104,0c0.017,1.817-0.011,3.639,0.053,5.455c0.035,0.976,0.049,2.03,0.285,3.003    c-3.023,0.654-5.745,2.764-7.246,6.213c-1.41,3.237-1.257,7.603,0.731,10.594c0.113,0.17,0.243,0.349,0.381,0.532    c0.361,1.161,1.146,2.229,2.116,3.038c0.005,0.191,0.022,0.396,0.052,0.647c0.059,0.507-0.102,1.378-0.131,1.54    c-0.12,0.68-0.317,1.445-0.379,2.195c-1.079,0.448-1.955,1.253-2.431,2.703c-0.659,2.008-0.138,4.955-0.068,6.973    c0.094,2.65-0.22,5.161-0.358,7.796c-0.195,3.69,0.285,8.829-1.225,12.467c-0.303-0.017-0.606-0.036-0.897-0.062    c-0.004-0.025-0.005-0.041-0.009-0.065c-0.004-0.935-0.014-1.87-0.03-2.803c0.088-2.726,0.588-5.256-0.398-7.889    c-1.281-3.417-4.825-6.513-8.48-7.173c0.079-0.662,0.054-1.347-0.005-1.934c-0.223-2.236-0.615-4.388-0.516-6.642    c0.115-2.578-3.983-2.594-4.018,0c-0.011,0.802,0.318,5.53,1.173,8.547c-3.944,0.576-7.868,3.121-9.919,6.219    c-1.358,2.051-2.251,4.541-2.611,6.968c-0.318,2.147,0.868,5.784-1.851,5.695c0.023-2.804,0.126-5.595,0.426-8.349    c0.908-8.355,0.968-18.443-0.665-26.993c2.068-0.018,4.012,0.24,5.719-1.278c3.281-2.92,1.463-8.975,1.146-12.731    c-0.461-5.475-1.587-6.728-7.012-7.135c-0.269-0.02-0.524-0.031-0.786-0.047c0.881-4.809-0.076-10.712-0.318-15.311    c-0.181-3.443-1.301-5.951-4.588-7.418c-1.703-0.761-3.606-0.966-5.46-0.837c-3.199,0.222-2.311,0.646-2.206-2.73    c0.111-3.564,0.408-7.466-0.575-10.942c0.286,0.011,0.566,0.018,0.855,0.032c1.887,0.085,3.517,0.224,5.027-1.154    c2.162-1.974,2.236-6.695,1.724-9.373c-0.713-3.731-3.542-5.154-7.173-5.399c-0.006-0.001-0.012,0-0.02-0.001    c1.259-4.668,0.3-10.128,0.34-14.893c0.054-6.425,0.926-12.811,0.98-19.219c0.064-7.608-0.245-15.231-0.323-22.839    c-0.026-2.537-0.713-4.747-0.834-7.25c-0.123-2.559-0.036-4.907-0.467-7.281c6.097-0.115,9.911-1.643,9.697-8.965    c-0.211-7.229-2.854-9.816-9.888-10.669c-4.191-0.508-8.369-0.885-12.545-1.029c2.113-9.5,0.559-20.136,0.874-29.758    c0.366-11.129,0.01-22.683,1.32-33.708c0.903-7.604,0.8-12.09-8.016-13.26c-3.081-0.408-6.196-0.65-9.319-0.733    c0.794-5.713,0.813-11.523,1.518-17.257c0.697-5.66,0.913-12.322,0.252-18.016c-0.501-4.309-2.85-5.477-6.88-5.493    c-2.305-0.01-4.488,0.308-6.731,0.644c0.115-0.583,0.063-1.219-0.273-1.688C98.24,29.825,96.144,23.717,90.58,23.58    c0.696-3.585,0.381-7.236,0.54-10.913c0.164-3.812,1.237-7.714-0.122-11.413c-0.591-1.607-2.857-1.736-3.4,0    c-1.075,3.443-0.877,7.783-0.941,11.413c-0.067,3.784-0.222,7.741,0.639,11.451c-2.84,0.94-5.291,3.049-6.855,5.57    c-0.919,1.481-2.368,3.757-2.83,5.852c-1.73-0.243-3.447-0.437-5.24-0.429c-4.03,0.016-6.381,1.184-6.88,5.493    c-0.661,5.695-0.445,12.356,0.252,18.016c0.705,5.735,0.724,11.546,1.518,17.257c-3.123,0.083-6.238,0.324-9.319,0.733    c-8.818,1.169-8.92,5.655-8.016,13.26c1.31,11.026,0.955,22.579,1.32,33.708c0.316,9.622-1.237,20.258,0.874,29.758    c-4.176,0.144-8.353,0.52-12.545,1.029c-7.035,0.853-9.678,3.44-9.888,10.669c-0.213,7.322,3.6,8.85,9.697,8.965    c-0.432,2.373-0.344,4.722-0.467,7.281c-0.121,2.504-0.808,4.714-0.834,7.25c-0.078,7.608-0.387,15.231-0.323,22.839    c0.054,6.408,0.925,12.794,0.979,19.219c0.041,4.767-0.92,10.225,0.34,14.893c-0.006,0-0.012,0-0.02,0.001    c-3.631,0.245-6.459,1.669-7.173,5.399c-0.512,2.677-0.439,7.398,1.724,9.373c1.51,1.379,3.14,1.239,5.027,1.154    c0.289-0.012,0.569-0.02,0.855-0.032c-0.983,3.475-0.686,7.378-0.575,10.942c0.105,3.377,0.993,2.951-2.206,2.73    c-1.854-0.128-3.755,0.078-5.46,0.837c-3.285,1.466-4.407,3.975-4.588,7.418c-0.242,4.6-1.198,10.503-0.318,15.311    c-0.261,0.015-0.518,0.026-0.786,0.047c-5.425,0.407-6.551,1.66-7.012,7.135c-0.317,3.757-2.135,9.811,1.146,12.731    c1.707,1.518,3.651,1.259,5.719,1.278c-1.633,8.55-1.571,18.637-0.665,26.993c1.011,9.315-0.111,19.022,0.421,28.389    c0.007,0.136,0.041,0.254,0.06,0.382c-0.268,0.054-0.541,0.089-0.807,0.152c-5.166,1.223-5.61,5.149-5.737,9.96    c-0.13,4.926-0.264,10.554,5.396,12.318c0.994,0.31,2.065,0.437,3.161,0.474c-0.258,0.894-0.503,1.753-0.534,2.395    c-0.155,3.289,0.719,6.477,0.539,9.771c-0.446,8.152-0.749,16.202-0.816,24.396c-0.06,7.283-0.474,14.49-1.262,21.708    c-0.898,8.227-0.352,16.771-0.476,25.046c-0.094,6.298,0.322,13.472,1.839,19.618c1.331,5.394,4.415,6.561,9.51,7.265    c7.13,0.987,14.6,2.029,21.82,1.88c4.125-0.085,8.148-0.634,12.264-0.343c1.268,0.09,2.373,0.072,3.462-0.055    c5.017,0.264,10.171,0.951,15.074,1.41c7.502,0.703,15.382,0.455,22.918-0.052c3.995-0.269,7.875-0.303,11.645-0.958    c6.434,0.091,13.053-0.735,19.448-1.612c1.564,0.471,3.137,0.757,5.327,0.823c4.716,0.139,9.375,0.597,14.058,0.665    c9.025,0.13,18.158,0.169,27.18,0.686c10.896,0.625,21.989,0.099,32.914,0.094c4.403-0.003,8.808,0.012,13.213-0.005    c4.948,0.565,10.312,0.249,14.395,0.396c5.106,0.183,10.284,0.259,15.402,0.057c3.299-0.131,6.862-0.036,10.283-0.459    c4.8,0.028,9.601,0.01,14.4,0.012c10.924,0.005,22.018,0.532,32.914-0.094c9.023-0.517,18.155-0.556,27.18-0.686    c4.683-0.068,9.342-0.525,14.058-0.665c2.189-0.064,3.762-0.352,5.327-0.823c6.395,0.877,13.014,1.704,19.448,1.612    c3.769,0.656,7.649,0.691,11.645,0.958c7.537,0.507,15.417,0.755,22.918,0.052c4.902-0.46,10.057-1.146,15.074-1.41    c1.089,0.127,2.194,0.146,3.462,0.056c4.115-0.291,8.14,0.258,12.264,0.343c7.221,0.149,14.691-0.893,21.82-1.88    c5.095-0.705,8.179-1.871,9.51-7.265c1.517-6.145,1.934-13.319,1.839-19.618c-0.125-8.274,0.422-16.818-0.476-25.046    c-0.787-7.218-1.2-14.426-1.262-21.708c-0.069-8.195-0.371-16.245-0.816-24.396c-0.18-3.294,0.694-6.482,0.539-9.771    c-0.03-0.643-0.276-1.501-0.534-2.395c1.095-0.037,2.167-0.164,3.161-0.474c5.66-1.764,5.526-7.392,5.396-12.318    C493.189,380.871,492.744,376.946,487.579,375.722z M148.29,281.774c0.413,0.687,0.668,1.744,0.716,3.335    c0.133,4.463-1.233,9.105-0.534,13.512c-1.325,0.06-2.676,0.143-4.145,0.211c-3.495,0.162-7.047-0.635-10.527-0.883    c-6.388-0.454-12.351-0.044-18.773,0.002c-4.203,0.031-8.485-0.385-12.472,0.729c4.664-4.029,7.403-10.75,7.566-17.114    c3.436,0.509,7.26-0.132,10.668-0.329c0.957-0.055,1.961-0.057,2.976-0.063c0.451,0.074,0.841,0.128,1.124,0.141    c3.019,0.139,6.084-0.442,9.079-0.281C138.595,281.28,143.651,282.543,148.29,281.774z M44.427,272.319    c-0.208-3.679,0.238-7.519-0.733-11.021c1.413,0.011,2.833,0.064,4.304,0.196c6.709,0.601,13.553,1.191,20.308,1.211    c3.935,0.011,7.888-0.17,11.821-0.089c0.315,0.006,0.609,0.021,0.895,0.036c-4.895,2.913-8.712,8.277-10.085,13.787    c-0.11-0.027-0.221-0.053-0.34-0.06c-0.143-0.009-0.517,0.021-0.948,0.068c-0.815-0.084-1.685-0.081-2.508-0.043    c-0.207-0.106-0.416-0.195-0.606-0.213c-4.516-0.45-8.87,0.493-13.361,0.519c-2.92,0.017-5.794,0.074-8.651,0.265    C44.731,275.467,44.512,273.81,44.427,272.319z M75.641,276.389c1.534-6.927,7.031-10.025,12.98-12.189    c7.053-0.577,13.676,5.715,15.691,12.211c1.347,4.34,0.031,11.011-2.309,14.928c-2.635,4.413-6.709,5.912-11.565,5.41    c-5.455-0.565-11.759-1.898-13.958-7.593C75.078,285.52,74.799,280.191,75.641,276.389z M136.14,276.973    c-2.857-0.191-5.732-0.248-8.653-0.265c-4.493-0.026-8.845-0.969-13.361-0.519c-0.19,0.019-0.398,0.109-0.606,0.213    c-0.824-0.037-1.693-0.039-2.508,0.043c-0.432-0.048-0.804-0.078-0.948-0.068c-0.146,0.009-0.282,0.035-0.414,0.074    c-0.105-0.479-0.222-0.951-0.364-1.412c-1.389-4.524-4.717-9.371-8.881-12.419c0.044-0.001,0.084-0.004,0.13-0.005    c3.932-0.081,7.886,0.1,11.821,0.089c6.756-0.02,13.599-0.609,20.308-1.211c1.471-0.132,2.891-0.185,4.304-0.196    c-0.971,3.501-0.523,7.342-0.733,11.021C136.151,273.81,135.933,275.467,136.14,276.973z M118.516,125.797    c-0.03-4.194,0.247-8.487-0.072-12.668c-0.369-4.849-0.424-10.216-1.568-15.029c1.042-0.297,1.999-0.696,2.75-1.28    c1.82-1.418,2.182-5.331,0.678-7.249c0.943-0.079,1.877-0.117,2.793-0.078c0.655,0.028,1.101,0.099,1.485,0.168    c-0.015,0.157-0.03,0.311-0.043,0.471c-0.364,4.223-0.052,8.532-0.023,12.771c0.063,9.19-0.551,18.314-0.48,27.496    c0.057,7.381-0.719,15.538,0.847,22.871c-2.317,0.005-4.636,0.117-6.956,0.313C119.769,144.688,118.58,134.702,118.516,125.797z     M113.769,111.633c0.555,4.674,0.208,9.451,0.175,14.164c-0.038,5.308-0.121,10.627-0.033,15.935    c0.064,3.881-0.723,7.908-0.397,11.772c-2.254-0.263-4.33-0.961-6.369-2.945c-0.402-0.391-0.787-0.775-1.164-1.153    c2.195-7.184,0.08-15.69-0.027-23.002c-0.128-8.751,1.207-18.518-0.684-27.182c1.375,0.047,2.759-0.072,3.869-0.163    c1.453-0.121,3.283-0.189,5.081-0.424C113.309,102.855,113.269,107.41,113.769,111.633z M113.838,94.7    c-1.379,0.143-2.717,0.486-4.09,0.659c-2.258,0.282-6.435,0.96-7.028-1.701c-0.226-1.013-0.27-2.395-0.259-3.6    c0.279,0.023,0.557,0.042,0.839,0.074c2.885,0.331,5.715,0.295,8.626,0.275c2.031-0.014,4.13-0.337,6.213-0.599    c-0.258,0.709-0.371,1.54-0.395,1.736c-0.055,0.454,0.078,1.817-0.146,2.184C116.932,94.825,114.909,94.59,113.838,94.7z     M101.779,126.404c-0.027,3.738,0.705,7.284,0.647,10.982c-0.044,2.786-0.255,5.734,0.009,8.573    c-3.01-2.673-6.1-4.298-11.446-3.473c-0.25,0.038-0.467,0.125-0.657,0.239c-0.189-0.116-0.406-0.201-0.657-0.239    c-5.346-0.825-8.436,0.8-11.446,3.473c0.263-2.839,0.052-5.787,0.009-8.573c-0.058-3.699,0.675-7.244,0.648-10.982    c-0.064-8.803,1.168-18.872-0.84-27.565c0.729-0.22,1.392-0.543,1.926-1.025c1.674-1.51,2.193-5.058,2.015-7.956    c1.004-0.047,1.995-0.122,2.976-0.271c2.393,0.109,4.795,0.044,7.197-0.146c0.844-0.067,1.781-0.046,2.758-0.006    c1.235,0.252,2.488,0.364,3.76,0.423c-0.178,2.897,0.343,6.446,2.016,7.956c0.534,0.481,1.198,0.805,1.926,1.025    C100.611,107.532,101.844,117.601,101.779,126.404z M74.71,126.404c-0.107,7.312-2.222,15.818-0.027,23.002    c-0.379,0.379-0.763,0.762-1.164,1.153c-2.04,1.984-4.114,2.682-6.369,2.945c0.324-3.864-0.461-7.891-0.397-11.772    c0.088-5.308,0.004-10.627-0.035-15.935c-0.033-4.714-0.38-9.489,0.175-14.164c0.501-4.224,0.46-8.78-0.449-12.999    c1.798,0.236,3.628,0.305,5.081,0.424c1.11,0.092,2.494,0.21,3.869,0.163C73.503,107.886,74.84,117.653,74.71,126.404z     M70.915,95.359c-1.373-0.173-2.711-0.516-4.09-0.659c-1.07-0.111-3.093,0.125-3.759-0.972c-0.223-0.367-0.09-1.73-0.146-2.184    c-0.025-0.196-0.138-1.026-0.396-1.736c2.082,0.261,4.181,0.585,6.213,0.599c2.912,0.02,5.741,0.055,8.626-0.275    c0.28-0.032,0.559-0.051,0.839-0.074c0.011,1.205-0.033,2.587-0.259,3.6C77.349,96.318,73.173,95.641,70.915,95.359z     M89.989,27.527c4.324,0.252,4.595,5.269,6.478,8.238c-2.425,0.069-4.645,0.067-7.069-0.121c-2.749-0.213-5.747-0.096-8.569,0.331    c-0.075-0.007-0.15-0.018-0.226-0.026C83.309,32.463,85.514,27.267,89.989,27.527z M70.805,41.272    c1.119-1.292,4.728-0.876,6.239-0.842c3.969,0.089,6.98,0.382,10.514-0.85c1.133,0.063,2.263,0.126,3.374,0.213    c0.918,0.072,2.145,0.171,3.414,0.154c3.02,0.786,5.777,0.56,9.272,0.482c1.511-0.033,5.121-0.45,6.239,0.842    c0.441,0.511,0.401,2.266,0.275,3.97c-0.862-0.21-1.679-0.553-2.703-0.606c-1.436-0.075-2.769,0.354-4.173,0.533    c-1.151,0.147-2.294,0.148-3.432,0.128c-2.953-0.437-6.461,0.264-9.198,0.101c-3.281-0.195-6.673-0.303-10.006-0.099    c-1.066,0.016-2.135,0.007-3.211-0.131c-1.405-0.179-2.738-0.608-4.173-0.533c-1.025,0.053-1.843,0.396-2.703,0.606    C70.405,43.536,70.364,41.782,70.805,41.272z M109.226,75.857c-2.013,0.047-4.021,0.181-6.021,0.38    c0.893-4.551,0.076-9.971,0.08-14.533c0.003-3.392-0.569-6.837-0.461-10.162c0.03-0.926,0.075-1.708,0.048-2.479    c1.212-0.143,2.37-0.513,3.59-0.587c1.061-0.064,1.965,0.257,2.971,0.333c0.154,0.012,0.29-0.006,0.437-0.006    C109.984,57.873,108.168,66.858,109.226,75.857z M99.431,76.156c-2.871-0.176-6.152,0.301-8.624,0.312    c-3.197,0.014-6.446-0.094-9.639,0.185c0.023-0.175,0.046-0.35,0.069-0.524c0.039-0.302-0.07-0.582-0.255-0.814    c-0.622-4.957-0.06-10.783,0.075-15.68c0.064-2.33,0.767-4.834,0.555-7.173c-0.094-1.037-0.355-2.117-0.649-3.19    c1.323,0.033,2.664-0.007,3.819-0.212c0.155-0.027,0.286-0.06,0.419-0.094c1.703,0.142,3.415,0.191,5.116,0.237    c2.109,0.057,4.425,0.228,6.604-0.033c0.893,0.086,1.829,0.126,2.78,0.102c-0.294,1.074-0.554,2.153-0.649,3.19    c-0.212,2.338,0.49,4.843,0.555,7.173c0.136,4.897,0.696,10.723,0.075,15.68c-0.185,0.232-0.295,0.512-0.255,0.814L99.431,76.156z     M77.458,76.237c-2-0.199-4.009-0.333-6.021-0.38c1.059-8.999-0.757-17.984-0.644-27.056c0.147,0,0.282,0.017,0.437,0.006    c1.008-0.076,1.912-0.397,2.971-0.333c1.22,0.074,2.378,0.444,3.59,0.587c-0.027,0.772,0.018,1.553,0.048,2.479    c0.107,3.326-0.464,6.772-0.461,10.162C77.381,66.264,76.565,71.685,77.458,76.237z M60.986,81.479    c6.456-1.021,12.887-0.428,19.335-1.006c4.579,0.549,9.338,0.233,13.891,0.254c1.475,0.006,4.409,0.365,6.583-0.21    c6.297,0.512,12.576-0.035,18.882,0.962c4.308,0.681,5.15,2.374,5.133,5.01c-0.91-0.322-1.828-0.582-3.065-0.586    c-3.558-0.009-7.086,0.624-10.679,0.604c-2.28-0.012-4.7-0.343-7.132-0.599c-3.781-0.956-7.972-1.148-11.803-0.736    c-2.687,0.289-5.405,0.391-8.109,0.604c-1.246-0.16-2.525-0.192-3.818-0.141c-0.322-0.076-0.662-0.062-0.983,0.052    c-3.252,0.215-6.562,0.804-9.622,0.82c-3.593,0.018-7.121-0.613-10.679-0.604c-1.238,0.002-2.155,0.263-3.066,0.586    C55.836,83.853,56.678,82.16,60.986,81.479z M56.624,130.4c0.072-9.182-0.543-18.304-0.48-27.496    c0.03-4.239,0.342-8.548-0.023-12.771c-0.014-0.162-0.028-0.314-0.043-0.471c0.384-0.068,0.831-0.139,1.485-0.168    c0.915-0.039,1.85-0.001,2.793,0.078c-1.502,1.917-1.142,5.83,0.678,7.249c0.751,0.585,1.708,0.983,2.75,1.28    c-1.145,4.812-1.2,10.18-1.568,15.029c-0.317,4.182-0.041,8.474-0.072,12.668c-0.063,8.904-1.253,18.89,0.586,27.786    c-2.32-0.195-4.638-0.308-6.956-0.313C57.343,145.938,56.567,137.781,56.624,130.4z M36.403,164.631    c-0.02-0.508,0.3-1.886,0.491-2.312c0.67-1.495-0.174-0.863,1.839-1.49c2.735-0.851,6.177-0.895,9.042-1.275    c3.404-0.45,6.867,0.093,10.242-0.504c0.582-0.102,1.153-0.229,1.728-0.347c1.699,0.131,3.615-0.321,5.086-0.502    c0.623-0.076,1.209-0.155,1.78-0.239c2.37,0.27,4.869,0.506,6.894-0.49c2.077-1.02,3.327-3.305,4.778-5.016    c3.363-3.965,6.448-4.789,11.391-5.79c0.248-0.051,0.467-0.148,0.657-0.279c0.19,0.131,0.408,0.228,0.657,0.279    c4.943,1.001,8.027,1.825,11.391,5.79c1.452,1.711,2.702,3.996,4.778,5.016c2.025,0.994,4.524,0.76,6.894,0.49    c0.571,0.084,1.158,0.163,1.78,0.239c1.471,0.181,3.387,0.634,5.086,0.502c0.575,0.117,1.146,0.244,1.728,0.347    c3.376,0.597,6.84,0.054,10.242,0.504c2.865,0.379,6.307,0.423,9.042,1.275c2.013,0.627,1.169-0.005,1.839,1.49    c0.191,0.425,0.511,1.804,0.491,2.312c-0.12,3.061-1.369,2.3-4.017,2.275c-3.278-0.031-6.406,0.474-9.654,0.651    c-4.658,0.255-9.805-0.178-14.616,0.354c-0.795-0.096-1.597-0.131-2.353-0.152c-2.013-0.054-4.018-0.524-6.032-0.485    c-1.295-1.368-2.406-2.996-3.565-4.477c-1.39-1.776-2.93-3.717-4.717-5.096c-0.12-0.255-0.312-0.495-0.588-0.691    c-4.585-3.235-9.99-3.12-14.893-0.713c-2.896,1.069-5.193,3.955-7.184,6.498c-1.159,1.481-2.271,3.109-3.565,4.477    c-2.014-0.039-4.019,0.43-6.032,0.485c-0.756,0.021-1.558,0.055-2.353,0.152c-4.812-0.532-9.958-0.099-14.616-0.354    c-3.248-0.178-6.375-0.682-9.654-0.651C37.772,166.931,36.523,167.692,36.403,164.631z M135.055,241.714    c-0.049,1.702-0.194,2.89-0.143,4.057c-3.001,0.355-6.011,0.881-8.951,1.067c-4.758,0.302-9.424,1.058-14.188,1.385    c2.037-5.097,1.473-12.339,1.411-17.324c-0.074-5.983-0.878-12.208-2.155-18.044c-1.147-5.24-5.255-9.848-10.282-11.973    c-3.107-3.388-8.934-3.144-13.157-2.56c-3.72,0.513-6.82,1.367-9.427,3.437c-4.206,2.37-7.518,6.482-8.527,11.097    c-1.276,5.836-2.081,12.063-2.155,18.044c-0.062,4.985-0.626,12.227,1.411,17.324c-4.764-0.328-9.431-1.083-14.188-1.385    c-2.941-0.186-5.951-0.712-8.951-1.067c0.051-1.168-0.094-2.357-0.143-4.057c-0.118-4.076,0.301-8.17,0.147-12.254    c-0.242-6.39-1.278-12.729-1.522-19.1c-0.278-7.216-0.523-14.616-0.319-21.832c0.137-4.823,0.989-9.643,0.009-14.397    c8.1,0.556,17.012,2.703,24.698,0.672c1.978,0.105,3.934-0.289,5.861-1.682c3.23-2.335,5.245-5.978,7.902-8.872    c1.645-1.792,3.819-2.75,5.516-4.24c1.236-0.34,2.518-0.503,3.843-0.451c0.211,0.009,0.412,0.032,0.615,0.054    c1.744,1.724,4.143,2.695,5.926,4.638c2.656,2.895,4.672,6.538,7.902,8.872c1.926,1.392,3.881,1.787,5.861,1.682    c7.686,2.031,16.598-0.116,24.698-0.672c-0.982,4.756-0.128,9.574,0.009,14.397c0.203,7.217-0.042,14.617-0.319,21.832    c-0.245,6.371-1.281,12.71-1.522,19.1C134.754,233.543,135.173,237.639,135.055,241.714z M72.316,236.455    c-0.031-4.979,0.222-10.12,0.878-15.041c0.613-4.598,1.506-9.666,4.299-13.437c1.132-1.528,2.439-2.647,3.863-3.553    c1.745-0.416,3.494-0.826,5.301-1.036c3.839-0.448,7.564,0.027,11.346,0.279c1.939,1.019,3.697,2.325,5.167,4.309    c2.793,3.77,3.686,8.839,4.299,13.437c0.656,4.921,0.909,10.061,0.878,15.041c-0.025,3.859-0.946,8.22,0.226,11.91    c-1.575-0.004-3.32-0.201-5.053-0.285c-5.444-0.747-10.954-0.814-16.47-0.492c-2.668,0.155-5.352,0.306-8.035,0.465    c-2.317-0.057-4.778,0.307-6.922,0.312C73.262,244.676,72.34,240.315,72.316,236.455z M38.179,255.32    c-0.181-0.118-0.319-0.278-0.443-0.45c0.004-0.015,0.006-0.026,0.011-0.041c-0.015-0.56-0.028-1.121-0.042-1.681    c1.036-2.09,6.303-0.573,8.801-0.511c4.463,0.113,8.988,0.443,13.4,1.035c4.267,0.572,8.505,0.773,12.803,0.518    c1.117-0.067,2.251-0.317,3.384-0.622c3.393,0.154,6.832,0.004,10.237,0.027c4.585,0.032,9.185-0.249,13.767,0.044    c1.993,0.128,3.853,0.28,5.694,0.222c0.725,0.158,1.448,0.285,2.164,0.328c4.298,0.255,8.536,0.054,12.803-0.518    c4.411-0.592,8.938-0.921,13.401-1.035c2.497-0.063,7.765-1.58,8.801,0.511c-0.014,0.56-0.028,1.121-0.042,1.681    c0.005,0.015,0.006,0.026,0.011,0.041c-0.123,0.173-0.261,0.332-0.443,0.45c-0.545,0.355-1.507,0.166-2.109,0.192    c-0.411,0.018-0.689,0.064-0.942,0.175c-1.375-0.08-2.895-0.243-3.558-0.178c-4.686,0.459-9.379,0.73-14.078,1.019    c-6.174,0.38-12.227,0.649-18.426,0.585c-1.782-0.018-3.366-0.107-4.846,0.146c-4.086-0.787-8.515-0.205-12.688-0.094    c-3.055,0.081-6.086-0.322-9.125-0.18c-0.374,0.017-0.763,0.065-1.159,0.123c-5.594,0.004-11.092-0.236-16.685-0.581    c-4.699-0.289-9.391-0.561-14.078-1.019c-0.662-0.065-2.183,0.099-3.558,0.178c-0.253-0.11-0.532-0.157-0.942-0.175    C39.686,255.487,38.724,255.676,38.179,255.32z M32.373,281.774c4.638,0.768,9.695-0.495,14.323-0.742    c2.996-0.16,6.06,0.422,9.079,0.281c0.282-0.014,0.673-0.067,1.124-0.141c1.015,0.006,2.019,0.007,2.976,0.063    c3.336,0.194,7.073,0.814,10.452,0.361c-0.134,5.061,0.676,10.658,4.165,14.45c0.878,0.956,1.93,1.778,3.087,2.494    c-3.836-0.939-7.925-0.561-11.943-0.591c-6.422-0.047-12.385-0.456-18.773-0.002c-3.48,0.248-7.031,1.043-10.527,0.883    c-1.47-0.068-2.82-0.15-4.145-0.211c0.699-4.406-0.667-9.047-0.534-13.512C31.704,283.52,31.961,282.461,32.373,281.774z     M24.259,312.282c-0.306-1.46-0.014-5.227,0.539-7.165c0.165-0.018,0.395-0.059,0.77-0.144c1.601-0.365,3.443-0.334,5.056-0.344    c2.859-0.016,5.62,0.244,8.484-0.08c4.948-0.56,9.88-0.815,14.813-1.292c5.137-0.497,10.467,0.173,15.706-0.102    c3.047-0.16,7.105,0.734,10.245-0.146c3.988,0.945,8.886,0.612,12.408,0.659c3.258,0.043,6.543-0.079,9.814-0.395    c2.904,0.395,6.303-0.256,8.945-0.118c5.238,0.275,10.569-0.395,15.706,0.102c4.933,0.477,9.865,0.733,14.813,1.292    c2.864,0.324,5.626,0.064,8.484,0.08c1.613,0.01,3.456-0.021,5.056,0.344c0.375,0.085,0.604,0.126,0.77,0.144    c0.552,1.939,0.845,5.705,0.539,7.165c-0.475,2.264-1.126,1.136-4.185,1.355c-6.3,0.451-12.438,0.361-18.755,0.033    c-6.656-0.345-13.334,0.877-19.936,0.348c-4.788-0.384-9.01-0.59-13.483,0.375c-3.056,0.257-6.059,0.504-8.892,0.488    c-3.097-0.016-6.396-0.221-9.713-0.307c-4.784-1.182-9.226-0.963-14.309-0.556c-6.601,0.529-13.28-0.693-19.936-0.348    c-6.316,0.328-12.455,0.418-18.755-0.033C25.385,313.418,24.734,314.546,24.259,312.282z M149.322,364.111    c0.02,3.644-0.951,7.221-0.728,10.838c-3.869-0.003-7.798,0.422-11.477,0.688c-5.288,0.384-10.672-0.094-16.01,0.03    c-8.444-1.096-17.411-0.196-25.683-0.191c-6.778,0.004-13.556,0.164-20.331,0.189c-2.917,0.011-5.906-0.612-8.811-0.136    c-0.65,0.106-1.262,0.285-1.865,0.476c-6.914-0.82-13.974,0.133-20.873-0.368c-3.679-0.266-7.608-0.691-11.477-0.688    c0.224-3.616-0.746-7.194-0.728-10.838c0.027-5.137,0.3-10.452-0.197-15.562c-0.908-9.319,0.006-19.234-1.643-28.502    c2.656,0.195,5.293,0.4,7.998,0.375c7.979-0.07,15.734-0.544,23.704-0.056c2.608,0.16,5.371,0.173,8.159,0.031    c6.544,1.464,14.711,0.402,20.817,0.414c4.948,0.01,9.88-0.502,14.794-0.93c0.147-0.012,0.297-0.021,0.444-0.033    c4.712,0.65,9.6,0.789,14.045,0.518c7.969-0.488,15.724-0.015,23.704,0.056c2.705,0.023,5.341-0.18,7.998-0.375    c-1.649,9.268-0.735,19.184-1.643,28.502C149.023,353.658,149.295,358.974,149.322,364.111z M149.507,467.249    c-0.132,7.199-0.157,14.285-0.921,21.431c-0.343,3.207-0.094,6.848-0.831,10.011c-0.767,3.29-2.196,3.025-5.16,3.335    c-7.232,0.754-14.496,1.645-21.774,1.81c-5.623,0.128-11.44,1.575-16.924,1.135c-0.398-0.032-0.734,0.038-1.019,0.168    c-5.609,0.032-11.211-0.109-16.808-0.205c-5.677-0.097-11.492-1.091-17.155-0.64c-0.789,0.063-1.697,0.075-2.656,0.079    c-2.148-0.252-4.297-0.487-6.417-0.535c-7.278-0.165-14.542-1.057-21.775-1.81c-2.964-0.308-4.392-0.043-5.16-3.335    c-0.737-3.162-0.488-6.804-0.831-10.011c-0.765-7.146-0.789-14.232-0.922-21.433c-0.131-7.043,0.372-13.968,0.997-20.949    c0.557-6.239-0.026-12.776-0.08-19.049c-0.057-6.655,0.958-13.615,0.364-20.206c-0.211-2.335,0.016-5.786-0.321-8.807    c0.548-0.048,1.088-0.095,1.606-0.128c3.859-0.249,7.253-0.224,11.083,0.017c2.853,0.179,5.8-0.239,8.679-0.131    c3.357,0.126,6.853-0.233,10.21-0.377c2.832-0.122,6.385,0.057,9.669-0.411c6.429,0.033,12.951-0.54,19.041-0.425    c4.49,0.085,8.994,0.075,13.488,0.18c3.648,0.776,7.836,0.517,11.08,0.657c0.206,0.009,0.416,0.023,0.623,0.033    c1.175,0.096,2.358,0.171,3.536,0.201c2.028,0.121,4.064,0.218,6.052,0.143c2.88-0.109,5.827,0.31,8.679,0.131    c3.831-0.24,7.223-0.266,11.083-0.017c0.518,0.033,1.058,0.08,1.606,0.128c-0.335,3.02-0.11,6.472-0.319,8.807    c-0.594,6.591,0.422,13.551,0.364,20.206c-0.054,6.274-0.638,12.809-0.08,19.049C149.135,453.281,149.637,460.206,149.507,467.249    z M145.122,391.681c-4.53-0.366-9.3-0.75-13.813-0.488c-2.084,0.121-4.166,0.298-6.25,0.477    c-4.267-0.622-8.984-0.305-12.945-0.369c-6.567-0.106-13.133-0.295-19.712-0.372c-5.827-0.069-11.509,0.518-17.341,0.221    c-4.731-0.242-10.043-0.205-14.806,0.894c-3.648-0.264-7.27-0.641-10.902-0.851c-4.513-0.261-9.284,0.122-13.813,0.488    c-2.008,0.163-5.343,0.872-7.275,0.363c-3.392-0.892-4.381-4.788-3.187-7.817c1.655-4.196,10.044-2.967,14.05-2.874    c4.785,0.111,9.199-0.264,14.026-0.419c5.311-0.171,10.445,0.372,15.68,0.419c1.891,0.017,3.799-0.141,5.708-0.361    c6.596,0.264,13.252,0.095,19.763,0.099c3.708,0.003,7.407-0.085,11.101-0.187c2.147,0.265,4.293,0.469,6.419,0.45    c5.235-0.047,10.369-0.591,15.68-0.419c4.827,0.155,9.241,0.53,14.026,0.419c4.006-0.094,12.396-1.323,14.05,2.874    c1.194,3.028,0.203,6.924-3.187,7.817C150.464,392.552,147.13,391.844,145.122,391.681z M176.746,486.321    c-0.02,5.899-0.834,11.789-0.4,17.659c-4.258,0.009-8.517,0.042-12.762-0.058c-0.148-2.256,0.599-6.159,0.666-8.17    c0.107-3.239-0.491-6.307-0.485-9.506c0.01-5.101,1.246-19.592,9.731-16.341C178.289,471.74,176.759,481.915,176.746,486.321z     M186.253,463.358c-0.545,6.874,0.363,13.791-0.273,20.675c-0.575,6.221-1.506,13.784-0.109,20.056    c-1.743-0.059-3.488-0.085-5.234-0.1c0.364-4.527,0.502-9.139,0.475-13.672c-0.028-4.765,0.721-10.188-0.125-14.892    c-1.033-5.75-3.807-10.425-10.374-9.743c-7.445,0.773-9.356,9.025-9.898,14.955c-0.476,5.195,0.2,9.951,0.141,15.116    c-0.031,2.671-0.709,5.56-0.046,8.133c-2.508-0.036-5.032-0.037-7.564,0.014c0.349-0.713,0.644-1.533,0.881-2.491    c1.517-6.145,1.934-13.319,1.839-19.618c-0.125-8.274,0.422-16.818-0.476-25.046c-0.239-2.193-0.433-4.385-0.603-6.58    c0.199,0.031,0.4,0.06,0.603,0.091c4.672,0.719,9.747,1.191,14.48,1.227c3.771,0.028,7.3-0.248,11.017-0.55    c2.061-0.168,3.845-0.053,5.621-0.221C186.63,454.94,186.586,459.166,186.253,463.358z M186.574,446.394    c-6.895,0.375-14.286,0.539-20.981-0.064c-0.91-0.083-7.123-0.728-10.995-0.254c-0.163-2.772-0.255-5.552-0.313-8.339    c5.264,0.672,10.935-0.303,16.197,0.168c5.243,0.47,10.758,0.694,16.072,0.319c-0.009,0.846-0.016,1.692-0.016,2.536    C186.537,442.634,186.555,444.512,186.574,446.394z M186.622,433.462c-5.571-0.361-11.186,0.063-16.753-0.423    c-5.174-0.453-10.522-0.264-15.659,0.793c-0.086-7.78-0.374-15.442-0.798-23.192c-0.18-3.294,0.694-6.482,0.539-9.771    c-0.03-0.643-0.276-1.501-0.534-2.395c1.095-0.037,2.167-0.164,3.161-0.474c5.66-1.764,5.526-7.392,5.396-12.318    c-0.127-4.811-0.572-8.737-5.737-9.96c-0.265-0.063-0.539-0.097-0.807-0.152c0.018-0.128,0.052-0.247,0.06-0.382    c0.263-4.632,0.121-9.348,0.032-14.059c2.078,0.207,4.302-0.379,5.694-1.743c4.048-3.97,0.113-10.559,4.206-14.944    c2.798-2.999,8.825-4.405,10.603,0.594c1.156,3.252-0.723,7.582-0.411,11.005c0.465,5.086,5.311,4.961,9.374,4.156    c-0.169,5.153-0.167,10.321,0.017,15.525c0.492,13.916,0.557,27.977,1.448,41.856    C186.791,422.832,186.708,428.158,186.622,433.462z M187.3,311.281c-0.445-5.163,4.43-10.775,9.729-7.444    c3.199,2.011,4.4,8.941,2.23,11.928c-2.407,3.313-6.057,2.897-8.975,1.071C188.85,315.125,187.507,313.682,187.3,311.281z     M197.083,323.914c-1.427-0.015-2.843-0.036-4.206-0.057c-0.704-0.011-1.433-0.038-2.158-0.039    c0.072-0.499,0.158-0.999,0.169-1.508c0.005-0.231,0.005-0.47-0.001-0.71c2.131,0.644,4.265,0.783,6.33,0.158    c-0.106,0.344-0.186,0.696-0.2,1.067C197.004,323.172,197.036,323.541,197.083,323.914z M198.454,504.555    c-2.275-0.032-4.547-0.086-6.81-0.196c1.396-6.155-0.026-13.026,0.511-19.286c0.631-7.373-0.323-14.78,0.355-22.13    c0.606-6.554,0.182-13.303,0.176-19.885c-0.007-8.148,0.397-16.429-0.075-24.561c-0.786-13.539-1.061-27.153-1.709-40.716    c-0.523-10.942-0.55-21.83-0.824-32.744c0.358-3.432,0.518-6.899,0.516-10.141c-0.001-0.889-0.566-4.141-0.179-5.134    c0.009,0,0.014,0,0.022-0.001c0.66-0.006,1.318,0.025,1.974,0.094c1.718,0.056,3.43-0.158,5.13-0.254    c-0.212,28.864-0.115,57.836-0.221,86.736c-0.025,6.774,0.858,13.54,0.807,20.331c-0.054,7.024,0.233,14.207,0.768,21.2    C200.076,473.303,198.646,489.078,198.454,504.555z M250.087,299.415c2.261-2.414,4.869-5.182,5.514-8.333    c1.149,2.689,2.786,5.463,4.673,6.546c0.548,0.615,1.105,1.212,1.644,1.787c3.099,3.308,6.149,3.654,9.568,4.05    c-0.969,6.903-1.107,13.545-1.117,20.728c-0.01,7.056-1.026,15.426-0.347,22.992c-0.023,0.425-0.051,0.851-0.094,1.279    c-0.121,1.221-0.331,2.687-0.317,4.102c-3.633-2.39-8.246-3.633-12.312-3.995c-2.452-0.218-4.689-0.127-6.742,0.312    c-3.05-0.17-6.361,0.967-9.174,2.613c1.724-8.568,0.265-18.877,0.254-27.304c-0.01-7.183-0.148-13.825-1.119-20.728    C243.938,303.07,246.987,302.723,250.087,299.415z M271.646,362.844c3.537,11.287-4.42,24.703-17.086,23.543    c-12.441-1.138-25.117-10.818-18.415-24.223C241.872,350.71,267.305,348.992,271.646,362.844z M240.262,392.484    c0-1.36,0.186-3.469,0.137-5.586c6.007,3.859,13.739,5.417,20.428,3.775c4.568-1.121,8.267-3.717,10.97-7.125    c-0.115,2.589-0.195,5.148-0.158,7.773c0.073,5.096-0.36,10.207,0.393,15.221c-0.106,3.977-0.155,7.957-0.202,11.943    c-4.71-0.797-10.684,0.005-14.69,0.147c-3.506,0.125-6.936,0.419-10.459,0.31c-2.13-0.065-4.351-0.323-6.503-0.195    c-0.046-3.964-0.095-7.923-0.196-11.879C240.383,402.069,240.264,397.115,240.262,392.484z M232.752,305.379    c0.43-0.21,0.873-0.407,1.338-0.578c1.449-0.535,2.813-0.829,4.12-1.032c-0.725,6.744-0.31,13.688-0.318,20.424    c-0.007,5.166-0.015,10.334-0.021,15.5c-0.006,4.646-0.709,9.67,0.102,14.247c-0.295,0.258-0.578,0.518-0.841,0.778    c-1.563,1.551-2.935,3.33-4.038,5.259c-0.097-0.872-0.243-1.746-0.236-2.52c0.015-1.479,0.113-3.131-0.201-4.622    c0-0.01,0.001-0.019,0.001-0.028c0.273-5.557-0.002-11.195-0.027-16.759C232.589,326.038,234.047,315.406,232.752,305.379z     M200.76,344.91c0.195-4.922,0.68-10.336-0.28-15.311c4.964,0.229,10.097,1.088,14.889-0.945c4.069-1.725,4.855-5.623,6.541-9.393    c1.866-4.173,3.975-8.485,7.323-11.495c-0.828,8.222-0.377,17.13-0.413,25.083c-0.022,5.003-0.053,10.008-0.046,15.012    c0.005,3.703-0.5,8.036,0.063,11.657c0.026,0.164,0.281,0.93,0.437,1.246c-0.218-0.003-0.435-0.011-0.652-0.039    c-4.236-0.551-8.738-0.84-13.007-0.371c-1.154,0.127-13.169,0.508-14.69,0.889C200.757,355.791,200.546,350.32,200.76,344.91z     M200.995,363.759c4.254,1.289,10.506,0.696,14.454,0.381c4.038-0.322,8.068-0.028,12.099-0.234    c0.752-0.038,2.812-0.718,3.422-0.086c0.625,0.646-0.495,3.63-0.575,4.52c-1.905-0.095-3.807,0.201-5.72,0.028    c-0.802-0.073-1.619-0.15-2.432-0.184c-2.953-0.315-5.963-0.139-8.993-0.118c-4.035,0.027-8.195-0.211-12.166,0.571    C201.073,367.015,201.038,365.389,200.995,363.759z M201.604,415.281c-0.305-14.605-0.416-29.181-0.503-43.793    c3.966,0.778,8.119,0.54,12.148,0.569c3.128,0.021,6.235,0.201,9.279-0.158c1.18,0.155,2.348,0.382,3.539,0.4    c1.343,0.019,2.955,0.044,4.366-0.298c0.538,4.606,2.771,8.591,5.974,11.727c-0.307,4.985-0.17,9.946,0.169,14.904    c-0.356,6.724-0.438,13.456-0.517,20.202c-2.416,0.078-4.783,0.239-6.978,0.371c-8.655,0.522-18.898-1.339-27.343,1.082    C201.69,418.617,201.638,416.948,201.604,415.281z M268.581,483.203c0.147,5.299-0.1,10.517-0.47,15.787    c-0.1,1.427-0.538,3.485-0.694,5.467c-1.271,0.072-2.532,0.234-3.688,0.629c-4.257,0.12-8.54,0.226-12.776,0.201    c-0.714-0.004-1.432,0.01-2.148,0.019c-2.507-1.055-5.604-0.865-8.265-0.922c-0.733-0.016-1.466-0.021-2.2-0.03    c0.138-3.653-0.1-7.434-0.064-11.104c0.054-5.566,0.315-11.072,0.726-16.62c0.462-6.227,1.59-12.835,4.683-18.341    c4.156-7.4,9.549-9.389,17.109-5.578C270.564,457.633,268.329,474.16,268.581,483.203z M309.012,504.584    c-7.156-0.012-14.333-0.237-21.43-0.233c-5.169,0.003-10.347-0.074-15.516,0.025c0.149-1.865,0.525-4.354,0.592-5.385    c0.203-3.161,0.453-6.287,0.442-9.457c-0.028-7.765,0.255-15.792-0.659-23.501c-1.28-10.796-6.592-18.849-18.264-19.529    c-12.29-0.715-17.228,14.084-18.915,23.981c-1.13,6.626-1.269,13.655-1.217,20.358c0.032,4.071-0.531,9.093,0.271,13.484    c-3.299-0.001-6.599,0.026-9.896,0.025c-7.096-0.004-14.274,0.221-21.43,0.233c-0.047-15.462,0.887-30.98,0.277-46.438    c-0.328-8.332-0.731-16.69-1.077-25.047c3.006,0.618,6.207,0.421,9.234,0.551c4.246,0.183,8.887,0.425,13.142,0.093    c4.748-0.372,9.457-0.442,14.231-0.328c2.347,0.056,4.939,0.132,7.37-0.302c2.629,0.248,5.309,0.319,8.098,0.324    c4.848,0.009,10.884,0.71,16.174,0.021c0.941,0.001,1.87-0.022,2.761-0.043c4.774-0.113,9.484-0.044,14.231,0.328    c4.255,0.333,8.896,0.09,13.142-0.093c3.026-0.131,6.229,0.067,9.234-0.551c-0.345,8.357-0.749,16.715-1.077,25.047    C308.125,473.604,309.06,489.121,309.012,504.584z M309.926,430.248c-7.438-2.135-15.946-0.133-23.471-0.794    c-4.193-0.367-8.442-0.259-12.658-0.137c-6.18-1.829-13.26-0.446-19.528-0.265c-4.892,0.141-11.023-0.967-15.978,0.268    c-4.242-0.123-8.52-0.237-12.74,0.134c-7.524,0.66-16.033-1.341-23.471,0.794c-0.1-2.547-0.195-5.095-0.277-7.64    c4.402,1.17,9.178,0.811,13.707,0.86c4.841,0.051,9.66,0.046,14.491-0.258c4.629-0.29,9.055-0.036,13.659,0.295    c2.542,0.182,4.871,0.618,7.215-0.369c2.12,0.028,4.225,0.003,6.266-0.025c1.375-0.018,2.925,0.1,4.552,0.244    c1.402,0.46,2.808,0.456,4.262,0.349c2.722,0.17,5.429,0.15,7.736-0.512c2.753-0.121,5.496-0.158,8.312,0.018    c4.831,0.303,9.652,0.308,14.491,0.258c4.529-0.047,9.305,0.311,13.707-0.86C310.119,425.153,310.025,427.701,309.926,430.248z     M310.402,415.281c-0.034,1.667-0.088,3.336-0.137,5.005c-8.447-2.422-18.689-0.56-27.343-1.082    c-2.195-0.132-4.562-0.294-6.978-0.371c-0.058-4.989-0.115-9.971-0.285-14.947c0.424-3.866,0.006-8.121,0.052-11.499    c0.06-4.43,1.32-10.753-0.36-15.167c0.652-1.728,1.127-3.531,1.39-5.37c3.134,0.733,6.961,0.332,9.953,0.122    c0.802-0.057,1.659-0.08,2.538-0.106c3.121,0.4,6.313,0.213,9.525,0.191c4.029-0.027,8.182,0.21,12.148-0.569    C310.818,386.1,310.707,400.676,310.402,415.281z M310.923,368.637c-3.971-0.782-8.131-0.544-12.166-0.571    c-1.038-0.007-2.074-0.032-3.107-0.051c-4.011-1.405-8.55-0.331-12.779-0.338c-0.898-0.001-3.654-0.472-5.894-0.286    c-0.107-3.108-0.789-6.19-2.108-9.017c-0.238-0.509-0.513-0.992-0.818-1.453c0.038-0.887,0.035-1.807,0.035-2.68    c0-0.171-0.009-0.365-0.015-0.554c0.744-4.509,0.069-9.435,0.063-13.995c-0.007-5.166-0.015-10.334-0.021-15.5    c-0.009-6.735,0.407-13.681-0.318-20.424c1.307,0.203,2.671,0.497,4.12,1.032c0.465,0.171,0.908,0.369,1.338,0.578    c-1.295,10.027,0.163,20.659,0.12,30.668c-0.025,5.565-0.3,11.202-0.027,16.759c0.031,0.625,0.054,1.21,0.112,1.762    c-0.001,0.162,0.004,0.322-0.002,0.483c-0.079,2.114-1.165,5.708,0.353,7.517c1.375,1.639,4.685,1.447,6.577,1.574    c1.08,0.073,2.19-0.011,3.282-0.219c2.194,0.313,4.345,0.015,6.889,0.217c3.948,0.314,10.2,0.908,14.454-0.381    C310.968,365.389,310.932,367.015,310.923,368.637z M311.245,344.91c0.215,5.41,0.004,10.88-0.164,16.331    c-1.521-0.381-13.535-0.762-14.69-0.889c-1.341-0.147-2.777-0.216-4.209-0.146c-2.853-0.895-6.06-0.088-9.081-0.668    c-0.094-0.846,0.006-2.047-0.039-2.679c-0.091-1.257-0.142-2.497-0.281-3.743c0.211-1.748,0.449-3.523,0.451-5.255    c0.006-5.003-0.023-10.008-0.046-15.012c-0.036-7.952,0.414-16.86-0.413-25.083c3.348,3.01,5.457,7.322,7.323,11.495    c1.686,3.77,2.473,7.667,6.541,9.393c4.793,2.032,9.925,1.173,14.889,0.945C310.566,334.575,311.049,339.988,311.245,344.91z     M321.103,377.782c-0.649,13.564-0.922,27.177-1.709,40.716c-0.472,8.132-0.068,16.413-0.075,24.561    c-0.006,6.581-0.429,13.331,0.176,19.885c0.68,7.35-0.276,14.757,0.355,22.13c0.536,6.26-0.885,13.131,0.511,19.286    c-2.263,0.11-4.535,0.164-6.81,0.196c-0.192-15.476-1.622-31.251-0.443-46.687c0.534-6.993,0.821-14.177,0.768-21.2    c-0.052-6.79,0.831-13.556,0.807-20.331c-0.106-28.9-0.007-57.872-0.221-86.736c1.699,0.096,3.413,0.31,5.13,0.254    c0.657-0.069,1.315-0.1,1.974-0.094c0.009,0,0.014,0,0.022,0.001c0.387,0.993-0.178,4.245-0.179,5.134    c-0.002,3.242,0.158,6.709,0.516,10.141C321.654,355.95,321.627,366.839,321.103,377.782z M321.286,323.818    c-0.724,0.001-1.454,0.028-2.158,0.039c-1.364,0.021-2.779,0.042-4.206,0.057c0.048-0.374,0.079-0.742,0.065-1.089    c-0.015-0.371-0.095-0.723-0.2-1.067c2.066,0.625,4.199,0.487,6.33-0.158c-0.006,0.241-0.006,0.48-0.001,0.71    C321.127,322.819,321.215,323.319,321.286,323.818z M321.719,316.835c-2.918,1.826-6.566,2.242-8.973-1.071    c-2.171-2.987-0.969-9.917,2.23-11.928c5.299-3.331,10.175,2.282,9.729,7.444C324.498,313.682,323.155,315.125,321.719,316.835z     M479.631,281.774c0.413,0.687,0.668,1.744,0.716,3.335c0.133,4.463-1.233,9.105-0.534,13.512    c-1.325,0.06-2.676,0.143-4.145,0.211c-3.495,0.162-7.047-0.635-10.527-0.883c-6.388-0.454-12.351-0.044-18.773,0.002    c-4.018,0.03-8.108-0.348-11.943,0.591c1.158-0.715,2.209-1.538,3.087-2.494c3.489-3.794,4.299-9.389,4.165-14.45    c3.379,0.453,7.117-0.168,10.452-0.361c0.957-0.055,1.961-0.057,2.976-0.063c0.451,0.074,0.841,0.128,1.124,0.141    c3.019,0.139,6.084-0.442,9.079-0.281C469.937,281.28,474.993,282.543,479.631,281.774z M375.769,272.319    c-0.208-3.679,0.238-7.519-0.733-11.021c1.413,0.011,2.833,0.064,4.304,0.196c6.709,0.601,13.553,1.191,20.309,1.211    c3.935,0.011,7.889-0.17,11.821-0.089c0.046,0.001,0.085,0.004,0.13,0.005c-4.164,3.049-7.492,7.895-8.881,12.419    c-0.142,0.461-0.258,0.934-0.363,1.412c-0.132-0.038-0.269-0.065-0.414-0.074c-0.143-0.009-0.516,0.021-0.948,0.068    c-0.815-0.084-1.685-0.081-2.508-0.043c-0.207-0.106-0.416-0.195-0.606-0.213c-4.516-0.45-8.87,0.493-13.361,0.519    c-2.919,0.017-5.794,0.074-8.651,0.265C376.073,275.467,375.854,273.81,375.769,272.319z M407.693,276.411    c2.016-6.495,8.638-12.787,15.691-12.211c5.948,2.163,11.445,5.261,12.98,12.189c0.842,3.802,0.564,9.13-0.84,12.767    c-2.199,5.694-8.502,7.028-13.958,7.593c-4.855,0.503-8.928-0.998-11.565-5.41C407.662,287.423,406.345,280.751,407.693,276.411z     M467.482,276.973c-2.858-0.191-5.732-0.248-8.653-0.265c-4.493-0.026-8.845-0.969-13.361-0.519    c-0.19,0.019-0.398,0.109-0.606,0.213c-0.824-0.037-1.693-0.039-2.508,0.043c-0.432-0.048-0.804-0.078-0.948-0.068    c-0.12,0.007-0.229,0.033-0.34,0.06c-1.373-5.51-5.19-10.875-10.085-13.787c0.286-0.015,0.581-0.028,0.895-0.036    c3.933-0.081,7.886,0.1,11.821,0.089c6.756-0.02,13.599-0.609,20.309-1.211c1.471-0.132,2.891-0.185,4.304-0.196    c-0.971,3.501-0.523,7.342-0.733,11.021C467.493,273.81,467.274,275.467,467.482,276.973z M449.859,125.797    c-0.03-4.194,0.247-8.487-0.072-12.668c-0.369-4.849-0.424-10.216-1.568-15.029c1.042-0.297,1.999-0.696,2.75-1.28    c1.82-1.418,2.182-5.331,0.678-7.249c0.943-0.079,1.877-0.117,2.793-0.078c0.655,0.028,1.101,0.099,1.485,0.168    c-0.015,0.157-0.03,0.311-0.043,0.471c-0.364,4.223-0.052,8.532-0.022,12.771c0.063,9.19-0.551,18.314-0.48,27.496    c0.057,7.381-0.719,15.538,0.847,22.871c-2.317,0.005-4.636,0.117-6.956,0.313C451.112,144.688,449.922,134.702,449.859,125.797z     M445.112,111.633c0.555,4.674,0.208,9.451,0.175,14.164c-0.038,5.308-0.121,10.627-0.035,15.935    c0.064,3.881-0.721,7.908-0.397,11.772c-2.254-0.263-4.33-0.961-6.369-2.945c-0.402-0.391-0.787-0.775-1.164-1.153    c2.195-7.184,0.08-15.69-0.027-23.002c-0.128-8.751,1.207-18.518-0.684-27.182c1.375,0.047,2.759-0.072,3.869-0.163    c1.453-0.121,3.283-0.189,5.082-0.424C444.652,102.855,444.61,107.41,445.112,111.633z M445.181,94.7    c-1.379,0.143-2.717,0.486-4.09,0.659c-2.258,0.282-6.435,0.96-7.029-1.701c-0.226-1.013-0.27-2.395-0.259-3.6    c0.279,0.023,0.557,0.042,0.839,0.074c2.885,0.331,5.715,0.295,8.626,0.275c2.031-0.014,4.13-0.337,6.213-0.599    c-0.258,0.709-0.371,1.54-0.396,1.736c-0.056,0.454,0.078,1.817-0.146,2.184C448.274,94.825,446.25,94.59,445.181,94.7z     M433.122,126.404c-0.027,3.738,0.705,7.284,0.647,10.982c-0.044,2.786-0.255,5.734,0.009,8.573    c-3.01-2.673-6.1-4.298-11.446-3.473c-0.25,0.038-0.467,0.125-0.657,0.239c-0.189-0.116-0.406-0.201-0.657-0.239    c-5.346-0.825-8.436,0.8-11.446,3.473c0.263-2.839,0.052-5.787,0.007-8.573c-0.058-3.699,0.675-7.244,0.647-10.982    c-0.064-8.803,1.168-18.872-0.84-27.565c0.729-0.22,1.392-0.543,1.926-1.025c1.674-1.51,2.193-5.058,2.015-7.956    c1.273-0.059,2.526-0.171,3.76-0.423c0.977-0.039,1.914-0.06,2.758,0.006c2.402,0.19,4.804,0.253,7.197,0.146    c0.98,0.149,1.972,0.226,2.976,0.271c-0.178,2.897,0.343,6.446,2.015,7.956c0.534,0.481,1.198,0.805,1.926,1.025    C431.953,107.532,433.186,117.601,433.122,126.404z M406.053,126.404c-0.107,7.312-2.222,15.818-0.027,23.002    c-0.379,0.379-0.763,0.762-1.164,1.153c-2.04,1.984-4.114,2.682-6.369,2.945c0.324-3.864-0.461-7.891-0.397-11.772    c0.088-5.308,0.004-10.627-0.033-15.935c-0.033-4.714-0.38-9.489,0.175-14.164c0.501-4.224,0.46-8.78-0.449-12.999    c1.798,0.236,3.63,0.305,5.082,0.424c1.11,0.092,2.494,0.21,3.869,0.163C404.845,107.886,406.182,117.653,406.053,126.404z     M402.257,95.359c-1.373-0.173-2.711-0.516-4.09-0.659c-1.07-0.111-3.093,0.125-3.759-0.972c-0.223-0.367-0.09-1.73-0.146-2.184    c-0.023-0.196-0.138-1.026-0.396-1.736c2.082,0.261,4.181,0.585,6.213,0.599c2.912,0.02,5.741,0.055,8.626-0.275    c0.28-0.032,0.559-0.051,0.837-0.074c0.011,1.205-0.033,2.587-0.259,3.6C408.692,96.318,404.516,95.641,402.257,95.359z     M422.016,27.527c4.476-0.26,6.681,4.937,9.385,8.422c-0.075,0.007-0.15,0.018-0.226,0.026c-2.822-0.425-5.82-0.543-8.569-0.331    c-2.425,0.187-4.645,0.191-7.069,0.121C417.421,32.796,417.694,27.778,422.016,27.527z M402.148,41.272    c1.119-1.292,4.728-0.876,6.239-0.842c3.495,0.078,6.252,0.303,9.272-0.482c1.269,0.018,2.496-0.081,3.414-0.154    c1.111-0.088,2.242-0.15,3.374-0.213c3.533,1.231,6.544,0.937,10.514,0.85c1.511-0.033,5.121-0.45,6.239,0.842    c0.442,0.511,0.401,2.266,0.275,3.97c-0.862-0.21-1.68-0.553-2.703-0.606c-1.437-0.075-2.769,0.354-4.173,0.533    c-1.077,0.137-2.146,0.146-3.211,0.131c-3.332-0.205-6.725-0.096-10.006,0.099c-2.738,0.163-6.245-0.538-9.198-0.101    c-1.138,0.02-2.282,0.018-3.432-0.128c-1.405-0.179-2.738-0.608-4.173-0.533c-1.025,0.053-1.841,0.396-2.703,0.606    C401.746,43.536,401.705,41.782,402.148,41.272z M440.568,75.857c-2.013,0.047-4.021,0.181-6.021,0.38    c0.893-4.551,0.076-9.971,0.08-14.533c0.003-3.392-0.569-6.837-0.461-10.162c0.03-0.926,0.075-1.708,0.048-2.479    c1.212-0.143,2.37-0.513,3.59-0.587c1.061-0.064,1.965,0.257,2.971,0.333c0.154,0.012,0.29-0.006,0.437-0.006    C441.326,57.873,439.509,66.858,440.568,75.857z M430.839,76.653c-3.193-0.28-6.443-0.171-9.639-0.185    c-2.473-0.011-5.753-0.488-8.624-0.312l0.004-0.027c0.039-0.302-0.07-0.582-0.255-0.814c-0.622-4.957-0.06-10.783,0.075-15.68    c0.064-2.33,0.767-4.834,0.555-7.173c-0.094-1.037-0.355-2.117-0.649-3.19c0.951,0.023,1.887-0.016,2.78-0.102    c2.179,0.261,4.495,0.09,6.604,0.033c1.701-0.046,3.412-0.095,5.116-0.237c0.132,0.033,0.264,0.067,0.419,0.094    c1.156,0.205,2.496,0.245,3.819,0.212c-0.294,1.074-0.554,2.153-0.649,3.19c-0.212,2.338,0.49,4.843,0.555,7.173    c0.136,4.897,0.696,10.723,0.075,15.68c-0.185,0.232-0.295,0.512-0.255,0.814C430.792,76.303,430.816,76.478,430.839,76.653z     M408.8,76.237c-2-0.199-4.009-0.333-6.021-0.38c1.059-8.999-0.757-17.984-0.644-27.056c0.147,0,0.282,0.017,0.437,0.006    c1.006-0.076,1.912-0.397,2.971-0.333c1.22,0.074,2.378,0.444,3.59,0.587c-0.027,0.772,0.019,1.553,0.048,2.479    c0.107,3.326-0.464,6.772-0.461,10.162C408.723,66.264,407.907,71.685,408.8,76.237z M392.329,81.479    c6.306-0.997,12.586-0.45,18.882-0.962c2.174,0.575,5.108,0.217,6.582,0.21c4.553-0.02,9.311,0.295,13.892-0.254    c6.449,0.578,12.878-0.015,19.335,1.006c4.308,0.681,5.15,2.374,5.133,5.01c-0.91-0.322-1.828-0.582-3.065-0.586    c-3.558-0.009-7.086,0.624-10.679,0.604c-3.06-0.016-6.37-0.606-9.622-0.82c-0.321-0.113-0.661-0.128-0.983-0.052    c-1.294-0.052-2.573-0.02-3.818,0.141c-2.703-0.213-5.422-0.316-8.109-0.604c-3.831-0.412-8.021-0.22-11.802,0.736    c-2.431,0.257-4.851,0.587-7.131,0.599c-3.593,0.018-7.121-0.613-10.679-0.604c-1.238,0.002-2.155,0.263-3.066,0.586    C387.178,83.853,388.021,82.16,392.329,81.479z M387.966,130.4c0.072-9.182-0.543-18.304-0.48-27.496    c0.03-4.239,0.342-8.548-0.022-12.771c-0.014-0.162-0.028-0.314-0.043-0.471c0.384-0.068,0.831-0.139,1.485-0.168    c0.915-0.039,1.85-0.001,2.793,0.078c-1.502,1.917-1.142,5.83,0.678,7.249c0.75,0.585,1.708,0.983,2.75,1.28    c-1.144,4.812-1.2,10.18-1.569,15.029c-0.317,4.182-0.041,8.474-0.072,12.668c-0.064,8.904-1.253,18.89,0.586,27.786    c-2.32-0.195-4.638-0.308-6.956-0.313C388.684,145.938,387.91,137.781,387.966,130.4z M367.746,164.631    c-0.02-0.508,0.3-1.886,0.491-2.312c0.67-1.495-0.174-0.863,1.839-1.49c2.735-0.851,6.177-0.895,9.042-1.275    c3.403-0.45,6.866,0.093,10.242-0.504c0.582-0.102,1.153-0.229,1.728-0.347c1.699,0.131,3.615-0.321,5.086-0.502    c0.623-0.076,1.209-0.155,1.78-0.239c2.37,0.27,4.869,0.506,6.894-0.49c2.077-1.02,3.327-3.305,4.778-5.016    c3.363-3.965,6.448-4.789,11.391-5.79c0.249-0.051,0.467-0.148,0.657-0.279c0.19,0.131,0.408,0.228,0.657,0.279    c4.943,1.001,8.027,1.825,11.391,5.79c1.452,1.711,2.701,3.996,4.778,5.016c2.025,0.994,4.524,0.76,6.894,0.49    c0.571,0.084,1.158,0.163,1.78,0.239c1.471,0.181,3.387,0.634,5.086,0.502c0.575,0.117,1.146,0.244,1.728,0.347    c3.375,0.597,6.84,0.054,10.242,0.504c2.865,0.379,6.307,0.423,9.042,1.275c2.013,0.627,1.169-0.005,1.839,1.49    c0.191,0.425,0.511,1.804,0.491,2.312c-0.12,3.061-1.369,2.3-4.017,2.275c-3.278-0.031-6.406,0.474-9.654,0.651    c-4.658,0.255-9.805-0.178-14.617,0.354c-0.795-0.096-1.597-0.131-2.353-0.152c-2.013-0.054-4.018-0.524-6.032-0.485    c-1.295-1.368-2.406-2.996-3.565-4.477c-1.991-2.544-4.288-5.43-7.184-6.498c-4.904-2.407-10.307-2.522-14.893,0.713    c-0.276,0.195-0.469,0.434-0.588,0.691c-1.787,1.379-3.327,3.32-4.717,5.096c-1.159,1.481-2.27,3.109-3.565,4.477    c-2.014-0.039-4.019,0.43-6.032,0.485c-0.756,0.021-1.558,0.055-2.353,0.152c-4.812-0.532-9.958-0.099-14.616-0.354    c-3.248-0.178-6.375-0.682-9.654-0.651C369.113,166.931,367.865,167.692,367.746,164.631z M466.396,241.714    c-0.049,1.702-0.194,2.89-0.143,4.057c-3.001,0.355-6.011,0.881-8.951,1.067c-4.758,0.302-9.424,1.058-14.188,1.385    c2.037-5.097,1.473-12.339,1.411-17.324c-0.074-5.983-0.878-12.208-2.155-18.044c-1.009-4.614-4.321-8.727-8.527-11.097    c-2.608-2.069-5.708-2.923-9.427-3.437c-4.223-0.582-10.05-0.828-13.157,2.56c-5.026,2.125-9.135,6.731-10.282,11.973    c-1.276,5.836-2.081,12.063-2.155,18.044c-0.062,4.985-0.626,12.227,1.411,17.324c-4.764-0.328-9.431-1.083-14.188-1.385    c-2.941-0.186-5.951-0.712-8.951-1.067c0.051-1.168-0.094-2.357-0.143-4.057c-0.118-4.076,0.3-8.171,0.146-12.254    c-0.242-6.39-1.278-12.729-1.522-19.1c-0.278-7.216-0.523-14.616-0.319-21.832c0.137-4.823,0.989-9.643,0.009-14.397    c8.1,0.556,17.012,2.703,24.698,0.672c1.978,0.105,3.934-0.289,5.861-1.682c3.23-2.335,5.245-5.978,7.902-8.872    c1.785-1.944,4.182-2.914,5.926-4.638c0.202-0.022,0.404-0.046,0.615-0.054c1.325-0.052,2.607,0.111,3.843,0.451    c1.697,1.49,3.871,2.448,5.516,4.24c2.656,2.895,4.672,6.538,7.902,8.872c1.926,1.392,3.881,1.787,5.861,1.682    c7.686,2.031,16.598-0.116,24.698-0.672c-0.982,4.756-0.128,9.574,0.009,14.397c0.203,7.217-0.042,14.617-0.319,21.832    c-0.245,6.371-1.281,12.71-1.522,19.1C466.096,233.543,466.514,237.639,466.396,241.714z M403.659,236.455    c-0.031-4.979,0.222-10.12,0.878-15.041c0.613-4.598,1.506-9.666,4.299-13.437c1.47-1.984,3.229-3.29,5.167-4.309    c3.782-0.252,7.506-0.726,11.345-0.279c1.807,0.211,3.556,0.62,5.301,1.036c1.423,0.905,2.73,2.024,3.863,3.553    c2.795,3.77,3.686,8.839,4.299,13.437c0.656,4.921,0.909,10.061,0.878,15.041c-0.025,3.859-0.946,8.22,0.226,11.91    c-2.145-0.005-4.605-0.369-6.922-0.312c-2.684-0.159-5.367-0.31-8.035-0.465c-5.516-0.322-11.027-0.255-16.471,0.492    c-1.734,0.084-3.479,0.281-5.054,0.285C404.603,244.676,403.682,240.315,403.659,236.455z M369.521,255.32    c-0.181-0.118-0.319-0.278-0.443-0.45c0.005-0.015,0.006-0.026,0.011-0.041c-0.015-0.56-0.028-1.121-0.042-1.681    c1.036-2.09,6.303-0.573,8.799-0.511c4.463,0.113,8.988,0.443,13.401,1.035c4.267,0.572,8.505,0.773,12.803,0.518    c0.717-0.042,1.439-0.17,2.164-0.328c1.841,0.058,3.701-0.094,5.694-0.222c4.582-0.294,9.182-0.012,13.767-0.044    c3.405-0.023,6.845,0.128,10.237-0.027c1.135,0.305,2.267,0.555,3.384,0.622c4.299,0.255,8.536,0.054,12.803-0.518    c4.411-0.592,8.938-0.921,13.401-1.035c2.497-0.063,7.765-1.58,8.799,0.511c-0.014,0.56-0.028,1.121-0.042,1.681    c0.005,0.015,0.006,0.026,0.011,0.041c-0.123,0.173-0.261,0.332-0.443,0.45c-0.545,0.355-1.507,0.166-2.109,0.192    c-0.411,0.018-0.689,0.064-0.942,0.175c-1.375-0.08-2.894-0.243-3.558-0.178c-4.686,0.459-9.379,0.73-14.078,1.019    c-5.593,0.344-11.092,0.583-16.686,0.581c-0.396-0.059-0.786-0.106-1.159-0.123c-3.039-0.142-6.071,0.261-9.125,0.18    c-4.175-0.111-8.603-0.694-12.689,0.094c-1.48-0.253-3.063-0.164-4.846-0.146c-6.2,0.064-12.253-0.205-18.426-0.585    c-4.699-0.289-9.391-0.561-14.078-1.019c-0.662-0.065-2.183,0.099-3.558,0.178c-0.253-0.11-0.532-0.157-0.942-0.175    C371.029,255.487,370.067,255.676,369.521,255.32z M363.715,281.774c4.638,0.768,9.695-0.495,14.323-0.742    c2.996-0.16,6.06,0.422,9.079,0.281c0.282-0.014,0.672-0.067,1.124-0.141c1.015,0.006,2.019,0.007,2.976,0.063    c3.406,0.197,7.232,0.84,10.668,0.329c0.163,6.364,2.902,13.085,7.566,17.114c-3.987-1.112-8.269-0.698-12.472-0.729    c-6.422-0.047-12.385-0.456-18.773-0.002c-3.48,0.248-7.031,1.043-10.527,0.883c-1.469-0.068-2.82-0.15-4.145-0.211    c0.699-4.406-0.667-9.047-0.534-13.512C363.047,283.52,363.302,282.461,363.715,281.774z M355.601,312.282    c-0.306-1.46-0.014-5.227,0.539-7.165c0.165-0.018,0.395-0.059,0.77-0.144c1.601-0.365,3.443-0.334,5.056-0.344    c2.859-0.016,5.62,0.244,8.484-0.08c4.948-0.56,9.88-0.815,14.813-1.292c5.135-0.497,10.467,0.173,15.706-0.102    c2.642-0.138,6.041,0.513,8.945,0.118c3.271,0.317,6.555,0.439,9.814,0.395c3.522-0.047,8.42,0.286,12.408-0.659    c3.139,0.879,7.197-0.015,10.245,0.146c5.238,0.275,10.569-0.395,15.706,0.102c4.933,0.477,9.865,0.733,14.813,1.292    c2.864,0.324,5.626,0.064,8.484,0.08c1.613,0.01,3.456-0.021,5.056,0.344c0.375,0.085,0.604,0.126,0.77,0.144    c0.553,1.939,0.845,5.705,0.539,7.165c-0.475,2.264-1.126,1.136-4.185,1.355c-6.3,0.451-12.438,0.361-18.755,0.033    c-6.656-0.345-13.334,0.877-19.936,0.348c-5.082-0.407-9.523-0.625-14.309,0.556c-3.318,0.086-6.617,0.29-9.713,0.307    c-2.834,0.015-5.837-0.232-8.892-0.488c-4.473-0.963-8.696-0.758-13.483-0.375c-6.601,0.529-13.28-0.693-19.936-0.348    c-6.316,0.328-12.455,0.418-18.755-0.033C356.727,313.418,356.075,314.546,355.601,312.282z M480.665,364.111    c0.02,3.644-0.951,7.221-0.728,10.838c-3.869-0.003-7.798,0.422-11.477,0.688c-6.899,0.501-13.958-0.454-20.873,0.368    c-0.603-0.191-1.215-0.37-1.865-0.476c-2.904-0.476-5.894,0.147-8.809,0.136c-6.776-0.025-13.553-0.185-20.331-0.189    c-8.272-0.005-17.239-0.904-25.683,0.191c-5.34-0.123-10.723,0.354-16.01-0.03c-3.679-0.266-7.608-0.691-11.477-0.688    c0.224-3.616-0.746-7.194-0.728-10.838c0.027-5.137,0.3-10.452-0.197-15.562c-0.908-9.319,0.006-19.234-1.643-28.502    c2.656,0.195,5.293,0.4,7.998,0.375c7.979-0.07,15.734-0.544,23.704-0.056c4.445,0.273,9.332,0.133,14.045-0.518    c0.148,0.012,0.298,0.021,0.444,0.033c4.915,0.428,9.847,0.939,14.794,0.93c6.106-0.012,14.272,1.05,20.817-0.414    c2.788,0.142,5.552,0.128,8.159-0.031c7.969-0.488,15.724-0.015,23.704,0.056c2.705,0.023,5.341-0.18,7.998-0.375    c-1.649,9.268-0.735,19.184-1.643,28.502C480.364,353.658,480.637,358.974,480.665,364.111z M325.552,417.577    c0.89-13.879,0.956-27.94,1.448-41.856c0.184-5.204,0.186-10.372,0.017-15.525c4.064,0.805,8.91,0.929,9.374-4.156    c0.312-3.422-1.566-7.751-0.411-11.005c1.777-5,7.804-3.593,10.602-0.594c4.092,4.384,0.158,10.974,4.206,14.944    c1.391,1.365,3.615,1.95,5.694,1.743c-0.089,4.71-0.229,9.426,0.032,14.059c0.007,0.136,0.041,0.254,0.06,0.382    c-0.268,0.054-0.541,0.089-0.807,0.152c-5.166,1.223-5.61,5.149-5.738,9.96c-0.129,4.926-0.264,10.554,5.396,12.318    c0.994,0.31,2.065,0.437,3.161,0.474c-0.258,0.894-0.503,1.752-0.534,2.395c-0.155,3.289,0.719,6.477,0.539,9.771    c-0.424,7.751-0.712,15.414-0.798,23.192c-5.137-1.056-10.484-1.246-15.659-0.793c-5.567,0.486-11.181,0.062-16.753,0.423    C325.297,428.158,325.215,422.832,325.552,417.577z M325.451,438.225c5.314,0.375,10.829,0.15,16.072-0.319    c5.261-0.472,10.933,0.504,16.197-0.168c-0.058,2.786-0.151,5.567-0.313,8.339c-3.872-0.472-10.085,0.173-10.995,0.254    c-6.694,0.603-14.085,0.439-20.981,0.064c0.02-1.881,0.038-3.76,0.036-5.634C325.466,439.917,325.46,439.071,325.451,438.225z     M348.421,503.922c-4.245,0.1-8.503,0.067-12.762,0.058c0.435-5.87-0.38-11.761-0.4-17.659c-0.015-4.404-1.543-14.581,3.25-16.416    c8.485-3.25,9.721,11.24,9.731,16.341c0.006,3.2-0.592,6.269-0.485,9.506C347.822,497.763,348.569,501.666,348.421,503.922z     M351.195,503.885c0.662-2.574-0.016-5.462-0.047-8.133c-0.059-5.165,0.617-9.922,0.141-15.116    c-0.544-5.93-2.453-14.182-9.898-14.955c-6.567-0.682-9.341,3.995-10.374,9.743c-0.846,4.704-0.096,10.127-0.125,14.892    c-0.027,4.535,0.111,9.145,0.475,13.672c-1.746,0.015-3.491,0.039-5.235,0.1c1.397-6.271,0.466-13.835-0.109-20.056    c-0.635-6.883,0.273-13.8-0.273-20.675c-0.333-4.192-0.377-8.418-0.355-12.646c1.776,0.169,3.562,0.053,5.621,0.221    c3.717,0.302,7.246,0.578,11.017,0.55c4.733-0.036,9.808-0.508,14.48-1.227c0.204-0.031,0.405-0.06,0.603-0.091    c-0.17,2.194-0.364,4.387-0.603,6.58c-0.898,8.227-0.351,16.771-0.475,25.046c-0.094,6.298,0.323,13.472,1.839,19.618    c0.237,0.96,0.532,1.778,0.881,2.491C356.228,503.848,353.705,503.85,351.195,503.885z M480.852,467.244    c-0.135,7.204-0.159,14.29-0.924,21.436c-0.343,3.207-0.094,6.848-0.831,10.011c-0.767,3.29-2.196,3.025-5.16,3.335    c-7.232,0.754-14.496,1.645-21.774,1.81c-2.121,0.048-4.27,0.284-6.417,0.535c-0.961-0.004-1.867-0.016-2.656-0.079    c-5.663-0.451-11.478,0.543-17.155,0.64c-5.598,0.096-11.199,0.237-16.808,0.205c-0.285-0.13-0.62-0.2-1.02-0.168    c-5.483,0.44-11.302-1.006-16.924-1.135c-7.278-0.165-14.542-1.057-21.774-1.81c-2.964-0.308-4.392-0.043-5.16-3.335    c-0.737-3.162-0.488-6.804-0.831-10.011c-0.765-7.146-0.789-14.232-0.922-21.433c-0.13-7.043,0.372-13.968,0.997-20.948    c0.557-6.239-0.026-12.776-0.08-19.049c-0.058-6.655,0.958-13.615,0.364-20.206c-0.211-2.335,0.016-5.787-0.319-8.807    c0.548-0.048,1.087-0.095,1.606-0.128c3.859-0.249,7.253-0.224,11.084,0.017c2.853,0.179,5.8-0.239,8.679-0.131    c1.988,0.075,4.024-0.023,6.053-0.143c1.178-0.028,2.361-0.105,3.536-0.201c0.207-0.01,0.417-0.025,0.623-0.033    c3.244-0.141,7.432,0.118,11.08-0.657c4.494-0.105,8.998-0.095,13.488-0.18c6.09-0.116,12.612,0.459,19.041,0.425    c3.284,0.467,6.836,0.289,9.669,0.411c3.358,0.146,6.853,0.504,10.21,0.377c2.88-0.109,5.827,0.31,8.679,0.131    c3.831-0.241,7.223-0.266,11.083-0.017c0.518,0.033,1.058,0.08,1.606,0.128c-0.335,3.02-0.11,6.472-0.319,8.807    c-0.594,6.591,0.422,13.551,0.364,20.206c-0.054,6.274-0.638,12.809-0.08,19.049C480.48,453.276,480.982,460.201,480.852,467.244z     M483.74,392.044c-1.933,0.508-5.267-0.201-7.275-0.363c-4.53-0.366-9.301-0.75-13.813-0.488    c-3.632,0.211-7.255,0.588-10.902,0.851c-4.763-1.099-10.075-1.136-14.806-0.894c-5.832,0.297-11.513-0.29-17.341-0.221    c-6.578,0.078-13.144,0.266-19.712,0.372c-3.96,0.064-8.677-0.254-12.945,0.369c-2.084-0.179-4.166-0.356-6.25-0.477    c-4.513-0.261-9.284,0.122-13.813,0.488c-2.008,0.163-5.343,0.872-7.275,0.363c-3.392-0.892-4.381-4.788-3.187-7.817    c1.655-4.196,10.044-2.967,14.05-2.874c4.785,0.111,9.199-0.264,14.026-0.419c5.31-0.171,10.445,0.372,15.68,0.419    c2.125,0.018,4.272-0.184,6.419-0.45c3.695,0.102,7.392,0.19,11.101,0.187c6.513-0.004,13.169,0.164,19.763-0.099    c1.909,0.222,3.817,0.379,5.708,0.361c5.235-0.047,10.369-0.591,15.68-0.419c4.827,0.155,9.241,0.53,14.026,0.419    c4.006-0.094,12.396-1.323,14.05,2.874C488.12,387.256,487.13,391.152,483.74,392.044z"/>
	</g>
</g>
<g>
	<g>
		<path d="M261.614,365.18c-1.641-4.127-7.143-6.268-10.596-3.631c-0.95,0.337-1.772,0.932-2.665,1.586    c-0.91,0.666-1.693,1.408-1.799,2.443c-1.189,1.68-1.935,3.637-1.909,5.412c0.041,2.952,1.059,4.918,3.498,6.523    c2.037,1.341,6.235,2.496,8.658,1.681C262.475,377.285,263.55,370.047,261.614,365.18z M255.488,375.807    c-2.988,0.742-7.422-1.654-7.628-4.759c-0.127-1.936,0.556-3.718,1.688-5.22c0.306-0.185,0.614-0.361,0.916-0.57    c0.804-0.552,1.775-0.916,2.539-1.508c2.652-0.152,4.984,0.569,6.009,3.705C259.974,370.392,259.008,374.933,255.488,375.807z"/>
	</g>
</g>
<g>
</g>
<g>
</g>
<g>
</g>
<g>
</g>
<g>
</g>
<g>
</g>
<g>
</g>
<g>
</g>
<g>
</g>
<g>
</g>
<g>
</g>
<g>
</g>
<g>
</g>
<g>
</g>
<g>
</g>
</svg>
