<?xml version="1.0" encoding="iso-8859-1"?>
<!-- Generator: Adobe Illustrator 19.0.0, SVG Export Plug-In . SVG Version: 6.00 Build 0)  -->
<svg xmlns="http://www.w3.org/2000/svg" xmlns:xlink="http://www.w3.org/1999/xlink" version="1.1" id="Layer_1" x="0px" y="0px" viewBox="0 0 511.997 511.997" style="enable-background:new 0 0 511.997 511.997;" xml:space="preserve">
<g>
	<g>
		<path d="M510.201,379.21c-1.497-1.82-3.579-2.408-5.847-2.571c-3.739-0.269-7.515-0.381-11.266-0.638    c-1.987-0.135-3.988-0.211-5.994-0.262c-0.032-0.132-0.048-0.26-0.098-0.397c-1.448-4.063,0.526-8.865-1.472-12.635    c-2.03-3.833-7.253-4.421-11.015-5.332c-2.151-0.521-4.086-0.656-6.05-1.628c-2.052-1.016-3.464-1.714-5.823-2.157    c-6.027-1.132-11.703-3.29-17.638-4.697c-0.153-4.452-0.004-10-4.432-11.775c-0.967-0.388-1.983-0.541-3.013-0.59    c0.612-1.125,0.991-2.37,1.579-3.561c1.533-3.104,3.542-5.992,5.333-8.931c3.691-6.06,6.44-12.729,9.59-19.077    c6.38-12.86,12.125-26.033,18.481-38.91c6.548-13.267,13.78-26.247,20.651-39.339c2.702-5.146,5.236-10.396,7.825-15.597    c2.28-4.582,5.836-8.992,7.483-13.835c0.371-1.091,0.001-2.729-0.918-3.473c-4.343-3.513-12.169-2.553-17.46-2.773    c-7.417-0.309-14.727,0.156-22.111,0.751c-13.212,1.065-26.237,3.987-39.16,6.778c-13.445,2.904-27.071,7.516-39.643,13.102    c-8.986,3.992-20.002,8.66-27.649,15.575c-1.624-1.275-2.859-4.003-4.106-5.651c-2.05-2.712-4.112-5.388-6.238-8.03    c-4.239-5.266-7.785-10.932-12.58-15.774c-11.172-11.282-22.631-22.067-35.467-31.496c-14.159-10.4-29.692-19.76-45.124-28.124    c-14.721-7.979-29.631-14.594-45.546-19.822c-8.432-2.77-17.166-4.69-25.76-6.826c-6.647-1.651-14.044-4.066-20.972-3.476    c-1.361,0.116-2.082,1.416-1.816,2.479c-0.1,0.291-0.088,0.626,0.13,0.977c7.899,12.69,17.857,23.809,26.261,36.195    c9.149,13.484,18.365,27.57,25.436,42.256c2.113,4.388,4.062,8.846,5.893,13.355c-5.338-3.429-11.329-5.928-16.838-9.198    c-8.649-5.134-17.667-10.529-26.942-14.508c-10.02-4.298-20.564-7.288-31.003-10.36c-6.171-1.817-12.512-2.762-18.847-3.797    c-4.692-0.766-9.645-2.693-14.294-1.11c-0.945,0.321-1.057,1.759,0,2.032c3.934,5.301,6.49,11.891,9.84,17.584    c3.3,5.61,6.238,11.642,8.961,17.58c3.387,7.388,6.878,14.722,10.357,22.071c2.204,4.655,4.587,9.567,6.497,14.506    c-1.437-1.007-3.397-1.838-5.579-2.812c-13.884-6.199-29.928-9.073-44.975-10.859c-8.293-0.984-16.101-1.778-24.493-1.5    c-6.157,0.205-14.273-0.615-19.709,2.799c-0.031,0.019-0.05,0.045-0.077,0.066c-0.025-0.004-0.051-0.011-0.075-0.014    c-0.296-0.044-0.698,0.197-0.556,0.556c0.035,0.088,0.085,0.173,0.123,0.26c-0.09,0.549,0.194,1.133,0.768,1.392    c2.723,4.048,8.778,6.947,12.046,10.007c5.873,5.498,10.992,11.431,15.901,17.784c6.057,7.841,11.416,16.076,15.91,24.89    c2.046,4.013,4.315,7.952,5.923,12.175c0.991,2.602,1.613,5.439,2.619,8.06c-1.29,0.402-2.555,0.923-3.835,1.486    c-4.337,1.91-8.74,3.628-13.222,5.166c-7.215,2.475-14.475,4.996-21.159,8.593c-4.019,2.162-8.106,4.379-12.255,6.249    c-2.627,1.184-5.717,0.838-7.259,3.703c-1.419,2.638-0.222,5.398,0.317,8.093c0.386,1.929,0.773,3.836,1.166,5.744    c-1.5-0.719-2.988-1.456-4.537-2.072c-2.146-0.854-4.093-0.893-6.306-1.552c-3.512-1.047-6.624-2.762-10.366-3.163    c-1.236-0.132-2.845,1.067-3.043,2.316c-0.583,3.683-0.079,6.8,0.448,10.433c0.514,3.547,0.35,7.191,0.951,10.706    c-3.993-0.195-7.993-0.426-11.927,0.38c-1.463,0.299-2.14,1.701-2.3,3.021c-0.413,3.425,0.401,6.491,0.89,9.874    c0.215,1.485,0.34,2.909,0.601,4.298c-12.623-0.469-15.672,6.129-15.365,17.537c0.024,0.891,0.341,1.581,0.811,2.094    c0.345,1.565,0.972,3.035,2.041,4.333c3.547,4.304,12.534,4.065,17.501,3.989c8.081-0.123,15.735,1.124,23.828,0.87    c4.413-0.139,8.844-0.514,13.258-0.2c4.402,0.313,8.508,1.266,12.965,1.246c8.769-0.04,17.299-1.456,26.078-1.087    c9.229,0.388,18.093-0.831,27.291-0.641c8.753,0.181,17.287-0.968,26.072-0.961c9.355,0.008,18.649-0.71,27.994-0.87    c18.694-0.318,37.292-1.424,56.003-1.794c19.394-0.383,38.718-0.767,58.131-0.685c40.512,0.172,81.024,0.066,121.537,0.066    c19.414,0,38.827,0.447,58.21,1.547c4.544,0.258,9.215-0.132,13.733,0.264c3.895,0.342,7.304,1.167,11.286,1.018    c5.901-0.221,10.841-0.864,13.457-6.854C511.938,390.112,513.171,382.823,510.201,379.21z M437.779,342.441    c-0.032,0.531,0.001,2.139-0.001,2.114c0.181,2.276,0.604,4.699,0.904,6.985c0.177,1.355,0.876,2.831,2.386,3.133    c5.219,1.05,10.032,3.307,15.188,4.526c2.167,0.512,4.666,0.347,6.747,1.08c1.838,0.648,3.143,2.124,5.027,2.681    c2.917,0.863,9.474,0.428,11.191,3.217c0.919,1.495,0.192,3.822,0.176,5.536c-0.014,1.495,0.224,2.674,0.596,3.965    c-5.729,0.036-11.471,0.217-17.134,0.22c-4.67,0.002-9.387,0.207-14.054,0.012c-3.743-0.156-7.445-0.815-11.187-0.988    c-3.638-0.169-11.106,1.874-11.434-3.92c-0.205-3.617,1.914-7.324,0.218-10.92c-1.438-3.052-5.091-3.514-8.109-3.64    c-12.596-0.524-25.469,0.342-38.098,0.349c-7.65,0.004-15.301-0.031-22.95,0.019c-7.086,0.045-14.034,1.002-21.159,0.914    c-12.862-0.159-26.025,0.356-38.694,2.116c-0.928,0.129-1.938,1.191-2.096,2.096c-0.644,3.663-0.294,7.196-0.124,10.887    c0.115,2.498-0.182,5.054-0.055,7.535c-0.184,0-0.367-0.001-0.55-0.001c-4.619-0.001-9.461,0.435-14.042-0.229    c-3.221-0.467-6.158-0.568-9.313-0.367c-0.054-0.635-0.264-1.26-0.628-1.794c0.145-1.37,0.924-2.85,1.029-4.218    c0.161-2.074-0.383-3.921-0.905-5.899c-1.268-4.807-1.307-9.613-4.22-13.825c-2.065-2.986-4.834-5.349-7.587-7.696    c3.804-0.22,7.595-0.697,11.609-0.872c8.619-0.377,17.395,0.12,26.028,0.138c9.095,0.019,18.447,0.784,27.492-0.33    c8.272-1.02,16.614,0.672,24.803-0.62c4.514-0.712,8.516-0.679,13.032-0.754c4.359-0.072,8.633-0.859,13.005-0.887    c9.127-0.061,18.259,0.028,27.387,0.034c8.98,0.007,17.958,0.019,26.938,0.03C429.794,343.072,437.127,343.103,437.779,342.441z     M419.584,374.795c-4.176-0.047-8.353-0.102-12.533-0.14c-1.21-0.011-2.408,0.044-3.599,0.134    c-0.047-0.194-0.112-0.383-0.218-0.556c-0.257-0.423-0.434-0.612-0.564-0.775c0.152-1.188,0.029-2.507,0.117-3.616    c0.162-2.036,0.294-4.567-0.004-6.851c3.99-0.039,7.979-0.115,11.959-0.303c0.983-0.046,5.211-0.634,5.888,0.216    c0.765,0.962-0.944,5.014-1.122,6.267C419.252,370.995,419.104,373.029,419.584,374.795z M384.366,372.83    c-0.421-1.336-0.285-2.486-0.329-3.863c-0.065-1.987-0.302-4.029-0.707-6.002c4.818,0.031,9.639,0.075,14.459,0.07    c-0.112,1.655,0.254,3.305,0.053,4.992c-0.17,1.42-0.412,2.868-0.454,4.3c-0.029,0.959,0.175,2.068,0.59,3.029    c-1.599,0.181-3.201,0.348-4.823,0.429c-2.715,0.135-5.437,0.105-8.157,0.065c0.019-0.13,0.026-0.265,0.017-0.405    C384.945,374.442,384.661,373.77,384.366,372.83z M379.865,374.07c-0.012,0.589,0.019,1.17,0.085,1.743    c-0.277-0.002-0.554-0.004-0.83-0.002c-4.752,0.053-9.389,1.029-14.144,1.116c-0.21,0.004-0.418,0.014-0.628,0.02    c-0.115-0.74-0.109-1.758-0.215-2.157c-0.215-0.814-0.482-1.512-0.681-2.225c0.004-0.286,0.013-0.568,0.032-0.84    c0.212-3.02,0.138-5.924-0.139-8.903c4.555,0.015,9.117,0.115,13.652,0.117c1.105,0,2.211,0.005,3.317,0.011    c-0.437,2.277-0.607,4.596-0.804,6.908C379.368,371.511,379.496,372.773,379.865,374.07z M359.159,374.771    c0.062,0.274,0.106,0.571,0.152,0.866c0.004,0.51,0.03,1.014,0.098,1.502c-2.838,0.146-5.668,0.336-8.525,0.51    c-2.183,0.133-4.36,0.239-6.533,0.337c-0.35-1.242-1.045-2.356-1.258-3.641c-0.196-1.174,0.017-2.522-0.036-3.721    c-0.097-2.174-0.344-4.307-0.79-6.419c-0.008-0.171-0.009-0.345-0.02-0.514c4.309-0.207,8.57-0.589,12.931-0.764    c1.58-0.063,3.163-0.089,4.75-0.106c-0.148,0.187-0.237,0.418-0.219,0.685C359.961,367.456,358.271,370.828,359.159,374.771z     M337.884,378.28c-4.963,0.232-9.923,0.516-14.912,1.086c-0.143-3.159-0.96-6.271-0.901-9.456    c0.021-1.132,0.161-2.276-0.055-3.401c-0.181-0.941-0.641-1.699-1.054-2.494c5.055-0.184,10.113-0.248,15.124-0.189    c0.734,0.009,1.459-0.01,2.187-0.022c-0.424,2.302-0.274,4.689-0.306,7.105C337.939,373.035,337.588,375.821,337.884,378.28z     M300.84,365.448c5.504-0.6,11.088-1.022,16.688-1.289c0.032,0.392,0.11,0.793,0.231,1.317c0.364,1.58,0.215,2.823,0.112,4.435    c-0.209,3.282,0.295,6.646,0.711,9.918c-6.294,0.56-12.609,0.571-18.929,0.548c0.69-1.951,1.362-3.297,1.359-6.061    C301.006,371.381,300.604,368.384,300.84,365.448z M263.999,380.283c-7.674,0.371-15.422,0.021-23.087,0.099    c-9.219,0.095-18.358,0.444-27.498-0.774c-4.108-0.547-8.287-0.083-12.42-0.325c-0.733-0.043-1.463-0.097-2.194-0.148    c-0.023-0.069-0.031-0.134-0.058-0.205c-0.958-2.406,0.069-5.045,0.007-7.69c-0.067-2.858-0.078-5.719-0.08-8.579    c11.357,0.851,23.022,0.088,34.365,0.1c6.598,0.007,13.197,0.014,19.795,0.021c2.922,0.003,6.87,0.666,9.874-0.427    c0.697,2.631,0.992,5.461,1.628,7.998C265.203,373.834,263.472,376.788,263.999,380.283z M234.282,301.614    c-0.476-4.128-0.874-8.24-1.262-12.376c-1.014-10.817-0.957-21.747-1.593-32.585c-0.018-0.298-0.447-0.299-0.465,0    c-0.313,5.33-1.206,10.407-1.278,15.775c-0.074,5.456-0.148,10.904,0.031,16.345c0.258,7.857,0.324,16.877,2.171,24.755    c-3.596-0.413-8.228,0.236-11.226,0.395c-5.465,0.291-10.931,0.142-16.398,0.394c-2.239,0.104-4.725,0.034-7.093,0.351    c1.048-2.01,1.748-4.389,2.5-6.081c2.3-5.179,3.822-10.658,5.887-15.945c4.225-10.812,8.603-22.016,11.166-33.349    c0.163-0.718-0.742-1.349-1.294-0.753c-2.853,3.079-3.643,8.19-4.82,12.081c-1.672,5.533-3.931,11.176-6.177,16.479    c-4.051,9.561-7.234,20.004-12.159,29.125c-0.001,0.003-0.001,0.007-0.003,0.01c-0.15,0.09-0.301,0.177-0.446,0.277    c-3.659,2.504-6.528,6.735-9.865,9.671c-0.718,0.631-1.541,1.278-2.353,1.969c2.574-6.81,5.755-13.463,8.385-20.263    c4.296-11.107,8.714-22.247,13.575-33.131c5.109-11.439,10.459-22.794,15.723-34.165c2.387-5.156,4.877-10.219,6.519-15.686    c0.876-2.918,1.779-5.812,2.694-8.711c8.028,23.184,13.048,47.498,16.918,71.542c1.509,9.379,2.956,18.694,4.209,28.121    c0.537,4.042,0.884,8.148,1.641,12.153c0.418,2.217,0.896,4.371,1.103,6.595c-0.604-0.872-1.225-1.711-1.773-2.503    c-2.649-3.834-5.386-7.543-8.026-11.379c-1.317-1.912-2.66-4.356-4.624-5.788C236.216,310.51,234.786,305.985,234.282,301.614z     M192.132,321.663c6.227-5.756,18.604-2.914,26.576-3.3c3.779-0.183,7.905-0.762,11.678-0.252    c4.461,0.603,6.133,4.742,8.425,7.986c2.092,2.959,4.163,5.872,6.139,8.918c-0.17-0.107-0.334-0.219-0.504-0.324    c-3.575-2.177-6.847-3.748-11.127-3.295c-5.332,0.565-10.844,2.29-15.995,3.739c-5.715,1.607-11.627,2.853-17.266,4.685    c-1.04,0.338-2.516,0.713-3.942,1.241c-0.186-0.193-0.38-0.384-0.606-0.575c-2.012-1.692-4.811-2.646-7.044-4.059    c-2.553-1.617-5.409-2.735-8.201-3.958C184.422,329.062,188.132,325.361,192.132,321.663z M214.226,342.92    c4.537-1.232,9.047-2.422,13.635-3.464c5.665-1.285,8.782-1.748,13.89,1.587c3.669,2.395,7.057,5.482,10.314,8.405    c2.974,2.669,6.494,5.066,8.739,8.43c0.178,0.268,0.322,0.556,0.477,0.838c-4.471,0.382-9.149-0.019-13.57-0.013    c-6.64,0.007-13.281,0.014-19.921,0.021c-9.619,0.01-19.565-0.559-29.126,0.907c0-0.727,0-1.452-0.002-2.179    c-0.01-3.612-0.699-7.102-0.735-10.67c-0.001-0.083-0.004-0.159-0.007-0.239C203.426,346.046,209.065,344.321,214.226,342.92z     M266.897,339.979c3.231-1.802,6.387-3.759,9.47-5.603c6.852-4.098,13.764-7.978,20.665-12.014    c3.987-2.332,6.505-5.248,11.515-4.23c3.789,0.77,7.673,2.391,11.25,3.819c6.323,2.525,12.482,5.336,18.878,7.687    c4.273,1.571,7.03,1.976,11.429,0.724c4.14-1.178,8.168-2.519,12.278-3.779c3.093-0.948,6.236-1.87,9.278-2.924    c4.031-1.398,8.012-4.029,12.264-4.743c3.894-0.655,8.372,1.864,11.928,3.422c4.244,1.859,8.36,3.911,12.519,5.938    c3.109,1.515,6.069,3.165,9.169,4.688c2.28,1.12,5.388,2.275,8.001,3.696c-2.201-0.01-4.402-0.023-6.6-0.021    c-10.477,0.013-20.955,0.035-31.432,0.05c-9.209,0.012-18.42,0.962-27.576,0.885c-4.71-0.04-8.71,0.591-13.344,1.115    c-4.352,0.492-8.763-0.197-13.118-0.315c-4.957-0.134-9.713,0.952-14.645,1.174c-5.268,0.237-10.557-0.008-15.829-0.004    c-9.761,0.008-19.531,0.179-29.291,0.058C271.413,339.574,269.149,339.729,266.897,339.979z M389.253,219.53    c11.873-5.647,24.993-10.263,37.806-13.213c11.676-2.688,23.403-5.168,35.28-6.798c6.845-0.939,13.823-1.435,20.725-1.384    c2.945,0.022,5.872-0.018,8.812,0.151c1.5,0.086,5.815-0.279,8.546-0.004c-1.649,3.571-3.968,7.272-5.672,10.663    c-2.627,5.224-5.131,10.51-7.796,15.714c-6.676,13.039-14.164,25.72-20.556,38.907c-5.963,12.304-11.73,24.736-17.888,36.941    c-3.129,6.203-5.945,12.645-9.508,18.611c-1.688,2.827-3.509,5.566-5.119,8.456c-0.043,0.078-0.084,0.155-0.127,0.232    c-1.073-1.797-2.217-3.556-3.138-5.406c-1.9-3.815-3.736-7.825-6.073-11.406c-6.387-9.785-13.311-19.229-20.04-28.787    c-6.218-8.832-12.557-17.574-18.662-26.445c-5.995-8.713-12.933-16.531-19.719-24.593    C373.531,226.795,381.58,223.18,389.253,219.53z M357.806,238.528c1.061-0.933,2.365-2.526,3.686-3.746    c6.596,7.911,13.312,15.58,19.211,24.067c6.128,8.815,12.497,17.52,18.578,26.409c6.153,8.996,12.228,18.043,18.36,27.05    c2.492,3.66,4.521,7.669,6.521,11.542c1.528,2.957,3.669,5.879,5.07,8.995c-3.817-2.352-8.514-3.939-12.277-5.976    c-6.506-3.522-13.292-6.761-20.112-9.769c-2.463-1.086-5.014-2.384-7.621-3.112c-0.02-0.053-0.029-0.105-0.051-0.157    c-3.961-9.139-6.248-18.836-9.616-28.188c-1.432-3.978-2.914-7.959-4.445-11.898c-1.324-3.409-2.924-7.443-5.259-10.271    c-0.509-0.617-1.433,0.171-1.075,0.829c1.973,3.611,3.222,8.82,4.182,12.834c1.066,4.455,2.639,8.742,3.871,13.157    c2.136,7.657,3.641,15.904,6.779,23.294c-0.361,0.065-0.723,0.144-1.087,0.253c-6.428,1.923-12.626,4.723-18.964,6.901    c-3.851,1.323-8.43,3.214-12.933,4.172c0.595-4.535,0.421-9.209,0.672-13.759c0.326-5.933,0.817-11.858,1.161-17.777    c0.357-6.146-0.173-12.317,0.27-18.472c0.412-5.721-0.088-11.698,0.583-17.34c0.08-0.675-0.985-0.93-1.275-0.345    c-1.947,3.944-1.849,8.626-2.247,12.932c-0.655,7.088-0.301,14.152-0.764,21.224c-0.748,11.403-2.132,22.71-2.727,34.115    c-1.588,0.069-3.132-0.039-4.592-0.419c-5.678-1.481-11.32-4.287-16.744-6.511c-5.345-2.192-11.088-4.476-16.803-5.508    c1.527-1.966,2.754-4.39,4.052-6.027c2.694-3.401,5.177-6.776,7.411-10.526c2.842-4.771,5.198-9.905,8.304-14.503    c2.688-3.98,4.735-7.382,6.41-11.88c0.121-0.326-0.342-0.456-0.519-0.219c-2.705,3.639-6.037,6.714-8.559,10.539    c-2.957,4.484-5.836,8.965-8.922,13.37c-2.313,3.302-4.773,6.427-7.223,9.617c-2.228,2.902-5.32,6.54-6.604,10.157    c-3.646,1.391-6.985,4.405-10.183,6.207c-6.683,3.765-13.146,7.912-19.644,11.993c-4.278,2.688-8.591,5.034-12.733,7.788    c3.31-3.465,6.123-7.677,9.26-11.16c3.506-3.891,7.02-7.801,10.582-11.648c9.373-10.127,19.31-19.718,28.839-29.702    c9.204-9.644,18.66-19.039,28.013-28.503c4.385-4.437,8.963-8.593,13.404-12.965C352.547,243.134,355.173,240.842,357.806,238.528    z M199.845,151.778c-5.16-7.592-10.532-14.759-16.321-21.86c-2.902-3.56-5.791-7.038-8.872-10.424    c-1.985-2.183-3.792-4.503-5.768-6.664c11.909,3.327,23.951,6.113,35.825,9.662c16.081,4.807,31.869,11.297,46.422,19.668    c14.793,8.51,29.104,17.463,43.468,26.683c13.645,8.757,25.191,20.236,36.647,31.546c5.566,5.495,9.764,11.777,14.605,17.849    c3.297,4.135,6.441,10.104,10.487,13.859c-0.015,0.015-0.031,0.032-0.046,0.047c-2.477,2.369-5.171,4.506-7.667,6.855    c-4.804,4.52-9.655,9.106-14.164,13.903c-9.472,10.074-19.372,19.79-28.924,29.824c-9.716,10.205-19.742,20.139-29.24,30.544    c-6.266,6.862-12.536,13.764-17.905,21.331c-0.445-3.858-1.654-7.83-2.054-11.166c-1.038-8.648-2.183-17.387-3.759-25.961    c-3.007-16.367-5.895-32.925-10.025-49.054c-4.571-17.848-10.912-34.7-17.522-51.872    C218.816,180.404,209.536,166.037,199.845,151.778z M137.597,200.346c-3.376-6.642-6.936-13.322-10.867-19.613    c-2.688-4.302-5.417-9.302-8.852-13.314c20.426,5.165,41.773,9.988,60.428,19.964c8.471,4.529,16.732,9.463,25.179,14.038    c3.463,1.875,7.271,3.174,10.593,5.328c3.491,2.264,6.36,4.494,9.93,5.786c-2.155,4.171-3.44,8.736-5.114,13.173    c-2.195,5.818-5.236,11.242-7.995,16.797c-5.458,10.989-10.984,21.987-16.087,33.141c-4.722,10.321-9.312,20.745-13.306,31.36    c-1.75,4.651-3.915,9.14-5.741,13.764c-0.288,0.729-0.637,1.498-1.003,2.289c-1.233-12.426-2.691-24.849-5.615-37.008    c-3.629-15.088-7.775-30.019-12.57-44.813C151.992,227.09,144.306,213.546,137.597,200.346z M150.703,246.29    c0.353-0.738,0.602-1.403,0.786-2.026c4.191,14.127,8.123,28.202,11.57,42.508c2.897,12.018,4.067,24.233,4.901,36.499    c-1.691-3.452-3.71-6.879-5.343-10.311c-0.904-1.903-1.816-4.196-3.268-5.843c0.41-5.111-0.685-10.29-0.941-15.389    c-0.2-3.977,0.556-7.815-0.607-11.715c-0.077-0.259-0.444-0.257-0.523,0c-2.312,7.559-2.314,16.382-1.757,24.4    c-1.967-0.993-4.133-1.786-5.995-2.648c-6.071-2.812-13.102-6.254-19.751-7.556c2.387-2.996,5.018-5.902,7.123-9.085    c1.95-2.947,3.267-6.109,4.694-9.318c0.668-1.503,1.864-2.886,1.802-4.546c-0.018-0.472-0.61-0.617-0.865-0.234    c-3.432,5.121-7.305,10.247-11.063,15.159c-1.614,2.108-4.64,5.077-5.876,8.1c-2.128,0.559-4.189,1.811-6.108,3.258    c1.286-2.34,2.485-4.747,3.94-6.96c2.093-3.179,4.176-6.348,6.163-9.594c3.845-6.278,7.426-12.778,11.678-18.818    C144.713,257.274,148.123,251.678,150.703,246.29z M164.287,325.996c-2.872-1.322-5.428-3.009-8.313-4.605    c-7.253-4.014-14.67-7.682-21.927-11.683c-4.169-2.298-9.014-5.517-13.958-7.568c0.331-0.173,0.659-0.346,1.003-0.526    c3.607-1.898,5.875-3.557,10.183-2.49c5.815,1.44,12.111,4.488,17.446,7.12c3.646,1.799,6.418,2.615,8.755,6.163    c1.001,1.518,1.744,3.348,2.473,5.008C161.228,320.332,162.867,323.142,164.287,325.996z M103.605,277.79    c-4.648-8.66-10.14-16.801-16.515-24.319c-5.3-6.249-10.68-12.172-16.82-17.625c-2.501-2.222-5.435-4.957-8.609-7.036    c3.306-0.081,6.744-0.552,9.638-0.56c6.964-0.019,14.217-0.21,21.083,0.944c7.399,1.244,14.783,2.067,22.117,3.695    c7.182,1.595,14.401,3.885,21.373,6.217c1.629,0.545,6.965,2.288,7.926,3.47c0.927,1.141,0.825-0.283,0.31,1.701    c-0.322,1.242-1.192,2.614-1.824,3.748c-2.932,5.265-6.238,10.235-9.263,15.418c-3.151,5.4-6.434,10.715-9.648,16.062    c-1.644,2.735-3.514,5.313-5.279,7.96c-1.941,2.912-3.433,6.336-5.361,9.301c-1.187-2.481-2.105-5.2-3.231-7.602    C107.682,285.286,105.637,281.574,103.605,277.79z M55.278,329.352c-0.176,0.249,3.116-0.364,3.388-0.471    c7.634-3.012,14.321-8.004,22.112-10.629c8.752-2.948,17.465-6.494,25.961-10.124c9.001-3.846,20.429,5.441,28.13,9.729    c7.837,4.365,15.807,8.617,23.677,12.936c3.408,1.87,6.991,2.659,10.616,3.937c4.234,1.493,8.217,3.881,12.321,5.71    c1.888,0.841,3.427,1.844,5.168,2.898c0.983,0.595,3.925,1.29,4.517,2.245c0.489,0.788-0.167,2.789-0.102,3.795    c0.155,2.394,0.722,4.698,0.805,7.118c0.156,4.594,0.163,9.325-0.028,13.922c-0.136,3.29-1.077,5.46-0.644,8.217    c-1.398-0.072-2.8-0.127-4.208-0.132c-9.647-0.043-19.349,0.319-28.988-0.053c-4.557-0.176-9.17-0.611-13.717-0.974    c-4.418-0.352-9.24-0.173-13.558-0.912c-0.247-0.042-0.494-0.067-0.741-0.106c0.095-0.745-0.205-1.514-0.981-2.032    c-3.741-2.496-8.602-3.633-12.638-5.854c-4.275-2.353-8.857-3.992-13.276-6.08c-8.627-4.077-17.902-6.91-26.615-10.881    c-6.605-3.01-13.089-6.307-19.72-9.15c0.134-2.853-0.011-6.055-0.48-8.773C56.163,333.032,54.971,329.784,55.278,329.352z     M41.486,343.072c4.912,0.994,10.586,4.074,14.931,6.474c3.313,1.831,6.967,2.857,10.422,4.533    c4.542,2.202,9.093,4.38,13.696,6.452c8.154,3.67,16.502,7.024,24.679,10.568c3.367,1.46,6.62,2.988,9.891,4.559    c-2.82,0.028-5.641,0.09-8.449,0.089c-9.038-0.003-17.744-1.166-26.796-0.95c-4.391,0.105-8.831-0.346-13.215-0.021    c-1.536,0.115-3.001,0.46-4.516,0.694c-1.961,0.302-3.789,0.121-5.648-0.131c0.01-0.512-0.133-1.043-0.495-1.553    c-1.291-1.822-0.303-5.824-0.504-7.892c-0.19-1.96-0.72-4.032-1.502-5.856c-1.453-3.387-2.837-3.48-6.218-3.434    c-4.826,0.067-9.739,0.205-14.638,0.154c0.591-2.696,0.757-5.55,0.615-8.254c-0.149-2.831-0.936-5.605-1.075-8.418    C35.631,340.972,38.47,342.461,41.486,343.072z M31.808,363.027c4.608,0.083,9.346-0.502,13.9-0.304    c0.381,0.017,2.845,0.701,2.761,0.244c1.084,1.422,0.836,4.857,0.811,6.344c-0.035,2.031-0.163,3.702,0.276,5.296    c-8.243-0.511-16.756,0.138-24.939,0.111c-1.284-0.004-2.713-0.102-4.211-0.216c0.873-3.901-0.27-7.721-0.367-11.772    C23.913,362.379,27.97,362.959,31.808,363.027z M501.66,393.327c-2.399,1.101-8.082,0.668-10.626,0.264    c-3.928-0.623-7.375-0.922-11.418-0.962c-17.402-0.173-34.784-1.82-52.198-1.82c-37.13,0-74.262-0.098-111.391,0.066    c-18.531,0.081-37.115-0.293-55.638,0.185c-17.472,0.45-34.913,1.978-52.407,1.879c-8.075-0.046-15.92,0.985-23.993,0.948    c-8.656-0.04-17.25,0.735-25.895,0.895c-7.733,0.142-15.872-0.859-23.512,0.413c-8.335,1.387-16.81,0.081-25.174,1.341    c-8.34,1.255-16.916-0.881-25.316,0.153c-8.376,1.031-16.004,0.889-24.372-0.077c-7.682-0.886-15.356,0.499-23.037,0.286    c-3.258-0.09-6.314-1.104-9.643-1.102c-4.288,0.002-8.769,0.529-12.999-0.21c-1.099-0.192-2.386-0.313-3.451-0.628    c-2.814-0.833-3.431-1.778-3.973-4.651c-0.063-0.334-0.101-0.667-0.145-1c-0.081-1.766-0.13-3.616,0.389-5.148    c1.509-4.457,8.067-2.783,11.847-2.728c8.591,0.126,17.19-0.143,25.781-0.166c4.443-0.012,8.58,0.4,12.974,0.848    c4.069,0.415,7.949-0.884,12.015-0.914c8.347-0.062,16.814-0.604,25.039,0.764c7.938,1.321,16.865,0.237,24.909,0.234    c7.138-0.001,14.602,0.535,21.686,1.374c17.318,2.051,34.631,0.442,51.969,1.475c16.345,0.974,32.45,1.851,48.856,1.687    c8.751-0.088,17.67,0.522,26.38-0.374c7.717-0.794,15.383,0.329,23.158,0.328c8.241-0.001,16.556,0.293,24.782-0.293    c8.747-0.623,17.492-2.364,26.269-2.508c8.793-0.144,17.717-0.139,26.495-0.819c4.011-0.31,7.891-0.995,11.936-0.981    c4.412,0.015,8.848,0.168,13.254-0.105c17.124-1.058,34.69-1.786,51.816-0.073c17.32,1.733,34.986-1.352,52.29,0.842    c3.133,0.397,6.488-0.75,6.409,2.976C504.673,388.102,504.099,392.209,501.66,393.327z"/>
	</g>
</g>
<g>
</g>
<g>
</g>
<g>
</g>
<g>
</g>
<g>
</g>
<g>
</g>
<g>
</g>
<g>
</g>
<g>
</g>
<g>
</g>
<g>
</g>
<g>
</g>
<g>
</g>
<g>
</g>
<g>
</g>
</svg>
