<svg height="512pt" viewBox="0 0 512 512.00007" width="512pt" xmlns="http://www.w3.org/2000/svg"><path d="m504.5 382.5h-20v-43h5c12.40625 0 22.5-10.09375 22.5-22.5s-10.09375-22.5-22.5-22.5h-96.644531v-24h6.894531c4.144531 0 7.5-3.355469 7.5-7.5 0-4.140625-3.355469-7.5-7.5-7.5h-6.894531v-73.089844c0-12.40625-10.09375-22.5-22.5-22.5s-22.5 10.09375-22.5 22.5v73.089844h-64.355469c-3.582031 0-6.5-2.914062-6.5-6.5v-115.996094c0-3.582031 2.917969-6.5 6.5-6.5h170c3.585938 0 6.5 2.917969 6.5 6.5v116c0 3.582032-2.914062 6.5-6.5 6.5h-21.5c-4.144531 0-7.5 3.355469-7.5 7.5 0 4.140625 3.355469 7.5 7.5 7.5h21.5c11.855469 0 21.5-9.644531 21.5-21.5v-116c0-11.855468-9.644531-21.5-21.5-21.5h-60.527344v-20.0625h42.382813c6.339843 0 11.5-5.160156 11.5-11.5v-42c0-6.339844-5.160157-11.5-11.5-11.5h-130c-6.34375 0-11.5 5.160156-11.5 11.5v42c0 6.339844 5.15625 11.5 11.5 11.5h42.378906v20.0625h-64.234375c-11.855469 0-21.5 9.644532-21.5 21.5v116c0 11.855469 9.644531 21.5 21.5 21.5h64.355469v24h-113.390625v-41.285156c0-35.296875-21.671875-65.871094-52.617188-78.734375 15.246094-8.59375 26.769532-23.027344 31.515625-40.253906.117188 0 .238281.011719.355469.011719 17.109375 0 31.03125-15.027344 31.03125-33.5 0-15.382813-9.828125-28.523438-23.058594-32.359376-.148437-4.320312-.613281-7.664062-.851562-9.148437.007812-2.867187-.292969-12.109375-4.121094-21.8125-6.273438-15.914063-18.691406-25.488281-35.90625-27.6875-.859375-.109375-1.707031-.503906-2.445312-1.132813-6.871094-5.882812-21.65625-11.800781-53.082032-6.601562-18.730468 3.101562-32.9375 14.144531-41.085937 31.9375-4.757813 10.398438-6.996094 22.929688-7.394531 34.449219-13.226563 3.839843-23.054688 16.976562-23.054688 32.355469 0 18.472656 13.921875 33.5 31.03125 33.5.117188 0 .238281-.011719.355469-.011719 4.746093 17.222656 16.265625 31.660156 31.511719 40.25-31.085938 12.917969-52.617188 43.597656-52.617188 78.738281v41.285156h-41.53125c-12.40625 0-22.5 10.09375-22.5 22.5s10.09375 22.5 22.5 22.5h5v4.5c0 4.140625 3.355469 7.5 7.5 7.5s7.5-3.359375 7.5-7.5v-4.5h427v43h-427v-6.667968c0-4.140626-3.355469-7.5-7.5-7.5s-7.5 3.359374-7.5 7.5v6.667968h-20c-4.144531 0-7.5 3.355469-7.5 7.5v30c0 4.140625 3.355469 7.5 7.5 7.5h20v76.996094c0 4.140625 3.355469 7.5 7.5 7.5h381c4.144531 0 7.5-3.359375 7.5-7.5s-3.355469-7.5-7.5-7.5h-373.5v-69.5h427v69.5h-21.832031c-4.144531 0-7.5 3.359375-7.5 7.5s3.355469 7.5 7.5 7.5h29.332031c4.144531 0 7.5-3.359375 7.5-7.5v-77h20c4.144531 0 7.5-3.355469 7.5-7.5v-30c0-4.140625-3.355469-7.5-7.5-7.5zm-195.644531-341.058594h123v35h-123zm53.878906 50h15.238281v20.0625h-15.238281zm.121094 90.96875c0-4.136718 3.363281-7.5 7.5-7.5 4.132812 0 7.5 3.363282 7.5 7.5v80.515625c0 .023438-.003907.050781-.003907.078125 0 .023438.003907.050782.003907.074219v30.832031h-15zm-180.832031 8.738282c-9.164063 7.570312-20.714844 11.792968-32.777344 11.792968-12.058594 0-23.605469-4.222656-32.769532-11.792968 20.910157-11.085938 45.453126-10.652344 65.546876 0zm47.726562-90.40625c0 9.433593-6.148438 17.222656-14.0625 18.347656.121094-3.300782.03125-.558594.0625-23.089844 2.621094-2.996094 3.882812-7.4375 4.789062-11.964844 5.425782 2.980469 9.210938 9.375 9.210938 16.707032zm-102.015625-83.945313c28.878906-4.777344 38.59375 1.242187 40.882813 3.199219 2.964843 2.539062 6.527343 4.136718 10.292968 4.617187 11.640625 1.488281 19.390625 7.347657 23.695313 17.914063 3.796875 9.308594 2.988281 16.691406 3.351562 18.671875.027344.140625 2.476563 13.679687-1.371093 24.480469-3.773438-3.429688-7.167969-11.871094-8.957032-22.367188-.851562-4.96875-3.789062-9.457031-8.066406-12.3125-4.332031-2.890625-7.847656-6.046875-10.453125-9.375-3.015625-3.851562-7.484375-5.871094-12.039063-5.871094-3.1875 0-6.414062.992188-9.210937 3.03125-7.21875 5.273438-21.105469 9.847656-38.09375 12.542969-7.667969 1.21875-13.859375 7.136719-15.40625 14.730469-1.890625 9.265625-5.011719 16.496094-8.4375 19.617187-1.277344-3.574219-1.863281-7.445312-2.074219-11.035156 0-.011719 0-.023437 0-.035156 0-.117188-.015625-.234375-.023437-.351563-1.339844-25.804687 8.769531-52.960937 35.910156-57.457031zm-58.984375 83.945313c0-7.332032 3.785156-13.722657 9.214844-16.703126.902344 4.5 2.214844 9.015626 4.785156 11.953126.03125 22.539062-.058594 19.800781.0625 23.097656-7.914062-1.125-14.0625-8.914063-14.0625-18.347656zm29 15.882812v-16.179688c1.699219-.492187 3.316406-1.292968 4.765625-2.414062 6.792969-5.230469 11.6875-14.980469 14.539063-28.972656.308593-1.5 1.535156-2.671875 3.0625-2.914063 13.828124-2.195312 32.785156-6.621093 44.589843-15.242187.191407-.140625.464844-.191406.589844-.03125 3.589844 4.585937 8.277344 8.828125 13.9375 12.605468.863281.578126 1.449219 1.4375 1.605469 2.359376 1.839844 10.78125 5.960937 25.117187 15.140625 32.1875 1.453125 1.121093 3.070312 1.921874 4.773437 2.414062v16.1875c0 28.328125-23.050781 51.378906-51.382812 51.378906h-.238282c-28.332031 0-51.382812-23.050781-51.382812-51.378906zm-18.714844 136.59375c0-21.339844 9.578125-40.472656 24.652344-53.363281 12.28125 11.566406 28.527344 18.082031 45.558594 18.082031h.003906c17.035156 0 33.277344-6.515625 45.5625-18.082031 15.070312 12.890625 24.652344 32.023437 24.652344 53.363281v41.285156h-140.429688zm-56.535156 71.285156c-4.136719 0-7.5-3.367187-7.5-7.5 0-4.136718 3.363281-7.5 7.5-7.5h467c4.136719 0 7.5 3.363282 7.5 7.5 0 4.132813-3.363281 7.5-7.5 7.5zm474.5 87.996094h-482v-15h482zm0 0"/><path d="m193 234.003906h-34c-4.144531 0-7.5 3.355469-7.5 7.5 0 4.140625 3.355469 7.5 7.5 7.5h34c4.144531 0 7.5-3.359375 7.5-7.5 0-4.144531-3.355469-7.5-7.5-7.5zm0 0"/></svg>