<svg viewBox="0 -18 511.99961 511" xmlns="http://www.w3.org/2000/svg"><path d="m245.589844 118.460938c-3.058594 0-4.214844-.644532-12.328125-5.699219-3.890625-2.421875-9.886719-6.28125-16.355469-10.894531-17.328125-12.355469-27.9375-22.742188-32.445312-31.753907-5.507813-11.011719-7.144532-23.535156-4.609376-35.261719 2.542969-11.769531 8.933594-21.648437 17.992188-27.820312 8.96875-6.113281 19.492188-7.984375 30.433594-5.40625 7.726562 1.820312 12.609375 5.683594 17.316406 10.40625 4.703125-4.722656 9.585938-8.585938 17.3125-10.40625 10.941406-2.578125 21.464844-.707031 30.4375 5.40625 9.054688 6.171875 15.441406 16.050781 17.988281 27.820312 2.53125 11.730469.894531 24.25-4.609375 35.261719-4.507812 9.011719-15.121094 19.398438-32.445312 31.753907-6.46875 4.617187-12.464844 8.472656-16.355469 10.894531-8.117187 5.054687-9.269531 5.699219-12.332031 5.699219zm-26.683594-97.949219c-3.546875 0-6.828125 1.015625-9.800781 3.042969-4.804688 3.273437-8.25 8.785156-9.707031 15.519531-1.574219 7.292969-.527344 15.136719 2.949218 22.089843 5.539063 11.082032 31.554688 28.621094 43.242188 35.75 11.6875-7.128906 37.703125-24.667968 43.242187-35.75 3.476563-6.953124 4.523438-14.796874 2.949219-22.089843-1.457031-6.734375-4.902344-12.246094-9.703125-15.519531-4.273437-2.910157-9.175781-3.738282-14.585937-2.464844-3.722657.875-5.617188 2.746094-11.050782 8.523437-1.132812 1.203125-2.34375 2.488281-3.675781 3.859375-1.882813 1.941406-4.472656 3.035156-7.175781 3.035156s-5.292969-1.09375-7.175782-3.035156c-1.332031-1.371094-2.542968-2.65625-3.675781-3.859375-5.433593-5.777343-7.328125-7.648437-11.050781-8.523437-1.640625-.386719-3.234375-.578125-4.78125-.578125zm0 0"/><path d="m165.699219 321.429688c-.648438 0-1.300781-.070313-1.949219-.199219-.640625-.132813-1.269531-.320313-1.871094-.570313-.597656-.25-1.179687-.5625-1.730468-.921875-.539063-.359375-1.058594-.78125-1.519532-1.238281-.457031-.460938-.878906-.980469-1.238281-1.519531-.359375-.550781-.671875-1.132813-.921875-1.730469-.25-.601562-.4375-1.230469-.570312-1.871094-.128907-.648437-.1875-1.300781-.1875-1.960937 0-2.628907 1.058593-5.210938 2.917968-7.070313.460938-.460937.980469-.867187 1.519532-1.238281.550781-.359375 1.132812-.671875 1.730468-.921875.601563-.25 1.230469-.4375 1.871094-.570312 1.289062-.257813 2.621094-.257813 3.910156 0 .640625.132812 1.269532.320312 1.871094.570312.597656.25 1.179688.5625 1.730469.921875.539062.371094 1.058593.777344 1.519531 1.238281 1.859375 1.871094 2.929688 4.441406 2.929688 7.070313 0 .660156-.070313 1.3125-.199219 1.960937-.132813.640625-.320313 1.269532-.570313 1.871094-.25.597656-.5625 1.179688-.921875 1.730469-.371093.539062-.78125 1.046875-1.238281 1.519531-.460938.457031-.980469.878906-1.519531 1.238281-.550781.359375-1.132813.671875-1.730469.921875-.601562.25-1.230469.4375-1.871094.570313-.648437.128906-1.300781.199219-1.960937.199219zm0 0"/><path d="m511.984375 432.277344c-.625-22.71875-19.933594-41.203125-43.046875-41.203125h-2.902344v-117.8125l2.617188 1.921875c1.75 1.285156 3.828125 1.941406 5.921875 1.941406 1.539062 0 3.085937-.355469 4.515625-1.078125 3.363281-1.703125 5.480468-5.152344 5.480468-8.921875v-49.914062c0-3.183594-1.511718-6.175782-4.078124-8.058594l-134-98.4375c-3.523438-2.589844-8.320313-2.589844-11.839844 0l-60.136719 44.175781v-15.503906c0-5.523438-4.480469-10-10-10h-37.851563c-5.519531 0-10 4.476562-10 10v57.996093l-16.015624 11.769532c-2.5625 1.882812-4.078126 4.875-4.078126 8.058594v19.175781c-32.742187-14.226563-80.679687-13.203125-109.570312-10.851563v-9.46875c0-5.523437-4.476562-10-10-10h-67c-5.523438 0-10 4.476563-10 10v159.5c0 5.519532 4.476562 10 10 10h67c5.523438 0 10-4.480468 10-10v-24.144531h14.558594c1.507812 3.894531 4.335937 13.128906 7.878906 33.710937 10.054688 58.453126 45.589844 90.644532 100.054688 90.644532l260.121093.066406c11.542969 0 22.332031-4.554688 30.382813-12.828125 8.046875-8.269531 12.304687-19.1875 11.988281-30.738281zm-65.945313-41.203125h-57.691406v-100.394531c0-5.523438-4.480468-10-10-10h-75.550781c-5.523437 0-10 4.476562-10 10v24.765624l-61.941406-54 109.707031-80.355468 105.472656 77.476562zm-78.886718 0c-2.023438-8.984375-6.96875-17.367188-14.660156-23.585938l-39.695313-34.609375v-32.195312h55.550781v90.390625zm-130.484375-241.6875h17.847656v20.195312l-17.847656 13.109375zm-20.097657 72.886719 124-91.089844 124 91.089844v25.097656l-118.078124-86.742188c-1.761719-1.296875-3.839844-1.941406-5.921876-1.941406-2.074218 0-4.148437.644531-5.910156 1.933594l-118.089844 86.496094zm-149.570312 143.292968h-47v-139.5h47zm418.660156 83.503906c-4.25 4.367188-9.949218 6.773438-16.042968 6.773438l-260.125-.066406c-55.878907 0-74.535157-40.261719-80.347657-74.035156-2.359375-13.710938-4.75-24.554688-7.109375-32.222657-1.945312-6.324219-5.566406-18.097656-15.722656-18.097656h-19.3125v-85.8125c28.941406-2.441406 91.101562-4.667969 115.757812 17.867187.054688.050782.113282.105469.171876.15625l136.570312 119.058594c.105469.09375.210938.183594.320312.269532 9.640626 7.714843 11.203126 21.828124 3.492188 31.464843-3.738281 4.667969-9.066406 7.605469-15.011719 8.265625-5.949219.65625-11.785156-1.039062-16.40625-4.734375l-114.261719-92.671875c-4.289062-3.476562-10.585937-2.820312-14.066406 1.46875-3.480468 4.289063-2.824218 10.585938 1.464844 14.066406l114.316406 92.710938c7.589844 6.074219 16.820313 9.300781 26.402344 9.300781 1.578125 0 3.164062-.089843 4.753906-.265625 11.253906-1.246094 21.347656-6.804687 28.421875-15.644531 3.855469-4.816406 6.488281-10.226563 7.9375-15.851563h102.074219c12.382812 0 22.722656 9.757813 23.050781 21.753907.167969 6.109375-2.078125 11.875-6.328125 16.246093zm0 0"/></svg>