<?xml version="1.0" encoding="iso-8859-1"?>
<!-- Generator: Adobe Illustrator 19.0.0, SVG Export Plug-In . SVG Version: 6.00 Build 0)  -->
<svg version="1.1" id="Capa_1" xmlns="http://www.w3.org/2000/svg" xmlns:xlink="http://www.w3.org/1999/xlink" x="0px" y="0px"
	 viewBox="0 0 512 512" style="enable-background:new 0 0 512 512;" xml:space="preserve">
<g>
	<g>
		<path d="M336.055,40c-5.52,0-10,4.48-10,10s4.48,10,10,10c5.52,0,10-4.48,10-10S341.575,40,336.055,40z"/>
	</g>
</g>
<g>
	<g>
		<path d="M176.055,40c-5.52,0-10,4.48-10,10s4.48,10,10,10c5.52,0,10-4.48,10-10S181.575,40,176.055,40z"/>
	</g>
</g>
<g>
	<g>
		<path d="M464.038,495.085l-66.172-69.131c26.733-0.958,48.189-22.991,48.189-49.954V79.27c0-16.157-5.647-31.935-15.903-44.428
			c-10.263-12.49-24.641-21.097-40.48-24.23C354.18,3.57,317.842,0,281.666,0h-52.83c-34.407,0-70.246,3.296-106.512,10.544
			C89.719,17.067,66.055,45.938,66.055,79.19V376c0,27.19,21.82,49.365,48.867,49.971l-66.919,69.071
			c-2.795,2.884-3.593,7.16-2.026,10.857c1.565,3.698,5.192,6.101,9.208,6.101h71.5c3.206,0,6.217-1.537,8.098-4.133L165.117,466
			h182.766l30.334,41.868c1.881,2.595,4.893,4.132,8.098,4.132h70.5c4.005,0,7.623-2.39,9.196-6.072
			C467.584,502.244,466.808,497.979,464.038,495.085z M86.055,376V79.19c0-23.753,16.903-44.375,40.19-49.035
			C158.888,23.631,193.381,20,228.835,20h52.83c34.873,0,69.901,3.441,104.118,10.229c11.314,2.239,21.584,8.387,28.912,17.306
			c7.325,8.923,11.359,20.193,11.359,31.734V376c0,16.542-13.458,30-30,30h-280C99.513,406,86.055,392.542,86.055,376z M121.582,492
			H78.797l63.943-66h26.662L121.582,492z M179.608,446l14.491-20h124.803l14.49,20H179.608z M391.418,492L343.6,426h26.625
			l63.175,66H391.418z"/>
	</g>
</g>
<g>
	<g>
		<path d="M396.055,80h-280c-5.522,0-10,4.478-10,10v166c0,5.522,4.478,10,10,10h280c5.522,0,10-4.478,10-10V90
			C406.055,84.478,401.577,80,396.055,80z M246.055,246h-120V100h120V246z M386.055,246h-120V100h120V246z"/>
	</g>
</g>
<g>
	<g>
		<path d="M296.055,40h-80c-5.522,0-10,4.478-10,10s4.478,10,10,10h80c5.522,0,10-4.478,10-10S301.577,40,296.055,40z"/>
	</g>
</g>
<g>
	<g>
		<path d="M366.055,296c-22.056,0-40,17.944-40,40c0,22.056,17.944,40,40,40c22.056,0,40-17.944,40-40
			C406.055,313.944,388.111,296,366.055,296z M366.055,356c-11.028,0-20-8.972-20-20s8.972-20,20-20s20,8.972,20,20
			S377.083,356,366.055,356z"/>
	</g>
</g>
<g>
	<g>
		<path d="M146.055,296c-22.056,0-40,17.944-40,40c0,22.056,17.945,40,40,40c22.056,0,40-17.944,40-40
			C186.055,313.944,168.111,296,146.055,296z M146.055,356c-11.028,0-20-8.972-20-20s8.972-20,20-20s20,8.972,20,20
			S157.083,356,146.055,356z"/>
	</g>
</g>
<g>
	<g>
		<path d="M296.055,306h-80c-5.522,0-10,4.478-10,10c0,5.522,4.478,10,10,10h80c5.522,0,10-4.478,10-10
			C306.055,310.478,301.578,306,296.055,306z"/>
	</g>
</g>
<g>
	<g>
		<path d="M296.055,346h-80c-5.522,0-10,4.478-10,10c0,5.522,4.478,10,10,10h80c5.522,0,10-4.478,10-10
			C306.055,350.478,301.578,346,296.055,346z"/>
	</g>
</g>
<g>
</g>
<g>
</g>
<g>
</g>
<g>
</g>
<g>
</g>
<g>
</g>
<g>
</g>
<g>
</g>
<g>
</g>
<g>
</g>
<g>
</g>
<g>
</g>
<g>
</g>
<g>
</g>
<g>
</g>
</svg>
