<?xml version="1.0" encoding="iso-8859-1"?>
<!-- Generator: Adobe Illustrator 19.0.0, SVG Export Plug-In . SVG Version: 6.00 Build 0)  -->
<svg xmlns="http://www.w3.org/2000/svg" xmlns:xlink="http://www.w3.org/1999/xlink" version="1.1" id="Layer_1" x="0px" y="0px" viewBox="0 0 512.003 512.003" style="enable-background:new 0 0 512.003 512.003;" xml:space="preserve">
<g>
	<g>
		<path d="M99.06,373.776c-0.77-1.481-2.116-2.781-3.739-3.338c-0.536-0.184-0.958-0.387-1.54-0.417    c-0.574-0.029-0.915-0.032-1.113-0.009c-0.438-3.077,1.865-5.907-1.348-8.609c-1.376-1.157-2.936-1.347-4.678-1.442    c-3.229-0.176-2.608-0.001-3.078-3.136c-0.577-3.85-3.541-5.366-7.23-5.347c-0.271,0.001-0.551,0.014-0.825,0.018    c1.09-2.916,0.802-6.731,0.686-10.208c-0.147-4.411,0.427-8.702,0.406-13.094c-0.028-5.397-0.905-10.763-1.074-16.148    c-0.337-10.668-0.699-21.337-0.646-32.034c0.095-19.418-1.314-38.716-1.724-58.082c-0.095-4.527-0.135-9.132-0.611-13.631    c-0.43-4.07-1.881-11.683,0.619-15.413c2.523-3.767,8.638-4.996,12.293-7.407c2.797-1.843,4.159-4.161,4.529-7.566    c1.017-9.365-4.526-15.015-13.553-15.823c-7.68-0.688-14.976-0.597-22.363-0.05c-5.336-0.279-10.684-0.26-15.876,0.137    c-5.934,0.454-16.245,1.283-20.192,6.466c-3.474,4.562,0.682,10.636,4.386,13.583c3.992,3.176,9.089,4.975,9.295,10.725    c0.195,5.447-0.365,11.084-0.346,16.576c0.032,9.08-1.585,18.148-2.255,27.208c-0.696,9.42-0.399,18.977-0.371,28.446    c0.029,10-1.104,19.986-0.915,29.954c0.091,4.782-0.394,9.467-0.438,14.228c-0.048,5.094-0.006,10.586-0.57,15.631    c-0.489,4.376-1.152,8.758-1.753,13.126c-0.507,3.69-1.778,8.975-0.124,12.523c0.018,0.039,0.045,0.071,0.064,0.109    c-3.664,0.378-7.268,1.607-9.511,3.885c-2.16,2.196-0.896,4.396-0.74,7.026c0.164,2.778,1.189,1.243-0.852,2.126    c-1.107,0.479-2.292,0.757-3.401,1.314c-2.054,1.031-3.495,1.963-4,4.334c-0.212,0.999-0.093,1.955,0.077,2.947    c0.121,0.708,0.628,1.585,0.649,2.266c0.058,1.745-2.216,1.891-3.394,2.408c-1.435,0.629-2.464,1.574-3.063,3.044    c-0.93,2.281-0.872,5.895-0.44,8.271c1.018,5.598,7.489,4.211,11.87,3.895c4.165-0.3,8.211,0.298,12.412-0.021    c4.252-0.322,8.464-0.299,12.734-0.298c8.675,0.002,17.227-0.798,25.818-0.885c3.219-0.032,6.415-0.434,9.616-0.71    c4.224,0.891,9.029,0.688,13.112,0.119c4.018-0.56,11.467,0.811,13.866-3.487C101.415,383.967,100.632,376.792,99.06,373.776z     M23.012,171.238c1.535-3.12,11.397-3.919,14.527-4.318c6.754-0.863,13.539-0.761,20.324-0.977    c3.993,0.252,7.988,0.625,12.055,1.206c3.874,0.553,9.426,0.14,12.236,3.321c1.141,1.292,1.764,3.596,2.001,5.535    c-2.285-1.239-5.593-1.627-7.528-2.088c-6.88-1.639-13.539-2.066-20.575-2.492c-10.471-0.635-21.37,0.651-31.304,3.909    C23.51,173.847,22.56,172.159,23.012,171.238z M27.332,177.792c7.442-0.422,14.939-2.459,22.372-2.522    c5.706-0.049,11.452,0.513,17.127,0.998c3.302,0.283,6.395,1.232,9.592,2.08c1.496,0.396,5.452,0.887,6.175,2.316    c0.1,0.198,0.218,0.357,0.344,0.499c-0.346,0.313-0.765,0.619-1.275,0.95c-4.687,3.042-10.393,3.59-13.654,7.952    c-5.191-1.331-10.946-0.755-16.25-0.896c-3.906-0.103-9.81-0.616-14.277,0.864c-0.263-2.108-0.839-4.195-2.078-5.781    C33.265,181.51,30.06,179.853,27.332,177.792z M32.35,334.384c0.452-3.471,1.144-7.01,1.325-10.505    c0.442-8.529,0.99-17.324,0.893-25.852c-0.097-8.654,0.859-17.221,0.877-25.87c0.033-16.204,0.702-32.253,1.255-48.387    c0.164-4.795,0.931-9.395,0.828-14.245c-0.11-5.203,0.169-10.371,0.169-15.547c0-0.039-0.002-0.081-0.002-0.12    c5.511-1.199,11.633-0.601,17.096-0.684c3.491-0.052,7.599,0.792,11.332,0.763c-1.841,5.842-0.276,12.036-0.229,18.033    c0.125,15.741,2.002,31.537,2.594,47.311c0.683,18.208,0.195,36.522,1.617,54.673c0.345,4.395,0.895,8.801,1.041,13.211    c0.145,4.365-0.628,8.641-0.729,13.003c-0.068,2.969,0.774,8.199-1.738,9.83c-1.51,0.982-4.278,0.428-6.089,0.607    c-2.593,0.257-5.151,0.702-7.764,0.819c-3.906,0.174-7.711-0.561-11.597-0.546c-3.34,0.013-9.092,0.38-11.545-2.581    C29.327,345.444,31.926,337.641,32.35,334.384z M19.851,359.452c0.211-0.597,0.581-1.096,1.102-1.354    c3.344-1.654,6.955-2.152,10.584-2.763c3.129-0.527,6.753,0.361,9.992,0.355c6.063-0.011,12.093,0.761,18.149,0.924    c3.345,0.091,6.693,0.049,10.037,0.195c1.631,0.071,3.261,0.183,4.882,0.377c0.911,0.109,2.956,0.01,3.496,0.942    c1.137,1.962-1.963,3.223-3.299,3.213c-3.334-0.023-6.665,0.096-10,0.12c-5.806,0.038-11.825,0.42-17.625,0.943    c-5.785,0.52-11.723,0.147-17.63,0.591c-2.439,0.184-5.384,0.765-7.79,0.535C19.863,363.349,19.284,361.052,19.851,359.452z     M13.635,370.368c0.521-0.375,1.071-0.704,1.641-0.998c1.27-0.654,2.641-1.125,4.014-1.495c1.896-0.511,3.522-0.242,5.455-0.373    c2.748-0.187,5.49-0.415,8.244-0.442c5.109-0.052,10.142,0.1,15.207-0.337c5.84-0.503,11.864-0.868,17.714-0.96    c5.338-0.084,11.492,0.785,16.849-0.435c1.38,0.056,2.785-0.152,3.883,0.491c1.228,0.719,0.734,2.938,0.456,4.042    c-0.415,1.649-1.654,3.052-3.432,3.05c-4.788-0.003-9.569,0.47-14.38,0.582c-7.842,0.182-15.649,0.702-23.5,0.888    c-7.921,0.188-15.781-0.002-23.665,0.598c-1.753,0.134-3.503,0.288-5.252,0.457c-1.152,0.112-2.449,0.677-3.432-0.104    C11.916,374.123,12.096,371.475,13.635,370.368z M93.394,382.432c-0.018,0.015-0.037,0.03-0.055,0.046    c-1.192,0.971-2.645,1.304-4.115,1.12c-1.672-0.21-3.157,0.632-4.766,0.552c-12.095-0.6-24.252,2.176-36.288,2.167    c-0.169,0-0.339,0-0.509,0c-8.472-0.006-16.944-0.003-25.413,0.134c-4.222,0.069-8.455,0.117-12.672,0.322    c-1.103,0.053-2.56,0.646-3.447-0.198c-1.281-1.22-0.53-3.207,0.619-4.169c2.334-1.954,5.502-2.404,8.445-2.493    c3.414-0.102,6.876-0.464,10.283-0.698c8.181-0.562,16.463,0.046,24.646-0.604c8.054-0.639,16.129-0.598,24.199-1.08    c3.826-0.229,7.672-0.213,11.486-0.487c1.817-0.131,3.911-0.801,5.706-0.424c1.548,0.324,2.47,1.472,2.515,2.972    C94.063,380.784,94.34,381.639,93.394,382.432z"/>
	</g>
</g>
<g>
	<g>
		<path d="M510.699,377.972c-0.805-2.817-2.169-4.306-4.669-5.777c-1.32-0.777-2.291-1.244-3.825-1.473    c-1.484-0.221-4.085,0.607-5.082-0.824c-0.612-0.877-0.084-3.488-0.674-4.716c-0.559-1.164-1.206-1.856-2.365-2.568    c-1.236-0.758-3.07-1.277-5.102-1.512c1.661-3.116,2.457-8.597,0.373-11.002c-0.885-1.022-2.255-1.51-3.834-1.677    c-0.064-1.147-0.278-2.313-0.281-3.446c-0.006-3.307,0.307-6.627,0.306-9.946c-0.001-7.596,0.173-15.103-0.452-22.672    c-1.04-12.584-2.034-25.477-2.226-38.098c-0.123-8.109,0.464-16.237-0.018-24.334c-0.485-8.139-0.82-16.281-0.814-24.434    c0.005-6.623-0.149-13.199-0.355-19.809c-0.112-3.583-0.144-7.194-0.444-10.763c-0.064-0.764-0.117-1.519-0.2-2.281    c-0.029-0.262-0.16-3.959-0.607-2.907c0.309-0.726,0.312-1.428,0.129-2.057c0.545-0.154,1.071-0.348,1.567-0.602    c3.126-1.605,5.672-4.835,8.015-7.362c3.671-3.961,6.633-9.683,3.344-14.868c-0.156-0.246-0.346-0.462-0.525-0.688    c2.383-0.144,4.659-0.853,5.961-3.082c0.836-1.431,0.645-2.895,0.57-4.434c-0.158-3.241-0.518-6.495-0.693-9.743    c-0.326-6.047-0.487-11.907-1.624-17.873c-0.677-3.551-0.624-7.211-3.971-9.329c-4.271-2.7-10.553-2.213-15.348-2.108    c-12.475,0.275-24.967,0.871-37.453,0.984c-26.165,0.239-52.313,1.108-78.475,1.195c-12.277,0.041-24.839-0.629-37.055,0.279    c-11.92,0.887-23.755,1.477-35.729,1.469c-6.766-0.003-13.515,0.471-20.26,0.859c-3.969,0.229-11.439-0.562-14.676,2.274    c-3.541,3.103-2.211,11.719-2.489,15.783c-0.403,5.892-0.346,11.607,1.064,17.284c-8.4,0.145-17.825,0.016-25.968,2.084    c-6.203,1.576-11.252,5.408-5.825,11.214c3.656,3.912,6.422,8.014,9.66,12.221c0.96,1.247,2.037,2.112,3.261,2.683    c-0.518,12.711-2.362,25.412-2.78,38.153c-0.468,14.238-0.907,28.584-0.71,42.829c0.191,13.728-0.586,27.34-1.143,41.055    c-0.278,6.835-0.645,13.743-0.641,20.578c0.002,6.23-0.665,12.494,0.134,18.708c0.056,0.434,0.108,0.877,0.167,1.318    c-1.742,0.168-3.434,0.441-4.945,0.829c-4.66,1.198-4.657,4.746-4.95,8.83c-0.045,0.629-0.061,1.231-0.044,1.805    c-6.499-0.082-13.1,0.404-19.237,0.475c-4.544,0.053-9.577-0.267-14.514-0.089c0.219-3.653-1.268-7.991-2.41-10.476    c-0.446-0.969-1.931-1.543-2.927-1.191c-1.669,0.591-3.396,0.924-5.147,1.157c0.536-2.207,0.186-5.153,0.359-7.269    c0.356-4.34,0.222-8.762,0.3-13.117c0.134-7.621-0.607-15.095-0.742-22.656c-0.268-15.007-3.19-29.749-3.432-44.774    c-0.301-18.709,0.166-37.325,0.149-56.022c-0.005-4.423,0.102-8.861-0.036-13.282c-0.074-2.408-0.139-4.426-2.222-5.972    c-2.497-1.852-5.837-2.013-9.134-1.458c-4.246-0.58-9.584,0.425-12.953,0.909c-5.675,0.818-9.413,2.887-10.627,8.898    c-1.354,6.709-1.172,14.279-1.725,21.12c-0.604,7.455-1.338,14.858-2.03,22.285c-1.448,15.539-1.7,31.206-2.759,46.754    c-0.486,7.117,0.26,14.171-0.101,21.266c-0.416,8.156-0.518,16.152-1.506,24.295c-0.427,3.518-0.832,7.029-1.204,10.554    c-0.299,2.832-1.294,6.243-0.25,9.056c-2.271,0.17-4.426,0.511-6.173,1.136c-4.379,1.568-4.45,8.157-4.419,12.062    c-1.866,1.613-1.859,4.386-1.912,6.915c-1.914,0.466-4.006,0.267-5.692,1.964c-1.983,1.993-1.512,4.365-1.606,6.938    c-0.087,2.397-1.322,6.121,0.557,8.161c1.755,1.906,4.804,0.969,7.029,1.151c7.758,0.637,15.19,1.367,23.028,1.414    c10.078,0.061,20.162-0.538,30.237-0.023c16.906,0.864,33.789,0.984,50.703,1.089c16.948,0.107,34.094,0.422,51.095-0.211    c6.517,0.989,13.569,0.687,19.913,0.521c10.636-0.281,21.31-0.339,31.933,0.127c20.369,0.895,41.007,0.482,61.404,0.559    c21.183,0.08,42.515-0.717,63.655,0.601c7.959,0.496,15.931,0.569,23.89,1.023c9.086,0.52,18.566,0.965,27.654,0.175    c5.167,0.409,12.341-0.308,13.558-4.956C512.491,386.102,511.573,381.025,510.699,377.972z M482.569,354.026    c1.198,0.08,2.441,0.797,2.743,1.96c0.164,0.63,0.2,1.164,0.134,1.613c-0.418,2.843-4.923,2.376-7.103,2.4    c-9.19,0.1-18.33,0.627-27.555,0.635c-5.079,0.005-10.125,0.038-15.193-0.245c-1.403-0.078-2.846-0.255-4.25-0.302    c-2.739-0.094-1.651,0.753-2.367-0.997c-0.181-0.442,0.26-3.893,0.63-4.206c0.322-0.271,3.239-0.294,3.72-0.341    c1.828-0.175,3.602-0.348,5.36-0.601c1.687,0.143,3.813-0.102,5.232-0.069c3.967,0.092,7.887-0.372,11.85-0.254    c5.632,0.166,11.201,1.644,16.804,1.47c1.694-0.053,3.396,0.006,5.086-0.156C479.319,354.771,480.896,353.915,482.569,354.026z     M424.203,360.547c-6.282-0.282-12.593-0.127-18.888,0.215c-5.51,0.3-11.041,0.224-16.56,0.471    c-0.817,0.037-1.644,0.057-2.475,0.076c1.737-3.074,2.614-8.75,0.483-11.21c-0.885-1.022-2.255-1.51-3.834-1.677    c-0.064-1.147-0.278-2.313-0.281-3.446c-0.006-3.307,0.306-6.627,0.306-9.946c-0.001-7.596,0.173-15.103-0.452-22.672    c-1.04-12.584-2.034-25.477-2.226-38.098c-0.123-8.109,0.464-16.237-0.018-24.334c-0.485-8.138-0.82-16.28-0.814-24.434    c0.005-6.623-0.149-13.199-0.355-19.809c-0.112-3.583-0.146-7.193-0.444-10.763c-0.064-0.764-0.118-1.519-0.2-2.281    c-0.029-0.262-0.16-3.959-0.607-2.907c0.309-0.726,0.312-1.428,0.129-2.057c0.545-0.154,1.071-0.348,1.567-0.603    c3.126-1.605,5.672-4.835,8.015-7.362c3.671-3.961,6.632-9.683,3.344-14.868c-0.423-0.666-0.953-1.238-1.536-1.758    c9.947,0.379,19.894,0.859,29.836,0.813c1.848-0.008,3.693-0.05,5.539-0.096c-1.373,1.883-1.29,4.298,1.433,7.211    c3.656,3.912,6.421,8.014,9.66,12.221c0.96,1.247,2.037,2.112,3.261,2.683c-0.518,12.711-2.362,25.412-2.78,38.153    c-0.469,14.238-0.908,28.584-0.71,42.829c0.191,13.728-0.586,27.34-1.143,41.055c-0.278,6.835-0.645,13.743-0.641,20.578    c0.002,6.23-0.666,12.494,0.134,18.708c0.056,0.434,0.108,0.877,0.167,1.318c-1.742,0.168-3.434,0.441-4.945,0.829    c-4.66,1.198-4.657,4.746-4.95,8.83C424.158,359.042,424.147,359.822,424.203,360.547z M321.586,360.128    c-1.457,0.007-2.912,0-4.361-0.06c-6.172-0.258-12.071-0.597-18.238-0.149c-4.707,0.341-9.814,0.176-14.639-0.005    c1.262-3.176,1.666-7.693-0.173-9.814c-0.885-1.022-2.255-1.51-3.834-1.677c-0.064-1.147-0.278-2.313-0.281-3.446    c-0.006-3.307,0.307-6.627,0.306-9.946c-0.001-7.596,0.173-15.103-0.452-22.672c-1.04-12.584-2.034-25.477-2.226-38.098    c-0.123-8.109,0.464-16.237-0.018-24.334c-0.485-8.138-0.82-16.28-0.814-24.434c0.005-6.623-0.149-13.199-0.356-19.809    c-0.112-3.583-0.144-7.194-0.444-10.763c-0.064-0.764-0.117-1.519-0.2-2.281c-0.029-0.262-0.16-3.959-0.607-2.907    c0.309-0.726,0.312-1.428,0.129-2.057c0.545-0.153,1.071-0.348,1.567-0.602c3.126-1.605,5.672-4.835,8.015-7.362    c3.624-3.911,6.545-9.536,3.455-14.669c2.475-0.017,4.951-0.031,7.438-0.023c8.68,0.027,17.299-0.344,25.951-0.662    c-0.983,1.796-0.692,4.019,1.772,6.656c3.656,3.912,6.423,8.014,9.66,12.221c0.96,1.247,2.037,2.112,3.261,2.683    c-0.518,12.711-2.361,25.412-2.78,38.153c-0.468,14.238-0.908,28.584-0.71,42.829c0.191,13.728-0.586,27.34-1.143,41.055    c-0.278,6.835-0.645,13.743-0.641,20.578c0.002,6.23-0.666,12.494,0.134,18.708c0.056,0.434,0.108,0.877,0.167,1.318    c-1.742,0.168-3.434,0.441-4.945,0.829c-4.66,1.198-4.657,4.746-4.95,8.83C321.578,358.886,321.562,359.524,321.586,360.128z     M339.063,269.553c-0.656-14.379,0.014-29.087,0.498-43.472c0.247-7.328,0.746-14.637,1.117-21.959    c0.29-5.725,1.238-11.528,1.237-17.274c4.493,0.031,9.015-0.719,13.526-0.425c3.862,0.252,7.663,0.907,11.533,1.157    c1.655,0.108,3.538,0.37,5.435,0.488c-0.742,3.242,0.52,6.898,0.629,10.19c0.175,5.259,0.159,10.53,0.471,15.772    c0.746,12.561,0.41,25.276,0.966,37.868c0.557,12.622,0.038,25.204,0.818,37.836c0.772,12.492,1.858,25.027,1.734,37.543    c-0.037,3.659,0.364,7.308,0.442,10.964c0.048,2.242,0.53,5.066-0.111,7.254c-1.632,5.565-11.763,3.534-15.832,3.072    c-5.662-0.644-11.267-0.316-16.93-0.175c-1.026,0.026-4.826-0.903-6.814-0.99c-0.159-0.803-0.392-1.672-0.418-2.06    C335.635,320.177,340.212,294.763,339.063,269.553z M359.85,181.716c-6.148-0.78-12.813,0.631-18.846-0.613    c-3.31-0.683-4.479-3.368-6.417-5.853c-0.923-1.183-1.945-2.289-2.865-3.475c-0.884-0.94-1.636-1.976-2.252-3.107    c-0.07-0.212-0.137-0.401-0.2-0.569c0.75-0.228,1.75-0.71,2.19-0.829c1.628-0.444,3.334-0.802,5.002-1.053    c2.861-0.43,5.568-1.038,8.405-1.603c9.79-1.951,20.103-1.643,30.177-1.199c4.47,1.136,11.237,2.291,11.537,6.678    c0.23,3.355-4.874,8.743-7.404,10.57C373.772,184.566,365.976,182.492,359.85,181.716z M327.02,354.881    c0.322-0.271,3.239-0.294,3.72-0.341c1.828-0.175,3.604-0.348,5.36-0.601c1.687,0.143,3.813-0.102,5.232-0.069    c3.967,0.092,7.887-0.372,11.85-0.254c5.633,0.166,11.201,1.644,16.804,1.47c1.693-0.053,3.396,0.006,5.086-0.156    c1.659-0.159,3.236-1.015,4.909-0.904c1.198,0.08,2.441,0.797,2.743,1.96c0.164,0.63,0.199,1.164,0.134,1.613    c-0.418,2.843-4.923,2.376-7.104,2.4c-9.19,0.1-18.33,0.627-27.555,0.635c-5.047,0.005-10.061,0.037-15.097-0.242    c-1.134-0.117-2.271-0.205-3.414-0.245c-0.31-0.021-0.624-0.05-0.932-0.062c-0.494-0.017-0.859-0.003-1.137,0.021    c-0.302-0.002-0.604-0.006-0.907-0.007c-0.046-0.139-0.085-0.43-0.323-1.01C326.209,358.647,326.649,355.194,327.02,354.881z     M441.652,269.553c-0.656-14.379,0.014-29.087,0.498-43.472c0.247-7.328,0.746-14.637,1.117-21.959    c0.29-5.725,1.238-11.528,1.237-17.274c4.492,0.031,9.015-0.719,13.526-0.425c3.863,0.252,7.663,0.907,11.533,1.157    c1.655,0.108,3.538,0.37,5.435,0.488c-0.742,3.242,0.52,6.898,0.629,10.19c0.175,5.259,0.159,10.53,0.471,15.772    c0.746,12.561,0.41,25.276,0.966,37.868c0.557,12.622,0.038,25.204,0.818,37.836c0.772,12.492,1.858,25.027,1.734,37.543    c-0.037,3.659,0.364,7.308,0.441,10.964c0.047,2.242,0.53,5.066-0.111,7.254c-1.632,5.565-11.763,3.534-15.83,3.072    c-5.662-0.644-11.266-0.316-16.93-0.175c-1.026,0.026-4.826-0.903-6.814-0.99c-0.159-0.803-0.392-1.672-0.418-2.06    C438.224,320.177,442.802,294.763,441.652,269.553z M481.766,180.663c-5.405,3.904-13.2,1.83-19.326,1.053    c-6.148-0.78-12.813,0.631-18.846-0.613c-3.31-0.683-4.479-3.368-6.417-5.853c-0.923-1.183-1.945-2.289-2.865-3.475    c-0.884-0.94-1.636-1.976-2.252-3.107c-0.07-0.212-0.137-0.401-0.2-0.569c0.75-0.228,1.75-0.71,2.19-0.829    c1.628-0.444,3.334-0.802,5.002-1.053c2.861-0.43,5.568-1.038,8.405-1.603c9.79-1.951,20.103-1.643,30.177-1.199    c4.47,1.136,11.237,2.291,11.537,6.678C489.4,173.447,484.296,178.835,481.766,180.663z M477.85,125.814    c2.759-0.094,5.547-0.208,8.305-0.244c3.545-0.046,5.069,0.387,5.961,4.137c1.3,5.465,0.166,11.649,0.26,17.188    c0.049,2.938,1.008,6.937,0.49,9.743c-0.33,1.785,0.789,0.637-0.882,1.916c-0.934,0.715-3.274,0.314-4.113,0.314    c-2.649,0.001-5.245,0.216-7.837,0.474c-7.151-1.198-14.301-1.769-21.712-1.632c-0.165,0.003-0.337,0.005-0.503,0.008    c-0.251-0.021-0.51-0.048-0.74-0.055c-4.228-0.139-8.455-0.363-12.684-0.475c-8.412-0.222-16.8,0.181-25.204,0.228    c-8.042,0.046-16.192-0.958-24.211-0.517c-8.457,0.465-16.79,0.525-25.245,0.624c-3.029,0.036-6.064,0.05-9.103,0.06    c-0.331-5.197-0.457-10.411-0.7-15.613c-0.228-4.905,0.275-9.992-0.383-14.88C398.971,127.2,438.492,127.151,477.85,125.814z     M258.279,129.637c1.213-2.931,10.384-2.159,13.388-2.365c5.092-0.352,10.192-0.703,15.299-0.78    c19.953-0.299,39.876,0.492,59.816,0.559c2.726,0.009,5.455,0.017,8.181,0.024c-0.52,4.859,0.131,10.431,0.266,14.936    c0.148,4.932-0.317,10.494,0.282,15.586c-10.218,0.024-20.456,0.069-30.606,0.663c-7.775,0.455-15.561,0.867-23.361,0.874    c-4.249,0.003-8.51-0.069-12.747,0.213c-1.567,0.104-3.144,0.221-4.708,0.406c-0.516,0.061-1.594,0.372-2.731,0.672    c-1.099-0.267-2.237-0.442-3.383-0.519c-6.604-1.274-13.177-2.01-19.921-2.172c0.438-3.975-0.148-7.824-0.131-11.891    c0.01-2.451,0.373-4.928,0.473-7.381C258.49,136.241,257.461,131.614,258.279,129.637z M231.999,175.25    c-0.923-1.183-1.945-2.289-2.865-3.475c-0.885-0.94-1.636-1.976-2.252-3.107c-0.07-0.212-0.137-0.401-0.2-0.569    c0.75-0.228,1.75-0.71,2.19-0.829c1.628-0.444,3.334-0.802,5.002-1.053c2.861-0.43,5.568-1.038,8.405-1.603    c9.79-1.951,20.103-1.643,30.177-1.199c4.47,1.136,11.237,2.291,11.537,6.678c0.23,3.355-4.874,8.743-7.404,10.57    c-5.405,3.904-13.2,1.83-19.326,1.053c-6.148-0.78-12.813,0.631-18.846-0.613C235.105,180.42,233.936,177.735,231.999,175.25z     M236.474,269.553c-0.656-14.379,0.014-29.087,0.498-43.472c0.247-7.328,0.746-14.637,1.117-21.959    c0.29-5.725,1.238-11.528,1.236-17.274c4.493,0.031,9.015-0.719,13.526-0.425c3.862,0.252,7.663,0.907,11.533,1.157    c1.655,0.108,3.538,0.37,5.435,0.488c-0.742,3.242,0.52,6.898,0.629,10.19c0.175,5.259,0.159,10.53,0.471,15.772    c0.746,12.561,0.41,25.276,0.966,37.868c0.557,12.622,0.038,25.204,0.818,37.836c0.772,12.492,1.859,25.027,1.734,37.543    c-0.037,3.659,0.364,7.308,0.441,10.964c0.047,2.242,0.53,5.066-0.111,7.254c-1.632,5.565-11.763,3.534-15.83,3.072    c-5.662-0.644-11.266-0.316-16.93-0.175c-1.026,0.026-4.826-0.903-6.814-0.99c-0.159-0.803-0.392-1.672-0.418-2.06    C233.046,320.177,237.623,294.763,236.474,269.553z M224.431,354.881c0.322-0.271,3.239-0.294,3.72-0.341    c1.828-0.175,3.604-0.348,5.36-0.601c1.687,0.143,3.813-0.102,5.232-0.069c3.967,0.092,7.887-0.372,11.85-0.254    c5.632,0.166,11.202,1.644,16.804,1.47c1.694-0.053,3.396,0.006,5.085-0.156c1.659-0.159,3.236-1.015,4.911-0.904    c1.198,0.08,2.441,0.797,2.743,1.96c0.164,0.63,0.2,1.164,0.134,1.613c-0.418,2.843-4.923,2.376-7.103,2.4    c-9.19,0.1-18.33,0.627-27.555,0.635c-5.079,0.005-10.125,0.038-15.193-0.245c-1.403-0.078-2.846-0.255-4.25-0.302    c-2.739-0.094-1.651,0.753-2.367-0.997C223.62,358.647,224.06,355.194,224.431,354.881z M133.381,343.263    c0.415-3.387,0.883-6.751,1.31-10.137c3.013-23.862,2.777-47.807,3.699-71.805c0.536-13.961,0.881-27.963,1.216-41.878    c0.161-6.723,0.679-13.451,1.219-20.16c0.29-3.594-0.1-6.246,4.205-8.101c1.425-0.614,3.622-0.726,5.092-0.954    c0.427-0.066,0.997-0.167,1.649-0.281c0.211,0.188,0.478,0.305,0.784,0.293c2.89-0.112,5.417-0.155,8.197,0.211    c1.032,0.135,2.683-0.173,3.578,0.356c1.425,0.841,0.888,0.614,0.766,2.536c-0.449,7.105-0.036,14.369-0.041,21.487    c-0.01,13.114-0.284,26.15,0.023,39.293c0.275,11.782,0.273,23.493,2.296,35.135c2.097,12.066,2.312,25.032,2.555,37.254    c0.131,6.545,0.655,13.252-0.149,19.766c-0.414,3.355-1.63,3.788-5.355,3.641c-2.769-0.109-5.472-0.514-8.277-0.53    c-5.573-0.033-11.051,0.402-16.614,0.656c-2.222,0.102-5.695,0.907-6.699-2.277C132.532,346.804,133.27,344.168,133.381,343.263z     M121.87,358.122c0.771-2.514,2.341-2.136,4.709-2.454c1.925-0.259,3.811-0.438,5.676-0.701c2.661,0.687,5.728,0.535,8.191,0.378    c7.416-0.474,14.806-1.216,22.235-0.566c1.534,0.134,3.457,0.19,5.324-0.06c3.657,0.129,7.502-0.269,10.948-0.688    c0.664,1.832,1.314,4.29,0.926,5.74c-0.142,0.531-0.472,0.923-0.91,1.222c-1.372,0.222-2.714,0.519-4.013,0.908    c-0.793,0.032-1.539,0.033-2.107,0.069c-5.48,0.344-11.347-0.104-16.825-0.455c-6.112-0.392-12.223-0.199-18.345-0.047    c-3.895,0.096-7.708,0.095-11.59-0.191c-0.741-0.055-3.095,0.304-4.627,0.329C121.487,360.365,121.586,359.046,121.87,358.122z     M124.442,365.758c0.566-0.091,1.121-0.154,1.648-0.132c5.372,0.216,10.739,0.34,16.122,0.392    c7.64,0.073,15.253,0.42,22.875,0.656c3.985,0.124,7.575,0.396,11.586-0.034c0.459-0.049,0.947-0.073,1.441-0.099    c1.181-0.016,2.349-0.073,3.433-0.077c6.08-0.018,12.125-0.213,18.211-0.142c5.859,0.068,11.68,0.024,17.512-0.064    c4.605-0.071,9.598,0.094,14.24-0.709c4.708,0.074,9.456-0.025,14.1-0.005c7.305,0.033,14.882,0.556,22.151-0.046    c2.835-0.235,7.029,0.082,10.497-0.662c1.43-0.022,2.867-0.025,4.321,0.105c5.61,0.504,11.767,0.849,17.365,0.458    c9.01-0.629,18.578,0.41,27.774-0.097c6.751,0.434,13.726,0.212,20.48,0.243c7.305,0.033,14.882,0.556,22.151-0.046    c1.216-0.101,2.688-0.1,4.242-0.123c9.82,1.678,20.931,0.826,30.724,0.412c5.937-0.25,11.893-0.069,17.838-0.093    c5.704-0.023,11.161,0.875,16.802-0.118c3.629,0.007,7.262-0.049,10.833-0.033c7.797,0.036,15.569,0.78,23.364,0.884    c3.695,0.049,14.817-1.613,16.94,2.486c0.469,0.904,0.111,2.458,0.204,3.723c-3.405-0.229-6.866-0.215-10.038-0.362    c-7.557-0.353-14.995-0.292-22.526,0.285c-6.416,0.493-12.821,1.488-19.245,1.699c-2.619,0.086-5.254,0.091-7.881,0.18    c-20.866-1.348-41.791-1.521-62.702-1.541c-23.158-0.023-46.253-0.931-69.404-0.757c-21.311,0.16-42.46,0.472-63.757-0.517    c-21.145-0.982-42.138-2.049-63.333-2.049c-11.834,0-23.632-0.079-35.445,0.51c-5.332,0.267-10.64-0.504-15.929,0.235    c-0.171,0.024-0.328,0.055-0.495,0.081c-0.301-1.05-0.687-2.096-0.687-3.136C121.457,366.815,122.984,366.519,124.442,365.758z     M504.908,386.164c-0.656,0.147-1.293,0.354-1.909,0.633c-2.521,0.729-5.094,1.267-7.67,1.833    c-16.195-1.263-32.529-0.811-48.733-2.158c-21.091-1.754-42.496-1.049-63.655-0.969c-20.401,0.077-41.025,0.728-61.404-0.063    c-10.62-0.412-21.307-0.334-31.933,0.056c-7.134,0.262-14.759-0.341-21.826,0.978c-15.483-0.506-31.082,0.404-46.445-1.326    c-16.3-1.836-32.703-1.605-49.073-1.944c-17.222-0.356-34.488,0.495-51.687,0.079c-2.852-0.069-5.758,0.074-8.607-0.346    c0.142-0.01,0.283-0.021,0.45-0.032c0.16-1.129,0.21-2.265,0.148-3.404c0.416-2.764,0.214-2.243,2.68-2.743    c1.597-0.323,3.113-0.394,4.224-1.29c0.461-0.054,0.922-0.1,1.384-0.131c4.758-0.312,9.552,0.365,14.337,0.235    c10.559-0.289,21.072-0.573,31.645-0.573c21.101,0,42.349-0.137,63.416,1.128c20.573,1.237,41.301,0.763,61.908,1.317    c22.975,0.617,46.02,1.11,69.003,1.147c13.157,0.021,26.498-0.622,39.628,0.195c11.899,0.74,23.838,1.641,35.756,0.759    c0.25-0.018,0.471-0.072,0.68-0.141c6.574,0.08,12.97-0.539,19.547-1.047c7.867-0.607,15.665-0.671,23.558-0.485    c5.932,0.141,12.971,1.321,18.821-0.312c3.265-0.033,6.013-0.223,5.742,5.175C504.881,383.067,504.777,385.433,504.908,386.164z"/>
	</g>
</g>
<g>
</g>
<g>
</g>
<g>
</g>
<g>
</g>
<g>
</g>
<g>
</g>
<g>
</g>
<g>
</g>
<g>
</g>
<g>
</g>
<g>
</g>
<g>
</g>
<g>
</g>
<g>
</g>
<g>
</g>
</svg>
