<?xml version="1.0" encoding="iso-8859-1"?>
<!-- Generator: Adobe Illustrator 19.0.0, SVG Export Plug-In . SVG Version: 6.00 Build 0)  -->
<svg xmlns="http://www.w3.org/2000/svg" xmlns:xlink="http://www.w3.org/1999/xlink" version="1.1" id="Layer_1" x="0px" y="0px" viewBox="0 0 512 512" style="enable-background:new 0 0 512 512;" xml:space="preserve">
<g>
	<g>
		<path d="M321.069,117.819c-5.225-8.081-15.21-13.165-23.717-16.904c-6.879-3.022-14.422-5.78-22.048-6.62    c-8.972-2.471-19.338-2.232-28.276-1.365c-3.263,0.316-6.672,0.717-9.985,1.334c-7.742,0.794-15.41,3.583-22.392,6.651    c-8.506,3.739-18.49,8.824-23.717,16.904c-1.671,2.584-5.24,7.963-4.362,11.215c0.894,3.307,5.178,3.193,7.977,3.378    c5.771,0.381,11.595,0.459,17.383,0.459c2.448,0,4.878,0.112,7.301,0.15c11.326,1.848,23.342,0.497,34.633,0.758    c7.284,0.169,14.68,0.773,21.984,0.114c3.601-0.325,7.376-0.472,11.033-1.05c4.367,0.4,8.751,0.03,13.188,0.029    c5.788,0,11.612-0.078,17.383-0.459c2.8-0.185,7.084-0.071,7.977-3.379C326.309,125.781,322.74,120.402,321.069,117.819z     M320.521,127.685c-1.342,1.328-9.211,0.299-10.93,0.364c-6.384,0.236-13.3-0.22-19.897,0.335    c-4.381-0.553-8.954-0.226-13.277-0.138c-7.526,0.155-15.046-0.367-22.55-0.486c-6.822-0.108-13.622,0.629-20.425,0.346    c-4.589-0.191-9.153-0.503-13.626,0.108c-5.828-0.285-11.818,0.041-17.401-0.165c-1.717-0.064-9.588,0.966-10.93-0.364    c-1.972-1.954,5.033-10.52,6.514-11.982c9.048-8.94,21.447-13.672,33.947-16.711c0.639-0.01,1.26-0.03,1.831-0.091    c5.025-0.537,9.974-1.428,15.02-1.772c8.843-0.603,17.562,0.885,26.32,0.737c14.117,2.98,28.648,7.718,38.89,17.836    C315.487,117.166,322.493,125.732,320.521,127.685z"/>
	</g>
</g>
<g>
	<g>
		<path d="M297.884,182.842c0.171-6.904,0.948-19.836-7.893-21.538c-6.299-1.212-12.844-1.184-19.32-0.694    c-5.526-0.609-11.177-0.721-16.582-0.187c-3.949,0.39-7.976,0.112-11.923,0.022c-0.748-0.017-1.49,0.014-2.231,0.069    c-6.018-0.39-12.076-0.335-17.923,0.791c-8.842,1.702-8.065,14.635-7.893,21.538c0.077,3.119-0.798,8.435,1.193,11.128    c1.707,2.31,5.989,2.098,8.665,2.433c7.813,0.977,15.899,0.69,23.785-0.308c2.124,0.195,4.365,0.123,5.891,0.292    c4.164,0.461,9.012,0.759,13.392,0.019c6.991,0.725,14.091,0.86,20.983-0.001c2.675-0.335,6.957-0.123,8.665-2.433    C298.683,191.277,297.807,185.96,297.884,182.842z M293.754,184.669c-0.092,1.617-0.03,3.328-0.259,4.927    c-0.349,2.428,0.593,1.338-2.04,2.026c-3.11,0.812-6.502,0.667-9.677,0.891c-8.296,0.588-16.693-0.357-24.995,0.049    c-0.322,0.016-0.586,0.156-0.783,0.36c-0.196-0.205-0.461-0.345-0.783-0.36c-8.301-0.406-16.7,0.539-24.995-0.049    c-3.174-0.225-6.566-0.08-9.676-0.891c-2.633-0.687-1.692,0.402-2.04-2.026c-0.229-1.599-0.167-3.311-0.259-4.927    c-0.259-4.565-0.949-9.566-0.246-14.088c0.846-5.444,5.62-6.445,10.304-6.784c0.963-0.07,1.925-0.118,2.885-0.152    c0.074,0.03,0.139,0.069,0.231,0.085c6.681,1.163,14.169,1.439,20.967,1.271c7.485-0.185,15.256-0.276,22.735-1.428    c2.851-0.008,5.706,0.016,8.577,0.224c4.683,0.34,9.458,1.34,10.304,6.784C294.703,175.103,294.014,180.104,293.754,184.669z"/>
	</g>
</g>
<g>
	<g>
		<path d="M509.66,232.831c-2.643-3.175-8.342-2.355-12.723-1.72c1.065-6.175,0.284-13.548-0.842-19.463    c-1.352-7.105-9.236-5.064-14.74-5.54c-0.938-0.081-1.876-0.121-2.814-0.151c0.477-2.789,0.072-6.096-0.358-8.644    c-0.05-0.293-0.231-0.59-0.471-0.828c3.794-1.719,6.818-4.526,8.355-8.814c1.469-4.097-0.421-11.331-5.995-10.938    c-2.867,0.203-3.922,3.325-6.415,4.187c-4.631,1.6-4.2-4.364-4.361-7.383c-0.281-5.254-2.366-10.628-7.983-11.992    c-5.597-1.358-8.444,2.181-8.319,7.507c0.031,1.348,1.674,9.277,0.716,9.271c-0.555-0.003-3.916-4.344-5.132-4.806    c-4.384-1.669-8.741,0.908-10.243,5.17c-1.931,5.484,4.332,12.303,8.331,16.245c-0.071,0.132-0.152,0.253-0.205,0.408    c-0.891,2.622-1.532,5.109-1.716,7.903c-0.032,0.487-0.39,4.256,0.508,3.487c-0.442,0.379-0.692,0.799-0.808,1.224    c-4.129,0.22-8.188,0.499-11.976,0.511c-6.372,0.02-12.684-0.011-19.034-0.299c-1.906-0.086-3.774-0.21-5.641-0.319    c1.887-1.317,3.504-3.078,4.595-4.85c2.212-3.593,0.804-8.805-3.99-8.785c-1.741,0.007-4.28,2.182-5.6-0.34    c-0.488-0.931,0.08-3.735-0.029-4.843c-0.32-3.265-0.944-6.536-2.55-9.42c-1.479-2.653-5.329-10.258-9.504-7.707    c-1.366,0.834-1.639,2.555-1.751,3.998c-0.174,2.247,2.292,10.743-0.783,11.678c-1.751,0.532-4.412-9.933-5.172-11.246    c-1.034-1.783-2.351-3.15-4.531-3.366c-4.382-0.434-6.904,4.156-7.851,7.796c-0.57,2.188-0.869,4.88-0.288,7.078    c0.447,1.691,1.411,3.069,2.486,4.384c-1.363-0.278-2.844-0.314-4.17,0.065c-2.661,0.76-5.224,3.144-5.714,5.912    c-0.652,3.677,2.006,7.018,5.426,9.502c-0.797,0.021-1.596,0.035-2.392,0.065c-4.945,0.183-10.459-0.318-15.351-0.798    c-4.306-0.422-10.037-1.374-14.237-0.152c-0.218,0.064-0.399,0.17-0.576,0.278c-0.669-0.578-1.488-0.971-2.403-1.236    c0.488-4.195,0.347-8.571,0.312-12.763c-0.043-5.111,0.477-10.147,0.511-15.252c0.055-8.228,1.919-18.35-0.689-26.358    c0.328-0.021,0.657-0.041,0.986-0.062c2.699-0.173,3.782-0.694,4.208-3.458c0.188-1.221,0.187-2.312-0.185-3.231    c0.339,0.033,0.667,0.055,0.966,0.052c2.475-0.033,5.751,0.505,8.144-0.287c3.766-1.245,2.889-5.525,1.813-8.609    c-3.059-8.762-10.057-17.158-16.848-23.276c-8.656-7.799-18.05-16.976-29.065-21.289c-7.062-2.765-14.4-5.347-21.895-6.595    c-3.592-1.578-7.498-2.209-11.458-2.376c-7.191-0.305-14.523-0.186-21.679,0.458c-7.684,0.691-17.525,0.733-25.544,3.544    c-4.948,1.346-9.81,3.116-14.546,4.969c-11.014,4.313-20.409,13.49-29.065,21.289c-6.791,6.118-13.789,14.513-16.848,23.276    c-1.077,3.085-1.954,7.364,1.813,8.609c2.393,0.791,5.669,0.254,8.144,0.287c0.299,0.003,0.626-0.019,0.966-0.052    c-0.373,0.919-0.374,2.01-0.186,3.231c0.427,2.763,1.51,3.284,4.208,3.458c0.327,0.021,0.658,0.042,0.986,0.062    c-2.609,8.01-0.744,18.131-0.689,26.358c0.034,5.105,0.555,10.141,0.512,15.252c-0.037,4.192-0.176,8.568,0.312,12.763    c-0.915,0.265-1.734,0.659-2.403,1.236c-0.176-0.109-0.356-0.214-0.575-0.278c-4.2-1.222-9.93-0.271-14.237,0.152    c-4.892,0.48-10.406,0.981-15.351,0.798c-0.797-0.03-1.594-0.044-2.392-0.065c3.42-2.484,6.078-5.824,5.426-9.502    c-0.49-2.767-3.053-5.152-5.714-5.912c-1.326-0.378-2.807-0.344-4.17-0.065c1.073-1.315,2.039-2.693,2.486-4.384    c0.581-2.199,0.282-4.892-0.288-7.078c-0.948-3.64-3.469-8.228-7.851-7.796c-2.181,0.216-3.497,1.583-4.531,3.366    c-0.761,1.313-3.422,11.779-5.172,11.246c-3.075-0.936-0.609-9.43-0.783-11.678c-0.112-1.444-0.385-3.164-1.751-3.998    c-4.176-2.551-8.025,5.054-9.504,7.707c-1.608,2.884-2.23,6.155-2.55,9.42c-0.109,1.108,0.459,3.912-0.029,4.843    c-1.32,2.521-3.86,0.347-5.6,0.34c-4.793-0.021-6.202,5.191-3.99,8.785c1.091,1.772,2.706,3.532,4.595,4.85    c-1.867,0.11-3.735,0.233-5.641,0.319c-6.35,0.287-12.662,0.319-19.034,0.299c-3.787-0.012-7.847-0.292-11.976-0.511    c-0.116-0.425-0.366-0.845-0.808-1.224c0.897,0.769,0.54-3,0.508-3.487c-0.184-2.795-0.825-5.282-1.716-7.903    c-0.053-0.155-0.133-0.276-0.204-0.408c3.999-3.943,10.261-10.76,8.331-16.245c-1.501-4.262-5.859-6.84-10.243-5.17    c-1.217,0.463-4.577,4.804-5.132,4.806c-0.957,0.006,0.685-7.923,0.717-9.271c0.125-5.326-2.722-8.867-8.319-7.507    c-5.617,1.364-7.702,6.738-7.983,11.992c-0.161,3.019,0.271,8.983-4.361,7.383c-2.494-0.862-3.548-3.984-6.415-4.187    c-5.574-0.392-7.464,6.841-5.995,10.938c1.538,4.289,4.561,7.096,8.356,8.815c-0.241,0.238-0.421,0.536-0.471,0.828    c-0.43,2.548-0.835,5.855-0.358,8.644c-0.938,0.03-1.876,0.07-2.814,0.151c-5.505,0.477-13.389-1.564-14.741,5.54    c-1.125,5.915-1.907,13.288-0.842,19.463c-4.38-0.636-10.08-1.456-12.723,1.72c-3.22,3.868-2.272,11.675-2.001,16.245    c0.266,4.506-0.733,12.79,1.97,16.744c0.319,0.467,0.727,0.852,1.192,1.167c-0.748,3.85-1.344,7.977-1.169,11.89    c0.124,2.762,0.07,7.359,1.773,9.734c0.378,0.527,0.814,0.924,1.288,1.24c-0.406,10.255,0.832,20.45,1.179,30.712    c0.372,11.026,0.327,22.054,0.602,33.1c0.244,9.835,0.489,19.788,0.112,29.582c-0.185,4.804-0.369,9.678-0.337,14.479    c0.017,2.558-0.56,6.107-0.047,8.992c-2.063,1.005-3.694,2.434-4.537,4.421c-1.743,4.108-0.516,9.744,0.652,13.858    c1.277,4.503,4.261,4.007,8.551,4.233c5.222,0.276,11.46,1.124,16.6,0.033c7.532-1.598,9.72-17.824,4.264-22.544    c-0.563-0.488-1.256-0.845-2.021-1.117c-0.531-9.328-0.339-18.855-0.418-28.188c-0.013-1.515-0.045-3.027-0.073-4.54    c0.928,0.246,1.939,0.309,3.129,0.373c4.11,0.215,8.256,0.365,12.37,0.389c4.129,0.026,9.459,0.676,13.833-0.279    c-0.293,9.907-0.366,19.811,0.458,29.681c0.002,0.023,0.01,0.044,0.012,0.068c-2.227,0.758-4.068,2.036-4.951,4.256    c-1.707,4.296-2.392,10.431,0.657,14.382c4.242,5.495,11.861,3.129,17.737,3.132c3.813,0.002,7.473,0.326,11.29-0.012    c4.117-0.365,8.444,1.054,11.22-2.627c2.373-3.146,2.846-7.157,2.671-10.985c-0.172-3.775,1.007-9.468-3.662-10.553    c-0.493-0.114-1.044-0.186-1.619-0.24c-1.849-12.906-2.249-26.547-2.307-39.833c0.511-5.758,0.881-11.459,2.787-17.152    c2.776-8.297,8.202-17.961,16.579-21.607c4.989-2.171,10.87-2.58,15.78-0.089c4.757,2.414,6.587,5.941,8.908,10.53    c1.975,3.906,3.62,7.807,4.796,12.048c1.213,4.371,2.245,8.79,3.262,13.211c0.914,3.977,0.296,6.601,0.068,10.536    c-0.543,9.37-0.918,19.181,0.261,28.509c0.119,0.937,0.347,1.768,0.662,2.515c-0.496-0.024-1.002-0.038-1.496-0.064    c-4.52-0.244-12.871-1.956-13.711,4.168c-0.427,3.111-1.134,6.336-1.516,9.491c-0.302,2.502-1.082,4.959,0.198,7.272    c3.238,5.846,10.95,4.637,16.505,5.096c10.437,0.864,20.9-0.009,31.34,0.479c8.609,0.402,17.081,0.594,25.69,0.282    c4.958-0.18,14.539,0.786,18.5-3.128c2.209-2.182,1.919-6.617,1.966-9.444c0.054-3.28,0.477-7.536-0.262-10.72    c-0.816-3.518-3.882-4.799-7.451-5.005c0.194-0.991,0.238-2.07,0.332-3.21c1.148-14.033,0.178-28.21-0.685-42.312    c3.122-12.109,5.724-24.118,12.268-35.098c2.733-4.587,5.92-9.046,10.12-12.402c2.531-2.023,5.316-3.978,8.191-5.452    c2.699-1.383,5.67-2.196,8.419-3.432c2.235-0.312,4.5-0.422,6.742-0.326c2.94,1.43,6.197,2.254,9.128,3.756    c2.874,1.474,5.66,3.428,8.191,5.452c4.201,3.357,7.386,7.817,10.119,12.402c6.544,10.98,9.146,22.989,12.268,35.098    c-0.864,14.102-1.834,28.277-0.685,42.312c0.093,1.14,0.138,2.219,0.332,3.21c-3.57,0.206-6.635,1.487-7.452,5.005    c-0.738,3.184-0.316,7.44-0.262,10.72c0.047,2.827-0.243,7.262,1.966,9.444c3.961,3.914,13.542,2.948,18.5,3.128    c8.608,0.313,17.08,0.121,25.69-0.282c10.441-0.488,20.903,0.385,31.34-0.479c5.555-0.46,13.266,0.751,16.505-5.096    c1.281-2.313,0.501-4.77,0.198-7.272c-0.38-3.156-1.089-6.381-1.516-9.491c-0.839-6.124-9.191-4.412-13.711-4.168    c-0.492,0.027-1,0.04-1.496,0.064c0.316-0.745,0.544-1.578,0.662-2.515c1.18-9.328,0.804-19.139,0.261-28.509    c-0.228-3.935-0.846-6.558,0.068-10.536c1.017-4.421,2.049-8.84,3.262-13.211c1.176-4.241,2.822-8.141,4.796-12.048    c2.321-4.589,4.151-8.116,8.908-10.53c4.911-2.491,10.79-2.083,15.78,0.089c8.377,3.647,13.803,13.31,16.579,21.607    c1.906,5.693,2.277,11.395,2.787,17.152c-0.059,13.286-0.458,26.927-2.306,39.833c-0.574,0.053-1.126,0.124-1.619,0.24    c-4.669,1.085-3.489,6.778-3.662,10.553c-0.175,3.828,0.299,7.839,2.671,10.985c2.776,3.681,7.104,2.262,11.22,2.627    c3.819,0.338,7.478,0.014,11.29,0.012c5.875-0.003,13.496,2.363,17.737-3.132c3.049-3.95,2.366-10.085,0.657-14.381    c-0.883-2.22-2.723-3.498-4.951-4.256c0.002-0.024,0.01-0.044,0.012-0.068c0.824-9.87,0.751-19.773,0.458-29.681    c4.374,0.957,9.705,0.305,13.834,0.279c4.115-0.024,8.26-0.174,12.37-0.389c1.19-0.063,2.201-0.126,3.129-0.373    c-0.028,1.512-0.06,3.026-0.073,4.54c-0.079,9.332,0.113,18.86-0.418,28.188c-0.765,0.272-1.458,0.629-2.021,1.116    c-5.455,4.72-3.266,20.946,4.265,22.544c5.14,1.091,11.378,0.243,16.6-0.033c4.29-0.226,7.273,0.269,8.551-4.233    c1.167-4.115,2.394-9.75,0.652-13.858c-0.844-1.987-2.474-3.416-4.537-4.421c0.513-2.886-0.063-6.434-0.047-8.992    c0.032-4.801-0.153-9.676-0.337-14.479c-0.377-9.795-0.133-19.747,0.112-29.582c0.274-11.046,0.228-22.074,0.602-33.1    c0.347-10.261,1.584-20.457,1.179-30.712c0.473-0.317,0.91-0.713,1.288-1.24c1.703-2.375,1.649-6.972,1.773-9.734    c0.175-3.912-0.42-8.041-1.169-11.89c0.465-0.316,0.873-0.701,1.192-1.167c2.703-3.953,1.704-12.238,1.97-16.744    C511.931,244.506,512.879,236.699,509.66,232.831z M499.644,236.278c1.419-0.099,3.732-0.849,4.978,0.068    c1.431,1.052,0.949,2.934,1.12,4.645c0.057,0.565,0.088,1.124,0.109,1.682c-3.874-0.587-8.055-0.182-11.848-0.008    c-7.444,0.343-15.042,0.017-22.496-0.075c-15.917-0.196-31.82-1.094-47.772-1.107c-7.961-0.006-15.9,0.155-23.829,0.298    c-7.646,0.137-15.395-0.736-23.019-0.368c-7.441,0.359-14.957,0.249-22.417,0.234c-5.988-0.012-13.513-0.776-19.442,0.633    c-0.085-0.541-0.166-1.081-0.26-1.623c1.376-0.131,2.752-0.251,4.123-0.324c4.31-0.228,7.781,0.055,9.605-3.498    c2.851,0.448,5.697,0.596,8.571,0.269c1.567,0.033,3.151-0.026,4.775-0.033c4.827-0.024,9.656-0.004,14.483,0.003    c0.126,0,0.253-0.002,0.379-0.002c0.448,0.114,0.909,0.115,1.345-0.004c8.063-0.034,16.224-0.353,24.253,0.166    c16.384,1.06,32.751-0.391,49.113-0.574c7.678-0.086,15.558,0.327,23.239,0.669C482.997,237.699,491.345,236.854,499.644,236.278z     M505.113,260.567c-0.257,1.101-0.41,1.674-0.765,2.048c-1.286-0.231-2.68-0.176-4.222-0.193    c-4.027-0.045-7.995-0.459-12.031-0.458c-7.585,0.002-15.073,0.466-22.672,0.468c-16.152,0.006-32.126,0.71-48.26-0.267    c-8.175-0.495-16.439-0.295-24.625-0.122c-7.99,0.169-15.879-0.655-23.855-0.804c-6.917-0.128-14.005-0.047-20.88-0.697    c-0.504-0.048-1.016-0.082-1.523-0.122c-0.54-0.327-1.257-0.381-1.878-0.143c-3.039-0.193-6.121-0.264-9.186-0.185    c1.273-2.594,0.856-5.95,0.747-8.68c-0.069-1.729-0.205-3.427-0.39-5.115c6.598,0.032,13.2-0.198,19.798-0.325    c6.884-0.131,13.827,0.308,20.698-0.099c7.889-0.468,15.914,0.113,23.837,0.071c7.923-0.042,15.876-0.33,23.829-0.336    c27.308-0.021,54.827,2.338,82.098,0.707c-0.068,1.762-0.182,3.527-0.186,5.347C505.637,254.403,505.746,257.854,505.113,260.567z     M451.843,315.118c4.594,1.082,9.74,1.028,14.373,1.286c5.193,0.289,10.997-0.241,16.23,0.433    c0.045,9.244,0.191,18.489,0.173,27.737c-0.002,1.458-0.022,2.916-0.04,4.373c-1.098,0.002-2.221,0.147-3.524,0.189    c-2.94,0.092-5.925-0.112-8.869-0.136c-5.869-0.049-12.386-0.532-18.229,0.183c-0.049-2.254-0.081-4.507-0.088-6.759    C451.84,333.433,452.043,324.259,451.843,315.118z M482.43,309.94c-0.002,1,0.006,2.001,0.007,3.002    c-1.693-0.152-3.517,0.047-5.061-0.035c-3.183-0.169-6.281-0.255-9.475-0.297c-5.372-0.071-10.83-0.98-16.116,0.208    c-0.213-7.156-0.719-14.276-1.809-21.259c0.997-0.032,2.003-0.072,3.026-0.074c3.981-0.01,7.867,0.231,11.824,0.52    c3.384,0.247,6.766-0.302,10.151-0.217c2.83,0.071,5.262,0.233,7.901-0.318c-0.059,0.441-0.094,0.88-0.129,1.276    C482.266,298.439,482.445,304.228,482.43,309.94z M448.325,286.098c-1.074,0.993-2.897,0.86-4.256,0.982    c-2.891,0.258-5.855,0.373-8.759,0.254c-3.148-0.128-7.659-0.299-10.62-1.465c-3.396-1.336-3.144-4.547-2.987-7.729    c0.144-2.935,1.475-6.717,1.61-10.076c5.472,0.371,10.938,0.731,16.447,0.741c3.544,0.007,7.089-0.101,10.638-0.218    c-0.782,4.492-1.22,9.088-1.242,13.635C449.149,283.921,449.607,284.913,448.325,286.098z M427.83,305.651    c-0.172-4.67-0.916-9.615-0.934-14.335c3.006,0.463,6.134,0.471,8.412,0.541c2.474,0.075,7.158,0.508,11.173-0.06    c-0.74,6.955,0.117,14.199,0.058,21.165c-0.084,9.819,0.202,19.636,0.17,29.464c-0.064,19.93,0.959,39.743,0.144,59.679    c-2.314-0.198-4.595-0.223-6.379-0.402c-4.659-0.471-9.373-1.203-14.016-1.019c-0.623-0.055-1.298-0.113-1.995-0.164    c1.567-6.471,0.998-14.083,1.294-20.606c0.405-8.931,0.528-17.903,0.715-26.846c0.22-10.487,0.212-20.959,0.787-31.435    C427.554,316.275,428.029,311.024,427.83,305.651z M368.336,294.986c-0.035-2.11-0.276-4.192-0.517-6.276    c1.966,0.828,3.975,0.672,6.196,0.838c3.783,0.283,7.583,0.461,11.363,0.792c5.452,0.477,10.933,0.733,16.406,0.789    c6.998,0.072,13.989-0.235,20.972-0.044c0.399,0.011,0.799,0.024,1.2,0.037c-1.024,4.343-0.748,9.26-0.826,13.591    c-0.043,2.418-0.143,4.814-0.267,7.208c-2.188-2.975-5.564-5.519-8.018-7.456c-5.234-4.131-11.824-5.515-18.293-6.4    c-9.404-1.286-20.942-0.072-28.221,6.4C368.375,301.308,368.39,298.151,368.336,294.986z M363.727,339.932    c-0.123,8.512,0.478,16.987,0.33,25.513c-0.144,8.311-0.457,16.579-0.44,24.901c0.006,2.749,0.773,6.784-2.127,8.501    c-0.463,0.275-1.074,0.446-1.721,0.571c-3.956,0.089-7.925,0.11-11.858,0.034c-0.177-0.122-0.327-0.256-0.416-0.417    c-0.609-1.112-0.129-4.922-0.186-6.117c-0.091-1.893-0.123-3.775-0.163-5.669c-0.094-4.467-0.389-8.945-0.583-13.409    c-0.397-9.099,0.152-18.044,0.326-27.109c0.157-8.214-0.662-16.507-0.117-24.699c0.487-7.338,1.011-14.676,1.627-22.006    c0.346-4.112,0.473-8.048,1.171-12.117c0.167-0.978,0.287-1.944,0.35-2.909c2.694,0.324,5.526,0.185,7.669,0.108    c1.898-0.069,4.618,0.004,7.341-0.195c-1.057,7.894-0.555,15.95-0.915,23.922C363.55,319.184,363.877,329.573,363.727,339.932z     M359.454,280.462c-2.664,0.214-7.133,0.673-10.264-0.36c-0.336-0.331-0.775-0.502-1.242-0.524    c-1.003-0.557-1.761-1.355-2.1-2.491c-1.172-3.918,0.221-8.122,0.915-12.154c7.312,0.365,14.64,0.553,21.921,0.733    c1.155,0.028,2.317,0.068,3.475,0.099c-1.476,3.149-0.753,6.289-1.19,9.639c-0.393,3.012-0.881,4.087-3.962,4.564    C364.571,280.345,361.92,280.265,359.454,280.462z M342.53,338.978c-0.328,9.733-0.858,19.381-0.751,29.143    c0.109,9.825,1.619,19.831,1.065,29.646c-0.03,0.527-0.081,1.039-0.12,1.533c-0.279-0.011-0.567-0.012-0.845-0.026    c-4.806-0.208-9.586-0.343-14.37-0.455c0.031-0.059,0.073-0.106,0.103-0.166c0.969-1.998,0.728-4.87,0.869-7.327    c0.269-4.719,0.088-9.35,0.041-14.081c-0.098-10.131-0.971-20.247-1.003-30.414c-0.064-20.305,0.068-40.817-1.67-61.081    c3.093,0.96,6.989,0.402,10.002,0.57c2.995,0.167,6.42,0.122,9.549-0.471c-0.286,2.948-1.237,6.016-1.26,8.873    c-0.042,5.354-0.708,10.726-1.215,16.061c-0.385,4.049-0.684,8.211-0.891,12.273C341.763,328.381,342.709,333.68,342.53,338.978z     M323.603,395.847c-0.129,0.302-0.295,0.681-0.36,0.727c-0.622,0.431-0.805,0.433-1.675,0.744    c-2.016,0.721-5.119,0.257-7.22,0.401c-3.16,0.218-7.73,0.776-10.378-1.046c-3.17-2.182-1.825-7.73-1.666-11.299    c0.215-4.843,0.032-9.738,0.048-14.586c0.018-5.382,0.181-10.766,0.4-16.149c0.246-1.12,0.241-2.268,0.145-3.468    c0.455-9.999,1.072-19.996,1.384-29.985c0.231-7.38,0.784-14.744,1.214-22.119c0.295-5.049,1.171-10.749,1.09-16.072    c5.363,0.802,10.907,1.226,16.25,0.936c-0.654,9.706,0.452,19.35,0.261,29.072c-0.223,11.294,0.052,22.55,0.037,33.831    c-0.012,8.964,0.07,17.916,0.526,26.85c0.252,4.925,0.548,10.029,0.236,14.952c-0.084,1.326-0.112,2.657-0.183,3.98    C323.676,393.241,323.52,395.576,323.603,395.847z M319.786,278.276c-5.699,0.186-11.416-0.456-17.079-1.017    c-3.464-0.344-6.619,0.439-6.549-3.926c0.047-2.971,0.809-5.738,1.24-8.643c0.39,0.017,0.777,0.041,1.168,0.053    c4.582,0.139,9.082-0.472,13.645-0.389c2.951,0.054,7.556,0.612,11.931,0.46c0.642,0.128,1.285,0.245,1.926,0.356    c2.372,0.411,2.577,0.131,4.069,2.314c1.189,1.739,1.227,3.189,1.237,5.185c0.004,0.802,0.176,2.204-0.078,2.973    c-0.715,2.162-1.111,1.76-3.516,2.132C325.111,278.187,322.489,278.187,319.786,278.276z M188.293,392.618    c-0.071-1.324-0.099-2.654-0.183-3.98c-0.312-4.924-0.016-10.027,0.236-14.952c0.456-8.935,0.538-17.886,0.526-26.85    c-0.016-11.281,0.259-22.537,0.035-33.831c-0.192-9.724,0.915-19.367,0.261-29.072c5.343,0.292,10.887-0.134,16.25-0.936    c-0.081,5.323,0.796,11.023,1.09,16.072c0.43,7.375,0.985,14.74,1.214,22.119c0.312,9.989,0.93,19.986,1.384,29.985    c-0.095,1.2-0.101,2.348,0.145,3.468c0.221,5.384,0.384,10.767,0.4,16.149c0.016,4.849-0.167,9.742,0.048,14.586    c0.159,3.57,1.503,9.117-1.666,11.299c-2.647,1.822-7.218,1.264-10.378,1.046c-2.101-0.145-5.204,0.319-7.22-0.401    c-0.87-0.31-1.053-0.313-1.675-0.744c-0.065-0.047-0.232-0.425-0.36-0.727C188.483,395.576,188.326,393.241,188.293,392.618z     M209.294,277.258c-5.663,0.561-11.38,1.203-17.079,1.017c-2.702-0.089-5.323-0.088-7.994-0.501    c-2.405-0.372-2.802,0.029-3.516-2.132c-0.254-0.767-0.082-2.171-0.078-2.973c0.01-1.995,0.049-3.446,1.236-5.185    c1.492-2.183,1.699-1.903,4.069-2.314c0.641-0.111,1.284-0.23,1.926-0.356c4.375,0.152,8.98-0.407,11.931-0.46    c4.564-0.084,9.064,0.528,13.645,0.389c0.391-0.012,0.778-0.037,1.167-0.053c0.431,2.905,1.193,5.671,1.24,8.643    C215.913,277.698,212.758,276.914,209.294,277.258z M183.52,391.329c0.14,2.457-0.1,5.329,0.869,7.327    c0.029,0.06,0.071,0.109,0.103,0.166c-4.784,0.112-9.564,0.246-14.37,0.455c-0.278,0.012-0.565,0.013-0.845,0.026    c-0.04-0.495-0.09-1.007-0.12-1.533c-0.552-9.815,0.958-19.822,1.067-29.646c0.108-9.762-0.422-19.411-0.751-29.143    c-0.178-5.299,0.767-10.597,0.496-15.92c-0.207-4.061-0.507-8.224-0.891-12.273c-0.507-5.335-1.173-10.707-1.215-16.061    c-0.022-2.857-0.974-5.925-1.261-8.873c3.129,0.593,6.554,0.639,9.548,0.471c3.012-0.167,6.909,0.39,10.002-0.57    c-1.736,20.263-1.605,40.776-1.67,61.081c-0.032,10.167-0.906,20.283-1.003,30.414C183.434,381.979,183.251,386.61,183.52,391.329    z M164.506,399.035c-0.088,0.161-0.238,0.295-0.416,0.417c-3.932,0.074-7.901,0.053-11.858-0.034    c-0.646-0.125-1.257-0.297-1.721-0.571c-2.899-1.716-2.131-5.752-2.125-8.501c0.017-8.322-0.296-16.59-0.441-24.901    c-0.147-8.526,0.453-17.001,0.33-25.513c-0.15-10.359,0.177-20.748-0.288-31.098c-0.359-7.972,0.142-16.029-0.915-23.922    c2.722,0.201,5.443,0.128,7.341,0.195c2.143,0.078,4.975,0.215,7.669-0.108c0.063,0.965,0.183,1.931,0.35,2.909    c0.697,4.068,0.825,8.004,1.171,12.117c0.615,7.33,1.14,14.669,1.627,22.006c0.544,8.194-0.275,16.486-0.117,24.699    c0.174,9.065,0.723,18.009,0.326,27.109c-0.195,4.464-0.489,8.942-0.583,13.409c-0.04,1.894-0.072,3.776-0.163,5.669    C164.635,394.114,165.115,397.923,164.506,399.035z M164.055,279.577c-0.468,0.022-0.906,0.193-1.242,0.524    c-3.131,1.033-7.599,0.574-10.265,0.36c-2.466-0.198-5.117-0.118-7.553-0.495c-3.081-0.477-3.569-1.551-3.961-4.564    c-0.437-3.349,0.286-6.491-1.19-9.639c1.158-0.031,2.318-0.071,3.475-0.099c7.281-0.18,14.609-0.368,21.921-0.733    c0.695,4.032,2.088,8.235,0.915,12.154C165.815,278.223,165.058,279.021,164.055,279.577z M143.671,304.464    c-7.279-6.473-18.815-7.687-28.221-6.4c-6.469,0.885-13.059,2.268-18.293,6.4c-2.455,1.937-5.831,4.483-8.017,7.456    c-0.125-2.394-0.224-4.79-0.268-7.208c-0.078-4.331,0.197-9.248-0.826-13.591c0.4-0.012,0.801-0.026,1.2-0.037    c6.983-0.191,13.975,0.117,20.972,0.044c5.473-0.057,10.954-0.313,16.406-0.789c3.782-0.33,7.582-0.509,11.365-0.792    c2.221-0.166,4.23-0.01,6.196-0.838c-0.241,2.083-0.481,4.166-0.517,6.275C143.612,298.151,143.627,301.308,143.671,304.464z     M65.462,312.96c-0.06-6.966,0.797-14.209,0.058-21.165c4.016,0.568,8.699,0.135,11.173,0.06c2.28-0.07,5.406-0.076,8.412-0.541    c-0.017,4.72-0.762,9.664-0.934,14.335c-0.198,5.374,0.276,10.624,0.57,15.98c0.575,10.477,0.568,20.947,0.787,31.435    c0.187,8.943,0.309,17.915,0.715,26.846c0.296,6.523-0.274,14.135,1.294,20.606c-0.696,0.051-1.372,0.11-1.995,0.164    c-4.643-0.183-9.357,0.549-14.016,1.019c-1.785,0.181-4.065,0.205-6.38,0.402c-0.814-19.936,0.21-39.75,0.144-59.679    C65.261,332.597,65.547,322.78,65.462,312.96z M87.312,285.869c-2.96,1.165-7.471,1.338-10.62,1.465    c-2.904,0.118-5.867,0.004-8.759-0.254c-1.359-0.122-3.182,0.012-4.256-0.982c-1.282-1.185-0.824-2.176-0.832-3.877    c-0.021-4.547-0.46-9.144-1.242-13.635c3.549,0.118,7.095,0.225,10.638,0.218c5.51-0.01,10.975-0.369,16.448-0.741    c0.135,3.359,1.466,7.141,1.61,10.076C90.457,281.323,90.707,284.533,87.312,285.869z M60.133,342.424    c-0.008,2.252-0.039,4.505-0.088,6.759c-5.844-0.715-12.36-0.232-18.23-0.183c-2.944,0.024-5.927,0.228-8.869,0.136    c-1.304-0.041-2.426-0.186-3.524-0.188c-0.018-1.457-0.038-2.915-0.04-4.373c-0.018-9.248,0.128-18.494,0.173-27.737    c5.233-0.674,11.036-0.144,16.23-0.434c4.632-0.257,9.78-0.204,14.373-1.286C59.96,324.259,60.163,333.433,60.133,342.424z     M44.101,312.61c-3.193,0.042-6.292,0.129-9.474,0.297c-1.544,0.082-3.368-0.116-5.061,0.036c0.001-1.001,0.01-2.002,0.007-3.003    c-0.016-5.711,0.164-11.5-0.319-17.195c-0.033-0.396-0.07-0.835-0.128-1.276c2.639,0.551,5.071,0.389,7.901,0.318    c3.385-0.084,6.767,0.465,10.151,0.217c3.957-0.288,7.842-0.53,11.824-0.52c1.022,0.003,2.029,0.043,3.026,0.074    c-1.09,6.983-1.596,14.104-1.81,21.259C54.932,311.63,49.473,312.539,44.101,312.61z M6.17,246.314    c27.271,1.631,54.791-0.727,82.099-0.707c7.953,0.006,15.906,0.294,23.829,0.336c7.923,0.042,15.948-0.539,23.837-0.071    c6.871,0.407,13.814-0.032,20.698,0.099c6.598,0.126,13.2,0.357,19.798,0.325c-0.185,1.688-0.322,3.386-0.39,5.115    c-0.109,2.731-0.526,6.086,0.747,8.68c-3.065-0.079-6.148-0.008-9.186,0.185c-0.622-0.238-1.338-0.185-1.878,0.143    c-0.508,0.041-1.019,0.074-1.523,0.122c-6.875,0.651-13.963,0.57-20.88,0.697c-7.975,0.147-15.865,0.972-23.853,0.804    c-8.187-0.173-16.451-0.373-24.625,0.122c-16.135,0.977-32.109,0.273-48.26,0.267c-7.598-0.002-15.087-0.465-22.672-0.468    c-4.036-0.001-8.005,0.412-12.032,0.458c-1.542,0.018-2.935-0.038-4.221,0.193c-0.356-0.374-0.508-0.947-0.765-2.048    c-0.633-2.713-0.524-6.164-0.532-8.905C6.351,249.842,6.238,248.076,6.17,246.314z M175.814,278.562    c0.411,1.615,1.206,2.614,2.239,3.274c-1.406,0.145-2.774,0.274-4.038,0.269c-1.411-0.004-3.157-0.232-4.881-0.265    c0.227-0.285,0.431-0.594,0.609-0.929c2.013-3.811,1.95-11.138,0.414-16.255c2.791-0.173,5.577-0.374,8.357-0.619    c-0.796,0.942-1.207,2.22-1.56,3.963C176.289,271.278,174.952,275.178,175.814,278.562z M93.622,267.738    c0.704-0.044,1.407-0.09,2.112-0.131c13.438-0.778,26.993-1.34,40.48-1.733c-0.964,3.687-0.197,8.078,0.338,11.723    c0.453,3.081,1.192,5.669,2.977,7.436c-4.073,0.012-8.227,0.524-12.184,0.86c-5.7,0.485-11.414,0.712-17.129,1.098    c-5.578,0.377-11.216-0.002-16.8,0.324c-0.02,0.001-0.041,0.004-0.061,0.004c0.259-0.363,0.497-0.744,0.682-1.169    C96.659,280.114,93.893,273.773,93.622,267.738z M36.416,268.025c3.723,0.115,7.452,0.229,11.193,0.228    c3.637-0.001,7.268,0.113,10.896,0.235c-0.412,3.073-0.375,6.262-0.22,9.339c0.15,2.975-0.751,7.431,0.458,10.229    c-4.064-0.048-8.12,0.04-12.347,0.246c-2.964,0.144-6.962-0.339-10.744-0.236c0.1-0.185,0.208-0.361,0.289-0.565    c1.07-2.722,0.986-7.394,1.052-10.353C37.063,274.082,36.621,271.067,36.416,268.025z M330.644,248.387    c-0.017,2.063-0.027,4.171-0.251,6.224c-0.253,2.32-0.337,2.318-2.358,3.218c-3.317,1.476-9.414,0.824-13.004,0.883    c-3.493,0.058-6.822,0.326-10.289,0.577c-3.779,0.274-7.359-0.044-11.106-0.401c-3.908-0.371-7.884,0.102-11.813,0.106    c-8.166-1.225-16.601-0.944-24.808-0.88c-3.969,0.031-7.938,0.374-11.917,0.468c-1.65,0.039-3.198,0.233-4.727,0.465    c-2.963-0.116-5.944-0.138-9.096-0.06c-4.282,0.105-8.635-0.505-12.906-0.1c-3.748,0.356-7.329,0.674-11.106,0.401    c-3.467-0.252-6.798-0.52-10.289-0.577c-3.59-0.06-9.687,0.593-13.004-0.883c-2.022-0.9-2.106-0.899-2.359-3.218    c-0.224-2.053-0.234-4.161-0.251-6.224c-0.022-2.593,0.197-4.885-0.063-7.325c1.007,0.102,2.011,0.201,3.012,0.284    c4.509,0.379,9.032-0.329,13.544-0.146c14.938,0.604,30.141,0.392,45.128-0.97c4.992,0.297,10.154-0.026,14.804-0.274    c2.017-0.108,4.021-0.17,6.017-0.254c16.668,1.829,33.674,2.173,50.35,1.498c4.513-0.183,9.035,0.526,13.544,0.146    c1.001-0.084,2.007-0.183,3.012-0.284C330.447,243.502,330.666,245.794,330.644,248.387z M210.215,282.175    c1.005-0.192,2-0.393,2.979-0.602c3.633-0.778,5.656-1.313,6.493-5.064c0.936-4.193,0.533-8-0.011-12.089    c2.398-0.141,4.8-0.262,7.238-0.223c6.249,0.1,13.245,0.335,19.498-1.214c2.654-0.007,5.303-0.075,7.973-0.177    c3.589-0.137,7.309,0.032,11.043,0.138c6.294,1.594,13.358,1.355,19.661,1.254c2.438-0.039,4.84,0.082,7.238,0.223    c-0.544,4.089-0.947,7.895-0.011,12.089c0.836,3.751,2.859,4.285,6.493,5.064c0.979,0.21,1.976,0.41,2.979,0.602    c0.111,3.215-0.453,6.772-0.565,9.811c-0.096,2.603-0.318,5.209-0.527,7.813c-0.42-0.635-0.854-1.232-1.26-1.771    c-3.168-4.195-6.679-8.442-10.535-12.058c-2.05-1.923-4.702-3.793-7.651-5.356c0.016-0.217-0.077-0.44-0.324-0.587    c-7.38-4.365-17.305-6.189-25.783-5.41c-6.385,0.587-16.48,0.747-22.32,4.983c-3.771,1.729-7.2,4.008-9.719,6.37    c-3.856,3.616-7.368,7.863-10.535,12.058c-0.406,0.538-0.839,1.135-1.26,1.771c-0.207-2.604-0.43-5.21-0.527-7.813    C210.669,288.948,210.104,285.392,210.215,282.175z M342.26,280.912c0.177,0.335,0.381,0.644,0.609,0.929    c-1.724,0.032-3.469,0.259-4.881,0.265c-1.264,0.004-2.633-0.124-4.038-0.269c1.032-0.661,1.827-1.66,2.239-3.274    c0.863-3.384-0.475-7.284-1.138-10.561c-0.353-1.743-0.765-3.02-1.56-3.963c2.78,0.244,5.566,0.446,8.357,0.619    C340.309,269.774,340.246,277.102,342.26,280.912z M375.788,265.874c13.487,0.394,27.043,0.955,40.48,1.733    c0.705,0.041,1.408,0.086,2.112,0.131c-0.272,6.035-3.037,12.376-0.415,18.413c0.184,0.425,0.421,0.807,0.681,1.169    c-0.02-0.001-0.041-0.003-0.061-0.004c-5.584-0.326-11.222,0.053-16.8-0.324c-5.714-0.386-11.429-0.613-17.129-1.098    c-3.957-0.336-8.11-0.849-12.184-0.86c1.785-1.767,2.525-4.355,2.977-7.436C375.985,273.953,376.751,269.561,375.788,265.874z     M453.718,277.828c0.155-3.077,0.192-6.264-0.22-9.339c3.627-0.122,7.258-0.236,10.896-0.235c3.741,0.001,7.47-0.114,11.193-0.228    c-0.205,3.041-0.646,6.056-0.578,9.12c0.068,2.959-0.018,7.631,1.053,10.353c0.081,0.205,0.188,0.38,0.288,0.565    c-3.782-0.102-7.78,0.38-10.743,0.236c-4.225-0.206-8.283-0.294-12.347-0.246C454.469,285.259,453.568,280.803,453.718,277.828z     M400.465,231.188c-0.319-0.006-0.64-0.013-0.958-0.019c-6.283-0.095-12.575-0.023-18.864,0.023    c0.24-2.765-0.085-5.668-0.225-8.251c-0.194-3.566-0.351-6.866-1.37-10.129c1.674-0.03,3.351-0.051,5.038-0.053    c5.364-0.007,10.556,0.496,15.898,0.628c0.854,0.021,1.704,0.05,2.557,0.077c-0.593,3.348-1.129,6.598-1.396,10.062    C400.974,225.72,400.212,228.688,400.465,231.188z M474.703,203.672c0.09,0.724,0.265,1.458,0.473,2.184    c-0.737-0.027-1.475-0.062-2.211-0.121c-1.857-0.147-3.953-0.755-5.812-0.314c-2.063,0.489-2.887,1.669-3.337,3.266    c-4.291-0.895-8.882-1.064-13.501-0.967c-0.024-1.233-0.476-2.558-0.473-3.895c0.002-1.026,0.001-5.433,0.717-6.013    c0.648-0.526,5.407,0.171,6.406,0.167c2.846-0.009,5.519,0.406,8.347,0.625c2.387,0.185,5.21-0.269,7.508,0.52    C475.565,200.067,474.366,200.945,474.703,203.672z M479.33,210.376c1.725,0.073,3.418,0.386,5.145,0.412    c1.468,0.023,3.721-0.54,5.081,0.246c1.557,0.9,1.383,4.456,1.561,6.568c0.294,3.469,3.358,10.108,0.781,13.211    c-1.711,2.058-6.32,0.999-8.791,0.95c-4.565-0.09-9.122-0.397-13.68-0.63c-0.103-0.006-0.207-0.004-0.312-0.009    c0.58-3.08-0.153-6.88-0.264-9.637c-0.141-3.52-2.735-8.721,1.266-10.777C472.743,209.364,476.525,210.257,479.33,210.376z     M444.562,184.73c-1.007-1.403-2.701-3.909-1.145-5.518c0.867-0.896,2.29-1.067,3.485-0.712c3.283,0.973,5.011,7.013,9.185,4.418    c2.37-1.474,2.246-4.555,1.848-6.966c-0.232-1.399-0.842-2.79-1.049-4.181c-0.212-1.426-0.648-5.862,0.745-6.693    c2.902-1.73,6.147,4.519,6.552,6.373c1.276,5.846,0.407,16.389,9.791,13.298c1.449-0.478,2.476-1.493,3.815-2.097    c5.573-2.509,2.922,5.178,0.742,7.465c-0.13,0.135-0.258,0.267-0.387,0.396c-4.898,4.872-9.666,4.544-16.199,3.628    c-3.218-0.451-7.111,0.309-9.918-1.245C448.923,191.175,446.577,187.54,444.562,184.73z M433.502,214.433    c5.974-0.013,11.89-0.538,17.84-0.58c3.896-0.028,7.916,0.03,11.796-0.559c-0.298,5.819,1.437,12.431-0.171,17.939    c-1.727,0.073-3.454,0.128-5.178,0.03c-3.116-0.175-5.969-0.633-9.108-0.36c-14.142,1.226-28.581,0.71-42.817,0.39    c0.477-2.482-0.044-5.543,0.001-7.769c0.06-2.905,0.915-6.761,0.416-9.932C415.34,213.937,424.353,214.453,433.502,214.433z     M368.119,197.787c2.705-4.644,7.457,1.778,10.932,0.677c1.409-0.447,1.889-1.88,1.285-3.161    c-1.234-2.612-3.635-4.354-5.061-6.861c-1.124-1.975-2.536-7.391-0.509-9.322c2.202-2.097,5.54,0.835,6,3.088    c0.516,2.521,0.694,4.25,2.188,6.358c1.651,2.331,3.601,5.16,6.83,4.224c3.375-0.978,4.261-5.114,4.147-8.126    c-0.009-0.246-1.468-8.678-1.227-8.762c1.633-0.57,4.689,6.781,4.979,7.832c0.804,2.916,0.975,5.998,1.005,9    c0.013,1.35-0.143,2.741,0.476,4.003c1.506,3.075,5.081,1.059,6.98,2.311c0.405,0.267,0.733,0.683,0.948,1.327    c0.544,1.63-0.818,2.909-2.082,3.907c-1.691,1.333-3.957,2.004-5.731,3.308c-0.024,0.019-0.042,0.043-0.065,0.063    c-0.966,0.809-5.925,0.065-7.256,0.064c-2.422-0.001-4.847-0.078-7.269-0.049c-4.574,0.055-7.99-0.796-12.112-3.002    C370.229,203.41,366.154,201.158,368.119,197.787z M337.438,218.489c0.136-2.181,0.553-4.53,0.357-6.779    c4.564,0.99,9.768,0.666,14.333,1.047c4.763,0.397,9.996,0.749,14.795,0.493c3.038-0.162,6.056-0.285,9.079-0.369    c-0.317,3.418-0.629,6.809-0.704,10.295c-0.048,2.179,0.05,4.393-0.072,6.565c-0.028,0.509-0.1,0.998-0.182,1.479    c-0.279,0-0.559,0.003-0.838,0.003c-4.798,0.003-9.602-0.078-14.398,0c-3.14,0.05-6.159-0.41-9.247,0.154    c-0.333,0.061-0.593,0.184-0.823,0.329c-0.072-0.012-0.144-0.017-0.216-0.029c-0.053-0.01-0.102-0.006-0.154-0.012    c-0.897-3.529-5.693-4.479-9.463-4.647c-1.012-0.045-2.035-0.085-3.051-0.129c0.424-0.314-0.022-2.434-0.007-2.699    C336.956,222.325,337.319,220.384,337.438,218.489z M329.2,148.433c-5.914,0.348-12.021,0.357-17.929-0.161    c-0.863-0.075-3.974,0.049-4.535-0.324c-2.11-1.399-0.796-2.811,0.699-3.392c0.109-0.001,0.217-0.002,0.326-0.003    c5.522,0.543,11.121,0.368,16.657,0.596c1.403,0.058,10.48-0.308,11.076,1.103C336.52,148.678,330.491,148.357,329.2,148.433z     M305.659,213.095c0.911-3.92,1.122-3.281,4.672-3.361c3.151-0.071,6.182,0.337,9.311,0.574c3.006,0.227,6.05,0.098,9.067,0.185    c0.712,0.021,3.019-0.265,3.569,0.203c0.894,0.762,0.259,5.322,0.233,5.873c-0.175,3.505-0.421,6.862,0.477,10.162    c-6.257-0.234-12.557-0.368-18.754-0.146c-3.007,0.108-6.054,0.235-9.112,0.336C305.24,222.323,304.612,217.598,305.659,213.095z     M286.518,208.302c-3.037-0.149-5.989-0.101-8.997-0.047c-3.157-0.4-6.335-0.974-9.529-0.771    c-5.599,0.357-11.138,0.399-16.762,0.459c-4.467,0.048-9.05-0.427-13.465,0.014c-1.589,0.16-3.305,0.175-5.02,0.272    c-2.414-0.035-4.809-0.047-7.26,0.073c-4.592,0.224-11.609-0.616-16.335,0.671c-0.863-1.629-2.178-2.576-3.73-3.111    c0.401-10.196-0.594-20.39-0.166-30.58c0.191-4.55-0.295-9.262-0.451-13.823c-0.096-2.811,0.277-6.453-0.72-9.254    c0.215-0.008,0.431-0.011,0.646-0.02c4.747-0.2,7.059-3.491,5.905-7.49c6.916,0.31,14.043,1.138,21.055,1.109    c6.161,0.742,12.395,0.81,18.656,0.919c4.949,0.085,9.844-0.386,14.787-0.299c4.058,0.071,7.895,0.225,11.736-0.712    c8.11,0.408,16.449-0.654,24.503-1.017c-1.154,3.998,1.159,7.29,5.905,7.49c0.215,0.009,0.431,0.012,0.645,0.02    c-0.996,2.801-0.622,6.443-0.72,9.254c-0.156,4.56-0.642,9.271-0.451,13.823c0.427,10.192-0.568,20.385-0.166,30.58    c-1.552,0.536-2.867,1.482-3.73,3.111C298.126,207.686,291.11,208.526,286.518,208.302z M301.509,212.737    c-1.097,4.292-1.171,9.016-1.455,13.385c-0.172,0.262-0.281,0.577-0.322,0.939c-4.509,0.074-9.014,0.028-13.431-0.31    c-7.341-0.56-14.719-0.287-22.094-0.001c-3.011-0.124-6.036-0.172-9.125-0.374c-3.292-0.214-7.11-0.22-10.723,0.245    c-6.23-0.222-12.458-0.345-18.659,0.129c-4.417,0.337-8.921,0.385-13.431,0.31c-0.041-0.362-0.15-0.676-0.322-0.939    c-0.284-4.367-0.358-9.093-1.455-13.385c5.189,0.805,10.717,0.357,15.846,0.206c4.877-0.143,10.152,0.481,15.145-0.055    c4.509,0.079,9.061,0.465,13.573,0.485c5.31,0.023,10.52-0.348,15.805-0.448h0.007c4.89,0.47,10.03-0.122,14.792,0.019    C290.791,213.094,296.319,213.542,301.509,212.737z M206.88,226.922c-3.058-0.101-6.105-0.228-9.112-0.336    c-6.198-0.222-12.498-0.088-18.754,0.146c0.898-3.301,0.651-6.658,0.477-10.162c-0.028-0.551-0.662-5.112,0.233-5.873    c0.549-0.468,2.856-0.182,3.568-0.203c3.018-0.088,6.061,0.042,9.068-0.185c3.129-0.236,6.16-0.644,9.311-0.574    c3.55,0.08,3.762-0.56,4.672,3.361C207.39,217.598,206.763,222.323,206.88,226.922z M200.607,175.503    c-0.669,9.725-0.53,19.947-0.057,29.759c-2.835,0.075-5.808,0.614-8.19,0.73c-2.409,0.116-6.023-0.544-9.387-0.596    c0.286-4.065-0.229-8.234-0.216-12.297c0.018-5.78-0.573-11.49-0.632-17.263c-0.051-5.06-0.516-10.102-0.623-15.165    c-0.057-2.645,0.468-6.227-0.479-9.02c6.907,0.426,13.926,0.767,20.83,0.623C198.837,159.123,201.105,168.258,200.607,175.503z     M330.5,160.669c-0.108,5.063-0.572,10.104-0.623,15.165c-0.059,5.774-0.65,11.483-0.632,17.263    c0.012,4.064-0.502,8.232-0.216,12.297c-3.364,0.052-6.977,0.713-9.387,0.596c-2.383-0.115-5.355-0.653-8.19-0.73    c0.473-9.811,0.612-20.034-0.057-29.759c-0.498-7.246,1.77-16.381-1.246-23.23c6.904,0.144,13.922-0.197,20.83-0.623    C330.032,154.444,330.557,158.024,330.5,160.669z M166.196,140.254c-0.027-3.269,3.083-7.831,4.513-10.121    c1.807-2.896,3.806-5.538,6.096-8.072c5.453-6.036,11.342-11.6,17.977-16.391c3.099-2.237,6.139-4.631,9.408-6.636    c4.079-2.502,8.568-3.912,13.031-5.551c0.881-0.325,1.765-0.609,2.649-0.89c3.147-0.399,6.593-1.574,9.178-2.03    c7.069-1.246,14.366-1.397,21.52-1.923c6.513-0.478,13.267-0.422,19.784-0.047c3.458,0.2,8.33,2.062,12.114,1.59    c4.141,0.788,8.239,1.802,12.316,3.3c4.464,1.64,8.952,3.049,13.031,5.551c3.269,2.005,6.309,4.398,9.408,6.636    c6.634,4.791,12.524,10.355,17.977,16.391c2.288,2.534,4.287,5.176,6.096,8.072c1.429,2.291,4.539,6.852,4.513,10.121    c-3.561,0.784-7.877-0.103-11.433,0.782c-4.327-0.513-9.103-0.299-13.142-0.266c-5.628,0.045-11.248,0.084-16.891-0.149    c-5.502-0.227-10.981,0.129-16.487,0.231c-4.601,0.084-9.395,0.023-14.044,0.492c-7.811-0.841-15.527-0.297-23.465-0.312    c-6.576-0.012-13.846-0.808-20.633-0.106c-1.87-0.029-3.732-0.041-5.563-0.074c-5.506-0.102-10.985-0.457-16.487-0.231    c-5.642,0.232-11.263,0.194-16.891,0.149c-4.039-0.033-8.815-0.247-13.142,0.266C174.072,140.151,169.757,141.038,166.196,140.254    z M176.508,146.251c0.596-1.411,9.674-1.046,11.076-1.103c5.536-0.228,11.135-0.052,16.657-0.596    c0.109,0.001,0.217,0.003,0.326,0.003c1.495,0.581,2.808,1.992,0.699,3.392c-0.561,0.371-3.672,0.247-4.535,0.324    c-5.908,0.518-12.015,0.51-17.929,0.161C181.511,148.357,175.483,148.678,176.508,146.251z M190.689,231.75    c5.741,0.157,11.553-0.549,17.313-0.592c12.235-0.092,24.423-0.503,36.639-0.894c3.653,0.114,7.308,0.02,10.948,0.293    c4.126,0.309,8.282,0.196,12.397-0.274c12.007,0.385,23.988,0.784,36.014,0.875c5.76,0.043,11.573,0.75,17.313,0.592    c6.176-0.17,12.164-0.398,18.329,0.377c1.163,0.146,2.61,0.598,2.714,1.766c0.096,1.077-1.064,1.801-2.08,2.168    c-4.232,1.531-7.704,1.207-11.844,0.047c-4.37-1.224-9.766-0.806-14.282-0.533c-2.897,0.174-5.632,0.901-8.567,0.919    c-10.048,0.058-20.215-0.476-30.284-0.201c-6.159-0.759-12.185-1.225-18.451-0.886c-6.771,0.367-13.983-0.538-20.681,0.873    c-9.894-0.243-19.879,0.271-29.75,0.214c-2.935-0.018-5.67-0.745-8.567-0.919c-4.516-0.273-9.911-0.691-14.282,0.533    c-4.14,1.16-7.61,1.483-11.844-0.047c-1.017-0.367-2.178-1.091-2.08-2.168c0.104-1.167,1.551-1.619,2.714-1.766    C178.525,231.35,184.513,231.58,190.689,231.75z M145.079,213.25c4.799,0.256,10.032-0.096,14.795-0.493    c4.565-0.38,9.769-0.057,14.333-1.047c-0.196,2.249,0.221,4.598,0.357,6.779c0.119,1.895,0.482,3.835,0.591,5.701    c0.016,0.265-0.43,2.386-0.007,2.699c-1.017,0.043-2.039,0.083-3.051,0.129c-3.771,0.167-8.566,1.118-9.463,4.647    c-0.052,0.007-0.101,0.002-0.154,0.012c-0.072,0.012-0.144,0.018-0.216,0.029c-0.229-0.145-0.49-0.268-0.823-0.329    c-3.088-0.563-6.107-0.103-9.247-0.154c-4.796-0.078-9.601,0.003-14.398,0c-0.279,0-0.559-0.003-0.838-0.003    c-0.082-0.481-0.154-0.97-0.182-1.479c-0.121-2.172-0.024-4.386-0.072-6.565c-0.075-3.486-0.387-6.875-0.704-10.295    C139.023,212.965,142.041,213.088,145.079,213.25z M104.911,200.374c0.216-0.645,0.544-1.061,0.948-1.327    c1.897-1.252,5.474,0.764,6.98-2.311c0.619-1.263,0.462-2.653,0.476-4.003c0.029-3.001,0.201-6.084,1.005-9    c0.289-1.051,3.346-8.402,4.979-7.832c0.241,0.084-1.218,8.516-1.227,8.762c-0.115,3.012,0.772,7.148,4.147,8.126    c3.229,0.936,5.179-1.894,6.83-4.224c1.493-2.107,1.672-3.836,2.188-6.357c0.46-2.253,3.799-5.185,6.001-3.088    c2.027,1.93,0.616,7.347-0.509,9.322c-1.428,2.506-3.827,4.248-5.061,6.861c-0.604,1.279-0.124,2.714,1.285,3.161    c3.476,1.101,8.227-5.323,10.932-0.677c1.965,3.373-2.111,5.624-4.456,6.88c-4.123,2.206-7.539,3.058-12.112,3.003    c-2.422-0.029-4.846,0.047-7.269,0.049c-1.331,0.001-6.29,0.745-7.257-0.064c-0.023-0.02-0.04-0.044-0.065-0.063    c-1.774-1.305-4.04-1.976-5.732-3.308C105.73,203.285,104.367,202.005,104.911,200.374z M131.359,231.193    c-6.289-0.047-12.581-0.119-18.864-0.023c-0.318,0.004-0.64,0.013-0.958,0.019c0.253-2.499-0.509-5.468-0.679-7.664    c-0.268-3.464-0.803-6.713-1.396-10.062c0.852-0.026,1.703-0.055,2.557-0.076c5.342-0.132,10.534-0.634,15.898-0.628    c1.688,0.002,3.365,0.023,5.038,0.053c-1.019,3.262-1.176,6.564-1.37,10.129C131.445,225.524,131.121,228.428,131.359,231.193z     M78.5,214.433c9.149,0.02,18.162-0.497,27.221-0.842c-0.499,3.172,0.357,7.028,0.417,9.932c0.045,2.226-0.476,5.286,0.001,7.769    c-14.235,0.319-28.675,0.836-42.817-0.39c-3.139-0.273-5.993,0.185-9.108,0.36c-1.724,0.096-3.45,0.042-5.178-0.03    c-1.608-5.507,0.128-12.121-0.171-17.939c3.879,0.589,7.9,0.531,11.796,0.559C66.61,213.896,72.526,214.42,78.5,214.433z     M39.181,199.126c2.298-0.788,5.121-0.335,7.508-0.52c2.827-0.22,5.5-0.634,8.347-0.625c0.999,0.003,5.759-0.693,6.406-0.167    c0.716,0.58,0.715,4.988,0.717,6.013c0.002,1.337-0.448,2.661-0.472,3.895c-4.619-0.098-9.21,0.072-13.501,0.967    c-0.449-1.598-1.273-2.777-3.337-3.266c-1.859-0.44-3.955,0.166-5.812,0.314c-0.737,0.059-1.475,0.094-2.211,0.121    c0.208-0.726,0.384-1.46,0.473-2.184C37.636,200.945,36.438,200.067,39.181,199.126z M33.858,190.513    c-0.129-0.129-0.258-0.261-0.387-0.396c-2.179-2.287-4.83-9.974,0.742-7.465c1.339,0.603,2.367,1.619,3.816,2.097    c9.384,3.092,8.514-7.452,9.79-13.298c0.405-1.854,3.651-8.103,6.552-6.373c1.394,0.832,0.958,5.268,0.745,6.693    c-0.208,1.393-0.817,2.783-1.049,4.181c-0.399,2.41-0.522,5.493,1.848,6.966c4.173,2.593,5.903-3.445,9.185-4.418    c1.195-0.355,2.618-0.184,3.485,0.712c1.556,1.609-0.139,4.116-1.145,5.518c-2.015,2.81-4.361,6.445-7.466,8.165    c-2.806,1.554-6.7,0.795-9.918,1.245C43.524,195.057,38.756,195.385,33.858,190.513z M20.884,217.604    c0.179-2.112,0.004-5.668,1.561-6.568c1.36-0.786,3.613-0.223,5.081-0.246c1.726-0.028,3.42-0.339,5.145-0.412    c2.805-0.12,6.587-1.013,9.213,0.336c4.001,2.056,1.408,7.257,1.266,10.777c-0.111,2.757-0.844,6.557-0.264,9.637    c-0.104,0.004-0.207,0.003-0.312,0.009c-4.558,0.233-9.115,0.539-13.68,0.63c-2.471,0.049-7.082,1.108-8.791-0.95    C17.526,227.713,20.592,221.074,20.884,217.604z M6.26,240.99c0.17-1.711-0.312-3.592,1.12-4.645    c1.246-0.917,3.559-0.166,4.978-0.068c8.299,0.577,16.648,1.421,24.99,1.051c7.681-0.341,15.561-0.755,23.239-0.669    c16.362,0.183,32.73,1.633,49.113,0.574c8.029-0.519,16.191-0.201,24.253-0.166c0.436,0.12,0.897,0.119,1.345,0.004    c0.126,0,0.253,0.002,0.379,0.002c4.827-0.008,9.656-0.028,14.483-0.003c1.623,0.008,3.209,0.066,4.775,0.033    c2.874,0.327,5.72,0.178,8.571-0.269c1.825,3.554,5.296,3.27,9.605,3.498c1.371,0.073,2.747,0.193,4.123,0.324    c-0.094,0.542-0.175,1.082-0.261,1.623c-5.928-1.409-13.453-0.645-19.442-0.633c-7.46,0.016-14.976,0.124-22.417-0.234    c-7.624-0.367-15.373,0.506-23.019,0.368c-7.929-0.142-15.868-0.304-23.829-0.298c-15.953,0.012-31.855,0.91-47.772,1.107    c-7.453,0.092-15.052,0.418-22.496,0.075c-3.793-0.174-7.975-0.58-11.849,0.008C6.174,242.114,6.205,241.555,6.26,240.99z     M7.277,284.552c-1.142-1.887-1.153-6.781-1.129-8.939c0.029-2.655,0.214-5.03-0.2-7.561c1.863,0.557,3.836,0.206,5.927,0.212    c4.403,0.012,8.717-0.46,13.128-0.467c2.091-0.003,4.181,0.033,6.272,0.084c0.193,4.867,1.294,9.647,0.817,14.648    c-0.08,0.835-0.059,2.57-0.289,3.469c-0.095,0.065-0.234,0.15-0.429,0.24c-1.925,0.889-5.077,0.467-7.246,0.578    C19.828,287.035,9.719,288.587,7.277,284.552z M25.004,353.469c0.288,8.874-0.188,17.814,0.257,26.675    c0.228,4.537,0.257,9.056,0.245,13.611c-0.01,3.606-0.493,7.585,0.165,11.186c-0.7,0.003-1.404,0.031-2.1,0.088    c-3.436-0.446-7.656-0.547-11.471,0.111c0.038-1.648-0.188-3.371-0.193-4.886c-0.013-5.051,0.26-10.061,0.227-15.111    c-0.07-10.471-0.061-20.982-0.529-31.481c-0.492-11.032-0.427-22.079-0.833-33.1c-0.216-5.885-0.646-11.817-1.158-17.679    c-0.345-3.954-0.305-8.034-1.052-11.941c0.36,0.058,0.723,0.11,1.092,0.156c4.136,0.523,8.61,0.7,12.775,0.555    c1.089-0.038,2.379-0.016,3.73-0.04c-0.767,2.13-0.975,14.095-0.98,15.313c-0.02,5.224-0.203,10.427-0.31,15.647    C24.658,332.852,24.671,343.199,25.004,353.469z M29.789,419.901c-0.601,2.798-0.531,3.892-3.43,4.566    c-1.42,0.33-2.743,0.035-4.166-0.013c-2.295-0.079-4.601-0.336-6.896-0.348c-1.397-0.008-3.2,0.63-4.511,0.47    c-3.601-0.44-4.019-4.251-4.463-7.151c-0.296-1.937-0.625-7.666,2.988-7.375c0.459,0.037,0.919-0.064,1.276-0.375    c3.245-0.813,6.516-1.089,9.836-1.388c0.052-0.004,0.111-0.006,0.164-0.01c0.972,0.126,1.946,0.249,2.916,0.424    c1.213,0.218,4.809,0.42,5.7,1.189C31.386,411.768,30.28,417.612,29.789,419.901z M59.43,367.903    c-1.017-0.008-2.015,0.109-3.12,0.228c-0.703,0.075-1.41,0.12-2.119,0.156c-3.373-0.226-8.074-0.31-12.633-0.161    c-3.916-0.267-8.075-0.604-11.722,0.106c-0.119-5.219-0.266-10.437-0.363-15.656c3.644,1.011,7.714,0.728,11.407,0.768    c6.414,0.07,12.651,0.383,19.053-0.166C59.793,358.084,59.603,362.993,59.43,367.903z M92.749,404.982    c1.093,0.383,0.456-0.656,0.953,1.203c0.258,0.965,0.001,2.343,0.089,3.357c0.483,5.657,1.132,9.847-5.656,10.76    c-4.652,0.626-9.445,0.251-14.098-0.028c-4.054-0.242-12.509,1.651-14.917-2.038c-1.088-1.665-1.413-4.884-1.138-6.958    c0.493-3.729,3.106-4.817,6.716-5.24c5.326-0.623,10.695-1.264,16.037-1.723c1.103-0.094,2.222-0.114,3.345-0.114    c0.682,0.049,1.364,0.104,2.044,0.177C87.852,404.566,91.182,404.434,92.749,404.982z M143.697,340.917    c0,0.075-0.001,0.151-0.001,0.226c-1.419-4.882-3.586-9.595-5.885-13.816c-5.078-9.322-15.198-13.452-25.422-10.953    c-11.12,2.718-18.108,11.847-21.8,22.568c-0.166-6.032-0.449-12.063-0.879-18.056c-0.113-1.58-0.221-3.151-0.323-4.721    c1.456-1.619,3.429-3.05,4.847-4.409c2.019-1.934,3.874-3.933,6.257-5.496c5.024-3.297,11.452-4.323,17.334-4.875    c6.56-0.615,12.496,0.222,18.495,2.976c3.281,1.506,4.745,2.915,7.226,5.397c0.082,0.082,0.153,0.151,0.231,0.228    c0.006,0.235,0.007,0.469,0.013,0.704C144.069,320.755,143.643,330.849,143.697,340.917z M216.092,403.242    c0.645,0.813-0.029,3.659-0.075,4.62c-0.098,1.984,0.187,3.927,0.193,5.907c0.012,4.473-1.37,5.768-5.456,6.462    c-3.733,0.634-7.544,0.536-11.314,0.734c-8.635,0.456-17.109,0.194-25.741-0.085c-9.951-0.323-19.912,0.338-29.851-0.51    c-1.624-0.139-3.577-0.133-5.508-0.285c-1.853-0.498-3.709-1.014-5.579-1.373c-0.058-0.031-0.123-0.052-0.18-0.085    c-0.384-0.226-0.641-0.315-0.817-0.331c-0.009-0.16-0.027-0.346-0.07-0.596c-0.298-1.765,0.2-3.927,0.486-5.648    c0.318-1.914,0.688-3.949,1.281-5.798c0.386-1.207,0.223-1.44,0.733-1.838c1.839-1.435,8.812,0.078,11.262,0.08    c1.989,0.002,3.977,0.001,5.965-0.004c2.08,0.449,4.326,0.59,6.469,0.588c2.324-0.002,5.979,0.06,8.493-0.805    c8.36-0.244,16.693-0.765,24.981-1.841c3.51,0.446,7.465,0.091,10.052,0.013c2.807-0.084,6.418,0.318,9.076-0.898    C212.944,401.67,215.167,402.074,216.092,403.242z M289.812,311.923c-3.201-5.339-7.333-9.646-12.295-13.359    c-1.803-1.349-3.882-2.868-6.104-4.177c-0.675-0.907-1.492-1.655-2.878-2.358c-2.339-1.188-4.98-1.842-7.584-1.978    c-3.781-0.197-8.069-0.057-11.794,1.22c-5.324,0.441-10.669,4.299-14.672,7.294c-4.962,3.714-9.094,8.021-12.295,13.359    c-4.119,6.87-7.531,14.291-9.606,22.038c-0.054,0.204-0.11,0.41-0.164,0.614c-0.316-8.978-0.552-17.994-0.675-26.951    c-0.008-0.562-0.045-1.125-0.066-1.688c0.796-0.945,1.336-1.888,2.09-3.157c2.376-3.995,6.142-7.95,9.299-11.327    c4.019-4.297,8.833-7.608,14.458-9.471c0.442-0.146,0.89-0.265,1.337-0.381c0.483-0.099,0.967-0.194,1.449-0.303    c0.453-0.102,0.906-0.193,1.357-0.284c2.125-0.353,4.262-0.574,6.349-0.985c2.414-0.276,4.841-0.465,7.308-0.631    c1.987-0.134,4.013-0.121,6.04-0.035c4.219,1.334,8.79,1.187,13.11,2.619c5.626,1.863,10.439,5.173,14.458,9.471    c3.158,3.376,6.923,7.332,9.299,11.327c0.755,1.268,1.295,2.212,2.09,3.157c-0.021,0.562-0.059,1.125-0.067,1.688    c-0.123,8.958-0.359,17.974-0.675,26.951c-0.054-0.204-0.11-0.41-0.164-0.614C297.342,326.212,293.931,318.792,289.812,311.923z     M377.809,404.416c0.51,0.398,0.347,0.631,0.733,1.838c0.591,1.848,0.961,3.885,1.281,5.798c0.286,1.721,0.783,3.883,0.486,5.648    c-0.042,0.251-0.06,0.437-0.07,0.596c-0.176,0.017-0.435,0.105-0.817,0.332c-0.057,0.033-0.122,0.053-0.18,0.085    c-1.87,0.358-3.725,0.876-5.579,1.373c-1.931,0.152-3.884,0.146-5.508,0.285c-9.939,0.848-19.899,0.187-29.851,0.51    c-8.633,0.279-17.106,0.54-25.741,0.085c-3.77-0.198-7.581-0.099-11.314-0.734c-4.086-0.694-5.468-1.989-5.456-6.462    c0.006-1.98,0.29-3.924,0.193-5.907c-0.048-0.962-0.721-3.807-0.075-4.62c0.926-1.166,3.148-1.572,5.6-1.692    c2.658,1.215,6.269,0.814,9.076,0.898c2.587,0.078,6.542,0.434,10.052-0.013c8.288,1.074,16.621,1.595,24.981,1.841    c2.514,0.865,6.169,0.803,8.493,0.805c2.143,0.002,4.39-0.139,6.469-0.588c1.988,0.006,3.977,0.006,5.965,0.004    C368.997,404.493,375.97,402.981,377.809,404.416z M399.614,316.374c-10.225-2.499-20.344,1.631-25.422,10.953    c-2.299,4.221-4.465,8.935-5.885,13.816c0-0.075-0.001-0.151-0.001-0.226c0.054-10.068-0.371-20.162-0.092-30.227    c0.007-0.235,0.008-0.469,0.013-0.704c0.078-0.078,0.149-0.145,0.231-0.228c2.48-2.483,3.945-3.892,7.226-5.397    c6-2.754,11.935-3.591,18.495-2.976c5.882,0.552,12.31,1.578,17.333,4.875c2.383,1.563,4.239,3.562,6.257,5.496    c1.418,1.358,3.393,2.791,4.847,4.409c-0.102,1.57-0.208,3.141-0.323,4.721c-0.431,5.993-0.713,12.024-0.879,18.056    C417.721,328.22,410.732,319.092,399.614,316.374z M454.021,411.278c0.274,2.074-0.051,5.293-1.138,6.958    c-2.408,3.689-10.863,1.796-14.918,2.038c-4.652,0.278-9.445,0.653-14.098,0.028c-6.788-0.914-6.139-5.104-5.656-10.76    c0.088-1.015-0.171-2.393,0.089-3.357c0.498-1.858-0.139-0.819,0.954-1.203c1.567-0.548,4.896-0.417,6.625-0.602    c0.681-0.073,1.363-0.13,2.044-0.177c1.123,0,2.242,0.02,3.345,0.114c5.342,0.459,10.71,1.1,16.037,1.723    C450.914,406.461,453.527,407.549,454.021,411.278z M470.443,368.127c-4.559-0.15-9.26-0.065-12.633,0.161    c-0.708-0.037-1.416-0.081-2.119-0.156c-1.105-0.12-2.103-0.236-3.12-0.228c-0.173-4.911-0.363-9.819-0.505-14.724    c6.402,0.55,12.637,0.236,19.053,0.166c3.693-0.04,7.762,0.243,11.407-0.768c-0.095,5.22-0.244,10.438-0.363,15.656    C478.518,367.523,474.359,367.86,470.443,368.127z M505.68,417.424c-0.443,2.9-0.862,6.711-4.462,7.151    c-1.313,0.161-3.114-0.478-4.511-0.47c-2.294,0.012-4.601,0.269-6.896,0.348c-1.423,0.049-2.745,0.344-4.166,0.013    c-2.899-0.674-2.828-1.767-3.43-4.566c-0.491-2.288-1.598-8.133,0.588-10.014c0.891-0.767,4.487-0.97,5.7-1.189    c0.97-0.175,1.943-0.297,2.916-0.424c0.053,0.003,0.112,0.004,0.163,0.01c3.32,0.3,6.59,0.576,9.836,1.388    c0.357,0.312,0.816,0.412,1.276,0.375C506.306,409.758,505.975,415.487,505.68,417.424z M500.094,400.254    c-0.004,1.516-0.232,3.239-0.193,4.886c-3.815-0.657-8.035-0.557-11.471-0.111c-0.696-0.055-1.4-0.083-2.099-0.088    c0.659-3.601,0.175-7.58,0.165-11.186c-0.012-4.555,0.017-9.074,0.244-13.611c0.446-8.86-0.03-17.8,0.257-26.675    c0.334-10.27,0.346-20.617,0.135-30.895c-0.107-5.22-0.292-10.422-0.31-15.647c-0.004-1.217-0.213-13.183-0.98-15.313    c1.35,0.024,2.642,0.002,3.73,0.04c4.164,0.145,8.639-0.031,12.775-0.555c0.369-0.047,0.732-0.099,1.092-0.156    c-0.747,3.906-0.707,7.987-1.052,11.941c-0.512,5.863-0.941,11.794-1.158,17.679c-0.406,11.021-0.341,22.068-0.833,33.1    c-0.468,10.499-0.459,21.01-0.529,31.481C499.833,390.193,500.107,395.204,500.094,400.254z M505.854,275.615    c0.023,2.156,0.013,7.052-1.129,8.939c-2.443,4.035-12.551,2.482-16.852,2.264c-2.17-0.111-5.321,0.312-7.246-0.578    c-0.194-0.09-0.333-0.174-0.429-0.239c-0.231-0.898-0.211-2.633-0.289-3.469c-0.478-5,0.624-9.781,0.817-14.648    c2.09-0.051,4.181-0.088,6.272-0.084c4.411,0.008,8.725,0.479,13.128,0.467c2.091-0.006,4.066,0.345,5.928-0.212    C505.64,270.584,505.826,272.959,505.854,275.615z"/>
	</g>
</g>
<g>
</g>
<g>
</g>
<g>
</g>
<g>
</g>
<g>
</g>
<g>
</g>
<g>
</g>
<g>
</g>
<g>
</g>
<g>
</g>
<g>
</g>
<g>
</g>
<g>
</g>
<g>
</g>
<g>
</g>
</svg>
