<?xml version="1.0" encoding="iso-8859-1"?>
<!-- Generator: Adobe Illustrator 19.0.0, SVG Export Plug-In . SVG Version: 6.00 Build 0)  -->
<svg xmlns="http://www.w3.org/2000/svg" xmlns:xlink="http://www.w3.org/1999/xlink" version="1.1" id="Layer_1" x="0px" y="0px" viewBox="0 0 512.001 512.001" style="enable-background:new 0 0 512.001 512.001;" xml:space="preserve">
<g>
	<g>
		<path d="M423.883,501.798c-3.105-6.509-11.204-8.849-16.755-12.523c-3.741-2.477-8.079-5.831-12.581-7.98    c3.929-6.303,1.327-16.928,1.924-23.875c0.731-8.521-0.25-16.987-0.757-25.461c-0.239-4.005,0.058-7.807,0.068-11.788    c0.004-1.9-0.859-4.689-0.895-6.931c2.868-0.053,5.991-0.355,8.067-1.931c1.337-1.015,1.947-2.256,1.614-3.967    c-0.463-2.375-2-3.115-3.81-4.411c-2.306-1.651-4.498-3.537-6.933-5.019c-5.892-3.583-11.711-7.199-17.391-11.123    c-1.695-1.172-3.318-1.873-4.933-2.299c0.636-1.174,1.007-2.581,1.02-4.287c0.041-6.169-0.963-12.202-0.25-18.379    c0.31-2.695,0.512-5.258,0.256-7.831c3.171,0.246,7.364,0.518,9.328-1.647c0.883-0.973,1.402-2.769,0.508-3.931    c-3.327-4.32-9.358-11.379-15.799-14.318c0.829-4.376-0.741-10.202-0.994-14.326c-0.644-10.53-4.248-19.816-7.256-29.828    c-3.085-10.273-6.866-19.945-12.035-29.361c-10.124-18.443-24.075-35.685-40.684-48.678c-3.965-3.101-8.369-5.803-12.987-8.062    c2.438-6.351,3.337-16.654-3.801-18.972c-1.063-0.345-2.141-0.558-3.229-0.703c2.184-5.933,2.748-12.191,2.683-18.551    c-0.075-7.236,0.603-14.714-0.442-21.921c0.1,0.098,0.195,0.198,0.297,0.296c2.213,2.107,4.087,5.257,7.611,3.874    c2.534-0.995,4.057-4.314,5.654-6.364c1.494-1.917,2.475-3.191,1.014-5.386c-2.082-3.128-6.776-6.403-9.855-8.567    c-3.156-2.219-6.253-4.556-9.296-6.927c-1.169-0.91-2.367-1.786-3.573-2.653c0.109-1.243-0.181-2.954-0.564-4.551    c0.17-2.75-0.668-6.183-0.883-8.153c-0.581-5.336,0.352-10.778-1.405-15.966c-0.13-0.385-0.298-0.75-0.485-1.105    c1.006-1.016,1.369-2.667,1.637-4.316c0.492-3.032,1.023-5.959-1.061-8.628c-2.246-2.875-6.524-5.159-10.915-6.228    c0.702-6.709-0.7-13.904-0.789-20.654c-0.093-7.041-0.853-14.069-0.996-21.099c-0.142-6.989-0.857-14.21-1.572-21.157    c-0.378-3.685-1.084-6.221-5.18-6.104c-3.992,0.112-8.26,2.185-9.121,6.292c-1.255,5.977-1.004,12.96-1.331,19.081    c-0.416,7.784-0.656,15.549-0.916,23.349c-0.209,6.295-0.287,13.184,0.77,19.502c-0.597,0.244-1.158,0.574-1.675,1.011    c-4.097,1.141-7.99,3.311-10.097,6.007c-2.085,2.668-1.553,5.595-1.061,8.628c0.267,1.651,0.631,3.301,1.637,4.316    c-0.187,0.355-0.355,0.72-0.485,1.105c-1.756,5.188-0.823,10.63-1.405,15.966c-0.215,1.971-1.053,5.403-0.883,8.153    c-0.383,1.597-0.673,3.308-0.564,4.551c-1.205,0.867-2.404,1.743-3.573,2.653c-3.043,2.371-6.139,4.708-9.296,6.927    c-3.079,2.164-7.771,5.44-9.855,8.567c-1.461,2.195-0.48,3.469,1.014,5.386c1.597,2.05,3.119,5.369,5.654,6.364    c3.524,1.382,5.397-1.768,7.611-3.874c0.102-0.098,0.197-0.198,0.297-0.296c-1.045,7.207-0.367,14.685-0.441,21.921    c-0.066,6.361,0.5,12.618,2.683,18.551c-1.087,0.145-2.166,0.358-3.229,0.703c-7.138,2.318-6.238,12.622-3.801,18.972    c-4.618,2.257-9.022,4.961-12.987,8.062c-16.609,12.992-30.56,30.235-40.684,48.678c-5.169,9.416-8.95,19.089-12.035,29.361    c-3.007,10.012-6.61,19.297-7.256,29.828c-0.253,4.125-1.823,9.949-0.994,14.326c-6.441,2.938-12.472,9.998-15.799,14.318    c-0.896,1.162-0.375,2.959,0.508,3.931c1.964,2.166,6.158,1.894,9.328,1.647c-0.256,2.573-0.055,5.135,0.256,7.831    c0.712,6.176-0.292,12.21-0.25,18.379c0.011,1.705,0.384,3.113,1.02,4.287c-1.615,0.426-3.238,1.129-4.933,2.299    c-5.68,3.924-11.5,7.541-17.391,11.123c-2.436,1.481-4.628,3.367-6.933,5.019c-1.81,1.296-3.347,2.036-3.81,4.411    c-0.333,1.711,0.277,2.952,1.614,3.967c2.076,1.575,5.199,1.878,8.067,1.931c-0.036,2.241-0.899,5.03-0.895,6.931    c0.01,3.981,0.307,7.783,0.068,11.788c-0.506,8.474-1.488,16.94-0.757,25.461c0.597,6.947-2.005,17.572,1.924,23.875    c-4.503,2.149-8.841,5.504-12.583,7.98c-5.552,3.675-13.65,6.015-16.755,12.523c-3.487,7.305,6.902,9.037,11.618,9.703    c8.783,1.243,17.953-0.246,26.824-0.02c19.467,0.496,38.817-0.799,58.277-1.202c8.758-0.183,17.442-0.93,26.21-1.091    c4.602-0.085,9.205-0.194,13.808-0.22c2.499-0.014,4.874-0.354,7.232-0.733c3.799-0.004,7.6-0.276,11.383-0.184    c4.021,0.099,8.036,0.747,12.062,0.92c8.644,0.373,17.303-0.098,25.933-0.088c6.719,0.008,14.08,1.042,20.996,0.353    c8.259,0.21,16.451,0.87,24.71,1.042c19.46,0.403,38.811,1.698,58.277,1.202c8.871-0.226,18.041,1.262,26.824,0.02    C416.981,510.834,427.37,509.102,423.883,501.798z M250.321,33.718c0.341-5.327,0.82-10.657,1.106-15.993    c0.143-2.636,0.178-5.3,0.376-7.926c0.215-2.85,2.109-7.376,6.063-6.789c3.158,0.47,2.026,12.142,2.133,15.117    c0.216,6.072,0.356,12.11,0.471,18.186c0.198,10.456,0.016,21.068,1.073,31.487c-2.37-0.44-5.027-0.274-7.065-0.256    c-1.516,0.013-3.065-0.066-4.538,0.038c0.538-4.997-0.119-10.12-0.104-15.118C249.852,46.244,249.923,39.926,250.321,33.718z     M241.072,76.859c1.734-1.259,3.589-2.08,5.665-2.648c2.951-0.807,6.126-0.383,8.965-1.436c0.112-0.042,0.197-0.107,0.296-0.161    c0.099,0.053,0.184,0.119,0.296,0.161c2.839,1.053,6.015,0.63,8.965,1.436c2.076,0.568,3.93,1.389,5.665,2.648    c1.771,1.284,2.646,1.984,2.604,4.399c-0.013,0.751-0.008,2.318-0.177,3.635c-2.422-1.731-5.708-2.779-9.05-3.185    c-3.562-1.447-8.89-1.145-11.922-0.463c-0.144,0.032-0.558,0.127-1.084,0.274c-4.462-0.078-9.356,1.018-12.652,3.375    c-0.169-1.317-0.164-2.884-0.177-3.635C238.426,78.843,239.302,78.144,241.072,76.859z M239.429,98.421    c0.061-5.662,0.574-8.797,6.384-10.47c3.254-0.937,6.884-0.81,10.185-1.595c3.301,0.785,6.931,0.658,10.185,1.595    c5.81,1.672,6.324,4.808,6.384,10.47c0.041,3.838-0.44,11.371,1.812,15.778c-1.252-0.893-2.5-1.792-3.723-2.72    c-3.05-2.314-6.418-5.962-10.229-7.196c-2.565-1.342-6.047-1.53-8.38-0.581c-2.384,0.971-5.398,2.925-7.595,5.196    c-1.074,0.916-2.11,1.821-3.112,2.58c-1.224,0.928-2.471,1.828-3.723,2.72C239.868,109.792,239.388,102.259,239.429,98.421z     M224.496,136.403c-1.429,1.432-4.089,5.152-6.143,5.715c-1.263,0.346-0.582-0.109-1.83-1.201c-0.571-0.5-1.554-1.214-2.012-1.735    c-1.701-1.93-1.71-0.686,1.974-3.509c1.136-0.871,2.21-1.766,3.321-2.667c4.425-3.586,9.205-7.092,13.948-10.29    c3.119-2.102,6.124-4.245,9.131-6.517c4.024-3.037,7.869-7.541,13.22-7.987c5.197-0.433,9.198,5.112,13.007,7.987    c3.006,2.271,6.011,4.414,9.13,6.516c4.744,3.198,9.523,6.704,13.948,10.29c1.111,0.9,2.185,1.795,3.321,2.667    c3.684,2.824,3.675,1.579,1.974,3.509c-0.459,0.521-1.441,1.235-2.012,1.735c-1.248,1.092-0.565,1.547-1.83,1.201    c-2.054-0.562-4.714-4.283-6.143-5.715c-2.044-2.047-4.974-3.17-7.343-4.921c-2.958-2.186-5.867-4.438-8.756-6.713    c-1.072-0.844-3.733-3.534-6.328-5.164c-2.21-3.342-7.665-5.487-11.205-4.452c-2.499,0.731-4.583,2.47-6.531,4.105    c-0.147,0.124-0.292,0.239-0.437,0.358c-2.589,1.631-5.239,4.311-6.309,5.152c-2.858,2.249-6.033,4.083-8.825,6.417    C229.52,133.066,226.597,134.299,224.496,136.403z M281.53,183.928c-2.049,0.01-4.109,0.151-6.153,0.214    c0.335-1.294,0.521-2.632,0.759-3.962c0.343-1.918,0.577-4.828-0.12-6.689c-1.235-3.299-6.6-1.74-5.257,1.449    c0.634,1.508,0.25,3.94,0.168,5.527c-0.058,1.126,0.066,2.432,0.305,3.681c-2.182-0.043-4.415-0.121-6.639-0.087    c0.331-1.125,0.497-2.413,0.603-3.163c0.193-1.372,0.363-2.795,0.41-4.186c0.037-1.075-0.294-2.226-0.372-3.112    c-0.216-2.48-3.533-3.76-4.923-1.333c-0.742,1.297-0.299,2.108-0.046,3.393c0.248,1.257-0.021,2.667-0.036,3.927    c-0.017,1.468-0.162,3.23,0.306,4.71c-0.449,0.048-0.898,0.095-1.342,0.161c-1.426,0.062-2.786,0.12-3.999,0.088    c-0.952-0.026-1.964-0.096-3.008-0.179c-0.348-0.044-0.701-0.075-1.053-0.109c0.286-1.311,0.388-2.696,0.591-3.966    c0.403-2.514,0.782-4.887,0.403-7.439c-0.425-2.863-5.218-2.194-5.055,0.685c0.189,3.317-0.838,7.083-0.224,10.439    c-1.796-0.081-3.594-0.073-5.305,0.15c-0.339,0.008-0.667,0.007-1.004,0.013c0.711-3.116,0.392-6.389,0.348-9.552    c-0.046-3.243-5.17-3.237-5.034,0c0.081,1.954,0.444,3.876,0.309,5.837c-0.088,1.281-0.126,2.5,0.073,3.709    c-1.917-0.068-3.849-0.196-5.769-0.205c0.656-4.364-1.149-8.969-1.279-13.429c-0.028-0.956-0.057-1.922-0.085-2.893    c4.249,0.63,9.068,0.117,13.001,0.107c2.749-0.008,6.788,0.534,9.802-0.472c1.458,0.012,2.908-0.019,4.321-0.04    c1.259-0.019,2.702,0.075,4.18,0.129c2.976,0.873,6.828,0.375,9.484,0.383c3.933,0.01,8.752,0.523,13.001-0.107    c-0.028,0.972-0.057,1.937-0.085,2.893C282.678,174.959,280.874,179.564,281.53,183.928z M275.401,161.56    c-0.079-2.955-0.263-5.987,0.072-8.876c0.284-2.443,0.472-4.684-0.846-6.865c-0.584-0.967-1.424-0.572-1.799,0.069    c-0.018-0.023-0.036-0.046-0.052-0.069c-1.192,2.105-1.366,4.81-1.662,7.201c-0.345,2.775-0.234,5.672-0.185,8.506    c-1.643-0.088-3.512-0.225-5.376-0.236c0.041-2.159,0.011-4.341-0.253-6.44c-0.318-2.542-0.414-5.494-1.371-7.858    c-0.695-1.714-2.577-1.145-2.951,0.02c-0.011-0.007-0.023-0.013-0.034-0.02c-1.003,2.497-0.614,4.93-0.44,7.531    c0.147,2.186-0.017,4.379-0.077,6.57c-1.95,0.112-3.89,0.387-5.552,0.496c-0.932,0.061-2.072,0.042-3.29,0.042    c-0.042-2.371-0.252-4.744-0.092-7.109c0.176-2.601,0.563-5.034-0.44-7.531c-0.011,0.007-0.022,0.013-0.035,0.02    c-0.374-1.165-2.256-1.734-2.951-0.02c-0.958,2.364-1.053,5.315-1.371,7.858c-0.263,2.099-0.294,4.281-0.253,6.44    c-1.864,0.011-3.733,0.148-5.376,0.236c0.048-2.833,0.159-5.731-0.186-8.506c-0.296-2.39-0.471-5.096-1.662-7.201    c-0.018,0.023-0.036,0.046-0.052,0.069c-0.375-0.641-1.215-1.035-1.799-0.069c-1.319,2.182-1.13,4.422-0.847,6.865    c0.336,2.889,0.153,5.92,0.072,8.876c-2.541-0.07-5.202-0.166-7.626,0.378c-0.071-4.16-0.058-8.345,0.2-12.365    c0.17-2.653,0.048-6.786,1.429-9.133c1.604-2.725,5.788-2.676,8.764-2.807c3.381-0.149,6.861,0.533,10.293,0.461    c2.186-0.047,4.261-0.216,6.343-0.465c2.081,0.249,4.157,0.419,6.343,0.465c3.433,0.071,6.913-0.61,10.293-0.461    c2.976,0.131,7.161,0.082,8.764,2.807c1.381,2.347,1.258,6.48,1.429,9.133c0.258,4.019,0.272,8.205,0.2,12.365    C280.604,161.394,277.941,161.49,275.401,161.56z M238.57,132.423c0.538-0.398,1.07-0.789,1.598-1.161    c4.412-3.102,8.625-8.021,14.266-9.064c6.616-1.222,12.377,5.534,17.396,9.064c0.528,0.371,1.061,0.761,1.598,1.161    c-3.046-0.127-5.941,0.304-9.058,0.377c-2.865,0.068-5.607,0.223-8.372,0.516c-2.764-0.294-5.507-0.449-8.372-0.516    C244.511,132.726,241.616,132.295,238.57,132.423z M224.612,197.064c0.055-1.133-0.131-3.595,0.204-4.682    c0.738-2.403,2.567-2.246,4.909-2.351c7.031-0.315,14.806,1.037,21.958,0.086c1.564,0.101,3.129,0.191,4.694,0.226    c3.061,0.068,9.624,1.372,13.453,0.04c4.221-0.171,8.452-0.53,12.442-0.351c2.343,0.105,4.172-0.051,4.91,2.351    c0.334,1.087,0.148,3.549,0.205,4.681c0.079,1.587-0.009,3.046,0.057,4.471c-2.253-0.904-4.538-1.702-6.833-2.376    c-2.742-0.806-5.656-1.563-8.566-1.941c-4.116-1.846-10.478-1.102-14.385-1.038c-3.438,0.056-7.718,0.169-11.385,0.918    c-0.79-0.069-1.582-0.12-2.372-0.134c-4.17-0.066-8.525,1.022-12.515,2.195c-2.296,0.674-4.58,1.473-6.833,2.376    C224.621,200.111,224.532,198.651,224.612,197.064z M154.774,322.849c0.186-4.118,0.121-8.348,0.934-12.413    c1.503-7.517,4.158-14.909,6.147-22.32c4.249-15.83,11.556-30.972,21.627-43.93c4.936-6.352,10.204-11.975,15.722-17.814    c5.199-5.502,11.225-11.157,17.913-14.788c6.936-3.764,14.669-7.217,22.468-8.598c3.11-0.551,6.312-0.946,9.448-1.54    c2.458-0.056,5.007-0.191,7.129-0.176c3.415,0.026,7.757,0.912,11.742,0.996c1.511,0.23,3.02,0.459,4.507,0.721    c7.799,1.381,15.532,4.834,22.468,8.598c6.688,3.631,12.714,9.286,17.913,14.788c5.518,5.84,10.786,11.463,15.722,17.814    c10.071,12.958,17.379,28.099,21.627,43.93c1.989,7.412,4.645,14.803,6.147,22.32c0.813,4.066,0.748,8.295,0.934,12.413    c0.085,1.877,1.186,6.015,1.083,8.538c-2.209,0.308-4.592,0.11-6.708-0.055c-4.221-0.328-8.047-0.255-12.268-0.185    c-3.927,0.067-7.721-0.371-11.614-0.552c-4.058-0.188-8.049,0.489-12.086,0.652c-8.941,0.361-18.908,1.045-27.697-0.413    c-7.842-1.301-15.565-0.305-23.449-0.254c-0.21,0.001-0.407,0.049-0.594,0.117c-3.328-0.034-6.659-0.012-9.998,0.011    c-1.896,0.013-3.784,0.023-5.671,0.037c-0.219-0.097-0.453-0.162-0.708-0.165c-7.82-0.051-15.484-1.025-23.262,0.229    c-0.545,0.02-1.091,0.03-1.635,0.066c-1.322,0.083-4.94,0.038-7.727,0.782c-6.198,0.197-12.584-0.171-18.523-0.411    c-4.037-0.162-8.028-0.84-12.086-0.652c-3.893,0.181-7.688,0.618-11.614,0.552c-4.221-0.071-8.047-0.144-12.268,0.185    c-2.116,0.165-4.499,0.364-6.708,0.055C153.586,328.864,154.689,324.726,154.774,322.849z M139.392,346.922    c1.047-1.082,2.156-2.13,3.395-3.163c1.826-1.521,3.477-2.99,5.64-4.081c0.258-0.13,0.521-0.252,0.784-0.368    c0.679,0.315,1.464,0.554,2.369,0.706c4.074,0.681,7.965,0.588,12.061,0.196c5.493-0.526,11.033,0.475,16.561,0.007    c12.192-1.033,24.578,0.049,36.864-0.309c5.818-0.169,11.137-2.345,16.919-2.669c0.296-0.017,0.588-0.038,0.882-0.056    c5.593,0.289,11.185,0.539,16.782,0.771c6.809,0.282,13.632,0.07,20.445,0.275c5.497,0.166,11.265,1.166,16.861,0.922    c1.959,0.386,3.938,0.698,5.978,0.758c12.288,0.358,24.673-0.724,36.864,0.309c5.528,0.469,11.068-0.532,16.561-0.007    c4.097,0.393,7.988,0.485,12.061-0.196c0.906-0.151,1.691-0.392,2.368-0.706c0.263,0.117,0.525,0.237,0.784,0.368    c2.163,1.091,3.814,2.56,5.64,4.081c1.239,1.033,2.347,2.081,3.395,3.163c-5.61-1.401-12.092-1.506-17.3-1.251    c-8.641,0.423-17.246,0.706-25.911,1.124c-18.748,0.906-38.082-2.22-56.75,0.442c-7.231,0.131-14.466,0.313-21.692,0.003    c-5.797-0.248-11.583-0.483-17.367-0.639c-16.863-1.415-34.158,1.006-50.983,0.193c-8.665-0.419-17.27-0.701-25.911-1.124    C151.484,345.415,145.001,345.52,139.392,346.922z M364.928,374.982c0.114,2.788,1.45,5.696-1.625,6.856    c-2.39,0.902-5.714,0.677-8.243,0.667c-4.861-0.021-9.7-0.474-14.548-0.659c0.556-3.431,0.794-7.015,0.796-10.334    c0.004-5.527,0.559-12.024-0.927-17.469c4.385-0.213,8.763-0.475,13.104-0.917c0.425-0.043,0.845-0.085,1.264-0.126    c4.137,1.187,8.893,0.834,13.328,0.82c-0.869,2.128-1.998,4.271-2.389,6.484C364.85,365.07,364.731,370.152,364.928,374.982z     M337.305,370.777c-0.047,2.096-0.433,4.109-0.649,6.177c-0.131,1.255-0.078,3.09-0.198,4.792    c-2.174-0.019-4.354-0.05-6.538-0.083c0.475-3.543,0.856-7.101,0.841-10.676c-0.021-5.383-0.642-11.086-0.119-16.495    c2.472-0.118,4.945-0.228,7.42-0.341C336.677,359.429,337.426,365.395,337.305,370.777z M326.205,366.865    c0.059,4.993-0.581,9.829-1.18,14.722c-6.975-0.109-13.965-0.169-20.907,0.051c0.156-3.418-0.462-7.216-0.512-10.092    c-0.061-3.516-0.088-7.035-0.19-10.55c-0.059-2.051-0.443-4.43-0.285-6.632c3.426-0.028,6.851-0.071,10.258,0.287    c4.56,0.48,9.187,0.264,13.761,0.016C325.969,358.494,326.162,363.147,326.205,366.865z M299.183,366.786    c-0.083,4.832-0.716,10.099-0.763,15.052c-1.701,0.07-3.399,0.122-5.099,0.176c0.234-2.273,0.514-4.47,0.404-6.884    c-0.179-3.908-0.38-7.816-0.547-11.726c-0.04-0.934-0.53-6.667-0.543-9.366c0.948,0.061,1.896,0.124,2.846,0.186    c1.361,0.091,2.726,0.126,4.089,0.139C298.488,358.265,299.238,363.671,299.183,366.786z M288.718,370.334    c-0.021,3.654,0.14,7.247-0.335,10.871c-0.04,0.307-0.06,0.638-0.085,0.964c-1.122,0.031-2.241,0.063-3.366,0.097    c-2.814,0.083-6.038,0.26-9.086,0.666c-0.87,0.065-1.726,0.124-2.559,0.166c-2.985,0.151-5.977,0.315-8.968,0.475    c-0.715-5.695-0.002-11.781-0.392-17.491c-0.258-3.792,0.355-8.314-0.157-12.298c3.978,0.022,7.958-0.037,11.937-0.187    c1.987-0.076,3.979-0.09,5.969-0.098c2.639,0.075,5.266,0.198,7.889,0.353C288.29,359.174,288.749,364.92,288.718,370.334z     M259.693,383.798c-1.882,0.095-3.765,0.196-5.645,0.275c0.601-4.158-0.229-9.161-0.245-12.915    c-0.022-5.738,0.326-11.888-0.594-17.629c2.356,0.102,4.715,0.165,7.072,0.207c-0.067,4.724-0.553,9.459-0.558,14.178    C259.719,372.867,258.954,378.724,259.693,383.798z M249.48,371.158c-0.013,3.538-0.993,8.935-0.157,13.047    c-2.672,0.044-5.352,0.046-8.037-0.045c-0.236-0.205-0.513-0.373-0.86-0.459c-4.059-0.994-9.171-1.313-13.362-1.438    c-1.125-0.033-2.244-0.066-3.366-0.097c-0.024-0.326-0.044-0.656-0.085-0.964c-0.475-3.623-0.314-7.217-0.335-10.871    c-0.032-5.414,0.427-11.16-0.849-16.485c2.998-0.177,5.996-0.326,9.017-0.392c2.63-0.057,4.967-0.11,7.252-0.627    c3.207,0.122,6.411,0.255,9.61,0.455c0.702,0.043,1.405,0.066,2.108,0.104C249.153,359.153,249.504,365.32,249.48,371.158z     M218.674,382.014c-1.698-0.053-3.397-0.106-5.099-0.176c-0.048-4.954-0.68-10.221-0.764-15.052    c-0.053-3.114,0.697-8.52-0.387-12.422c1.365-0.013,2.728-0.048,4.089-0.139c0.951-0.063,1.898-0.125,2.846-0.186    c-0.013,2.7-0.504,8.432-0.543,9.366c-0.166,3.91-0.367,7.818-0.546,11.726C218.16,377.544,218.441,379.742,218.674,382.014z     M207.878,381.637c-6.941-0.22-13.93-0.159-20.906-0.051c-0.599-4.893-1.239-9.728-1.181-14.722    c0.043-3.717,0.236-8.371-0.945-12.201c4.574,0.249,9.201,0.464,13.761-0.016c3.407-0.358,6.832-0.315,10.258-0.287    c0.158,2.203-0.226,4.581-0.285,6.632c-0.102,3.515-0.129,7.034-0.19,10.55C208.34,374.421,207.722,378.219,207.878,381.637z     M173.934,354.15c2.474,0.112,4.948,0.223,7.42,0.341c0.523,5.408-0.098,11.111-0.119,16.495    c-0.014,3.575,0.366,7.133,0.841,10.676c-2.183,0.033-4.363,0.066-6.538,0.083c-0.12-1.701-0.067-3.536-0.198-4.792    c-0.216-2.068-0.602-4.081-0.649-6.177C174.57,365.395,175.319,359.429,173.934,354.15z M170.689,371.511    c0.003,3.319,0.239,6.903,0.796,10.334c-4.848,0.185-9.688,0.638-14.548,0.659c-2.529,0.011-5.853,0.235-8.243-0.667    c-3.075-1.16-1.739-4.068-1.625-6.856c0.197-4.829,0.078-9.911-0.761-14.677c-0.39-2.214-1.518-4.356-2.389-6.484    c4.435,0.012,9.191,0.366,13.328-0.82c0.42,0.041,0.839,0.082,1.264,0.126c4.341,0.442,8.718,0.705,13.103,0.917    C170.13,359.488,170.684,365.984,170.689,371.511z M118.642,406.381c2.371-1.794,5.022-3.033,7.466-4.694    c4.747-3.224,9.316-7.144,14.221-10.089c2.419-1.452,5.659-1.911,8.948-2.111c5.642,0.909,12.401,0.119,16.496-0.07    c14.518-0.671,29.047-0.367,43.589-0.476c6.028-0.044,12.088,0.006,18.105,0.313c2.431,0.124,5.271,0.707,7.927,0.617    c5.945,0.572,11.935,0.779,17.935,0.601c6.528-0.194,13.098-0.548,19.621-0.856c0.432-0.02,0.871-0.035,1.317-0.046    c2.406,0.585,5.152,0.219,7.705-0.078c1.572-0.043,3.139-0.137,4.666-0.324c5.324-0.22,10.672-0.266,15.996-0.227    c14.542,0.109,29.071-0.195,43.589,0.476c4.095,0.189,10.855,0.981,16.496,0.07c3.289,0.2,6.529,0.66,8.948,2.111    c4.904,2.945,9.474,6.865,14.221,10.089c2.445,1.661,5.095,2.898,7.466,4.694c0.184,0.139,0.443,0.31,0.743,0.504    c-1.478-0.001-2.887-0.047-3.296-0.047c-2.071-0.003-4.135-0.151-6.211-0.144c-6.321,0.024-12.663,0.083-18.972-0.305    c-11.031-0.68-21.877-0.215-32.875-0.022c-11.271,0.197-22.461-0.978-33.71-1.139c-10.177-0.145-20.826-0.933-30.942,0.708    c-6.799-0.003-13.599,0.171-20.281,0.277c-0.814,0.013-1.627,0.003-2.441,0.003c-0.098-0.034-0.197-0.069-0.306-0.088    c-10.46-1.901-21.536-1.05-32.103-0.9c-11.249,0.16-22.439,1.336-33.71,1.139c-10.998-0.193-21.844-0.658-32.875,0.022    c-6.311,0.39-12.652,0.329-18.972,0.305c-2.075-0.008-4.139,0.14-6.211,0.144c-0.409,0.001-1.818,0.047-3.296,0.047    C118.2,406.692,118.46,406.52,118.642,406.381z M389.534,446.096c-0.049,4.549-0.522,8.92-0.814,13.432    c-0.255,3.929,0.257,7.947-0.125,11.865c-0.23,2.356-0.614,5.45-3.079,6.266c-1.818,0.603-4.885,0.037-6.81,0.051    c-4.078,0.03-8.155,0.08-12.233,0.087c-8.738,0.014-17.437-0.805-26.163-0.356c-7.514,0.386-14.98,0.672-22.487,1.171    c-16.055,1.066-32.174-0.012-48.219,0.54c-0.51,0.018-0.91,0.176-1.212,0.416c-4.39-0.174-8.783-0.304-13.181-0.275    c-7.199,0.048-14.465-0.81-21.639-0.293c-13.126-0.068-26.284,0.483-39.401-0.388c-7.507-0.499-14.973-0.785-22.487-1.171    c-8.726-0.449-17.425,0.37-26.163,0.356c-4.078-0.007-8.155-0.057-12.233-0.087c-1.926-0.014-4.992,0.551-6.811-0.051    c-2.463-0.816-2.848-3.91-3.079-6.266c-0.382-3.919,0.129-7.936-0.125-11.865c-0.293-4.512-0.766-8.883-0.814-13.432    c-0.077-7.176,1.068-14.682,0.088-21.821c-0.431-3.132-0.839-6.197-1.101-9.356c-0.048-0.584-0.095-1.138-0.168-1.67    c5.338,0.014,10.687-0.081,16.032-0.063c12.37,0.042,24.673-0.982,37.002,0.322c11.966,1.266,23.883-0.688,35.818-0.909    c8.289-0.154,16.881-0.034,25.287-0.722c3.595,0.244,7.189,0.477,10.777,0.588c13.711,0.419,28.323,1.467,42.129-0.04    c4.55,0.089,9.089,0.091,13.539,0.175c11.934,0.221,23.852,2.175,35.818,0.909c12.33-1.303,24.632-0.279,37.002-0.322    c5.344-0.018,10.694,0.078,16.032,0.063c-0.073,0.532-0.12,1.086-0.168,1.669c-0.26,3.159-0.67,6.224-1.101,9.356    C388.466,431.414,389.611,438.92,389.534,446.096z M415.273,503.695c-2.195,0.039-4.531,1.107-6.783,1.239    c-1.874,0.11-3.783,0.023-5.653-0.086c-3.844-0.223-7.603-0.656-11.462-0.712c-7.994-0.118-16.044-0.24-24.021-0.766    c-7.827-0.514-15.634-1.024-23.453-1.429c-8.276-0.429-16.606,0.541-24.886,0.325c-7.685-0.2-15.292-0.111-22.993,0.031    c-0.708,0.013-1.42,0.011-2.131,0.011c-3.313-0.181-6.625-0.301-9.949-0.276c-0.709,0.006-1.424-0.001-2.135,0.001    c-2.31-0.055-4.612-0.079-6.895-0.022c-6.398-0.061-12.815-0.209-19.179-0.378c-9.153-0.245-18.307-0.332-27.473-0.246    c-6.53,0.062-13.637-0.329-20.23,0.798c-5.015-0.051-10.017-0.049-15.051,0.081c-8.279,0.216-16.608-0.753-24.886-0.325    c-7.819,0.405-15.628,0.915-23.453,1.429c-7.977,0.524-16.026,0.648-24.021,0.766c-3.859,0.057-7.617,0.49-11.462,0.712    c-1.87,0.109-3.779,0.196-5.653,0.086c-2.25-0.132-4.588-1.201-6.783-1.239c-0.306-0.179-0.562-0.311-0.795-0.421l0.766-0.888    c1.352-1.396,2.869-2.264,4.44-3.307c2.629-1.747,5.403-3.256,7.981-5.065c4.401-3.087,8.983-5.82,13.319-8.961    c4.616,1.478,10.688,0.456,14.932,0.428c9.476-0.063,19.011-0.694,28.453-0.602c8.153,0.079,16.269,0.721,24.389,1.065    c9.179,0.388,18.393,0.746,27.547-0.194c0.132-0.013,0.265-0.02,0.397-0.032c3.21,0.03,6.491-0.256,9.546-0.515    c0.678-0.026,1.354-0.05,2.032-0.082c0.779-0.037,1.547-0.121,2.31-0.224c7.459-0.37,14.87,0.598,22.342,0.667    c7.068,0.066,14.14,0.255,21.19,0.617c7.254,0.373,15.967,1.213,23.496-0.06c7.561,0.431,15.15,0.144,22.717-0.176    c8.121-0.344,16.238-0.986,24.389-1.065c9.442-0.092,18.977,0.539,28.453,0.602c4.244,0.028,10.317,1.048,14.932-0.428    c4.336,3.14,8.919,5.872,13.319,8.961c2.579,1.81,5.352,3.318,7.981,5.065c1.57,1.044,3.087,1.911,4.44,3.307l0.766,0.888    C415.836,503.385,415.58,503.517,415.273,503.695z"/>
	</g>
</g>
<g>
	<g>
		<path d="M374.638,434.225c-0.624-4.768-0.392-11.012-5.977-12.107c-7.758-1.522-16.705-0.485-24.604-0.811    c-8.272-0.341-16.561-0.698-24.826-0.994c-4.747-0.17-9.524-0.344-14.296-0.412c-0.293-0.115-0.623-0.117-0.919-0.011    c-2.785-0.03-5.567-0.031-8.339,0.056c-3.557,0.111-7.229-0.049-10.896-0.072c-4.228-0.561-8.744-0.139-12.83-0.042    c-6.866,0.162-13.743-0.545-20.584-0.357c-6.319,0.174-12.703,0.521-19.041,0.501c-1.658-0.089-3.329-0.111-5.001-0.101    c-1.868-0.088-3.726-0.18-5.616-0.063c-0.457,0.028-0.918,0.092-1.38,0.167c-1.347,0.013-2.686,0.011-4.008-0.03    c-2.771-0.087-5.554-0.086-8.339-0.056c-0.296-0.106-0.627-0.103-0.919,0.011c-4.771,0.068-9.55,0.24-14.296,0.412    c-8.265,0.297-16.554,0.654-24.826,0.994c-7.899,0.326-16.847-0.71-24.604,0.811c-5.585,1.095-5.352,7.338-5.98,12.106    c-0.731,5.556-1.78,13.02,0.528,18.364c2.268,5.255,11.347,3.278,15.811,3.311c8.811,0.066,17.524,0.723,26.334,1.114    c10.117,0.449,20.206,0.092,30.276-0.321c7.532-0.308,15.137,0.272,22.595-0.673c0.339,0.017,0.682,0.031,1.016,0.051    c5.957,0.341,12.025,0.626,17.994,0.423c6.646-0.225,13.289-0.076,19.937-0.186c2.606-0.043,5.368,0.083,8.036-0.191    c7.205,0.81,14.539,0.279,21.804,0.577c10.072,0.413,20.16,0.768,30.276,0.321c8.81-0.391,17.523-1.048,26.334-1.114    c4.465-0.033,13.543,1.943,15.811-3.311C376.418,447.245,375.369,439.782,374.638,434.225z M152.81,441.382    c-0.032,2.937-0.469,6.519,0.099,9.64c-0.071,0-0.143-0.001-0.214,0c-2.374,0.022-5.682,0.677-7.975,0.124    c-1.593,0.654-2.44,0.187-2.543-1.402c-0.385-0.639-0.602-1.322-0.651-2.048c-0.871-4.144-0.203-8.7,0.292-12.885    c0.19-1.611,0.451-3.21,0.695-4.815c0.613-4.035,2.852-3.892,6.567-4.129c1.356-0.087,2.715-0.105,4.075-0.106    C152.529,430.896,152.866,436.243,152.81,441.382z M162.031,439.434c-0.209,3.911-0.501,7.814-0.081,11.707    c-1.525-0.042-3.05-0.085-4.577-0.105c0.282-3.413-0.481-7.317-0.528-10.501c-0.07-4.871,0.243-9.901-0.336-14.761    c1.836,0.019,3.673,0.029,5.504-0.069c0.256-0.013,0.513-0.023,0.77-0.036C161.974,430.193,162.275,434.851,162.031,439.434z     M179.033,441.503c0.072,3.411-0.09,6.843,0.15,10.252c-4.253-0.132-8.49-0.312-12.724-0.469c-0.742-4.3-0.49-8.676-0.582-12.996    c-0.088-4.1,0.481-8.629-0.234-12.751c4.601-0.185,9.228-0.295,13.841-0.485C178.915,430.464,178.919,436.121,179.033,441.503z     M186.75,437.04c-0.069,4.955-0.001,9.891-0.031,14.835c-1.023-0.007-2.045-0.003-3.067-0.02    c0.141-3.434-0.377-6.969-0.625-10.352c-0.405-5.504-0.124-11.076-0.668-16.575c1.766-0.091,3.527-0.206,5.285-0.344    C187.516,428.718,186.808,432.914,186.75,437.04z M205.159,451.48c-4.597,0.21-9.2,0.364-13.811,0.4    c-0.066-5.614-0.49-11.25-0.683-16.863c-0.115-3.322,0.603-7.209,0.032-10.658c5.182-0.407,10.449-0.63,15.685-0.732    C206.308,432.859,204.359,442.319,205.159,451.48z M213.779,435.727c-0.307,5.181-0.177,10.319-0.101,15.482    c-1.255-0.007-2.51,0.006-3.762,0.062c0.351-4.82-0.073-9.819-0.048-14.601c0.023-4.36,0.089-8.783-0.597-13.087    c1.347-0.013,2.693-0.029,4.031-0.027c0.604,0.001,1.218,0.007,1.836,0.016C214.77,427.632,214.021,431.65,213.779,435.727z     M239.963,439.227c-0.062,3.218-0.757,7.584-0.216,11.158c-1.73-0.028-3.458-0.057-5.184-0.071    c-4.499-0.038-8.978-0.629-13.226,0.985c-0.907,0.004-1.815-0.001-2.722-0.015c-0.046-5.711-0.623-11.413-0.622-17.137    c0-3.233,0.593-7.241-0.338-10.529c0.125,0.003,0.253,0.006,0.377,0.009c3.365,0.403,6.862,0.445,10.117,0.725    c4.235,0.362,8.654,0.451,13.047,0.387C240.676,427.783,239.986,438.025,239.963,439.227z M247.727,429.925    c-0.349,3.751-0.357,7.563-0.486,11.327c-0.09,2.626-0.554,6.113-0.206,9.202c-1.161,0.002-2.322-0.004-3.484-0.018    c-1.113-8.427,0.868-17.384-0.729-25.727c1.934-0.045,3.848-0.121,5.743-0.21C248.658,426.194,247.849,428.624,247.727,429.925z     M267.607,436.545c-0.188,4.573-0.127,9.127-0.018,13.687c-5.306-0.027-10.612,0.018-15.915,0.157    c-0.049-4.274-0.817-8.828-1.006-12.92c-0.157-3.378-0.191-6.792-0.414-10.16c-0.067-1.013-0.049-1.966-0.255-2.879    c0.213-0.011,0.432-0.019,0.644-0.03c6.033-0.329,12.122,0.183,18.191,0.16C268.535,427.594,267.646,435.6,267.607,436.545z     M274.651,450.249c-1.038-0.002-2.075,0.001-3.103-0.007c0.079-2.518-0.469-5.538-0.476-6.201    c-0.049-4.168-0.112-8.333-0.142-12.501c-0.016-2.163,0.168-4.729-0.246-7.009c0.146-0.003,0.291-0.002,0.436-0.007    c1.627-0.048,3.421-0.001,5.267,0.042C275.41,433.034,273.62,441.767,274.651,450.249z M294.004,434.146    c0,5.725-0.577,11.427-0.622,17.137c-2.02,0.031-4.038,0.038-6.052-0.076c-0.861-0.049-1.724-0.115-2.586-0.181    c-1.927-0.417-3.908-0.605-5.905-0.695c0.061-3.714-0.555-7.527-0.604-11.226c-0.063-4.78,0.549-9.712,0.358-14.499    c3.345,0.043,6.744-0.052,9.62-0.87c2.068-0.023,4.124-0.075,6.129-0.119C293.412,426.905,294.004,430.913,294.004,434.146z     M302.129,436.671c0.026,4.781-0.398,9.78-0.048,14.601c-1.252-0.056-2.507-0.068-3.762-0.062    c0.076-5.162,0.206-10.301-0.101-15.482c-0.242-4.078-0.991-8.095-1.36-12.155c0.619-0.009,1.232-0.014,1.836-0.016    c1.337-0.001,2.685,0.013,4.031,0.027C302.04,427.888,302.105,432.311,302.129,436.671z M321.332,435.017    c-0.194,5.613-0.618,11.249-0.683,16.863c-4.611-0.036-9.216-0.189-13.811-0.4c0.8-9.16-1.148-18.622-1.222-27.854    c5.234,0.101,10.502,0.325,15.685,0.732C320.729,427.808,321.447,431.693,321.332,435.017z M328.972,441.503    c-0.249,3.384-0.767,6.917-0.626,10.352c-1.023,0.018-2.045,0.013-3.067,0.02c-0.031-4.944,0.038-9.88-0.031-14.835    c-0.058-4.126-0.766-8.322-0.892-12.455c1.756,0.139,3.518,0.253,5.285,0.344C329.094,430.429,329.376,436,328.972,441.503z     M346.12,438.291c-0.092,4.321,0.16,8.696-0.582,12.996c-4.234,0.157-8.471,0.337-12.724,0.469    c0.24-3.409,0.078-6.841,0.15-10.252c0.115-5.383,0.117-11.039-0.451-16.448c4.612,0.19,9.24,0.3,13.841,0.485    C345.638,429.662,346.208,434.192,346.12,438.291z M355.152,440.536c-0.047,3.184-0.809,7.089-0.528,10.501    c-1.528,0.019-3.052,0.062-4.577,0.105c0.42-3.892,0.128-7.796-0.081-11.707c-0.245-4.585,0.057-9.241-0.752-13.764    c0.256,0.012,0.514,0.022,0.77,0.036c1.831,0.097,3.666,0.087,5.504,0.069C354.91,430.636,355.222,435.666,355.152,440.536z     M370.471,447.695c-0.049,0.726-0.266,1.409-0.651,2.048c-0.102,1.589-0.951,2.057-2.543,1.402    c-2.292,0.553-5.601-0.102-7.975-0.124c-0.071-0.001-0.142,0-0.214,0c0.568-3.12,0.131-6.703,0.099-9.64    c-0.057-5.139,0.28-10.486-0.344-15.621c1.36,0.001,2.719,0.019,4.075,0.106c3.714,0.237,5.953,0.095,6.567,4.129    c0.244,1.604,0.504,3.204,0.695,4.815C370.672,438.995,371.341,443.551,370.471,447.695z"/>
	</g>
</g>
<g>
</g>
<g>
</g>
<g>
</g>
<g>
</g>
<g>
</g>
<g>
</g>
<g>
</g>
<g>
</g>
<g>
</g>
<g>
</g>
<g>
</g>
<g>
</g>
<g>
</g>
<g>
</g>
<g>
</g>
</svg>
