<?xml version="1.0" encoding="iso-8859-1"?>
<!-- Generator: Adobe Illustrator 19.0.0, SVG Export Plug-In . SVG Version: 6.00 Build 0)  -->
<svg xmlns="http://www.w3.org/2000/svg" xmlns:xlink="http://www.w3.org/1999/xlink" version="1.1" id="Layer_1" x="0px" y="0px" viewBox="0 0 511.998 511.998" style="enable-background:new 0 0 511.998 511.998;" xml:space="preserve">
<g>
	<g>
		<path d="M211.66,153.082c-0.142-1.491,0.233-3.784-1.383-4.565c-1.56-0.754-4.357,0.502-5.845,1.051    c-1.752,0.646-3.411,0.978-3.622,3.108c-0.159,1.606-0.419,3.703-0.152,5.535c0.029,0.723,0.148,1.423,0.407,2.041    c0.708,1.687,2.728,1.638,4.262,1.401c1.847-0.287,4.234-0.802,5.671-2.092C212.774,157.969,211.858,155.148,211.66,153.082z     M208.829,157.105c-0.116,0.255-1.431,0.943-2.108,1.228c-0.865,0.363-1.93,0.183-2.733,0.486    c-0.116-0.025-0.191-0.033-0.272-0.044c-0.027-0.183-0.055-0.365-0.084-0.547c0.069-0.665,0.069-1.343,0.069-1.992    c0-0.762-0.036-1.516-0.091-2.276c-0.119-1.638,2.566-3.143,4.075-2.552c0.237,0.094,0.444,0.256,0.621,0.471    C209.296,153.083,209.374,155.913,208.829,157.105z"/>
	</g>
</g>
<g>
	<g>
		<path d="M228.895,148.305c-0.032-0.839-0.199-1.827-0.731-2.509c-1.223-1.568-4.129-1.433-5.847-1.153    c-1.919,0.312-5.491,0.45-6.799,2.133c-0.569,0.732-0.48,1.615-0.43,2.475c0.05,0.843,0.056,1.689,0.157,2.517    c-0.478,3.34-0.142,7.124,3.528,7.001c1.125-0.038,2.328-0.15,3.439-0.303c1.26-0.173,2.909-0.02,4.112-0.464    c2.063-0.762,2.435-3.131,2.458-5.065C228.8,151.428,228.954,149.806,228.895,148.305z M226.289,152.237    c-0.088,1.282-0.171,2.49-1.583,2.591c-1.315,0.095-2.633,0.242-3.951,0.335c-0.642,0.045-1.469,0.292-2.193,0.285    c-0.302-0.972-0.307-2.398-0.396-3.227c-0.152-1.408-0.15-2.6-0.59-3.993c0.334-0.197,0.988-0.309,1.223-0.378    c1.697-0.497,7.259-1.851,7.714,0.455C226.736,149.425,226.369,151.074,226.289,152.237z"/>
	</g>
</g>
<g>
	<g>
		<path d="M247.481,150.498c-0.204-2.143,0.198-5.31-1.215-7.098c-1.453-1.84-4.773-1.366-6.852-1.289    c-1.334,0.05-2.626,0.304-3.962,0.33c-0.869,0.018-1.768,0.01-2.484,0.566c-0.895,0.697-0.771,1.454-0.804,2.497    c-0.032,0.994-0.087,1.92-0.099,2.852c-0.321,2.07-0.335,4.339-0.157,6.05c0.287,2.737,2.613,2.721,4.889,2.738    c2.776,0.021,6.797,0.321,9.267-1.277C247.66,154.835,247.64,152.173,247.481,150.498z M244.531,153.308    c-0.247,0.278-1.426,0.213-1.905,0.261c-2.1,0.211-4.131,0.214-6.239,0.243c-0.431,0.015-0.862,0.027-1.293,0.04    c-0.012-0.16-0.055-0.392-0.135-0.709c0.109-0.895-0.036-1.939-0.106-2.847c-0.078-1.004-0.133-2.042-0.363-3.019    c-0.001-0.687,0.015-1.464,0.185-1.774c0.359-0.654,2.921-0.397,3.869-0.437c1.522-0.063,4.917-0.495,5.678,1.066    c0.546,1.121,0.273,3.179,0.398,4.409C244.674,151.087,244.929,152.859,244.531,153.308z"/>
	</g>
</g>
<g>
	<g>
		<path d="M313.181,243.071c-6.541-5.935-16.849-8.667-24.708-12.521c-6.245-3.063-12.261-6.484-18.429-9.658    c-2.696-3.773-9.794-5.715-13.715-6.036c-5.173-0.423-9.929,2.606-14.043,5.861c-6.286,3.222-12.41,6.715-18.768,9.834    c-7.86,3.855-18.167,6.587-24.709,12.521c-0.762,0.692-0.202,2.264,0.892,2.15c12.481-1.298,25.28,0.921,37.783-0.106    c5.275,0.95,11.484-0.004,16.313,0.208c5.523,0.242,11.007-0.362,16.54-0.207c1.085,0.031,2.177-0.007,3.274-0.072    c12.787,1.216,25.9-1.153,38.68,0.176C313.384,245.335,313.944,243.764,313.181,243.071z M300.838,242.574    c-3.242-0.223-6.384-0.564-9.641-0.564c-2.707,0-5.492-0.086-8.293-0.14c-2.918-0.488-6.593-0.128-8.782-0.237    c-6.068-0.302-11.928-0.196-17.982-0.188c-4.346,0.006-8.545-0.05-12.891,0.153c-0.483,0.023-2.766,0.199-5.06,0.37    c-5.771-0.336-11.752,0.042-17.398,0.042c-3.258,0-6.399,0.342-9.641,0.564c-2.022,0.139-4.425,0.533-6.718,0.62    c7.551-3.408,15.073-6.862,22.578-10.373c5.809-2.716,12.792-5.911,18.463-9.937c3.343-1.599,6.577-3.902,10.298-3.965    c3.715-0.063,6.737,1.929,9.929,3.365c5.808,4.31,13.186,7.688,19.279,10.538c7.505,3.511,15.028,6.964,22.578,10.373    C305.262,243.107,302.859,242.713,300.838,242.574z"/>
	</g>
</g>
<g>
	<g>
		<path d="M93.965,93.022c-0.09-1.926-0.164-4.116-0.888-5.931c-0.448-1.123-1.476-2.65-2.769-2.883    c-1.55-0.279-2.943,1.213-3.772,2.314c-1.844,2.448-2.655,5.719-2.478,8.753c0.064,1.114,0.113,2.955,1.142,3.616    c1.274,0.818,3.507,0.431,4.901,0.302c1.311-0.121,2.807,0.208,3.666-1.068C94.66,96.802,94.034,94.493,93.965,93.022z     M91.027,95.78c-0.817,0.055-1.674,0.074-2.422,0.077c-0.755,0.002-1.372-0.12-1.967-0.135c-0.047-1.096-0.094-2.189,0.121-3.285    c0.304-1.55,0.74-3.671,2.11-4.66c2.33-1.682,2.137,2.828,2.123,4.067C90.987,92.217,91.102,94.783,91.027,95.78z"/>
	</g>
</g>
<g>
	<g>
		<path d="M109.615,181.91c-4.702-3.385-12.916-2.71-18.538,0.184c-7.97,2.594-13.392,13.17-13.711,20.772    c-0.298,7.06,3.165,17.649,10.286,20.365c2.657,1.451,6.08,1.932,8.842,2.193c6.684,0.63,16.962-0.163,21.764-5.441    c4.029-4.429,5.966-11.207,5.716-17.118C123.645,195.06,117.936,184.127,109.615,181.91z M107.099,220.106    c-0.228,0.015-0.435,0.07-0.619,0.152c-0.819,0.367-2.614,0.113-3.546,0.196c-1.298,0.115-2.599,0.291-3.904,0.307    c-1.672,0.023-3.513-0.137-5.177-0.306c-3.791-0.385-7.666-2.836-9.787-5.979c-2.624-3.886-3.221-8.89-2.759-13.462    c0.408-4.036,2.91-9.684,5.84-12.594c0.97-0.963,2.076-1.716,3.234-2.392c3.348-1.251,6.768-2.133,10.384-2.346    c2.279-0.134,4.464,0.184,6.661,0.453c2.371,1.249,4.831,2.363,6.763,4.283c2.93,2.91,5.431,8.557,5.84,12.594    C120.969,210.3,117.21,219.417,107.099,220.106z"/>
	</g>
</g>
<g>
	<g>
		<path d="M116.977,95.514c0.096-3.251-0.178-6.337-2.176-8.989c-0.829-1.101-2.221-2.593-3.772-2.314    c-1.293,0.233-2.321,1.759-2.769,2.883c-0.724,1.815-0.797,4.004-0.888,5.931c-0.069,1.471-0.695,3.78,0.197,5.103    c0.862,1.275,2.357,0.945,3.667,1.067c1.647,0.153,3.519,0.404,5.024-0.473C117.719,97.872,116.937,96.904,116.977,95.514z     M114.701,95.722c-0.596,0.015-1.212,0.138-1.967,0.135c-0.749-0.004-1.605-0.023-2.423-0.077    c-0.075-0.997,0.04-3.562,0.036-3.936c-0.012-1.087-0.469-4.35,1.305-4.527c1.644-0.165,2.687,3.888,2.928,5.12    C114.794,93.534,114.747,94.627,114.701,95.722z"/>
	</g>
</g>
<g>
	<g>
		<path d="M107.813,190.707c-3.027,2.81-5.242,6.486-8.198,9.347c-0.271-0.019-0.551-0.006-0.835,0.037    c-0.632,0.094-1.108,0.402-1.466,0.822c-1.059-0.926-2.472-1.687-3.355-2.244c-1.749-1.101-4.438-3.063-6.549-3.223    c-1.452-0.11-2.227,1.921-1.191,2.873c1.632,1.499,4.025,2.366,5.947,3.419c1.403,0.768,2.896,2.156,4.552,2.313    c0.426,0.832,1.394,1.418,2.285,1.434c0.056,0.001,0.11,0.002,0.166,0.004c0.411,0.007,0.772-0.102,1.087-0.28    c0.082-0.036,0.173-0.05,0.248-0.097c1.052-0.679,1.634-1.832,1.41-2.992c0.459-0.741,1.181-1.502,1.598-2.017    c0.74-0.915,1.521-1.755,2.231-2.703c1.32-1.763,3.006-3.219,4.332-4.945C111.109,191.112,108.96,189.642,107.813,190.707z"/>
	</g>
</g>
<g>
	<g>
		<path d="M106.537,275.438c-4.608-3.507-9.75-0.997-13.963,1.808c-4.66,3.103-9.521,5.757-13.776,9.471    c-0.705,0.615-0.557,2.016,0.312,2.422c1.427,0.668,2.961,1.101,4.555,1.375c-1.423,4.074-1.296,8.733-1.599,12.95    c-0.456,6.342-0.353,12.606-0.35,18.957c0.001,3.183-1.521,8.804,1.314,11.149c2.837,2.348,9.441,1.628,12.79,1.941    c4.94,0.463,10.563,1.276,15.329-0.646c3.664-1.477,4.3-4.168,4.74-7.876c0.837-7.04,0.335-13.951-0.046-20.994    c-0.27-4.991-1.638-10.533-1.114-15.539c0.842-0.128,1.667-0.283,2.459-0.487c0.683-0.176,1.334-0.931,1.27-1.669    C118.024,283.21,110.093,278.145,106.537,275.438z M109.613,331.205c-4.057,2.171-10.211,0.598-14.522,0.27    c-1.933-0.148-3.836-0.15-5.763-0.425c-2.839-0.405-3.031,0.019-3.495-2.44c-0.797-4.215,0.195-9.654,0.123-13.996    c-0.081-4.916,0.375-9.803,0.389-14.715c0.008-3.046,0.269-6.189-0.52-9.112c4.171,0.375,8.593-0.057,12.486-0.052    c3.837,0.005,8.252,0.296,12.456,0.095c-0.836,8.53,1.73,17.88,1.871,26.42C112.698,320.937,113.231,329.268,109.613,331.205z     M100.252,287.237c-4.883,0.006-11.978,1.118-17.211-0.024c4.758-3.61,10.342-6.069,14.972-9.742    c0.081-0.024,0.159-0.055,0.24-0.077c3.756-1.096,5.256,0.427,8.039,2.697c2.079,1.696,4.327,3.31,6.154,5.272    c0.326,0.35,0.808,1.041,1.266,1.683C109.349,287.564,104.404,287.233,100.252,287.237z"/>
	</g>
</g>
<g>
	<g>
		<path d="M119.33,432.27c0.386-7.496,0.704-15.273-2.867-22.154c-5.78-11.136-22.112-7.826-28.437,0.69    c-4.173,5.618-5.455,12.24-5.807,19.033c-0.678,4.495-1.156,8.966-0.906,13.605c0.214,3.962-0.624,10.91,4.101,12.284    c3.146,0.915,7.355,0.503,10.593,0.505c4.204,0,8.389-0.015,12.571-0.496c3.62-0.416,9.155,0.217,10.351-3.934    C120.614,445.953,119.02,438.295,119.33,432.27z M114.809,443.669c-0.004,0.733,0.005,7.132,0.497,6.564    c-0.686,0.792-6.133,0.747-7.355,0.88c-3.582,0.391-7.166,0.522-10.767,0.579c-2.149,0.034-8.304,1.077-9.957-0.469    c-1.685-1.575-1.172-6.38-1.421-8.42c-0.35-2.866-0.502-5.731-0.623-8.594c0.021-6.818,0.949-13.535,4.134-19.045    c4.781-8.269,19.804-14.075,24.582-2.257c2.681,6.628,1.503,14.271,0.981,21.195C114.642,437.266,114.826,440.495,114.809,443.669    z"/>
	</g>
</g>
<g>
	<g>
		<path d="M172.184,440.58c0.063-2.636,0.075-5.393-0.1-8.024c-0.367-5.543,0.982-23.013-9.697-18.667    c-4.473,1.82-5.155,6.125-5.699,10.441c-0.576,4.56-0.76,9.921-0.04,14.759c-0.045,1.076,0.005,2.123,0.275,3.082    c0.785,2.78,2.704,2.936,5.383,2.821c2.024-0.087,7.61,0.297,9.246-1.395C172.37,442.75,172.159,441.642,172.184,440.58z     M168.67,438.739c-0.402,2.142-1.194,1.689-3.018,2.094c-1.003,0.223-1.845,0.662-2.929,0.522    c-0.401-0.051-0.728-0.15-0.989-0.293c-0.602-0.33-0.863-0.902-0.909-1.708c-0.064-1.133-0.302-2.275-0.365-3.416    c-0.18-3.346-0.245-6.731-0.613-10.062c0.036-1.036,0.113-2.062,0.268-3.067c0.476-3.065,4.438-9.986,7.56-4.568    c0.501,0.869,0.552,1.858,0.702,2.823c0.662,4.277,0.56,9.302,0.411,13.623C168.742,436.036,168.919,437.406,168.67,438.739z"/>
	</g>
</g>
<g>
	<g>
		<path d="M478.585,354.115c-1.275-0.326-2.579-0.572-3.893-0.784c0.646-4.371,0.209-9.043-0.524-13.551    c0.413-4.325-0.044-8.735-0.207-13.121c-0.274-7.384,0.452-14.82,0.047-22.202c-0.721-13.133-0.353-26.414-1.486-39.533    c1.51-0.662,2.663-1.77,2.947-3.689c0.302-2.037-0.359-2.573,0.744-4.664c0.801-1.522,1.402-1.843,2.399-3.035    c1.332-1.593,2.969-2.928,3.287-5.025c0.146-0.964-0.096-1.82-0.965-2.371c-2.783-1.764-6.711-1.091-9.855-1.07    c-3.61,0.025-7.166-0.144-10.762-0.247c-0.026-0.001-0.051,0-0.076-0.001c0.699-4.137-0.186-8.486-0.173-12.626    c0.013-4.565,0.271-9.08,0.19-13.669c-0.157-8.873-0.27-18.26-1.713-27.073c3.298-0.789,5.537-2.619,4.774-6.577    c-0.638-3.305-5.373-3.724-8.085-4.391c-2.649-0.652-5.582-1.129-8.303-1.409c-1.353-0.139-2.754,0.021-4.109-0.013    c0.387-2.719,0.169-5.523,0.457-8.285c0.357-3.416,0.633-6.969,0.564-10.409c-0.094-4.711-1.184-5.998-4.09-6.987    c-0.059-0.09-0.139-0.171-0.261-0.224c1.261,0.547,1.059-12.564,1.097-13.805c0.158-5.284,0.902-10.538,0.902-15.831    c0.001-4.184,1.413-10.601,0.192-14.882c0.394-2.141,0.414-4.298,0.468-6.584c0.008-0.368,0.031-0.788,0.055-1.226    c0.039-0.449,0.057-0.728,0.055-0.679c0.115-3.362,0.674-6.925-0.733-10.085c-2.697-6.062-9.811-8.385-14.207-12.918    c-5.45-5.62-1.261-12.495-3.394-19.125c-0.173-0.54-0.386-1.025-0.615-1.488c1.211-2.523,0.553-6.038,0.114-8.68    c-0.573-3.451-1.058-6.059-3.099-8.953c-0.419-0.594-0.839-1.055-1.279-1.444c0.02-0.099,0.038-0.198,0.037-0.292    c-0.056-3.204-0.4-6.406-1.575-9.411c-0.86-2.196-2.19-5.393-4.459-6.64c0.455-2.028,0.412-4.352,0.179-6.327    c-0.31-2.642-0.551-5.074-0.543-7.76c0.01-3.04-4.704-3.036-4.718,0c-0.018,3.676,0.185,7.357,0.159,11.024    c-0.009,1.344-0.526,2.926-0.12,4.108c-1.173,1.374-1.934,3.376-2.588,4.885c-1.391,3.209-1.808,6.65-1.869,10.12    c-0.001,0.093,0.017,0.192,0.037,0.292c-0.439,0.389-0.859,0.85-1.279,1.444c-2.041,2.894-2.525,5.501-3.099,8.953    c-0.439,2.642-1.097,6.157,0.114,8.68c-0.229,0.463-0.442,0.947-0.615,1.488c-2.133,6.628,2.056,13.504-3.394,19.125    c-4.396,4.533-11.51,6.856-14.206,12.918c-1.407,3.161-0.848,6.723-0.733,10.085c-0.002-0.077,0.04,0.638,0.145,1.603    c0.002,0.706,0.005,1.412,0.027,2.126c0.046,1.456-0.123,3.322,0.4,4.777c-1.212,4.28,0.197,10.686,0.197,14.865    c0,5.294,0.744,10.547,0.902,15.831c0.037,1.241-0.164,14.352,1.097,13.805c-0.122,0.053-0.201,0.134-0.261,0.224    c-2.906,0.989-3.995,2.276-4.089,6.987c-0.069,3.44,0.207,6.994,0.564,10.409c0.289,2.763,0.07,5.567,0.457,8.285    c-1.355,0.034-2.755-0.126-4.109,0.013c-2.721,0.279-5.655,0.757-8.303,1.409c-2.712,0.666-7.447,1.086-8.085,4.391    c-0.763,3.958,1.476,5.788,4.774,6.577c-1.444,8.813-1.556,18.2-1.713,27.073c-0.081,4.591,0.176,9.105,0.19,13.669    c0.012,4.14-0.873,8.488-0.175,12.626c-0.025,0.001-0.05,0.001-0.076,0.001c-3.596,0.104-7.152,0.272-10.762,0.247    c-3.144-0.021-7.072-0.695-9.855,1.07c-0.519,0.329-0.793,0.775-0.915,1.281c-0.147-0.182-0.3-0.366-0.473-0.557    c-0.692-0.768-1.503-1.42-2.372-2.006c0.144-0.198,0.259-0.419,0.298-0.69c0.959-6.71,0.03-13.466,0.56-20.21    c0.54-6.861,0.24-14.048,0.29-20.952c0.046-6.363-0.356-12.656-0.541-19.02c-0.132-4.518-1.047-8.107-4.851-10.808    c-3.118-2.212-6.999-2.764-10.099-4.877c-2.222-1.514-2.522-3.8-2.18-6.575c0.589-4.787,2.695-6.482,1.057-11.375    c-1.279-3.817-3.629-6.228-6.778-7.92c1.706-2.641,0.477-6.676-0.391-9.481c-3.991-12.911-9.625-25.205-19.506-34.66    c-4.371-4.183-8.441-7.54-14.054-10.065c-2.144-0.964-4.358-1.613-6.597-2.156c0.242-1.332-0.037-2.891-0.125-4.131    c-0.201-2.799-0.099-5.668-1.812-8.029c-0.902-1.244-2.168-1.996-3.532-2.585c0.289-2.113-0.091-4.168-0.062-6.448    c0.049-3.67,0.239-7.231,0.781-10.846c0.283-1.884,0.658-3.814-0.299-5.609c-0.851-1.596-2.379-1.752-3.432-2.962    c-1.562-1.795-0.633-3.9-0.464-6.507c0.171-2.663,0.049-5.412-0.848-7.955c-1.168-3.31-4.419-6.265-8.033-6.211    c-0.196-0.068-0.404-0.1-0.607-0.15c0.01-0.051,0.034-0.089,0.039-0.142c0.354-3.465,0.355-6.887,0.25-10.3    c0.033-0.444,0.081-0.873,0.119-1.283c1.091-0.001,2.175,0.023,3.229,0.093c2.937,0.198,2.938-4.769,0-4.564    c-1.118,0.078-2.246,0.145-3.376,0.211c-0.001-2.25-0.112-4.477-0.425-6.654c-0.001-0.023-0.001-0.045-0.002-0.068    c-0.002,0-0.005,0.001-0.006,0.001c-0.025-0.173-0.036-0.35-0.064-0.522c-0.36-2.225-3.849-1.635-3.855,0.521    c-0.006,2.327,0.074,4.673,0.186,7.023c-1.569,0.138-3.134,0.305-4.67,0.579c-2.65,0.473-1.51,4.448,1.108,4.02    c1.213-0.198,2.531-0.237,3.798-0.398c0.015,0.211,0.034,0.423,0.051,0.634c-0.042,0.817-0.084,1.632-0.133,2.446    c-0.025,0.312-0.056,0.623-0.077,0.935c-0.151,2.208-0.242,4.387-0.229,6.601c0.001,0.381,0.099,0.696,0.252,0.962    c-0.109,0.033-0.228,0.05-0.332,0.088c-0.425,0.154-1.401,0.675-2.215,1.337c-1.712,1.166-3.064,2.947-3.733,4.841    c-0.896,2.543-1.019,5.293-0.848,7.955c0.167,2.607,1.097,4.712-0.464,6.507c-1.053,1.21-2.581,1.365-3.432,2.962    c-0.957,1.795-0.582,3.725-0.299,5.609c0.543,3.615,0.732,7.175,0.781,10.846c0.03,2.278-0.35,4.333-0.062,6.448    c-1.364,0.589-2.628,1.339-3.532,2.585c-1.713,2.361-1.611,5.23-1.812,8.029c-0.089,1.242-0.368,2.799-0.125,4.131    c-2.238,0.543-4.453,1.192-6.597,2.156c-5.614,2.525-9.683,5.883-14.054,10.065c-9.88,9.454-15.513,21.749-19.505,34.66    c-0.868,2.807-2.097,6.841-0.391,9.481c-3.15,1.692-5.499,4.102-6.778,7.92c-1.64,4.892,0.467,6.589,1.057,11.375    c0.342,2.774,0.043,5.06-2.18,6.575c-3.102,2.113-6.982,2.665-10.099,4.877c-3.804,2.7-4.72,6.289-4.852,10.808    c-0.185,6.366-0.588,12.658-0.541,19.02c0.051,6.902-0.249,14.091,0.29,20.952c0.531,6.743-0.398,13.5,0.56,20.21    c0.039,0.272,0.154,0.493,0.298,0.69c-0.869,0.586-1.68,1.238-2.372,2.006c-0.172,0.191-0.325,0.375-0.473,0.557    c-0.122-0.506-0.396-0.952-0.915-1.281c-2.783-1.764-6.711-1.091-9.855-1.07c-3.61,0.025-7.166-0.144-10.762-0.247    c-0.025-0.001-0.05,0-0.076-0.001c0.699-4.137-0.186-8.486-0.173-12.626c0.013-4.565,0.271-9.08,0.19-13.669    c-0.157-8.873-0.27-18.26-1.713-27.073c3.298-0.789,5.537-2.619,4.774-6.577c-0.638-3.305-5.373-3.724-8.085-4.391    c-2.649-0.652-5.582-1.129-8.303-1.409c-1.353-0.139-2.754,0.021-4.109-0.013c0.387-2.719,0.169-5.523,0.457-8.285    c0.357-3.416,0.633-6.969,0.564-10.409c-0.094-4.711-1.184-5.998-4.089-6.987c-0.061-0.09-0.139-0.171-0.261-0.224    c1.261,0.547,1.059-12.564,1.097-13.805c0.158-5.284,0.902-10.538,0.902-15.831c0-4.179,1.409-10.584,0.197-14.865    c0.524-1.457,0.353-3.323,0.4-4.777c0.023-0.715,0.025-1.42,0.027-2.126c0.104-0.965,0.147-1.679,0.145-1.603    c0.115-3.362,0.674-6.925-0.732-10.085c-2.696-6.062-9.81-8.385-14.206-12.918c-5.452-5.62-1.261-12.495-3.394-19.125    c-0.173-0.54-0.386-1.025-0.615-1.488c1.211-2.523,0.553-6.038,0.114-8.68c-0.573-3.451-1.058-6.059-3.099-8.953    c-0.419-0.594-0.839-1.055-1.279-1.444c0.02-0.099,0.038-0.198,0.037-0.292c-0.061-3.47-0.477-6.911-1.869-10.12    c-0.654-1.509-1.415-3.512-2.588-4.885c0.406-1.181-0.11-2.764-0.12-4.108c-0.026-3.667,0.177-7.349,0.159-11.024    c-0.015-3.036-4.727-3.04-4.718,0c0.008,2.685-0.232,5.118-0.543,7.76c-0.233,1.974-0.274,4.3,0.179,6.327    c-2.268,1.247-3.6,4.445-4.459,6.64c-1.175,3.005-1.52,6.207-1.575,9.411c-0.001,0.093,0.017,0.192,0.037,0.292    c-0.439,0.389-0.86,0.85-1.279,1.444c-2.041,2.894-2.525,5.501-3.099,8.953c-0.439,2.642-1.097,6.157,0.114,8.68    c-0.229,0.463-0.442,0.947-0.615,1.488c-2.133,6.628,2.056,13.504-3.394,19.125c-4.396,4.533-11.51,6.856-14.207,12.918    c-1.407,3.161-0.848,6.723-0.733,10.085c-0.001-0.049,0.015,0.229,0.055,0.679c0.024,0.438,0.046,0.859,0.055,1.226    c0.053,2.287,0.074,4.444,0.468,6.584c-1.22,4.28,0.191,10.697,0.192,14.882c0,5.294,0.744,10.547,0.902,15.831    c0.038,1.241-0.164,14.352,1.097,13.805c-0.122,0.053-0.201,0.134-0.261,0.224c-2.906,0.989-3.996,2.276-4.09,6.987    c-0.069,3.44,0.207,6.994,0.564,10.409c0.289,2.763,0.07,5.567,0.457,8.285c-1.355,0.034-2.755-0.126-4.109,0.013    c-2.721,0.279-5.655,0.757-8.303,1.409c-2.712,0.666-7.447,1.086-8.085,4.391c-0.763,3.958,1.476,5.788,4.774,6.577    c-1.444,8.813-1.558,18.2-1.713,27.073c-0.081,4.591,0.176,9.105,0.19,13.669c0.012,4.14-0.873,8.488-0.173,12.626    c-0.025,0.001-0.05,0.001-0.076,0.001c-3.596,0.104-7.152,0.272-10.762,0.247c-3.144-0.021-7.071-0.695-9.855,1.07    c-0.868,0.551-1.111,1.408-0.965,2.371c0.318,2.099,1.954,3.433,3.287,5.025c0.997,1.192,1.597,1.513,2.399,3.035    c1.103,2.093,0.443,2.627,0.744,4.664c0.284,1.919,1.437,3.026,2.947,3.689c-1.133,13.119-0.766,26.4-1.486,39.533    c-0.405,7.382,0.322,14.817,0.047,22.202c-0.163,4.384-0.62,8.796-0.207,13.121c-0.732,4.507-1.168,9.179-0.524,13.551    c-1.314,0.211-2.618,0.457-3.893,0.784c-4.548,1.165-6.69,5.763-4.048,10.122c1.055,1.743,3.512,2.329,6.068,2.624    c0.287,2.494,1.098,4.837,0.458,7.459c-0.448,1.837-1.622,3.361-1.447,5.334c0.266,3.011,2.237,4.032,4.594,4.324    c-1.114,24.186-1.484,48.517-1.585,72.747c-0.05,11.995-0.583,23.933-0.458,35.921c0.036,3.399-1.084,8.638,0.445,11.868    c1.688,3.564,5.509,3.615,8.874,4.06c22.521,2.973,45.42,1.408,68.082,2.104c4.413,0.135,8.782,0.101,13.212-0.005    c0.876-0.021,1.758-0.03,2.617-0.089c1.751,0.362,3.473,0.597,5.655,0.492c4.272-0.207,8.619-0.057,12.91,0.132    c9.027,0.398,18.12-0.538,27.192-0.382c10.236,0.176,20.452,0.17,30.706,0.144c4.281-0.011,8.637,0.369,12.973,0.494    c4.832,0.842,10.18,0.483,14.726,0.304c7.319-0.288,14.712-0.871,22.031-0.471c10.136,0.554,20.866,1.127,31.193,0.172    c5.878,0.215,11.862-0.514,17.706-0.499c10.254,0.026,20.47,0.032,30.706-0.144c9.071-0.156,18.164,0.779,27.192,0.382    c4.291-0.189,8.638-0.34,12.91-0.132c2.182,0.106,3.905-0.129,5.655-0.492c0.857,0.058,1.74,0.068,2.617,0.089    c4.431,0.106,8.799,0.141,13.212,0.005c22.662-0.697,45.56,0.869,68.081-2.104c3.366-0.445,7.186-0.496,8.874-4.06    c1.529-3.23,0.411-8.469,0.446-11.868c0.125-11.99-0.408-23.927-0.458-35.921c-0.101-24.231-0.471-48.561-1.585-72.747    c2.359-0.293,4.329-1.314,4.594-4.324c0.174-1.974-1-3.497-1.447-5.334c-0.639-2.622,0.172-4.965,0.459-7.459    c2.556-0.294,5.012-0.882,6.068-2.624C485.275,359.877,483.134,355.28,478.585,354.115z M408.738,29.605    c0.462-1.262,1.575-5.251,3.31-3.839c1.074,0.874,1.403,2.609,1.856,3.845c0.44,1.205,1.213,3.044,1.236,4.319    c0.005,0.256-0.069,0.522-0.202,0.744c-0.167,0.278-0.431,0.484-0.751,0.509c-0.621,0.049-1.086-0.549-1.669-0.768    c-1.219-0.462-2.295,0.693-3.467,0.784C406.378,35.404,408.347,30.677,408.738,29.605z M404.826,43.014    c1.325-3.08,3.926-3.911,6.494-5.281c2.567,1.37,5.168,2.201,6.493,5.281c1.115,2.589,0.96,6.227,1.501,9.391    c-0.157-0.922-3.152-1.362-3.871-1.547c-1.998-0.515-4.661-1.472-6.706-0.715c-1.768,0.654-3.744,1.336-5.409,2.263    C403.866,49.242,403.713,45.604,404.826,43.014z M387.726,88.812c3.885-3.838,9.145-5.638,12.586-10.091    c2.441-3.159,3.237-7.061,2.85-10.998c-0.404-4.108-2.74-8.545,1.35-11.878c1.873-1.527,4.521-1.831,6.809-2.706    c2.288,0.875,4.934,1.18,6.807,2.706c4.09,3.332,1.753,7.77,1.35,11.878c-0.387,3.936,0.41,7.839,2.85,10.998    c3.44,4.453,8.701,6.253,12.586,10.091c4.777,4.719,2.566,9.91,3.387,15.188c-1.713-1.493-3.71-2.849-5.069-3.951    c-1.007-0.816-2.117-0.634-2.891,0.373c-0.842,1.093-3.703,3.265-5.08,3.245c-1.206-0.018-3.423-1.585-4.712-1.953    c-3.001-0.856-6.129-1.453-9.228-1.232c-3.099-0.22-6.227,0.378-9.228,1.232c-1.289,0.368-3.506,1.935-4.712,1.953    c-1.378,0.02-4.24-2.152-5.08-3.245c-0.774-1.007-1.884-1.188-2.892-0.373c-1.359,1.102-3.355,2.458-5.069,3.951    C385.16,98.722,382.95,93.531,387.726,88.812z M437.002,152.587c-0.353-0.095-0.719-0.192-1.105-0.298    c-2.019-0.548-4.071-1.616-6.078-0.418c-0.108,0.064-0.189,0.148-0.285,0.221c0.083-2.744-0.125-5.545-0.132-8.16    c-0.015-4.909-0.411-9.766-0.56-14.669c-0.128-4.198-0.444-8.407-0.419-12.595c0.02-3.361,0.727-6.661,0.677-9.975    c1.125-0.749,2.156-1.758,3.039-2.752c1.571,1.325,3.268,2.78,4.313,4.32c1.413,2.082,1.084,4.437,0.988,7.035    c-0.216,5.824-0.189,11.613-0.617,17.427C436.639,135.209,435.101,147.722,437.002,152.587z M425.081,146.085    c0.004,3.34-0.634,7.426,0.399,10.739c-1.534,0.488-4.031,0.152-5.862-0.059c1.497-16.996,0.548-34.254-0.335-51.263    c1.933,0.643,3.826,2,5.746,2.308c0.252,0.04,0.5,0.036,0.747,0.033c-0.69,7.524-0.423,14.844-0.75,22.467    C424.8,135.574,425.077,140.807,425.081,146.085z M415.479,112.676c-0.01,4.883,0.408,9.765,0.412,14.645    c0.008,9.699-0.711,19.472-1.124,29.178c-1.156-0.015-2.308,0.028-3.446,0.166c-1.14-0.137-2.291-0.18-3.448-0.166    c-0.413-9.705-1.131-19.478-1.123-29.178c0.004-4.882,0.421-9.763,0.412-14.645c-0.005-2.43,0.224-5.484-0.743-7.858    c1.634-0.277,3.278-0.486,4.902-0.791c1.624,0.305,3.27,0.515,4.902,0.791C415.255,107.192,415.484,110.246,415.479,112.676z     M403.022,156.765c-1.832,0.211-4.328,0.547-5.862,0.059c1.033-3.313,0.394-7.4,0.398-10.739    c0.005-5.278,0.281-10.511,0.056-15.774c-0.328-7.624-0.061-14.942-0.75-22.467c0.248,0.002,0.495,0.007,0.747-0.033    c1.92-0.307,3.813-1.664,5.746-2.308C402.475,122.511,401.525,139.768,403.022,156.765z M393.106,152.094    c-0.096-0.072-0.177-0.157-0.285-0.221c-2.008-1.198-4.059-0.131-6.078,0.418c-0.386,0.104-0.753,0.203-1.105,0.298    c1.901-4.865,0.363-17.378,0.18-19.863c-0.429-5.814-0.401-11.603-0.617-17.427c-0.096-2.599-0.425-4.953,0.988-7.035    c1.045-1.54,2.742-2.996,4.313-4.32c0.883,0.994,1.914,2.003,3.039,2.752c-0.05,3.313,0.657,6.615,0.677,9.975    c0.025,4.188-0.291,8.398-0.419,12.595c-0.15,4.903-0.546,9.76-0.56,14.669C393.23,146.547,393.022,149.349,393.106,152.094z     M385.447,156.273c0.6-0.248,3.636-1.289,4.307-1.144c2.606,0.559,1.312,1.243,2.444,2.59c2.625,3.122,3.628,3.107,7.847,3.128    c3.436,0.017,7.839,0.363,11.275-0.316c3.436,0.679,7.839,0.332,11.275,0.316c4.218-0.021,5.221-0.005,7.847-3.128    c1.133-1.347-0.161-2.031,2.444-2.59c0.671-0.145,3.708,0.896,4.307,1.144c3.421,1.416,1.873,3.381,1.693,7.222    c-0.234,5.002-0.348,9.81,0.5,14.639c-0.056-0.037-0.115-0.058-0.17-0.097c-4.47-3.205-6.048-6.968-11.807-8.299    c-0.075-0.018-0.151-0.034-0.226-0.051c-3.749-1.134-8.242-1.537-10.824-1.844c-3.807-0.451-9.323-1.046-13.09,0.868    c-2.637-0.127-5.327,0.4-8.041,1.027c-5.758,1.331-7.337,5.094-11.807,8.299c-0.055,0.039-0.114,0.061-0.17,0.097    c0.848-4.828,0.735-9.638,0.5-14.639C383.573,159.654,382.025,157.689,385.447,156.273z M362.86,186.007    c0.553-1.757,8.974-0.902,10.504-1.019c3.058-0.232,7.725,0.026,10.495-1.514c3.832-2.13,4.83-7.235,8.741-9.409    c3.189-1.774,8.396-2.701,12.696-2.802c3.008,0.45,6.329,0.258,9.127,0.344c2.258,0.07,4.686-0.096,7.016-0.021    c3.186,0.423,6.381,1.245,8.599,2.479c3.912,2.174,4.91,7.279,8.741,9.409c2.77,1.54,7.437,1.282,10.496,1.514    c1.53,0.116,9.951-0.74,10.504,1.019c0.911,2.896-10.153,1.935-11.599,1.915c-6.006-0.085-9.363-0.566-13.612-5.177    c-2.076-2.253-3.854-4.976-6.577-6.54c-1.955-1.123-3.969-1.465-6.029-1.501c-2.207-0.798-5.158-0.838-6.87-0.966    c-5.088-0.38-10.47-0.894-15.328,0.989c-0.008,0.004-0.014,0.01-0.023,0.013c-1.736,0.12-3.436,0.51-5.095,1.464    c-2.723,1.565-4.502,4.287-6.577,6.54c-4.249,4.611-7.605,5.091-13.612,5.177C373.012,187.942,361.95,188.902,362.86,186.007z     M441.577,206.105c0.006-4.759,0.401-9.76-0.253-14.502c0.463,0.03,0.937,0.04,1.439,0.006c2.529-0.175,8.264,0.684,13.059,0.267    c-1.247,8.619,0.292,18.002,0.147,26.65c-0.081,4.808-0.376,9.583-0.401,14.381c-0.012,2.179,0.205,4.268,0.283,6.444    c0.101,2.864,1.117,4.073-1.947,4.315c-2.9,0.229-10.887,1.426-12.131-1.162c-0.994-2.068-0.002-6.786,0.005-9.198    c0.009-3.173,0.011-6.348,0.045-9.521C441.885,217.895,441.57,212.003,441.577,206.105z M384.364,231.078    c0.267,0.113,0.545,0.204,0.831,0.281c0.076,0.072,0.152,0.144,0.25,0.199c3.647,2.036,10.219,0.734,14.334,0.705    c5.534-0.038,11.047-0.277,16.586-0.189c4.809,0.076,9.595-0.12,14.405-0.031c2.08,0.038,5.268,0.539,7.5-0.357    c0.006,3.448-0.015,6.896-0.052,10.339c-0.013,1.186,0.043,2.131,0.242,2.888c-0.73-0.045-1.464-0.083-2.201-0.115    c-2.976-1.02-6.908-0.755-9.759-0.915c-4.7-0.265-9.523-0.173-14.226-0.025c-4.226,0.133-8.482,0.185-12.702,0.524    c-2.175,0.173-4.556,0.153-6.856,0.4c-2.837-0.135-5.724-0.039-8.538,0.133c0.199-0.757,0.254-1.702,0.242-2.888    C384.381,238.38,384.354,234.729,384.364,231.078z M385.007,191.683c0.064-0.383,0.013-0.727-0.106-1.029    c1.981-0.946,3.698-2.492,5.503-4.311c1.719-1.734,2.967-4.047,4.775-5.7c1.927-1.759,4.238-2.434,6.613-3.034    c3.875,0.689,8.389-0.167,12.245,0.055c2.373,0.137,5.44,0.679,8.065,0.281c1.927,0.541,3.774,1.25,5.36,2.698    c1.808,1.653,3.056,3.965,4.775,5.7c1.805,1.82,3.521,3.365,5.503,4.311c-0.119,0.303-0.17,0.646-0.106,1.029    c1.39,8.32-0.042,17.433,0.349,25.857c0.165,3.562,0.239,7.129,0.273,10.699c-1.763-0.183-3.838,0.217-5.49,0.278    c-5.65-0.613-11.638-0.433-17.024-0.449c-5.347-0.015-10.627,0.256-15.959,0.468c-0.065,0.002-0.133,0.001-0.199,0.004    c-1.801-0.065-3.602-0.089-5.397-0.076c-1.593-0.05-3.191-0.075-4.756,0.029c-1.569-0.103-3.435-0.419-5.044-0.252    c0.033-3.57,0.107-7.139,0.272-10.699C385.049,209.116,383.617,200.003,385.007,191.683z M381.062,206.105    c0.008,5.898-0.307,11.791-0.243,17.68c0.034,3.173,0.036,6.348,0.045,9.521c0.007,2.412,0.998,7.13,0.005,9.198    c-1.244,2.588-9.23,1.391-12.131,1.162c-3.064-0.242-2.048-1.453-1.947-4.315c0.077-2.176,0.293-4.266,0.283-6.444    c-0.025-4.797-0.32-9.572-0.401-14.381c-0.146-8.649,1.394-18.031,0.147-26.65c4.795,0.417,10.53-0.442,13.058-0.267    c0.501,0.034,0.976,0.024,1.439-0.006C380.661,196.345,381.056,201.345,381.062,206.105z M359.42,249.475    c6.303-0.356,12.546-0.299,18.803-0.771c2.516,0.388,5.397,0.279,7.907,0.209c1.435-0.04,3.012,0.088,4.625,0.209    c6.673,1.472,15.159,0.208,21.522-0.053c4.153-0.171,8.348-0.008,12.518-0.031c3.718,0.706,8.15-0.224,11.716-0.125    c2.509,0.07,5.391,0.179,7.906-0.209c6.257,0.47,12.5,0.414,18.803,0.771c1.721,0.097,14.326-0.57,14.424-0.012    c0.137,0.768-2.379,2.656-3.918,4.038c-2.926-0.266-5.918,0.197-8.859,0.17c-5.125-0.047-10.247,0.102-15.384,0.132    c-4.682,0.027-9.369,0.034-14.047-0.08c-6.013-1.774-13.585-1.178-19.386-1.175c-7.241,0.002-15.637-0.52-23.068,0.879    c-1.19,0.07-2.404,0.203-3.664,0.245c-5.38,0.179-10.775,0.164-16.164,0.132c-5.137-0.03-10.259-0.179-15.384-0.132    c-2.942,0.027-5.934-0.435-8.859-0.17c-1.539-1.383-4.053-3.27-3.918-4.038C345.094,248.905,357.698,249.572,359.42,249.475z     M469.6,352.728c-3.805-0.31-7.653-0.387-11.358-0.57c-3.543-0.174-7.073-0.236-10.602-0.22c0.184-2.302-0.293-4.926-0.272-6.74    c0.031-2.609,0.043-5.232-0.1-7.837c0.642-5.486,0.03-11.207-0.021-16.656c-0.059-6.348,0.326-12.761-0.032-19.096    c-0.38-6.722-0.657-13.408-1.121-20.141c-0.335-4.853-1.168-9.748-1.512-14.598c7.194,0.058,14.404-0.293,21.478-0.825    c0.927-0.07,1.954-0.134,2.981-0.262c-1.124,4.592-0.535,10.294-0.448,14.442c0.159,7.45,0.21,15.05,0.643,22.494    c0.464,7.978-0.089,15.955,0.115,23.943c0.114,4.482-0.34,10.322,0.367,15.209c0,0.081,0.002,0.165,0.001,0.241    C469.677,345.518,469.27,349.252,469.6,352.728z M468.38,261.334c-3.863,0.965-8.829,0.756-12.86,0.988    c-7.345,0.421-14.651,0.451-21.974,0.487c-5.899-1.999-14.628-1.115-19.855-1.193c-5.773-0.088-11.665,0.535-17.432,0.865    c-2.444,0.14-4.89,0.197-7.332,0.326c-7.268-0.036-14.519-0.068-21.809-0.486c-4.031-0.232-8.997-0.023-12.86-0.988    c-3.966-0.991-3.108-2.377-3.524-4.631c6.316,1.702,14.331,0.571,20.275,0.69c7.992,0.159,16.335,0.467,24.341-0.467    c2.164-0.034,4.344-0.233,6.521-0.247c4.732-0.03,9.447,0.159,14.178,0.186c4.883,0.028,10.908,1.058,16.292,0.491    c6.422,0.373,12.963,0.16,19.286,0.034c5.944-0.119,13.959,1.013,20.275-0.69C471.488,258.956,472.347,260.342,468.38,261.334z     M442.86,330.301c-0.521,4.26-0.047,8.804-0.248,13.002c-0.122,2.58-0.629,5.84-0.33,8.733c-2.643,0.081-5.287,0.193-7.935,0.374    c-8.18,0.557-16.614,1.001-24.807,0.94c-8.23-0.062-16.387,1.031-24.633,1.027c-1.51-0.001-3.021,0.021-4.533,0.029    c0.483-4.536-0.013-9.333-0.367-13.829c-0.183-2.333,0.004-5.15-0.33-7.748c0.239-4.397,0.086-8.915,0.097-13.032    c0.021-7.222,0.171-14.422,0.316-21.631c0.137-6.769,0.366-13.547,0.643-20.318c0.133-3.227,1.161-7.648,0.176-11.029    c2.729-0.066,5.453-0.196,8.163-0.402c7.494,0.848,15.339-0.076,22.757-0.141c4.841-0.042,9.679,0.243,14.517,0.066    c1.596-0.058,3.236,0.017,4.835-0.142c3.495,0.329,7.015,0.534,10.547,0.62c-0.987,3.381,0.043,7.802,0.175,11.029    c0.278,6.771,0.507,13.548,0.643,20.318c0.146,7.207,0.294,14.408,0.316,21.631C442.874,323.127,442.774,326.721,442.86,330.301z     M375.393,320.704c-0.049,5.247-0.627,10.748-0.097,16.046c0.036,1.04,0.084,2.027,0.09,2.878    c0.033,4.891-0.551,9.925-0.144,14.809c-5.399,0.051-10.799,0.119-16.184,0.184c-1.734,0.021-3.483,0.118-5.234,0.192    c0.093-0.405,0.123-0.832,0.046-1.275c-0.604-3.489-0.486-7.318-0.835-10.858c-0.032-0.329-0.056-0.671-0.077-1.014    c0.664-4.846,0.218-10.587,0.331-15.006c0.203-7.989-0.349-15.965,0.115-23.943c0.433-7.444,0.484-15.044,0.643-22.494    c0.088-4.147,0.677-9.85-0.448-14.442c1.027,0.128,2.054,0.192,2.981,0.262c7.073,0.533,14.283,0.883,21.479,0.825    c-0.344,4.85-1.178,9.745-1.512,14.598c-0.464,6.731-0.741,13.419-1.121,20.141C375.067,307.944,375.452,314.356,375.393,320.704z     M342.085,251.314c0.6,0.756,1.304,1.46,1.942,2.224c0.997,1.192,1.597,1.513,2.398,3.035c1.103,2.093,0.443,2.627,0.744,4.665    c0.119,0.804,0.397,1.457,0.782,2.004c-0.03,0-0.065-0.001-0.091-0.001c-1.385,0.015-2.77,0.294-4.156,0.203    c-0.851-0.056-1.607-0.228-2.379-0.258c0.129-3.592-0.598-7.567-1.63-9.875C340.877,252.846,341.759,252.203,342.085,251.314z     M339.529,269.544c0.411-0.496,0.734-1.116,0.996-1.809c2.037,0.622,4.267,0.416,6.372,0.204c0.857-0.085,1.989-0.091,3.02-0.292    c-0.874,12.233-0.616,24.586-1.288,36.812c-0.405,7.382,0.322,14.817,0.047,22.202c-0.136,3.671-0.478,7.359-0.344,11.002    c-0.406,3.019-0.024,6.442,0.09,9.014c0.084,1.9,0.599,4.606,0.076,6.418c-0.324,1.118-1.323,2.133-2.485,2.072    c-0.953-0.05-1.73-0.779-2.304-1.542c-3.936-5.228-2.103-11.167-2.328-17.037c-0.284-7.375-0.922-14.732-1.161-22.108    c-0.197-6.082-1.064-12.196-1.456-18.258c-0.541-8.404-0.402-16.812-1.641-25.151    C338.108,270.735,338.944,270.253,339.529,269.544z M326.494,307.879c0.309-7.649-0.399-15.334,0.112-22.968    c0.283-4.238,0.569-8.99-0.012-13.292c0.871,0.002,1.75-0.024,2.592-0.116c1.844,0.166,3.689,0.247,5.341,0.093    c-1.273,11.909,0.35,24.583,1.199,36.428c0.502,6.999,0.406,14.017,1.003,21.009c0.293,3.442,0.608,6.79,0.581,10.251    c-0.009,1.141,0.336,5.722-0.329,6.527c-0.161,0.195-0.402,0.329-0.672,0.437c-0.256-0.02-0.515-0.04-0.791-0.057    c-2.913-0.177-5.84-0.329-8.77-0.416c-0.316-0.499-0.554-1.197-0.728-2.173c-0.706-3.978,0.009-8.777,0.198-12.812    C326.573,323.162,326.186,315.51,326.494,307.879z M290.778,99.331c8.17,8.163,13.809,19.189,16.762,30.338    c0.437,1.648,2.964,5.095,2.815,7.253c-0.024,0.337-0.113,0.643-0.285,0.906c-1.442,2.192-5.837,0.532-7.926,0.56    c-1.879-13.082-5.969-23.878-13.174-35.167c-3.056-4.788-6.938-9.331-11.511-12.913C282.212,92.725,286.984,95.541,290.778,99.331    z M275.924,94.178c4.008,3.509,7.042,6.312,9.949,10.853c6.324,9.88,11.142,20.377,11.752,32.208    c-2.336-0.709-4.653-1.47-6.817-1.962c-1.771-0.404-3.524-0.81-5.271-1.21c0.387-10.551-3.255-19.878-6.56-29.742    c-1.25-3.729-3.112-8.313-5.63-12.301C274.227,92.737,275.093,93.452,275.924,94.178z M275.84,106.769    c2.846,8.9,4.515,17.087,5.07,26.274c-2.795-0.595-5.586-1.118-8.401-1.518c1.107-14.498,1.253-30.454-5.249-43.747    c1.488,2.345,2.759,4.999,4.034,7.211C273.475,98.766,274.533,102.678,275.84,106.769z M256.943,108.666    c-0.027-7.34,0.564-15.593-0.7-22.952c2.969,0.163,5.827,0.776,8.661,1.451c3.911,14.319,4.609,29.13,3.195,43.852    c-0.385-0.033-0.775-0.044-1.162-0.071c-0.405-0.114-0.812-0.222-1.228-0.302c-2.628-0.506-5.383-0.484-8.105-0.329    C257.939,123.131,256.969,115.845,256.943,108.666z M254.597,28.361c1.191-0.027,2.266,0.353,3.331,0.22    c6.036,2.898,4.307,9.874,4.04,15.416c-1.877-0.579-3.988-0.991-5.973-0.804c-1.985-0.188-4.096,0.224-5.973,0.804    C249.747,38.302,247.948,31.105,254.597,28.361z M246.471,64.878c0.288-3.835-0.835-10.98,0.686-14.688    c1.305-0.947,2.534-1.96,4.152-2.49c1.324-0.432,2.588-1.04,3.979-1.18c0.249-0.025,0.478-0.044,0.705-0.064    c0.227,0.02,0.456,0.039,0.705,0.064c1.393,0.14,2.657,0.748,3.98,1.18c1.619,0.53,2.848,1.542,4.152,2.49    c1.521,3.709,0.398,10.853,0.686,14.688c0.131,1.731,0.303,3.566,0.879,5.218c-0.643-0.229-1.346-0.435-2.076-0.601    c-3.359-1.409-7.261-1.445-10.98-0.841c-0.937,0.153-1.891,0.299-2.845,0.464c-1.691,0.044-3.448,0.458-4.903,0.977    C246.168,68.445,246.341,66.609,246.471,64.878z M242.916,77.961c0.594-1.934,1.902-3.133,3.497-4.004    c2.441-0.666,4.97-1.072,7.46-1.36c2.497-0.289,4.654-0.268,7.123,0.233c1.758,0.357,3.14,0.955,4.634,1.158    c1.571,0.868,2.858,2.062,3.444,3.975c0.507,1.654,0.623,3.533,0.957,5.315c-4.97-1.746-11.391-1.98-15.576-1.908    c-3.879,0.068-8.526,0.526-12.524,2.043C242.285,81.589,242.396,79.658,242.916,77.961z M253.144,108.666    c-0.011,7.274,0.126,14.651,0.515,21.928c-0.166,0.012-0.335,0.025-0.501,0.038c-1.098,0.08-2.314,0.121-3.592,0.158    c-1.571-0.001-3.125,0.052-4.666,0.164c-0.336,0.018-0.673,0.04-1.01,0.062c-1.434-14.94-0.691-29.973,3.375-44.489    c2.036-0.398,4.027-0.71,6.103-0.817C252.151,93.153,253.156,101.217,253.144,108.666z M240.694,94.988    c1.275-2.212,2.548-4.867,4.034-7.211c-6.496,13.282-6.355,29.224-5.251,43.714c-0.487,0.078-0.966,0.169-1.439,0.269    c-2.326,0.366-4.642,0.792-6.958,1.283c0.556-9.188,2.225-17.375,5.071-26.274C237.457,102.678,238.515,98.766,240.694,94.988z     M238.643,92.025c-2.518,3.988-4.381,8.572-5.63,12.301c-3.305,9.863-6.948,19.191-6.56,29.742c-1.746,0.4-3.5,0.806-5.271,1.21    c-2.165,0.494-4.48,1.254-6.817,1.962c0.611-11.83,5.428-22.329,11.752-32.208c2.906-4.541,5.941-7.344,9.949-10.853    C236.896,93.452,237.763,92.737,238.643,92.025z M204.45,129.667c2.953-11.149,8.592-22.174,16.762-30.338    c3.793-3.79,8.566-6.604,13.318-9.024c-4.573,3.582-8.455,8.125-11.511,12.913c-7.205,11.289-11.295,22.085-13.174,35.167    c-2.087-0.029-6.483,1.63-7.926-0.56c-0.172-0.262-0.261-0.569-0.285-0.906C201.485,134.764,204.013,131.316,204.45,129.667z     M200.059,146.611c1.204-0.624,2.427-1.175,3.654-1.705c2.795-0.279,5.687-1.257,7.815-2.119    c9.684-3.921,19.756-5.212,29.881-6.589c0.925,0.013,1.831,0.014,2.691-0.025c3.795-0.171,7.572-0.274,11.375-0.493    c3.786-0.218,7.414,0.311,11.17,0.277c0.476-0.004,0.952-0.046,1.428-0.104c10.966,1.527,21.904,2.689,32.387,6.933    c2.13,0.862,5.021,1.84,7.817,2.119c1.228,0.529,2.45,1.08,3.654,1.705c2.871,1.489,5.619,4.143,5.784,7.656    c0.076,1.625-0.717,3.494-1.105,5.186c-0.484,2.106-1.428,4.655-1.571,7.054c-11.519-4.287-23.955-6.714-36.155-6.755    c-4.237-1.445-8.973-1.415-13.432-1.507c-6.322-0.129-12.698-0.103-19.005,0.278c-5.076,0.307-10.073,0.462-15.113,1.235    c-11.629,0.26-23.422,2.669-34.385,6.749c-0.141-2.399-1.086-4.948-1.57-7.054c-0.388-1.692-1.181-3.56-1.105-5.186    C194.44,150.754,197.19,148.1,200.059,146.611z M178.79,183.981c0.057-1.257,0.513-5.021,2.123-5.469    c3.303-0.921,6.847-2.872,9.291-3.905c6.388-2.697,13.261-4.364,20.022-5.916c6.495-1.491,13.075-2.482,19.683-3.276    c2.247-0.186,4.516-0.476,6.754-0.755c2.183-0.226,4.368-0.443,6.551-0.656c0.462-0.026,0.92-0.047,1.372-0.058    c5.841-0.145,11.626-0.586,17.481-0.546c0.25,0.002,0.501,0.011,0.75,0.014c13.027,1.312,26.149,2.34,38.945,5.277    c6.761,1.552,13.634,3.218,20.022,5.916c2.444,1.033,5.988,2.983,9.291,3.905c1.61,0.449,2.065,4.212,2.123,5.469    c0.116,2.547,0.093,5.427-3.012,4.12c-2.999-1.263-6.178-1.907-9.335-2.672c-7.02-1.702-13.802-4.207-20.94-5.766    c-6.057-1.323-12.047-2.031-18.038-2.322c-7.319-2.336-16.458-0.715-23.902-0.622c-6.261,0.077-12.55-0.296-18.754,0.48    c-9.056-0.127-18.022,0.472-27.142,2.465c-7.136,1.559-13.92,4.063-20.94,5.766c-3.157,0.766-6.336,1.409-9.335,2.672    C178.697,189.408,178.673,186.527,178.79,183.981z M179.38,194.962c-0.025-0.413-0.047-0.825-0.071-1.238    c4.409-0.768,8.781-2.83,13.066-3.8c6.731-1.523,13.25-3.886,20.013-5.43c13.69-3.126,27.828-2.937,41.751-3.706    c0.034-0.001,0.058-0.019,0.091-0.021c0.935-0.012,1.864-0.013,2.78,0.006c0.395,0.008,0.798,0.024,1.195,0.034    c13.808,0.747,27.822,0.589,41.394,3.687c6.762,1.545,13.281,3.907,20.013,5.43c4.287,0.97,8.658,3.032,13.066,3.8    c-0.024,0.413-0.046,0.825-0.071,1.238c-0.343,5.526-1.109,10.948-1.171,16.506c-0.069,6.201,0.947,12.16,1.092,18.346    c0.095,4.071-0.148,8.688,1.048,12.68c-1.001-0.47-1.993-0.927-2.923-1.407c-1.553-0.801-3.24-1.628-4.976-2.325    c1.047-4.838,0.535-9.958,0.94-14.878c0.277-3.36,0.021-6.539-0.267-9.894c-0.414-4.822-0.469-18.244-7.038-19.632    c-4.675-0.988-7.427,5.296-7.985,8.931c-0.629,4.095-0.213,8.437-0.275,12.568c-0.074,4.865-0.718,9.862-0.5,14.692    c0.002,0.056,0.017,0.104,0.023,0.158c-1.377-0.767-2.751-1.544-4.128-2.315c-0.448-3.965,0.905-8.575,0.879-12.596    c-0.033-5.139,0.266-10.343-0.072-15.472c-0.359-5.42-3.167-11.632-9.305-12.511c-7.038-1.007-7.598,7.238-8.49,12.141    c-1.103,6.073-1.023,12.359-1.247,18.536c-0.884-0.458-1.762-0.917-2.645-1.374c1.448-7.186,2.824-16.876,1.168-23.971    c-1.052-4.509-5.087-8.701-9.989-8.423c-6.514,0.37-6.369,7.174-6.799,12.207c-0.344,4.034-0.913,8.142-0.862,12.204    c-0.895-0.779-1.942-1.502-3.075-2.144c1.673-7.669,0.75-22.997-9.353-22.104c-5.586,0.494-8.808,4.911-9.906,10.043    c-0.605,2.829-0.012,5.425-0.019,8.283c-0.005,1.793-0.109,3.083,0.679,4.38c-1.515,0.552-3.02,1.12-4.515,1.716    c0.07-4.118-0.516-8.283-0.865-12.375c-0.429-5.033-0.285-11.836-6.799-12.207c-4.902-0.278-8.936,3.914-9.989,8.423    c-1.655,7.095-0.28,16.785,1.168,23.971c-0.883,0.457-1.761,0.915-2.645,1.374c-0.223-6.178-0.145-12.463-1.247-18.536    c-0.89-4.903-1.452-13.148-8.49-12.141c-6.138,0.877-8.947,7.091-9.305,12.511c-0.338,5.129-0.04,10.332-0.072,15.472    c-0.026,4.021,1.327,8.631,0.879,12.596c-1.376,0.769-2.751,1.547-4.128,2.315c0.006-0.053,0.02-0.102,0.023-0.158    c0.218-4.83-0.426-9.828-0.5-14.692c-0.063-4.13,0.354-8.473-0.275-12.568c-0.559-3.635-3.31-9.919-7.985-8.931    c-6.57,1.388-6.623,14.81-7.038,19.632c-0.289,3.355-0.544,6.534-0.267,9.894c0.406,4.92-0.107,10.04,0.94,14.878    c-1.736,0.698-3.423,1.523-4.976,2.325c-0.93,0.48-1.922,0.937-2.923,1.407c1.197-3.993,0.953-8.61,1.048-12.68    c0.146-6.184,1.162-12.145,1.092-18.346C180.489,205.909,179.723,200.487,179.38,194.962z M314.678,210.644    c-0.08-2.708-0.47-5.684,0.195-8.345c1.711-6.85,5.143-5.642,6.75,1.101c1.301,5.458,1.565,12.193,1.502,17.858    c-0.061,5.509-0.882,11.077,0.097,16.525c-0.12-0.67-4.407-2.507-5.118-2.872c-0.959-0.493-2.475-0.787-3.216-1.607    c-0.988-1.093-0.576-2.816-0.424-4.127c0.233-1.999,0.21-3.975,0.243-5.983C314.777,219.009,314.801,214.825,314.678,210.644z     M303.717,216.925c0.027,2.84-0.763,6.67-0.221,9.811c-0.596-0.336-1.194-0.666-1.79-1.004c-3.011-1.711-6.078-3.355-9.159-4.976    c0.94-3.99,0.304-8.536,0.128-12.614c-0.134-3.099,0.109-5.957,0.627-9.025c0.084-0.495,0.309-3.413,0.743-3.982    c1.334-1.744,5.593-2.292,7.445-1.029c2.972,2.028,2.174,8.555,2.178,11.809C303.673,209.586,303.682,213.256,303.717,216.925z     M282.875,215.718c-0.634-0.33-1.274-0.659-1.905-0.99c-2.183-1.142-4.381-2.18-6.587-3.175c0.025-1.763-0.353-3.552-0.389-5.573    c-0.076-4.331-0.484-9.321,0.277-13.612c0.879-4.957,4.051-4.704,6.944-1.85c1.612,1.591,1.984,3.469,2.194,5.739    c0.242,2.612-0.161,5.548-0.279,8.211C282.964,208.199,282.455,211.998,282.875,215.718z M250.293,199.937    c-0.061-2.12-0.204-4.121,0.439-6.195c0.787-2.534,3.965-6.934,7.426-5.772c6.673,2.24,4.002,11.015,3.95,17.255    c-2.571-0.888-5.213-1.291-7.357-0.949c-1.698,0.271-3.246,0.979-4.725,1.857C250.381,204.099,250.352,201.981,250.293,199.937z     M228.861,204.468c-0.118-2.663-0.521-5.599-0.279-8.211c0.211-2.27,0.583-4.148,2.194-5.739c2.893-2.854,6.064-3.107,6.944,1.85    c0.761,4.292,0.353,9.281,0.277,13.612c-0.036,2.021-0.413,3.809-0.389,5.573c-2.207,0.995-4.403,2.033-6.587,3.175    c-0.632,0.331-1.271,0.66-1.905,0.99C229.534,211.998,229.026,208.199,228.861,204.468z M208.271,216.925    c0.036-3.67,0.044-7.339,0.049-11.009c0.005-3.254-0.794-9.781,2.179-11.809c1.852-1.263,6.111-0.715,7.445,1.029    c0.435,0.569,0.659,3.487,0.742,3.982c0.518,3.069,0.761,5.927,0.627,9.025c-0.176,4.077-0.812,8.624,0.128,12.614    c-3.081,1.621-6.148,3.264-9.159,4.976c-0.596,0.338-1.194,0.668-1.79,1.004C209.036,223.595,208.245,219.765,208.271,216.925z     M188.864,221.256c-0.063-5.664,0.201-12.399,1.502-17.858c1.607-6.742,5.04-7.951,6.75-1.101    c0.665,2.662,0.274,5.638,0.193,8.345c-0.123,4.181-0.1,8.365-0.031,12.546c0.033,2.01,0.011,3.985,0.243,5.983    c0.152,1.311,0.564,3.033-0.424,4.127c-0.741,0.82-2.257,1.115-3.216,1.607c-0.71,0.366-4.997,2.202-5.118,2.872    C189.746,232.333,188.926,226.765,188.864,221.256z M192.463,241.259c7.128-3.128,14.262-6.208,21.182-9.773    c6.999-3.606,13.986-6.975,20.91-10.711c3.544-1.913,6.995-3.993,10.517-5.943c2.595-1.118,5.123-2.643,7.45-3.563    c3.683-1.457,6.463-0.462,9.262,0.659c1.39,0.995,3.023,1.743,4.479,2.539c3.752,2.053,7.407,4.277,11.17,6.308    c6.924,3.736,13.912,7.105,20.91,10.711c6.92,3.565,14.054,6.646,21.182,9.773c5.502,2.415,10.595,5.675,16.093,8.027    c-2.212,0.154-5.1-0.235-6.462-0.262c-3.061-0.063-6.094-0.334-9.147-0.47c-4.742-0.213-9.477-0.596-14.232-0.265    c-6.645,0.463-13.417,0.914-20.083,1.195c-4.534,0.191-9.487-0.567-14.075,0.087c-5.246,0.025-10.497-0.049-15.761-0.043    c-4.944,0.006-9.887,0.05-14.829,0.147c-4.77-0.833-9.981,0.008-14.731-0.192c-6.665-0.281-13.438-0.733-20.083-1.196    c-4.755-0.331-9.49,0.052-14.232,0.265c-3.055,0.137-6.087,0.407-9.147,0.47c-1.362,0.027-4.25,0.417-6.462,0.262    C181.868,246.934,186.961,243.673,192.463,241.259z M182.833,254.495c9.409-0.047,18.842-0.195,28.228-0.323    c6.589-0.089,13.858,0.432,20.865,0.063c6.901,0.417,13.859,0.414,20.771,0.423c6.887,0.008,13.861,0.355,20.704,0.12    c3.381-0.116,6.985-0.109,10.509-0.421c5.785,0.077,11.63-0.256,17.02-0.183c9.386,0.127,18.818,0.275,28.228,0.323    c1.781,0.008,5.481,0.032,8.493-0.595c-0.983,2.564-0.905,5.27-1.393,8.056c-0.601,3.426,0.15,3.626-3.033,4.27    c-6.316,1.279-13.435,1.514-19.889,1.511c-6.925-0.004-13.656-0.315-20.606-0.614c-2.13-0.093-4.263-0.087-6.397-0.046    c-10.561-1.161-21.88-0.414-32.116,0.089c-6.179,0.303-12.323-0.029-18.513,0.012c-1.015,0.007-2.025,0.045-3.036,0.093    c-4.467-0.123-8.943-0.34-13.407-0.146c-6.949,0.299-13.68,0.61-20.605,0.614c-6.454,0.004-13.573-0.233-19.889-1.511    c-3.183-0.645-2.433-0.844-3.033-4.27c-0.488-2.786-0.41-5.492-1.393-8.056C177.352,254.528,181.052,254.504,182.833,254.495z     M321.727,345.706c-0.74,0.001-1.478,0.009-2.216,0.024c0.042-0.188,0.089-0.368,0.116-0.57c1.07-7.872-0.294-16.528-0.299-24.459    c-0.011-16.196-0.11-32.666-2.469-48.624c1.827-0.118,3.653-0.255,5.488-0.427c0.131-0.012,0.287-0.012,0.427-0.02    c0.521,3.246,0.242,7.408,0.16,10.707c-0.096,3.87-0.35,7.7-0.336,11.6c0.033,8.979-0.395,17.928-0.356,26.905    C322.277,328.752,320.692,337.761,321.727,345.706z M306.154,337.43c-0.144-3.74-0.629-7.464-0.715-11.202    c-0.179-7.82-0.325-15.88,0.065-23.689c0.255-5.095,0.8-10.236,1.244-15.313c0.26-2.976,0.503-5.942,0.598-8.924    c0.059-1.891,0.484-3.944,0.299-5.862c0.356-0.01,0.711-0.023,1.066-0.027c2.117-0.036,4.216-0.115,6.311-0.227    c-0.767,5.853-0.629,12.184-0.402,18.004c0.292,7.47,0.171,14.956,0.114,22.445c-0.053,6.932,0.539,13.864,0.547,20.808    c0.004,2.998,0.807,7.513,0.006,10.435c-0.298,1.087-0.912,1.712-1.689,2.107c-0.424,0.03-0.848,0.052-1.27,0.088    c-1.521,0.127-3.044,0.228-4.565,0.323c-1.065-0.62-1.452-1.948-1.554-3.742C306.111,340.906,306.221,339.175,306.154,337.43z     M302.054,340.769c0.02,2.171-0.069,4.245,0.205,5.956c-3.333,0.202-6.661,0.437-9.981,0.849    c-0.361,0.045-0.724,0.076-1.086,0.113c0.072-0.401,0.137-0.825,0.188-1.285c0.889-7.895-0.176-16.602-0.589-24.532    c-0.842-16.17,0.62-32.871-1.854-48.96c3.099,0.018,6.245-0.217,9.103-0.217c1.783,0,3.563-0.056,5.342-0.119    c0.643,2.813-0.349,7.185-0.484,9.83c-0.171,3.34-0.391,6.665-0.633,10.001c-0.56,7.736-0.798,15.369-0.791,23.135    C301.484,323.983,301.977,332.351,302.054,340.769z M278.267,333.815c0.446-7.394-0.223-15.086-0.221-22.535    c0.002-13.091,0.915-26.126,1.115-39.207c0.014-0.031,0.015-0.066,0.029-0.1c0.596-0.029,1.191-0.059,1.786-0.096    c1.645,0.527,3.416,0.799,5.24,0.927c-0.448,6.143,0.264,12.333,0.304,18.498c0.046,7.126-0.798,14.252-0.632,21.372    c0.18,7.707,0.87,15.349,0.832,23.082c-0.015,3.233,0.515,6.527,0.198,9.73c-0.11,1.121-0.662,1.968-1.432,2.563    c-1.381,0.056-2.755,0.125-4.125,0.213c-0.658-0.018-1.315-0.03-1.973-0.043c-1.285-0.988-1.269-2.776-1.263-4.976    C278.132,340.079,278.076,336.965,278.267,333.815z M274.309,320.157c-0.025,4.27,0.529,8.648,0.315,12.888    c-0.198,3.938-0.743,7.965-0.66,11.904c0.027,1.283,0.096,2.341,0.246,3.227c-6.765,0.011-13.553,0.229-20.314,0.299    c-5.173,0.052-10.659-0.334-16.109-0.354c0.144-0.876,0.211-1.915,0.237-3.172c0.083-3.939-0.462-7.966-0.66-11.904    c-0.214-4.242,0.34-8.618,0.315-12.888c-0.049-8.556,0.247-17.225-0.424-25.739c-0.585-7.432,0.025-15.061-0.867-22.448    c4.96,0.214,9.958,0.437,14.855,0.279c7.927-0.254,16.173,0.072,24.341-0.141c-0.868,7.344-0.27,14.923-0.851,22.31    C274.062,302.932,274.359,311.602,274.309,320.157z M233.725,333.816c0.191,3.152,0.135,6.265,0.142,9.428    c0.005,2.222,0.023,4.025-1.301,5.005c-0.382,0.021-0.766,0.039-1.146,0.067c-1.63-0.121-3.27-0.199-4.916-0.267    c-0.769-0.595-1.321-1.442-1.432-2.563c-0.317-3.204,0.214-6.499,0.198-9.73c-0.038-7.732,0.653-15.374,0.832-23.082    c0.166-7.12-0.678-14.246-0.632-21.372c0.04-6.165,0.752-12.355,0.304-18.498c1.946-0.137,3.837-0.425,5.574-1.027    c0.469,0.015,0.939,0.03,1.409,0.047c0.024,0.082,0.036,0.169,0.07,0.248c0.199,13.082,1.111,26.117,1.115,39.207    C233.945,318.729,233.276,326.421,233.725,333.816z M221.198,321.871c-0.413,7.93-1.478,16.637-0.589,24.532    c0.052,0.459,0.116,0.882,0.188,1.285c-0.362-0.037-0.725-0.068-1.086-0.113c-3.319-0.413-6.648-0.647-9.981-0.849    c0.275-1.712,0.185-3.786,0.205-5.956c0.077-8.42,0.57-16.787,0.577-25.227c0.007-7.764-0.23-15.399-0.791-23.135    c-0.242-3.336-0.462-6.663-0.633-10.001c-0.135-2.646-1.128-7.019-0.484-9.83c1.78,0.063,3.56,0.119,5.342,0.119    c2.859,0,6.005,0.235,9.103,0.217C220.578,289,222.039,305.702,221.198,321.871z M205.781,342.655    c-0.101,1.794-0.489,3.122-1.554,3.742c-1.522-0.095-3.044-0.195-4.566-0.323c-0.423-0.036-0.846-0.058-1.27-0.088    c-0.778-0.395-1.393-1.02-1.691-2.107c-0.8-2.922,0.002-7.438,0.006-10.435c0.008-6.944,0.601-13.876,0.547-20.808    c-0.057-7.489-0.178-14.974,0.114-22.445c0.227-5.82,0.364-12.151-0.402-18.004c2.095,0.112,4.194,0.191,6.311,0.227    c0.356,0.006,0.711,0.019,1.066,0.027c-0.184,1.919,0.24,3.971,0.299,5.862c0.094,2.981,0.338,5.947,0.598,8.924    c0.444,5.076,0.989,10.217,1.244,15.313c0.391,7.809,0.245,15.869,0.065,23.689c-0.086,3.737-0.571,7.462-0.715,11.202    C205.769,339.175,205.879,340.906,205.781,342.655z M192.363,345.158c0.027,0.203,0.075,0.382,0.116,0.57    c-0.74-0.013-1.478-0.023-2.216-0.024c1.034-7.945-0.55-16.953-0.515-24.867c0.039-8.976-0.389-17.927-0.356-26.906    c0.014-3.9-0.241-7.73-0.336-11.6c-0.082-3.298-0.361-7.46,0.16-10.707c0.14,0.008,0.297,0.008,0.427,0.02    c1.835,0.172,3.662,0.311,5.488,0.427c-2.359,15.958-2.459,32.428-2.469,48.624C192.657,328.63,191.293,337.286,192.363,345.158z     M177.462,271.596c1.653,0.154,3.497,0.074,5.341-0.093c0.842,0.094,1.72,0.119,2.592,0.116    c-0.581,4.302-0.296,9.054-0.012,13.292c0.51,7.634-0.198,15.318,0.112,22.968c0.309,7.631-0.08,15.283,0.277,22.913    c0.188,4.035,0.903,8.834,0.198,12.812c-0.173,0.976-0.412,1.674-0.728,2.173c-2.93,0.085-5.855,0.239-8.77,0.416    c-0.275,0.017-0.534,0.037-0.791,0.057c-0.271-0.108-0.512-0.242-0.672-0.437c-0.665-0.805-0.319-5.386-0.329-6.527    c-0.027-3.461,0.287-6.81,0.581-10.251c0.597-6.991,0.501-14.011,1.003-21.009C177.113,296.179,178.736,283.505,177.462,271.596z     M174.865,271.07c-1.237,8.339-1.098,16.747-1.641,25.151c-0.391,6.062-1.258,12.176-1.456,18.258    c-0.239,7.376-0.879,14.733-1.161,22.108c-0.226,5.87,1.607,11.808-2.328,17.037c-0.575,0.763-1.35,1.491-2.303,1.542    c-1.163,0.062-2.162-0.953-2.485-2.072c-0.525-1.812-0.008-4.518,0.076-6.418c0.114-2.573,0.495-5.994,0.09-9.014    c0.134-3.642-0.209-7.331-0.344-11.002c-0.274-7.384,0.452-14.82,0.047-22.202c-0.671-12.226-0.414-24.579-1.288-36.811    c1.033,0.201,2.163,0.207,3.02,0.292c2.105,0.211,4.334,0.419,6.372-0.204c0.262,0.693,0.585,1.313,0.996,1.809    C173.046,270.253,173.882,270.735,174.865,271.07z M169.903,251.314c0.326,0.889,1.209,1.533,2.39,1.996    c-1.032,2.308-1.759,6.283-1.63,9.875c-0.771,0.03-1.527,0.202-2.379,0.258c-1.387,0.091-2.772-0.188-4.156-0.203    c-0.026,0-0.062,0.001-0.091,0.001c0.386-0.546,0.664-1.2,0.782-2.004c0.302-2.037-0.359-2.573,0.744-4.664    c0.801-1.522,1.402-1.843,2.399-3.035C168.6,252.774,169.305,252.07,169.903,251.314z M98.086,29.613    c0.452-1.236,0.781-2.972,1.856-3.845c1.734-1.412,2.848,2.577,3.31,3.839c0.392,1.072,2.361,5.798-0.31,5.593    c-1.172-0.09-2.249-1.244-3.467-0.784c-0.583,0.221-1.048,0.817-1.669,0.768c-0.322-0.025-0.584-0.232-0.752-0.509    c-0.133-0.221-0.207-0.487-0.202-0.744C96.873,32.657,97.646,30.818,98.086,29.613z M94.177,43.014    c1.325-3.08,3.926-3.911,6.493-5.281c2.567,1.37,5.169,2.201,6.494,5.281c1.114,2.59,0.96,6.228,1.501,9.392    c-1.663-0.927-3.641-1.609-5.409-2.263c-2.046-0.757-4.708,0.199-6.706,0.715c-0.719,0.185-3.715,0.624-3.871,1.547    C93.215,49.24,93.062,45.603,94.177,43.014z M77.075,88.812c3.885-3.838,9.145-5.638,12.586-10.091    c2.441-3.159,3.237-7.061,2.85-10.998c-0.404-4.108-2.74-8.545,1.35-11.878c1.873-1.527,4.521-1.831,6.807-2.706    c2.288,0.875,4.935,1.18,6.809,2.706c4.09,3.332,1.753,7.77,1.35,11.878c-0.387,3.936,0.41,7.839,2.85,10.998    c3.44,4.453,8.701,6.253,12.586,10.091c4.776,4.719,2.566,9.91,3.387,15.188c-1.713-1.493-3.71-2.849-5.069-3.951    c-1.007-0.816-2.117-0.634-2.892,0.373c-0.842,1.093-3.703,3.265-5.08,3.245c-1.206-0.018-3.423-1.585-4.712-1.953    c-3.001-0.856-6.13-1.453-9.228-1.232c-3.099-0.22-6.227,0.378-9.228,1.232c-1.289,0.368-3.506,1.935-4.712,1.953    c-1.378,0.02-4.239-2.152-5.08-3.245c-0.774-1.007-1.884-1.188-2.892-0.373c-1.359,1.102-3.355,2.458-5.069,3.951    C74.51,98.722,72.299,93.531,77.075,88.812z M126.352,152.587c-0.353-0.095-0.719-0.192-1.105-0.298    c-2.019-0.548-4.071-1.616-6.078-0.418c-0.107,0.064-0.189,0.148-0.285,0.221c0.084-2.744-0.123-5.545-0.132-8.16    c-0.015-4.909-0.411-9.766-0.56-14.669c-0.128-4.198-0.444-8.407-0.419-12.595c0.02-3.361,0.727-6.661,0.677-9.975    c1.125-0.749,2.156-1.758,3.039-2.752c1.571,1.325,3.267,2.78,4.313,4.32c1.413,2.082,1.084,4.437,0.988,7.035    c-0.216,5.824-0.189,11.613-0.617,17.427C125.988,135.209,124.45,147.722,126.352,152.587z M114.43,146.085    c0.004,3.34-0.634,7.426,0.398,10.739c-1.534,0.488-4.031,0.152-5.862-0.059c1.497-16.996,0.549-34.254-0.335-51.263    c1.933,0.643,3.826,2,5.746,2.308c0.252,0.04,0.5,0.036,0.747,0.033c-0.69,7.524-0.423,14.844-0.75,22.467    C114.149,135.574,114.426,140.807,114.43,146.085z M104.828,112.676c-0.01,4.883,0.408,9.765,0.412,14.645    c0.008,9.699-0.711,19.472-1.124,29.178c-1.155-0.015-2.308,0.028-3.448,0.166c-1.139-0.137-2.291-0.18-3.446-0.166    c-0.413-9.705-1.131-19.478-1.124-29.178c0.004-4.882,0.422-9.763,0.412-14.645c-0.005-2.43,0.224-5.484-0.743-7.858    c1.632-0.277,3.278-0.486,4.902-0.791c1.625,0.305,3.27,0.515,4.902,0.791C104.604,107.192,104.833,110.246,104.828,112.676z     M92.371,156.765c-1.832,0.211-4.328,0.547-5.862,0.059c1.033-3.313,0.395-7.4,0.399-10.739    c0.005-5.278,0.281-10.511,0.056-15.774c-0.328-7.624-0.061-14.942-0.75-22.467c0.248,0.002,0.495,0.007,0.747-0.033    c1.919-0.307,3.813-1.664,5.746-2.308C91.824,122.511,90.874,139.768,92.371,156.765z M82.455,152.094    c-0.096-0.072-0.177-0.157-0.285-0.221c-2.008-1.198-4.059-0.131-6.078,0.418c-0.386,0.104-0.753,0.203-1.105,0.298    c1.901-4.865,0.363-17.378,0.18-19.863c-0.429-5.814-0.401-11.603-0.617-17.427c-0.096-2.599-0.425-4.953,0.988-7.035    c1.045-1.54,2.742-2.996,4.313-4.32c0.883,0.994,1.914,2.003,3.039,2.752c-0.05,3.313,0.657,6.615,0.677,9.975    c0.025,4.188-0.291,8.398-0.419,12.595c-0.15,4.903-0.546,9.76-0.56,14.669C82.579,146.547,82.371,149.349,82.455,152.094z     M74.796,156.273c0.599-0.248,3.636-1.289,4.307-1.144c2.606,0.559,1.312,1.243,2.444,2.59c2.625,3.122,3.628,3.107,7.847,3.128    c3.436,0.017,7.839,0.363,11.275-0.316c3.436,0.679,7.839,0.332,11.275,0.316c4.218-0.021,5.221-0.005,7.847-3.128    c1.133-1.347-0.161-2.031,2.444-2.59c0.671-0.145,3.708,0.896,4.307,1.144c3.422,1.416,1.873,3.381,1.693,7.222    c-0.235,5.002-0.348,9.81,0.5,14.639c-0.056-0.037-0.115-0.058-0.17-0.097c-4.47-3.205-6.048-6.968-11.807-8.299    c-2.714-0.627-5.404-1.154-8.041-1.027c-3.767-1.914-9.283-1.319-13.09-0.868c-2.582,0.306-7.075,0.71-10.824,1.844    c-0.075,0.017-0.15,0.033-0.226,0.051c-5.758,1.331-7.337,5.094-11.807,8.299c-0.055,0.039-0.114,0.061-0.17,0.097    c0.848-4.828,0.735-9.638,0.5-14.639C72.923,159.654,71.374,157.689,74.796,156.273z M52.209,186.007    c0.553-1.757,8.974-0.902,10.504-1.019c3.058-0.232,7.725,0.026,10.496-1.514c3.832-2.13,4.83-7.235,8.741-9.409    c2.218-1.234,5.412-2.056,8.599-2.479c2.331-0.075,4.758,0.091,7.016,0.021c2.798-0.087,6.119,0.104,9.127-0.344    c4.3,0.101,9.507,1.028,12.696,2.802c3.912,2.174,4.91,7.279,8.741,9.409c2.77,1.54,7.437,1.282,10.495,1.514    c1.53,0.116,9.951-0.74,10.504,1.019c0.911,2.896-10.153,1.935-11.599,1.915c-6.006-0.086-9.363-0.566-13.612-5.177    c-2.075-2.253-3.854-4.976-6.577-6.54c-1.659-0.953-3.36-1.344-5.094-1.464c-0.008-0.004-0.014-0.009-0.024-0.013    c-4.858-1.883-10.24-1.369-15.328-0.989c-1.712,0.127-4.663,0.169-6.87,0.966c-2.06,0.036-4.073,0.376-6.029,1.501    c-2.723,1.565-4.502,4.287-6.577,6.54c-4.249,4.611-7.606,5.091-13.612,5.177C62.362,187.942,51.299,188.902,52.209,186.007z     M130.928,206.105c0.006-4.759,0.401-9.76-0.253-14.502c0.463,0.03,0.937,0.04,1.439,0.006c2.529-0.175,8.263,0.684,13.058,0.267    c-1.247,8.619,0.293,18.002,0.147,26.65c-0.081,4.808-0.376,9.583-0.401,14.381c-0.012,2.179,0.205,4.268,0.283,6.444    c0.101,2.864,1.117,4.073-1.947,4.315c-2.9,0.229-10.887,1.426-12.131-1.162c-0.994-2.068-0.002-6.786,0.005-9.198    c0.01-3.173,0.011-6.348,0.045-9.521C131.234,217.895,130.919,212.003,130.928,206.105z M73.717,231.687    c2.232,0.896,5.42,0.395,7.5,0.357c4.811-0.089,9.596,0.108,14.406,0.031c5.539-0.088,11.053,0.15,16.586,0.189    c4.115,0.029,10.688,1.331,14.334-0.705c0.099-0.055,0.176-0.127,0.252-0.199c0.286-0.077,0.564-0.169,0.831-0.281    c0.01,3.651-0.017,7.301-0.056,10.948c-0.013,1.186,0.043,2.131,0.242,2.888c-2.815-0.172-5.702-0.268-8.538-0.133    c-2.3-0.247-4.681-0.226-6.856-0.4c-4.221-0.338-8.477-0.391-12.703-0.523c-4.704-0.148-9.525-0.24-14.226,0.025    c-2.85,0.16-6.782-0.104-9.759,0.915c-0.737,0.032-1.471,0.07-2.201,0.115c0.199-0.757,0.254-1.702,0.242-2.888    C73.732,238.583,73.712,235.135,73.717,231.687z M74.356,191.683c0.064-0.383,0.013-0.727-0.106-1.029    c1.981-0.946,3.698-2.492,5.503-4.311c1.719-1.734,2.967-4.047,4.775-5.7c1.585-1.448,3.432-2.156,5.36-2.698    c2.624,0.397,5.69-0.145,8.065-0.281c3.856-0.222,8.37,0.634,12.244-0.055c2.374,0.601,4.686,1.275,6.613,3.034    c1.808,1.653,3.056,3.965,4.775,5.7c1.805,1.82,3.521,3.365,5.503,4.311c-0.119,0.303-0.17,0.646-0.106,1.029    c1.39,8.32-0.042,17.433,0.35,25.857c0.165,3.562,0.239,7.129,0.272,10.699c-1.609-0.166-3.474,0.15-5.044,0.252    c-1.565-0.103-3.163-0.078-4.756-0.029c-1.795-0.012-3.596,0.012-5.397,0.076c-0.066-0.002-0.134-0.001-0.199-0.004    c-5.334-0.211-10.612-0.483-15.96-0.468c-5.386,0.015-11.373-0.164-17.024,0.449c-1.651-0.061-3.727-0.461-5.49-0.278    c0.033-3.57,0.107-7.139,0.272-10.699C74.398,209.116,72.967,200.003,74.356,191.683z M70.411,206.105    c0.008,5.898-0.307,11.791-0.243,17.68c0.034,3.173,0.036,6.348,0.045,9.521c0.007,2.412,0.998,7.13,0.005,9.198    c-1.244,2.588-9.23,1.391-12.131,1.162c-3.064-0.242-2.048-1.453-1.947-4.315c0.077-2.176,0.294-4.266,0.283-6.444    c-0.025-4.797-0.321-9.572-0.401-14.381c-0.146-8.649,1.394-18.031,0.147-26.65c4.795,0.417,10.53-0.442,13.059-0.267    c0.501,0.034,0.976,0.024,1.439-0.006C70.01,196.345,70.405,201.345,70.411,206.105z M38.262,253.502    c-1.539-1.383-4.053-3.27-3.918-4.038c0.099-0.558,12.703,0.109,14.424,0.012c6.303-0.356,12.546-0.299,18.803-0.771    c2.516,0.388,5.397,0.279,7.906,0.209c3.566-0.1,7.998,0.831,11.716,0.125c4.171,0.023,8.365-0.14,12.518,0.031    c6.362,0.261,14.848,1.526,21.522,0.053c1.613-0.121,3.19-0.249,4.625-0.209c2.51,0.07,5.391,0.179,7.907-0.209    c6.257,0.47,12.5,0.414,18.803,0.771c1.721,0.097,14.326-0.57,14.424-0.012c0.137,0.768-2.379,2.656-3.918,4.038    c-2.926-0.266-5.918,0.197-8.859,0.17c-5.125-0.047-10.247,0.102-15.384,0.132c-5.389,0.031-10.783,0.047-16.164-0.132    c-1.26-0.042-2.473-0.174-3.664-0.245c-7.432-1.399-15.828-0.876-23.068-0.879c-5.801-0.001-13.374-0.597-19.386,1.175    c-4.679,0.114-9.366,0.107-14.048,0.08c-5.137-0.03-10.259-0.179-15.384-0.132C44.18,253.698,41.187,253.236,38.262,253.502z     M158.166,354.814c-1.751-0.075-3.5-0.171-5.234-0.192c-5.385-0.064-10.783-0.133-16.184-0.184    c0.407-4.884-0.177-9.918-0.144-14.809c0.006-0.851,0.053-1.838,0.09-2.878c0.529-5.298-0.049-10.798-0.097-16.046    c-0.059-6.348,0.326-12.761-0.032-19.096c-0.38-6.722-0.657-13.408-1.121-20.141c-0.335-4.853-1.168-9.748-1.513-14.598    c7.194,0.058,14.404-0.293,21.479-0.825c0.926-0.07,1.954-0.134,2.981-0.262c-1.124,4.592-0.535,10.294-0.448,14.442    c0.159,7.45,0.21,15.05,0.642,22.494c0.464,7.978-0.089,15.955,0.115,23.943c0.113,4.419-0.332,10.16,0.331,15.006    c-0.023,0.343-0.045,0.684-0.078,1.014c-0.349,3.541-0.232,7.369-0.835,10.858C158.042,353.982,158.073,354.408,158.166,354.814z     M157.729,261.334c-3.863,0.965-8.829,0.756-12.86,0.988c-7.289,0.418-14.542,0.45-21.809,0.486    c-2.441-0.131-4.888-0.186-7.331-0.326c-5.766-0.33-11.658-0.953-17.432-0.865c-5.227,0.08-13.956-0.806-19.855,1.193    c-7.323-0.036-14.629-0.065-21.974-0.487c-4.031-0.232-8.997-0.023-12.86-0.988c-3.966-0.991-3.108-2.377-3.524-4.631    c6.316,1.702,14.331,0.571,20.275,0.69c6.323,0.126,12.865,0.34,19.286-0.034c5.383,0.566,11.409-0.463,16.292-0.492    c4.732-0.027,9.445-0.216,14.178-0.186c2.176,0.014,4.357,0.213,6.521,0.247c8.005,0.932,16.349,0.626,24.341,0.467    c5.944-0.119,13.959,1.013,20.275-0.69C160.837,258.956,161.696,260.342,157.729,261.334z M131.614,354.405    c-1.511-0.007-3.023-0.03-4.533-0.028c-8.246,0.004-16.405-1.089-24.633-1.027c-8.193,0.062-16.626-0.383-24.807-0.94    c-2.647-0.18-5.291-0.293-7.935-0.374c0.299-2.893-0.207-6.153-0.33-8.733c-0.201-4.198,0.273-8.743-0.248-13.002    c0.086-3.579-0.014-7.173-0.004-10.503c0.021-7.222,0.171-14.422,0.316-21.631c0.137-6.769,0.366-13.547,0.643-20.318    c0.133-3.227,1.161-7.648,0.175-11.029c3.532-0.085,7.051-0.291,10.547-0.62c1.599,0.158,3.24,0.084,4.835,0.142    c4.838,0.176,9.674-0.108,14.517-0.067c7.419,0.065,15.264,0.989,22.757,0.141c2.71,0.207,5.434,0.337,8.163,0.402    c-0.987,3.381,0.043,7.802,0.175,11.029c0.278,6.771,0.506,13.548,0.643,20.318c0.146,7.208,0.294,14.408,0.316,21.631    c0.012,4.117-0.14,8.635,0.097,13.032c-0.334,2.598-0.147,5.415-0.33,7.748C131.627,345.073,131.131,349.868,131.614,354.405z     M64.742,320.704c-0.051,5.45-0.664,11.17-0.021,16.656c-0.142,2.605-0.131,5.227-0.1,7.837c0.021,1.814-0.456,4.438-0.272,6.74    c-3.528-0.015-7.059,0.046-10.602,0.22c-3.706,0.183-7.553,0.26-11.358,0.57c0.33-3.476-0.077-7.21-0.119-10.617    c-0.001-0.076,0.001-0.16,0.001-0.241c0.705-4.889,0.252-10.728,0.367-15.209c0.203-7.989-0.349-15.965,0.115-23.943    c0.433-7.444,0.484-15.044,0.643-22.494c0.088-4.147,0.677-9.85-0.448-14.442c1.027,0.128,2.054,0.192,2.981,0.262    c7.073,0.533,14.284,0.883,21.478,0.825c-0.344,4.85-1.178,9.745-1.513,14.598c-0.464,6.731-0.742,13.419-1.121,20.141    C64.416,307.944,64.802,314.356,64.742,320.704z M68.602,480.48c-0.04,7.77-1.388,15.843-0.382,23.605    c-1.122-0.001-2.244,0.008-3.366,0.004c-5.373-0.021-10.92,0.209-16.228-0.797c-1.706-0.323-4.405-0.533-5.154-2.119    c-0.806-1.705-0.043-5.835-0.082-7.61c-0.119-5.353-0.106-10.686-0.066-16.02c1.864,0.256,3.799,0.567,5.677,0.622    c5.04,0.147,10.132-0.11,15.168,0.184c1.478,0.087,2.957,0.159,4.437,0.235C68.603,479.217,68.604,479.848,68.602,480.48z     M69.971,396.496c-0.017,5.864-0.151,11.719-0.108,17.585c0.083,11.612-0.488,23.149-1.027,34.739    c-0.388,8.356-0.273,16.795-0.237,25.197c-0.646-0.029-1.294-0.045-1.939-0.076c-5.689-0.279-11.356-0.066-17.052-0.056    c-1.609,0.002-4.07-0.291-6.255-0.091c0.037-4.285,0.075-8.572,0.061-12.872c-0.089-25.677,0.626-51.255-0.671-76.897    c0.728-0.038,1.433-0.084,2.076-0.106c8.51-0.286,16.997,0.015,25.487,0.342C69.714,388.295,69.983,392.422,69.971,396.496z     M74.57,384.423c5.689,0.214,11.38,0.399,17.081,0.383c12.183-0.033,24.366,0.08,36.552,0.216    c-1.134,2.964-0.443,6.571-0.55,9.679c-0.161,4.636,0.266,9.298,0.004,13.931c-0.453,7.996-0.515,15.976-0.751,23.979    c-0.246,8.375,0.691,16.61,1.165,24.973c0.217,3.826,0.822,7.671,0.915,11.504c0.044,1.786-0.094,3.41,0.27,4.976    c-0.402,0.02-0.799,0.037-1.181,0.039c-3.366,0.017-6.698-0.217-10.051-0.006c-6.245,0.394-12.553,0.341-18.814,0.385    c-8.41,0.061-16.872,0.014-25.299-0.254c-0.199-8.779-0.42-17.556-0.246-26.318c0.224-11.276,0.714-22.543,0.792-33.826    C74.519,404.592,76.199,393.933,74.57,384.423z M132.554,496.575c-0.404,1.706-0.588,4.23-1.374,5.813    c-1.041,2.098-0.744,1.484-3.579,1.467c-17.89-0.104-35.8,0.186-53.704,0.226c0.369-8.402,0.279-16.818,0.107-25.233    c5.929,0.266,11.86,0.482,17.795,0.704c10.584,0.397,21.196-0.652,31.747-0.186c2.703,0.119,6.249-0.809,8.38,0.994    c0.433,0.367,0.809,0.845,1.107,1.469c0.989,2.07,0.624,4.85,0.74,7.101C133.899,491.42,133.128,494.153,132.554,496.575z     M135.749,474.278c-0.949-0.291-1.991-0.372-3.055-0.372c1.072-5.611,0.14-11.27-0.147-16.953    c-0.413-8.153-1.355-16.177-1.117-24.342c0.22-7.545,0.234-15.08,0.607-22.622c0.216-4.362,0.122-8.721,0.127-13.09    c0.005-3.875,0.621-7.983,0.089-11.832c5.886,0.068,11.773,0.134,17.661,0.193c0.245,7.253-0.76,14.803-0.927,22.052    c-0.199,8.626,0.749,17.325,0.214,25.955c-0.522,8.409-0.476,16.933-0.385,25.37c0.055,5.022,0.685,10.015,0.839,15.034    c0.088,2.887,1.333,8.556-1.203,10.743c-1.51,1.302-4.566,1.541-6.461,1.306c-1.933-0.241-2.608-1.624-2.837-3.519    C138.76,478.946,139.762,475.506,135.749,474.278z M174.77,438.865c-0.046,7.837-0.119,15.671-0.151,23.47    c-0.014,3.661,0.725,7.6,0.178,11.263c-0.589,3.941-2.945,5.853-2.378,9.485c-0.069-0.439-14.144,0.649-15.523,0.737    c-1.782,0.113-2.966,0.107-3.245-1.941c-0.322-2.364,0.495-5.012,0.408-7.435c-0.164-4.635-0.704-9.247-0.899-13.88    c-0.382-9.068-0.176-18.245,0.093-27.297c0.277-9.325-0.546-18.673-0.236-27.982c0.14-4.198,0.29-8.41,0.38-12.597    c0.053-2.471,0.128-5.015-0.483-7.4c7.594,0.072,15.191,0.117,22.788,0.119C173.571,402.898,174.873,421.304,174.77,438.865z     M185.412,487.196c6.329-0.139,12.613-0.414,18.951-0.418c1.699,0,3.416,0.038,5.139,0.082c4.568,0.697,10.3,0.268,13.1,0.296    c4.883,0.046,9.764,0.316,14.632,0.37c1.86,0.021,3.625,0.042,5.255-0.406c5.573,0.172,11.141,0.495,16.712,0.746    c6.56,0.297,14.584,0.991,21.354-0.481c2.942-0.094,5.885-0.201,8.83-0.229c2.799-0.026,8.531,0.402,13.1-0.296    c1.724-0.044,3.44-0.082,5.139-0.082c6.338,0.004,12.623,0.279,18.951,0.418c12.773,0.28,25.365-0.388,38.081,1.171    c2.563,0.315,6.263-0.673,8.081,1.624c0.564,0.712,0.827,1.554,0.953,2.437c-6.417,0.296-13.236-0.638-19.706-0.426    c-8.879,0.289-17.728,0.646-26.629,0.438c-8.995-0.21-17.986-0.35-26.983-0.12c-6.788,0.175-13.834-0.679-20.709-0.582    c-6.868-0.3-13.849,0.203-20.629,0.042c-4.983-0.119-9.864-0.078-14.848,0.008c-2.512,0.044-5.081,0.026-7.63,0.167    c-8.187-0.7-16.753,0.575-24.944,0.366c-8.997-0.23-17.987-0.09-26.983,0.12c-8.9,0.208-17.75-0.15-26.629-0.438    c-6.469-0.21-13.29,0.723-19.706,0.426c0.127-0.884,0.391-1.726,0.953-2.437c1.819-2.297,5.518-1.31,8.081-1.624    C160.047,486.808,172.64,487.476,185.412,487.196z M187.785,393.444c0.012,4.863-0.171,9.705-0.081,14.57    c0.158,8.535,0.22,17.033,0.184,25.579c-0.034,8.088,0.326,16.128,0.317,24.202c-0.006,4.713-0.398,9.845-0.37,14.868    c-2.757,0.129-5.5,0.367-8.147,1.085c0.001-0.051,0.014-0.1,0.014-0.151c0.01-3.293-0.107-6.598-0.138-9.883    c-0.081-8.654-0.287-17.284-0.337-25.944c-0.101-17.205,1.158-35.23-0.928-52.369c3.217-0.005,6.436-0.032,9.653-0.057    C187.459,388.019,187.778,390.7,187.785,393.444z M178.987,476.851c0.703,0.04,1.413-0.012,2.205-0.078    c2.284-0.191,4.503-0.411,6.743-0.584c0.12,2.154,0.354,4.264,0.779,6.285c-3.907,0.209-7.818,0.347-11.73,0.464    C177.024,480.941,178.195,478.938,178.987,476.851z M198.933,410.693c-0.164,9.902,0.266,19.775,0.061,29.675    c-0.173,8.385-1.499,17.106,0.085,25.426c0.379,1.987,0.686,4.131,1.178,6.162c-2.614-0.066-5.418,0.315-7.806,0.489    c-0.055-5.523,0.182-11.087,0.115-16.535c-0.096-7.794-0.643-15.555-0.676-23.368c-0.034-8.198-0.07-16.344-0.439-24.528    c-0.324-7.192,0.722-15.55-1.055-22.681c0.723-0.007,1.446-0.004,2.169-0.013c2.163-0.026,4.333-0.052,6.507-0.084    C198.355,393.676,199.073,402.228,198.933,410.693z M223.31,391.048c0.702,0.984,0.185,5.402,0.19,6.905    c0.011,3.33-0.256,6.552-0.419,9.862c-0.323,6.595,0.036,13.148-0.083,19.742c-0.218,12.047-0.589,24.113-0.732,36.162    c-0.047,3.979,1.168,9.227-0.582,12.517c-1.148,2.161-2.65,3.717-2.537,5.813c-3.527-0.256-7.249-0.638-10.691-0.254    c0.35-3.234,0.16-4.864-1.744-7.719c-1.517-2.273-1.884-4.231-2.448-6.989c-1.808-8.834-0.794-17.762-0.677-26.717    c0.239-18.22,0.397-37.032-1.548-55.185c5.766-0.099,11.543-0.242,17.279-0.524c0.199-0.01,0.401-0.017,0.601-0.026    c-0.351,0.57-0.592,1.16-0.67,1.733C218.744,390.172,221.86,389.015,223.31,391.048z M239.706,417.348    c-0.012-6.274-0.554-13.151,0.275-19.373c0.635-4.756,4.618-7.63,2.368-12.587c-0.236-0.521-0.512-0.959-0.806-1.359    c5.624,0.113,11.265,0.107,16.875,0.017c4.067-0.065,8.118-0.203,12.174-0.215c-0.354,0.445-0.677,0.951-0.952,1.558    c-2.251,4.958,1.733,7.832,2.368,12.587c0.831,6.222,0.287,13.098,0.275,19.373c-0.011,5.893,0.001,11.874,0.236,17.764    c0.419,10.476,1.343,20.952,1.452,31.436c0.021,2.004,1.084,5.976,0.109,7.875c-0.351,0.685-1.814,1.401-2.393,2.198    c-1.336,1.833-1.802,3.81-1.509,5.911c-4.055-0.075-8.137,0.11-12.083,0.01c-4.809-0.123-10.65-0.803-16.218-0.638    c0.126-1.869-0.374-3.634-1.575-5.283c-0.579-0.797-2.042-1.512-2.393-2.198c-0.975-1.898,0.088-5.871,0.109-7.875    c0.109-10.485,1.033-20.961,1.452-31.436C239.705,429.223,239.715,423.242,239.706,417.348z M292.738,386.366    c-0.076-0.573-0.318-1.163-0.67-1.733c0.199,0.01,0.401,0.017,0.601,0.026c5.735,0.283,11.512,0.425,17.279,0.524    c-1.943,18.154-1.787,36.966-1.548,55.185c0.117,8.955,1.133,17.883-0.677,26.717c-0.564,2.757-0.931,4.714-2.448,6.989    c-1.904,2.855-2.094,4.485-1.744,7.719c-3.441-0.383-7.162-0.002-10.691,0.254c0.112-2.095-1.389-3.652-2.537-5.813    c-1.749-3.29-0.534-8.537-0.582-12.517c-0.144-12.049-0.514-24.116-0.733-36.162c-0.119-6.594,0.24-13.147-0.083-19.742    c-0.163-3.311-0.43-6.532-0.419-9.862c0.005-1.503-0.512-5.921,0.19-6.905C290.129,389.015,293.246,390.172,292.738,386.366z     M312.997,440.367c-0.205-9.9,0.224-19.773,0.061-29.675c-0.14-8.465,0.578-17.017-0.139-25.458    c2.173,0.032,4.343,0.058,6.507,0.084c0.723,0.008,1.446,0.006,2.169,0.013c-1.776,7.131-0.73,15.489-1.054,22.681    c-0.369,8.183-0.404,16.329-0.439,24.528c-0.033,7.813-0.581,15.574-0.675,23.368c-0.068,5.448,0.17,11.012,0.115,16.535    c-2.387-0.173-5.192-0.556-7.806-0.489c0.49-2.03,0.799-4.174,1.178-6.162C314.495,457.473,313.17,448.752,312.997,440.367z     M319.456,475.94c-0.08,2.127-0.218,4.243-0.458,6.337c-3.565-0.127-7.137-0.122-10.711-0.077    c-0.068-2.161-0.038-3.112,1.21-5.221c0.345-0.585,0.633-0.974,0.893-1.381C313.353,476.034,316.505,475.882,319.456,475.94z     M286.589,388.232c-0.75,0.248-1.107,0.816-1.199,1.575c-1.034,8.42-0.286,17.654-0.1,26.152    c0.185,8.421-0.058,16.888,0.392,25.337c0.475,8.919,0.411,18.087,0.044,26.989c-0.102,2.473-1.059,6.666-0.015,8.966    c0.465,1.026,3.741,3.845,3.013,5c-0.286,0.453-0.924,0.487-1.46,0.47c-4.216-0.137-8.289-0.223-12.508-0.223    c-0.416,0.019-0.832,0.025-1.25,0.03c0.884-2.853,1.195-2.212,3.302-5.44c1.67-2.56,0.874-5.27,0.748-8.231    c-0.357-8.377-1.021-16.788-1.074-25.159c-0.065-10.256-0.494-20.597-0.757-30.864c-0.126-4.924,0.204-10.187-0.369-15.076    c-0.543-4.628-4.749-10.138-0.578-13.837c4.194,0.263,8.421,0.382,12.606,0.526c0.685,0.589,1.349,1.307,1.402,1.935    C288.906,387.813,288.116,387.728,286.589,388.232z M236.636,397.757c-0.573,4.889-0.243,10.152-0.369,15.076    c-0.264,10.268-0.692,20.607-0.757,30.864c-0.053,8.371-0.717,16.782-1.074,25.159c-0.126,2.96-0.922,5.671,0.748,8.231    c2.004,3.07,2.383,2.646,3.177,5.052c-0.835,0.091-1.651,0.22-2.455,0.372c-3.746,0.017-7.411,0.088-11.177,0.21    c-0.537,0.017-1.174-0.017-1.46-0.47c-0.728-1.155,2.548-3.975,3.013-5c1.044-2.298,0.087-6.493-0.015-8.966    c-0.367-8.9-0.431-18.069,0.044-26.989c0.45-8.451,0.207-16.916,0.392-25.337c0.186-8.498,0.934-17.732-0.1-26.152    c-0.094-0.761-0.449-1.327-1.199-1.575c-1.528-0.505-2.317-0.419-2.194-1.851c0.053-0.628,0.717-1.346,1.402-1.935    c4.185-0.144,8.411-0.262,12.606-0.526C241.385,387.62,237.178,393.13,236.636,397.757z M202.493,476.979    c1.248,2.11,1.277,3.061,1.21,5.221c-3.573-0.045-7.145-0.05-10.71,0.077c-0.24-2.094-0.379-4.211-0.458-6.337    c2.951-0.058,6.103,0.094,9.065-0.342C201.859,476.006,202.147,476.394,202.493,476.979z M324.205,393.444    c0.006-2.744,0.325-5.426-0.169-8.097c3.217,0.025,6.436,0.052,9.653,0.057c-2.086,17.137-0.827,35.164-0.928,52.369    c-0.051,8.659-0.256,17.29-0.337,25.944c-0.03,3.285-0.147,6.59-0.138,9.883c0,0.051,0.013,0.101,0.014,0.151    c-2.645-0.718-5.389-0.956-8.147-1.085c0.028-5.023-0.365-10.156-0.37-14.868c-0.01-8.073,0.351-16.114,0.317-24.202    c-0.037-8.547,0.025-17.045,0.183-25.579C324.376,403.148,324.193,398.306,324.205,393.444z M324.055,476.188    c2.24,0.173,4.459,0.393,6.743,0.584c0.792,0.066,1.502,0.119,2.205,0.078c0.792,2.087,1.961,4.09,2.002,6.087    c-3.912-0.118-7.822-0.255-11.729-0.464C323.702,480.454,323.935,478.343,324.055,476.188z M358.59,392.687    c0.09,4.187,0.241,8.399,0.38,12.597c0.31,9.31-0.512,18.657-0.236,27.982c0.268,9.052,0.475,18.229,0.093,27.297    c-0.195,4.633-0.735,9.245-0.899,13.88c-0.085,2.423,0.73,5.071,0.408,7.435c-0.279,2.048-1.461,2.054-3.245,1.941    c-1.378-0.088-15.454-1.177-15.523-0.737c0.566-3.632-1.79-5.543-2.378-9.485c-0.547-3.663,0.192-7.603,0.178-11.263    c-0.032-7.799-0.104-15.633-0.151-23.47c-0.103-17.562,1.198-35.967-0.934-53.46c7.597-0.001,15.193-0.046,22.788-0.119    C358.462,387.672,358.538,390.216,358.59,392.687z M373.82,496.469c0.032,0.585,0.145,1.363,0.255,2.222    c-7.338-1.041-15.405,0.099-22.754,0.055c-8.633-0.052-17.306,0.524-25.939,0.725c-9.502,0.223-18.993,0.66-28.5,0.741    c-3.28,0.029-6.555-0.077-9.828-0.223c-0.039-0.137-0.145-0.258-0.326-0.274c-9.168-0.874-18.245-0.687-27.444-0.577    c-4.472,0.055-8.924,0.344-13.389,0.284c-3.157-0.043-6.398-0.476-9.48,0.036c-7.098,0.256-14.191,0.817-21.308,0.755    c-9.507-0.081-18.998-0.518-28.5-0.741c-8.633-0.202-17.306-0.778-25.939-0.725c-7.349,0.044-15.416-1.096-22.754-0.055    c0.11-0.858,0.223-1.637,0.255-2.222c0.04-0.754,0.007-1.584,0.015-2.419c1.604,0.404,3.4,0.17,5.084,0.24    c4.583,0.19,9.165,0.356,13.747,0.531c8.938,0.338,17.879,0.661,26.84,0.443c16.008-0.392,32.479,0.95,48.503-0.261    c3.622,0.329,7.546-0.271,11.071-0.37c5.206-0.148,10.401-0.103,15.608,0.024c4.953,0.121,9.812,0.012,14.757,0.008    c0.813,0,1.624,0.017,2.433,0.039c17.087,1.71,34.764,0.141,51.907,0.56c8.961,0.22,17.903-0.103,26.84-0.443    c4.581-0.174,9.164-0.341,13.747-0.531c1.682-0.07,3.478,0.164,5.082-0.24C373.813,494.886,373.779,495.715,373.82,496.469z     M372.346,505.884c-1.087,0.413-2.58-0.084-3.698-0.131c-2.047-0.086-4.127,0.125-6.172,0.214    c-8.782,0.38-17.63-0.571-26.46-0.294c-15.015,0.47-30.378-0.457-45.414,0.864c-11.649-0.661-23.326-0.165-34.989-0.741    c-7.023-0.348-14.219,0.192-21.233,0.653c-4.088,0.269-8.6-0.214-12.883,0.097c-15.071-1.336-30.471-0.402-45.522-0.875    c-8.832-0.277-17.679,0.674-26.46,0.294c-2.046-0.089-4.126-0.299-6.172-0.214c-1.118,0.047-2.612,0.545-3.698,0.131    c-1.955-0.743-2.104-3.24-1.903-5.613c7.479,0.966,15.436,0.911,22.927,0.926c8.64,0.018,17.299,0.548,25.939,0.762    c16.823,0.418,33.616,1.15,50.418,0.076c7.318,1.661,16.344,0.203,23.374-0.007c5.151-0.154,10.737,0.33,16.158,0.112    c16.271,0.931,32.535,0.224,48.826-0.18c8.64-0.215,17.299-0.744,25.939-0.762c7.492-0.015,15.449,0.04,22.927-0.926    C374.45,502.644,374.301,505.139,372.346,505.884z M376.241,474.278c-4.013,1.228-3.012,4.668-3.404,7.922    c-0.229,1.895-0.905,3.278-2.837,3.519c-1.896,0.235-4.951-0.004-6.461-1.306c-2.536-2.187-1.29-7.856-1.203-10.743    c0.153-5.018,0.785-10.012,0.839-15.034c0.091-8.437,0.138-16.961-0.385-25.37c-0.535-8.63,0.413-17.33,0.214-25.955    c-0.167-7.249-1.172-14.8-0.927-22.052c5.887-0.059,11.775-0.126,17.661-0.193c-0.533,3.849,0.083,7.957,0.088,11.832    c0.006,4.37-0.089,8.729,0.127,13.09c0.374,7.542,0.388,15.076,0.608,22.622c0.237,8.167-0.705,16.19-1.117,24.342    c-0.287,5.683-1.22,11.342-0.147,16.953C378.232,473.905,377.19,473.987,376.241,474.278z M384.388,503.855    c-2.835,0.017-2.538,0.63-3.579-1.467c-0.786-1.583-0.969-4.105-1.374-5.813c-0.573-2.423-1.346-5.155-1.218-7.647    c0.115-2.252-0.249-5.03,0.74-7.101c0.298-0.623,0.673-1.103,1.107-1.469c2.132-1.802,5.677-0.875,8.38-0.994    c10.551-0.465,21.163,0.583,31.747,0.186c5.934-0.222,11.866-0.439,17.794-0.704c-0.172,8.416-0.262,16.831,0.107,25.233    C420.188,504.04,402.278,503.749,384.388,503.855z M438.081,474.226c-8.426,0.268-16.889,0.315-25.299,0.254    c-6.26-0.045-12.569,0.008-18.814-0.385c-3.353-0.211-6.685,0.024-10.051,0.006c-0.382-0.001-0.779-0.019-1.181-0.039    c0.363-1.565,0.226-3.19,0.27-4.976c0.093-3.833,0.698-7.676,0.914-11.504c0.474-8.363,1.41-16.598,1.165-24.973    c-0.236-8.003-0.298-15.983-0.752-23.979c-0.262-4.632,0.164-9.295,0.004-13.931c-0.108-3.108,0.584-6.715-0.55-9.679    c12.185-0.137,24.368-0.249,36.551-0.216c5.701,0.015,11.392-0.169,17.081-0.383c-1.629,9.509,0.051,20.169,0.116,29.659    c0.078,11.283,0.568,22.55,0.792,33.826C438.501,456.67,438.281,465.447,438.081,474.226z M468.517,501.174    c-0.749,1.585-3.448,1.795-5.154,2.119c-5.309,1.005-10.855,0.775-16.228,0.797c-1.122,0.005-2.244-0.006-3.366-0.004    c1.006-7.763-0.342-15.835-0.382-23.605c-0.004-0.632-0.001-1.263-0.002-1.896c1.479-0.076,2.957-0.148,4.437-0.235    c5.036-0.294,10.128-0.037,15.168-0.184c1.877-0.055,3.813-0.366,5.677-0.622c0.039,5.334,0.052,10.667-0.066,16.02    C468.56,495.339,469.323,499.468,468.517,501.174z M468.577,460.922c-0.014,4.3,0.024,8.586,0.061,12.872    c-2.186-0.199-4.647,0.094-6.255,0.091c-5.695-0.011-11.362-0.224-17.052,0.056c-0.645,0.031-1.293,0.047-1.939,0.076    c0.036-8.401,0.151-16.842-0.237-25.197c-0.539-11.589-1.11-23.125-1.027-34.739c0.042-5.866-0.093-11.721-0.108-17.585    c-0.012-4.076,0.256-8.201-0.334-12.235c8.49-0.326,16.978-0.628,25.488-0.342c0.642,0.021,1.347,0.068,2.076,0.106    C467.951,409.667,468.666,435.245,468.577,460.922z M469.161,380.162c-4.27,1.002-9.272-0.214-13.648-0.078    c-4.302,0.132-8.497,0.265-12.804,0.145c-19.534-0.545-39.09-0.884-58.624-0.348c-20.653,0.567-41.297,0.232-61.964,0.521    c-9.471,0.133-19.087-0.091-28.563-0.437c-8.516-0.311-17.309-1.782-25.842-1.022c-2.22,0.026-4.428,0.081-6.603,0.173    c-4.885,0.207-9.819,0.09-14.739,0.062c-9.185-1.247-18.728,0.45-27.945,0.787c-9.476,0.345-19.091,0.57-28.563,0.437    c-20.666-0.29-41.311,0.046-61.964-0.521c-19.534-0.537-39.089-0.197-58.624,0.348c-4.307,0.12-8.502-0.012-12.804-0.145    c-4.376-0.135-9.378,1.08-13.648,0.078c-4.312-1.011-2.138-2.536-2.034-6.127c0.076-2.599-0.673-4.757-1.725-6.852    c0.817,0.074,1.571,0.161,2.203,0.3c7.07,1.554,14.652,1.366,21.846,1.547c8.776,0.221,17.599,1.502,26.381,1.31    c15.487-0.34,30.915-1.586,46.419-1.58c20.986,0.009,41.994,0.316,62.968-0.547c11.445-0.471,22.973-0.066,34.473,0.031    c0.683,0.114,1.426,0.151,2.29,0.189c5.11,0.218,10.265-0.057,15.384-0.166c3.478-0.075,6.949-0.18,10.42-0.28    c17.15,0.765,34.493-0.478,51.648,0.228c20.973,0.863,41.982,0.557,62.968,0.547c15.505-0.006,30.934,1.241,46.419,1.58    c8.782,0.192,17.605-1.089,26.381-1.31c7.193-0.18,14.776,0.007,21.846-1.547c0.634-0.139,1.387-0.227,2.203-0.3    c-1.053,2.095-1.801,4.254-1.725,6.852C471.3,377.626,473.473,379.15,469.161,380.162z M478.371,363.047    c-0.76,0.662-3.455,0.268-4.777,0.405c-2.731,0.281-5.435,0.445-8.186,0.495c-7.332,0.132-14.68-0.62-22.013-0.33    c-29.967,1.186-60.123,0.987-90.125-0.183c-9.203-0.359-18.542-1.053-27.752-0.909c-7.789,0.122-15.551,0.95-23.362,0.987    c-10.399,0.051-20.813-0.14-31.216-0.19c-6.206-0.431-12.53-0.094-18.625-0.001c-0.307,0.005-0.611,0.019-0.918,0.026    c-13.839-0.122-27.716,0.234-41.564,0.166c-7.812-0.038-15.573-0.865-23.362-0.987c-9.21-0.144-18.549,0.551-27.752,0.909    c-30.002,1.169-60.158,1.369-90.125,0.183c-7.335-0.29-14.681,0.463-22.013,0.33c-2.751-0.05-5.455-0.214-8.186-0.495    c-1.321-0.137-4.018,0.258-4.777-0.405c-4.85-4.223,2.322-4.906,3.797-4.951c14.255-0.433,28.646,0.128,42.907,0.527    c6.974,0.195,14.042,0.429,21.012,0.355c8.256-0.087,16.401,0.972,24.669,0.867c13.931-0.177,28.432,0.683,42.273-0.962    c2.817-0.334,4.108-1.203,4.624-4.122c1.114-6.286,8.526-3.353,12.791-3.387c4.352-0.034,8.664-0.004,13.006,0.218    c6.628,0.338,13.237,0.899,19.858,1.09c2.808,0.082,5.582,0.552,8.376,0.414c0.522-0.014,1.085-0.061,1.667-0.119    c3.021,0.088,6.081-0.075,9.03,0.123c6.057,0.406,12.174,0.425,18.253,0.488c5.928,0.061,11.811-0.177,17.721-0.202    c3.33-0.015,7.278,0.24,10.904-0.322c0.185,0.011,0.378,0.027,0.556,0.032c2.793,0.139,5.568-0.332,8.376-0.414    c6.621-0.192,13.231-0.751,19.858-1.09c4.343-0.222,8.654-0.252,13.007-0.218c4.264,0.033,11.678-2.899,12.791,3.387    c0.516,2.919,1.807,3.788,4.624,4.122c13.84,1.643,28.342,0.784,42.273,0.962c8.268,0.106,16.413-0.954,24.669-0.867    c6.97,0.074,14.039-0.16,21.012-0.355c14.259-0.399,28.652-0.962,42.907-0.527C476.049,358.142,483.221,358.824,478.371,363.047z"/>
	</g>
</g>
<g>
	<g>
		<path d="M311.18,152.676c-0.211-2.13-1.871-2.461-3.622-3.108c-1.486-0.549-4.285-1.806-5.845-1.051    c-1.617,0.781-1.241,3.074-1.383,4.565c-0.197,2.066-1.114,4.886,0.661,6.479c1.438,1.289,3.824,1.806,5.671,2.092    c1.534,0.237,3.554,0.286,4.262-1.401c0.259-0.619,0.379-1.318,0.407-2.041C311.599,156.379,311.339,154.282,311.18,152.676z     M308.356,158.228c-0.028,0.183-0.057,0.365-0.084,0.547c-0.08,0.011-0.154,0.018-0.271,0.044    c-0.803-0.303-1.867-0.122-2.733-0.486c-0.678-0.285-1.992-0.972-2.108-1.228c-0.544-1.192-0.467-4.022,0.525-5.228    c0.177-0.215,0.383-0.379,0.621-0.471c1.509-0.59,4.193,0.913,4.073,2.554c-0.056,0.76-0.091,1.514-0.091,2.276    C308.287,156.885,308.287,157.564,308.356,158.228z"/>
	</g>
</g>
<g>
	<g>
		<path d="M296.902,149.253c0.05-0.861,0.14-1.743-0.43-2.475c-1.308-1.683-4.881-1.821-6.799-2.133    c-1.718-0.28-4.624-0.416-5.847,1.153c-0.532,0.681-0.698,1.669-0.731,2.509c-0.058,1.501,0.095,3.121,0.113,4.634    c0.023,1.934,0.393,4.304,2.458,5.065c1.204,0.444,2.852,0.29,4.112,0.464c1.112,0.154,2.315,0.265,3.44,0.303    c3.671,0.123,4.007-3.661,3.528-7.001C296.847,150.942,296.852,150.094,296.902,149.253z M293.824,152.219    c-0.089,0.829-0.096,2.255-0.396,3.227c-0.724,0.007-1.551-0.24-2.193-0.285c-1.318-0.093-2.636-0.24-3.951-0.335    c-1.412-0.101-1.496-1.309-1.583-2.59c-0.081-1.162-0.448-2.81-0.226-3.931c0.455-2.306,6.017-0.952,7.714-0.455    c0.234,0.069,0.889,0.18,1.224,0.376C293.974,149.619,293.976,150.811,293.824,152.219z"/>
	</g>
</g>
<g>
	<g>
		<path d="M279.922,148.355c-0.012-0.932-0.067-1.858-0.099-2.852c-0.033-1.042,0.091-1.8-0.804-2.497    c-0.717-0.558-1.615-0.55-2.484-0.566c-1.336-0.026-2.626-0.28-3.962-0.33c-2.079-0.077-5.398-0.551-6.853,1.289    c-1.412,1.788-1.01,4.957-1.214,7.098c-0.159,1.676-0.178,4.337,1.416,5.367c2.471,1.598,6.492,1.298,9.267,1.277    c2.276-0.017,4.602-0.001,4.888-2.738C280.258,152.695,280.243,150.426,279.922,148.355z M277.134,150.297    c-0.07,0.908-0.215,1.952-0.106,2.847c-0.081,0.318-0.123,0.548-0.135,0.709c-0.431-0.013-0.862-0.025-1.293-0.04    c-2.106-0.031-4.139-0.032-6.239-0.243c-0.48-0.049-1.659,0.018-1.905-0.261c-0.395-0.448-0.141-2.221-0.087-2.765    c0.123-1.231-0.148-3.29,0.398-4.409c0.762-1.561,4.156-1.129,5.678-1.066c0.949,0.039,3.511-0.218,3.869,0.437    c0.17,0.31,0.186,1.086,0.183,1.774C277.267,148.255,277.212,149.293,277.134,150.297z"/>
	</g>
</g>
<g>
	<g>
		<path d="M425.453,86.525c-0.829-1.101-2.221-2.593-3.772-2.314c-1.293,0.233-2.321,1.759-2.769,2.883    c-0.724,1.815-0.797,4.004-0.888,5.931c-0.069,1.471-0.695,3.78,0.197,5.103c0.859,1.275,2.355,0.945,3.666,1.067    c1.393,0.128,3.627,0.516,4.901-0.302c1.029-0.661,1.078-2.503,1.142-3.615C428.106,92.243,427.295,88.973,425.453,86.525z     M425.352,95.721c-0.595,0.015-1.212,0.138-1.967,0.135c-0.749-0.004-1.605-0.023-2.422-0.077    c-0.075-0.997,0.039-3.563,0.036-3.936c-0.015-1.239-0.208-5.748,2.123-4.067c1.37,0.989,1.806,3.11,2.11,4.66    C425.446,93.533,425.399,94.626,425.352,95.721z"/>
	</g>
</g>
<g>
	<g>
		<path d="M434.624,202.865c-0.321-7.603-5.742-18.178-13.711-20.772c-5.623-2.894-13.836-3.568-18.537-0.184    c-8.321,2.218-14.03,13.149-14.359,20.955c-0.249,5.911,1.686,12.689,5.716,17.118c4.8,5.279,15.079,6.073,21.763,5.442    c2.763-0.261,6.187-0.742,8.842-2.193C431.459,220.515,434.922,209.927,434.624,202.865z M427.922,214.479    c-2.121,3.143-5.997,5.594-9.787,5.979c-1.664,0.17-3.506,0.328-5.177,0.306c-1.305-0.018-2.606-0.194-3.904-0.307    c-0.932-0.082-2.727,0.172-3.546-0.196c-0.184-0.082-0.389-0.137-0.618-0.152c-10.11-0.69-13.87-9.809-12.931-19.094    c0.408-4.036,2.91-9.684,5.84-12.594c1.934-1.921,4.393-3.034,6.763-4.283c2.198-0.27,4.382-0.588,6.661-0.454    c3.616,0.213,7.037,1.093,10.384,2.346c1.158,0.675,2.264,1.428,3.234,2.392c2.93,2.91,5.431,8.557,5.84,12.594    C431.143,205.588,430.546,210.592,427.922,214.479z"/>
	</g>
</g>
<g>
	<g>
		<path d="M404.615,93.022c-0.09-1.926-0.164-4.116-0.888-5.931c-0.448-1.123-1.476-2.65-2.769-2.883    c-1.55-0.279-2.943,1.213-3.772,2.314c-1.997,2.651-2.272,5.739-2.176,8.989c0.042,1.391-0.741,2.359,0.717,3.209    c1.505,0.877,3.378,0.626,5.024,0.473c1.311-0.121,2.807,0.208,3.666-1.068C405.31,96.802,404.684,94.493,404.615,93.022z     M401.678,95.779c-0.817,0.055-1.674,0.074-2.423,0.077c-0.755,0.002-1.372-0.12-1.967-0.135    c-0.046-1.095-0.093-2.188,0.122-3.284c0.242-1.231,1.285-5.284,2.928-5.12c1.774,0.177,1.318,3.439,1.305,4.527    C401.638,92.217,401.752,94.782,401.678,95.779z"/>
	</g>
</g>
<g>
	<g>
		<path d="M419.157,190.706c-3.029,2.81-5.242,6.486-8.198,9.347c-0.272-0.019-0.552-0.006-0.835,0.037    c-0.632,0.094-1.108,0.404-1.466,0.822c-1.059-0.927-2.472-1.688-3.355-2.244c-1.749-1.101-4.438-3.063-6.549-3.223    c-1.452-0.11-2.227,1.92-1.191,2.873c1.631,1.499,4.023,2.366,5.945,3.419c1.403,0.768,2.896,2.156,4.552,2.313    c0.426,0.832,1.395,1.419,2.285,1.434c0.056,0.001,0.11,0.002,0.166,0.004c0.41,0.007,0.772-0.102,1.087-0.28    c0.082-0.036,0.173-0.049,0.248-0.097c1.052-0.68,1.634-1.832,1.41-2.992c0.458-0.74,1.181-1.501,1.598-2.017    c0.74-0.917,1.521-1.755,2.231-2.703c1.32-1.763,3.006-3.219,4.333-4.945C422.453,191.111,420.304,189.642,419.157,190.706z"/>
	</g>
</g>
<g>
	<g>
		<path d="M433.191,286.718c-4.254-3.716-9.117-6.369-13.775-9.473c-4.212-2.805-9.356-5.315-13.963-1.808    c-3.556,2.707-11.487,7.771-11.923,12.863c-0.063,0.738,0.588,1.493,1.27,1.669c0.792,0.203,1.617,0.359,2.459,0.487    c0.524,5.006-0.844,10.549-1.114,15.539c-0.381,7.044-0.883,13.954-0.046,20.994c0.44,3.708,1.077,6.399,4.74,7.876    c4.767,1.923,10.388,1.11,15.329,0.646c3.35-0.315,9.952,0.406,12.79-1.941c2.835-2.345,1.313-7.966,1.314-11.149    c0.002-6.353,0.106-12.615-0.35-18.957c-0.303-4.217-0.176-8.875-1.599-12.95c1.594-0.274,3.128-0.706,4.555-1.375    C433.748,288.733,433.896,287.332,433.191,286.718z M426.157,328.611c-0.464,2.459-0.655,2.035-3.495,2.44    c-1.927,0.274-3.83,0.277-5.763,0.425c-4.311,0.329-10.465,1.902-14.522-0.269c-3.619-1.938-3.086-10.268-3.024-13.954    c0.14-8.539,2.707-17.89,1.871-26.42c4.204,0.201,8.619-0.09,12.456-0.095c3.893-0.005,8.314,0.429,12.486,0.052    c-0.791,2.923-0.529,6.065-0.52,9.112c0.014,4.913,0.47,9.799,0.389,14.715C425.963,318.956,426.954,324.395,426.157,328.611z     M411.737,287.237c-4.153-0.005-9.098,0.326-13.459-0.191c0.457-0.642,0.939-1.332,1.266-1.683    c1.828-1.962,4.077-3.576,6.156-5.272c2.782-2.27,4.281-3.794,8.039-2.697c0.08,0.024,0.159,0.053,0.24,0.077    c4.63,3.673,10.213,6.132,14.972,9.742C423.716,288.356,416.621,287.243,411.737,287.237z"/>
	</g>
</g>
<g>
	<g>
		<path d="M429.771,429.842c-0.353-6.794-1.635-13.417-5.807-19.034c-6.325-8.517-22.656-11.827-28.437-0.69    c-3.571,6.881-3.253,14.657-2.867,22.154c0.31,6.025-1.285,13.682,0.4,19.532c1.197,4.15,6.731,3.519,10.351,3.934    c4.183,0.481,8.367,0.496,12.571,0.496c3.239-0.001,7.447,0.411,10.593-0.505c4.725-1.374,3.886-8.323,4.101-12.283    C430.927,438.808,430.449,434.337,429.771,429.842z M426.183,442.803c-0.249,2.04,0.263,6.844-1.421,8.42    c-1.653,1.544-7.808,0.503-9.958,0.469c-3.601-0.057-7.185-0.189-10.767-0.579c-1.222-0.133-6.668-0.088-7.355-0.88    c0.493,0.568,0.501-5.831,0.497-6.564c-0.015-3.172,0.169-6.403-0.071-9.566c-0.522-6.924-1.699-14.567,0.981-21.195    c4.779-11.819,19.801-6.012,24.582,2.257c3.185,5.51,4.112,12.227,4.135,19.045C426.685,437.073,426.533,439.937,426.183,442.803z    "/>
	</g>
</g>
<g>
	<g>
		<path d="M355.3,424.329c-0.544-4.317-1.225-8.62-5.699-10.441c-10.679-4.345-9.33,13.123-9.697,18.667    c-0.174,2.631-0.163,5.389-0.1,8.024c0.025,1.064-0.186,2.17,0.632,3.017c1.636,1.692,7.221,1.308,9.246,1.395    c2.677,0.115,4.598-0.04,5.383-2.821c0.271-0.959,0.321-2.006,0.275-3.082C356.06,434.25,355.876,428.889,355.3,424.329z     M351.53,435.94c-0.062,1.141-0.299,2.282-0.365,3.416c-0.046,0.806-0.306,1.378-0.909,1.708    c-0.261,0.144-0.588,0.242-0.989,0.293c-1.084,0.139-1.926-0.3-2.929-0.522c-1.825-0.405-2.617,0.047-3.018-2.094    c-0.25-1.333-0.072-2.704-0.12-4.05c-0.15-4.321-0.252-9.346,0.411-13.623c0.15-0.965,0.201-1.954,0.702-2.823    c3.122-5.417,7.084,1.503,7.56,4.568c0.157,1.006,0.234,2.031,0.268,3.067C351.774,429.209,351.71,432.594,351.53,435.94z"/>
	</g>
</g>
<g>
	<g>
		<path d="M260.748,144.67c-1.223-0.919-2.555-0.725-3.835-0.268c-1.167-0.123-2.473-0.002-3.532,0.164    c-1.488,0.234-3.078,0.83-3.563,2.415c-0.164,0.537-0.018,1.083-0.067,1.618c-0.051,0.563-0.258,1.098-0.319,1.659    c-0.107,0.957-0.172,2.202,0.135,3.133c0.673,2.036,2.859,2.377,4.71,2.376c1.972-0.001,4.065,0.109,5.818-0.992    c1.583-0.994,1.522-3.322,1.609-4.996C261.785,148.227,262.2,145.76,260.748,144.67z M258.829,152.039    c-0.228,0.803,0.04,0.651-0.82,0.833c-1.149,0.242-2.555-0.159-3.733-0.195c-0.668-0.02-1.527,0.19-1.973-0.535    c-0.235-0.387-0.058-1.574,0.012-2.046c0.086-0.566,0.103-1.269,0.213-1.814c0.129-0.647,0.029-0.645,0.772-0.911    c0.533-0.191,1.039-0.386,1.536-0.583c0.47,0.139,0.927,0.274,1.423,0.297c0.698,0.032,1.353-0.272,2.041-0.273    c0.794,0,0.667-0.114,0.659,0.755c-0.007,0.738,0.026,1.472,0.029,2.209C258.99,150.502,259.03,151.333,258.829,152.039z"/>
	</g>
</g>
<g>
</g>
<g>
</g>
<g>
</g>
<g>
</g>
<g>
</g>
<g>
</g>
<g>
</g>
<g>
</g>
<g>
</g>
<g>
</g>
<g>
</g>
<g>
</g>
<g>
</g>
<g>
</g>
<g>
</g>
</svg>
