<?xml version="1.0" encoding="iso-8859-1"?>
<!-- Generator: Adobe Illustrator 19.0.0, SVG Export Plug-In . SVG Version: 6.00 Build 0)  -->
<svg xmlns="http://www.w3.org/2000/svg" xmlns:xlink="http://www.w3.org/1999/xlink" version="1.1" id="Layer_1" x="0px" y="0px" viewBox="0 0 511.999 511.999" style="enable-background:new 0 0 511.999 511.999;" xml:space="preserve">
<g>
	<g>
		<path d="M511.931,497.173c-0.21-8.042-2.869-11.983-11.02-12.986c-1.451-0.178-2.909-0.302-4.37-0.403    c1.249-3.755,0.931-7.979,0.891-11.845c-0.059-5.742-0.108-11.484-0.137-17.227c-0.088-18.089-2.211-36.118-2.746-54.206    c-0.287-9.721-0.783-19.427-0.905-29.188c-0.065-5.246-0.165-10.483-0.348-15.725c-0.094-2.701-0.574-8.158,0.351-11.372    c2.13,0.185,4.306,0.432,6.27-0.164c4.601-1.395,5.193-7.113,4.683-11.22c-0.611-4.923-4.827-7.426-9.268-8.239    c1.548-3.657,0.779-9.234,0.93-12.555c0.36-7.94,1.444-16.595-0.351-24.491c1.79,0.276,3.607,0.611,5.346,0.379    c4.063-0.543,5.158-4.34,5.235-8.011c0.098-4.612-3.054-6.189-6.932-7.029c1.319-3.301,0.254-8.076-0.128-11.879    c-0.69-6.859-1.226-11.924-9.433-12.964c-7.289-0.924-14.686-0.931-21.968-1.937c-8.42-1.164-17.014-1.416-25.466-2.17    c-8.456-0.755-17.008-1.482-25.469-0.479c0.019-0.533,0.048-1.069,0.091-1.61c0.364-4.527,0.258-9.101,0.239-13.644    c-0.038-9.179,0.852-19.426-0.946-28.582c4.234-0.577,7.594-2.478,7.604-8.237c0.019-11.475-11.851-11.727-20.587-11.596    c-6.195,0.093-12.351-0.024-18.509-0.141c0.753-5.221,0.781-10.663,0.881-15.88c0.052-2.705,0.94-7.525-0.472-10.536    c0.874-4.896,2.896-14.157-1.428-17.662c-3.717-3.012-13.608,1.508-15.787-2.148c-0.88-1.479,0.252-7.489,0.382-9.038    c0.159-1.911,0.501-3.482-1.085-5.048c-1.766-1.742-4.824-1.933-7.129-2.061c-3.379-0.187-5.98,0.022-9.023-0.679    c-0.292-2.264-0.389-4.531-0.341-6.826c0.047-2.271,0.758-4.469,0.455-6.734c-0.24-1.8-1.237-2.856-3.055-3.055    c-4.082-0.446-8.883-1.708-13.198-1.422c-2.723-2.364-0.244-9.398-1.47-12.648c-1.354-3.587-3.647-3.765-7.126-3.73    c-2.482,0.025-7.586,0.905-9.143-1.535c-0.972-1.523-0.609-5.839-0.416-7.403c0.385-3.122,0.765-5.873-2.816-7.227    c-1.964-0.742-4.134-0.249-6.153-0.313c-0.892-0.028-3.312,0.029-4.1-0.421c-1.574-0.9-1.061-1.402-1.057-3.902    c0.006-3.081,1.42-8.628-1.378-10.959c-2.203-1.836-7.007-1.515-10.396-1.742c-0.373-4.926,2.922-11.238-0.431-15.572    c-1.805-2.333-4.791-1.993-7.388-1.942c-2.187,0.042-4.493-0.669-6.197,0.993c-2.122,2.07-0.717,6.96-3.189,8.585    c0.357-0.234-3.455-0.206-3.367-0.156c-1.311-0.755-0.375-3.745-0.435-4.946c-0.073-1.442,0.264-3.241-0.358-4.605    c-0.791-1.731-2.094-0.555-3.461-1.473c-0.812-0.544-0.778-1.727-0.653-2.697c0.118-0.919,0.237-1.839,0.355-2.758    c0.122-0.958,0.258-1.95,0.779-2.764c1.689-2.641,6.114,0.139,8.362-2.228c1.044-1.1,1.131-2.769,1.158-4.285    c0.053-2.952,0.106-5.906,0.16-8.858c0.015-0.852,0.013-1.765-0.465-2.468c-0.763-1.123-2.348-1.226-3.704-1.217    c-7.619,0.051-15.374-0.527-22.955,0.148c-2.635,0.234-8.616,0.211-10.453,2.395c-1.266,1.506-1.397,3.991-1.249,5.851    c0.172,2.172-0.167,4.499,0.5,6.637c0.633,2.029,2.323,3.884,4.444,4.026c1.122,0.074,2.254-0.325,3.358-0.118    c3.203,0.602,3.978,5.283,2.41,7.72c-1.212,1.884-2.627,0.958-4.325,1.821c-1.861,0.947-2.295,3.43-2.261,5.324    c0.021,1.189,0.862,3.81-0.325,4.493c0.088-0.051-3.724-0.079-3.367,0.156c-2.472-1.623-1.067-6.514-3.189-8.585    c-1.704-1.662-4.01-0.951-6.197-0.993c-2.595-0.051-5.583-0.391-7.388,1.942c-3.353,4.334-0.057,10.647-0.431,15.572    c-3.388,0.227-8.193-0.093-10.396,1.742c-2.798,2.33-1.384,7.879-1.378,10.959c0.005,2.5,0.518,3.002-1.057,3.902    c-0.788,0.45-3.208,0.392-4.1,0.421c-2.019,0.065-4.189-0.429-6.153,0.313c-3.58,1.354-3.201,4.103-2.816,7.227    c0.193,1.565,0.556,5.879-0.416,7.403c-1.557,2.44-6.661,1.56-9.143,1.535c-3.478-0.035-5.773,0.143-7.126,3.73    c-1.226,3.25,1.252,10.284-1.47,12.648c-4.315-0.286-9.116,0.976-13.198,1.422c-1.817,0.199-2.815,1.255-3.055,3.055    c-0.302,2.266,0.408,4.463,0.455,6.734c0.048,2.295-0.048,4.562-0.34,6.826c-3.043,0.701-5.644,0.491-9.023,0.679    c-2.304,0.127-5.363,0.318-7.129,2.06c-1.586,1.566-1.244,3.137-1.085,5.048c0.13,1.549,1.262,7.56,0.382,9.038    c-2.178,3.656-12.07-0.865-15.787,2.148c-4.324,3.505-2.302,12.766-1.428,17.662c-1.413,3.011-0.524,7.83-0.472,10.536    c0.1,5.217,0.128,10.66,0.881,15.88c-6.158,0.118-12.315,0.234-18.509,0.141c-8.737-0.131-20.606,0.12-20.587,11.596    c0.009,5.761,3.369,7.66,7.604,8.237c-1.798,9.156-0.907,19.403-0.946,28.582c-0.019,4.542-0.125,9.115,0.239,13.644    c0.044,0.541,0.073,1.077,0.091,1.61c-8.461-1.003-17.013-0.276-25.47,0.479c-8.452,0.754-17.047,1.006-25.466,2.17    c-7.282,1.006-14.679,1.012-21.968,1.937c-8.207,1.04-8.743,6.105-9.433,12.964c-0.383,3.804-1.448,8.579-0.128,11.879    c-3.878,0.84-7.03,2.416-6.933,7.029c0.078,3.671,1.171,7.468,5.235,8.011c1.739,0.232,3.556-0.104,5.346-0.379    c-1.795,7.895-0.712,16.55-0.351,24.491c0.151,3.321-0.618,8.898,0.93,12.555c-4.441,0.813-8.657,3.315-9.268,8.239    c-0.51,4.107,0.082,9.827,4.683,11.22c1.964,0.595,4.14,0.349,6.27,0.164c0.924,3.215,0.444,8.671,0.351,11.372    c-0.183,5.243-0.284,10.479-0.348,15.725c-0.12,9.761-0.617,19.467-0.904,29.188c-0.534,18.087-2.658,36.116-2.746,54.206    c-0.028,5.743-0.078,11.485-0.137,17.227c-0.04,3.865-0.358,8.09,0.891,11.845c-1.46,0.1-2.918,0.224-4.37,0.403    c-8.151,1.003-10.81,4.945-11.02,12.986c-0.075,2.891-0.446,6.234,1.85,8.408c2.445,2.314,6.621,2.74,9.803,3.096    c7.764,0.868,15.816,1.233,23.616,1.208c19.83-0.065,39.702,0.025,59.509-0.881c9.444-0.432,19.064-0.55,28.515-0.653    c10.337-0.111,20.623-1.049,30.938-1.338c16.64-0.47,33.468,1.477,50.136,0.717c5.855,0.099,11.766-0.379,17.567-0.176    c2.261,0.079,4.502,0.11,6.747,0.086c2.893,0.833,6.039,0.994,9.137,1.058c6.821,0.141,13.547-0.217,20.358-0.348    c7.972-0.152,15.947-0.026,23.9-0.257c5.839-0.168,12.109,0.178,18.112-0.454c2.439,0.068,4.879,0.13,7.309,0.09    c16.668,0.76,33.496-1.186,50.136-0.717c10.317,0.29,20.602,1.228,30.938,1.338c9.451,0.101,19.071,0.22,28.515,0.653    c19.806,0.905,39.679,0.816,59.509,0.881c7.8,0.025,15.854-0.339,23.616-1.208c3.182-0.356,7.358-0.781,9.804-3.096    C512.378,503.408,512.007,500.064,511.931,497.173z M498.078,334.504c1.021,3.749-1.602,3.466-4.347,3.378    c-2.361-0.075-4.553,0.198-6.897,0.441c-6.258,0.649-12.322,0.867-18.615,0.732c-12.184-0.262-24.42-0.629-36.66-0.798    c-0.124-2.959-0.337-5.903-0.722-8.849c3.404,0.255,7.945,0.775,11.602-0.21c7.268,0.563,14.783-0.214,22.005,0.458    c5.233,0.488,10.516,1.295,15.751,1.603C484.689,331.525,496.556,328.921,498.078,334.504z M431.78,405.904    c-0.047-13.18-1.05-26.727,0.297-39.824c0.682-6.63-0.154-13.393-0.302-20.041c-0.009-0.412-0.019-0.822-0.027-1.233    c8.558-0.112,17.127-0.24,25.684-0.173c7.492,0.058,14.897,1.233,22.451,0.568c3.042-0.269,6.1-0.726,9.152-0.981    c-1.831,5.238-1.352,12.523-1.484,17.345c-0.254,9.291-0.229,18.592-0.33,27.885c-0.179,16.504,2.494,33.153,1.982,49.642    c-0.291,9.378,0.478,18.963,0.444,28.399c-0.012,3.407,1.343,10.235-0.544,13.238c-1.643,2.615-8.301,1.329-11.171,1.597    c-7.631,0.713-15.492,0.88-23.154,0.842c-4.142-0.02-8.286-0.006-12.429-0.009c-3.38-0.002-7.265,0.383-10.814,0.024    c-0.084-0.373-0.232-0.737-0.439-1.08C434.381,456.825,431.871,431.275,431.78,405.904z M490.241,306.475    c-0.229,3.168-0.435,6.423-0.72,9.577c-0.144,1.589-0.132,5.197-0.914,6.787c-0.337,0.399-0.528,0.829-0.602,1.266    c-5.393-0.173-10.741-0.217-16.166-0.714c-7.972-0.73-15.853-0.901-23.86-0.787c-0.458,0.006-0.928,0.004-1.404-0.002    c-0.029-0.034-0.055-0.075-0.085-0.108c-2.359-2.527-5.496-4.46-8.583-6.259c-0.412-0.311-0.826-0.624-1.238-0.927    c-2.791-2.046-5.859-3.322-8.889-4.956c-3.364-1.814-6.747-3.743-10.173-5.57c0.297-2.144,1.118-7.961,1.171-9.102    c0.09-1.916,0.165-3.892,0.216-5.876c0.119-0.024,0.238-0.044,0.362-0.084c2.383-0.765,5.26-0.27,7.738-0.282    c4.055-0.019,8.14,0.117,12.191-0.037c7.476-0.282,14.834-0.748,22.343-0.857c6.306-0.092,13.026-0.147,19.281-0.928    c3.393-0.424,6.871-0.439,10.312-0.386C489.799,293.535,490.707,300.043,490.241,306.475z M499.982,280.02    c0.132,0.23,0.904,2.591,0.406,2.952c-0.095,0.069-4.77-1.045-5.55-1.084c-5.517-0.28-10.941,0.166-16.399,0.597    c-11.284,0.894-22.845-0.642-34.058,0.647c-6.356,0.73-13.023,0.422-19.413,0.181c-1.999-0.075-4.14-0.435-5.981,0.12    c-0.025-0.827-0.045-1.658-0.097-2.467c-0.06-0.946-0.126-1.89-0.192-2.835c7.06,0.688,14.195,0.531,21.332,0.534    c4.351,0.001,8.619-0.706,12.962-0.661c4.937,0.052,9.572,0.745,14.487,0.163c4.88-0.578,9.946-0.388,14.834-0.787    c2.051-0.168,4.168-0.205,6.276-0.279c2.483,0.634,4.99,0.558,7.599,0.979C498.106,278.389,499.058,278.413,499.982,280.02z     M437.529,249.733c6.883,0.713,13.69,1.307,20.578,1.878c5.456,0.454,10.827,1.343,16.233,1.883    c3.639,0.363,7.323,0.74,10.981,0.735c1.544-0.002,3.963-0.358,5.426,0.325c3.068,1.433,2.389,4.065,2.594,6.458    c0.276,3.241,2.668,8.641-1.006,9.836c-1.338,0.435-4.02-0.095-5.437-0.018c-9.445,0.517-18.731,2.37-28.233,1.484    c-7.6-0.709-15.123,0.339-22.736,0.28c-5.881-0.046-11.809-0.708-17.67-0.536c-0.432-5.865-0.835-11.726-0.866-17.626    c-0.014-2.634-0.217-5.159-0.293-7.71C423.794,248.751,430.609,249.017,437.529,249.733z M248.78,16.195    c-1.005,0.111-2.032,0.335-3.014,0.135c-1.996-0.404-3.302-2.621-3.051-4.642c0.25-2.022,1.781-3.728,3.619-4.603    c3.028-1.442,7.204-1.133,10.493-1.226c3.796-0.107,7.607-0.024,11.364,0.574c1.04,0.165,2.131,0.383,2.924,1.076    c1.167,1.023,1.344,2.743,1.44,4.292c0.077,1.23,0.11,2.595-0.689,3.534c-1.299,1.528-3.684,0.998-5.432,1.328    c-1.705,0.322-3.765,1.377-4.438,3.104c-1.003,2.575,2.289,7.148-0.808,8.972c-0.451,0.265-0.986,0.348-1.508,0.381    c-3.069,0.193-6.339-0.121-6.432-3.786c-0.068-2.726,1.104-7.634-2.255-8.961C250.289,16.094,249.541,16.113,248.78,16.195z     M227.28,35.986c4.945-1.647,4.63,6.655,7.038,8.817c2.29,2.057,9.887,1.808,11.854-0.563c1.511-1.821,1.278-4.612,1.137-6.807    c-0.097-1.489-0.375-1.819,0.525-2.741c0.131-0.133,0.384-0.252,0.71-0.358c2.67,0.373,5.796-0.065,8.019-0.085    c3.387-0.032,8.434-1.638,8.123,3.186c-0.141,2.196-0.375,4.986,1.137,6.807c1.965,2.369,9.553,2.619,11.849,0.567    c2.053-1.836,1.413-5.001,2.959-6.927c1.35-1.681,4.671-1.792,5.748,0.214c0.796,1.484-0.376,5.39-0.541,7.043    c-0.11,1.097-0.311,2.253-0.404,3.404c-4.346-0.302-8.898-0.005-12.965-0.315c-6.775-0.515-13.515-0.217-20.291-0.574    c-6.184-0.326-12.628,0.324-18.79,1c-2.28,0.25-4.54,0.451-6.791,0.68c-0.037-1.408-0.309-2.845-0.443-4.193    C225.929,42.857,224.059,37.06,227.28,35.986z M216.774,55.222c1.805-0.064,3.65-0.366,5.464-0.683    c3.765-0.083,7.593-0.609,11.153-0.901c6.17-0.505,12.621-1.183,18.79-0.822c6.774,0.395,13.522,0.143,20.291,0.686    c4.85,0.39,11.091,1.533,16.384,0.881c2.103,0.369,4.261,0.766,6.368,0.84c0.914,0.032,1.625,0.336,1.96,0.274    c-0.062,1.39-0.279,3.404-0.283,3.664c-0.025,1.507-0.205,3.293-0.161,5.028c-14.697-2.596-29.872-2.778-44.682-1.579    c-8.738,0.708-17.535,0.515-26.268,1.468c-3.528,0.385-7.067,0.812-10.597,1.272c0.203-2.077-0.062-4.341-0.092-6.19    c-0.005-0.26-0.22-2.274-0.283-3.664C215.15,55.558,215.86,55.254,216.774,55.222z M201.094,72.787    c-0.012-0.594-0.062-0.918-0.115-1.091c0.049,0.005,0.114-0.004,0.198-0.034c0.755-0.289,2.91,0.094,3.802,0.054    c1.691-0.074,3.969-0.131,5.843-0.66c5.283-0.339,10.621-1.294,15.715-1.672c8.768-0.653,17.56-0.614,26.324-1.151    c9.79-0.6,19.494-0.494,29.291-0.001c5.226,0.263,11.271,1.746,16.915,1.841c0.271,0.201,0.561,0.39,0.895,0.549    c2.005,0.951,4.981,1.003,7.057,1.094c0.892,0.04,3.047-0.343,3.802-0.054c0.084,0.032,0.148,0.04,0.198,0.034    c-0.053,0.173-0.104,0.498-0.115,1.091c-0.053,2.765-0.171,6.313,0.695,9.279c-0.368-0.036-0.737-0.068-1.1-0.113    c-5.686-0.716-11.386-1.278-17.116-1.521c-12.275-0.517-24.816-0.639-37.095-0.117c-12.41,0.528-24.749,1.164-37.199,1.209    c-5.912,0.022-12.312-0.217-18.592,0.163C201.248,78.8,201.145,75.435,201.094,72.787z M183.873,90.966    c-0.214-3.362-0.231-3.196,3.027-3.123c2.815,0.062,6.21,0.444,8.943-0.537c1.31-0.09,2.641-0.187,4.027-0.216    c6.052-0.124,12.103-0.098,18.163-0.095c12.41,0.006,24.789-0.244,37.155-0.867c12.632-0.636,25.671-0.9,38.306-0.108    c5.376,0.337,10.829,0.688,16.147,1.383c3.213,0.419,6.759,0.787,10.167,0.541c1.797,0.08,3.643-0.064,5.29-0.101    c3.256-0.073,3.24-0.238,3.027,3.123c-0.139,2.184-0.602,4.332-0.299,6.529c0.094,0.688,0.274,1.328,0.491,1.942    c-9.221-1.211-18.46-2.493-27.751-2.798c-15.396-0.504-30.876-0.563-46.274,0.173c-14.548,0.696-29.09,1.222-43.632,2.075    c-8.173,0.479-16.309,0.588-24.496,0.702c-0.865,0.012-1.725,0.052-2.581,0.107c0.267-0.689,0.482-1.414,0.59-2.201    C184.474,95.298,184.011,93.149,183.873,90.966z M177.102,105.002c2.368-0.078,4.745-0.225,7.097-0.194    c8.083,0.107,16.12,0.249,24.191-0.134c15.001-0.713,29.968-1.388,44.963-2.151c15.12-0.769,30.449-1.008,45.569-0.372    c6.603,0.278,12.951,1.005,19.522,1.839c4.981,0.633,9.825,0.735,14.708,0.716c3.921,0.789,8.085,0.695,12.117,1.034    c-0.193,1.821-0.582,3.718-0.563,5.471c0.021,1.969,0.153,3.861,0.391,5.763c-2.152,0.079-4.315,0.233-6.453,0.223    c-8.266-0.04-16.561-0.629-24.856-0.628c-17.665,0.002-35.388,0.818-53.071-0.058c-18.291-0.905-36.68,0.034-54.96,0.593    c-9.255,0.283-18.509,0.331-27.77,0.378c-3.716,0.019-7.463,0.014-11.177,0.25c0.306-2.162,0.458-4.291,0.482-6.522    c0.019-1.752-0.37-3.649-0.563-5.471C170.168,105.45,173.703,105.477,177.102,105.002z M149.738,123.879    c0.219-1.369-0.581-0.821,1.662-0.389c1.42,0.275,3.26,0.006,4.764,0.024c1.018,0.011,1.942-0.045,2.835-0.156    c4.51,0.238,9.519-0.65,13.405-0.577c9.327,0.176,18.602-0.266,27.909-0.199c18.931,0.135,37.889-1.59,56.84-0.809    c17.29,0.713,34.58-0.042,51.831,0.282c8.752,0.165,17.51-0.071,26.252,0.377c4.226,0.217,8.594-0.13,12.919-0.22    c2.667,0.866,4.82,1.334,7.678,1.302c1.503-0.016,3.345,0.252,4.764-0.024c2.242-0.434,1.443-0.98,1.662,0.389    c0.562,3.51-0.755,7.528-0.137,11.131c-4.61-0.359-9.262-0.475-13.756-0.775c-8.446-0.564-16.896-1.476-25.379-1.383    c-21.63,0.236-43.293,1.018-64.942,1.33c-21.116,0.304-42.216,0.494-63.323,1.305c-10.824,0.417-21.612,0.608-32.442,0.872    c-4.132,0.101-8.426-0.072-12.714-0.074C150.839,132.377,149.11,127.808,149.738,123.879z M132.324,140.641    c0.419-0.269,3.153-0.024,4.811,0.086c8.058,1.542,17.126,1.079,25.146,0.846c10.824-0.315,21.616-0.318,32.442-0.74    c21.094-0.822,42.214-1.289,63.323-1.496c21.648-0.211,43.312-0.838,64.942-0.984c8.489-0.057,16.933,0.954,25.379,1.482    c7.057,0.441,15.675,2.25,22.858,0.84c0.864,0.025,1.708,0.039,2.489,0.093c0.832,0.057,5.409-0.482,5.961-0.128    c1.175,0.752,0.715,1.975,0.734,3.369c0.031,2.236,0.128,4.33,0.343,6.457c-1.321-0.139-2.7-0.133-3.726-0.213    c-3.305-0.258-6.646-0.134-9.963-0.104c-7.091,0.067-14.068,0.419-21.128,0.742c-15.608,0.713-31.49-0.33-47.124-0.324    c-3.997,0.001-8.016,0.13-12.012-0.026c-0.159-0.006-0.318-0.02-0.477-0.028c-1.069-0.165-2.167-0.255-3.27-0.298    c-1.812-0.197-3.618-0.378-5.455-0.229c-0.95,0.077-1.904,0.192-2.856,0.294c-5.66,0.114-11.349,0.861-17.018,1.034    c-3.991,0.121-7.97,0.139-11.95,0.17c-3.779-0.655-7.591-1.191-11.368-1.499c-3.097-0.251-6.11,0.435-9.202,0.555    c-3.996,0.156-8.015,0.027-12.012,0.026c-15.635-0.005-31.517,1.037-47.124,0.324c-7.059-0.322-14.037-0.675-21.128-0.742    c-3.316-0.031-6.659-0.154-9.963,0.104c-1.026,0.08-2.406,0.074-3.726,0.213c0.214-2.128,0.312-4.221,0.343-6.457    C131.608,142.616,131.149,141.393,132.324,140.641z M132.94,169.875c-0.097-2.756-0.341-5.489-0.377-8.26    c-0.011-0.851-0.349-3.113-0.232-4.669c9.075-0.963,18.792-1.084,27.835-0.375c10.365,0.812,20.744,0.586,31.163,0.624    c11.27,0.041,22.604,0.513,33.871,0.238c2.274-0.055,4.48-0.118,6.683-0.147c8.587,0.808,17.495,0.386,25.837,0.239    c2.339-0.041,4.671-0.174,7.001-0.319c2.324,0.277,4.656,0.371,7.168,0.223c5.089-0.299,9.832-0.118,14.907,0.005    c11.266,0.273,22.601-0.197,33.871-0.238c10.419-0.039,20.798,0.189,31.163-0.624c9.043-0.709,18.76-0.588,27.835,0.375    c0.117,1.556-0.221,3.818-0.232,4.669c-0.035,2.772-0.279,5.504-0.375,8.26c-0.112,3.256,0.438,6.489,1.097,9.692    c-4.787-0.08-9.579-0.128-14.394-0.045c-5.681,0.098-11.258-0.628-16.965-0.558c-5.925,0.072-12.139,0.515-18.025-0.066    c-11.802-1.163-23.585,0.052-35.412-0.306c-9.318-0.283-19.825-1.805-29.374-0.219c-4.889,0.084-9.802,0.255-14.794,0.107    c-1.655-0.049-3.307-0.066-4.955-0.066c-9.609-1.648-20.208-0.107-29.599,0.178c-11.827,0.359-23.609-0.857-35.412,0.306    c-5.886,0.581-12.1,0.138-18.025,0.066c-5.707-0.07-11.285,0.657-16.965,0.558c-4.816-0.084-9.607-0.035-14.394,0.045    C132.502,176.364,133.052,173.132,132.94,169.875z M95.106,192.365c-0.814-3.453,4.643-4.61,6.762-4.994    c5.281-0.958,10.923-0.717,16.28-0.806c10.311-0.167,20.52-0.662,30.873-0.644c4.744,0.007,9.402-0.712,14.179-0.681    c5.412,0.035,10.973,0.369,16.371,0.046c11.339-0.681,22.553-0.862,33.939-0.745c3.084,0.032,6.138-0.173,9.195-0.389    c2.249,0.12,4.504,0.099,6.588,0.115c6.953,0.052,13.802-0.447,20.775-0.185c6.881,0.258,13.647,0.039,20.385-0.568    c0.238,0.019,0.481,0.041,0.708,0.053c2.998,0.151,5.987,0.131,8.99,0.139c6.165,0.018,12.191,0.9,18.336,0.835    c11.386-0.118,22.6,0.064,33.939,0.745c5.398,0.324,10.959-0.011,16.371-0.046c4.776-0.031,9.434,0.689,14.179,0.681    c10.352-0.018,20.563,0.477,30.874,0.644c5.358,0.087,10.999-0.152,16.28,0.806c2.119,0.384,7.576,1.541,6.762,4.994    c-0.628,2.66-4.162,1.984-6.06,2.016c-9.948,0.172-20.133,1.275-30.068,0.102c-21.577-2.544-43.958-1.258-65.683-1.288    c-10.046-0.014-20.035,0.146-30.017-0.803c-0.754-0.094-1.515-0.169-2.283-0.223c-4.064-0.441-8.324-0.912-12.38-0.541    c-1.103,0.101-2.365,0.326-3.688,0.564c-3.166,0.07-6.318,0.243-9.474,0.352c-0.012-0.005-0.026-0.006-0.038-0.011    c-0.414-0.139-0.776-0.097-1.082,0.049c-0.078,0.002-0.156,0.002-0.233,0.005c-0.306-0.151-0.674-0.196-1.091-0.054    c-0.095,0.032-0.199,0.054-0.297,0.082c-2.023,0.037-4.049,0.028-6.081-0.08c-0.501-0.027-1.019-0.039-1.524-0.062    c-1.903-0.322-3.752-0.705-5.296-0.846c-4.286-0.392-8.805,0.158-13.077,0.616c-0.938,0.1-1.876,0.179-2.814,0.26    c-3.565,0.105-7.697,0.104-11.516,0.596c-5.746,0.133-11.5,0.086-17.273,0.094c-21.726,0.029-44.106-1.256-65.683,1.288    c-9.935,1.172-20.12,0.07-30.068-0.102C99.267,194.348,95.733,195.025,95.106,192.365z M270.728,223.694    c-2.633-5.789-6.29-17.374-13.069-20.083c-2.435-0.973-3.659,0.252-4.794,2.389c-2.339,4.406-3.667,9.973-5.29,14.699    c-2.163,6.302-6.913,14.248-1.522,18.737c-1.711,0.536-3.421,1.126-5.115,1.779c-31.762,9.34-60.634,26.688-91.363,38.825    c-7.857,3.103-15.796,5.993-23.43,9.615c-7.368,3.495-14.45,7.367-22.028,10.459c-1.361,0.555-2.707,1.165-4.049,1.8    c0.233-0.785,0.406-1.639,0.503-2.646c0.449-4.644,0.325-9.415,0.263-14.078c-0.128-9.524,1.093-19.038,0.997-28.578    c-0.044-4.273,0.735-8.664,0.377-12.889c-0.439-5.184-0.59-10.298-0.635-15.513c-0.079-9.109,1.008-19.256-0.68-28.363    c2.387-0.044,4.74-0.171,6.7-0.016c24.442,1.919,49.047-0.066,73.609-0.079c14.332-0.007,28.758,0.422,43.037-0.523    c3.657-0.242,7.305-0.637,10.956-1.019c4.443,0.058,8.927,0.226,13.22,0.505c6.895,0.448,13.725-0.187,20.622-0.15    c4.464,0.024,9.625,0.587,14.497,0.324c1.405,0.13,2.812,0.247,4.22,0.341c14.28,0.945,28.706,0.516,43.037,0.523    c24.562,0.013,49.167,1.998,73.609,0.079c1.96-0.154,4.314-0.026,6.7,0.016c-1.688,9.107-0.601,19.254-0.68,28.363    c-0.045,5.216-0.196,10.33-0.635,15.513c-0.358,4.225,0.421,8.616,0.377,12.889c-0.097,9.54,1.125,19.054,0.997,28.579    c-0.062,4.663-0.186,9.434,0.263,14.078c0.098,1.007,0.271,1.861,0.503,2.646c-1.342-0.635-2.688-1.245-4.049-1.8    c-7.579-3.093-14.66-6.964-22.028-10.459c-7.634-3.622-15.573-6.511-23.43-9.615c-27.69-10.938-53.877-26.09-82.023-35.818    c-2.957-1.669-6.46-2.917-9.816-4.01C273.579,235.095,273.183,229.092,270.728,223.694z M265.549,238.584    c-0.297-0.099-0.604-0.198-0.891-0.297c-3.102-1.072-9.779-3.055-12.998-0.419c-0.573,0.141-1.15,0.298-1.726,0.451    c-0.911-1.945-2.264-3.534-1.866-5.905c0.448-2.664,2.043-5.544,2.969-8.089c1.066-2.93,2.036-5.886,3.141-8.803    c0.814-2.149,1.537-7.611,3.814-6.798c1.952,0.697,3.464,4.848,4.305,6.636c1.319,2.804,2.321,5.775,3.441,8.661    C267.413,228.341,268.799,234.486,265.549,238.584z M107.034,306.676c7.265-2.766,14.216-6.372,21.082-9.977    c8.383-4.403,17.785-7.324,26.551-10.902c16.628-6.786,33.15-14.036,49.165-22.031c8.118-4.053,17.006-6.801,25.396-10.321    c1.233-0.352,2.501-0.885,3.735-1.455c3.795-1.259,8.352-2.244,11.928-4.244c3.803-0.945,7.687-1.932,11.498-2.58    c0.774-0.132,1.545-0.176,2.313-0.185c2.652,0.926,5.148,2.671,8.001,3.68c1.914,0.677,4.299,1.655,6.444,1.541    c0.144,0.045,0.287,0.086,0.432,0.13c5.977,3.031,12.02,6.105,18.656,6.904c0.067,0.008,0.127,0.001,0.186-0.012    c5.343,2.009,10.693,4.021,15.743,6.542c16.015,7.995,32.536,15.245,49.165,22.031c8.766,3.578,18.168,6.5,26.551,10.902    c6.866,3.606,13.817,7.211,21.082,9.977c7.667,2.919,14.835,7.485,22.267,10.991c2.921,1.378,5.636,3.386,8.479,5.056    c-0.118,0.015-0.234,0.032-0.351,0.051c-1.391-0.125-2.58-0.264-3.041-0.298c-3.945-0.295-7.813-1.274-11.766-1.492    c-8.509-0.468-17.104-1.054-25.629-1.19c-7.204-0.114-14.578-1.092-21.733-0.56c-7.435,0.555-14.823,0.434-22.295,0.411    c-15.645-0.047-31.01-0.247-46.561-1.758c-7.043-0.685-14.11-0.835-21.202-0.689c-2.342,0.049-4.649,0.278-6.957,0.477    c-5.57,0.031-11.17,0.126-16.656,0.396c-3.255,0.16-6.508,0.333-9.762,0.488c-3.266-0.662-6.551-0.488-9.907-0.611    c-3.673-0.135-7.288-0.673-10.989-0.75c-7.092-0.147-14.16,0.005-21.202,0.689c-15.551,1.512-30.916,1.711-46.561,1.758    c-7.47,0.022-14.859,0.144-22.294-0.411c-7.155-0.534-14.527,0.444-21.733,0.56c-8.524,0.135-17.119,0.722-25.629,1.19    c-3.951,0.218-7.819,1.197-11.766,1.491c-0.462,0.034-1.649,0.173-3.041,0.298c-0.117-0.018-0.233-0.034-0.351-0.051    c2.844-1.671,5.558-3.678,8.479-5.056C92.2,314.16,99.367,309.595,107.034,306.676z M20.779,287.231    c3.442-0.053,6.919-0.038,10.312,0.386c6.255,0.781,12.974,0.836,19.281,0.928c7.508,0.108,14.865,0.575,22.343,0.857    c4.05,0.152,8.136,0.018,12.191,0.036c2.478,0.012,5.354-0.483,7.738,0.282c0.124,0.04,0.243,0.06,0.362,0.084    c0.051,1.984,0.126,3.961,0.216,5.876c0.053,1.142,0.874,6.958,1.171,9.102c-3.426,1.827-6.809,3.757-10.173,5.57    c-3.031,1.634-6.098,2.91-8.889,4.956c-0.412,0.303-0.826,0.616-1.238,0.927c-3.087,1.799-6.224,3.732-8.583,6.259    c-0.031,0.032-0.057,0.074-0.085,0.108c-0.476,0.006-0.947,0.009-1.404,0.002c-8.008-0.114-15.888,0.057-23.86,0.787    c-5.425,0.497-10.773,0.541-16.166,0.714c-0.074-0.437-0.265-0.867-0.602-1.266c-0.782-1.59-0.77-5.198-0.914-6.787    c-0.285-3.154-0.49-6.409-0.72-9.577C21.29,300.043,22.198,293.535,20.779,287.231z M18.656,261.013    c0.204-2.394-0.474-5.026,2.594-6.458c1.463-0.683,3.882-0.328,5.426-0.325c3.657,0.005,7.341-0.372,10.981-0.735    c5.406-0.54,10.776-1.429,16.232-1.883c6.888-0.571,13.696-1.165,20.578-1.878c6.92-0.716,13.737-0.981,20.431-3.01    c-0.075,2.551-0.279,5.075-0.293,7.71c-0.031,5.9-0.434,11.761-0.866,17.626c-5.86-0.172-11.789,0.49-17.67,0.536    c-7.613,0.059-15.138-0.99-22.736-0.28c-9.503,0.886-18.788-0.967-28.233-1.484c-1.417-0.078-4.099,0.452-5.437,0.018    C15.989,269.655,18.38,264.253,18.656,261.013z M11.609,282.972c-0.496-0.362,0.276-2.723,0.406-2.952    c0.924-1.607,1.876-1.63,3.792-1.939c2.608-0.421,5.115-0.345,7.599-0.979c2.108,0.074,4.225,0.112,6.276,0.279    c4.888,0.399,9.954,0.208,14.834,0.787c4.915,0.582,9.55-0.112,14.487-0.163c4.342-0.045,8.611,0.662,12.962,0.661    c7.137-0.002,14.272,0.154,21.332-0.534c-0.066,0.944-0.132,1.888-0.192,2.835c-0.052,0.809-0.071,1.64-0.097,2.467    c-1.841-0.555-3.982-0.194-5.981-0.12c-6.39,0.24-13.056,0.549-19.413-0.181c-11.213-1.289-22.773,0.247-34.058-0.647    c-5.457-0.432-10.881-0.878-16.399-0.597C16.379,281.927,11.704,283.041,11.609,282.972z M18.266,337.881    c-2.745,0.088-5.369,0.371-4.347-3.378c1.521-5.583,13.388-2.978,17.881-3.243c5.237-0.31,10.518-1.117,15.752-1.603    c7.222-0.673,14.737,0.106,22.005-0.458c3.657,0.985,8.198,0.464,11.602,0.21c-0.384,2.946-0.597,5.889-0.722,8.849    c-12.239,0.168-24.476,0.536-36.66,0.798c-6.295,0.135-12.358-0.083-18.615-0.732C22.821,338.079,20.628,337.806,18.266,337.881z     M22.796,439.091c-0.512-16.489,2.162-33.138,1.982-49.642c-0.101-9.293-0.074-18.594-0.329-27.885    c-0.132-4.821,0.346-12.107-1.484-17.345c3.051,0.256,6.11,0.713,9.152,0.981c7.554,0.664,14.961-0.511,22.451-0.568    c8.557-0.066,17.126,0.062,25.684,0.173c-0.008,0.411-0.018,0.821-0.027,1.233c-0.148,6.648-0.984,13.41-0.302,20.041    c1.347,13.097,0.344,26.644,0.297,39.824c-0.091,25.369-2.601,50.92,0.687,76.2c-0.207,0.342-0.356,0.707-0.439,1.08    c-3.548,0.359-7.434-0.026-10.814-0.023c-4.143,0.003-8.287-0.011-12.429,0.009c-7.664,0.038-15.524-0.13-23.155-0.842    c-2.871-0.269-9.527,1.018-11.171-1.597c-1.887-3.004-0.533-9.831-0.544-13.238C22.317,458.054,23.087,448.469,22.796,439.091z     M83.84,494.535c-0.243,2.492-0.66,5.193-0.437,7.711c0.027,0.303,0.09,0.574,0.171,0.827c-4.85,0.028-9.695,0.024-14.52-0.017    c-16.491-0.134-32.906,0.666-49.372-0.38c-3.388-0.216-8.365,0.273-11.388-1.316c-1.938-1.02-1.687-1.814-1.557-4.187    c0.153-2.819,0.5-4.972,3.249-6.109c3.646-1.506,9.916-0.886,13.84-0.948c1.027-0.016,2.056-0.042,3.084-0.073    c1.859-0.019,3.746-0.097,5.524,0.052c8.23,0.689,16.522,1.109,24.786,1.089c8.439-0.021,18.377,1.377,26.754-0.375    C83.954,492.045,83.962,493.288,83.84,494.535z M87.515,404.785c-0.085-12.352,0.914-25.462-0.734-37.705    c-0.355-2.637-0.551-5.283-0.663-7.936c1.286,0.065,2.586,0.018,4-0.068c1.954-0.119,3.844,0.074,5.741,0.303    c-0.53,2.273-0.233,4.947,0.549,6.65c0.145,0.317,0.315,0.602,0.496,0.873c0.353,0.723,0.905,1.377,1.758,1.918    c1.689,1.071,4.495,1.03,6.678,1.149c-0.626,3.468-1.754,6.735-2.347,10.221c-0.706,4.151-1.131,8.343-1.54,12.529    c-0.868,8.902-1.839,17.789-2.533,26.696c-0.697,8.942-1.03,17.858-1.724,26.807c-0.713,9.2-0.735,18.528-1.712,27.681    c-0.328,3.065-0.191,6.132,0.805,8.64c-2.466,0.193-4.924,0.561-7.38,0.905c-0.833-12.322-1.662-24.421-1.779-36.778    C86.998,432.654,87.612,418.782,87.515,404.785z M133.963,359.214c4.474,0.053,8.951,0.147,13.42,0.249    c-0.503,2.254-0.203,4.883,0.569,6.566c0.145,0.317,0.315,0.602,0.497,0.873c0.353,0.723,0.905,1.377,1.758,1.918    c1.689,1.071,4.495,1.03,6.678,1.149c-0.626,3.468-1.754,6.735-2.347,10.221c-0.706,4.15-1.131,8.343-1.54,12.529    c-0.868,8.902-1.838,17.789-2.533,26.696c-0.697,8.942-1.03,17.858-1.724,26.807c-0.713,9.2-0.735,18.528-1.712,27.681    c-0.305,2.863-0.217,5.732,0.606,8.142c-2.324-0.156-4.651-0.291-6.994-0.322c-3.366-0.045-6.715,0.102-10.06,0.339    c1.827-4.203,1.566-10.2,1.365-13.899c-0.538-9.971-3.583-19.815-3.664-29.783c-0.091-11.044-1.107-21.955-1.125-33.028    c-0.019-11.47-1.005-22.737-1.739-34.157c2.476-0.068,4.815-0.484,6.458-1.739C134.65,367.335,133.962,362.533,133.963,359.214z     M185.513,359.644c4.451-0.002,8.898,0.049,13.34,0.196c-0.391,2.164-0.084,4.598,0.646,6.187    c0.145,0.317,0.316,0.602,0.497,0.873c0.353,0.723,0.905,1.377,1.758,1.918c1.689,1.071,4.495,1.03,6.678,1.149    c-0.626,3.468-1.754,6.735-2.347,10.221c-0.705,4.15-1.131,8.343-1.54,12.529c-0.868,8.902-1.838,17.789-2.533,26.696    c-0.697,8.942-1.03,17.858-1.724,26.807c-0.713,9.2-0.735,18.528-1.712,27.681c-0.346,3.252-0.184,6.511,0.985,9.096    c-6.047,0.351-12.083,0.45-18.116,0.395c2.578-4.171,2.269-11.124,2.048-15.233c-0.538-9.971-3.583-19.815-3.664-29.783    c-0.091-11.044-1.107-21.955-1.125-33.028c-0.019-11.47-1.005-22.737-1.739-34.157c2.476-0.068,4.815-0.484,6.458-1.739    C186.078,367.425,185.56,362.937,185.513,359.644z M237.059,359.627c6.117,0.313,12.281,0.292,18.196,0.348    c6.569,0.062,13.116,0.272,19.666,0.535c-0.092,3.174-0.319,7.088,2.11,8.944c1.643,1.256,3.981,1.672,6.458,1.739    c-0.734,11.419-1.721,22.687-1.739,34.157c-0.018,11.073-1.034,21.986-1.125,33.028c-0.081,9.968-3.125,19.811-3.664,29.783    c-0.209,3.871-0.464,10.235,1.659,14.451c-8.892,0.045-17.795-0.053-26.704,0.007c-5.842,0.04-11.745,0.346-17.634,0.502    c-0.358-0.041-0.716-0.092-1.076-0.123c2.334-4.202,2.049-10.852,1.833-14.837c-0.538-9.971-3.583-19.815-3.664-29.783    c-0.091-11.044-1.107-21.955-1.125-33.028c-0.019-11.47-1.005-22.737-1.739-34.157c2.476-0.068,4.815-0.484,6.458-1.739    C237.629,367.421,237.103,362.921,237.059,359.627z M313.144,359.84c4.443-0.146,8.89-0.198,13.34-0.196    c-0.047,3.292-0.565,7.779,2.091,9.809c1.643,1.256,3.981,1.672,6.458,1.739c-0.734,11.419-1.721,22.687-1.739,34.157    c-0.018,11.073-1.034,21.986-1.125,33.028c-0.081,9.968-3.126,19.811-3.664,29.783c-0.221,4.109-0.531,11.062,2.048,15.233    c-6.033,0.054-12.069-0.045-18.116-0.395c1.169-2.585,1.332-5.845,0.985-9.096c-0.977-9.152-0.998-18.48-1.712-27.681    c-0.694-8.949-1.026-17.865-1.724-26.807c-0.695-8.906-1.665-17.793-2.533-26.696c-0.409-4.186-0.834-8.379-1.54-12.529    c-0.593-3.486-1.72-6.753-2.347-10.221c2.183-0.119,4.988-0.078,6.677-1.149c0.853-0.541,1.404-1.196,1.758-1.918    c0.181-0.271,0.351-0.557,0.497-0.873C313.228,364.439,313.536,362.005,313.144,359.84z M364.614,359.462    c4.467-0.1,8.945-0.194,13.42-0.249c0.002,3.32-0.686,8.121,2.088,10.24c1.643,1.256,3.981,1.672,6.458,1.739    c-0.734,11.419-1.721,22.687-1.739,34.157c-0.018,11.073-1.034,21.986-1.125,33.028c-0.081,9.968-3.125,19.811-3.664,29.783    c-0.2,3.699-0.462,9.696,1.365,13.899c-3.345-0.236-6.694-0.383-10.06-0.339c-2.343,0.032-4.67,0.167-6.994,0.322    c0.822-2.409,0.911-5.279,0.606-8.142c-0.977-9.152-0.998-18.48-1.712-27.681c-0.694-8.949-1.026-17.865-1.724-26.807    c-0.695-8.906-1.665-17.793-2.533-26.696c-0.409-4.186-0.834-8.379-1.54-12.529c-0.593-3.486-1.72-6.753-2.347-10.221    c2.183-0.119,4.988-0.078,6.678-1.149c0.853-0.541,1.404-1.196,1.758-1.918c0.181-0.271,0.351-0.557,0.497-0.873    C364.816,364.345,365.117,361.716,364.614,359.462z M390.045,403.037c0.007-10.73,1.05-21.349,1.737-32.045    c1.483-0.113,2.875-0.229,4.036-0.232c2.44-0.008,4.847-0.216,7.261-0.455c-0.414,7.808,1.752,15.678,2.163,23.473    c0.544,10.316,2.482,20.573,2.81,30.935c0.303,9.552,1.205,19.13,1.884,28.689c0.36,5.085,0.342,10.106,0.492,15.195    c0.184,6.187,3.228,14.277-6.428,14.049c-4.185-0.099-8.308-1.089-12.467-1.277c-3.49-0.158-5.148-0.578-5.616-4.629    c-0.331-2.869-0.647-5.688-0.537-8.578c0.408-10.702,3.444-21.088,3.55-31.817c0.054-5.441,0.999-10.75,1.185-16.17    C390.31,414.478,390.042,408.737,390.045,403.037z M395.818,366.268c-2.606-0.011-11.002,1.153-12.347-0.813    c-0.468-0.684-0.432-3.036-0.369-4.871c1.647-0.132,4.22,0.137,5.235,0.022c3.826-0.43,7.675-0.329,11.521-0.349    c2.2-0.012,4.401-0.003,6.601-0.034c0.885-0.012,3.339-0.501,4.066-0.105c0.801,0.436,1.246,0.887,0.954,2.394    c-0.311,1.599-1.307,2.458-2.525,3.002c-1.319,0.092-2.766,0.071-3.235,0.111C402.418,365.906,399.133,366.282,395.818,366.268z     M338.501,403.037c0.007-10.73,1.05-21.349,1.737-32.045c1.483-0.113,2.875-0.229,4.036-0.232c2.44-0.008,4.847-0.216,7.261-0.455    c-0.414,7.808,1.752,15.678,2.163,23.473c0.544,10.316,2.481,20.573,2.81,30.935c0.303,9.552,1.205,19.13,1.884,28.689    c0.36,5.085,0.342,10.106,0.492,15.195c0.184,6.187,3.228,14.277-6.428,14.049c-4.185-0.099-8.308-1.089-12.467-1.277    c-3.49-0.158-5.148-0.578-5.616-4.629c-0.331-2.869-0.647-5.688-0.537-8.578c0.408-10.702,3.444-21.088,3.55-31.817    c0.054-5.441,0.999-10.75,1.185-16.17C338.766,414.478,338.496,408.737,338.501,403.037z M359.935,362.512    c-0.311,1.599-1.307,2.458-2.525,3.002c-1.319,0.092-2.766,0.071-3.235,0.111c-3.303,0.282-6.587,0.657-9.902,0.643    c-2.606-0.011-11.002,1.153-12.347-0.813c-0.468-0.684-0.434-3.036-0.369-4.871c1.647-0.132,4.22,0.137,5.235,0.022    c3.826-0.43,7.675-0.329,11.521-0.349c2.201-0.012,4.401-0.003,6.602-0.034c0.885-0.012,3.339-0.501,4.067-0.105    C359.783,360.554,360.227,361.005,359.935,362.512z M286.955,403.037c0.007-10.73,1.05-21.349,1.737-32.045    c1.483-0.113,2.873-0.229,4.036-0.232c2.44-0.008,4.847-0.216,7.261-0.455c-0.414,7.808,1.752,15.678,2.163,23.473    c0.544,10.316,2.481,20.573,2.81,30.935c0.303,9.552,1.206,19.13,1.884,28.689c0.361,5.085,0.342,10.106,0.492,15.195    c0.184,6.187,3.228,14.277-6.428,14.049c-4.185-0.099-8.308-1.089-12.467-1.277c-3.49-0.158-5.148-0.578-5.616-4.629    c-0.331-2.869-0.647-5.688-0.537-8.578c0.408-10.702,3.444-21.088,3.55-31.817c0.054-5.441,0.999-10.75,1.185-16.17    C287.22,414.478,286.95,408.737,286.955,403.037z M308.39,362.512c-0.311,1.599-1.305,2.458-2.525,3.002    c-1.32,0.092-2.766,0.071-3.235,0.111c-3.303,0.282-6.587,0.657-9.902,0.643c-2.606-0.011-11.002,1.153-12.347-0.813    c-0.457-0.668-0.434-2.929-0.372-4.745c4.287,0.15,9.053,0.166,13.458-0.448c1.1-0.001,2.201,0.001,3.302-0.005    c2.2-0.012,4.401-0.003,6.602-0.034c0.404-0.006,1.137-0.11,1.883-0.184c0.588-0.005,1.172-0.028,1.759-0.038    c0.168,0.025,0.319,0.059,0.424,0.117C308.238,360.554,308.683,361.005,308.39,362.512z M212.008,370.305    c2.414,0.239,4.821,0.445,7.261,0.455c1.163,0.004,2.553,0.12,4.036,0.232c0.687,10.696,1.729,21.314,1.737,32.045    c0.004,5.701-0.265,11.442-0.07,17.138c0.186,5.419,1.131,10.729,1.185,16.17c0.106,10.729,3.142,21.115,3.55,31.817    c0.111,2.891-0.206,5.709-0.537,8.578c-0.468,4.05-2.126,4.471-5.616,4.629c-4.159,0.188-8.282,1.178-12.467,1.277    c-9.656,0.229-6.612-7.862-6.428-14.049c0.151-5.089,0.131-10.111,0.492-15.195c0.679-9.558,1.582-19.136,1.884-28.689    c0.328-10.361,2.264-20.619,2.81-30.935C210.257,385.983,212.422,378.114,212.008,370.305z M231.616,365.455    c-1.344,1.966-9.741,0.802-12.347,0.813c-3.315,0.014-6.599-0.362-9.902-0.643c-0.469-0.04-1.916-0.019-3.235-0.111    c-1.219-0.544-2.215-1.402-2.525-3.002c-0.292-1.507,0.152-1.958,0.954-2.394c0.106-0.058,0.256-0.092,0.424-0.117    c0.587,0.009,1.172,0.033,1.759,0.038c0.745,0.075,1.479,0.178,1.883,0.184c2.2,0.029,4.401,0.022,6.602,0.034    c3.845,0.02,7.694-0.081,11.521,0.349c1.016,0.114,3.589-0.154,5.235-0.022C232.049,362.419,232.083,364.772,231.616,365.455z     M160.464,370.305c2.414,0.239,4.821,0.445,7.261,0.455c1.163,0.004,2.553,0.12,4.036,0.232    c0.687,10.696,1.729,21.314,1.737,32.045c0.004,5.701-0.265,11.442-0.071,17.138c0.186,5.419,1.131,10.729,1.185,16.17    c0.106,10.729,3.142,21.115,3.55,31.817c0.111,2.891-0.206,5.709-0.537,8.578c-0.468,4.05-2.126,4.471-5.616,4.629    c-4.159,0.188-8.282,1.178-12.467,1.277c-9.656,0.229-6.612-7.862-6.428-14.049c0.151-5.089,0.131-10.111,0.492-15.195    c0.679-9.558,1.581-19.136,1.884-28.689c0.328-10.361,2.266-20.619,2.81-30.935C158.712,385.983,160.877,378.114,160.464,370.305z     M180.071,365.455c-1.344,1.966-9.741,0.802-12.347,0.813c-3.315,0.014-6.599-0.362-9.902-0.643    c-0.469-0.04-1.916-0.019-3.235-0.111c-1.219-0.544-2.215-1.402-2.525-3.002c-0.292-1.507,0.152-1.958,0.954-2.394    c0.727-0.396,3.182,0.093,4.066,0.105c2.2,0.029,4.401,0.022,6.602,0.034c3.845,0.02,7.694-0.081,11.521,0.349    c1.016,0.114,3.589-0.154,5.236-0.022C180.504,362.419,180.539,364.772,180.071,365.455z M108.918,370.305    c2.414,0.239,4.821,0.445,7.261,0.455c1.163,0.004,2.553,0.12,4.036,0.232c0.687,10.696,1.729,21.314,1.737,32.045    c0.004,5.701-0.265,11.442-0.071,17.138c0.186,5.419,1.131,10.729,1.185,16.17c0.106,10.729,3.142,21.115,3.55,31.817    c0.111,2.891-0.206,5.709-0.537,8.578c-0.468,4.05-2.126,4.471-5.616,4.629c-4.159,0.188-8.282,1.178-12.467,1.277    c-9.656,0.229-6.612-7.862-6.428-14.049c0.151-5.089,0.131-10.111,0.492-15.195c0.679-9.558,1.582-19.136,1.884-28.689    c0.328-10.361,2.266-20.619,2.81-30.935C107.166,385.983,109.332,378.114,108.918,370.305z M128.525,365.455    c-1.344,1.966-9.742,0.802-12.347,0.813c-3.315,0.014-6.599-0.362-9.902-0.643c-0.469-0.04-1.916-0.019-3.235-0.111    c-1.219-0.544-2.215-1.402-2.525-3.002c-0.292-1.507,0.152-1.958,0.954-2.394c0.727-0.396,3.182,0.093,4.066,0.105    c2.2,0.029,4.401,0.022,6.602,0.034c3.845,0.02,7.694-0.081,11.521,0.349c1.016,0.114,3.587-0.154,5.236-0.022    C128.959,362.419,128.993,364.772,128.525,365.455z M423.249,489.809c-0.137,1.486-0.584,3.085-0.561,4.573    c0.036,2.317,0.465,4.728,0.052,7.072c-0.105,0.594-0.066,1.113,0.061,1.568c-10.231-0.13-20.471-0.45-30.614-1.074    c-16.728-1.031-34.056-2.211-50.806-1.291c-7.957,0.437-15.963,0.512-23.937,0.54c-7.786,0.027-15.662-0.861-23.411,0.131    c-1.649-0.029-3.292-0.028-4.919,0.04c-0.581,0.024-1.166,0.036-1.753,0.042c-0.877-0.017-1.754-0.027-2.633-0.028    c-8.669-0.239-17.809-1.802-26.093,0.18c-0.333,0.08-0.611,0.229-0.847,0.417c-1.147,0.033-2.294,0.07-3.44,0.12    c-0.26-0.249-0.587-0.442-0.99-0.537c-9.696-2.32-20.566,0.223-30.479-0.194c-1.627-0.068-3.269-0.071-4.919-0.04    c-7.75-0.992-15.625-0.104-23.411-0.131c-7.973-0.028-15.98-0.104-23.937-0.54c-16.749-0.92-34.077,0.262-50.806,1.291    c-10.142,0.624-20.384,0.945-30.614,1.074c0.128-0.456,0.166-0.975,0.061-1.568c-0.414-2.344,0.016-4.755,0.052-7.072    c0.024-1.489-0.424-3.088-0.561-4.573c-0.014-0.152-0.028-0.284-0.042-0.429c2-0.247,3.871-0.525,5.393-0.68    c3.36-0.339,6.669-0.216,10.039-0.41c0.291-0.016,0.581-0.058,0.871-0.081c3.654,0.28,7.609-0.232,11.157-0.65    c3.117-0.368,7.04-0.103,10.012-1.103c0.029-0.011,0.054-0.026,0.084-0.037c4.397-0.117,8.804-0.061,13.122,0.403    c5.301,0.569,10.576,1.494,15.895,1.923c14.29,1.155,29.178,1.548,43.521,0.654c8.505-0.53,17.918,0.553,26.933,0.128    c8.357,0.275,16.772-0.117,25.133-0.059c10.673,0.072,21.46,0.626,32.101,0.176c9.45-0.401,19.148,1.249,28.475-0.323    c0.588,0.021,1.178,0.041,1.758,0.078c14.342,0.894,29.23,0.501,43.521-0.654c5.319-0.429,10.594-1.354,15.895-1.923    c4.318-0.464,8.725-0.52,13.123-0.403c0.029,0.011,0.054,0.026,0.084,0.036c2.971,1,6.895,0.735,10.012,1.103    c3.546,0.418,7.502,0.93,11.157,0.65c0.291,0.024,0.58,0.065,0.871,0.081c3.369,0.194,6.68,0.071,10.039,0.41    c1.522,0.154,3.394,0.432,5.393,0.68C423.277,489.525,423.263,489.657,423.249,489.809z M425.215,367.079    c-1.648,12.243-0.649,25.353-0.734,37.705c-0.097,13.996,0.517,27.869,0.385,41.884c-0.117,12.357-0.946,24.456-1.779,36.778    c-2.455-0.344-4.914-0.712-7.38-0.905c0.995-2.508,1.131-5.575,0.805-8.64c-0.977-9.152-0.998-18.48-1.712-27.681    c-0.694-8.949-1.026-17.865-1.724-26.807c-0.695-8.906-1.665-17.793-2.533-26.696c-0.409-4.186-0.834-8.379-1.54-12.529    c-0.593-3.486-1.72-6.753-2.347-10.221c2.183-0.119,4.988-0.078,6.677-1.149c0.853-0.541,1.404-1.196,1.758-1.918    c0.181-0.271,0.351-0.557,0.496-0.873c0.781-1.704,1.079-4.378,0.549-6.65c1.897-0.229,3.786-0.421,5.741-0.303    c1.415,0.086,2.713,0.133,4,0.068C425.767,361.797,425.57,364.443,425.215,367.079z M426,354.429    c-4.317-0.696-8.617-0.587-13.066-0.254c-6.223,0.464-12.204-0.416-18.403-0.409c-13.368,0.016-26.754,0.269-40.132,0.353    c-14.468,0.092-29.075-1.201-43.484-0.211c-7.316,0.502-14.845-0.057-22.181,0.02c-5.406,0.055-10.62-0.356-15.872,0.324    c-5.148-0.186-10.298-0.333-15.464-0.292c-6.021,0.048-12.053,0.397-18.056,0.243c-0.271-0.007-0.541-0.026-0.812-0.036    c-1.791-0.204-3.578-0.29-5.371-0.313c-1.023-0.06-2.046-0.111-3.071-0.119c-0.753-0.006-1.474,0.057-2.18,0.157    c-1.536,0.026-3.081,0.052-4.643,0.035c-7.336-0.077-14.864,0.482-22.181-0.02c-14.409-0.99-29.016,0.302-43.484,0.211    c-13.377-0.085-26.763-0.338-40.131-0.353c-6.199-0.007-12.18,0.873-18.403,0.409c-4.45-0.332-8.75-0.442-13.066,0.254    c-0.092-8.447,0.331-16.932-0.788-25.326c6.342-0.502,12.653-1.087,19.016-1.283c-0.76,3.001-0.935,6.58-0.866,9.513    c0.051,2.165-0.536,5.777,0.774,7.626c1.507,2.125,4.599,0.994,4.904-0.947c0.152-0.31,0.259-0.661,0.297-1.058    c0.277-2.902,0.763-5.594,0.694-8.532c-0.053-2.235-0.027-4.47-0.032-6.701c5.272-0.015,10.704,0.019,15.993-0.265    c0.07,0.642,0.145,1.284,0.221,1.926c-0.782,4.289-0.085,9.252-0.24,13.249c-0.146,3.746,5.551,3.693,5.793,0    c0.198-3.027,0.708-5.994,0.649-9.033c-0.044-2.229-0.357-4.398-0.707-6.574c5.022-0.439,10.184-0.133,15.324,0.132    c0.032,0.845,0.113,1.692,0.203,2.541c-0.007,0.65-0.041,1.298-0.148,1.939c-0.583,3.484-0.277,7.161-0.362,10.685    c-0.087,3.591,5.489,3.589,5.578,0c0.071-2.865,0.657-5.761,0.833-8.641c0.124-2.042-0.004-4.187-0.266-6.288    c0.666,0.016,1.332,0.034,1.995,0.036c4.696,0.019,9.425,0.091,14.164,0.143c0.173,1.034,0.368,2.056,0.491,3.023    c-0.138,1.146-0.289,2.275-0.365,3.328c-0.239,3.275,0.068,6.397,0.004,9.648c-0.073,3.684,5.489,3.637,5.693,0    c0.2-3.561,0.944-7.151,0.657-10.728c-0.119-1.482-0.445-2.987-0.651-4.451c-0.012-0.085-0.028-0.384-0.058-0.776    c6.849,0.029,13.705-0.065,20.503-0.508c-0.022,0.242-0.042,0.448-0.065,0.584c-0.232,1.443-0.547,2.787-0.542,4.247    c0.009,3.06,0.092,6.17,0.246,9.219c0.124,2.44,2.823,3.44,4.619,1.913c1.704-1.449,1.245-5.141,1.385-7.148    c0.22-3.159,0.317-6.189,0.16-9.285c1.065-0.105,2.13-0.217,3.19-0.344c4.414-0.53,8.825-0.959,13.25-1.188    c-1.111,3.812-0.156,7.909-0.388,11.825c-0.154,0.958-0.297,1.92-0.401,2.899c-0.009,0.08-0.028,0.165-0.031,0.243    c-0.004,0.031-0.008,0.06-0.012,0.091h0.016c-0.004,2.869,4.339,3.811,5.333,0.723c1.634-5.074,1.877-10.577,1.808-15.959    c0.996-0.001,1.992,0.008,2.991,0.033c3.361,0.086,6.636,0.348,9.876,0.434c-0.008,1.014-0.16,2.244-0.28,3.351    c-0.465,3.867-0.423,7.763,0.004,11.726c0.368,3.413,5.223,3.545,5.413,0c0.212-3.944-0.106-7.923,0.153-11.858    c0.071-1.08,0.161-2.198,0.151-3.307c0.39-0.027,0.781-0.078,1.171-0.118c3.214,0.001,6.434-0.108,9.642-0.238    c-0.564,1.872-0.662,3.938-0.7,5.859c-0.072,3.598-0.221,7.566,0.264,11.127c0.507,3.716,5.736,2.337,6.07-0.821    c0.015-0.144,0.031-0.287,0.045-0.431c0.046-0.437-0.053-0.86-0.252-1.239c-0.373-2.954-0.309-6.356-0.369-9.269    c-0.036-1.761,0.205-3.652-0.04-5.429c0.503-0.021,1.008-0.042,1.51-0.061c1.716-0.064,3.445-0.105,5.177-0.138    c1.709,0.389,3.414,0.636,5.12,0.758c-0.011,1.109,0.079,2.227,0.151,3.307c0.259,3.936-0.059,7.913,0.153,11.858    c0.191,3.545,5.046,3.413,5.413,0c0.428-3.963,0.469-7.859,0.004-11.726c-0.119-1.107-0.271-2.336-0.279-3.351    c3.239-0.086,6.514-0.348,9.876-0.434c0.999-0.025,1.996-0.035,2.991-0.033c-0.068,5.382,0.174,10.885,1.808,15.959    c0.994,3.088,5.336,2.145,5.333-0.723h0.016c-0.002-0.031-0.008-0.06-0.012-0.091c-0.002-0.078-0.021-0.161-0.031-0.243    c-0.105-0.979-0.247-1.942-0.401-2.899c-0.232-3.916,0.723-8.012-0.388-11.825c4.426,0.229,8.836,0.657,13.25,1.188    c1.061,0.127,2.125,0.239,3.19,0.344c-0.157,3.096-0.06,6.126,0.16,9.285c0.14,2.008-0.318,5.699,1.385,7.148    c1.795,1.527,4.496,0.527,4.619-1.913c0.154-3.049,0.237-6.16,0.246-9.219c0.005-1.461-0.309-2.805-0.542-4.247    c-0.022-0.137-0.042-0.344-0.065-0.584c6.798,0.443,13.652,0.536,20.503,0.508c-0.029,0.392-0.046,0.69-0.058,0.776    c-0.206,1.466-0.534,2.969-0.651,4.451c-0.286,3.578,0.457,7.166,0.657,10.728c0.204,3.637,5.767,3.684,5.693,0    c-0.065-3.25,0.243-6.372,0.004-9.648c-0.077-1.054-0.227-2.182-0.365-3.328c0.124-0.967,0.318-1.989,0.491-3.023    c4.74-0.052,9.47-0.124,14.164-0.143c0.662-0.002,1.329-0.021,1.995-0.036c-0.261,2.101-0.39,4.246-0.266,6.288    c0.176,2.88,0.762,5.776,0.833,8.641c0.089,3.589,5.665,3.591,5.578,0c-0.085-3.525,0.221-7.202-0.362-10.685    c-0.107-0.641-0.141-1.289-0.148-1.939c0.089-0.849,0.17-1.696,0.203-2.541c5.14-0.266,10.3-0.571,15.324-0.132    c-0.35,2.176-0.664,4.346-0.707,6.574c-0.059,3.038,0.451,6.006,0.65,9.033c0.241,3.693,5.939,3.746,5.793,0    c-0.156-3.997,0.542-8.958-0.24-13.249c0.075-0.642,0.152-1.284,0.221-1.926c5.289,0.284,10.721,0.25,15.993,0.265    c-0.005,2.231,0.021,4.466-0.032,6.701c-0.07,2.938,0.418,5.629,0.694,8.532c0.038,0.397,0.145,0.748,0.297,1.058    c0.305,1.942,3.396,3.071,4.904,0.947c1.31-1.848,0.723-5.461,0.774-7.626c0.069-2.935-0.106-6.513-0.866-9.513    c6.363,0.197,12.674,0.782,19.016,1.283C425.669,337.497,426.091,345.982,426,354.429z M503.702,501.36    c-3.023,1.59-7.999,1.1-11.388,1.316c-16.466,1.047-32.881,0.246-49.372,0.38c-4.824,0.04-9.669,0.046-14.52,0.017    c0.081-0.253,0.144-0.524,0.171-0.827c0.223-2.518-0.193-5.219-0.437-7.711c-0.121-1.248-0.114-2.492-0.137-3.726    c8.378,1.752,18.316,0.353,26.755,0.375c8.264,0.021,16.556-0.399,24.786-1.089c1.778-0.148,3.665-0.072,5.524-0.052    c1.028,0.031,2.058,0.057,3.084,0.073c3.925,0.062,10.195-0.557,13.842,0.948c2.751,1.136,3.096,3.289,3.249,6.108    C505.389,499.546,505.64,500.34,503.702,501.36z"/>
	</g>
</g>
<g>
	<g>
		<path d="M372.707,302.941c-3.13-2.48-7.186-4.115-10.866-5.647c-5.221-2.174-10.165-4.837-15.471-6.838    c-8.433-3.18-16.757-6.617-25.186-9.769c-8.924-3.336-17.965-6.738-26.674-10.664c-3.889-1.753-7.799-3.255-11.789-4.69    c-4.028-3.028-10.169-4.813-14.484-6.363c-5.014-1.803-10.549-3.731-15.896-2.31c-9.531,2.531-20.437,5.827-29.284,11.024    c-1.864,0.741-3.721,1.508-5.569,2.341c-8.709,3.927-17.749,7.328-26.674,10.664c-8.428,3.151-16.754,6.589-25.186,9.769    c-5.305,2-10.25,4.664-15.471,6.838c-3.68,1.533-7.735,3.167-10.866,5.647c-0.799,0.633-1.054,1.997-0.774,2.926    c2.031,6.732,13.858,3.863,18.937,3.46c9.943-0.788,19.843-1.312,29.827-1.062c10.532,0.265,21,0.333,31.534-0.001    c2.382-0.075,4.754-0.157,7.126-0.217c3.141,0.549,6.428,0.404,9.678,0.504c6.78,0.207,13.547,0.31,20.336,0.454    c11.871,0.251,24.143,0.626,35.965-0.781c0.418,0.013,0.836,0.027,1.256,0.04c10.535,0.333,21.002,0.266,31.534,0.001    c9.986-0.251,19.885,0.273,29.827,1.061c5.078,0.403,16.906,3.272,18.939-3.461C373.762,304.937,373.507,303.574,372.707,302.941z     M343.534,302.718c-8.239-0.53-16.51-0.06-24.747,0.205c-8.865,0.286-17.748-0.132-26.603-0.296    c-4.035-0.075-7.997-0.345-12.041-0.31c-3.253,0.028-6.848,0.672-10.087,0.424c-0.39-0.029-0.734,0.06-1.025,0.231    c-4.325-0.032-8.67-0.027-13.071-0.09c-6.092-0.086-12.243-0.286-18.327-0.199c-1.951-0.137-3.92-0.351-5.777-0.366    c-4.044-0.035-8.006,0.236-12.041,0.31c-8.856,0.164-17.738,0.582-26.603,0.296c-8.237-0.266-16.509-0.735-24.747-0.205    c-1.691,0.108-13.687,1.209-20.108,1.557c2.785-1.345,5.79-2.447,8.378-3.71c4.84-2.362,9.705-4.487,14.732-6.415    c7.886-3.022,15.649-6.392,23.508-9.412c8.062-3.096,16.199-6.548,23.993-10.266c3.759-1.793,7.608-3.399,11.459-5    c7.02-2.033,13.965-4.48,20.844-6.795c10.039-3.378,18.765,4.194,28.361,5.986c4.497,1.873,9.009,3.713,13.4,5.809    c7.794,3.718,15.932,7.17,23.993,10.266c7.859,3.02,15.622,6.389,23.508,9.412c5.028,1.927,9.893,4.052,14.732,6.415    c2.587,1.263,5.594,2.363,8.378,3.71C357.221,303.928,345.224,302.828,343.534,302.718z"/>
	</g>
</g>
<g>
</g>
<g>
</g>
<g>
</g>
<g>
</g>
<g>
</g>
<g>
</g>
<g>
</g>
<g>
</g>
<g>
</g>
<g>
</g>
<g>
</g>
<g>
</g>
<g>
</g>
<g>
</g>
<g>
</g>
</svg>
