<?xml version="1.0" encoding="iso-8859-1"?>
<!-- Generator: Adobe Illustrator 19.0.0, SVG Export Plug-In . SVG Version: 6.00 Build 0)  -->
<svg xmlns="http://www.w3.org/2000/svg" xmlns:xlink="http://www.w3.org/1999/xlink" version="1.1" id="Layer_1" x="0px" y="0px" viewBox="0 0 511.999 511.999" style="enable-background:new 0 0 511.999 511.999;" xml:space="preserve">
<g>
	<g>
		<path d="M510.383,277.753c-0.624-3.961-1.883-8.098-3.253-11.864c-1.494-4.105-2.203-8.402-3.786-12.451    c-1.414-3.619-2.784-7.007-4.607-10.43c-1.945-3.655-2.285-7.708-4.283-11.353c-2.086-3.806-4.297-7.208-5.88-11.26    c-1.489-3.81-3.667-7.549-5.913-10.978c-2.4-3.664-5.236-7.05-7.685-10.699c-2.065-3.077-3.678-6.501-6.114-9.295    c-5.729-6.567-10.961-13.526-16.534-20.223c-5.945-7.144-12.684-13.501-19.422-19.868c-6.589-6.227-14.239-11.069-21.306-16.724    c-7.369-5.898-16.44-10.337-24.573-15.12c-2.769-1.628-5.853-2.914-8.488-4.492c-3.477-2.082-6.059-3.901-10.131-4.946    c-3.643-0.934-7.644-1.909-11.396-2.194c-3.96-0.3-8.351,1.286-12.141,2.376c-6,1.724-11.637,4.228-17.083,7.135    c-7.863,3.067-15.481,7.459-22.71,11.581c-16.466,9.389-31.653,19.179-44.248,33.547c-2.894,3.301-5.826,6.095-9.015,9.09    c-3.733,3.507-6.621,7.995-9.816,11.982c-0.313,0.39-0.61,0.791-0.917,1.186c-0.612-0.959-1.142-2.224-1.711-2.956    c-1.454-1.872-3.123-3.469-4.737-5.195c-3.34-3.574-6.538-7.093-10.261-10.283c-6.76-5.792-13.905-11.267-21.334-16.241    c-8.32-5.57-16.857-11.09-24.604-17.438c-3.47-2.843-7.383-4.62-11.132-7.01c-3.1-1.976-6.262-3.065-9.483-4.816    c-1.524-0.827-3.502-0.652-4.746,0.612c-2.626,2.669-6.63,4.446-9.809,6.409c-4.746,2.933-9.602,5.678-14.47,8.404    c-4.316,2.418-8.627,4.848-12.858,7.416c-3.626,2.2-6.565,5.127-10.14,7.382c-14.763,9.316-28.218,20.916-41.477,32.186    c-26.043,22.135-42.99,51.858-53.702,83.937c-5.759,17.244-6.652,35.8-5.448,53.789c1.138,16.998,5.243,35.695,14.921,49.937    c2.592,3.815,6.114,8.627,10.22,12.15c-4.187-0.065-8.464-0.451-12.55-0.496c-4.553-0.049-9.706-0.318-13.664,2.369    c-3.601,2.445-4.146,5.939-4.096,10.026c0.048,3.829-0.07,8.524,4.375,9.786c1.791,0.509,3.798-0.154,5.623-0.113    c3.31,0.074,6.574,0.665,9.905,0.671c6.768,0.011,13.646,0.313,20.357-0.43c14.556-1.613,29.71,1.24,44.323,1.303    c14.608,0.062,29.265,0.364,43.86,0.963c29.818,1.222,59.814,0.381,89.657,0.396c16.752,0.008,33.481,0.041,50.228-0.447    c10.331-0.3,20.97-0.262,31.452-0.932c3.683,0.188,7.36,0.384,11.046,0.435c6.711,0.091,13.43-0.431,20.144-0.121    c13.928,0.645,27.771,1.733,41.724,1.731c7.049-0.001,14.1,0.022,21.148-0.019c2.935-0.017,5.631-0.505,8.52-0.694    c3.954-0.256,7.982,0.353,11.952,0.12c13.749-0.81,27.58-0.437,41.344-1.401c12.538-0.877,24.884-3.248,37.387-4.223    c3.709-0.289,8.413,0.477,10.319-3.357c1.587-3.195,1.861-9.919,1.495-13.414c-1.15-11-14.394-7.832-22.422-7.669    c1.365-1.249,2.711-2.688,4.036-4.374c10.115-12.868,16.955-28.431,21.118-44.18c1.015-3.835,1.252-7.341,1.653-11.234    c0.45-4.355,2.113-8.479,2.489-12.865C512.436,294.666,511.658,285.857,510.383,277.753z M14.5,328.32    c-3.236-17.331-2.567-35.981,1.149-53.197c3.464-16.053,10.786-30.877,18.213-45.347c7.443-14.501,18.066-27.588,29.686-39.021    c6.457-6.353,13.647-12.496,20.818-18.012c7.743-5.957,15.581-12.384,23.739-17.735c3.51-2.302,6.514-5.197,10.007-7.443    c4.459-2.867,9.199-5.367,13.83-7.944c4.877-2.714,9.65-5.594,14.492-8.363c2.991-1.71,6.421-2.84,9.447-4.504    c2.206,1.18,4.584,2.105,6.682,3.453c3.601,2.315,7.504,3.917,10.86,6.664c7.616,6.236,15.977,11.517,24.066,17.102    c7.58,5.234,14.986,10.761,22.132,16.508c3.967,3.191,7.414,6.935,11.098,10.432c2.094,1.987,4.297,4.892,6.763,6.701    c-2.166,3.08-4.234,6.223-6.325,9.35c-2.052-2.929-4.68-5.562-7.138-8.01c-5.341-5.32-11.114-10.338-16.68-15.437    c-10.283-9.421-21.997-17.232-33.175-25.544c-3.817-2.838-8.01-5.074-11.894-7.839c-4.888-3.48-6.831-6.599-13.192-3.805    c-4.991,2.192-9.696,5.454-14.156,8.559c-6.065,4.222-12.46,7.917-18.182,12.611c-21.841,17.913-40.659,38.004-56.571,61.483    c-8.843,13.047-15.734,28.963-19.948,44.133c-4.409,15.866-5.488,30.642-3.336,46.976c1.85,14.043,7.055,30.632,15.056,42.489    c4.118,6.104,9.356,12.075,14.66,17.145c2.263,2.162,4.844,4.327,7.524,5.948c1.456,0.88,2.788,1.661,4.154,2.539    c-4.471-0.202-8.944-0.412-13.432-0.46c-4.431-0.047-8.767-0.467-13.181-0.722c-4.193-0.243-9.585,0.838-13.275-1.309    C22.462,366.45,17.598,344.915,14.5,328.32z M197.294,320.77c0.012,9.536,1.71,19.134,5.362,27.952    c3.613,8.722,7.399,17.799,13.911,24.796c1.883,2.023,3.977,3.643,6.221,4.958c-4.593,0.064-9.188,0.128-13.778,0.088    c-8.956-0.078-18.039,0.916-27.072,0.945c-8.354,0.026-16.708-0.042-25.062-0.104c2.67-3.376,4.708-7.785,6.505-10.685    c4.728-7.624,8.179-15.416,11.309-23.833c6.391-17.187,11.306-34.454,12.506-52.801c1.215-18.553,3.184-36.938,1.526-55.549    c-1.583-17.758-5.828-35.327-10.989-52.325c-1.321-4.35-3.417-8.718-5.332-12.845c-2.153-4.637-4.218-9.525-6.679-14.025    c-2.026-3.705-4.548-7.037-6.547-10.752c-1.279-2.377-2.635-4.176-4.32-5.796c0.153,0.055,0.305,0.11,0.462,0.184    c1.52,0.708,4.297,3.354,5.75,4.39c2.124,1.514,4.164,3.166,6.289,4.619c4.845,3.312,9.746,6.669,14.444,10.244    c6.283,4.782,13.131,9.241,18.964,14.57c4.762,4.353,9.062,9.397,13.995,13.533c4.587,3.845,9.884,8.418,12.786,13.888    c-0.611,0.867-1.214,1.74-1.844,2.595c-5.068,6.872-9.732,15.643-12.676,23.672c-3.801,10.37-8.07,20.879-11.026,31.524    c-2.853,10.276-4.835,21.691-5.421,32.343C196.061,301.851,197.282,311.253,197.294,320.77z M150.917,379.362    c-19.981-0.125-39.948-0.663-59.929-0.756c-1.831-0.008-3.66-0.059-5.487-0.115c-0.671-0.868-1.852-1.302-2.841-2.065    c-2.108-1.629-4.052-3.142-6.253-4.654c-5.996-4.12-11.308-10.162-15.673-15.936c-7.677-10.158-12.487-21.105-15.709-33.418    c-4.019-15.363-6.106-31.08-2.708-46.819c3.285-15.214,9.036-29.089,15.985-42.954c11.479-22.907,29.837-42.896,48.616-59.938    c10.169-9.227,20.915-16.869,32.306-24.512c2.55-1.711,5.001-3.254,7.7-4.685c1.675-0.887,3.158-2.172,4.793-2.729    c2.8,3.322,4.501,6.631,6.657,10.571c2.65,4.846,5.482,9.112,7.689,14.252c3.977,9.261,8.151,18.207,10.95,27.922    c5.957,20.675,8.712,42.712,8.782,64.178c0.035,10.851-1.784,21.842-2.419,32.687c-0.609,10.404-2.168,21.2-4.883,31.295    c-2.91,10.822-7.342,21.358-11.664,31.674c-2.265,5.407-5.213,10.059-8.43,14.957    C156.226,371.627,153.911,376.248,150.917,379.362z M494.494,381.983c3.023,0.074,3.448-0.419,3.881,2.496    c0.275,1.848-0.435,4.17-0.653,6.041c0.092-0.788-0.333,1.46-0.265,2.503c-0.313,0.119-0.692,0.239-1.115,0.28    c-2.979,0.288-5.928,0.487-8.885,0.909c-12.426,1.771-24.79,3.514-37.36,3.906c-12.972,0.403-26.106,0.995-39.049,0.958    c-25.255-0.07-50.358,0.69-75.661-0.862c-7.214-0.443-14.399-0.46-21.627-0.279c-0.881,0.023-1.761,0.026-2.642,0.018    c-3.594-0.395-7.189-0.514-10.785-0.476c-2.849-0.157-5.702-0.285-8.569-0.249c-7.057,0.089-13.995,0.651-21.025,0.976    c-2.28,0.106-4.545,0.316-6.802,0.562c-8.713,0.174-17.427,0.315-26.149,0.318l-81.348,0.042    c-13.909,0.007-27.782-0.383-41.685-0.624c-13.005-0.223-26.15,0.076-39.132-0.526c-12.125-0.562-24.755-2.042-36.825-0.433    c-6.463,0.862-13.419,0.542-19.95,0.431c-2.922-0.05-5.955-0.245-8.849-0.702c-1.267-0.201-2.399,0.776-3.524-0.675    c-0.25-0.322-0.166-4.086-0.113-4.452c1.072-7.369,12.122-5.308,17.684-5.374c5.635-0.067,10.99-0.249,16.525-0.858    c0.118-0.013,0.239-0.03,0.357-0.043c3.225,0.22,6.708-0.266,9.747-0.238c4.733,0.044,9.432,0.439,14.172,0.399    c20.342-0.175,40.762,0.13,61.117,0.689c24.17,0.665,48.465,0.627,72.641,0.318c9.879-0.126,19.732-0.602,29.674-0.562    c11.213,0.044,23.005,1.512,33.958-0.714c0.108-0.022,0.205-0.06,0.305-0.095c2.271,0.001,4.543-0.091,6.825-0.335    c10.041-1.075,21.058-0.49,31.048,0.539c10.417,1.073,20.924-0.706,31.361-0.741c25.841-0.085,51.746,0.424,77.578-0.05    c11.075-0.203,22.297-0.761,33.334-1.5c9.399-0.628,17.6,0.199,25.014-1.036C476.643,382.276,485.579,381.762,494.494,381.983z     M501.284,310.27c-0.981,4.142-0.875,8.341-1.847,12.457c-1.844,7.817-4.585,16.113-8.61,23.016    c-4.39,7.531-8.009,15.155-13.759,21.815c-1.297,1.502-2.832,3.385-4.517,5.042c-9.25,0.419-18.391,1.748-27.672,1.961    c-4.24,0.097-8.342,0.897-12.587,0.736c-4.918-0.186-9.953-0.299-14.859,0.144c-20.54,1.855-41.676,0.558-62.309,0.49    c-10.184-0.034-20.369-0.041-30.552-0.132c-4.895-0.044-9.655,0.846-14.543,0.909c-4.997,0.065-9.741-0.605-14.69-1.088    c-4.751-0.463-9.562,0.118-14.327,0.046c-4.54-0.068-9.009-0.271-13.538,0.11c-9.485,0.801-19.642-0.681-29.075-2.179    c-9.866-1.567-16.482-6.719-21.291-15.493c-4.953-9.035-9.362-18.512-10.702-28.788c-1.143-8.771-0.648-17.585-1.737-26.369    c-1.226-9.89,0.896-19.738,2.539-29.431c3.404-20.072,10.768-39.414,19.815-57.527c3.77-7.546,8.503-15.089,13.526-21.861    c5.577-7.52,10.211-16.1,17.304-22.364c3.538-3.124,6.359-6.867,9.53-10.351c1.918-2.107,4.051-3.933,6.17-5.774    c5.313-3.469,10.726-6.561,15.562-10.727c5.432-4.679,12.664-7.73,18.791-11.505c7.203-4.439,13.91-9.106,21.575-12.819    c7.546-3.656,15.321-6.481,23.683-7.562c3.86-0.5,7.657,0.419,11.427,1.332c1.583,0.383,3.263,0.718,4.772,1.338    c2.813,1.157,3.858,3.218,6.354,4.444c2.006,0.986,3.601,1.324,5.615,2.581c3.218,2.01,6.544,3.869,9.784,5.847    c3.893,2.379,7.937,4.563,11.786,7.002c4.046,2.563,7.383,5.969,11.257,8.765c13.097,9.459,25.159,20.375,35.062,33.258    c9.28,12.075,19.117,23.588,27.162,36.56c3.651,5.889,5.828,12.355,9.315,18.336c2.074,3.556,2.771,6.755,4.093,10.543    c1.227,3.519,3.303,6.698,4.667,10.176c2.55,6.504,4.378,13.559,6.191,20.321c2.134,7.958,2.38,15.762,2.517,23.959    C503.242,302.011,502.311,305.934,501.284,310.27z"/>
	</g>
</g>
<g>
</g>
<g>
</g>
<g>
</g>
<g>
</g>
<g>
</g>
<g>
</g>
<g>
</g>
<g>
</g>
<g>
</g>
<g>
</g>
<g>
</g>
<g>
</g>
<g>
</g>
<g>
</g>
<g>
</g>
</svg>
