<?xml version="1.0" encoding="iso-8859-1"?>
<!-- Generator: Adobe Illustrator 19.0.0, SVG Export Plug-In . SVG Version: 6.00 Build 0)  -->
<svg xmlns="http://www.w3.org/2000/svg" xmlns:xlink="http://www.w3.org/1999/xlink" version="1.1" id="Layer_1" x="0px" y="0px" viewBox="0 0 512.002 512.002" style="enable-background:new 0 0 512.002 512.002;" xml:space="preserve">
<g>
	<g>
		<path d="M362.414,496.106c-0.375-0.042-0.756-0.057-1.135-0.089c0.329-0.945,0.387-2.037,0.077-3.308    c-1.19-4.873-4.715-9.713-6.869-14.224c-2.587-5.417-5.319-10.724-7.686-16.243c-4.293-10.012-8.566-20.024-13.088-29.932    c-4.512-9.885-8.57-20.094-11.947-30.397c-1.803-5.499-4.393-10.723-6.135-16.247c-1.405-4.457-2.805-8.936-4.609-13.241    c-4.052-9.667-8.319-19.292-11.971-29.113c-1.937-5.211-3.997-10.418-6.033-15.587c-1.082-2.746-2.502-5.393-3.643-8.135    c1.114-0.08,2.21-0.229,3.267-0.498c7.955-2.024,7.786-14.023,7.853-20.781c0.035-3.563,0.839-7.04-3.15-8.53    c-3.526-1.317-7.994-0.561-11.739-0.672c-0.09-2.388-0.803-4.224-1.296-6.83c-0.711-3.757-1.456-7.492-2.152-11.257    c-1.283-6.941-2.1-13.93-3.411-20.853c-1.377-7.267-2.2-14.722-2.625-22.094c-0.405-7.022-2.056-14.101-2.772-21.118    c-0.668-6.553-0.33-13.259-1.48-19.741c-0.75-4.231-1.086-8.555-1.396-12.873l0.022-0.035c0.366-0.59,0.254-1.363-0.16-1.889    c-0.106-1.466-0.214-2.93-0.343-4.388c-0.596-6.777-1.411-13.748-1.327-20.564c0.069-5.61-0.286-11.337-1.313-16.875    c3.797,0.075,8.342,0.049,11.816-1.014c5.082-1.555,7.082-10.009,8.382-14.566c0.218-0.764,0.013-1.768-0.609-2.304    c-2.776-2.39-7.152-3.071-11.467-2.942c0.975-4.151,0.198-9.963,0.12-13.014c-0.132-5.168,0.833-14.55-3.709-18.336    c-2.038-1.699-4.915-2.985-7.865-3.517c0.107-5.363-0.063-10.812-0.739-16.098c-0.221-1.724,0.137-3.852-1.722-4.828    c-0.24-0.126-0.54-0.208-0.863-0.269c-0.002-0.058,0-0.114-0.008-0.175c-0.832-6.155,0.834-12.682-0.059-18.875    c-0.301-2.088-1.276-3.295-2.661-3.99c0.409-1.017,0.299-2.215,0.184-3.432c0.318-2.725-0.251-6.013-0.229-7.92    c0.067-5.791,1.292-12.276,0.357-17.966c-0.292-1.782-3.358-1.809-3.626,0c-0.581,3.914-0.764,7.818-0.707,11.781    c0.04,2.786,0.065,5.572,0.099,8.358c0.015,1.208,0.242,2.801,0.345,4.341c0,0.01,0,0.021-0.001,0.031    c-0.042,1.174-0.267,2.387-0.2,3.492c-0.027,0.154-0.034,0.311-0.015,0.468c-0.252-0.014-0.506-0.025-0.764-0.031    c-0.552-0.013-1.113,0.312-1.382,0.793c-1.559,2.786-0.863,7.62-0.918,10.707c-0.074,4.168-0.306,9.343,0.93,13.426    c-3.316,0.972-4.234,2.698-4.388,7.169c-0.149,4.309-0.604,8.833-0.474,13.188c-2.662,0.608-5.21,1.804-7.063,3.348    c-4.543,3.785-3.579,13.168-3.709,18.336c-0.078,3.051-0.855,8.862,0.12,13.014c-4.314-0.129-8.691,0.551-11.467,2.942    c-0.622,0.536-0.827,1.54-0.609,2.304c1.299,4.557,3.3,13.011,8.382,14.566c3.473,1.062,8.019,1.088,11.815,1.014    c-1.027,5.538-1.382,11.266-1.313,16.875c0.085,6.815-0.731,13.786-1.327,20.564c-0.124,1.409-0.23,2.827-0.332,4.245    c-0.32,0.343-0.361,0.866-0.09,1.235c-0.329,4.594-0.657,9.203-1.456,13.707c-1.15,6.482-0.811,13.188-1.48,19.741    c-0.716,7.016-2.367,14.096-2.772,21.118c-0.424,7.372-1.249,14.826-2.625,22.094c-1.312,6.922-2.13,13.912-3.411,20.853    c-0.696,3.766-1.44,7.501-2.152,11.257c-0.494,2.606-1.206,4.442-1.296,6.83c-3.745,0.112-8.212-0.645-11.739,0.672    c-3.988,1.49-3.185,4.967-3.15,8.53c0.067,6.758-0.102,18.757,7.853,20.781c1.057,0.269,2.154,0.417,3.268,0.498    c-1.141,2.743-2.563,5.388-3.643,8.135c-2.035,5.168-4.095,10.375-6.033,15.587c-3.651,9.822-7.918,19.447-11.971,29.113    c-1.805,4.306-3.205,8.784-4.609,13.242c-1.741,5.525-4.332,10.748-6.135,16.247c-3.377,10.303-7.435,20.512-11.947,30.397    c-4.522,9.907-8.794,19.918-13.088,29.932c-2.367,5.52-5.099,10.826-7.686,16.243c-2.155,4.511-5.68,9.353-6.869,14.224    c-0.31,1.271-0.252,2.363,0.077,3.308c-0.378,0.032-0.76,0.047-1.135,0.089c-7.389,0.826-11.746,3.222-10.475,11.288    c0.114,0.72,0.943,1.577,1.674,1.674c7.703,1.041,15.822,2.067,23.577,2.415c10.443,0.467,21.909,0.965,32.287-0.216    c2.4-0.274,5.746-0.09,7.549-1.955c1.853-1.917,2.916-6.013,2.388-8.611c-0.482-2.368-2.083-3.427-4.123-3.767    c0.803-2.268,1.262-4.778,1.946-6.675c2.477-6.878,5.702-14.365,10.247-20.155c7.516-9.572,17.721-14.649,28.854-18.221    c-0.084,6.014-0.456,12.14-0.973,18.086c-0.44,5.061-0.678,11.259-0.078,16.289c0.012,0.1,0.04,0.188,0.059,0.281    c-1.408-0.011-2.813-0.024-4.242-0.069c-2.389-0.076-6.681,0.054-8.794,1.538c-2.125,1.492-1.643,3.287-1.921,5.639    c-0.667,5.642-2.061,9.243,5.02,9.352c6.116,0.093,13.465,1.093,19.778-0.258c2.341,0.121,4.746-0.025,6.827,0.007    c0.176,0.003,0.356,0.009,0.535,0.013c6.292,1.323,13.601,0.332,19.688,0.239c7.081-0.109,5.688-3.708,5.02-9.352    c-0.278-2.353,0.204-4.147-1.921-5.639c-2.113-1.484-6.405-1.614-8.794-1.538c-1.428,0.045-2.833,0.058-4.242,0.069    c0.02-0.093,0.047-0.181,0.059-0.281c0.6-5.03,0.362-11.228-0.078-16.289c-0.475-5.464-0.818-11.077-0.937-16.618    c3.574,1.128,6.918,2.382,10.608,3.063c0.265,0.048,0.519,0.034,0.748-0.031c6.624,3.238,12.606,7.539,17.461,13.722    c4.545,5.79,7.77,13.277,10.247,20.155c0.683,1.898,1.142,4.408,1.946,6.675c-2.039,0.341-3.641,1.4-4.123,3.767    c-0.528,2.598,0.535,6.692,2.388,8.611c1.803,1.865,5.149,1.681,7.549,1.955c10.377,1.181,21.844,0.683,32.287,0.216    c7.755-0.347,15.875-1.373,23.577-2.415c0.731-0.099,1.561-0.955,1.674-1.674C374.16,499.328,369.803,496.932,362.414,496.106z     M350.996,487.035c0.561,1.075,1.083,2.207,1.729,3.244c0.252,0.403,0.522,0.794,0.821,1.16c0.874,1.073,1.542,1.959,0.317,3.306    c-1.261,1.386-16.454,3.629-16.759,2.502c-0.676-2.503-2.473-7.313-2.712-7.937c-1.038-2.705-2.557-5.008-3.584-7.769    c-0.521-1.401-1.081-2.783-1.657-4.156c3.402-0.227,6.609-0.553,10.107-0.17c2.502,0.275,4.594,0.241,6.849-0.058    C346.548,477.1,350.517,486.117,350.996,487.035z M334.521,450.894c3.394,7.926,6.757,15.868,10.379,23.689    c-5.797-0.869-11.323-1.009-17.325-0.85c-1.713-3.868-3.498-7.697-5.052-11.635c-1.398-3.546-2.835-7.079-4.294-10.605    c1.564,0.062,3.13,0.141,4.701,0.257c2.578,0.191,5.298,0.003,7.873-0.202C331.13,451.523,333.127,451.12,334.521,450.894z     M322.659,423.943c1.208,2.939,2.469,5.853,3.808,8.731c2.378,5.111,4.638,10.28,6.868,15.463    c-3.492-0.498-7.329,0.261-10.752-0.114c-1.994-0.219-3.984-0.325-5.975-0.394c-3.238-7.731-6.55-15.429-9.844-23.12    c1.04-0.083,2.081-0.167,3.125-0.235c3.137-0.207,6.136,0.255,9.255,0.163C320.369,424.4,321.516,424.182,322.659,423.943z     M321.599,421.302c-0.535,0.011-1.082,0.023-1.649,0.023c-3.057,0.002-5.995-0.648-9.057-0.497    c-1.858,0.091-3.709,0.214-5.561,0.331c-2.863-6.727-5.589-13.51-8.074-20.393c-0.577-1.601-1.175-3.225-1.776-4.859    c1.961-0.173,3.924-0.322,5.892-0.39c3.664-0.126,7.307,0,10.928-0.386C315.204,403.927,318.183,412.715,321.599,421.302z     M284.532,368.969c0.95,3.728,1.917,7.445,2.806,11.205c0.966,4.094,2.34,8.261,3.8,12.378c-0.623,0.069-1.25,0.139-1.864,0.213    c-6.288,0.765-12.572,0.354-18.86,0.542c-0.655-0.056-1.309-0.102-1.965-0.134c-0.133-6.411-0.242-12.812-0.476-19.222    c-0.065-1.77-0.079-3.622-0.084-5.52C273.329,368.936,279.042,369.068,284.532,368.969z M267.887,365.104    c-0.016-7.044-0.182-14.474-2.338-20.759c2.774,0.006,5.545-0.014,8.333,0.031c1.572,0.025,3.141,0.007,4.709-0.033    c0.756,5.197,2.58,10.417,3.709,15.45c0.428,1.905,0.883,3.793,1.35,5.675C278.398,365.376,273.153,364.763,267.887,365.104z     M268.883,405.201c-0.046-1.474,0.109-3.176-0.351-4.58c-0.13-0.397-0.206-1.017,0.49-0.892c0.567,0.101,0.398,0.753,0.505,1.161    c0.122,0.466,0.289,0.925,0.438,1.382c0.289,0.891,0.591,1.779,0.83,2.685c1.442,5.485,3.033,10.899,5.024,16.219    c0.101,0.27,0.196,0.544,0.296,0.815c-1.352,0.108-3.361,0.558-5.083,0.721c-0.664-0.002-1.327-0.005-1.99-0.005    c-0.305-0.049-0.579-0.122-0.794-0.243c0.09-2.454,0.23-4.903,0.453-7.34C269.004,411.823,268.987,408.506,268.883,405.201z     M274.185,406.29c-0.9-2.897-1.434-6.418-2.752-9.364c0.295-0.022,0.597-0.04,0.9-0.055c0.178-0.004,0.357-0.012,0.532-0.02    c0.331-0.01,0.665-0.019,1.014-0.01c4.642,0.122,8.915,0.219,13.595-0.188c1.657-0.144,3.313-0.308,4.967-0.469    c0.66,1.811,1.318,3.605,1.949,5.37c2.234,6.251,4.511,12.554,7.131,18.652c0.165,0.384,0.33,0.767,0.496,1.15    c-2.619,0.172-5.235,0.346-7.857,0.493c-4.844,0.269-9.646,0.31-14.472,0.195c-0.004-0.014-0.009-0.027-0.013-0.042    C278.092,416.733,275.827,411.573,274.185,406.29z M305.587,374.996c1.976,5.686,3.856,11.437,5.748,17.195    c-5.602-0.665-11.524-0.466-17.18,0.053c-1.53-4.265-2.987-8.583-4.058-12.83c-0.888-3.524-1.837-7.006-2.762-10.503    c5.241-0.173,10.432-0.487,15.594-1.328C303.831,370.046,304.725,372.515,305.587,374.996z M294.453,343.098    c0.211,0.684,0.436,1.363,0.643,2.048c1.986,6.549,4.344,12.948,6.702,19.354c-4.865-0.053-9.9,0.745-14.662,0.942    c-0.234,0.01-0.468,0.007-0.703,0.013c-0.381-1.496-0.752-2.998-1.104-4.511c-0.914-3.932-1.884-7.802-3.033-11.665    c-0.492-1.658-1.051-3.33-1.586-5c2.347-0.106,4.687-0.285,7.014-0.545C290.14,343.463,292.306,343.582,294.453,343.098z     M277.838,281.672c0.344,2.321,0.978,4.758,1.263,7.133c-6.964-0.276-13.97-0.256-20.896,0.476    c-0.095-6.322-0.401-12.638-0.572-18.943c3.093,0.152,6.191,0.201,9.291,0.052c2.673-0.128,6.15,0.417,9.031-0.01    C276.649,274.119,277.282,277.921,277.838,281.672z M272.322,246.007c0.166,1.248,0.345,2.494,0.554,3.734    c1.03,6.094,1.64,12.208,2.683,18.302c-2.392-0.247-6.166-0.558-6.687-0.536c-3.794,0.158-7.533,0.257-11.305,0.104    c-0.008-0.406-0.023-0.811-0.029-1.216c-0.102-6.989,0.228-14.216-0.454-21.183C262.165,245.353,267.226,245.9,272.322,246.007z     M255.038,33.471c1.89-0.797,2.595,2.025,2.625,3.178c0.068,2.531-0.02,5.075-0.033,7.607c-0.016,2.857-0.983,6.62-0.129,9.452    c-1.24,0.139-2.434,0.364-3.171,0.49c-0.021,0.003-0.037,0.008-0.058,0.011c0.124-3.665,0.21-7.263,0.101-10.938    C254.326,41.637,253.518,34.112,255.038,33.471z M250.725,69.418c0.177-2.099,0.108-4.191,0.185-6.294    c0.112-3.054,0.43-5.084,3.819-5.632c0.906-0.147,4.754-0.939,5.254-0.397c0.799,0.866,0.285,5.473,0.269,6.499    c-0.057,3.722-0.025,7.374-0.174,11.072c-0.011,0.001-0.023,0-0.034,0.001c-1.59-0.078-3.216,0.046-4.712,0.12    c-0.64,0.031-1.336,0.047-2.057,0.07c-1.011-0.203-2.08-0.255-3.16-0.207C250.453,72.939,250.577,71.159,250.725,69.418z     M243.323,81.281c2.888-2.222,7.44-1.759,10.969-2.84c0.694-0.04,1.397-0.076,2.127-0.081c0.358-0.002,0.716,0.004,1.072,0.015    c3.558,1.17,8.241,0.638,11.19,2.906c2.827,2.175,3.251,6.852,3.044,10.963c-10.298-0.229-21.206-0.758-31.389,0.937    C240.02,88.867,240.279,83.623,243.323,81.281z M271.431,95.589c-0.049,0.406-0.099,0.798-0.148,1.161    c-0.417,3.047-0.179,8.216-1.48,10.873c-0.771,1.573-4.264,2.172-7.298,2.758c-3.539-0.069-7.09,0.2-10.678,0.3    c-0.269,0.008-0.604-0.004-0.98-0.026c-3.25-0.699-7.758-1.217-8.646-3.032c-1.301-2.657-1.063-7.828-1.48-10.873    c-0.047-0.341-0.095-0.709-0.141-1.088C250.491,97.178,261.398,95.899,271.431,95.589z M239.173,125.322    c-1.943-0.113-4.382,0.441-5.93-0.807c-1.925-1.552-4.886-7.261-2.883-9.065c2.116-1.906,6.641-1.098,9.235-1.214    c2.18,1.168,5.525,1.55,8.497,1.146c3.097,0.351,6.604,0.019,8.437-0.002c1.519-0.016,3.987,0.064,6.424-0.158    c3.187,0.641,7.037,0.311,9.457-0.985c2.522,0.112,6.55-0.78,8.722,0.869c2.434,1.847-0.27,7.718-2.37,9.41    c-1.548,1.248-3.988,0.694-5.93,0.807c-1.639,0.096-3.41,0.383-5.117,0.509c-3.857-0.964-9.287-0.326-12.604-0.152    c-0.332,0.018-0.668,0.027-1.004,0.042c-2.622-0.511-5.293,0.13-8.125,0.169C243.791,125.92,241.364,125.45,239.173,125.322z     M247.838,130.506c2.489-0.092,5.237-0.324,7.532-1.12c0.439,0.009,0.875,0.012,1.313,0.017c2.285,0.783,5.013,1.011,7.485,1.104    c-0.665,5.829,0.452,12.132,0.295,17.926c-0.005,0.213-0.003,0.428-0.007,0.641c-1.922-0.159-4.068,0.14-5.766,0.223    c-3.714,0.182-7.427,0.184-11.132,0.434c-0.003-0.432-0.002-0.866-0.014-1.298C247.386,142.638,248.503,136.334,247.838,130.506z     M247.562,151.27c3.27-0.048,6.529,0.111,9.808,0.101c2.428-0.008,4.734,0.373,7.079,0.239c0.069,5.229,0.589,10.524,0.937,15.695    c0.09,1.342,0.181,2.685,0.275,4.028c-3.58-0.253-7.505-0.014-10.825-0.067c-2.618-0.043-5.638-0.258-8.484-0.046    c0.09-1.305,0.179-2.61,0.267-3.915C246.973,162.021,247.51,156.608,247.562,151.27z M245.097,186.316    c0.407-3.866,0.721-7.748,1.006-11.632c2.882,0.344,5.798,0.263,8.734,0.407c2.441,0.119,4.873,0.462,7.314,0.568    c0.338,0.014,2.238-0.034,3.807-0.192c0.269,3.623,0.57,7.243,0.949,10.85c0.688,6.534,0.757,13.071,1.258,19.629    c-4.03-0.229-8.049,0.064-12.133-0.175c-3.973-0.232-8.15-0.462-12.172-0.1C244.341,199.204,244.42,192.759,245.097,186.316z     M241.412,227.503c0.567-6.489,1.637-12.937,2.24-19.433c4.105,0.506,8.189,0.66,12.382,0.884    c3.999,0.214,8.329,0.642,12.449,0.361c0.617,6.075,1.581,12.115,2.112,18.189c0.407,4.652,0.715,9.344,1.196,14.013    c-10.471-0.074-21.109-1.143-31.561-0.12C240.702,236.767,241.009,232.116,241.412,227.503z M239.128,249.741    c0.29-1.716,0.53-3.441,0.742-5.172c5.043,0.975,10.081,0.572,15.283,0.594c-0.255,7.429-0.359,14.861-0.418,22.297    c-3.75-0.279-7.511-0.523-11.269-0.626c-1.588-0.043-4.512,0.572-6.94,0.712C237.518,261.618,238.125,255.67,239.128,249.741z     M234.167,281.672c0.581-3.925,1.242-7.91,1.975-11.817c0.049-0.264,0.085-0.527,0.132-0.79c0.192,0.013,0.382,0.025,0.562,0.043    c5.2,0.486,10.453,0.465,15.662,0.898c0.739,0.062,1.478,0.109,2.218,0.161c-0.044,6.398-0.073,12.798-0.157,19.2    c-7.173-0.814-14.435-0.847-21.654-0.562C233.189,286.43,233.823,283.993,234.167,281.672z M216.658,297.415    c0.594-2.482,0.318-2.087,3.077-2.4c1.375-0.156,2.477-0.445,3.93-0.542c3.705-0.249,7.349-0.634,11.072-0.668    c7.032-0.064,14.261-0.511,21.264-1.449c7.004,0.938,14.232,1.385,21.264,1.449c3.724,0.034,7.367,0.42,11.072,0.668    c1.452,0.097,2.554,0.387,3.93,0.542c2.76,0.313,2.485-0.082,3.077,2.4c0.287,1.199,0.309,2.575,0.187,3.995    c-5.923-0.884-12.204,0.524-18.109-0.528c-3.949-0.704-7.77-0.056-11.777-0.108c-3.198-0.041-6.241,0.259-9.275,1.388    c-0.141,0.053-0.264,0.122-0.37,0.202c-0.108-0.08-0.23-0.15-0.371-0.202c-3.033-1.128-6.077-1.428-9.275-1.388    c-4.007,0.051-7.828-0.597-11.777,0.108c-5.905,1.053-12.185-0.356-18.109,0.528C216.349,299.989,216.371,298.615,216.658,297.415    z M217.878,308.641c-0.294-1.17-0.627-2.506-0.906-3.885c1.294,0.079,2.617-0.045,4.205-0.07    c3.905-0.062,7.711,0.955,11.651,0.653c2.712-0.208,4.811-0.716,7.601-0.48c1.521,0.129,3.026,0.217,4.556,0.198    c3.496-0.042,7.349,0.753,10.646-0.486c0.141-0.053,0.264-0.123,0.37-0.203c0.108,0.08,0.23,0.151,0.37,0.203    c3.297,1.239,7.15,0.444,10.646,0.486c1.53,0.019,3.036-0.07,4.556-0.198c2.79-0.235,4.889,0.273,7.601,0.48    c3.939,0.302,7.745-0.715,11.651-0.653c1.589,0.025,2.911,0.148,4.205,0.07c-0.278,1.38-0.612,2.716-0.906,3.885    c-1.294,5.169-5.315,4.136-9.49,3.935c-4.708-0.228-10.405-0.786-15.601-0.172c-2.082-0.157-4.168-0.289-6.284-0.274    c-5.562,0.04-11.085,0.122-16.63,0.464c-0.471,0.029-0.941,0.047-1.413,0.062c-5.636-1-12.1-0.332-17.339-0.079    C223.193,312.777,219.172,313.812,217.878,308.641z M221.977,329.279c1.065-3.283,2.666-6.369,3.678-9.645    c2.887-0.099,5.809-0.533,8.506-0.854c3.543-0.422,7.6-0.368,11.322-1.029c4.57,0.082,9.186-0.196,13.619-0.167    c2.311,0.015,4.607,0.022,6.901,0.079c3.86,0.764,8.135,0.675,11.842,1.117c2.697,0.321,5.619,0.755,8.506,0.854    c1.012,3.276,2.612,6.362,3.678,9.645c0.995,3.066,1.993,6.137,2.978,9.212c-6.675-0.461-13.55,0.645-20.205,0.133    c-4.204-0.324-8.136,0.162-12.282,0.059c-1.636-0.041-3.127-0.136-4.516,0.214c-1.39-0.351-2.88-0.255-4.516-0.214    c-4.146,0.102-8.079-0.384-12.282-0.059c-6.655,0.513-13.531-0.594-20.205-0.133C219.984,335.416,220.982,332.346,221.977,329.279    z M248.55,356.224c-0.043-3.794,0.932-8.102,0.07-11.889c0.296-0.004,0.59,0.001,0.886-0.004c1.25-0.023,2.687-0.148,4.1-0.418    c0.823,0.009,1.662-0.056,2.506-0.078c0.45-0.012,0.913-0.063,1.373-0.108c1.694,0.417,3.491,0.575,5.012,0.604    c0.296,0.005,0.591,0,0.886,0.004c-0.861,3.788,0.113,8.095,0.07,11.889c-0.07,6.276-0.023,12.507,0.177,18.792    c0.192,6.046,0.309,12.058,0.28,18.066c-2.666,0.01-5.361,0.096-8.127,0.093c-2.624-0.002-5.172-0.035-7.693-0.011    c-0.03-6.034,0.087-12.075,0.28-18.148C248.573,368.733,248.62,362.5,248.55,356.224z M262.451,446.405    c-2.941-0.38-5.93-0.508-9.156-0.475c-1.285,0.013-2.519,0.054-3.731,0.132c0.145-4.139,0.214-8.31,0.057-12.356    c-0.095-2.44-0.107-4.922-0.126-7.408c3.472,0.1,6.944,0.206,10.42,0.277c0.862,0.018,1.726,0.015,2.591,0.011    c-0.019,2.389-0.033,4.775-0.124,7.119C262.221,437.864,262.298,442.153,262.451,446.405z M259.1,422.668    c-3.221-0.054-6.436-0.139-9.654-0.155c-0.046-2.191-0.136-4.37-0.334-6.51c-0.587-6.349-0.874-12.674-0.979-19.001    c2.232,0.09,4.459,0.134,6.752,0.075c2.987-0.078,5.991-0.211,8.991-0.267c-0.101,6.392-0.389,12.781-0.982,19.194    c-0.203,2.2-0.294,4.444-0.339,6.698C261.403,422.697,260.252,422.687,259.1,422.668z M248.358,480.381    c0.055-2.955-0.287-6.002-0.054-8.948c0.482-6.09,0.668-12.275,0.97-18.424c0.027-0.561,0.051-1.135,0.078-1.7    c0.888-0.001,1.793,0.022,2.736,0.063c3.681,0.158,7.111,0.137,10.598,0.624c0.016,0.336,0.03,0.678,0.046,1.013    c0.301,6.15,0.487,12.334,0.97,18.424c0.233,2.945-0.11,5.993-0.054,8.948c0.04,2.067,0.735,3.824,0.783,5.881    c0.003,0.114,0.023,0.212,0.035,0.319c-0.292,0.002-0.575,0.001-0.871,0.004c-1.706,0.018-4.157,0.5-6.23,0.606    c-0.179-0.087-0.385-0.124-0.593-0.086c-0.237,0.044-0.501,0.067-0.771,0.085c-0.269-0.018-0.532-0.041-0.771-0.085    c-0.208-0.04-0.413-0.001-0.593,0.086c-2.073-0.106-4.523-0.588-6.23-0.606c-0.295-0.003-0.577-0.002-0.871-0.004    c0.012-0.106,0.033-0.204,0.035-0.319C247.622,484.205,248.318,482.448,248.358,480.381z M236.185,421.174    c1.991-5.32,3.582-10.734,5.024-16.219c0.239-0.906,0.541-1.794,0.83-2.685c0.149-0.457,0.315-0.916,0.438-1.382    c0.107-0.408-0.062-1.059,0.505-1.161c0.696-0.125,0.62,0.495,0.49,0.892c-0.458,1.404-0.303,3.106-0.351,4.58    c-0.104,3.306-0.121,6.623,0.179,9.92c0.223,2.436,0.363,4.886,0.453,7.34c-0.123,0.069-0.287,0.107-0.442,0.151    c-0.643,0.029-1.417,0.066-2.241,0.11c-1.744-0.155-3.804-0.622-5.183-0.733C235.989,421.718,236.084,421.444,236.185,421.174z     M232.327,422.002c-0.004,0.014-0.009,0.027-0.013,0.042c-4.824,0.114-9.627,0.075-14.472-0.195    c-2.621-0.146-5.238-0.321-7.857-0.493c0.165-0.384,0.331-0.767,0.496-1.15c2.621-6.097,4.897-12.4,7.131-18.652    c0.631-1.765,1.29-3.559,1.949-5.37c1.656,0.162,3.31,0.324,4.968,0.469c4.68,0.407,8.955,0.31,13.595,0.188    c0.864-0.023,1.669,0.025,2.446,0.085c-1.319,2.945-1.851,6.467-2.753,9.364C236.177,411.573,233.913,416.733,232.327,422.002z     M243.551,393.302c-0.294,0.015-0.588,0.025-0.882,0.045c-6.649-0.278-13.291,0.227-19.939-0.582    c-0.613-0.075-1.239-0.144-1.864-0.213c1.46-4.118,2.833-8.284,3.8-12.378c0.888-3.76,1.856-7.477,2.806-11.205    c5.491,0.099,11.203-0.033,16.641-0.538c-0.004,1.899-0.02,3.75-0.084,5.52C243.794,380.404,243.685,386.848,243.551,393.302z     M228.355,365.468c0.466-1.881,0.922-3.77,1.35-5.675c1.129-5.033,2.954-10.252,3.709-15.45c1.567,0.04,3.137,0.059,4.709,0.033    c2.787-0.045,5.559-0.025,8.333-0.031c-2.155,6.285-2.321,13.715-2.339,20.759C238.851,364.763,233.606,365.376,228.355,365.468z     M216.909,345.147c0.207-0.685,0.432-1.364,0.643-2.048c2.147,0.484,4.313,0.365,6.729,0.635c2.327,0.261,4.667,0.44,7.014,0.545    c-0.535,1.669-1.094,3.342-1.586,5c-1.148,3.863-2.12,7.734-3.033,11.665c-0.352,1.514-0.723,3.016-1.104,4.511    c-0.234-0.007-0.468-0.003-0.703-0.013c-4.761-0.197-9.797-0.995-14.662-0.942C212.564,358.094,214.923,351.696,216.909,345.147z     M206.418,374.996c0.862-2.483,1.756-4.951,2.657-7.415c5.162,0.841,10.353,1.156,15.594,1.328    c-0.925,3.497-1.873,6.98-2.762,10.503c-1.071,4.247-2.528,8.566-4.058,12.83c-5.655-0.519-11.578-0.719-17.18-0.053    C202.561,386.433,204.442,380.683,206.418,374.996z M199.702,395.13c3.622,0.385,7.264,0.258,10.927,0.386    c1.968,0.068,3.93,0.218,5.892,0.39c-0.6,1.635-1.197,3.259-1.776,4.859c-2.485,6.885-5.211,13.666-8.074,20.393    c-1.851-0.117-3.702-0.239-5.561-0.331c-3.062-0.151-6.001,0.499-9.057,0.497c-0.566,0-1.113-0.012-1.649-0.023    C193.822,412.715,196.801,403.927,199.702,395.13z M185.537,432.673c1.339-2.877,2.6-5.792,3.808-8.731    c1.143,0.239,2.29,0.456,3.515,0.494c3.119,0.092,6.118-0.368,9.255-0.163c1.043,0.069,2.085,0.153,3.125,0.235    c-3.293,7.69-6.606,15.389-9.844,23.12c-1.991,0.068-3.981,0.175-5.975,0.394c-3.424,0.375-7.261-0.385-10.752,0.114    C180.898,442.954,183.158,437.785,185.537,432.673z M177.483,450.894c1.395,0.226,3.391,0.629,3.718,0.655    c2.575,0.206,5.295,0.394,7.873,0.202c1.571-0.117,3.136-0.196,4.701-0.257c-1.459,3.526-2.895,7.059-4.294,10.605    c-1.555,3.938-3.339,7.767-5.052,11.635c-6.003-0.159-11.527-0.019-17.325,0.85C170.727,466.762,174.089,458.819,177.483,450.894z     M158.459,491.439c0.299-0.366,0.569-0.756,0.821-1.16c0.646-1.038,1.169-2.169,1.729-3.244c0.478-0.918,4.447-9.935,4.889-9.876    c2.255,0.298,4.347,0.332,6.849,0.058c3.498-0.383,6.705-0.056,10.107,0.17c-0.576,1.374-1.137,2.755-1.657,4.156    c-1.027,2.762-2.546,5.064-3.584,7.769c-0.24,0.623-2.036,5.433-2.712,7.937c-0.303,1.127-15.497-1.117-16.759-2.502    C156.916,493.398,157.584,492.512,158.459,491.439z M200.826,505.819c-1.617,0.764-7.203,0.494-9.066,0.57    c-3.948,0.161-7.948,0.002-11.899,0.008c-12.203,0.019-24.102-1.278-36.225-1.92c0.595-4.516,9.279-3.982,12.857-3.956    c4.077,1.354,9.179,1.64,11.851,1.939c5.795,0.651,11.742,0.388,17.568,0.386c2.981-0.001,5.987,0.488,8.965,0.161    c1.795-0.198,3.963-1.573,5.784-1.055C202.757,502.547,203.082,504.752,200.826,505.819z M202.961,478.708    c-2.294,4.625-3.951,9.598-5.447,14.531c-0.86,2.839-1.348,3.579-4.258,3.857c-2.695,0.257-5.587-0.005-8.301-0.004    c-2.189,0-4.4,0.066-6.615,0.113c1.654-4.492,4.056-8.688,5.728-13.137c0.823-2.189,1.722-4.344,2.642-6.488    c3.252,0.143,6.509,0.261,9.757,0.342c2.1,0.053,4.533,0.435,6.765,0.245C203.144,478.347,203.051,478.526,202.961,478.708z     M226.955,452.877c-1.254,0.521-2.445,1.087-3.582,1.704c-3.541,1.921-6.575,4.336-9.466,7.453    c-0.888,0.958-9.293,12.44-8.842,12.633c-2.032-0.993-4.36-0.663-6.767-0.644c-3.291,0.025-6.647-0.066-9.971-0.172    c1.435-3.283,2.863-6.566,4.113-9.923c1.563-4.201,3.2-8.381,4.878-12.546c2.682-0.054,5.369-0.06,8.08-0.058    c7.122,0.004,14.357-0.948,21.417,0.139c0.383,0.058,0.849,0.209,0.901,0.594C227.77,452.455,227.328,452.723,226.955,452.877z     M225.226,445.13c-0.075,0.272-0.27,1.026-0.512,1.982c-0.729,0.001-1.448,0.003-2.144,0.005    c-6.065,0.021-12.16,0.405-18.244,0.409c-1.827,0.001-3.642,0.004-5.454,0.022c3.128-7.63,6.388-15.211,9.641-22.769    c3.346,0.29,6.686,0.591,10.044,0.776c4.149,0.229,8.307,0.48,12.467,0.479c-1.084,3.218-2.234,6.427-3.137,9.693    C227.019,438.87,226.084,441.986,225.226,445.13z M243.152,446.993c-1.957,0.037-3.927,0.33-5.878,0.821    c-2.923-0.475-6.151-0.634-9.286-0.683c1.906-7.112,4.045-14.224,6.46-21.14c1.923-0.045,3.706,0.053,5.496,0.077    c1.318,0.062,2.635,0.071,3.903,0.087c0.113,6.906-0.12,13.846-0.251,20.727C243.449,446.916,243.3,446.958,243.152,446.993z     M272.751,491.415c1.995-0.187,6.002-0.549,6.92,1.063c0.828,1.458,1.01,5.135-0.862,5.762c-2.056,0.688-5.138-0.685-7.302-0.635    c-2.605,0.059-5.115,0.644-7.677,0.817c-0.372,0.012-0.744,0.028-1.117,0.044c-0.279,0.003-0.56,0.009-0.841-0.001    c-1.729-0.066-3.084-0.114-4.469,0.208c-0.882,0.015-1.765,0.027-2.647,0.043c-1.438-0.363-2.828-0.319-4.621-0.251    c-3.258,0.125-6.371-0.785-9.635-0.86c-2.165-0.049-5.246,1.323-7.302,0.635c-1.872-0.627-1.69-4.304-0.862-5.762    c0.918-1.612,4.924-1.25,6.92-1.063c2.453,0.23,4.573-0.085,7.051-0.286c0.988-0.08,2.003-0.102,3.02-0.134    c1.939,0.715,4.084,0.584,6.285,0.475c1.563-0.078,3.123-0.374,4.678-0.612c1.792,0.168,3.645,0.128,5.411,0.272    C268.178,491.331,270.297,491.646,272.751,491.415z M274.731,447.813c-2.098-0.528-4.219-0.84-6.321-0.836    c-0.13-6.827-0.357-13.713-0.254-20.566c1.682-0.091,3.365-0.21,5.046-0.365c1.413-0.036,2.839-0.091,4.354-0.055    c2.415,6.916,4.554,14.029,6.46,21.14C280.882,447.18,277.654,447.338,274.731,447.813z M280.98,426.036    c4.16,0.001,8.318-0.251,12.467-0.479c3.359-0.185,6.699-0.486,10.044-0.776c3.253,7.559,6.513,15.14,9.641,22.769    c-1.812-0.019-3.627-0.022-5.454-0.022c-6.085-0.004-12.179-0.388-18.244-0.409c-0.696-0.002-1.415-0.004-2.144-0.005    c-0.243-0.956-0.438-1.711-0.512-1.982c-0.859-3.145-1.793-6.26-2.662-9.402C283.214,432.463,282.064,429.254,280.98,426.036z     M306.939,474.668c0.452-0.194-7.953-11.676-8.842-12.633c-2.891-3.117-5.926-5.532-9.466-7.453    c-1.138-0.617-2.327-1.183-3.582-1.704c-0.372-0.155-0.814-0.422-0.76-0.821c0.052-0.384,0.519-0.534,0.902-0.594    c7.059-1.086,14.295-0.134,21.416-0.139c2.711-0.001,5.397,0.004,8.08,0.058c1.678,4.165,3.315,8.345,4.878,12.546    c1.25,3.358,2.678,6.641,4.113,9.923c-3.324,0.106-6.68,0.197-9.971,0.172C311.3,474.006,308.971,473.675,306.939,474.668z     M309.044,478.708c-0.09-0.181-0.182-0.361-0.274-0.541c2.232,0.19,4.665-0.192,6.765-0.245c3.249-0.082,6.506-0.199,9.757-0.342    c0.92,2.144,1.82,4.3,2.642,6.488c1.672,4.449,4.074,8.644,5.728,13.137c-2.215-0.047-4.426-0.112-6.615-0.113    c-2.713,0-5.606,0.263-8.301,0.004c-2.91-0.278-3.398-1.018-4.258-3.857C312.995,488.306,311.337,483.333,309.044,478.708z     M332.144,506.396c-3.951-0.005-7.951,0.153-11.899-0.008c-1.861-0.076-7.446,0.195-9.065-0.568    c-1.417-0.668-1.887-1.576-1.119-2.908c1.016-1.763,2.442-0.928,3.746-0.671c4.219,0.83,7.986,0.603,12.288,0.605    c5.825,0.002,11.772,0.265,17.568-0.386c2.673-0.299,7.774-0.585,11.851-1.939c3.578-0.026,12.262-0.561,12.857,3.956    C356.245,505.118,344.345,506.415,332.144,506.396z"/>
	</g>
</g>
<g>
</g>
<g>
</g>
<g>
</g>
<g>
</g>
<g>
</g>
<g>
</g>
<g>
</g>
<g>
</g>
<g>
</g>
<g>
</g>
<g>
</g>
<g>
</g>
<g>
</g>
<g>
</g>
<g>
</g>
</svg>
