<?xml version="1.0" encoding="iso-8859-1"?>
<!-- Generator: Adobe Illustrator 19.0.0, SVG Export Plug-In . SVG Version: 6.00 Build 0)  -->
<svg xmlns="http://www.w3.org/2000/svg" xmlns:xlink="http://www.w3.org/1999/xlink" version="1.1" id="Layer_1" x="0px" y="0px" viewBox="0 0 512 512" style="enable-background:new 0 0 512 512;" xml:space="preserve">
<g>
	<g>
		<path d="M510.703,26.777c-3.258-5.399-11.167-2.986-15.897-1.534c-9.07,2.781-17.816,6.631-26.841,9.501    c-15.344,4.881-31.237,8.041-46.684,12.732c-17.311,5.259-36.19,6.303-54.062,8.103c-8.317,0.838-16.791,1.891-25.148,2.299    c-4.168,0.203-8.262,0.921-12.421,1.303c-4.423,0.407-8.921,0.088-13.306,0.648c-7.08,0.904-14.075,0.242-21.146,0.091    c-3.795-0.43-7.63-0.368-11.448-0.072c-6.784,0.525-13.685,0.253-20.49,0.206c-7.065-0.049-14.135,0.206-21.216,0.223    c-3.228,0.007-6.45,0.134-9.675,0.202c-2.947-0.17-5.902-0.33-8.884-0.489c-9.372-0.497-18.525,1.025-27.827-0.163    c-4.385-0.56-8.883-0.241-13.306-0.648c-4.159-0.383-8.253-1.1-12.421-1.303c-8.357-0.407-16.831-1.461-25.148-2.299    c-17.872-1.8-36.752-2.845-54.062-8.103c-15.447-4.693-31.341-7.851-46.685-12.732c-9.024-2.871-17.771-6.721-26.841-9.502    c-4.731-1.45-12.639-3.863-15.897,1.535c-2.972,4.925-0.25,11.442,2.328,15.703c1.351,2.23,2.389,2.769,4.738,4.077    c0.002,0.001,0.006,0.004,0.009,0.005c-0.078,0.234-0.128,0.485-0.12,0.765C8.413,52.927,9.06,60.021,12.54,64.76    c1.461,1.99,3.34,2.422,5.634,2.944c0.161,0.037,0.319,0.085,0.479,0.123c0.001,0.045-0.005,0.085-0.001,0.133    c0.564,7.031,1.032,13.989,4.181,20.64c3.597,7.601,13.247,7.893,20.301,10.248c5.007,1.675,10.239,2.98,15.529,4.024    c3.793,6.511,6.46,13.756,9.726,20.497c1.742,3.597,3.952,7.127,5.482,10.783c0.901,2.153,1.222,4.602,3.168,6.654    c5.604,5.915,13.904,4.893,21.292,4.808c4.764-0.055,9.391,0.922,14.149,0.827c2.277-0.045,4.551-0.107,6.824-0.159    c-1.966,5.333-5.097,13.356,1.046,16.055c3.082,1.354,6.918,0.997,10.394,1.034c-0.572,2.742-1.291,5.412-1.405,8.242    c-0.183,4.541-1.257,8.979-1.659,13.501c-0.191,2.141-0.388,4.281-0.585,6.421c-3.573-1.253-7.783-1.444-11.486-1.824    c-2.549-0.261-4.95,0.037-7.362,0.458c-0.755-0.158-1.513-0.31-2.295-0.409c-3.169-0.4-6.27,0.109-7.873,3.162    c-1.053,2.003-1.645,5.455-1.414,8.264c-1.857-0.072-3.712-0.096-5.557,0.013c-3.774,0.223-7.497,1.046-11.275,1.264    c-4.618,0.267-12.506-1.657-15.519,3.589c-1.464,2.552-0.72,5.967-0.548,8.715c0.255,4.054,0.58,8.115,0.781,12.172    c0.243,4.911-1.432,11.562,2.489,15.46c2.012,2.001,4.674,2.426,7.404,2.491c4.251,0.103,8.654,0.694,12.887,0.489    c8.42-0.411,16.855,0.214,25.381,0.22c2.466,0.001,6.132,0.633,9.39,0.415c-1.11,6.165-2.382,12.319-2.762,18.552    c-1.194,19.628-4.435,39.152-7.085,58.621c-2.571,18.891-4.793,37.987-7.026,56.947c-0.47,3.992-0.809,7.953-1.129,11.955    c-0.322,4.026-1.723,8.228-1.386,12.306c-2.764,0.33-5.223,1.169-6.648,2.795c-2.439,2.782-3.736,7.6-4.798,11.056    c-1.867,6.073-3.641,12.209-4.931,18.431c-2.152,10.374-4.967,21.016-5.356,31.608c-0.284,7.703-1.192,16.695,8.446,18.137    c9.75,1.459,19.783,1.321,29.636,1.806c5.018,0.247,10.12,0.068,15.13,0.087c5.603,0.021,10.637,0.582,16.282-0.028    c10.087-1.088,9.971-9.821,11.295-18.014c0.776-4.811,2.606-9.373,3.163-14.234c0.769-6.71,0.7-13.616,0.818-20.363    c0.116-6.673,0.503-13.468,0.262-20.138c-0.14-3.881-0.622-7.973-4.811-9.378c-0.612-0.205-1.257-0.31-1.914-0.368    c2.776-7.6,0.862-16.985,1.716-24.848c1.078-9.918-0.3-19.966,0.174-29.912c0.45-9.435,0.901-19.103,1.86-28.506    c0.947-9.293,0.399-18.63,0.474-27.963c0.09-11.12,0.763-22.269,0.786-33.434c0.011-5.154-0.064-10.312-0.132-15.47    c1.926,0.452,3.95,0.388,6.021,0.169c4.687-0.497,8.881-0.332,13.596-0.172c8.776,0.297,17.594,0.818,26.348,0.812    c8.913-0.006,17.713-0.84,26.595-0.745c3.37,0.036,7.569,0.31,11.487-0.216c1.323,0.034,2.497,0.062,3.35,0.134    c5.205,0.444,11.289,0.938,16.933,0.18c2.403,0.032,4.75-0.077,6.791-0.098c8.882-0.094,17.682,0.739,26.595,0.745    c8.754,0.006,17.572-0.515,26.348-0.812c4.715-0.159,8.908-0.324,13.596,0.172c2.071,0.22,4.094,0.284,6.021-0.169    c-0.068,5.158-0.142,10.316-0.132,15.47c0.023,11.165,0.695,22.314,0.786,33.434c0.076,9.334-0.474,18.672,0.474,27.963    c0.96,9.403,1.41,19.071,1.86,28.506c0.475,9.947-0.903,19.994,0.174,29.912c0.854,7.862-1.06,17.248,1.716,24.848    c-0.657,0.058-1.302,0.163-1.914,0.368c-4.189,1.405-4.671,5.497-4.811,9.378c-0.241,6.67,0.146,13.464,0.262,20.138    c0.117,6.747,0.049,13.654,0.816,20.363c0.557,4.861,2.387,9.423,3.163,14.234c1.323,8.195,1.208,16.926,11.295,18.014    c5.644,0.609,10.679,0.049,16.282,0.028c5.011-0.019,10.113,0.16,15.13-0.087c9.853-0.485,19.885-0.348,29.636-1.806    c9.638-1.442,8.729-10.432,8.446-18.137c-0.389-10.592-3.204-21.234-5.356-31.608c-1.29-6.222-3.064-12.358-4.931-18.431    c-1.062-3.456-2.359-8.274-4.798-11.056c-1.425-1.627-3.884-2.465-6.648-2.795c0.338-4.078-1.065-8.28-1.386-12.306    c-0.319-4.002-0.659-7.961-1.129-11.955c-2.232-18.959-4.455-38.056-7.026-56.947c-2.649-19.469-5.89-38.993-7.085-58.621    c-0.38-6.233-1.652-12.387-2.762-18.552c3.259,0.217,6.925-0.414,9.391-0.415c8.526-0.006,16.961-0.63,25.381-0.22    c4.233,0.206,8.636-0.386,12.887-0.489c2.73-0.066,5.392-0.49,7.404-2.491c3.921-3.899,2.245-10.549,2.489-15.46    c0.201-4.057,0.526-8.118,0.781-12.172c0.173-2.747,0.916-6.163-0.548-8.715c-3.012-5.246-10.901-3.322-15.519-3.589    c-3.776-0.218-7.499-1.041-11.273-1.264c-1.843-0.109-3.699-0.085-5.557-0.013c0.231-2.808-0.361-6.26-1.414-8.264    c-1.554-2.957-4.513-3.52-7.578-3.188c-1.08-0.153-2.193-0.123-3.338-0.094c-0.722,0.019-1.408,0.064-2.082,0.132    c-1.481-0.158-2.978-0.22-4.532-0.061c-3.703,0.379-7.914,0.57-11.486,1.824c-0.196-2.14-0.394-4.28-0.585-6.421    c-0.402-4.523-1.478-8.96-1.659-13.501c-0.114-2.829-0.833-5.501-1.405-8.242c3.477-0.037,7.313,0.319,10.394-1.034    c6.143-2.699,3.012-10.721,1.046-16.055c2.273,0.052,4.547,0.114,6.824,0.159c4.758,0.095,9.385-0.882,14.149-0.827    c7.388,0.084,15.688,1.107,21.292-4.808c1.945-2.053,2.267-4.503,3.168-6.654c1.53-3.657,3.738-7.187,5.482-10.783    c3.266-6.741,5.933-13.986,9.726-20.497c5.29-1.044,10.522-2.35,15.529-4.021c7.054-2.355,16.704-2.647,20.301-10.248    c3.147-6.651,3.617-13.609,4.18-20.64c0.004-0.047-0.002-0.088-0.001-0.133c0.16-0.039,0.318-0.087,0.479-0.123    c2.294-0.523,4.172-0.955,5.634-2.944c3.48-4.739,4.128-11.834,4.288-17.435c0.008-0.28-0.042-0.532-0.12-0.766    c0.004-0.001,0.006-0.004,0.01-0.005c2.349-1.309,3.387-1.847,4.738-4.077C510.955,38.22,513.675,31.702,510.703,26.777z     M102.845,195.985c1.415-2.054,7.619,0.052,9.9-0.04c3.468-0.14,6.844,0.096,10.267,0.002c1.203-0.033,2.591,0.084,3.714-0.385    c-0.228,2.492-0.455,4.985-0.681,7.477c-6.997-0.002-13.867-1.297-20.889-1.451c-0.703-0.015-1.408-0.043-2.112-0.075    C102.621,199.635,101.949,197.285,102.845,195.985z M109.449,238.848c-6.412,0.103-12.988-1.196-19.302-0.582    c-3.214,0.312-5.96,0.165-9.161-0.098c-3.545-0.293-8.832,1.154-9.816-3.043c-0.498-2.127,0.192-4.968,0.115-7.179    c-0.128-3.674-0.519-7.334-0.66-11.009c-0.059-1.552-1.023-5.616-0.269-6.868c0.989-1.643,4.326-0.483,5.749-0.361    c5.871,0.504,12.123-1.641,18.024-1.773c6.838-0.153,13.928-0.369,20.727,0.29c2.026,0.196,4.195,0.315,6.327,0.165    c0.261,0.072,0.529,0.138,0.8,0.206c1.145,0.29,2.346,0.31,3.541,0.284c-0.095,1.049-0.192,2.098-0.281,3.15    c-0.744,8.825-0.813,17.947-1.968,26.688c-0.018,0.136-0.042,0.274-0.061,0.411C118.763,239.591,113.757,238.779,109.449,238.848z     M156.448,459.766c-0.838,3.438-1.831,6.796-2.31,10.311c-0.677,4.968,0.081,9.093-5.546,10.718    c-3.765,1.087-7.544,0.407-11.324,0.053c-3.259-0.305-6.672-0.161-9.964-0.252c-8.668-0.24-17.448-0.043-26.093-0.535    c-2.807-0.16-6.661-0.479-9.439-1.053c-4.496-0.927-3.577-6.774-3.381-10.72c0.398-8.049,1.633-16.513,3.298-24.45    c2.045-9.752,3.372-20.642,7.991-29.575c1.326-2.562,2.775-3.5,5.489-3.801c1.002-0.112,2.009-0.19,3.018-0.271    c1.965,0.401,4.198,0.424,6.256,0.535c8.171,0.442,16.337,1.357,24.558,1.43c0.402,0.075,0.813,0.163,1.209,0.227    c4.097,0.656,8.086-0.5,12.203,0.4c3.327,0.726,5.668-0.134,5.996,3.741c0.369,4.361-0.223,8.992-0.26,13.374    C158.068,439.583,158.754,450.309,156.448,459.766z M158.143,270.112c-0.001,9.147-0.749,18.234-0.723,27.351    c0.025,8.941,0.049,17.705-0.656,26.607c-0.662,8.348-0.733,16.728-1.512,25.059c-0.887,9.491,0.417,19.173-0.301,28.686    c-0.335,4.441-1.037,8.569-0.891,13.052c0.112,3.439,0.894,12.471-2.882,14.5c-0.027,0.015-0.062,0.026-0.091,0.04    c-1.467-0.097-2.928-0.127-4.547,0.057c-1.486,0.169-2.999,0.296-4.521,0.422c-1.514-0.128-2.909-0.255-3.951-0.241    c-4.225,0.055-8.36-0.444-12.549-0.882c-4.275-0.447-8.605-0.617-12.839-1.187c-0.332-0.045-2.063-0.128-3.013-0.062    c0.006-0.019,0.006-0.03,0.013-0.05c0.43-1.171,0.268-3.119,0.469-4.38c1.195-7.525,1.768-15.151,2.613-22.73    c2.001-17.924,4.021-36.115,6.644-53.93c1.338-9.081,1.734-18.424,3.387-27.422c1.53-8.324,2.575-16.857,3.14-25.313    c0.667-9.979,2.467-19.721,3.905-29.627c0.58-4.007,0.351-8.023,0.767-12.046c0.46-4.454,0.86-8.967,1.103-13.438    c0.914-16.82,4.035-34.008,3.13-50.876c3.768,0.526,7.493,1.333,11.356,1.5c5.246,0.228,10.422,0.287,15.665,0.107    C157.714,200.004,158.149,235.155,158.143,270.112z M144.195,158.625c-2.901-0.203-5.641-0.833-8.479-1.288    c-2.987-0.479-6.036-0.055-9.054-0.415c-4.63-0.554-3.92-2.53-3.107-6.542c0.329-1.624,0.332-2.836,0.028-4.159    c1.038-0.014,2.076-0.043,3.117-0.044c15.964-0.025,31.88-0.542,47.783-0.756c0.145,2.62,0.269,5.314-0.385,7.87    c-0.781,3.052-1.301,4.427-4.776,4.804c-1.336,0.145-2.689,0.33-4.024,0.452C158.364,159.187,151.16,159.113,144.195,158.625z     M181.662,145.336c0.255-0.001,0.51-0.008,0.765-0.01c10.47-0.053,20.875,0.209,31.337,0.381    c3.969,0.065,7.793-0.263,11.728-0.177c0.643,0.014,1.283-0.017,1.92-0.063c-0.611,3.662-0.681,7.425-0.293,11.089    c0.516,4.891-0.088,9.698,0.642,14.599c1.517,10.177,3.513,20.327,4.661,30.526c-0.404,0.024-0.805,0.057-1.206,0.095    c-5.723-0.221-11.527-0.348-17.059,0.331c-6.425,0.789-12.77,0.291-19.148,0.236c0.618-4.614,0.349-11.203-4.485-12.282    c-4.566-1.019-9.828,0.174-14.369,0.769c-1.336,0.174-2.72,0.394-4.104,0.654c-2.053,0.246-4.119,0.532-6.087,0.98    c0.017-0.242,0.033-0.483,0.051-0.724c0.644-8.643,1.067-17.322,2.04-25.924c0.249-0.23,0.446-0.494,0.582-0.789    c2.197-0.191,4.359-0.553,6.241-1.314C181.631,160.982,181.681,151.741,181.662,145.336z M187.978,202.562    c-0.326,0.02-0.653,0.034-0.98,0.066c-6.132,0.599-13.438-0.754-19.733,0.538c-0.218,0.023-0.436,0.033-0.654,0.062    c-0.115,0.015-0.78,0.195-1.437,0.377c0.133-1.97,0.277-3.933,0.42-5.897c4.928,0.767,10.386-1.099,15.217-1.588    c1.651-0.167,5.568-0.941,6.84,0.056C189.291,197.465,188.016,200.448,187.978,202.562z M347.901,239.256    c-1.144-0.025-2.317,0.159-3.464,0.306c-1.494-0.25-2.982-0.443-4.324-0.663c-3.661-0.602-7.352-0.169-11.035-0.116    c-8.74,0.123-17.594,0.85-26.278,0.748c-9.208-0.108-18.322-0.885-27.519-0.766c-3.619,0.047-7.179,0.072-10.765-0.081    c-3.76-0.463-7.792-0.469-11.572-0.084c-1.238-0.103-2.501-0.066-3.795,0.011c-4.153,0.248-8.249,0.208-12.427,0.153    c-9.196-0.12-18.311,0.658-27.519,0.766c-8.684,0.102-17.538-0.624-26.278-0.748c-3.683-0.052-7.374-0.485-11.035,0.116    c-2.395,0.393-5.258,0.672-7.783,1.417c-0.052-5.157-0.077-10.312,0.036-15.465c0.107-4.859,0.338-9.739,0.62-14.619    c1.737,0.293,4.172,0.163,6.444-0.152c5.388,0.533,11.307,0.046,15.794-0.296c3.981-0.304,7.541-0.633,11.545-0.21    c4.356,0.459,8.958,0.617,13.315,0.197c8.391-0.811,16.76-0.589,25.211-0.747c2.51-0.046,5.633,0.026,8.567-0.409    c4.408,0.145,8.935,0.347,13.331,0.166c2.191-0.09,4.362-0.165,6.536-0.216c0.459,0.047,0.915,0.097,1.377,0.14    c2.781,0.352,5.691,0.275,8.052,0.32c8.452,0.158,16.82-0.064,25.211,0.747c4.356,0.421,8.959,0.262,13.315-0.197    c4.004-0.422,7.565-0.094,11.545,0.21c4.451,0.339,10.312,0.822,15.666,0.31c2.172,0.282,4.363,0.252,6.576,0.21    c0.279,4.856,0.509,9.712,0.615,14.548C347.965,229.65,347.946,234.453,347.901,239.256z M233.592,147.491    c0.057-0.992,0.076-1.989,0.064-2.971c0.61-0.109,1.219-0.22,1.832-0.315c6.533-0.011,13.223,0.141,19.689,0.545    c6.95,0.434,13.965,0.438,20.919,0.07c0.934-0.05,1.931-0.062,2.962-0.064c-1.323,3.852-0.83,8.617-1.314,12.504    c-0.611,4.906-0.103,9.716-0.982,14.642c-1.692,9.5-3.366,19.062-4.537,28.608c-0.325,0.508-0.521,1.074-0.591,1.653    c-0.123,0.012-0.248,0.025-0.372,0.038c-0.208-0.004-0.413-0.01-0.622-0.013c-1.253-0.019-2.503-0.078-3.751-0.154    c-0.279-0.107-0.56-0.206-0.87-0.233c-0.974-0.081-1.886-0.113-2.737-0.012c-2.326-0.165-4.655-0.314-7-0.297    c-5.358,0.04-10.708,0.068-16.051,0.084c-0.102-0.37-0.24-0.733-0.453-1.066c-1.171-9.545-2.845-19.107-4.537-28.608    c-0.878-4.925-0.371-9.735-0.981-14.642C233.883,154.253,234.089,150.721,233.592,147.491z M284.585,145.466    c0.637,0.046,1.277,0.077,1.92,0.063c3.935-0.085,7.759,0.242,11.728,0.177c10.463-0.172,20.869-0.434,31.337-0.381    c0.255,0.001,0.51,0.008,0.765,0.009c-0.019,6.406,0.031,15.647,6.781,18.376c1.882,0.761,4.045,1.123,6.241,1.314    c0.134,0.294,0.331,0.559,0.582,0.789c0.973,8.602,1.397,17.281,2.04,25.924c0.018,0.241,0.034,0.482,0.051,0.724    c-1.968-0.449-4.034-0.735-6.087-0.98c-1.384-0.261-2.768-0.479-4.104-0.654c-4.541-0.595-9.803-1.789-14.369-0.769    c-4.834,1.079-5.103,7.668-4.485,12.282c-6.378,0.055-12.722,0.553-19.148-0.236c-5.926-0.727-12.166-0.532-18.283-0.284    c1.145-10.246,3.153-20.443,4.677-30.668c0.73-4.899,0.126-9.708,0.642-14.599C285.267,152.891,285.196,149.129,284.585,145.466z     M346.406,197.708c0.145,1.996,0.292,3.992,0.426,5.995c-6.72-2.171-15.005-0.408-21.831-1.075    c-0.328-0.032-0.654-0.046-0.98-0.066c-0.038-2.114-1.311-5.097,0.328-6.385c1.27-0.998,5.188-0.223,6.84-0.056    C336.021,196.609,341.478,198.476,346.406,197.708z M406.833,410.459c2.714,0.301,4.163,1.239,5.489,3.801    c4.619,8.933,5.946,19.823,7.991,29.575c1.664,7.937,2.899,16.403,3.298,24.45c0.196,3.947,1.114,9.794-3.381,10.72    c-2.777,0.573-6.632,0.893-9.439,1.053c-8.646,0.492-17.426,0.295-26.093,0.535c-3.292,0.09-6.707-0.052-9.964,0.252    c-3.78,0.354-7.56,1.034-11.324-0.053c-5.627-1.625-4.869-5.75-5.546-10.718c-0.478-3.515-1.472-6.873-2.31-10.311    c-2.306-9.455-1.62-20.183-1.701-29.869c-0.037-4.382-0.628-9.013-0.26-13.374c0.328-3.875,2.669-3.015,5.996-3.741    c4.117-0.9,8.106,0.258,12.203-0.4c0.396-0.064,0.807-0.152,1.209-0.227c8.222-0.072,16.388-0.987,24.558-1.43    c2.058-0.112,4.29-0.134,6.256-0.535C404.824,410.27,405.832,410.349,406.833,410.459z M417.873,207.934    c5.9,0.133,12.152,2.277,18.023,1.773c1.423-0.122,4.76-1.281,5.749,0.361c0.754,1.252-0.21,5.316-0.269,6.868    c-0.141,3.674-0.532,7.334-0.66,11.009c-0.077,2.21,0.614,5.052,0.115,7.179c-0.984,4.197-6.272,2.75-9.817,3.043    c-3.201,0.265-5.947,0.412-9.161,0.099c-6.313-0.615-12.89,0.686-19.302,0.582c-4.308-0.07-9.314,0.743-13.764,0.28    c-0.019-0.138-0.043-0.274-0.061-0.411c-1.155-8.741-1.224-17.862-1.968-26.688c-0.125-1.485-0.267-2.967-0.398-4.45    c3.41,1.113,7.308,0.983,10.784,0.646C403.944,207.565,411.035,207.781,417.873,207.934z M388.988,195.947    c3.423,0.094,6.799-0.142,10.267-0.002c2.282,0.091,8.486-2.014,9.9,0.04c0.896,1.301,0.223,3.651-0.199,5.529    c-0.705,0.032-1.41,0.059-2.112,0.075c-7.023,0.154-13.893,1.448-20.889,1.451c-0.227-2.492-0.452-4.985-0.681-7.477    C386.398,196.031,387.784,195.913,388.988,195.947z M381.393,228.017c0.417,4.023,0.186,8.039,0.768,12.046    c1.436,9.906,3.236,19.647,3.903,29.627c0.565,8.456,1.612,16.989,3.14,25.313c1.653,8.998,2.05,18.341,3.387,27.422    c2.623,17.815,4.644,36.006,6.644,53.93c0.845,7.578,1.418,15.204,2.613,22.73c0.201,1.262,0.039,3.209,0.469,4.38    c0.007,0.02,0.007,0.03,0.013,0.05c-0.951-0.065-2.681,0.018-3.013,0.062c-4.233,0.571-8.564,0.739-12.839,1.187    c-4.189,0.438-8.324,0.936-12.549,0.882c-1.041-0.013-2.437,0.113-3.951,0.241c-1.521-0.128-3.035-0.254-4.521-0.422    c-1.618-0.184-3.08-0.154-4.547-0.057c-0.028-0.014-0.063-0.025-0.091-0.04c-3.775-2.031-2.993-11.062-2.882-14.5    c0.146-4.483-0.557-8.61-0.891-13.052c-0.717-9.513,0.585-19.195-0.301-28.686c-0.779-8.331-0.851-16.711-1.512-25.059    c-0.705-8.902-0.681-17.666-0.656-26.607c0.026-9.117-0.722-18.204-0.723-27.351c-0.006-34.956,0.43-70.108-3.715-104.801    c5.242,0.18,10.418,0.12,15.665-0.107c3.863-0.167,7.588-0.974,11.357-1.5c-0.907,16.869,2.216,34.055,3.13,50.876    C380.534,219.05,380.933,223.563,381.393,228.017z M385.336,156.922c-3.017,0.361-6.067-0.064-9.054,0.415    c-2.836,0.455-5.577,1.085-8.477,1.288c-6.965,0.488-14.169,0.561-21.106-0.077c-1.335-0.123-2.688-0.307-4.024-0.452    c-3.475-0.377-3.995-1.752-4.776-4.804c-0.654-2.555-0.529-5.248-0.385-7.87c15.903,0.214,31.819,0.731,47.783,0.756    c1.042,0.001,2.078,0.03,3.118,0.044c-0.304,1.322-0.3,2.534,0.028,4.159C389.256,154.391,389.967,156.368,385.336,156.922z     M440.356,114.063c-3.179,6.342-6.549,13.031-10.032,19.058c-3.011,5.21-8.012,4.556-13.508,4.361    c-4.312-0.153-8.296,0.115-12.549,0.59c-8.554,0.954-17.727-0.052-26.354-0.038c-17.639,0.029-35.142-0.875-52.74-0.643    c-9.742,0.128-19.495,1.113-29.226,1.092c-3.594-0.008-7.142-0.204-10.692-0.268c-10.295-0.714-21.012,0.292-31.093-0.131    c-7.088-0.297-14.602-0.472-21.674-0.186c-4.557,0.184-9.941-0.025-14.937,0.565c-0.5,0.007-0.998,0.019-1.499,0.02    c-9.731,0.021-19.484-0.962-29.226-1.092c-17.597-0.233-35.1,0.671-52.739,0.643c-8.627-0.014-17.8,0.992-26.354,0.038    c-4.253-0.475-8.238-0.743-12.549-0.59c-5.496,0.195-10.497,0.849-13.508-4.361c-3.483-6.028-6.851-12.717-10.032-19.058    c-1.708-3.406-3.252-6.781-5.199-9.835c2.664,0.407,5.322,0.763,7.954,1.076c10.171,1.214,20.045,3.489,30.17,4.77    c10.513,1.328,20.831,3.464,31.418,4.434c9.982,0.914,20.011,2.633,30.05,2.495c11.018-0.152,21.961-0.198,32.975,0.304    c7.584,0.345,14.887,0.206,22.101-1.075c2.416,0.014,4.83,0.026,7.254,0.047c10.36,0.091,20.688,0.276,31.06,0.298    c9.607,0.019,19.179,0.497,28.787,0.517c3.153,0.007,6.305,0.01,9.458,0.018c5.015,0.434,10.1,0.432,15.318,0.193    c11.015-0.502,21.957-0.455,32.975-0.304c10.039,0.139,20.069-1.581,30.05-2.495c10.587-0.97,20.905-3.106,31.418-4.434    c10.126-1.279,19.999-3.556,30.17-4.77c2.632-0.315,5.29-0.669,7.954-1.076C443.608,107.282,442.064,110.657,440.356,114.063z     M486.783,74.791c-0.597,3.937-2.768,10.881-6.355,13.043c-3.566,2.149-8.588,2.352-12.522,3.632    c-4.751,1.544-9.272,2.679-14.213,3.444c-18.049,2.797-36.131,5.737-54.079,9.008c-18.913,3.446-39.128,5.887-58.319,5.424    c-9.364-0.225-18.694,0.094-28.042,0.463c-8.146-1.227-17.575,0.034-25.04,0.046c-9.98,0.017-19.922-0.428-29.901-0.408    c-9.998,0.02-19.958-0.256-29.945-0.169c-7.272,0.064-15.489-0.309-23.023,0.755c-1.352-0.033-2.7-0.072-4.042-0.126    c-10.203-0.409-20.38-0.808-30.596-0.563c-19.192,0.463-39.405-1.977-58.319-5.424c-17.949-3.271-36.03-6.209-54.079-9.008    c-4.941-0.766-9.461-1.9-14.213-3.444c-3.933-1.278-8.956-1.481-12.522-3.632c-3.588-2.162-5.76-9.106-6.355-13.043    c-0.393-2.594-1.18-3.839-2.05-5.722c2.146,0.637,4.289,1.283,6.505,1.739c4.06,0.836,7.725,2.491,11.705,3.554    c4.473,1.195,9.288,1.677,13.858,2.45c9.323,1.577,18.578,3.38,27.89,5.011c8.263,1.447,16.386,3.175,24.665,4.613    c8.801,1.529,17.439,2.406,26.298,3.435c9.501,1.104,18.732,3.971,28.274,4.572c8.652,0.544,17.112,2.181,25.831,2.136    c9.105-0.047,17.979,1.215,27.084,1.069c2.277-0.037,4.992-0.125,7.73-0.457c2.186-0.084,4.338-0.197,6.406-0.265    c9.059-0.294,18.297-0.106,27.357,0.266c8.02,0.329,16.257,0.309,24.32,0.269c3.128-0.015,6.259-0.026,9.384-0.113    c2.224,0.204,4.383,0.269,6.249,0.299c9.105,0.147,17.978-1.116,27.084-1.069c8.719,0.045,17.179-1.593,25.831-2.136    c9.542-0.599,18.773-3.468,28.274-4.572c8.859-1.029,17.498-1.906,26.298-3.435c8.28-1.438,16.403-3.166,24.665-4.613    c9.312-1.631,18.566-3.433,27.89-5.011c4.57-0.773,9.386-1.254,13.858-2.45c3.981-1.063,7.645-2.719,11.705-3.554    c2.216-0.456,4.359-1.101,6.505-1.739C487.963,70.952,487.176,72.197,486.783,74.791z M495.551,58.705    c-1.362,2.626-1.631,2.65-4.326,3.122c-1.695,0.297-3.089,0.806-4.722,1.351c-9.503,3.168-19.44,5.36-29.312,7.084    c-20.411,3.564-40.72,7.188-61.081,10.839c-10.522,1.887-21.269,1.886-31.812,3.88c-10.339,1.955-20.643,2.859-31.085,4.075    c-4.854,0.566-9.78,0.198-14.651,0.268c-4.121,0.059-8.175,0.803-12.255,1.055c-8.253-1.429-16.887-0.3-25.218-0.332    c-8.088-0.031-16.244-0.12-24.32-0.236c-9.079-0.129-18.294-0.388-27.357,0.094c-1.766,0.094-3.583,0.125-5.422,0.142    c-1.294-0.166-2.562-0.271-3.754-0.164c-1.311,0.117-2.606,0.19-3.903,0.271c-1.105,0.038-2.207,0.093-3.302,0.174    c-1.45,0.058-2.898,0.116-4.371,0.138c-5.09,0.076-10.106-1.068-15.225-1.142c-4.871-0.071-9.797,0.297-14.651-0.268    c-10.441-1.216-20.745-2.121-31.085-4.075c-10.544-1.994-21.29-1.993-31.812-3.88c-20.361-3.651-40.67-7.275-61.081-10.839    c-9.871-1.723-19.809-3.915-29.312-7.084c-1.632-0.545-3.028-1.054-4.722-1.351c-2.695-0.471-2.963-0.495-4.326-3.122    c-1.399-2.696-2.283-6.034-2.93-9.211c1.98,1.107,3.992,2.155,6.124,2.994c4.107,1.616,8.119,3.475,12.23,5.077    c4.129,1.609,8.4,2.06,12.686,3.054c9.065,2.101,18.662,2.155,27.648,4.442c13.858,3.527,28.266,4.252,42.496,5.678    c8.793,0.881,17.735,1.83,26.403,3.427c9.627,1.774,20.132,3.392,29.927,3.451c9.418,0.058,18.684,0.77,28.139,0.77    c9.779,0,19.576,0.14,29.355-0.134c8.938,1.015,18.557,0.239,27.205,0.258c7.571,0.015,15.564,0.407,23.289-0.415    c11.257,0.478,22.546,0.291,33.812,0.291c9.455,0,18.721-0.712,28.138-0.77c9.796-0.061,20.3-1.678,29.927-3.451    c8.667-1.596,17.61-2.547,26.403-3.427c14.23-1.424,28.637-2.151,42.496-5.678c8.986-2.287,18.583-2.342,27.648-4.442    c4.286-0.993,8.556-1.444,12.686-3.054c4.111-1.602,8.122-3.461,12.23-5.077c2.131-0.839,4.144-1.886,6.124-2.994    C497.835,52.672,496.951,56.01,495.551,58.705z M504.687,35.613c-2.121,5.636-9.498,8.509-15.066,10.688    c-7.799,3.051-14.987,5.693-23.197,7.376c-8.735,1.791-17.714,2.35-26.45,4.083c-6.082,1.206-12.073,2.942-18.242,3.61    c-7.294,0.79-14.721,1.015-21.987,1.867c-6.868,0.806-13.802,2.065-20.717,2.633c-7.542,0.621-15.032,2.089-22.546,3.177    c-8.474,1.227-16.974,0.641-25.381,1.743c-17.26,2.263-35.318,0.127-52.795,0.833c-7.733-0.097-15.437,0.093-23.267,0.26    c-13.213,0.282-26.436-0.571-39.693-0.278c-11.479,0.254-23.03,0.681-34.447-0.815c-8.409-1.103-16.908-0.516-25.381-1.743    c-7.514-1.088-15.002-2.555-22.546-3.177c-6.914-0.57-13.849-1.829-20.717-2.633c-7.266-0.852-14.694-1.076-21.987-1.867    c-6.169-0.668-12.161-2.404-18.242-3.61c-8.735-1.733-17.715-2.292-26.45-4.083c-8.21-1.683-15.399-4.325-23.197-7.376    c-5.57-2.179-12.947-5.052-15.066-10.688c-2.169-5.764,2.732-4.106,5.888-3.236c3.96,1.092,7.806,2.567,11.703,3.858    c4.067,1.347,8.162,2.613,12.184,4.093c4.573,1.683,9.461,2.358,13.928,4.177c7.003,2.852,14.51,3.495,21.693,5.744    c6.805,2.131,13.997,3.662,20.956,5.285c7.906,1.843,15.843,2.433,23.861,3.569c8.452,1.198,16.866,2.352,25.386,3.024    c8.145,0.643,16.258,1.444,24.418,1.949c4.288,0.265,8.518,0.593,12.807,0.908c5.305,0.389,10.787,0.064,16.024,0.806    c6.716,0.952,13.448-0.017,20.184,0.078c7.593,0.107,15.424-0.431,22.938,0.338c7.489,0.767,15.255-0.531,22.803-0.463    c8.925,0.077,17.876,0.217,26.726-0.714c8.978,0.286,18.089,2.028,27.023,0.761c5.237-0.743,10.719-0.417,16.024-0.806    c4.289-0.315,8.519-0.643,12.807-0.908c8.16-0.503,16.273-1.305,24.418-1.949c8.52-0.673,16.933-1.826,25.386-3.024    c8.018-1.136,15.954-1.726,23.861-3.569c6.959-1.622,14.151-3.155,20.958-5.285c7.185-2.249,14.69-2.893,21.693-5.744    c4.467-1.819,9.354-2.495,13.928-4.177c4.022-1.48,8.117-2.747,12.184-4.093c3.899-1.291,7.743-2.766,11.703-3.858    C501.955,31.506,506.857,29.848,504.687,35.613z"/>
	</g>
</g>
<g>
	<g>
		<path d="M271.013,151.969c-2.078-2.129-5.821-2.294-8.582-2.413c-4.646-0.198-9.475,0.007-14.105,0.365    c-6.252,0.483-9.077,2.49-8.508,8.812c-0.338,7.332,2.48,14.274,2.94,21.546c0.268,4.259-0.818,12.33,2.903,15.478    c3.462,2.931,12.425,3.111,16.524,2.41c5.546-0.949,6.432-5.793,7.192-10.592c0.974-6.154,1.023-12.427,1.697-18.633    C271.554,164.514,274.587,155.63,271.013,151.969z M267.261,160.449c-0.311,2.622-0.638,5.236-0.891,7.864    c-0.495,5.141-0.649,10.324-1.112,15.451c-0.296,3.278-0.374,6.638-3.088,8.559c-2.623,1.856-5.926,1.176-9.068,0.85    c-4.414-0.458-4.998-1.686-5.577-5.707c-0.369-2.565-0.542-5.148-0.9-7.709c-0.875-6.252-3.137-12.341-3.49-18.668    c-0.007-0.126-0.014-0.248-0.021-0.371c0.207-0.273,0.349-0.631,0.385-1.079c0.433-5.306,3.759-4.795,8.007-5.004    c3.317-0.163,6.652-0.348,9.975-0.231C266.099,154.564,267.895,155.102,267.261,160.449z"/>
	</g>
</g>
<g>
</g>
<g>
</g>
<g>
</g>
<g>
</g>
<g>
</g>
<g>
</g>
<g>
</g>
<g>
</g>
<g>
</g>
<g>
</g>
<g>
</g>
<g>
</g>
<g>
</g>
<g>
</g>
<g>
</g>
</svg>
