<?xml version="1.0" encoding="iso-8859-1"?>
<!-- Generator: Adobe Illustrator 19.0.0, SVG Export Plug-In . SVG Version: 6.00 Build 0)  -->
<svg xmlns="http://www.w3.org/2000/svg" xmlns:xlink="http://www.w3.org/1999/xlink" version="1.1" id="Layer_1" x="0px" y="0px" viewBox="0 0 512.002 512.002" style="enable-background:new 0 0 512.002 512.002;" xml:space="preserve">
<g>
	<g>
		<path d="M507.346,287.814c-4.116-1.093-8.188-1.242-12.264-1.211c1.468-7.998,0.925-16.376,0.211-24.408    c-0.768-8.656,0.205-17.196,0.205-25.859c0-6.187,0.581-12.881-1.261-18.887c-0.075-0.243-0.163-0.471-0.253-0.7    c0.124-0.059,0.248-0.116,0.369-0.214c2.865-2.32,5.381-3.709,7.222-7.042c1.499-2.712,3.782-5.874,3.736-9.049    c-0.02-1.427-1.201-2.655-2.646-2.647c-5.172,0.032-9.979-1.87-15.16-1.898c-0.208-0.001-0.415-0.001-0.623-0.001    c1.254-3.225,1.11-7.334,0.747-10.612c-0.303-2.739-1.065-5.327-1.125-8.111c-0.008-0.39-0.026-0.798-0.036-1.197    c1.43-0.149,2.954-0.898,4.223-1.321c0.845-0.283,1.636-0.679,2.366-1.16c6.519-1.658,13.512-5.612,7.888-10.898    c-0.193-0.182-0.401-0.354-0.615-0.522c-6.096-15.899-19.514-28.709-36.964-29.42c0.02-0.216,0.044-0.433,0.06-0.65    c1.096-1.782,0.698-4.238,0.62-6.333c-0.034-0.915-0.142-1.872-0.273-2.85c0.031-0.398,0.062-0.797,0.108-1.191    c0.363-3.068,0.766-7.153-0.129-10.162c-0.556-1.873-3.053-1.733-3.664,0c-1.107,3.145-0.57,7.129-0.249,10.506    c-0.064,0.541-0.12,1.071-0.155,1.573c-0.121,1.745-0.132,3.46,0.004,5.154c-0.038,1.347,0.044,2.643,0.487,3.735    c0.032,0.079,0.074,0.146,0.113,0.217c-8.191,0.35-17.321,3.826-23.686,8.96c-3.525,2.842-5.966,7.22-8.147,11.13    c-1.304,2.337-3.288,5.838-3.224,8.809c-7.362,7.125,3.222,17.476,11.261,16.76c0.026,1.356,0.042,2.624-0.087,3.648    c-0.571,4.504-0.352,9.049-0.922,13.539c-3.412,0.344-6.798,0.773-10.231,1.255c-2.792,0.394-7.256-0.278-9.061,2.6    c-1.744,2.78,0.438,6.055,2.126,8.197c2.555,3.24,5.052,6.291,6.929,9.942c0.086,0.667,0.415,1.319,1.068,1.813l0.448,0.341    c-0.391,5.324,1.135,11.277,1.011,16.186c-0.227,8.957,1.352,17.75,1.477,26.688c0.06,4.347,0.529,8.656,0.521,12.997    c-0.001,0.794-0.017,1.528-0.015,2.225c-2.883-0.958-6.853-0.265-9.714-0.568c-2.813-0.299-5.49-0.758-8.319-0.537    c-8.983,0.702-18.102,0.35-27.12,0.359c-8.566,0.008-17.141,0.501-25.676,0.443c-12.335-0.083-24.75-0.579-37.13-0.781    c0.951-9.276,0.568-18.558,0.789-27.809c0.083-3.458-0.116-7.269-0.681-10.662c-0.046-0.277-0.103-0.544-0.165-0.807    c4.418,0.92,9.025,1.531,13.287,1.352c3.415-0.142,10.603,0.019,13.32-2.672c0.765-0.757,0.94-2.043,0.383-2.968    c-3.745-6.229-14.839-8.61-20.977-11.368c-1.183-0.532-2.179-0.823-3.124-0.995c0.699-5.661-2.606-14.357-5.485-19.248    c-3.382-5.746-8.911-7.463-15.145-7.419c-1.795,0.012-3.605,0.038-5.418,0.064c-4.106-4.518-7.512-9.473-14.202-9.834    c-0.594-0.032-1.205-0.047-1.811-0.069c0.054-0.482-0.048-1.014-0.37-1.566c0.359,0.617,0.031-0.746,0.03-1.068    c-0.006-0.914,0.063-1.8,0.106-2.713c0.083-1.75-0.252-3.386-0.349-5.12c-0.162-2.868-4.614-2.902-4.491,0    c0.003,0.282,0.008,0.552,0.012,0.827c-0.01,1.938-0.284,4.034-0.221,6.052c-0.146,1.158-0.292,2.425,0.016,3.536    c-1.724,0.023-3.452,0.074-5.153,0.165c-5.154-0.988-10.415-0.552-15.805-0.269c-4.767,0.25-9.783,0.047-14.659,0.39    c-2.681-0.183-5.456-0.281-8.205-0.291c0.07-0.492-0.063-0.987-0.339-1.413c-0.022-0.318-0.026-0.64-0.015-0.964    c0.485-2.974,0.059-6.436-0.639-8.805c-0.006,0.001-0.01,0.002-0.016,0.003c-0.059-0.173-0.123-0.347-0.202-0.519    c-1.015-2.214-4.707-0.647-3.94,1.661c0.068,0.207,0.117,0.43,0.178,0.646c0.238,1.357-0.202,3.116-0.103,4.412    c0.129,1.677,0.016,3.41,0.271,5.067c-0.353,0.015-0.717,0.019-1.065,0.038c-6.689,0.361-10.094,5.316-14.202,9.834    c-1.811-0.026-3.621-0.051-5.417-0.064c-6.234-0.044-11.763,1.673-15.145,7.419c-2.879,4.891-6.184,13.586-5.485,19.248    c-0.944,0.171-1.941,0.463-3.124,0.995c-6.138,2.759-17.231,5.138-20.976,11.368c-0.557,0.927-0.381,2.212,0.383,2.968    c2.717,2.691,9.904,2.529,13.32,2.672c4.262,0.178,8.869-0.432,13.287-1.352c-0.063,0.263-0.12,0.53-0.165,0.807    c-0.565,3.393-0.765,7.203-0.681,10.662c0.222,9.25-0.162,18.532,0.79,27.809c-12.382,0.202-24.797,0.698-37.13,0.781    c-8.535,0.057-17.11-0.436-25.676-0.443c-9.018-0.009-18.137,0.343-27.12-0.359c-2.828-0.221-5.506,0.238-8.319,0.537    c-2.861,0.303-6.832-0.391-9.714,0.568c0.002-0.697-0.013-1.431-0.015-2.225c-0.008-4.34,0.461-8.65,0.521-12.997    c0.124-8.938,1.704-17.731,1.477-26.688c-0.124-4.909,1.401-10.862,1.011-16.186l0.448-0.341c0.653-0.494,0.982-1.146,1.067-1.813    c1.877-3.65,4.376-6.702,6.929-9.942c1.689-2.142,3.87-5.415,2.126-8.197c-1.806-2.879-6.27-2.208-9.061-2.6    c-3.432-0.483-6.819-0.911-10.231-1.255c-0.569-4.49-0.351-9.034-0.922-13.539c-0.13-1.024-0.113-2.292-0.087-3.648    c8.039,0.718,18.623-9.635,11.261-16.76c0.064-2.971-1.921-6.472-3.224-8.809c-2.181-3.91-4.622-8.288-8.147-11.13    c-6.365-5.133-15.494-8.61-23.687-8.96c0.039-0.07,0.082-0.138,0.114-0.217c0.444-1.093,0.524-2.389,0.486-3.735    c0.136-1.694,0.126-3.409,0.004-5.154c-0.035-0.502-0.092-1.032-0.155-1.573c0.321-3.376,0.857-7.361-0.249-10.506    c-0.61-1.733-3.108-1.873-3.664,0c-0.893,3.01-0.492,7.095-0.129,10.162c0.047,0.395,0.077,0.793,0.108,1.191    c-0.13,0.977-0.238,1.935-0.272,2.85c-0.077,2.095-0.475,4.551,0.62,6.333c0.017,0.217,0.039,0.434,0.06,0.65    c-17.449,0.711-30.866,13.521-36.963,29.42c-0.214,0.168-0.422,0.34-0.615,0.522c-5.623,5.286,1.37,9.239,7.888,10.898    c0.73,0.481,1.519,0.878,2.366,1.16c1.269,0.424,2.793,1.173,4.223,1.321c-0.01,0.399-0.028,0.807-0.036,1.197    c-0.059,2.784-0.822,5.372-1.125,8.111c-0.362,3.278-0.508,7.385,0.748,10.612c-0.208,0.001-0.416,0.001-0.623,0.001    c-5.182,0.028-9.989,1.931-15.161,1.898c-1.446-0.009-2.626,1.221-2.646,2.647c-0.046,3.175,2.237,6.337,3.736,9.049    c1.842,3.333,4.357,4.722,7.222,7.042c0.121,0.097,0.245,0.155,0.369,0.214c-0.089,0.228-0.178,0.457-0.252,0.7    c-1.844,6.006-1.262,12.699-1.262,18.887c0,8.663,0.973,17.202,0.205,25.859c-0.712,8.032-1.255,16.41,0.211,24.408    c-4.076-0.031-8.149,0.117-12.264,1.211c-7.741,2.056-4.086,7.81-1.421,13.133c1.364,2.725,3.62,6.137,6.691,7.146    c0.36,0.119,0.685,0.181,1.001,0.22c-0.237,6.687-0.909,13.344-1.06,20.044c-0.227,10.102,0.14,20.279-0.414,30.367    c-0.502,9.164-1.118,18.219-1.15,27.415c-0.018,5.078-1.82,12.014,4.385,13.619c7.414,1.92,14.691,1.425,22.274,2.053    c3.571,0.295,7.17-0.401,10.776-0.388c4.854,0.019,9.76,0.205,14.609-0.051c3.37-0.178,6.835-0.202,10.222-0.413    c1.868,0.144,3.739,0.237,5.724,0.089c3.525-0.262,6.857-0.165,10.377,0.167c3.68,0.349,6.842-0.149,10.478-0.26    c15.859-0.49,31.61,0.104,47.497,0.138c7.615,0.016,15.063-0.425,22.625-0.025c9.078,0.48,18.297,0.057,27.388,0.063    c8.516,0.006,17.365,0.801,25.822-0.098c5.809-0.617,12.787,0.472,18.547-1.334c5.38,0.282,10.891,0.064,16.103-0.051    c4.618-0.103,9.238,0.158,13.853,0.112c1.382-0.015,2.667,0.08,3.857-0.099c5.784,1.865,12.827,0.752,18.679,1.374    c8.458,0.899,17.306,0.104,25.822,0.098c9.091-0.006,18.31,0.417,27.388-0.063c7.562-0.4,15.009,0.041,22.625,0.025    c15.888-0.034,31.639-0.627,47.497-0.138c3.636,0.113,6.797,0.609,10.478,0.26c3.519-0.332,6.852-0.429,10.376-0.167    c1.986,0.148,3.856,0.055,5.724-0.089c3.386,0.21,6.852,0.235,10.223,0.413c4.848,0.256,9.753,0.072,14.608,0.051    c3.605-0.015,7.204,0.682,10.776,0.388c7.582-0.627,14.86-0.133,22.274-2.053c6.205-1.607,4.404-8.541,4.385-13.619    c-0.032-9.197-0.647-18.25-1.149-27.415c-0.553-10.088-0.188-20.265-0.415-30.367c-0.15-6.699-0.823-13.358-1.06-20.044    c0.315-0.039,0.641-0.102,1.002-0.22c3.071-1.01,5.327-4.422,6.691-7.146C511.433,295.624,515.086,289.87,507.346,287.814z     M441.808,143.927c6.602-4.67,15.933-8.336,24.105-6.876c9.076,1.622,15.749,5.394,21.607,12.325    c-6.951-2.872-15.483-3.841-22.359-3.958c-6.084-0.103-12.102-0.277-18.091,0.734c-2.74,0.464-5.958,0.724-9.015,1.354    C439.114,146.187,440.333,144.972,441.808,143.927z M434.911,152.411c9.371-3.674,20.45-3.822,30.25-3.797    c8.297,0.022,17.305,1.837,25.34,4.541c1.654,2.191,3.272,4.406,5.057,6.501c-3.208-1.092-6.815-1.669-9.573-2.352    c-6.529-1.616-13.97-2.171-20.678-1.671c-7.561,0.563-15.101,0.134-22.64,0.79c-3.14,0.273-7.053,0.604-10.602,1.592    C433.033,156.158,433.927,154.254,434.911,152.411z M428.141,167.323c-0.295-4.621,9.302-5.432,12.61-5.821    c8.309-0.978,16.517-0.974,24.864-1.585c8.838-0.646,17.359,1.234,25.889,3.285c1.202,0.29,3.919,0.544,4.642,1.459    c1.969,2.492-0.38,2.573-2.216,3.405c-2.757,1.253-5.178,2.519-7.739,3.945c-0.101-0.666-0.236-1.323-0.428-1.956    c-2.495-8.245-13.924-4.47-19.932-4.315c-5.457,0.14-10.854,0.985-16.306,1.057c-3.068,0.04-8.688-0.62-11.074,1.779    c-1.342,1.348-1.792,3.456-1.927,5.697C433.101,172.989,428.378,171.033,428.141,167.323z M478.866,192.629    c-0.083-0.9-0.197-1.792-0.338-2.678c0.411-3.14,0.117-6.38-0.655-9.513c-0.748-3.038-3.405-8.313-7.071-8.376    c-8.172-0.141-5.215,18.551-6.677,23.206c-0.039,0.126-0.045,0.254-0.047,0.381c-1.049-0.054-2.097-0.117-3.147-0.178    c-0.038-0.643-0.11-1.292-0.082-1.937c0.023-0.55,0.009-1.073,0.009-1.604c0.26-2.647-0.34-5.854-0.604-7.517    c-0.766-4.823-1.799-9.447-7.286-10.965c-4.285-1.187-7.091,3.436-7.692,7.152c-0.433,2.68-0.266,5.429-0.31,8.132    c-0.032,1.974,0.226,4.116,0.279,6.157c-1.4,0.018-2.798,0.056-4.192,0.144c0.453-6.737-0.702-13.715,0.371-20.362    c0.573-3.552,1.813-2.72,4.566-2.968c2.19-0.198,4.19-0.115,6.367-0.22c3.879-0.189,7.724-0.85,11.601-1.086    s7.903-0.661,11.775-0.783c5.866-0.184,5.578,1.695,5.66,6.698c0.067,4.105,0.802,7.943,1.021,12.019    c0.066,1.232,0.199,8.034,1.391,7.283c-0.117,0.074-0.216,0.171-0.301,0.279c-1.475-0.002-2.949-0.003-4.423-0.004    C479.139,194.805,478.964,193.705,478.866,192.629z M468.036,191.283c-0.191-3.88,0.18-8.219,0.955-12.025    c0.419-2.063,0.933-4.614,3.147-2.507c1.885,1.794,2.35,4.646,2.678,7.068c0.477,3.528,0.675,7.757,0.416,11.358    c-0.022,0.307,0.14,0.551,0.369,0.704c-1.301-0.001-2.603-0.002-3.904-0.004c-1.348-0.002-2.7-0.032-4.054-0.078    C468.32,194.505,468.119,192.948,468.036,191.283z M448.843,187.203c-0.047-2.489-0.863-7.637,1.594-9.256    c6.432-4.237,7.091,14.056,7.141,17.23c0.001,0.039,0.023,0.064,0.028,0.101c-2.776-0.162-5.553-0.309-8.325-0.372    c-0.125-0.633-0.273-1.267-0.347-1.951C448.734,191.075,448.878,189.094,448.843,187.203z M428.894,213.14    c-1.033-2.049-2.229-4.103-3.609-5.748c-0.663-0.789-4.095-3.44-3.725-4.41c0.238-0.623,3.694-0.606,4.808-0.777    c8.706-1.343,17.238-1.716,26.037-1.856c7.949-0.126,15.81,0.39,23.754,0.377c4.296-0.008,8.735-0.319,13.024-0.003    c3.393,0.248,6.841,1.162,10.241,1.829c-0.861,2.097-2.428,4.796-3.065,5.796c-1.44,2.256-2.812,3.541-3.946,5.778    c-2.248-2.596-5.843-3.685-9.574-3.867c-6.675-0.326-13.254-0.135-19.93-0.803c-6.803-0.68-14.031-0.15-20.788,0.716    C438.44,210.644,431.781,210.112,428.894,213.14z M453.235,269.525c-0.001-0.285-0.008-0.572-0.01-0.859    c2.858-0.214,5.746-0.167,8.722-0.169c5.437-0.004,11.223-0.463,16.71,0.228c-0.339,5.811-0.696,11.624-0.61,17.411    c-7.837-0.402-16.075-0.068-23.741,0.485c-0.342,0.025-0.683,0.056-1.025,0.083C454.096,281.183,453.243,274.858,453.235,269.525z     M464.128,264.858c-3.628-0.003-7.328-0.216-10.979-0.006c-0.149-5.138-0.399-10.34,0.104-15.38    c1.146-11.482-0.377-23.308-1.051-34.851c4.761-0.085,9.473,0.122,14.328,0.343c3.519,0.161,6.976,0.459,10.493,0.493    c-0.19,3.916,0.827,8.304,1.05,11.923c0.379,6.186,0.271,12.381,0.798,18.55c0.541,6.321,0.336,12.682-0.003,19.052    C474.032,264.364,468.876,264.863,464.128,264.858z M479.128,215.458c2.683-0.037,5.556-0.055,7.92,1.251    c2.789,1.539,2.84,6.004,3.124,8.999c0.425,4.495-0.087,9.261-0.045,13.788c0.076,8.11-0.644,15.986-0.054,24.128    c0.134,1.851,0.221,3.73,0.294,5.619c-2.574-1.572-5.178-2.855-8.228-3.659c-0.06-0.017-0.123-0.023-0.184-0.039    c0.124-5.997,0.141-11.99-0.237-17.94c-0.407-6.391-0.6-12.786-1.121-19.171C480.537,227.727,479.545,219.94,479.128,215.458z     M481.866,269.294c0.461,0.105,0.927,0.192,1.381,0.32c2.495,0.703,4.727,2.098,7.231,2.662c0.173,4.833,0.371,9.7,1.138,14.377    c-2.974,0.051-5.957,0.085-8.966-0.198c-0.381-0.036-0.77-0.057-1.155-0.089C481.513,280.701,481.714,274.999,481.866,269.294z     M434.784,273.35c3.627-0.378,7.621-2.173,10.954-3.281c1.065-0.353,2.13-0.612,3.194-0.825c0.002,0.445,0.008,0.891,0.007,1.335    c-0.008,5.156-0.821,11.185,0.018,16.478c-3.117,0.266-6.232,0.514-9.359,0.54c-1.609,0.013-4.457,0.784-5.314-0.675    c-0.731-1.245,0.29-4.469,0.418-5.837C434.943,278.548,434.818,275.908,434.784,273.35z M448.883,265.342    c-0.563,0.102-1.127,0.208-1.685,0.345c-4.11,1.013-8.278,3.024-12.486,3.744c-0.108-4.416-0.335-8.828-0.671-13.231    c-0.372-4.884-1.098-9.744-1.24-14.647c-0.126-4.347,0.29-8.636-0.15-12.972c-0.319-3.143-2.091-10.448,1.185-12.239    c2.025-1.107,8.209-1.045,10.517-1.279c1.908-0.192,3.793-0.315,5.665-0.387c-0.398,11.983,0.003,23.946-0.961,35.886    C448.665,255.425,448.793,260.406,448.883,265.342z M226.305,188.495c3.999-0.976,9.012-0.362,13.143-0.309    c0.115,0.001,0.233,0.007,0.348,0.008c9.883,1.51,20.623,1.478,30.61,0.044c0.716-0.013,1.441-0.042,2.151-0.051    c4.13-0.053,9.144-0.666,13.143,0.309c1.924,0.47,4.956,3.518,7.888,5.704c-5.295,0.078-10.604,0.136-15.843,0.027    c-8.222-1.386-16.825-1.065-25.104-0.695c-2.799,0.125-5.589,0.267-8.371,0.454c-3.158,0.057-6.328,0.161-9.549,0.235    c-5.388,0.123-10.854,0.059-16.304-0.021C221.349,192.015,224.381,188.965,226.305,188.495z M197.872,203.912    c4.258-6.023,14.506-5.022,21.169-5.211c4.579-0.13,9.101-0.476,13.605-0.917c6.621,0.633,13.351-0.015,19.995-0.296    c6.958-0.295,14.21,0.301,21.219-0.282c6.321,0.705,12.658,1.313,19.103,1.496c6.663,0.189,16.911-0.812,21.169,5.211    c1.175,1.662,2.169,3.669,3.041,5.809c-8.221-1.496-17.211-1.282-25.446-2.065c-6.504-0.618-13.234,0.117-19.861,0.255    c-0.107-0.221-0.286-0.41-0.551-0.491c-6.008-1.813-13.636-0.14-19.862-0.181c-2.641-0.018-9.409-0.732-13.308,0.614    c-5.979-0.214-12.012-0.753-17.864-0.197c-8.236,0.783-17.227,0.568-25.446,2.065    C195.704,207.582,196.697,205.575,197.872,203.912z M194.137,211.531c9.41,0.835,19.164-1.282,28.539-1.355    c5.12-0.04,10.261,0.14,15.385,0.176c2.6,0.018,6.33,0.699,9.345,0.237c2.039-0.046,4.073-0.133,6.071-0.183    c3.165-0.081,6.402-0.034,9.616-0.176c3.182,1.079,7.795,0.142,10.851,0.121c5.123-0.037,10.263-0.216,15.385-0.175    c9.374,0.073,19.13,2.19,28.539,1.355c1.125,3.055,2.052,6.25,2.93,9.024c-0.862,0.034-1.793,0.078-2.88,0.081    c-4.887,0.012-9.779-0.719-14.668-0.817c-10.032-0.201-20.039-0.644-30.059,0.167c-4.768,0.386-9.559,1.032-14.331,1.267    c-0.949,0.047-1.904,0.068-2.858,0.086c-0.954-0.019-1.908-0.04-2.858-0.086c-4.772-0.235-9.563-0.881-14.331-1.267    c-10.021-0.811-20.028-0.368-30.059-0.167c-4.888,0.098-9.781,0.83-14.668,0.817c-1.087-0.003-2.018-0.047-2.88-0.081    C192.086,217.782,193.013,214.587,194.137,211.531z M180.707,233.91c-2.66,0.154-5.114-0.095-7.761-0.462    c-0.473-0.066-1.8-0.082-3.082-0.187c2.695-1.815,6.542-2.882,8.992-3.941c4.814-2.081,8.454-3.906,13.769-3.999    c8.7-0.151,17.548-0.155,26.221-0.774c8.445-0.603,17.127,0.324,25.597,0.599c3.491,0.114,7.589,0.588,11.56,0.466    c3.972,0.122,8.068-0.352,11.56-0.466c8.47-0.275,17.152-1.202,25.597-0.599c8.673,0.618,17.521,0.623,26.221,0.774    c5.315,0.093,8.955,1.917,13.769,3.999c2.451,1.06,6.296,2.126,8.992,3.941c-1.282,0.106-2.609,0.121-3.082,0.187    c-2.647,0.368-5.101,0.616-7.761,0.462c-3.964-0.23-7.827-0.182-11.739-0.143c-0.445-0.318-0.961-0.576-1.567-0.762    c-3.617-1.116-9.12,0.019-12.889,0.036c-5.563,0.026-11.125,0.078-16.687,0.129c-6.907,0.063-13.722-0.551-20.59-0.595    c-5.29-1.14-11.479-0.225-16.608-0.181c-3.277,0.027-7.326-0.102-11.161,0.263c-5.478,0.181-10.943,0.562-16.465,0.513    c-5.563-0.05-11.125-0.104-16.688-0.129c-3.769-0.017-9.273-1.15-12.889-0.036c-0.606,0.187-1.122,0.445-1.567,0.762    C188.534,233.728,184.671,233.68,180.707,233.91z M310.472,269.625c-0.182-3.365-0.52-6.801-1.498-10.048    c-2.113-7.016-8.581-8.421-11.906-14.362c-0.443-0.792-1.75-1.055-2.376-0.305c-3.848,4.616-10.412,5.778-14.093,10.823    c-2.472,3.388-2.909,7.901-2.228,12.026c-0.015,3.146,0.237,6.343,0.197,9.473c-1.476,0.068-2.96,0.121-4.448,0.177    c0.146-1.116,0.103-2.779,0.093-2.528c0.086-2.148,0.262-4.294,0.366-6.445c0.191-3.926,0.206-8.036-1.175-11.758    c-1.21-3.26-4.144-6.557-7.541-8.348c-0.825-1.06-2.29-2.079-2.9-2.539c-2.338-1.763-5.398-1.969-8.204-1.583    c-2.797,0.385-8.82,2.276-10.62,5.391c-2.513,1.865-4.573,4.483-5.536,7.08c-1.382,3.722-1.367,7.83-1.175,11.758    c0.105,2.151,0.281,4.297,0.366,6.445c-0.01-0.252-0.054,1.413,0.093,2.528c-1.488-0.055-2.973-0.107-4.448-0.177    c-0.041-3.129,0.211-6.327,0.197-9.473c0.681-4.124,0.244-8.639-2.228-12.026c-3.682-5.045-10.244-6.207-14.093-10.823    c-0.625-0.75-1.933-0.486-2.376,0.305c-3.326,5.941-9.793,7.345-11.906,14.362c-0.978,3.249-1.316,6.684-1.498,10.048    c-0.1,1.84-0.262,5.355,0.838,6.965c-2.626-0.013-5.253-0.008-7.884,0.019c0.77-8.095,0.304-16.253,0.636-24.323    c0.151-3.684,0.184-7.128,0.59-10.808c0.086-0.78-0.276-2.59,0.064-2.929c0.491-0.489,5.24,0.15,6.029,0.146    c9.124-0.039,18.485,0.508,27.566-0.453c2.614-0.276,5.328-0.364,8.062-0.459c4.531,0.549,9.548-0.205,13.781-0.25    c4.51-0.049,9.927,0.434,14.766-0.299c5.497,0.667,11.287,0.442,16.649,1.008c9.081,0.959,18.443,0.414,27.566,0.453    c0.789,0.003,5.54-0.635,6.029-0.146c0.339,0.338-0.022,2.148,0.064,2.929c0.407,3.679,0.439,7.124,0.591,10.808    c0.332,8.071-0.134,16.229,0.636,24.323c-2.631-0.027-5.259-0.032-7.884-0.019C310.734,274.98,310.572,271.465,310.472,269.625z     M306.46,276.598c-7.998,0.034-15.97-0.077-23.953,0.41c-0.055-2.702-0.405-5.553-0.559-8.365    c0.462-5.564,0.107-10.122,5.034-14.395c2.673-2.318,5.78-3.656,8.413-5.862c2.951,4.451,8.052,6.716,9.806,12.229    c0.988,3.11,1.263,6.311,1.367,9.53C306.365,272.307,306.203,274.468,306.46,276.598z M240.553,260.578    c0.869-5.231,4.5-7.555,8.036-10.459c1.741-0.675,3.464-1.391,5.32-1.819c2.904-0.67,5.036-0.271,7.688,0.919    c0.207,0.093,0.699,0.254,1.249,0.424c3.707,3.136,7.691,5.424,8.605,10.936c0.826,4.977-1.448,12.002,0.209,16.927    c-0.699,0.03-1.395,0.065-2.093,0.103c-4.117-0.243-8.365-0.01-12.132-0.066c-5.162-0.075-11.335-0.623-17.054-0.177    C241.953,272.449,239.734,265.51,240.553,260.578z M205.433,270.145c0.104-3.219,0.379-6.419,1.367-9.53    c1.754-5.514,6.854-7.778,9.806-12.228c2.633,2.206,5.74,3.544,8.413,5.862c4.927,4.273,4.573,8.831,5.034,14.395    c-0.154,2.812-0.504,5.663-0.559,8.365c-7.982-0.487-15.955-0.377-23.953-0.41C205.801,274.468,205.639,272.307,205.433,270.145z     M83.394,285.563c0.939-3.032,10.227-2.101,12.711-2.29c6.712-0.511,13.747,0.133,20.512,0.086    c8.62-0.06,17.248-0.199,25.867-0.06c3.227,0.052,6.404,0.367,9.628,0.396c3.794,0.035,7.507-0.434,11.301-0.425    c15.123,0.036,30.169-0.514,45.26-0.528c7.999-0.007,15.933,0.172,23.917,0.464c6.691,0.244,13.297,0.713,19.891-0.551    c1.689-0.042,3.351-0.053,4.954,0.028c1.098,0.055,2.243,0.139,3.413,0.226c6.153,0.968,12.321,0.525,18.564,0.297    c7.983-0.292,15.918-0.471,23.917-0.464c15.092,0.013,30.137,0.563,45.26,0.528c3.793-0.009,7.506,0.46,11.301,0.425    c3.224-0.029,6.402-0.343,9.628-0.396c8.62-0.139,17.248,0,25.867,0.06c6.765,0.047,13.799-0.597,20.512-0.086    c2.483,0.189,11.772-0.742,12.711,2.29c1.472,4.754-12.68,4.452-15.218,4.605c-6.973,0.42-13.966,0.334-20.945,0.185    c-13.523-0.291-27.207-0.891-40.705,0.04c-7.343,0.506-14.675-0.205-22.022,0.311c-6.957,0.489-13.937,0.329-20.907,0.331    c-6.478,0.002-12.853,0.376-19.301,0.574c-4.947,0.152-9.94,0.022-14.898,0.208c-3.325-0.976-6.876-0.755-10.386-0.675    c-4.931,0.111-9.938-0.183-14.858,0.079c-3.903,0.208-8.413-0.019-12.591,0.574c-4.756-0.153-9.542-0.04-14.283-0.185    c-6.446-0.198-12.822-0.571-19.301-0.573c-6.971-0.002-13.95,0.156-20.907-0.331c-7.347-0.515-14.679,0.196-22.022-0.311    c-13.499-0.931-27.181-0.331-40.705-0.04c-6.981,0.15-13.973,0.236-20.947-0.184C96.076,290.015,81.922,290.317,83.394,285.563z     M407.017,300.142c0.893-2.274-2.799-3.741-3.893-1.641c-0.696,1.335-0.373,2.538,0.007,3.907c0.22,0.794,0.267,1.583,0.402,2.358    c-2.334-0.06-4.664-0.15-6.993-0.237c-0.001-0.373-0.041-0.757-0.133-1.204c-0.192-0.939,0.051-1.946,0.054-2.91    c0.007-2.897-4.271-2.834-4.456,0c-0.075,1.14-0.049,2.386,0.292,3.486c0.051,0.168,0.122,0.329,0.195,0.49    c-1.744-0.064-3.486-0.133-5.232-0.179c-0.121-0.003-0.239-0.002-0.359-0.004c0.198-0.641,0.299-1.318,0.349-1.883    c0.142-1.61-0.107-3.093-1.145-4.371c-0.797-0.982-2.476-0.819-3.296,0c-0.881,0.881-0.792,2.066-0.187,3.02    c-0.001,0.025,0,0.07,0.002,0.15c0,0,0.087,0.457,0.095,0.455c0.07,0.534,0.089,1.109,0.15,1.599    c0.037,0.295,0.079,0.661,0.151,1.034c-11.721,0.253-23.273,2.567-34.995,2.569c-1.764,0-3.538,0.07-5.316,0.163    c0.055-0.69,0.06-1.394,0.164-2.095c0.233-1.571,0.524-3.428-0.108-4.944c-0.485-1.162-1.648-2.176-3.014-1.712l-0.24,0.082    c-2.392,0.814-1.524,8.943-0.741,8.896c-2.182,0.131-4.362,0.241-6.533,0.275c0.111-0.894,0.278-1.745,0.347-2.617    c0.152-1.943,0.002-3.779-1.306-5.316c-0.534-0.627-1.685-0.938-2.46-0.65c-0.049,0.018-0.097,0.037-0.146,0.055    c-1.018,0.378-1.624,1.127-1.699,2.233c-0.049,0.711,0.228,1.068,0.512,1.542c0.022,0.11,0.141,0.461,0.144,0.6    c0.02,0.646,0.016,1.32,0.032,1.978c0.017,0.667,0.001,1.415,0.108,2.105c-1.631-0.092-3.265-0.203-4.899-0.323    c0.159-0.557,0.277-1.178,0.34-1.802c0.176-1.747-0.009-3.302-1.121-4.708c-0.58-0.732-1.678-0.834-2.514-0.664    c-0.177,0.036-1.272,0.49-0.236,0.091c-0.948,0.366-1.743,1.259-1.652,2.302c-0.012,0.26,0.011,0.521,0.084,0.786    c0.049,0.164,0.135,0.311,0.209,0.463c-0.008-0.011,0.015,0.047,0.07,0.184c0.193,0.629,0.325,1.263,0.428,1.913    c0.037,0.236,0.104,0.673,0.192,1.125c-3.539-0.26-7.079-0.497-10.607-0.563c-5.127-0.096-10.273,0.198-15.409,0.224    c0.2-0.895,0.487-1.8,0.55-2.704c0.097-1.443-0.018-3.149-0.91-4.35c-1.169-1.575-4.356-1.847-4.757,0.622    c-0.201,1.239-0.154,2.167,0.419,3.296c0.055,0.108,0.139,0.196,0.214,0.288c0.031,0.636,0.074,1.263,0.163,1.897    c0.044,0.305,0.102,0.602,0.177,0.891c-0.366-0.011-0.731-0.017-1.098-0.034c-1.316-0.059-2.634-0.195-3.952-0.349    c0.091-0.227,0.179-0.456,0.244-0.677c0.269-0.928,0.107-1.889,0.015-2.825c-0.118-1.203-0.17-2.078-1.079-2.981    c-0.777-0.771-2.399-0.946-3.149,0c-0.832,1.05-1.081,1.85-0.779,3.201c0.18,0.804,0.446,1.607,0.71,2.386    c0.046,0.137,0.082,0.268,0.117,0.4c-0.846-0.112-1.692-0.219-2.537-0.315c0.023-0.141,0.04-0.258,0.048-0.309    c0.225-1.478-0.198-2.912-0.38-4.267c-0.167-1.233-1.63-1.901-2.713-1.772c-1.276,0.152-2.052,1.206-2.144,2.429    c-0.107,1.421,0.575,2.42,0.89,3.698c-0.969-0.016-3.099-0.259-4.581,0.184c-3.441-0.274-6.969-0.173-10.26-0.16    c-4.598,0.019-9.252,0.035-13.899,0.187c-1.484-0.477-3.672-0.227-4.659-0.211c0.315-1.278,0.997-2.277,0.89-3.698    c-0.093-1.223-0.869-2.277-2.144-2.429c-1.083-0.129-2.548,0.539-2.713,1.772c-0.182,1.355-0.604,2.791-0.38,4.267    c0.008,0.05,0.025,0.168,0.048,0.309c-0.845,0.096-1.69,0.203-2.537,0.315c0.037-0.132,0.072-0.263,0.117-0.4    c0.264-0.779,0.53-1.582,0.71-2.386c0.302-1.351,0.053-2.152-0.779-3.201c-0.75-0.946-2.372-0.771-3.149,0    c-0.909,0.902-0.96,1.778-1.079,2.981c-0.093,0.936-0.254,1.898,0.015,2.825c0.064,0.221,0.153,0.451,0.244,0.677    c-1.318,0.154-2.636,0.288-3.952,0.349c-0.366,0.017-0.732,0.022-1.098,0.034c0.074-0.29,0.133-0.586,0.177-0.891    c0.089-0.634,0.133-1.261,0.163-1.897c0.075-0.093,0.159-0.18,0.214-0.288c0.573-1.129,0.622-2.057,0.42-3.296    c-0.401-2.469-3.588-2.197-4.757-0.622c-0.891,1.201-1.007,2.907-0.91,4.35c0.062,0.904,0.35,1.809,0.55,2.704    c-5.136-0.026-10.282-0.319-15.409-0.224c-3.529,0.066-7.069,0.303-10.607,0.563c0.088-0.452,0.155-0.889,0.192-1.125    c0.103-0.651,0.235-1.285,0.428-1.913c0.055-0.136,0.077-0.196,0.07-0.184c0.075-0.152,0.16-0.299,0.209-0.463    c0.073-0.265,0.096-0.525,0.084-0.786c0.092-1.043-0.704-1.936-1.652-2.302c1.036,0.399-0.059-0.055-0.236-0.091    c-0.836-0.17-1.933-0.068-2.514,0.664c-1.112,1.405-1.297,2.96-1.121,4.708c0.063,0.624,0.181,1.245,0.34,1.802    c-1.635,0.12-3.268,0.231-4.899,0.323c0.107-0.69,0.092-1.438,0.108-2.105c0.017-0.657,0.012-1.332,0.032-1.978    c0.005-0.14,0.122-0.491,0.144-0.6c0.284-0.474,0.561-0.831,0.512-1.542c-0.075-1.105-0.681-1.854-1.699-2.233    c-0.048-0.018-0.097-0.037-0.146-0.055c-0.776-0.288-1.925,0.022-2.46,0.65c-1.309,1.537-1.459,3.373-1.307,5.316    c0.068,0.871,0.236,1.723,0.347,2.617c-2.17-0.034-4.351-0.144-6.533-0.275c0.783,0.047,1.651-8.082-0.741-8.896l-0.24-0.082    c-1.367-0.464-2.529,0.55-3.014,1.712c-0.633,1.516-0.341,3.374-0.108,4.944c0.103,0.7,0.11,1.405,0.164,2.095    c-1.778-0.093-3.553-0.163-5.316-0.163c-11.723-0.002-23.274-2.316-34.995-2.569c0.072-0.373,0.114-0.739,0.151-1.034    c0.061-0.49,0.08-1.063,0.15-1.599c0.008,0.001,0.095-0.458,0.095-0.458c0.001-0.076,0.003-0.122,0.002-0.146    c0.606-0.954,0.695-2.139-0.186-3.02c-0.819-0.819-2.499-0.982-3.296,0c-1.038,1.278-1.287,2.761-1.145,4.371    c0.05,0.565,0.151,1.242,0.349,1.883c-0.12,0.002-0.239,0-0.36,0.004c-1.746,0.046-3.488,0.115-5.231,0.179    c0.072-0.16,0.142-0.322,0.195-0.49c0.341-1.1,0.367-2.346,0.292-3.486c-0.186-2.834-4.464-2.897-4.456,0    c0.002,0.964,0.247,1.971,0.054,2.91c-0.092,0.446-0.132,0.831-0.133,1.204c-2.329,0.088-4.658,0.178-6.993,0.237    c0.135-0.775,0.182-1.564,0.402-2.358c0.38-1.371,0.703-2.572,0.007-3.907c-1.094-2.1-4.786-0.633-3.894,1.641    c0.283,0.72-0.17,1.702-0.135,2.473c0.031,0.731,0.112,1.487,0.276,2.216c-0.344,0.005-0.688,0.017-1.033,0.02    c-0.929,0.008-10.818,0.332-16.533,0.718c2.985-3.199,4.626-9.406,8.967-11.125c2.568-1.018,6.414-0.02,9.181,0.112    c3.951,0.188,7.904,0.344,11.858,0.445c13.903,0.356,27.948-0.274,41.815,0.777c7.022,0.533,14.026-0.23,21.045,0.217    c7.269,0.463,14.496,0.472,21.781,0.47c11.701-0.003,23.279,0.922,34.925,0.323c3.874,0.208,8.016-0.377,11.53-0.485    c5.185-0.16,10.38-0.064,15.562-0.342c1.484-0.079,2.974-0.081,4.451-0.126c0.347,0.328,0.819,0.565,1.435,0.62    c13.255,1.205,26.389,0.004,39.683,0.009c7.285,0.002,14.511-0.008,21.781-0.47c7.019-0.446,14.023,0.316,21.045-0.217    c13.866-1.051,27.912-0.423,41.815-0.777c3.954-0.101,7.907-0.257,11.858-0.445c2.767-0.132,6.613-1.13,9.181-0.112    c4.342,1.721,5.982,7.926,8.967,11.125c-5.715-0.386-15.604-0.709-16.533-0.718c-0.345-0.003-0.689-0.016-1.033-0.02    c0.165-0.729,0.244-1.484,0.276-2.216C407.187,301.843,406.735,300.862,407.017,300.142z M46.091,137.051    c8.17-1.46,17.502,2.206,24.105,6.876c1.477,1.045,2.694,2.259,3.753,3.58c-3.058-0.629-6.275-0.89-9.015-1.354    c-5.988-1.013-12.006-0.838-18.091-0.734c-6.874,0.116-15.407,1.086-22.357,3.958C30.342,142.445,37.015,138.673,46.091,137.051z     M21.502,153.155c8.035-2.704,17.044-4.519,25.34-4.541c9.8-0.026,20.879,0.123,30.25,3.797c0.985,1.842,1.879,3.746,2.848,5.604    c-3.55-0.988-7.461-1.319-10.603-1.592c-7.54-0.656-15.079-0.228-22.64-0.79c-6.708-0.5-14.148,0.056-20.677,1.671    c-2.758,0.683-6.366,1.259-9.573,2.352C18.23,157.562,19.849,155.346,21.502,153.155z M18.074,168.065    c-1.835-0.834-4.185-0.913-2.215-3.405c0.722-0.914,3.439-1.169,4.642-1.459c8.53-2.05,17.05-3.931,25.888-3.285    c8.347,0.61,16.556,0.607,24.864,1.585c3.308,0.389,12.906,1.201,12.61,5.821c-0.237,3.709-4.96,5.666-8.383,6.947    c-0.135-2.242-0.585-4.349-1.927-5.697c-2.387-2.399-8.007-1.738-11.074-1.779c-5.451-0.072-10.849-0.917-16.306-1.057    c-6.009-0.153-17.437-3.929-19.932,4.315c-0.192,0.635-0.326,1.291-0.428,1.956C23.253,170.585,20.831,169.319,18.074,168.065z     M70.95,195.031c-1.395-0.088-2.793-0.126-4.192-0.144c0.054-2.04,0.312-4.182,0.279-6.157c-0.045-2.703,0.123-5.452-0.31-8.132    c-0.601-3.717-3.406-8.339-7.692-7.152c-5.487,1.518-6.52,6.142-7.286,10.965c-0.264,1.664-0.865,4.87-0.605,7.517    c-0.001,0.531-0.016,1.054,0.009,1.604c0.028,0.645-0.044,1.295-0.082,1.938c-1.049,0.061-2.098,0.124-3.146,0.178    c-0.002-0.127-0.008-0.255-0.047-0.381c-1.461-4.655,1.495-23.347-6.677-23.206c-3.667,0.063-6.323,5.338-7.071,8.376    c-0.773,3.133-1.067,6.372-0.655,9.513c-0.141,0.887-0.255,1.778-0.338,2.678c-0.098,1.078-0.273,2.178-0.216,3.258    c-1.475,0.001-2.949,0.002-4.423,0.005c-0.085-0.108-0.183-0.206-0.301-0.28c1.192,0.751,1.325-6.05,1.391-7.283    c0.219-4.076,0.953-7.914,1.02-12.019c0.082-5.003-0.206-6.882,5.66-6.698c3.872,0.122,7.897,0.547,11.775,0.783    c3.878,0.237,7.722,0.897,11.601,1.086c2.177,0.106,4.177,0.022,6.367,0.22c2.751,0.248,3.992-0.582,4.566,2.968    C71.651,181.316,70.497,188.295,70.95,195.031z M63.07,192.955c-0.073,0.684-0.221,1.318-0.347,1.951    c-2.773,0.064-5.549,0.21-8.325,0.372c0.006-0.037,0.028-0.061,0.028-0.101c0.049-3.173,0.709-21.466,7.141-17.23    c2.457,1.619,1.641,6.767,1.594,9.256C63.125,189.094,63.27,191.075,63.07,192.955z M37.188,183.82    c0.328-2.423,0.793-5.273,2.678-7.068c2.214-2.107,2.727,0.444,3.147,2.507c0.775,3.806,1.146,8.144,0.955,12.025    c-0.082,1.666-0.284,3.222,0.394,4.517c-1.354,0.045-2.706,0.076-4.054,0.078c-1.301,0.002-2.603,0.003-3.904,0.004    c0.229-0.153,0.391-0.397,0.369-0.704C36.513,191.577,36.712,187.347,37.188,183.82z M15.644,208.347    c-0.637-0.998-2.205-3.698-3.066-5.796c3.401-0.669,6.848-1.581,10.241-1.829c4.291-0.314,8.728-0.003,13.024,0.003    c7.943,0.013,15.805-0.503,23.754-0.377c8.797,0.14,17.331,0.512,26.037,1.856c1.115,0.172,4.57,0.154,4.808,0.777    c0.371,0.97-3.062,3.621-3.724,4.41c-1.38,1.645-2.576,3.698-3.609,5.748c-2.887-3.03-9.544-2.496-13.227-2.969    c-6.757-0.866-13.985-1.396-20.788-0.715c-6.675,0.667-13.255,0.476-19.929,0.803c-3.731,0.182-7.326,1.271-9.573,3.867    C18.456,211.888,17.084,210.604,15.644,208.347z M79.201,241.553c-0.143,4.902-0.868,9.761-1.24,14.647    c-0.335,4.404-0.562,8.816-0.67,13.231c-4.208-0.72-8.376-2.731-12.486-3.744c-0.558-0.138-1.12-0.244-1.685-0.345    c0.089-4.936,0.218-9.918-0.176-14.778c-0.965-11.941-0.563-23.904-0.963-35.886c1.873,0.07,3.756,0.193,5.665,0.387    c2.307,0.233,8.492,0.171,10.517,1.279c3.277,1.791,1.504,9.095,1.185,12.239C78.911,232.916,79.327,237.207,79.201,241.553z     M63.064,270.58c0-0.444,0.005-0.89,0.008-1.335c1.064,0.214,2.129,0.471,3.194,0.825c3.332,1.107,7.327,2.902,10.954,3.281    c-0.034,2.558-0.159,5.196,0.081,7.736c0.129,1.368,1.149,4.592,0.418,5.837c-0.856,1.459-3.705,0.689-5.314,0.675    c-3.127-0.027-6.242-0.275-9.357-0.54C63.885,281.765,63.073,275.736,63.064,270.58z M58.751,249.472    c0.503,5.04,0.254,10.242,0.104,15.38c-3.65-0.21-7.351,0.002-10.979,0.006c-4.748,0.004-9.904-0.494-14.741,0.123    c-0.341-6.368-0.544-12.729-0.003-19.052c0.528-6.169,0.419-12.364,0.799-18.55c0.221-3.619,1.24-8.007,1.05-11.923    c3.516-0.034,6.973-0.332,10.492-0.493c4.857-0.221,9.568-0.428,14.329-0.343C59.128,226.165,57.605,237.991,58.751,249.472z     M58.724,286.703c-0.342-0.026-0.683-0.058-1.025-0.083c-7.666-0.553-15.904-0.888-23.741-0.485    c0.085-5.788-0.271-11.6-0.61-17.411c5.487-0.69,11.275-0.233,16.71-0.228c2.976,0.002,5.865-0.045,8.723,0.169    c-0.002,0.285-0.009,0.574-0.01,0.859C58.761,274.858,57.908,281.183,58.724,286.703z M30.288,247.605    c-0.378,5.95-0.362,11.943-0.237,17.94c-0.06,0.016-0.124,0.022-0.184,0.039c-3.05,0.804-5.655,2.087-8.229,3.659    c0.074-1.889,0.16-3.768,0.295-5.619c0.59-8.141-0.13-16.018-0.054-24.128c0.042-4.527-0.47-9.293-0.044-13.788    c0.283-2.995,0.333-7.459,3.123-8.999c2.363-1.305,5.237-1.287,7.92-1.251c-0.417,4.481-1.41,12.269-1.468,12.975    C30.888,234.819,30.695,241.214,30.288,247.605z M30.509,286.367c-0.383,0.031-0.774,0.052-1.155,0.089    c-3.01,0.283-5.992,0.25-8.966,0.198c0.767-4.679,0.965-9.544,1.138-14.377c2.504-0.563,4.737-1.959,7.232-2.662    c0.454-0.127,0.92-0.215,1.381-0.32C30.29,274.999,30.49,280.701,30.509,286.367z M22.741,395.68    c-2.354-0.115-4.763-0.494-6.91-1.527c-2.474-1.19-1.173,0.418-1.376-2.237c-0.669-8.748-0.184-17.852,0.377-26.657    c4.495,1.046,9.559,0.37,14.054,0.249c0.177-0.004,0.352-0.003,0.529-0.008c-0.022,3.657,0.07,7.318,0.398,10.813    c0.593,6.303-0.645,13.298,0.385,19.611C27.704,395.862,25.208,395.799,22.741,395.68z M29.672,355.746    c-0.076,1.897-0.145,3.845-0.195,5.81c-0.316,0.006-0.635,0.001-0.95,0.01c-3.727-0.385-7.44-0.406-11.128,0.096    c-0.793,0.034-1.581,0.085-2.362,0.158c0.654-11.096,0.106-22.34-0.083-33.462c-0.108-6.422,0.833-13.616,0.003-20.174    c2.735-0.108,5.324-0.031,8.127,0.316c2.561,0.319,5.062,0.239,7.573,0.164C30.009,324.355,30.301,340.061,29.672,355.746z     M60.636,376.44c-0.296,3.549,0.105,7.099-0.211,10.654c-0.252,2.822-0.697,5.626-0.324,8.427    c-8.129,0.482-16.485,0.849-24.467,0.556c-0.456-0.017-0.917-0.028-1.374-0.042c1.046-5.897,0.485-13.151-0.141-18.77    c-0.423-3.793-0.603-7.748-0.652-11.696c0.779-0.034,1.56-0.085,2.339-0.124c1.167,0.006,2.333,0.013,3.499,0.038    c2.744,0.264,5.089,0.651,7.933,0.636c1.81-0.009,3.676-0.086,5.535-0.111c0.985,0.02,1.971,0.035,2.957,0.041    c0.604,0.025,1.21,0.044,1.802,0.101c1.242,0.117,2.342,0.143,3.415,0.13C60.95,369.67,60.919,373.06,60.636,376.44z     M61.194,353.138c-0.227,3.1-0.257,6.206-0.254,9.312c-0.738,0.02-1.488,0.03-2.234,0.045c-4.298-0.113-8.594-0.208-12.885-0.442    c-4.071-0.221-8.232-0.451-12.36-0.511c0.016-1.955,0.053-3.896,0.107-5.798c0.451-15.695-0.123-31.456-0.803-47.133    c1.036-0.017,2.078-0.015,3.13,0.037c5.018,0.244,9.923,0.512,14.964,0.492c4.372-0.017,8.703,0.085,13.055,0.257    c-0.417,6.334-1.365,12.68-1.647,19.052C61.903,336.677,61.794,344.935,61.194,353.138z M75.362,377.298    c-0.155,4.83-0.964,9.599-1.726,14.368c-0.13,0.788-0.245,1.579-0.348,2.371c0.452,1.254,0.074,1.655-1.134,1.201    c-1.763,0.669-5-0.152-6.927-0.03c-0.328,0.021-0.66,0.041-0.988,0.061c-0.039-0.333-0.178-0.635-0.383-0.883    c-0.087-2.753,0.434-5.478,0.633-8.233c0.267-3.701,0.012-7.367,0.347-11.069c0.268-2.959,0.301-5.935,0.274-8.914    c1.003,0.036,2.005,0.079,3.006,0.148c1.745,0.117,4.916,0.958,7.412,0.758C75.517,370.485,75.472,373.893,75.362,377.298z     M73.998,363.007c-1.49-0.14-2.985-0.202-4.489-0.235c-1.506-0.151-3.006-0.324-4.45-0.38c-0.057-3.425-0.102-6.852,0.126-10.263    c0.524-7.849,0.455-15.804,0.587-23.678c0.104-6.275,0.676-12.681,0.484-18.969c0.094,0.004,0.186,0.006,0.279,0.01    c2.877,0.139,5.876,0.547,8.826,0.662c-0.845,17.54,0.079,35.166,0.167,52.749C75.026,362.964,74.514,362.993,73.998,363.007z     M75.15,304.536c-7.414-0.527-14.741-1.11-22.194-1.139c-7.724-0.028-15.397-0.568-23.095-0.481    c-4.002,0.046-7.866-0.784-11.856-0.795c-3.926-0.011-7.816,0.111-9.835-4.058c-0.571-1.179-1.121-3.611-2.068-4.477    c-0.007-0.032-0.013-0.053-0.02-0.084c0.273-0.069,0.543-0.151,0.818-0.212c3.55,0.007,7.2-1.115,10.785-1.178    c6.939-0.123,13.909-0.321,20.878-0.344c7.979-0.026,15.916-0.08,23.881,0.375c6.785,0.389,13.683,0.783,20.488,0.179    c2.665,0.233,5.331,0.613,7.998,0.985c-1.878,1.757-3.605,3.799-5.237,5.755C82.588,302.79,80.483,304.915,75.15,304.536z     M81.015,364.654c0.912,0.022,1.855-0.089,2.726-0.126c3.477-0.149,7.029-0.413,10.518-0.264c4.498,0.191,9.036-0.047,13.51,0.153    c1.281,0.057,2.515,0.497,3.633,0.247c-0.02,0.692-0.05,1.386-0.061,2.076c-0.093,5.407-0.139,11.322,0.606,16.767    c-4.469,0.036-8.956-0.258-13.395,0.164c-4.226,0.402-8.393,0.247-12.629,0.5c-1.878,0.112-3.693,0.558-5.524,0.822    c0.325-2.562,0.534-5.154,0.569-7.694C81.024,373.085,81.027,368.87,81.015,364.654z M218.698,395.086    c-7.861,0.677-16.136-0.105-24.039-0.099c-9.382,0.006-18.987,0.604-28.343-0.07c-7.58-0.546-15.045,0.092-22.677,0.111    c-15.565,0.038-30.946-0.322-46.49,0.143c-3.566,0.107-6.87,0.691-10.478,0.397c-2.506-0.205-4.986-0.391-7.484-0.29    c0.326-2.073,0.268-4.416,0.605-6.266c0.047-0.256,0.082-0.52,0.126-0.778c4.122,0.701,8.944-0.217,12.813-0.158    c3.155,0.049,6.224-0.494,9.359-0.485c3.601,0.01,7.167,0.834,10.785,0.957c2.416,0.083,4.844,0.025,7.275-0.101    c2.329,0.098,4.532-0.023,6.111-0.176c5.37-0.515,10.693-0.139,16.055-0.538c2.647-0.197,6.04-0.197,8.927-0.859    c1.809-0.016,3.619-0.023,5.428-0.021c16.915,0.015,33.83,0.218,50.746,0.228c7.052,0.003,14.24,0.28,21.249,0.938    c1.55,0.145,5.251-0.925,6.45-0.298c0.392,0.205,0.671,0.694,0.882,1.316c0.162,1.39,0.366,2.778,0.612,4.167    c0.013,0.25,0.026,0.5,0.037,0.733C230.71,393.769,224.38,394.595,218.698,395.086z M143.765,369.833    c-0.07-4.443-0.184-8.886-0.48-13.319c-0.151-2.266,0.136-6.349-1.86-8.095c-2.479-2.167-8.068-0.763-10.924-0.828    c-2.638-0.06-4.407-0.437-5.725,2.101c-1.778,3.422-1.4,8.442-1.67,12.065c-0.538,7.212-1.738,14.489-1.062,21.727    c-2.51,0.056-5.033,0.01-7.438-0.003c1.068-8.52-0.499-17.64-0.059-26.193c0.332-6.455,1.029-13.03,5.002-18.346    c2.418-3.235,7.873-9.703,12.151-9.687c2.569,0.009,7.089,2.968,8.962,4.338c4.879,3.567,7.392,8.943,8.407,14.775    c1.914,11.003,1.073,22.565,0.396,33.695c-1.548,0.035-3.097,0.084-4.647,0.169c-0.288,0.016-0.575,0.018-0.862,0.028    C143.503,378.233,143.827,373.746,143.765,369.833z M140.387,382.274c-3.425-0.064-6.831-0.218-10.346,0.471    c-1.812,0.354-3.722,0.551-5.667,0.656c0.605-5.503,0.506-11.146,1.07-16.655c0.306-3.003,0.447-5.932,0.637-8.939    c0.086-1.361,0.037-3.642,0.568-4.987c1.154-2.925,2.865-2.602,5.75-2.607c1.755-0.003,5.702-0.845,7.084,0.286    c1.213,0.994,0.862,4.1,0.938,5.36c0.193,3.238,0.144,6.497,0.193,9.733C140.696,370.994,139.979,376.8,140.387,382.274z     M192.705,375.776c1.011,0.765,3.175,0.042,4.275-0.065c2.261-0.22,4.537-0.215,6.805-0.217c2.453-0.002,6.103,0.856,8.386,0.112    c3.06-0.998,3.409-5.372,3.338-8.11c-0.027-1.049-0.061-2.05-0.093-3.04c3.574,0.679,7.571,0.333,11.151,0.446    c2.443,0.077,5.776,0.655,8.44,0.106c0.028,4.178,0.214,8.37,0.3,12.496c0.037,1.771,0.094,3.524,0.183,5.268    c-1.098-0.082-2.2,0.05-3.408,0.141c-3.302,0.244-6.788-0.463-10.159-0.483c-17.793-0.106-35.586-0.608-53.407-0.391    c-5.034,0.062-10.063-0.051-15.093-0.031c0.064-5.682,0.44-11.711,0.465-17.719c7.018,0.71,14.069,0.61,21.112,0.974    c5.423,0.279,11.37,0.888,16.818,0.049C191.622,368.361,190.834,374.359,192.705,375.776z M210.477,371.716    c-0.956,0.563-4.625-0.118-5.828-0.115c-3.264,0.008-6.466,0.002-9.665,0.457c-0.018-0.408-0.077-0.806-0.209-1.229    c0.338-9.805,0.228-19.74,1.961-29.388c0.424-2.36,0.766-4.844,1.371-7.164c0.893-3.43,5.565-9.345,9.655-6.394    c3.62,2.612,5.125,9.852,4.998,13.728c-0.276,8.477-1.348,16.797-1.251,25.241C211.521,368.084,211.563,371.074,210.477,371.716z     M270.097,394.477c-0.207,0.089-0.378,0.218-0.528,0.368c-0.487-0.034-0.968-0.065-1.423-0.099    c-4.772-0.368-9.57-0.333-14.35-0.282c-3.726,0.04-7.842-0.256-11.884-0.141c0.118-2.433-0.148-5.464-1.184-7.782    c4.684,0.739,9.909-0.096,14.404-0.164c5.104-0.078,10.784,0.814,16.086,0.311C270.21,389.036,269.963,392.07,270.097,394.477z     M251.139,382.691c-1.7,0.066-7.302-0.581-11.117,0.058c-0.003-0.639-0.002-1.281,0.021-1.93    c0.252-6.965,0.099-13.937,0.288-20.903c0.173-6.356,0.444-13.146,2.084-19.304c1.395-5.239,5.524-6.605,8.408-9.943    c2.404-0.776,4.851-1.168,7.654-0.493c1.254,0.302,2.423,0.831,3.566,1.411c2.79,2.721,6.283,4.292,7.543,9.025    c1.64,6.158,1.911,12.948,2.083,19.304c0.19,6.966,0.038,13.938,0.29,20.903c0.026,0.713,0.029,1.418,0.023,2.119    C265.044,382.753,258.079,382.423,251.139,382.691z M269.185,331.35c-0.145-0.115-0.317-0.226-0.483-0.336    c-0.95-1.249-2.394-2.18-3.711-2.983c-1.077-0.657-2.46-1.262-3.613-1.746c-0.474-0.198-0.991-0.364-1.517-0.461    c-0.647-0.208-1.261-0.378-1.799-0.496c-4.475-0.986-10.045,0.407-13.004,4.002c-0.659,0.496-1.271,1.049-1.755,1.685    c-0.165,0.112-0.338,0.221-0.483,0.336c-1.77,1.4-3.034,2.971-4.006,5.007c-2.935,6.153-2.985,13.136-3.529,19.776    c-0.164,2.001-0.239,4.019-0.268,6.045c-2.65-0.533-6.043-0.017-8.45-0.092c-3.649-0.114-7.574-0.695-11.21-0.028    c-0.025-1.6-0.01-3.204,0.11-4.926c0.219-3.142,0.614-6.33,0.588-9.481c-0.049-6.017-0.04-11.401-2.958-16.808    c-1.649-3.054-3.566-6.881-7.419-6.916c-4.361-0.039-8.64,3.716-10.279,7.543c-2.51,5.857-2.927,13.355-3.263,19.646    c-0.21,3.929-0.284,7.863-0.269,11.797c-5.753-0.824-11.865-0.349-17.646-0.525c-6.725-0.205-13.62-0.798-20.335-0.169    c-0.074-6.618-0.675-13.16-2.711-19.126c-1.774-5.198-4.644-9.27-9.218-12.388c-2.328-1.586-7.455-4.623-10.443-4.483    c-3.445,0.162-8.847,5.421-11.123,7.74c-4.103,4.18-6.643,9.094-7.598,14.874c-0.724,4.381-1.117,8.87-1.314,13.335    c-6.038-0.647-12.215-0.228-18.353-0.268c-3.893-0.026-8.139,0.096-12.115,0.645c-0.023-5.782-0.07-11.564-0.068-17.341    c0.006-11.763,0.497-23.653-0.069-35.406c1.435-0.349,2.702-0.969,3.858-1.76c5.515,1.259,11.659,0.617,17.202,0.665    c7.289,0.063,14.45-0.081,21.707-0.415c3.755-0.173,7.425,0.61,11.176,0.585c3.552-0.025,6.877,0.041,10.405,0.485    c6.678,0.842,13.092,1.605,19.831,1.605c7.012-0.001,14.05,0.985,21.043,0.402c6.565-0.547,13.387-0.925,19.96-1.003    c7.148-0.085,14.462,0.67,21.583-0.042c2.51-0.25,5.002-0.681,7.506-1.004c8.588,0.604,17.167,0.199,25.793,0.284    c3.267,0.031,6.525-0.26,9.804-0.353c0.208-0.006,0.407-0.006,0.601-0.006c0.159,0.001,0.316,0.001,0.474,0    c0.149,0.001,0.295-0.001,0.435-0.003c1.514-0.027,2.939-0.128,3.696-0.04c2.812,0.328,5.601,0.842,8.415,1.122    c7.12,0.711,14.434-0.042,21.583,0.042c6.574,0.078,13.396,0.455,19.959,1.003c6.993,0.582,14.031-0.404,21.044-0.402    c6.74,0.001,13.153-0.764,19.831-1.605c3.528-0.444,6.853-0.51,10.405-0.485c3.752,0.026,7.421-0.758,11.176-0.585    c7.258,0.334,14.419,0.477,21.708,0.415c5.543-0.048,11.687,0.595,17.202-0.665c1.156,0.792,2.423,1.412,3.858,1.76    c-0.568,11.753-0.075,23.643-0.07,35.407c0.002,5.777-0.045,11.559-0.068,17.341c-3.976-0.549-8.222-0.671-12.114-0.645    c-6.138,0.04-12.315-0.378-18.353,0.268c-0.196-4.465-0.589-8.953-1.314-13.335c-0.956-5.781-3.495-10.693-7.598-14.874    c-2.276-2.319-7.678-7.578-11.123-7.74c-2.987-0.14-8.115,2.897-10.443,4.483c-4.574,3.118-7.444,7.19-9.218,12.388    c-2.037,5.967-2.638,12.508-2.712,19.126c-6.715-0.629-13.61-0.036-20.335,0.169c-5.781,0.177-11.893-0.299-17.646,0.525    c0.015-3.934-0.059-7.868-0.269-11.797c-0.337-6.291-0.754-13.79-3.263-19.646c-1.639-3.826-5.917-7.581-10.279-7.543    c-3.853,0.034-5.771,3.86-7.419,6.916c-2.918,5.407-2.909,10.79-2.958,16.808c-0.026,3.152,0.369,6.339,0.588,9.48    c0.12,1.722,0.134,3.327,0.11,4.926c-3.636-0.667-7.561-0.085-11.21,0.028c-2.407,0.075-5.8-0.443-8.45,0.092    c-0.029-2.026-0.104-4.045-0.268-6.045c-0.544-6.64-0.595-13.623-3.529-19.776C272.218,334.32,270.954,332.75,269.185,331.35z     M400.665,366.739c-0.012-0.69-0.042-1.384-0.062-2.076c1.118,0.25,2.352-0.191,3.633-0.247c4.474-0.2,9.013,0.039,13.51-0.153    c3.489-0.149,7.041,0.115,10.518,0.264c0.87,0.037,1.812,0.149,2.726,0.126c-0.011,4.216-0.01,8.432,0.048,12.644    c0.035,2.54,0.244,5.132,0.569,7.694c-1.832-0.264-3.647-0.71-5.524-0.822c-4.236-0.253-8.403-0.096-12.629-0.5    c-4.438-0.423-8.925-0.129-13.393-0.164C400.804,378.06,400.758,372.145,400.665,366.739z M397.399,383.482    c-2.405,0.012-4.929,0.059-7.438,0.003c0.676-7.239-0.525-14.515-1.062-21.727c-0.269-3.622,0.107-8.642-1.67-12.065    c-1.318-2.538-3.087-2.161-5.725-2.101c-2.855,0.066-8.446-1.338-10.924,0.828c-1.997,1.746-1.709,5.828-1.86,8.095    c-0.295,4.433-0.409,8.876-0.48,13.319c-0.061,3.913,0.263,8.399-0.19,12.426c-0.287-0.01-0.573-0.012-0.862-0.028    c-1.549-0.085-3.099-0.134-4.647-0.169c-0.679-11.131-1.518-22.692,0.396-33.695c1.015-5.834,3.528-11.208,8.407-14.775    c1.873-1.37,6.393-4.328,8.962-4.338c4.28-0.016,9.733,6.452,12.152,9.687c3.973,5.316,4.671,11.891,5.002,18.346    C397.897,365.843,396.331,374.961,397.399,383.482z M371.391,365.592c0.049-3.237,0.001-6.495,0.193-9.733    c0.075-1.261-0.275-4.366,0.938-5.36c1.383-1.133,5.328-0.291,7.084-0.286c2.884,0.006,4.596-0.318,5.749,2.607    c0.531,1.346,0.482,3.627,0.568,4.987c0.191,3.009,0.331,5.938,0.637,8.939c0.562,5.508,0.464,11.152,1.069,16.655    c-1.945-0.105-3.855-0.302-5.667-0.656c-3.516-0.689-6.921-0.534-10.346-0.471C372.025,376.8,371.308,370.994,371.391,365.592z     M299.832,375.607c2.284,0.745,5.933-0.114,8.387-0.112c2.268,0.002,4.545-0.003,6.805,0.217c1.099,0.107,3.265,0.831,4.275,0.065    c1.872-1.418,1.083-7.416,0.887-10.463c5.449,0.839,11.394,0.23,16.818-0.049c7.043-0.363,14.094-0.264,21.112-0.974    c0.025,6.008,0.401,12.037,0.465,17.719c-5.031-0.02-10.058,0.092-15.093,0.031c-17.82-0.218-35.614,0.285-53.407,0.391    c-3.371,0.02-6.857,0.727-10.159,0.483c-1.206-0.089-2.309-0.223-3.408-0.141c0.088-1.744,0.145-3.497,0.182-5.268    c0.086-4.125,0.272-8.318,0.3-12.496c2.664,0.549,5.997-0.029,8.44-0.106c3.58-0.113,7.577,0.233,11.151-0.446    c-0.031,0.989-0.066,1.992-0.093,3.04C296.424,370.236,296.772,374.609,299.832,375.607z M299.245,341.611    c-0.126-3.876,1.378-11.116,4.999-13.728c4.09-2.951,8.762,2.964,9.655,6.394c0.604,2.32,0.946,4.804,1.371,7.164    c1.733,9.648,1.623,19.584,1.961,29.388c-0.132,0.423-0.191,0.819-0.209,1.229c-3.199-0.455-6.4-0.449-9.665-0.457    c-1.203-0.002-4.872,0.679-5.828,0.115c-1.087-0.642-1.045-3.632-1.031-4.864C300.595,358.407,299.522,350.087,299.245,341.611z     M425.333,395.566c-3.608,0.294-6.911-0.29-10.478-0.397c-15.544-0.465-30.926-0.105-46.489-0.143    c-7.632-0.019-15.097-0.656-22.677-0.111c-9.356,0.673-18.962,0.076-28.343,0.07c-7.903-0.006-16.178,0.777-24.039,0.099    c-5.682-0.49-12.01-1.317-17.949-1.148c0.011-0.234,0.023-0.483,0.037-0.733c0.246-1.389,0.449-2.777,0.612-4.167    c0.212-0.622,0.49-1.111,0.882-1.316c1.198-0.626,4.9,0.444,6.45,0.298c7.01-0.658,14.197-0.935,21.249-0.938    c16.916-0.009,33.831-0.214,50.746-0.228c1.809-0.001,3.619,0.006,5.428,0.021c2.885,0.661,6.279,0.661,8.927,0.859    c5.362,0.399,10.686,0.022,16.055,0.538c1.579,0.152,3.782,0.274,6.111,0.176c2.431,0.125,4.859,0.183,7.275,0.101    c3.617-0.123,7.184-0.947,10.785-0.957c3.136-0.009,6.205,0.534,9.359,0.485c3.87-0.06,8.692,0.859,12.814,0.158    c0.044,0.258,0.079,0.521,0.125,0.778c0.337,1.85,0.278,4.194,0.605,6.266C430.319,395.174,427.839,395.361,425.333,395.566z     M448.146,394.386c-0.205,0.248-0.343,0.55-0.382,0.883c-0.329-0.02-0.661-0.041-0.988-0.061c-1.926-0.122-5.164,0.699-6.927,0.03    c-1.207,0.453-1.585,0.053-1.134-1.201c-0.102-0.793-0.218-1.583-0.348-2.371c-0.763-4.769-1.571-9.539-1.726-14.368    c-0.11-3.404-0.154-6.813-0.167-10.222c2.496,0.2,5.666-0.641,7.412-0.758c1.002-0.068,2.003-0.112,3.006-0.148    c-0.027,2.978,0.006,5.954,0.274,8.914c0.334,3.702,0.081,7.369,0.347,11.069C447.712,388.907,448.233,391.634,448.146,394.386z     M436.642,310.154c2.95-0.115,5.949-0.523,8.826-0.662c0.093-0.004,0.186-0.006,0.278-0.01c-0.192,6.288,0.38,12.694,0.485,18.969    c0.132,7.874,0.063,15.828,0.587,23.678c0.228,3.411,0.183,6.838,0.126,10.263c-1.444,0.055-2.945,0.229-4.45,0.38    c-1.504,0.034-3,0.095-4.489,0.235c-0.516-0.015-1.029-0.042-1.532-0.104C436.563,345.32,437.487,327.694,436.642,310.154z     M477.887,377.266c-0.626,5.618-1.187,12.872-0.141,18.77c-0.458,0.015-0.918,0.026-1.374,0.042    c-7.984,0.294-16.338-0.074-24.467-0.556c0.371-2.802-0.073-5.606-0.324-8.427c-0.316-3.555,0.085-7.106-0.212-10.654    c-0.283-3.38-0.314-6.769-0.31-10.16c1.072,0.013,2.172-0.011,3.415-0.13c0.593-0.056,1.197-0.076,1.801-0.101    c0.986-0.007,1.972-0.021,2.957-0.041c1.86,0.025,3.725,0.101,5.535,0.111c2.844,0.015,5.19-0.372,7.933-0.636    c1.166-0.025,2.332-0.032,3.499-0.038c0.778,0.039,1.56,0.091,2.339,0.124C478.489,369.518,478.309,373.472,477.887,377.266z     M478.437,355.746c0.055,1.902,0.092,3.843,0.107,5.798c-4.129,0.06-8.29,0.29-12.36,0.511c-4.292,0.233-8.587,0.329-12.885,0.442    c-0.746-0.015-1.496-0.026-2.234-0.045c0.002-3.106-0.028-6.211-0.254-9.312c-0.6-8.204-0.71-16.461-1.073-24.687    c-0.282-6.371-1.23-12.717-1.647-19.052c4.351-0.173,8.682-0.274,13.055-0.257c5.041,0.019,9.947-0.249,14.964-0.492    c1.051-0.05,2.094-0.054,3.13-0.037C478.56,324.29,477.986,340.05,478.437,355.746z M497.049,328.357    c-0.189,11.123-0.737,22.366-0.083,33.462c-0.781-0.073-1.569-0.124-2.362-0.158c-3.687-0.502-7.401-0.481-11.128-0.096    c-0.315-0.009-0.634-0.005-0.95-0.01c-0.049-1.964-0.118-3.913-0.195-5.81c-0.629-15.684-0.337-31.391-0.986-47.082    c2.511,0.074,5.012,0.153,7.573-0.164c2.802-0.349,5.392-0.425,8.127-0.316C496.216,314.741,497.158,321.935,497.049,328.357z     M496.175,394.153c-2.148,1.033-4.557,1.412-6.911,1.527c-2.467,0.121-4.964,0.182-7.456,0.244    c1.03-6.312-0.208-13.307,0.385-19.611c0.329-3.495,0.42-7.156,0.399-10.813c0.176,0.004,0.352,0.003,0.529,0.008    c4.494,0.121,9.559,0.798,14.054-0.249c0.562,8.805,1.046,17.909,0.377,26.657C497.347,394.571,498.649,392.963,496.175,394.153z     M505.901,293.587c-0.947,0.866-1.497,3.298-2.068,4.478c-2.019,4.169-5.909,4.047-9.835,4.058    c-3.99,0.011-7.854,0.84-11.856,0.795c-7.698-0.088-15.371,0.452-23.095,0.481c-7.454,0.028-14.78,0.612-22.194,1.139    c-5.333,0.379-7.437-1.747-10.544-5.474c-1.63-1.956-3.358-3.997-5.237-5.755c2.667-0.372,5.333-0.752,7.998-0.985    c6.806,0.604,13.704,0.21,20.489-0.179c7.966-0.456,15.902-0.401,23.881-0.375c6.968,0.023,13.939,0.221,20.877,0.344    c3.585,0.064,7.236,1.185,10.785,1.178c0.275,0.061,0.544,0.143,0.818,0.212C505.916,293.533,505.908,293.554,505.901,293.587z"/>
	</g>
</g>
<g>
</g>
<g>
</g>
<g>
</g>
<g>
</g>
<g>
</g>
<g>
</g>
<g>
</g>
<g>
</g>
<g>
</g>
<g>
</g>
<g>
</g>
<g>
</g>
<g>
</g>
<g>
</g>
<g>
</g>
</svg>
