<?xml version="1.0" encoding="iso-8859-1"?>
<!-- Generator: Adobe Illustrator 19.0.0, SVG Export Plug-In . SVG Version: 6.00 Build 0)  -->
<svg xmlns="http://www.w3.org/2000/svg" xmlns:xlink="http://www.w3.org/1999/xlink" version="1.1" id="Layer_1" x="0px" y="0px" viewBox="0 0 511.997 511.997" style="enable-background:new 0 0 511.997 511.997;" xml:space="preserve">
<g>
	<g>
		<path d="M511.48,265.075c-1.586-6.537-11.708-5.91-16.707-6.535c-4.909-0.613-9.795-0.644-14.724-0.641    c-5.101,0.002-10.119-0.635-15.227-0.609c-5.377,0.029-10.916,0.579-16.268,0.151c0.581-2.809-0.237-6.955-0.27-9.512    c-0.053-4.121-0.164-8.246-0.125-12.367c0.044-4.777-0.123-9.704,0.077-14.461c0.126-2.989,0.454-5.566,0.165-8.374    c2.665-0.494,5.241-1.2,7.665-2.178c6.358-2.567,12.782-5.76,18.976-8.683c7.161-3.379,18.958-6.853,15.576-16.871    c-2.148-6.36-7.731-11.65-12.56-15.978c-10.905-9.773-23.554-19.465-37.127-25.091c-13.452-5.576-27.188-7.931-41.619-9.544    c-7.452-0.832-15.083-2.043-22.593-2.009c-7.49,0.033-14.716,0.287-22.187-0.204c-3.593-0.236-7.324,0.496-10.935,0.58    c-3.896,0.091-7.786,0.293-11.672,0.604c-7.691,0.615-15.33,1.76-22.893,3.283c-7.033,1.418-14.08,2.836-20.972,4.845    c-3.444,1.004-6.851,2.149-10.168,3.521c-2.886,1.194-5.369,3.116-8.439,3.898c-2.366,0.603-4.759-0.187-7.142,0.317    c-1.729,0.366-3.866,1.075-5.446,1.984c-0.32,0.185-0.601,0.378-0.865,0.577c-0.264-0.199-0.546-0.393-0.865-0.577    c-1.579-0.91-3.717-1.618-5.446-1.984c-2.383-0.505-4.776,0.287-7.142-0.317c-3.07-0.781-5.552-2.705-8.438-3.898    c-3.317-1.372-6.723-2.518-10.168-3.521c-6.893-2.009-13.939-3.428-20.972-4.845c-7.562-1.524-15.202-2.668-22.893-3.283    c-3.885-0.311-7.775-0.513-11.672-0.604c-3.611-0.085-7.343-0.816-10.935-0.58c-7.471,0.49-14.697,0.237-22.187,0.204    c-7.511-0.033-15.141,1.176-22.593,2.009c-14.431,1.612-28.168,3.967-41.619,9.544c-13.573,5.627-26.222,15.319-37.127,25.091    c-4.829,4.328-10.412,9.617-12.56,15.978c-3.382,10.016,8.415,13.491,15.576,16.871c6.194,2.923,12.618,6.115,18.976,8.683    c2.424,0.978,5,1.683,7.665,2.178c-0.289,2.808,0.039,5.386,0.165,8.374c0.2,4.757,0.033,9.683,0.077,14.461    c0.039,4.121-0.072,8.246-0.125,12.367c-0.033,2.556-0.85,6.703-0.27,9.512c-5.352,0.428-10.891-0.121-16.268-0.151    c-5.108-0.027-10.127,0.611-15.227,0.609c-4.929-0.003-9.815,0.027-14.724,0.641c-4.999,0.625-15.121-0.002-16.707,6.535    c-0.988,4.074-0.298,10.065-0.066,14.251c0.165,2.993,0.062,7.328,2.389,9.528c2.518,2.38,6.471,1.585,9.591,1.616    c4.593,0.045,9.187,0.131,13.781,0.196c-1.498,7.187-0.536,15.317-0.012,22.446c0.665,9.052-0.969,17.966-0.563,27.02    c0.064,1.422,0.174,3.161,0.674,4.69c-0.68-0.001-1.36-0.004-2.045-0.02c-5.105-0.118-10.375-0.635-11.524,5.314    c-0.682,3.535-1.777,9.607,1.241,12.331c3.406,3.074,11.246,1.809,15.392,2.137c16.202,1.278,32.647,1.89,48.917,1.868    c16.318-0.023,32.699,1.73,49.02,1.791c9.39,0.035,18.744-0.634,28.091-0.679c4.711-0.023,9.306-0.047,14.007-0.365    c3.813-0.258,7.575,0.359,11.354-0.334c0.051-0.01,0.102-0.03,0.153-0.043c-0.116,2.862-0.589,6.443,1.275,8.705    c4.611,5.6,16.841,4.122,23.129,4.151c3.98,0.019,8.198,0.538,12.131-0.204c2.731-0.515,7.107-0.627,9.291-2.593    c0.12-0.107,0.218-0.241,0.328-0.361c2.577,0.473,5.503-0.036,8.093,0.176c5.985,0.492,12.141,0.67,18.144,0.755    c5.525,0.079,11.122,0.374,16.646,0.724c4.745,0.3,11.008,1.072,15.439-0.925c0.072-0.032,0.138-0.076,0.206-0.12    c2.271,1.71,6.343,1.855,8.944,2.345c3.933,0.74,8.153,0.221,12.131,0.204c6.288-0.029,18.518,1.449,23.129-4.151    c1.864-2.262,1.391-5.843,1.275-8.705c0.051,0.014,0.102,0.034,0.153,0.043c3.779,0.692,7.541,0.075,11.354,0.334    c4.701,0.319,9.296,0.343,14.007,0.365c9.348,0.045,18.701,0.715,28.091,0.68c16.321-0.061,32.703-1.814,49.02-1.791    c16.269,0.023,32.715-0.59,48.917-1.868c4.147-0.328,11.987,0.937,15.392-2.137c3.018-2.723,1.922-8.796,1.241-12.331    c-1.148-5.949-6.417-5.434-11.524-5.314c-0.685,0.016-1.366,0.019-2.045,0.02c0.5-1.529,0.611-3.268,0.674-4.69    c0.406-9.053-1.228-17.968-0.563-27.02c0.523-7.129,1.487-15.26-0.012-22.446c4.594-0.065,9.187-0.151,13.781-0.196    c3.121-0.031,7.074,0.765,9.591-1.616c2.327-2.201,2.224-6.536,2.389-9.528C511.778,275.14,512.469,269.15,511.48,265.075z     M456.73,203.602c-6.882,3.142-13.383,3.376-20.844,3.089c-2.618-0.102-5.216-0.333-7.795-0.487    c7.532-2.463,15.183-4.541,22.739-5.637c7.515-1.091,14.759-3.374,22.365-3.976c0.094-0.008,0.185-0.02,0.278-0.028    C467.989,199.059,462.234,201.089,456.73,203.602z M438.299,221.155c-2.893-0.399-5.514-0.854-8.468-0.817    c-5.161,0.066-10.501-1.1-15.589-0.615c-3.719,0.354-6.825,0.761-8.418,4.416c-1.773,4.064-0.681,7.679,0.302,11.747    c0.16,0.664,0.818,1.425,1.528,1.528c6.092,0.879,12.296,0.049,18.44,0.765c3.362,0.392,6.728,0.808,10.098,1.122    c2.119,0.198,4.243-0.095,6.357-0.092c-0.039,2.227-0.046,4.455-0.075,6.681c-0.027,2.04-0.083,4.082-0.079,6.122    c0.001,0.576,0.401,4.065,0.12,4.339c0.549-0.537-6.639-1.029-6.859-1.016c-3.441,0.205-6.871,0.633-10.313,0.892    c-7.4,0.557-14.728,0.969-22.158,1.249c-7.33,0.277-14.369-0.33-21.647-0.624c-4.697-0.19-9.44-0.125-14.179-0.029    c0.703-3.9,0.121-9.036-0.227-12.535c-0.339-3.401-0.297-7.595-1.134-11.192c6.477-2.804,13.062-5.902,19.066-9.439    c6.985-4.115,15.478-7.384,23.099-10.261c2.479-0.936,4.997-1.888,7.543-2.833c8.787,2.266,19.169,3.736,28.755,2.732    c-0.499,2.712-0.798,5.478-1.011,8.256C441.74,221.39,440.019,221.392,438.299,221.155z M443.24,224.598    c-0.173,2.962-0.293,5.923-0.48,8.835c-0.028,0.427-0.04,0.855-0.062,1.284c-1.462,0.038-2.915,0.221-4.48,0.177    c-3.166-0.09-6.486-0.722-9.615-1.093c-6.236-0.743-12.487-0.03-18.664-0.528c-1.002-3.555-1.88-7.011,2.281-8.869    c3.557-1.589,8.065,0.073,11.766,0.169c4.229,0.111,8.295-0.195,12.523,0.183C438.813,224.961,441.03,224.962,443.24,224.598z     M481.043,183.758c1.073,1.135,2.064,1.706,2.906,3.103c1.245,2.065,1.747,2.809-0.191,3.957c-1.824,1.08-6.487,0.675-8.712,0.775    c-3.014,0.134-5.944-0.162-8.983,0.123c-12.181,1.143-24.045,3.294-35.854,6.493c-7.448,2.017-14.862,4.515-22.163,7.015    c-6.136,2.1-11.853,5.102-17.883,7.408c-12.728,4.868-24.115,12.999-37.138,17.366c-6.946,2.33-14.128,3.211-21.275,4.666    c-4.517,0.92-8.888,0.811-13.299,0.979c-0.934-2.151-1.824-4.147-3.086-6.094c-0.98-1.512-2.141-2.241-0.743-4.181    c1.82-2.524,6.309-1.623,8.964-2.217c3.536-0.791,6.967-1.986,10.394-3.152c6.185-2.103,12.45-3.737,18.43-6.392    c5.859-2.602,11.587-5.3,17.19-8.409c3.104-1.722,6.352-2.976,9.527-4.584c2.938-1.486,5.639-3.366,8.619-4.762    c14.839-6.955,30.674-10.898,46.646-14.298c13.113-2.791,27.397-5.243,41.039-4.165    C477.372,179.457,479.104,181.707,481.043,183.758z M362.996,246.78c-0.022,2.855-0.051,5.686-0.04,8.543    c0.002,0.489-0.083,1.041-0.142,1.595c-2.124,0.043-4.244,0.076-6.355,0.085c0.049-3.128-0.6-6.295-0.932-9.384    c-0.369-3.441-0.715-6.828-1.056-10.22c2.728-0.793,5.433-1.714,8.117-2.845c0.126-0.053,0.253-0.108,0.378-0.162    c-0.226,2.053-0.444,4.406-0.446,4.626C362.503,241.626,363.016,244.17,362.996,246.78z M327.118,253.962    c-0.282-3.518-2.875-7.045-4.595-9.98c-0.459-0.784-0.881-1.592-1.298-2.404c1.364,0.397,2.759,0.715,4.244,0.788    c3.991,0.197,8.059-0.847,11.983-1.439c4.715-0.713,9.314-1.531,13.836-2.666c-0.195,2.063-0.032,4.128-0.204,6.516    c-0.281,3.925,0.675,8.022,0.386,11.972c-1.76-0.153-3.515-0.322-5.302-0.36c-3.479-0.074-6.76,0.759-10.211,0.872    c-3.131,0.103-6.246,0.148-9.356,0.203C327.033,256.585,327.238,255.452,327.118,253.962z M290.663,147.054    c7.106-2.016,14.762-3.319,22.048-4.654c15.409-2.822,31.513-3.864,47.065-2.805c7.115,0.485,14.301-0.853,21.398-0.021    c6.634,0.778,13.327,1.524,19.984,2.105c13.633,1.19,27.436,4.551,39.827,10.379c10.456,4.918,21.078,12.595,29.809,20.752    c-2.746-0.246-5.497-0.26-8.016-0.255c-7.468,0.017-14.59,1.131-21.932,2.403c-16.388,2.839-32.814,6.794-48.236,12.991    c-13.101,5.265-24.973,13.262-38.188,18.113c-6.023,2.211-11.833,4.835-18.063,6.465c-3.406,0.892-6.655,2.214-10.057,3.109    c-4.273,1.122-12.776,4.806-16.915,1.913c-1.497-1.047-1.807-3.047-2.459-4.629c-1.287-3.123-3.046-6.037-4.511-9.079    c-4.259-8.84-9.336-17.25-13.75-26.027c-4.546-9.04-9.032-18.061-14.365-26.658C279.729,149.696,285.246,148.591,290.663,147.054z     M265.7,153.992c1.484-0.143,3.018-0.137,4.433-0.513c1.397,3.745,3.438,7.312,5.305,10.791c2.313,4.311,4.232,8.779,6.601,13.091    c4.818,8.768,9.165,17.75,13.904,26.523c4.118,7.624,7.094,15.723,11.237,23.33c3.873,7.109,6.642,15.052,10.925,21.846    c1.168,1.852,2.159,3.781,3.197,5.691c0.746,1.372,1.536,0.803-0.148,1.085c-2.689,0.448-5.123-0.12-7.942,0.512    c-4.521,1.013-8.084,2.121-10.437-2.426c-1.953-3.776-3.144-7.987-5.022-11.839c-4.044-8.297-6.61-17.329-10.737-25.662    c-4.548-9.185-6.942-18.858-10.899-28.215c-3.423-8.093-7.786-15.98-12.591-23.274c-1.068-1.62-4.689-5.831-4.46-7.904    C259.362,154.317,263.62,154.192,265.7,153.992z M230.667,356.629c0.215-1.578,0.308-3.164,0.329-4.753    c9.306,1.713,19.498,0.497,28.78,0.837c6.951,0.255,14.261,0.81,21.235-0.095c0.04,1.341,0.134,2.679,0.315,4.013    c0.194,1.424,0.299,2.847,0.38,4.271c-10.134-0.308-20.294-0.258-30.413-0.259c-4.342-0.001-8.626-0.36-12.999-0.32    c-2.557,0.023-5.119-0.332-7.666-0.256c-0.077,0.003-0.183,0.019-0.292,0.038C230.412,358.944,230.51,357.787,230.667,356.629z     M230.417,341.758c6.63,0.964,14.029,0.065,20.469,0.138c10.138,0.116,20.494,1.017,30.645,0.319    c-0.23,2.393-0.44,4.786-0.516,7.173c-6.743-1.13-14.539,0.089-21.238-0.036c-5.366-0.101-10.659,0.016-16.017-0.237    c-4.101-0.193-8.58-0.199-12.778,0.475C230.907,346.985,230.67,344.37,230.417,341.758z M250.064,338.346    c-6.007-0.193-13.536-0.723-19.943,0.311c-0.23-2.503-0.417-5.001-0.423-7.481c0-0.038,0.001-0.075,0.001-0.113    c2.478,0.37,5.119,0.237,7.471,0.314c5.623,0.185,11.245,0.32,16.878,0.486c5.678,0.168,11.322,0.827,17.011,0.843    c3.762,0.011,7.595,0.406,11.218-0.452c-0.049,2.207-0.225,4.426-0.43,6.649C271.352,338.109,260.568,338.683,250.064,338.346z     M256.211,328.869c-8.698-0.445-17.754,0.74-26.491,0.279c0.051-2.821,0.205-5.692,0.385-8.521    c7.197,0.946,14.453,0.995,21.689,1.519c4.979,0.361,10.035,0.12,15.032,0.141c4.971,0.021,10.25,0.589,15.137-0.427    c0.157,2.583,0.266,5.179,0.302,7.739C273.609,329.117,264.875,329.312,256.211,328.869z M230.378,311.015    c8.008,0.194,16.014,0.839,24.013,1.293c5.255,0.299,10.488,0.373,15.777,0.381c3.493,0.004,7.733-0.605,11.39-0.19    c-0.036,1.294-0.034,2.595,0.053,3.915c0.063,0.959,0.13,1.937,0.194,2.915c-9.588-2.018-20.256,0.12-30.011-0.54    c-7.11-0.481-14.423-1.123-21.548-0.352c0.045-0.675,0.091-1.358,0.135-2.023C230.503,314.589,230.47,312.797,230.378,311.015z     M281.708,309.473c-2.633-0.339-5.852,0.206-8.003,0.208c-5.886,0.007-11.726-0.274-17.592-0.396    c-8.634-0.179-17.325-1.317-25.879-0.557c-0.148-2.062-0.325-4.121-0.39-6.213c-0.024-0.798,0.038-1.587,0.131-2.374    c6.87,0.995,13.832,1.34,20.783,1.647c6.825,0.301,13.624-0.079,20.442,0.32c3.587,0.209,7.368,0.16,10.948-0.409    c0.009,0.271,0.013,0.543,0.004,0.816C282.079,304.858,281.865,307.161,281.708,309.473z M270.054,298.847    c-6.399-0.634-12.884,0.27-19.297-0.014c-6.431-0.284-13.749-1.805-20.417-1.287c0.101-0.706,0.188-1.414,0.225-2.129    c0.09-1.755-0.107-3.539-0.175-5.31c2.417,0.234,4.86,0.231,7.34,0.253c5.854,0.051,11.639,0.79,17.455,0.811    c5.452,0.02,10.868-0.099,16.303,0.331c3.1,0.246,6.701,0.805,10.017,0.504c-0.07,1.141-0.133,2.282-0.075,3.411    c0.06,1.179,0.255,2.339,0.427,3.501C277.998,298.519,273.936,299.231,270.054,298.847z M270.842,288.653    c-5.217-0.326-10.426-0.203-15.657-0.215c-5.185-0.012-10.311-0.724-15.549-0.667c-3.067,0.033-6.157,0.224-9.234,0.248    c0.007-0.12,0.009-0.24,0.019-0.36c0.182-2.173,0.316-4.314,0.419-6.452c1.318,0.134,2.707,0.12,3.853,0.135    c5.563,0.07,11.095-0.237,16.682,0.166c9.904,0.714,19.932,2.084,29.84,0.783c0.095,1.779,0.21,3.562,0.361,5.367    c0.033,0.39,0.045,0.781,0.05,1.174C278.055,288.691,274.374,288.874,270.842,288.653z M231,271.665    c8.093,1.615,17.073,1.685,25.16,1.691c5.091,0.003,10.14,0.237,15.213,0.587c3.138,0.216,6.695,0.943,9.612-0.277    c-0.008,2.092,0.038,4.155,0.116,6.217c-5.024-0.684-9.968,0.332-14.941-0.089c-4.705-0.396-9.419-0.92-14.121-1.231    c-4.68-0.31-9.937-0.721-14.599-0.29c-1.934,0.179-4.358,0.075-6.499,0.399C231.014,276.36,231.044,274.037,231,271.665z     M277.063,258.827c-1.057,2.727-1.517,6.441-0.267,9.174c0.093,0.203,0.195,0.388,0.299,0.572    c-2.249-0.221-4.553-0.222-6.702-0.349c-5.379-0.318-10.728-0.266-16.119-0.397c-5.082-0.124-10.144-0.507-15.237-0.499    c-1.183,0.002-2.359-0.097-3.536-0.158c0.838-2.622,0.383-5.881-0.571-8.342c-1.141-2.944-3.624-3.156-6.488-3.132    c-4.376,0.037-8.921-0.294-13.226,0.399c-0.485,0.079-0.967,0.17-1.452,0.253c0.238-0.582,0.47-1.169,0.709-1.751    c1.657-4.043,3.277-8.111,4.915-12.176c3.833,1.498,8.422,1.173,12.448,1.729c2.058,0.283,4.143,0.436,6.215,0.392    c5.853,0.834,12.109,0.47,17.731,0.723c6.112,0.274,14.296,1.083,20.703-0.772c1.228-0.062,2.455-0.174,3.672-0.342    c4.026-0.556,8.615-0.23,12.448-1.729c1.637,4.066,3.258,8.134,4.915,12.176c0.239,0.582,0.471,1.169,0.709,1.751    c-0.485-0.083-0.967-0.175-1.452-0.253c-4.304-0.694-8.85-0.363-13.226-0.399C280.688,255.671,278.204,255.882,277.063,258.827z     M221.441,237.367c1.49-3.64,3.032-7.255,4.622-10.848c2.567,0.906,5.628,0.614,8.355,0.624c2.58,0.01,5.087,0.325,7.572,0.395    c2.666,0.609,5.501,0.689,8.359,0.769c6.564,0.184,13.67,0.967,20.097-0.785c2.341-0.092,4.704-0.372,7.131-0.381    c2.727-0.01,5.788,0.282,8.355-0.624c1.59,3.593,3.133,7.21,4.622,10.848c-3.89-0.127-7.827,0.158-11.664,0.652    c-3.921,0.505-7.852,0.299-11.643,1.11c-4.096,0.168-8.21,0.512-12.329,0.222c-4.107-0.289-8.866-0.799-13.488-0.712    c-2.744-0.258-5.537-0.262-8.324-0.621C229.268,237.525,225.331,237.239,221.441,237.367z M255.997,162.947    c2.12,4.031,5.161,7.637,7.263,11.646c3.142,5.992,6.704,11.976,8.989,18.379c1.912,5.357,3.343,10.813,5.528,16.084    c1.906,4.599,4.273,8.955,6.368,13.461c-4.815-0.698-9.996-0.663-14.865,0.082c-6.543-0.626-13.545,0.316-19.976,0.375    c-1.704,0.016-4.221-0.341-6.684-0.39c-4.842-0.732-9.989-0.761-14.774-0.068c2.096-4.506,4.462-8.862,6.368-13.461    c2.185-5.272,3.615-10.727,5.528-16.084c2.285-6.403,5.849-12.387,8.989-18.379C250.836,170.584,253.877,166.978,255.997,162.947z     M246.294,153.992c2.081,0.2,6.337,0.325,6.635,3.034c0.229,2.074-3.393,6.284-4.46,7.904    c-4.805,7.294-9.169,15.182-12.591,23.274c-3.957,9.357-6.351,19.03-10.899,28.215c-4.127,8.333-6.693,17.366-10.737,25.662    c-1.878,3.852-3.068,8.063-5.022,11.839c-2.353,4.547-5.916,3.438-10.437,2.426c-2.82-0.631-5.253-0.064-7.942-0.512    c-1.684-0.281-0.894,0.288-0.148-1.085c1.038-1.91,2.03-3.839,3.197-5.691c4.282-6.795,7.052-14.737,10.925-21.846    c4.143-7.607,7.119-15.707,11.237-23.33c4.739-8.773,9.086-17.755,13.904-26.523c2.369-4.311,4.288-8.779,6.601-13.091    c1.866-3.479,3.909-7.046,5.304-10.791C243.276,153.856,244.811,153.849,246.294,153.992z M185.393,257.463    c-3.11-0.054-6.225-0.1-9.356-0.203c-3.449-0.113-6.732-0.946-10.211-0.872c-1.787,0.038-3.542,0.208-5.302,0.36    c-0.288-3.95,0.667-8.046,0.386-11.972c-0.17-2.388-0.009-4.453-0.204-6.516c4.523,1.135,9.121,1.954,13.836,2.666    c3.923,0.593,7.991,1.637,11.983,1.439c1.485-0.073,2.879-0.392,4.244-0.788c-0.418,0.811-0.839,1.62-1.298,2.404    c-1.72,2.935-4.313,6.463-4.595,9.98C184.758,255.452,184.961,256.585,185.393,257.463z M71.011,152.059    c12.391-5.829,26.194-9.19,39.827-10.379c6.656-0.581,13.349-1.327,19.984-2.105c7.097-0.833,14.282,0.506,21.398,0.021    c15.552-1.059,31.656-0.017,47.065,2.805c7.286,1.335,14.942,2.637,22.048,4.654c5.417,1.537,10.934,2.643,16.363,4.101    c-5.334,8.598-9.82,17.619-14.365,26.658c-4.413,8.777-9.491,17.187-13.75,26.027c-1.466,3.042-3.224,5.956-4.511,9.079    c-0.652,1.582-0.962,3.582-2.459,4.629c-4.139,2.893-12.643-0.791-16.915-1.913c-3.403-0.894-6.652-2.217-10.057-3.109    c-6.228-1.631-12.038-4.254-18.063-6.465c-13.216-4.85-25.088-12.846-38.188-18.113c-15.421-6.198-31.846-10.152-48.236-12.991    c-7.341-1.272-14.464-2.387-21.932-2.403c-2.519-0.006-5.27,0.009-8.015,0.255C49.932,164.653,60.555,156.976,71.011,152.059z     M36.949,191.594c-2.225-0.1-6.888,0.305-8.711-0.775c-1.94-1.149-1.436-1.892-0.191-3.957c0.843-1.398,1.833-1.968,2.906-3.103    c1.94-2.052,3.671-4.3,5.615-6.369c13.643-1.079,27.926,1.373,41.039,4.165c15.972,3.4,31.807,7.344,46.646,14.298    c2.979,1.397,5.68,3.276,8.619,4.762c3.175,1.607,6.423,2.861,9.527,4.584c5.603,3.11,11.33,5.808,17.19,8.409    c5.98,2.655,12.245,4.289,18.43,6.392c3.425,1.165,6.857,2.36,10.394,3.152c2.655,0.593,7.143-0.308,8.964,2.217    c1.4,1.94,0.238,2.67-0.743,4.181c-1.263,1.948-2.152,3.943-3.086,6.094c-4.411-0.167-8.781-0.06-13.299-0.979    c-7.147-1.454-14.329-2.336-21.275-4.666c-13.023-4.368-24.41-12.499-37.138-17.366c-6.03-2.307-11.747-5.307-17.883-7.408    c-7.302-2.5-14.716-4.998-22.163-7.015c-11.809-3.198-23.673-5.35-35.854-6.493C42.892,191.431,39.963,191.727,36.949,191.594z     M149.027,234.391c0.126,0.053,0.253,0.108,0.378,0.162c2.685,1.131,5.389,2.053,8.117,2.845c-0.341,3.392-0.687,6.78-1.056,10.22    c-0.332,3.09-0.979,6.257-0.932,9.384c-2.112-0.009-4.232-0.042-6.356-0.085c-0.059-0.553-0.144-1.106-0.142-1.595    c0.011-2.857-0.019-5.688-0.04-8.543c-0.02-2.609,0.492-5.154,0.475-7.764C149.472,238.797,149.253,236.443,149.027,234.391z     M144.639,256.823c-4.74-0.096-9.483-0.162-14.18,0.029c-7.278,0.294-14.317,0.901-21.647,0.624    c-7.43-0.28-14.758-0.693-22.158-1.249c-3.442-0.259-6.873-0.687-10.313-0.892c-0.22-0.013-7.407,0.479-6.859,1.016    c-0.281-0.276,0.117-3.764,0.12-4.339c0.004-2.04-0.052-4.081-0.079-6.122c-0.029-2.225-0.036-4.454-0.075-6.681    c2.114-0.003,4.237,0.29,6.357,0.092c3.37-0.314,6.735-0.73,10.097-1.122c6.144-0.715,12.348,0.114,18.44-0.765    c0.71-0.103,1.368-0.864,1.528-1.528c0.983-4.068,2.075-7.683,0.302-11.747c-1.594-3.654-4.699-4.061-8.418-4.416    c-5.088-0.485-10.428,0.682-15.589,0.615c-2.954-0.038-5.575,0.417-8.468,0.817c-1.721,0.237-3.442,0.235-5.147,0.396    c-0.214-2.779-0.512-5.544-1.011-8.256c9.586,1.004,19.968-0.466,28.755-2.732c2.546,0.945,5.064,1.897,7.543,2.833    c7.62,2.878,16.114,6.146,23.099,10.261c6.005,3.537,12.589,6.634,19.066,9.439c-0.838,3.598-0.796,7.791-1.133,11.192    C144.519,247.787,143.937,252.923,144.639,256.823z M69.296,234.717c-0.022-0.428-0.034-0.857-0.062-1.284    c-0.187-2.913-0.307-5.874-0.48-8.835c2.21,0.364,4.427,0.363,6.73,0.158c4.227-0.377,8.294-0.072,12.523-0.183    c3.701-0.096,8.209-1.758,11.766-0.169c4.161,1.858,3.282,5.314,2.281,8.869c-6.176,0.498-12.427-0.215-18.663,0.528    c-3.128,0.372-6.448,1.004-9.615,1.093C72.21,234.939,70.757,234.756,69.296,234.717z M55.264,203.602    c-5.503-2.513-11.258-4.543-16.744-7.041c0.093,0.008,0.184,0.02,0.278,0.028c7.605,0.602,14.85,2.885,22.365,3.976    c7.556,1.098,15.208,3.174,22.739,5.637c-2.58,0.154-5.176,0.385-7.795,0.487C68.647,206.978,62.145,206.744,55.264,203.602z     M180.509,360.122c-0.547,0.774-1.401,1.259-2.434,1.554c-3.416,0.973-8.788-0.162-11.462,0.041    c-4.798,0.363-9.598-0.145-14.392,0.18c-8.938,0.606-17.942,0.936-26.924,0.643c-17.864-0.585-35.736-1.75-53.613-1.758    c-16.687-0.01-33.319-2.562-49.967-2.38c-2.83,0.031-4.487-2.891-3.88-5.477c1.039-4.431,6.095-2.476,9.388-2.503    c3.644-0.03,7.489-0.43,11.037-1.115c0.322-0.063,0.655-0.135,0.99-0.214c9.318,0.234,18.993-0.245,28.29-0.627    c20.267-0.837,40.384,0.07,60.651,0.122c5.059,0.013,9.868-0.564,14.905-0.142c5.618,0.47,11.358,0.305,16.989,0.318    c3.933,0.008,7.868-0.013,11.799-0.135c2.161-0.068,8.518-0.477,9.82,1.641C182.808,352.055,181.692,358.449,180.509,360.122z     M48.327,342.377c-3.916,0.277-7.877,0.547-11.798,0.264c-5.866-0.626-4.518-3.464-4.534-8.308    c-0.011-3.793,0.624-7.464,0.603-11.241c-0.011-1.897-0.111-3.758-0.236-5.613c5.237,0.994,10.655,0.824,16.094,0.39    c0.092,1.856,0.177,3.703,0.232,5.532c0.144,4.733,0.104,9.581-0.111,14.31C48.513,339.175,48.233,340.831,48.327,342.377z     M48.189,312.499c-5.326,0.512-10.805,0.695-16.07,1.637c-0.123-1.533-0.248-3.068-0.353-4.622    c-0.425-6.311-0.598-12.786-2.469-18.804c0.408,0.004,0.817,0.013,1.225,0.017c6.088,0.054,12.175,0.09,18.264,0.12    C47.658,297.926,47.842,305.25,48.189,312.499z M52.349,319.967c-0.075-0.806-0.131-1.615-0.178-2.425    c5.024-0.473,10.038-1.002,14.917-0.885c0.886,0.021,1.777,0.036,2.666,0.054c-0.002,0.118-0.003,0.216-0.004,0.283    c-0.055,3.694,0.587,7.275,0.495,11.02c-0.112,4.533-0.375,9.14,0.216,13.639c-5.956,0.16-11.936,0.173-17.881,0.464    c-0.344-2.653,0.16-5.706,0.144-8.222C52.693,329.244,52.783,324.598,52.349,319.967z M69.846,311.294    c-0.92-0.006-1.841-0.01-2.759-0.018c-4.979-0.041-10.087,0.305-15.074,0.828c-0.035-7.101,0.403-14.277-0.643-21.245    c4.216,0.02,8.432,0.039,12.647,0.061c2.235,0.011,4.47,0.054,6.704,0.105C70.238,295.216,69.974,304.966,69.846,311.294z     M98.684,310.726c-8.217,0.486-16.506,0.6-24.749,0.583c0.029-6.731,0.489-13.606-0.454-20.22    c7.094,0.191,14.189,0.479,21.307,0.552c1.491,0.016,2.968-0.014,4.44-0.062C98.594,297.906,98.661,304.336,98.684,310.726z     M98.137,341.487c-7.828-0.205-15.659-0.31-23.502,0.032h-0.006c1.073-8.137-0.121-16.443-0.572-24.526    c-0.004-0.071-0.006-0.142-0.01-0.214c8.191,0.105,16.446,0.022,24.613-0.448c-0.01,0.82-0.017,1.641-0.038,2.458    C98.428,326.45,97.649,333.906,98.137,341.487z M104.633,310.31c-0.457,0.039-0.915,0.068-1.372,0.104    c0.044-6.334-0.012-12.736-0.678-18.969c2.656-0.129,5.307-0.287,7.988-0.367c5.589-0.167,11.18,0.453,16.768,0.28    c-0.231,6.287-0.881,12.577-1.455,18.882C118.724,310.855,111.762,309.714,104.633,310.31z M125.401,315.985    c-0.252,3.41-0.435,6.825-0.455,10.246c-0.027,4.603-0.334,8.937-0.733,13.496c-0.059,0.675-0.144,1.498-0.173,2.355    c-6.933-0.023-13.86-0.249-20.786-0.456c-0.193-7.609-0.089-15.174-0.061-22.837c0.003-0.916,0.012-1.84,0.02-2.766    c0.776-0.06,1.553-0.114,2.326-0.183C112.166,315.265,118.715,316.427,125.401,315.985z M129.424,339.728    c0.137-1.745,0.436-3.477,0.569-5.221c0.414-5.423,0.031-11.006-0.069-16.441c-0.014-0.8-0.017-1.598-0.009-2.394    c5.388-0.363,10.85-0.562,16.201-0.548c2.798,0.008,5.594,0.012,8.392,0.02c-0.018,0.387-0.049,0.774-0.062,1.162    c-0.181,5.783-0.105,11.587-0.11,17.372c-0.002,2.57-0.298,5.498-0.235,8.322c-3.964,0.043-7.949,0.129-11.878-0.302    c-4.051-0.446-7.951,0.279-12.01,0.35c-0.283,0.004-0.565,0-0.849,0.004C129.463,341.318,129.368,340.44,129.424,339.728z     M131.034,291.209c4.034-0.197,8.101-0.494,12.1-0.764c4.116-0.279,8.287-0.168,12.402-0.464    c-0.183,3.322,0.073,6.827-0.025,10.046c-0.094,3.098-0.365,6.176-0.618,9.252c-3.257,0.01-6.511,0.022-9.762,0.025    c-4.979,0.007-10.018,0.229-15.012,0.599c0.193-3.477,0.478-6.945,0.687-10.446C130.978,296.585,131.356,293.852,131.034,291.209z     M183.251,326.944c-0.474,4.663-0.78,9.326-1.078,13.986c-0.369-0.061-0.757-0.08-1.176-0.011    c-7.036,1.149-14.166,1.101-21.286,1.072c0.039-0.531,0.061-0.956,0.065-1.12c0.08-2.723-0.004-5.465-0.007-8.189    c-0.004-5.82-0.378-11.713-0.185-17.526c2.832,0.007,5.663,0.018,8.495,0.02c5.477,0.006,11.194,1.41,16.479-0.048    C184.126,319.072,183.651,323.01,183.251,326.944z M185.75,299.538c-0.082,3.323-0.315,6.645-0.62,9.965    c-0.1-0.011-0.195-0.03-0.301-0.033c-8.311-0.204-16.69-0.218-25.072-0.2c0.079-3.386,0.097-6.762-0.008-10.197    c-0.1-3.241-0.008-6.394-0.641-9.463c5.729-0.779,11.629-1.475,17.41-1.546c2.948-0.036,5.995-0.292,8.715-1.451    c0.654-0.232,1.281-0.549,1.882-0.916C186.519,290.276,185.864,294.937,185.75,299.538z M187.034,269.499    c-0.155,3.236,0.519,8.108-1.861,10.788c-0.115,0.129-0.257,0.238-0.386,0.357c-6.766,0.136-13.59,0.065-20.397,0.599    c-4.015,0.315-7.805,1.392-11.869,1.317c-4.443-0.082-8.807,0.437-13.244,0.461c-4.036,0.023-7.907,0.671-11.926,0.824    c-4.992,0.19-10.023-0.237-15.019-0.238c-9.108-0.002-18.324,0.686-27.476,0.844c-8.484,0.147-16.884-0.648-25.388-0.607    c-10.006,0.05-20.013,0.092-30.018,0.18c-4.967,0.044-9.932,0.087-14.898,0.214c-1.466,0.036-5.409,1.019-6.535,0.408    c-2.096-1.139-1.667-5.639-1.699-7.378c-0.058-3.054-1.101-8.986,0.93-11.161c1.913-2.052,7.726-1.249,10.352-1.652    c17.525-2.689,35.895,0.412,53.366-2.599c1.885-0.122,3.804-0.437,5.376-0.351c7.672,0.416,15.341,1.474,23.032,1.673    c17.12,0.443,34.052,0.195,51.177,0.17c7.772-0.011,15.323-0.525,23.066-0.106c4.523,0.245,9.143,0.201,13.76-0.007    C187.062,265.468,187.113,267.839,187.034,269.499z M224.326,341.143c0.022,3.597,0.405,7.099,0.531,10.667    c0.145,4.123-1.318,8.092-1.26,12.226c0.029,2.063,0.147,4.207-0.588,6.188c-0.68,1.832-0.668,1.547-2.365,2.169    c-3.929,1.442-8.194,1.15-12.293,1.132c-4.189-0.018-8.44,0.204-12.615-0.174c-1.937-0.175-5.189-0.086-6.884-1.227    c-2.063-1.388-1.312-3.822-1.315-6.23c-0.017-15.98,1.706-31.852,2.627-47.791c0.523-9.053,0.862-18.078,1.388-27.121    c0.235-4.033,2.048-10.681,1.016-15.61c0.148-1.42,0.217-2.846,0.292-4.275c2.275,0.604,4.443,0.688,7.064,0.484    c4.442-0.347,8.735,0.79,13.237,0.653c3.943-0.121,7.852-0.259,11.776-0.351c-0.175,7.966-0.083,16.003-0.653,23.922    c-0.562,7.817-0.27,15.541-0.476,23.386C223.616,326.542,224.28,333.824,224.326,341.143z M226.995,266.509    c-6.762,0.684-14.131,0.823-20.802,0.104c-2.777-0.3-12.288,2.578-12.503-1.558c-0.226-4.345,21.711-4.066,25.402-4.09    c2.476-0.017,7.602-0.935,9.944-0.065c1.159,0.43,1.276,1.089,1.466,2.345C230.937,266.09,229.56,266.25,226.995,266.509z     M280.116,372.502c-3.095,0.08-6.296,0.106-9.392-0.016c-5.186-0.204-10.379-0.448-15.553-0.676    c-8.636-0.381-17.445-0.889-26.026,0.204c0.26-1.124,0.424-2.246,0.559-3.208c0.287-2.036,0.388-4.084,0.489-6.136    c3.177,0.209,6.473,0.894,9.61,0.906c4.463,0.018,8.938,0.269,13.393,0.501c5.237,0.273,10.44-0.051,15.709-0.04    c4.327,0.01,8.671,0.36,12.985,0.351c0.084,1.477,0.193,2.95,0.4,4.418c0.146,1.039,0.331,2.264,0.63,3.477    C281.986,372.333,281.039,372.478,280.116,372.502z M284.999,266.509c-2.565-0.259-3.942-0.418-3.508-3.265    c0.191-1.256,0.308-1.914,1.466-2.345c2.342-0.871,7.469,0.049,9.944,0.065c3.692,0.024,25.629-0.255,25.402,4.09    c-0.215,4.137-9.726,1.258-12.503,1.558C299.13,267.333,291.761,267.193,284.999,266.509z M323.141,372.124    c-1.695,1.141-4.948,1.052-6.884,1.227c-4.174,0.378-8.426,0.157-12.615,0.174c-4.099,0.018-8.364,0.31-12.293-1.132    c-1.698-0.623-1.685-0.337-2.365-2.169c-0.735-1.981-0.616-4.126-0.588-6.188c0.058-4.134-1.405-8.103-1.26-12.226    c0.126-3.568,0.509-7.07,0.531-10.667c0.045-7.318,0.711-14.601,0.517-21.953c-0.206-7.845,0.085-15.568-0.476-23.386    c-0.569-7.919-0.478-15.957-0.653-23.922c3.924,0.092,7.834,0.23,11.776,0.351c4.502,0.137,8.795-1,13.237-0.653    c2.621,0.206,4.787,0.122,7.064-0.484c0.076,1.429,0.144,2.855,0.292,4.275c-1.032,4.929,0.781,11.578,1.016,15.61    c0.527,9.042,0.864,18.067,1.388,27.121c0.922,15.939,2.644,31.811,2.627,47.791C324.453,368.303,325.204,370.737,323.141,372.124    z M326.862,309.503c-0.304-3.32-0.537-6.641-0.62-9.965c-0.114-4.6-0.769-9.263-1.366-13.842c0.601,0.367,1.228,0.684,1.882,0.916    c2.72,1.159,5.766,1.414,8.715,1.451c5.781,0.072,11.681,0.768,17.41,1.546c-0.633,3.068-0.541,6.222-0.641,9.463    c-0.105,3.435-0.085,6.811-0.008,10.197c-8.383-0.018-16.762-0.002-25.072,0.2C327.057,309.473,326.963,309.491,326.862,309.503z     M328.743,326.944c-0.4-3.934-0.874-7.873-1.307-11.816c5.286,1.456,11.003,0.052,16.479,0.048    c2.831-0.002,5.663-0.013,8.495-0.02c0.195,5.813-0.18,11.706-0.185,17.526c-0.002,2.726-0.085,5.466-0.007,8.189    c0.004,0.164,0.028,0.588,0.065,1.12c-7.12,0.029-14.25,0.076-21.286-1.072c-0.419-0.069-0.809-0.05-1.176,0.011    C329.523,336.27,329.216,331.609,328.743,326.944z M494.157,352.922c0.606,2.586-1.051,5.508-3.88,5.477    c-16.648-0.18-33.28,2.372-49.967,2.38c-17.877,0.01-35.75,1.174-53.613,1.758c-8.98,0.294-17.984-0.036-26.924-0.643    c-4.794-0.325-9.594,0.183-14.392-0.18c-2.673-0.203-8.045,0.932-11.462-0.041c-1.033-0.294-1.887-0.78-2.434-1.554    c-1.183-1.673-2.299-8.068-1.201-9.856c1.301-2.118,7.658-1.709,9.82-1.641c3.931,0.122,7.866,0.143,11.799,0.135    c5.632-0.011,11.371,0.154,16.989-0.318c5.039-0.423,9.847,0.155,14.905,0.142c20.267-0.052,40.384-0.958,60.651-0.122    c9.297,0.384,18.972,0.862,28.29,0.628c0.335,0.079,0.668,0.152,0.99,0.214c3.548,0.685,7.392,1.085,11.037,1.115    C488.061,350.446,493.118,348.49,494.157,352.922z M381.188,299.457c0.209,3.5,0.495,6.967,0.687,10.446    c-4.993-0.371-10.034-0.592-15.012-0.599c-3.25-0.003-6.505-0.016-9.762-0.025c-0.251-3.075-0.522-6.154-0.618-9.252    c-0.098-3.219,0.157-6.724-0.025-10.046c4.116,0.297,8.287,0.186,12.402,0.464c3.999,0.271,8.066,0.567,12.1,0.764    C380.638,293.852,381.016,296.585,381.188,299.457z M382.001,334.507c0.133,1.744,0.432,3.476,0.569,5.221    c0.055,0.712-0.04,1.589,0.058,2.324c-0.283-0.004-0.565,0-0.849-0.004c-4.058-0.071-7.959-0.796-12.01-0.35    c-3.929,0.432-7.914,0.345-11.878,0.302c0.063-2.824-0.232-5.752-0.235-8.322c-0.004-5.786,0.073-11.589-0.11-17.372    c-0.012-0.388-0.044-0.775-0.062-1.162c2.798-0.008,5.594-0.012,8.392-0.02c5.352-0.014,10.812,0.185,16.201,0.548    c0.008,0.796,0.006,1.594-0.009,2.394C381.971,323.502,381.588,329.085,382.001,334.507z M408.734,310.414    c-0.457-0.035-0.916-0.065-1.373-0.104c-7.129-0.598-14.091,0.544-21.25-0.07c-0.574-6.305-1.225-12.595-1.455-18.882    c5.588,0.173,11.179-0.448,16.768-0.28c2.681,0.081,5.332,0.238,7.988,0.367C408.747,297.678,408.69,304.081,408.734,310.414z     M408.74,341.626c-6.927,0.207-13.853,0.433-20.786,0.456c-0.028-0.857-0.113-1.68-0.173-2.355    c-0.398-4.559-0.706-8.893-0.733-13.496c-0.02-3.422-0.203-6.837-0.455-10.246c6.686,0.44,13.235-0.72,19.862-0.143    c0.774,0.068,1.55,0.123,2.326,0.183c0.008,0.924,0.017,1.848,0.02,2.766C408.829,326.452,408.933,334.017,408.74,341.626z     M438.06,311.311c-8.243,0.017-16.532-0.097-24.749-0.583c0.021-6.391,0.09-12.822-0.546-19.145    c1.472,0.048,2.949,0.076,4.44,0.062c7.118-0.073,14.214-0.361,21.307-0.552C437.57,297.703,438.031,304.579,438.06,311.311z     M437.365,341.519h-0.004c-7.843-0.342-15.673-0.236-23.502-0.032c0.487-7.581-0.291-15.037-0.487-22.697    c-0.021-0.817-0.028-1.638-0.038-2.458c8.167,0.47,16.422,0.553,24.613,0.448c-0.004,0.071-0.006,0.143-0.01,0.214    C437.485,325.076,436.291,333.382,437.365,341.519z M459.98,312.104c-4.987-0.522-10.095-0.869-15.074-0.828    c-0.919,0.008-1.839,0.012-2.759,0.018c-0.127-6.328-0.392-16.078-0.874-20.27c2.234-0.05,4.469-0.094,6.704-0.105    c4.215-0.022,8.432-0.041,12.647-0.061C459.577,297.827,460.016,305.003,459.98,312.104z M459.416,342.118    c-5.944-0.291-11.925-0.303-17.881-0.464c0.591-4.5,0.328-9.108,0.216-13.639c-0.092-3.745,0.55-7.326,0.495-11.02    c-0.001-0.068-0.002-0.165-0.004-0.283c0.889-0.018,1.779-0.033,2.666-0.054c4.878-0.116,9.892,0.413,14.917,0.885    c-0.046,0.81-0.102,1.619-0.178,2.425c-0.435,4.631-0.345,9.277-0.374,13.929C459.255,336.412,459.76,339.465,459.416,342.118z     M463.415,337.71c-0.215-4.729-0.253-9.577-0.111-14.31c0.055-1.829,0.141-3.676,0.232-5.532    c5.439,0.435,10.857,0.604,16.094-0.39c-0.125,1.856-0.225,3.716-0.236,5.613c-0.021,3.777,0.615,7.449,0.603,11.241    c-0.014,4.844,1.333,7.681-4.534,8.308c-3.921,0.282-7.882,0.013-11.798-0.264C463.762,340.831,463.482,339.175,463.415,337.71z     M479.875,314.136c-5.264-0.942-10.743-1.124-16.07-1.637c0.347-7.25,0.531-14.575-0.596-21.654    c6.088-0.031,12.175-0.066,18.264-0.12c0.408-0.004,0.817-0.012,1.225-0.017c-1.871,6.018-2.045,12.493-2.47,18.804    C480.123,311.068,479.998,312.605,479.875,314.136z M503.977,284.648c-1.125,0.612-5.07-0.371-6.535-0.408    c-4.966-0.126-9.931-0.169-14.898-0.214c-10.006-0.09-20.012-0.131-30.018-0.18c-8.503-0.042-16.904,0.754-25.388,0.607    c-9.152-0.158-18.367-0.848-27.476-0.844c-4.997,0.001-10.029,0.428-15.019,0.238c-4.019-0.154-7.889-0.802-11.926-0.824    c-4.438-0.024-8.8-0.543-13.244-0.461c-4.064,0.075-7.854-1.002-11.869-1.317c-6.807-0.533-13.631-0.463-20.397-0.599    c-0.13-0.118-0.271-0.228-0.386-0.357c-2.379-2.679-1.706-7.551-1.861-10.788c-0.08-1.66-0.028-4.032-0.342-6.263    c4.618,0.208,9.238,0.251,13.76,0.007c7.743-0.418,15.294,0.095,23.066,0.106c17.125,0.024,34.057,0.273,51.177-0.17    c7.689-0.199,15.358-1.257,23.032-1.673c1.573-0.085,3.491,0.229,5.376,0.351c17.471,3.011,35.841-0.091,53.366,2.599    c2.625,0.403,8.437-0.398,10.352,1.652c2.031,2.176,0.987,8.106,0.93,11.161C505.643,279.009,506.072,283.51,503.977,284.648z"/>
	</g>
</g>
<g>
</g>
<g>
</g>
<g>
</g>
<g>
</g>
<g>
</g>
<g>
</g>
<g>
</g>
<g>
</g>
<g>
</g>
<g>
</g>
<g>
</g>
<g>
</g>
<g>
</g>
<g>
</g>
<g>
</g>
</svg>
