<?xml version="1.0" encoding="iso-8859-1"?>
<!-- Generator: Adobe Illustrator 19.0.0, SVG Export Plug-In . SVG Version: 6.00 Build 0)  -->
<svg xmlns="http://www.w3.org/2000/svg" xmlns:xlink="http://www.w3.org/1999/xlink" version="1.1" id="Layer_1" x="0px" y="0px" viewBox="0 0 512.001 512.001" style="enable-background:new 0 0 512.001 512.001;" xml:space="preserve">
<g>
	<g>
		<path d="M510.068,415.928c-0.703-0.349-1.57-0.463-2.494-0.449c1.842-6.534,0.38-14.408,0.172-20.906    c-0.143-4.432-0.312-9.035-0.758-13.439c-0.31-3.063,0.326-6.569-0.626-9.434c3.089-1.371,4.038-4.254,4.16-8.045    c0.114-3.562,1.493-10.055-2.681-11.79c-1.269-0.528-2.769-0.712-4.336-0.647c0.345-1.118,0.531-2.341,0.678-3.61    c0.692-5.987,0.06-12.282,0.1-18.315c0.022-3.281-0.225-6.434-0.501-9.696c-0.107-1.274,0.033-2.689-0.052-4.024    c1.712-0.311,3.166-0.995,3.98-2.366c1.682-2.833,2.404-11.323-0.303-13.74c-1.273-1.136-3.127-1.732-5.219-1.978    c0.657-2.934,0.255-6.678,0.353-9.028c0.265-6.387,0.204-12.683,0.016-19.069c-0.072-2.472-0.628-4.832-0.669-7.318    c-0.035-2.126-0.697-5.818-0.309-7.913c0.041-0.219,0.049-0.441,0.04-0.663c3.074-1.059,2.822-3.575,2.851-6.392    c0.033-3.21,0.92-7.367-1.531-9.998c-0.38-0.408-0.795-0.715-1.23-0.956c-0.378-0.209,0.91-9.006,0.959-9.91    c0.233-4.235,0.196-8.488-0.18-12.714c-0.866-9.761-1.931-19.455-1.25-29.276c0.396-5.715,0.596-11.474,0.018-17.183    c-0.248-2.451,0.443-6.785-0.972-9.075c0.011-0.01,0.025-0.017,0.036-0.027c2.463-2.139,3.045-7.919,2.602-10.837    c-0.24-1.589-0.911-2.712-1.828-3.54c0.315-1.366,0.674-3.344,0.958-5.453c0.579-2.291,0.843-4.703,1.07-7.042    c0.567-5.829,0.037-11.825,0.07-17.694c0.026-4.65-0.109-9.308-0.255-13.958c-0.109-3.47,0.535-8.367-1.006-11.582    c-1.569-3.275-4.146-2.886-7.272-3.093c-5.52-0.365-11.024-0.722-16.564-0.879c-13.534-0.385-27.129-0.687-40.659-0.886    c-26.044-0.382-52.106-0.43-78.14-0.863c-24.137-0.402-48.398-2.427-72.55-1.168c-13.82,0.721-28.009,1.66-41.846,1.045    c-1.711-0.076-3.432-0.158-5.158-0.238c-7.091-1.401-15.173-0.664-21.88-0.757c-10.192-0.14-20.404-0.653-30.595-0.893    c-23.799-0.56-47.879-0.858-71.669,0.088c-19.968,0.795-39.949,1.552-59.899,1.532c-10.426-0.01-21.005,1.342-31.45,1.732    c-6.894,0.258-13.283-0.093-15.095,7.974c-1.047,4.659-0.652,8.587-0.711,13.332c-0.055,4.385-0.729,8.67-0.836,13.012    c-0.178,7.174,0.263,14.618,1.1,21.823c-0.041-0.007-0.081-0.008-0.122-0.016c0.128,0.458,0.225,0.929,0.295,1.436    c0.02,0.169,0.043,0.337,0.065,0.507c0.044,0.637-0.026,1.366,0.152,2.005c-2.421,0.988-3.654,2.6-3.979,5.852    c-0.282,2.824-1.221,6.655,1.768,8.553c0.638,0.405,1.42,0.639,2.249,0.79c-2.067,11.338-1.868,22.858-1.797,34.352    c0.015,2.302-0.516,6.659,0.671,9.445c-1.927,3.334-0.579,9.648-0.41,13.027c0.281,5.571,0.317,11.151,0.43,16.728    c0.054,2.684-0.2,5.665,0.269,8.31c0.41,2.308,0.397,4.584,0.699,6.93c0.359,2.789,1.551,5.014,4.333,5.83    c-1.622,11.265-0.681,23.177-0.241,34.394c0.118,3.011-1.455,7.42-0.474,10.542c-2.057,0.264-4.072,0.652-5.621,1.295    c-4.815,2-3.522,7.972-3.256,12.012c0.061,0.935,0.687,2.145,1.746,2.292c1.431,0.2,2.892,0.363,4.364,0.508    c-1.982,10.883-2.212,21.421-2.413,32.607c-0.038,2.163-0.178,4.853,0.864,6.847c-0.16,0.032-0.313,0.058-0.474,0.091    c-4.245,0.869-7.192,1.255-7.204,6.321c-0.006,2.18,0.591,4.396,0.75,6.555c0.135,1.811-0.08,3.493,1.53,4.764    c1.317,1.041,3.096,1.001,4.746,0.878c-0.554,6.452-1.058,12.743-1.151,19.296c-0.114,8.06-1.263,16.965-0.238,25.012    c-1.143,0.121-2.308,0.269-3.521,0.398c-0.959,0.102-1.688,0.579-1.996,1.519c-1.345,4.106-1.34,11.396,4.067,11.957    c4.523,0.47,9.265,0.23,13.842,0.614c4.53,0.381,9.16,1.142,13.723,1.087c3.501-0.043,8.704-0.121,11.669-2.218    c2.909-2.055,2.181-4.907,2.568-8.086c0.278-2.288,0.867-4.872-1.67-6.128c-0.701-0.348-1.569-0.463-2.494-0.449    c1.842-6.534,0.381-14.408,0.173-20.906c-0.143-4.432-0.312-9.035-0.759-13.439c-0.311-3.063,0.326-6.569-0.626-9.434    c3.089-1.371,4.038-4.254,4.16-8.045c0.114-3.562,1.493-10.055-2.681-11.79c-1.269-0.528-2.768-0.712-4.336-0.647    c0.345-1.118,0.532-2.341,0.678-3.61c0.692-5.987,0.06-12.283,0.1-18.315c0.021-3.281-0.225-6.434-0.501-9.696    c-0.107-1.274,0.034-2.689-0.051-4.024c1.712-0.311,3.166-0.995,3.98-2.366c1.682-2.833,2.404-11.323-0.303-13.74    c-1.273-1.136-3.127-1.732-5.219-1.978c0.657-2.934,0.255-6.678,0.353-9.027c0.266-6.387,0.204-12.683,0.016-19.069    c-0.072-2.472-0.628-4.832-0.669-7.318c-0.035-2.126-0.697-5.818-0.309-7.913c0.041-0.219,0.048-0.441,0.04-0.663    c3.073-1.059,2.822-3.575,2.851-6.392c0.033-3.21,0.92-7.367-1.531-9.998c-0.379-0.407-0.793-0.714-1.228-0.955    c0.13,0.071,0.399-6.492,0.455-7.17c0.574-7.043,11.237-9.348,16.772-10.424c4.423-0.86,8.233,0.302,12.399,1.586    c0.631,0.195,1.232,0.44,1.824,0.701c1.298,1.464,5.111,2.468,6.303,4.021c1.589,2.068,2.85,4.352,3.611,6.838    c1.928,6.293-2.834,10.376-2.376,16.849c0.215,3.036,1.73,4.224,3.756,4.818c-1.622,11.265-0.681,23.177-0.241,34.394    c0.118,3.011-1.455,7.42-0.474,10.542c-2.057,0.264-4.072,0.652-5.621,1.295c-4.815,2-3.522,7.972-3.256,12.012    c0.061,0.935,0.687,2.145,1.745,2.292c1.432,0.2,2.893,0.363,4.363,0.508c-1.982,10.883-2.212,21.421-2.412,32.607    c-0.039,2.163-0.178,4.853,0.864,6.847c-0.16,0.032-0.313,0.058-0.474,0.091c-4.245,0.869-7.191,1.255-7.204,6.321    c-0.006,2.18,0.589,4.396,0.75,6.555c0.135,1.811-0.08,3.493,1.53,4.764c1.317,1.041,3.096,1.001,4.746,0.878    c-0.554,6.452-1.059,12.743-1.151,19.296c-0.114,8.06-1.263,16.965-0.238,25.012c-1.143,0.121-2.308,0.269-3.521,0.398    c-0.961,0.102-1.688,0.579-1.996,1.519c-1.345,4.106-1.341,11.396,4.066,11.957c4.523,0.47,9.265,0.23,13.842,0.614    c4.529,0.381,9.16,1.142,13.722,1.087c3.501-0.043,8.704-0.121,11.669-2.218c2.909-2.055,2.181-4.907,2.568-8.086    c0.278-2.288,0.867-4.872-1.67-6.128c-0.703-0.349-1.57-0.463-2.494-0.449c1.842-6.534,0.38-14.408,0.172-20.906    c-0.141-4.432-0.312-9.035-0.758-13.439c-0.31-3.063,0.326-6.569-0.626-9.434c3.089-1.371,4.038-4.254,4.16-8.045    c0.114-3.562,1.493-10.055-2.681-11.79c-1.269-0.528-2.769-0.712-4.334-0.647c0.345-1.118,0.531-2.341,0.678-3.61    c0.692-5.987,0.06-12.282,0.1-18.315c0.021-3.281-0.225-6.434-0.501-9.696c-0.107-1.274,0.033-2.689-0.051-4.024    c1.712-0.311,3.166-0.995,3.98-2.366c1.682-2.833,2.404-11.323-0.303-13.74c-1.273-1.136-3.127-1.732-5.219-1.978    c0.657-2.934,0.255-6.678,0.353-9.028c0.265-6.387,0.204-12.683,0.016-19.069c-0.072-2.472-0.628-4.832-0.669-7.318    c-0.035-2.126-0.697-5.818-0.309-7.913c0.041-0.219,0.049-0.441,0.04-0.663c3.074-1.059,2.822-3.575,2.851-6.392    c0.033-3.21,0.92-7.367-1.531-9.998c-0.38-0.407-0.794-0.715-1.229-0.955c0.095,0.052,0.432-6.377,0.513-7.087    c0.869-7.686,12.535-9.057,18.39-9.688c5.192-0.559,10.183,0.476,14.99,2.238c1.674,1.084,4.397,1.984,5.37,3.252    c1.587,2.068,2.85,4.353,3.611,6.838c1.928,6.293-2.834,10.376-2.376,16.849c0.215,3.036,1.73,4.224,3.756,4.818    c-1.622,11.265-0.681,23.177-0.241,34.394c0.118,3.011-1.455,7.42-0.474,10.542c-2.057,0.264-4.072,0.652-5.621,1.295    c-4.815,2-3.522,7.972-3.256,12.012c0.061,0.935,0.687,2.145,1.746,2.292c1.431,0.2,2.892,0.363,4.363,0.508    c-1.982,10.883-2.212,21.421-2.413,32.607c-0.038,2.163-0.178,4.853,0.864,6.847c-0.16,0.032-0.313,0.058-0.474,0.091    c-4.246,0.869-7.192,1.255-7.205,6.321c-0.006,2.18,0.589,4.396,0.75,6.555c0.135,1.811-0.08,3.493,1.53,4.764    c1.317,1.041,3.096,1.001,4.746,0.878c-0.554,6.452-1.058,12.743-1.151,19.296c-0.114,8.06-1.263,16.965-0.238,25.012    c-1.143,0.121-2.308,0.269-3.521,0.398c-0.959,0.102-1.688,0.579-1.996,1.519c-1.345,4.106-1.34,11.395,4.066,11.957    c4.522,0.47,9.265,0.23,13.842,0.614c4.53,0.381,9.16,1.142,13.723,1.087c3.501-0.043,8.704-0.121,11.669-2.218    c2.909-2.055,2.181-4.907,2.568-8.086c0.278-2.288,0.867-4.872-1.67-6.128c-0.701-0.349-1.569-0.463-2.494-0.449    c1.842-6.534,0.381-14.408,0.173-20.906c-0.143-4.432-0.312-9.035-0.759-13.439c-0.31-3.063,0.326-6.569-0.625-9.434    c3.089-1.371,4.038-4.254,4.16-8.045c0.114-3.562,1.493-10.055-2.681-11.79c-1.269-0.528-2.77-0.712-4.336-0.647    c0.345-1.118,0.531-2.341,0.678-3.61c0.692-5.987,0.061-12.282,0.1-18.315c0.021-3.281-0.225-6.434-0.501-9.696    c-0.107-1.274,0.034-2.689-0.051-4.024c1.712-0.311,3.166-0.995,3.98-2.366c1.682-2.833,2.404-11.323-0.303-13.74    c-1.273-1.136-3.127-1.732-5.219-1.978c0.657-2.934,0.255-6.678,0.353-9.027c0.266-6.387,0.204-12.683,0.016-19.069    c-0.072-2.472-0.628-4.832-0.669-7.318c-0.035-2.126-0.696-5.818-0.309-7.913c0.041-0.22,0.049-0.441,0.04-0.663    c3.074-1.059,2.822-3.575,2.851-6.392c0.033-3.21,0.92-7.367-1.531-9.998c-0.379-0.407-0.793-0.714-1.228-0.955    c0.13,0.071,0.399-6.492,0.455-7.17c0.574-7.043,11.237-9.348,16.772-10.424c4.423-0.86,8.233,0.302,12.399,1.586    c0.631,0.195,1.232,0.44,1.824,0.701c1.298,1.464,5.111,2.468,6.303,4.021c1.589,2.068,2.85,4.353,3.611,6.838    c1.928,6.293-2.834,10.376-2.376,16.849c0.215,3.036,1.73,4.224,3.756,4.818c-1.622,11.265-0.681,23.177-0.241,34.394    c0.118,3.011-1.455,7.42-0.474,10.542c-2.057,0.264-4.072,0.652-5.621,1.295c-4.815,2-3.522,7.972-3.256,12.012    c0.061,0.935,0.687,2.145,1.745,2.292c1.432,0.2,2.893,0.363,4.363,0.508c-1.982,10.883-2.212,21.421-2.412,32.607    c-0.039,2.163-0.178,4.853,0.864,6.847c-0.16,0.032-0.313,0.058-0.474,0.091c-4.245,0.869-7.191,1.255-7.204,6.321    c-0.006,2.18,0.589,4.396,0.75,6.555c0.135,1.811-0.08,3.493,1.53,4.764c1.317,1.041,3.096,1.001,4.746,0.878    c-0.554,6.452-1.059,12.743-1.151,19.296c-0.114,8.06-1.263,16.965-0.238,25.012c-1.143,0.121-2.308,0.269-3.521,0.398    c-0.961,0.102-1.688,0.579-1.996,1.519c-1.345,4.106-1.341,11.396,4.066,11.957c4.523,0.47,9.265,0.23,13.842,0.614    c4.529,0.381,9.16,1.142,13.722,1.087c3.501-0.043,8.704-0.121,11.669-2.218c2.909-2.055,2.181-4.907,2.568-8.086    c0.278-2.288,0.867-4.872-1.67-6.128c-0.703-0.348-1.57-0.463-2.494-0.449c1.842-6.534,0.38-14.408,0.172-20.906    c-0.143-4.432-0.312-9.035-0.759-13.439c-0.31-3.063,0.326-6.569-0.626-9.434c3.089-1.371,4.038-4.254,4.16-8.045    c0.114-3.562,1.493-10.055-2.681-11.79c-1.269-0.528-2.769-0.712-4.334-0.647c0.345-1.118,0.531-2.341,0.678-3.61    c0.692-5.987,0.06-12.283,0.1-18.315c0.021-3.281-0.225-6.434-0.501-9.696c-0.107-1.274,0.033-2.689-0.051-4.024    c1.712-0.311,3.166-0.995,3.98-2.366c1.682-2.833,2.403-11.323-0.303-13.74c-1.273-1.136-3.127-1.732-5.219-1.978    c0.657-2.934,0.255-6.678,0.353-9.027c0.265-6.387,0.204-12.683,0.016-19.069c-0.072-2.472-0.628-4.832-0.669-7.318    c-0.035-2.126-0.697-5.818-0.309-7.913c0.041-0.219,0.048-0.441,0.04-0.663c3.074-1.059,2.822-3.575,2.851-6.392    c0.033-3.21,0.92-7.367-1.531-9.998c-0.38-0.408-0.795-0.715-1.23-0.956c0.258,0.143,0.992-9.425,1.421-10.39    c1.108-2.489,3.883-3.016,5.655-4.334c4.028-1.213,8.695-1.593,11.953-1.835c3.806-0.284,7.068-0.094,10.669,1.034    c0.694,0.217,1.589,0.489,2.549,0.813c1.638,1.164,4.599,2.093,5.624,3.428c1.589,2.068,2.85,4.352,3.611,6.838    c1.928,6.293-2.834,10.376-2.376,16.849c0.215,3.036,1.73,4.224,3.756,4.818c-1.622,11.265-0.681,23.177-0.241,34.394    c0.118,3.011-1.455,7.42-0.474,10.542c-2.057,0.264-4.072,0.652-5.621,1.295c-4.815,2-3.522,7.972-3.256,12.012    c0.061,0.935,0.687,2.145,1.746,2.292c1.431,0.2,2.892,0.363,4.363,0.508c-1.982,10.883-2.212,21.421-2.413,32.607    c-0.038,2.163-0.178,4.853,0.864,6.847c-0.16,0.032-0.313,0.058-0.474,0.091c-4.245,0.869-7.192,1.255-7.204,6.321    c-0.006,2.18,0.589,4.396,0.75,6.555c0.135,1.811-0.08,3.493,1.53,4.764c1.317,1.041,3.096,1.001,4.746,0.878    c-0.554,6.452-1.058,12.743-1.151,19.296c-0.114,8.06-1.263,16.965-0.238,25.012c-1.143,0.121-2.308,0.269-3.521,0.398    c-0.959,0.102-1.688,0.579-1.996,1.519c-1.345,4.106-1.34,11.396,4.066,11.957c4.522,0.47,9.265,0.23,13.842,0.614    c4.53,0.381,9.16,1.142,13.723,1.087c3.501-0.043,8.704-0.121,11.669-2.218c2.909-2.055,2.18-4.907,2.568-8.086    c0.278-2.288,0.867-4.872-1.67-6.128c-0.701-0.348-1.57-0.463-2.494-0.449c1.842-6.534,0.381-14.408,0.173-20.906    c-0.143-4.432-0.312-9.035-0.759-13.439c-0.31-3.063,0.326-6.569-0.625-9.434c3.089-1.371,4.038-4.254,4.16-8.045    c0.114-3.562,1.493-10.055-2.681-11.79c-1.269-0.528-2.77-0.712-4.336-0.647c0.345-1.118,0.532-2.341,0.678-3.61    c0.692-5.987,0.06-12.283,0.1-18.315c0.021-3.281-0.225-6.434-0.501-9.696c-0.107-1.274,0.034-2.689-0.051-4.024    c1.712-0.311,3.166-0.995,3.98-2.366c1.682-2.833,2.404-11.323-0.303-13.74c-1.273-1.136-3.127-1.732-5.219-1.978    c0.657-2.934,0.255-6.678,0.353-9.027c0.266-6.387,0.204-12.683,0.016-19.069c-0.072-2.472-0.628-4.832-0.669-7.318    c-0.035-2.126-0.696-5.818-0.309-7.913c0.041-0.219,0.049-0.441,0.04-0.663c3.074-1.059,2.822-3.575,2.851-6.392    c0.034-3.21,0.921-7.367-1.531-9.998c-0.379-0.407-0.793-0.714-1.228-0.955c0.13,0.071,0.399-6.492,0.455-7.17    c0.574-7.043,11.237-9.348,16.772-10.424c4.423-0.86,8.233,0.302,12.399,1.586c0.631,0.195,1.232,0.44,1.824,0.701    c1.298,1.464,5.111,2.468,6.303,4.021c1.588,2.068,2.85,4.352,3.611,6.838c1.928,6.293-2.834,10.376-2.376,16.849    c0.215,3.036,1.73,4.224,3.756,4.818c-1.622,11.265-0.681,23.177-0.241,34.394c0.118,3.011-1.455,7.42-0.474,10.542    c-2.057,0.264-4.072,0.652-5.621,1.295c-4.815,2-3.522,7.972-3.256,12.012c0.061,0.935,0.688,2.145,1.746,2.292    c1.432,0.2,2.893,0.363,4.363,0.508c-1.982,10.883-2.212,21.421-2.412,32.607c-0.038,2.163-0.178,4.853,0.864,6.847    c-0.16,0.032-0.313,0.058-0.474,0.091c-4.245,0.869-7.191,1.255-7.204,6.321c-0.006,2.18,0.589,4.396,0.75,6.555    c0.135,1.811-0.08,3.493,1.53,4.764c1.317,1.041,3.096,1.001,4.746,0.878c-0.554,6.452-1.059,12.743-1.151,19.296    c-0.114,8.06-1.263,16.965-0.238,25.012c-1.143,0.121-2.308,0.269-3.521,0.398c-0.961,0.102-1.688,0.579-1.996,1.519    c-1.345,4.106-1.341,11.396,4.066,11.957c4.523,0.47,9.265,0.23,13.842,0.614c4.529,0.381,9.16,1.142,13.722,1.087    c3.501-0.043,8.704-0.121,11.669-2.218c2.909-2.055,2.181-4.907,2.568-8.086c0.278-2.288,0.867-4.872-1.67-6.128    c-0.703-0.349-1.57-0.463-2.494-0.449c1.842-6.534,0.38-14.408,0.172-20.906c-0.143-4.432-0.312-9.035-0.758-13.439    c-0.31-3.063,0.326-6.569-0.626-9.434c3.089-1.371,4.038-4.254,4.16-8.045c0.114-3.562,1.493-10.055-2.681-11.79    c-1.269-0.528-2.769-0.712-4.336-0.647c0.345-1.118,0.531-2.341,0.678-3.61c0.692-5.987,0.06-12.282,0.1-18.315    c0.021-3.281-0.225-6.434-0.501-9.696c-0.107-1.274,0.033-2.689-0.052-4.024c1.712-0.311,3.166-0.995,3.98-2.366    c1.682-2.833,2.404-11.323-0.303-13.74c-1.273-1.136-3.127-1.732-5.219-1.978c0.657-2.934,0.255-6.678,0.353-9.028    c0.265-6.387,0.204-12.683,0.016-19.069c-0.072-2.472-0.628-4.832-0.669-7.318c-0.035-2.126-0.697-5.818-0.309-7.913    c0.041-0.219,0.049-0.441,0.04-0.663c3.074-1.059,2.822-3.575,2.851-6.392c0.033-3.21,0.92-7.367-1.531-9.998    c-0.38-0.407-0.794-0.715-1.229-0.955c0.096,0.052,0.432-6.377,0.513-7.087c0.87-7.686,12.535-9.057,18.391-9.688    c5.192-0.559,10.183,0.476,14.99,2.238c1.674,1.084,4.398,1.984,5.37,3.252c1.589,2.068,2.85,4.352,3.611,6.838    c1.928,6.293-2.834,10.376-2.376,16.849c0.215,3.036,1.73,4.224,3.756,4.818c-1.622,11.265-0.681,23.177-0.241,34.394    c0.118,3.011-1.455,7.42-0.474,10.542c-2.057,0.264-4.072,0.652-5.621,1.295c-4.815,2-3.522,7.972-3.257,12.012    c0.061,0.935,0.687,2.145,1.746,2.292c1.431,0.2,2.892,0.363,4.363,0.508c-1.982,10.883-2.212,21.421-2.413,32.607    c-0.038,2.163-0.178,4.853,0.864,6.847c-0.16,0.032-0.313,0.058-0.474,0.091c-4.245,0.869-7.192,1.255-7.204,6.321    c-0.006,2.18,0.589,4.396,0.75,6.555c0.135,1.811-0.08,3.493,1.53,4.764c1.317,1.041,3.096,1.001,4.746,0.878    c-0.554,6.452-1.058,12.743-1.151,19.296c-0.114,8.06-1.263,16.965-0.238,25.012c-1.143,0.121-2.308,0.269-3.521,0.398    c-0.959,0.102-1.688,0.579-1.996,1.519c-1.345,4.106-1.34,11.395,4.067,11.957c4.522,0.47,9.265,0.23,13.842,0.614    c4.53,0.381,9.16,1.142,13.723,1.087c3.501-0.043,8.704-0.121,11.669-2.218c2.909-2.055,2.18-4.907,2.568-8.086    c0.278-2.288,0.867-4.872-1.67-6.128c-0.701-0.349-1.57-0.463-2.494-0.449c1.842-6.534,0.381-14.408,0.173-20.906    c-0.143-4.432-0.312-9.035-0.759-13.439c-0.31-3.063,0.326-6.569-0.625-9.434c3.089-1.371,4.038-4.254,4.16-8.045    c0.114-3.562,1.493-10.055-2.681-11.79c-1.269-0.528-2.77-0.712-4.336-0.647c0.345-1.118,0.532-2.341,0.678-3.61    c0.692-5.987,0.06-12.282,0.1-18.315c0.022-3.281-0.225-6.434-0.501-9.696c-0.107-1.274,0.034-2.689-0.051-4.024    c1.712-0.311,3.166-0.995,3.98-2.366c1.682-2.833,2.404-11.323-0.303-13.74c-1.273-1.136-3.127-1.732-5.219-1.978    c0.657-2.934,0.255-6.678,0.353-9.028c0.266-6.387,0.204-12.683,0.016-19.069c-0.072-2.472-0.628-4.832-0.669-7.318    c-0.035-2.126-0.696-5.818-0.309-7.913c0.041-0.219,0.049-0.441,0.04-0.663c3.074-1.059,2.822-3.575,2.851-6.392    c0.034-3.21,0.921-7.367-1.531-9.998c-0.379-0.407-0.793-0.714-1.228-0.955c0.13,0.071,0.399-6.492,0.455-7.17    c0.574-7.043,11.237-9.348,16.772-10.424c4.423-0.86,8.233,0.302,12.399,1.586c0.631,0.195,1.232,0.44,1.824,0.701    c1.298,1.464,5.111,2.468,6.303,4.021c1.588,2.068,2.85,4.353,3.611,6.838c1.928,6.293-2.834,10.376-2.376,16.849    c0.215,3.036,1.73,4.224,3.756,4.818c-1.622,11.265-0.681,23.177-0.241,34.394c0.118,3.011-1.455,7.42-0.474,10.542    c-2.057,0.264-4.072,0.652-5.621,1.295c-4.815,2-3.522,7.972-3.256,12.012c0.061,0.935,0.688,2.145,1.746,2.292    c1.432,0.2,2.893,0.363,4.363,0.508c-1.982,10.883-2.212,21.421-2.412,32.607c-0.039,2.163-0.178,4.853,0.864,6.847    c-0.16,0.032-0.313,0.058-0.474,0.091c-4.245,0.869-7.191,1.255-7.204,6.321c-0.006,2.18,0.589,4.396,0.75,6.555    c0.135,1.811-0.08,3.493,1.53,4.764c1.317,1.041,3.096,1.001,4.746,0.878c-0.554,6.452-1.059,12.743-1.151,19.296    c-0.114,8.06-1.263,16.965-0.238,25.012c-1.143,0.121-2.308,0.269-3.521,0.398c-0.961,0.102-1.688,0.579-1.996,1.519    c-1.345,4.106-1.341,11.396,4.066,11.957c4.523,0.47,9.265,0.23,13.842,0.614c4.529,0.381,9.16,1.142,13.722,1.087    c3.501-0.043,8.704-0.121,11.669-2.218c2.909-2.055,2.181-4.907,2.568-8.086C512.017,419.768,512.605,417.185,510.068,415.928z     M500.365,243.166c0.034,1.094,0.284,4.073-0.114,5.392c-0.098,0.001-0.21,0.005-0.35,0.016c-0.712-0.076-1.427-0.096-2.143-0.06    c-1.325,0.08-2.649,0.477-3.949,0.694c-4.057,0.678-7.843,0.446-11.871-0.436c-2.128-0.466-3.374-0.621-3.138-3.275    c0.282-3.172,1.98-3.647,4.242-4.084c0.048-0.009,0.094-0.015,0.143-0.023c0.808-0.005,1.616-0.019,2.422-0.066    c3.111-0.18,6.19-0.888,9.327-1.002C497.934,240.212,500.243,239.249,500.365,243.166z M482.561,279.872    c-0.438-8.589,0.545-17.297-0.479-25.863c0.635,0.084,1.274,0.173,1.905,0.293c2.685,0.508,4.943,0.826,7.699,0.493    c1.56-0.189,3.278-0.278,4.971-0.43c-0.049,1.006,0.218,1.601,0.385,3.27c0.243,2.443-0.235,4.973-0.053,7.432    c0.294,3.992,0.462,7.943,0.716,11.952c0.324,5.066,0.231,10.172-0.144,15.251c-0.053,0.717-0.066,4.41-0.63,4.857    c-0.419,0.331-5.757,0.423-6.88,0.416c-1.326-0.008-3.387,0.098-4.642-0.52c-3.126-1.541-2.187-2.024-2.003-4.33    C483.761,288.276,482.783,284.226,482.561,279.872z M497.876,147.374c1.008,1.458-0.699,6.755-2.004,7.462    c-2.15,1.164-5.862,0.079-8.146-0.115c-2.741-0.234-5.062-0.737-7.703-1.257c-1.953-0.386-1.965,0.376-2.696-1.565    c-0.223-0.591-0.331-2.038-0.121-2.592c0.82-2.153,3.859-2.66,6.578-2.824c2.211-0.019,4.291,0.059,6.54-0.079    C492.246,146.285,496.748,145.743,497.876,147.374z M479.358,196.671c-0.377-4.898-0.292-10.066-0.16-14.972    c0.129-4.796,0.18-9.668,0.635-14.431c0.269-2.815,0.464-5.475,0.163-8.18c0.313,0.021,0.618,0.045,0.904,0.079    c2.628,0.307,5.232,0.276,7.855,0.415c1.928,0.102,4.445,0.352,6.783,0.119c0.063,0.101,0.123,0.203,0.208,0.304    c0.893,1.053,0.502,6.689,0.647,8.205c0.483,5.078,0.114,10.395-0.101,15.484c-0.193,4.598-0.634,9.087-1.567,13.58    c-0.637,3.07-0.713,3.294-3.967,3.878c-2.083,0.376-4.561,0.24-6.632,0.079c-0.776-0.06-3.313-0.024-4.441-0.534    C480.344,200.647,479.346,196.508,479.358,196.671z M497.153,130.309c-0.186,3.12-1.96,8.026-1.333,11.449    c-1.786-0.07-3.722,0.152-5.614,0.542c-3.058-0.305-6.163-0.307-9.153,0.113c0.804-3.23-1.289-8.03-2.4-10.258    c-0.532-1.066-1.36-2.197-2.367-3.185c-1.501-3.559-7.927-4.892-11.381-3.995c-1.567,0.407-4.415,1.754-6.411,3.484    c-1.785,0.94-3.348,2.223-4.067,3.297c-1.447,2.159-3.108,6.785-2.574,10.013c-1.894-0.126-3.986,0.114-6.019,0.534    c-3.058-0.305-6.163-0.307-9.153,0.113c0.803-3.23-1.289-8.03-2.4-10.258c-0.395-0.793-0.958-1.62-1.631-2.4    c-1.672-3.813-8.472-5.71-12.289-5.703c-4.419,0.008-9.455,2.057-12.511,5.349c-1.102,0.764-2.012,1.608-2.511,2.353    c-1.447,2.159-3.109,6.785-2.574,10.013c-1.894-0.126-3.987,0.114-6.019,0.534c-3.058-0.305-6.164-0.307-9.153,0.113    c0.804-3.23-1.289-8.03-2.4-10.258c-0.106-0.214-0.227-0.431-0.356-0.648c-0.823-6.796-14.763-8.53-18.513-2.995    c-1.743,0.936-3.263,2.19-3.969,3.244c-1.448,2.159-3.109,6.785-2.574,10.013c-1.894-0.126-3.986,0.114-6.019,0.534    c-3.058-0.305-6.163-0.307-9.153,0.113c0.804-3.23-1.289-8.03-2.4-10.258c-0.395-0.793-0.958-1.62-1.631-2.4    c-1.672-3.813-8.472-5.71-12.289-5.703c-4.419,0.008-9.455,2.057-12.511,5.349c-1.103,0.764-2.012,1.608-2.511,2.353    c-1.447,2.159-3.109,6.785-2.574,10.013c-1.894-0.126-3.986,0.114-6.019,0.534c-3.058-0.305-6.164-0.307-9.153,0.113    c0.804-3.23-1.289-8.03-2.4-10.258c-0.532-1.066-1.36-2.197-2.367-3.185c-1.501-3.559-7.927-4.892-11.381-3.995    c-1.567,0.407-4.415,1.754-6.411,3.484c-1.785,0.94-3.348,2.223-4.067,3.297c-1.447,2.159-3.109,6.785-2.574,10.013    c-1.894-0.126-3.986,0.114-6.019,0.534c-3.058-0.305-6.163-0.307-9.153,0.113c0.804-3.23-1.289-8.03-2.4-10.258    c-0.395-0.793-0.958-1.62-1.631-2.4c-1.672-3.813-8.472-5.71-12.289-5.703c-4.419,0.008-9.455,2.057-12.511,5.349    c-1.102,0.764-2.012,1.608-2.511,2.353c-1.447,2.159-3.108,6.785-2.574,10.013c-1.894-0.126-3.986,0.114-6.019,0.534    c-3.058-0.305-6.163-0.307-9.153,0.113c0.804-3.23-1.289-8.03-2.4-10.258c-0.272-0.543-0.626-1.104-1.034-1.655    c0.388-3.218-6.08-5.453-8.626-5.645c-4.642-0.347-9.628,0.98-12.761,4.214c-1.328,0.843-2.438,1.829-3.011,2.685    c-1.448,2.159-3.109,6.785-2.574,10.013c-1.894-0.126-3.987,0.114-6.019,0.534c-3.058-0.305-6.163-0.307-9.153,0.113    c0.803-3.23-1.289-8.03-2.401-10.258c-0.395-0.793-0.958-1.62-1.631-2.4c-1.672-3.813-8.472-5.71-12.289-5.703    c-4.419,0.008-9.455,2.057-12.511,5.349c-1.103,0.764-2.012,1.608-2.511,2.353c-1.447,2.159-3.108,6.785-2.574,10.013    c-1.894-0.126-3.986,0.114-6.019,0.534c-3.058-0.305-6.163-0.307-9.153,0.113c0.804-3.23-1.289-8.03-2.4-10.258    c-0.532-1.066-1.36-2.197-2.367-3.185c-1.501-3.559-7.927-4.892-11.381-3.995c-1.567,0.407-4.415,1.754-6.411,3.484    c-1.785,0.94-3.348,2.223-4.067,3.297c-1.447,2.159-3.109,6.785-2.574,10.013c-1.894-0.126-3.986,0.114-6.019,0.534    c-3.058-0.305-6.163-0.307-9.153,0.113c0.804-3.23-1.289-8.03-2.4-10.258c-0.395-0.793-0.958-1.62-1.631-2.4    c-1.672-3.813-8.472-5.71-12.289-5.703c-4.419,0.008-9.456,2.057-12.511,5.349c-1.102,0.764-2.012,1.608-2.511,2.353    c-1.447,2.159-3.109,6.785-2.574,10.013c-1.894-0.126-3.986,0.114-6.019,0.534c-3.058-0.305-6.163-0.307-9.153,0.113    c0.24-0.963,0.212-2.065,0.04-3.195c0.317-5.738-0.327-11.738-0.618-17.404c-0.078-1.509-0.15-3.023-0.218-4.538    c5.191,0.412,10.471-0.057,15.793-0.007c7.938,0.075,15.91-0.663,23.862-0.712c19.708-0.12,39.381,0.112,59.082,0.131    c19.731,0.02,39.442,0.972,59.157,1.127c9.904,0.078,19.839,0.319,29.745,0.52c7.653,0.156,15.774,1.438,23.518,0.87    c4.136,0.219,8.381-0.179,12.34-0.455c9.06-0.631,18.205-0.721,27.279-0.966c19.8-0.537,39.614,0.317,59.408,0.145    c19.974-0.173,39.945-0.826,59.919-0.774c18.622,0.05,37.174,2.255,55.774,2.457c19.383,0.21,38.783,2.143,58.188,2.342    C497.278,124.756,497.317,127.551,497.153,130.309z M474.467,193.1c0.011,1.73-0.284,4.62,0.069,7.133    c-6.379-0.729-12.87-0.727-19.303-0.514c1.082-3.833,1.053-8.09,1.362-11.885c0.554-6.826,0.982-13.939,0.291-20.768    c-0.248-2.451,0.443-6.785-0.972-9.075c0.011-0.01,0.025-0.017,0.036-0.027c2.463-2.139,3.045-7.919,2.602-10.837    c-0.303-2.006-1.246-3.33-2.569-4.172c1.378-2.141,1.3-5.356,2.222-7.6c1.211-2.951,4.859-3.314,6.975-5.432    c0.192-0.057,0.384-0.119,0.575-0.166c1.187-0.295,2.256-0.175,3.278,0.126c0.875,0.421,1.814,0.707,2.715,1.321    c2.292,1.564,2.817,4.673,3.549,7.024c0.355,1.144,0.664,2.023,0.773,3.222c0.06,0.657-0.031,1.431,0.156,2.101    c-2.421,0.988-3.654,2.6-3.979,5.852c-0.282,2.824-1.222,6.655,1.768,8.553c0.639,0.405,1.419,0.639,2.249,0.79    C474.197,170.087,474.396,181.605,474.467,193.1z M434.987,196.671c-0.377-4.898-0.292-10.066-0.159-14.972    c0.129-4.796,0.18-9.668,0.635-14.431c0.269-2.815,0.464-5.475,0.163-8.18c0.313,0.021,0.618,0.045,0.904,0.079    c2.627,0.307,5.232,0.276,7.854,0.415c1.928,0.102,4.445,0.352,6.783,0.119c0.063,0.101,0.123,0.203,0.209,0.304    c0.893,1.053,0.502,6.689,0.646,8.205c0.483,5.078,0.115,10.395-0.101,15.484c-0.193,4.598-0.634,9.087-1.567,13.58    c-0.283,1.359-0.456,2.159-0.842,2.681c-0.208,0.009-0.419,0.019-0.627,0.028c-4.45,0.207-8.905,0.295-13.364,0.35    C435.65,199.317,434.977,196.537,434.987,196.671z M451.5,154.834c-2.15,1.164-5.862,0.079-8.145-0.115    c-2.741-0.234-5.062-0.737-7.703-1.257c-1.953-0.386-1.965,0.376-2.697-1.565c-0.223-0.591-0.331-2.038-0.121-2.592    c0.82-2.153,3.859-2.66,6.578-2.824c2.211-0.019,4.29,0.059,6.539-0.079c1.923-0.118,6.425-0.66,7.551,0.971    C454.512,148.831,452.804,154.128,451.5,154.834z M430.096,193.1c0.01,1.765-0.298,4.737,0.091,7.285    c-6.778,0.055-13.558,0.098-20.325,0.402c-1.358,0.061-2.726,0.097-4.088,0.147c1.481-4.128,1.393-8.901,1.733-13.099    c0.554-6.826,0.982-13.939,0.291-20.768c-0.248-2.451,0.444-6.785-0.972-9.075c0.011-0.01,0.025-0.017,0.036-0.027    c2.463-2.139,3.045-7.919,2.603-10.837c-0.304-2.006-1.246-3.33-2.569-4.172c1.379-2.141,1.3-5.356,2.221-7.6    c0.425-1.038,1.155-1.753,2.012-2.339c1.827-0.923,3.589-1.74,5.598-2.411c2.33-0.777,5.23-1.062,7.997-0.695    c0.856,0.406,1.773,0.692,2.654,1.294c2.292,1.564,2.817,4.673,3.549,7.024c0.355,1.144,0.663,2.023,0.773,3.222    c0.06,0.657-0.031,1.431,0.156,2.101c-2.421,0.988-3.654,2.6-3.979,5.852c-0.282,2.824-1.222,6.655,1.768,8.553    c0.638,0.405,1.419,0.639,2.248,0.79C429.826,170.087,430.025,181.605,430.096,193.1z M385.898,196.671    c-0.377-4.898-0.292-10.066-0.16-14.972c0.129-4.796,0.18-9.668,0.635-14.431c0.269-2.815,0.464-5.475,0.162-8.18    c0.313,0.021,0.618,0.045,0.904,0.079c2.627,0.307,5.232,0.276,7.854,0.415c1.928,0.102,4.445,0.352,6.783,0.119    c0.063,0.101,0.123,0.203,0.209,0.304c0.893,1.053,0.502,6.689,0.647,8.205c0.483,5.078,0.114,10.395-0.101,15.484    c-0.193,4.598-0.634,9.087-1.567,13.58c-0.638,3.07-0.713,3.294-3.967,3.878c-0.145,0.026-0.302,0.033-0.45,0.053    c-1.65,0.038-3.298,0.08-4.95,0.109c-0.419-0.026-0.837-0.052-1.232-0.083c-0.776-0.06-3.313-0.024-4.441-0.534    C386.883,200.647,385.885,196.508,385.898,196.671z M402.41,154.834c-2.15,1.164-5.861,0.079-8.145-0.115    c-2.741-0.234-5.062-0.737-7.703-1.257c-1.954-0.386-1.965,0.376-2.697-1.565c-0.223-0.591-0.331-2.038-0.121-2.592    c0.82-2.153,3.859-2.66,6.578-2.824c2.211-0.019,4.29,0.059,6.539-0.079c1.923-0.118,6.425-0.66,7.552,0.971    C405.422,148.831,403.715,154.128,402.41,154.834z M381.007,193.1c0.012,2.017-0.395,5.614,0.302,8.349    c-3.077,0.026-6.151,0.045-9.214,0.062c-3.234,0.018-6.469,0.178-9.701,0.372c1.876-4.334,1.762-9.521,2.13-14.049    c0.554-6.826,0.982-13.939,0.291-20.768c-0.248-2.451,0.444-6.785-0.972-9.075c0.011-0.01,0.025-0.017,0.036-0.027    c2.463-2.139,3.045-7.919,2.602-10.837c-0.303-2.006-1.246-3.33-2.569-4.172c1.379-2.141,1.3-5.356,2.222-7.6    c1.149-2.799,4.492-3.268,6.639-5.116c0.963-0.221,1.947-0.349,2.978-0.274c0.824,0.378,1.697,0.665,2.538,1.239    c2.292,1.564,2.817,4.673,3.549,7.024c0.355,1.144,0.663,2.023,0.773,3.222c0.06,0.657-0.031,1.431,0.156,2.101    c-2.421,0.988-3.654,2.6-3.979,5.852c-0.282,2.824-1.221,6.655,1.768,8.553c0.638,0.405,1.42,0.639,2.248,0.79    C380.736,170.087,380.935,181.605,381.007,193.1z M342.913,196.671c-0.377-4.898-0.292-10.066-0.161-14.972    c0.129-4.796,0.18-9.668,0.635-14.431c0.269-2.815,0.464-5.475,0.162-8.18c0.313,0.021,0.618,0.045,0.904,0.079    c2.627,0.307,5.232,0.276,7.854,0.415c1.928,0.102,4.445,0.352,6.783,0.119c0.063,0.101,0.123,0.203,0.208,0.304    c0.893,1.053,0.502,6.689,0.646,8.205c0.484,5.078,0.115,10.395-0.1,15.484c-0.193,4.598-0.634,9.087-1.567,13.58    c-0.638,3.07-0.713,3.294-3.967,3.878c-2.083,0.376-4.56,0.24-6.632,0.079c-0.777-0.06-3.313-0.024-4.441-0.534    C343.899,200.647,342.901,196.508,342.913,196.671z M359.426,154.834c-2.15,1.164-5.862,0.079-8.145-0.115    c-2.743-0.234-5.062-0.737-7.703-1.257c-1.954-0.386-1.965,0.376-2.697-1.565c-0.223-0.591-0.331-2.038-0.121-2.592    c0.82-2.153,3.858-2.66,6.578-2.824c2.211-0.019,4.29,0.059,6.539-0.079c1.923-0.118,6.425-0.66,7.552,0.971    C362.438,148.831,360.731,154.128,359.426,154.834z M178.351,147.128c-0.303-2.006-1.246-3.33-2.569-4.172    c1.378-2.141,1.3-5.356,2.222-7.6c0.987-2.405,3.596-3.089,5.673-4.406c1.604-0.492,3.262-0.826,5.083-0.798    c1.027,0.016,2.003,0.218,2.962,0.477c0.346,0.163,0.692,0.343,1.033,0.575c2.292,1.564,2.817,4.673,3.549,7.024    c0.355,1.144,0.664,2.023,0.773,3.222c0.06,0.657-0.031,1.431,0.156,2.101c-2.421,0.988-3.654,2.6-3.979,5.852    c-0.282,2.824-1.221,6.655,1.768,8.553c0.638,0.405,1.419,0.639,2.248,0.79c-1.362,7.473-1.738,15.024-1.816,22.594    c-0.377-0.02-0.755-0.032-1.131-0.057c-5.43-0.364-12.079-1.713-17.486,0.192c0.266-4.814,0.329-9.681-0.15-14.413    c-0.248-2.451,0.443-6.785-0.972-9.075c0.011-0.01,0.024-0.017,0.036-0.027C178.211,155.825,178.793,150.046,178.351,147.128z     M176.393,187.835c0.052-0.637,0.101-1.277,0.149-1.918c2.273,0.467,4.855,0.503,7.031,0.549c3.86,0.079,7.696,0.569,11.557,0.689    c7.787,0.242,15.502,0.16,23.293,0.089c14.131-0.127,28.272-0.476,42.436-0.474c14.031,0.002,28.023-0.167,42.027-0.2    c7.215-0.017,14.304,0.367,21.503,0.672c4.075,0.172,9.259,1.351,13.602,0.691c0.008,1.722,0.019,3.444,0.031,5.166    c0.015,2.353-0.545,6.855,0.746,9.631c-0.393-0.045-0.759-0.079-1.07-0.091c-4.153-0.158-8.284-0.444-12.44-0.444    c-6.775,0-13.517-0.293-20.274-0.261c-15.153,0.071-30.343-1.239-45.469-0.756c-15.247,0.488-30.486,0.768-45.752,0.772    c-13.314,0.002-26.516-0.421-39.721,0.462C176.169,197.977,176.011,192.546,176.393,187.835z M201,159.087    c0.313,0.021,0.618,0.045,0.904,0.079c2.627,0.307,5.232,0.276,7.854,0.415c1.928,0.102,4.445,0.352,6.783,0.119    c0.063,0.101,0.123,0.203,0.209,0.304c0.893,1.053,0.502,6.689,0.646,8.205c0.405,4.253,0.212,8.673,0.012,12.987    c-0.337,0.001-0.674,0.009-1.011,0.009c-5.393,0.006-10.792,0.309-16.188,0.277c0.124-4.726,0.181-9.523,0.629-14.215    C201.107,164.452,201.301,161.792,201,159.087z M216.876,154.834c-2.15,1.164-5.861,0.079-8.145-0.115    c-2.741-0.234-5.062-0.737-7.703-1.257c-1.953-0.386-1.965,0.376-2.696-1.565c-0.223-0.591-0.331-2.038-0.121-2.592    c0.82-2.153,3.859-2.66,6.578-2.824c2.211-0.019,4.29,0.059,6.541-0.079c1.922-0.118,6.425-0.66,7.552,0.971    C219.888,148.831,218.181,154.128,216.876,154.834z M223.93,147.128c-0.304-2.006-1.246-3.33-2.569-4.172    c1.378-2.141,1.3-5.356,2.221-7.6c0.425-1.038,1.155-1.753,2.012-2.339c1.827-0.923,3.589-1.74,5.598-2.411    c2.33-0.777,5.23-1.062,7.997-0.695c0.858,0.406,1.774,0.692,2.655,1.294c2.291,1.564,2.817,4.673,3.548,7.024    c0.355,1.144,0.663,2.023,0.773,3.222c0.06,0.657-0.031,1.431,0.156,2.101c-2.421,0.988-3.654,2.6-3.979,5.852    c-0.283,2.824-1.222,6.655,1.768,8.553c0.638,0.405,1.419,0.639,2.249,0.79c-1.329,7.29-1.72,14.655-1.81,22.041    c-7.376,0.135-14.747,0.286-22.118,0.361c0.251-4.708,0.302-9.46-0.167-14.084c-0.248-2.451,0.444-6.785-0.972-9.075    c0.011-0.01,0.025-0.017,0.036-0.027C223.79,155.825,224.372,150.046,223.93,147.128z M250.09,159.087    c0.313,0.021,0.618,0.045,0.904,0.079c2.627,0.307,5.232,0.276,7.855,0.415c1.928,0.102,4.445,0.352,6.783,0.119    c0.063,0.101,0.122,0.203,0.208,0.304c0.893,1.053,0.502,6.689,0.646,8.205c0.386,4.053,0.229,8.255,0.04,12.374    c-2.163,0.014-4.325,0.032-6.49,0.033c-3.575,0.001-7.148,0.036-10.719,0.089c0.112-4.474,0.187-9.001,0.61-13.437    C250.196,164.452,250.39,161.792,250.09,159.087z M265.965,154.834c-2.15,1.164-5.862,0.079-8.146-0.115    c-2.741-0.234-5.062-0.737-7.703-1.257c-1.953-0.386-1.965,0.376-2.697-1.565c-0.223-0.591-0.331-2.038-0.121-2.592    c0.82-2.153,3.858-2.66,6.577-2.824c2.211-0.019,4.291,0.059,6.541-0.079c1.923-0.118,6.425-0.66,7.552,0.971    C268.977,148.831,267.27,154.128,265.965,154.834z M273.019,147.128c-0.303-2.006-1.246-3.33-2.569-4.172    c1.379-2.141,1.3-5.356,2.222-7.6c1.212-2.951,4.859-3.314,6.975-5.432c0.192-0.057,0.384-0.119,0.575-0.166    c1.187-0.295,2.256-0.175,3.278,0.126c0.875,0.421,1.814,0.707,2.715,1.321c2.292,1.564,2.817,4.673,3.548,7.024    c0.355,1.144,0.663,2.023,0.773,3.222c0.06,0.657-0.031,1.431,0.156,2.101c-2.421,0.988-3.654,2.6-3.979,5.852    c-0.282,2.824-1.221,6.655,1.768,8.553c0.638,0.405,1.42,0.639,2.249,0.79c-1.306,7.162-1.699,14.398-1.799,21.653    c-5.791,0.037-11.583,0.101-17.381,0.153c0.223-4.512,0.251-9.058-0.197-13.487c-0.248-2.451,0.444-6.785-0.972-9.075    c0.011-0.01,0.025-0.017,0.036-0.027C272.879,155.825,273.461,150.046,273.019,147.128z M294.461,159.087    c0.313,0.021,0.618,0.045,0.904,0.079c2.627,0.307,5.232,0.276,7.855,0.415c1.928,0.102,4.445,0.352,6.783,0.119    c0.063,0.101,0.123,0.203,0.208,0.304c0.893,1.053,0.502,6.689,0.647,8.205c0.386,4.048,0.229,8.246,0.041,12.361    c-2.662-0.077-5.329-0.14-8.011-0.166c-3.062-0.029-6.125-0.028-9.189-0.021c0.109-4.369,0.189-8.785,0.602-13.113    C294.567,164.452,294.762,161.792,294.461,159.087z M310.337,154.834c-2.15,1.164-5.862,0.079-8.145-0.115    c-2.741-0.234-5.062-0.737-7.703-1.257c-1.953-0.386-1.965,0.376-2.697-1.565c-0.223-0.591-0.331-2.038-0.121-2.592    c0.82-2.153,3.859-2.66,6.577-2.824c2.211-0.019,4.291,0.059,6.541-0.079c1.923-0.118,6.425-0.66,7.552,0.971    C313.349,148.831,311.641,154.128,310.337,154.834z M338.002,181.868c-4.287-1.064-9.3-0.619-13.612-0.8    c-2.835-0.119-5.654-0.233-8.471-0.336c0.231-4.57,0.259-9.179-0.195-13.665c-0.248-2.451,0.443-6.785-0.972-9.075    c0.011-0.01,0.025-0.017,0.036-0.027c2.463-2.139,3.045-7.919,2.603-10.837c-0.303-2.006-1.246-3.33-2.569-4.172    c1.379-2.141,1.3-5.356,2.221-7.6c0.425-1.038,1.155-1.753,2.012-2.339c1.828-0.923,3.589-1.74,5.598-2.411    c2.33-0.777,5.23-1.062,7.997-0.695c0.858,0.406,1.774,0.692,2.654,1.294c2.291,1.564,2.817,4.673,3.549,7.024    c0.355,1.144,0.663,2.023,0.773,3.222c0.06,0.657-0.031,1.431,0.156,2.101c-2.421,0.988-3.654,2.6-3.979,5.852    c-0.283,2.824-1.222,6.655,1.768,8.553c0.638,0.405,1.419,0.639,2.248,0.79C338.425,166.394,338.069,174.121,338.002,181.868z     M154.785,196.671c-0.377-4.898-0.292-10.066-0.161-14.972c0.129-4.796,0.18-9.668,0.635-14.431    c0.269-2.815,0.464-5.475,0.163-8.18c0.313,0.021,0.618,0.045,0.904,0.079c2.627,0.307,5.232,0.276,7.854,0.415    c1.928,0.102,4.445,0.352,6.783,0.119c0.063,0.101,0.123,0.203,0.209,0.304c0.893,1.053,0.501,6.689,0.646,8.205    c0.484,5.078,0.115,10.395-0.101,15.484c-0.193,4.598-0.634,9.087-1.567,13.58c-0.638,3.07-0.713,3.294-3.967,3.878    c-2.083,0.376-4.561,0.24-6.632,0.079c-0.503-0.04-1.74-0.04-2.859-0.172c-0.464-0.097-0.928-0.197-1.392-0.296    c-0.062-0.023-0.135-0.041-0.19-0.066C155.769,200.647,154.771,196.508,154.785,196.671z M171.297,154.834    c-2.15,1.164-5.862,0.079-8.145-0.115c-2.743-0.234-5.062-0.737-7.703-1.257c-1.954-0.386-1.965,0.376-2.697-1.565    c-0.223-0.591-0.331-2.038-0.121-2.592c0.82-2.153,3.858-2.66,6.577-2.824c2.211-0.019,4.291,0.059,6.541-0.079    c1.922-0.118,6.424-0.66,7.551,0.971C174.309,148.831,172.601,154.128,171.297,154.834z M149.892,193.1    c0.01,1.621-0.252,4.264,0.006,6.659c-1.209-0.164-2.43-0.273-3.67-0.284c-5.688-0.051-11.303,0.694-16.996,0.368    c-1.097-0.063-2.197-0.085-3.296-0.103c1.087-3.839,1.059-8.103,1.369-11.905c0.554-6.826,0.982-13.939,0.291-20.768    c-0.248-2.451,0.443-6.785-0.972-9.075c0.011-0.01,0.025-0.017,0.036-0.027c2.463-2.14,3.045-7.919,2.602-10.837    c-0.304-2.006-1.246-3.33-2.569-4.171c1.378-2.141,1.3-5.356,2.222-7.6c0.425-1.037,1.155-1.753,2.01-2.339    c1.827-0.923,3.589-1.74,5.598-2.411c2.33-0.777,5.231-1.062,7.997-0.695c0.858,0.406,1.774,0.692,2.654,1.294    c2.291,1.564,2.817,4.673,3.549,7.024c0.355,1.144,0.663,2.023,0.773,3.222c0.06,0.657-0.031,1.431,0.157,2.101    c-2.421,0.988-3.654,2.6-3.979,5.852c-0.282,2.824-1.222,6.655,1.768,8.553c0.638,0.405,1.419,0.639,2.248,0.79    C149.622,170.087,149.821,181.605,149.892,193.1z M105.694,196.671c-0.377-4.898-0.292-10.066-0.16-14.972    c0.129-4.796,0.18-9.668,0.635-14.431c0.269-2.815,0.464-5.475,0.163-8.18c0.313,0.021,0.618,0.045,0.904,0.079    c2.627,0.307,5.232,0.276,7.855,0.415c1.928,0.102,4.445,0.352,6.783,0.119c0.063,0.101,0.123,0.203,0.208,0.304    c0.893,1.053,0.502,6.689,0.647,8.205c0.483,5.078,0.114,10.395-0.101,15.484c-0.193,4.598-0.634,9.087-1.567,13.58    c-0.255,1.225-0.422,1.992-0.735,2.515c-4.711,0.157-9.43,0.52-14.15,0.757C106.476,199.806,105.684,196.525,105.694,196.671z     M122.208,154.834c-2.15,1.164-5.861,0.079-8.145-0.115c-2.741-0.234-5.062-0.737-7.703-1.257    c-1.953-0.386-1.965,0.376-2.696-1.565c-0.223-0.591-0.332-2.038-0.121-2.592c0.82-2.153,3.859-2.66,6.578-2.824    c2.211-0.019,4.291,0.059,6.541-0.079c1.923-0.118,6.425-0.66,7.552,0.971C125.22,148.831,123.513,154.128,122.208,154.834z     M100.803,193.1c0.011,1.844-0.327,5.006,0.146,7.625c-1.731,0.029-3.463,0.034-5.194-0.029c-4.824-0.177-9.644-0.13-14.464-0.032    c1.383-4.066,1.307-8.721,1.641-12.829c0.554-6.826,0.982-13.939,0.291-20.768c-0.248-2.451,0.444-6.785-0.972-9.075    c0.011-0.01,0.025-0.017,0.036-0.027c2.463-2.139,3.045-7.919,2.602-10.837c-0.303-2.006-1.246-3.33-2.569-4.172    c1.378-2.141,1.3-5.356,2.222-7.6c1.212-2.951,4.859-3.314,6.975-5.432c0.192-0.057,0.383-0.119,0.575-0.166    c1.187-0.295,2.256-0.175,3.278,0.126c0.875,0.421,1.814,0.707,2.715,1.321c2.292,1.564,2.817,4.673,3.549,7.024    c0.355,1.144,0.663,2.023,0.773,3.222c0.06,0.657-0.031,1.431,0.156,2.101c-2.421,0.988-3.654,2.6-3.979,5.852    c-0.282,2.824-1.222,6.655,1.768,8.553c0.638,0.405,1.419,0.639,2.249,0.79C100.533,170.087,100.733,181.605,100.803,193.1z     M61.323,196.671c-0.377-4.898-0.292-10.066-0.16-14.972c0.129-4.796,0.18-9.668,0.635-14.431c0.269-2.815,0.464-5.475,0.163-8.18    c0.313,0.021,0.618,0.045,0.904,0.079c2.627,0.307,5.232,0.276,7.854,0.415c1.928,0.102,4.445,0.352,6.783,0.119    c0.063,0.101,0.123,0.203,0.209,0.304c0.893,1.053,0.502,6.689,0.646,8.205c0.483,5.078,0.115,10.395-0.101,15.484    c-0.193,4.598-0.634,9.087-1.567,13.58c-0.511,2.464-0.665,3.093-2.387,3.549c-3.932,0.092-7.862,0.156-11.793,0.123    c-0.326-0.065-0.627-0.143-0.86-0.248C62.308,200.647,61.31,196.508,61.323,196.671z M77.835,154.834    c-2.15,1.164-5.861,0.079-8.145-0.115c-2.741-0.234-5.062-0.737-7.703-1.257c-1.953-0.386-1.965,0.376-2.696-1.565    c-0.223-0.591-0.331-2.038-0.121-2.592c0.82-2.153,3.859-2.66,6.578-2.824c2.211-0.019,4.29,0.059,6.54-0.079    c1.923-0.118,6.425-0.66,7.551,0.971C80.847,148.831,79.14,154.128,77.835,154.834z M56.432,193.1    c0.011,1.865-0.334,5.074,0.163,7.709c-4.911-0.184-9.798-0.474-14.765-0.402c-3.191,0.045-6.421-0.097-9.602,0.169    c1.353-4.045,1.284-8.662,1.616-12.742c0.554-6.826,0.982-13.939,0.291-20.768c-0.248-2.451,0.443-6.785-0.972-9.075    c0.011-0.01,0.024-0.017,0.036-0.027c2.463-2.14,3.045-7.919,2.603-10.837c-0.304-2.006-1.246-3.33-2.569-4.172    c1.378-2.141,1.3-5.356,2.221-7.6c0.425-1.037,1.154-1.753,2.01-2.339c1.828-0.923,3.589-1.74,5.598-2.411    c2.33-0.777,5.23-1.062,7.997-0.695c0.858,0.406,1.773,0.692,2.654,1.294c2.291,1.564,2.817,4.673,3.549,7.024    c0.355,1.144,0.663,2.023,0.773,3.222c0.06,0.657-0.031,1.431,0.156,2.101c-2.421,0.988-3.654,2.6-3.979,5.852    c-0.283,2.824-1.222,6.655,1.768,8.553c0.638,0.405,1.419,0.639,2.248,0.79C56.161,170.087,56.36,181.605,56.432,193.1z     M13.467,98.787c0.446-3.729,0.905-8.389,4.669-9.847c3.898-1.508,9.167-0.936,13.288-1.162    c10.031-0.551,20.107-0.311,30.122-0.033c9.023,0.25,18.16-0.27,27.2-0.362c9.317-0.094,18.63-0.456,27.925-0.801    c11.379-0.424,22.85,0.029,34.241,0.02c10.461-0.008,20.974-0.267,31.429,0.07c6.776,0.217,13.557,0.259,20.334,0.416    c3.255,0.075,6.527,0.703,9.791,0.941c9.502,0.697,18.974,0.075,28.488,0.328c11.332,0.348,22.525-0.339,33.844-0.67    c23.934-0.7,47.837-1.307,71.793-0.078c24.141,1.238,48.335,1.219,72.518,1.197c12.174-0.011,24.303,0.243,36.467,0.367    c11.584,0.118,23.179-0.505,34.735,0.51c1.24,0.109,2.634,0.355,3.893,0.54c1.572,0.229,2.799,0.169,2.684,2.031    c-0.101,1.641-0.456,3.322-0.391,4.968c0.088,2.24,0.19,4.489,0.281,6.74c-1.615,0-3.287,0.304-4.807,0.423    c-5.677,0.442-11.526,0.001-17.223,0.009c-9.078,0.012-18.083-0.408-27.148-0.739c-18.724-0.683-37.446-1.057-56.164-1.819    c-19.35-0.789-38.757-1.325-58.125-1.491c-18.213-0.157-36.433-1.915-54.673-0.947c-10.048,0.534-20.372,1.198-30.436,0.818    c-6.117-0.231-12.211-0.491-18.3-0.403c-6.83-0.545-13.808-0.487-20.521-0.537c-11.044-0.084-22.091-0.059-33.135-0.06    c-19.774-0.002-39.477-0.993-59.276-0.041c-8.785,0.422-17.552,1.266-26.34,1.579c-9.839,0.352-19.655-0.481-29.47-0.138    c-9.145,0.32-18.305,0.584-27.443,1.315c-3.467,0.277-6.926,0.5-10.396,0.777c-1.077,0.086-7.771,0.772-10.247,0.767    C13.161,101.905,13.28,100.343,13.467,98.787z M12.955,106.361c9.134,2.515,35.921-0.385,39.398-0.463    c10.142-0.229,20.311-0.885,30.464-1.284c9.051-0.355,18.263-1.273,27.309-0.992c10.552,0.327,21.191-0.225,31.756-0.205    c10.275,0.02,20.49,0.336,30.746,0.553c11.486,0.244,23.01-0.163,34.5-0.177c9.642-0.011,19.797,1.114,29.459,0.224    c2.007,0.04,4.002,0.065,5.967,0.098c8.429,0.145,16.754,0.319,25.186-0.028c18.789-0.775,37.793-0.316,56.562,0.591    c18.652,0.902,37.357,0.672,56.011,1.541c17.988,0.837,36.007,1.512,54.013,1.962c10.811,0.27,21.613,1.079,32.419,1.199    c5.439,0.06,10.88-0.02,16.318,0.019c3.168,0.023,6.317,0.121,9.479-0.05c1.341-0.071,2.951-0.439,4.405-0.329    c0.034,1.461,0.057,2.92,0.053,4.376c-0.002,1.112,0.018,2.23,0.044,3.35c-34.558-0.198-69.078-3.444-103.608-4.598    c-20.076-0.671-40.187,0.724-60.262,0.747c-19.473,0.023-38.919-0.009-58.385,0.04c-10.562,0.026-21.07,0.294-31.6,0.897    c-4.359,0.249-8.729,0.832-13.091,0.988c-1.042,0.037-2.11,0.123-3.188,0.219c-8.134-1.226-16.904-0.763-25.084-1.035    c-9.891-0.33-19.83-0.331-29.728-0.527c-19.743-0.393-39.528-1.217-59.286-0.991c-19.444,0.224-38.893,0.491-58.342,0.717    c-7.913,0.092-15.803,0.489-23.701,0.818c-5.813,0.242-11.916-0.216-17.749,0.457C12.93,111.775,12.888,109.067,12.955,106.361z     M10.201,151.898c-0.223-0.591-0.331-2.038-0.121-2.592c0.82-2.153,3.859-2.66,6.578-2.824c2.211-0.019,4.291,0.059,6.539-0.079    c1.923-0.118,6.425-0.66,7.552,0.971c1.008,1.458-0.699,6.755-2.004,7.462c-2.15,1.164-5.861,0.079-8.145-0.115    c-2.741-0.234-5.062-0.737-7.703-1.257C10.946,153.077,10.933,153.837,10.201,151.898z M12.233,196.671    c-0.377-4.898-0.292-10.066-0.16-14.972c0.129-4.796,0.179-9.668,0.635-14.431c0.269-2.815,0.464-5.475,0.163-8.18    c0.313,0.021,0.618,0.045,0.904,0.079c2.627,0.307,5.232,0.276,7.854,0.415c1.928,0.102,4.445,0.352,6.783,0.119    c0.063,0.101,0.123,0.203,0.208,0.304c0.893,1.053,0.502,6.689,0.647,8.205c0.483,5.078,0.114,10.395-0.101,15.484    c-0.195,4.598-0.634,9.087-1.567,13.58c-0.638,3.07-0.713,3.294-3.967,3.878c-1.727,0.311-3.711,0.268-5.525,0.154    c-1.642-0.403-3.547-0.985-5.333-1.06C12.86,199.168,12.223,196.541,12.233,196.671z M41.31,420.879    c0.884,1.568,0.275,4.55-0.841,5.56c-2.294,2.077-9.764,0.906-12.663,0.641c-2.783-0.253-5.589-0.506-8.369-0.769    c-3.272-0.31-6.508-0.606-9.805-0.643c-0.897-0.009-2.464,0.373-3.39,0.098c-1.478-0.44-2.297-2.298-1.406-3.894    c0.945-1.694,2.788-1.306,4.382-1.635c0.13-0.027,0.253-0.052,0.382-0.078c7.174,1.239,14.066,0.576,21.336,0.505    c2.399-0.024,4.807,0.234,7.164-0.342c1.081-0.264,1.503-0.78,2.522-0.17C40.913,420.326,41.141,420.576,41.31,420.879z     M36.837,386.367c0.148,6.484,1.293,12.946,1.114,19.449c-0.053,1.945-0.005,8.477-2.195,9.676    c-1.352,0.74-5.174-0.098-6.751-0.023c-5.87,0.284-11.874,0.582-17.725-0.327c-0.386-4.047,0.199-8.471,0.157-12.482    c-0.052-4.982-0.089-9.969-0.21-14.949c-0.129-5.32,0.784-10.442-0.588-15.417c3.111-0.139,6.147-0.107,9.293-0.17    c5.476-0.109,11.451,1.032,16.998,0.515C35.195,376.812,36.736,381.994,36.837,386.367z M39.174,356.598    c1.92,0.821,1.262,4.874,1.159,7.055c-0.234,4.974-5.268,4.021-9.068,3.78c-3.625-0.23-6.895-0.443-10.527-0.298    c-3.048,0.122-6.018-0.299-9.066,0.034c-3.73,0.407-5.195,1.048-5.63-2.834c-0.412-3.67-1.125-4.995,3.011-5.942    c2.566-0.588,5.843-1.754,8.484-1.525c2.416,0.208,4.483,1.127,7.037,0.996c1.719-0.088,3.468-0.279,5.173-0.632    C32.532,356.972,36.866,355.612,39.174,356.598z M12.474,335.645c-0.08-6.862,1.458-14.052,0.949-20.928    c4.908,0.354,9.902,0.479,14.664,0.537c1.395,0.017,3.364,0.293,5.419,0.443c-0.235,3.271,0.398,6.517,0.533,9.81    c0.178,4.363-0.019,8.743,0.119,13.11c0.11,3.454,1.155,9.704-1.008,12.045c-2.127,2.302-8.379,2.394-11.285,2.164    c-2.087-0.165-4.917-0.757-6.963-1.339c-2.074-0.591-1.298,0.612-2.236-1.421c-0.69-1.496-0.078-4.82-0.097-6.448    C12.539,340.962,12.506,338.304,12.474,335.645z M36.515,302.739c2.877,0.259,2.267,0.577,2.163,3.058    c-0.135,3.219,0.487,4.416-3.054,4.737c-4.51,0.408-9.396-0.129-13.878-0.5c-2.873-0.238-12.538,1.161-13.527-1.78    c-1.24-3.689,3.197-4.779,5.804-5.182c1.455-0.225,3.146-0.36,4.839-0.588c1.811,0.372,3.649,0.497,4.956,0.501    c1.635,0.006,4.459-0.015,7.017-0.463C32.659,302.565,34.515,302.559,36.515,302.739z M17.438,279.872    c-0.438-8.589,0.545-17.297-0.479-25.863c0.634,0.084,1.274,0.173,1.905,0.293c2.685,0.508,4.943,0.826,7.699,0.493    c1.56-0.189,3.278-0.278,4.971-0.43c-0.05,1.006,0.218,1.601,0.385,3.27c0.243,2.443-0.235,4.973-0.053,7.432    c0.294,3.992,0.462,7.943,0.717,11.952c0.322,5.066,0.231,10.172-0.144,15.251c-0.053,0.717-0.066,4.41-0.63,4.857    c-0.419,0.331-5.757,0.423-6.88,0.416c-1.327-0.008-3.387,0.098-4.642-0.52c-3.126-1.541-2.187-2.024-2.003-4.33    C18.636,288.276,17.66,284.226,17.438,279.872z M32.635,248.514c-1.325,0.08-2.649,0.477-3.949,0.694    c-4.057,0.678-7.843,0.446-11.871-0.436c-2.128-0.466-3.375-0.621-3.14-3.275c0.282-3.172,1.98-3.647,4.242-4.084    c0.048-0.009,0.095-0.015,0.143-0.023c0.808-0.005,1.616-0.019,2.422-0.066c3.113-0.18,6.19-0.888,9.327-1.002    c3-0.11,5.31-1.073,5.431,2.844c0.034,1.094,0.284,4.073-0.113,5.392c-0.098,0.001-0.21,0.005-0.35,0.016    C34.066,248.497,33.351,248.477,32.635,248.514z M107.31,420.879c0.883,1.568,0.274,4.55-0.841,5.56    c-2.294,2.077-9.764,0.906-12.663,0.641c-2.783-0.253-5.589-0.506-8.369-0.769c-3.272-0.31-6.508-0.606-9.805-0.643    c-0.897-0.009-2.463,0.373-3.39,0.098c-1.478-0.44-2.297-2.298-1.406-3.894c0.945-1.694,2.788-1.306,4.381-1.635    c0.13-0.027,0.253-0.052,0.382-0.078c7.174,1.239,14.066,0.576,21.336,0.505c2.399-0.024,4.807,0.234,7.164-0.342    c1.08-0.264,1.503-0.78,2.522-0.17C106.913,420.326,107.139,420.576,107.31,420.879z M102.835,386.367    c0.148,6.484,1.293,12.946,1.114,19.449c-0.053,1.945-0.005,8.477-2.195,9.676c-1.352,0.74-5.174-0.098-6.751-0.023    c-5.87,0.284-11.874,0.582-17.725-0.327c-0.386-4.047,0.199-8.471,0.157-12.482c-0.052-4.982-0.091-9.969-0.212-14.949    c-0.129-5.32,0.784-10.442-0.588-15.417c3.111-0.139,6.147-0.107,9.293-0.17c5.475-0.109,11.451,1.032,16.998,0.515    C101.193,376.812,102.735,381.994,102.835,386.367z M105.172,356.598c1.921,0.821,1.262,4.874,1.159,7.055    c-0.234,4.974-5.268,4.021-9.068,3.78c-3.625-0.23-6.895-0.443-10.527-0.298c-3.048,0.122-6.018-0.299-9.066,0.034    c-3.73,0.407-5.195,1.048-5.63-2.834c-0.412-3.67-1.125-4.995,3.011-5.942c2.566-0.588,5.841-1.754,8.484-1.525    c2.416,0.208,4.483,1.127,7.039,0.996c1.719-0.088,3.468-0.279,5.173-0.632C98.531,356.972,102.864,355.612,105.172,356.598z     M78.474,335.645c-0.081-6.862,1.458-14.052,0.948-20.928c4.908,0.354,9.902,0.479,14.664,0.537    c1.395,0.017,3.364,0.293,5.419,0.443c-0.235,3.271,0.398,6.517,0.533,9.81c0.178,4.363-0.019,8.743,0.119,13.11    c0.109,3.454,1.155,9.704-1.008,12.045c-2.127,2.302-8.379,2.394-11.285,2.164c-2.089-0.165-4.917-0.757-6.963-1.339    c-2.073-0.591-1.298,0.612-2.236-1.421c-0.69-1.496-0.078-4.82-0.097-6.448C78.538,340.962,78.504,338.304,78.474,335.645z     M102.514,302.739c2.877,0.259,2.267,0.577,2.163,3.058c-0.136,3.219,0.485,4.416-3.054,4.737c-4.51,0.408-9.396-0.129-13.878-0.5    c-2.874-0.238-12.538,1.161-13.527-1.78c-1.241-3.689,3.197-4.779,5.804-5.182c1.455-0.225,3.146-0.36,4.839-0.588    c1.811,0.372,3.649,0.497,4.956,0.501c1.635,0.006,4.459-0.015,7.017-0.463C98.658,302.565,100.514,302.559,102.514,302.739z     M83.436,279.872c-0.438-8.589,0.545-17.297-0.479-25.863c0.635,0.084,1.274,0.173,1.905,0.293    c2.685,0.508,4.943,0.826,7.699,0.493c1.56-0.189,3.278-0.278,4.971-0.43c-0.05,1.006,0.218,1.601,0.385,3.27    c0.243,2.443-0.235,4.973-0.053,7.432c0.294,3.992,0.462,7.943,0.716,11.952c0.324,5.066,0.231,10.172-0.144,15.251    c-0.053,0.717-0.066,4.41-0.63,4.857c-0.419,0.331-5.757,0.423-6.881,0.416c-1.326-0.008-3.387,0.098-4.642-0.52    c-3.126-1.541-2.187-2.024-2.003-4.33C84.635,288.276,83.658,284.226,83.436,279.872z M98.633,248.514    c-1.325,0.08-2.649,0.477-3.949,0.694c-4.057,0.678-7.843,0.446-11.871-0.436c-2.128-0.466-3.374-0.621-3.139-3.275    c0.282-3.172,1.98-3.647,4.242-4.084c0.049-0.009,0.095-0.015,0.143-0.023c0.808-0.005,1.616-0.019,2.422-0.066    c3.111-0.18,6.19-0.888,9.327-1.002c2.999-0.11,5.309-1.073,5.431,2.844c0.034,1.094,0.284,4.073-0.114,5.392    c-0.098,0.001-0.21,0.005-0.35,0.016C100.064,248.497,99.349,248.477,98.633,248.514z M174.817,420.879    c0.884,1.568,0.275,4.55-0.841,5.56c-2.294,2.077-9.764,0.906-12.663,0.641c-2.783-0.253-5.589-0.506-8.369-0.769    c-3.272-0.31-6.508-0.606-9.805-0.643c-0.897-0.009-2.463,0.373-3.39,0.098c-1.478-0.44-2.297-2.298-1.406-3.894    c0.945-1.694,2.788-1.306,4.382-1.635c0.13-0.027,0.253-0.052,0.382-0.078c7.174,1.239,14.066,0.576,21.336,0.505    c2.399-0.024,4.807,0.234,7.164-0.342c1.08-0.264,1.503-0.78,2.523-0.17C174.419,420.326,174.646,420.576,174.817,420.879z     M170.342,386.367c0.148,6.484,1.293,12.946,1.114,19.449c-0.053,1.945-0.005,8.477-2.195,9.676    c-1.352,0.74-5.174-0.098-6.751-0.023c-5.87,0.284-11.874,0.582-17.725-0.327c-0.386-4.047,0.199-8.471,0.157-12.482    c-0.052-4.982-0.089-9.969-0.212-14.949c-0.129-5.32,0.784-10.442-0.588-15.417c3.111-0.139,6.147-0.107,9.293-0.17    c5.476-0.109,11.451,1.032,16.998,0.515C168.701,376.812,170.243,381.994,170.342,386.367z M172.68,356.598    c1.92,0.821,1.262,4.874,1.159,7.055c-0.234,4.974-5.268,4.021-9.068,3.78c-3.625-0.23-6.895-0.443-10.527-0.298    c-3.048,0.122-6.018-0.299-9.066,0.034c-3.73,0.407-5.195,1.048-5.63-2.834c-0.412-3.67-1.125-4.995,3.011-5.942    c2.566-0.588,5.843-1.754,8.484-1.525c2.416,0.208,4.483,1.127,7.037,0.996c1.719-0.088,3.468-0.279,5.173-0.632    C166.038,356.972,170.372,355.612,172.68,356.598z M145.98,335.645c-0.081-6.862,1.458-14.052,0.949-20.928    c4.908,0.354,9.902,0.479,14.665,0.537c1.395,0.017,3.364,0.293,5.419,0.443c-0.235,3.271,0.398,6.517,0.533,9.81    c0.178,4.363-0.019,8.743,0.119,13.11c0.109,3.454,1.155,9.704-1.008,12.045c-2.127,2.302-8.379,2.394-11.285,2.164    c-2.089-0.165-4.917-0.757-6.963-1.339c-2.074-0.591-1.298,0.612-2.236-1.421c-0.69-1.496-0.078-4.82-0.097-6.448    C146.044,340.962,146.012,338.304,145.98,335.645z M170.021,302.739c2.877,0.259,2.267,0.577,2.163,3.058    c-0.135,3.219,0.487,4.416-3.054,4.737c-4.51,0.408-9.396-0.129-13.878-0.5c-2.873-0.238-12.538,1.161-13.527-1.78    c-1.24-3.689,3.197-4.779,5.804-5.182c1.455-0.225,3.146-0.36,4.839-0.588c1.811,0.372,3.649,0.497,4.956,0.501    c1.635,0.006,4.459-0.015,7.017-0.463C166.164,302.565,168.021,302.559,170.021,302.739z M150.943,279.872    c-0.438-8.589,0.545-17.297-0.479-25.863c0.634,0.084,1.274,0.173,1.905,0.293c2.685,0.508,4.943,0.826,7.699,0.493    c1.56-0.189,3.278-0.278,4.971-0.43c-0.05,1.006,0.218,1.601,0.385,3.27c0.243,2.443-0.235,4.973-0.053,7.432    c0.294,3.992,0.462,7.943,0.716,11.952c0.322,5.066,0.231,10.172-0.144,15.251c-0.053,0.717-0.066,4.41-0.63,4.857    c-0.419,0.331-5.757,0.423-6.88,0.416c-1.327-0.008-3.387,0.098-4.642-0.52c-3.126-1.541-2.187-2.024-2.003-4.33    C152.143,288.276,151.165,284.226,150.943,279.872z M166.14,248.514c-1.325,0.08-2.649,0.477-3.949,0.694    c-4.057,0.678-7.843,0.446-11.871-0.436c-2.128-0.466-3.375-0.621-3.14-3.275c0.282-3.172,1.98-3.647,4.242-4.084    c0.048-0.009,0.095-0.015,0.143-0.023c0.808-0.005,1.616-0.019,2.422-0.066c3.112-0.18,6.19-0.888,9.327-1.002    c3-0.11,5.31-1.073,5.431,2.844c0.034,1.094,0.284,4.073-0.113,5.392c-0.098,0.001-0.21,0.005-0.35,0.016    C167.571,248.497,166.857,248.477,166.14,248.514z M240.815,420.879c0.884,1.568,0.274,4.55-0.841,5.56    c-2.294,2.077-9.764,0.906-12.663,0.641c-2.783-0.253-5.589-0.506-8.369-0.769c-3.272-0.31-6.508-0.606-9.805-0.643    c-0.897-0.009-2.463,0.373-3.39,0.098c-1.478-0.44-2.297-2.298-1.406-3.894c0.945-1.694,2.788-1.306,4.381-1.635    c0.13-0.027,0.253-0.052,0.382-0.078c7.174,1.239,14.066,0.576,21.336,0.505c2.399-0.024,4.807,0.234,7.164-0.342    c1.08-0.264,1.503-0.78,2.522-0.17C240.418,420.326,240.645,420.576,240.815,420.879z M236.341,386.367    c0.148,6.484,1.293,12.946,1.114,19.449c-0.053,1.945-0.005,8.477-2.196,9.676c-1.352,0.74-5.174-0.098-6.751-0.023    c-5.87,0.284-11.874,0.582-17.723-0.327c-0.386-4.047,0.199-8.471,0.157-12.482c-0.052-4.982-0.091-9.969-0.21-14.949    c-0.129-5.32,0.784-10.442-0.588-15.417c3.111-0.139,6.147-0.107,9.293-0.17c5.475-0.109,11.451,1.032,16.998,0.515    C234.699,376.812,236.241,381.994,236.341,386.367z M238.678,356.598c1.921,0.821,1.261,4.874,1.16,7.055    c-0.234,4.974-5.268,4.021-9.068,3.78c-3.625-0.23-6.895-0.443-10.527-0.298c-3.048,0.122-6.018-0.299-9.066,0.034    c-3.73,0.407-5.195,1.048-5.63-2.834c-0.412-3.67-1.125-4.995,3.011-5.942c2.566-0.588,5.841-1.754,8.484-1.525    c2.416,0.208,4.483,1.127,7.038,0.996c1.719-0.088,3.468-0.279,5.173-0.632C232.037,356.972,236.37,355.612,238.678,356.598z     M211.979,335.645c-0.081-6.862,1.458-14.052,0.948-20.928c4.908,0.354,9.902,0.479,14.664,0.537    c1.395,0.017,3.364,0.293,5.419,0.443c-0.235,3.271,0.398,6.517,0.533,9.81c0.178,4.363-0.019,8.743,0.119,13.11    c0.109,3.454,1.155,9.704-1.008,12.045c-2.127,2.302-8.379,2.394-11.285,2.164c-2.089-0.165-4.917-0.757-6.963-1.339    c-2.074-0.591-1.298,0.612-2.236-1.421c-0.69-1.496-0.078-4.82-0.097-6.448C212.044,340.962,212.01,338.304,211.979,335.645z     M236.019,302.739c2.878,0.259,2.267,0.577,2.163,3.058c-0.136,3.219,0.485,4.416-3.054,4.737c-4.51,0.408-9.396-0.129-13.878-0.5    c-2.873-0.238-12.538,1.161-13.527-1.78c-1.241-3.689,3.197-4.779,5.804-5.182c1.455-0.225,3.146-0.36,4.839-0.588    c1.811,0.372,3.649,0.497,4.956,0.501c1.635,0.006,4.459-0.015,7.017-0.463C232.162,302.565,234.02,302.559,236.019,302.739z     M216.942,279.872c-0.438-8.589,0.545-17.297-0.479-25.863c0.634,0.084,1.274,0.173,1.905,0.293    c2.685,0.508,4.943,0.826,7.699,0.493c1.56-0.189,3.278-0.278,4.971-0.43c-0.05,1.006,0.218,1.601,0.385,3.27    c0.243,2.443-0.235,4.973-0.053,7.432c0.294,3.992,0.462,7.943,0.716,11.952c0.324,5.066,0.231,10.172-0.144,15.251    c-0.053,0.717-0.066,4.41-0.63,4.857c-0.419,0.331-5.757,0.423-6.881,0.416c-1.326-0.008-3.387,0.098-4.642-0.52    c-3.126-1.541-2.187-2.024-2.003-4.33C218.141,288.276,217.163,284.226,216.942,279.872z M232.139,248.514    c-1.325,0.08-2.649,0.477-3.949,0.694c-4.057,0.678-7.843,0.446-11.871-0.436c-2.128-0.466-3.374-0.621-3.139-3.275    c0.282-3.172,1.98-3.647,4.242-4.084c0.048-0.009,0.094-0.015,0.143-0.023c0.808-0.005,1.616-0.019,2.422-0.066    c3.112-0.18,6.19-0.888,9.327-1.002c2.999-0.11,5.309-1.073,5.431,2.844c0.034,1.094,0.284,4.073-0.114,5.392    c-0.098,0.001-0.21,0.005-0.35,0.016C233.57,248.497,232.855,248.477,232.139,248.514z M306.93,420.879    c0.884,1.568,0.275,4.55-0.841,5.56c-2.294,2.077-9.764,0.906-12.663,0.641c-2.784-0.253-5.589-0.506-8.369-0.769    c-3.272-0.31-6.508-0.606-9.805-0.643c-0.897-0.009-2.464,0.373-3.39,0.098c-1.478-0.44-2.297-2.298-1.406-3.894    c0.945-1.694,2.788-1.306,4.382-1.635c0.13-0.027,0.253-0.052,0.382-0.078c7.174,1.239,14.066,0.576,21.336,0.505    c2.399-0.024,4.807,0.234,7.164-0.342c1.081-0.264,1.503-0.78,2.522-0.17C306.534,420.326,306.76,420.576,306.93,420.879z     M302.457,386.367c0.148,6.484,1.293,12.946,1.114,19.449c-0.053,1.945-0.005,8.477-2.195,9.676    c-1.352,0.74-5.174-0.098-6.751-0.023c-5.87,0.284-11.874,0.582-17.725-0.327c-0.386-4.047,0.199-8.471,0.157-12.482    c-0.052-4.982-0.089-9.969-0.212-14.949c-0.129-5.32,0.784-10.442-0.588-15.417c3.111-0.139,6.147-0.107,9.293-0.17    c5.476-0.109,11.451,1.032,16.998,0.515C300.815,376.812,302.357,381.994,302.457,386.367z M304.794,356.598    c1.92,0.821,1.262,4.874,1.159,7.055c-0.234,4.974-5.268,4.021-9.068,3.78c-3.625-0.23-6.895-0.443-10.527-0.298    c-3.048,0.122-6.018-0.299-9.066,0.034c-3.73,0.407-5.195,1.048-5.63-2.834c-0.412-3.67-1.125-4.995,3.011-5.942    c2.566-0.588,5.843-1.754,8.484-1.525c2.416,0.208,4.483,1.127,7.037,0.996c1.719-0.088,3.468-0.279,5.173-0.632    C298.152,356.972,302.486,355.612,304.794,356.598z M278.094,335.645c-0.081-6.862,1.458-14.052,0.949-20.928    c4.908,0.354,9.902,0.479,14.665,0.537c1.395,0.017,3.364,0.293,5.419,0.443c-0.235,3.271,0.398,6.517,0.533,9.81    c0.178,4.363-0.019,8.743,0.119,13.11c0.109,3.454,1.155,9.704-1.008,12.045c-2.127,2.302-8.379,2.394-11.285,2.164    c-2.089-0.165-4.917-0.757-6.963-1.339c-2.074-0.591-1.298,0.612-2.236-1.421c-0.69-1.496-0.078-4.82-0.097-6.448    C278.159,340.962,278.126,338.304,278.094,335.645z M302.135,302.739c2.877,0.259,2.267,0.577,2.163,3.058    c-0.135,3.219,0.485,4.416-3.054,4.737c-4.509,0.408-9.396-0.129-13.878-0.5c-2.873-0.238-12.538,1.161-13.527-1.78    c-1.24-3.689,3.197-4.779,5.804-5.182c1.455-0.225,3.146-0.36,4.839-0.588c1.811,0.372,3.649,0.497,4.956,0.501    c1.636,0.006,4.459-0.015,7.017-0.463C298.278,302.565,300.135,302.559,302.135,302.739z M283.058,279.872    c-0.438-8.589,0.545-17.297-0.479-25.863c0.634,0.084,1.274,0.173,1.905,0.293c2.685,0.508,4.943,0.826,7.699,0.493    c1.56-0.189,3.278-0.278,4.971-0.43c-0.05,1.006,0.218,1.601,0.385,3.27c0.243,2.443-0.235,4.973-0.053,7.432    c0.294,3.992,0.462,7.943,0.716,11.952c0.322,5.066,0.231,10.172-0.144,15.251c-0.053,0.717-0.066,4.41-0.63,4.857    c-0.419,0.331-5.757,0.423-6.88,0.416c-1.327-0.008-3.387,0.098-4.642-0.52c-3.126-1.541-2.187-2.024-2.003-4.33    C284.256,288.276,283.279,284.226,283.058,279.872z M298.255,248.514c-1.325,0.08-2.649,0.477-3.949,0.694    c-4.057,0.678-7.843,0.446-11.871-0.436c-2.128-0.466-3.375-0.621-3.14-3.275c0.282-3.172,1.98-3.647,4.242-4.084    c0.048-0.009,0.095-0.015,0.143-0.023c0.808-0.005,1.616-0.019,2.422-0.066c3.112-0.18,6.19-0.888,9.327-1.002    c3.001-0.11,5.31-1.073,5.431,2.844c0.034,1.094,0.284,4.073-0.113,5.392c-0.098,0.001-0.21,0.005-0.35,0.016    C299.686,248.497,298.971,248.477,298.255,248.514z M372.929,420.879c0.884,1.568,0.275,4.55-0.841,5.56    c-2.294,2.077-9.764,0.906-12.663,0.641c-2.783-0.253-5.589-0.506-8.369-0.769c-3.272-0.31-6.508-0.606-9.805-0.643    c-0.897-0.009-2.463,0.373-3.39,0.098c-1.478-0.44-2.297-2.298-1.406-3.894c0.945-1.694,2.788-1.306,4.381-1.635    c0.13-0.027,0.253-0.052,0.382-0.078c7.174,1.239,14.066,0.576,21.336,0.505c2.399-0.024,4.807,0.234,7.164-0.342    c1.08-0.264,1.503-0.78,2.522-0.17C372.532,420.326,372.759,420.576,372.929,420.879z M368.455,386.367    c0.148,6.484,1.293,12.946,1.114,19.449c-0.053,1.945-0.005,8.477-2.195,9.676c-1.352,0.74-5.174-0.098-6.751-0.023    c-5.87,0.284-11.874,0.582-17.725-0.327c-0.386-4.047,0.199-8.471,0.157-12.482c-0.052-4.982-0.09-9.969-0.21-14.949    c-0.129-5.32,0.784-10.442-0.588-15.417c3.111-0.139,6.147-0.107,9.293-0.17c5.475-0.109,11.451,1.032,16.998,0.515    C366.813,376.812,368.355,381.994,368.455,386.367z M370.792,356.598c1.921,0.821,1.261,4.874,1.159,7.055    c-0.234,4.974-5.268,4.021-9.068,3.78c-3.625-0.23-6.895-0.443-10.527-0.298c-3.048,0.122-6.018-0.299-9.066,0.034    c-3.73,0.407-5.195,1.048-5.63-2.834c-0.412-3.67-1.125-4.995,3.011-5.942c2.566-0.588,5.841-1.754,8.484-1.525    c2.416,0.208,4.483,1.127,7.039,0.996c1.719-0.088,3.468-0.279,5.173-0.632C364.151,356.972,368.484,355.612,370.792,356.598z     M344.093,335.645c-0.081-6.862,1.458-14.052,0.948-20.928c4.908,0.354,9.902,0.479,14.664,0.537    c1.395,0.017,3.364,0.293,5.419,0.443c-0.235,3.271,0.398,6.517,0.533,9.81c0.178,4.363-0.019,8.743,0.119,13.11    c0.109,3.454,1.155,9.704-1.008,12.045c-2.127,2.302-8.379,2.394-11.285,2.164c-2.089-0.165-4.917-0.757-6.963-1.339    c-2.073-0.591-1.298,0.612-2.236-1.421c-0.69-1.496-0.078-4.82-0.097-6.448C344.158,340.962,344.124,338.304,344.093,335.645z     M368.133,302.739c2.877,0.259,2.267,0.577,2.163,3.058c-0.136,3.219,0.485,4.416-3.054,4.737c-4.51,0.408-9.396-0.129-13.878-0.5    c-2.873-0.238-12.538,1.161-13.527-1.78c-1.241-3.689,3.197-4.779,5.804-5.182c1.455-0.225,3.146-0.36,4.839-0.588    c1.811,0.372,3.649,0.497,4.956,0.501c1.635,0.006,4.459-0.015,7.017-0.463C364.278,302.565,366.134,302.559,368.133,302.739z     M349.056,279.872c-0.438-8.589,0.545-17.297-0.479-25.863c0.635,0.084,1.274,0.173,1.905,0.293    c2.685,0.508,4.943,0.826,7.699,0.493c1.56-0.189,3.278-0.278,4.971-0.43c-0.049,1.006,0.218,1.601,0.385,3.27    c0.243,2.443-0.235,4.973-0.053,7.432c0.294,3.992,0.462,7.943,0.716,11.952c0.324,5.066,0.231,10.172-0.144,15.251    c-0.053,0.717-0.066,4.41-0.63,4.857c-0.419,0.331-5.757,0.423-6.88,0.416c-1.326-0.008-3.387,0.098-4.642-0.52    c-3.126-1.541-2.187-2.024-2.003-4.33C350.255,288.276,349.277,284.226,349.056,279.872z M364.253,248.514    c-1.325,0.08-2.649,0.477-3.949,0.694c-4.057,0.678-7.843,0.446-11.871-0.436c-2.128-0.466-3.374-0.621-3.138-3.275    c0.282-3.172,1.98-3.647,4.242-4.084c0.047-0.009,0.094-0.015,0.143-0.023c0.808-0.005,1.616-0.019,2.422-0.066    c3.111-0.18,6.19-0.888,9.327-1.002c2.999-0.11,5.309-1.073,5.431,2.844c0.034,1.094,0.284,4.073-0.114,5.392    c-0.098,0.001-0.21,0.005-0.35,0.016C365.684,248.497,364.969,248.477,364.253,248.514z M440.436,420.879    c0.884,1.568,0.275,4.55-0.841,5.56c-2.294,2.077-9.764,0.906-12.663,0.641c-2.784-0.253-5.589-0.506-8.369-0.769    c-3.272-0.31-6.508-0.606-9.805-0.643c-0.897-0.009-2.463,0.373-3.39,0.098c-1.478-0.44-2.297-2.298-1.406-3.894    c0.945-1.694,2.788-1.306,4.382-1.635c0.13-0.027,0.253-0.052,0.382-0.078c7.174,1.239,14.066,0.576,21.336,0.505    c2.399-0.024,4.807,0.234,7.164-0.342c1.081-0.264,1.503-0.78,2.522-0.17C440.04,420.326,440.266,420.576,440.436,420.879z     M435.962,386.367c0.148,6.484,1.293,12.946,1.114,19.449c-0.053,1.945-0.005,8.477-2.195,9.676    c-1.352,0.74-5.174-0.098-6.751-0.023c-5.87,0.284-11.874,0.582-17.725-0.327c-0.386-4.047,0.199-8.471,0.157-12.482    c-0.052-4.982-0.089-9.969-0.21-14.949c-0.129-5.32,0.784-10.442-0.588-15.417c3.111-0.139,6.147-0.107,9.293-0.17    c5.476-0.109,11.451,1.032,16.998,0.515C434.321,376.812,435.863,381.994,435.962,386.367z M438.3,356.598    c1.92,0.821,1.262,4.874,1.159,7.055c-0.234,4.974-5.268,4.021-9.068,3.78c-3.625-0.23-6.895-0.443-10.527-0.298    c-3.048,0.122-6.018-0.299-9.066,0.034c-3.73,0.407-5.195,1.048-5.63-2.834c-0.412-3.67-1.125-4.995,3.011-5.942    c2.566-0.588,5.843-1.754,8.484-1.525c2.416,0.208,4.483,1.127,7.037,0.996c1.719-0.088,3.468-0.279,5.173-0.632    C431.657,356.972,435.992,355.612,438.3,356.598z M411.6,335.645c-0.081-6.862,1.458-14.052,0.949-20.928    c4.908,0.354,9.902,0.479,14.664,0.537c1.395,0.017,3.364,0.293,5.419,0.443c-0.235,3.271,0.398,6.517,0.533,9.81    c0.178,4.363-0.019,8.743,0.119,13.11c0.109,3.454,1.155,9.704-1.008,12.045c-2.127,2.302-8.379,2.394-11.285,2.164    c-2.087-0.165-4.917-0.757-6.963-1.339c-2.073-0.591-1.298,0.612-2.236-1.421c-0.69-1.496-0.078-4.82-0.097-6.448    C411.664,340.962,411.631,338.304,411.6,335.645z M435.641,302.739c2.877,0.259,2.267,0.577,2.163,3.058    c-0.135,3.219,0.485,4.416-3.054,4.737c-4.509,0.408-9.396-0.129-13.878-0.5c-2.873-0.238-12.538,1.161-13.527-1.78    c-1.24-3.689,3.197-4.779,5.804-5.182c1.455-0.225,3.146-0.36,4.839-0.588c1.811,0.372,3.649,0.497,4.956,0.501    c1.636,0.006,4.459-0.015,7.017-0.463C431.784,302.565,433.641,302.559,435.641,302.739z M416.563,279.872    c-0.438-8.589,0.545-17.297-0.479-25.863c0.634,0.084,1.274,0.173,1.905,0.293c2.685,0.508,4.943,0.826,7.699,0.493    c1.56-0.189,3.278-0.278,4.971-0.43c-0.05,1.006,0.218,1.601,0.385,3.27c0.243,2.443-0.235,4.973-0.053,7.432    c0.294,3.992,0.462,7.943,0.716,11.952c0.322,5.066,0.231,10.172-0.144,15.251c-0.053,0.717-0.066,4.41-0.63,4.857    c-0.419,0.331-5.757,0.423-6.88,0.416c-1.327-0.008-3.387,0.098-4.642-0.52c-3.126-1.541-2.187-2.024-2.003-4.33    C417.762,288.276,416.785,284.226,416.563,279.872z M431.76,248.514c-1.325,0.08-2.649,0.477-3.949,0.694    c-4.057,0.678-7.843,0.446-11.871-0.436c-2.128-0.466-3.375-0.621-3.14-3.275c0.282-3.172,1.98-3.647,4.242-4.084    c0.047-0.009,0.095-0.015,0.143-0.023c0.808-0.005,1.616-0.019,2.422-0.066c3.111-0.18,6.19-0.888,9.327-1.002    c3-0.11,5.31-1.073,5.431,2.844c0.034,1.094,0.284,4.073-0.113,5.392c-0.098,0.001-0.21,0.005-0.35,0.016    C433.191,248.497,432.476,248.477,431.76,248.514z M476.874,221.921c-5.023-7.644-16.83-10.588-25.397-8.678    c-1.898,0.423-6.809,1.867-11.019,3.966c-0.015,0.003-0.028,0.005-0.043,0.008c-5.896,1.245-8.159,7.086-8.585,12.453    c-0.131,1.654-0.402,3.891-0.107,5.823c-1.62,0.12-3.288,0.497-4.788,0.587c-2.182,0.131-7.561,1.931-9.536,0.845    c-2.442-1.344-1.357-4.642-1.791-6.822c-0.605-3.028-2.909-6.18-4.943-8.42c-0.876-0.965-2.313-2.406-3.842-3.424    c-5.202-4.518-14.064-5.32-20.267-4.462c-3.675,0.508-8.72,1.372-12.829,3.28c-0.274,0.037-0.549,0.081-0.821,0.139    c-5.896,1.245-8.159,7.086-8.584,12.453c-0.131,1.654-0.402,3.891-0.107,5.823c-1.62,0.12-3.289,0.497-4.788,0.587    c-2.182,0.131-7.561,1.931-9.535,0.845c-2.443-1.344-1.357-4.642-1.791-6.822c-0.585-2.925-2.754-5.959-4.734-8.182    c-5.023-7.644-16.83-10.588-25.397-8.678c-1.898,0.423-6.809,1.867-11.019,3.966c-0.015,0.003-0.028,0.005-0.043,0.008    c-5.896,1.245-8.159,7.086-8.585,12.453c-0.131,1.654-0.402,3.891-0.107,5.823c-1.62,0.12-3.288,0.497-4.788,0.587    c-2.182,0.131-7.561,1.931-9.535,0.845c-2.442-1.344-1.357-4.642-1.791-6.822c-0.605-3.028-2.909-6.18-4.943-8.42    c-0.139-0.154-0.299-0.324-0.465-0.498c-3.236-6.235-14.398-7.75-20.231-7.513c-4.468,0.183-12.028,0.829-16.862,3.88    c-5.011,1.737-6.999,7.129-7.394,12.117c-0.131,1.654-0.402,3.891-0.107,5.823c-1.62,0.12-3.289,0.497-4.787,0.587    c-2.182,0.131-7.561,1.931-9.535,0.845c-2.442-1.344-1.357-4.642-1.791-6.822c-0.585-2.925-2.754-5.959-4.734-8.182    c-5.025-7.644-16.83-10.588-25.398-8.678c-1.898,0.423-6.809,1.867-11.019,3.966c-0.014,0.003-0.028,0.005-0.043,0.008    c-5.896,1.245-8.159,7.086-8.585,12.453c-0.131,1.654-0.402,3.891-0.107,5.823c-1.62,0.12-3.288,0.497-4.787,0.587    c-2.182,0.131-7.561,1.931-9.535,0.845c-2.442-1.344-1.357-4.642-1.791-6.822c-0.605-3.028-2.909-6.18-4.943-8.42    c-0.876-0.965-2.313-2.406-3.842-3.424c-5.202-4.518-14.065-5.32-20.267-4.462c-3.675,0.508-8.72,1.372-12.829,3.28    c-0.274,0.037-0.549,0.081-0.821,0.139c-5.896,1.245-8.159,7.086-8.584,12.453c-0.131,1.654-0.402,3.891-0.107,5.823    c-1.62,0.12-3.289,0.497-4.787,0.587c-2.182,0.131-7.561,1.931-9.536,0.845c-2.443-1.344-1.357-4.642-1.791-6.822    c-0.585-2.925-2.754-5.959-4.734-8.182c-5.025-7.644-16.83-10.588-25.398-8.678c-1.898,0.423-6.809,1.867-11.019,3.966    c-0.014,0.003-0.028,0.005-0.043,0.008c-5.896,1.245-8.159,7.086-8.585,12.453c-0.131,1.654-0.402,3.891-0.107,5.823    c-1.62,0.12-3.288,0.497-4.787,0.587c-2.504,0.15-4.902,1.156-7.429,1.187c-2.396,0.029-5.402-1.578-6.263-3.903    c-1.147-3.096-0.473-7.302-0.614-10.568c-0.2-4.641-0.257-9.299-0.531-13.935c-0.128-2.178-0.361-2.762,0.58-3.062    c2.645,0.371,5.641,0.234,7.539,0.164c2.496-0.092,5.289,0.117,7.471-0.766c0.841,0.014,1.697,0.006,2.582-0.036    c7.355-0.346,14.841-0.048,22.178,0.424c3.347,0.215,6.697,0.292,10.049,0.304c2.452,0.258,5.086,0.138,6.81,0.075    c1.749-0.065,3.643,0.018,5.373-0.227c5.305-0.106,10.614-0.2,15.922-0.035c5.094,0.16,10.17,0.136,15.239,0.053    c2.717,0.425,5.869,0.282,7.837,0.209c2.219-0.081,4.673,0.075,6.723-0.507c1.995-0.037,3.989-0.069,5.986-0.083    c5.694-0.041,11.388-0.232,17.085-0.363c3.269-0.075,6.468,0.275,9.678,0.348c2.987,0.889,7.196,0.694,9.618,0.604    c2.142-0.079,4.505,0.067,6.51-0.448c6.22,0.313,12.525-0.035,18.73,0.001c8.616,0.052,17.215,0.311,25.839,0.312    c15.506,0.002,30.979-0.601,46.466-0.784c7.35-0.087,14.64,0.566,21.981,0.531c7.908-0.038,15.884-0.024,23.784,0.27    c7.334,0.273,14.704,0.016,22.051,0.27c4.741,0.165,11.658,1.698,16.764,0.614c8.285,1.398,17.264,0.344,25.467,0.153    c5.888-0.137,11.782,0.01,17.667-0.257c6.736-0.307,13.533,0.476,20.236,0.039c9.278-0.606,18.605-0.622,27.916-0.774    c2.447,0.255,5.07,0.136,6.79,0.072c2.164-0.08,4.556,0.071,6.576-0.463c5.688-0.272,11.506-0.646,17.166-0.213    c4.019,0.308,8.312,0.967,12.374,0.394c2.805,0.513,6.185,0.358,8.256,0.282c2.99-0.111,6.409,0.213,8.686-1.432    c-0.157,2.741-0.251,5.514-0.11,8.229c0.39,7.447-0.276,15.315,0.927,22.695c0.002,0.012,0.001,0.026,0.003,0.04    c-1.62,0.12-3.289,0.497-4.788,0.587c-2.182,0.131-7.561,1.931-9.536,0.845c-2.443-1.344-1.357-4.642-1.791-6.822    C481.023,227.177,478.854,224.144,476.874,221.921z M473.344,308.255c-1.241-3.69,3.197-4.779,5.804-5.182    c1.455-0.225,3.146-0.36,4.839-0.588c1.811,0.372,3.649,0.497,4.956,0.501c1.635,0.006,4.459-0.015,7.017-0.463    c1.824,0.041,3.68,0.034,5.681,0.215c2.877,0.259,2.267,0.577,2.163,3.058c-0.136,3.219,0.485,4.416-3.054,4.737    c-4.51,0.408-9.396-0.129-13.878-0.5C483.998,309.797,474.333,311.196,473.344,308.255z M477.599,335.645    c-0.081-6.862,1.458-14.052,0.948-20.928c4.908,0.354,9.902,0.479,14.664,0.537c1.395,0.017,3.364,0.293,5.419,0.443    c-0.235,3.271,0.398,6.517,0.533,9.81c0.178,4.363-0.019,8.743,0.119,13.11c0.109,3.454,1.155,9.704-1.008,12.045    c-2.127,2.302-8.379,2.394-11.285,2.164c-2.089-0.165-4.917-0.757-6.963-1.339c-2.073-0.591-1.298,0.612-2.236-1.421    c-0.69-1.496-0.078-4.82-0.097-6.448C477.664,340.962,477.63,338.304,477.599,335.645z M471.166,364.336    c-0.412-3.67-1.125-4.995,3.011-5.942c2.566-0.588,5.841-1.754,8.484-1.525c2.416,0.208,4.483,1.127,7.039,0.996    c1.719-0.088,3.468-0.279,5.173-0.632c2.784-0.26,7.118-1.621,9.426-0.634c1.921,0.821,1.262,4.874,1.159,7.055    c-0.234,4.974-5.268,4.021-9.068,3.78c-3.625-0.23-6.895-0.444-10.527-0.298c-3.048,0.122-6.018-0.299-9.066,0.034    C473.066,367.578,471.6,368.218,471.166,364.336z M476.351,387.711c-0.129-5.32,0.784-10.442-0.588-15.417    c3.111-0.139,6.147-0.107,9.293-0.17c5.475-0.109,11.451,1.032,16.998,0.515c-1.736,4.173-0.193,9.354-0.094,13.727    c0.148,6.484,1.293,12.946,1.114,19.449c-0.053,1.945-0.005,8.477-2.195,9.676c-1.352,0.74-5.174-0.098-6.751-0.023    c-5.87,0.284-11.874,0.582-17.725-0.327c-0.386-4.047,0.199-8.471,0.157-12.482C476.511,397.679,476.472,392.69,476.351,387.711z     M505.595,426.438c-2.294,2.077-9.764,0.906-12.663,0.641c-2.783-0.253-5.589-0.506-8.369-0.769    c-3.272-0.31-6.508-0.606-9.805-0.643c-0.897-0.009-2.463,0.373-3.39,0.098c-1.478-0.44-2.297-2.298-1.406-3.894    c0.945-1.694,2.788-1.306,4.381-1.635c0.13-0.027,0.253-0.052,0.382-0.078c7.174,1.239,14.066,0.576,21.336,0.505    c2.399-0.024,4.807,0.234,7.164-0.342c1.081-0.264,1.503-0.779,2.522-0.17c0.29,0.173,0.516,0.424,0.687,0.727    C507.319,422.447,506.71,425.429,505.595,426.438z"/>
	</g>
</g>
<g>
</g>
<g>
</g>
<g>
</g>
<g>
</g>
<g>
</g>
<g>
</g>
<g>
</g>
<g>
</g>
<g>
</g>
<g>
</g>
<g>
</g>
<g>
</g>
<g>
</g>
<g>
</g>
<g>
</g>
</svg>
