<?xml version="1.0" encoding="iso-8859-1"?>
<!-- Generator: Adobe Illustrator 19.0.0, SVG Export Plug-In . SVG Version: 6.00 Build 0)  -->
<svg xmlns="http://www.w3.org/2000/svg" xmlns:xlink="http://www.w3.org/1999/xlink" version="1.1" id="Layer_1" x="0px" y="0px" viewBox="0 0 511.999 511.999" style="enable-background:new 0 0 511.999 511.999;" xml:space="preserve">
<g>
	<g>
		<path d="M327.023,417.179c-2.63-2.98-10.146-3.552-13.738-3.21c-1.632,0.155-2.641,0.534-3.484,1.909    c-1.334,2.181-1.392,6.737-1.339,9.299c0.001,0.048,0.022,0.087,0.029,0.133c-0.452,2.428-0.799,4.877-0.92,7.403    c-0.139,2.908-1.017,7.654,2.323,8.93c0.507,0.194,1.274-0.016,1.622-0.429c2.684-3.174,3.136-8.024,5.073-11.654    c2.457-4.606,6.958-6.779,10.434-10.452C327.554,418.549,327.524,417.746,327.023,417.179z M317.181,423.389    c-2.644,2.687-4.176,6.372-5.331,9.878c-0.095,0.286-0.501,1.007-0.96,1.826c-0.002-0.213-0.006-0.426-0.008-0.639    c0.197-1.394,0.043-2.922,0.134-4.331c0.196-3.045,0.709-6.187,0.694-9.28c0.137-0.643,0.266-1.293,0.424-1.925    c0.622-2.503,0.202-2.04,3.043-1.909c2.405,0.11,6.343-0.171,8.787,1.228C321.823,420.052,319.143,421.396,317.181,423.389z"/>
	</g>
</g>
<g>
	<g>
		<path d="M263.183,433.78c-0.068-3.638,0.025-7.528-0.799-11.081c-0.406-1.75-0.822-2.455-2.735-2.6    c-3.319-0.251-6.442,1.079-9.695,1.134c-2.216,0.038-3.28,1.568-3.835,3.615c-1.089,4.016-0.157,8.32,0.136,12.378    c0.177,2.483-0.521,7.221,1.606,9.082c2.1,1.837,6.264,0.247,8.844,0.184c2.359-0.058,4.66-0.358,5.804-2.753    C263.789,441.057,263.234,436.578,263.183,433.78z M259.823,438.51c-0.086,1.104-0.087,2.457-0.681,3.406    c-0.878,1.401-1.584,0.97-3.099,1.074c-2.627,0.181-5.435,1.504-6.211-1.581c-0.68-2.699-0.465-6.125-0.471-8.875    c-0.006-2.036-1.105-5.762,0.268-7.535c0.996-1.286,2.926-0.875,4.354-0.986c1.213-0.095,2.306-0.804,3.555-0.567    c2.702,0.514,1.829,2.479,1.982,4.507C259.783,431.466,260.097,434.98,259.823,438.51z"/>
	</g>
</g>
<g>
	<g>
		<path d="M293.402,427.878c-0.102-2.045,0.027-6.127-1.809-7.502c-1.767-1.324-5.88-0.895-7.898-0.591    c-2.096,0.315-4.883-0.359-6.473,1.155c-0.414,0.394-0.616,1.087-0.433,1.639c0.68,2.042,0.302,4.218,0.627,6.33    c-0.251,2.398-0.311,4.845-0.358,7.158c-0.053,2.613-1.331,7.962,0.784,10.03c2.175,2.127,7.403,0.046,9.845-0.29    c3.393-0.467,4.676-1.55,5.345-4.974C293.839,436.705,293.613,432.059,293.402,427.878z M289.468,439.851    c-0.655,1.564-1.282,1.804-3.034,2.285c-0.561,0.154-4.486,1.179-4.973,1.024c-1.57-0.5-0.987-2.18-1.042-3.882    c-0.052-1.607-0.155-3.212-0.211-4.818c-0.069-1.983-0.146-4.172-0.043-6.297c0.062-0.507,0.095-1.014,0.109-1.523    c0.077-0.799,0.185-1.581,0.339-2.327c0.047-0.224,0.021-0.419-0.033-0.599c0.563,0.156,1.14-0.12,1.693-0.161    c1.693-0.126,4.847-1.254,6.516-0.195c0.298,0.107,0.451,0.075,0.465-0.089c0.185,0.909,0.343,1.821,0.453,2.74    c0.149,1.402,0.141,2.785,0.134,4.193C289.828,433.027,290.563,437.239,289.468,439.851z"/>
	</g>
</g>
<g>
	<g>
		<path d="M434.455,453.709c-0.014-7.423-0.508-14.906-0.818-22.335c-0.261-6.26-0.082-12.151-1.835-18.106    c2.863-0.302,4.691-1.45,4.328-5.232c-0.534-5.561-2.938-8.248-8.594-9.081c-4.588-0.675-9.313-0.808-14.002-0.884    c0.398-1.147,0.48-2.505,0.178-4.084c-2.374-12.463-14.004-22.756-24.784-28.259c-5.197-2.652-11.112-6.363-16.642-8.085    c-7.152-2.226-15.42-2.097-22.821-3.041c-2.828-0.36-5.601-0.716-8.363-1.012c-2.224-6.193-9.305-9.404-15.541-8.707    c-4.433,0.495-10.087,4.569-8.882,9.258c-6.344,0.938-12.627,2.274-18.758,4.162c-1.121,0.345-2.34,0.703-3.597,1.092    c-0.662,0.2-1.322,0.41-1.979,0.629c-0.385,0.127-0.771,0.259-1.158,0.394c-4.171,1.475-8.231,3.317-12.134,5.309    c-10.779,5.501-22.411,15.796-24.784,28.259c-0.301,1.58-0.22,2.937,0.178,4.084c-4.689,0.076-9.415,0.209-14.002,0.884    c-5.656,0.832-8.059,3.52-8.595,9.081c-0.364,3.781,1.465,4.931,4.328,5.232c-1.754,5.954-1.574,11.845-1.835,18.106    c-0.31,7.428-0.804,14.911-0.818,22.335c-0.001,0.978-0.026,1.957-0.034,2.935c-0.833,0.083-1.675,0.197-2.515,0.243    c-3.471,0.19-6.956,0.181-10.435,0.218c-6.707,0.072-13.732,0.621-20.467,1.59c-1.609-0.485-2.94-0.675-3.226-0.175    c0.038-0.065,0.082-0.116,0.116-0.185c2.347-4.732,1.491-10.077,1.464-15.232c-0.032-6.086-0.708-12.063-0.875-18.114    c-0.161-5.858,0.312-11.518-0.416-17.365c-0.726-5.833-1.067-11.925-1.385-17.799c-0.649-12.003-2.94-23.74-3.999-35.657    c-0.591-6.646-1.386-13.331-1.856-19.986c-0.263-3.717-0.836-7.229-1.471-10.785c3.581,0.547,6.837,0.9,8.703-3.12    c1.092-2.354,1.498-5.331,1.968-7.875c0.566-3.068,1.989-6.148,2.218-9.265c0.386-5.263-3.193-9.044-7.1-12.02    c-2.323-1.77-4.548-2.863-7.329-3.724c-0.737-0.228-2.391-0.36-2.991-0.785c-1.209-0.856-1.098-0.464-0.965-2.626    c0.463-7.587-0.066-14.92-0.763-22.476c-1.41-15.279,0.768-31.148-1.512-46.379c1.85,0.067,3.498-0.771,4.589-3.176    c1.01-2.226,1.084-4.944,1.867-7.28c1.007-3.002,1.968-6.216,2.199-9.394c0.294-4.026-0.237-10.371-2.801-13.667    c-1.536-1.973-3.768-2.092-5.563-3.584c-2.656-2.206-2.373-6.908-2.396-10.026c-0.049-6.274-1.175-12.498-1.941-18.665    c-0.407-3.285,0.191-6.669-0.207-9.999c-0.425-3.555-1.271-7.037-1.521-10.616c-0.188-2.7-0.102-5.265-0.905-7.877    c0.851,0.002,1.712-0.174,2.589-0.649c4.667-2.53,3.964-8.836,3.699-13.224c-0.45-7.443-1.838-12.282-8.941-15.811    c-1.408-0.7-2.957-1.405-4.588-2.081c1.206-5.258,0.255-10.727,0.769-16.087c0.461-4.816,0.74-8.146-0.176-12.976    c-0.096-0.504-0.238-1.008-0.403-1.511c2.132-0.907,4.166-4.054,4.764-6.052c1.082-3.616-2.597-7.834-4.996-10.086    c-1.614-1.514-3.569-2.962-5.7-4.149c-0.499-2.868,0.39-6.489,0.404-9.291c0.021-4.402-0.168-8.905-0.817-13.257    c-0.477-3.197-0.485-7.308-2.828-9.817c-1.564-1.674-3.347-2.579-5.292-3.25c-4.186-3.015-8.849-3.12-14.069-1.764    c-2.383,0.619-5.315,1.376-6.584,3.785c-0.004,0.006-0.008,0.018-0.011,0.023c-0.463,0.356-0.915,0.745-1.345,1.206    c-2.343,2.509-2.352,6.62-2.828,9.817c-0.649,4.352-0.838,8.854-0.817,13.257c0.014,2.802,0.903,6.423,0.404,9.291    c-2.132,1.187-4.087,2.634-5.7,4.149c-2.4,2.251-6.079,6.469-4.996,10.086c0.598,1.998,2.632,5.143,4.764,6.052    c-0.163,0.502-0.306,1.007-0.401,1.511c-0.917,4.829-0.639,8.16-0.176,12.976c0.514,5.359-0.437,10.828,0.769,16.087    c-1.631,0.676-3.179,1.382-4.588,2.081c-7.104,3.529-8.491,8.369-8.941,15.811c-0.265,4.387-0.966,10.694,3.699,13.224    c0.877,0.475,1.737,0.652,2.589,0.649c-0.804,2.613-0.717,5.177-0.905,7.877c-0.25,3.579-1.096,7.06-1.521,10.616    c-0.398,3.329,0.201,6.713-0.207,9.999c-0.765,6.167-1.891,12.391-1.941,18.665c-0.025,3.119,0.259,7.82-2.396,10.026    c-1.795,1.492-4.028,1.611-5.563,3.584c-2.564,3.295-3.095,9.641-2.801,13.667c0.231,3.178,1.192,6.392,2.199,9.394    c0.783,2.336,0.857,5.054,1.867,7.28c1.091,2.404,2.738,3.243,4.589,3.176c-2.28,15.232-0.102,31.101-1.512,46.379    c-0.697,7.556-1.226,14.888-0.763,22.476c0.131,2.164,0.243,1.77-0.965,2.626c-0.601,0.425-2.254,0.558-2.992,0.785    c-2.781,0.861-5.006,1.953-7.329,3.724c-3.907,2.976-7.487,6.759-7.1,12.02c0.229,3.117,1.652,6.197,2.218,9.265    c0.47,2.544,0.875,5.521,1.968,7.875c1.865,4.021,5.122,3.669,8.703,3.12c-0.635,3.556-1.208,7.068-1.471,10.785    c-0.47,6.654-1.266,13.34-1.856,19.986c-1.059,11.917-3.349,23.654-3.999,35.657c-0.318,5.873-0.66,11.965-1.385,17.799    c-0.727,5.848-0.255,11.507-0.416,17.365c-0.166,6.052-0.842,12.029-0.875,18.114c-0.027,5.156-0.883,10.5,1.464,15.232    c0.034,0.069,0.079,0.12,0.116,0.185c-0.771-1.351-9.136,2.317-10.147,3.294c-5.192,5.014-5.596,16.001-5.317,22.722    c0.134,3.246,0.838,6.431,1.173,9.643c0.477,4.577,0.056,10.836,4.289,13.79c4.543,3.17,10.633,1.471,15.742,1.799    c3.14,0.201,6.095,0.839,9.257,0.568c3.355-0.288,6.193-0.755,9.59-0.474c1.584,0.13,3.157,0.079,4.729-0.003    c4.276,0.666,8.475,0.072,12.828,0.323c5.653,0.326,10.823,0.89,16.486,0.576c5.291-0.293,14.368,0.837,21.093-0.833    c0.397-0.012,0.794-0.029,1.192-0.062c3.398-0.279,6.235,0.188,9.59,0.474c3.163,0.271,6.116-0.367,9.257-0.568    c3.038-0.195,6.42,0.32,9.62,0.109c1.192,0.095,2.39,0.09,3.448,0.139c5.149,0.232,10.114-0.343,15.231-0.636    c5.478-0.313,12.419,1.327,18.104,0.17c2.829,0.735,6.362,0.655,8.919,0.902c3.201,0.31,6.334,0.249,9.543,0.675    c14.468,1.924,29.809,0.272,44.403-1.124c2.744,0.252,5.519,0.227,8.477-0.008c0.864-0.069,1.624-0.214,2.3-0.42    c6.287,0.082,12.592,0.313,18.883,0.343c5.026,0.023,10.122-0.238,15.129,0.137c4.426,0.332,9.246,0.619,13.686-0.095    c0.093,0.009,0.174,0.027,0.27,0.035c2.96,0.235,5.735,0.261,8.477,0.008c14.595,1.395,29.934,3.048,44.403,1.124    c3.21-0.426,6.342-0.365,9.543-0.675c3.118-0.302,7.711-0.095,10.676-1.506c5.69-2.706,3.453-8.894,3.299-13.876    C435.096,481.288,434.481,467.506,434.455,453.709z M188.67,386.69c0.44,11.769,1.876,23.469,1.459,35.258    c-0.193,5.471,0.636,10.865,0.614,16.343c-0.02,5.009,1.68,10.595-0.014,15.484c-1.412,4.075-5.472,4.834-9.797,4.789    c-0.475-4.872-0.217-10.216-0.213-14.846c0.007-5.919-0.502-11.81-0.794-17.713c-0.571-11.532-1.264-23.107-2.01-34.639    c-0.821-12.707-1.552-25.434-2.255-38.152c-0.609-11.018-0.654-21.983-1.074-32.986c4.982,0.771,8.946,1.687,8.967,2.658    c0.231,10.13,0.916,20.176,1.507,30.337C185.716,364.418,188.25,375.438,188.67,386.69z M162.544,432.7    c-0.992-12.967-0.72-26.113-0.753-39.123c-0.033-12.917-0.445-25.773-0.464-38.684c-0.018-12.259,0.196-24.233-1.079-36.386    c3.429,0.333,7.929,0.809,12.063,1.384c-0.958,24.44,0.892,48.83,2.286,73.264c0.656,11.49,1.357,23.024,1.786,34.515    c0.244,6.532,0.681,12.974,0.757,19.526c0.042,3.577-0.065,7.463,0.202,11.201c-1.726-0.122-3.392-0.264-4.837-0.263    c-3.152,0.001-6.278,0.031-9.407,0.045C163.653,449.791,163.177,440.973,162.544,432.7z M131.116,24.354    c0.34-4.333,0.24-9.433,1.725-13.571c0.649-1.81,2.212-2.998,3.84-4.122c1.984-0.649,3.974-1.545,5.94-1.749    c2.55-0.265,5.589,1.264,8.244,1.297c1.85,1.266,3.758,2.522,4.495,4.574c1.485,4.137,1.384,9.237,1.725,13.571    c0.264,3.363-0.595,8.413,0.414,12.246c-2.182-0.811-4.452-1.264-6.679-1.207c-3.684-1.397-8.788-1.127-13.464-0.001    c-2.219-0.053-4.481,0.4-6.655,1.208C131.711,32.767,130.852,27.718,131.116,24.354z M128.733,43.099    c0.524-0.308,1.071-0.601,1.629-0.884c3.317-0.173,7.353-1.687,9.726-2.044c4.406-0.663,8.604,0.096,12.886,0.134    c2.279,0.629,4.527,1.638,6.493,2.793c3.004,1.767,8.16,5.332,7.052,9.425c-0.247,0.909-0.822,1.679-1.28,2.497    c-1.309-2-3.105-3.734-5.162-4.84c-3.578-3.626-11.736-4.324-16.069-4.28c-4.499,0.045-9.077,1.14-13.098,3.232    c-3.212,0.694-6.077,3.024-7.95,5.888c-0.458-0.818-1.033-1.59-1.28-2.497C120.572,48.431,125.728,44.866,128.733,43.099z     M162.603,87.5c-4.928-1.698-10.228-2.869-14.812-2.656c-2.881-0.324-5.785-0.42-8.671-0.159c-0.463,0.042-0.923,0.1-1.379,0.168    c-3.906,0.232-8.149,1.271-12.142,2.646c1.085-6.055,0.136-12.532-0.095-18.562c-0.113-2.964,0.211-8.794,2.206-11.342    c1.437-1.835,3.74-2.926,5.953-3.913c0.225-0.092,0.447-0.187,0.677-0.274c3.882-1.476,7.916-1.921,11.99-1.559    c2.787,0.247,5.138,0.893,7.665,1.59c2.373,1.054,4.941,2.169,6.498,4.156c1.995,2.548,2.32,8.378,2.206,11.342    C162.467,74.968,161.518,81.445,162.603,87.5z M113.655,106.473c-0.177-3.17-0.141-5.943,2.138-8.34    c2.503-2.634,6.22-3.541,9.501-4.728c0.973-0.352,1.936-0.733,2.896-1.12c3.016-0.67,6.084-1.807,8.334-2.252    c6.413-1.268,13.089-0.123,19.625,0.677c2.245,0.913,4.476,1.869,6.757,2.695c3.28,1.187,6.998,2.094,9.501,4.728    c2.28,2.397,2.315,5.17,2.138,8.34c-0.101,1.804-0.016,3.996-0.593,5.721c-0.885,2.648-1.795,1.577-4.22,0.826    c-0.191-0.059-0.385-0.116-0.579-0.175c0.679-1.288,0.992-2.847,1.275-4.23c0.407-1.983,1.039-3.732,0.749-5.771    c-0.154-1.084-1.483-1.924-2.492-1.898c-2.847,0.074-3.66,3.291-4.168,5.555c-0.104,0.467-0.198,0.937-0.276,1.409    c-0.04,0.242-0.163,1.123-0.162,1.153c-0.11,0.667-0.265,1.329-0.457,1.824c-1.51-0.364-3.015-0.596-4.304-0.774    c0.034-0.396,0.056-0.812,0.076-1.26c0.261-0.734,0.44-1.491,0.495-2.145c0.14-1.625,0.572-3.261,0.337-4.885    c-0.355-2.452-3.588-2.153-4.719-0.616c-0.992,1.345-1.196,2.953-1.282,4.581c-0.043,0.824-0.148,1.597-0.242,2.413    c-0.02,0.17-0.018,0.386-0.014,0.609c-2.366-0.632-5.067-0.568-7.707-0.329c-0.306-2.373-0.231-4.825-0.325-7.214    c0.114-2.869-4.345-2.865-4.459,0c-0.099,2.465-0.474,5.21-0.202,7.765c-0.423,0.047-0.845,0.093-1.246,0.126    c-0.83,0.07-2.131,0.074-3.605,0.126c-0.721-0.005-1.463,0.032-2.198,0.095c-0.02-0.391,0.02-0.861-0.016-1.177    c-0.094-0.816-0.2-1.588-0.242-2.413c-0.085-1.629-0.289-3.235-1.281-4.581c-1.132-1.536-4.365-1.835-4.719,0.616    c-0.235,1.624,0.197,3.26,0.337,4.885c0.056,0.654,0.236,1.411,0.495,2.145c0.021,0.447,0.042,0.864,0.076,1.26    c-1.289,0.177-2.794,0.411-4.304,0.774c-0.191-0.495-0.346-1.158-0.457-1.824c0.001-0.029-0.122-0.911-0.162-1.153    c-0.077-0.472-0.171-0.942-0.276-1.409c-0.507-2.265-1.321-5.481-4.168-5.555c-1.011-0.027-2.34,0.814-2.492,1.898    c-0.289,2.04,0.343,3.79,0.749,5.771c0.284,1.383,0.596,2.942,1.275,4.23c-0.193,0.059-0.386,0.116-0.579,0.175    c-2.427,0.75-3.336,1.822-4.22-0.826C113.672,110.469,113.756,108.277,113.655,106.473z M163.487,117.203    c1.725,0.538,3.448,1.156,5.189,1.957c-0.294,8.953,1.829,18.107,1.305,27.091c-0.299,5.135,0.446,10.552,0.833,15.698    c0.351,4.664,0.123,9.503,1.148,14.084c0.201,0.898,0.447,1.721,0.731,2.501c-1.861-0.551-3.692-1-5.378-1.399    c0.042-2.522-0.709-5.333-0.898-7.475c-0.585-6.612-1.185-13.227-1.734-19.839C163.814,139.327,165.714,127.637,163.487,117.203z     M156.24,142.661c-0.296-5.342-0.599-10.728-0.619-16.083c-0.014-3.655,0.399-7.947-0.375-11.676    c2.306,0.667,4.557,1.221,6.799,1.868c-0.043,1.728-0.171,3.939-0.168,4.177c0.041,3.375-0.223,6.784-0.275,10.163    c-0.1,6.497-0.429,12.992-0.009,19.472c0.404,6.253,0.723,12.524,1.135,18.766c0.123,1.874-0.05,4.459,0.241,6.811    c-0.933-0.183-1.959-0.359-3.041-0.498c-0.612-0.191-1.239-0.351-1.872-0.494c0-0.015,0.004-0.028,0.004-0.045    C157.807,164.277,156.838,153.468,156.24,142.661z M145.47,163.621c0-6.599,0.021-13.198,0.012-19.796    c-0.013-9.737,1.556-19.921-0.078-29.558c0.729-0.052,1.457-0.107,2.187-0.147c1.59,0.723,4.357,0.437,5.617,0.528    c0.114,0.008,0.231,0.019,0.346,0.028c-0.191,1.799-0.501,4.627-0.51,4.768c-0.146,2.733-0.114,5.486-0.176,8.221    c-0.12,5.289,0.133,10.605,0.344,15.886c0.412,10.328,1.102,20.675,1.177,31.032c-2.807-0.281-5.709-0.248-8.543-0.086    C146.093,170.923,145.47,166.761,145.47,163.621z M141.848,174.791c-1.28,0.109-2.526,0.224-3.723,0.325    c-1.351,0.114-2.7,0.209-4.044,0.315c0.423-4.697-0.466-10.077-0.494-14.536c-0.038-6.03,0.096-12.13,0.568-18.138    c0.699-8.899,2.066-18.662,1.122-27.655c2.056-0.193,4.082-0.485,5.837-0.564c0.697-0.031,1.383-0.082,2.071-0.128    c0.198,10.433-1.202,21.005-1.229,31.476c-0.016,6.29-0.007,12.58-0.007,18.872C141.948,167.561,141.306,171.523,141.848,174.791z     M130.321,175.466c-2.039,0.137-4.029,0.468-5.649,0.802c-0.444-20.015,2.431-40.009,3.25-59.99    c1.23-0.335,2.466-0.659,3.717-1.003c0.574,0.009,1.159-0.009,1.746-0.039c-1.099,9.451-1.708,18.841-2.468,28.357    c-0.456,5.722-0.551,11.559-0.566,17.3C130.339,165.61,129.644,170.72,130.321,175.466z M121.207,177.058    c-1.77,0.416-3.724,0.891-5.702,1.477c0.284-0.778,0.531-1.602,0.731-2.501c1.025-4.582,0.796-9.421,1.148-14.084    c0.387-5.147,1.133-10.565,0.833-15.698c-0.525-8.983,1.598-18.138,1.305-27.091c2.038-0.937,4.051-1.627,6.071-2.226    C123.789,136.975,120.9,156.891,121.207,177.058z M106.594,200.166c-1.071-3.561-1.451-7.057-0.546-10.702    c0.21-0.848,0.445-1.45,0.731-1.939c5.007-2.194,10.883-3.181,16.071-4.459c12.872-3.169,29.581-3.182,42.502,0    c5.189,1.277,11.065,2.265,16.071,4.459c0.286,0.49,0.521,1.093,0.731,1.939c0.905,3.644,0.524,7.141-0.546,10.702    c-0.66,2.192-1.357,4.64-2.22,6.735c-0.12,0.289-0.149,0.484-0.121,0.627c-0.92-0.481-2.407-1.593-2.907-1.844    c-0.636-0.32-1.293-0.601-1.956-0.866c0.135-0.4,0.234-0.821,0.303-1.257c0.514-1.49,1.02-2.982,1.527-4.475    c0.647-1.904,1.46-3.697,1.114-5.737c-0.249-1.465-2.422-2.381-3.626-1.476c-2.573,1.934-2.96,4.614-3.531,7.591    c-0.196,1.018-0.576,2.475-0.72,3.829c-1.21-0.289-2.429-0.527-3.644-0.753c0.103-0.85,0.083-1.754,0.097-2.578    c0.002-0.112,0.018-0.231,0.022-0.345c0.525-2.495,1.58-5.041,1.722-7.578c0.122-2.182-2.806-3.257-4.257-1.763    c-1.472,1.516-2.05,3.792-2.234,5.852c-0.115,1.291-0.495,2.53-0.555,3.834c-0.001,0.015-0.045,1.438,0.045,1.532    c-1.385-0.292-2.793-0.555-4.204-0.743c0.041-0.436,0.059-0.871,0.04-1.29c-0.041-0.89-0.069-1.652-0.001-2.478    c0.405-1.818,0.952-3.332,0.657-5.232c-0.386-2.479-3.737-2.309-4.888-0.639c-1.111,1.612-1.491,4.624-1.628,6.57    c-0.066,0.919-0.115,1.732-0.217,2.571c-1.599-0.265-3.25-0.46-4.915-0.569c0-0.048-0.008-0.095-0.007-0.143    c-0.011-0.734,0.061-1.466,0.029-2.2c-0.007-0.15-0.022-0.31-0.043-0.477c0.016-0.202,0.041-0.393,0.053-0.607    c0.076-1.452,0.485-3.224,0.013-4.633c-0.513-1.532-2.82-2.092-3.657-0.478c-0.953,1.841-0.771,3.72-0.782,5.726    c-0.006,0.961-0.131,1.861-0.181,2.747c-1.073,0.046-2.14,0.134-3.192,0.274c-0.074-0.715-0.123-1.424-0.18-2.212    c-0.137-1.945-0.518-4.958-1.628-6.57c-1.152-1.671-4.502-1.841-4.888,0.639c-0.296,1.901,0.252,3.414,0.657,5.232    c0.068,0.826,0.04,1.588-0.001,2.478c-0.019,0.419-0.001,0.855,0.04,1.29c-1.411,0.188-2.819,0.451-4.204,0.743    c0.089-0.094,0.046-1.517,0.045-1.532c-0.06-1.304-0.44-2.542-0.555-3.834c-0.184-2.06-0.762-4.337-2.234-5.852    c-1.451-1.493-4.379-0.419-4.257,1.763c0.142,2.537,1.198,5.083,1.722,7.578c0.005,0.113,0.02,0.234,0.021,0.345    c0.015,0.824-0.006,1.729,0.097,2.578c-1.216,0.224-2.435,0.464-3.644,0.753c-0.142-1.355-0.524-2.812-0.72-3.829    c-0.572-2.977-0.958-5.656-3.531-7.591c-1.206-0.905-3.378,0.011-3.626,1.476c-0.346,2.04,0.466,3.832,1.114,5.737    c0.507,1.492,1.013,2.985,1.527,4.475c0.069,0.437,0.168,0.857,0.303,1.257c-0.663,0.265-1.32,0.546-1.956,0.866    c-0.5,0.251-1.986,1.363-2.907,1.844c0.028-0.144-0.001-0.338-0.121-0.627C107.951,204.805,107.254,202.358,106.594,200.166z     M169.69,270.019c-0.378-6.264-0.677-12.577-1.178-18.831c-0.64-7.992-0.648-15.923-0.623-23.944    c0.011-3.544-0.296-7.079-0.513-10.617c-0.163-2.656-0.918-5.133-1.296-7.705c5.622,1.374,10.083,2.947,9.8,4.579    c-2.352,13.439-1.37,28.052-1.189,41.538c0.083,6.185,1.093,12.37,1.55,18.539c0.249,3.348-0.795,7.826-0.669,11.789    c-1.294-0.326-2.592-0.625-3.902-0.855c-0.297-0.052-0.622-0.107-0.951-0.161C170.914,279.631,169.963,274.529,169.69,270.019z     M154.236,206.457c3.234,0.607,6.889,1.313,10.263,2.09c-0.761,13.608-1.125,27.707,0.039,41.285    c0.545,6.352,0.89,12.748,1.246,19.115c0.269,4.796,0.166,9.982,0.735,14.89c-1.922-0.127-3.916-0.075-5.639,0.393    c-1.474-0.028-2.935-0.019-4.371-0.019c0.02-4.657-0.745-9.424-0.778-14.053c-0.053-7.707-0.387-15.367-0.552-23.055    c-0.161-7.509-0.32-15.081,0.102-22.565C155.613,218.646,155.369,212.319,154.236,206.457z M152.128,225.507    c-0.668,7.084-0.353,14.477-0.324,21.595c0.053,12.376,0.249,24.731,0.981,37.073c-2.807-0.039-5.621-0.094-8.436-0.108    c0.531-4.251,0.04-8.879-0.243-12.93c-0.46-6.591-1.39-13.164-1.598-19.787c-0.241-7.692,0.23-15.472,0.652-23.141    c0.197-3.59,0.349-7.177,0.556-10.77c0.184-3.193-1.027-9.021,0.255-12.302c0.593-0.022,1.183-0.04,1.783-0.079    c0.333-0.022,0.669-0.033,1.006-0.04c1.437,0.316,3.57,0.71,6.035,1.17C151.65,212.51,152.731,219.104,152.128,225.507z     M123.948,283.789c-1.753-0.046-3.552,0.133-5.147,0.359c-0.02-12.269-0.081-24.533,0.876-36.76    c0.514-6.573,0.882-13.154,1.293-19.729c0.377-6.034,1.086-12.506,0.406-18.551c2.935-0.741,6.238-1.429,9.385-2.04    c-1.895,5.615-2.065,12.067-2.701,17.894c-0.89,8.153-1.444,16.364-2.193,24.534c-0.608,6.629-0.495,13.245-1.001,19.855    C124.538,273.623,123.673,279.016,123.948,283.789z M112.318,213.5c-0.228-1.316,2.639-2.592,6.701-3.758    c-2.667,24.913-3.544,49.943-3.612,74.994c-0.93,0.19-1.857,0.397-2.78,0.63c0.126-3.963-0.918-8.44-0.669-11.789    c0.457-6.168,1.466-12.354,1.55-18.539C113.689,241.552,114.671,226.937,112.318,213.5z M128.527,267.904    c0.531-6.29,0.459-12.625,1.011-18.944c0.639-7.306,1.308-14.605,1.925-21.915c0.564-6.673,0.473-13.78,1.421-20.366    c0.001-0.007-0.001-0.012,0-0.019c2.813-0.533,5.383-0.997,7.274-1.376c0.151-0.008,0.302-0.011,0.453-0.016    c-0.265,1.502-0.093,3.122-0.088,4.664c0.012,3.973-0.234,7.883-0.393,11.841c-0.343,8.48-0.722,16.948-0.775,25.444    c-0.046,7.331,0.547,14.725,1.26,22.01c0.452,4.627,0.122,10.013,0.851,14.846c-2.494,0.023-4.982,0.101-7.457,0.288    c-1.803,0.136-3.576,0.247-5.325,0.363c-0.386-0.18-0.803-0.318-1.23-0.441C126.913,279.036,128.128,272.634,128.527,267.904z     M97.756,316.588c-0.193,0.201-0.384,0.403-0.576,0.605c-0.377-1.055-0.763-2.107-1.161-3.154    c-0.477-1.343-0.774-2.719-1.206-4.063c-0.896-2.788-3.068-5.898-2.172-8.977c0.917-3.151,5.109-5.593,8.008-6.619    c0.12-0.042,0.245-0.076,0.369-0.113c0.25-0.063,0.499-0.127,0.75-0.171c0.861-0.148,1.723-0.278,2.586-0.403    c0.935-0.102,1.875-0.204,2.769-0.394c1.648-0.24,3.294-0.504,4.923-0.883c2.457-0.572,5.043-1.167,7.663-1.612    c4.142-0.279,8.245-0.333,12.442-0.519c6.241-0.276,12.457-0.33,18.718-0.365c2.128-0.012,4.251-0.093,6.372-0.174    c0.377,0.344,0.853,0.56,1.338,0.511c5.795-0.598,12.01,0.865,17.576,2.159c1.628,0.379,3.274,0.643,4.922,0.883    c0.893,0.19,1.835,0.292,2.769,0.394c0.864,0.124,1.727,0.255,2.586,0.403c0.251,0.043,0.5,0.108,0.75,0.171    c0.123,0.036,0.249,0.07,0.369,0.113c2.897,1.026,7.091,3.468,8.008,6.619c0.896,3.079-1.275,6.189-2.172,8.977    c-0.432,1.345-0.729,2.72-1.206,4.063c-0.398,1.047-0.784,2.099-1.161,3.154c-0.191-0.201-0.384-0.403-0.576-0.605    c-0.904,0.09-1.921-0.022-2.969-0.22c0.615-1.286,0.951-2.691,1.249-4.166c0.464-2.29,1.437-4.647,0.87-6.981    c-0.58-2.387-3.558-2.33-4.809-0.629c-1.139,1.55-1.507,3.571-1.836,5.416c-0.291,1.634-0.838,3.278-1.167,4.927    c-0.16-0.036-0.326-0.08-0.479-0.11c-1.631-0.328-3.395-0.696-5.196-0.984c0.046-0.419,0.078-0.839,0.09-1.256    c0.006-0.183,0.02-0.37,0.027-0.553c0.041-0.396,0.086-0.79,0.176-1.16c0.32-1.31,0.468-2.593,0.704-3.916    c0.2-1.125,0.566-2.135,0.419-3.297c-0.373-2.954-3.959-3.455-5.084-0.688c-1.155,2.836-1.576,6.086-1.801,9.129    c-0.041,0.547-0.106,0.938-0.191,1.281c-0.488,0.012-0.973,0.039-1.451,0.088c-1.543-0.128-3.071-0.243-4.586-0.365    c0.163-1.026,0.243-2.032,0.257-3.05c0.67-2.42,0.925-4.999,0.497-7.232c-0.518-2.699-3.904-2.409-5.232-0.683    c-0.758,0.985-0.896,2.823-1.119,4.063c-0.293,1.631,0.026,3.28-0.169,4.919c-0.047,0.399-0.156,0.862-0.282,1.357    c-1.428-0.159-3.179-0.315-4.974-0.384c0.022-0.129,0.039-0.262,0.043-0.397c0.061-1.796-0.063-3.586,0.033-5.383    c0.083-1.567-0.032-2.916-0.656-4.367c-0.829-1.921-3.307-1.277-4.286,0c-1.268,1.654-0.424,4.096-0.633,5.995    c-0.144,1.305,0.013,2.308,0.141,3.594c-2.187,0.005-4.409,0.238-6.594,0.405c-0.417-2.95,0.311-6.161-1.356-8.846    c-1.045-1.683-4.149-1.618-4.556,0.595c-0.315,1.709-0.033,3.077,0.333,4.749c0.059,0.268,0.103,0.533,0.153,0.798    c-0.031,0.298-0.059,0.587-0.072,0.848c-0.034,0.668-0.055,1.331-0.012,1.974c-2.175,0.032-4.367,0.225-6.091,0.416    c-0.127-0.495-0.235-0.958-0.282-1.357c-0.195-1.64,0.124-3.288-0.169-4.919c-0.223-1.24-0.36-3.078-1.119-4.063    c-1.329-1.726-4.715-2.016-5.232,0.683c-0.429,2.232-0.174,4.812,0.497,7.232c0.014,1.017,0.094,2.024,0.257,3.05    c-1.514,0.122-3.043,0.237-4.586,0.365c-0.478-0.049-0.963-0.075-1.451-0.088c-0.085-0.343-0.15-0.734-0.191-1.281    c-0.225-3.043-0.646-6.293-1.801-9.129c-1.126-2.766-4.712-2.266-5.085,0.688c-0.147,1.161,0.22,2.172,0.419,3.297    c0.236,1.323,0.383,2.606,0.704,3.916c0.09,0.369,0.135,0.763,0.176,1.16c0.007,0.184,0.021,0.37,0.027,0.553    c0.013,0.416,0.045,0.837,0.09,1.256c-1.801,0.288-3.565,0.656-5.196,0.984c-0.153,0.031-0.319,0.074-0.479,0.11    c-0.329-1.649-0.876-3.294-1.167-4.927c-0.329-1.844-0.696-3.866-1.836-5.416c-1.25-1.701-4.23-1.757-4.809,0.629    c-0.566,2.334,0.407,4.69,0.871,6.98c0.298,1.475,0.634,2.881,1.249,4.167C99.678,316.566,98.66,316.678,97.756,316.588z     M146.549,440.944c-0.322-6.162,0.129-12.242,0.055-18.42c-0.157-13.068,0.167-26.388-0.541-39.452    c-0.627-11.572-1.199-23.205-1.354-34.803c-0.133-9.897,1.814-20.599,0.197-30.465c0.349,0.013,0.701-0.097,0.988-0.405    c-1.282,1.372,2.549,0.345,2.78,0.329c2.099-0.153,4.168,0.094,6.25,0.288c0.558,0.052,1.848,0.163,3.574,0.325    c-1.17,11.563-0.302,23.754-0.319,35.386c-0.02,13.301,0.351,26.544,0.317,39.849c-0.032,12.66-0.504,25.519,0.345,38.147    c0.587,8.74,0.895,17.68,0.514,26.461c-1.583-0.002-3.169-0.013-4.762-0.038c-2.785-0.045-5.757-0.155-8.725-0.09    c0.019-0.039,0.046-0.069,0.061-0.112C147.765,453.097,146.817,446.065,146.549,440.944z M127.716,391.483    c-0.622,11.858-0.75,23.711-1.395,35.572c-0.563,10.365-1.433,20.715-1.287,31.126c-3.106-0.014-6.21-0.043-9.34-0.045    c-1.349-0.001-2.89,0.122-4.493,0.238c0.083-1.131,0.248-2.505,0.247-2.748c-0.013-2.92-0.006-5.839-0.008-8.759    c-0.006-6.24,0.1-12.434,0.27-18.67c0.34-12.498,1.255-24.966,1.604-37.471c0.338-12.1,1.362-24.224,1.459-36.319    c0.048-5.9,0.573-11.844,1.13-17.72c0.522-5.493,1.305-11.359,0.942-16.924c4.26-0.57,8.783-1.033,12.053-1.344    C125.943,342.567,128.991,367.175,127.716,391.483z M131.007,391.483c1.128-24.338-2.106-49.001-0.027-73.259    c1.082-0.099,1.885-0.169,2.295-0.207c2.083-0.194,4.152-0.44,6.251-0.288c0.232,0.018,4.062,1.044,2.78-0.329    c0.31,0.332,0.697,0.432,1.073,0.393c-0.001,3.867-0.861,12.374-0.91,13.601c-0.225,5.603-0.576,11.273-0.593,16.876    c-0.034,11.895,0.492,23.792,0.947,35.667c0.492,12.81,0.203,25.785,0.338,38.587c0.057,5.456-0.78,10.998-0.378,16.425    c0.434,5.891-1.035,13.478,1.051,18.997c0.022,0.06,0.057,0.104,0.087,0.157c-3.49-0.164-7.033-0.006-10.316,0.046    c-1.621,0.026-3.234,0.035-4.844,0.038C129.448,435.943,129.976,413.711,131.007,391.483z M97.457,438.291    c-0.021-5.478,0.808-10.872,0.614-16.343c-0.416-11.79,1.019-23.489,1.459-35.258c0.42-11.25,2.954-22.272,3.606-33.468    c0.592-10.162,1.276-20.206,1.507-30.337c0.025-1.053,4.685-2.042,10.256-2.85c-3.092,24.096-5.075,48.704-5.021,72.971    c0.027,12.469-1.538,24.878-1.683,37.336c-0.076,6.503-0.303,12.97-0.31,19.486c-0.002,2.666,0.161,5.378-0.063,8.028    c-0.022,0.263-0.05,0.491-0.08,0.706c-4.501,0.106-8.81-0.56-10.273-4.784C95.776,448.886,97.475,443.3,97.457,438.291z     M132.802,492.809c-0.004,2.611-0.133,5.093-0.426,7.698c-0.151,1.339-0.333,2.665-0.34,3.968    c-4.146-0.744-8.289-1.195-12.448-1.415c0.025-1.696,0.046-3.395,0.041-5.093c-0.004-1.257-1.016-8.118-0.23-9.034    c1.179-1.374,7.071,0.259,8.389,0.322c1.362,0.065,3.592-0.61,5.117-0.715C133.049,489.938,132.804,491.536,132.802,492.809z     M179.669,494.747c-0.236,2.84-1.106,5.431-0.895,8.156c-4.243-0.074-8.453-0.005-12.65,0.305c0.197-2.254,0.387-4.502,0.42-6.783    c0.057-3.925-0.236-8.628,1.996-12.097c3.036-4.717,9.861-3.821,11.26,1.518C180.49,488.483,179.893,492.053,179.669,494.747z     M204.851,484.537c-0.223,2.699-1.135,5.208-1.55,7.843c-0.367,2.33-0.065,4.817-0.905,7.079c-0.66,1.775,0.429,1.357-1.506,2.275    c-0.957,0.456-2.584,0.23-3.619,0.24c-4.462,0.036-8.981,1.006-13.408,1.033c1.793-9.315,1.345-28.862-11.99-25.695    c-9.947,2.363-11.369,16.935-9.08,26.194c-2.324,0.245-4.647,0.568-6.971,0.994c-2.214,0.066-4.427,0.151-6.648,0.305    c-4.253,0.295-8.447,0.185-12.631,0.104c-0.4-2.934,0.311-6.168,0.252-9.044c-0.055-2.711,0.519-6.411-0.222-9.017    c-0.479-1.685-1.423-2.065-3.021-2.143c-1.193-0.059-2.569,0.502-3.785,0.574c-1.755,0.104-3.334-0.063-5.058-0.189    c-4.125-0.302-8.818-0.592-9.151,4.433c-0.294,4.426-0.501,9.022,0.096,13.39c-3.363-0.075-6.74-0.035-10.143,0.086    c-4.8,0.17-9.725-0.99-14.582-1.028c-1.035-0.008-2.663,0.216-3.619-0.24c-1.935-0.918-0.845-0.501-1.505-2.275    c-0.841-2.262-0.538-4.749-0.905-7.079c-0.414-2.634-1.327-5.144-1.55-7.843c-0.238-2.885,0.378-5.727,0.269-8.618    c-0.163-4.333,0.095-6.667,4.763-8.489c2.706-1.055,5.583-0.514,8.369-1.021c1.208-0.221,2.449-0.443,3.703-0.661    c4.8,0.109,9.625,0.04,14.401,0.045c5.947,0.006,11.757,0.209,17.715,0.031c3.714-0.11,7.66,0.115,11.532-0.053    c3.871,0.167,7.816-0.058,11.532,0.053c5.957,0.177,11.768-0.026,17.715-0.031c4.776-0.005,9.6,0.065,14.401-0.045    c1.253,0.218,2.495,0.441,3.703,0.661c2.786,0.507,5.663-0.034,8.369,1.021c4.668,1.822,4.926,4.156,4.763,8.489    C204.473,478.811,205.089,481.653,204.851,484.537z M226.361,490.69c-0.094,4.06-0.704,8.34-0.513,12.362    c0.019,0.385,0.136,0.703,0.309,0.966c-2.489-0.08-4.968-0.112-7.512,0.002c-0.303,0.014-0.603,0.04-0.906,0.056    c0.265-1.626,0.047-8.538,0.047-8.975c0-4.177-0.136-11.586,2.281-14.98c0.807-2.908,2.846-2.97,6.119-0.185    c-0.004,0.693,0.046,1.382,0.147,2.065C226.951,484.631,226.423,487.991,226.361,490.69z M232.46,495.07    c-0.092,2.958-0.906,6.336-0.371,9.163c-0.389-0.001-0.784-0.007-1.196-0.026c-0.513-0.023-1.019-0.045-1.527-0.067    c0.191-0.283,0.303-0.643,0.282-1.088c-0.24-5.021,3.79-32.538-6.993-28.846c-5.194,1.779-6.438,6.606-7.011,11.543    c-0.714,6.147-1.114,12.375,0.218,18.444c-2.118,0.141-4.232,0.303-6.349,0.448c1.401-3.154,1.297-7.226,1.634-10.461    c0.335-3.211,1.038-6.397,1.173-9.643c0.252-6.092-0.068-15.669-3.992-21.147c4.164-0.129,8.415-0.767,12.22-0.769    c3.313-0.001,8.594,0.625,12.883-0.056C233.236,473.404,232.795,484.238,232.46,495.07z M321.15,352.002    c1.529-2.611,4.366-3.119,7.194-2.815c2.633,0.283,4.624,0.824,6.314,3.043c0.221,0.289,0.434,0.58,0.647,0.87    c-3.86-0.231-7.745-0.247-11.756,0.175c-1.044,0.109-2.087,0.229-3.129,0.358C320.623,353.08,320.84,352.529,321.15,352.002z     M265.264,385.024c1.673-2.43,3.771-4.704,5.745-6.892c3.918-4.343,8.419-6.875,13.36-9.894c0.507-0.31,1.019-0.588,1.53-0.875    c4.52-1.134,8.82-2.719,13.439-3.922c8.098-2.112,16.343-3.333,24.591-4.499c7.911-1.119,15.67-0.461,23.508,0.607    c12.354,1.686,25.238,2.005,36.176,8.689c4.941,3.019,9.443,5.552,13.36,9.894c1.975,2.188,4.073,4.462,5.745,6.892    c1.251,1.816,4.11,6.504,3.72,9.011c-0.357,2.301-2.929,1.541-5.269,1.7c-3.577,0.242-7.12,0.407-10.708,0.533    c-6.034,0.213-12.023-0.029-18.043-0.055c-13.273-0.056-26.388-0.987-39.61-0.019c-1.878,0.137-3.813,0.075-5.731,0.107    c-10.425-0.904-21.139-0.133-31.517-0.089c-6.02,0.026-12.009,0.268-18.043,0.055c-3.588-0.126-7.131-0.291-10.708-0.533    c-2.341-0.159-4.912,0.601-5.27-1.7C261.154,391.528,264.013,386.84,265.264,385.024z M262.229,505.308    c-0.868-0.068-1.736-0.123-2.603-0.215c-2.908-0.306-5.691-0.893-8.625-0.966c-0.219-0.006-0.456-0.006-0.686-0.007    c-0.041-4.058-0.808-8.082-0.639-12.113c0.136-3.243,0.843-6.188,1.566-9.34c0.69-3.018,3.547-8.831,7.752-6.588    c3.066,1.635,2.954,8.802,3.197,11.724c0.224,2.685-0.112,5.494-0.129,8.191C262.04,499.043,261.53,502.346,262.229,505.308z     M286.244,493.866c-0.085,3.598-0.821,7.842-0.605,11.678c-3.449,0.063-6.901,0.139-10.347,0.157    c0.17-0.189,0.296-0.418,0.317-0.694c0.433-5.565-0.124-10.988-0.09-16.525c0.019-3.172-0.217-7.679,1.021-10.547    c2.029-4.698,7.414-6.851,9.372-0.588c0.586,1.875,0.284,4.658,0.424,6.674C286.561,487.296,286.322,490.586,286.244,493.866z     M299.016,501.536c-0.276,2.2-0.383,3.709-2.666,3.959c-1.956-0.034-3.914-0.031-5.873-0.015    c-0.255-3.396,0.369-7.464,0.305-10.567c-0.081-4.013-0.223-7.985-0.551-11.966c-0.512-6.213-0.019-12.958-7.792-13.481    c-15.789-1.061-10.5,26.605-9.183,35.86c0.021,0.15,0.073,0.269,0.133,0.378c-2.211-0.004-4.42-0.035-6.626-0.124    c0.081-2.868-0.325-5.857-0.345-8.703c-0.026-3.783,0.288-7.579-0.511-11.298c-1.222-5.694-2.077-14.632-9.569-14.906    c-7.607-0.278-8.219,8.348-9.442,13.9c-1.415,6.419-1.085,13.149,0.403,19.554c-2.211,0.001-4.532-0.072-6.375-0.602    c-2.424-0.697-2.411-0.484-2.269-3.277c0.074-1.456,0.389-2.887,0.459-4.34c0.153-3.171-0.115-6.452-0.198-9.625    c-0.155-5.851-0.021-11.683,0.281-17.526c0.158-3.075,0.127-6.155,0.089-9.236c0.093-0.297,0.077-0.601-0.011-0.891    c0-0.027,0-0.054-0.001-0.08c3.408,0.646,7.374,0.221,10.575,0.225c6.269,0.009,12.717,0.079,18.967-0.529    c6.568-0.638,13.203-0.876,19.807-0.571c3.077,0.142,7.047,1.709,9.989,0.729c0.005,1.089-0.001,2.182,0.027,3.263    c0.196,7.609,0.221,15.237,0.373,22.896c0.074,3.696-0.041,7.403,0.057,11.096c0.022,0.825,0.059,1.655,0.076,2.484    C299.171,499.277,299.157,500.411,299.016,501.536z M239.582,413.35c9.317-0.074,18.598-0.61,27.888-0.969    c-1.143,6.844-0.52,14.164-0.612,21.033c-0.09,6.83-0.693,13.768,0.211,20.556c-0.039,0.004-0.077,0.006-0.116,0.011    c-4.833,0.495-9.69,0.262-14.519,0.733c-3.203,0.313-6.409,0.306-9.623,0.501c-0.777,0.046-2.259,0.364-3.558,0.591    c-0.007-1.833,0.008-3.664,0.089-5.493C239.868,438.504,241.586,425.196,239.582,413.35z M298.657,453.578    c-4.785-0.173-9.355-0.709-14.233-0.608c-4.348,0.09-8.622,0.273-12.917,0.605c-0.249-7.099-0.433-14.205-0.509-21.316    c-0.069-6.534,0.479-13.469-0.616-19.976c4.811-0.163,9.625-0.266,14.451-0.207c4.985,0.061,9.947-0.089,14.901-0.322    c-0.56,3.837,0.168,8.26,0.124,11.979c-0.031,2.542,0.108,4.993,0.329,7.428C299.42,438.61,298.823,446.156,298.657,453.578z     M350.698,497.883c0.453,2.671,0.771,5.224,1.584,7.296c-2.376,0.016-4.759,0.087-7.112-0.093    c-5.313-0.406-10.731-0.115-16.064-0.097c-4.085,0.014-8.678-0.378-13.21-0.367c0.668-1.966,0.974-4.301,1.389-6.74    c1.18-6.956,0.823-13.713,0.515-20.707c-0.369-8.394-2.572-17.216-2.499-25.627c1.777-0.563,3.853-0.234,5.347-1.43    c1.882-1.505,1.39-3.514,1.391-5.729c0.001-4.505,0.221-8.72,2.837-12.64c0.768-1.149,1.664-2.045,2.622-2.836    c2.632-0.789,4.447-3.173,7.481-2.84c0.587,0.065,1.188,0.108,1.787,0.159c2.302,1.619,4.629,2.957,6.339,5.518    c2.617,3.92,2.836,8.136,2.837,12.64c0.001,2.215-0.491,4.224,1.391,5.729c1.495,1.196,3.57,0.865,5.347,1.43    c0.073,8.41-2.131,17.232-2.499,25.627C349.875,484.17,349.517,490.927,350.698,497.883z M364.958,493.889    c0.001,1.517,0.42,3.041,0.404,4.547c-0.02,1.945,0.035,6.134-2.165,6.627c-1.743,0.391-4.979-0.391-5.9-2.015    c-1.061-1.868-1.067-5.301-1.416-7.423c-1.863-11.343-0.09-23.557,1.122-34.896c0.325-3.044,1.964-9.232,0.309-12.042    c-0.796-1.35-2.563-1.741-3.959-2.023c-3.581-0.723-2.793-1.512-2.954-4.955c-0.25-5.324-0.965-9.274-4.382-13.477    c-0.819-1.008-1.669-1.843-2.639-2.596c-1.091-3.016-5.349-3.995-8.247-4.398c-2.566-0.356-6.174,0.854-8.321,2.984    c-0.236,0.11-0.477,0.234-0.73,0.387c-1.654,1.006-2.903,2.132-4.114,3.622c-3.416,4.204-4.132,8.153-4.383,13.477    c-0.162,3.443,0.626,4.232-2.954,4.955c-1.395,0.282-3.162,0.673-3.958,2.023c-1.656,2.81-0.018,8.999,0.308,12.041    c1.213,11.339,2.985,23.554,1.122,34.897c-0.349,2.123-0.356,5.555-1.416,7.423c-0.578,1.017-2.202,1.489-3.235,1.792    c-1.829,0.536-2.593,0.804-3.318-1.077c-1.203-3.128-1.112-6.667-1.109-9.875c0.003-4.534,0.045-9.054-0.2-13.581    c-0.377-6.997-0.43-14.272-0.24-21.264c0.341-12.482,2.158-25.204,1.221-37.723c0.047-2.732,0.174-6.633-0.457-9.742    c9.911-0.546,19.798-1.363,29.762-1.601c0.338-0.008,0.63-0.086,0.88-0.21c0.25,0.123,0.542,0.202,0.88,0.21    c9.965,0.238,19.851,1.055,29.762,1.601c-0.63,3.108-0.505,7.01-0.457,9.742c-0.938,12.519,0.879,25.241,1.22,37.723    c0.191,6.992,0.137,14.267-0.24,21.264C364.914,484.834,364.955,489.355,364.958,493.889z M368.251,411.754    c4.954,0.234,9.917,0.384,14.901,0.322c4.824-0.06,9.638,0.045,14.451,0.207c-1.095,6.507-0.547,13.442-0.616,19.976    c-0.076,7.111-0.259,14.217-0.51,21.316c-4.296-0.331-8.569-0.515-12.917-0.605c-4.878-0.101-9.448,0.436-14.233,0.608    c-0.167-7.422-0.764-14.968-1.529-22.417c0.222-2.435,0.359-4.886,0.329-7.428C368.082,420.014,368.811,415.591,368.251,411.754z     M382.344,505.544c0.216-3.837-0.519-8.079-0.605-11.678c-0.078-3.281-0.317-6.57-0.092-9.846    c0.139-2.016-0.163-4.799,0.424-6.674c1.958-6.263,7.343-4.109,9.372,0.588c1.24,2.869,1.003,7.376,1.021,10.547    c0.034,5.536-0.524,10.96-0.09,16.525c0.021,0.276,0.148,0.505,0.317,0.694C389.244,505.683,385.793,505.607,382.344,505.544z     M417.668,504.119c-0.23,0.001-0.467,0.001-0.686,0.007c-2.934,0.074-5.717,0.66-8.625,0.966    c-0.866,0.092-1.735,0.147-2.602,0.215c0.7-2.962,0.188-6.266,0.167-9.317c-0.019-2.697-0.353-5.506-0.13-8.191    c0.243-2.922,0.13-10.09,3.197-11.724c4.205-2.241,7.061,3.57,7.752,6.588c0.723,3.152,1.43,6.099,1.566,9.34    C418.474,496.038,417.709,500.062,417.668,504.119z M427.057,503.524c-1.843,0.531-4.164,0.603-6.375,0.602    c1.487-6.405,1.816-13.134,0.403-19.554c-1.223-5.552-1.835-14.178-9.442-13.9c-7.492,0.274-8.347,9.212-9.569,14.906    c-0.798,3.72-0.485,7.516-0.511,11.298c-0.02,2.846-0.426,5.835-0.345,8.703c-2.206,0.089-4.414,0.121-6.625,0.124    c0.059-0.109,0.11-0.228,0.131-0.378c1.317-9.256,6.606-36.922-9.183-35.86c-7.773,0.522-7.28,7.268-7.792,13.481    c-0.328,3.982-0.47,7.955-0.551,11.966c-0.063,3.103,0.561,7.172,0.305,10.567c-1.959-0.016-3.916-0.02-5.872,0.015    c-0.817-0.089-1.64-0.14-2.465-0.178c0.04-0.717-0.066-1.459-0.273-2.177c-0.035-0.12-0.06-0.241-0.086-0.363    c0.4-1.485,0.191-3.017,0.151-4.631c-0.114-4.513-0.081-9.068,0.008-13.583c0.153-7.659,0.176-15.288,0.373-22.896    c0.028-1.08,0.022-2.174,0.027-3.262c2.942,0.98,6.912-0.587,9.989-0.729c6.605-0.305,13.239-0.067,19.807,0.571    c6.25,0.608,12.698,0.539,18.968,0.529c3.2-0.005,7.166,0.42,10.575-0.225c-0.04,3.405-0.096,6.809,0.079,10.207    c0.302,5.843,0.436,11.675,0.281,17.526c-0.085,3.174-0.351,6.455-0.198,9.625c0.07,1.452,0.385,2.884,0.459,4.34    C429.468,503.04,429.482,502.827,427.057,503.524z M428.639,450.312c0.081,1.83,0.096,3.662,0.089,5.493    c-1.3-0.225-2.782-0.544-3.558-0.591c-3.214-0.195-6.42-0.188-9.623-0.501c-4.829-0.471-9.685-0.237-14.519-0.733    c-0.039-0.004-0.078-0.006-0.116-0.011c0.904-6.789,0.302-13.726,0.211-20.556c-0.09-6.869,0.533-14.189-0.61-21.033    c9.29,0.358,18.571,0.895,27.888,0.969C426.396,425.196,428.115,438.504,428.639,450.312z M429.001,408.829    c-6.222-0.559-12.857-0.128-19.114-0.269c-12.263-0.276-24.729-0.109-36.985-0.74c-12.724-0.655-25.271-1.813-38.031-1.878    c-0.338-0.001-0.63,0.067-0.88,0.182c-0.25-0.116-0.542-0.184-0.88-0.182c-12.759,0.066-25.307,1.223-38.031,1.878    c-12.256,0.63-24.722,0.465-36.985,0.74c-6.257,0.141-12.891-0.29-19.114,0.269c-1.129,0.101-1.377,0.549-1.527,0.332    c0.02,0.028,0.336-2.948,0.676-3.334c1.525-1.728,7-1.464,9.354-1.585c6.192-0.317,12.506-0.775,18.707-0.889    c0.155-0.002,0.297-0.018,0.448-0.023c5.819,0.436,11.842,0.194,17.549-0.036c7.934-0.32,15.749-1.484,23.704-1.491    c5.276-0.005,10.581-0.122,15.852-0.553c2.991,0.458,6.194,0.27,9.063,0.147c2.312-0.1,4.852-0.2,7.313-0.56    c6.617,0.769,13.314,0.959,19.965,0.966c7.955,0.008,15.771,1.17,23.704,1.491c5.706,0.23,11.729,0.472,17.549,0.036    c0.151,0.005,0.295,0.02,0.45,0.023c6.202,0.114,12.516,0.572,18.707,0.889c2.354,0.121,7.83-0.143,9.354,1.585    c0.34,0.387,0.656,3.363,0.676,3.334C430.378,409.378,430.13,408.93,429.001,408.829z"/>
	</g>
</g>
<g>
	<g>
		<path d="M360.414,432.714c-0.122-2.528-0.47-4.977-0.923-7.404c0.007-0.046,0.028-0.085,0.029-0.133    c0.052-2.562-0.006-7.119-1.339-9.299c-0.842-1.375-1.853-1.754-3.483-1.909c-3.592-0.343-11.108,0.23-13.737,3.211    c-0.5,0.567-0.531,1.37,0,1.93c3.476,3.672,7.977,5.846,10.434,10.452c1.937,3.63,2.389,8.481,5.073,11.654    c0.349,0.412,1.115,0.622,1.622,0.428C361.43,440.367,360.551,435.621,360.414,432.714z M357.094,435.093    c-0.46-0.818-0.866-1.539-0.96-1.826c-1.155-3.505-2.686-7.191-5.33-9.878c-1.962-1.993-4.642-3.338-6.782-5.153    c2.444-1.398,6.382-1.118,8.787-1.228c2.841-0.13,2.421-0.594,3.043,1.909c0.157,0.633,0.286,1.281,0.424,1.925    c-0.015,3.092,0.499,6.235,0.694,9.28c0.09,1.409-0.062,2.937,0.134,4.331C357.1,434.668,357.096,434.88,357.094,435.093z"/>
	</g>
</g>
<g>
	<g>
		<path d="M421.867,424.847c-0.555-2.046-1.619-3.577-3.835-3.615c-3.253-0.055-6.376-1.385-9.696-1.134    c-1.914,0.146-2.329,0.85-2.735,2.6c-0.824,3.554-0.73,7.443-0.799,11.081c-0.053,2.798-0.608,7.276,0.675,9.959    c1.145,2.395,3.446,2.695,5.804,2.753c2.579,0.063,6.743,1.654,8.844-0.184c2.127-1.861,1.428-6.6,1.607-9.082    C422.024,433.167,422.956,428.864,421.867,424.847z M418.154,441.409c-0.776,3.085-3.585,1.762-6.211,1.581    c-1.516-0.104-2.221,0.326-3.099-1.074c-0.595-0.949-0.595-2.302-0.682-3.406c-0.275-3.53,0.04-7.043,0.304-10.558    c0.153-2.027-0.722-3.993,1.982-4.507c1.248-0.237,2.342,0.472,3.555,0.567c1.429,0.112,3.359-0.299,4.354,0.986    c1.372,1.773,0.273,5.5,0.27,7.535C418.618,435.284,418.833,438.71,418.154,441.409z"/>
	</g>
</g>
<g>
	<g>
		<path d="M390.927,436.067c-0.047-2.313-0.107-4.759-0.358-7.158c0.325-2.112-0.052-4.289,0.627-6.33    c0.183-0.552-0.019-1.244-0.433-1.639c-1.591-1.514-4.379-0.839-6.473-1.155c-2.019-0.304-6.132-0.734-7.898,0.591    c-1.836,1.375-1.706,5.457-1.809,7.502c-0.211,4.182-0.437,8.827,0.371,12.956c0.668,3.424,1.951,4.507,5.344,4.974    c2.443,0.336,7.671,2.417,9.846,0.29C392.258,444.029,390.979,438.681,390.927,436.067z M387.773,434.458    c-0.056,1.607-0.159,3.212-0.211,4.818c-0.055,1.702,0.527,3.382-1.043,3.882c-0.487,0.155-4.412-0.87-4.973-1.024    c-1.752-0.48-2.378-0.72-3.034-2.285c-1.094-2.612-0.359-6.824-0.373-9.649c-0.006-1.485-0.345-3.786,0.291-5.17    c1.412-3.07,4.816-1.662,7.277-1.479c2.877,0.215,1.851,2.501,2.108,4.609C387.919,430.285,387.843,432.474,387.773,434.458z"/>
	</g>
</g>
<g>
</g>
<g>
</g>
<g>
</g>
<g>
</g>
<g>
</g>
<g>
</g>
<g>
</g>
<g>
</g>
<g>
</g>
<g>
</g>
<g>
</g>
<g>
</g>
<g>
</g>
<g>
</g>
<g>
</g>
</svg>
