<?xml version="1.0" encoding="iso-8859-1"?>
<!-- Generator: Adobe Illustrator 19.0.0, SVG Export Plug-In . SVG Version: 6.00 Build 0)  -->
<svg xmlns="http://www.w3.org/2000/svg" xmlns:xlink="http://www.w3.org/1999/xlink" version="1.1" id="Layer_1" x="0px" y="0px" viewBox="0 0 512.004 512.004" style="enable-background:new 0 0 512.004 512.004;" xml:space="preserve">
<g>
	<g>
		<path d="M500.866,39.743c-0.24-4.495,0.209-9.12-1.038-13.506c-0.888-3.124-2.426-7.103-5.937-8.033    c-1.74-0.461-3.541,0.159-5.26,0.304c-2.283,0.192-4.654,0.064-6.941,0.095c-9.639,0.128-19.079-1.835-28.661-2.057    c-4.969-0.116-9.947-0.079-14.918-0.154c-4.505-0.068-8.857-1.293-13.372-0.952c-5.354,0.405-10.632,0.474-16.009,0.318    c-3.955-0.114-7.593,0.521-11.526,0.821c-0.533,0.041-1.067,0.069-1.6,0.104c0.017-3.116-0.219-6.29-0.363-9.393    c-0.076-1.645,0.301-3.734-0.914-5.075c-1.786-1.971-4.585-1.24-6.831-1.065c-3.986,0.312-7.97,0.086-11.951,0.675    c-1.999,0.295-5.134,0.307-6.803,1.63c-1.847,1.467-1.65,3.702-1.597,5.857c0.071,2.941-0.041,5.826-0.169,8.741    c-8.393,0.54-16.791-0.162-25.194-0.36c0.165-1.758,0.087-3.568,0.121-5.312c0.07-3.519,0.253-7.035-0.372-10.511    c-0.183-1.016-1.433-1.957-2.449-1.865c-3.729,0.341-7.463,0.668-11.2,0.872c-2.937,0.16-7.318-0.309-9.939,1.352    c-2.331,1.477-2.326,4.301-2.418,6.754c-0.112,3.006,0.096,6.181-0.198,9.235c-3.24,0.151-6.474,0.319-9.693,0.511    c-4.915,0.293-9.843,0.265-14.77,0.261c-5.673-0.698-11.273-1.246-17.092-1.297c-0.558-0.005-1.15-0.029-1.761-0.061    c-5.607-2.116-13.126-0.321-18.705-0.237c-1.596,0.024-3.177,0.035-4.754,0.055c-3.494-0.308-7.339,0.216-10.322,0.243    c-5.819,0.05-11.419,0.598-17.092,1.297c-4.927,0.005-9.855,0.032-14.77-0.261c-3.219-0.192-6.453-0.36-9.693-0.511    c-0.294-3.054-0.086-6.229-0.198-9.235c-0.091-2.453-0.087-5.278-2.418-6.754c-2.621-1.66-7.002-1.191-9.939-1.352    c-3.735-0.204-7.47-0.531-11.2-0.872c-1.016-0.093-2.267,0.849-2.449,1.865c-0.625,3.477-0.442,6.993-0.372,10.511    c0.034,1.743-0.043,3.554,0.121,5.312c-8.401,0.198-16.801,0.901-25.194,0.36c-0.128-2.915-0.239-5.8-0.169-8.741    c0.051-2.155,0.25-4.391-1.597-5.857c-1.669-1.325-4.805-1.335-6.803-1.63c-3.98-0.589-7.966-0.363-11.95-0.675    c-2.246-0.176-5.045-0.906-6.831,1.065c-1.215,1.34-0.839,3.43-0.914,5.075c-0.143,3.105-0.38,6.278-0.363,9.393    c-0.533-0.035-1.067-0.063-1.6-0.104c-3.933-0.301-7.572-0.936-11.526-0.821c-5.377,0.156-10.655,0.087-16.009-0.318    c-4.515-0.342-8.867,0.883-13.372,0.952c-4.971,0.076-9.948,0.04-14.918,0.154c-9.582,0.222-19.022,2.186-28.661,2.057    c-2.288-0.031-4.658,0.097-6.942-0.095c-1.719-0.145-3.52-0.764-5.26-0.304c-3.511,0.93-5.05,4.909-5.937,8.033    c-1.247,4.386-0.797,9.011-1.038,13.506c-0.28,5.243,0.58,10.582,0.708,15.829c0.122,5.052,0.142,10.108,0.41,15.156    c0.213,4.013-0.221,10.836,1.523,14.454c0.61,1.266,2.93,3.241,4.489,2.31c1.328-0.794,0.855-4.845,1.114-6.398    c0.315-1.884,1.234-5.139,3.959-3.512c0.618,0.37,1.153,2.168,1.368,2.782c0.351,1.004,0.483,2.029,0.684,3.07    c0.732,3.78,0.919,11.601,5.908,12.182c1.565,0.182,2.561-1.398,2.709-2.709c0.331-2.954,1.602-5.958,2.821-8.65    c0.511-1.128,1.006-2.258,1.576-3.358c1.043-2.005,1.034-2.501,1.128,0.411c0.132,4.061,0.499,7.98,0.343,12.082    c-0.098,2.593-0.331,4.738,0.884,7.122c0.689,1.35,2.672,2.18,4.121,1.677c2.144-0.745,3.216-2.019,4.968-3.353    c0.563-0.428,1.461-0.419,1.767-0.641c0.122,1.102-0.046,3.046-0.068,3.342c-0.464,6.349-6.147,9.972-6.824,15.795    c-0.293,2.521,2.712,4.396,4.911,3.741c8.294-2.472,1.952,9.342-0.162,11.765c-1.83,2.097-3.62,4.364-2.024,7.215    c1.686,3.012,5.243,1.549,6.364,4.521c1.16,3.076-1.723,8.405-1.749,11.681c-0.023,2.885,3.926,3.895,5.376,1.456    c1.195-2.011,2.662-3.769,4.304-5.412c0.47-0.47,0.534-1.173,1.062-1.616c2.037-1.716,1.97-0.577,2.502,0.901    c1.656,4.6-1.028,10.155,0.15,14.908c0.652,2.63,4.726,4.117,6.574,1.735c1.211-1.562,2.002-4.369,3.488-5.584    c4.608-3.767,2.802,4.416,2.1,6.292c-1.31,3.503-4.955,7.511-3.82,11.359c0.483,1.637,1.909,2.628,3.57,2.718    c0.994,0.054,2.533-0.95,3.282-0.816c2.75,0.489,1.957,4.263,1.457,5.966c-0.618,2.108-1.817,4.546-3.195,6.32    c-1.097,1.413-2.177,1.925-2.629,3.776c-0.898,3.689,1.923,4.426,3.547,6.976c3.147,4.944-3.535,10.909-4.012,16.037    c-0.333,3.583,1.109,5.759,3.056,8.588c3.571,5.189,1.249,9.334,0.548,15.007c-0.439,3.554,0.734,5.655,2.589,8.459    c1.759,2.657,1.365,3.25,0.41,6.038c-0.823,2.405-1.54,4.732-1.603,7.294c-0.112,4.562,0.678,9.302,0.895,13.886    c0.227,4.813,0.144,9.653,0.451,14.457c0.699,10.944,0.715,21.681,0.772,32.62c0.054,10.276-0.35,20.561-0.423,30.852    c-0.029,3.983,0.631,7.872,0.62,11.832c-0.015,5.56-0.38,11.203,0.05,16.749c0.889,11.454,0.579,23.097,0.733,34.605    c0.076,5.633,0.928,11.137,0.88,16.795c-0.033,3.906-1.679,31.058,5.334,28.855c4.809-1.511,5.432-7.772,8.236-11.312    c0.684-0.864,1.517-1.598,2.228-2.439c-0.581,2.734-0.16,7.366,0.195,10.012c0.27,2.02,2.153,3.518,4.159,2.386    c3.413-1.924,4.053-6.096,6.251-9.041c1.052-1.409,2.317-2.668,3.435-4.037c0.582-0.713,2.412-3.799,3.256-4.013    c0.962-0.244,0.491-0.654,0.59,1.06c0.302,5.211-5.616,12.433-1.931,17.21c1.678,2.176,4.36,1.867,6.313,0.308    c3.696-2.953,5.286-7.724,9.463-10.429c1.159-0.75,2.519-1.576,3.845-1.962c0.764-0.223,1.219-0.384,1.486-0.495    c-0.097,0.103-0.159,0.246-0.079,0.428c0.39,0.875-0.785,3.521-1.133,4.449c-1.512,4.031-3.868,7.968-4.577,12.261    c-0.374,2.264,0.975,4.965,3.66,4.805c2.179-0.129,3.236-0.614,5.003-1.827c1.101-0.755,2.118-1.707,3.257-2.399l1.406-0.841    c1.652-1.106,2.081-1.068,1.286,0.113c0.252,1.925-2.072,5.151-2.598,7.1c-0.558,2.067-1.051,4.335-1.03,6.479    c0.021,1.945,2.583,3.176,3.98,1.648c0.972-1.062,4.242-1.691,4.916,0.097c0.184,0.49-0.612,2.208-0.786,2.77    c-0.357,1.151-0.852,2.267-1.027,3.465c-0.354,2.412,0.168,4.798,2.727,5.622c2.346,0.756,4.791-0.799,6.814-1.798    c1.046-0.517,2.808-1.878,4.007-1.69c2.48,0.39,1.038,2.913,1.19,4.843c0.247,3.123,1.918,4.41,4.551,5.578    c2.028,0.899,4.176,1.672,6.311,2.225c3.035,0.785,4.728,2.194,7.51,3.358c3.195,1.335,7.722,0.874,10.622-1.123    c3.049-2.098,1.777-10.84,1.765-14.243c-0.015-4.511-0.044-9.019-0.103-13.53c-0.083-6.349,0.614-13.87-1.328-20.222    c0.346-0.317,0.662-0.666,0.907-1.086c1.125-1.928,0.461-4.36,0.559-6.458c0.104-2.21-0.835-1.741,1.235-2.834    c1.389-0.733,3.018-0.643,4.375-1.634c1.65-1.205,2.335-2.895,2.639-4.845c0.712-4.56,0.421-10.843-4.203-13.046    c-1.241-0.591-3.075-0.379-4.205-1.107c-0.503-0.324-0.786-0.558-0.956-0.813c4.005-9.455,10.281-18.085,17.775-25.478    c4.345-4.287,9.788-8.315,15.189-11.12c4.472-2.323,9.259-3.625,13.961-5.139c3.71-0.756,7.431-1.496,11.141-1.707    c4.602-0.262,9.343-0.222,13.978,0.207c6.03,2.309,12.424,3.599,18.276,6.639c5.401,2.805,10.844,6.833,15.189,11.12    c7.494,7.392,13.769,16.023,17.775,25.478c-0.169,0.255-0.453,0.49-0.956,0.813c-1.13,0.729-2.964,0.516-4.205,1.107    c-4.625,2.203-4.915,8.486-4.203,13.046c0.304,1.951,0.99,3.641,2.639,4.845c1.357,0.991,2.986,0.9,4.375,1.634    c2.071,1.092,1.133,0.623,1.235,2.834c0.098,2.097-0.565,4.529,0.559,6.458c0.245,0.42,0.561,0.769,0.907,1.086    c-1.942,6.353-1.245,13.872-1.328,20.222c-0.058,4.51-0.088,9.019-0.103,13.53c-0.011,3.402-1.284,12.145,1.765,14.243    c2.9,1.996,7.427,2.457,10.622,1.123c2.782-1.162,4.475-2.573,7.51-3.358c2.136-0.551,4.283-1.326,6.311-2.225    c2.632-1.167,4.304-2.455,4.551-5.578c0.152-1.929-1.29-4.452,1.19-4.843c1.2-0.189,2.962,1.173,4.007,1.69    c2.021,1,4.467,2.555,6.814,1.798c2.558-0.824,3.08-3.21,2.727-5.622c-0.176-1.198-0.67-2.314-1.027-3.465    c-0.174-0.562-0.971-2.28-0.786-2.77c0.674-1.788,3.943-1.159,4.916-0.097c1.398,1.527,3.959,0.296,3.98-1.648    c0.023-2.144-0.471-4.412-1.03-6.479c-0.526-1.948-2.85-5.174-2.598-7.1c-0.795-1.181-0.366-1.218,1.286-0.113l1.406,0.841    c1.141,0.692,2.158,1.645,3.257,2.399c1.766,1.213,2.823,1.697,5.003,1.827c2.686,0.16,4.034-2.542,3.66-4.805    c-0.709-4.292-3.065-8.229-4.577-12.261c-0.348-0.927-1.523-3.573-1.133-4.449c0.08-0.182,0.018-0.325-0.079-0.428    c0.267,0.111,0.722,0.272,1.486,0.495c1.326,0.387,2.686,1.213,3.845,1.962c4.177,2.704,5.767,7.477,9.463,10.429    c1.953,1.559,4.635,1.868,6.313-0.308c3.685-4.778-2.233-11.999-1.931-17.21c0.099-1.716-0.372-1.304,0.589-1.06    c0.844,0.214,2.673,3.3,3.256,4.013c1.119,1.369,2.383,2.628,3.435,4.037c2.198,2.945,2.837,7.118,6.251,9.041    c2.008,1.131,3.89-0.367,4.159-2.386c0.355-2.646,0.776-7.278,0.195-10.012c0.712,0.841,1.543,1.575,2.228,2.439    c2.804,3.538,3.425,9.799,8.234,11.312c7.013,2.203,5.366-24.949,5.334-28.855c-0.048-5.657,0.804-11.162,0.88-16.795    c0.154-11.508-0.156-23.152,0.733-34.605c0.43-5.545,0.066-11.188,0.05-16.749c-0.01-3.96,0.649-7.848,0.62-11.832    c-0.073-10.291-0.477-20.576-0.423-30.852c0.057-10.939,0.073-21.674,0.772-32.62c0.307-4.804,0.224-9.644,0.451-14.456    c0.216-4.584,1.007-9.323,0.895-13.886c-0.063-2.563-0.78-4.891-1.604-7.294c-0.954-2.789-1.349-3.38,0.41-6.038    c1.856-2.803,3.028-4.903,2.589-8.459c-0.701-5.673-3.022-9.818,0.548-15.007c1.947-2.829,3.388-5.004,3.056-8.588    c-0.477-5.128-7.16-11.093-4.012-16.037c1.624-2.55,4.445-3.287,3.547-6.976c-0.451-1.851-1.531-2.363-2.629-3.776    c-1.378-1.774-2.577-4.213-3.195-6.32c-0.5-1.703-1.293-5.479,1.459-5.966c0.749-0.133,2.287,0.869,3.282,0.816    c1.661-0.09,3.086-1.081,3.57-2.718c1.135-3.847-2.51-7.856-3.82-11.359c-0.701-1.876-2.508-10.059,2.1-6.292    c1.486,1.214,2.277,4.022,3.488,5.584c1.849,2.382,5.924,0.895,6.574-1.735c1.177-4.752-1.507-10.307,0.149-14.908    c0.532-1.478,0.464-2.617,2.502-0.901c0.527,0.444,0.593,1.147,1.062,1.616c1.642,1.643,3.108,3.401,4.304,5.412    c1.451,2.439,5.398,1.429,5.376-1.456c-0.026-3.276-2.908-8.606-1.749-11.681c1.12-2.972,4.677-1.509,6.364-4.521    c1.596-2.851-0.193-5.118-2.024-7.215c-2.114-2.423-8.456-14.237-0.162-11.765c2.199,0.655,5.204-1.219,4.911-3.741    c-0.677-5.822-6.359-9.446-6.824-15.795c-0.022-0.295-0.19-2.239-0.067-3.342c0.307,0.221,1.206,0.212,1.767,0.641    c1.751,1.335,2.824,2.608,4.968,3.353c1.448,0.502,3.433-0.327,4.121-1.677c1.215-2.383,0.983-4.529,0.884-7.122    c-0.156-4.101,0.212-8.019,0.343-12.082c0.094-2.91,0.085-2.416,1.128-0.411c0.572,1.099,1.065,2.228,1.576,3.358    c1.22,2.692,2.49,5.696,2.821,8.65c0.146,1.311,1.143,2.891,2.709,2.709c4.99-0.581,5.175-8.403,5.908-12.182    c0.201-1.041,0.333-2.066,0.684-3.07c0.215-0.614,0.749-2.413,1.368-2.782c2.725-1.627,3.645,1.627,3.959,3.512    c0.26,1.554-0.214,5.604,1.114,6.398c1.559,0.931,3.878-1.043,4.488-2.31c1.743-3.618,1.311-10.44,1.523-14.454    c0.267-5.047,0.286-10.104,0.41-15.156C500.286,50.323,501.147,44.985,500.866,39.743z M372.405,7.36    c0.376,0.124,1.705,0.011,2.007-0.03c2.794-0.383,5.52-0.784,8.342-0.935c1.529-0.081,3.235,0.144,4.744-0.068    c0.275-0.039,2.339-0.603,2.246-0.635c0.345-0.545,0.459-0.526,0.34,0.054c-0.031,0.44-0.023,0.88,0.027,1.319    c0.168,0.841,0.283,1.681,0.365,2.529c0.237,2.425,0.177,4.929,0.611,7.332c-6.111,0.26-12.243,0.311-18.356,0.707    c0.247-2.816-0.152-5.768-0.292-8.539c-0.011-0.573-0.023-1.147-0.034-1.722C372.404,7.368,372.405,7.364,372.405,7.36z     M422.104,187.366c0.106,1.082,0.415,2.552,0.884,4.109c-7.368-1.981-16.902-1.419-23.668-1.151    c-10.592,0.419-21.061-0.466-31.635-0.855c-10.181-0.375-20.419-0.861-30.632-0.89c-4.384-0.013-8.645,0.426-13.027,0.231    c-2.478-0.11-7.521,1.038-9.304-1.309c-0.162-0.215-0.3-0.516-0.415-0.882c-1.494-4.75-1.517-10.63,3.648-12.232    c6.207-1.925,12.921-0.718,19.269-0.411c11.884,0.577,23.698,0.805,35.595,0.988c11.543,0.177,23.016,0.61,34.588,0.5    c5.177-0.049,10.194-0.042,15.343,0.374c1.302,0.105,2.732,0.296,4.156,0.351c-0.368,0.221-0.724,0.458-1.054,0.718    C422.663,179.433,421.721,183.455,422.104,187.366z M86.153,176.907c-0.328-0.261-0.685-0.496-1.054-0.718    c1.423-0.055,2.854-0.246,4.155-0.351c5.149-0.415,10.167-0.423,15.343-0.374c11.573,0.11,23.046-0.323,34.588-0.5    c11.896-0.183,23.711-0.411,35.595-0.988c6.347-0.308,13.061-1.515,19.269,0.411c5.165,1.602,5.142,7.482,3.648,12.232    c-0.116,0.366-0.253,0.668-0.415,0.882c-1.783,2.346-6.826,1.199-9.304,1.309c-4.381,0.194-8.644-0.244-13.027-0.231    c-10.215,0.03-20.451,0.516-30.632,0.89c-10.574,0.389-21.042,1.273-31.635,0.855c-6.766-0.268-16.299-0.829-23.668,1.151    c0.469-1.557,0.778-3.027,0.884-4.109C90.285,183.455,89.345,179.433,86.153,176.907z M131.593,75.741    c2.13,0.402,4.261,0.208,6.597,0.165c4.568-0.085,9.155,0.005,13.737,0.048c9.775,0.091,19.508-0.265,29.253-0.379    c4.111-0.048,8.257-0.138,12.406-0.261c-2.358,8.653-0.807,19.229-1.05,27.906c-0.13,4.634,0.45,9.188,0.317,13.828    c-0.144,5.003-0.682,10.454,0.544,15.363c-2.371-5.024-6.125-9.815-10.363-13.369c-3.72-3.12-7.937-3.911-12.394-4.116    c0.008-2.158-0.511-4.107-0.709-6.297c-0.162-1.796-0.4-3.522-0.922-5.269c-0.88-2.949-2.836-5.501-6.197-5.413    c-3.626,0.094-6.267,3.276-7.149,6.541c-0.933,3.458-1.435,7.903-0.715,11.638c-8.785,2.076-16.774,6.759-22.09,14.404    c-0.506,0.728-0.977,1.461-1.417,2.201c1.157-16.571-0.428-33.352,0.103-49.936C131.618,80.446,131.624,78.095,131.593,75.741z     M237.932,87.737c1.822,1.74,5.244,1.699,8.271,1.035c3.714,0.45,7.561,0.39,11.251,0.485c2.905,0.073,7.346,0.666,10.856-0.111    c2.256,0.175,4.436-0.142,5.765-1.409c2.688-2.565,2.036-9.09,1.767-12.393c-0.038-0.46-0.096-0.967-0.175-1.507    c8.454,1.594,17.517,0.27,26.078,0.765c4.663,0.27,9.367,0.477,14.07,0.635c-0.784,3.784-0.289,7.72-0.365,11.613    c-0.104,5.451-0.255,10.918-0.153,16.37c0.119,6.413-0.978,13.478-0.892,20.251c-3.1-5.317-7.088-10.148-10.991-13.975    c-4.627-4.536-10.655-8.842-16.701-11.227c-4.353-1.718-10.296-3.782-15.898-4.355c-6.554-1.762-13.39-1.052-20.262-0.49    c-1.306,0.108-2.615,0.287-3.924,0.487c-6.881-0.855-15.526,2.065-21.336,4.357c-6.046,2.386-12.072,6.691-16.701,11.227    c-3.904,3.827-7.891,8.658-10.991,13.975c0.087-6.772-1.011-13.838-0.891-20.251c0.102-5.452-0.048-10.918-0.153-16.37    c-0.074-3.893,0.42-7.829-0.365-11.613c4.704-0.158,9.407-0.365,14.07-0.635c8.562-0.495,17.624,0.828,26.078-0.765    c-0.079,0.54-0.137,1.047-0.175,1.507C235.896,78.647,235.244,85.172,237.932,87.737z M197.101,53.612    c-0.022-3.845-0.116-7.548-0.503-11.372c-0.261-2.576-0.328-5.167-0.382-7.757c0.336,0.057,0.684,0.101,1.046,0.124    c7.398,1.205,15.753-0.014,23.013-0.467c3.93-0.245,7.831-0.539,11.73-0.826c1.303,0.041,2.587,0.063,3.787,0.122    c4.115,0.204,8.181,0.459,12.293,0.256c8.375-0.413,17.424,0.606,25.839-0.807c5.933,0.405,11.84,0.882,17.811,1.254    c7.261,0.453,15.615,1.671,23.013,0.467c0.362-0.023,0.708-0.066,1.046-0.124c-0.054,2.59-0.12,5.181-0.382,7.757    c-0.388,3.824-0.482,7.527-0.503,11.372c-0.007,1.134-0.005,7.492,0.534,6.843c-0.269,0.324-0.435,0.707-0.492,1.095    c-4.208-0.133-8.417-0.254-12.632-0.256c-10.146-0.006-20.506,0.832-30.602-0.021c-0.092-0.007-0.172,0.001-0.256,0.005    c-1.753-3.037-4.028-5.44-6.828-6.055c-2.692-1.313-5.87-0.832-8.932-0.852c-2.468-0.017-4.895,0.121-7.129,0.709    c-3.352,0.113-6.023,2.742-8.017,6.198c-0.085-0.002-0.166-0.011-0.256-0.005c-10.096,0.852-20.456,0.014-30.602,0.021    c-4.214,0.002-8.424,0.124-12.632,0.256c-0.057-0.388-0.223-0.77-0.492-1.095C197.106,61.104,197.107,54.746,197.101,53.612z     M270.97,77.43c-0.137,1.266,0.151,5.304-0.875,6.205c-0.061,0.053-0.136,0.097-0.212,0.142c-4.494-1.038-11.184,0.5-15.217,0.508    c-3.56,0.008-7.632-0.542-11.372-0.14c-0.594-0.093-1.083-0.246-1.384-0.51c-1.027-0.901-0.738-4.939-0.875-6.205    c-0.677-6.259,0.971-14.386,6.434-17.705c0.194-0.063,0.389-0.124,0.587-0.176c3.043-0.808,6.204-0.599,9.303-0.649    c1.516-0.025,3.697,0.212,5.663,0.07C269.699,61.605,271.707,70.624,270.97,77.43z M199.785,130.53    c2.973-6.177,7.567-12.551,12.487-17.354c4.506-4.401,10.597-8.694,16.614-10.673c2.984-0.98,6.158-1.539,9.327-2.113    c4.193-0.443,8.392-1.118,12.523-1.422c5.231-0.385,10.572-0.081,15.842-0.138c5.381,1.52,11.261,1.935,16.543,3.672    c6.017,1.978,12.109,6.272,16.614,10.673c4.919,4.804,9.513,11.177,12.487,17.354c2.394,4.975,2.533,10.936,4.822,15.773    c0.144,1.573,0.311,3.131,0.416,4.651c0.213,3.073,0.021,6.116,0.548,9.169c0.412,2.385,1.342,4.646,1.933,6.962    c-3.409-0.081-6.798-0.031-10.08,0.315c-0.644-0.573-1.094-1.416-1.136-2.861c-0.141-4.836,1.207-8.391-0.978-13.141    c-7.112-15.463-22.532-27.893-39.314-32.072c-6.903-3.679-16.608-3.45-23.898-0.227c-17.154,3.934-33.031,16.54-40.28,32.298    c-2.185,4.75-0.837,8.305-0.978,13.141c-0.042,1.446-0.492,2.288-1.136,2.861c-3.282-0.346-6.671-0.396-10.08-0.315    c0.591-2.315,1.521-4.577,1.933-6.962c0.527-3.053,0.335-6.096,0.549-9.169c0.105-1.52,0.271-3.078,0.416-4.651    C197.252,141.467,197.391,135.505,199.785,130.53z M380.463,82.795c0.531,16.584-1.054,33.364,0.103,49.936    c-0.44-0.739-0.912-1.473-1.417-2.201c-5.316-7.645-13.307-12.326-22.09-14.404c0.72-3.735,0.217-8.179-0.715-11.638    c-0.882-3.265-3.522-6.448-7.149-6.541c-3.361-0.087-5.317,2.465-6.197,5.413c-0.522,1.747-0.76,3.473-0.922,5.269    c-0.198,2.19-0.717,4.139-0.709,6.297c-4.457,0.204-8.674,0.996-12.394,4.116c-4.237,3.553-7.992,8.344-10.363,13.369    c1.225-4.909,0.689-10.36,0.545-15.363c-0.134-4.64,0.447-9.194,0.317-13.828c-0.244-8.677,1.308-19.253-1.05-27.906    c4.149,0.122,8.295,0.213,12.406,0.261c9.744,0.113,19.477,0.47,29.253,0.379c4.583-0.044,9.17-0.133,13.737-0.048    c2.336,0.043,4.467,0.237,6.597-0.165C380.382,78.095,380.388,80.446,380.463,82.795z M348.503,102.175    c4.497-1.809,4.856,7.983,5.43,13.325c-2.601-0.427-5.249-0.647-7.901-0.645h-0.008c0.315-2.051,0.398-4.184,0.375-6.224    C346.374,106.491,346.293,103.063,348.503,102.175z M165.982,114.855h-0.008c-2.653-0.002-5.3,0.219-7.901,0.645    c0.575-5.344,0.935-15.134,5.43-13.325c2.209,0.888,2.128,4.315,2.104,6.456C165.583,110.671,165.667,112.804,165.982,114.855z     M135.113,136.093c6.517-11.32,18.235-15.932,30.861-16.182c6.45-0.127,11.418,0.614,16.145,5.346    c4.14,4.145,7.174,9.003,7.922,14.841c0.63,4.919-0.06,9.915-0.079,14.875c-0.015,3.893-1.495,8.294-1.074,12.22    c-4.489,0.197-8.969,0.54-13.247,0.668c-12.166,0.365-24.275,0.691-36.453,0.804c-2.855,0.026-5.711,0.079-8.566,0.142    C130.335,157.78,129.346,146.111,135.113,136.093z M196.743,332.137c-0.106-7.319,0.538-14.58,0.415-21.856    c-0.104-6.146,0-12.617,0.566-18.737c0.686-7.422,0.169-14.768,0.438-22.189c0.259-7.166,0.367-14.537,0.868-21.67    c0.484-6.902,1.479-13.593,1.247-20.55c-0.229-6.846-0.331-13.651-0.029-20.46c0.169-3.82,0.553-8.015,0.229-12.029    c1.278-0.58,2.289-1.499,2.749-2.875c0.808-2.418-0.312-5.855-0.547-8.266c-0.275-2.833-0.305-5.473-0.834-8.105    c3.788,0.256,7.405-0.907,8.794-5.157c0.919-2.814,0.486-5.956,0.055-8.805c-0.658-4.347,0.347-7.206,1.883-11.235    c3.018-7.916,8.151-13.555,14.654-18.82c3.898-3.155,8.336-5.118,13.041-6.784c0.986-0.349,1.994-0.73,3.014-1.112    c3.56-0.251,7.483-1.676,10.744-2.045c2.018-0.229,4.468-0.415,6.947-0.414c3.634,0.782,7.321,2.357,10.752,3.572    c4.705,1.666,9.144,3.629,13.041,6.784c6.504,5.266,11.637,10.903,14.654,18.82c1.536,4.029,2.542,6.888,1.883,11.235    c-0.431,2.849-0.865,5.991,0.055,8.805c1.389,4.25,5.006,5.413,8.794,5.157c-0.529,2.631-0.559,5.273-0.833,8.105    c-0.233,2.411-1.354,5.848-0.547,8.266c0.46,1.376,1.471,2.295,2.749,2.875c-0.324,4.013,0.06,8.208,0.229,12.029    c0.302,6.809,0.199,13.613-0.029,20.46c-0.232,6.958,0.763,13.649,1.247,20.55c0.501,7.134,0.61,14.505,0.868,21.67    c0.268,7.421-0.248,14.767,0.438,22.189c0.566,6.12,0.67,12.593,0.566,18.737c-0.124,7.276,0.522,14.537,0.415,21.856    c-0.052,3.544-0.247,7.717,0.045,11.693c-8.527-2.281-18.686,0.355-27.046-0.477c-4.903-0.487-10.195-0.452-15.122-0.13    c-0.653,0.042-1.32,0.077-1.996,0.106c-5.253-0.013-10.512,0.019-15.749-0.11c-3.269-0.08-6.544,0.079-9.81,0.295    c-2.301-0.1-4.578-0.152-6.721-0.292c-4.927-0.321-10.219-0.358-15.122,0.13c-8.359,0.832-18.519-1.805-27.044,0.477    C196.989,339.854,196.795,335.681,196.743,332.137z M381.385,168.809c-2.855-0.064-5.711-0.116-8.566-0.142    c-12.178-0.113-24.287-0.439-36.453-0.804c-4.277-0.128-8.757-0.471-13.247-0.668c0.421-3.927-1.059-8.327-1.074-12.22    c-0.019-4.96-0.709-9.956-0.079-14.875c0.748-5.839,3.782-10.697,7.922-14.841c4.727-4.732,9.695-5.473,16.145-5.346    c12.626,0.248,24.344,4.862,30.861,16.182C382.66,146.111,381.671,157.78,381.385,168.809z M320.825,6.593    c1.165-1.25,6.937-0.606,8.987-0.794c2.365-0.217,4.736-0.366,7.102-0.547c0.434,4.106,0.085,8.269,0.426,12.397    c-5.364,0.001-10.76,0.117-16.154,0.317c0.033-0.724,0.042-1.44,0.052-2.122C321.258,14.356,320.061,7.415,320.825,6.593z     M319.392,43.307c0.489-5.921,0.451-11.834-0.238-17.677c7.666,0.355,15.346,0.648,23.06,0.972    c9.263,0.39,18.49,0.564,27.721-0.213c3.493-0.294,6.993-0.476,10.493-0.632c-0.362,9.664,0.387,19.527,0.447,29.173    c0.021,3.236-0.059,6.471-0.159,9.707c-2.203-0.097-4.367-0.815-6.594-1.067c-3.939-0.446-8.074-0.513-12.043-0.652    c-9.675-0.34-19.217-0.983-28.929-0.964c-4.688,0.009-9.377-0.13-14.069-0.281C320.237,55.829,318.901,49.248,319.392,43.307z     M333.151,65.895c9.961-0.032,19.809,0.464,29.744,0.765c5.782,0.176,12.07,0.877,17.766-0.256    c-0.07,2.177-0.142,4.353-0.192,6.528c-7.445-1.229-14.963-1.104-22.526-1.175c-9.311-0.087-18.608-0.432-27.895-0.583    c-9.392-0.153-18.899-0.076-28.301-0.62c-4.238-0.245-8.468-0.224-12.715-0.224c-4.614,0-9.476-0.595-14.039,0.095    c-0.396-1.611-0.924-3.332-1.581-5.021c9.922,0.651,20.027-0.121,29.969-0.128C313.317,65.269,323.233,65.927,333.151,65.895z     M233.792,22.552c0.493-0.008,0.98-0.013,1.452-0.003c1.11,0.021,2.333,0.08,3.616,0.143c4.67,1.02,9.924,0.604,14.449,0.605    c3.553,0.001,7.07-0.499,10.606-0.621c4.353,0.435,9.198-0.06,12.848-0.126c0.47-0.008,0.958-0.005,1.452,0.003    c12.667,1.488,25.308,2.319,37.991,2.937c-0.16,1.562-0.238,3.13-0.295,4.701c-2.78-1.01-6.509-0.761-8.989-0.688    c-1.661,0.049-3.294,0.106-4.912,0.193c-3.165-0.087-6.325-0.083-9.347-0.285c-4.306-0.286-8.221,0.36-12.53,0.765    c-0.485,0.046-0.972,0.076-1.459,0.105c-0.08-0.058-0.174-0.106-0.281-0.137c-4.536-1.346-9.203-0.726-13.871-0.733    c-5.249-0.007-10.541-0.392-15.79-0.146c-3.459,0.162-6.874,0.006-10.329,0.095c-2.22,0.057-4.615,0.443-6.999,0.768    c-4.123-0.405-7.91-0.994-12.056-0.717c-3.021,0.201-6.181,0.198-9.347,0.285c-1.619-0.087-3.251-0.144-4.912-0.193    c-2.48-0.073-6.21-0.323-8.989,0.688c-0.056-1.571-0.134-3.139-0.294-4.701C208.484,24.871,221.125,24.04,233.792,22.552z     M208.627,65.275c9.942,0.007,20.048,0.779,29.969,0.128c-0.658,1.689-1.185,3.41-1.581,5.021    c-4.563-0.689-9.425-0.095-14.039-0.095c-4.248,0-8.477-0.022-12.715,0.224c-9.402,0.545-18.909,0.467-28.301,0.62    c-9.287,0.151-18.584,0.498-27.895,0.583c-7.563,0.071-15.081-0.054-22.526,1.175c-0.051-2.175-0.122-4.351-0.192-6.528    c5.696,1.134,11.985,0.432,17.766,0.256c9.934-0.302,19.782-0.797,29.744-0.765C188.773,65.927,198.69,65.269,208.627,65.275z     M175.092,5.253c2.365,0.181,4.736,0.329,7.102,0.547c2.049,0.188,7.823-0.456,8.987,0.794c0.764,0.821-0.432,7.763-0.412,9.251    c0.009,0.682,0.019,1.398,0.051,2.122c-5.394-0.199-10.789-0.315-16.154-0.317C175.009,13.521,174.658,9.36,175.092,5.253z     M169.793,26.603c7.714-0.325,15.396-0.618,23.06-0.972c-0.689,5.842-0.726,11.756-0.238,17.677    c0.49,5.942-0.845,12.522,0.309,18.367c-4.69,0.15-9.38,0.289-14.069,0.281c-9.712-0.018-19.253,0.625-28.929,0.964    c-3.968,0.14-8.104,0.206-12.043,0.652c-2.228,0.253-4.391,0.97-6.594,1.067c-0.1-3.235-0.178-6.471-0.159-9.707    c0.061-9.646,0.809-19.51,0.447-29.173c3.501,0.156,7,0.337,10.493,0.631C151.303,27.166,160.53,26.992,169.793,26.603z     M121.532,9.594c0.084-0.849,0.197-1.688,0.365-2.529c0.049-0.439,0.058-0.88,0.027-1.319c-0.119-0.58-0.006-0.597,0.34-0.054    c-0.095,0.032,1.971,0.596,2.246,0.635c1.509,0.211,3.214-0.015,4.744,0.068c2.822,0.151,5.548,0.551,8.342,0.935    c0.302,0.042,1.63,0.153,2.007,0.03c0,0.005,0.001,0.008,0.001,0.013c-0.011,0.574-0.023,1.147-0.034,1.722    c-0.138,2.771-0.539,5.722-0.292,8.539c-6.115-0.395-12.245-0.446-18.356-0.707C121.355,14.523,121.295,12.019,121.532,9.594z     M56.372,137.13c-0.08-0.09-0.168-0.166-0.257-0.241c1.335-1.408,2.917-3.88,3.117-4.243c4.034-7.318,2.534-16.589-3.827-19.09    c1.104-1.909,2.196-3.896,2.832-6.012c1.126-3.743,1.722-8.826,0.312-12.571c-0.959-2.549-2.892-4.214-5.419-4.554    c1.337-7.255,2.574-13.844,6.859-20.575c4.575-7.184,11.844-12.867,20.633-13.569c18.531-1.48,27.904,16.826,29.835,32.656    c1.006,8.252,1.411,16.414,1.389,24.728c-0.014,4.889,0.133,9.81-0.014,14.696c-0.035,1.202,0.103,6.414-0.71,7.289    c0.017-0.019-3.623,0.479-3.943,0.519c-9.383,1.177-19.161,0.098-28.634,0.285c-3.846,0.076-7.636,0.595-11.481,0.579    C63.92,137.015,59.654,137.793,56.372,137.13z M74.702,153.254c-0.765,0.301-1.436,0.674-2.047,1.096    c-0.032-4.519-0.741-8.824-5.218-10.348c-3-1.022-5.646,0.312-7.953,2.405c0.038-0.954-0.019-1.905-0.192-2.847    c2.964-0.019,5.999-0.453,7.771-0.444c9.841,0.055,19.687-0.945,29.579-0.654c5.283,0.156,15.781,1.47,19.544-3.609    c1.629-2.199,1.528-5.799,1.639-8.395c0.237-5.571-0.026-11.216-0.018-16.795c0.025-15.846-0.781-31.493-7.928-45.93    c-7.161-14.467-23.181-21.041-38.413-15.056c-14.038,5.514-25.235,23.19-23.497,38.64c-0.455,0.196-0.898,0.404-1.31,0.629    c0.086-1.32,0.211-2.567,0.185-3.328c-0.093-2.902-0.45-5.761-0.901-8.629c-0.588-3.727-2.47-7.737-6.921-7.383    c-4.36,0.348-7.025,5.179-8.579,10.287c-0.269-1.295-0.538-2.588-0.955-3.847c-1.215-3.655-3.554-8.761-8.197-8.266    c-1.411,0.15-2.569,0.742-3.525,1.599c-0.035-3.101-0.144-6.22-0.097-9.39c0.129-8.747,0.986-17.281,1.669-25.939    c0.208-2.643-0.205-5.22,0.421-7.837c0.637-2.669,0.604-4.587,3.616-4.833c4.666-0.381,9.396,0.109,14.068-0.269    c8.943-0.722,17.996-1.488,26.987-1.19c8.606,0.286,17.28-0.496,25.789,0.411c4.643,0.495,9.377,0.248,14.04,0.374    c3.815,0.103,7.564,0.933,11.384,1.23c4.407,0.342,8.828,0.521,13.252,0.706c-0.59,9.482-0.976,18.988-1.322,28.516    c-0.348,9.543,0.445,19.138-0.264,28.637c-0.813,10.887-0.324,21.954-0.35,32.866c-0.021,8.565-0.307,17.323,0.68,25.873    c-2.582,8.726-2.351,18.028-2.59,27.416c-6.453,0.167-12.91,0.351-19.377,0.413c-5.171,0.048-10.308-0.006-15.454,0.492    c-1.544,0.15-3.2,0.159-4.85,0.239c0.151-0.405,0.302-0.809,0.439-1.214c1.335-3.947,1.014-8.399-1.433-11.901    C82.173,153.833,78.462,151.776,74.702,153.254z M143.888,460.665c0.782-2.488,1.256-4.943,0.948-7.126    c1.785,0.166,3.614,0.138,5.514,0.2c5.618,0.181,11.182-0.088,16.782-0.034c6.617,0.062,14.46,0.707,21.127-0.98    c0.17,4.034,1.549,3.906-2.293,5.338c-2.259,0.239-4.604,0.904-6.815,0.853c-4.583-0.103-8.973,0.231-13.523,0.609    c-4.078,0.339-8.155,0.672-12.241,0.922C150.249,460.639,147.048,460.518,143.888,460.665z M189.33,503.404    c-0.009,0.016-0.021,0.037-0.031,0.055c-2.808,1.081-4.607-0.776-6.942-1.846c-2.151-0.986-3.949-0.829-6.229-1.225    c-0.704-0.121-4.21-0.669-4.562-1.231c-0.3-0.478,0.222-1.859,0.243-2.368c0.293-7.063-5.255-9.661-11.331-7.212    c-0.867,0.349-2.805,1.109-4.409,1.937c0.16-0.513,0.256-1.105,0.363-1.555c0.303-1.286,0.63-2.652,0.581-3.983    c-0.186-4.934-3.776-5.663-7.491-4.907c2.452-4.643,5.514-9.773,2.931-14.319c5.027-0.126,10.083-0.601,14.73-1.036    c3.696-0.347,7.413-0.13,11.116-0.342c3.584-0.205,8.256-1.421,10.272,2.484c1.931,3.741,0.407,10.446,0.355,14.494    c-0.059,4.51-0.088,9.019-0.103,13.53C188.814,498.601,188.308,501.215,189.33,503.404z M181.679,447.648    c-4.857,0.158-9.674,0.311-14.548,0.328c-5.261,0.019-10.518,0.384-15.784,0.534c-2.733,0.078-6.294-0.311-9.264,0.227    c-3.353-2.378-8.479-0.119-11.629,1.644c-2.723,1.524-5.07,3.588-7.082,5.952c0.242-1.06,0.461-2.123,0.613-3.208    c0.443-3.155,0.858-7.594-2.136-9.709c-4.082-2.885-8.198,1.502-10.606,4.5c-1.518,1.89-3.274,3.753-4.683,5.73    c0.021-4.327-0.85-8.331-5.378-8.322c-3.297,0.006-5.781,3.143-7.712,5.436c-0.324,0.384-0.654,0.794-0.983,1.215    c-0.018-0.475-0.047-0.951-0.106-1.427c-0.16-1.297-0.423-2.565-0.675-3.834c0.206-2.158,0.408-4.315,0.591-6.468    c0.076-0.881,0.113-1.755,0.137-2.628c2.208,0.126,4.489-0.208,6.666-0.241c4.269-0.066,8.42-0.43,12.686-0.227    c9.82,0.47,19.722,0.273,29.562,0.276c10.037,0.002,20.159-0.618,30.176-0.332c5.752,0.164,13.453-1.85,18.879,0.1    c1.123,0.404,2.182,1.083,2.934,1.996c0.343,0.416,0.625,0.881,0.818,1.39C196.987,447.979,185.424,447.527,181.679,447.648z     M193.006,246.943c-0.431,7.467-0.766,14.937-1.341,22.412c-0.57,7.412-0.256,14.823-1.191,22.23    c-0.774,6.133-1.081,12.516-1.066,18.697c0.015,6.91-0.764,13.832-0.771,20.792c-0.007,6.263-2.057,14.215,0.328,20.135    c0.054,0.133,0.119,0.253,0.182,0.375c-0.245,3.005-0.513,6.009-0.834,9.008c-0.875,8.152-0.574,16.553-0.503,24.745    c0.065,7.605-0.754,15.097-0.709,22.7c0.045,7.443-1.066,14.901-0.653,22.3c0.008,0.148,0.024,0.278,0.034,0.42    c-4.727-0.277-9.724,0.297-14.017,0.088c-9.964-0.486-20.07,0.154-30.057,0.157c-9.691,0.002-19.365-0.022-29.041-0.262    c-6.938-0.172-14.081,0.892-21.026,0.578c-0.119-2.621-0.279-5.239-0.281-7.89c-0.011-11.444,1.277-23.118,0.208-34.528    c-0.533-5.69-0.511-11.4-0.454-17.123c0.048-4.832-0.622-9.556-0.675-14.396c-0.065-6.02-0.194-12.037-0.315-18.055    c-0.106-5.333-1.022-10.462-1.322-15.761c-0.642-11.322-1.277-22.87-1.203-34.201c0.033-5.088,0.747-10.192,0.706-15.268    c-0.022-2.643-0.738-5.223-0.424-7.866c0.345-2.907,1.881-5.4,2.423-8.26c0.316-1.668,0.456-3.666-0.119-5.3    c-0.639-1.813-2.193-2.486-3.104-3.943c-1.576-2.524,0.048-4.134,1.036-6.808c0.929-2.512,1.429-5.338,1.241-8.025    c-0.134-1.917-0.645-3.908-1.492-5.633c-0.832-1.694-2.773-2.995-3.471-4.609c-2.144-4.96,4.283-10.899,3.588-16.257    c-0.275-2.119-1.173-3.715-2.436-5.377c-0.48-0.633-1.266-2.034-1.997-2.321c0.869-0.543,1.67-1.503,2.382-2.665    c3.586,0.747,7.201-0.235,10.983-0.485c5.356-0.355,10.723-0.885,16.088-1.039c5.551-0.159,11.091-0.639,16.634-0.469    c5.672,0.174,11.491,0.757,17.151,0.437c4.984-0.281,9.886,0.41,14.871,0.141c5.076-0.275,10.117-0.793,15.221-0.692    c4.65,0.092,9.089,0.141,13.744-0.148c1.306,0.419,3.029,0.712,4.789,0.701c-0.406,3.615-0.459,7.34-0.898,10.8    c-0.879,6.918-1.042,13.865-0.85,20.859C194.544,233.841,193.389,240.298,193.006,246.943z M305.494,399.202    c-4.981-5.007-11.415-9.646-17.896-12.412c-1.894-0.808-4.145-1.758-6.544-2.607c-8.018-4.313-20.468-3.594-28.269-3.184    c-2.924,0.154-5.867,0.512-8.782,1.022c-6.421-0.792-14.351,2.534-19.593,4.77c-6.482,2.766-12.916,7.405-17.896,12.412    c-4.515,4.539-8.803,9.995-11.633,15.992c0.014-8.3,0.668-16.524,0.699-24.789c0.035-9.273-0.896-18.617-0.58-27.883    c0.128-3.759,0.231-7.534,0.3-11.312c0.054-0.145,0.086-0.307,0.136-0.454c3.152,0.517,6.315,0.318,9.641,0.272    c5.942-0.081,11.942,0.252,17.828-0.737c5.72-0.96,10.908-1.731,16.732-1.447c2.663,0.129,5.458,0.214,8.238,0.08    c2.736,0.157,5.487,0.287,8.293,0.387c5.886,0.208,11.888,0.27,17.765-0.15c1.424-0.102,2.901-0.17,4.391-0.259    c3.583,0.227,7.072,0.765,10.783,1.388c5.886,0.988,11.885,0.656,17.828,0.737c3.327,0.046,6.49,0.244,9.641-0.272    c0.05,0.148,0.082,0.31,0.136,0.454c0.069,3.777,0.172,7.553,0.3,11.312c0.316,9.266-0.615,18.61-0.58,27.883    c0.031,8.265,0.685,16.491,0.699,24.789C314.298,409.195,310.01,403.74,305.494,399.202z M354.993,485.974    c-0.05,1.332,0.277,2.696,0.581,3.983c0.106,0.45,0.203,1.042,0.363,1.555c-1.604-0.828-3.541-1.588-4.409-1.937    c-6.076-2.449-11.624,0.149-11.33,7.212c0.021,0.509,0.542,1.89,0.243,2.368c-0.352,0.563-3.86,1.11-4.562,1.231    c-2.28,0.396-4.078,0.24-6.229,1.225c-2.334,1.07-4.132,2.927-6.942,1.846c-0.01-0.018-0.022-0.039-0.031-0.055    c1.023-2.187,0.517-4.801,0.508-7.527c-0.014-4.511-0.043-9.019-0.103-13.53c-0.053-4.049-1.578-10.753,0.355-14.494    c2.016-3.903,6.688-2.688,10.272-2.484c3.703,0.213,7.419-0.005,11.116,0.342c4.647,0.436,9.703,0.911,14.73,1.036    c-2.583,4.546,0.481,9.676,2.931,14.319C358.769,480.311,355.179,481.04,354.993,485.974z M358.618,460.446    c-4.084-0.25-8.162-0.583-12.241-0.922c-4.548-0.379-8.94-0.713-13.523-0.609c-2.209,0.05-4.555-0.614-6.815-0.853    c-3.841-1.432-2.463-1.304-2.293-5.338c6.667,1.686,14.51,1.042,21.127,0.98c5.6-0.053,11.164,0.215,16.782,0.034    c1.9-0.062,3.729-0.033,5.514-0.2c-0.308,2.183,0.166,4.638,0.948,7.126C364.958,460.518,361.757,460.639,358.618,460.446z     M419.622,450.548c-0.06,0.476-0.088,0.952-0.106,1.427c-0.328-0.421-0.659-0.831-0.983-1.215    c-1.931-2.293-4.415-5.43-7.712-5.436c-4.528-0.008-5.398,3.997-5.378,8.322c-1.409-1.977-3.165-3.84-4.683-5.73    c-2.408-2.998-6.524-7.385-10.606-4.5c-2.994,2.115-2.579,6.554-2.136,9.709c0.152,1.084,0.371,2.147,0.613,3.208    c-2.012-2.365-4.36-4.428-7.082-5.952c-3.149-1.763-8.276-4.022-11.629-1.644c-2.969-0.538-6.531-0.149-9.264-0.227    c-5.266-0.15-10.522-0.515-15.784-0.534c-4.873-0.018-9.69-0.17-14.548-0.328c-3.747-0.121-15.308,0.331-12.483-7.069    c0.194-0.509,0.475-0.974,0.819-1.39c0.754-0.912,1.811-1.592,2.934-1.996c5.426-1.949,13.127,0.064,18.879-0.099    c10.017-0.286,20.139,0.334,30.176,0.332c9.839-0.002,19.743,0.195,29.563-0.276c4.266-0.205,8.416,0.16,12.686,0.227    c2.177,0.033,4.458,0.368,6.666,0.241c0.024,0.873,0.063,1.747,0.137,2.628c0.183,2.153,0.386,4.312,0.591,6.468    C420.045,447.983,419.783,449.251,419.622,450.548z M426.914,223.652c-0.698,1.614-2.639,2.915-3.471,4.609    c-0.846,1.725-1.358,3.716-1.492,5.633c-0.188,2.687,0.312,5.512,1.241,8.025c0.988,2.672,2.613,4.284,1.036,6.808    c-0.911,1.457-2.464,2.13-3.104,3.943c-0.577,1.634-0.435,3.632-0.12,5.3c0.541,2.86,2.077,5.353,2.423,8.26    c0.313,2.643-0.403,5.223-0.424,7.866c-0.041,5.076,0.673,10.179,0.706,15.268c0.073,11.33-0.563,22.878-1.203,34.201    c-0.3,5.3-1.215,10.429-1.322,15.761c-0.12,6.018-0.249,12.036-0.316,18.055c-0.053,4.84-0.723,9.564-0.675,14.396    c0.057,5.723,0.079,11.433-0.454,17.123c-1.068,11.41,0.22,23.083,0.208,34.528c-0.002,2.651-0.162,5.269-0.281,7.89    c-6.944,0.315-14.087-0.749-21.026-0.578c-9.676,0.24-19.349,0.264-29.04,0.262c-9.987-0.002-20.093-0.644-30.057-0.157    c-4.294,0.209-9.29-0.365-14.017-0.088c0.01-0.142,0.026-0.271,0.034-0.42c0.414-7.398-0.697-14.857-0.653-22.3    c0.046-7.602-0.774-15.095-0.709-22.7c0.07-8.192,0.372-16.593-0.503-24.745c-0.321-2.998-0.589-6.003-0.834-9.008    c0.064-0.122,0.128-0.241,0.182-0.375c2.385-5.92,0.335-13.872,0.328-20.135c-0.008-6.96-0.787-13.882-0.771-20.792    c0.014-6.18-0.293-12.563-1.066-18.697c-0.935-7.407-0.622-14.818-1.192-22.23c-0.574-7.476-0.911-14.945-1.341-22.412    c-0.383-6.645-1.54-13.102-1.356-19.809c0.191-6.994,0.027-13.941-0.85-20.859c-0.439-3.461-0.492-7.185-0.898-10.8    c1.759,0.01,3.481-0.283,4.789-0.701c4.655,0.287,9.094,0.238,13.744,0.148c5.103-0.1,10.145,0.419,15.221,0.692    c4.984,0.269,9.886-0.422,14.871-0.141c5.66,0.32,11.479-0.263,17.151-0.437c5.543-0.169,11.083,0.31,16.634,0.469    c5.365,0.152,10.732,0.684,16.088,1.039c3.782,0.251,7.397,1.232,10.983,0.485c0.713,1.163,1.512,2.122,2.382,2.665    c-0.731,0.287-1.517,1.689-1.997,2.321c-1.263,1.663-2.161,3.258-2.435,5.377C422.631,212.752,429.057,218.69,426.914,223.652z     M453.456,94.972c-1.408,3.745-0.812,8.828,0.312,12.571c0.636,2.115,1.727,4.102,2.833,6.012    c-6.361,2.501-7.86,11.77-3.827,19.09c0.2,0.363,1.782,2.835,3.117,4.243c-0.088,0.076-0.177,0.152-0.257,0.241    c-3.283,0.665-7.549-0.114-10.693-0.101c-3.845,0.016-7.635-0.503-11.481-0.579c-9.473-0.185-19.251,0.893-28.634-0.285    c-0.32-0.04-3.96-0.539-3.943-0.519c-0.815-0.875-0.675-6.088-0.71-7.289c-0.145-4.886,0-9.806-0.014-14.696    c-0.023-8.314,0.382-16.477,1.389-24.728c1.931-15.832,11.303-34.136,29.834-32.658c8.789,0.701,16.058,6.386,20.633,13.569    c4.285,6.73,5.522,13.319,6.859,20.575C456.348,90.757,454.414,92.424,453.456,94.972z M494.239,72.379    c-0.955-0.857-2.113-1.449-3.525-1.599c-4.642-0.495-6.982,4.61-8.197,8.266c-0.419,1.26-0.688,2.552-0.955,3.847    c-1.554-5.107-4.219-9.939-8.579-10.287c-4.451-0.355-6.334,3.656-6.921,7.383c-0.453,2.868-0.809,5.727-0.901,8.629    c-0.024,0.762,0.1,2.008,0.185,3.328c-0.412-0.225-0.855-0.434-1.31-0.629c1.737-15.452-9.461-33.127-23.499-38.643    c-15.232-5.985-31.252,0.589-38.413,15.056c-7.145,14.437-7.952,30.083-7.928,45.93c0.009,5.579-0.254,11.224-0.018,16.795    c0.11,2.597,0.01,6.197,1.639,8.395c3.763,5.078,14.261,3.764,19.544,3.609c9.892-0.291,19.739,0.709,29.58,0.654    c1.772-0.01,4.807,0.424,7.771,0.444c-0.173,0.944-0.23,1.893-0.192,2.847c-2.306-2.092-4.953-3.426-7.953-2.405    c-4.476,1.526-5.186,5.831-5.218,10.348c-0.611-0.421-1.282-0.795-2.047-1.096c-3.76-1.478-7.471,0.579-9.669,3.724    c-2.446,3.502-2.768,7.954-1.433,11.901c0.136,0.405,0.288,0.809,0.439,1.214c-1.651-0.08-3.307-0.09-4.85-0.239    c-5.146-0.498-10.283-0.444-15.454-0.492c-6.467-0.062-12.922-0.246-19.377-0.413c-0.238-9.388-0.008-18.689-2.59-27.416    c0.985-8.55,0.7-17.308,0.68-25.873c-0.026-10.91,0.463-21.977-0.35-32.865c-0.709-9.5,0.083-19.094-0.263-28.637    c-0.347-9.528-0.732-19.034-1.322-28.516c4.424-0.186,8.846-0.364,13.252-0.706c3.819-0.296,7.569-1.127,11.384-1.23    c4.663-0.126,9.398,0.121,14.04-0.374c8.508-0.907,17.183-0.125,25.789-0.411c8.992-0.299,18.044,0.468,26.987,1.19    c4.672,0.378,9.402-0.112,14.068,0.269c3.012,0.246,2.979,2.164,3.616,4.833c0.625,2.617,0.212,5.195,0.42,7.837    c0.683,8.658,1.539,17.192,1.669,25.939C494.383,66.161,494.275,69.278,494.239,72.379z"/>
	</g>
</g>
<g>
	<g>
		<path d="M273.494,47.906c-0.649-0.948-1.57-1.425-2.477-2.099c-1.167-0.866-2.152-1.935-3.379-2.719    c-0.534-0.342-1.109-0.744-1.706-1.153c-3.052-3.392-7.629-5.831-11.955-3.826c-0.758,0.352-1.525,0.698-2.291,1.047    c-2.605,0.412-5.231,2.597-7.319,3.933c-1.228,0.786-2.212,1.853-3.379,2.719c-0.908,0.675-1.828,1.151-2.477,2.099    c-0.401,0.587-0.286,1.651,0.273,2.116c1.678,1.399,3.65,1.21,5.732,1.185c0.591-0.007,1.167-0.016,1.735-0.03    c2.989,0.24,6.244-0.091,8.837,0.024c3.001,0.135,6.188,0.795,9.032-0.095c1.094,0.07,2.206,0.086,3.368,0.1    c2.082,0.025,4.054,0.214,5.731-1.185C273.78,49.557,273.896,48.493,273.494,47.906z M265.234,47.781    c-0.728,0.016-1.453,0.045-2.177,0.085c-0.182-0.006-0.37-0.014-0.564-0.026c-2.486-0.153-4.901-0.744-7.404-0.837    c-3.712-0.138-7.646-0.189-11.194,0.934c1.002-0.803,1.955-1.598,3.054-2.288c0.172-0.108,0.356-0.212,0.535-0.317    c0.514-0.275,1.02-0.565,1.512-0.843c0.333-0.18,0.667-0.364,1-0.55c0.371-0.195,0.73-0.371,1.072-0.508    c0.99-0.397,1.979-0.917,3.012-1.177c2.353-0.594,3.763-0.271,6.078,0.53c1.534,1.096,3.388,1.921,4.896,2.867    c1.105,0.694,2.064,1.495,3.072,2.302C266.989,47.91,265.816,47.769,265.234,47.781z"/>
	</g>
</g>
<g>
</g>
<g>
</g>
<g>
</g>
<g>
</g>
<g>
</g>
<g>
</g>
<g>
</g>
<g>
</g>
<g>
</g>
<g>
</g>
<g>
</g>
<g>
</g>
<g>
</g>
<g>
</g>
<g>
</g>
</svg>
