<?xml version="1.0" encoding="iso-8859-1"?>
<!-- Generator: Adobe Illustrator 19.0.0, SVG Export Plug-In . SVG Version: 6.00 Build 0)  -->
<svg xmlns="http://www.w3.org/2000/svg" xmlns:xlink="http://www.w3.org/1999/xlink" version="1.1" id="Layer_1" x="0px" y="0px" viewBox="0 0 511.996 511.996" style="enable-background:new 0 0 511.996 511.996;" xml:space="preserve">
<g>
	<g>
		<path d="M240.795,219.931c-0.301-3.78-1.162-9.405-3.648-12.448c-1.73-2.118-5.941-3.853-8.64-3.056    c-5.355,1.58-7.135,8.561-7.471,14.943c-0.465,1.976-0.645,4.065-0.903,5.799c-0.413,2.776,0.321,4.729,3.33,5.252    c3.975,0.692,12.002,1.096,15.72-0.656C242.462,228.22,241.039,223.01,240.795,219.931z M237.378,225.862    c-0.414,0.538-1.175,0.942-2.539,1.298c-2.731,0.711-5.79,0.303-8.56,0.063c-3.189-0.278-2.676-1.184-2.585-3.855    c0.023-0.697,0.001-1.403-0.021-2.112c0.187-1.99,0.435-4.003,0.875-5.92c0.015-0.052,0.034-0.104,0.039-0.154    c0.428-1.814,1.027-3.54,1.915-5.072c2.927-5.048,8.528-1.975,9.739,2.32c0.829,2.94,1.441,6.145,1.504,9.177    C237.788,223.674,238.075,224.958,237.378,225.862z"/>
	</g>
</g>
<g>
	<g>
		<path d="M267.317,219.931c-0.301-3.78-1.162-9.405-3.648-12.448c-1.73-2.118-5.941-3.853-8.64-3.056    c-5.355,1.58-7.135,8.561-7.471,14.943c-0.465,1.976-0.645,4.065-0.903,5.799c-0.413,2.776,0.321,4.729,3.33,5.252    c3.975,0.692,12.002,1.096,15.72-0.656C268.984,228.22,267.561,223.01,267.317,219.931z M263.9,225.862    c-0.414,0.538-1.175,0.942-2.539,1.298c-2.731,0.711-5.79,0.303-8.56,0.063c-3.189-0.278-2.676-1.184-2.585-3.855    c0.023-0.697,0.001-1.403-0.021-2.112c0.187-1.99,0.435-4.003,0.875-5.92c0.015-0.052,0.035-0.104,0.039-0.154    c0.428-1.814,1.027-3.54,1.915-5.072c2.927-5.048,8.528-1.975,9.739,2.32c0.829,2.94,1.441,6.145,1.504,9.177    C264.31,223.674,264.597,224.958,263.9,225.862z"/>
	</g>
</g>
<g>
	<g>
		<path d="M293.838,219.931c-0.301-3.78-1.162-9.405-3.648-12.448c-1.73-2.118-5.941-3.853-8.64-3.056    c-5.355,1.58-7.135,8.561-7.471,14.943c-0.465,1.976-0.645,4.065-0.903,5.799c-0.413,2.776,0.321,4.729,3.33,5.252    c3.975,0.692,12.002,1.096,15.72-0.656C295.506,228.22,294.083,223.01,293.838,219.931z M290.422,225.862    c-0.413,0.538-1.175,0.942-2.539,1.298c-2.731,0.711-5.79,0.303-8.56,0.063c-3.189-0.278-2.676-1.184-2.585-3.855    c0.023-0.697,0.001-1.403-0.021-2.112c0.187-1.99,0.435-4.003,0.875-5.92c0.015-0.052,0.034-0.104,0.039-0.154    c0.428-1.814,1.027-3.54,1.915-5.072c2.927-5.048,8.528-1.975,9.739,2.32c0.83,2.94,1.441,6.145,1.504,9.177    C290.832,223.674,291.119,224.958,290.422,225.862z"/>
	</g>
</g>
<g>
	<g>
		<path d="M317.345,219.931c-0.301-3.78-1.161-9.405-3.648-12.448c-1.73-2.118-5.941-3.853-8.64-3.056    c-5.355,1.58-7.135,8.561-7.471,14.943c-0.465,1.976-0.645,4.065-0.903,5.799c-0.413,2.776,0.321,4.729,3.33,5.252    c3.975,0.692,12.002,1.096,15.72-0.656C319.013,228.22,317.59,223.01,317.345,219.931z M313.929,225.862    c-0.414,0.538-1.175,0.942-2.539,1.298c-2.731,0.711-5.79,0.303-8.56,0.063c-3.189-0.278-2.676-1.184-2.585-3.855    c0.023-0.697,0.001-1.403-0.021-2.112c0.187-1.99,0.435-4.003,0.875-5.92c0.015-0.052,0.034-0.104,0.039-0.154    c0.428-1.814,1.027-3.54,1.915-5.072c2.927-5.048,8.528-1.975,9.739,2.32c0.829,2.94,1.442,6.145,1.504,9.177    C314.339,223.674,314.625,224.958,313.929,225.862z"/>
	</g>
</g>
<g>
	<g>
		<path d="M240.795,255.656c-0.301-3.78-1.162-9.405-3.648-12.448c-1.73-2.118-5.941-3.853-8.64-3.056    c-5.355,1.58-7.135,8.562-7.471,14.944c-0.465,1.975-0.645,4.064-0.903,5.799c-0.413,2.775,0.321,4.728,3.33,5.251    c3.975,0.692,12.002,1.097,15.72-0.656C242.462,263.945,241.039,258.735,240.795,255.656z M237.378,261.587    c-0.414,0.538-1.175,0.942-2.539,1.298c-2.731,0.712-5.79,0.303-8.56,0.063c-3.189-0.278-2.676-1.184-2.585-3.855    c0.023-0.696,0.001-1.403-0.021-2.112c0.187-1.99,0.435-4.003,0.875-5.92c0.015-0.052,0.034-0.104,0.039-0.154    c0.428-1.814,1.027-3.54,1.915-5.072c2.927-5.048,8.528-1.975,9.739,2.32c0.829,2.94,1.441,6.145,1.504,9.177    C237.788,259.399,238.075,260.683,237.378,261.587z"/>
	</g>
</g>
<g>
	<g>
		<path d="M240.795,291.381c-0.301-3.78-1.162-9.405-3.648-12.448c-1.73-2.118-5.941-3.853-8.64-3.056    c-5.355,1.58-7.135,8.562-7.471,14.944c-0.465,1.976-0.645,4.065-0.903,5.799c-0.413,2.775,0.321,4.728,3.33,5.251    c3.975,0.692,12.002,1.096,15.72-0.656C242.462,299.67,241.039,294.46,240.795,291.381z M237.378,297.312    c-0.414,0.538-1.175,0.942-2.539,1.298c-2.731,0.712-5.79,0.303-8.56,0.063c-3.189-0.278-2.676-1.184-2.585-3.855    c0.023-0.696,0.001-1.403-0.021-2.112c0.187-1.99,0.435-4.003,0.875-5.92c0.015-0.052,0.034-0.104,0.039-0.154    c0.428-1.814,1.027-3.54,1.915-5.072c2.927-5.048,8.528-1.975,9.739,2.32c0.829,2.94,1.441,6.145,1.504,9.177    C237.788,295.124,238.075,296.408,237.378,297.312z"/>
	</g>
</g>
<g>
	<g>
		<path d="M240.795,327.106c-0.301-3.78-1.162-9.405-3.648-12.448c-1.73-2.118-5.941-3.853-8.64-3.056    c-5.355,1.58-7.135,8.562-7.471,14.944c-0.465,1.976-0.645,4.065-0.903,5.799c-0.413,2.775,0.321,4.728,3.33,5.251    c3.975,0.692,12.002,1.096,15.72-0.656C242.462,335.395,241.039,330.185,240.795,327.106z M237.378,333.038    c-0.414,0.538-1.175,0.942-2.539,1.298c-2.731,0.711-5.79,0.303-8.56,0.063c-3.189-0.278-2.676-1.184-2.585-3.855    c0.023-0.697,0.001-1.403-0.021-2.113c0.187-1.99,0.435-4.003,0.875-5.919c0.015-0.052,0.034-0.104,0.039-0.154    c0.428-1.814,1.027-3.54,1.915-5.072c2.927-5.048,8.528-1.975,9.739,2.32c0.829,2.941,1.441,6.145,1.504,9.177    C237.788,330.849,238.075,332.133,237.378,333.038z"/>
	</g>
</g>
<g>
	<g>
		<path d="M240.795,362.831c-0.301-3.78-1.162-9.405-3.648-12.448c-1.73-2.118-5.941-3.853-8.64-3.056    c-5.355,1.58-7.135,8.562-7.471,14.944c-0.465,1.975-0.645,4.064-0.903,5.799c-0.413,2.775,0.321,4.728,3.33,5.251    c3.975,0.692,12.002,1.097,15.72-0.656C242.462,371.12,241.039,365.91,240.795,362.831z M237.378,368.763    c-0.414,0.538-1.175,0.942-2.539,1.298c-2.731,0.711-5.79,0.303-8.56,0.063c-3.189-0.278-2.676-1.184-2.585-3.855    c0.023-0.697,0.001-1.403-0.021-2.113c0.187-1.99,0.435-4.003,0.875-5.919c0.015-0.052,0.034-0.104,0.039-0.154    c0.428-1.814,1.027-3.54,1.915-5.072c2.927-5.048,8.528-1.975,9.739,2.32c0.829,2.941,1.441,6.145,1.504,9.177    C237.788,366.574,238.075,367.858,237.378,368.763z"/>
	</g>
</g>
<g>
	<g>
		<path d="M394.307,225.169c-0.258-1.735-0.438-3.824-0.903-5.799c-0.336-6.382-2.116-13.363-7.471-14.943    c-2.699-0.797-6.91,0.939-8.64,3.056c-2.486,3.043-3.347,8.668-3.648,12.448c-0.246,3.079-1.669,8.289,1.61,9.835    c3.717,1.752,11.745,1.349,15.72,0.656C393.985,229.898,394.719,227.944,394.307,225.169z M388.16,227.223    c-2.768,0.241-5.829,0.649-8.56-0.063c-1.364-0.356-2.125-0.759-2.539-1.298c-0.696-0.905-0.41-2.189-0.367-4.255    c0.063-3.032,0.674-6.235,1.504-9.177c1.211-4.294,6.812-7.368,9.739-2.32c0.888,1.532,1.488,3.258,1.915,5.072    c0.003,0.051,0.023,0.103,0.039,0.154c0.44,1.917,0.688,3.93,0.875,5.92c-0.022,0.71-0.044,1.416-0.021,2.112    C390.836,226.04,391.35,226.946,388.16,227.223z"/>
	</g>
</g>
<g>
	<g>
		<path d="M367.785,225.169c-0.258-1.735-0.438-3.824-0.903-5.799c-0.336-6.382-2.116-13.363-7.471-14.943    c-2.699-0.797-6.911,0.939-8.64,3.056c-2.486,3.043-3.347,8.668-3.648,12.448c-0.246,3.079-1.669,8.289,1.61,9.835    c3.717,1.752,11.745,1.349,15.72,0.656C367.463,229.898,368.197,227.944,367.785,225.169z M361.639,227.223    c-2.768,0.241-5.829,0.649-8.56-0.063c-1.364-0.356-2.125-0.759-2.539-1.298c-0.696-0.905-0.41-2.189-0.367-4.255    c0.063-3.032,0.674-6.235,1.504-9.177c1.211-4.294,6.812-7.368,9.739-2.32c0.888,1.532,1.488,3.258,1.915,5.072    c0.003,0.051,0.023,0.103,0.039,0.154c0.44,1.917,0.688,3.93,0.875,5.92c-0.022,0.71-0.044,1.416-0.021,2.112    C364.314,226.04,364.828,226.946,361.639,227.223z"/>
	</g>
</g>
<g>
	<g>
		<path d="M341.263,225.169c-0.258-1.735-0.438-3.824-0.903-5.799c-0.336-6.382-2.116-13.363-7.471-14.943    c-2.699-0.797-6.91,0.939-8.64,3.056c-2.486,3.043-3.347,8.668-3.648,12.448c-0.246,3.079-1.669,8.289,1.61,9.835    c3.717,1.752,11.745,1.349,15.72,0.656C340.941,229.898,341.675,227.944,341.263,225.169z M335.117,227.223    c-2.769,0.241-5.829,0.649-8.56-0.063c-1.364-0.356-2.125-0.759-2.539-1.298c-0.697-0.905-0.41-2.189-0.367-4.255    c0.063-3.032,0.674-6.235,1.504-9.177c1.211-4.294,6.812-7.368,9.739-2.32c0.888,1.532,1.488,3.258,1.915,5.072    c0.003,0.051,0.023,0.103,0.039,0.154c0.44,1.917,0.688,3.93,0.875,5.92c-0.022,0.71-0.044,1.416-0.021,2.112    C337.792,226.04,338.306,226.946,335.117,227.223z"/>
	</g>
</g>
<g>
	<g>
		<path d="M394.307,260.894c-0.258-1.735-0.438-3.824-0.903-5.799c-0.336-6.382-2.116-13.363-7.471-14.944    c-2.699-0.797-6.91,0.939-8.64,3.056c-2.486,3.043-3.347,8.668-3.648,12.448c-0.246,3.08-1.669,8.29,1.61,9.836    c3.717,1.752,11.745,1.348,15.72,0.656C393.985,265.623,394.719,263.669,394.307,260.894z M388.16,262.948    c-2.768,0.241-5.829,0.649-8.56-0.063c-1.364-0.356-2.125-0.759-2.539-1.298c-0.696-0.905-0.41-2.189-0.367-4.255    c0.063-3.032,0.674-6.235,1.504-9.177c1.211-4.294,6.812-7.368,9.739-2.32c0.888,1.532,1.488,3.257,1.915,5.072    c0.003,0.051,0.023,0.102,0.039,0.154c0.44,1.916,0.688,3.93,0.875,5.92c-0.022,0.709-0.044,1.416-0.021,2.112    C390.836,261.765,391.35,262.671,388.16,262.948z"/>
	</g>
</g>
<g>
	<g>
		<path d="M394.307,296.619c-0.258-1.735-0.438-3.824-0.903-5.799c-0.336-6.382-2.116-13.363-7.471-14.944    c-2.699-0.797-6.91,0.939-8.64,3.056c-2.486,3.043-3.347,8.668-3.648,12.448c-0.246,3.08-1.669,8.29,1.61,9.836    c3.717,1.752,11.745,1.348,15.72,0.656C393.985,301.348,394.719,299.395,394.307,296.619z M388.16,298.673    c-2.768,0.241-5.829,0.649-8.56-0.063c-1.364-0.356-2.125-0.759-2.539-1.298c-0.696-0.905-0.41-2.189-0.367-4.255    c0.063-3.032,0.674-6.235,1.504-9.177c1.211-4.294,6.812-7.368,9.739-2.32c0.888,1.532,1.488,3.257,1.915,5.072    c0.003,0.051,0.023,0.102,0.039,0.154c0.44,1.917,0.688,3.93,0.875,5.92c-0.022,0.709-0.044,1.416-0.021,2.112    C390.836,297.49,391.35,298.396,388.16,298.673z"/>
	</g>
</g>
<g>
	<g>
		<path d="M394.307,332.344c-0.258-1.735-0.438-3.824-0.903-5.799c-0.336-6.382-2.116-13.363-7.471-14.944    c-2.699-0.797-6.91,0.939-8.64,3.056c-2.486,3.043-3.347,8.668-3.648,12.448c-0.246,3.08-1.669,8.29,1.61,9.836    c3.717,1.752,11.745,1.348,15.72,0.656C393.985,337.073,394.719,335.12,394.307,332.344z M388.16,334.397    c-2.768,0.241-5.829,0.648-8.56-0.063c-1.364-0.356-2.125-0.76-2.539-1.298c-0.696-0.904-0.41-2.188-0.367-4.254    c0.063-3.032,0.674-6.235,1.504-9.177c1.211-4.294,6.812-7.367,9.739-2.32c0.888,1.532,1.488,3.258,1.915,5.072    c0.003,0.051,0.023,0.102,0.039,0.154c0.44,1.916,0.688,3.93,0.875,5.919c-0.022,0.71-0.044,1.416-0.021,2.112    C390.836,333.214,391.35,334.12,388.16,334.397z"/>
	</g>
</g>
<g>
	<g>
		<path d="M394.307,368.069c-0.258-1.735-0.438-3.824-0.903-5.799c-0.336-6.382-2.116-13.363-7.471-14.944    c-2.699-0.797-6.91,0.939-8.64,3.056c-2.486,3.043-3.347,8.668-3.648,12.448c-0.246,3.08-1.669,8.29,1.61,9.836    c3.717,1.752,11.745,1.348,15.72,0.656C393.985,372.798,394.719,370.845,394.307,368.069z M388.16,370.122    c-2.768,0.241-5.829,0.648-8.56-0.063c-1.364-0.356-2.125-0.76-2.539-1.298c-0.696-0.904-0.41-2.188-0.367-4.254    c0.063-3.032,0.674-6.235,1.504-9.177c1.211-4.294,6.812-7.367,9.739-2.32c0.888,1.532,1.488,3.258,1.915,5.072    c0.003,0.051,0.023,0.102,0.039,0.154c0.44,1.916,0.688,3.93,0.875,5.919c-0.022,0.71-0.044,1.416-0.021,2.112    C390.836,368.939,391.35,369.845,388.16,370.122z"/>
	</g>
</g>
<g>
	<g>
		<path d="M332.86,287.3c-0.126-1.415-0.569-2.787-0.705-4.2c-0.119-1.234,0.188-2.6-0.188-3.798    c-0.549-1.741-1.85-2.268-3.551-2.603c-3.01-0.594-6.153-0.929-9.205-1.263c-0.007,0-0.014,0-0.021-0.001    c-4.287-0.784-8.813-0.689-13.122-0.669c-5.247,0.023-10.832-0.096-15.972,1.277c-1.369,0.184-2.733,0.391-4.069,0.656    c-1.701,0.336-3.002,0.862-3.551,2.603c-0.378,1.198-0.069,2.563-0.188,3.798c-0.137,1.414-0.58,2.785-0.708,4.2    c-0.186,2.082-0.605,5.429,0.669,7.307c1.093,1.612,3.081,1.54,4.812,1.738c3.005,0.345,6.089,0.466,9.119,0.395    c1.388-0.033,2.805,0.065,4.083-0.283c1.061,0.014,2.112,0.029,3.121,0.108c3.875,0.304,8.369,0.73,12.432,0.14    c0.803,0.044,1.63,0.017,2.445,0.035c3.031,0.072,6.115-0.048,9.119-0.395c1.731-0.198,3.718-0.126,4.812-1.738    C333.466,292.729,333.047,289.382,332.86,287.3z M329.22,291.942c-1.07,1.492-2.882,1.246-4.739,1.316    c-2.293,0.086-4.581,0.271-6.879,0.363c-0.426,0.017-0.905,0.094-1.397,0.184c-4.28-0.629-8.726-0.221-13.011-0.421    c-1.861-0.087-3.999,0.162-6.099,0.259c-0.086-0.008-0.175-0.019-0.258-0.022c-1.362-0.054-2.721-0.137-4.079-0.216    c-0.263-0.055-0.532-0.1-0.784-0.176c-0.265-0.08-0.492-0.023-0.671,0.1c-0.449-0.023-0.897-0.053-1.346-0.071    c-1.858-0.069-3.669,0.177-4.739-1.316c-1.228-1.713-0.765-4.656-0.607-6.719c0.147-1.912-0.311-4.97,1.64-6.131    c0.907-0.539,2.534-0.665,4-0.764c4.593,0.908,10.327-0.464,14.765-0.444c5.147,0.023,10.216,0.501,15.322-0.029    c0.61,0.094,1.221,0.186,1.832,0.287c1.609,0.266,4.644,0.133,6.017,0.95c1.951,1.16,1.493,4.219,1.64,6.131    C329.986,287.287,330.447,290.23,329.22,291.942z"/>
	</g>
</g>
<g>
	<g>
		<path d="M511.576,392.564c-0.736-1.982-2.855-2.828-5.12-2.959c0.284-7.296-1.677-14.51-1.795-21.78    c-0.126-7.688,0.135-15.376,0.062-23.064c-0.078-8.101-0.38-16.203-0.744-24.306c0.088-0.214,0.084-0.46-0.029-0.653    c-0.399-8.809-1.075-17.632-1.278-26.422c-0.391-16.839-1.047-33.701-1.995-50.526c-0.457-8.125-1.027-16.262-1.264-24.409    c-0.167-5.759-0.14-13.041-2.341-18.542c0.807-0.501,1.51-1.164,2.041-2.077c1.14-1.961,3.606-6.213,2.582-8.555    c-0.503-1.151-1.488-1.644-2.604-1.804c0.015-0.095,0.036-0.186,0.048-0.282c1.079-2.041,0.894-4.791,0.931-6.992    c0.074-4.408,0.069-8.752-0.063-13.156c-0.073-2.432,0.079-5.764-1.136-8.143c3.528-2.758,1.919-9.119-0.278-12.545    c-2.639-4.117-6.374-5.964-10.893-6.813c1.232-1.039,2.126-2.618,2.19-3.991c0.136-2.912-1.132-4.928-3.604-6.339    c-0.508-0.29-1.034-0.441-1.563-0.515c1.159-4.435,0.703-9.917,0.749-14.407c0.002-0.257,0-0.469-0.008-0.666    c3.465-0.885,4.148-4.625,3.625-7.862c-0.292-1.806-3-1.585-3.437,0c-0.445,1.616-0.015,2.505-1.634,3.133    c-2.207,0.855-1.831-1.552-2.452-3.133c-0.538-1.37-2.478-1.19-2.588,0.35c-0.144,2.05-0.512,4.027,0.704,5.807    c0.652,0.954,2.166,1.299,2.86,1.905c-0.571-0.371-0.253,2.153-0.272,2.613c-0.066,1.634-0.073,3.251-0.054,4.891    c0.03,2.524-0.128,5.063,0.508,7.51c-1.218,0.338-2.366,1.075-3.277,1.951c-1.827,1.757-2.848,4.472-1.34,6.784    c0.417,0.639,1.015,1.389,1.715,2.002c-9.398,2.25-17.891,12.112-11.028,21.404c0.025,0.035,0.064,0.057,0.093,0.089    c-0.853,3.616,0.293,8.951,0.208,12.449c-0.105,4.315-0.693,9.307,0.35,13.626c-1.359,0.174-2.654,0.684-3.39,1.705    c-1.391,1.931-0.12,4.386,0.663,6.305c0.554,1.358,1.36,3.63,2.939,4.676c-1.536,12.2-2.072,24.408-2.562,36.728    c-0.499,12.534-1.264,25.135-1.445,37.666c-0.053,3.663-0.153,7.33-0.281,10.997c-0.018,0-0.033-0.004-0.051-0.004    c-9.934,0.173-19.798-0.118-29.738-0.269c-5.123-0.077-10.252-0.198-15.375-0.309c-3.979-0.086-8.768,0.818-12.728,0.347    c-0.085-2.08-0.13-4.158-0.067-6.241c0.45-15.013-1.583-29.916-1.599-44.912c-0.015-13.228-0.662-26.372-2.589-39.396    c0.867-0.071,1.73-0.165,2.572-0.349c4.969-1.086,5.223-6.034,3.715-10.43c-1.46-4.258-6.986-4.078-10.863-3.907    c-6.627,0.292-13.377,0.806-19.972,0.818c-7.497,0.013-14.99,1.022-22.438,0.792c-10.389-0.321-20.728,0.838-31.09,1.505    c-2.602-0.242-5.219-0.391-7.836-0.498c0-0.089,0.002-0.176-0.011-0.274c-0.705-5.374-0.195-10.504-5.771-13.461    c-2.66-1.411-6.891-1.493-8.737-3.979c-1.56-2.102-1.254-4.699-1.503-7.157c-0.269-2.647-0.652-5.289-0.656-7.956    c0.877-0.237,1.703-0.628,2.402-1.245c1.238-1.091,1.594-2.31,2.244-3.736c0.942-2.064-1.347-3.9-3.123-2.41    c-1.643,1.379-1.317,3.769-4.189,3.595c-2.018-0.123-2.28-2.124-3.684-3.187c-0.836-0.634-2.073,0.058-2.323,0.944    c-0.554,1.964,0.347,3.885,2.041,4.981c0.244,0.158,0.553,0.304,0.886,0.432c0.633,0.391,1.336,0.649,2.067,0.788    c0.1,0.019,0.325,5.039,0.368,5.569c0.158,1.986,0.287,3.983,0.134,5.973c-0.267,3.497-2.132,5.981-5.153,7.769    c-2.001,1.185-3.728,2.204-5.264,4.007c-2.268,2.664-3.599,6.18-2.769,9.491c-8.683-0.65-17.357-1.421-26.068-1.151    c-7.448,0.23-14.939-0.779-22.438-0.792c-6.596-0.012-13.346-0.526-19.972-0.818c-3.877-0.171-9.403-0.352-10.863,3.907    c-1.508,4.396-1.255,9.344,3.715,10.43c0.842,0.184,1.705,0.278,2.572,0.349c-1.926,13.024-2.573,26.168-2.589,39.396    c-0.017,14.996-2.049,29.899-1.599,44.912c0.06,1.972,0.022,3.94-0.054,5.907c-5.602-1.349-12.623-0.221-18.176-0.227    c-6.216-0.006-12.385-0.414-18.59-0.615c-13.756-0.445-27.543-0.232-41.316-0.212c-6.747,0.01-13.463,0.287-20.193,0.358    c-7.11,0.075-14.191-0.582-21.294-0.303c-5.488,0.216-10.911,0.562-16.394,0.658c-3.297-0.42-6.716-0.326-9.969-0.295    c-3.6,0.034-8.712-0.814-12.668,0.093c-0.4-13.754-0.969-27.514-1.742-41.249c-0.457-8.125-1.027-16.262-1.264-24.409    c-0.168-5.759-0.14-13.041-2.341-18.542c0.807-0.501,1.51-1.164,2.041-2.077c1.14-1.961,3.606-6.213,2.582-8.555    c-0.503-1.151-1.488-1.644-2.604-1.804c0.015-0.095,0.036-0.186,0.049-0.282c1.079-2.041,0.894-4.791,0.931-6.992    c0.074-4.408,0.069-8.752-0.063-13.156c-0.073-2.432,0.079-5.764-1.136-8.143c3.528-2.758,1.919-9.119-0.278-12.545    c-2.639-4.117-6.374-5.964-10.893-6.813c1.232-1.039,2.126-2.618,2.19-3.99c0.136-2.912-1.133-4.928-3.604-6.339    c-0.508-0.29-1.034-0.441-1.563-0.515c1.159-4.435,0.703-9.917,0.749-14.407c0.002-0.257,0-0.469-0.008-0.666    c3.465-0.885,4.148-4.625,3.625-7.862c-0.292-1.806-3-1.585-3.437,0c-0.445,1.616-0.015,2.505-1.634,3.133    c-2.207,0.855-1.83-1.552-2.452-3.133c-0.538-1.37-2.479-1.19-2.588,0.35c-0.144,2.05-0.512,4.027,0.704,5.807    c0.652,0.954,2.166,1.299,2.86,1.905c-0.571-0.371-0.253,2.153-0.272,2.613c-0.066,1.634-0.073,3.251-0.054,4.891    c0.03,2.524-0.128,5.063,0.508,7.51c-1.218,0.338-2.367,1.075-3.278,1.951c-1.827,1.757-2.848,4.472-1.34,6.784    c0.417,0.639,1.015,1.389,1.715,2.002c-9.398,2.25-17.891,12.112-11.028,21.404c0.025,0.035,0.064,0.057,0.093,0.089    c-0.853,3.616,0.294,8.951,0.208,12.449c-0.105,4.315-0.693,9.307,0.35,13.626c-1.359,0.174-2.654,0.684-3.389,1.705    c-1.391,1.931-0.12,4.386,0.663,6.305c0.554,1.358,1.36,3.63,2.939,4.676c-1.536,12.2-2.072,24.408-2.562,36.728    c-0.499,12.534-1.264,25.135-1.445,37.666c-0.39,27.034-3.03,54.209-4.958,81.19c-0.431,6.031-0.748,12.07-1.18,18.1    c-0.216,3.016-0.536,6.024-0.763,9.038c-0.18,2.39-0.665,5.364,0.015,7.697c-2.157,0.958-3.754,2.633-4.154,5.747    c-0.262,2.044-1.174,5.241,0.055,7.2c1.492,2.377,4.708,1.353,6.958,1.52c7.796,0.575,15.614,1.045,23.422,1.357    c3.461,0.139,6.999-0.032,10.477-0.025c2.503,0.004,6.232,0.482,9.27,0.1c0.575,0.055,1.119,0.098,1.587,0.1    c3.206,0.01,6.39,0.073,9.597,0.101c7.234,0.064,14.417,0.094,21.649-0.031c14.575-0.251,29.149,0.043,43.727-0.399    c14.404-0.436,28.62,0.119,43.011,0.59c5.933,0.194,11.879,0.114,17.8,0.413c5.155,0.261,10.299-0.155,15.437-0.376    c0.008,0.004,0.013,0.011,0.022,0.017c1.524,0.871,3.62,0.332,5.279,0.389c3.153,0.109,6.201,0.566,9.371,0.565    c10.601-0.003,21.1-0.684,31.688-0.85c2.624-0.041,5.972,0.128,8.082-1.653c4.445,0.311,8.847,0.054,13.354,0.036    c2.341-0.009,4.98,0.107,7.568-0.044c2.786,0.063,5.597-0.044,8.28,0.097c6.331,0.333,12.73,0.559,19.067,0.732    c7.386,0.202,14.709,0.424,22.095-0.033c3.514-0.218,7.456-0.164,11.154-0.72c1.233-0.01,2.437-0.035,3.57-0.031    c4.506,0.018,8.909,0.274,13.354-0.036c2.11,1.781,5.458,1.612,8.082,1.653c10.589,0.165,21.087,0.846,31.688,0.85    c3.169,0.001,6.218-0.457,9.371-0.565c1.659-0.057,3.754,0.482,5.279-0.389c0.049-0.028,0.083-0.067,0.13-0.096    c3.335,0.147,6.838-0.24,9.942-0.381c5.896-0.267,11.786-0.515,17.707-0.512c5.703,0.002,11.332-0.198,17.011,0.01    c3.286,0.121,6.532-0.472,9.797-0.614c6.529,0.452,13.067,0.842,19.601,1.103c3.462,0.139,7-0.032,10.478-0.025    c3.331,0.007,8.838,0.85,11.992-0.606C511.063,403.8,512.872,396.054,511.576,392.564z M502.369,389.489    c-0.901,0.014-1.785,0.034-2.59-0.03c-3.284-0.26-6.577-0.377-9.861-0.631c-7.488-0.581-15.361-0.661-22.858-0.053    c-1.508,0.122-3.05,0.233-4.518,0.455c0.339-1.435,0.341-2.881,0.334-4.33c5.466,1.146,11.72,0.543,17.152,0.652    c7.229,0.145,14.545,0.251,21.794,0.052C501.991,386.899,502.157,388.193,502.369,389.489z M447.737,381.686    c-4.568,0.299-9.155,0.191-13.739,0.252c-8.393,0.112-17.656-1.532-25.988,0.225c-0.102-3.01-0.315-6.048-0.041-9.086    c0.75-8.325,0.207-16.901,0.195-25.261c-0.013-8.89,0.527-17.741,0.514-26.624c-0.009-6.141-0.406-12.256-0.529-18.353    c4.144,1.067,9.164,0.356,13.296,0.358c5.021,0.002,10.041-0.39,15.061-0.545c9.321-0.289,18.733,0.083,28.039-0.56    c-1.034,17.794-2.584,35.598-3.852,53.32c-0.431,6.031-0.748,12.07-1.18,18.1c-0.187,2.611-0.444,5.215-0.659,7.822    C455.589,380.385,451.029,381.471,447.737,381.686z M458.673,383.418c-0.123,1.35-0.279,2.818-0.251,4.232    c-8.167-1.083-16.91-0.597-25.058-0.646c-5.252-0.032-11.04-0.272-16.671,0.045c-1.531-0.045-3.041,0.122-4.567,0.261    c-1.007,0.091-2.919,0.477-4.201,0.446c0.116-1.274,0.143-2.555,0.127-3.841c8.411,0.994,17.571,0.67,25.947,0.564    c4.374-0.055,8.763,0.065,13.125-0.174C450.813,384.103,455.062,384.501,458.673,383.418z M413.516,299.006    c1.188,1.127,3.111,0.302,3.171-1.314c0.018-0.483-0.128-0.922-0.202-1.392c-0.065-0.417,0.001-0.784-0.042-1.2    c-0.041-0.39-0.107-0.799-0.201-1.201c1.237,0.007,2.481-0.023,3.723-0.051c-0.004,0.046-0.011,0.091-0.02,0.133    c-0.09,0.412-0.128,0.84-0.171,1.259c-0.106,1.03-0.3,2.114,0.55,2.898c1.017,0.94,2.664,0.276,2.707-1.121    c0.025-0.834-0.148-1.765-0.211-2.647c-0.014-0.204-0.041-0.4-0.074-0.593c1.459-0.051,2.916-0.11,4.371-0.17    c0.004,0.029-0.003,0.054,0.002,0.083c0.098,0.457-0.22,1.12-0.239,1.595c-0.033,0.885,0.226,1.869,1.058,2.312    c0.432,0.23,1.089,0.324,1.512,0c0.523-0.4,0.888-0.818,0.916-1.519c0.019-0.481-0.125-0.897-0.252-1.345    c-0.119-0.418-0.204-0.83-0.328-1.232c1.105-0.042,2.197-0.066,3.292-0.09c-0.035,0.258-0.058,0.52-0.065,0.797    c-0.013,0.612-0.091,1.351,0.075,1.943v-0.043c0.017,0.074,0.035,0.147,0.062,0.217c-0.012,0.307,0.009,0.62,0.116,0.946    c0.576,1.762,2.971,1.739,3.558,0c0.193-0.571,0.09-1.045,0.052-1.622c-0.001-0.026-0.002-0.039-0.003-0.056    c0.004,0.03,0.011,0.033,0.015-0.088c0.01-0.266-0.002-0.483-0.054-0.758c-0.078-0.411-0.512-1.066-0.032-1.382    c0.205-0.134,0.465-0.148,0.711-0.152c0.679-0.013,2.669-0.346,3.138,0.309c0.199,0.279-0.09,1.08-0.082,1.423    c0.014,0.576,0.153,1.143,0.474,1.628c0.668,1.011,2.056,1.019,2.722,0c0.493-0.753,0.594-1.791,0.371-2.655    c-0.047-0.184-0.114-0.349-0.187-0.507c1.179,0.017,2.357,0.039,3.536,0.058c-0.118,0.211-0.23,0.424-0.296,0.662    c-0.204,0.73-0.363,1.522-0.131,2.263c0.417,1.336,2.189,1.564,2.935,0.383c0.499-0.79,0.495-1.439,0.39-2.325    c-0.034-0.291-0.034-0.589-0.096-0.876c-0.004-0.021-0.014-0.04-0.02-0.061c1.072,0.019,2.145,0.034,3.218,0.051    c0.002,0.15,0.012,0.301,0.029,0.453c-0.056,0.128-0.117,0.255-0.161,0.367c-0.411,1.063-0.154,2.013,0.701,2.704    c0.798,0.646,2.125,1.203,2.706-0.105c0.364-0.818,0.482-1.416,0.293-2.318c-0.119-0.57-0.214-0.948,0.499-1.131    c0.95-0.244,1.203,0.652,1.307,1.401c0.13,0.94,0.102,1.939,1.153,2.363c0.716,0.29,2.039-0.019,2.255-0.881    c0.223-0.889-0.736-1.842-0.515-2.76c1.063-0.09,2.172,0.007,3.243,0.001c-0.08,1.695-0.176,3.389-0.268,5.084    c-9.086,0.655-18.283,0.306-27.386,0.565c-9.753,0.278-19.546,0.648-29.223,1.532c-0.004-0.496-0.024-0.992-0.023-1.487    c0.003-1.977-0.069-3.945-0.169-5.909c1.843,0.211,3.708,0.338,5.59,0.401c-0.242,0.531-0.454,1.078-0.607,1.573    C412.547,296.586,412.603,298.139,413.516,299.006z M501.491,382.925c-6.88-0.179-13.8-0.089-20.658-0.244    c-3.447-0.078-6.908,0.023-10.365-0.024c-2.59-0.035-5.068-0.358-7.558-0.032c0.005-0.116,0.009-0.231,0.017-0.348    c0.009-0.127,0.019-0.252,0.028-0.379c0.066-0.883,0.147-1.764,0.227-2.646c1.565,0.429,3.164,0.229,5.061,0.27    c4.16,0.088,8.358,0.129,12.537,0.151c6.846,0.036,13.594,0.272,20.408,0.112C501.282,380.831,501.374,381.878,501.491,382.925z     M497.19,259.701c-4.024-1.315-9.467-0.855-13.16-0.843c-4.064,0.013-9.74-0.542-13.886,0.993    c0.187-4.28,0.344-8.561,0.389-12.825c4.296,0.525,9.068-1.221,13.424-1.147c4.067,0.069,8.391,0.766,12.4,1.375    c0.098,0.015,0.209,0.043,0.326,0.074C496.841,251.452,497.02,255.577,497.19,259.701z M495.485,207.4    c-4.111-1.145-9.004-0.758-13.055-0.761c-2.825-0.002-7.31-0.555-10.426,0.528c-0.037-2.211-0.138-4.415-0.344-6.607    c2.874,0.493,6.768-0.484,9.27-0.424c3.961,0.095,10.001,1.805,14.281,0.582C495.077,202.929,495.383,205.157,495.485,207.4z     M495.548,209.474c0.042,2.742,0.107,5.485,0.17,8.229c-3.568-1.447-7.149-2.101-11.33-1.818    c-3.841,0.26-8.746,0.412-12.632,1.753c0.154-2.858,0.262-5.711,0.264-8.552c3.453,0.253,6.921-0.284,10.409-0.288    C486.681,208.794,491.265,209.634,495.548,209.474z M475.602,219.285c3.23-0.208,6.434-0.865,9.676-0.932    c3.573-0.073,7.002,0.735,10.469,0.646c0.011,0.478,0.022,0.956,0.032,1.434c0.037,1.824,0.105,3.647,0.158,5.469    c-3.714-1.286-9.168-0.661-12.496-0.464c-4.162,0.246-8.251,0.962-12.309,1.769c0.178-2.641,0.367-5.283,0.526-7.925    C472.961,219.185,474.386,219.365,475.602,219.285z M483.441,227.66c2.793-0.146,5.7-0.076,8.479,0.173    c1.307,0.117,2.732,0.593,4.092,0.679c0.164,5.161,0.353,10.321,0.542,15.476c0.008,0.214,0.018,0.429,0.025,0.643    c-4.69-1.392-10.45-1.503-15.033-1.244c-3.743,0.212-7.604,0.467-11.007,2.059c0.006-1.097,0.012-2.194,0.003-3.289    c-0.039-4.471,0.201-8.985,0.497-13.513C475.198,228.459,479.29,227.877,483.441,227.66z M496.509,172.872    c0.053,3.789-0.424,7.444-0.221,11.113c-0.194,0.655-0.221,1.328-0.669,2.01c-1.179,1.799-1.578,1.141-4.063,0.863    c-0.409-0.046-0.812-0.071-1.219-0.108c0.659-1.602,0.746-3.097,0.723-5.012c-0.04-3.384,0.269-7.055-0.246-10.388    c-0.571-3.7-2.145-8.297-6.578-8.088c-4.297,0.203-5.418,5.806-5.877,9.243c-0.54,4.049-1.11,9.683,0.37,13.702    c-2.299,0.043-4.573,0.281-6.771,0.975c-0.198-0.032-0.403-0.055-0.612-0.074c1.408-5.564,0.476-12.17,0.899-17.838    c0.245-3.272-0.139-7.208,2.76-9.134c3.502-2.329,8.277-1.763,12.269-1.751c4.687,0.013,9.136-0.568,9.689,5.533    C497.224,166.779,496.469,169.953,496.509,172.872z M488.277,186.568c-1.031-0.071-2.065-0.125-3.111-0.174    c-1.638-0.077-3.286-0.172-4.928-0.195c0.533-2.084,0.141-4.699,0.13-6.72c-0.02-3.768-0.517-8.982,1.737-12.316    c2.591-3.835,5.522-0.199,6.293,2.918c0.618,2.503,0.19,5.273,0.102,7.812C488.401,180.77,487.872,183.728,488.277,186.568z     M481.395,131.892c1.703-1.473,4.215-1.296,5.382,0.828c1.022,1.857-0.323,4.173-2.03,4.993c-0.474,0.227-1.128,0.424-1.507,0.824    C481.134,136.656,478.403,134.48,481.395,131.892z M471.39,148.369c2.764-5.012,8.177-7.541,13.79-6.769    c5.012,0.69,9.177,2.798,11.065,7.729c1.136,2.968,0.527,4.773-0.042,7.066c-2.151-0.926-4.954-0.821-7.061-0.835    c-4.365-0.029-14.072-1.369-18.325,2.271C470.176,154.61,469.349,152.07,471.39,148.369z M471.24,189.923    c2.287,0.104,4.527-0.46,6.849-0.593c4.615-0.266,9.769,0.331,14.288,0.996c1.601,0.236,3.161,0.766,4.46,0.334    c1.104,0.806,1.029,2.142,0.07,4.041c-1.296,2.567-1.795,2.848-4.507,2.701c-4.307-0.231-8.607-0.685-12.926-0.862    c-3.1-0.127-6.887,0.57-8.942-1.743C467.967,191.912,469.342,191.027,471.24,189.923z M470.047,262.149    c4.392,0.662,9.775-0.435,13.984-0.425c3.289,0.008,6.661,0.224,9.937,0.55c1.06,0.105,2.222,0.495,3.356,0.678    c0.2,4.764,0.4,9.528,0.597,14.292c-3.83-1.082-8.172-1.029-11.983-1.025c-3.751,0.004-7.481-0.089-11.217,0.259    c-1.407,0.132-3.649,0.889-5.454,1.145C469.518,272.487,469.803,267.322,470.047,262.149z M469.184,279.277    c0-0.01,0.001-0.021,0.001-0.03c4.057,0.813,10.041-0.366,13.426-0.363c5.32,0.005,10.28,0.393,15.425,1.218    c0.205,4.969,0.407,9.938,0.595,14.908c0.294,7.732,0.736,15.484,1.117,23.239c-4.84-1.094-10.143-0.705-14.994-0.912    c-5.853-0.25-11.441,0.571-17.154,1.469C468.335,305.634,468.567,292.455,469.184,279.277z M467.501,320.83    c0.017-0.277,0.025-0.553,0.042-0.83c5.406,0.66,11.04-0.235,16.458,0.096c2.973,0.182,5.941,0.172,8.911,0.352    c2.324,0.14,4.668,0.66,6.981,0.756c0.137,2.937,0.251,5.873,0.35,8.81c-4.47-0.759-9.386-0.186-13.772-0.324    c-6.533-0.205-13.096,0.627-19.597,0.809C467.096,327.276,467.309,324.054,467.501,320.83z M466.757,332.211    c1.094,0.137,2.251,0.089,3.272,0.126c4.776,0.174,9.558,0.119,14.334,0.272c4.944,0.159,10.87,1.066,15.972,0.209    c0.127,4.524,0.192,9.046,0.139,13.562c-0.119,10.355-0.269,20.571,0.495,30.798c-6.357-0.132-12.823,0.093-19.171,0.117    c-6.015,0.023-12.461-0.597-18.469,0.365c0.086-0.881,0.173-1.76,0.266-2.639c0.509-4.842,1.082-9.683,1.329-14.547    C465.402,351.047,466.106,341.63,466.757,332.211z M418.675,287.984c5.313,0.227,10.676,0.23,15.996,0.36    c10.196,0.248,20.389,0.795,30.564,0.102c-0.03,0.748-0.072,1.497-0.104,2.245c-9.534-0.069-19.027-0.348-28.563-0.35    c-5.216-0.001-10.411-0.012-15.616,0.166c-4.36,0.15-8.833-0.125-13.151,0.592c-0.077-1.346-0.156-2.689-0.227-4.031    C411.136,287.943,415.07,287.83,418.675,287.984z M288.052,177.728c1.585-3.767,4.354-4.677,7.401-6.683    c2.286-1.504,3.633-3.593,4.507-5.981c0.306,0.78,0.612,1.54,0.962,1.931c1.001,1.12,1.788,1.401,3.218,1.93    c4.065,1.503,8.663,2.284,9.368,8.015c0.231,1.881-0.599,3.541-0.094,5.296c-1.911-0.047-3.818-0.085-5.709-0.111    c-4.611-0.065-9.223-0.012-13.832,0.105c-2.325,0.058-4.71,0.009-6.981,0.471l-0.111-0.008    C287.245,181.055,287.35,179.398,288.052,177.728z M208.714,186.948c1.751-3.365,8.121-1.697,11.178-1.704    c3.868-0.008,7.484,0.198,11.333,0.465c3.289,0.229,6.661,0.021,9.96-0.026c4.162-0.06,8.179,0.605,12.312,0.711    c8.857,0.227,17.723-0.32,26.595-0.004c2.736,0.097,5.366,0.08,7.966-0.022c1.584,0.141,3.25,0.015,4.841,0.062    c4.58,0.131,9.164,0.183,13.745,0.147c4.801-0.037,9.597-0.282,14.391-0.252c1.999,0.013,4.017,0.084,6.027,0.064    c2.379,0.079,4.786,0.091,7.286,0.003c8.87-0.314,17.737,0.231,26.595,0.004c4.133-0.106,8.15-0.77,12.312-0.711    c3.299,0.047,6.672,0.255,9.961,0.026c3.848-0.267,7.464-0.473,11.333-0.465c3.057,0.006,9.427-1.661,11.178,1.704    c1.767,3.398-5.758,4.107-11.073,4.198c-0.025-0.461-0.077-0.925-0.094-1.38c-0.035-1.022-0.807-1.778-1.823-1.823    c-0.959-0.043-1.859,0.868-1.823,1.823c-0.002,0.452,0.035,0.903,0.043,1.354c-0.4-0.012-0.717-0.025-0.921-0.034    c-2.715-0.125-5.458,0.021-8.209,0.22c-0.073-0.904-0.283-1.821-0.43-2.538c-0.18-0.882-1.22-1.383-2.04-1.158    c-0.602,0.165-0.964,0.629-1.109,1.171c-0.017-0.004-0.033-0.009-0.05-0.014c-0.117,0.67-0.116,1.338-0.144,2.016    c-0.017,0.393-0.035,0.595-0.076,0.812c-2.643,0.198-5.286,0.359-7.917,0.298c-0.245-0.005-0.492-0.004-0.737-0.009    c-0.015-0.323-0.067-0.644-0.125-0.964c0.276-0.882-0.005-1.785-0.637-2.517c-1.021-1.181-2.766-0.403-3.218,0.85    c-0.237,0.657-0.202,1.401-0.203,2.088c0,0.16-0.002,0.321-0.008,0.481c0,0.01-0.002,0.023-0.002,0.035    c-3.03,0.011-6.068,0.073-9.105,0.111c0.054-0.739-0.089-1.459-0.145-2.195c0.09-1.063-0.971-1.965-1.965-1.965    c-1.097,0-1.915,0.905-1.965,1.965c-0.026,0.569-0.005,1.138-0.031,1.707c-0.006,0.117-0.011,0.235-0.021,0.353    c-0.011,0.039-0.028,0.096-0.052,0.161h-0.006c0.041-0.117,0.097-0.276-0.007,0c-3.21-0.002-6.415-0.069-9.599-0.303    c-0.269-0.02-0.539-0.035-0.808-0.054c0.003-0.055,0.015-0.106,0.017-0.161c0.226-0.854,0.228-1.817,0.084-2.55    c-0.323-1.635-2.421-1.909-3.506-0.926c-0.739,0.671-0.942,1.696-0.91,2.653c0.005,0.159,0.021,0.316,0.024,0.475    c0.001,0.042-0.01,0.163-0.017,0.249c-3.117-0.16-6.231-0.239-9.344-0.214c0.001-0.057,0.001-0.115,0-0.172    c0.029-0.12,0.061-0.241,0.076-0.362c0.033-0.246,0.043-0.45,0.018-0.695c-0.019-0.141-0.033-0.252-0.044-0.336v-0.002    c0.166-0.852-0.272-1.707-0.987-2.168c-0.722-0.465-1.946-0.346-2.513,0.324c-0.641,0.759-0.89,1.513-0.916,2.509    c-0.007,0.235,0.003,0.469,0.001,0.705c-2.936-0.251-5.92-0.244-8.877-0.163c0.094-0.825,0.282-1.573-0.215-2.46    c-0.789-1.41-2.957-1.065-3.387,0.443c-0.133,0.465-0.106,0.961-0.086,1.401c-0.047,0.239-0.1,0.489-0.159,0.747    c-0.976,0.039-1.948,0.076-2.908,0.107c-1.544,0.05-3.119,0.034-4.706,0.001c0.054-0.766,0.074-1.541-0.142-2.33    c-0.263-0.959-1.307-1.549-2.266-1.286c-0.683,0.187-1.098,0.692-1.252,1.296c-0.011-0.003-0.023-0.007-0.034-0.01    c-0.162,0.688-0.034,1.415-0.145,2.067c-0.01,0.057-0.019,0.117-0.029,0.174c-2.745-0.056-5.495-0.056-8.177,0.234    c-0.002-0.026-0.004-0.062-0.006-0.079c-0.01-0.282,0.009-0.565,0.001-0.847c-0.025-0.996-0.273-1.75-0.916-2.509    c-0.565-0.669-1.79-0.789-2.512-0.324c-0.715,0.461-1.154,1.317-0.987,2.168v0.002c-0.011,0.084-0.025,0.195-0.044,0.336    c-0.025,0.246-0.015,0.45,0.018,0.695c0.017,0.12,0.047,0.241,0.076,0.362c-0.001,0.057,0,0.115,0,0.172    c-3.113-0.025-6.228,0.055-9.344,0.214c-0.007-0.086-0.018-0.207-0.016-0.249c0.003-0.159,0.019-0.316,0.024-0.475    c0.032-0.957-0.171-1.98-0.91-2.653c-1.083-0.984-3.183-0.711-3.506,0.926c-0.144,0.732-0.142,1.696,0.084,2.55    c0.001,0.055,0.013,0.106,0.017,0.161c-0.269,0.019-0.539,0.034-0.808,0.054c-3.185,0.234-6.389,0.301-9.599,0.303    c-0.104-0.276-0.048-0.117-0.007,0h-0.005c-0.024-0.065-0.041-0.123-0.052-0.161c-0.009-0.118-0.015-0.235-0.021-0.353    c-0.025-0.569-0.004-1.138-0.031-1.707c-0.05-1.06-0.867-1.965-1.965-1.965c-0.993,0-2.054,0.901-1.965,1.965    c-0.055,0.736-0.198,1.456-0.145,2.195c-3.037-0.037-6.075-0.1-9.104-0.111c-0.001-0.012-0.002-0.025-0.003-0.035    c-0.004-0.16-0.007-0.321-0.008-0.481c-0.001-0.688,0.034-1.432-0.203-2.088c-0.451-1.253-2.197-2.031-3.218-0.85    c-0.631,0.732-0.912,1.634-0.637,2.517c-0.057,0.321-0.11,0.641-0.125,0.964c-0.246,0.004-0.492,0.003-0.737,0.009    c-2.631,0.062-5.274-0.099-7.917-0.298c-0.042-0.218-0.061-0.419-0.076-0.812c-0.029-0.678-0.028-1.344-0.144-2.016    c-0.017,0.004-0.033,0.009-0.05,0.014c-0.144-0.543-0.507-1.007-1.109-1.171c-0.82-0.225-1.86,0.277-2.04,1.158    c-0.147,0.717-0.357,1.633-0.43,2.538c-2.752-0.199-5.494-0.345-8.209-0.22c-0.204,0.009-0.521,0.022-0.922,0.034    c0.008-0.452,0.045-0.903,0.043-1.354c0.036-0.954-0.864-1.866-1.823-1.823c-1.016,0.045-1.787,0.801-1.823,1.823    c-0.015,0.455-0.068,0.919-0.094,1.38C214.472,191.055,206.949,190.346,208.714,186.948z M211.305,305.608    c0.9-6.152-0.128-12.444,0.802-18.572c0.602-3.965,0.16-8.082,0.051-12.07c-0.099-3.612,0.392-7.065,0.538-10.644    c0.335-8.238,0.154-16.445,0.843-24.678c0.731-8.732-0.105-17.546,0.609-26.279c0.509-6.217,0.543-12.426,0.9-18.675    c0.337,0.025,0.677,0.044,1.011,0.08c2.469,0.276,5.076,0.749,7.523,0.832c6.304,0.213,12.886,0.922,19.287,0.863    c9.481-0.089,19.05,0.57,28.518,0.056c8.071-0.436,16.263-0.198,24.331-0.887c4.04,0.296,8.129,0.214,12.064,0.013    c1.314-0.067,2.646-0.096,3.985-0.114c0.401,0.147,0.843,0.127,1.25-0.014c1.497-0.009,3.001-0.004,4.51-0.005    c8.453,0.824,17.055,0.549,25.526,1.007c9.468,0.514,19.037-0.145,28.518-0.056c6.401,0.06,12.983-0.65,19.287-0.863    c2.447-0.083,5.054-0.557,7.523-0.832c0.334-0.037,0.673-0.055,1.011-0.08c0.357,6.25,0.392,12.459,0.9,18.675    c0.714,8.733-0.12,17.548,0.609,26.279c0.689,8.233,0.508,16.441,0.843,24.678c0.145,3.578,0.637,7.03,0.538,10.644    c-0.109,3.988-0.551,8.104,0.051,12.07c0.93,6.127-0.098,12.42,0.802,18.572c1.151,7.858,0.462,16.794,0.028,24.724    c-0.46,8.381-0.433,16.734-0.445,25.13c-0.011,7.946-0.633,15.872-0.601,23.788c-1.259,0.078-2.552,0.386-3.838,0.299    c-3.366-0.227-6.576-0.03-9.96,0.035c-7.992,0.152-15.986,0.536-23.983,0.764c-0.018-3.413-0.037-6.829,0.011-10.239    c0.051-3.538,0.736-6.977,0.679-10.508c-0.259-15.909-0.587-31.834-0.571-47.779c0.009-9.148-0.496-18.318-0.118-27.452    c0.287-6.931,0.506-13.903,0.386-20.84c-0.11-6.418-0.722-12.827-1.024-19.202c-0.177-3.741-0.371-8.226-4.061-10.177    c-5.656-2.992-14.202-1.814-20.273-1.745c-7.632,0.088-15.073-0.788-22.703-0.469c-3.53-0.269-7.087-0.106-10.817,0.13    c-2.094,0.132-4.193,0.173-6.293,0.191c-0.197-0.15-0.432-0.266-0.744-0.283c-7.994-0.452-15.759,0.525-23.736,0.433    c-6.071-0.069-14.618-1.248-20.273,1.745c-3.689,1.952-3.884,6.436-4.06,10.177c-0.302,6.375-0.913,12.784-1.024,19.202    c-0.119,6.935,0.099,13.909,0.386,20.84c0.378,9.134-0.127,18.304-0.118,27.452c0.017,15.945-0.312,31.87-0.571,47.779    c-0.057,3.531,0.627,6.97,0.679,10.508c0.051,3.513,0.028,7.037,0.01,10.554c-2.218,0.181-5.078-0.307-7.221-0.255    c-2.865,0.071-5.744,0.336-8.595,0.374c-7.397,0.099-14.707,0.032-22.076,0.409c0.064-0.651,0.11-1.278,0.114-1.858    c0.037-7.942-0.591-15.896-0.602-23.869c-0.011-8.398,0.014-16.749-0.445-25.13C210.843,322.401,210.154,313.465,211.305,305.608z     M384.779,385.334c-6.875-0.062-13.912-1.117-20.65,0.574c0.088-1.38,0.218-2.674,0.215-3.527    c-0.001-0.301-0.002-0.603-0.004-0.904c7.059,1.594,15.194,0.449,22.242,0.274c5.046-0.125,10.58-0.482,15.693-0.142    c0.137,1.292,0.312,2.659,0.347,3.991C396.678,385.442,390.701,385.387,384.779,385.334z M402.314,388.641    c-0.137,0.485-0.318,0.946-0.573,1.367c-1.473,2.432-1.351,1.782-4.021,2.129c-1.314,0.171-2.628,0.577-3.945,0.674    c-3.074,0.225-6.2-0.241-9.288-0.007c-2.793,0.212-5.454,0.722-8.274,0.689c-2.373-0.028-9.732,0.579-11.385-1.641    c-0.667-0.896-0.805-2.574-0.768-4.33c3.223,0.666,6.524,0.388,9.853,0.447c3.777,0.067,7.518,0.418,11.274,0.525    c3.984,0.112,7.983,0.049,11.973,0.05C398.789,388.545,400.59,388.743,402.314,388.641z M355.081,282.672    c-3.409-5.822-7.351-10.439-12.118-15.152c-4.328-4.279-9.061-7.606-14.271-10.689c-0.396-0.234-0.79-0.462-1.185-0.69    c-0.018-0.018-0.026-0.037-0.046-0.054c-5.563-4.551-13.223-6.955-20.404-6.656c-4.31,0.179-10.131,1.531-14.685,4.062    c-0.015,0.005-0.035,0.01-0.051,0.015c-2.337,0.86-4.438,2.061-6.573,3.323c-5.212,3.082-9.944,6.41-14.271,10.689    c-4.769,4.715-8.711,9.33-12.119,15.152c-1.958,3.345-3.333,6.519-4.501,9.815c-0.066-3.394-0.17-6.81-0.36-10.202    c0.249-0.569,0.504-1.14,0.835-1.676c1.749-2.825,3.721-5.582,5.634-8.301c2.929-4.16,6.173-8.201,10.169-11.389    c7.723-6.158,17.859-11.287,27.417-13.763c0.374-0.097,0.617-0.307,0.755-0.565c0.922-0.289,1.829-0.547,2.708-0.717    c4.118-0.801,7.669-0.613,11.597,0.803c1.693,0.609,3.333,1.105,5.077,1.294c8.705,2.688,17.643,7.388,24.616,12.948    c3.996,3.186,7.239,7.227,10.169,11.389c1.913,2.719,3.885,5.477,5.634,8.301c0.333,0.538,0.587,1.109,0.836,1.676    c-0.191,3.392-0.294,6.807-0.36,10.202C358.414,289.191,357.04,286.016,355.081,282.672z M359.061,299.8    c-0.791-0.234-1.545-0.456-1.814-0.493c-2.14-0.294-4.361-0.365-6.518-0.548c-5.016-0.425-10.105-0.169-15.144-0.172    c-8.164-0.006-16.452,0.341-24.572,1.396c-1.171-0.051-2.343-0.093-3.511-0.128c-2.181-0.065-4.492-0.163-6.822-0.201    c-7.237-0.799-14.579-1.073-21.824-1.068c-5.041,0.003-10.128-0.252-15.144,0.172c-2.157,0.183-4.377,0.253-6.517,0.548    c-0.269,0.036-1.023,0.258-1.814,0.493c0.849-2.239,1.272-4.735,2.055-6.923c1.105-3.084,2.853-5.879,4.513-8.692    c3.404-5.768,8.655-10.696,13.617-15.127c4.327-3.864,9.181-7.418,14.111-10.465c0.671-0.414,1.419-0.774,2.21-1.106    c5.838-2.213,11.832-4.354,18.079-3.724c4.458,0.45,8.583,2.794,12.834,3.831c0.7,0.303,1.367,0.627,1.967,0.998    c4.929,3.047,9.784,6.601,14.111,10.465c4.961,4.43,10.213,9.359,13.617,15.127c1.66,2.812,3.406,5.607,4.513,8.692    C357.789,295.064,358.211,297.559,359.061,299.8z M354.525,269.326c-2.922-3.735-6.057-7.347-9.816-10.242    c-8.004-6.166-18.226-12.07-28.154-14.345c-0.284-0.065-0.538-0.039-0.755,0.047c-3.647-1.413-7.357-2.25-11.44-1.747    c-4.432,0.547-9.607,1.428-13.469,3.859c-7.602,2.903-15.031,7.463-21.159,12.184c-3.759,2.895-6.894,6.508-9.816,10.242    c-2.045,2.615-4.08,5.415-5.739,8.304c-0.136-1.591-0.294-3.173-0.488-4.738c-1.003-8.121-0.058-16.104,0.573-24.19    c0.226-2.892-0.369-6.153,0.628-8.934c1.815-5.062,9.694-4.526,14.143-4.475c6.06,0.069,12.083-0.074,18.11-0.273    c5.904,1.051,12.022,0.694,18.035,0.612c5.415-0.075,11.67,0.377,17.143-0.779c7.695,0.282,15.36,0.529,23.088,0.44    c4.45-0.051,12.327-0.586,14.143,4.475c0.997,2.782,0.402,6.043,0.628,8.934c0.631,8.086,1.576,16.069,0.573,24.19    c-0.193,1.565-0.353,3.146-0.488,4.738C358.605,274.741,356.57,271.941,354.525,269.326z M214.248,389.252    c5.142-0.433,10.15-0.941,15.355-0.662c6.609,0.355,14.183,1.184,20.779-0.144c-0.03,1.404-0.219,2.672-0.768,3.409    c-1.654,2.22-9.013,1.613-11.385,1.641c-2.82,0.033-5.482-0.477-8.274-0.689c-3.088-0.235-6.214,0.231-9.288,0.007    c-1.317-0.096-2.632-0.504-3.945-0.674c-2.669-0.347-2.548,0.303-4.021-2.129c-0.127-0.209-0.232-0.43-0.328-0.656    C213.01,389.351,213.649,389.303,214.248,389.252z M211.83,386.718c-0.064-1.27,0.067-2.621,0.209-3.929    c3.164,0.616,6.832,0.029,9.967,0.062c4.367,0.046,8.784,0.241,13.144,0.133c2.979-0.074,5.99-0.239,8.973-0.359    c1.994-0.081,4.065,0.466,5.982,0.18c0.025,0.759,0.111,1.738,0.184,2.798c-3.351-0.473-7.114,0.209-10.452,0.147    c-3.246-0.061-6.471-0.14-9.664-0.292c-4.557-0.217-9.322-0.322-13.809,0.425C214.918,386.122,213.282,386.249,211.83,386.718z     M61.043,288.48c2.077-0.094,4.283-0.248,6.479-0.506c0.311-0.002,0.634-0.015,0.941-0.014c6.365,0.018,12.6-0.406,18.943-0.64    c6.728-0.25,13.519,0.356,20.259,0.367c7.071,0.012,14.139-0.307,21.227-0.297c13.776,0.021,27.559-0.09,41.316,0.451    c6.208,0.245,12.368,0.711,18.59,0.709c5.475-0.001,12.434,1.095,17.998-0.181c-0.065,1.146-0.131,2.294-0.196,3.444    c-12.805,0.019-25.639,1.051-38.401,0.365c-13.12-0.705-26.336-0.94-39.487-0.284c-19.662,0.981-39.399,0.237-59.086,0.341    c-3.238-0.78-6.619-0.54-9.99-0.474c-3.581,0.069-7.448-0.129-11.037,0.522c-0.035-1.327-0.073-2.654-0.108-3.981    C52.443,289.276,57.51,288.64,61.043,288.48z M43.147,259.701c-4.024-1.315-9.467-0.855-13.16-0.843    c-4.064,0.013-9.74-0.542-13.886,0.993c0.187-4.28,0.344-8.561,0.389-12.825c4.296,0.525,9.068-1.221,13.424-1.147    c4.067,0.069,8.391,0.766,12.4,1.375c0.098,0.015,0.209,0.043,0.326,0.074C42.798,251.452,42.976,255.577,43.147,259.701z     M41.442,207.4c-4.111-1.145-9.004-0.758-13.055-0.761c-2.825-0.002-7.31-0.555-10.426,0.528    c-0.037-2.211-0.138-4.415-0.344-6.607c2.874,0.493,6.768-0.484,9.27-0.424c3.962,0.095,10.001,1.805,14.281,0.582    C41.033,202.929,41.34,205.157,41.442,207.4z M41.505,209.474c0.042,2.742,0.107,5.485,0.17,8.229    c-3.568-1.447-7.149-2.101-11.33-1.818c-3.841,0.26-8.746,0.412-12.632,1.753c0.154-2.858,0.262-5.711,0.265-8.552    c3.452,0.253,6.921-0.284,10.409-0.288C32.638,208.794,37.221,209.634,41.505,209.474z M21.559,219.285    c3.23-0.208,6.434-0.865,9.676-0.932c3.573-0.073,7.002,0.735,10.469,0.646c0.011,0.478,0.022,0.956,0.032,1.434    c0.037,1.824,0.105,3.647,0.158,5.469c-3.714-1.286-9.168-0.661-12.496-0.464c-4.162,0.246-8.251,0.962-12.309,1.769    c0.179-2.641,0.367-5.283,0.526-7.925C18.917,219.185,20.342,219.365,21.559,219.285z M29.398,227.66    c2.793-0.146,5.7-0.076,8.479,0.173c1.308,0.117,2.732,0.593,4.092,0.679c0.164,5.161,0.353,10.321,0.542,15.476    c0.008,0.214,0.017,0.429,0.025,0.643c-4.69-1.392-10.45-1.503-15.033-1.244c-3.743,0.212-7.604,0.467-11.007,2.059    c0.005-1.097,0.012-2.194,0.003-3.289c-0.039-4.471,0.201-8.985,0.497-13.513C21.155,228.459,25.246,227.877,29.398,227.66z     M42.466,172.872c0.053,3.789-0.424,7.444-0.222,11.113c-0.194,0.655-0.221,1.328-0.669,2.01    c-1.179,1.799-1.578,1.141-4.063,0.863c-0.409-0.046-0.812-0.071-1.219-0.108c0.659-1.602,0.746-3.097,0.723-5.012    c-0.04-3.384,0.269-7.055-0.246-10.388c-0.571-3.7-2.145-8.297-6.578-8.088c-4.297,0.203-5.418,5.806-5.877,9.243    c-0.54,4.049-1.11,9.683,0.37,13.702c-2.299,0.043-4.573,0.281-6.771,0.975c-0.198-0.032-0.403-0.055-0.612-0.074    c1.408-5.564,0.476-12.17,0.899-17.838c0.245-3.272-0.139-7.208,2.76-9.134c3.502-2.329,8.277-1.763,12.269-1.751    c4.687,0.013,9.136-0.568,9.689,5.533C43.181,166.779,42.425,169.953,42.466,172.872z M34.234,186.568    c-1.033-0.071-2.065-0.125-3.111-0.174c-1.638-0.077-3.286-0.172-4.928-0.195c0.533-2.084,0.141-4.699,0.13-6.72    c-0.02-3.768-0.516-8.982,1.737-12.316c2.591-3.835,5.522-0.199,6.293,2.918c0.618,2.503,0.19,5.273,0.102,7.812    C34.358,180.77,33.829,183.728,34.234,186.568z M27.351,131.892c1.703-1.473,4.215-1.296,5.382,0.828    c1.022,1.857-0.323,4.173-2.03,4.993c-0.474,0.227-1.129,0.424-1.507,0.824C27.09,136.656,24.359,134.48,27.351,131.892z     M17.347,148.369c2.764-5.012,8.177-7.541,13.79-6.769c5.012,0.69,9.177,2.798,11.065,7.729c1.136,2.968,0.527,4.773-0.042,7.066    c-2.151-0.926-4.954-0.821-7.061-0.835c-4.365-0.029-14.072-1.369-18.325,2.271C16.133,154.61,15.306,152.07,17.347,148.369z     M17.197,189.923c2.287,0.104,4.527-0.46,6.849-0.593c4.615-0.266,9.769,0.331,14.288,0.996c1.602,0.236,3.161,0.766,4.46,0.334    c1.104,0.806,1.029,2.142,0.069,4.041c-1.296,2.567-1.795,2.848-4.507,2.701c-4.307-0.231-8.607-0.685-12.926-0.862    c-3.1-0.127-6.887,0.57-8.942-1.743C13.924,191.912,15.298,191.027,17.197,189.923z M16.004,262.149    c4.392,0.662,9.775-0.435,13.983-0.425c3.289,0.008,6.661,0.224,9.937,0.55c1.06,0.105,2.221,0.495,3.356,0.678    c0.199,4.764,0.4,9.528,0.597,14.292c-3.83-1.082-8.172-1.029-11.983-1.025c-3.751,0.004-7.481-0.089-11.217,0.259    c-1.407,0.132-3.649,0.889-5.454,1.145C15.475,272.487,15.76,267.322,16.004,262.149z M15.141,279.277    c0-0.01,0.001-0.021,0.001-0.03c4.057,0.813,10.041-0.366,13.426-0.363c5.32,0.005,10.28,0.393,15.425,1.218    c0.205,4.969,0.407,9.938,0.595,14.908c0.294,7.732,0.736,15.484,1.117,23.239c-4.84-1.094-10.143-0.705-14.994-0.912    c-5.853-0.25-11.441,0.571-17.154,1.469C14.292,305.634,14.524,292.455,15.141,279.277z M13.458,320.83    c0.017-0.277,0.025-0.553,0.042-0.83c5.406,0.66,11.04-0.235,16.458,0.096c2.973,0.182,5.941,0.172,8.911,0.352    c2.324,0.14,4.668,0.66,6.982,0.756c0.137,2.937,0.251,5.873,0.35,8.81c-4.47-0.759-9.386-0.186-13.772-0.324    c-6.533-0.205-13.096,0.627-19.597,0.809C13.052,327.276,13.266,324.054,13.458,320.83z M8.883,382.277    c0.009-0.127,0.019-0.252,0.028-0.379c0.172-2.297,0.4-4.589,0.64-6.879c0.509-4.842,1.082-9.683,1.329-14.547    c0.478-9.425,1.181-18.842,1.833-28.261c1.094,0.137,2.251,0.089,3.272,0.126c4.776,0.174,9.558,0.119,14.334,0.272    c4.944,0.159,10.87,1.066,15.972,0.209c0.127,4.524,0.192,9.046,0.139,13.562c-0.168,14.504-0.441,28.737,1.893,43.109    c-0.901,0.014-1.785,0.034-2.59-0.03c-3.284-0.26-6.577-0.377-9.861-0.631c-7.488-0.581-15.363-0.661-22.858-0.053    c-1.508,0.122-3.05,0.233-4.518,0.455C9.042,386.929,8.717,384.6,8.883,382.277z M47.765,402.625    c-4.096,0.573-8.168-0.389-12.261-0.339c-9.558,0.114-19.836,0.879-29.308-0.873c-0.966-0.179-1.534,0.213-2.198-0.636    c-0.471-0.602-0.609-1.475-0.618-2.215c-0.019-1.535,0.616-3.293,1.838-4.275c1.882-1.512,4.706-1.52,6.991-1.713    c4.992-0.422,9.983-0.356,14.967-0.089c4.366,0.234,8.772,0.094,13.147,0.249c2.298,0.082,4.628,0.41,6.924,0.393    c2.399-0.017,5.011-0.195,6.52,2.16C56.477,399.519,51.192,402.147,47.765,402.625z M121.749,350.971    c-0.003,9.142-0.018,18.324-0.356,27.459c-0.28,7.558,0.213,15.094,0.061,22.622c-13.341,0.317-26.692,0.781-40.027,1.16    c-7.55,0.214-15.068,0.413-22.625,0.281c-0.723-0.013-1.589-0.062-2.53-0.112c0.923-1.783,1.489-4.013,1.633-6.038    c0.031-0.094,0.071-0.181,0.082-0.291c1.795-17.41-2.524-36.599,3.799-53.368c3.424-9.083,8.867-16.087,17.01-21.378    c3.212-2.087,6.46-3.815,9.965-5.355c4.119-1.81,6.391-1.776,10.365,0.299c6.289,3.284,12.078,8.238,16.634,13.648    c2.112,2.507,4.468,5.32,5.352,8.554C122.179,342.37,121.75,346.947,121.749,350.971z M122.843,325.12    c-0.075,2.409-0.249,4.889-0.374,7.382c-2.461-4.054-6.126-7.774-9.485-10.728c-4.18-3.676-8.557-7.153-13.647-9.514    c-1.87-0.867-3.923-2.041-6.055-1.783c-2.464,0.299-5.25,2.115-7.461,3.161c-12.535,5.927-22.247,15.112-27.011,28.173    c0.495-6.346,0.3-12.631,0.503-18.998c0.093-2.905,0.197-5.855,0.42-8.754c0.12-1.569,0.382-3.129,0.523-4.696    c0.238-2.637,0.507-2.847,3.227-3.335c6.201-1.115,13.298-0.487,19.572-0.276c7.264,0.245,14.566-0.079,21.826,0.26    c3.299,0.154,6.597,0.198,9.899,0.344c1.173,0.052,6.225-0.349,7.123,0.73c1.322,1.591,0.676,7.575,0.76,9.59    C122.78,319.503,122.93,322.279,122.843,325.12z M198.054,378.979c-0.421,7.767-1.507,16.139-0.966,23.942    c-2.299-0.152-4.612-0.271-6.97-0.316c-6.315-0.122-12.647,0.003-18.965-0.22c-7.043-0.25-14.026-0.747-21.051-1.283    c-4.821-0.368-9.578-0.41-14.349-0.35c0.646-7.599,0.188-15.475,0.366-23.1c0.193-8.247,0.561-16.49,0.733-24.733    c0.066-3.175,0.138-6.359,0.199-9.545c0.065-0.064,0.122-0.144,0.165-0.247c2.693-6.34,6.134-12.102,11.527-16.516    c5.278-4.32,16.113-12.905,23.461-10.119c6.11,2.315,11.384,7.811,15.851,12.334c2.412,2.443,4.763,5.132,6.602,8.031    c1.227,1.931,2.009,4.212,3.643,5.853c-0.043,1.853-0.074,3.704-0.075,5.558C198.222,358.486,198.607,368.767,198.054,378.979z     M198.909,324.229c-0.1,4.076-0.273,8.151-0.421,12.226c-2.46-4.634-7.039-8.806-10.315-11.986    c-4.569-4.43-11.833-12.131-18.7-12.239c-3.319-0.052-7.264,2.754-10.121,4.159c-4.23,2.078-8.025,4.64-11.71,7.574    c-3.64,2.898-8.188,7.423-10.506,12.343c0.022-3.761,0.004-7.52-0.137-11.27c-0.133-3.567-0.224-7.158-0.141-10.726    c0.033-1.427-0.17-3.39,0.248-4.724c0.849-2.712,2.753-2.409,5.24-2.475c16.47-0.438,33.154,0.575,49.614,1.076    c1.263,0.039,2.83-0.042,4.062,0.262c0.45,0.111,1.816-0.095,2.124,0.177c0.626,0.554,0.532,2.913,0.583,3.793    C198.956,316.269,199.004,320.368,198.909,324.229z M201.535,400.793c0.002,0.809,0.015,1.677,0.138,2.505    c-0.406-0.037-0.811-0.089-1.218-0.123c-0.176-3.769,0.441-7.605,0.446-11.362c0.007-4.064,0.1-8.018,0.4-12.073    c0.77-10.434,0.219-21.022,0.215-31.478c-0.004-9.311,0.872-18.621,0.571-27.928c-0.149-4.61,1.933-13.982-4.254-15.012    c-7.549-1.257-15.696-0.347-23.333-0.626c-9.635-0.352-19.22-0.452-28.855-0.325c-5.108,0.067-11.048-1.27-11.969,5.215    c-1.331,9.366-0.123,19.54-0.105,28.973c0.04,20.682-2.301,41.603-0.703,62.236c-2.151,0.041-4.309,0.093-6.48,0.137    c-0.216,0.004-0.432,0.011-0.648,0.015c-0.079-6.557-0.479-13.142-0.573-19.701c-0.119-8.37,0.202-16.774,0.304-25.141    c0.051-4.11,0.498-9.013,0.122-13.587c1.379-6.148,0.695-13.967,0.77-19.94c0.057-4.54,1.173-13.995-1.674-17.978    c-1.175-1.643-1.89-1.353-3.57-1.513c-3.92-0.372-8.002-0.197-11.94-0.196c-8.473,0.001-16.98,0.013-25.454-0.16    c-7.224-0.149-14.851-0.553-22.043,0.399c-5.559,0.737-4.651,6.401-5.032,10.927c-0.662,7.864-0.201,15.736-0.407,23.609    c-0.085,3.257-0.385,6.511-0.53,9.761c-0.089,1.983,0.304,4.416,0.396,6.682c-0.525,4.935-0.608,9.961-0.748,14.759    c-0.204,6.979-0.385,14.327-0.035,21.427c-0.862-0.408-1.87-0.629-2.916-0.689c0.284-7.296-1.677-14.51-1.795-21.78    c-0.126-7.688,0.136-15.376,0.062-23.064c-0.078-8.101-0.38-16.203-0.744-24.306c0.088-0.214,0.084-0.46-0.029-0.653    c-0.371-8.189-0.965-16.391-1.214-24.568c1.909,0.446,4.195,0.291,6.281,0.143c-0.27,1.016-0.41,2.026-0.173,3.18    c0.397,1.929,3.717,1.532,3.488-0.472c-0.114-0.992-0.334-1.918-0.595-2.84c0.118,0,0.246-0.007,0.359-0.003    c1.508,0.033,3.156,0.179,4.835,0.273c-0.379,1.31-0.442,2.819,0.223,3.777c1.197,1.725,3.578,0.994,3.791-1.027    c0.034-0.326-0.083-0.836-0.104-0.985c-0.058-0.427-0.096-0.851-0.18-1.275c-0.03-0.149-0.063-0.29-0.096-0.432    c0.266-0.011,0.532-0.02,0.796-0.04c1.388,0.043,2.777,0.072,4.165,0.108c-0.073,0.346-0.125,0.698-0.134,1.056    c-0.04,1.359,0.907,2.983,2.396,2.983c1.721,0,2.271-1.861,1.838-3.234c-0.076-0.241-0.14-0.476-0.204-0.706    c2.177,0.044,4.355,0.053,6.533,0.08c-0.032,0.333-0.044,0.688-0.063,0.84c-0.18,1.467-0.354,2.67,1.061,3.602    c0.673,0.444,1.662,0.322,2.266-0.16c0.687-0.548,0.872-1.299,0.732-2.145c-0.007-0.039-0.01-0.066-0.013-0.087    c-0.003-0.139-0.003-0.276-0.016-0.417c-0.042-0.464-0.093-0.949-0.239-1.393c-0.022-0.067-0.054-0.13-0.078-0.196    c1.681,0.013,3.36,0.003,5.041,0.007c-0.054,0.134-0.109,0.269-0.153,0.414c-0.238,0.781-0.357,1.673-0.055,2.448    c0.412,1.06,1.415,1.795,2.592,1.471c1.116-0.306,1.757-1.487,1.472-2.592c-0.132-0.514-0.169-1.054-0.344-1.555    c-0.023-0.067-0.058-0.119-0.084-0.183c1.689-0.004,3.379-0.024,5.068-0.039c-0.044,0.11-0.089,0.219-0.129,0.341    c-0.272,0.827-0.397,1.955-0.061,2.775c0.757,1.85,3.16,1.956,3.885,0c0.326-0.879,0.042-1.776-0.026-2.603    c-0.015-0.18-0.023-0.36-0.039-0.54c1.866-0.024,3.728-0.082,5.593-0.119c-0.076,0.245-0.15,0.494-0.202,0.741    c-0.196,0.943-0.201,1.802,0.281,2.664c0.462,0.827,1.598,1.321,2.516,1.024c0.859-0.278,1.752-1.161,1.635-2.149    c-0.029-0.252-0.062-0.505-0.099-0.756c0.035,0.39,0.035,0.426,0,0.11c-0.066-0.367-0.09-0.73-0.177-1.091    c-0.051-0.208-0.111-0.418-0.177-0.624c1.548-0.039,3.096-0.09,4.643-0.137c-0.104,0.25-0.199,0.503-0.248,0.773    c-0.176,0.969,0.039,1.815,0.438,2.7c0.889,1.975,4.2,0.987,4.065-1.101c-0.045-0.708-0.208-1.34-0.407-2.013    c-0.046-0.158-0.109-0.313-0.177-0.467c2-0.069,3.996-0.159,5.992-0.247c-0.174,0.39-0.369,0.771-0.499,1.19    c-0.315,1.008-0.112,1.795,0.299,2.721c0.86,1.931,4.283,1.006,4.052-1.098c-0.08-0.737-0.091-1.026-0.356-1.885    c-0.116-0.376-0.293-0.711-0.451-1.055c2.482-0.115,4.968-0.191,7.455-0.248c-0.024,0.072-0.048,0.144-0.066,0.218    c-0.064,0.267-0.089,0.557-0.111,0.83c-0.002,0.034-0.02,0.116-0.034,0.188c-0.003,0.011-0.003,0.007-0.007,0.021    c-0.07,0.218-0.106,0.444-0.106,0.678c-0.013,0.294,0.017,0.574,0.082,0.867c0.131,0.593,0.428,1.008,0.818,1.466    c1.103,1.292,3.07,0.456,3.542-0.936c0.292-0.861,0.022-2.282-0.452-3.079c-0.072-0.119-0.172-0.212-0.26-0.315    c1.786-0.022,3.574-0.021,5.36-0.018c-0.023,0.09-0.048,0.18-0.073,0.268c-0.018,0.063-0.184,0.565-0.061,0.241    c-0.206,0.541-0.399,0.94-0.436,1.534c-0.043,0.684,0.068,1.342,0.45,1.919c0.85,1.286,2.768,1.401,3.593,0    c0.29-0.492,0.411-1.214,0.414-1.587c0.002-0.216,0.091-0.805,0.063-1.181c-0.031-0.42-0.143-0.792-0.298-1.164    c1.918,0.023,3.833,0.083,5.748,0.133c-0.121,0.583-0.251,1.16-0.404,1.749c-0.368,1.423,0.402,3.276,2.08,3.276    c1.52,0,1.972-1.639,2.122-2.825c-0.033,0.26,0.078-0.545,0.086-0.66c0.022-0.345-0.001-0.678-0.069-1.021    c-0.029-0.143-0.069-0.284-0.107-0.426c1.558,0.055,3.112,0.14,4.668,0.212c-0.155,0.256-0.296,0.526-0.384,0.846    c-0.073,0.268-0.105,0.542-0.138,0.818c0.029-0.238-0.067,0.516-0.072,0.609c-0.032,0.7,0.228,1.407,0.741,1.89    c0.666,0.626,1.473,0.64,2.265,0.292c1.306-0.574,1.575-2.248,1.274-3.488c-0.066-0.272-0.219-0.572-0.344-0.816    c0.223,0.012,0.446,0.018,0.669,0.03c1.12,0.064,2.24,0.098,3.36,0.138c-0.185,0.489-0.425,0.943-0.575,1.491    c-0.318,1.16-0.292,2.361,0.59,3.269c0.777,0.8,2.094,0.754,2.88,0c1.196-1.148,0.903-3.09,0.616-4.668    c1.395,0.022,2.792,0.03,4.188,0.028c-0.244,0.617-0.335,1.305-0.262,1.967c0.125,1.147,0.928,2.27,2.213,2.213    c1.264-0.056,2.131-0.973,2.213-2.213c0.046-0.7-0.156-1.385-0.498-1.992c-0.001-0.001-0.002-0.002-0.003-0.003    c1.529-0.02,3.057-0.056,4.586-0.091c-0.141,0.211-0.287,0.419-0.406,0.645c-0.612,1.157-0.795,2.661,0.296,3.611    c0.914,0.795,2.514,0.812,3.138-0.404c0.428-0.833,0.461-1.827,0.452-2.755c-0.003-0.385-0.044-0.799-0.149-1.174    c1.038-0.028,2.076-0.055,3.114-0.084c-0.012,0.111-0.023,0.224-0.039,0.334c-0.002,0.014-0.007,0.052-0.012,0.091    c0.032-0.096,0.115-0.179,0.003-0.004c-0.001,0.002-0.002,0.004-0.003,0.008c-0.011,0.086-0.023,0.179-0.013,0.043    c0.001-0.013,0.008-0.028,0.012-0.042c-0.118,0.186-0.209,0.378-0.295,0.581c-0.439,1.04-0.424,1.998,0.037,3.035    c0.641,1.44,2.879,1.258,3.574,0c0.436-0.789,0.475-1.633,0.509-2.513c0.028-0.7-0.1-1.019-0.169-1.623    c0.973-0.023,1.946-0.04,2.919-0.058c-0.079,0.109-0.16,0.217-0.226,0.336c-0.466,0.849-0.622,1.822-0.552,2.777    c0.149,2.027,2.54,2.618,3.698,1.002c0.546-0.76,0.404-1.616,0.452-2.484c0.015-0.279-0.01-0.554-0.012-0.833    c-0.002-0.215-0.006-0.419-0.031-0.633c-0.001-0.012-0.003-0.025-0.005-0.037c0.028-0.06,0.053-0.119,0.072-0.179    c1.103-0.012,2.205-0.024,3.308-0.025c-0.057,1.426-0.099,2.855-0.097,4.29c0.013,7.249-0.572,14.524-0.583,21.834    c-0.013,8.884,0.527,17.734,0.514,26.624c-0.012,8.361-0.557,16.936,0.195,25.261c0.599,6.646-1.136,13.294,1.07,19.646    c-1.302,0.185-2.53,0.495-3.572,1.016C201.366,395.033,201.528,398.152,201.535,400.793z M253.834,402.285    c-0.636,0.403-3.803,0.31-3.917,0.312c-3.038,0.035-6.054,0.078-9.084,0.162c-6.092,0.168-12.153,0.626-18.262,0.609    c-3.006-0.008-17.002,1.489-16.899-3.308c0.075-3.451,2.919-2.789,5.874-3.265c2.239,0.762,4.97,0.714,7.301,0.96    c3.122,0.33,6.266-0.017,9.402,0.086c3.654,0.12,7.161,0.822,10.84,0.709c3.149-0.097,6.381,0.107,9.464-0.663    c1.674-0.418,3.713-2.044,5.512-1.515C256.816,397.18,255.727,401.087,253.834,402.285z M333.362,401.395    c-1.689,0.009-3.367,0.028-5.001-0.017c-7.374-0.198-14.719-0.6-22.095-0.72c-6.349-0.104-12.715-0.245-19.066-0.378    c-4.239-0.088-8.689-0.264-12.934,0.463c1.168-8.359,0.469-16.803,0.778-25.23c0.399-10.908-0.088-21.861,0.626-32.748    c0.344-5.237,0.207-10.597,0.185-15.847c-0.01-2.242-1.048-7.976,0.839-9.528c1.255-1.034,6.138-0.667,7.807-0.678    c2.426-0.015,4.852,0.231,7.293,0.228c1.999-0.003,3.87-0.054,5.716-0.196c4.345,0.453,8.691,0.575,13.09,0.515    c1.903-0.025,4.828,0.057,7.264-0.445c1.544,0.091,3.117,0.125,4.779,0.127c2.441,0.003,4.868-0.244,7.293-0.228    c1.667,0.011,6.552-0.355,7.807,0.678c1.887,1.553,0.847,7.288,0.839,9.528c-0.022,5.25-0.159,10.611,0.185,15.847    c0.714,10.887,0.227,21.841,0.626,32.748c0.311,8.485-0.403,16.986,0.798,25.4C337.913,401.042,335.638,401.22,333.362,401.395z     M355.415,393.239c-0.944,2.097-1.451,5.253-0.957,7.927c-2.604-0.372-5.37-0.344-7.632-0.395c-1.3-0.03-2.595-0.012-3.889,0.026    c1.456-9.942,0.185-20.818,0.252-30.79c0.083-12.193-0.472-24.345-0.42-36.541c0.019-4.526,2.229-16.943-3.625-19.209    c-4.017-1.555-8.093-0.369-12.212-0.478c-3.737-0.099-7.649,0.05-11.407-0.301c-2.243-0.209-4.491,0.091-6.746,0.122    c-2.818,0.039-5.591,0.115-8.36,0.293c-3.444-0.291-7.009,0.088-10.457,0.015c-4.424-0.094-10.438-1.289-14.669,0.348    c-5.854,2.266-3.644,14.683-3.626,19.209c0.052,12.195-0.503,24.347-0.42,36.541c0.067,9.971-1.203,20.847,0.252,30.79    c-1.294-0.039-2.589-0.056-3.889-0.026c-2.262,0.052-5.029,0.023-7.632,0.395c0.495-2.674-0.012-5.831-0.957-7.927    c-0.28-0.623-1.066-0.969-1.707-0.979c-0.797-0.013-1.604,0.066-2.412,0.182c0.272-1.25,0.141-2.535,0.107-4.034    c-0.091-4.076-0.055-8.155-0.046-12.232c0.017-7.762-0.602-15.32-0.03-23.041c0.62-8.373,0.102-16.961,0.111-25.355    c0.008-8.417,0.029-16.835-0.06-25.252c2.061,0.235,4.313-0.242,6.31-0.328c5.303-0.228,10.598-0.291,15.915-0.306    c4.852-0.014,9.666,0.119,14.514,0.338c0.367,0.017,0.738,0.033,1.108,0.05c10.212,1.546,20.601,2.175,30.89,0.328    c0.245-0.044,0.397-0.219,0.465-0.431c4.349-0.18,8.679-0.299,13.037-0.285c5.316,0.015,10.612,0.079,15.915,0.306    c1.996,0.086,4.25,0.563,6.31,0.328c-0.089,8.417-0.068,16.834-0.061,25.252c0.008,8.395-0.509,16.983,0.111,25.355    c0.572,7.72-0.046,15.279-0.03,23.041c0.009,4.076,0.045,8.155-0.046,12.232c-0.033,1.499-0.165,2.784,0.107,4.034    c-0.808-0.116-1.615-0.195-2.412-0.182C356.481,392.27,355.695,392.616,355.415,393.239z M408.391,402.57    c-0.107,0.159-0.228,0.288-0.363,0.391c-1.19,0.928-3.354-0.086-4.76,0.041c-3.831,0.346-7.552,0.354-11.401,0.365    c-6.109,0.017-12.17-0.442-18.262-0.609c-3.031-0.084-6.047-0.127-9.084-0.162c-0.114-0.001-3.281,0.091-3.917-0.312    c-1.646-1.041-2.244-3.916-1.937-6.12c1.21,0.001,2.418,0.087,3.625,0.182c3.53,2.474,9.032,2.076,13.059,2.201    c3.679,0.113,7.185-0.589,10.84-0.709c3.135-0.102,6.278,0.244,9.4-0.086c2.624-0.277,5.461-0.864,8.038-0.938    c1.468-0.042,3.527-0.426,4.427,0.938C408.654,398.656,409.073,401.562,408.391,402.57z M454.611,395.992    c-0.192,1.493-0.722,3.598-0.519,5.389c-5.528-0.039-11.069,0.154-16.551,0.159c-5.368,0.004-10.738,0.277-16.079,0.531    c-2.643,0.126-5.679-0.08-8.6,0.139c0.025-0.478,0.033-0.955,0.034-1.414c0.008-2.642,0.171-5.762-2.426-7.059    c-1.041-0.521-2.27-0.831-3.572-1.016c0.291-0.836,0.51-1.68,0.678-2.526c1.718,0.754,4.146,0.534,6.265,0.301    c6.486,0.396,13.172-0.368,19.522-0.301c4.892,0.051,9.776,0.267,14.65,0.348c3.1,0.052,6.438,0.478,9.622,0.323    C456.065,391.884,454.937,393.455,454.611,395.992z M507.72,397.818c-0.177,0.575,0.003,1.468-0.323,1.963    c-3.143,4.763-13.188,2.449-17.851,2.505c-6.659,0.079-13.663,0.457-20.506,0.097c-2.474-0.368-4.964-0.614-7.463-0.767    c-0.445-0.07-0.897-0.121-1.339-0.204c-0.966-0.179-1.535,0.213-2.199-0.636c-0.471-0.602-0.609-1.475-0.618-2.215    c-0.019-1.535,0.616-3.293,1.838-4.275c1.882-1.512,4.706-1.52,6.991-1.713c4.992-0.422,9.983-0.356,14.967-0.089    c4.366,0.234,8.773,0.094,13.147,0.249c2.298,0.082,4.628,0.41,6.924,0.393c0.863-0.005,1.72-0.13,2.577-0.264    c1.156,0.07,2.504,0.328,3.099,0.661C508.685,394.489,508.491,395.313,507.72,397.818z"/>
	</g>
</g>
<g>
	<g>
		<polygon points="193.163,295.72 193.164,295.72 193.164,295.718   "/>
	</g>
</g>
<g>
</g>
<g>
</g>
<g>
</g>
<g>
</g>
<g>
</g>
<g>
</g>
<g>
</g>
<g>
</g>
<g>
</g>
<g>
</g>
<g>
</g>
<g>
</g>
<g>
</g>
<g>
</g>
<g>
</g>
</svg>
