<?xml version="1.0" encoding="iso-8859-1"?>
<!-- Generator: Adobe Illustrator 19.0.0, SVG Export Plug-In . SVG Version: 6.00 Build 0)  -->
<svg xmlns="http://www.w3.org/2000/svg" xmlns:xlink="http://www.w3.org/1999/xlink" version="1.1" id="Layer_1" x="0px" y="0px" viewBox="0 0 512.006 512.006" style="enable-background:new 0 0 512.006 512.006;" xml:space="preserve">
<g>
	<g>
		<path d="M486.027,494.789c-3.17-8.718-5.398-17.937-8.742-26.625c-2.675-6.947-5.048-13.837-7.357-20.923    c-2.556-7.844-5.555-15.553-8.149-23.267c-1.107-3.29-2.715-6.345-3.665-9.647c-0.887-3.078-1.671-6.153-2.781-9.195    c-5.259-14.422-11.497-28.885-15.781-43.506c-1.187-4.051-3.138-7.795-4.284-11.909c-1.162-4.177-2.792-8.191-3.985-12.371    c-1.221-4.276-2.758-8.374-4.121-12.589c-1.106-3.421-3.038-8.049-1.815-11.641c2.459-7.218,7.629-14.04,9.522-21.508    c1.291-5.094-3.115-7.257-7.535-7.741c-3.611-0.396-7.324,0.511-11.018,0.358c-3.813-0.157-7.546-0.655-11.369-0.669    c-7.936-0.031-15.73-0.591-23.683-0.455c0.333-2.516-0.012-5.129,0.349-7.666c0.22-1.545,0.203-3.46-0.14-5.227    c3.359-1.118,6.768-3.16,9.507-4.445c5.682-2.665,11.416-5.253,17.061-7.995c5.313-2.582,10.731-4.466,16.159-6.742    c4.339-1.818,8.134-3.378,10.989-7.218c0.595-0.8-0.082-1.977-0.965-2.204c-0.314-1.687-1.605-3.202-3.864-3.342    c-8.007-0.494-17.521-3.679-24.764-6.884c-7.674-3.394-15.465-7.084-22.501-11.68c-6.271-4.095-12.269-8.279-18.282-12.749    c-3.705-2.754-6.988-5.816-10.39-8.917c-0.838-0.764-1.934-1.528-3.027-2.314c5.058-2.864,9.605-6.781,15.199-8.87    c6.307-2.357,12.738-3.98,18.829-6.891c6.421-3.069,13.227-5.144,19.798-7.81c1.684-0.683,3.514-1.354,4.642-2.872    c0.163-0.218,0.403-0.886,0.592-1.494c1.423-1.068,2-3.137,1.036-4.856c-2.572-4.586-9.218-6.234-13.563-8.375    c-6.608-3.258-13.009-7.804-19.072-11.977c-13.184-9.079-27.362-17.456-39.249-28.219c-5.491-4.973-11.717-8.922-17.212-13.873    c-6.015-5.419-12.505-10.142-18.474-15.576c-5.127-4.667-10.748-8.966-15.551-13.969c-4.324-4.504-7.75-9.817-12.062-14.35    c-3.847-4.044-6.771-7.146-5.357-12.921c0.653-2.67,1.456-4.493,0.24-7.23c-1.766-3.97-5.013-4.143-2.627-9.813    c2.456-5.835,5.698-12.144,2.633-18.576c-1.435-3.011-4.572-5.579-7.931-6.147c-3.285-2.861-10.022-1.952-13.59-0.764    c-2.199,0.732-7.97,2.812-8.296,5.889c-0.209,0.334-0.406,0.674-0.573,1.024c-3.065,6.432,0.177,12.741,2.633,18.576    c2.386,5.67-0.861,5.841-2.627,9.813c-1.217,2.736-0.414,4.56,0.24,7.23c1.413,5.775-1.511,8.877-5.358,12.922    c-9.21,9.682-17.743,19.336-27.613,28.319c-5.97,5.434-12.459,10.157-18.474,15.576c-5.495,4.952-11.72,8.9-17.212,13.873    c-11.887,10.764-26.065,19.141-39.249,28.219c-6.061,4.174-12.463,8.719-19.072,11.977c-4.344,2.141-10.991,3.789-13.563,8.375    c-0.964,1.719-0.387,3.788,1.036,4.856c0.19,0.608,0.431,1.276,0.592,1.494c1.128,1.516,2.959,2.189,4.642,2.872    c6.572,2.666,13.378,4.741,19.798,7.81c6.091,2.911,12.523,4.534,18.829,6.891c5.593,2.09,10.14,6.005,15.199,8.87    c-1.091,0.786-2.188,1.549-3.027,2.314c-3.403,3.1-6.685,6.162-10.39,8.917c-6.014,4.471-12.012,8.654-18.282,12.75    c-7.037,4.594-14.827,8.286-22.501,11.68c-7.242,3.203-16.757,6.389-24.764,6.884c-2.26,0.14-3.551,1.654-3.864,3.342    c-0.882,0.226-1.559,1.403-0.965,2.204c2.855,3.841,6.65,5.401,10.989,7.218c5.43,2.275,10.848,4.16,16.16,6.742    c5.644,2.743,11.378,5.33,17.061,7.995c2.738,1.285,6.148,3.327,9.507,4.445c-0.344,1.767-0.36,3.682-0.139,5.227    c0.361,2.536,0.016,5.15,0.349,7.666c-7.953-0.136-15.747,0.423-23.683,0.455c-3.824,0.016-7.557,0.513-11.369,0.669    c-3.694,0.153-7.407-0.755-11.018-0.359c-4.419,0.484-8.827,2.649-7.535,7.741c1.894,7.467,7.064,14.289,9.522,21.508    c1.224,3.592-0.708,8.22-1.815,11.641c-1.363,4.214-2.9,8.313-4.121,12.589c-1.194,4.181-2.824,8.194-3.985,12.371    c-1.144,4.115-3.097,7.858-4.284,11.909c-4.285,14.623-10.523,29.085-15.781,43.506c-1.11,3.042-1.894,6.118-2.781,9.195    c-0.951,3.3-2.558,6.355-3.665,9.647c-2.594,7.715-5.594,15.423-8.149,23.267c-2.309,7.086-4.683,13.975-7.357,20.923    c-3.345,8.688-5.572,17.907-8.742,26.625c-1.635,4.494-2.314,9.283,3.647,10.995c2.814,0.809,6.443,1.197,9.35,0.964    c4.431-0.355,8.43-0.092,12.868-0.034c9.286,0.119,18.582,1.011,27.814,1.938c9.983,1.002,20.181-0.158,30.227,0.789    c8.271,0.781,16.857-0.049,25.068-0.773c4.361-0.385,8.392,0.481,12.694,0.666c3.628,0.157,7.158-0.817,10.728-1.246    c0.841,0.144,1.715,0.192,2.638,0.103c0.202-0.02,0.748-0.082,1.232-0.163c0.58,0.219,1.312,0.44,1.472,0.481    c3.504,0.874,7.738,0.275,11.257-0.029c4.182-0.361,8.37,1.058,12.551,1.401c8.272,0.677,16.539,1.943,24.804,2.104    c2.695,0.053,6.745,0.029,9.327-0.612c1.279-0.317,2.267-0.834,3.049-1.577c3.088,0.825,6.66,0.821,9.549,1.22    c6.5,0.898,12.507,0.767,19.067,0.416c6.256-0.334,12.457-0.428,18.684-1.051c4.791-0.48,10.718,1.331,14.716-1.216    c0.857,1.09,2.01,1.808,3.625,2.208c2.582,0.64,6.632,0.664,9.327,0.612c8.265-0.161,16.531-1.428,24.804-2.104    c4.181-0.343,8.369-1.762,12.551-1.401c3.52,0.303,7.752,0.903,11.257,0.029c0.16-0.04,0.892-0.262,1.472-0.481    c0.484,0.081,1.03,0.143,1.232,0.163c0.923,0.089,1.797,0.042,2.638-0.103c3.57,0.428,7.1,1.402,10.728,1.246    c4.301-0.185,8.334-1.051,12.694-0.666c8.211,0.724,16.797,1.554,25.068,0.773c10.045-0.947,20.244,0.214,30.227-0.789    c9.233-0.927,18.528-1.819,27.814-1.938c4.438-0.056,8.439-0.319,12.868,0.034c2.907,0.232,6.536-0.155,9.35-0.964    C488.341,504.072,487.662,499.284,486.027,494.789z M357.752,209.18c6.857,6.121,14.229,11.487,21.532,17.02    c7.763,5.882,17.202,10.547,26.169,14.294c3.157,1.319,6.433,2.168,9.727,3.001c-1.423,0.023-2.875-0.038-4.388-0.228    c-6.889-0.863-13.973-0.53-20.901-1.203c-16.972-1.649-32.796-5.34-48.087-13.086c-5.889-2.983-11.685-6.082-17.355-9.327    c-1.11-0.636-2.109-1.562-3.147-2.432c-0.071-0.257-0.213-0.499-0.445-0.67c-5.866-4.345-11.992-8.998-17.355-13.93    c-3.906-3.592-6.891-7.975-10.173-12.028c0.065,0.009,0.13,0.013,0.195,0.022c6.35,0.793,12.765,1.523,19.157,2.123    c6.782,0.636,13.102,1.903,19.729,3.4c4.286,0.969,9.719,2.901,14.208,1.755C349.293,202.295,354.87,206.608,357.752,209.18z     M313.181,215.557c-0.329,0.11-0.668,0.224-1.03,0.334c-7.188,2.201-14.85,4.427-22.277,5.564    c-1.505,0.231-3.012,0.51-4.521,0.789c-2.596-0.22-5.396,0.251-7.771,0.701c-6.941,1.318-14.232,1.828-21.278,1.116    c-2.825-0.285-5.494-0.4-8.339-0.261c-2.453,0.12-4.843-0.536-7.267-0.403c-0.207,0.011-1.296,0.086-2.711,0.201    c-1.378-0.104-2.791-0.126-4.301-0.272c-3.862-0.371-7.716-1.284-11.554-1.872c-7.427-1.137-15.088-3.361-22.277-5.564    c-0.362-0.111-0.7-0.224-1.03-0.334c0.057-0.039,0.114-0.078,0.171-0.116c3.617-2.464,7.251-4.86,10.631-7.655    c5.961-4.927,12.124-11.04,16.261-17.732c2.536-0.164,5.004-0.421,7.5-1.132c0.903,0.015,1.806,0.028,2.708,0.045    c7.538,0.148,15.532-0.745,22.971,0.036c6.009,0.631,12.02,0.33,18.065,0.373c2.535,0.018,5.631,0.569,8.611,0.651    c0.124,0.009,0.246,0.02,0.368,0.027c4.138,6.692,10.301,12.805,16.261,17.732c3.381,2.795,7.015,5.19,10.631,7.655    C313.067,215.479,313.124,215.518,313.181,215.557z M383.701,173.227c-6.582,2.869-13.416,4.41-20.185,6.742    c-0.02,0.006-0.037,0.015-0.056,0.022c-1.276-0.355-2.593-0.581-3.888-0.845c-4.218-0.865-8.347-1.861-12.486-3.052    c-9.027-2.596-18.126-4.823-27.486-5.77c-2.639-0.267-5.289-0.531-7.946-0.772c2.711-3.868,5.598-7.646,8.657-11.258    c1.696-2.003,3.786-4.125,5.149-6.519c0.502,0.385,1.042,0.79,1.662,1.186c3.424,2.185,6.916,4.036,10.617,5.707    c0.054,0.024,0.108,0.047,0.161,0.07c3.289,2.056,6.53,4.281,9.974,5.975c6.087,2.993,12.205,4.164,18.876,4.675    c7.284,0.559,14.226,0.662,21.544,0.51c1.533-0.032,3.066-0.127,4.596-0.248C389.764,170.728,386.677,171.93,383.701,173.227z     M192.723,150.114c6.913,2.563,14.077,4.238,21.21,6.091c3.516,0.913,6.763,1.876,9.996,2.388    c3.156,1.113,6.399,1.981,9.826,2.604c8.213,1.493,16.436,1.067,24.76,1.25c6.737,0.148,13.217-0.77,19.707-2.643    c1.138-0.328,2.322-0.62,3.504-0.931c5.484,0.483,10.548-1.164,16.347-2.669c7.135-1.852,14.299-3.528,21.21-6.091    c0.484-0.18,0.921-0.289,1.329-0.349c-2.857,3.339-5.928,6.523-8.717,9.897c-2.06,2.495-6.2,5.845-7.202,9.32    c-8.91-0.614-17.85-0.724-26.675,0.464c-0.378-0.081-0.755-0.157-1.132-0.219c-3.368-0.555-6.865-0.328-10.269-0.326    c-7.462,0.005-14.847-0.618-22.353-0.535c-3.258,0.037-6.498,0.317-9.748,0.382c-3.042,0.061-5.713-0.79-8.73-0.767    c-5.774,0.045-12.601-0.403-18.553,0.778c-1.11-3.394-5.108-6.655-7.126-9.097c-2.787-3.375-5.86-6.558-8.717-9.897    C191.801,149.825,192.239,149.935,192.723,150.114z M192.534,140.948c1.317-1.326,2.557-2.752,3.815-3.798    c3.379-2.811,6.008-5.857,8.666-9.374c3.392-4.484,7.08-8.487,10.157-13.189c2.825-4.318,6.901-7.377,9.635-11.714    c5.499-8.721,11.132-17.368,16.628-26.051c1.679-2.651,2.636-5.621,4.041-8.418c1.134-2.259,2.749-4.208,3.775-6.511    c1.05-2.358,2.799-4.864,3.618-7.455c0.362-0.191,0.673-0.485,0.899-0.838c1.357,0.239,3.185,0.502,4.821,0.421    c0.166,0.164,0.349,0.31,0.552,0.417c0.817,2.593,2.567,5.099,3.618,7.455c1.025,2.302,2.639,4.252,3.775,6.511    c1.406,2.797,2.361,5.765,4.041,8.418c5.496,8.681,11.129,17.328,16.628,26.051c2.735,4.338,6.81,7.396,9.636,11.714    c3.077,4.702,6.764,8.704,10.157,13.189c2.66,3.515,5.287,6.562,8.666,9.374c1.258,1.046,2.498,2.472,3.814,3.798    c-2.899,0.91-5.916,3.056-8.616,3.822c-3.581,1.016-7.158,2.145-10.765,3.052c-9.544,2.394-19.034,5.171-28.789,7.13    c-12.095,2.428-24.111,1.444-36.242-0.48c-7.945-1.26-15.328-4.687-23.145-6.65c-3.608-0.905-7.185-2.035-10.765-3.052    C198.45,144.004,195.432,141.858,192.534,140.948z M270.751,58.295c2.937,3.403,5.578,7.009,8.337,10.551    c4.931,6.329,10.935,12.039,16.657,17.647c5.901,5.786,12.128,10.992,18.105,16.656c5.62,5.324,11.778,9.614,17.551,14.707    c12.603,11.117,26.288,20.36,39.939,30.136c5.959,4.268,12.121,8.439,18.416,12.198c2.755,1.646,5.658,2.847,8.545,4.161    c-4.456,0.472-9.304-0.021-13.118-0.141c-6.237-0.197-12.248-1.507-18.437-2.257c-7.077-0.858-12.812-3.437-19.32-6.145    c-0.531-0.221-1.084-0.459-1.655-0.706c-2.246-1.435-4.542-2.831-6.905-4.243c-3.42-2.043-7.018-4.333-10.148-6.786    c-1.496-1.173-2.891-2.445-4.569-3.098c-5.438-6.305-10.817-12.562-15.927-19.206c-3.038-3.951-5.994-7.823-8.92-11.854    c-2.801-3.859-6.331-6.849-8.868-10.909c-4.76-7.615-9.721-15.376-14.689-22.81c-3.069-4.593-6.11-10.048-8.416-15.086    c-0.852-1.861-0.984-3.699-1.941-5.504c-0.387-0.729-0.887-1.396-1.391-2.065c0.872-0.153,1.731-0.33,2.525-0.765    c0.034-0.018,0.064-0.044,0.097-0.064c0.036,0.039,0.061,0.075,0.097,0.114c0.207,0.223,0.422,0.436,0.631,0.656    C268.097,55.326,269.301,56.616,270.751,58.295z M247.451,8.756c6.588-6.935,22.972-4.229,19.298,10.178    c-0.767,3.006-2.84,5.482-3.984,8.353c-2.275,5.713,2.127,7.264,2.372,12.44c0.175,3.69-1.122,6.016-0.832,8.533    c-0.109,0.054-0.198,0.053-0.551,0.12c-0.433,0.083-0.869,0.152-1.303,0.228c-0.662,0.116-1.353,0.286-2.001,0.531    c-1.566-0.407-3.643-0.25-4.679-0.306c-2.089-0.113-4.203-0.536-6.295-0.716c-0.612-0.053-1.188-0.193-1.753-0.355    c0.087-2.333-1.017-4.59-0.854-8.035c0.246-5.174,4.647-6.726,2.372-12.44c-1.143-2.87-3.217-5.347-3.984-8.353    C244.13,14.506,245.237,11.087,247.451,8.756z M113.706,164.351c2.888-1.314,5.79-2.517,8.545-4.161    c6.295-3.759,12.457-7.93,18.416-12.198c13.651-9.776,27.337-19.019,39.939-30.136c5.773-5.092,11.931-9.382,17.551-14.707    c5.977-5.664,12.204-10.871,18.105-16.656c5.723-5.609,11.727-11.318,16.658-17.647c2.759-3.542,5.401-7.147,8.337-10.551    c1.449-1.68,2.654-2.97,3.4-4.811c0.209-0.22,0.425-0.433,0.631-0.656c0.037-0.039,0.062-0.075,0.097-0.114    c0.033,0.02,0.064,0.045,0.097,0.064c0.795,0.434,1.653,0.612,2.525,0.765c-0.504,0.668-1.003,1.335-1.391,2.065    c-0.958,1.805-1.089,3.643-1.941,5.504c-2.305,5.039-5.347,10.493-8.416,15.086c-4.966,7.433-9.929,15.194-14.689,22.81    c-2.538,4.06-6.068,7.05-8.868,10.909c-2.926,4.03-5.882,7.903-8.92,11.854c-5.11,6.644-10.49,12.901-15.927,19.206    c-1.678,0.653-3.072,1.925-4.569,3.098c-3.129,2.453-6.728,4.743-10.148,6.786c-2.363,1.412-4.658,2.808-6.905,4.243    c-0.571,0.247-1.124,0.484-1.655,0.706c-6.509,2.709-12.244,5.287-19.32,6.145c-6.189,0.75-12.2,2.062-18.437,2.257    C123.01,164.331,118.161,164.823,113.706,164.351z M148.548,179.989c-0.018-0.006-0.037-0.015-0.056-0.022    c-6.769-2.332-13.604-3.873-20.185-6.742c-2.976-1.297-6.063-2.499-9.186-3.58c1.531,0.121,3.063,0.217,4.596,0.248    c7.318,0.152,14.261,0.049,21.544-0.51c6.671-0.513,12.789-1.682,18.876-4.675c3.446-1.693,6.686-3.919,9.974-5.975    c0.054-0.024,0.108-0.045,0.161-0.07c3.701-1.67,7.192-3.523,10.617-5.707c0.619-0.395,1.16-0.8,1.662-1.186    c1.363,2.395,3.453,4.516,5.149,6.519c3.059,3.612,5.947,7.39,8.657,11.258c-2.656,0.242-5.307,0.505-7.946,0.772    c-9.36,0.946-18.457,3.174-27.485,5.77c-4.139,1.191-8.269,2.188-12.486,3.052C151.139,179.409,149.824,179.634,148.548,179.989z     M156.379,183.654c2.99-0.56,5.956-1.213,8.896-2.038c8.846-2.485,17.623-4.806,26.774-5.817    c7.929-0.876,15.812-1.314,23.768-1.933c4.078-0.318,8.308,0.045,12.398,0.017c1.088-0.007,2.151,0.043,3.202,0.103    c5.77,0.581,11.613,0.339,17.479,0.393c8.128,0.075,16.315,0.437,24.447,0.817c4.143,0.193,8.786,1.602,11.977-1.33    c3.611-0.046,7.296-0.278,10.87,0.001c7.956,0.619,15.838,1.058,23.768,1.933c9.151,1.011,17.928,3.332,26.774,5.817    c2.94,0.826,5.906,1.478,8.896,2.038c-2.791,1.56-5.517,3.238-8.402,4.7c-3.493,1.771-5.702,1.118-9.567,0.532    c-3.102-0.47-6.156-1.093-9.223-1.736c-5.823-1.222-11.758-1.328-17.674-1.767c-7.885-0.585-16.345-1.964-24.558-1.879    c-2.662-0.339-5.407-0.348-7.897-0.34c-3.606,0.01-7.204,0.032-10.809,0.15c-3.695,0.121-7.158-0.691-10.795-0.744    c-7.117-0.103-14.564,0.843-21.76,1.002c-2.231,0.049-4.58-0.015-6.947-0.009c-8.89-0.396-18.16,1.182-26.748,1.819    c-5.916,0.439-11.851,0.544-17.674,1.767c-3.068,0.644-6.121,1.266-9.223,1.736c-3.865,0.586-6.074,1.238-9.567-0.532    C161.896,186.891,159.17,185.215,156.379,183.654z M96.826,243.494c3.294-0.833,6.57-1.682,9.727-3.001    c8.967-3.748,18.407-8.412,26.169-14.294c7.303-5.533,14.677-10.898,21.532-17.02c2.88-2.572,8.457-6.885,11.132-11.29    c4.489,1.145,9.922-0.787,14.208-1.755c6.627-1.498,12.946-2.764,19.729-3.4c6.391-0.6,12.806-1.33,19.157-2.123    c0.065-0.009,0.13-0.013,0.195-0.022c-3.282,4.052-6.267,8.436-10.173,12.028c-5.363,4.932-11.488,9.585-17.355,13.93    c-0.232,0.172-0.376,0.415-0.445,0.67c-1.038,0.87-2.036,1.797-3.147,2.432c-5.67,3.245-11.466,6.344-17.355,9.327    c-15.291,7.746-31.114,11.437-48.087,13.086c-6.928,0.673-14.012,0.34-20.901,1.203C99.702,243.455,98.249,243.516,96.826,243.494    z M120.948,256.873c-4.968-2.174-10.04-4.054-15.042-6.145c-1.274-0.532-2.561-1.022-3.855-1.485    c5.747-0.071,11.665-0.263,17.233-1.039c7.56-1.052,15.208-0.947,22.652-2.773c8.219-2.015,16.353-4.198,24.151-7.508    c6.787-2.881,13.701-6.141,20.25-9.487c2.117-1.082,4.517-2.021,6.48-3.386c0.125-0.087,2.868-2.585,2.793-2.569    c0.323-0.07,3.996,1.455,4.068,1.476c7.072,2.1,14.58,4.314,21.887,5.287c5.738,0.763,12.557,2.244,18.367,0.642    c5.778,1.231,11.498,1.7,17.63,1.425c4.563-0.204,9.071-0.351,13.63-0.432c1.315-0.024,2.448-0.197,3.515-0.481    c5.168,0.657,10.843-0.505,15.734-1.155c7.307-0.973,14.815-3.187,21.887-5.287c0.073-0.022,3.745-1.547,4.068-1.476    c-0.076-0.017,2.667,2.483,2.793,2.57c1.963,1.364,4.362,2.304,6.48,3.386c6.548,3.346,13.463,6.606,20.25,9.487    c7.799,3.311,15.932,5.492,24.151,7.508c7.444,1.826,15.091,1.72,22.652,2.773c5.567,0.774,11.486,0.968,17.233,1.039    c-1.295,0.464-2.582,0.953-3.855,1.485c-5.001,2.091-10.074,3.97-15.042,6.145c-4.279,1.873-9.784,5.363-14.552,5.633    c-4.634,0.262-9.399-3.001-13.775-4.227c-4.471-1.253-8.101-3.329-12.423-4.924c-1.164-0.43-2.341-0.852-3.526-1.265    c-3.797-1.819-7.744-3.237-11.905-4.424c-7.033-2.007-13.777-4.488-20.671-7.011c-8.151-2.984-15.482-1.402-23.972-1.325    c-0.127,0.001-0.254-0.002-0.382-0.004c-3.137-1.452-5.759-0.771-9.097-0.877c-7.971-0.252-15.959,0.232-23.93-0.078    c-5.747-0.225-11.424,0.706-17.17,1.009c-5.835-1.483-11.745,0.005-17.882-0.051c-8.492-0.077-15.821-1.659-23.972,1.325    c-6.895,2.524-13.638,5.004-20.671,7.011c-4.163,1.188-8.109,2.605-11.905,4.424c-1.186,0.414-2.363,0.836-3.526,1.265    c-4.322,1.594-7.953,3.671-12.423,4.924c-4.375,1.227-9.141,4.489-13.775,4.227C130.732,262.236,125.227,258.746,120.948,256.873z     M283.681,257.915c0.656,7.853,0.531,15.679-0.768,23.495c-0.603,3.624-1.077,7.243-1.506,10.899    c-0.433,3.684,0.379,7.504-0.111,11.127c-0.081,0.595-0.05,0.893,0.017,1.029c-0.11,0.075-0.25,0.182-0.436,0.348    c-2.036,1.807-4.051,1.072-6.407,1.469c-1.427,0.24-2.968,0.683-4.427,1.253c-3.126-0.084-6.233,0.339-9.408,0.541    c-4.651,0.296-8.966-0.431-13.558-0.608c-2.023-0.078-3.986-0.161-5.96-0.266c-1.198-0.412-2.43-0.727-3.579-0.92    c-2.355-0.396-4.372,0.338-6.407-1.469c-0.186-0.165-0.327-0.273-0.436-0.347c0.067-0.136,0.098-0.434,0.017-1.029    c-0.491-3.622,0.322-7.443-0.111-11.127c-0.43-3.655-0.903-7.275-1.506-10.899c-1.299-7.816-1.424-15.642-0.768-23.495    c0.276-3.317-0.543-6.54-0.557-9.867c-0.004-0.941-0.064-1.774-0.192-2.571c1.711-0.07,3.45-0.161,5.177-0.318    c1.439,0.02,2.857,0.024,4.218,0.061c6.338,0.174,12.582-0.892,18.848-0.602c6.907,0.318,13.838,0.239,20.755,0.231    c2.584,0.377,5.255,0.522,7.855,0.628c-0.13,0.797-0.188,1.63-0.192,2.571C284.225,251.374,283.405,254.598,283.681,257.915z     M171.751,319.988c-0.498,3.921-0.952,7.196-0.958,11.291c-0.029,19.898-1.893,39.753-2.219,59.586    c-0.319,19.351-0.474,39.069-2.129,58.351c-0.45,5.249,0.389,10.542,0.042,15.805c-0.327,4.942-0.972,9.747-0.994,14.717    c-0.023,5.206-0.585,10.255-0.755,15.392c-0.082,2.495,0.439,2.026-1.461,3.332c-0.865,0.595-1.6,0.839-2.369,0.961    c-0.149-0.007-0.286-0.032-0.444-0.026c-5.302,0.223-10.138,1.778-15.501,1.02c-4.557-0.644-8.986-0.308-13.518,0.232    c-11.401,1.363-22.805-0.656-34.194-0.587c-11.91,0.072-24.239,0.18-36.018-1.588c-5.33-0.8-10.864-1.04-16.231-1.386    c-2.383-0.154-4.672,0.418-7.048,0.405c-1.164-0.006-2.168-0.237-3.256-0.378c0.257-0.705,0.505-1.399,0.689-2.059    c0.76-2.748,1.594-5.461,2.541-8.155c1.934-5.506,3.825-11.141,5.939-16.556c4.221-10.81,7.826-21.86,11.209-32.985    c1.154-3.793,2.896-7.139,4.128-10.91c0.732-2.243,1.897-4.226,2.748-6.419c0.942-2.425,1.238-4.991,2.058-7.476    c3.607-10.939,7.79-21.744,11.645-32.608c3.105-8.756,6.535-17.163,8.558-26.277c2.486-11.204,6.989-21.85,10.074-32.87    c0.359-1.281,0.525-2.53,0.555-3.755c5.39,1.238,11.79,0.536,16.85,0.584c9.695,0.091,19.513,1.206,29.137,0.706    c7.018-0.365,14.62-0.018,21.69,0.316c2.886,0.136,7.163,0.848,9.415-1.005C171.901,318.426,171.851,319.207,171.751,319.988z     M171.969,312.731c-0.283-0.121-0.578-0.199-0.855-0.234c-4.368-0.529-9.486-0.097-13.94-0.091    c-6.699,0.01-13.134-0.291-19.721,0.086c-3.728,0.213-7.489-0.672-11.226-0.74c-4.437-0.082-8.888,0.036-13.323,0.117    c-6.125,0.114-12.471-0.026-18.62,0.476c-1.544-5.959-5.845-11.427-8.62-17.088c-0.596-1.216-2.311-4.002-1.953-4.335    c0.905-0.842,3.869,0.335,4.984,0.431c5.809,0.499,11.574-0.628,17.357-0.713c6.216-0.092,12.338-0.85,18.543-0.875    c0.849-0.004,1.706-0.01,2.558-0.013c4.4,0.663,8.797,1.002,13.536,1.112c4.114,0.095,8.11-0.586,12.215-0.595    c4.843-0.011,9.706,0.377,14.533-0.097c1.036-0.102,6.15-1.331,7.001-0.242c0.412,0.527-0.44,2.948-0.516,3.613    c-0.497,4.347-0.755,8.474-1.539,12.817C171.995,308.5,171.959,310.62,171.969,312.731z M220.28,502.542    c-3.8,1.534-9.186,0.738-13.129,0.63c-5.26-0.144-10.646-0.525-15.974-0.997c0.029-9.667,0.531-19.6,1.892-29.056    c0.436-3.027,0.584-6.076,2.172-8.636c2.288-3.685,5.064-2.426,8.885-2.533c2.726-0.075,5.305-0.817,8.045-0.886    c2.686-0.066,5.206,0.119,7.799-0.454c-0.066,1.75-0.1,3.497-0.062,5.242c0.14,6.409-0.828,12.831,0.21,19.102    C220.941,489.92,221.741,496.984,220.28,502.542z M273.407,500.882c-6.698,0.525-13.376,1.463-20.085,2.089    c-6.26,0.584-12.008,0.832-18.252,0.449c-2.861-0.176-6.194-0.683-9.228-0.317c0.066-0.312,0.132-0.624,0.191-0.941    c1.113-5.956,1.344-12.634,0.852-18.643c-0.294-3.589,0.306-6.776,0.395-10.344c0.084-3.43-0.23-6.907,0.032-10.327    c0.582-7.582,0.834-15.013,0.866-22.644c0.059-13.934,1.494-27.668,2.957-41.468c0.597-5.628,1.384-11.512,3.649-16.76    c1.401-3.246,3.392-5.4,5.663-7.329c3.585-1.73,7.361-3.06,11.189-3.946c4.943-1.143,9.364-0.973,14.187,0.674    c1.352,0.461,2.638,1.109,3.911,1.791c3.021,2.36,5.725,4.717,7.491,8.81c2.265,5.248,3.052,11.132,3.649,16.76    c1.463,13.798,2.899,27.534,2.957,41.468c0.032,7.633,0.284,15.062,0.866,22.644c0.263,3.42-0.053,6.897,0.032,10.327    c0.088,3.568,0.689,6.755,0.395,10.344c-0.483,5.891-0.266,12.422,0.793,18.29C282.344,499.979,277.283,500.578,273.407,500.882z     M289.481,403.711c-0.459-5.685-0.705-11.52-2.599-16.836c-1.837-5.155-3.083-9.847-6.775-13.842    c-5.357-9.095-21.018-10.847-30.206-8.616c-2.775,0.674-6.616,1.781-10.31,3.41c-0.377,0.057-0.748,0.135-1.099,0.267    c-1.314,0.493-2.569,1.346-3.72,2.279c-3.432,2.2-6.107,5.009-6.689,8.528c-1.139,2.496-1.963,5.167-2.962,7.974    c-1.894,5.316-2.14,11.151-2.599,16.836c-0.552,6.841-1.16,13.497-1.319,20.377c-0.171,7.366-0.652,14.658-0.624,22.057    c0.012,3.24-0.185,6.481-0.372,9.716c-3.655-0.897-7.807-0.738-11.536-0.383c-3.687,0.351-7.706,0.215-11.344,0.811    c-0.426,0.07-0.832,0.153-1.224,0.25c0.624-3.482,0.979-7.046,1.101-10.518c0.207-5.861,1.292-11.674,1.534-17.552    c0.262-6.349,1.072-12.863,1.799-19.206c0.718-6.271,0.771-12.631,1.804-18.865c1.003-6.058,2.134-12.19,3.755-18.114    c1.526-5.572,2.741-12.171,6.615-16.713c3.602-4.224,7.783-7.092,12.307-9.239c0.127-0.043,0.256-0.087,0.382-0.127    c6.67-2.097,13.212-4.172,20.246-4.882c6.896-0.696,13.969-0.897,20.895-0.609c3.424,0.142,7.852,1.867,11.85,2.37    c7.825,2.379,15.104,5.693,20.898,12.488c3.874,4.542,5.089,11.141,6.615,16.713c1.622,5.923,2.753,12.056,3.755,18.114    c1.033,6.234,1.085,12.594,1.804,18.865c0.727,6.343,1.537,12.857,1.799,19.206c0.242,5.878,1.328,11.692,1.534,17.552    c0.122,3.471,0.478,7.037,1.102,10.518c-0.39-0.095-0.797-0.18-1.224-0.25c-3.639-0.596-7.657-0.459-11.344-0.811    c-3.729-0.356-7.881-0.514-11.536,0.383c-0.186-3.236-0.384-6.476-0.372-9.716c0.028-7.399-0.454-14.691-0.624-22.057    C290.641,417.208,290.033,410.552,289.481,403.711z M304.856,503.172c-3.942,0.108-9.328,0.905-13.129-0.63    c-1.461-5.557-0.661-12.622,0.161-17.587c1.038-6.27,0.071-12.693,0.21-19.102c0.038-1.745,0.004-3.492-0.062-5.242    c2.593,0.573,5.113,0.388,7.799,0.454c2.741,0.067,5.319,0.81,8.045,0.886c3.821,0.105,6.597-1.153,8.885,2.533    c1.588,2.558,1.736,5.608,2.172,8.636c1.361,9.456,1.862,19.387,1.892,29.056C315.501,502.646,310.116,503.028,304.856,503.172z     M336.308,500.514c-3.257-0.281-6.376,0.788-9.587,1.107c-0.394,0.039-0.795,0.075-1.19,0.113c0.28-2.746,0.172-5.595,0.186-7.644    c0.056-8.906-1.266-17.687-1.862-26.518c-0.272-4.03-1.33-7.142-3.836-9.12c0.841-5.266,0.225-11.036-0.094-16.221    c-0.423-6.875-1.375-13.64-1.873-20.504c-1.001-13.78-1.729-27.493-4.366-41.112c-1.345-6.945-2.594-14.719-5.556-21.185    c-2.413-5.264-5.386-8.35-9.459-12.314c-5.659-5.507-14.436-10.121-23.052-11.636c-9.489-2.724-21.018-1.389-29.967-0.421    c-0.164,0.018-0.329,0.049-0.492,0.067c-10.645-1.203-23.502,4.284-31.236,11.445c-0.179,0.086-0.294,0.212-0.373,0.352    c-0.067,0.065-0.143,0.127-0.209,0.192c-4.073,3.964-7.046,7.05-9.459,12.314c-2.962,6.465-4.211,14.239-5.556,21.185    c-2.637,13.617-3.364,27.331-4.366,41.112c-0.499,6.864-1.45,13.63-1.873,20.504c-0.319,5.184-0.935,10.954-0.094,16.221    c-2.505,1.979-3.563,5.089-3.836,9.12c-0.596,8.832-1.919,17.612-1.862,26.518c0.013,2.048-0.094,4.898,0.186,7.644    c-0.395-0.038-0.797-0.073-1.19-0.113c-3.211-0.319-6.329-1.389-9.587-1.107c-0.969,0.083-1.915,0.225-2.853,0.376    c1.17-3.475,1.208-8.788,1.213-12.435c0.007-5.148-0.399-10.304-0.075-15.45c1.368-21.666,0.518-43.469,1.791-65.173    c1.348-22.998,1.741-45.945,2.686-68.982c0.203-4.944-0.327-10.014,0.28-14.898c0.68-5.478,0.203-11.121,1.258-16.611    c0.856-4.459,1.093-8.287,1.373-12.786c0.176-2.835,0.957-5.779-0.614-8.406c-0.63-1.053-1.481-1.795-2.458-2.311    c-0.163-0.125-0.356-0.217-0.584-0.274c-2.095-0.881-4.648-0.878-6.874-0.695c-5.431,0.448-10.802,0.647-16.224,0.908    c-2.944-0.33-5.73-1.126-8.735-0.779c-2.699,0.311-5.408,0.339-8.123,0.288c-0.005-0.254-0.035-0.519-0.098-0.794    c-0.268-1.186-0.024-2.454-0.078-3.665c-0.066-1.473-0.415-2.833-0.647-4.274c-0.197-1.221-0.159-2.486-0.487-3.692    c4.661-0.768,9.295-4.263,13.695-5.764c11.014-3.761,21.936-7.762,33.032-11.268c3.672-1.16,7.48-1.399,10.219-3.909    c1.793-0.603,3.602-1.222,5.464-1.839c7.854-2.596,15.576-1.892,23.776-2.386c0.341-0.021,0.689-0.038,1.038-0.055    c-0.538,1.607-0.946,3.252-1.046,4.877c-0.163,2.632,0.661,4.894,0.251,7.601c-0.22,1.455-0.62,2.878-0.751,4.355    c-0.805,9.089,0.263,18.263,1.257,27.277c0.533,4.84,0.31,9.409,0.267,14.259c-0.023,2.726,0.451,4.362,2.54,6.136    c3.469,2.948,10.841,4.705,15.844,3.271c0.336,0.024,0.674,0.062,1.008,0.073c9.284,0.313,18.566,1.591,27.832,0.149    c4.952,1.002,11.676-0.718,14.942-3.492c2.087-1.774,2.563-3.41,2.54-6.136c-0.043-4.85-0.267-9.419,0.267-14.259    c0.994-9.014,2.063-18.188,1.257-27.277c-0.131-1.478-0.531-2.9-0.751-4.355c-0.41-2.706,0.414-4.97,0.251-7.601    c-0.1-1.626-0.508-3.272-1.046-4.877c0.349,0.017,0.696,0.036,1.038,0.055c8.2,0.494,15.922-0.21,23.776,2.386    c1.862,0.615,3.672,1.235,5.464,1.839c2.74,2.511,6.547,2.749,10.219,3.909c6.184,1.953,12.544,3.3,18.649,5.529    c2.824,1.03,5.11,2.741,7.833,3.88c2.087,0.874,4.402,1.126,6.55,1.859c4.4,1.501,9.035,4.996,13.695,5.764    c-0.328,1.205-0.29,2.47-0.487,3.691c-0.232,1.441-0.582,2.802-0.647,4.274c-0.054,1.209,0.19,2.478-0.078,3.665    c-0.062,0.275-0.093,0.54-0.098,0.794c-2.715,0.051-5.424,0.023-8.123-0.288c-3.006-0.346-5.791,0.449-8.735,0.779    c-5.422-0.261-10.793-0.461-16.224-0.908c-2.226-0.184-4.779-0.186-6.874,0.695c-0.228,0.057-0.421,0.149-0.584,0.274    c-0.978,0.515-1.829,1.258-2.458,2.311c-1.571,2.627-0.79,5.57-0.614,8.406c0.28,4.499,0.516,8.328,1.373,12.786    c1.055,5.49,0.578,11.134,1.258,16.611c0.607,4.884,0.078,9.954,0.28,14.898c0.945,23.037,1.336,45.984,2.686,68.982    c1.273,21.703,0.423,43.507,1.791,65.173c0.325,5.146-0.082,10.304-0.075,15.45c0.005,3.647,0.042,8.96,1.213,12.435    C338.223,500.739,337.277,500.597,336.308,500.514z M339.625,306.362c-0.786-4.342-1.044-8.469-1.539-12.817    c-0.076-0.666-0.929-3.087-0.516-3.613c0.852-1.089,5.965,0.142,7.001,0.242c4.827,0.472,9.691,0.084,14.533,0.097    c4.105,0.009,8.101,0.689,12.215,0.595c4.739-0.109,9.135-0.449,13.536-1.112c0.853,0.004,1.709,0.01,2.558,0.013    c6.205,0.026,12.327,0.783,18.543,0.875c5.784,0.086,11.548,1.213,17.357,0.713c1.115-0.095,4.078-1.273,4.984-0.431    c0.359,0.333-1.357,3.119-1.953,4.335c-2.775,5.661-7.076,11.129-8.62,17.088c-6.151-0.502-12.495-0.362-18.621-0.476    c-4.435-0.082-8.888-0.199-13.323-0.117c-3.737,0.069-7.498,0.952-11.226,0.74c-6.589-0.377-13.024-0.077-19.721-0.086    c-4.454-0.006-9.572-0.438-13.94,0.091c-0.278,0.033-0.573,0.113-0.855,0.234C340.048,310.62,340.011,308.5,339.625,306.362z     M474.051,497.493c-2.377,0.013-4.664-0.559-7.048-0.405c-5.367,0.346-10.901,0.585-16.231,1.386    c-11.779,1.768-24.107,1.66-36.018,1.588c-11.39-0.068-22.794,1.95-34.194,0.587c-4.532-0.541-8.96-0.877-13.518-0.232    c-5.363,0.757-10.2-0.798-15.501-1.02c-0.158-0.006-0.295,0.018-0.444,0.026c-0.768-0.121-1.504-0.366-2.369-0.961    c-1.9-1.306-1.379-0.837-1.461-3.332c-0.169-5.138-0.732-10.186-0.755-15.392c-0.022-4.97-0.667-9.776-0.994-14.717    c-0.347-5.263,0.492-10.557,0.042-15.805c-1.655-19.282-1.81-39-2.129-58.352c-0.327-19.833-2.19-39.689-2.22-59.586    c-0.006-4.095-0.46-7.37-0.958-11.291c-0.099-0.781-0.149-1.561-0.184-2.342c2.254,1.852,6.529,1.14,9.415,1.005    c7.07-0.334,14.672-0.68,21.69-0.316c9.624,0.5,19.442-0.615,29.137-0.706c5.059-0.048,11.46,0.655,16.85-0.584    c0.031,1.225,0.196,2.473,0.554,3.755c3.085,11.019,7.587,21.666,10.074,32.87c2.023,9.114,5.452,17.521,8.558,26.277    c3.854,10.864,8.036,21.669,11.645,32.608c0.82,2.486,1.116,5.051,2.058,7.476c0.852,2.193,2.015,4.176,2.748,6.419    c1.231,3.771,2.974,7.117,4.128,10.91c3.382,11.123,6.987,22.174,11.209,32.985c2.114,5.415,4.005,11.05,5.939,16.556    c0.947,2.694,1.781,5.407,2.541,8.155c0.184,0.661,0.432,1.354,0.689,2.059C476.22,497.257,475.215,497.487,474.051,497.493z"/>
	</g>
</g>
<g>
	<g>
		<path d="M274.747,274.464c0.482-4.928,1.792-13.46-1.467-17.762c-4.271-5.638-14.832-4.333-20.93-3.738    c-2.262,0.22-5.147-0.006-7.591,0.633c-2.409,0.348-4.656,1.291-6.031,3.105c-3.26,4.302-1.949,12.834-1.468,17.762    c0.459,4.7-2.206,13.706,1.635,17.42c2.699,2.611,9.024,2.233,12.533,2.541c5.962,0.525,16.819,2.162,21.684-2.54    C276.954,288.171,274.288,279.163,274.747,274.464z M269.17,286.684c-0.218,0.407-0.477,0.743-0.771,1.019    c-2.173,2.034-6.24,0.772-9.185,0.845c-2.12,0.053-4.203-0.597-6.315-0.712c-3.313-0.181-6.055-0.6-9.101-0.043    c-0.067-0.028-0.144-0.042-0.209-0.073c-1.756-0.832-1.139-8.81-1.22-10.409c-0.209-4.148-0.087-8.308-0.105-12.458    c-0.031-6.805,3.217-6.219,9.409-6.202c7.491,0.021,18.997-4.411,18.833,7.132c-0.05,3.528-0.793,6.827-1.135,10.311    C269.076,279.088,270.611,283.981,269.17,286.684z"/>
	</g>
</g>
<g>
</g>
<g>
</g>
<g>
</g>
<g>
</g>
<g>
</g>
<g>
</g>
<g>
</g>
<g>
</g>
<g>
</g>
<g>
</g>
<g>
</g>
<g>
</g>
<g>
</g>
<g>
</g>
<g>
</g>
</svg>
