<?xml version="1.0" encoding="iso-8859-1"?>
<!-- Generator: Adobe Illustrator 19.0.0, SVG Export Plug-In . SVG Version: 6.00 Build 0)  -->
<svg xmlns="http://www.w3.org/2000/svg" xmlns:xlink="http://www.w3.org/1999/xlink" version="1.1" id="Layer_1" x="0px" y="0px" viewBox="0 0 511.999 511.999" style="enable-background:new 0 0 511.999 511.999;" xml:space="preserve">
<g>
	<g>
		<path d="M479.176,370.033c-9.74-5.373-18.569-11.42-27.58-17.902c-3.7-2.661-7.797-4.752-11.591-7.325    c-3.993-2.708-8.093-5.582-12.303-7.923c-2.875-1.599-5.778-3.019-8.727-4.287c-2.895-3.415-4.622-7.501-6.533-11.7    c-1.243-2.732-2.554-5.995-4.819-8.011c0.703-4.034,1.035-8.318,1.109-12.333c0.029-1.572,0.089-3.059,0.049-4.467    c2.206-0.561,4.794-0.069,7.064-0.536c3.139-0.645,6.272-2.117,9.354-2.99c6.551-1.855,14.122-2.411,19.928-6.232    c0.624-0.411,1.066-0.923,1.338-1.494c0.28-0.329,0.432-0.773,0.318-1.223c0-0.001,0-0.001,0-0.001    c0.045-0.664-0.09-1.362-0.405-2.05c-0.119-0.259-0.27-0.491-0.435-0.711c-2.243-6.31-6.245-11.053-10.714-16.245    c-2.77-3.216-5.914-6.17-8.448-9.581c-2.114-2.846-3.932-5.687-6.569-8.126c-5.329-4.927-10.119-10.194-15.874-14.716    c-4.212-3.31-8.457-5.887-13.138-8.029c-0.062-2.557-1.185-5.082-1.672-7.607c-0.739-3.832-0.821-7.542-0.799-11.421    c0.011-2.049,0.258-3.967,0.337-5.86c7.921,0.31,38.494-7.899,28.036-20.049c-4.011-4.659-8.653-7.091-14.046-9.699    c-3.517-1.7-6.573-4.167-10.068-5.908c-3.391-1.689-7.07-3.256-10.229-5.298c-6.231-4.027-13.175-6.25-19.681-9.782    c-3.508-1.904-7.037-3.85-10.488-5.854c-3.148-1.828-6.609-2.968-9.72-4.799c-7.347-4.322-14.843-8.137-21.668-13.312    c-6.339-4.805-11.498-11.2-17.324-16.652c-4.531-4.24-6.864-11.175-11.842-14.883c-0.327-0.243-0.665-0.471-1.012-0.685    c-0.691-1.862-1.373-3.74-1.811-5.593c-1.057-4.475-1.145-9.735-3.324-13.872c-1.616-3.068-4.434-4.509-7.706-5.099    c-2.067-2.083-3.535-4.255-4.526-7.392c-1.759-5.572,0.175-8.295,3.029-12.97c1.659-2.717,3.813-5.21,4.938-8.219    c1.435-3.837,1.74-8.166,1.734-12.225c-0.011-8.277-3.768-17.37-10.298-21.975c-4.51-5.66-16.24-5.454-22.224-4.432    c-2.232,0.381-4.726,1.068-7.12,2.084c-9.44,2.86-15.055,14.2-15.07,24.322c-0.006,4.06,0.3,8.387,1.734,12.225    c1.125,3.01,3.279,5.502,4.938,8.219c2.856,4.675,4.79,7.399,3.029,12.97c-0.991,3.137-2.459,5.309-4.526,7.392    c-3.272,0.59-6.09,2.032-7.706,5.099c-2.18,4.138-2.268,9.396-3.324,13.872c-0.438,1.853-1.119,3.731-1.811,5.593    c-0.346,0.215-0.685,0.442-1.012,0.686c-4.977,3.708-7.311,10.643-11.842,14.883c-5.826,5.452-10.985,11.847-17.324,16.652    c-6.825,5.175-14.321,8.99-21.668,13.312c-3.112,1.831-6.573,2.97-9.72,4.799c-3.451,2.004-6.98,3.951-10.488,5.854    c-6.507,3.531-13.451,5.755-19.681,9.782c-3.16,2.042-6.839,3.609-10.229,5.298c-3.496,1.741-6.551,4.207-10.068,5.908    c-5.394,2.608-10.035,5.039-14.046,9.699c-10.456,12.15,20.116,20.358,28.036,20.049c0.079,1.893,0.326,3.81,0.337,5.86    c0.022,3.879-0.06,7.59-0.799,11.421c-0.487,2.524-1.609,5.049-1.672,7.607c-4.682,2.142-8.927,4.719-13.138,8.029    c-5.754,4.522-10.545,9.789-15.874,14.716c-2.638,2.439-4.455,5.28-6.569,8.126c-2.534,3.412-5.677,6.364-8.448,9.581    c-4.47,5.19-8.471,9.933-10.714,16.245c-0.165,0.22-0.316,0.452-0.435,0.711c-0.316,0.687-0.451,1.386-0.405,2.049    c0,0,0,0,0,0.001c-0.115,0.451,0.037,0.894,0.318,1.224c0.272,0.57,0.714,1.083,1.338,1.494    c5.805,3.821,13.377,4.376,19.928,6.232c3.081,0.873,6.215,2.345,9.354,2.99c2.27,0.466,4.858-0.025,7.064,0.536    c-0.04,1.407,0.019,2.894,0.049,4.467c0.075,4.016,0.407,8.299,1.109,12.333c-2.265,2.016-3.576,5.279-4.819,8.011    c-1.911,4.199-3.639,8.285-6.533,11.7c-2.949,1.268-5.852,2.688-8.727,4.287c-4.21,2.343-8.31,5.216-12.303,7.923    c-3.795,2.573-7.891,4.664-11.591,7.325c-9.01,6.482-17.839,12.529-27.58,17.902c-6.904,3.809-12.562,7.698-8.494,16.119    c3.79,7.846,12.271,11.476,19.76,14.752c2.018,0.883,3.256,2.235,5.107,3.173c1.674,0.85,4.102,1.258,5.871,1.84    c4.863,1.6,10.239,2.963,15.278,1.733c0.015,9.455,0.259,18.943,0.407,28.406c0.134,8.57,0.638,17.119,1.751,25.588    c0.93,7.064,0.099,15.39,5.749,20.756c4.717,4.481,12.014,6.789,17.939,9.081c3.232,1.25,6.945,1.653,10.417,2.609    c4.487,1.236,8.739,3.113,13.281,4.189c19.549,4.634,39.311,8.552,59.29,10.665c10.706,1.133,21.542,2.013,32.282,2.808    c5.409,0.401,10.974,0.036,16.401,0.028c0.199,0,0.4,0.005,0.598,0.006c0.276,0.006,0.55,0.01,0.818,0.018    c8.605,0.246,17.13,0.23,25.739,0.117c6.254-0.083,12.478-0.303,18.699-0.558c0.087-0.003,0.171-0.006,0.259-0.008    c3.279,0.695,6.772,0.422,10.157,0.427c5.427,0.008,10.991,0.372,16.401-0.028c10.74-0.794,21.576-1.674,32.282-2.808    c19.979-2.113,39.741-6.031,59.29-10.665c4.542-1.077,8.795-2.953,13.281-4.189c3.472-0.957,7.184-1.36,10.417-2.609    c5.926-2.292,13.222-4.6,17.939-9.081c5.65-5.366,4.82-13.692,5.749-20.756c1.115-8.468,1.617-17.018,1.752-25.588    c0.148-9.463,0.393-18.951,0.407-28.406c5.04,1.229,10.416-0.134,15.278-1.733c1.769-0.582,4.197-0.99,5.871-1.84    c1.85-0.94,3.088-2.29,5.107-3.173c7.487-3.277,15.969-6.906,19.76-14.752C491.739,377.732,486.08,373.842,479.176,370.033z     M412.114,182.647c-0.222,0.624-0.776,1.273-1.741,2.027c-3.053,2.388-7.244,4.197-10.649,6.038    c-3.559,1.925-7.491,2.546-10.874,4.725c-0.144-0.81-0.346-1.626-0.683-2.461c-1.637-4.051-6.292-5.44-10.055-6.649    c-6.116-1.966-12.344-4.136-18.367-6.373c-12.62-4.687-26.531-5.78-39.616-8.234c-5.099-0.957-10.294-1.182-15.49-1.18    c-6.212,0.001-11.744-0.54-17.716,1.733c-0.05,0.019-0.085,0.049-0.129,0.071c-0.255-3.928-0.637-8.639-2.386-12.192    c-0.429-0.872-0.984-1.649-1.62-2.343c18.728,1.306,37.479,2.715,56.023,5.581c12.965,2.004,25.482,4.792,38.204,8.075    C388.967,174.553,401.154,177.023,412.114,182.647z M384.025,210.386c-1.813-0.941-3.769-1.53-6.047-2.236    c-4.854-1.504-9.636-3.28-14.533-4.631c-8.294-2.287-17.351-4.788-25.932-5.569c-9.388-0.855-18.81-2.361-28.121-3.985    c-4.491-0.783-9.208-1.252-13.759-1.414c-2.32-0.083-4.911-0.575-7.363-0.532c-0.12-1.362-0.239-2.621-0.309-3.705    c-0.294-4.586-0.682-9.174-1.008-13.764c10.101,3.832,21.573,2.096,32.033,3.882c11.814,2.017,24.04,2.764,35.759,5.747    c5.973,1.521,12.09,3.153,17.871,5.293c4.837,1.791,11.277,2.707,11.49,8.914C384.242,202.276,383.939,206.371,384.025,210.386z     M288.624,197.022c6.983,1.188,14.447,0.674,21.425,1.88c8.289,1.432,17.002,2.904,25.377,3.45    c8.309,0.543,16.78,2.417,24.849,4.493c7.978,2.053,15.854,5.441,23.958,7.102c0.285,2.865,0.901,5.642,2.177,8.218    c-0.11-0.041-0.216-0.086-0.326-0.127c-15.379-5.708-31.167-8.92-47.113-12.409c-11.169-2.444-22.68-2.304-34.051-2.209    c-4.272-0.524-8.507-0.74-12.814-1.219c-1.354-0.15-2.713-0.308-4.046-0.308C288.69,203.169,288.755,200.038,288.624,197.022z     M283.325,201.59c-0.263,4.484-2.173,6.961-6.624,8.048c-1.325,0.323-3.152,0.894-4.857,1.166c-1.8-0.202-3.606-0.42-5.39-0.399    c-4.773,0.054-9.463-0.375-14.218-0.554c-4.857-0.183-9.344-0.042-14.181-0.748c-1.751-0.255-3.357-0.302-5.014-0.267    c-2.834-1.328-4.149-3.623-4.363-7.246c-0.329-5.615,0.073-11.386,0.452-16.976c0.421-6.208-0.077-12.614,0.848-18.771    c0.428-2.851,1.282-5.024,3.064-6.465c3.127-1.017,6.934-0.968,10.063-1.102c5.977-0.258,12.107-0.202,18.088-0.125    c4.485,0.058,8.917-0.375,13.364-0.466c0.188-0.003,0.375,0.003,0.562,0.002c4.559,0.96,6.243,3.747,6.905,8.156    c0.925,6.157,0.427,12.563,0.848,18.771C283.252,190.204,283.654,195.976,283.325,201.59z M235.917,34.7    c-1.193-4.308-2.184-10.128-1.486-14.647c0.382-2.475,1.12-5.379,2.387-7.874c5.169-4.144,10.294-6.661,17.595-7.102    c6.262-0.377,11.562,2.105,17.475,2.916c3.426,2.626,5.046,7.936,5.683,12.06c0.698,4.518-0.293,10.338-1.486,14.647    c-0.922,3.328-3.066,5.736-4.656,8.748c-0.579,1.096-1.281,2.167-1.958,3.253c-0.664,0.412-1.337,0.757-2.005,0.997    c-3.24,1.167-6.87,1.251-10.285,2.017c-0.969-0.14-1.949-0.214-2.93-0.16c-0.053,0.002-0.103,0.006-0.157,0.009    c-3.201-0.63-6.547-0.781-9.56-1.866c-0.669-0.241-1.342-0.586-2.005-0.997c-0.675-1.087-1.379-2.156-1.958-3.253    C238.983,40.435,236.839,38.027,235.917,34.7z M244.925,52.293c3.192,0.998,6.641,1.243,9.81,0.627    c0.979,0.078,1.945,0.253,2.924,0.256c0.262,0.001,0.523-0.035,0.784-0.074c2.835,0.357,5.834,0.068,8.637-0.808    c-0.486,3.118,0.177,6.654,1.22,9.572c0.836,2.341,1.75,4.197,2.921,5.646c-1.278,0.074-2.548,0.192-3.778,0.317    c-5.01-0.916-10.093-0.286-15.458-0.18c-2.787,0.054-6.512-0.272-10.036-0.057c-0.386-0.03-0.774-0.057-1.162-0.079    c1.171-1.449,2.085-3.305,2.921-5.646C244.748,58.946,245.411,55.411,244.925,52.293z M228.457,84.802    c0.589-2.391,1.1-5.331,2.063-7.579c1.695-3.952,4.936-4.265,8.714-4.51c2.462-0.16,4.572-0.172,6.562-0.584    c2.668,0.142,5.352,0.195,8.014,0.217c3.904,0.032,8.684,0.342,13.063-0.093c1.795,0.293,3.704,0.319,5.894,0.461    c3.777,0.245,7.02,0.558,8.714,4.51c0.964,2.247,1.474,5.188,2.063,7.579c0.288,1.17,0.782,3.179,1.532,5.229    c-1.395-0.317-2.831-0.527-4.268-0.668c-7.923-3.286-17.525-1.62-25.895-1.26c-5.506,0.236-11.178,0.278-16.693,0.984    c-3.53,0.002-7.561,0.095-11.296,0.944C227.676,87.98,228.169,85.972,228.457,84.802z M114.007,171.586    c14.486-7.936,30.091-13.41,44.868-20.778c15.301-7.629,32.147-14.944,43.784-27.878c5.592-6.216,11.59-11.349,16.41-18.177    c2.263-3.206,4.261-7.637,7.982-9.171c0.346-0.143,0.706-0.28,1.067-0.418c3.521-0.219,7.229-1.166,10.528-1.614    c5.385-0.732,10.846-0.624,16.27-0.787c6.021-0.18,12.406-0.772,18.652-0.591c3.711,0.826,7.93,1.985,11.386,3.408    c3.722,1.533,5.719,5.964,7.982,9.171c4.82,6.828,10.818,11.96,16.41,18.177c11.637,12.934,28.483,20.249,43.784,27.878    c14.776,7.368,30.382,12.842,44.868,20.778c1.607,0.881,3.229,1.715,4.853,2.546c-6.627-2.432-13.583-4.046-20.389-5.855    c-13.806-3.67-27.377-6.996-41.439-9.344c-6.019-1.006-11.85-1.822-17.925-2.554c-6.164-0.742-12.487-0.567-18.579-1.549    c-5.668-0.913-11.645-1.025-17.4-1.398c-2.095-0.136-4.19-0.127-6.281-0.023c-8.155-1.313-16.295-0.716-24.896-0.203    c-4.666,0.279-12.607-0.639-18.762,0.782c-4.067-0.577-8.182-0.822-12.294-0.555c-5.755,0.372-11.733,0.486-17.4,1.398    c-6.093,0.982-12.415,0.807-18.579,1.549c-6.074,0.731-11.906,1.548-17.925,2.554c-14.061,2.348-27.633,5.674-41.439,9.344    c-6.805,1.809-13.761,3.423-20.389,5.855C110.778,173.3,112.399,172.466,114.007,171.586z M123.154,195.437    c-3.382-2.179-7.314-2.8-10.874-4.725c-3.406-1.842-7.597-3.651-10.649-6.038c-0.965-0.755-1.519-1.403-1.741-2.027    c10.96-5.624,23.147-8.092,35.1-11.178c12.722-3.283,25.239-6.071,38.204-8.075c18.544-2.867,37.296-4.274,56.023-5.581    c-0.636,0.693-1.191,1.471-1.62,2.343c-1.749,3.552-2.13,8.264-2.386,12.192c-0.045-0.023-0.081-0.053-0.129-0.072    c-5.972-2.273-11.505-1.733-17.716-1.733c-5.196-0.001-10.392,0.224-15.49,1.18c-13.086,2.454-26.997,3.548-39.616,8.234    c-6.023,2.237-12.252,4.407-18.367,6.373c-3.761,1.209-8.418,2.598-10.055,6.649C123.5,193.811,123.298,194.626,123.154,195.437z     M223.943,205.895c-1.334,0-2.692,0.158-4.046,0.308c-4.307,0.479-8.543,0.695-12.814,1.219    c-11.371-0.095-22.882-0.236-34.051,2.209c-15.945,3.489-31.734,6.701-47.113,12.409c-0.11,0.041-0.216,0.086-0.326,0.127    c1.276-2.576,1.892-5.354,2.177-8.218c8.104-1.66,15.979-5.049,23.958-7.101c8.068-2.076,16.54-3.951,24.849-4.493    c8.376-0.546,17.089-2.019,25.377-3.45c6.978-1.205,14.441-0.691,21.425-1.88C223.249,200.038,223.315,203.169,223.943,205.895z     M223.733,192.019c-2.451-0.043-5.043,0.449-7.362,0.532c-4.551,0.162-9.268,0.63-13.759,1.414    c-9.311,1.625-18.733,3.13-28.121,3.985c-8.58,0.781-17.637,3.284-25.932,5.569c-4.898,1.351-9.68,3.127-14.533,4.631    c-2.278,0.706-4.235,1.295-6.047,2.236c0.086-4.016-0.216-8.11-0.082-11.999c0.215-6.206,6.653-7.123,11.49-8.914    c5.78-2.141,11.898-3.771,17.871-5.294c11.72-2.985,23.946-3.732,35.759-5.747c10.46-1.786,21.932-0.05,32.033-3.882    c-0.326,4.59-0.713,9.177-1.008,13.764C223.973,189.4,223.855,190.658,223.733,192.019z M73.234,278.042    c2.486-3.162,5.214-6.069,7.937-9.04c2.617-2.856,5.61-5.429,8.125-8.367c2.343-2.739,4.068-5.807,6.761-8.272    c5.191-4.751,10.21-9.635,15.749-14.017c5.866-4.641,11.942-7.743,19.069-10.082c14.542-4.77,29.073-8.606,43.896-12.33    c6.904-1.735,14.799-2.632,21.976-2.932c2.29-0.044,4.583-0.118,6.904-0.423c5.126-0.673,10.093-0.741,15.209-1.176    c2.805-0.238,4.721-0.512,6.882-1.211c0.411,0.594,0.866,1.145,1.414,1.607c2.959,2.491,10.832,4.637,15.113,2.65    c3.791,0.452,7.637,0.609,11.392,0.869c5.614,0.39,12.062,1.027,17.749-0.319c4.421,0.923,10.834-1.008,13.438-3.199    c0.548-0.462,1.004-1.014,1.414-1.607c2.161,0.699,4.077,0.973,6.881,1.211c5.115,0.435,10.083,0.502,15.209,1.176    c2.321,0.305,4.614,0.38,6.904,0.423c7.178,0.3,15.072,1.196,21.976,2.932c14.823,3.724,29.354,7.56,43.896,12.33    c7.128,2.339,13.204,5.441,19.069,10.082c5.538,4.382,10.556,9.266,15.749,14.017c2.693,2.464,4.418,5.533,6.761,8.272    c2.514,2.938,5.508,5.511,8.125,8.367c2.723,2.971,5.451,5.878,7.937,9.04c-0.75-0.101-1.462-0.192-2.078-0.301    c-6.506-1.149-12.844-3.055-19.419-4.186c-7.58-1.303-15.104-2.82-22.628-4.48c-7.569-1.67-15.029-2.411-22.646-3.643    c-14.135-2.289-28.529-4.462-42.784-5.496c-8.359-0.606-16.793-1.508-25.192-1.541c-2.992-0.013-6.004-0.14-9.016-0.229    c-3.954-0.297-7.927-0.464-11.946-0.495c-9.592-0.075-19.169-0.597-28.731-0.11c-8.202,0.417-16.502,0.664-24.716,0.813    c-0.317,0.006-0.631,0.003-0.947,0.002c-6.856-0.639-13.819-0.008-20.686,0.019c-8.4,0.034-16.834,0.935-25.192,1.541    c-14.255,1.034-28.648,3.206-42.784,5.496c-7.618,1.234-15.077,1.975-22.646,3.643c-7.524,1.659-15.049,3.177-22.628,4.48    c-6.575,1.13-12.914,3.037-19.419,4.186C74.696,277.85,73.985,277.941,73.234,278.042z M103.703,292.405    c-1.367-0.792-2.845-1.25-4.412-1.741c-3.092-0.972-5.956-2.487-9.013-3.621c-4.393-1.631-9.125-2.456-13.587-3.929    c1.987-0.466,3.813-0.928,5.737-1.639c6.929-2.557,14.168-3.747,21.293-5.537c14.053-3.531,28.416-5.147,42.688-7.484    c13.813-2.261,27.878-3.594,41.792-4.77c9.559-0.807,19.09-1.027,28.569-1.834c12.279,0.445,24.608,0.244,36.881-0.364    c9.21-0.456,18.323,0.203,27.549,0.258c4.672,0.028,9.284,0.083,13.893,0.094c9.525,0.817,19.1,1.035,28.706,1.847    c13.914,1.175,27.979,2.508,41.792,4.77c14.272,2.337,28.635,3.952,42.688,7.484c7.125,1.791,14.364,2.98,21.293,5.537    c1.924,0.711,3.75,1.172,5.737,1.639c-4.462,1.472-9.193,2.298-13.587,3.929c-3.056,1.134-5.921,2.649-9.013,3.621    c-1.565,0.493-3.045,0.949-4.412,1.741c-0.541-1.968-1.639-3.736-3.829-5.3c-4.711-3.365-11.287-4.526-16.762-6.105    c-6.855-1.977-13.367-4.252-20.457-5.355c-6.803-1.059-13.65-2.312-20.427-3.481c-7.073-1.22-14.19-1.203-21.266-2.022    c-6.819-0.789-13.739-0.571-20.587-1.232c-5.839-0.563-11.562-0.739-17.338-0.056c-3.205-0.069-6.398-0.081-9.495-0.251    c-9.195-0.504-18.453-0.352-27.68-0.346c-8.614,0.005-17.199,0.347-25.794,0.63c-5.877-0.725-11.696-0.55-17.635,0.023    c-6.848,0.662-13.769,0.443-20.587,1.231c-7.075,0.819-14.193,0.802-21.266,2.023c-6.777,1.169-13.623,2.422-20.427,3.481    c-7.09,1.103-13.602,3.378-20.457,5.355c-5.475,1.579-12.051,2.74-16.762,6.105C105.341,288.669,104.244,290.437,103.703,292.405z     M402.608,310.892c-5.165-0.797-10.576-1.183-15.775-1.78c-5.721-0.657-11.329-1.426-17.095-1.709    c-12.948-0.639-25.869-1.956-38.799-2.957c-5.408-0.419-10.837-0.699-16.282-0.651c-5.541,0.049-12.026-0.469-17.611,0.804    c-13.554-0.175-27.148,0.452-40.666-0.343c-10.014-0.589-20.052-0.067-30.054,0.199c-4.711,0.125-9.359-0.208-14.049-0.328    c-4.911-0.649-10.256-0.291-14.929-0.331c-5.446-0.048-10.874,0.233-16.282,0.651c-12.93,1.001-25.851,2.318-38.799,2.957    c-5.766,0.284-11.373,1.052-17.095,1.709c-5.199,0.597-10.61,0.983-15.775,1.78c0.35-2.111,0.291-4.309,0.15-6.809    c-0.151-2.666-0.712-6.172-0.132-8.785c0.888-3.996,4.801-4.572,8.031-5.481c5.726-1.611,11.375-3.478,17.013-5.353    c6.451-2.145,13.278-2.791,19.87-4.365c21.474-5.128,44.272-2.49,65.871-6.148c1.364-0.006,2.726-0.002,4.097-0.022    c8.726-0.121,17.422-0.383,26.163-0.379c9.377,0.005,18.809-0.19,28.146,0.468c4.86,0.342,9.703-0.052,14.565,0.511    c2.961,0.343,5.948,0.867,8.883,0.749c18.474,1.706,37.52,0.498,55.621,4.821c6.592,1.574,13.419,2.22,19.87,4.365    c5.639,1.875,11.287,3.742,17.013,5.352c3.229,0.908,7.142,1.485,8.031,5.481c0.58,2.612,0.019,6.119-0.132,8.785    C402.316,306.583,402.258,308.781,402.608,310.892z M108.441,320.1c3.379-4.941,11.593-4.906,17.097-5.498    c6.216-0.667,12.285-1.418,18.539-1.81c12.005-0.755,24.093-1.511,36.065-2.708c5.694-0.57,11.463-0.909,17.207-0.865    c5.926,0.048,12.673,1.368,18.526-0.037c2.271,0.166,4.544,0.343,6.826,0.37c10.926,0.128,21.88-0.515,32.808,0.23    c11.08,0.755,22.361,0.706,33.468,0.754c5.234,0.023,10.55,0.555,15.756,0.068c2.202-0.207,4.415-0.322,6.613-0.557    c1.252-0.134,2.416-0.462,3.571-0.824c5.658-0.033,11.338,0.301,16.947,0.863c11.97,1.197,24.059,1.953,36.065,2.708    c6.253,0.393,12.322,1.143,18.539,1.81c5.505,0.59,13.718,0.557,17.097,5.498c1.722,2.516,3.405,5.816,5.398,8.898    c-2.64-0.767-5.331-1.428-8.105-1.951c-10.999-2.078-22.58-2.462-33.687-3.98c-9.508-1.301-19.131-0.682-28.623-1.704    c-11.104-1.194-22.467,0.74-33.56-0.487c-5.559-0.615-11.235-0.566-16.908-0.247c-5.194-0.306-10.477-0.078-15.614-0.434    c-6.644-0.46-13.2-0.612-19.848-0.385c-8.446,0.289-17.067,0.311-25.573,1.025c-6.708-0.48-13.449-0.687-20.03,0.041    c-11.093,1.228-22.455-0.707-33.56,0.487c-9.492,1.02-19.115,0.403-28.623,1.704c-11.107,1.519-22.688,1.903-33.687,3.98    c-2.773,0.523-5.464,1.184-8.105,1.951C105.035,325.916,106.719,322.617,108.441,320.1z M70.403,401.345    c-7.347-1.931-15.138-2.142-22.317-4.427c-4.249-1.353-13.802-4.652-16.951-9.825c5.622,0.312,11.774-0.978,17.073-1.86    c8.017-1.334,15.994-2.158,24.092-2.631C71.384,388.924,70.622,394.966,70.403,401.345z M88.984,481.244    c-3.69-1.827-7.45-3.875-8.66-8.044c-1.063-3.666-0.923-7.543-1.305-11.286c-0.816-7.99-1.708-15.802-2.012-23.887    c-0.406-10.808-0.597-21.752-0.658-32.551c-0.044-7.768,0.256-15.459-0.928-23.068c3.762-0.201,7.511-0.55,11.254-0.975    c-1.561,9.197-0.814,19.069-0.289,28.278c0.519,9.112,0.566,18.207,1.049,27.32c0.792,14.962,2.138,29.851,2.765,44.778    C89.792,481.622,89.386,481.444,88.984,481.244z M116.925,466.533c-0.062,5.27,0.228,10.561,0.365,15.826    c0.069,2.669-0.003,5.654,0.663,8.323c-2.499-0.763-5-1.54-7.528-2.293c0.451-4.534,0.017-9.007-0.2-13.554    c-0.222-4.634,0.334-9.317-0.126-13.94c-0.423-4.249-1.7-11.168,2.741-14c1.33-0.848,3.232-1.13,5.299-1.136    c-0.582,2.277-0.414,4.944-0.723,7.107C116.775,457.37,116.979,461.976,116.925,466.533z M133.263,494.719    c-3.76-0.742-7.397-1.705-11-2.751c0.2-3.714-0.563-7.376-0.679-11.08c-0.141-4.505-0.516-8.997-0.648-13.502    c-0.112-3.838-0.516-7.906-0.305-11.741c0.111-2.019,0.518-3.756,0.431-5.78c-0.049-1.138-0.379-2.656-0.438-3.997    c2.724,0.216,5.456,0.7,7.35,0.866c3.004,0.262,10.409,0.135,12.133,2.768c1.328,2.028,0.646,6.392,0.64,8.704    c-0.007,2.694-0.006,5.388-0.023,8.081c-0.065,10.036,0.529,19.938,0.461,29.95C138.545,495.742,135.906,495.241,133.263,494.719z     M170.88,492.382c-0.008,2.808-0.572,5.695-0.437,8.475c-8.224-0.999-16.395-2.305-24.57-3.772    c0.019-0.121,0.042-0.242,0.045-0.375c0.152-6.978-0.859-13.791-0.785-20.718c0.078-7.277,0.277-14.547,0.167-21.828    c-0.061-4.028-0.712-8.294-4.785-10.194c-3.942-1.839-10.443-1.75-14.785-1.956c-4.793-0.227-10.746-1.735-15.228,0.88    c-3.718,2.17-5.046,6.553-5.452,10.587c-0.563,5.581,0.562,11.429,0.604,17.055c0.043,5.664,0.7,11.338,1.621,16.935    c-4.119-1.168-8.175-2.237-12.145-3.657c0.219-15.363-1.993-30.865-3.144-46.18c-0.533-7.094-0.725-14.183-1.019-21.278    c6.402,0.708,13.529-0.489,19.771-1.004c6.72-0.555,13.36-1.161,20.063-2.029c13.27-1.721,26.638-2.085,40-2.853    c0.064-0.003,0.123-0.02,0.184-0.03c-0.344,10.217-0.447,20.444,0.034,30.702c0.552,11.748-0.582,23.458-0.598,35.187    C170.411,481.704,170.895,487.02,170.88,492.382z M171.151,405.896c-3.451-0.445-6.324,0.068-9.774,0.301    c-3.366,0.227-6.693-0.026-10.049,0.351c-6.593,0.739-13.152,0.757-19.74,1.785c-13.497,2.108-27.467,1.744-40.767,5.002    c-0.057-1.208-0.104-2.415-0.173-3.623c-0.191-3.374-0.21-6.839-0.234-10.324c26.857-3.785,54.286-4.832,81.315-5.904    C171.519,397.62,171.318,401.757,171.151,405.896z M171.938,389.324c-5.824-0.172-11.458,0.17-17.246,0.772    c-8.158,0.849-16.255,0.865-24.396,1.477c-7.924,0.595-15.963,1.345-23.904,2.017c-4.931,0.418-11.191,0.511-16.01,2.62    c-0.062-5.096-0.244-10.192-1.099-15.08c13.432-1.642,26.79-4.103,40.359-4.345c9.114-0.162,18.343,0.498,27.482,0.471    c5.162-0.016,10.304-0.316,15.456-0.56C172.377,380.905,172.156,385.115,171.938,389.324z M196.709,439.313    c-0.06,10.653,0.413,21.193,0.377,31.829c-0.018,5.261-0.023,10.52-0.034,15.781c-0.007,2.988-0.141,6.011,0.032,8.996    c0.145,2.501,0.672,4.924,0.624,7.401c-2.972-0.308-5.945-0.595-8.92-0.771c-4.393-0.258-8.759-0.634-13.107-1.091    c1.789-7.458-0.253-17.072-0.278-24.053c-0.042-12.07,1.146-24.178,0.333-36.262c-0.788-11.697-1.229-23.675-0.886-35.414    c0.138-4.717,0.491-9.472,0.903-14.168c0.452-5.152,0.163-9.974-0.306-14.991c2.673-0.11,5.348-0.191,8.032-0.188    c5.086,0.005,10.16-0.158,15.237-0.329C195.611,396.821,196.827,418.387,196.709,439.313z M284.136,504.716    c-1.246,0.002-2.453,0.096-3.644,0.229c-2.461-0.024-4.931,0.076-7.328,0.11c-6.721,0.094-13.473,0.393-20.224,0.615    c-4.963,0.163-9.911,0.196-14.862,0.167c-3.407-0.407-6.661-1.115-10.21-1.12c-0.657-0.001-1.315,0.002-1.973,0.003    c0.811-7.773,1.81-15.576,1.902-23.41c0.092-7.863-0.54-15.84-0.609-23.74c-0.049-5.601-0.91-16.792,4.583-19.981    c2.072,0.124,4.185,0.128,6.127,0.335c4.866,0.518,9.942,0.526,14.812,0.095c5.54-0.489,14.605,1.559,19.868-1.261    c1.651-0.137,3.321-0.18,5.069,0.005c8.333,0.884,7.225,14.449,7.17,20.806c-0.069,7.899-0.701,15.877-0.609,23.74    c0.092,7.835,1.091,15.638,1.902,23.41C285.452,504.719,284.794,504.715,284.136,504.716z M310.512,441.526    c-0.064,11.206-0.643,22.288-0.667,33.499c-0.011,5.652-0.022,11.305-0.034,16.958c-0.009,3.983-0.76,7.921-0.629,11.864    c-4.003,0.406-8.008,0.76-12.02,0.838c-2.596,0.05-5.194,0.05-7.793,0.043c0.662-9.686-0.9-19.499,0.09-29.14    c0.969-9.45,0.614-19.658-0.306-29.098c-0.683-7.012-1.573-13.101-9.606-14.298c-4.539-0.675-9.592-0.738-14.003,0.79    c-1.363-0.01-2.682-0.003-3.85-0.096c-3.6-0.287-7.006-0.232-10.614,0.085c-1.3,0.114-2.604,0.201-3.911,0.268    c-4.572-1.794-9.926-1.759-14.708-1.046c-8.034,1.196-8.923,7.287-9.606,14.298c-0.92,9.441-1.276,19.65-0.306,29.098    c0.989,9.643-0.573,19.456,0.09,29.14c-2.598,0.007-5.197,0.007-7.793-0.043c-4.012-0.077-8.017-0.431-12.02-0.838    c0.132-3.943-0.62-7.881-0.629-11.864c-0.013-5.652-0.023-11.305-0.035-16.958c-0.024-11.21-0.604-22.293-0.667-33.499    c-0.065-11.417-0.118-22.833-0.195-34.25c0.953,0.06,2.001-0.086,3.079-0.107c5.018-0.093,10.046-0.273,15.054-0.537    c5.698-0.3,11.376,0.264,17.049,0.234c5.646,0.296,11.452-0.051,17.123,0.035c4.499,0.068,8.933,0.444,13.439,0.32    c3.257-0.09,6.893,0.006,10.368-0.363c5.046-0.074,10.098-0.491,15.163-0.225c5.009,0.263,10.036,0.444,15.054,0.537    c1.079,0.02,2.126,0.168,3.079,0.107C310.629,418.693,310.575,430.109,310.512,441.526z M308.455,402.871    c-2.095-0.449-4.439-0.717-6.589-0.898c-4.131-0.345-8.713-0.788-12.836-0.502c-4.652,0.321-9.087,0.751-13.724,0.133    c-3.314-0.443-6.693-0.246-9.954,0.472c-3.92-0.032-7.815-0.249-11.749-0.196c-2.298,0.031-4.601,0.117-6.904,0.208    c-3.276-0.728-6.671-0.928-10.003-0.484c-4.639,0.619-9.072,0.19-13.724-0.133c-4.123-0.285-8.705,0.157-12.836,0.502    c-2.148,0.18-4.492,0.448-6.589,0.898c-0.68,0.145-1.474,0.464-2.256,0.75c0.015-4.224,0.277-8.483,0.46-12.739    c6.684,0.606,13.716,0.19,20.385,0.209c1.016,0.002,2.012-0.082,3.004-0.19c7.21,0.497,14.413,0.465,21.773,0.085    c6.516-0.337,12.992-0.213,19.533-0.187c5.375,0.022,10.77,0.418,16.051-0.342c2.452,0.131,4.859,0.64,7.369,0.632    c6.669-0.019,13.7,0.397,20.385-0.209c0.183,4.256,0.445,8.515,0.46,12.739C309.93,403.336,309.135,403.018,308.455,402.871z     M310.123,387.075c-5.837-1.54-12.762-0.709-18.549-0.631c-4.543,0.061-8.536-0.779-12.688-0.191    c-10.302-1.37-21.512-0.326-31.435,0.522c-3.605,0.308-7.254,0.346-10.913,0.314c-5.451-1.949-10.335-0.569-16.109-0.647    c-5.787-0.078-12.711-0.909-18.549,0.631c0.09-3.722,0.044-7.434-0.375-11.114c3.089-0.102,6.18-0.199,9.276-0.249    c5.695-0.093,12.035-0.086,18.044-0.873c0.102,0,0.207-0.001,0.308-0.001c8.241,0.126,16.489-0.706,24.751-0.689    c8.934,0.018,17.854,0.363,26.787,0.31c6.722,1.171,14.055,1.147,20.549,1.253c3.096,0.05,6.187,0.146,9.276,0.249    C310.078,379.641,310.033,383.354,310.123,387.075z M336.6,477.405c-0.025,6.981-2.067,16.596-0.278,24.053    c-4.348,0.456-8.713,0.832-13.107,1.091c-2.976,0.175-5.947,0.463-8.92,0.771c-0.047-2.478,0.48-4.9,0.624-7.401    c0.174-2.985,0.039-6.007,0.032-8.996c-0.011-5.261-0.016-10.52-0.034-15.781c-0.036-10.636,0.437-21.176,0.377-31.829    c-0.118-20.925,1.097-42.492-2.007-63.26c5.077,0.17,10.152,0.333,15.237,0.329c2.684-0.002,5.36,0.078,8.032,0.188    c-0.47,5.017-0.758,9.839-0.306,14.991c0.412,4.695,0.765,9.451,0.903,14.168c0.343,11.739-0.099,23.717-0.886,35.414    C335.455,453.226,336.643,465.334,336.6,477.405z M391.067,467.386c-0.132,4.505-0.507,8.997-0.648,13.502    c-0.116,3.703-0.878,7.366-0.679,11.08c-3.604,1.046-7.24,2.009-11,2.751c-2.643,0.522-5.282,1.024-7.921,1.516    c-0.068-10.01,0.525-19.912,0.461-29.95c-0.017-2.693-0.017-5.388-0.023-8.081c-0.006-2.312-0.688-6.676,0.64-8.704    c1.724-2.633,9.129-2.506,12.133-2.768c1.893-0.166,4.626-0.649,7.35-0.866c-0.06,1.343-0.389,2.86-0.438,3.997    c-0.087,2.026,0.319,3.761,0.43,5.78C391.584,459.48,391.18,463.548,391.067,467.386z M401.905,460.894    c-0.46,4.623,0.096,9.306-0.126,13.94c-0.218,4.548-0.65,9.02-0.2,13.554c-2.53,0.752-5.029,1.53-7.528,2.293    c0.666-2.668,0.592-5.653,0.663-8.323c0.137-5.265,0.429-10.557,0.365-15.826c-0.054-4.557,0.15-9.163-0.491-13.666    c-0.309-2.163-0.141-4.83-0.723-7.107c2.067,0.006,3.969,0.288,5.299,1.136C403.605,449.727,402.329,456.645,401.905,460.894z     M420.02,437.636c-1.151,15.314-3.363,30.817-3.144,46.18c-3.97,1.42-8.026,2.489-12.145,3.657    c0.92-5.596,1.579-11.271,1.621-16.935c0.042-5.627,1.167-11.476,0.604-17.055c-0.406-4.034-1.734-8.418-5.452-10.587    c-4.482-2.615-10.435-1.107-15.228-0.88c-4.342,0.205-10.845,0.117-14.785,1.956c-4.073,1.901-4.724,6.166-4.785,10.194    c-0.111,7.281,0.089,14.55,0.167,21.828c0.075,6.927-0.936,13.74-0.784,20.718c0.003,0.133,0.025,0.253,0.045,0.375    c-8.175,1.466-16.346,2.773-24.57,3.771c0.134-2.78-0.43-5.667-0.437-8.475c-0.015-5.362,0.469-10.678,0.461-16.051    c-0.016-11.73-1.149-23.44-0.598-35.187c0.481-10.258,0.378-20.485,0.034-30.702c0.061,0.009,0.12,0.025,0.184,0.029    c13.363,0.768,26.73,1.133,40,2.853c6.702,0.869,13.343,1.475,20.063,2.029c6.242,0.515,13.37,1.713,19.771,1.004    C420.746,423.454,420.554,430.543,420.02,437.636z M421.356,409.711c-0.068,1.208-0.116,2.415-0.173,3.623    c-13.3-3.257-27.269-2.894-40.767-5.002c-6.59-1.028-13.148-1.046-19.741-1.785c-3.357-0.377-6.683-0.124-10.049-0.351    c-3.451-0.233-6.324-0.745-9.774-0.301c-0.167-4.139-0.368-8.276-0.577-12.413c27.028,1.073,54.458,2.118,81.315,5.904    C421.566,402.871,421.547,406.336,421.356,409.711z M405.612,393.589c-7.94-0.672-15.98-1.421-23.904-2.017    c-8.141-0.612-16.239-0.628-24.396-1.477c-5.788-0.602-11.422-0.944-17.246-0.772c-0.218-4.208-0.439-8.418-0.645-12.629    c5.153,0.244,10.295,0.545,15.456,0.56c9.139,0.027,18.368-0.633,27.482-0.471c13.57,0.242,26.927,2.702,40.359,4.345    c-0.854,4.888-1.036,9.984-1.099,15.08C416.803,394.1,410.543,394.006,405.612,393.589z M435.655,405.477    c-0.061,10.799-0.252,21.743-0.658,32.551c-0.304,8.084-1.196,15.896-2.012,23.887c-0.382,3.743-0.242,7.62-1.305,11.286    c-1.21,4.17-4.969,6.217-8.66,8.044c-0.403,0.2-0.809,0.378-1.213,0.564c0.627-14.927,1.973-29.816,2.765-44.778    c0.482-9.113,0.53-18.208,1.049-27.32c0.524-9.208,1.271-19.081-0.289-28.278c3.742,0.424,7.491,0.774,11.254,0.975    C435.398,390.018,435.699,397.709,435.655,405.477z M463.918,396.917c-7.179,2.286-14.97,2.497-22.317,4.427    c-0.218-6.377-0.981-12.421-1.899-18.744c8.098,0.473,16.075,1.297,24.092,2.631c5.299,0.882,11.452,2.172,17.073,1.86    C477.72,392.265,468.166,395.564,463.918,396.917z M437.214,376.173c-18.354-0.278-36.535-3.888-54.854-5.079    c-9.079-0.59-18.389-0.878-27.482-1.204c-8.827-0.315-17.486-1.23-26.352-1.222c-9.124,0.008-18.17-0.506-27.304-0.379    c-4.518,0.062-8.992-0.163-13.499-0.177c-3.43-0.01-7.195-0.228-10.663,0.301c-7.38-0.007-14.773-0.392-22.141-0.386    c-6.074,0.006-12.115,0.457-18.158,0.747c-3.934-0.976-8.437-0.675-12.477-0.662c-4.507,0.015-8.982,0.24-13.499,0.177    c-9.134-0.126-18.18,0.387-27.304,0.379c-8.865-0.008-17.525,0.907-26.352,1.222c-9.094,0.326-18.404,0.614-27.482,1.204    c-18.321,1.191-36.501,4.801-54.854,5.079c-15.096,0.229-29.71,3.428-44.459,5.902c0.989-3.26,7.735-5.545,10.353-7.124    c3.821-2.304,7.78-4.441,11.247-7.263c3.547-2.887,7.075-5.678,10.777-8.362c3.164-2.295,6.771-3.569,9.879-5.868    c6.817-5.044,14.066-9.541,21.443-13.739c7.81-4.445,17.592-6.122,26.354-7.25c9.867-1.271,19.838-3.507,29.77-4.093    c7.585-0.448,15.221-0.773,22.784-1.344c11.194-0.843,22.561,0.383,33.736-0.548c4.174-0.347,8.362-0.569,12.557-0.76    c2.239-0.015,4.491-0.161,6.73-0.297c1.384-0.061,2.768-0.127,4.152-0.196c0.348-0.009,0.696-0.017,1.043-0.02    c7.146-0.064,14.313-0.177,21.462-0.336c11.243-0.25,23.566,1.596,35.12,0.629c5.877,0.255,11.748,0.496,17.591,0.982    c11.174,0.931,22.542-0.295,33.736,0.548c7.563,0.57,15.199,0.896,22.784,1.344c9.932,0.586,19.903,2.823,29.77,4.093    c8.761,1.128,18.544,2.806,26.354,7.25c7.377,4.198,14.627,8.695,21.443,13.739c3.108,2.299,6.714,3.573,9.879,5.868    c3.701,2.684,7.231,5.475,10.777,8.362c3.467,2.822,7.426,4.959,11.247,7.263c2.618,1.579,9.366,3.866,10.353,7.124    C466.925,379.6,452.31,376.403,437.214,376.173z"/>
	</g>
</g>
<g>
	<g>
		<path d="M277.682,183.885c-0.023-3.172-0.532-5.767-0.83-8.82c-0.229-2.35,0.19-3.68-1.278-5.759    c-1.797-2.546-4.564-3.953-7.544-4.544c-4.311-2.846-12.179-1.635-16.821-1.161c-2.579,0.263-7.223,0.414-10.106,2.034    c-1.839,0.783-3.473,1.971-4.673,3.672c-1.468,2.079-1.049,3.408-1.278,5.759c-0.297,3.053-0.807,5.646-0.83,8.821    c-0.036,5.021-1.968,14.522,2.345,18.292c3.069,2.683,9.791,2.359,14.131,1.676c0.973,0.014,1.934,0.012,2.859,0.012    c2.358,0.001,4.863,0.056,7.36-0.044c4.331,0.701,11.204,1.077,14.319-1.646C279.65,198.407,277.718,188.906,277.682,183.885z     M270.467,199.251c-0.306,0.107-0.63,0.175-0.962,0.225c-4.743-1.534-10.477-0.174-15.358-0.002    c-3.29,0.116-7.605-0.757-11.136,0.06c-0.514-0.043-1.012-0.123-1.473-0.283c-4.182-1.461-3.06-9.131-3.18-12.81    c-0.133-4.047-0.496-7.986,0.245-11.956c0.552-2.955,2.231-4.637,4.407-5.738c2.988-0.151,6.082-0.774,8.924-0.941    c2.391-0.14,4.746-0.311,7.146-0.297c2.129,0.013,4.14,0.156,6.281,0.306c0.067,0.005,0.94,0.075,1.695,0.126    c3.086,1.053,5.641,2.758,6.347,6.544c0.741,3.97,0.378,7.908,0.245,11.956C273.527,190.119,274.649,197.789,270.467,199.251z"/>
	</g>
</g>
<g>
</g>
<g>
</g>
<g>
</g>
<g>
</g>
<g>
</g>
<g>
</g>
<g>
</g>
<g>
</g>
<g>
</g>
<g>
</g>
<g>
</g>
<g>
</g>
<g>
</g>
<g>
</g>
<g>
</g>
</svg>
