<?xml version="1.0" encoding="iso-8859-1"?>
<!-- Generator: Adobe Illustrator 19.0.0, SVG Export Plug-In . SVG Version: 6.00 Build 0)  -->
<svg xmlns="http://www.w3.org/2000/svg" xmlns:xlink="http://www.w3.org/1999/xlink" version="1.1" id="Layer_1" x="0px" y="0px" viewBox="0 0 512.002 512.002" style="enable-background:new 0 0 512.002 512.002;" xml:space="preserve">
<g>
	<g>
		<path d="M311.316,257.234c-0.008-0.035-0.023-0.066-0.031-0.101c0.044-0.465-0.116-0.958-0.428-1.293    c-0.112-0.12-0.228-0.23-0.341-0.346c-0.763-1.069-1.887-1.89-2.938-2.743c-2.551-2.069-4.87-4.268-7.235-6.546    c-4.399-4.235-9.359-7.718-13.964-11.699c-4.39-3.796-8.896-7.388-13.446-11.004c-2.7-2.145-5.657-3.919-8.542-5.761    c-2.462-3.285-5.476-7.33-9.702-5.592c-3.611,1.485-7.467,4.054-9.812,7.332c-1.984,1.26-3.954,2.553-5.802,4.021    c-4.551,3.616-9.056,7.208-13.446,11.004c-4.605,3.981-9.566,7.464-13.964,11.699c-2.365,2.278-4.685,4.477-7.235,6.546    c-1.051,0.853-2.176,1.674-2.938,2.743c-0.113,0.116-0.229,0.227-0.341,0.346c-0.311,0.334-0.473,0.828-0.428,1.293    c-0.009,0.034-0.023,0.065-0.031,0.101c-0.081,0.368,0.135,0.698,0.485,0.785c2.251,1.915,4.305,0.963,7.112,1.003    c3.168,0.044,6.412,1.033,9.568,0.945c4.743-0.132,9.313-1.638,14.177-1.63c1.367,0.002,2.72-0.075,4.069-0.187    c3.503,0.681,7.156,0.133,10.746,0.176c3.421,0.041,6.846,0.2,10.286,0.226c5.761,0.043,12.802,1.365,18.554-0.419    c1.422,0.124,2.85,0.208,4.291,0.206c4.864-0.009,9.432,1.497,14.177,1.63c3.157,0.087,6.401-0.901,9.568-0.945    c2.808-0.039,4.862,0.912,7.112-1.003C311.18,257.933,311.395,257.603,311.316,257.234z M299.713,256.038    c-3.296,0.217-6.024,0.318-9.262-0.391c-4.001-0.875-7.853-0.759-11.931-0.836c-3.197-0.059-6.076-0.573-9.244-0.01    c-4.311-0.203-8.744,0.002-12.764,0.04c-5.182,0.049-11.143-0.795-16.612-0.294c-2.122-0.033-4.192,0.224-6.417,0.265    c-4.078,0.076-7.929-0.04-11.931,0.836c-3.238,0.708-5.966,0.608-9.262,0.391c-1.439-0.095-4.683,0.413-6.933,0.307    c2.826-2.005,5.782-5.237,7.284-6.668c4.723-4.501,9.866-8.341,14.817-12.571c4.339-3.708,8.869-7.17,13.235-10.85    c2.497-2.105,6.545-4.478,9.469-7.213c1.18-0.915,2.28-1.854,3.207-2.419c2.217-1.35,3.063-1.733,5.234-0.176    c0.724,0.519,1.429,1.004,2.136,1.469c2.918,3.216,7.739,5.952,10.572,8.34c4.366,3.68,8.896,7.141,13.235,10.85    c4.951,4.23,10.094,8.07,14.817,12.571c1.502,1.432,4.458,4.662,7.284,6.668C304.397,256.451,301.152,255.943,299.713,256.038z"/>
	</g>
</g>
<g>
	<g>
		<path d="M511.269,428.942c-4.197-4.156-7.355-8.943-12.085-12.587c-0.479-0.37-0.974-0.819-1.483-1.309    c1.66-5.702,0.396-11.276,0.636-17.174c0.229-5.631,0.878-11.76-0.68-17.254c-0.305-1.079-0.661-2.166-1.037-3.253    c0.007-0.017,0.021-0.03,0.027-0.046c3.135-8.691,1.761-19.258-0.286-28.147c-1.116-4.847-2.73-9.685-4.83-14.203    c-1.698-3.654-4.395-6.771-6.22-10.407c-3.631-7.241-9.831-12.57-17.331-15.675c-6.863-2.842-12.745-5.038-20.1-5.063    c-3.162-7.878-6.228-15.818-9.957-23.391c-1.15-4.039-4.014-5.951-7.957-7.027c-2.669-0.729-5.884-2.361-8.281-0.12    c-1.08,1.009-1.48,2.392-1.667,3.83c-3.083-0.205-6.248-0.82-9.32-0.698c-0.775,0.031-8.642-0.138-11.849,0.417    c-0.077-5.364-0.364-10.696-1.099-15.947c0.782-0.224,1.558-0.467,2.311-0.753c1.277-0.484,1.85-1.528,1.625-2.86    c-0.547-3.212-3.201-5.369-4.786-8.114c-0.239-0.413-0.489-0.815-0.739-1.217c1.219-2.373,0.969-4.926,0.972-7.933    c0.001-1.908-0.014-3.818-0.032-5.728c0.116-1.092,0.083-2.203-0.041-3.407c-0.022-1.585-0.043-3.171-0.073-4.753    c-0.041-2.179-0.118-4.356-0.235-6.532c0.01-0.537,0.018-1.072,0.017-1.606c-0.014-8.576,0.375-17.457-0.466-25.989    c-0.536-5.446-3.123-9.543-8.641-11.11c-0.543-0.155-1.145-0.297-1.783-0.423c0.715-10.791,1.174-22.486-0.609-33.144    c-0.604-3.613-1.383-7.436-4.94-9.198c-1.391-0.688-2.989-1.203-4.662-1.607c0.666-4.74,0.269-9.339,0.291-14.122    c0.024-5.28,1.111-10.706,0.144-15.992c-0.603-3.3-2.726-4.999-5.498-5.815c0.701-3.735,0.444-7.884,0.586-11.612    c0.211-5.542-0.21-11.05-0.18-16.581c0.014-2.585,0.347-4.934-1.204-6.525c3.436-6.117,1.12-17.674-1.54-23.281    c-3.171-6.681-9.925-10.655-17.395-9.946c-8.281,0.786-12.322,5.852-13.902,13.739c-0.926,4.623-0.66,9.882-0.48,14.582    c0.073,1.929-0.425,4.658,0.523,6.461c-0.142,0.5-0.247,1.044-0.279,1.683c-0.261,5.184,0.188,10.739,0.271,15.955    c0.082,5.182-0.31,10.47-0.058,15.611c0.004,0.098,0.028,0.185,0.042,0.278c-1.691,0.138-2.838,0.797-3.809,3.176    c-1.793,4.388-0.769,10.25-1.003,14.904c-0.259,5.172-0.394,10.36-0.621,15.537c-0.931,0.092-1.865,0.182-2.811,0.253    c-0.688,0.052-1.412,0.115-2.13,0.222c-0.188-1.386-0.388-2.769-0.467-4.147c-0.569-9.844-3.603-19.633-6.681-28.87    c-0.757-2.271-1.978-4.325-2.866-6.618c-0.771-1.991-2.01-3.652-3.278-5.345c-3.49-4.659-5.989-9.716-10.422-13.608    c-6.049-5.311-13.105-9.732-20.671-12.644c-1.887-1.091-4.045-1.856-5.892-2.334c0.181-2.166,0.046-4.259-0.286-6.449    c-0.018-0.115-0.042-0.226-0.062-0.339c0.737-2.898-0.302-6.258-0.612-9.159c-0.334-3.124-0.703-6.175-1.693-9.168    c-0.912-2.758-2.574-5.159-4.88-7.003c-0.238-0.19-0.47-0.347-0.703-0.5c-2.062-2.801-5.836-3.903-9.911-3.844    c-0.009-0.102-0.013-0.203-0.023-0.304c0.189-1.754,0.027-3.61,0.035-5.282c0.002-0.492-0.006-0.993-0.021-1.496    c0.033-0.521,0.06-1.044,0.069-1.568c0.042-2.758,0.541-6.223-0.25-8.862c-0.672-2.242-3.586-1.581-3.838,0.519    c-0.377,3.14-0.001,6.648,0.157,9.958c-0.003,0.054-0.009,0.117-0.012,0.17c-0.154,2.501-0.242,4.844,0.104,7.236    c-2.094,0.366-4.156,0.984-6.003,1.799c-1.793,0.442-3.417,0.74-5.213,2.175c-2.306,1.843-3.967,4.245-4.88,7.003    c-0.99,2.992-1.359,6.044-1.693,9.168c-0.31,2.901-1.349,6.259-0.612,9.159c-0.02,0.113-0.045,0.224-0.062,0.339    c-0.332,2.19-0.467,4.283-0.286,6.449c-1.847,0.478-4.005,1.243-5.892,2.334c-7.565,2.912-14.622,7.333-20.671,12.644    c-4.432,3.891-6.931,8.948-10.422,13.608c-1.267,1.693-2.507,3.354-3.278,5.345c-0.889,2.293-2.109,4.347-2.866,6.618    c-3.078,9.237-6.112,19.026-6.681,28.87c-0.08,1.377-0.279,2.761-0.467,4.147c-0.717-0.107-1.442-0.17-2.13-0.222    c-0.946-0.072-1.88-0.162-2.811-0.253c-0.226-5.177-0.361-10.366-0.62-15.537c-0.234-4.654,0.79-10.516-1.003-14.904    c-0.972-2.379-2.118-3.038-3.809-3.176c0.014-0.093,0.036-0.179,0.042-0.278c0.251-5.139-0.139-10.429-0.058-15.611    c0.083-5.217,0.533-10.772,0.271-15.955c-0.032-0.64-0.137-1.183-0.279-1.683c0.948-1.803,0.449-4.532,0.523-6.461    c0.179-4.7,0.447-9.959-0.48-14.582c-1.58-7.887-5.621-12.954-13.902-13.74c-7.47-0.709-14.224,3.265-17.395,9.946    c-2.66,5.607-4.978,17.165-1.542,23.281c-1.55,1.591-1.219,3.94-1.204,6.525c0.03,5.531-0.392,11.038-0.18,16.581    c0.142,3.728-0.115,7.877,0.587,11.612c-2.772,0.816-4.895,2.514-5.498,5.815c-0.966,5.286,0.12,10.712,0.144,15.992    c0.022,4.783-0.375,9.382,0.291,14.122c-1.674,0.404-3.271,0.919-4.662,1.607c-3.557,1.762-4.336,5.584-4.94,9.198    c-1.783,10.659-1.325,22.353-0.609,33.144c-0.637,0.126-1.24,0.268-1.783,0.423c-5.518,1.566-8.105,5.663-8.641,11.11    c-0.841,8.533-0.452,17.414-0.466,25.989c-0.001,0.533,0.005,1.07,0.017,1.606c-0.115,2.175-0.193,4.352-0.235,6.532    c-0.03,1.583-0.051,3.168-0.073,4.753c-0.123,1.205-0.157,2.315-0.041,3.407c-0.019,1.91-0.034,3.82-0.032,5.728    c0.002,3.007-0.247,5.559,0.972,7.933c-0.25,0.403-0.5,0.805-0.739,1.217c-1.586,2.746-4.24,4.901-4.786,8.114    c-0.226,1.331,0.346,2.376,1.625,2.86c0.754,0.286,1.528,0.529,2.311,0.753c-0.735,5.251-1.021,10.583-1.099,15.947    c-3.208-0.556-11.075-0.386-11.85-0.417c-3.072-0.122-6.237,0.494-9.32,0.698c-0.187-1.44-0.588-2.821-1.667-3.83    c-2.398-2.241-5.613-0.61-8.281,0.12c-3.943,1.077-6.807,2.988-7.957,7.027c-3.728,7.572-6.794,15.511-9.957,23.391    c-7.355,0.025-13.236,2.221-20.1,5.063c-7.499,3.105-13.7,8.434-17.331,15.675c-1.824,3.638-4.521,6.753-6.22,10.407    c-2.099,4.519-3.714,9.357-4.83,14.203c-2.046,8.889-3.421,19.457-0.286,28.147c0.006,0.017,0.02,0.03,0.027,0.046    c-0.376,1.087-0.732,2.172-1.037,3.253c-1.558,5.494-0.91,11.622-0.68,17.254c0.24,5.898-1.024,11.472,0.636,17.173    c-0.509,0.49-1.005,0.94-1.483,1.309c-4.731,3.644-7.89,8.432-12.085,12.587c-1.082,1.071-1.013,3.349,0.521,4.046    c2.621,1.191,5.476,1.462,8.384,1.381c-1.095,7.369-0.556,15.284-0.739,22.631c-0.097,3.929-0.193,7.857-0.287,11.786    c-0.095,4.005,0.815,7.656,0.666,11.673c-0.193,5.199-0.322,10.402-0.388,15.604c-0.025,1.985-0.015,4.079,0.973,5.801    c1.135,1.981,3.402,3.102,5.663,3.416c2.138,0.298,4.226-0.283,6.346-0.083c1.989,0.188,3.814,0.346,5.848,0.291    c5.963-0.164,11.9,0.128,17.864,0.09c11.406-0.076,22.613,0.806,34.018-0.066c11.286-0.863,22.743,0.156,34.044-0.867    c26.398-2.387,52.909,0.571,79.325,0.636c1.461,0.003,2.922,0.003,4.382,0.001c5.896-0.01,11.757-0.603,17.647-0.643    c4.364-0.03,9.288,0.902,13.497-0.474c8.483,0.198,17.056-0.269,25.487-0.255c8.047,0.013,16.046,0.23,24.098,0.234    c1.877,0.001,3.744,0.042,5.603,0.079c4.169,1.291,9.015,0.387,13.316,0.416c5.889,0.04,11.751,0.633,17.647,0.643    c1.461,0.002,2.922,0.002,4.382-0.001c26.417-0.066,52.927-3.023,79.325-0.636c11.3,1.021,22.758,0.003,34.044,0.867    c11.405,0.872,22.613-0.01,34.018,0.066c5.964,0.04,11.901-0.252,17.864-0.09c2.033,0.055,3.859-0.103,5.848-0.291    c2.119-0.2,4.208,0.381,6.346,0.083c2.262-0.314,4.527-1.435,5.663-3.416c0.987-1.722,0.998-3.816,0.973-5.801    c-0.068-5.203-0.196-10.405-0.388-15.604c-0.148-4.017,0.761-7.668,0.666-11.673c-0.094-3.929-0.188-7.857-0.287-11.786    c-0.184-7.346,0.355-15.261-0.74-22.631c2.908,0.081,5.764-0.189,8.384-1.381C512.281,432.291,512.351,430.013,511.269,428.942z     M494.064,411.436c-2.15-2.013-4.521-3.723-7.134-3.564c-4.394,0.269-6.96,6.009-9.606,8.769    c-2.222,2.318-5.084,3.987-7.234,6.325c-1.313,1.428-1.987,3.155-2.939,4.841c-0.074,0.132-0.111,0.271-0.152,0.409    c-1.714-3.057-5.426-6-7.351-8.28c-2.513-2.976-4.898-6.297-7.639-9.067c-0.937-0.948-2.281-1.805-3.58-2.696    c-0.667-0.943-1.353-1.856-2.115-2.62c0.146-0.259,0.253-0.551,0.31-0.878c0.86-5.009,0.925-10.151,0.803-15.305    c7.973-0.663,16.277-0.769,24.252-0.84c7.062-0.063,14.631,0.695,21.528-1.036C493.962,395.414,492.605,403.593,494.064,411.436z     M463.559,449.525c0.055,2.947-0.628,6.282-0.619,9.324c-4.747,0.395-9.328,0.67-14.09,0.127    c-4.036-0.459-8.09-0.501-12.099-1.005c-2.544-0.32-5.087-0.248-7.635-0.218c0.919-3.635-0.259-8.424-0.374-11.813    c-0.125-3.686-0.317-7.368-0.474-11.051c-0.012-0.272-0.016-0.529-0.017-0.782c3.601-0.018,7.85-1.049,10.046-1.087    c5.726-0.097,11.782,0.284,17.493,0.791c2.805,0.25,5.33-0.201,7.991-0.173C463.238,438.882,463.462,444.321,463.559,449.525z     M423.787,433.185c-0.567,3.154-0.198,6.702-0.299,9.67c-0.162,4.747-0.751,9.88-0.286,14.683    c-0.01-0.001-0.021-0.002-0.031-0.002c-2.099-0.251-4.049-0.286-6.162-0.243c-2.354,0.046-4.578-0.666-6.843-0.637    c-2.571,0.033-5.323-0.246-7.989-0.248c0.975-6.856,0.378-13.763,0.042-20.686c-0.198-4.065-0.04-8.107-0.024-12.17    c0.014-3.839-0.711-7.574-0.747-11.398c-0.077-8.071-0.426-16.143-0.767-24.216c7.178,0.946,15.069,0.699,22.188,0.704    c5.768,0.004,11.506,0.926,17.272,1.054c-0.011,1.671-0.074,3.337-0.242,4.991c-0.297,2.904-1.188,7.068,0.165,9.944    c-0.83,0.64-1.586,1.522-2.32,2.424c-3.424,4.209-6.663,8.706-10.332,12.687c-2.112,2.291-4.436,5.047-5.134,8.211    C421.666,430.721,422.371,432.315,423.787,433.185z M440.159,372.143c-0.133,1.216-0.19,2.44-0.226,3.668    c-0.105,0.033-0.216,0.058-0.32,0.092c-0.127,0.043-0.237,0.116-0.338,0.199c-1.658-0.235-3.554-0.355-5.253-0.414    c0.001-1.393-0.065-2.822-0.259-4.224c-0.201-3.466-1.545-7.302-2.295-9.937c-1.556-5.47-3.569-9.969-8.228-13.438    c-6.134-4.566-16.299-6.77-23.943-3.893c-0.03-1.231-0.07-2.46-0.078-3.693c-0.002-0.379-0.002-0.757-0.004-1.135    c4.057,0.834,9.647-0.598,13.187-0.339c6.071,0.444,12.539,0.44,18.62-0.062c3.181-0.263,7.183-2.866,9.182,0.605    c1.983,3.445,0.639,7.502,0.715,11.174C441.071,357.969,440.943,364.944,440.159,372.143z M442.183,410.686    c3.892-3.72,9.264,5.972,11.188,8.396c1.994,2.516,3.946,5.051,5.902,7.596c0.416,0.541,0.969,1.127,1.514,1.743    c-1.055,0.056-2.127,0.107-3.332,0.032c-3.715-0.231-7.364-0.59-11.102-0.745c-3.761-0.156-7.368-0.892-11.147-0.456    c-1.722,0.198-3.383,0.63-5.104,0.806c-0.447,0.049-0.896,0.06-1.344,0.085c0.02-0.062,0.048-0.103,0.063-0.18    c1.618-3.451,4.264-6.303,6.84-9.057c1.319-1.411,2.689-2.783,3.948-4.25C440.572,413.538,441.194,411.632,442.183,410.686z     M405.193,347.577c4.937-0.272,11.309,1.069,15.453,3.872c4.927,3.332,6.839,9.067,8.191,14.608    c0.133,0.546,0.245,1.099,0.35,1.657c-0.013,0.541,0.008,1.075,0,1.656c-0.019,1.323,0.043,2.606-0.01,3.949    c-0.024,0.609-0.041,1.139-0.112,1.754c-0.028,0.205-0.055,0.408-0.082,0.613c-5.148,0.277-10.297,0.226-15.447,0.143    c-3.192-0.052-6.764-0.91-10.011-0.613c-0.025-0.009-0.05-0.02-0.075-0.03c-1.148-0.407-2.231-0.526-3.262-0.32    c-0.102-3.264-0.183-6.528-0.214-9.793c-0.048-5.243-0.314-10.466-0.518-15.699C401.223,348.598,402.83,347.708,405.193,347.577z     M401.881,379.901c0.95,0.173,1.908,0.453,2.878,0.431c2.585,0.424,5.278,0.346,7.904,0.478c3.758,0.188,7.507,0.191,11.278,0.313    c3.829,0.124,7.759-0.655,11.621-0.756c1.227-0.032,2.859-0.01,4.352-0.287c0.033,1.507,0.09,3.019,0.139,4.529    c-5.72-0.174-11.386-0.585-17.185-0.666c-7.386-0.103-14.997-0.269-22.384-0.884c-0.043-1.079-0.087-2.157-0.129-3.236    C400.862,379.812,401.366,379.807,401.881,379.901z M453.374,379.621c4.268-0.156,8.602,0.355,12.907,0.29    c4.753-0.073,9.441-0.631,14.229-0.698c3.544-0.05,7.228,0.128,10.8-0.247c0.573,1.627,1.067,3.264,1.388,4.911    c0.046,0.243,0.082,0.488,0.123,0.733c-6.658-0.725-13.559-0.422-20.177-0.459c-8.235-0.046-16.534,0.257-24.745,0.495    c-0.206,0.006-0.409,0.004-0.614,0.009c-0.058-1.631-0.115-3.26-0.154-4.883C449.095,379.839,451.125,379.703,453.374,379.621z     M449.989,374.543c0.001-0.013,0.004-0.025,0.005-0.038c1.78-3.911,3.727-7.736,6.075-11.346c0.399-0.615,2.233-3.282,3.565-5.042    c0.433,0.914,0.863,1.833,1.451,2.663c1.672,2.361,3.52,4.524,5.045,7.009c1.189,1.936,2.358,4.772,3.8,7.106    c-0.891,0.059-1.775,0.115-2.645,0.16c-4.661,0.249-9.511-0.466-14.111-0.51C452.148,374.536,451.078,374.531,449.989,374.543z     M478.299,374.367c0.769-1.874,1.594-3.71,2.361-5.594c0.867-2.131,1.739-4.262,2.62-6.392c0.168-0.406,0.307-0.928,0.442-1.494    c0.168,0.526,0.335,1.015,0.512,1.414c1.144,2.572,2.523,4.987,3.518,7.633c0.573,1.524,1.217,3.067,1.855,4.624    C485.919,374.157,482.093,374.185,478.299,374.367z M465.651,314.417c3.829,1.456,7.54,3.882,10.466,6.751    c2.7,2.648,3.915,5.819,5.781,9.032c2.202,3.794,4.583,6.725,6.275,10.881c1.648,4.046,2.9,8.037,3.86,12.311    c1.159,5.159,1.044,10.353,1.158,15.538c-0.673-1.474-1.361-2.925-2.046-4.334c-1.671-3.437-3.158-8.589-5.816-11.378    c-0.895-0.938-2.509-0.91-3.406,0c-2.376,2.41-3.081,6.93-4.496,10.017c-1.011,2.209-1.887,4.405-2.96,6.577    c-0.131,0.262-0.27,0.777-0.424,1.347c-0.236-0.512-0.464-1.004-0.702-1.409c-1.24-2.114-2.525-4.229-3.84-6.297    c-1.289-2.031-2.861-3.794-4.198-5.774c-1.071-1.588-1.558-3.49-2.708-5.018c-0.774-1.027-1.679-1.42-2.971-1.21    c-2.75,0.448-4.285,3.808-5.95,5.84c-2.39,2.918-4.429,6.145-6.263,9.477c0.189-3.652,0.336-7.299,0.059-11.058    c-0.22-2.973-0.765-5.741-0.635-8.731c0.024-0.562-0.268-2.164-0.494-3.625c3.453,0.678,8.345-0.304,10.771-1.964    c4.398-3.01,1.972-7.852,0.504-11.788c-2.229-5.973-4.004-12.043-6.506-17.928c-0.138-0.325-0.271-0.654-0.408-0.979    C455.898,311.064,460.447,312.437,465.651,314.417z M427.45,281.277c0.335-3.282,3.965-3.212,5.832-1.092    c1.941,2.203,1.92,5.468,3.065,8.056c3.087,6.974,5.995,14.326,8.554,21.698c1.585,4.564,3.036,9.135,4.313,13.63    c0.516,1.814,4.53,11.58,3.756,12.695c-0.73,1.052-4.622,0.004-5.085-0.118c-0.551-0.146-0.954-0.269-1.272-0.38    c-3.458-11.287-7.81-22.305-11.487-33.549c-1.251-3.822-2.63-7.604-4.187-11.312C429.762,288.098,427.125,284.458,427.45,281.277z     M398.873,280.622c3.627,0.999,7.244,1.78,11.07,2.003c4.38,0.256,8.944,1.614,13.269,1.424c0.385-0.017,0.727-0.094,1.048-0.199    c0.819,2.491,2.105,4.826,3.047,7.27c2.129,5.527,3.434,11.345,5.334,16.952c2.01,5.937,4.278,11.763,5.993,17.795    c0.574,2.017,1.067,4.204,1.678,6.349c-4.421-0.726-9.094,0.843-13.57,0.728c-2.981-0.076-5.967-0.167-8.95-0.152    c-2.794,0.016-5.559-0.665-8.327-0.6c-3.256,0.076-6.931,0.099-10.256,0.748c0.004-6.679,0-13.363-0.387-20.023    C398.204,302.32,398.853,291.426,398.873,280.622z M396.054,255.226c0.121,0.204,0.234,0.405,0.34,0.605    c-3.99,0.361-7.914,0.716-11.933,0.331c-3.182-0.305-6.595-0.227-9.791-0.153c-0.724,0.017-3.203,0.052-4.551,0.235    c1.844-2.731,3.194-5.806,4.738-8.704c1.257-2.363,2.676-4.879,4.592-6.773c0.651-0.643,1.697-1.747,2.571-2.112    c2.192-0.912,1.386-0.921,2.982,0.745c2.712,2.829,4.51,7.097,6.899,10.276C393.289,251.523,394.566,253.482,396.054,255.226z     M368.616,410.46c-0.371-17.691-0.56-35.434-0.645-53.14c-0.087-18.364-0.635-36.698-0.739-55.055    c-0.044-7.953,0.147-15.867,0.219-23.798c0.049-5.414,0.629-10.88,0.558-16.307c5.295,1.143,11.474-0.352,16.818,0    c2.795,0.185,5.72,0.083,8.589-0.344c-0.855,7.513-0.599,15.391-0.643,22.856c-0.055,9.402-0.293,18.856,0.213,28.246    c0.494,9.178,0.217,18.395,0.162,27.584c-0.017,2.711,0.033,5.417,0.096,8.122c-0.027,0.167-0.022,0.335,0.012,0.499    c0.118,4.987,0.285,9.968,0.245,14.955c-0.132,15.785,0.84,31.557,0.782,47.315c-0.056,15.284,1.195,30.522,0.587,45.829    c-8.257,0.383-16.584,0.155-24.852,0.124c-0.406-0.002-0.816-0.012-1.223-0.014C368.828,441.7,368.945,426.108,368.616,410.46z     M377.124,143.669c3.645,2.197,2.989,10.007,3.018,13.53c0.056,6.925-0.292,13.872-0.967,20.75    c-1.369-0.134-2.742-0.201-4.121-0.222c0.488-4.836,0.048-9.966,0.038-14.716c-0.016-6.669-0.073-13.338-0.131-20.005    C375.867,143.186,376.684,143.403,377.124,143.669z M377.732,185c1.854,0.542,3.779,0.889,5.983,1.191    c8.737,1.201,6.64,11.321,6.539,17.958c-0.101,6.644-0.043,13.302-0.2,19.943c-0.076,3.216-0.099,6.716,0.578,9.979    c-0.134,1.66-0.266,3.398-0.303,5.122c-1.452-2.72-3.388-5.943-5.85-6.491c-3.834-0.854-8.977,4.631-10.982,7.243    c-2.24,2.918-4.282,6.255-6.118,9.627c0.06-4.459-0.021-8.929-0.029-13.403c-0.013-7.062,0.442-14.058,0.512-21.1    c0.066-6.666-0.266-13.241-0.364-19.897c-0.046-3.202-0.046-6.549-0.209-9.759C370.783,185.207,374.227,184.864,377.732,185z     M371.807,177.765c-3.183,0.105-6.377,0.396-9.562,0.695c0.29-10.009,0.24-20.07-0.211-30.073    c-0.102-2.243-0.166-4.488-0.215-6.734c0.266,0.006,0.532,0.025,0.799,0.028c2.872,0.021,5.636,0.166,8.476,0.693    c0.242,0.044,0.578,0.096,0.945,0.151c-0.061,6.106-0.117,12.212-0.134,18.318C371.89,166.32,372.432,172.225,371.807,177.765z     M363.523,358.361c0.113,17.706,0.329,35.429,0.458,53.124c0.112,15.259-0.09,30.526-0.142,45.787    c-2.589-0.047-5.183-0.099-7.773-0.135c-0.246-16.968-1.425-33.912-1.516-50.861c-0.085-15.985-0.084-31.948,0.21-47.937    c0.314-17.094-0.048-34.356,1.006-51.424c0.512-8.305,0.271-16.632,0.547-24.942c0.203-6.085,0.655-11.906,0.173-17.914    c2.355-0.349,5.131-0.933,7.159-1.858c0.324-0.148,0.57-0.418,0.771-0.725c-1.371,14.206-1.205,28.645-1.243,42.872    C363.127,322.346,363.408,340.354,363.523,358.361z M353.313,258.523c-3.374,0.042-7.094,0.356-10.419,0.159    c-5.717-0.338-11.588-1.16-17.34-1.127c1.461-3.809,4.349-7.392,6.413-10.791c1.123-1.85,6.923-10.204,9.418-9.82    c0.62,0.095,3.917,4.417,4.492,5.027c1.815,1.927,3.381,4.09,5,6.182c2.029,2.622,4.532,5.001,6.739,7.514    c0.526,0.758,1.077,1.597,1.481,2.375C357.105,258.378,354.788,258.504,353.313,258.523z M364.316,187.45    c-0.3,3.436-0.488,7.021-0.456,10.475c0.062,6.587,0.089,13.182-0.3,19.77c-0.44,7.493-0.515,14.928-0.529,22.45    c-0.009,4.442,0.04,8.89-0.001,13.331c-0.003,0.338-0.013,0.658-0.025,0.968c-1.542-2.276-3.757-4.302-5.776-5.914    c-1.339-2.177-2.71-4.315-4.317-6.444c-2.027-2.686-4.277-5.134-6.442-7.703c-1.159-1.375-2.459-2.979-4.256-3.461    c0.308-2.632,0.225-5.367,0.333-7.964c0.178-4.276,0.065-8.716-0.131-12.987c-0.352-7.674-0.399-15.596-1.214-23.269    c2.157-0.19,4.308-0.416,6.541-0.478c5.017-0.139,9.952-0.724,14.957-0.674c0.677,0.007,1.351-0.003,2.023-0.022    C364.541,186.266,364.359,186.969,364.316,187.45z M349.765,68.289c2.01-0.044,4.004-0.012,6.067,0.167    c0.65,0.056,1.794,0.007,3.099-0.034c-0.892,7.548-0.261,15.256-0.174,22.814c0.035,3.022-0.066,6.051-0.198,9.085    c-1.537,0.147-2.963,0.29-4.16,0.336c-1.708,0.065-3.423,0.141-5.141,0.207c0.051-1.888,0.104-3.775,0.178-5.639    C349.543,92.603,351.287,73.19,349.765,68.289z M350.195,154.283c0.008-4.551-0.11-9.107-0.266-13.663    c2.959,0.331,5.921,0.694,8.866,0.898c0.028,2.596,0.059,5.191,0.112,7.781c0.2,9.8,0.505,19.68-0.079,29.472    c-2.608,0.225-5.207,0.401-7.784,0.426c0.024-0.114,0.039-0.234,0.04-0.363C351.166,170.637,350.18,162.485,350.195,154.283z     M353.239,106.144c1.671-0.065,3.37-0.227,5.072-0.383c-0.219,4.82-0.377,9.644-0.082,14.462c0.301,4.925,0.419,9.872,0.49,14.822    c-3.007-0.113-6.023-0.273-9.016-0.518c-0.133-3.312-0.269-6.625-0.387-9.934c-0.217-6.038-0.25-12.223-0.163-18.375    C350.517,106.212,351.879,106.197,353.239,106.144z M366.124,78.726c0.387,6.994-0.702,14.336,0.688,21.246    c-1.827-0.112-3.747-0.024-5.603,0.117c0.053-3.175,0.065-6.348-0.076-9.512c-0.323-7.232,0.547-14.957-0.214-22.193    c2.295-0.008,4.597,0.16,5.407,1.029C366.523,69.624,366.026,76.955,366.124,78.726z M371.18,108.795    c0.206,1.22,0.021,3.036,0.049,4.224c0.168,7.548-0.519,15.239,0.536,22.768c-2.471-0.338-4.952-0.494-7.129-0.551    c-0.973-0.027-1.956-0.058-2.934-0.087c-0.081-4.981-0.174-9.96-0.491-14.925c-0.312-4.884-0.226-9.786-0.113-14.689    c1.155-0.082,2.309-0.145,3.447-0.141C367.926,105.405,370.556,105.113,371.18,108.795z M352.855,36.761    c6.774,0.217,11.626,5.008,13.239,11.45c1.328,5.301,0.276,10.964,1.11,16.243c-3.729-1.176-8.331-0.522-12.068-0.91    c-4.192-0.435-9.073-0.228-13.261,0.39c-0.312,0.046-0.595,0.107-0.879,0.169C341.901,53.293,337.442,36.268,352.855,36.761z     M347.207,78.628c-0.048,5.544-0.506,11.067-0.739,16.597c-0.08,1.898-0.135,3.815-0.187,5.733    c-1.438,0.038-2.875,0.063-4.312,0.049c0.006-0.111,0.02-0.216,0.011-0.335c0.098-8.582,0.09-17.159-0.106-25.76    c-0.033-1.431-0.89-4.532-0.349-5.806c-0.714-0.097-0.517-0.241,0.592-0.43c1.189,0.029,2.369-0.041,3.542-0.208    c0.549-0.036,1.085-0.061,1.625-0.089C346.797,71.701,347.234,75.424,347.207,78.628z M337.687,110.495    c0.204-5.421-0.07-4.234,4.927-4.272c1.189-0.009,2.377-0.005,3.566-0.002c-0.081,5.815-0.06,11.652,0.071,17.38    c0.081,3.544,0.21,7.088,0.341,10.632c-0.456-0.049-0.914-0.089-1.368-0.142c-2.824-0.335-5.557-0.257-8.287-0.042    C337.22,126.197,337.392,118.343,337.687,110.495z M337.719,139.983c3.002-0.157,6.038,0.025,9.084,0.314    c0.154,4.662,0.266,9.324,0.226,13.985c-0.071,8.197,0.863,16.36,0.735,24.549c-0.002,0.174,0.024,0.329,0.062,0.474    c-3.538,0.212-7.014,0.666-10.581,0.686c0.051-2.905-0.519-5.925-0.591-8.774c-0.124-4.969-0.136-9.883-0.444-14.842    c-0.293-4.722-0.68-9.472-0.802-14.199c-0.018-0.688-0.02-1.404-0.019-2.129C336.199,140.037,336.987,140.021,337.719,139.983z     M326.975,140.688c1.628-0.4,3.524-0.53,5.422-0.585c0.028,0.692,0.052,1.383,0.054,2.076c0.013,4.416,0.236,8.838,0.322,13.257    c0.162,8.206,0.076,16.408,0.633,24.587c-1.588,0.034-3.177,0.093-4.77,0.081c-0.811-0.006-1.629,0.07-2.445,0.165    c0.329-1.071,0.477-2.297,0.513-3.648c0.111-4.053,0.28-7.599-0.118-11.703c-0.294-3.036-0.3-6.138-0.402-9.184    C326.132,154.133,324.882,141.204,326.975,140.688z M333.616,186.904c1.797,0.128,3.527,0.089,5.235-0.018    c-0.61,7.602,0.194,15.518,0.342,23.088c0.084,4.299,0.168,8.69-0.047,12.987c-0.139,2.8-0.587,5.681-0.461,8.497    c-1.467,0.788-2.749,2.115-3.833,3.172c-2.207,2.149-4.705,4.575-6.548,7.044c-0.943,1.263-1.849,2.6-2.717,3.965    c-0.022-0.984-0.04-1.933-0.036-2.819c0.025-7.761,0.485-15.492,0.63-23.257c0.132-7.064,0.08-14.169-0.317-21.208    c-0.203-3.606-0.278-7.21-0.717-10.807c-0.104-0.853-0.24-1.702-0.356-2.554C327.598,186.012,330.451,186.677,333.616,186.904z     M330.853,264.046c4.26,0.291,8.79,0.777,13.022,0.784c2.188,0.003,4.384-0.64,6.608-0.643c0.961-0.002,1.912,0.063,2.866,0.085    c-1.588,14.156-1.068,28.458-1.985,42.643c-1.104,17.068-0.831,34.327-1.191,51.424c-0.335,15.99-0.398,31.95-0.344,47.937    c0.059,16.933,1.018,33.869,1.174,50.828c-1.964,0.002-3.925,0.019-5.878,0.082c-5.581,0.177-11.97-0.969-17.276,0.569    c-0.005-0.056-0.016-0.114-0.02-0.17c-0.308-3.751-0.616-7.507-0.789-11.263c-0.326-7.126-0.59-14.336-0.589-21.466    c0.001-15-0.796-29.947-0.249-44.968c0.578-15.868,0.075-31.795,0.25-47.666c0.158-14.406-0.246-28.727-1.061-43.111    c-0.489-8.62-0.714-17.279-1.325-25.897C326.133,264.199,328.392,263.878,330.853,264.046z M327.353,476.816    c-7.198-0.046-14.416-0.034-21.636-0.318c-6.218-0.245-12.407,0.218-18.633,0.225c-3.828,0.003-7.752-0.22-11.618-0.048    c-2.337-0.128-4.714-0.017-6.994-0.048c-5.433-0.075-10.85-0.2-16.291-0.174c-4.812,0.023-9.709-0.438-14.494-0.228    c-1.882,0.083-3.882,0.087-5.792,0.39c-2.337,0.029-4.674,0.11-6.973,0.107c-6.225-0.006-12.415-0.468-18.633-0.225    c-7.219,0.283-14.438,0.271-21.636,0.318c-1.121,0.008-2.293,0.017-3.482,0.035c0.012-0.885,0.021-1.77,0.175-2.65    c0.484-2.753,2.58-1.95,5.273-2.281c1.236-0.153,2.624-0.215,4.047-0.294c4.811,0.482,9.637,0.426,14.498,0.446    c3.135,0.013,8.296,1.099,12.141,0.321c0.5,0.267,1.013,0.531,1.558,0.631c2.799,0.508,6.005,0.104,8.87,0.288    c6.995,0.448,13.985,0.495,21.009,0.602c6.329,0.097,12.638-0.018,18.948,0.1c4.934,0.092,10.517,0.249,15.47-1.026    c1.287-0.064,2.475-0.165,3.411-0.205c2.521-0.104,4.911,0.019,6.528-0.862c3.884,1.594,10.147,0.165,13.743,0.151    c4.861-0.019,9.687,0.036,14.498-0.446c1.423,0.08,2.811,0.142,4.047,0.294c2.694,0.331,4.79-0.473,5.273,2.281    c0.155,0.881,0.163,1.765,0.175,2.651C329.646,476.832,328.474,476.823,327.353,476.816z M332.546,481.651    c0.085,0.034,0.164,0.082,0.253,0.104c0.849,0.206,1.702,0.22,2.554,0.163c2.162,0.197,7.596-0.924,8.181,2.053    c0.511,2.604-2.049,2.025-3.648,1.891c-7.762-0.65-15.55,0.359-23.351-0.258c-7.901-0.624-16.411-0.11-24.378,0.084    c-7.82,0.191-16.772-1.508-24.399,0.584c-0.618,0.022-1.233,0.046-1.847,0.07c-4.876,0.189-9.708-0.386-14.575-0.384    c-3.113,0.001-6.236-0.209-9.353-0.201c-7.098-1.271-15.081,0.103-22.14-0.07c-7.967-0.194-16.477-0.709-24.378-0.084    c-7.801,0.616-15.589-0.393-23.351,0.258c-1.599,0.134-4.16,0.713-3.648-1.891c0.584-2.978,6.018-1.857,8.181-2.053    c0.853,0.058,1.705,0.043,2.554-0.163c0.091-0.022,0.169-0.07,0.253-0.104c0.874-0.079,1.693-0.141,2.415-0.151    c7.092-0.1,14.189-0.042,21.309-0.164c12.957-0.22,25.921,0.234,38.88-0.62c3.7,0.2,7.39,0.47,11.127,0.492    c7.351,0.045,16.841,1.701,24.461-0.133c10.392,0.33,20.785,0.082,31.173,0.259c7.122,0.122,14.218,0.064,21.309,0.164    C330.853,481.51,331.673,481.572,332.546,481.651z M220.62,391.423c-3.204-6.366-9.179-7.804-16.036-6.987    c-5.53,0.66-9.621,3.938-12.415,8.419c0.013-1.274,0.029-2.548,0.028-3.821c-0.001-5.286-0.049-10.571-0.108-15.857    c3.93-1.135,8.653-6.951,11.356-8.376c4.567-2.409,12.979,6.104,17.017,9.283c-0.538,3.279,0.089,6.763,0.229,10.061    c0.012,0.279,0.018,0.559,0.029,0.839C220.607,387.079,220.533,389.268,220.62,391.423z M319.834,392.855    c-2.793-4.481-6.884-7.759-12.415-8.419c-6.857-0.818-12.833,0.621-16.036,6.987c0.086-2.154,0.012-4.343-0.1-6.44    c0.011-0.28,0.017-0.559,0.029-0.839c0.141-3.298,0.767-6.782,0.229-10.061c4.038-3.178,12.45-11.692,17.017-9.283    c2.703,1.425,7.426,7.241,11.356,8.376c-0.06,5.286-0.107,10.571-0.108,15.857C319.806,390.307,319.822,391.581,319.834,392.855z     M291.387,468.168c-0.852,0.888-3.662,0.485-4.816,0.509c-0.637,0.013-1.308,0.043-1.985,0.07    c-2.195-0.763-4.614-0.902-7.078-0.83c-0.715-0.484-0.778-1.318-1.038-3.191c-0.561-4.042-1.347-7.926-1.419-12.025    c-0.021-1.159-0.01-2.344-0.014-3.496c-0.023-5.986,9.335-2.593,12.942-2.623c1.277,0.485,2.224,1.471,2.959,3.612    c1.288,3.758,0.848,8.834,0.822,12.801C291.752,463.802,291.879,467.654,291.387,468.168z M270.982,452.701    c0.045,2.973,0.032,6.089,0.647,9c0.401,1.893,0.333,4.419,0.816,6.506c-1.397,0.084-2.766,0.139-4.067,0.08    c-6.787-0.31-13.794,0.002-20.606,0.153c-2.782,0.062-5.552,0.131-8.321,0.193c0.603-2.161,0.495-4.907,0.923-6.931    c0.615-2.911,0.602-6.027,0.647-9c0.053-3.465,1.4-8.899-2.762-10.276c-0.613-0.203-1.274-0.353-1.966-0.459    c1.087-6.542,0.315-14.159,0.124-20.706c-0.172-5.894-0.124-11.828-0.222-17.732c2.634-10.215,7.861-19.718,19.455-21.501    c5.198-0.799,11.729,1.391,14.698,6.062c3.255,5.12,4.363,12.932,5.093,18.799c0.029,0.235,0.153,0.437,0.322,0.593    c-0.04,4.596-0.046,9.198-0.179,13.778c-0.191,6.548-0.964,14.165,0.124,20.706c-0.692,0.107-1.352,0.257-1.966,0.459    C269.582,443.802,270.928,449.236,270.982,452.701z M247.562,325.719c1.17-3.873,6.264-8.924,10.77-8.359    c3.876,0.486,6.639,6.721,7.253,9.9c0.917,4.755,0.409,9.253,0.25,14.028c-0.218,6.516,0.963,13.161,0.613,19.645    c-3.63-3.757-9.726-7.241-13.965-4.738c-2.261,1.335-4.35,2.969-6.43,4.587c0.157-2.534-0.172-5.042-0.148-7.635    c0.039-4.281,0.467-8.55,0.456-12.849C246.349,335.622,246.191,330.262,247.562,325.719z M251.381,362.609    c0.994-0.646,2.925-2.37,4.119-2.452c1.367-0.094,3.732,1.896,4.596,2.517c1.659,1.193,3.042,2.197,4.735,2.628    c1.656,1.352,3.269,2.811,4.806,3.941c2.976,2.187,5.418,3.343,5.713,7.087c0.421,5.365,0.717,10.875,0.709,16.337    c-2.72-8.585-9.201-15.353-19.835-14.348c-6.737,0.637-13.239,4.163-17.289,9.606c-1.038,1.396-2.071,3.078-2.989,4.908    c-0.014-5.516,0.28-11.083,0.706-16.503c0.294-3.744,2.737-4.9,5.713-7.087c1.01-0.742,2.054-1.63,3.12-2.534    C247.467,365.329,249.409,363.891,251.381,362.609z M279.617,392.083c0.006-4.293,0.01-8.617-0.227-12.872    c-0.114-2.044,0.211-4.812-0.528-6.801c1.039,0.092,2.105,0.073,3.059,0.118c1.682,0.081,4.209-0.879,5.265,0.661    c0.988,1.44-0.044,3.872-0.04,5.365c0.003,1.184,0.048,2.431,0.106,3.691c-0.046,0.836-0.09,1.654-0.137,2.437    c-0.381,6.251-0.634,12.51-0.817,18.768c-0.201,6.897-0.309,13.783-0.289,20.677c0.018,5.946-1.166,12.501-0.027,18.397    c-0.689-0.049-1.379-0.084-2.07-0.101c-1.493-0.344-4.195-0.055-4.926-1.632c-0.821-1.774,0.075-5.784,0.163-7.735    c0.23-5.096,0.585-10.189,0.656-15.293C279.927,409.204,279.607,400.644,279.617,392.083z M284.13,366.937    c-2.501-0.112-4.982-0.198-7.459-0.417c-0.18-0.017-0.349-0.029-0.515-0.04c1.179-4.827,0.425-11.223,0.361-15.558    c-0.084-5.772-0.537-21.226,7.542-21.623c8.67-0.427,9.289,14.564,9.565,20.397c0.274,5.788-1.316,11.674-0.982,17.424    C290.046,366.325,286.53,367.044,284.13,366.937z M301.584,352.489c0.13-1.879,0.667-9.256,5.466-5.841    c2.066,1.471,2.302,4.56,2.479,6.765c0.191,2.394,0.252,4.802,0.402,7.199c-0.941-0.55-1.929-0.889-2.974-0.8    c-1.898,0.162-3.749,1.042-5.508,2.103C301.771,358.766,301.394,355.213,301.584,352.489z M315.071,364.886    c-0.927-0.705-1.913-1.706-2.966-2.637c1.54-6.233,0.468-22.075-8.655-19.135c-4.415,1.422-4.781,6.782-5.131,10.706    c-0.301,3.384-1.535,7.432-1.225,10.934c-0.712,0.449-1.383,0.896-2.036,1.348c0.336-3.009,1.035-6.007,1.147-9.079    c0.155-4.244,0.185-8.03-0.157-12.27c-0.553-6.872-2.432-17.78-11.269-18.476c-8.352-0.657-10.78,10.06-11.438,16.406    c-0.535,5.162-0.508,10.359-0.743,15.536c-0.105,2.314-0.758,5.242-0.642,7.873c-0.111-0.079-0.232-0.159-0.336-0.236    c-0.781-0.571-1.558-1.224-2.337-1.894c0.243-0.262,0.414-0.609,0.45-1.048c0.397-4.786-0.708-9.606-0.859-14.413    c-0.177-5.639,0.816-11.397,0.246-16.989c-0.564-5.54-3.627-16.969-11.138-16.753c-8.647,0.249-13.17,7.55-14.138,15.125    c-0.826,6.459-0.508,12.917-0.838,19.415c-0.226,4.453-0.197,8.887,0.715,13.263c-1.134,0.816-2.415,1.598-3.666,2.434    c-0.061-2.324-0.557-4.779-0.647-6.774c-0.235-5.177-0.208-10.374-0.743-15.536c-0.657-6.346-3.085-17.063-11.438-16.405    c-8.837,0.696-10.716,11.604-11.269,18.476c-0.342,4.24-0.312,8.026-0.157,12.27c0.112,3.072,0.81,6.07,1.147,9.079    c-0.652-0.451-1.325-0.9-2.036-1.348c0.31-3.502-0.924-7.55-1.225-10.934c-0.35-3.924-0.716-9.283-5.131-10.706    c-9.125-2.94-10.196,12.902-8.655,19.135c-1.052,0.931-2.039,1.933-2.966,2.637c-1.55,1.178-2.974,2.312-4.302,3.548    c1.534-5.72,2.199-11.884,4.116-17.445c3.088-8.961,7.299-18.112,13.191-25.577c5.759-7.296,12.193-13.982,20.181-18.867    c3.641-2.227,7.535-4.167,11.538-5.677c2.088-0.518,4.191-0.994,6.272-1.438c1.332-0.185,2.657-0.369,3.961-0.647    c2.544-0.277,5.066-0.284,7.585-0.135c3.427,0.84,7.046,0.794,10.49,2.067c4.138,1.531,8.163,3.533,11.919,5.83    c7.988,4.885,14.422,11.57,20.181,18.867c5.892,7.466,10.103,16.616,13.191,25.577c1.917,5.561,2.582,11.724,4.116,17.445    C318.044,367.198,316.621,366.062,315.071,364.886z M210.556,361.914c-1.759-1.059-3.61-1.941-5.508-2.103    c-1.045-0.089-2.033,0.25-2.974,0.8c0.148-2.397,0.209-4.805,0.402-7.199c0.177-2.206,0.413-5.294,2.479-6.765    c4.797-3.415,5.335,3.962,5.466,5.841C210.609,355.213,210.232,358.766,210.556,361.914z M219.361,367.119    c0.334-5.749-1.256-11.636-0.982-17.424c0.276-5.833,0.895-20.823,9.565-20.397c8.079,0.397,7.626,15.851,7.542,21.623    c-0.064,4.335-0.818,10.73,0.361,15.558c-0.165,0.011-0.334,0.023-0.515,0.04c-2.477,0.219-4.958,0.305-7.459,0.417    C225.473,367.044,221.957,366.325,219.361,367.119z M225.994,424.128c0.021-6.895-0.087-13.78-0.289-20.677    c-0.183-6.258-0.436-12.518-0.817-18.768c-0.048-0.782-0.09-1.601-0.137-2.437c0.059-1.259,0.103-2.508,0.106-3.691    c0.004-1.493-1.028-3.925-0.041-5.365c1.056-1.539,3.582-0.58,5.265-0.661c0.954-0.045,2.02-0.025,3.059-0.118    c-0.739,1.989-0.415,4.757-0.528,6.801c-0.236,4.255-0.232,8.579-0.227,12.872c0.01,8.561-0.31,17.122-0.19,25.683    c0.071,5.103,0.426,10.196,0.656,15.293c0.089,1.951,0.984,5.961,0.163,7.735c-0.729,1.577-3.432,1.288-4.926,1.632    c-0.691,0.017-1.381,0.053-2.069,0.101C227.16,436.629,225.977,430.074,225.994,424.128z M224.027,446.582    c3.608,0.03,12.966-3.363,12.943,2.623c-0.004,1.152,0.006,2.337-0.014,3.496c-0.072,4.099-0.858,7.984-1.419,12.025    c-0.437,3.15-0.303,3.372-3.681,3.903c-0.469,0.074-0.961,0.114-1.459,0.138c-0.854,0.003-1.71-0.003-2.565-0.005    c-0.819-0.029-1.632-0.066-2.398-0.083c-0.371-0.008-0.917,0.027-1.511,0.05c-0.414-0.004-0.869-0.006-1.342,0.003    c-0.827-0.038-1.588-0.172-1.963-0.562c-0.494-0.515-0.365-4.367-0.371-5.173c-0.025-3.967-0.467-9.043,0.822-12.801    C221.803,448.054,222.75,447.067,224.027,446.582z M321.683,453.306c0.355,3.13,0.713,6.314,0.995,9.449    c0.126,1.393,0.064,2.696,0.262,3.97c-5.445,0.66-11.117,0.403-16.556,0.272c-3.268-0.079-7.542-0.449-11.202,0.215    c0.335-6.112-0.277-12.3-1.162-18.342c-0.521-3.561-1.661-5.052-4.128-5.767c1.422-6.325,0.53-12.885,0.788-19.299    c0.338-8.391,1.236-17.076,3.037-25.333c1.588-7.283,5.864-11.681,13.704-10.541c7.172,1.042,10.668,7.653,12.447,14.015    c0.059,0.208,0.105,0.417,0.156,0.626c0.287,10.453,0.75,20.894,0.674,31.333C320.651,440.322,320.958,446.935,321.683,453.306z     M277.188,66.074c2.511,1.537,4.971,3.263,7.429,4.707c5.287,3.105,10.459,6.098,14.988,10.299    c3.928,3.643,6.571,8.768,9.651,13.134c2.171,3.077,3.399,7.333,4.669,10.665c3.353,8.797,4.636,18.454,5.144,27.81    c0.148,2.718,0.696,5.355,0.435,8.083c-0.212,2.216-0.688,4.317-0.709,6.563c-0.025,2.804-0.603,6.137-0.315,9.108    c-0.665,0.041-1.388,0.038-2.131,0.045c-3.67,0.04-7.262-0.48-10.869-0.893c0.024-8.85-0.511-17.928-2.084-26.626    c-1.473-8.143-2.544-16.506-6.131-24.054c-4.347-9.144-7.62-18.426-13.799-26.595c-2.593-3.426-5.461-6.228-8.735-9.022    c-1.614-1.377-3.11-2.864-4.779-4.053c0.432-0.019,0.832-0.024,1.186-0.004C272.975,65.346,275.073,65.628,277.188,66.074z     M276.548,132.531c-0.356-8.068-1.016-16.618-2.7-24.517c-1.897-8.89-3.415-17.739-5.635-26.59    c-1.01-4.028-2.664-11.521-5.971-15.526c1.859,0.059,3.697,0.016,5.478-0.319c13.689,10.491,20.822,25.531,27.297,41.25    c3.167,7.693,4.312,16.289,5.496,24.474c1.153,7.976,1.408,15.935,1.531,23.956c-2.24-0.16-4.471,0.049-6.712,0.273    c-0.623,0.021-1.225,0.043-1.788,0.054c-3.466,0.068-6.929,0.165-10.385,0.249c-2.358,0.056-4.721,0.059-7.082,0.074    C277.722,148.347,276.886,140.17,276.548,132.531z M272.407,155.958c-1.279,0.027-2.559,0.065-3.836,0.132    c-2.167,0.113-4.936-0.144-7.074,0.708c-3.84-0.125-7.668-0.247-11.517-0.185c-2.052-0.629-4.554-0.421-6.547-0.523    c-1.277-0.066-2.556-0.105-3.836-0.132c0.114-3.329-0.653-6.658-0.717-9.987c-0.074-3.862,0.054-7.726,0.152-11.586    c0.198-7.863,0.775-15.994,1.744-23.796c1.82-14.649,3.466-31.7,11.034-44.814c0.616-0.061,1.202-0.113,1.723-0.142    c2.196-0.121,4.444,0.047,6.683,0.173c7.551,13.111,9.197,30.145,11.016,44.783c0.969,7.802,1.547,15.933,1.744,23.796    c0.096,3.86,0.226,7.724,0.152,11.586C273.06,149.3,272.293,152.629,272.407,155.958z M235.926,155.911    c-2.361-0.016-4.723-0.018-7.082-0.074c-3.456-0.084-6.918-0.183-10.385-0.249c-0.563-0.011-1.165-0.033-1.788-0.054    c-2.24-0.225-4.471-0.434-6.711-0.273c0.123-8.022,0.376-15.98,1.531-23.956c1.184-8.185,2.328-16.781,5.496-24.474    c6.297-15.292,13.234-29.931,26.206-40.375c2.198-0.011,4.462-0.238,6.494-0.457c-3.255,4.027-4.893,11.43-5.895,15.426    c-2.22,8.851-3.738,17.7-5.635,26.59c-1.685,7.899-2.344,16.451-2.7,24.517C235.118,140.17,234.281,148.347,235.926,155.911z     M241.088,39.392c0.777-3.422,2.469-6.149,5.308-8.151c3.862-0.832,7.714-1.77,11.71-1.86c2.999-0.069,4.907,1.212,7.657,1.968    c0,0,0.004,0.001,0.008,0.002c2.743,1.992,4.382,4.683,5.144,8.041c0.633,2.789,0.747,6.981,1.503,10.636    c-2.094-0.744-4.999-0.957-7.117-1.071c-0.307-0.017-0.624-0.024-0.946-0.025c-3.952-1.08-8.602-0.04-12.577-0.155    c-2.136-0.062-4.56-0.064-6.881,0.3c-1.784,0.145-3.767,0.404-5.311,0.952C240.341,46.373,240.456,42.181,241.088,39.392z     M242.275,52.92c0.037-0.003,0.073-0.011,0.11-0.016c3.082,0.26,6.498-0.339,9.394-0.063c3.943,0.375,9.104,0.687,13.074-0.732    c1.627,0.261,3.227,0.642,4.875,0.81c4.185,0.426,3.06,4.693,3.637,7.95c-1.788-0.294-3.606-0.459-5.396-0.409    c-4.027-0.629-8.514-0.309-12.242-0.157c-2.979,0.122-5.973,0.234-8.955,0.428c-2.646-0.479-5.423-0.307-8.133,0.138    C239.215,57.612,238.09,53.346,242.275,52.92z M192.934,132.688c0.508-9.356,1.791-19.013,5.144-27.81    c1.27-3.332,2.499-7.589,4.669-10.665c3.081-4.367,5.724-9.491,9.651-13.134c4.529-4.201,9.701-7.195,14.988-10.299    c2.458-1.444,4.918-3.17,7.429-4.707c0.828-0.174,1.648-0.317,2.456-0.439c1.015,0.374,2.156,0.6,3.369,0.717    c-1.13,0.943-2.218,1.971-3.363,2.948c-3.275,2.793-6.143,5.595-8.736,9.022c-6.181,8.168-9.452,17.45-13.799,26.595    c-3.588,7.546-4.659,15.91-6.131,24.054c-1.573,8.699-2.109,17.776-2.084,26.626c-3.608,0.413-7.2,0.933-10.869,0.893    c-0.744-0.008-1.466-0.004-2.131-0.045c0.288-2.971-0.29-6.304-0.315-9.108c-0.021-2.245-0.497-4.347-0.709-6.563    C192.238,138.043,192.786,135.406,192.934,132.688z M192.004,173.851c-0.027-1.42-0.012-2.843-0.07-4.261    c-0.064-1.581,0.095-3.872-0.032-6.097c2.711,0.495,5.656,0.372,8.078,0.286c3.114-0.111,6.122-0.267,9.209-0.645    c3.558-0.436,7.062,0.75,10.685,0.497c2.959-0.207,5.489-1.232,8.465-0.986c3.487,0.288,5.614,0.463,8.902-0.583    c1.935,0.045,3.868,0.086,5.788,0.177c2.004,0.094,4.434,0.567,6.511,0.158c5.653,0.167,11.32,0.317,16.977,0.51    c3.441,0.117,7.015,0.196,10.442-0.292c2.187,0.398,4.054,0.249,6.706,0.03c2.976-0.246,5.506,0.779,8.465,0.986    c3.623,0.253,7.127-0.932,10.685-0.497c3.087,0.377,6.094,0.533,9.209,0.645c2.421,0.086,5.366,0.209,8.078-0.286    c-0.127,2.224,0.032,4.515-0.032,6.097c-0.058,1.419-0.043,2.842-0.07,4.261c-0.007,0.355,0.297,4.039,0.398,3.903    c-0.177,0.238-5.255,0.489-5.927,0.568c-0.369,0.043-0.743,0.069-1.114,0.1c0.101-1.59-0.072-3.401-0.085-3.66    c-0.175-3.706-2.088-6.927-5.528-8.546c-1.61-0.758-4.104-0.753-5.833-0.471c-1.892,0.308-2.468,1.244-3.662,2.533    c-1.357,1.463-2.081,1.961-2.548,4.01c-0.478,2.099-0.861,3.871-0.58,5.953c-1.689,0.072-3.351,0.255-4.98,0.578    c0.645-2.773,0.199-6.511-0.789-8.728c-1.072-2.406-3.205-4.236-5.859-4.457c-7.58-0.63-9.781,7.368-9.719,13.612    c-1.784,0.034-3.556,0.129-5.305,0.32c-1.069-0.041-2.134-0.044-3.196-0.03c0.239-2.051-0.542-4.917-0.708-6.173    c-0.475-3.606-2.356-8.108-6.567-8.486c-4.334-0.39-8.351,2.008-10.268,5.854c-1.067,2.14-2.78,6.158-2.254,9.023    c-0.187-0.006-0.375-0.012-0.563-0.018c-2.191-0.309-4.427-0.448-6.68-0.491c0.062-6.244-2.14-14.243-9.719-13.612    c-2.654,0.22-4.786,2.051-5.859,4.457c-0.988,2.218-1.434,5.955-0.789,8.728c-1.629-0.323-3.291-0.506-4.98-0.578    c0.281-2.082-0.102-3.853-0.58-5.953c-0.467-2.048-1.191-2.548-2.548-4.01c-1.195-1.289-1.771-2.226-3.662-2.533    c-1.73-0.281-4.223-0.287-5.833,0.471c-3.44,1.619-5.352,4.84-5.528,8.546c-0.012,0.259-0.186,2.069-0.085,3.66    c-0.372-0.031-0.746-0.056-1.114-0.1c-0.673-0.079-5.75-0.331-5.927-0.568C191.708,177.891,192.012,174.206,192.004,173.851z     M305.049,263.359c-4.841-0.012-9.708-0.378-14.523-0.445c-8.391-0.115-16.75-0.401-25.121-0.35    c-4.135-0.267-8.431,0.099-12.347,0.101c-4.835,0.002-10.087-0.78-14.963-0.054c-5.533,0.082-11.069,0.228-16.618,0.304    c-4.814,0.066-9.682,0.433-14.523,0.445c-4.265,0.011-9.417-0.922-13.721,0.106c-0.004-0.201-0.01-0.402-0.013-0.603    c-0.024-1.442,0.014-2.93,0.02-4.428c3.925-2.68,7.352-6.27,10.812-9.412c5.609-5.092,11.075-10.229,17.171-14.735    c6.453-4.769,12.234-10.55,18.613-15.453c2.573-1.978,5.236-3.963,7.664-6.107c2.227-1.964,5.108-3.94,6.989-6.171    c0.054-0.064,0.094-0.132,0.138-0.199c0.151-0.08,0.3-0.16,0.463-0.206c1.246-0.351,1.85,0.094,2.849,0.876    c1.871,2.04,4.494,3.876,6.563,5.701c2.428,2.143,5.091,4.128,7.664,6.107c6.38,4.904,12.16,10.684,18.613,15.453    c6.097,4.506,11.563,9.644,17.171,14.735c3.461,3.142,6.887,6.732,10.812,9.412c0.006,1.497,0.044,2.986,0.02,4.428    c-0.003,0.201-0.009,0.403-0.013,0.603C314.465,262.437,309.314,263.37,305.049,263.359z M318.707,266.327    c-0.018,0.705-0.034,1.41-0.047,2.115c-2.165,0.081-4.511,0.633-6.373,0.553c-6.476-0.279-12.88-0.59-19.367-0.167    c-6.746,0.44-13.547-0.335-20.317-0.016c-5.411,0.256-11.275-0.702-16.602,0.381c-5.326-1.083-11.191-0.126-16.602-0.381    c-6.771-0.32-13.571,0.456-20.316,0.016c-6.487-0.424-12.891-0.112-19.367,0.167c-1.863,0.08-4.209-0.473-6.373-0.553    c-0.012-0.704-0.029-1.41-0.047-2.115c4.545,1.177,10.335,0.675,14.724,0.61c5.253-0.078,10.561-0.211,15.787-0.485    c4.757-0.25,9.483-0.206,14.244-0.334c4.853,0.819,10.295,0.392,15.008,0.396c5.355,0.006,10.901,0.303,16.272-0.331    c1.482-0.001,2.964-0.111,4.255-0.073c4.886,0.142,9.733,0.085,14.612,0.342c5.225,0.273,10.533,0.407,15.787,0.485    C308.372,267.002,314.162,267.504,318.707,266.327z M204.431,202.943c4.254-6.666,6.916-0.388,7.522,4.189    c0.475,3.587,0.387,7.124,0.55,10.719c0.227,5.03,0.608,10.051,0.935,15.061c-4.251,3.527-8.212,7.334-12.232,11.125    c1.346-5.978,0.602-12.241,1-18.331C202.663,218.75,200.511,209.086,204.431,202.943z M222.485,219.022    c-0.161-5.832-1.461-13.525,0.789-19.104c1.266-3.136,5.079-6.295,8.308-3.227c1.827,1.736,1.971,4.681,2.229,7.011    c0.437,3.956,0.089,8.051,0.405,12.012c-4.151,3.203-8.058,6.733-12.056,10.135C222.418,223.581,222.547,221.294,222.485,219.022z     M289.844,225.85c-3.998-3.402-7.906-6.932-12.056-10.135c0.318-3.961-0.032-8.056,0.405-12.012    c0.258-2.33,0.401-5.276,2.229-7.011c3.229-3.068,7.043,0.09,8.308,3.227c2.25,5.579,0.95,13.271,0.789,19.104    C289.457,221.294,289.585,223.581,289.844,225.85z M309.796,225.705c0.398,6.09-0.344,12.353,1,18.331    c-4.021-3.792-7.98-7.597-12.232-11.125c0.328-5.01,0.708-10.031,0.935-15.061c0.163-3.596,0.074-7.133,0.55-10.719    c0.606-4.576,3.269-10.854,7.522-4.189C311.493,209.086,309.341,218.75,309.796,225.705z M312.675,245.799    c-0.237-0.221-0.471-0.444-0.708-0.665c2.75-9.936,0.838-21.657,0.863-31.849c0.014-5.926-1.283-16.766-9.398-16.862    c-6.913-0.082-7.234,11.607-7.482,16.325c-0.256,4.856-0.276,9.707-0.598,14.551c-0.062,0.92-0.191,1.88-0.268,2.831    c-1.112-0.857-2.202-1.744-3.286-2.641c2.141-6.173,1.057-13.891,1.164-20.219c0.09-5.274-0.858-12.807-6.725-14.967    c-5.456-2.009-9.334,1.904-10.909,6.795c-0.972,3.021-0.905,6.547-1.011,9.671c-0.045,1.353-0.213,2.732-0.282,4.098    c-2.212-1.668-4.421-3.344-6.595-5.052c-1.048-0.823-2.112-1.462-3.183-2.055c-0.969-1.611-2.656-2.79-4.353-3.903    c-2.823-1.853-4.947-2.035-7.772-0.111c-2.84,1.933-7.77,4.994-10.725,8.486c-1.148,0.878-2.284,1.765-3.438,2.635    c-0.07-1.366-0.236-2.745-0.282-4.098c-0.106-3.124-0.04-6.65-1.011-9.671c-1.575-4.891-5.453-8.802-10.907-6.795    c-5.868,2.16-6.815,9.692-6.725,14.967c0.107,6.328-0.977,14.046,1.164,20.219c-1.083,0.898-2.174,1.784-3.286,2.641    c-0.075-0.951-0.206-1.911-0.268-2.831c-0.323-4.843-0.343-9.695-0.599-14.551c-0.249-4.718-0.57-16.407-7.482-16.325    c-8.115,0.096-9.412,10.935-9.398,16.862c0.025,10.193-1.888,21.913,0.863,31.849c-0.236,0.221-0.471,0.444-0.708,0.665    c-1.928,1.798-4.429,3.742-6.657,5.88c-0.021-0.092-0.033-0.185-0.055-0.276c-0.139-2.857-0.248-5.701-0.238-8.585    c0.028-8.261-0.497-16.494-0.469-24.75c0.025-7.508,0.276-14.952,0.486-22.428c0.097-3.478,0.495-7.15,0.295-10.708    c5.364,0.671,10.694,0.601,16.135,0.611c5.081,0.01,11.782,0.896,16.996-0.39c2.76,0.102,5.526,0.149,8.269,0.187    c3.284,0.044,6.763,0.449,10.164,0.422c2.608,0.107,5.218,0.179,7.809,0.196c4.256,0.028,8.533-0.355,12.786-0.363    c1.493,0.154,3.013,0.186,4.545,0.145c3.525,0.191,7.216,0.331,10.652-0.436c2.041-0.033,4.088-0.075,6.134-0.151    c5.216,1.286,11.916,0.399,16.996,0.39c5.442-0.01,10.77,0.06,16.135-0.611c-0.199,3.557,0.199,7.23,0.297,10.708    c0.209,7.476,0.459,14.92,0.485,22.428c0.028,8.256-0.497,16.488-0.469,24.75c0.01,2.884-0.099,5.727-0.238,8.585    c-0.022,0.091-0.035,0.185-0.055,0.276C317.104,249.541,314.603,247.597,312.675,245.799z M201.494,178.573    c0.085-0.38,0.147-0.759,0.201-1.102c0.468-2.948,0.247-5.574,3.1-7.394c2.344-1.495,4.551-1.07,6.469,0.716    c1.925,1.792,2.328,4.494,1.816,7.078c-0.023,0.116-0.034,0.231-0.04,0.344C209.202,178.303,205.303,178.641,201.494,178.573z     M234.813,177.397c0.089,0.649,0.104,1.247,0.094,1.84c-3.581,0.041-7.175,0.205-10.681,0.157    c-0.141-0.043-0.286-0.072-0.428-0.113c0.985-3.705-0.186-9.51,4.349-10.661c2.699-0.685,5.646,1.743,6.362,4.261    C234.905,174.265,234.618,175.959,234.813,177.397z M248.01,179.832c0.024-1.203,1.651-4.683,1.956-5.513    c1.062-2.895,3.091-5.86,6.546-5.788c5.289,0.111,3.924,7.249,4.674,11.137c-2.406,0.111-4.814,0.247-7.248,0.265    C251.962,179.945,249.986,179.893,248.01,179.832z M277.492,172.883c0.716-2.518,3.663-4.946,6.362-4.261    c4.535,1.151,3.364,6.956,4.349,10.661c-0.142,0.041-0.287,0.07-0.428,0.113c-3.506,0.047-7.1-0.116-10.681-0.157    c-0.009-0.593,0.006-1.192,0.094-1.84C277.386,175.959,277.098,174.265,277.492,172.883z M300.739,170.791    c1.918-1.786,4.125-2.211,6.469-0.716c2.854,1.82,2.632,4.447,3.1,7.394c0.054,0.343,0.116,0.723,0.201,1.102    c-3.809,0.069-7.708-0.27-11.546-0.356c-0.006-0.114-0.017-0.228-0.04-0.344C298.412,175.287,298.815,172.583,300.739,170.791z     M192.103,295.31c0.278-7.082,0.901-14.162,1.199-21.241c0.014-0.346,0.014-0.693,0.023-1.039c2.595,0.448,5.257,0.554,7.898,0.44    c6.651-0.288,13.199,0.321,19.814,0.397c6.682,0.077,13.307-0.025,19.986,0.137c5.047,0.123,10.06-0.162,14.979-1.249    c4.919,1.087,9.932,1.372,14.979,1.249c6.678-0.163,13.302-0.06,19.986-0.137c6.615-0.076,13.164-0.685,19.814-0.397    c2.643,0.114,5.303,0.008,7.898-0.44c0.009,0.346,0.009,0.693,0.023,1.039c0.298,7.078,0.92,14.159,1.199,21.241    c0.716,18.182,0.565,36.366,0.317,54.552c-0.289-0.951-0.595-1.896-0.944-2.831c-3.465-9.312-7.543-18.181-13.702-26.044    c-6.483-8.277-14.047-15.622-23.217-20.889c-4.503-2.586-10.952-6.036-17.016-6.985c-4.436-1.182-9.644-0.957-14.149-0.184    c-5.236-0.503-11.284,1.814-16.37,4.368c-1.749,0.705-3.37,1.535-4.661,2.513c-0.167,0.095-0.344,0.195-0.507,0.288    c-9.17,5.268-16.734,12.612-23.218,20.889c-6.159,7.862-10.237,16.732-13.702,26.044c-0.347,0.935-0.655,1.88-0.944,2.831    C191.537,331.674,191.388,313.49,192.103,295.31z M189.325,462.755c0.282-3.135,0.64-6.319,0.995-9.449    c0.725-6.371,1.033-12.985,0.986-19.403c-0.076-10.439,0.387-20.881,0.674-31.333c0.051-0.209,0.097-0.418,0.156-0.626    c1.78-6.362,5.274-12.972,12.447-14.015c7.839-1.14,12.116,3.259,13.704,10.541c1.801,8.257,2.699,16.942,3.037,25.333    c0.258,6.414-0.634,12.975,0.788,19.299c-2.467,0.715-3.607,2.206-4.128,5.767c-0.885,6.042-1.498,12.23-1.162,18.342    c-3.66-0.664-7.934-0.293-11.202-0.215c-5.439,0.131-11.111,0.387-16.556-0.272C189.261,465.451,189.2,464.149,189.325,462.755z     M186.611,289.109c-0.816,14.382-1.22,28.705-1.061,43.111c0.175,15.871-0.328,31.798,0.25,47.666    c0.547,15.021-0.25,29.968-0.249,44.968c0.001,7.13-0.262,14.34-0.589,21.466c-0.173,3.755-0.481,7.512-0.789,11.263    c-0.004,0.056-0.014,0.114-0.02,0.17c-5.307-1.538-11.694-0.392-17.276-0.569c-1.951-0.062-3.913-0.08-5.878-0.082    c0.156-16.959,1.117-33.893,1.174-50.828c0.054-15.987-0.008-31.947-0.344-47.937c-0.359-17.097-0.086-34.356-1.191-51.424    c-0.919-14.184-0.398-28.488-1.985-42.643c0.953-0.022,1.906-0.086,2.866-0.085c2.224,0.003,4.42,0.646,6.608,0.643    c4.232-0.007,8.764-0.491,13.022-0.784c2.461-0.168,4.721,0.153,6.785-0.834C187.325,271.832,187.101,280.49,186.611,289.109z     M147.587,261.474c0.203,0.305,0.447,0.577,0.771,0.725c2.029,0.925,4.803,1.51,7.159,1.858c-0.484,6.008-0.03,11.83,0.173,17.914    c0.276,8.31,0.034,16.637,0.547,24.942c1.054,17.067,0.691,34.33,1.006,51.424c0.294,15.989,0.295,31.952,0.21,47.937    c-0.09,16.95-1.269,33.894-1.516,50.861c-2.591,0.036-5.185,0.09-7.773,0.135c-0.051-15.26-0.253-30.528-0.142-45.787    c0.129-17.694,0.345-35.417,0.458-53.124c0.115-18.008,0.396-36.015,0.349-54.015    C148.792,290.121,148.958,275.682,147.587,261.474z M150.871,90.577c-0.142,3.164-0.129,6.337-0.076,9.512    c-1.856-0.143-3.776-0.229-5.603-0.117c1.389-6.91,0.301-14.252,0.688-21.246c0.099-1.771-0.398-9.101-0.201-9.312    c0.81-0.869,3.112-1.037,5.407-1.029C150.326,75.621,151.194,83.346,150.871,90.577z M162.567,95.225    c0.074,1.864,0.127,3.752,0.178,5.639c-1.716-0.066-3.432-0.142-5.141-0.207c-1.197-0.045-2.623-0.188-4.16-0.336    c-0.132-3.032-0.234-6.062-0.198-9.085c0.089-7.559,0.718-15.266-0.174-22.814c1.306,0.041,2.449,0.09,3.099,0.034    c2.063-0.179,4.057-0.211,6.067-0.167C160.716,73.19,162.46,92.603,162.567,95.225z M153.692,105.761    c1.702,0.156,3.402,0.318,5.072,0.383c1.36,0.053,2.721,0.069,4.085,0.075c0.089,6.152,0.055,12.337-0.162,18.375    c-0.118,3.309-0.255,6.621-0.387,9.934c-2.994,0.245-6.009,0.405-9.016,0.518c0.071-4.95,0.189-9.897,0.49-14.822    C154.069,115.405,153.911,110.58,153.692,105.761z M153.097,149.298c0.052-2.59,0.083-5.185,0.112-7.781    c2.945-0.203,5.906-0.567,8.866-0.898c-0.156,4.556-0.273,9.112-0.266,13.663c0.014,8.202-0.972,16.355-0.89,24.549    c0.001,0.13,0.016,0.249,0.04,0.363c-2.577-0.025-5.176-0.201-7.784-0.426C152.592,168.978,152.896,159.097,153.097,149.298z     M164.261,186.226c2.232,0.062,4.382,0.288,6.541,0.478c-0.815,7.673-0.861,15.595-1.214,23.269    c-0.196,4.271-0.309,8.711-0.131,12.987c0.108,2.595,0.025,5.331,0.333,7.964c-1.797,0.481-3.098,2.086-4.256,3.461    c-2.165,2.569-4.416,5.017-6.442,7.703c-1.607,2.129-2.978,4.266-4.317,6.444c-2.019,1.614-4.235,3.639-5.776,5.914    c-0.013-0.311-0.022-0.631-0.025-0.968c-0.04-4.441,0.008-8.889-0.001-13.331c-0.014-7.522-0.089-14.956-0.529-22.45    c-0.387-6.588-0.362-13.183-0.299-19.77c0.032-3.454-0.156-7.039-0.456-10.475c-0.042-0.481-0.224-1.184-0.406-1.92    c0.672,0.019,1.345,0.029,2.023,0.022C154.309,185.503,159.244,186.087,164.261,186.226z M152.906,258.043    c0.404-0.778,0.955-1.617,1.481-2.375c2.207-2.514,4.71-4.893,6.739-7.514c1.619-2.092,3.185-4.256,5-6.182    c0.576-0.61,3.871-4.931,4.492-5.027c2.493-0.384,8.295,7.969,9.418,9.82c2.064,3.401,4.952,6.982,6.413,10.791    c-5.751-0.033-11.622,0.789-17.339,1.127c-3.326,0.196-7.045-0.118-10.419-0.159C157.215,258.504,154.898,258.378,152.906,258.043    z M179.231,155.435c0.086-4.419,0.309-8.841,0.322-13.257c0.002-0.693,0.027-1.386,0.054-2.076    c1.898,0.054,3.794,0.186,5.422,0.585c2.094,0.517,0.843,13.445,0.789,15.045c-0.102,3.047-0.107,6.149-0.402,9.184    c-0.398,4.105-0.228,7.651-0.118,11.703c0.036,1.351,0.185,2.576,0.513,3.648c-0.816-0.095-1.633-0.17-2.445-0.165    c-1.593,0.011-3.181-0.047-4.769-0.081C179.154,171.844,179.069,163.641,179.231,155.435z M178.388,186.904    c3.164-0.227,6.018-0.892,8.826-1.91c-0.116,0.852-0.252,1.701-0.356,2.554c-0.439,3.596-0.515,7.201-0.717,10.807    c-0.396,7.04-0.448,14.143-0.316,21.208c0.145,7.763,0.604,15.495,0.63,23.257c0.003,0.885-0.014,1.835-0.037,2.819    c-0.868-1.366-1.773-2.703-2.717-3.965c-1.843-2.469-4.342-4.895-6.548-7.044c-1.085-1.057-2.366-2.384-3.834-3.172    c0.125-2.817-0.322-5.697-0.461-8.497c-0.215-4.297-0.131-8.687-0.047-12.987c0.147-7.57,0.951-15.486,0.342-23.088    C174.861,186.992,176.59,187.032,178.388,186.904z M176.596,142.178c-0.123,4.727-0.509,9.478-0.802,14.199    c-0.308,4.959-0.32,9.872-0.444,14.842c-0.072,2.849-0.642,5.869-0.591,8.774c-3.567-0.02-7.043-0.474-10.581-0.686    c0.038-0.146,0.064-0.3,0.062-0.474c-0.128-8.189,0.807-16.353,0.735-24.549c-0.04-4.661,0.072-9.324,0.226-13.985    c3.047-0.289,6.082-0.471,9.084-0.314c0.733,0.039,1.521,0.054,2.33,0.066C176.616,140.774,176.614,141.49,176.596,142.178z     M170.127,74.912c-0.196,8.602-0.205,17.179-0.106,25.76c-0.008,0.12,0.005,0.225,0.011,0.335    c-1.436,0.013-2.874-0.012-4.312-0.049c-0.051-1.918-0.107-3.836-0.187-5.733c-0.232-5.53-0.692-11.051-0.738-16.597    c-0.028-3.205,0.409-6.927-0.079-10.249c0.539,0.028,1.076,0.052,1.625,0.089c1.174,0.167,2.355,0.237,3.542,0.208    c1.108,0.189,1.306,0.333,0.592,0.43C171.017,70.38,170.161,73.481,170.127,74.912z M174.316,110.495    c0.294,7.847,0.467,15.702,0.751,23.554c-2.73-0.215-5.463-0.294-8.287,0.042c-0.454,0.054-0.913,0.094-1.368,0.142    c0.131-3.544,0.259-7.087,0.341-10.632c0.131-5.727,0.153-11.566,0.071-17.38c1.189-0.003,2.377-0.007,3.566,0.002    C174.386,106.262,174.114,105.076,174.316,110.495z M145.908,48.212c1.614-6.442,6.466-11.233,13.239-11.45    c15.413-0.494,10.954,16.532,11.858,27.342c-0.283-0.062-0.567-0.124-0.879-0.169c-4.189-0.618-9.069-0.823-13.261-0.39    c-3.737,0.387-8.339-0.267-12.068,0.91C145.632,59.175,144.58,53.513,145.908,48.212z M140.775,113.019    c0.027-1.189-0.158-3.005,0.049-4.224c0.623-3.682,3.254-3.39,6.636-3.401c1.139-0.004,2.292,0.059,3.447,0.141    c0.113,4.902,0.199,9.804-0.113,14.689c-0.318,4.965-0.411,9.944-0.491,14.925c-0.979,0.03-1.961,0.061-2.934,0.087    c-2.177,0.059-4.657,0.215-7.129,0.551C141.294,128.258,140.607,120.567,140.775,113.019z M139.966,142.525    c0.366-0.055,0.703-0.106,0.945-0.151c2.84-0.527,5.604-0.672,8.476-0.693c0.266-0.002,0.532-0.022,0.799-0.028    c-0.049,2.245-0.114,4.491-0.215,6.734c-0.452,10.003-0.501,20.063-0.211,30.073c-3.185-0.299-6.379-0.59-9.562-0.695    c-0.626-5.541-0.084-11.444-0.097-16.923C140.083,154.737,140.027,148.63,139.966,142.525z M143.214,457.332    c-0.407,0.002-0.817,0.013-1.223,0.014c-8.268,0.03-16.596,0.258-24.852-0.124c-0.609-15.307,0.643-30.543,0.587-45.829    c-0.059-15.758,0.914-31.532,0.781-47.315c-0.042-4.987,0.125-9.968,0.245-14.955c0.034-0.164,0.039-0.333,0.012-0.499    c0.063-2.705,0.113-5.411,0.096-8.122c-0.056-9.189-0.333-18.406,0.162-27.584c0.506-9.39,0.268-18.844,0.212-28.246    c-0.044-7.465,0.213-15.343-0.643-22.856c2.867,0.426,5.793,0.529,8.589,0.344c5.344-0.353,11.523,1.143,16.818,0    c-0.071,5.427,0.509,10.892,0.558,16.307c0.071,7.932,0.263,15.845,0.219,23.798c-0.104,18.357-0.652,36.691-0.739,55.055    c-0.085,17.706-0.276,35.448-0.645,53.14C143.059,426.108,143.176,441.7,143.214,457.332z M134.881,143.669    c0.439-0.265,1.256-0.481,2.164-0.664c-0.056,6.669-0.115,13.337-0.131,20.005c-0.01,4.75-0.45,9.879,0.038,14.716    c-1.378,0.021-2.752,0.089-4.121,0.222c-0.675-6.878-1.024-13.826-0.967-20.75C131.89,153.674,131.234,145.866,134.881,143.669z     M121.95,224.093c-0.157-6.641-0.1-13.299-0.2-19.943c-0.101-6.636-2.198-16.757,6.539-17.958c2.203-0.302,4.129-0.65,5.983-1.191    c3.505-0.136,6.949,0.207,10.443,0.413c-0.162,3.209-0.162,6.557-0.209,9.759c-0.097,6.656-0.431,13.232-0.364,19.897    c0.071,7.042,0.527,14.038,0.512,21.1c-0.009,4.475-0.09,8.944-0.029,13.403c-1.836-3.372-3.878-6.709-6.118-9.627    c-2.005-2.612-7.148-8.098-10.982-7.243c-2.462,0.549-4.398,3.77-5.85,6.491c-0.039-1.724-0.17-3.463-0.303-5.122    C122.049,230.808,122.027,227.308,121.95,224.093z M115.95,255.226c1.488-1.744,2.766-3.703,4.153-5.55    c2.389-3.178,4.187-7.447,6.899-10.276c1.597-1.666,0.789-1.657,2.982-0.745c0.875,0.364,1.92,1.467,2.571,2.112    c1.916,1.894,3.334,4.41,4.592,6.773c1.544,2.9,2.894,5.973,4.738,8.704c-1.348-0.183-3.827-0.218-4.551-0.235    c-3.197-0.074-6.609-0.153-9.791,0.153c-4.018,0.385-7.943,0.03-11.933-0.331C115.716,255.631,115.828,255.429,115.95,255.226z     M87.744,283.85c0.321,0.105,0.663,0.183,1.048,0.199c4.325,0.19,8.888-1.169,13.269-1.424c3.826-0.224,7.444-1.004,11.07-2.003    c0.019,10.805,0.668,21.697,0.052,32.295c-0.387,6.66-0.392,13.344-0.387,20.023c-3.324-0.651-7-0.673-10.256-0.748    c-2.768-0.065-5.532,0.615-8.327,0.6c-2.984-0.016-5.968,0.075-8.95,0.152c-4.475,0.115-9.149-1.454-13.57-0.728    c0.61-2.145,1.103-4.332,1.678-6.349c1.715-6.033,3.983-11.859,5.993-17.795c1.899-5.608,3.205-11.425,5.334-16.952    C85.639,288.675,86.926,286.341,87.744,283.85z M109.784,435.72c-0.336,6.923-0.933,13.83,0.042,20.686    c-2.666,0.002-5.418,0.281-7.989,0.248c-2.263-0.029-4.489,0.684-6.843,0.637c-2.113-0.042-4.062-0.007-6.162,0.243    c-0.01,0.001-0.021,0.001-0.031,0.002c0.466-4.803-0.124-9.938-0.286-14.683c-0.101-2.968,0.268-6.516-0.299-9.67    c1.414-0.87,2.12-2.462,1.508-5.234c-0.697-3.165-3.022-5.92-5.134-8.21c-3.669-3.981-6.908-8.479-10.332-12.687    c-0.735-0.902-1.49-1.784-2.32-2.424c1.352-2.876,0.46-7.04,0.165-9.943c-0.168-1.654-0.231-3.32-0.242-4.991    c5.766-0.127,11.504-1.049,17.272-1.054c7.119-0.004,15.01,0.241,22.188-0.704c-0.341,8.073-0.688,16.145-0.767,24.216    c-0.036,3.824-0.761,7.559-0.747,11.398C109.824,427.614,109.983,431.655,109.784,435.72z M82.889,457.752    c-2.548-0.029-5.091-0.102-7.635,0.218c-4.011,0.505-8.063,0.546-12.099,1.005c-4.762,0.542-9.345,0.268-14.09-0.127    c0.01-3.042-0.673-6.377-0.619-9.324c0.096-5.204,0.321-10.642-0.224-15.886c2.66-0.029,5.186,0.422,7.991,0.173    c5.712-0.507,11.766-0.89,17.493-0.791c2.197,0.038,6.445,1.069,10.046,1.087c-0.001,0.253-0.004,0.511-0.017,0.782    c-0.157,3.683-0.347,7.365-0.474,11.051C83.148,449.328,81.97,454.117,82.889,457.752z M51.215,428.423    c0.546-0.617,1.098-1.202,1.514-1.743c1.956-2.545,3.908-5.081,5.902-7.596c1.924-2.426,7.295-12.116,11.187-8.396    c0.99,0.946,1.612,2.852,2.574,3.972c1.259,1.466,2.628,2.839,3.948,4.25c2.576,2.755,5.222,5.606,6.84,9.057    c0.015,0.077,0.043,0.117,0.063,0.18c-0.448-0.024-0.896-0.036-1.344-0.085c-1.722-0.176-3.383-0.608-5.104-0.806    c-3.779-0.436-7.386,0.3-11.146,0.456c-3.738,0.155-7.387,0.512-11.102,0.745C53.344,428.529,52.271,428.479,51.215,428.423z     M89.135,383.942c-5.799,0.082-11.463,0.492-17.185,0.666c0.05-1.511,0.106-3.021,0.139-4.529    c1.493,0.277,3.123,0.255,4.351,0.287c3.861,0.101,7.792,0.88,11.62,0.756c3.773-0.122,7.52-0.124,11.278-0.313    c2.626-0.132,5.319-0.054,7.904-0.478c0.971,0.021,1.929-0.258,2.878-0.43c0.515-0.094,1.019-0.089,1.525-0.079    c-0.042,1.079-0.085,2.157-0.13,3.236C104.13,383.673,96.52,383.839,89.135,383.942z M108.556,375.184    c-0.026,0.009-0.05,0.02-0.075,0.03c-3.248-0.297-6.82,0.562-10.011,0.613c-5.152,0.084-10.3,0.134-15.447-0.143    c-0.027-0.205-0.054-0.408-0.082-0.613c-0.071-0.614-0.087-1.144-0.112-1.754c-0.053-1.342,0.009-2.627-0.01-3.949    c-0.008-0.581,0.012-1.114-0.001-1.656c0.105-0.557,0.217-1.111,0.35-1.657c1.351-5.541,3.264-11.276,8.191-14.608    c4.145-2.802,10.516-4.145,15.453-3.872c2.364,0.131,3.971,1.02,5.739,1.793c-0.204,5.233-0.469,10.457-0.518,15.699    c-0.03,3.265-0.112,6.529-0.214,9.793C110.787,374.658,109.704,374.776,108.556,375.184z M88.764,348.089    c-4.659,3.468-6.672,7.967-8.228,13.438c-0.749,2.635-2.094,6.471-2.295,9.937c-0.195,1.402-0.26,2.831-0.259,4.224    c-1.7,0.059-3.596,0.179-5.253,0.414c-0.1-0.083-0.209-0.156-0.338-0.199c-0.104-0.034-0.215-0.059-0.32-0.092    c-0.035-1.227-0.094-2.451-0.226-3.668c-0.784-7.199-0.913-14.174-0.761-21.399c0.076-3.672-1.268-7.729,0.715-11.174    c2-3.472,6.003-0.868,9.182-0.605c6.082,0.502,12.549,0.506,18.62,0.062c3.54-0.259,9.13,1.173,13.187,0.339    c-0.002,0.378-0.002,0.757-0.004,1.135c-0.008,1.233-0.048,2.462-0.077,3.693C105.063,341.319,94.898,343.521,88.764,348.089z     M67.102,309.938c2.56-7.372,5.467-14.722,8.554-21.698c1.145-2.589,1.124-5.852,3.065-8.056c1.867-2.119,5.496-2.19,5.832,1.092    c0.325,3.181-2.311,6.82-3.489,9.626c-1.557,3.708-2.936,7.49-4.187,11.312c-3.677,11.243-8.029,22.262-11.487,33.549    c-0.318,0.111-0.72,0.233-1.272,0.38c-0.464,0.123-4.355,1.171-5.085,0.118c-0.774-1.114,3.24-10.881,3.756-12.695    C64.066,319.073,65.518,314.502,67.102,309.938z M19.971,353.391c0.961-4.274,2.213-8.266,3.86-12.311    c1.692-4.156,4.073-7.087,6.275-10.881c1.866-3.213,3.08-6.383,5.781-9.032c2.926-2.869,6.636-5.294,10.466-6.751    c5.205-1.98,9.753-3.353,14.95-3.723c-0.137,0.326-0.27,0.654-0.408,0.979c-2.501,5.885-4.277,11.956-6.505,17.928    c-1.469,3.938-3.894,8.778,0.504,11.788c2.426,1.66,7.32,2.643,10.771,1.964c-0.227,1.462-0.518,3.063-0.494,3.626    c0.13,2.988-0.415,5.757-0.635,8.731c-0.278,3.759-0.131,7.406,0.059,11.058c-1.834-3.331-3.872-6.558-6.263-9.477    c-1.664-2.032-3.199-5.392-5.95-5.84c-1.294-0.21-2.198,0.183-2.971,1.21c-1.151,1.527-1.637,3.43-2.708,5.018    c-1.336,1.981-2.907,3.744-4.197,5.774c-1.315,2.068-2.601,4.183-3.84,6.297c-0.237,0.404-0.466,0.896-0.702,1.409    c-0.154-0.57-0.293-1.083-0.424-1.347c-1.073-2.172-1.949-4.368-2.96-6.577c-1.414-3.087-2.119-7.605-4.496-10.017    c-0.898-0.91-2.512-0.938-3.406,0c-2.658,2.789-4.145,7.939-5.816,11.378c-0.685,1.409-1.373,2.86-2.046,4.334    C18.927,363.744,18.812,358.55,19.971,353.391z M31.493,379.212c4.787,0.068,9.475,0.625,14.229,0.698    c4.305,0.066,8.64-0.445,12.907-0.29c2.249,0.082,4.278,0.218,6.244,0.149c-0.039,1.622-0.096,3.253-0.154,4.883    c-0.206-0.004-0.408-0.002-0.614-0.009c-8.212-0.237-16.512-0.541-24.745-0.495c-6.618,0.038-13.519-0.266-20.177,0.459    c0.042-0.245,0.076-0.489,0.123-0.733c0.32-1.648,0.815-3.285,1.387-4.911C24.266,379.34,27.951,379.163,31.493,379.212z     M22.397,374.557c0.639-1.557,1.283-3.101,1.855-4.624c0.995-2.646,2.374-5.06,3.518-7.633c0.177-0.398,0.344-0.889,0.512-1.414    c0.135,0.566,0.273,1.088,0.442,1.494c0.881,2.13,1.752,4.261,2.62,6.392c0.767,1.885,1.591,3.721,2.361,5.594    C29.91,374.185,26.084,374.157,22.397,374.557z M42.074,374.896c1.441-2.334,2.612-5.17,3.8-7.106    c1.525-2.484,3.373-4.648,5.045-7.009c0.588-0.831,1.019-1.75,1.452-2.663c1.331,1.761,3.164,4.427,3.565,5.042    c2.348,3.609,4.295,7.434,6.075,11.346c0.001,0.012,0.004,0.024,0.005,0.038c-1.089-0.013-2.16-0.008-3.185,0.002    c-4.6,0.044-9.45,0.759-14.111,0.51C43.849,375.01,42.965,374.954,42.074,374.896z M18.796,387.496    c6.896,1.731,14.465,0.973,21.528,1.036c7.975,0.071,16.279,0.177,24.252,0.84c-0.122,5.155-0.056,10.297,0.803,15.305    c0.056,0.326,0.164,0.619,0.31,0.878c-0.761,0.764-1.448,1.677-2.115,2.62c-1.299,0.891-2.644,1.747-3.58,2.696    c-2.741,2.77-5.126,6.091-7.639,9.067c-1.926,2.28-5.637,5.224-7.351,8.28c-0.041-0.138-0.077-0.278-0.152-0.409    c-0.953-1.685-1.627-3.413-2.939-4.841c-2.15-2.337-5.012-4.006-7.234-6.325c-2.645-2.761-5.213-8.502-9.606-8.769    c-2.613-0.159-4.983,1.549-7.134,3.563C19.398,403.593,18.042,395.414,18.796,387.496z M7.368,429.173    c2.147-2.647,4.179-5.401,6.786-7.614c1.708-1.45,3.573-2.703,5.273-4.164c2.415-2.076,3.998-4.369,6.755-1.646    c2.832,2.798,4.823,6.134,8.074,8.688c1.315,1.033,2.669,2.446,4.106,3.71c-4.901-0.051-9.935,0.65-14.762,0.055    c-3.297-0.406-6.368,0.615-9.667,0.813C12.364,429.109,9.703,429.297,7.368,429.173z M14.634,454.891    c-0.17-6.781,0.288-14.038-0.739-20.826c2.32-0.23,4.618-0.507,6.802-0.546c4.171-0.076,8.39,0.568,12.612,0.487    c3.581-0.069,7.087,0.291,10.615,0.392c-0.403,5.012-0.115,10.126-0.35,15.126c-0.121,2.574-0.996,6.704-0.431,9.793    c-0.771,0.118-1.545,0.232-2.328,0.301c-3,0.268-5.801-0.142-8.779-0.39c-3.83-0.318-7.856,0.36-11.71,0.532    c-2.305,0.104-3.811,0.611-5.54,1.336C14.735,459.029,14.686,456.96,14.634,454.891z M14.96,470.775    c-0.052-1.931-0.039-4.029-0.082-5.861c-0.009-0.386-0.019-0.771-0.028-1.156c6.506,0.502,13.119,0.191,19.595,0.839    c5.158,0.515,10.328-0.812,15.401-0.073c4.355,0.634,8.877,0.824,13.272,0.496c4.092-0.307,8.26,0.012,12.314-0.62    c4.487-0.699,9.004,0.024,13.534-0.489c7.835-0.89,16.786,1.079,24.295-1.783c0.035-0.013,0.064-0.031,0.097-0.045    c1.223,0.097,2.446,0.199,3.675,0.301c6.369,0.529,12.761,0.594,19.149,0.632c9.676,0.056,19.208-0.175,28.884-0.198    c6.372-0.016,12.31,0.367,18.458-0.5c-0.01,0.105-0.028,0.21-0.035,0.317c-0.099,1.348,0.449,3.06,0.106,4.355    c-0.066,0.257-0.053,0.491-0.141,0.745c-1.749,0.302-3.504,0.177-5.114,1.016c-1.318,0.686-1.866,1.202-3.455,1.283    c-4.418,0.226-8.92-0.071-13.347-0.049c-9.052,0.045-18.101,0.249-27.146,0.611c-13.12,0.526-26.2,1.808-39.316,2.292    c-3.152,0.116-6.208-0.647-9.365-0.602c-3.348,0.048-6.705-0.049-10.093-0.044c-3.167,0.004-6.269,0.499-9.429,0.588    c-3.289,0.093-6.517-0.502-9.807-0.568c-3.266-0.065-6.577-0.641-9.828-0.567c-3.666,0.082-7.3,0.579-10.996,0.573    c-3.409-0.004-7.143-0.488-10.512-0.025c-2.77,0.381-5.442,1.956-8.28,1.917C14.539,474.126,15.014,472.78,14.96,470.775z     M152.06,488.327c-0.19,0.152-0.288,0.34-0.3,0.537c-1.733,3.946,1.733,8.477-4.285,8.506c-5.502,0.025-10.999,0.232-16.485,0.661    c-6.055,0.473-12.065,0.049-18.176,0.619c-11.019,1.027-22.188,0.063-33.21,0.781c-10.32,0.673-20.405,0.332-30.745,0.074    c-5.737-0.143-11.553-0.229-17.286-0.195c-4.828,0.029-10.007,0.744-14.855,0.068c-0.478-3.495-0.931-6.893-0.931-10.492    c-0.001-2.73,0.076-5.513-0.301-8.212c2.859-0.053,5.962-0.889,8.07-1.342c4.691-1.009,9.371-0.757,14.177-0.747    c3.831,0.008,7.67-0.695,11.482-0.432c6.757,0.469,13.641,1.372,20.415,0.86c7.601-0.575,15.31-0.288,22.849,0.27    c3.528,0.261,6.962-0.557,10.465-0.744c2.761-0.147,5.525-0.03,8.287-0.092c2.444-0.055,4.79-0.641,7.259-0.784    c6.079-0.352,12.157-0.705,18.236-1.058c12.022-0.697,24.045-1.394,36.066-2.092c0.977-0.056,2.014-0.1,2.87,0.375    c1.313,0.729,1.344,1.283,0.826,1.679c-0.761,0.579-2.704,0.819-3.517,0.776c-2.247-0.118-4.484-0.218-6.829,0.556    c-0.852,0.281-1.413,0.995-1.444,1.896c-0.072,2.16-0.149,4.171-0.283,6.224c-2.229,0.017-4.479,0.093-6.602,0.417    c-1.438-0.011-2.89,0.059-4.093,0.575C152.934,487.346,152.419,487.798,152.06,488.327z M353.978,499.211    c-3.562,0.646-7.309,0.778-10.922,0.841c-7.755,0.136-15.501-0.54-23.255-0.323c-7.295,0.205-15.048-0.653-22.667-0.839    c-14.567-1.645-29.603-0.978-44.213-0.946c-7.808,0.017-15.72,0.024-23.513,0.427c-3.206,0.165-6.42,0.36-9.635,0.513    c-1.954-0.049-3.924-0.034-5.903,0.029c-0.491-0.009-0.977,0.006-1.453,0.055c-6.824,0.278-13.703,0.943-20.217,0.759    c-7.755-0.217-15.5,0.458-23.255,0.323c-3.613-0.063-7.359-0.195-10.922-0.841c-2.989-0.543-2.746-3.074-2.302-5.758    c0.427-2.583,2.591-2.58,4.597-2.603c0.945-0.011,1.882-0.105,2.82-0.155c0.871,0.041,1.744,0.063,2.616,0.091    c0.019,0.002,0.037,0.001,0.055,0.004c0.232,0.039,0.466,0.038,0.696,0.018c10.092,0.287,20.301-0.175,30.222-0.536    c12.706-0.461,26.215,1.514,39.082,0.122c5.095,0.733,10.711,0.236,15.523,0.243c4.511,0.007,9.002,0.584,13.52,0.467    c4.344-0.113,9.127,0.315,13.494-0.515c12.212,0.976,24.922-0.754,36.92-0.318c9.921,0.361,20.129,0.822,30.222,0.536    c0.23,0.02,0.463,0.022,0.696-0.018c0.019-0.003,0.038-0.002,0.055-0.004c0.873-0.028,1.746-0.05,2.616-0.091    c0.938,0.05,1.876,0.144,2.82,0.155c2.006,0.023,4.17,0.02,4.597,2.603C356.724,496.136,356.966,498.667,353.978,499.211z     M496.217,488.884c0,3.599-0.453,6.999-0.931,10.492c-4.849,0.675-10.028-0.04-14.855-0.068    c-5.734-0.033-11.549,0.052-17.286,0.195c-10.339,0.258-20.425,0.599-30.745-0.074c-11.023-0.718-22.191,0.246-33.21-0.781    c-6.111-0.57-12.122-0.145-18.176-0.619c-5.486-0.428-10.984-0.635-16.486-0.661c-6.018-0.028-2.552-4.56-4.285-8.506    c-0.012-0.197-0.11-0.385-0.3-0.537c-0.361-0.529-0.874-0.981-1.656-1.317c-1.203-0.517-2.655-0.587-4.093-0.576    c-2.124-0.324-4.374-0.401-6.602-0.417c-0.135-2.053-0.211-4.065-0.283-6.224c-0.03-0.901-0.592-1.616-1.444-1.896    c-2.346-0.774-4.583-0.674-6.829-0.556c-0.813,0.043-2.756-0.197-3.517-0.776c-0.519-0.396-0.488-0.95,0.826-1.679    c0.854-0.475,1.892-0.432,2.869-0.375c12.022,0.697,24.045,1.394,36.066,2.092c6.079,0.352,12.157,0.705,18.236,1.058    c2.468,0.143,4.816,0.728,7.259,0.784c2.762,0.062,5.526-0.055,8.287,0.092c3.503,0.187,6.937,1.005,10.465,0.744    c7.538-0.558,15.248-0.846,22.849-0.27c6.775,0.512,13.658-0.391,20.415-0.86c3.811-0.264,7.65,0.439,11.482,0.432    c4.805-0.009,9.485-0.262,14.177,0.747c2.108,0.454,5.211,1.289,8.07,1.342C496.142,483.371,496.218,486.154,496.217,488.884z     M497.126,464.914c-0.043,1.832-0.03,3.93-0.082,5.861c-0.054,2.004,0.421,3.351-1.806,3.381c-2.839,0.039-5.509-1.536-8.28-1.917    c-3.371-0.463-7.105,0.02-10.512,0.025c-3.696,0.006-7.331-0.491-10.996-0.573c-3.251-0.073-6.563,0.501-9.828,0.567    c-3.29,0.065-6.519,0.661-9.807,0.568c-3.16-0.09-6.262-0.583-9.429-0.588c-3.388-0.006-6.745,0.091-10.093,0.044    c-3.156-0.045-6.213,0.719-9.365,0.602c-13.116-0.485-26.195-1.766-39.316-2.292c-9.044-0.362-18.094-0.566-27.145-0.611    c-4.427-0.022-8.93,0.276-13.348,0.049c-1.59-0.081-2.137-0.598-3.455-1.283c-1.61-0.838-3.367-0.714-5.114-1.016    c-0.087-0.252-0.074-0.487-0.141-0.745c-0.343-1.295,0.205-3.007,0.106-4.355c-0.008-0.106-0.024-0.21-0.035-0.317    c6.149,0.868,12.086,0.485,18.458,0.5c9.677,0.023,19.208,0.255,28.884,0.198c6.388-0.038,12.78-0.103,19.149-0.632    c1.228-0.102,2.452-0.204,3.675-0.301c0.034,0.014,0.063,0.032,0.097,0.045c7.51,2.862,16.461,0.893,24.295,1.783    c4.529,0.513,9.046-0.209,13.534,0.489c4.054,0.632,8.221,0.313,12.314,0.62c4.396,0.329,8.919,0.138,13.272-0.496    c5.073-0.739,10.242,0.588,15.401,0.073c6.476-0.646,13.089-0.336,19.595-0.839C497.144,464.143,497.135,464.528,497.126,464.914z     M497.369,454.891c-0.052,2.068-0.101,4.137-0.151,6.206c-1.729-0.725-3.234-1.233-5.54-1.336    c-3.852-0.173-7.878-0.85-11.71-0.532c-2.978,0.248-5.779,0.657-8.779,0.39c-0.784-0.07-1.557-0.183-2.328-0.301    c0.565-3.089-0.31-7.218-0.43-9.793c-0.235-5,0.052-10.114-0.35-15.126c3.528-0.101,7.033-0.459,10.615-0.392    c4.222,0.081,8.441-0.563,12.612-0.487c2.183,0.04,4.482,0.317,6.802,0.546C497.081,440.853,497.54,448.111,497.369,454.891z     M498.068,429.015c-3.298-0.198-6.37-1.22-9.667-0.813c-4.827,0.594-9.861-0.106-14.762-0.055c1.437-1.263,2.791-2.676,4.106-3.71    c3.253-2.553,5.243-5.89,8.074-8.687c2.757-2.724,4.34-0.432,6.755,1.646c1.7,1.462,3.565,2.715,5.273,4.164    c2.607,2.213,4.639,4.967,6.786,7.614C502.3,429.297,499.639,429.109,498.068,429.015z"/>
	</g>
</g>
<g>
</g>
<g>
</g>
<g>
</g>
<g>
</g>
<g>
</g>
<g>
</g>
<g>
</g>
<g>
</g>
<g>
</g>
<g>
</g>
<g>
</g>
<g>
</g>
<g>
</g>
<g>
</g>
<g>
</g>
</svg>
