<?xml version="1.0" encoding="iso-8859-1"?>
<!-- Generator: Adobe Illustrator 19.0.0, SVG Export Plug-In . SVG Version: 6.00 Build 0)  -->
<svg xmlns="http://www.w3.org/2000/svg" xmlns:xlink="http://www.w3.org/1999/xlink" version="1.1" id="Layer_1" x="0px" y="0px" viewBox="0 0 512.002 512.002" style="enable-background:new 0 0 512.002 512.002;" xml:space="preserve">
<g>
	<g>
		<path d="M327.936,501.097c-0.448-1.77-1.576-2.927-3.382-3.441c-2.115-0.6-4.465,0.07-6.607,0.002    c-2.26-0.071-4.88-0.324-7.25-0.672c-0.059-1.566-0.136-3.133-0.305-4.685c0.772-3.736,0.686-7.573,0.306-11.39    c-0.281-2.816,0.321-7.674-1.49-10.108c-1.926-2.589-5.443-3.493-8.144-4.875c-1.692-0.866-0.924,0.516-1.319-1.762    c-0.35-2.019-0.376-3.991-0.388-6.036c-0.009-1.351-0.132-2.676-0.294-3.994c0.255-5.346-0.076-10.655-0.81-16.131    c-0.583-4.342-0.476-8.791-0.701-13.16c0.556-2.717,0.134-5.559,0.013-8.399c-0.204-4.826-0.493-9.631-0.49-14.459    c0.003-8.135-0.285-16.851-1.256-24.909c-1.144-9.494-0.345-19.557-0.444-29.131c-0.036-3.417-0.266-6.791-0.593-10.148    c1.006-23.525-1.406-46.865-3.469-70.304c-1.662-18.871-2.651-37.729-4.014-56.593c-0.766-10.602-0.892-21.478-0.874-32.105    c0.009-5.004-0.625-9.947-1.11-14.935c-0.468-4.816-0.346-9.769-0.984-14.552c-2.491-18.682-1.414-38.113-5.425-56.609    c-2.33-10.748-2.79-22.414-2.826-33.395c-0.017-5.242-0.464-10.439-0.532-15.673c-0.049-3.746-0.09-7.464-0.645-11.131    c0.713-4.388,0.396-9.153-4.894-9.787c-0.536-0.064-1.077-0.115-1.62-0.157c0.171-1.615-0.842-3.169-1.514-4.614    c-1.199-2.577-2.538-5.061-3.783-7.614c-1.109-2.277-2.271-4.382-3.516-6.579c-0.861-1.52-1.261-3.101-3.068-3.67    c-0.723-0.227-1.656,0.009-2.169,0.573c-1.219,1.343-1.615,3.14-2.409,4.76c-1.322,2.697-2.731,5.358-4.163,7.995    c-1.045,1.925-3.97,6.088-3.91,9.134c-0.626,0.045-1.248,0.098-1.865,0.172c-5.29,0.635-5.608,5.399-4.894,9.787    c-0.556,3.667-0.597,7.385-0.645,11.131c-0.067,5.234-0.515,10.432-0.532,15.673c-0.036,10.981-0.496,22.646-2.826,33.395    c-4.011,18.495-2.934,37.927-5.425,56.609c-0.637,4.782-0.515,9.736-0.984,14.552c-0.485,4.988-1.119,9.93-1.11,14.935    c0.017,10.627-0.109,21.501-0.874,32.105c-1.362,18.864-2.352,37.722-4.014,56.593c-2.063,23.438-4.475,46.779-3.469,70.304    c-0.326,3.357-0.558,6.731-0.593,10.148c-0.099,9.575,0.701,19.637-0.444,29.131c-0.971,8.059-1.259,16.774-1.256,24.909    c0.002,4.828-0.286,9.633-0.49,14.459c-0.092,2.188-0.363,4.376-0.233,6.508c-0.501,3.969-0.197,8.318-0.456,12.008    c-0.479,6.839-0.843,13.697-1.187,20.54c-0.08,1.6-0.895,6.282-0.855,10.125c-0.172,0.038-0.414,0.119-0.77,0.3    c-2.701,1.382-6.218,2.286-8.144,4.875c-1.809,2.434-1.209,7.291-1.49,10.108c-0.381,3.817-0.465,7.653,0.306,11.39    c-0.169,1.552-0.246,3.12-0.305,4.685c-2.371,0.348-4.99,0.602-7.25,0.672c-2.143,0.067-4.492-0.602-6.607-0.002    c-1.806,0.513-2.934,1.67-3.382,3.441c-0.483,1.909,0.096,5.439,0.597,7.289c0.535,1.976,1.212,3.072,3.485,3.306    c0.957,0.099,1.758-0.385,2.716-0.426c1.505-0.063,3.438,0.375,5.004,0.407c3.572,0.071,7.231-0.034,10.768,0.132    c3.314,0.154,6.191,0.027,9.388-0.263c2.361,0.308,4.593,0.592,7.039,0.398c7.829-0.62,15.645-0.592,23.489-0.888    c7.425-0.281,14.797-0.083,22.205,0.064c6,0.117,13.297,1.254,19.416-0.059c2.098,0.108,4.211,0.134,6.314,0.35    c3.837,0.395,7.053,0.577,10.882,0.399c3.536-0.165,7.195-0.06,10.768-0.132c1.565-0.032,3.499-0.47,5.004-0.407    c0.958,0.04,1.758,0.524,2.716,0.426c2.272-0.234,2.949-1.329,3.485-3.306C327.84,506.537,328.42,503.007,327.936,501.097z     M252.562,13.916c1.129-2.036,2.166-4.167,3.201-6.256c0.121-0.245,0.25-0.57,0.386-0.929c0.279,0.399,0.531,0.751,0.658,0.956    c1.086,1.749,1.857,3.582,2.802,5.409c1.508,2.914,2.591,6.356,4.177,9.284c-0.325,0.002-0.649-0.002-0.975,0.004    c-2.279,0.009-4.566,0.079-6.81,0.111c-2.244-0.031-4.531-0.102-6.811-0.111c-0.435-0.01-0.869-0.007-1.303-0.007    C249.682,19.723,251.058,16.63,252.562,13.916z M217.712,456.692c0.059-3.687,0.842-7.346,0.934-11.039    c0.101-4.006,0.25-8.056,0.68-12.034c0.328-3.04,0.451-6.093,0.654-9.143c0.363-1.395,0.416-2.945,0.586-4.661    c0.458-4.617,0.981-9.362,1.059-13.994c0.159-9.39,0.074-19.079,1.154-28.407c1.042-8.997,0.141-18.514,0.05-27.565    c-0.045-4.464,0.06-8.935,0.024-13.392c2.026-8.896,1.396-18.438,1.994-27.451c0.7-10.551,0.337-21.35,1.618-31.871    c0.618-5.067,0.884-10.233,0.828-15.342c-0.048-4.32,0.602-8.559,0.803-12.865c0.482-10.371,0.303-20.842,1.467-31.179    c1.136-10.089,1.727-20.251,2.638-30.376c0.891-9.893,1.905-19.971,1.906-29.937c0.001-9.299,0.942-18.572,0.908-27.851    c-0.037-10.201,0.736-20.911,2.036-31.045c0.686-5.351,1.939-10.438,2.337-15.836c0.486-6.594,1.082-13.239,1.278-19.849    c0.161-5.441,0.253-10.871,0.449-16.31c0.194-5.357,0.735-11.483-0.252-16.867c0.308-0.869,0.921-1.618,1.845-2.244    c0.505,0.063,1.008,0.126,1.513,0.189c0.298-0.076,0.598-0.135,0.898-0.184c3.367,0.512,7.239,0.313,10.884,0.095    c3.645,0.219,7.517,0.418,10.884-0.095c0.301,0.049,0.6,0.108,0.898,0.184c0.505-0.063,1.008-0.126,1.513-0.189    c0.924,0.627,1.536,1.377,1.845,2.244c-0.987,5.383-0.445,11.51-0.252,16.867c0.196,5.438,0.288,10.868,0.449,16.31    c0.196,6.609,0.793,13.255,1.278,19.849c0.398,5.398,1.651,10.485,2.337,15.836c1.299,10.133,2.073,20.844,2.036,31.045    c-0.034,9.279,0.907,18.552,0.908,27.851c0.001,9.965,1.016,20.043,1.906,29.937c0.911,10.125,1.502,20.288,2.638,30.376    c1.164,10.337,0.986,20.808,1.467,31.179c0.2,4.306,0.851,8.545,0.803,12.865c-0.058,5.11,0.21,10.275,0.827,15.342    c1.281,10.521,0.918,21.32,1.618,31.871c0.599,9.014-0.031,18.556,1.994,27.451c-0.035,4.456,0.07,8.929,0.024,13.392    c-0.091,9.051-0.992,18.568,0.05,27.565c1.08,9.327,0.995,19.016,1.154,28.407c0.078,4.632,0.6,9.377,1.059,13.994    c0.17,1.716,0.223,3.266,0.586,4.661c0.201,3.05,0.325,6.101,0.654,9.143c0.43,3.979,0.578,8.028,0.68,12.034    c0.094,3.694,0.875,7.352,0.934,11.039c0.044,2.688-0.446,6.161,0.086,9.017c-1.194-0.043-2.395-0.036-3.591,0.001    c-2.766,0.086-5.429,0.002-8.176-0.015c-0.774-0.004-1.714,0.209-2.661,0.399c-1.151,0.044-2.302,0.078-3.454,0.102    c-0.216-0.048-0.436-0.046-0.647,0.015c-6.658,0.119-13.337-0.036-19.986,0.001c-11.354,0.063-23.39-2.452-34.633-0.502h-0.008    c-1.196-0.037-2.397-0.043-3.592-0.001C218.159,462.853,217.67,459.38,217.712,456.692z M206.367,492.942    c0.39-4.353-0.425-8.884-0.091-13.273c0.15-1.969-0.372-5.147,1.041-6.737c1.659-1.866,4.493-2.111,6.827-2.199    c2.666-0.101,5.429-0.2,8.089-0.039c3.26,0.197,7.218,0.62,10.734,0.089c7.623,0.407,15.214,1.125,22.891,1.168    c8.678,0.048,17.407,0.314,26.077-0.057c3.598-0.154,9.464,0.714,13.146-1.149c1.242,0.042,2.486,0.073,3.703,0.004    c1.817,0.464,4.57,0.691,5.898,2.182c1.413,1.589,0.891,4.767,1.041,6.735c0.334,4.388-0.481,8.92-0.09,13.273    c-0.082,1.509,0.202,3.005,0.333,4.51c-0.916-0.022-1.819-0.058-2.684-0.151c-3.2-0.345-6.467-0.4-9.717-0.388    c-3.148-0.88-5.815-0.048-9.046-0.391c-2.983-0.318-5.838-0.399-8.844-0.38c-6.897,0.045-13.723,0.351-20.618,0.358    c-7.633,0.008-15.352-0.185-22.98,0.222c-2.565,0.137-5.194,0.153-7.795,0.27c-0.505-0.026-1.037-0.035-1.62-0.042    c-4.618-0.054-9.351-0.144-13.943,0.351c-0.866,0.092-1.769,0.129-2.685,0.151C206.166,495.946,206.449,494.451,206.367,492.942z     M322.63,505.003c-0.495,0.686-1.276,1.253-1.951,1.435c-0.737,0.198-1.726-0.022-2.508,0.071    c-1.181,0.139-2.353,0.391-3.545,0.44c-5.234,0.213-11.063,0.872-16.253,0.22c-2.34-0.295-4.855-0.684-7.39-0.923    c-0.058-0.024-0.099-0.061-0.16-0.082c-3.693-1.215-7.576-0.32-11.408-0.532c-3.562-0.197-7.089-0.206-10.66-0.26    c-7.64-0.115-15.267-0.333-22.921,0.088c-5.683,0.312-11.41,0.36-17.093,0.817c-3.929-0.563-8.225-0.034-12.227,0.508    c-1.495,0.038-2.959,0.169-4.215,0.51c-4.843,0.407-10.131-0.15-14.925-0.345c-2.04-0.084-4.039-0.512-6.081-0.571    c-1.403-0.04-2.807-0.818-2.67-2.542c0.194-2.442,3.839-1.357,5.43-1.403c2.197-0.065,4.44-0.272,6.646-0.606    c2.28,0.215,4.811-0.002,6.211-0.053c3.016-0.109,6.096-0.004,9.178,0.071c0.254,0.025,0.515,0.046,0.792,0.057    c3.608,0.15,7.424,0.002,11.051-0.018c8.152-0.046,16.317,0.086,24.457-0.054c7.248-0.125,14.404-0.373,21.624-0.381    c4.187-0.004,8.309,0.408,12.409,0.263c6.149,0.506,12.538-0.158,18.667,0.062c1.402,0.05,3.931,0.269,6.211,0.053    c2.207,0.334,4.451,0.54,6.646,0.606c1.255,0.037,3.596-0.736,4.571,0.047C323.407,503.191,323.222,504.184,322.63,505.003z"/>
	</g>
</g>
<g>
</g>
<g>
</g>
<g>
</g>
<g>
</g>
<g>
</g>
<g>
</g>
<g>
</g>
<g>
</g>
<g>
</g>
<g>
</g>
<g>
</g>
<g>
</g>
<g>
</g>
<g>
</g>
<g>
</g>
</svg>
