<?xml version="1.0" encoding="iso-8859-1"?>
<!-- Generator: Adobe Illustrator 19.0.0, SVG Export Plug-In . SVG Version: 6.00 Build 0)  -->
<svg xmlns="http://www.w3.org/2000/svg" xmlns:xlink="http://www.w3.org/1999/xlink" version="1.1" id="Layer_1" x="0px" y="0px" viewBox="0 0 512 512" style="enable-background:new 0 0 512 512;" xml:space="preserve">
<g>
	<g>
		<path d="M59.793,384.852c-0.782-3.253-0.652-7.052-3.343-9.49c-2.284-2.07-5.402-2.184-7.873-0.443    c-4.66,3.285-6.08,8.955-6.425,14.351c-0.165,2.573-0.467,5.628-0.029,8.177c0.514,2.994,3.135,2.815,5.909,2.833    c2.483,0.017,5.065,0.185,7.538,0.071C62.761,400.019,60.982,389.796,59.793,384.852z M56.107,396.155    c-2.311,0.677-7.064-0.188-8.908-0.083c-2.836,0.16-1.987-5.405-1.749-7.458c0.276-2.377,0.813-4.68,1.97-6.797    c1.248-2.284,4.468-7.352,7.744-2.042c1.182,1.916,1.474,6.17,1.676,8.413C57.076,390.819,56.529,393.535,56.107,396.155z"/>
	</g>
</g>
<g>
	<g>
		<path d="M167.909,392.502c0.295-6.588-1.005-13.679-6.542-17.583c-2.471-1.741-5.588-1.627-7.873,0.443    c-2.691,2.438-2.561,6.237-3.343,9.49c-1.189,4.945-2.968,15.167,4.223,15.499c2.474,0.114,5.056-0.054,7.538-0.071    c1.557-0.011,3.79,0.22,5.142-0.8C169.026,397.995,168.628,394.83,167.909,392.502z M162.381,396.084    c-0.785,0.233-8.436,0.728-8.542,0.071c-0.422-2.62-0.97-5.336-0.733-7.968c0.202-2.243,0.495-6.497,1.676-8.413    c3.276-5.31,6.495-0.242,7.744,2.042c1.156,2.117,1.694,4.42,1.97,6.797C164.8,391.245,165.525,395.145,162.381,396.084z"/>
	</g>
</g>
<g>
	<g>
		<path d="M118.181,222.953c-1.313-2.918,0.227-7.056-0.237-10.186c-0.403-2.711-1.386-6.2-2.475-8.708    c-2.159-4.973-7.119-7.05-12.259-5.479c-4.524,1.382-9.024,4.667-10.532,9.307c-0.702,2.161-0.507,4.364-0.337,6.586    c0.162,2.134-0.265,3.605-0.509,5.642c-0.348,2.894,0.235,7.509,3.894,7.781c3.617,0.268,7.849,0.029,11.475-0.314    c3.419-0.324,7.005-0.076,10.162-1.503C118.568,225.536,118.642,223.978,118.181,222.953z M113.46,222.571    c-1.696,0.254-3.651,0.066-5.204,0.264c-2.959,0.377-5.75,0.317-8.715,0.365c-0.875,0.014-2.406,0.421-3.305,0.233    c0.016-0.093,0.032-0.184,0.046-0.277c0.004-0.017,0.006-0.041,0.008-0.059c1.051-7.697-2.503-16.433,6.982-20.038    c7.271-2.763,10.419,5.778,10.489,11.745C113.792,217.392,113.134,220.026,113.46,222.571z"/>
	</g>
</g>
<g>
	<g>
		<path d="M117.678,387.809c-0.241-3.775-0.714-7.054-2.555-10.266c-3.621-6.316-10.038-9.825-16.633-5.003    c-3.827,2.798-5.513,7.638-6.187,12.153c-0.31,2.084-1.486,12.831,1.386,13.304c4.255,0.7,8.373-0.245,12.608-0.389    c2.71-0.093,6.703,1.191,9.174-0.331C118.062,395.683,117.844,390.406,117.678,387.809z M113.745,391.271    c-0.418,2.971-0.43,2.758-3.283,2.611c-4.762-0.245-9.684,1.013-14.427,0.628c-0.051-0.044-0.101-0.088-0.152-0.132    c-0.129-0.112-0.279-0.203-0.438-0.284c0.765-5.447,0.203-12.256,2.865-16.924c2.46-4.314,8.657-5.211,12.023-1.561    c1.556,1.686,2.992,4.975,3.19,7.227C113.775,385.673,114.145,388.428,113.745,391.271z"/>
	</g>
</g>
<g>
	<g>
		<path d="M469.852,389.271c-0.345-5.396-1.765-11.065-6.425-14.351c-2.471-1.741-5.588-1.627-7.873,0.443    c-2.691,2.438-2.561,6.237-3.343,9.49c-1.189,4.944-2.968,15.166,4.223,15.499c2.474,0.114,5.056-0.054,7.538-0.071    c2.774-0.019,5.395,0.161,5.909-2.833C470.319,394.899,470.016,391.843,469.852,389.271z M464.808,396.071    c-1.844-0.104-6.597,0.761-8.908,0.083c-0.424-2.619-0.971-5.335-0.734-7.967c0.202-2.243,0.495-6.497,1.676-8.413    c3.276-5.31,6.495-0.242,7.744,2.042c1.156,2.117,1.694,4.42,1.97,6.797C466.794,390.667,467.643,396.231,464.808,396.071z"/>
	</g>
</g>
<g>
	<g>
		<path d="M495.022,494.702c-2.424-1.152-5.029-1.53-7.667-1.633c1.741-3.306,1.469-7.799,1.783-11.353    c0.433-4.886,0.284-9.855-0.318-14.687c-1.081-8.679,0.487-16.971-1.272-25.438c1.83-0.063,3.672-0.271,5.096-0.919    c5.63-2.557,3.385-11.293,2.395-15.871c-1.325-6.128-4.294-7.627-9.446-8.169c1.8-4.371,0.998-10.318,0.968-14.679    c-0.049-7.081-0.86-14.032-0.354-21.077c0.421-5.861,0.623-12.001,0.3-17.885c-0.172-3.106-0.936-5.993-1.336-9.064    c-0.026-0.201-0.047-0.38-0.067-0.556c1.578-0.291,3.094-0.73,4.207-1.463c2.763-1.821,2.408-5.337,2.216-8.243    c-0.209-3.178-0.407-7.221-1.7-10.136c-0.522-1.178-1.862-2.164-2.317-3.264c-0.792-1.913-0.422-4.084-0.505-6.168    c-0.101-2.531-0.035-5.284-1.071-7.576c1.243,0.165-0.487-0.672,0.937,0.112c1.214,0.668,2.781,0.295,3.494-0.916    c2.424-4.121,4.731-18.138-1.142-20.488c-0.42-0.168-0.883-0.245-1.367-0.267c-0.303-6.692,0.193-13.344,0.19-20.042    c-0.002-3.964,0.892-7.795-1.138-10.846c2.396-0.07,4.839,0.1,7.162-0.235c10.205-1.469,4.508-12.472,1.354-17.887    c-2.526-4.336-5.955-8.124-9.417-11.887c1.351-1.028,1.456-3.031,1.318-5.04c-0.349-5.071-0.278-10.31-0.851-15.354    c-0.757-6.672-9.85-6.338-15.444-5.171c-2.599-9.189-4.869-18.522-7.91-27.534c-3.574-10.594-7.632-20.958-11.312-31.538    c-3.879-11.15-7.403-22.531-10.697-33.858c-1.943-6.685-3.25-13.536-5.255-20.21c-1.939-6.458-4.064-12.56-5.362-19.195    c-2.67-13.642-6.196-27.407-9.858-40.821c-1.656-6.068-3.756-11.995-5.346-18.071c-1.48-5.656-4.271-10.644-6.045-16.119    c-0.324-1-1.382-1.325-2.211-1.067c-0.829-0.258-1.887,0.067-2.211,1.067c-1.774,5.474-4.565,10.463-6.045,16.119    c-1.59,6.077-3.69,12.003-5.346,18.071c-3.662,13.416-7.188,27.179-9.858,40.821c-1.299,6.636-3.424,12.738-5.362,19.195    c-2.004,6.674-3.312,13.525-5.255,20.21c-3.293,11.328-6.819,22.709-10.697,33.858c-3.68,10.579-7.738,20.943-11.312,31.538    c-3.041,9.012-5.31,18.345-7.91,27.534c-3.571-0.745-8.56-1.141-11.904,0.4c0.388-3.726,0.579-7.465,0.739-11.331    c0.156-3.781,3.089-13.079,0-16.182c-1.916-1.925-8.424-4.066-10.751-1.881c-1.128,1.059-1.498,2.758-1.812,4.208    c-0.131,0.604-0.124,1.824-0.483,2.325c-0.48,0.672-1.589-0.075-2.383-0.212c-0.806-0.14-1.569-0.179-2.338-0.165    c-2.101-0.356-4.306-0.491-5.438-1.604c-0.984-0.966-0.644-5.264-0.532-6.632c0.219-2.673,1.042-5.253,1.206-7.951    c0.533-8.769-1.191-17.764-1.151-26.587c0.012-2.622,0.235-4.82-2.593-5.909c-2.545-0.98-7.579-1.054-10.17-0.877    c-4.149,0.282-5.151,4.64-4.93,8.614c-2.737-0.094-6.275,0.176-7.46-0.827c-2.247-1.901-0.827-7.44-0.846-10.115    c-0.03-4.188-0.371-8.341-0.351-12.543c0.014-3.104,0.593-6.983-0.414-9.963c-0.396-1.172-1.338-1.899-2.584-1.968    c-2.833-0.154-7.039-1.061-9.484,0.786c-2.656,2.006-2.91,7.571-2.581,10.658c-3.482-0.805-8.334,0.424-11.454,0.456    c-3.396,0.036-7.027-0.331-10.33,0.609c0.085-0.202,0.16-0.413,0.193-0.65c0.396-2.976,0.243-8.974-2.534-11.073    c-2.445-1.847-6.651-0.94-9.484-0.786c-1.246,0.069-2.188,0.795-2.584,1.968c-1.007,2.98-0.428,6.86-0.414,9.963    c0.019,4.202-0.321,8.354-0.351,12.543c-0.019,2.674,1.401,8.213-0.846,10.115c-1.185,1.003-4.722,0.733-7.46,0.827    c0.22-3.974-0.781-8.333-4.93-8.614c-2.592-0.176-7.625-0.102-10.17,0.877c-2.829,1.089-2.607,3.287-2.595,5.909    c0.042,8.823-1.684,17.818-1.151,26.587c0.164,2.697,0.987,5.278,1.206,7.951c0.112,1.368,0.452,5.664-0.532,6.632    c-1.134,1.113-3.337,1.249-5.438,1.604c-0.769-0.013-1.532,0.025-2.338,0.165c-0.794,0.137-1.903,0.883-2.383,0.212    c-0.359-0.501-0.351-1.72-0.483-2.325c-0.314-1.45-0.685-3.149-1.812-4.208c-2.327-2.187-8.836-0.044-10.751,1.881    c-3.089,3.104-0.156,12.401,0,16.182c0.16,3.867,0.353,7.606,0.739,11.331c-3.344-1.54-8.333-1.144-11.904-0.4    c-2.599-9.189-4.869-18.522-7.91-27.534c-3.574-10.594-7.632-20.958-11.312-31.538c-3.879-11.15-7.403-22.531-10.697-33.858    c-1.943-6.685-3.25-13.536-5.255-20.21c-1.939-6.458-4.064-12.56-5.362-19.195c-2.67-13.642-6.196-27.407-9.858-40.821    c-1.656-6.068-3.756-11.995-5.346-18.071c-1.479-5.656-4.271-10.644-6.045-16.119c-0.324-1-1.382-1.325-2.211-1.067    c-0.829-0.258-1.887,0.067-2.211,1.067c-1.774,5.474-4.565,10.463-6.045,16.119c-1.59,6.077-3.69,12.003-5.346,18.071    c-3.663,13.416-7.188,27.179-9.858,40.821c-1.299,6.636-3.424,12.738-5.362,19.195c-2.004,6.674-3.312,13.525-5.255,20.21    c-3.293,11.328-6.819,22.709-10.697,33.858c-3.68,10.579-7.738,20.943-11.312,31.538c-3.041,9.012-5.31,18.345-7.91,27.534    c-5.594-1.167-14.687-1.501-15.444,5.171c-0.573,5.046-0.502,10.283-0.851,15.354c-0.138,2.009-0.034,4.011,1.318,5.04    c-3.463,3.764-6.891,7.553-9.417,11.887c-3.154,5.414-8.851,16.416,1.354,17.887c2.323,0.335,4.766,0.164,7.162,0.235    c-2.03,3.052-1.136,6.882-1.138,10.846c-0.004,6.698,0.493,13.348,0.19,20.042c-0.484,0.022-0.947,0.099-1.367,0.267    c-5.874,2.35-3.566,16.367-1.143,20.488c0.712,1.211,2.279,1.584,3.494,0.916c1.425-0.783-0.304,0.053,0.937-0.112    c-1.036,2.291-0.97,5.044-1.071,7.576c-0.084,2.083,0.286,4.254-0.505,6.168c-0.455,1.1-1.794,2.086-2.317,3.264    c-1.294,2.916-1.491,6.958-1.7,10.136c-0.191,2.907-0.548,6.423,2.216,8.243c1.113,0.733,2.629,1.172,4.207,1.463    c-0.02,0.176-0.041,0.356-0.067,0.556c-0.4,3.071-1.164,5.958-1.336,9.064c-0.325,5.884-0.122,12.025,0.3,17.885    c0.507,7.046-0.304,13.996-0.354,21.077c-0.03,4.361-0.833,10.309,0.968,14.679c-5.152,0.542-8.121,2.041-9.446,8.169    c-0.989,4.578-3.234,13.313,2.395,15.871c1.426,0.649,3.267,0.857,5.096,0.919c-1.759,8.466-0.191,16.759-1.272,25.438    c-0.602,4.833-0.75,9.801-0.318,14.687c0.314,3.552,0.042,8.046,1.784,11.353c-2.638,0.104-5.245,0.48-7.667,1.633    c-5.003,2.38-6.239,13.147-0.645,15.593c3.435,1.502,9.222,0.23,12.862,0.229c6.7-0.004,13.399,0.002,20.098,0.014    c3.559,0.006,7.265-0.78,10.772-0.539c2.426,0.167,4.293,0.511,6.702,0.182c1.335-0.18,2.705-0.252,4.093-0.279    c9.996,2.75,22.291,1.453,32.164,0.637c8.805-0.728,17.583,0.047,26.214-0.96c4.562,0.609,9.446-0.007,13.927,0.603    c2.409,0.329,4.276-0.016,6.702-0.182c3.507-0.241,7.213,0.545,10.772,0.539c6.7-0.012,13.399-0.018,20.098-0.014    c2.911,0.001,7.18,0.792,10.535,0.349c2.372,0.438,5.054,0.473,7.211,0.519c5.1,0.107,10.236-0.14,15.297,0.373    c3.319,0.336,5.823-0.97,5.652-4.734c-0.236-5.178-0.698-10.333-0.874-15.498c-0.273-8.008,0.472-15.87,2.32-23.67    c1.625-6.856,5.437-12.936,11.517-16.745c3.875-2.429,8.774-3.886,13.391-5.189c1.963-0.205,3.934-0.344,5.899-0.468    c5.911-0.37,11.572,0.134,17.178,1.235c3.787,1.126,7.597,2.456,10.735,4.421c6.08,3.809,9.892,9.889,11.517,16.745    c1.848,7.801,2.593,15.663,2.32,23.67c-0.083,2.441,0.061,4.832,0.063,7.233c0,2.962-1.17,5.749-0.724,8.767    c0.977,6.625,16.388,3.951,20.739,3.859c2.155-0.044,4.839-0.079,7.21-0.519c3.356,0.443,7.624-0.348,10.535-0.349    c6.699-0.004,13.399,0.002,20.098,0.014c3.559,0.006,7.265-0.78,10.772-0.539c2.426,0.167,4.293,0.511,6.702,0.182    c4.48-0.61,9.364,0.006,13.927-0.603c8.631,1.007,17.409,0.232,26.214,0.96c9.873,0.816,22.168,2.113,32.164-0.637    c1.388,0.028,2.758,0.099,4.093,0.279c2.409,0.329,4.276-0.016,6.702-0.182c3.507-0.241,7.213,0.545,10.772,0.539    c6.699-0.012,13.399-0.018,20.098-0.014c3.64,0.001,9.429,1.273,12.862-0.229C501.261,507.85,500.025,497.083,495.022,494.702z     M487.833,423.853c1.253,1.051,2.81,9.813,1.867,10.954c-1.142,1.378-8.276,0.501-10,0.501    c-6.456-0.001-12.629,0.663-19.059,0.138c-6.452-0.525-12.843-0.082-19.305-0.741c-5.394-0.549-11.832-0.677-17.434,0.335    c-5.153-0.152-10.324-0.135-15.47-0.651c-5.489-0.551-11.404-0.62-16.92-0.226c-1.829,0.13-3.731,0.199-5.636,0.318    c-4.439-0.365-9.089-0.187-13.145,0.226c-6.462,0.659-12.853,0.217-19.305,0.741c-6.43,0.525-12.602-0.14-19.059-0.138    c-1.726,0-8.858,0.877-10-0.501c-0.943-1.14,0.614-9.903,1.866-10.954c1.303-1.093,6.506-0.673,8.098-0.717    c2.842-0.079,5.751-0.463,8.559-0.495c4.942-0.058,9.937,0.02,14.919,0.433c5.006,0.416,10.079,0.462,15.158,0.282    c3.136,0.439,6.619,0.049,9.506,0.079c7.514,0.076,15.058-0.581,22.565-0.254c7.112,0.31,14.04,0.692,21.189,0.404    c2.096-0.084,4.135-0.421,6.175-0.745c7.967,0.622,15.991,0.886,23.856,0.232c4.982-0.413,9.976-0.491,14.919-0.433    c2.808,0.031,5.716,0.415,8.559,0.495C481.327,423.181,486.53,422.76,487.833,423.853z M481.641,488.357    c-1.166,4.051-9.18,4.059-12.733,4.135c-4.797,0.101-9.476,0.969-14.275,1.105c-7.231,0.205-14.002,0.94-20.893,2.025    c-6.88-0.205-13.756-0.525-20.589-1.187c-7.965-0.771-15.622,0.321-23.551-0.008c-6.5-0.271-13.425-1.453-19.897-0.173    c-3.36-0.327-6.757-0.558-10.269-0.657c-4.799-0.136-9.478-1.004-14.275-1.105c-3.554-0.076-11.567-0.083-12.733-4.135    c-2.203-7.653-0.17-16.322-0.329-24.044c-0.084-4.109-0.107-8.174-0.474-12.264c-0.325-3.612,0.091-6.993-0.493-10.448    c4.451-0.001,8.769,0.079,13.211,0.466c3.786,0.327,7.215-0.301,10.978-0.515c3.72-0.213,7.466,0.236,11.188,0.125    c4.249-0.129,8.377-0.922,12.655-0.842c3.986,0.073,7.901,0.315,11.79-0.371c0.445-0.034,0.891-0.069,1.341-0.097    c5.792-0.378,11.66,0.046,17.424,0.398c8.282,0.507,17.485,1.332,25.954,0.073c4.006,0.019,7.896,0.717,11.891,0.838    c3.722,0.112,7.468-0.337,11.188-0.125c3.763,0.214,7.19,0.842,10.978,0.515c4.442-0.385,8.76-0.467,13.212-0.466    c-0.585,3.454-0.17,6.837-0.493,10.448c-0.367,4.092-0.39,8.156-0.474,12.264C481.811,472.035,483.845,480.704,481.641,488.357z     M293.233,422.844c-3.412,0.002-6.894-0.232-10.39-0.418c-3.49-0.622-6.935-0.462-10.615-0.515    c-5.194-0.076-10.348-0.29-15.54-0.289c-6.92,0.002-14.774-0.426-21.922,0.599c-5.356,0.073-10.759,0.626-15.994,0.622    c-8.337-0.004-17.819-1.259-26.212,0.37c-1.484-4.797-4.355-6.088-9.026-6.579c1.8-4.371,0.998-10.318,0.968-14.679    c-0.049-7.081-0.86-14.032-0.354-21.077c0.421-5.861,0.623-12.001,0.3-17.885c-0.172-3.106-0.936-5.993-1.336-9.064    c-0.026-0.201-0.047-0.38-0.067-0.556c1.578-0.291,3.094-0.73,4.207-1.463c0.212-0.14,0.398-0.291,0.575-0.45    c1.651,0.225,3.315,0.345,4.841,0.531c4.879,0.593,9.789,0.85,14.697,0.868c7.331,0.026,15.58,0.765,23.239-0.19    c7.908,1.214,16.693,0.146,24.226,0.215c5.923,0.054,11.946-0.483,17.846-0.182c3.581,0.183,7.004,0.379,10.398,0.152    c7.176,0.669,14.765,0.028,21.564,0.004c4.909-0.017,9.819-0.274,14.697-0.868c1.525-0.185,3.19-0.306,4.841-0.531    c0.177,0.158,0.363,0.31,0.575,0.45c1.113,0.733,2.63,1.172,4.207,1.463c-0.021,0.176-0.041,0.356-0.067,0.556    c-0.4,3.071-1.164,5.958-1.336,9.064c-0.325,5.884-0.122,12.025,0.3,17.885c0.507,7.046-0.304,13.996-0.354,21.077    c-0.03,4.361-0.833,10.309,0.968,14.679c-4.669,0.491-7.541,1.781-9.026,6.579C311.052,421.587,301.57,422.842,293.233,422.844z     M318.595,426.775c-0.359,1.692-0.718,3.651-0.822,5.575c-7.526-1.206-15.734-0.8-23.18-0.929    c-5.056-0.088-10.254-0.265-15.393-0.135c-3.839-0.349-7.937-0.011-11.623,0.014c-5.325,0.035-10.614-0.24-15.937-0.255    c-5.143-0.016-10.214-0.012-15.326,0.379c-6.264-0.357-12.691-0.112-18.902-0.004c-7.448,0.129-15.654-0.276-23.18,0.929    c-0.104-1.924-0.463-3.883-0.822-5.575c8.109,1.479,17.473,0.834,25.363,0.828c6.952-0.006,14.821,0.265,22.118-0.686    c0.284,0.002,0.574,0.004,0.848,0.01c4.725,0.108,9.442,0.166,14.163,0.172c5.589,0.006,11.517,0.335,17.341,0.061    c6.679,0.658,13.707,0.439,19.988,0.444C301.122,427.609,310.486,428.254,318.595,426.775z M210.934,335.496    c8.872-0.348,17.63,0.332,26.345-0.688c0.56,0.077,1.111,0.152,1.648,0.218c5.19,0.634,10.386,0.589,15.624,0.608    c7.307,0.028,15.339,0.591,22.751-0.573c7.866,0.641,15.771,0.123,23.769,0.436c7.503,0.295,15.284,0.699,22.653-0.55    c-0.486,1.589-0.739,3.37-0.907,5.117c-7.55-0.958-15.67,0.052-23.192,0.018c-8.95-0.04-17.767-0.012-26.715,0.318    c-0.255,0.01-0.473,0.103-0.65,0.241c-6.742-0.365-13.6-0.107-20.219-0.111c-4.914-0.004-9.83-0.325-14.724-0.211    c-0.295,0.007-0.61,0.005-0.931,0.001c-8.02-0.244-15.96-0.274-24.002-0.24c-7.523,0.032-15.642-0.976-23.192-0.018    c-0.17-1.747-0.421-3.528-0.907-5.117C195.651,336.197,203.431,335.791,210.934,335.496z M194.892,330.596    c0.685-2.421,0.496-5.368,3.764-5.803c1.933-0.256,4.037,0.787,4.645,2.71c0.319,1.01,0.317,2.101,0.398,3.176    c-2.604,0.011-5.207-0.008-7.816-0.06C195.558,330.614,195.226,330.605,194.892,330.596z M214.685,330.482    c1.079-4.088,0.498-10.356,6.063-10.416c2.993-0.033,6.026,1.143,6.459,4.476c0.248,1.903,0.165,3.921,0.144,5.861    C223.118,330.349,218.891,330.392,214.685,330.482z M244.561,330.011c0.691-1.477,0.915-3.151,1.365-4.715    c1.03-3.587,4.329-6.234,7.881-7.254c7.979-2.29,8.866,5.968,8.657,11.954c-3.346,0.059-6.665,0.178-9.862,0.19    C250.029,330.195,247.312,330.078,244.561,330.011z M284.798,324.541c0.433-3.331,3.466-4.508,6.459-4.476    c5.565,0.06,4.983,6.328,6.063,10.416c-4.206-0.09-8.432-0.132-12.666-0.081C284.633,328.462,284.55,326.444,284.798,324.541z     M308.306,330.68c0.082-1.075,0.079-2.165,0.4-3.176c0.608-1.923,2.713-2.966,4.645-2.71c3.268,0.433,3.078,3.382,3.764,5.803    c-0.333,0.008-0.666,0.017-0.992,0.024C313.513,330.672,310.91,330.691,308.306,330.68z M322.463,347.591    c-6.288-0.119-12.794,0.947-18.927,0.911c-5.859-0.034-11.695-0.084-17.534-0.32c-9.404-1.786-19.896-0.366-29.202-0.278    c-6.643,0.063-13.291,0.142-19.936,0.277c-3.214-0.491-6.679-0.174-9.865-0.034c-6.171,0.273-12.336,0.32-18.528,0.356    c-6.134,0.036-12.641-1.03-18.929-0.911c0.119-1.278,0.012-2.626-0.07-3.868c8.174,1.152,16.935,0.477,25.069,0.569    c4.503,0.051,8.96-0.084,13.442,0.084c2.373,0.089,4.609,0.137,6.774-0.203c4.752,0.466,9.641,0.356,14.381,0.356    c8.915,0.001,17.469,0.191,26.148-0.783c2.774,0.812,5.639,0.747,8.736,0.632c4.483-0.169,8.939-0.034,13.442-0.084    c8.134-0.091,16.895,0.584,25.069-0.569C322.45,344.965,322.344,346.313,322.463,347.591z M334.012,353.972    c5.508,0.509,10.979,1.295,16.535,1.314c5.449,0.018,10.638-0.604,16.089-0.375c1.498,0.063,2.959,0.004,4.395-0.156    c4.041,0.522,8.629-0.385,12.417-0.374c7.533,0.022,14.703-0.542,22.231-0.026c3.478,0.238,7.176,0.129,10.644-0.194    c4.11-0.383,8.009,0.017,12.123,0.03c4.003,0.013,7.994,0.576,11.982,0.427c0.365-0.013,0.728-0.043,1.09-0.077    c1.919,0.325,3.881,0.455,5.91,0.369c5.45-0.229,10.639,0.394,16.089,0.375c5.556-0.019,11.028-0.805,16.535-1.314    c-0.522,3.312,0.374,7.399,0.298,10.116c-0.174,6.231-0.865,12.467-1.519,18.661c-0.703,6.662,0.389,13.599,0.304,20.326    c-0.051,4.01-1.573,9.204-0.325,13.229c-5.24-0.06-10.393,0.245-15.577,0.31c-4.113,0.053-8.11,0.996-12.232,1.116    c-3.926,0.114-7.858,0.067-11.785,0.124c-1.067-0.22-2.123-0.374-3.095-0.413c-2.415-0.097-4.832,0.472-7.269,0.774    c-1.32,0.048-2.64,0.088-3.959,0.101c-2.441,0.024-4.675-0.189-6.996-0.108c-3.53-0.144-7.048-0.38-10.588-0.777    c-7.531-0.841-15.228-0.178-22.787-0.112c-4.337,0.039-8.761-0.126-13.062,0.503c-2.8-0.012-5.602-0.011-8.4-0.091    c-4.121-0.119-8.118-1.063-12.232-1.116c-5.184-0.065-10.337-0.371-15.577-0.31c1.248-4.025-0.274-9.219-0.325-13.229    c-0.084-6.727,1.007-13.664,0.305-20.326c-0.654-6.194-1.345-12.429-1.519-18.661    C333.638,361.371,334.534,357.284,334.012,353.972z M485.709,346.151c-2.102,1.613-7.644,0.774-10.396,1.114    c-5.381,0.665-10.916,1.473-16.363,1.1c-3.59-0.245-6.677-0.427-10.259,0.007c-3.635,0.442-7.261-0.018-10.842,0.083    c-3.149-0.12-6.3-0.18-9.402-0.276c-3.703-0.114-7.259-0.774-10.962-0.433c-3.832,0.351-7.809,0.555-11.656,0.229    c-6.938-0.591-13.526,0.089-20.455,0.034c-5.156-0.041-11.494-0.611-16.729,0.551c-1.088-0.008-2.178-0.054-3.27-0.188    c-3.583-0.436-6.668-0.253-10.259-0.007c-5.447,0.372-10.981-0.434-16.363-1.1c-2.753-0.341-8.295,0.498-10.396-1.114    c-1.075-0.824-0.788-6.383-0.131-8.502c0.314-1.013,0.88-1.688,1.518-2.27c4.193,1.007,8.134,2.064,12.544,1.727    c6.349-0.485,12.971-0.448,19.308,0.209c3.413,0.354,6.764-0.173,10.132-0.709c1.862,0.196,3.823,0.096,5.55,0.14    c7.076,0.173,13.998,0.723,21.083,0.62c7.903-0.116,15.811-0.061,23.715-0.148c6.381-0.071,13.104,0.231,19.504-0.729    c3.622,0.57,7.222,1.208,10.892,0.828c6.337-0.657,12.958-0.694,19.308-0.209c4.411,0.336,8.351-0.72,12.545-1.727    c0.638,0.581,1.203,1.256,1.517,2.27C486.497,339.768,486.783,345.327,485.709,346.151z M331.628,264.334    c3.503,0.149,7.011,0.085,10.52,0.105c7.411,0.042,14.774,0.727,22.154,0.706c7.258-0.019,13.926-0.212,21.042-1.407    s14.51,0.329,21.581-1.013c0.042-0.008,0.069-0.031,0.108-0.041c0.04,0.01,0.066,0.032,0.108,0.041    c7.071,1.342,14.465-0.182,21.581,1.013c7.116,1.195,13.784,1.388,21.042,1.407c7.379,0.021,14.743-0.664,22.154-0.706    c3.508-0.019,7.017,0.045,10.52-0.105c-0.034,0.264-0.022,0.54,0.054,0.829c0.622,2.352-0.799,5.052-1.147,7.348    c-0.471,3.104-0.134,6.301-0.357,9.43c-0.261,3.656-1.581,9.585-0.264,13.672c-2.35,0.069-4.719,0.019-7.056,0.052    c-3.396,0.047-7.109,0.551-10.647,0.678c-2.484-0.289-5.725-1.324-8.281-0.761c-0.314-3.788-0.54-7.455-1.966-11.053    c-1.927-4.861-8.323-10.049-13.835-9.726c-6.193,0.363-8.858,7.764-9.985,12.762c-0.692,3.071-0.996,6.08-1.114,9.088    c-6.57-1.714-14.276-0.869-20.83-0.888c-4.49-0.013-9.234,0.421-13.707,0.081c-2.822-0.214-4.663-0.936-7.101,0.398    c-0.129-2.871-0.431-5.746-1.093-8.679c-1.126-4.998-3.793-12.399-9.985-12.762c-5.512-0.323-11.909,4.865-13.835,9.726    c-1.426,3.597-1.651,7.265-1.965,11.053c-2.556-0.563-5.797,0.471-8.281,0.761c-3.537-0.126-7.249-0.631-10.647-0.678    c-2.337-0.032-4.705,0.017-7.055-0.052c1.317-4.087-0.002-10.017-0.264-13.672c-0.224-3.128,0.114-6.326-0.357-9.43    c-0.348-2.296-1.769-4.997-1.147-7.348C331.65,264.876,331.662,264.599,331.628,264.334z M481.141,321.699    c-0.158,2.705-0.948,7.16-0.131,9.824c-3.583-0.424-7.228-0.416-10.86-0.824c-5.214-0.585-11.139-0.419-16.358,0.076    c-6.131,0.581-12.015-0.759-18.178-0.249c-3.519,0.291-7.326,0.307-10.777,0.965c-0.531-0.002-1.064-0.002-1.59-0.008    c-7.011-0.084-14.024-0.155-21.035-0.159c-6.434-0.004-12.684-0.32-19.084-0.611c-1.014-0.046-2.051-0.07-3.093-0.081    c-0.53-0.034-1.065-0.064-1.585-0.107c-6.164-0.511-12.046,0.83-18.178,0.249c-5.219-0.495-11.143-0.661-16.358-0.076    c-3.632,0.407-7.277,0.401-10.86,0.824c0.817-2.663,0.026-7.118-0.131-9.824c-0.101-1.725,0.105-3.447-0.224-5.007    c4.253,0.645,8.641,0.491,12.955,0.619c7.662,0.227,15.105,0.025,22.775-0.194c6.589-0.188,12.803,0.534,19.38-0.344    c3.802-0.508,7.911-0.333,11.871-0.685c1.581,0.117,3.171,0.122,4.691,0.134c2.927,0.023,6.216-0.061,9.272-0.207    c4.186,0.45,8.572,0.22,12.612,0.759c6.577,0.879,12.791,0.156,19.38,0.344c7.668,0.219,15.113,0.42,22.775,0.194    c4.315-0.128,8.702,0.026,12.955-0.619C481.037,318.254,481.242,319.976,481.141,321.699z M362.841,310.577    c0.327-1.114,0.353-2.325,0.357-3.498c0.012-2.923,0.04-5.633,0.356-8.566c0.739-6.821,0.226-13.204,6.31-17.523    c14.233-10.104,11.049,23.872,11.097,30.538c-4.14-0.315-8.231-0.9-12.531-0.99C366.566,310.497,364.703,310.519,362.841,310.577z     M386.166,311.719c-0.051-4.34,0.153-8.495,0.111-12.624c5.675,3.347,14.507,1.641,20.733,1.622    c6.518-0.019,14.212,0.817,20.769-0.874c-0.012,3.883,0.167,7.798,0.119,11.875c-0.993-0.011-1.993-0.046-3.006-0.131    c-1.745-0.148-3.486-0.169-5.229-0.182c-4.398-0.865-9.331-0.551-13.624-0.335c-2.341,0.118-5.236-0.04-7.589-0.22    c-2.224-0.171-4.656-0.532-6.87-0.122C389.66,311.084,388.201,311.697,386.166,311.719z M444.2,280.989    c6.083,4.319,5.571,10.702,6.31,17.523c0.318,2.933,0.344,5.643,0.356,8.566c0.005,1.173,0.029,2.384,0.357,3.498    c-1.862-0.059-3.725-0.079-5.589-0.041c-4.3,0.09-8.391,0.675-12.531,0.99C433.15,304.861,429.967,270.885,444.2,280.989z     M336.243,300.841c2.396-0.023,4.792-0.036,7.188-0.054c1.777,0.526,3.828,0.631,5.175,0.672c2.26,0.067,4.515-0.344,6.738-0.637    c1.129-0.149,2.25,0.001,3.3-0.01c-0.096,0.805-0.167,1.605-0.143,2.376c0.071,2.212,0.895,4.299,1.041,6.519    c0.025,0.391,0.148,0.721,0.347,0.994c-4.746,0.242-9.489,0.67-14.232,0.965c-5.698,0.354-11.88-1.105-17.378,0.471    c-0.042-0.011-0.087-0.019-0.129-0.03c-0.639-3.566-1.879-8.347-0.113-10.784c0.126-0.174,0.188-0.306,0.22-0.416    c0.262-0.004,0.597-0.023,1.042-0.072C331.495,300.591,334.008,300.863,336.243,300.841z M485.916,312.104    c-0.042,0.011-0.087,0.018-0.129,0.03c-5.497-1.575-11.68-0.116-17.377-0.471c-4.743-0.295-9.485-0.723-14.232-0.965    c0.197-0.273,0.321-0.603,0.347-0.994c0.144-2.219,0.97-4.307,1.041-6.519c0.024-0.769-0.047-1.569-0.143-2.376    c1.049,0.011,2.171-0.14,3.3,0.01c2.223,0.294,4.479,0.705,6.738,0.637c1.347-0.041,3.397-0.146,5.175-0.672    c2.396,0.019,4.792,0.032,7.188,0.054c2.235,0.022,4.748-0.25,6.945-0.008c0.445,0.049,0.779,0.069,1.042,0.072    c0.031,0.109,0.094,0.242,0.22,0.416C487.794,303.757,486.555,308.538,485.916,312.104z M473.823,212.61    c1.793,0.126,6.624-0.69,7.821,1.063c0.507,0.742-0.039,3.261-0.04,4.284c-0.002,1.563,0.019,3.062,0.187,4.615    c0.161,1.498,0.356,2.864,0.313,4.367c-0.044,0.696-0.085,1.392-0.122,2.088c-0.031,0.252-0.017,0.449,0.018,0.621    c-3.852-4.386-7.311-9.005-9.063-14.653c-0.265-0.856-0.516-1.717-0.773-2.578C472.647,212.507,473.18,212.564,473.823,212.61z     M332.421,213.672c1.197-1.752,6.028-0.936,7.821-1.063c0.643-0.046,1.177-0.102,1.656-0.191c-0.256,0.86-0.508,1.722-0.773,2.578    c-1.751,5.648-5.211,10.268-9.062,14.653c0.036-0.172,0.051-0.37,0.018-0.621c-0.036-0.697-0.077-1.392-0.122-2.088    c-0.043-1.502,0.152-2.869,0.313-4.367c0.167-1.555,0.189-3.052,0.187-4.615C332.46,216.933,331.915,214.415,332.421,213.672z     M349.641,213.298c3.16-11.037,5.642-22.296,9.288-33.164c3.338-9.949,6.892-19.819,10.049-29.856    c3.343-10.629,6.509-21.321,9.672-32.002c1.805-6.095,3.036-12.344,4.722-18.474c1.65-5.998,4.121-11.783,5.308-17.887    c2.938-15.095,6.52-30.137,10.163-45.082c1.489-6.109,3.445-12.09,4.846-18.208c0.833-3.638,2.321-7.27,3.342-10.954    c1.021,3.684,2.509,7.317,3.342,10.954c1.401,6.118,3.358,12.1,4.846,18.208c3.643,14.945,7.225,29.987,10.163,45.082    c1.188,6.104,3.658,11.889,5.308,17.887c1.686,6.13,2.918,12.378,4.722,18.474c3.161,10.679,6.329,21.373,9.672,32.002    c3.157,10.035,6.71,19.907,10.049,29.856c3.648,10.868,6.128,22.127,9.288,33.164c3.086,10.775,11.587,17.475,18.573,25.866    c-0.542,0.021-1.096,0.04-1.69,0.051c-7.16,0.132-14.601-0.329-21.833-0.466c-11.39-0.217-22.817-0.872-34.253,0.167    c-0.915,0.052-1.834,0.116-2.776,0.178c-6.901,0.458-13.594-0.379-20.446-0.815c-3.33-0.212-6.713,0.337-10.053,0.484    c-3.009,0.132-5.929-0.199-8.953-0.315c-3.217-0.125-6.566-0.221-9.802-0.101c-6.207,0.036-12.409,0.283-18.599,0.401    c-7.231,0.137-14.672,0.598-21.833,0.466c-0.593-0.011-1.148-0.03-1.69-0.051C338.054,230.773,346.555,224.073,349.641,213.298z     M322.367,225.323c-0.087-5.257-0.323-10.589-0.066-15.837c0.238-4.88-0.046-9.78,0.31-14.619    c0.205-2.779,0.582-5.571,1.122-8.311c0.224-1.14,0.649-2.057,1.947-2.107c3.07-0.119,1.69,1.063,1.885,2.585    c0.224,1.749-0.185,3.586-0.331,5.313c-0.702,8.298-0.083,16.653-0.083,24.939c0,0.188,0.036,0.356,0.101,0.507    c0.457,1.069-0.179,3.903-0.209,5.192c-0.047,2.063-0.052,4.125-0.031,6.188c0.017,1.744,0.4,3.836-0.087,5.523    c-0.508,1.761-2.391,3.261-3.601,4.717c-0.42-0.044-0.84-0.07-1.259-0.106C323.216,234.886,322.441,229.834,322.367,225.323z     M320.339,254.75c1.253-4.658,4.644-8.612,7.902-12.315c1.581,0.298,3.456,0.841,4.092,0.946c2.146,0.353,3.667,0.371,5.852,0.164    c6.92-0.656,13.915,0.575,20.829-0.224c2.672-0.309,5.039,0.195,7.674,0.189c0.312-0.001,0.621-0.034,0.931-0.048    c4.531,1.413,10.907-0.203,15.374,0.04c3.501,0.19,5.915,0.552,9.357,0.091c3.389-0.455,6.95-0.929,10.342-0.738    c6.718,0.379,13.3,0.543,20.027-0.112c2.295-0.223,5.35-0.072,8.244-0.286c2.741,0.152,5.479,0.247,8.178,0.316    c2.764,0.071,5.483,0.73,8.239,0.738c2.635,0.006,5.001-0.497,7.674-0.189c6.914,0.799,13.909-0.432,20.829,0.224    c2.185,0.207,3.707,0.189,5.852-0.164c0.635-0.105,2.51-0.646,4.092-0.946c3.256,3.704,6.648,7.656,7.902,12.315    c0.928,3.45-0.478,2.577-3.261,2.455c-3.201-0.14-6.393,0.291-9.613,0.308c-6.923,0.037-13.857-0.289-20.78-0.156    c-6.169,0.118-12.271,0.767-18.477,0.573c-7.552-0.236-15.606-1.838-23.133-0.835c-7.418,0.988-15.174,1.123-22.562,0.147    c-7.677-1.013-15.714,0.446-23.431,0.688c-6.206,0.194-12.307-0.455-18.476-0.573c-6.923-0.132-13.856,0.193-20.78,0.156    c-3.22-0.017-6.412-0.448-9.613-0.308C320.817,257.328,319.411,258.2,320.339,254.75z M306.972,197.127    c-0.016-1.538-0.04-3.076-0.066-4.615c-0.008-0.517-0.367-3.456,0.071-3.65c0.172-0.076,1.551,0.838,1.91,0.891    c0.741,0.109,1.526,0.089,2.273,0.135c0.112,0.007,0.471,0.029,0.981,0.061c2.228,0.143,7.331,0.49,7.313,0.663    c-0.42,3.916-0.492,7.722-0.563,11.721c-0.094,5.366-0.268,10.731-0.379,16.105c-1.041-1.845-2.467-3.337-4.34-4.134    c-3-1.274-5.937-0.65-7.419,2.26c0.032-3.413,0.077-6.827,0.165-10.239C306.998,203.263,307.001,200.195,306.972,197.127z     M306.894,230.42c0.622-3.055,1.146-6.133,2.154-9.093c0.548-1.607,0.49-4.359,3.213-4.201c1.823,0.106,3.047,2.274,3.61,3.71    c1.42,3.615,1.104,7.544,2.021,11.188c-0.059,2.437,0.048,4.839,0.602,7.056c-4.281-0.166-8.556-0.028-12.853,0.045    C306.16,239.117,306.705,231.341,306.894,230.42z M293.629,216.174c0.451-8.058,0.692-16.175,0.65-24.266    c-0.042-8.175,0.767-16.261,0.863-24.402c0.053-4.413-0.276-8.661,0.103-13.074c0.185-2.163,0.303-4.272,0.172-6.362    c0.964-1.881,0.058-4.95,0.4-6.76c2.179,0.28,4.921,0.438,6.656,0.842c0.116,5.036-0.202,10.063,0.231,15.077    c0.24,2.775,0.564,5.556,0.741,8.342c0.242,3.803-0.755,7.282-1.041,11.029c-0.137,1.796-0.194,4.687,0.366,7.252    c-0.007,0.134-0.012,0.272-0.022,0.403c-0.458,6.725-0.741,13.477-1.099,20.198c-0.381,7.165-0.369,14.525-0.392,21.688    c-0.014,4.254-0.84,8.801-0.102,13.017c-0.135,0-0.27,0.004-0.404,0.002c-2.615-0.019-5.229,0.006-7.843,0.043    C294.624,232.027,293.217,223.517,293.629,216.174z M279.079,187.821c-0.006-13.14,0.468-26.319-0.047-39.463    c0.154,0.111,0.302,0.225,0.474,0.323c2.35,1.327,6.121,0.96,8.636,0.976c0.854,0.005,2.226,0.171,3.465,0.106    c-0.858,5.859-0.721,12.033-0.95,17.743c-0.314,7.809-1.224,15.472-1.201,23.326c0.024,8.286-0.091,16.601-0.296,24.913    c-0.799-2.715-2.107-5.379-5.237-5.559c-1.466-0.084-3.166,0.432-4.273,1.418c-0.351,0.313-0.611,0.669-0.829,1.046    C278.955,204.373,279.084,196.096,279.079,187.821z M278.599,227.537c0.308-1.977,0.266-4.036,0.661-5.988    c0.227-1.126,2.55-7.326,3.453-7.65c3.158-1.134,3.951,5.864,4.406,7.748c0.712,2.946,1.382,5.935,1.542,8.97    c0.047,0.883-0.201,8.66-0.288,8.661c-3.295,0.065-6.583,0.129-9.865,0.172C278.512,235.479,278.551,231.508,278.599,227.537z     M268.756,219.89c0.505-12.348,0.693-24.722,0.727-37.103c0.031-11.881-0.824-23.851,0.209-35.712    c0.497-5.697,0.894-11.363,0.943-17.084c0.018-2.171,0.079-4.79-0.049-7.385c0.199-0.23,0.368-0.514,0.484-0.872    c0.464-1.444,0.632-7.294,1.164-7.618c0.542-0.329,2.617-0.047,4.358,0.22c0.408,3.092-0.219,6.945-0.232,9.833    c-0.016,3.438,0.29,6.825,0.327,10.251c-0.255,0.144-0.46,0.401-0.501,0.798c-0.928,9.087-0.877,18.24-0.868,27.364    c0.01,8.384-0.662,16.828-0.729,25.238c-0.069,8.566-0.244,17.13-0.406,25.694c-0.082,4.341-0.16,8.682-0.219,13.023    c-0.029,2.112-0.053,4.223-0.071,6.335c-0.012,1.431,0.769,3.698,0.006,5.01c-0.591,1.016-1.052,0.662-1.951,0.615    c-0.556-0.029-2.39,0.185-2.818-0.111c-0.02-0.014-0.037,0.018-0.053,0.067c0.022-0.446,0.047-1.028,0.076-1.82    C269.359,231.046,268.529,225.46,268.756,219.89z M256.238,127.018c3.082,0.031,7.329,0.467,10.581-0.596    c-0.061,1.521-0.093,2.649-0.1,2.867c-0.165,5.272-0.77,10.508-1.176,15.765c-0.821,10.661-1.183,21.676-0.574,32.377    c0.633,11.111,0.32,22.363,0,33.502c-1.98-2.93-6.218-3.35-9.548-2.551c-3.518,0.845-6.502,2.889-8.295,5.969    c-0.01-0.345-0.017-0.686-0.026-1.033c-0.338-11.915-0.746-23.983-0.067-35.887c0.609-10.701,0.248-21.716-0.574-32.377    c-0.404-5.257-1.01-10.493-1.176-15.765c-0.007-0.217-0.039-1.335-0.099-2.846C248.693,127.367,252.771,126.983,256.238,127.018z     M264.709,238.227c-4.894-0.509-10.088,0.533-14.922,0.538c-0.844,0-1.675-0.016-2.504-0.032c0.031-0.776,0.012-1.534,0.017-2.172    c0.019-2.95-0.265-5.896-0.15-8.845c0.012-0.286,0.013-0.567,0.022-0.851c1.326-2.04,1.373-4.439,2.194-6.787    c1.095-3.134,2.459-5.702,5.68-7.017c1.51-0.617,4.336-1.347,5.72-0.25c1.144,0.907,1.744,3.489,2.17,4.798    c0.684,2.1,1.017,4.142,1.829,6.099c0.013,1.327,0.041,2.66,0.095,4.007c0.114,2.951-0.17,5.896-0.15,8.845    C264.709,237.058,264.7,237.631,264.709,238.227z M235.414,114.338c1.739-0.267,3.816-0.549,4.358-0.22    c0.532,0.324,0.699,6.174,1.164,7.618c0.116,0.359,0.285,0.643,0.484,0.872c-0.13,2.596-0.067,5.214-0.049,7.385    c0.048,5.72,0.445,11.386,0.942,17.084c1.035,11.86,0.178,23.83,0.209,35.712c0.032,12.381,0.221,24.755,0.727,37.103    c0.227,5.569-0.603,11.156-0.397,16.747c0.029,0.792,0.054,1.373,0.076,1.82c-0.016-0.049-0.032-0.081-0.053-0.067    c-0.427,0.296-2.262,0.082-2.818,0.111c-0.899,0.046-1.361,0.401-1.951-0.615c-0.763-1.313,0.018-3.579,0.006-5.01    c-0.018-2.112-0.042-4.223-0.071-6.335c-0.059-4.341-0.137-8.683-0.219-13.023c-0.161-8.565-0.337-17.128-0.406-25.694    c-0.067-8.411-0.739-16.853-0.729-25.238c0.01-9.123,0.061-18.278-0.868-27.363c-0.041-0.397-0.245-0.654-0.501-0.798    c0.037-3.426,0.343-6.813,0.327-10.251C235.633,121.283,235.006,117.429,235.414,114.338z M233.497,239.45    c-3.283-0.042-6.571-0.107-9.866-0.172c-0.088-0.001-0.335-7.778-0.288-8.661c0.16-3.035,0.829-6.024,1.542-8.97    c0.456-1.883,1.248-8.88,4.406-7.748c0.903,0.324,3.225,6.523,3.453,7.65c0.395,1.952,0.353,4.01,0.661,5.988    C233.454,231.508,233.492,235.479,233.497,239.45z M223.864,149.656c2.515-0.016,6.284,0.351,8.636-0.976    c0.172-0.097,0.32-0.212,0.474-0.323c-0.515,13.144-0.041,26.323-0.047,39.463c-0.004,8.275,0.125,16.552,0.26,24.829    c-0.217-0.377-0.477-0.733-0.829-1.046c-1.108-0.986-2.808-1.502-4.273-1.418c-3.13,0.179-4.438,2.844-5.237,5.559    c-0.205-8.312-0.319-16.628-0.296-24.913c0.023-7.854-0.887-15.517-1.201-23.326c-0.23-5.71-0.091-11.884-0.951-17.743    C221.636,149.827,223.008,149.662,223.864,149.656z M208.56,165.57c0.178-2.785,0.502-5.567,0.741-8.342    c0.434-5.015,0.116-10.041,0.231-15.077c1.735-0.404,4.477-0.561,6.656-0.842c0.342,1.81-0.564,4.879,0.4,6.76    c-0.131,2.09-0.013,4.2,0.172,6.362c0.379,4.413,0.051,8.661,0.103,13.074c0.097,8.141,0.905,16.227,0.863,24.402    c-0.042,8.091,0.199,16.208,0.65,24.266c0.412,7.344-0.996,15.854,0.72,23.03c-2.614-0.037-5.228-0.063-7.843-0.043    c-0.135,0.001-0.27-0.002-0.404-0.002c0.738-4.217-0.089-8.763-0.102-13.017c-0.023-7.163-0.012-14.523-0.392-21.688    c-0.357-6.721-0.64-13.474-1.099-20.198c-0.01-0.132-0.013-0.27-0.022-0.403c0.56-2.565,0.503-5.456,0.366-7.252    C209.314,172.852,208.318,169.372,208.56,165.57z M206.364,239.126c-4.296-0.072-8.571-0.211-12.853-0.045    c0.554-2.217,0.659-4.62,0.602-7.056c0.917-3.644,0.6-7.573,2.021-11.188c0.563-1.436,1.787-3.604,3.61-3.71    c2.723-0.158,2.666,2.593,3.213,4.201c1.008,2.96,1.532,6.036,2.154,9.093C205.3,231.341,205.846,239.117,206.364,239.126z     M199.864,189.95c0.51-0.032,0.87-0.055,0.981-0.061c0.747-0.046,1.533-0.025,2.273-0.135c0.359-0.053,1.738-0.966,1.91-0.891    c0.439,0.194,0.081,3.133,0.071,3.65c-0.028,1.538-0.051,3.076-0.066,4.615c-0.03,3.068-0.025,6.135,0.053,9.203    c0.088,3.412,0.132,6.826,0.165,10.239c-1.484-2.91-4.42-3.536-7.419-2.26c-1.873,0.795-3.297,2.289-4.34,4.134    c-0.111-5.375-0.285-10.739-0.379-16.105c-0.07-3.999-0.143-7.804-0.563-11.721C192.533,190.44,197.637,190.093,199.864,189.95z     M214.639,244.428c5.251-0.101,10.508-0.858,15.744-0.632c3.117,0.135,6.239,0.137,9.355,0.01c0.07-0.002,0.15-0.002,0.223-0.004    c3.177,0.845,7.47,0.652,9.822,0.734c3.997,0.138,7.911-0.156,11.88-0.171c2.927-0.011,4.756,0.663,7.107-0.669    c1.213,0.137,2.497,0.07,3.49,0.111c3.117,0.128,6.24,0.125,9.355-0.01c5.237-0.226,10.495,0.532,15.744,0.632    c7.547,0.144,15.051,0.215,22.54-0.478c-0.439,0.657-0.865,1.323-1.264,2.005c-0.853,1.465-1.892,3.341-2.752,5.324    c-5.671-1.098-12.182-0.129-17.927-0.428c-5.855-0.307-13.571-1.628-19.599-0.059c-0.162-0.001-0.324-0.004-0.479-0.011    c-2.391-0.096-5.012-0.312-7.519-0.167c-7.289-0.712-14.654-1.081-21.982-0.984c-3.37,0.045-13.614-1.421-18.842,0.531    c-5.172-0.397-10.904,0.449-15.499,0.69c-5.745,0.301-12.257-0.669-17.927,0.428c-0.86-1.983-1.899-3.859-2.752-5.324    c-0.397-0.682-0.824-1.348-1.264-2.005C199.589,244.644,207.093,244.573,214.639,244.428z M197.477,255.26    c5.206,0.584,10.727,0.24,15.842-0.039c5.222-0.284,11.727,0.548,17.375-0.219c0.605,0.047,1.207,0.061,1.8,0.072    c6.517,0.942,13.379,0.426,19.911,1.007c4.211,0.374,8.343,0.276,12.549,0.212c2.373-0.036,3.942-0.273,5.445-0.817    c2.337,0.105,4.959-0.351,6.91-0.378c1.22-0.016,2.615,0.011,4-0.096c5.648,0.767,12.153-0.065,17.375,0.219    c5.115,0.278,10.636,0.621,15.842,0.039c-0.946,4.068-0.154,7.771,5.467,8.58c2.323,0.335,4.766,0.164,7.162,0.235    c-2.03,3.052-1.136,6.882-1.138,10.846c-0.004,6.698,0.493,13.348,0.19,20.042c-0.484,0.022-0.947,0.099-1.367,0.267    c-5.874,2.35-3.566,16.367-1.142,20.488c0.712,1.211,2.279,1.584,3.494,0.916c1.425-0.783-0.306,0.053,0.937-0.112    c-1.036,2.291-0.97,5.044-1.071,7.576c-0.084,2.083,0.286,4.254-0.505,6.168c-0.095,0.229-0.233,0.453-0.39,0.675    c-1.868-0.343-3.858-0.415-5.816-0.406c0.072-1.887-0.669-4.112-1.306-5.486c-1.076-2.324-3.289-3.54-5.794-3.782    c-2.558-0.245-5.326,0.95-6.994,2.91c-1.467,1.724-1.656,4.2-1.872,6.438c-1.102-0.02-2.203-0.022-3.308-0.055    c-0.519-0.016-1.043-0.018-1.563-0.033c1.724-5.879-0.765-13.832-7.783-14.186c-3.421-0.173-7.494,0.863-9.46,3.889    c-1.874,2.886-2.238,6.861-2.158,10.28c-1.183,0.03-2.361,0.076-3.54,0.116c-3.187-0.466-6.468-0.623-9.76-0.653    c0.818-8.061-2.39-17.977-12.206-16.396c-4.105,0.661-8.625,3.214-10.892,6.76c-1.608,2.514-2.995,6.615-1.784,9.638    c-2.984-0.014-5.974,0.095-8.84,0.575c-0.397-0.011-0.792-0.029-1.189-0.039c0.081-3.419-0.284-7.394-2.157-10.28    c-1.965-3.027-6.039-4.062-9.46-3.889c-7.017,0.354-9.506,8.307-7.783,14.186c-0.52,0.014-1.045,0.017-1.563,0.033    c-1.105,0.034-2.206,0.035-3.308,0.055c-0.218-2.237-0.406-4.714-1.873-6.438c-1.668-1.96-4.436-3.157-6.994-2.91    c-2.507,0.241-4.719,1.457-5.794,3.782c-0.637,1.375-1.378,3.601-1.306,5.486c-1.959-0.01-3.948,0.063-5.817,0.406    c-0.156-0.223-0.295-0.446-0.39-0.675c-0.792-1.913-0.422-4.084-0.505-6.168c-0.101-2.531-0.035-5.284-1.071-7.576    c1.243,0.165-0.487-0.672,0.938,0.112c1.213,0.668,2.781,0.295,3.494-0.916c2.424-4.121,4.731-18.138-1.143-20.488    c-0.42-0.168-0.883-0.245-1.367-0.267c-0.303-6.692,0.193-13.344,0.19-20.042c-0.002-3.964,0.892-7.795-1.138-10.846    c2.396-0.07,4.839,0.1,7.162-0.235C197.631,263.031,198.423,259.328,197.477,255.26z M179.081,321.699    c-0.158,2.705-0.948,7.16-0.131,9.824c-3.583-0.424-7.228-0.416-10.86-0.824c-5.214-0.585-11.139-0.419-16.358,0.076    c-6.131,0.581-12.015-0.759-18.178-0.249c-0.52,0.043-1.054,0.073-1.585,0.107c-1.042,0.011-2.08,0.034-3.093,0.081    c-6.4,0.29-12.65,0.608-19.084,0.611c-7.011,0.004-14.024,0.075-21.035,0.159c-0.526,0.006-1.059,0.006-1.59,0.008    c-3.45-0.658-7.258-0.674-10.777-0.965c-6.164-0.511-12.047,0.83-18.178,0.249c-5.219-0.495-11.143-0.661-16.358-0.076    c-3.632,0.407-7.277,0.401-10.86,0.824c0.817-2.663,0.026-7.118-0.131-9.824c-0.101-1.724,0.105-3.447-0.224-5.007    c4.253,0.645,8.641,0.491,12.955,0.619c7.662,0.227,15.105,0.025,22.775-0.194c6.589-0.188,12.803,0.534,19.38-0.344    c4.04-0.539,8.426-0.309,12.612-0.759c3.056,0.146,6.346,0.23,9.272,0.207c1.519-0.012,3.11-0.017,4.691-0.134    c3.959,0.353,8.069,0.178,11.871,0.685c6.577,0.878,12.791,0.156,19.38,0.344c7.668,0.219,15.113,0.42,22.775,0.194    c4.315-0.128,8.702,0.026,12.955-0.619C178.977,318.254,179.182,319.976,179.081,321.699z M31.017,281.941    c-0.224-3.128,0.114-6.326-0.357-9.43c-0.349-2.296-1.769-4.997-1.147-7.348c0.076-0.289,0.088-0.566,0.054-0.829    c3.503,0.149,7.011,0.085,10.52,0.105c7.411,0.042,14.774,0.727,22.154,0.706c7.258-0.019,13.926-0.212,21.042-1.407    c7.116-1.195,14.51,0.329,21.581-1.013c0.042-0.008,0.069-0.031,0.108-0.041c0.04,0.01,0.066,0.032,0.108,0.041    c7.071,1.342,14.465-0.182,21.581,1.013c7.116,1.195,13.784,1.388,21.042,1.407c7.379,0.02,14.743-0.664,22.154-0.706    c3.508-0.019,7.017,0.044,10.52-0.105c-0.034,0.264-0.022,0.54,0.054,0.829c0.622,2.352-0.799,5.052-1.147,7.348    c-0.471,3.104-0.134,6.301-0.357,9.43c-0.261,3.656-1.581,9.585-0.264,13.672c-2.35,0.069-4.719,0.019-7.054,0.052    c-3.396,0.047-7.109,0.551-10.647,0.678c-2.484-0.289-5.725-1.324-8.281-0.761c-0.314-3.788-0.54-7.455-1.965-11.053    c-1.927-4.861-8.323-10.049-13.835-9.726c-6.193,0.363-8.858,7.764-9.985,12.762c-0.661,2.932-0.963,5.808-1.093,8.679    c-2.438-1.335-4.279-0.613-7.101-0.398c-4.472,0.339-9.217-0.095-13.707-0.081c-6.555,0.019-14.262-0.826-20.83,0.888    c-0.118-3.007-0.422-6.017-1.114-9.088c-1.128-4.998-3.793-12.399-9.985-12.762c-5.512-0.323-11.909,4.865-13.835,9.726    c-1.426,3.597-1.651,7.265-1.965,11.053c-2.556-0.563-5.797,0.471-8.281,0.761c-3.537-0.126-7.249-0.631-10.647-0.677    c-2.337-0.033-4.705,0.017-7.054-0.052C32.598,291.527,31.278,285.597,31.017,281.941z M149.163,310.577    c-1.862-0.059-3.725-0.079-5.589-0.041c-4.3,0.09-8.391,0.675-12.531,0.99c0.047-6.666-3.136-40.642,11.097-30.538    c6.083,4.319,5.571,10.702,6.31,17.523c0.318,2.933,0.344,5.643,0.356,8.566C148.811,308.253,148.836,309.462,149.163,310.577z     M125.839,311.719c-2.035-0.022-3.492-0.634-5.413-0.99c-2.216-0.41-4.648-0.049-6.87,0.122c-2.353,0.18-5.248,0.339-7.589,0.22    c-4.293-0.217-9.225-0.531-13.624,0.335c-1.743,0.013-3.484,0.032-5.229,0.182c-1.013,0.087-2.013,0.122-3.006,0.131    c-0.047-4.077,0.132-7.992,0.119-11.875c6.556,1.691,14.251,0.854,20.769,0.874c6.224,0.019,15.056,1.725,20.733-1.622    C125.685,303.224,125.889,307.379,125.839,311.719z M78.901,311.526c-4.14-0.315-8.231-0.9-12.531-0.99    c-1.864-0.039-3.727-0.018-5.589,0.041c0.327-1.114,0.353-2.325,0.357-3.498c0.012-2.923,0.04-5.633,0.356-8.566    c0.739-6.821,0.226-13.204,6.31-17.523C82.038,270.885,78.855,304.861,78.901,311.526z M166.35,311.664    c-4.743-0.295-9.485-0.723-14.232-0.965c0.197-0.273,0.321-0.603,0.347-0.994c0.144-2.219,0.97-4.307,1.041-6.519    c0.024-0.769-0.047-1.569-0.143-2.376c1.049,0.011,2.171-0.14,3.3,0.01c2.223,0.294,4.479,0.705,6.738,0.637    c1.347-0.041,3.397-0.146,5.175-0.672c2.396,0.019,4.792,0.032,7.188,0.054c2.235,0.022,4.747-0.25,6.945-0.008    c0.445,0.049,0.78,0.069,1.042,0.072c0.031,0.109,0.094,0.242,0.22,0.416c1.765,2.436,0.525,7.218-0.113,10.784    c-0.042,0.011-0.087,0.018-0.129,0.03C178.23,310.559,172.047,312.019,166.35,311.664z M186.324,184.449    c1.3,0.051,1.723,0.969,1.947,2.107c0.539,2.74,0.917,5.532,1.122,8.311c0.357,4.839,0.072,9.738,0.31,14.619    c0.256,5.249,0.02,10.581-0.066,15.837c-0.075,4.512-0.85,9.564,0.303,13.981c-0.42,0.036-0.839,0.061-1.259,0.106    c-1.211-1.456-3.094-2.956-3.601-4.717c-0.486-1.686-0.105-3.779-0.087-5.523c0.02-2.063,0.014-4.125-0.031-6.188    c-0.029-1.288-0.667-4.123-0.209-5.192c0.064-0.15,0.101-0.319,0.101-0.507c0-8.286,0.619-16.64-0.083-24.939    c-0.146-1.727-0.555-3.565-0.331-5.313C184.634,185.511,183.254,184.33,186.324,184.449z M171.763,212.61    c1.793,0.126,6.624-0.69,7.821,1.063c0.507,0.742-0.039,3.261-0.04,4.284c-0.001,1.563,0.019,3.062,0.187,4.615    c0.161,1.498,0.356,2.864,0.313,4.367c-0.045,0.696-0.085,1.392-0.122,2.088c-0.031,0.252-0.017,0.449,0.018,0.621    c-3.852-4.386-7.311-9.005-9.063-14.653c-0.266-0.856-0.518-1.717-0.773-2.578C170.587,212.507,171.12,212.564,171.763,212.61z     M30.361,213.672c1.197-1.752,6.028-0.936,7.821-1.063c0.643-0.046,1.177-0.102,1.656-0.191c-0.256,0.86-0.508,1.722-0.773,2.578    c-1.752,5.648-5.211,10.268-9.063,14.653c0.036-0.172,0.051-0.37,0.018-0.621c-0.036-0.697-0.076-1.392-0.122-2.088    c-0.043-1.502,0.153-2.869,0.313-4.367c0.167-1.555,0.189-3.052,0.187-4.615C30.4,216.933,29.855,214.415,30.361,213.672z     M47.581,213.298c3.16-11.037,5.642-22.296,9.288-33.164c3.338-9.949,6.892-19.819,10.049-29.856    c3.343-10.629,6.509-21.321,9.672-32.002c1.805-6.095,3.036-12.344,4.722-18.474c1.65-5.998,4.121-11.783,5.308-17.887    c2.938-15.095,6.52-30.137,10.163-45.082c1.489-6.109,3.447-12.09,4.847-18.208c0.833-3.638,2.321-7.27,3.342-10.954    c1.021,3.684,2.509,7.317,3.342,10.954c1.401,6.118,3.359,12.1,4.847,18.208c3.643,14.945,7.225,29.987,10.163,45.082    c1.188,6.104,3.658,11.889,5.308,17.887c1.686,6.13,2.918,12.378,4.722,18.474c3.161,10.679,6.329,21.373,9.672,32.002    c3.157,10.035,6.71,19.907,10.049,29.856c3.648,10.868,6.128,22.127,9.288,33.164c3.086,10.775,11.587,17.475,18.572,25.866    c-0.542,0.021-1.096,0.04-1.69,0.051c-7.16,0.132-14.601-0.329-21.833-0.466c-6.19-0.118-12.392-0.365-18.599-0.401    c-3.236-0.119-6.585-0.023-9.802,0.101c-3.024,0.117-5.946,0.448-8.953,0.315c-3.341-0.147-6.722-0.696-10.053-0.484    c-6.852,0.436-13.546,1.273-20.446,0.815c-0.942-0.063-1.862-0.126-2.776-0.178c-11.437-1.04-22.863-0.385-34.253-0.167    c-7.231,0.137-14.672,0.598-21.833,0.466c-0.593-0.011-1.148-0.03-1.69-0.051C35.994,230.773,44.495,224.073,47.581,213.298z     M21.54,257.206c-2.784,0.122-4.189,0.994-3.261-2.455c1.254-4.658,4.644-8.612,7.902-12.315c1.581,0.298,3.456,0.841,4.092,0.946    c2.146,0.353,3.667,0.371,5.852,0.164c6.92-0.656,13.915,0.575,20.829-0.224c2.672-0.309,5.039,0.195,7.674,0.189    c2.756-0.007,5.476-0.665,8.24-0.738c2.699-0.07,5.437-0.165,8.178-0.316c2.894,0.214,5.949,0.064,8.243,0.286    c6.727,0.653,13.309,0.491,20.027,0.112c3.392-0.191,6.952,0.283,10.341,0.738c3.442,0.462,5.856,0.1,9.357-0.091    c4.467-0.243,10.843,1.373,15.374-0.04c0.31,0.016,0.62,0.048,0.931,0.048c2.635,0.006,5.003-0.497,7.674-0.189    c6.914,0.799,13.909-0.432,20.829,0.224c2.187,0.207,3.707,0.189,5.852-0.164c0.635-0.105,2.51-0.646,4.092-0.946    c3.256,3.704,6.648,7.656,7.902,12.315c0.928,3.45-0.478,2.577-3.261,2.455c-3.201-0.14-6.393,0.291-9.613,0.308    c-6.923,0.037-13.857-0.289-20.78-0.156c-6.169,0.118-12.27,0.767-18.476,0.573c-7.716-0.242-15.754-1.702-23.431-0.688    c-7.389,0.976-15.145,0.841-22.562-0.147c-7.527-1.002-15.582,0.599-23.133,0.835c-6.206,0.194-12.309-0.455-18.477-0.573    c-6.923-0.132-13.856,0.193-20.78,0.156C27.933,257.496,24.741,257.065,21.54,257.206z M25.976,301.321    c0.126-0.174,0.188-0.306,0.22-0.416c0.264-0.004,0.597-0.023,1.042-0.072c2.196-0.242,4.71,0.03,6.945,0.008    c2.395-0.023,4.792-0.036,7.188-0.054c1.777,0.526,3.828,0.631,5.175,0.672c2.26,0.067,4.515-0.344,6.738-0.637    c1.129-0.149,2.25,0.001,3.3-0.01c-0.096,0.805-0.167,1.605-0.143,2.376c0.071,2.212,0.895,4.299,1.041,6.519    c0.025,0.391,0.148,0.721,0.347,0.994c-4.746,0.242-9.488,0.67-14.232,0.965c-5.698,0.354-11.88-1.105-17.378,0.471    c-0.042-0.011-0.087-0.019-0.129-0.03C25.45,308.538,24.211,303.757,25.976,301.321z M26.297,346.151    c-1.075-0.824-0.788-6.383-0.131-8.502c0.314-1.013,0.88-1.688,1.518-2.27c4.193,1.007,8.134,2.064,12.544,1.727    c6.349-0.485,12.971-0.448,19.308,0.209c3.67,0.38,7.27-0.256,10.892-0.828c6.4,0.959,13.123,0.658,19.504,0.729    c7.904,0.087,15.812,0.032,23.715,0.148c7.085,0.103,14.005-0.445,21.083-0.62c1.727-0.042,3.687,0.057,5.55-0.14    c3.366,0.534,6.718,1.063,10.132,0.709c6.337-0.657,12.958-0.694,19.308-0.209c4.411,0.336,8.351-0.72,12.545-1.727    c0.638,0.581,1.203,1.256,1.518,2.27c0.657,2.119,0.943,7.678-0.131,8.502c-2.102,1.613-7.644,0.774-10.396,1.114    c-5.38,0.666-10.916,1.473-16.363,1.1c-3.59-0.246-6.677-0.427-10.259,0.007c-1.091,0.132-2.181,0.178-3.27,0.188    c-5.235-1.163-11.573-0.592-16.729-0.551c-6.928,0.054-13.517-0.625-20.455-0.034c-3.847,0.327-7.825,0.123-11.656-0.229    c-3.703-0.339-7.259,0.32-10.962,0.433c-3.104,0.096-6.254,0.155-9.402,0.276c-3.58-0.102-7.206,0.359-10.842-0.083    c-3.583-0.436-6.668-0.253-10.259-0.007c-5.447,0.372-10.981-0.434-16.363-1.1C33.94,346.925,28.398,347.763,26.297,346.151z     M177.077,403.076c-0.051,4.01-1.573,9.204-0.325,13.229c-5.24-0.06-10.393,0.245-15.577,0.31    c-4.113,0.053-8.11,0.996-12.232,1.116c-2.798,0.081-5.6,0.079-8.4,0.091c-4.301-0.629-8.724-0.465-13.062-0.503    c-7.559-0.067-15.256-0.729-22.787,0.112c-3.539,0.396-7.058,0.632-10.588,0.777c-2.319-0.081-4.555,0.131-6.996,0.108    c-1.319-0.013-2.639-0.053-3.959-0.101c-2.438-0.302-4.855-0.871-7.269-0.774c-0.974,0.039-2.029,0.193-3.095,0.413    c-3.928-0.057-7.861-0.01-11.785-0.124c-4.12-0.119-8.118-1.063-12.232-1.116c-5.184-0.065-10.337-0.371-15.577-0.31    c1.248-4.026-0.274-9.219-0.325-13.229c-0.084-6.727,1.007-13.664,0.304-20.326c-0.653-6.194-1.345-12.429-1.519-18.661    c-0.076-2.716,0.821-6.804,0.298-10.116c5.508,0.509,10.979,1.295,16.535,1.314c5.449,0.018,10.638-0.604,16.089-0.375    c2.029,0.085,3.991-0.045,5.91-0.37c0.362,0.033,0.726,0.063,1.09,0.077c3.989,0.149,7.98-0.414,11.984-0.427    c4.115-0.014,8.014-0.413,12.125-0.03c3.467,0.323,7.165,0.432,10.643,0.194c7.527-0.516,14.697,0.047,22.231,0.026    c3.788-0.011,8.376,0.897,12.417,0.374c1.436,0.16,2.895,0.22,4.395,0.156c5.45-0.229,10.639,0.393,16.089,0.375    c5.556-0.019,11.028-0.805,16.535-1.314c-0.522,3.312,0.374,7.399,0.298,10.116c-0.174,6.231-0.865,12.467-1.519,18.661    C176.07,389.411,177.161,396.349,177.077,403.076z M22.306,434.807c-0.943-1.14,0.614-9.903,1.867-10.954    c1.303-1.093,6.506-0.673,8.098-0.717c2.843-0.079,5.751-0.463,8.559-0.495c4.942-0.058,9.937,0.02,14.919,0.433    c7.866,0.653,15.889,0.389,23.856-0.232c2.041,0.325,4.078,0.661,6.175,0.745c7.15,0.288,14.076-0.094,21.189-0.404    c7.508-0.327,15.051,0.33,22.567,0.254c2.888-0.03,6.37,0.36,9.506-0.079c5.08,0.179,10.152,0.134,15.158-0.282    c4.982-0.413,9.976-0.491,14.919-0.433c2.808,0.031,5.716,0.415,8.559,0.495c1.592,0.044,6.795-0.377,8.098,0.717    c1.253,1.051,2.81,9.813,1.866,10.954c-1.142,1.378-8.276,0.501-10,0.501c-6.456-0.001-12.629,0.663-19.059,0.138    c-6.452-0.525-12.843-0.082-19.305-0.741c-4.056-0.413-8.706-0.59-13.145-0.226c-1.906-0.119-3.806-0.187-5.636-0.318    c-5.518-0.392-11.431-0.325-16.92,0.226c-5.145,0.516-10.317,0.499-15.47,0.651c-5.602-1.012-12.04-0.883-17.434-0.335    c-6.462,0.659-12.853,0.217-19.305,0.741c-6.43,0.525-12.602-0.14-19.059-0.138C30.581,435.307,23.448,436.184,22.306,434.807z     M179.581,488.357c-1.166,4.051-9.18,4.059-12.733,4.135c-4.797,0.101-9.476,0.969-14.275,1.105    c-3.51,0.099-6.909,0.33-10.269,0.657c-6.473-1.279-13.398-0.097-19.897,0.173c-7.929,0.329-15.587-0.763-23.551,0.008    c-6.833,0.662-13.709,0.982-20.589,1.187c-6.891-1.084-13.661-1.821-20.893-2.025c-4.799-0.136-9.478-1.004-14.275-1.105    c-3.554-0.076-11.567-0.083-12.733-4.135c-2.203-7.653-0.17-16.322-0.328-24.044c-0.084-4.108-0.107-8.174-0.474-12.264    c-0.325-3.612,0.091-6.993-0.493-10.448c4.451-0.001,8.769,0.079,13.212,0.466c3.786,0.327,7.215-0.301,10.978-0.515    c3.72-0.213,7.466,0.236,11.188,0.125c3.994-0.122,7.885-0.82,11.891-0.838c8.47,1.259,17.672,0.432,25.954-0.073    c5.766-0.353,11.632-0.777,17.424-0.398c0.451,0.029,0.895,0.064,1.341,0.097c3.888,0.685,7.803,0.444,11.79,0.371    c4.278-0.078,8.407,0.714,12.655,0.842c3.722,0.112,7.468-0.337,11.188-0.125c3.763,0.214,7.19,0.842,10.978,0.515    c4.442-0.385,8.76-0.467,13.211-0.466c-0.585,3.454-0.17,6.837-0.493,10.448c-0.367,4.092-0.39,8.156-0.474,12.264    C179.751,472.035,181.785,480.704,179.581,488.357z M190.329,504.994c-0.519,0.317-3.414-0.221-4.094-0.245    c-4.226-0.154-8.495,0.004-12.723,0.006c-8.882,0.004-17.945-0.797-26.712-0.158c-2.306,0.169-4.68,0.039-7.071-0.12    c-0.168-0.12-0.365-0.217-0.614-0.264c-5.939-1.104-12.315-0.233-18.35-0.213c-6.14,0.022-12.131-0.11-18.208,0.54    c-5.912,0.631-11.845,0.798-17.787,0.924c-6.884-2.608-14.572-0.355-21.627-0.869c-8.766-0.639-17.83,0.161-26.712,0.158    c-4.228-0.002-8.496-0.16-12.723-0.006c-0.679,0.025-3.574,0.562-4.094,0.245c-1.716-1.047-1.122-3.268-0.161-4.526    c2.417-3.161,8.475-1.731,12.108-2.4c0.185-0.034,0.366-0.087,0.549-0.134c0.705,0.193,1.416,0.38,2.123,0.589    c5.234,1.539,11.045,0.972,16.426,1.489c3.076,0.295,6.162,0.166,9.244-0.064c3.672,0.744,8.301,0.298,10.892,0.33    c3.803,0.047,7.631,0.039,11.458-0.053c1.561,0.058,3.117,0.03,4.667-0.158c0.023-0.002,0.041-0.017,0.064-0.02    c2.851-0.131,5.697-0.303,8.521-0.58c6.383-0.627,12.62-0.024,18.974-0.137c9.209-0.166,18.424-0.497,27.579,0.004    c5.721,0.313,11.49,1.229,17.226,0.679c5.381-0.518,11.192,0.051,16.426-1.489c0.706-0.208,1.418-0.396,2.123-0.589    c0.182,0.047,0.362,0.1,0.549,0.134c3.633,0.67,9.691-0.762,12.108,2.4C191.451,501.725,192.044,503.947,190.329,504.994z     M315.028,505.91c-0.244,0.005-0.48,0.01-0.739,0.014c-5.175,0.09-10.68-0.406-15.853-0.679c-0.18-0.01-0.361-0.011-0.542-0.019    c1.86-6.763,1.366-14.543,1.099-21.367c-0.31-7.905-0.78-16.647-4.214-23.945c-3.117-6.621-8.846-12.479-15.647-15.833    c-5.772-4.569-18.52-4.862-24.103-4.547c-6.371,0.36-14.276,1.001-20.559,3.816c-7.496,3.184-13.886,9.431-17.244,16.565    c-3.435,7.298-3.904,16.039-4.214,23.945c-0.268,6.823-0.762,14.604,1.099,21.367c-0.18,0.008-0.361,0.01-0.542,0.019    c-5.172,0.273-10.678,0.769-15.853,0.679c-0.258-0.005-0.493-0.01-0.739-0.014c1.031-4.118-0.62-9.592-4.015-11.207    c-2.424-1.152-5.029-1.53-7.667-1.633c1.741-3.306,1.469-7.799,1.783-11.353c0.433-4.886,0.284-9.855-0.318-14.687    c-1.081-8.679,0.487-16.971-1.272-25.438c1.829-0.063,3.672-0.271,5.096-0.919c2.112-0.959,3.111-2.79,3.489-4.941    c8.047,1.259,16.478,0.345,24.547,0.502c3.658,0.071,7.26-0.102,10.916-0.158c0.564,0.067,1.13,0.102,1.659,0.132    c5.792,0.325,11.751-0.245,17.572-0.232c9.206,0.023,19.636,1.747,28.997,0.011c1.243,0.083,2.508,0.064,3.741,0.073    c3.988,0.032,7.896,0.25,11.874,0.174c8.069-0.156,16.5,0.757,24.547-0.502c0.378,2.152,1.378,3.983,3.489,4.941    c1.426,0.649,3.267,0.857,5.096,0.919c-1.759,8.466-0.191,16.759-1.272,25.438c-0.602,4.833-0.75,9.801-0.316,14.687    c0.315,3.552,0.042,8.046,1.783,11.353c-2.638,0.104-5.243,0.48-7.667,1.633C315.648,496.317,313.996,501.792,315.028,505.91z     M492.389,504.994c-0.519,0.317-3.414-0.221-4.094-0.245c-4.226-0.154-8.495,0.004-12.723,0.006    c-8.883,0.004-17.945-0.797-26.712-0.158c-7.053,0.514-14.742-1.739-21.627,0.869c-5.941-0.125-11.874-0.292-17.787-0.924    c-6.076-0.65-12.068-0.52-18.208-0.54c-6.034-0.022-12.411-0.891-18.35,0.213c-0.249,0.047-0.445,0.143-0.614,0.264    c-2.391,0.159-4.766,0.288-7.071,0.12c-8.766-0.639-17.83,0.161-26.712,0.158c-4.228-0.002-8.496-0.16-12.723-0.006    c-0.679,0.025-3.574,0.562-4.094,0.246c-1.716-1.047-1.122-3.269-0.16-4.526c2.417-3.161,8.475-1.73,12.108-2.4    c0.185-0.034,0.366-0.087,0.549-0.134c0.705,0.193,1.416,0.38,2.123,0.589c5.234,1.539,11.045,0.972,16.426,1.489    c5.736,0.55,11.505-0.366,17.226-0.679c9.154-0.501,18.369-0.17,27.579-0.004c6.354,0.114,12.591-0.49,18.974,0.137    c2.824,0.277,5.671,0.449,8.521,0.58c0.023,0.004,0.041,0.018,0.064,0.02c1.55,0.188,3.107,0.215,4.667,0.158    c3.827,0.091,7.655,0.1,11.458,0.053c2.591-0.031,7.221,0.414,10.892-0.33c3.083,0.229,6.169,0.359,9.244,0.064    c5.381-0.518,11.192,0.05,16.426-1.489c0.706-0.208,1.418-0.396,2.123-0.589c0.182,0.047,0.362,0.1,0.549,0.134    c3.633,0.67,9.691-0.762,12.108,2.4C493.511,501.725,494.104,503.947,492.389,504.994z"/>
	</g>
</g>
<g>
	<g>
		<path d="M361.853,384.854c-0.782-3.253-0.653-7.053-3.343-9.49c-2.284-2.07-5.402-2.184-7.873-0.443    c-5.537,3.904-6.837,10.996-6.542,17.584c-0.72,2.326-1.117,5.491,0.854,6.976c1.353,1.019,3.585,0.789,5.142,0.8    c2.483,0.017,5.065,0.185,7.538,0.071C364.821,400.02,363.042,389.797,361.853,384.854z M358.167,396.155    c-0.106,0.657-7.758,0.164-8.542-0.071c-3.146-0.939-2.42-4.839-2.116-7.471c0.276-2.377,0.814-4.68,1.97-6.797    c1.248-2.284,4.468-7.352,7.744-2.042c1.182,1.916,1.474,6.17,1.676,8.413C359.137,390.82,358.59,393.535,358.167,396.155z"/>
	</g>
</g>
<g>
	<g>
		<path d="M420.174,220.115c-0.244-2.036-0.672-3.508-0.509-5.642c0.17-2.223,0.365-4.425-0.337-6.586    c-1.508-4.642-6.009-7.926-10.532-9.307c-5.14-1.57-10.1,0.508-12.259,5.479c-1.089,2.507-2.072,5.997-2.475,8.708    c-0.466,3.13,1.076,7.268-0.237,10.186c-0.462,1.025-0.386,2.581,0.82,3.127c3.157,1.427,6.743,1.178,10.162,1.503    c3.626,0.343,7.857,0.582,11.475,0.314C419.939,227.626,420.522,223.01,420.174,220.115z M412.462,223.201    c-2.965-0.048-5.756,0.012-8.715-0.365c-1.551-0.197-3.507-0.008-5.202-0.264c0.327-2.545-0.332-5.18-0.302-7.767    c0.07-5.968,3.218-14.508,10.489-11.745c9.485,3.604,5.933,12.34,6.982,20.038c0.004,0.018,0.005,0.042,0.01,0.059    c0.013,0.093,0.029,0.184,0.043,0.277C414.868,223.622,413.337,223.215,412.462,223.201z"/>
	</g>
</g>
<g>
	<g>
		<path d="M419.701,384.693c-0.674-4.515-2.36-9.355-6.187-12.153c-6.595-4.822-13.013-1.313-16.633,5.003    c-1.841,3.211-2.314,6.49-2.556,10.266c-0.166,2.597-0.384,7.874,2.206,9.469c2.472,1.522,6.464,0.24,9.175,0.331    c4.235,0.144,8.353,1.089,12.608,0.389C421.187,397.524,420.011,386.778,419.701,384.693z M416.121,394.38    c-0.051,0.045-0.101,0.088-0.152,0.132c-4.744,0.384-9.666-0.875-14.427-0.628c-2.853,0.147-2.865,0.36-3.283-2.611    c-0.399-2.845-0.029-5.599,0.22-8.435c0.199-2.252,1.634-5.539,3.19-7.227c3.367-3.65,9.565-2.753,12.023,1.561    c2.661,4.667,2.1,11.477,2.865,16.924C416.4,394.176,416.249,394.269,416.121,394.38z"/>
	</g>
</g>
<g>
	<g>
		<path d="M298.132,278.388c-3.349,0.665-5.633,3.672-7.079,7.01c-0.343-0.933-0.728-1.854-1.206-2.755    c-3.48-6.562-12.063-9.873-17.015-2.365c-0.676,1.024-1.143,2.157-1.467,3.349c-2.694-7.318-7.37-12.884-14.706-11.79    c-7.597,1.132-11.685,5.61-14.841,12.394c-0.247,0.531-0.491,1.092-0.732,1.666c-0.273-2.025-0.818-3.963-1.911-5.62    c-4.952-7.509-13.535-4.198-17.015,2.365c-0.478,0.9-0.864,1.823-1.206,2.755c-1.447-3.338-3.729-6.346-7.079-7.01    c-13.173-2.615-12.83,23.576-11.742,31.04c0.106,0.749,0.826,1.211,1.455,1.459c3.214,1.264,7.868,1.149,11.26,0.975    c1.785-0.091,3.953-0.014,5.579-0.86c3.828,0.649,8.059,0.274,11.854,0.096c1.313-0.061,3.027,0.029,4.6-0.203    c5.011,2.117,12.479,1.247,17.518,1.447c6.751,0.268,13.48,0.523,20.101-1.195c0.205-0.053,0.363-0.155,0.502-0.276    c1.607,0.256,3.372,0.164,4.72,0.227c3.794,0.177,8.026,0.552,11.854-0.096c1.626,0.846,3.794,0.769,5.579,0.86    c3.392,0.173,8.046,0.289,11.26-0.975c0.629-0.247,1.348-0.71,1.457-1.457C310.962,301.964,311.305,275.773,298.132,278.388z     M219.19,297.423c-0.834,3.349-1.498,6.751-1.465,10.082c-0.929,0.051-1.869,0.047-2.749,0.099    c-2.004,0.118-7.609,0.718-9.396-0.392c1.049,0.652,0.209-2.181,0.168-3.525c-0.117-3.745-0.614-7.601-0.187-11.306    c0.388-3.365,1.42-8.858,5.147-9.982c4.46-1.345,7.292,4.053,8.049,8c0.363,1.894,0.444,4.059,0.442,6.168    C219.197,296.852,219.188,297.137,219.19,297.423z M234.33,306.721c-2.444,0.839-6.567,0.195-9.176,0.214    c-0.871,0.006-2.249-0.389-3.028-0.354c0.286-2.752,0.42-5.514,0.607-8.281c0.079-0.715,0.131-1.43,0.159-2.123    c0.152-1.849,0.349-3.701,0.659-5.554c0.647-3.857,4.442-14.318,10.866-9.68c4.094,2.957,2.462,11.158,2.436,15.49    C236.831,299.876,237.721,305.559,234.33,306.721z M255.19,307.317c-4.738-0.189-9.325-0.404-13.944-0.095    c0.193-0.705,0.318-1.485,0.389-2.314c1.079-4.586,0.815-9.436,2.351-13.952c1.856-5.455,4.738-12.084,10.636-13.971    c4.217-1.349,6.37-1,9.008,2.549c1.524,2.051,2.313,4.301,3.127,6.685c1.278,3.745,2.25,7.413,2.572,11.411    c0.282,3.504-0.175,6.795,0.856,10.128C265.221,307.128,260.278,307.519,255.19,307.317z M286.853,306.935    c-2.608-0.019-6.731,0.623-9.175-0.214c-3.391-1.162-2.501-6.845-2.522-10.287c-0.03-4.331-1.662-12.534,2.433-15.491    c6.424-4.638,10.218,5.823,10.866,9.68c0.31,1.854,0.508,3.705,0.659,5.554c0.028,0.693,0.079,1.407,0.159,2.123    c0.187,2.767,0.32,5.529,0.608,8.281C289.103,306.547,287.725,306.943,286.853,306.935z M306.426,307.212    c-1.787,1.111-7.393,0.51-9.396,0.392c-0.88-0.052-1.821-0.049-2.749-0.099c0.034-3.33-0.631-6.733-1.465-10.082    c0.001-0.286-0.006-0.572-0.01-0.857c-0.004-2.11,0.077-4.273,0.44-6.168c0.758-3.948,3.589-9.347,8.049-8    c3.727,1.124,4.76,6.618,5.147,9.982c0.427,3.705-0.07,7.561-0.185,11.306C306.215,305.032,305.375,307.864,306.426,307.212z"/>
	</g>
</g>
<g>
	<g>
		<path d="M320.589,391.575c0.067-6.879-0.27-21.55-8.336-24.474c-3.663-1.329-6.691,0.395-8.508,3.195    c-0.779-2.829-2.13-5.473-4.637-6.74c-3.759-1.9-7.339,1.445-8.765,4.691c-0.164,0.373-0.307,0.752-0.438,1.135    c-1.62-4.4-4.412-8.55-8.478-9.527c-6.306-1.516-9.275,3.094-10.721,8.205c-2.045-4.878-6.259-9.972-11.626-10.226    c-7.719-0.363-13.883,5.189-16.649,11.842c-0.154,0.371-0.315,0.774-0.479,1.197c-1.124-6.039-3.916-12.813-11.374-11.019    c-4.066,0.977-6.858,5.128-8.478,9.528c-0.131-0.383-0.274-0.762-0.438-1.135c-1.426-3.246-5.005-6.591-8.765-4.691    c-2.506,1.267-3.858,3.911-4.637,6.74c-1.817-2.8-4.845-4.524-8.508-3.195c-8.067,2.924-8.404,17.595-8.336,24.474    c0.032,3.335-0.909,8.487,2.53,10.284c1.912,1,4.43,0.48,6.472,0.52c3.246,0.064,6.423,0.483,9.668,0.463    c5.731-0.034,11.695,0.432,17.417,0.753c3.551,0.201,7.316,0.791,10.806,0.036c4.199,1.376,9.944,0.523,13.978,0.51    c6.233-0.02,13.838,1.226,19.752-0.994c3.932,1.44,8.342,0.68,12.465,0.448c5.722-0.323,11.685-0.787,17.417-0.753    c3.246,0.019,6.423-0.4,9.668-0.463c2.042-0.04,4.56,0.48,6.472-0.52C321.498,400.061,320.557,394.908,320.589,391.575z     M206.159,397.759c-1.634-0.043-3.267-0.064-4.898-0.044c-0.988,0.011-1.977,0.043-2.964,0.097    c-1.728,0.528-2.386,0.107-1.976-1.265c-0.391-0.824-0.393-4.391-0.375-5.539c0.049-3.188,0.23-6.778,0.827-9.897    c0.479-2.504,1.246-7.342,3.537-8.759c4.625-2.859,5.697,3.349,6.707,6.826C206.507,385.345,206.277,391.57,206.159,397.759z     M210.62,397.932c-0.013-3.808,0.034-7.615,0.176-11.419c0.17-4.531,0.04-9.943,1.258-14.297c0.331-1.182,1.681-5.117,3.775-4.802    c2.707,0.408,3.207,5.823,3.424,7.996c0.29,2.917-0.104,5.639,0.868,8.265c-0.025,2.631,0.087,5.257,0.443,7.867    c0.323,2.362-0.136,4.762,0.267,6.914C217.433,398.301,214.026,398.094,210.62,397.932z M238.219,382.427    c-0.199,3.885-0.064,7.665-0.44,11.55c-0.141,1.449-0.308,2.932-0.309,4.4c-1.136,0.105-2.272,0.283-3.417,0.335    c-3.106,0.138-6.544,0.03-9.812-0.106c0.739-3.88-0.224-8.01-0.142-11.878c0.137-6.472,0.039-16.54,5.301-21.357    c6.438-5.896,8.423,4.559,8.937,9.006C238.656,377.138,238.361,379.668,238.219,382.427z M252.641,398.832    c-3.549,0.236-7.343-0.095-10.982,0.238c0.67-2.684,0.83-5.681,0.856-8.484c1.017-4.213,1.195-8.682,2.229-12.907    c0.777-3.175,1.638-6.372,3.337-9.201c2.184-3.639,8.305-7.466,12.784-5.48c5.517,2.445,6.944,10.76,7.355,15.939    c0.388,4.88,0.361,9.979,1.371,14.8c0.113,1.864,0.338,3.733,0.782,5.464C264.954,397.782,257.98,398.478,252.641,398.832z     M287.763,398.606c-3.268,0.136-6.707,0.244-9.812,0.106c-1.144-0.051-2.281-0.23-3.417-0.335c-0.002-1.468-0.169-2.951-0.309-4.4    c-0.082-0.841-0.131-1.676-0.173-2.51c0.016-1.108-0.035-2.229-0.116-3.344c-0.037-1.891-0.054-3.78-0.152-5.696    c-0.141-2.759-0.437-5.289-0.118-8.05c0.514-4.448,2.498-14.902,8.937-9.006c5.261,4.819,5.164,14.885,5.301,21.357    C287.987,390.596,287.024,394.726,287.763,398.606z M291.175,398.455c0.403-2.152-0.055-4.55,0.267-6.914    c0.357-2.61,0.468-5.236,0.443-7.867c0.971-2.626,0.578-5.348,0.868-8.265c0.215-2.172,0.717-7.588,3.424-7.996    c2.093-0.315,3.444,3.619,3.775,4.802c1.218,4.354,1.088,9.766,1.258,14.297c0.142,3.804,0.189,7.612,0.176,11.419    C297.979,398.094,294.573,398.301,291.175,398.455z M313.708,397.811c-0.987-0.053-1.975-0.085-2.964-0.097    c-1.631-0.019-3.264,0.001-4.898,0.044c-0.118-6.188-0.348-12.415-0.857-18.582c1.01-3.477,2.082-9.685,6.707-6.826    c2.291,1.416,3.057,6.254,3.537,8.759c0.597,3.119,0.777,6.709,0.827,9.897c0.018,1.148,0.016,4.716-0.375,5.539    C316.094,397.918,315.436,398.339,313.708,397.811z"/>
	</g>
</g>
<g>
</g>
<g>
</g>
<g>
</g>
<g>
</g>
<g>
</g>
<g>
</g>
<g>
</g>
<g>
</g>
<g>
</g>
<g>
</g>
<g>
</g>
<g>
</g>
<g>
</g>
<g>
</g>
<g>
</g>
</svg>
