<?xml version="1.0" encoding="iso-8859-1"?>
<!-- Generator: Adobe Illustrator 19.0.0, SVG Export Plug-In . SVG Version: 6.00 Build 0)  -->
<svg xmlns="http://www.w3.org/2000/svg" xmlns:xlink="http://www.w3.org/1999/xlink" version="1.1" id="Layer_1" x="0px" y="0px" viewBox="0 0 512.002 512.002" style="enable-background:new 0 0 512.002 512.002;" xml:space="preserve">
<g>
	<g>
		<path d="M132.267,344.79c-0.071-5.326-0.388-9.802-2.766-14.6c-4.062-8.196-13.183-3.978-16.862,2.469    c-2.417,4.236-2.68,8.838-2.981,13.602c-0.134,2.123-0.254,4.246-0.301,6.364c-0.385,3.368-0.612,6.871-0.249,10.098    c0.071,0.626,0.35,1.186,0.807,1.537c0.157,0.281,0.396,0.516,0.698,0.712c0.006,0.005,0.012,0.007,0.018,0.011    c1.859,1.188,6.012,0.961,7.655,0.853c1.967-0.13,3.883-0.583,5.829-0.691c2.082-0.117,4.345,0.13,5.946-1.403    c0.073-0.07,0.107-0.155,0.149-0.238c0.82-0.431,1.308-1.305,1.598-2.946C132.725,355.403,132.337,349.991,132.267,344.79z     M128.579,351.794c-0.021,0.697,0.049,7.642-0.75,8.163c-0.054,0.035-6.752-0.706-7.819-0.596    c-2.349,0.241-4.866,1.005-7.262,1.31c-0.077-1.064-0.122-2.132-0.151-3.202c0.372-5.011,0.229-10.099,0.757-15.077    c0.489-4.626,1.604-9.807,6.022-12.377c6.453-3.755,8.468,3.578,9.067,8.221C129.015,342.663,128.714,347.343,128.579,351.794z"/>
	</g>
</g>
<g>
	<g>
		<path d="M162.119,352.627c-0.048-2.119-0.167-4.242-0.301-6.364c-0.301-4.764-0.566-9.366-2.981-13.602    c-3.677-6.447-12.798-10.666-16.862-2.469c-2.377,4.797-2.695,9.273-2.767,14.6c-0.071,5.201-0.458,10.613,0.458,15.767    c0.292,1.641,0.778,2.515,1.598,2.946c0.042,0.083,0.076,0.168,0.149,0.238c1.601,1.533,3.862,1.286,5.946,1.403    c1.946,0.109,3.862,0.561,5.829,0.691c1.643,0.109,5.796,0.335,7.655-0.853c0.006-0.003,0.012-0.007,0.018-0.011    c0.303-0.196,0.542-0.432,0.698-0.712c0.457-0.35,0.737-0.91,0.808-1.537C162.732,359.498,162.506,355.996,162.119,352.627z     M158.729,360.672c-2.398-0.305-4.914-1.07-7.262-1.31c-1.068-0.11-7.766,0.631-7.82,0.596c-0.798-0.521-0.728-7.465-0.75-8.163    c-0.135-4.452-0.436-9.131,0.137-13.558c0.601-4.642,2.615-11.977,9.068-8.221c4.418,2.57,5.533,7.752,6.022,12.377    c0.526,4.977,0.384,10.065,0.757,15.077C158.851,358.54,158.806,359.608,158.729,360.672z"/>
	</g>
</g>
<g>
	<g>
		<path d="M150.841,268.677c0.158-4.797,0.006-9.7-0.367-14.477c-0.611-7.831-1.1-15.531-2.228-23.283    c-0.489-3.361-1.585-6.169-3.094-8.684c-0.025-2.236-1.424-4.342-2.788-6.138c-1.692-2.228-4.77-6.02-7.977-4.827    c-2.555,0.951-4.586,4.855-5.904,7.011c-0.641,1.048-1.345,2.284-1.931,3.582c-1.626,2.61-2.806,5.528-3.32,9.055    c-1.129,7.753-1.619,15.453-2.228,23.283c-0.373,4.777-0.524,9.68-0.367,14.477c0.106,3.23-0.431,7.685,0.678,10.8    c1.391,3.906,7.76,4.52,12.548,4.628c0.066,0.008,0.123,0.035,0.192,0.034c0.492-0.007,1.064-0.007,1.684-0.01    c0.62,0.003,1.192,0.003,1.684,0.01c0.068,0.001,0.127-0.027,0.192-0.034c4.788-0.108,11.157-0.722,12.548-4.628    C151.271,276.36,150.734,271.905,150.841,268.677z M146.077,274.337c-0.184,3.179-0.027,3.731-3.223,4.391    c-2.467,0.51-4.81,0.644-7.116,1.244c-2.306-0.599-4.648-0.734-7.115-1.244c-3.196-0.66-3.039-1.212-3.223-4.391    c-0.448-7.74-0.643-15.423-0.274-23.172c0.315-6.631,0.244-13.265,1.03-19.854c0.228-1.908,0.764-3.592,1.476-5.151    c0.865-1.032,1.595-2.315,2.221-3.272c1.326-2.028,2.494-4.621,4.333-6.269c1.326-1.188,1.375-1.303,3.077-0.359    c0.159,0.089,0.318,0.191,0.476,0.299c2.927,4.703,6.842,8.572,7.58,14.751c0.787,6.589,0.714,13.223,1.03,19.854    C146.719,258.913,146.525,266.594,146.077,274.337z"/>
	</g>
</g>
<g>
	<g>
		<path d="M144.102,164.095c-0.977-4.307-2.974-10.512-7.844-11.608c-0.036-0.086-0.103-0.155-0.229-0.141    c-0.101,0.01-0.193,0.037-0.292,0.05c-0.099-0.015-0.191-0.04-0.292-0.05c-0.125-0.012-0.193,0.055-0.229,0.141    c-4.869,1.096-6.867,7.302-7.844,11.608c-1.3,5.729-1.839,11.299-0.873,17.185c0.101,0.613,0.784,1.303,1.397,1.399    c0.202,0.031,0.403,0.064,0.604,0.095c1.647,0.806,3.835,0.863,5.545,0.865c1.578,0.002,3.151-0.18,4.729-0.199    c0.73-0.009,1.312-0.126,1.824-0.372c0.972-0.059,1.972-0.233,2.979-0.392c0.614-0.097,1.298-0.786,1.397-1.397    C145.94,175.394,145.402,169.824,144.102,164.095z M141.575,178.86c-0.51,0.021-1.021,0.035-1.531,0.058    c-1.784-0.501-3.749-0.047-5.602,0.094c-1.125,0.086-2.158-0.156-3.269-0.181c-0.327-0.008-0.651,0.013-0.977,0.039    c-0.098-0.003-0.196-0.007-0.294-0.011c-2.249-7.699-0.207-20.675,5.836-25.631C141.779,158.185,143.823,171.162,141.575,178.86z"/>
	</g>
</g>
<g>
	<g>
		<path d="M121.888,432.069c-0.314-4.299-0.043-10.604-5.386-11.791c-4.876-1.082-6.996,4.939-7.885,8.644    c-0.904,3.765-1.203,7.327-1.11,10.889c-0.134,2.2-0.259,4.116-0.277,6.537c-0.012,1.667-0.572,3.677,0.703,5.061    c2.595,2.815,9.383,0.708,12.451,0.127c0.681-0.129,1.014-0.806,1.08-1.419C122.121,444.084,122.331,438.125,121.888,432.069z     M119.327,439.918c-0.03,2.599-0.045,5.633-0.723,8.174c-0.072,0.269-0.118,0.446-0.148,0.575    c-0.797,0.063-3.322,0.404-3.649,0.493c-1.413,0.031-3.65-0.104-4.209-0.775c-0.24-0.288-0.281-1.184-0.256-2.156    c0.487-5.472,0.172-10.978,1.303-16.47c0.079-0.544,0.156-1.09,0.235-1.635c0.214-3.739,2.446-4.481,6.694-2.224    c0.653,1.046,0.323,3.265,0.429,4.477C119.283,433.571,119.364,436.7,119.327,439.918z"/>
	</g>
</g>
<g>
	<g>
		<path d="M120.15,480.845c0.158-3.071,1.731-19.734-6.12-16.717c-3.064,1.177-4.71,6.021-5.263,8.889    c-0.163,0.845-0.278,1.738-0.374,2.646c-0.337,1.736-0.224,3.703-0.4,5.341c-0.317,2.955-1.623,8.601,1.989,9.908    c2.179,0.788,7.057,0.514,8.979-0.704C121.534,488.578,120.024,483.307,120.15,480.845z M116.951,487.038    c-0.539,0.561-5.607,0.82-5.993,0.341c0.304,0.377,0.182-3.734,0.177-3.831c-0.064-1.357-0.086-2.678-0.017-4.039    c0.157-3.067-0.429-6.812,1.217-9.506c0.725-1.188,1.364-4.793,4.199-2.738c1.042,0.754,1.154,3.799,1.166,4.719    c0.04,2.964-0.175,5.913-0.401,8.862C117.201,482.115,117.804,486.149,116.951,487.038z"/>
	</g>
</g>
<g>
	<g>
		<path d="M164.247,446.349c-0.018-2.422-0.144-4.338-0.277-6.537c0.093-3.562-0.207-7.124-1.11-10.889    c-0.89-3.706-3.009-9.726-7.885-8.644c-5.343,1.188-5.071,7.492-5.385,11.791c-0.443,6.057-0.232,12.015,0.424,18.048    c0.066,0.612,0.398,1.289,1.08,1.419c3.069,0.581,9.856,2.689,12.451-0.127C164.819,450.026,164.259,448.016,164.247,446.349z     M160.878,448.383c-0.559,0.67-2.796,0.806-4.209,0.774c-0.327-0.089-2.852-0.43-3.649-0.493c-0.03-0.128-0.076-0.305-0.148-0.575    c-0.679-2.541-0.693-5.575-0.723-8.174c-0.037-3.218,0.044-6.346,0.324-9.541c0.107-1.212-0.223-3.431,0.429-4.48    c4.248-2.257,6.48-1.515,6.694,2.224c0.079,0.546,0.156,1.091,0.235,1.635c1.131,5.492,0.816,10.998,1.303,16.47    C161.159,447.2,161.118,448.094,160.878,448.383z"/>
	</g>
</g>
<g>
	<g>
		<path d="M163.649,485.331c-0.008-0.292-0.016-0.577-0.016-0.85c-0.005-2.948-0.244-5.89-0.551-8.819    c-0.095-0.908-0.211-1.799-0.374-2.644c-0.552-2.868-2.199-7.711-5.263-8.889c-7.85-3.017-6.278,13.646-6.12,16.717    c0.127,2.462-1.383,7.733,1.189,9.364c1.92,1.218,6.8,1.492,8.979,0.704C163.819,490.071,163.711,487.494,163.649,485.331z     M160.343,486.675c-0.028,0.177-0.054,0.338-0.077,0.448c-0.026,0.122-0.05,0.259-0.074,0.397    c-1.211,0.272-5.19,0.012-5.665-0.482c-0.854-0.889-0.251-4.924-0.348-6.194c-0.226-2.949-0.441-5.897-0.401-8.862    c0.012-0.919,0.125-3.963,1.166-4.719c2.835-2.055,3.474,1.551,4.199,2.738c1.736,2.843,1.054,6.343,1.216,9.506    c0.07,1.36,0.047,2.682-0.017,4.039C160.339,483.614,160.281,485.576,160.343,486.675z"/>
	</g>
</g>
<g>
	<g>
		<path d="M269.284,403.151c-0.281-3.496-1.463-7.005-4.529-8.93c-1.456-0.914-3.404-2.281-5.336-2.825    c-1.377-0.605-3.049-0.521-4.596-0.159c-2.584-0.495-5.611,1.697-7.663,2.985c-3.067,1.924-4.25,5.433-4.529,8.93    c-0.354,4.402,2.114,9.346,5.92,11.203c1.127,0.876,2.799,1.303,4.106,1.69c1.108,0.33,2.865,0.596,4.023,0.587    c1.244-0.009,4.328-0.257,5.191-1.736C266.505,413.738,269.681,408.105,269.284,403.151z M261.965,410.688    c-1.597,0.759-3.321,0.988-4.925,1.735c-0.139,0.008-0.285,0.018-0.42,0.025c-0.621,0.031-1.26-0.013-1.896-0.098    c-1.561-0.694-3.229-0.926-4.777-1.662c-3.004-1.428-4.053-4.383-3.989-7.536c0.088-4.287,2.042-6.117,4.631-7.575    c1.045-0.419,2.125-0.766,3.18-1.062c1.149-0.323,2.463-0.651,3.661-0.487c0.708,0.097,1.164,0.294,1.641,0.386    c3.633,1.794,6.771,3.274,6.883,8.738C266.019,406.306,264.97,409.261,261.965,410.688z"/>
	</g>
</g>
<g>
	<g>
		<path d="M244.157,383.156c-2.25-4.353-7.049-5.882-11.159-3.059c-0.05,0.035-0.082,0.08-0.123,0.12    c-1.538,0.725-2.667,2.112-2.958,4.499c-0.576,4.732,4.498,9.511,9.092,9.445C244.052,394.09,246.113,386.937,244.157,383.156z     M238.464,391.077c-3.024-0.157-6.239-3.432-5.939-6.474c0.132-1.349,0.919-2.358,1.989-3.059c2.221-0.441,4.585-0.317,6.16,1.528    c0.842,0.985,1.571,2.384,1.575,3.706C242.254,388.728,240.452,391.18,238.464,391.077z"/>
	</g>
</g>
<g>
	<g>
		<path d="M235.57,399.567c-2.213-0.962-4.38-0.805-6.437,0.08c-1.075,0.209-2.118,0.535-3.026,0.888    c-2.246,0.871-4.159,2.818-4.862,5.136c-0.799,2.633-0.006,4.595,1.949,6.41c2.26,2.1,4.629,2.294,7.507,1.741    c4.233-0.813,9.101-4.108,9.118-9.008C239.825,402.414,237.635,400.465,235.57,399.567z M232.264,410    c-2.665,1.07-8.267,1.254-7.955-3.054c0.156-2.159,3.462-4.394,6.374-5.28c2.46,0.021,5.184,0.242,5.876,2.716    C237.174,406.584,234.083,409.271,232.264,410z"/>
	</g>
</g>
<g>
	<g>
		<path d="M248.755,421.779c-0.129-1.873-1.342-3.848-3.113-4.584c-1.688-0.703-3.082-0.444-4.259,0.457    c-4.029,1.754-8.429,3.757-8.959,8.747c-0.232,2.181,0.141,4.062,2.151,5.196c2.128,1.201,4.848,1.135,7.076,0.28    C245.549,430.379,249.058,426.214,248.755,421.779z M245.143,424.647c-1.287,2.465-3.458,4.348-6.398,4.52    c-1.859,0.109-3.236-0.284-3.353-2.353c-0.086-1.534,0.86-2.874,1.83-3.979c1.144-1.303,2.624-2.283,4.055-3.261    c1.163-0.064,3.091,0.018,3.742,0.538C246.417,421.229,245.823,423.345,245.143,424.647z"/>
	</g>
</g>
<g>
	<g>
		<path d="M217.633,459.19c-8.635,0.707-12.12,9.104-12.71,17.799c-0.851,3.538-0.768,6.805-0.339,10.541    c0.269,2.344,0.066,6.138,2.304,7.491c2.574,1.558,8.591,0.873,11.373,0.757c3.932-0.164,7.929-0.652,11.814-0.969    c1.136-0.093,2.258-0.932,2.194-2.194C231.787,483.131,233.471,457.891,217.633,459.19z M227.828,490.69    c-5.837,0.769-13.069,2.07-18.442,0.497c-0.063-0.437-0.149-0.869-0.281-1.293c-0.044-1-0.333-2.173-0.597-3.259    c-0.085-2.028-0.369-4.083-0.397-6.126c-0.09-6.535,1.925-18.764,10.939-17.524C230.377,464.545,227.797,481.32,227.828,490.69z"/>
	</g>
</g>
<g>
	<g>
		<path d="M402.554,352.627c-0.046-2.119-0.166-4.242-0.3-6.364c-0.301-4.764-0.566-9.366-2.981-13.602    c-3.677-6.447-12.798-10.666-16.862-2.469c-2.377,4.797-2.695,9.273-2.767,14.6c-0.071,5.201-0.458,10.613,0.458,15.767    c0.292,1.641,0.778,2.515,1.598,2.946c0.042,0.083,0.076,0.168,0.149,0.238c1.601,1.533,3.862,1.286,5.946,1.403    c1.946,0.109,3.862,0.561,5.829,0.691c1.643,0.109,5.796,0.335,7.655-0.853c0.006-0.003,0.012-0.007,0.018-0.011    c0.303-0.196,0.542-0.432,0.698-0.712c0.458-0.35,0.737-0.91,0.807-1.537C403.167,359.498,402.94,355.996,402.554,352.627z     M399.164,360.672c-2.398-0.305-4.914-1.07-7.262-1.31c-1.067-0.11-7.765,0.631-7.819,0.596c-0.798-0.521-0.728-7.465-0.75-8.163    c-0.135-4.452-0.436-9.131,0.137-13.558c0.601-4.642,2.615-11.977,9.068-8.221c4.417,2.57,5.533,7.752,6.022,12.377    c0.526,4.977,0.384,10.065,0.757,15.077C399.286,358.54,399.241,359.608,399.164,360.672z"/>
	</g>
</g>
<g>
	<g>
		<path d="M372.703,344.79c-0.072-5.326-0.388-9.802-2.767-14.6c-4.062-8.196-13.183-3.978-16.86,2.469    c-2.417,4.236-2.682,8.838-2.981,13.602c-0.134,2.123-0.254,4.246-0.301,6.364c-0.386,3.368-0.612,6.871-0.249,10.098    c0.071,0.626,0.35,1.186,0.807,1.537c0.157,0.281,0.396,0.516,0.698,0.712c0.006,0.005,0.012,0.007,0.018,0.011    c1.859,1.188,6.012,0.961,7.655,0.853c1.967-0.13,3.883-0.583,5.829-0.691c2.083-0.117,4.345,0.13,5.946-1.403    c0.073-0.07,0.107-0.155,0.149-0.238c0.82-0.431,1.308-1.305,1.598-2.946C373.161,355.403,372.774,349.991,372.703,344.79z     M369.015,351.794c-0.021,0.697,0.049,7.642-0.75,8.163c-0.054,0.035-6.752-0.706-7.82-0.596c-2.348,0.241-4.866,1.005-7.262,1.31    c-0.077-1.064-0.122-2.132-0.152-3.202c0.372-5.011,0.229-10.099,0.757-15.077c0.489-4.626,1.604-9.807,6.022-12.377    c6.453-3.755,8.468,3.578,9.067,8.221C369.45,342.663,369.15,347.343,369.015,351.794z"/>
	</g>
</g>
<g>
	<g>
		<path d="M391.276,268.677c0.158-4.797,0.006-9.7-0.367-14.477c-0.611-7.831-1.1-15.531-2.228-23.283    c-0.514-3.527-1.694-6.445-3.32-9.055c-0.586-1.298-1.29-2.533-1.931-3.582c-1.318-2.156-3.349-6.06-5.904-7.011    c-3.206-1.193-6.286,2.598-7.977,4.827c-1.364,1.796-2.763,3.902-2.788,6.138c-1.509,2.515-2.604,5.323-3.094,8.684    c-1.129,7.753-1.619,15.453-2.228,23.283c-0.373,4.777-0.524,9.68-0.367,14.477c0.106,3.228-0.431,7.683,0.679,10.798    c1.391,3.906,7.76,4.52,12.548,4.628c0.065,0.008,0.123,0.035,0.192,0.034c0.492-0.007,1.064-0.007,1.684-0.01    c0.62,0.003,1.192,0.003,1.684,0.01c0.068,0.001,0.126-0.027,0.192-0.034c4.788-0.108,11.157-0.722,12.548-4.628    C391.707,276.36,391.171,271.905,391.276,268.677z M386.512,274.339c-0.184,3.179-0.027,3.731-3.223,4.391    c-2.467,0.51-4.81,0.644-7.115,1.244c-2.305-0.599-4.648-0.734-7.116-1.244c-3.196-0.66-3.039-1.212-3.223-4.391    c-0.447-7.743-0.641-15.425-0.273-23.174c0.315-6.631,0.244-13.265,1.029-19.854c0.739-6.179,4.653-10.048,7.58-14.751    c0.158-0.109,0.317-0.211,0.476-0.299c1.702-0.944,1.751-0.828,3.077,0.359c1.839,1.648,3.007,4.24,4.333,6.269    c0.626,0.957,1.355,2.24,2.221,3.272c0.712,1.559,1.248,3.243,1.476,5.151c0.787,6.589,0.715,13.223,1.03,19.854    C387.154,258.916,386.958,266.597,386.512,274.339z"/>
	</g>
</g>
<g>
	<g>
		<path d="M384.539,164.098c-0.977-4.307-2.974-10.512-7.844-11.608c-0.036-0.086-0.103-0.155-0.229-0.141    c-0.101,0.01-0.193,0.037-0.292,0.05c-0.099-0.015-0.191-0.04-0.292-0.05c-0.126-0.012-0.193,0.055-0.229,0.141    c-4.869,1.096-6.867,7.302-7.844,11.608c-1.301,5.728-1.84,11.298-0.874,17.184c0.1,0.611,0.782,1.301,1.397,1.397    c1.007,0.158,2.007,0.331,2.979,0.392c0.511,0.246,1.094,0.361,1.824,0.372c1.578,0.02,3.152,0.201,4.729,0.199    c1.711-0.003,3.898-0.06,5.545-0.865c0.202-0.031,0.403-0.064,0.605-0.095c0.614-0.097,1.296-0.786,1.397-1.397    C386.378,175.397,385.839,169.828,384.539,164.098z M382.011,178.86c-0.098,0.005-0.196,0.007-0.294,0.011    c-0.324-0.026-0.65-0.047-0.977-0.039c-1.11,0.025-2.144,0.267-3.269,0.181c-1.853-0.141-3.82-0.595-5.602-0.094    c-0.511-0.024-1.023-0.037-1.532-0.058c-2.248-7.699-0.204-20.674,5.837-25.631C382.215,158.185,384.259,171.162,382.011,178.86z"/>
	</g>
</g>
<g>
	<g>
		<path d="M404.683,446.349c-0.018-2.421-0.145-4.337-0.277-6.537c0.093-3.562-0.206-7.124-1.11-10.889    c-0.89-3.706-3.009-9.726-7.885-8.644c-5.343,1.188-5.07,7.492-5.386,11.791c-0.443,6.057-0.232,12.015,0.424,18.048    c0.066,0.612,0.398,1.289,1.08,1.419c3.069,0.58,9.856,2.688,12.451-0.127C405.255,450.026,404.697,448.016,404.683,446.349z     M401.313,448.383c-0.559,0.67-2.796,0.806-4.209,0.775c-0.327-0.089-2.852-0.43-3.649-0.493c-0.03-0.128-0.076-0.305-0.148-0.575    c-0.679-2.541-0.694-5.575-0.723-8.174c-0.037-3.216,0.045-6.345,0.324-9.539c0.107-1.212-0.223-3.431,0.429-4.48    c4.248-2.257,6.48-1.515,6.694,2.224c0.079,0.545,0.156,1.091,0.235,1.635c1.131,5.492,0.816,10.998,1.303,16.47    C401.593,447.2,401.554,448.095,401.313,448.383z"/>
	</g>
</g>
<g>
	<g>
		<path d="M362.324,432.069c-0.314-4.299-0.043-10.604-5.386-11.791c-4.876-1.082-6.995,4.939-7.885,8.644    c-0.905,3.765-1.203,7.327-1.11,10.889c-0.134,2.2-0.259,4.116-0.277,6.537c-0.013,1.667-0.572,3.677,0.703,5.061    c2.595,2.815,9.383,0.708,12.451,0.127c0.681-0.129,1.014-0.806,1.08-1.419C362.556,444.084,362.766,438.125,362.324,432.069z     M359.764,439.918c-0.03,2.599-0.045,5.633-0.723,8.174c-0.072,0.269-0.118,0.446-0.148,0.575    c-0.797,0.063-3.322,0.404-3.649,0.493c-1.413,0.031-3.65-0.104-4.209-0.775c-0.24-0.288-0.281-1.184-0.257-2.156    c0.487-5.472,0.172-10.978,1.304-16.47c0.079-0.544,0.156-1.09,0.235-1.635c0.214-3.739,2.446-4.481,6.694-2.224    c0.652,1.046,0.322,3.265,0.429,4.477C359.72,433.571,359.801,436.7,359.764,439.918z"/>
	</g>
</g>
<g>
	<g>
		<path d="M360.586,480.845c0.158-3.071,1.731-19.734-6.12-16.717c-3.064,1.177-4.711,6.021-5.263,8.889    c-0.163,0.845-0.278,1.736-0.374,2.644c-0.306,2.93-0.547,5.872-0.55,8.819c-0.001,0.272-0.008,0.557-0.016,0.849    c-0.062,2.163-0.169,4.74,2.156,5.582c2.179,0.788,7.057,0.514,8.979-0.704C361.969,488.578,360.46,483.307,360.586,480.845z     M357.386,487.038c-0.475,0.494-4.453,0.753-5.665,0.482c-0.024-0.138-0.048-0.275-0.074-0.397    c-0.024-0.11-0.049-0.271-0.077-0.448c0.062-1.099,0.003-3.06,0.001-3.127c-0.064-1.357-0.086-2.678-0.017-4.039    c0.162-3.163-0.52-6.664,1.216-9.506c0.725-1.188,1.364-4.793,4.199-2.738c1.042,0.754,1.154,3.8,1.166,4.719    c0.04,2.964-0.175,5.913-0.401,8.862C357.638,482.115,358.24,486.149,357.386,487.038z"/>
	</g>
</g>
<g>
	<g>
		<path d="M281.993,384.716c-0.291-2.386-1.42-3.774-2.958-4.499c-0.04-0.04-0.072-0.086-0.123-0.12    c-4.11-2.823-8.909-1.294-11.159,3.059c-1.953,3.782,0.107,10.934,5.15,11.006C277.498,394.227,282.57,389.449,281.993,384.716z     M273.447,391.079c-1.987,0.103-3.788-2.349-3.785-4.299c0.003-1.323,0.734-2.722,1.576-3.708c1.575-1.844,3.94-1.969,6.16-1.528    c1.07,0.7,1.857,1.71,1.989,3.059C279.687,387.646,276.472,390.921,273.447,391.079z"/>
	</g>
</g>
<g>
	<g>
		<path d="M290.669,405.672c-0.704-2.318-2.616-4.265-4.862-5.136c-0.907-0.352-1.951-0.679-3.026-0.888    c-2.057-0.886-4.224-1.043-6.437-0.081c-2.065,0.898-4.255,2.848-4.247,5.247c0.017,4.898,4.886,8.194,9.118,9.009    c2.878,0.553,5.247,0.359,7.507-1.741C290.674,410.266,291.468,408.304,290.669,405.672z M279.648,410    c-1.819-0.73-4.91-3.417-4.294-5.618c0.693-2.475,3.416-2.696,5.876-2.716c2.912,0.886,6.217,3.12,6.374,5.28    C287.916,411.254,282.313,411.07,279.648,410z"/>
	</g>
</g>
<g>
	<g>
		<path d="M279.487,426.397c-0.53-4.988-4.931-6.992-8.958-8.746c-1.176-0.9-2.57-1.159-4.259-0.457    c-1.769,0.736-2.983,2.711-3.111,4.583c-0.304,4.435,3.206,8.599,7.103,10.095c2.228,0.855,4.948,0.922,7.076-0.279    C279.346,430.458,279.719,428.578,279.487,426.397z M273.167,429.167c-2.941-0.172-5.111-2.055-6.398-4.52    c-0.68-1.302-1.274-3.418,0.125-4.535c0.651-0.52,2.579-0.602,3.741-0.538c1.431,0.978,2.912,1.959,4.055,3.261    c0.971,1.106,1.916,2.445,1.83,3.979C276.403,428.885,275.027,429.276,273.167,429.167z"/>
	</g>
</g>
<g>
	<g>
		<path d="M306.988,476.988c-0.588-8.695-4.073-17.092-12.708-17.799c-15.838-1.299-14.154,23.942-14.638,33.424    c-0.064,1.263,1.06,2.101,2.194,2.194c3.886,0.317,7.882,0.805,11.814,0.969c2.781,0.117,8.799,0.8,11.373-0.757    c2.238-1.354,2.035-5.148,2.304-7.491C307.756,483.793,307.84,480.526,306.988,476.988z M303.801,480.51    c-0.028,2.042-0.312,4.097-0.397,6.126c-0.264,1.087-0.555,2.26-0.597,3.258c-0.131,0.424-0.218,0.856-0.281,1.293    c-5.373,1.571-12.605,0.272-18.442-0.497c0.031-9.37-2.549-26.145,8.778-27.703C301.875,461.747,303.891,473.976,303.801,480.51z"/>
	</g>
</g>
<g>
	<g>
		<path d="M272.508,481.195c-0.246-3.483-0.858-7.612-2.134-11.417c-0.264-6.539-6.8-13.288-13.247-13.395    c-4.922-0.083-11.191,2.558-12.775,7.498c-3.289,4.888-4.567,11.886-4.949,17.315c-0.3,4.268-1.986,11.718,1.337,15.298    c1.234,1.33,3.248,2.001,5.455,2.252c3.276,0.989,7.844,0.434,10.466,0.733c3.694,0.421,10.78,1.871,13.224-1.791    c0.048-0.073,0.074-0.162,0.099-0.249c0.443-0.272,0.849-0.58,1.188-0.945C274.494,492.914,272.808,485.462,272.508,481.195z     M267.528,493.401c-1.574,1.788-5.18,1.277-8.131,1.278c-1.596-0.048-3.191-0.1-4.772-0.226c-1.916-0.153-5.346-0.47-8.035,0.084    c-0.901-0.187-1.672-0.529-2.208-1.137c-1.385-1.574-0.324-9.353-0.308-11.203c0.048-4.987,0.512-9.314,2.421-13.951    c1.198-2.911,2.634-4.879,4.523-6.62c1.252-0.712,2.66-1.174,4.412-1.347c1.835-0.181,3.349,0.077,4.636,0.636    c2.299,1.925,3.982,4.017,5.346,7.331c1.908,4.637,2.373,8.964,2.42,13.951C267.854,484.046,268.914,491.826,267.528,493.401z"/>
	</g>
</g>
<g>
	<g>
		<path d="M262.514,373.106c-2.024-2.798-7.612-4.93-9.497-1.099c-2.788,1.802-3.942,6.557-4.094,9.466    c-0.126,2.383,1.276,5.478,3.508,6.606c1.703,0.861,5.1,0.553,6.732-0.387C263.752,385.045,265.688,377.495,262.514,373.106z     M258.291,384.073c-0.875,0.702-1.977,1.06-3.125,1.033c-2.971-0.07-3.655-2.831-3.557-5.199c0.075-1.844,0.803-4.355,2.193-6.06    c2.093-0.445,3.883-1.045,5.584,0.681C261.746,376.919,260.719,382.13,258.291,384.073z"/>
	</g>
</g>
<g>
	<g>
		<path d="M262.138,425.561c-0.704-2.019-1.814-3.691-4.086-3.976c-1.524-0.191-3.193,0.47-4.318,1.576    c-2.33,1.914-3.692,7.461-3.537,9.279c0.183,2.145,0.87,4.852,3.006,5.865c1.904,0.9,4.853,0.375,6.517-0.84    C263.452,434.74,263.514,429.509,262.138,425.561z M258.947,433.783c-0.707,0.985-1.919,1.592-3.136,1.658    c-2.678,0.146-3.409-2.437-3.25-4.612c0.135-1.84,1.015-3.542,2.169-5.021c1.375-0.788,3.128-1.412,4.364-0.258    c0.831,0.776,0.771,2.657,0.978,3.725C260.388,430.915,259.954,432.378,258.947,433.783z"/>
	</g>
</g>
<g>
	<g>
		<path d="M430.249,494.862c0.137-6.317-0.216-12.632-0.668-18.931c-0.707-9.865-0.611-19.687-0.614-29.572    c-0.004-15.513,1.53-30.964,0.563-46.463c-0.089-4.025-0.286-8.063-0.577-12.01c-0.293-3.971,0.074-10.224-4.142-12.431    c-1.601-0.839-4.389-1.635-6.826-1.729c-0.653-0.263-2.37-1.168-2.245-0.624c-0.583-1.247,0.076-3.123,0.112-4.372    c0.269-9.2,0.195-18.417-0.213-27.617c-0.31-6.967,1.029-14.086,0.189-20.997c4.224,0.299,7.991-0.255,8.293-5.924    c0.201-3.769-0.431-7.743-0.849-11.486c-0.221-1.987,0.255-5.716-0.841-7.436c-1.001-1.574-2.45-1.624-4.109-1.593    c-0.414,0.008-0.831,0.006-1.249,0c-0.801-0.283-1.666-0.478-2.552-0.639c0.051-0.695,0.074-1.385,0.084-2.074    c0.018-0.068,0.044-0.132,0.056-0.205c0.961-5.884,0.572-12.194,0.664-18.167c0.101-6.562,0.342-13.301-0.033-19.852    c-0.641-11.235-0.707-22.644-1.947-33.849c-0.629-5.676-0.716-11.394-1.45-17.071c-0.474-3.665-0.273-9.221-2.332-12.392    c-0.594-0.914-1.392-1.486-2.304-1.843c0.893-5.334-0.132-12.004-0.174-17.162c-0.058-7.27,0.011-14.849-0.587-22.053    c-0.304-3.659,1.5-10.73-2.405-12.785c-0.837-0.441-1.941-0.82-3.154-1.099c0.748-3.184-0.355-8.113-0.515-10.575    c-0.273-4.187,0.155-8.338-0.491-12.429c0.266-0.14,0.521-0.294,0.757-0.465c3.362-2.433,1.606-7.542,0.837-10.833    c-1.537-6.578-3.272-13.135-4.775-19.735c-3.179-13.958-5.832-28.054-9.133-41.955c-1.592-6.7-2.605-13.562-4.152-20.283    c-0.852-3.697-2.156-7.262-3.315-10.869c-0.745-2.319-2.946-10.895-6.33-5.695c-1.319,2.027-1.701,5.906-2.477,8.26    c-0.906,2.743-1.821,5.487-2.469,8.304c-1.548,6.721-2.561,13.583-4.152,20.283c-3.301,13.902-5.956,27.997-9.133,41.955    c-1.503,6.599-3.238,13.157-4.776,19.735c-0.769,3.291-2.523,8.399,0.837,10.833c0.237,0.172,0.49,0.324,0.757,0.465    c-0.644,4.091-0.218,8.241-0.491,12.429c-0.161,2.462-1.262,7.389-0.515,10.575c-1.212,0.278-2.317,0.658-3.154,1.099    c-3.904,2.055-2.1,9.126-2.404,12.785c-0.599,7.204-0.53,14.784-0.587,22.053c-0.042,5.159-1.067,11.828-0.174,17.162    c-0.913,0.357-1.711,0.929-2.304,1.843c-2.06,3.171-1.859,8.727-2.332,12.392c-0.734,5.677-0.822,11.395-1.45,17.071    c-1.24,11.204-1.305,22.614-1.947,33.849c-0.374,6.551-0.133,13.29-0.031,19.852c0.092,5.974-0.296,12.283,0.665,18.167    c0.011,0.073,0.038,0.137,0.055,0.205c0.01,0.689,0.035,1.38,0.085,2.074c-0.887,0.161-1.752,0.356-2.554,0.639    c-0.419,0.006-0.835,0.008-1.249,0c-1.658-0.031-3.108,0.019-4.109,1.593c-0.85,1.336-0.755,3.874-0.773,5.876    c-4.758-1.221-11.044-0.206-15.473-0.209c-3.444-0.001-6.875,0.2-10.306,0.312c-0.366-3.285-4.052-5.84-6.078-7.958    c-4.363-4.557-8.365-9.459-12.638-14.096c-6.478-7.03-13.57-14.62-21.5-20.342c-0.181-0.218-0.352-0.435-0.543-0.654    c-1.038-1.189-2.014-2.528-3.253-3.475c0.447-3.981-0.138-8.058-0.342-12.036c-0.183-3.563,0.074-7.903-1.456-11.21    c-0.842-1.821-3.664-1.224-4.14,0.541c-1.099,4.076-1.058,8.524-1.002,12.73c0.038,2.94-0.385,6.702,1.065,9.407    c-0.902,0.532-1.685,1.335-2.449,2.254c-0.698,0.838-1.485,1.626-2.249,2.433c-7.934,5.722-15.03,13.318-21.511,20.35    c-4.274,4.637-8.276,9.539-12.638,14.096c-2.027,2.117-5.713,4.672-6.078,7.958c-3.43-0.112-6.863-0.313-10.306-0.312    c-4.429,0.001-10.715-1.014-15.473,0.209c-0.018-2.002,0.077-4.54-0.773-5.876c-1.001-1.574-2.45-1.624-4.109-1.593    c-0.414,0.008-0.831,0.006-1.249,0c-0.801-0.283-1.666-0.478-2.552-0.639c0.05-0.695,0.074-1.385,0.085-2.074    c0.018-0.068,0.044-0.132,0.056-0.205c0.961-5.884,0.572-12.194,0.664-18.167c0.101-6.562,0.342-13.301-0.031-19.852    c-0.641-11.235-0.707-22.644-1.947-33.849c-0.629-5.676-0.716-11.394-1.45-17.071c-0.474-3.665-0.273-9.221-2.332-12.392    c-0.594-0.914-1.393-1.486-2.304-1.843c0.893-5.334-0.132-12.004-0.174-17.162c-0.057-7.27,0.011-14.849-0.587-22.053    c-0.304-3.659,1.5-10.73-2.404-12.785c-0.837-0.441-1.942-0.821-3.154-1.099c0.746-3.184-0.355-8.113-0.515-10.575    c-0.273-4.187,0.155-8.338-0.49-12.429c0.266-0.14,0.521-0.294,0.757-0.465c3.362-2.433,1.606-7.542,0.837-10.833    c-1.537-6.578-3.273-13.135-4.775-19.735c-3.179-13.958-5.832-28.054-9.133-41.955c-1.592-6.7-2.605-13.561-4.153-20.283    c-0.649-2.817-1.564-5.562-2.469-8.304c-0.778-2.354-1.158-6.232-2.477-8.26c-3.383-5.199-5.585,3.376-6.33,5.695    c-1.158,3.606-2.464,7.171-3.315,10.869c-1.548,6.721-2.561,13.583-4.153,20.283c-3.301,13.902-5.956,27.997-9.133,41.955    c-1.503,6.599-3.239,13.157-4.776,19.735c-0.769,3.291-2.523,8.399,0.837,10.833c0.237,0.172,0.49,0.324,0.757,0.465    c-0.644,4.091-0.218,8.241-0.491,12.429c-0.161,2.462-1.262,7.389-0.515,10.575c-1.212,0.278-2.317,0.658-3.154,1.099    c-3.904,2.055-2.1,9.126-2.405,12.785c-0.599,7.204-0.53,14.784-0.587,22.053c-0.042,5.159-1.067,11.828-0.174,17.162    c-0.913,0.357-1.711,0.929-2.304,1.843c-2.06,3.171-1.859,8.727-2.332,12.392c-0.734,5.677-0.822,11.395-1.45,17.071    c-1.24,11.204-1.305,22.614-1.948,33.849c-0.374,6.551-0.132,13.29-0.031,19.852c0.092,5.974-0.296,12.283,0.664,18.167    c0.012,0.073,0.038,0.137,0.056,0.205c0.01,0.689,0.034,1.38,0.085,2.074c-0.887,0.161-1.752,0.356-2.552,0.639    c-0.419,0.006-0.835,0.008-1.249,0c-1.659-0.031-3.108,0.019-4.109,1.593c-1.096,1.721-0.618,5.45-0.841,7.436    c-0.418,3.743-1.049,7.716-0.849,11.486c0.302,5.669,4.07,6.222,8.293,5.924c-0.841,6.911,0.498,14.03,0.189,20.997    c-0.409,9.199-0.483,18.417-0.213,27.617c0.037,1.249,0.695,3.126,0.112,4.372c0.125-0.545-1.592,0.361-2.245,0.624    c-2.438,0.093-5.226,0.89-6.826,1.729c-4.215,2.207-3.848,8.46-4.141,12.431c-0.292,3.948-0.488,7.985-0.577,12.01    c-0.966,15.5,0.568,30.949,0.563,46.463c-0.003,9.887,0.093,19.708-0.614,29.572c-0.569,7.947-0.972,15.755-0.467,23.695    c-0.302,2.779-0.496,5.772,0.826,8.021c1.797,3.056,6.926,3.224,10.062,3.56c2.597,0.278,5.426,0.434,7.48-1.005    c0.065-0.016,0.123-0.036,0.187-0.053c3.123,0.67,6.508,0.654,9.582,0.742c4.603,0.131,10.611,1.741,14.797-0.758    c0.211-0.126,0.379-0.278,0.513-0.444c2.662,2.034,7.083,1.945,10.428,1.796c3.345,0.15,7.766,0.238,10.429-1.796    c0.135,0.166,0.302,0.319,0.513,0.444c4.187,2.499,10.194,0.889,14.797,0.758c3.074-0.088,6.459-0.072,9.582-0.742    c0.064,0.017,0.122,0.037,0.187,0.053c2.053,1.439,4.883,1.283,7.479,1.005c1.53-0.164,3.533-0.291,5.395-0.73    c4.437,0.913,8.898,0.855,13.509,1.079c7.757,0.376,15.617,0.19,23.393,0.302c6.526,0.093,13.105-0.105,19.633,0.012    c4.824,0.086,10.504,0.511,15.302-0.817c4.798,1.328,10.478,0.904,15.302,0.817c6.527-0.117,13.106,0.082,19.633-0.012    c7.776-0.112,15.636,0.074,23.393-0.302c4.611-0.223,9.072-0.166,13.509-1.079c1.861,0.439,3.863,0.565,5.394,0.73    c2.597,0.278,5.426,0.434,7.48-1.005c0.065-0.016,0.123-0.036,0.187-0.053c3.123,0.67,6.508,0.654,9.582,0.742    c4.603,0.131,10.611,1.741,14.797-0.758c0.211-0.126,0.379-0.278,0.513-0.444c2.662,2.034,7.083,1.945,10.429,1.796    c3.345,0.15,7.766,0.238,10.428-1.796c0.135,0.166,0.302,0.319,0.513,0.444c4.187,2.499,10.194,0.889,14.797,0.758    c3.073-0.088,6.459-0.072,9.582-0.742c0.064,0.017,0.122,0.037,0.187,0.053c2.611,1.83,6.163,1.121,9.111,0.844    c1.976-0.186,4.337-0.086,6.161-0.982c2.62-1.287,3.291-4.75,3.403-8.238C430.44,499.221,430.211,496.601,430.249,494.862z     M423.328,378.638c0.244,0.237,0.461,0.499,0.629,0.815c0.919,1.724,0.053,6.361,0.107,8.387c0.071,2.615,0.068,5.227,0.071,7.846    c0.001,3.049,0.081,6.106,0.192,9.165c-2.298-0.405-4.826-0.358-7.045-0.485c-1.255-0.072-2.513-0.144-3.771-0.211    c-0.018-1.019-0.034-2.049-0.052-3.063c-0.084-4.9,0.532-9.829,0.028-14.693c-0.284-2.734-0.342-5.47-0.492-8.219    c-0.012-0.228-0.038-0.486-0.071-0.761C416.304,378.009,420.047,377.342,423.328,378.638z M405.375,192.433    c2.264,1.193,1.9,5.126,2.088,7.331c0.806,9.444,0.036,18.926,0.356,28.387c0.352,10.422,1.073,20.88,1.016,31.311    c-0.057,10.393-1.088,21.027,0.629,31.297c0.073,0.439,0.267,0.798,0.53,1.088c-0.022,0.256-0.052,0.511-0.075,0.766    c-3.04-0.066-6.174,0.161-8.926,0.256c1.269-10.604-0.155-22.3-0.702-32.938c-0.575-11.191-0.906-22.427-0.927-33.634    c-0.02-10.518-1.079-21.02-1.399-31.515c-0.056-1.836-0.153-2.098,1.093-2.806c0.022-0.012,0.058-0.024,0.083-0.037    C401.071,191.902,403.985,191.701,405.375,192.433z M397.303,138.426c1.56,0.312,3.016,0.694,3.933,1.74    c1.267,1.446,0.696,5.073,0.76,7.05c0.089,2.765-0.21,5.425-0.26,8.18c-0.194,10.503,0.474,21.119,0.072,31.623    c-0.451,0.006-0.893,0.009-1.319,0c-1.226-0.025-2.522-0.047-3.843-0.051c-0.129-7.484-0.442-15.032-0.831-22.516    c-0.432-8.308,0.915-17.089-0.601-25.343C395.952,138.933,396.66,138.716,397.303,138.426z M357.055,120.37    c-0.202-2.275-0.138-5.144-0.528-7.783c3.324,0.357,7.116-0.07,9.744-0.147c-0.693,6.975-0.751,14.138-0.904,21.128    c-2.996,0.007-5.428-0.447-8.102-1.355C356.732,128.435,357.388,124.108,357.055,120.37z M369.274,139.027    c2.42-0.086,4.742-0.018,7.184-0.077c1.941-0.047,3.875-0.207,5.808-0.365c3.331,0.726,7.074,1.198,10.375,0.924    c-1.45,7.929-0.882,17.217-0.516,24.944c0.355,7.489,0.631,15.115,0.548,22.611c-0.37,0.019-0.741,0.045-1.111,0.072    c-0.257-0.001-0.51-0.001-0.741-0.006c-3.449-0.061-6.901-0.258-10.349-0.348c-4.57-0.118-9.137,0.415-13.72,0.082    c-2.055-0.149-4.302-0.229-6.367,0.246c-0.237-0.016-0.473-0.034-0.709-0.046c-0.083-7.496,0.193-15.123,0.548-22.611    c0.366-7.727,0.935-17.015-0.515-24.944c2.483,0.205,5.215-0.012,7.835-0.44C368.111,139.072,368.69,139.048,369.274,139.027z     M368.569,112.432c2.427,0.033,5.148,0.101,7.605-0.402c2.457,0.503,5.178,0.433,7.605,0.402    c-0.685,6.887-0.751,13.962-0.899,20.868c-2.295-0.245-4.415-0.455-6.707,0.297c-2.292-0.752-4.411-0.543-6.707-0.297    C369.319,126.394,369.254,119.32,368.569,112.432z M395.082,132.213c-2.675,0.908-5.106,1.362-8.103,1.355    c-0.153-6.99-0.21-14.154-0.904-21.128c2.629,0.077,6.422,0.504,9.744,0.147c-0.389,2.639-0.326,5.508-0.528,7.783    C394.959,124.108,395.616,128.435,395.082,132.213z M357.658,192.874c-0.03-0.365-0.076-0.696-0.131-1.01    c1.302-0.027,2.624-0.074,3.94-0.168c5.289,1.442,12.006,0.865,16.79,0.566c3.52-0.22,7.063,0.035,10.579-0.047    c0.917-0.021,1.878-0.218,2.841-0.462c1.053,0.06,2.107,0.09,3.146,0.111c-0.055,0.314-0.101,0.645-0.131,1.01    c-0.439,5.278,0.23,11.129,0.459,16.438c0.625,14.489,0.128,29.014,0.634,43.507c0.235,6.727,0.812,13.463,1.019,20.193    c0.185,6.01,0.57,12.679-0.055,18.724c-0.246,0.305-0.375,0.678-0.4,1.069c-3.75-0.246-8.377-0.778-12.021,0.224    c-1.873-0.022-3.751-0.065-5.658-0.164c-5.446-0.282-10.952-0.787-16.407-0.439c-0.198,0.012-0.402,0.019-0.603,0.03    c-0.572,0.016-1.145,0.042-1.712,0.074c-1.309,0.044-2.641,0.085-3.966,0.183c-0.038-0.357-0.155-0.698-0.382-0.979    c-0.625-6.044-0.24-12.714-0.055-18.724c0.208-6.73,0.785-13.466,1.019-20.193c0.506-14.493,0.009-29.019,0.634-43.507    C357.428,204.004,358.097,198.153,357.658,192.874z M382.1,31.007c1.987,10.649,3.539,21.358,5.666,31.987    c2.416,12.069,5.07,24.096,7.431,36.173c0.319,1.632,1.741,5.05,1.011,6.544c-1.064,2.179-5.485,1.463-7.353,1.484    c-0.553,0.007-1.128,0.033-1.706,0.061c-0.465-17.825-2.239-35.943-4.384-53.612c-1.069-8.798-1.94-17.627-2.67-26.452    c-0.278-3.368-0.479-6.784-0.736-10.199C380.425,21.63,381.228,26.332,382.1,31.007z M374.565,28.407    c0.63-6.128,1.321-12.396,1.609-18.633c0.286,6.236,0.979,12.505,1.608,18.633c0.881,8.582,1.284,17.239,2.189,25.838    c1.842,17.516,3.673,35.633,3.392,53.274c0.022-1.393-13.235,0.092-14.378,0c-0.281-17.641,1.55-35.758,3.392-53.274    C373.281,45.646,373.684,36.989,374.565,28.407z M357.151,99.166c2.361-12.078,5.015-24.104,7.431-36.173    c2.127-10.629,3.679-21.337,5.666-31.987c0.872-4.675,1.677-9.377,2.743-14.015c-0.257,3.414-0.457,6.831-0.735,10.199    c-0.73,8.825-1.602,17.654-2.67,26.452c-2.146,17.669-3.921,35.787-4.385,53.612c-0.578-0.029-1.153-0.055-1.706-0.061    c-1.868-0.021-6.289,0.695-7.353-1.484C355.411,104.216,356.832,100.798,357.151,99.166z M351.112,140.164    c0.917-1.046,2.373-1.428,3.933-1.74c0.643,0.291,1.351,0.507,2.091,0.685c-1.516,8.253-0.168,17.034-0.601,25.343    c-0.389,7.485-0.703,15.032-0.832,22.516c-1.321,0.003-2.616,0.027-3.843,0.05c-0.425,0.009-0.869,0.005-1.32,0    c-0.402-10.504,0.266-21.12,0.072-31.623c-0.052-2.757-0.35-5.416-0.26-8.18C350.417,145.238,349.844,141.61,351.112,140.164z     M342.885,290.76c1.716-10.271,0.687-20.905,0.629-31.297c-0.058-10.431,0.663-20.889,1.016-31.311    c0.32-9.461-0.45-18.943,0.356-28.387c0.189-2.205-0.176-6.138,2.089-7.331c1.39-0.732,4.303-0.531,6.233-0.495    c0.025,0.012,0.061,0.024,0.083,0.037c1.246,0.707,1.149,0.969,1.093,2.806c-0.32,10.495-1.378,20.997-1.399,31.515    c-0.021,11.208-0.352,22.443-0.927,33.634c-0.547,10.639-1.971,22.335-0.702,32.938c-2.752-0.095-5.886-0.322-8.925-0.256    c-0.025-0.256-0.054-0.51-0.076-0.766C342.618,291.557,342.811,291.199,342.885,290.76z M333.606,299.222    c0.391-2.504,0.283-1.547,2.786-1.894c5.454,1.842,12.134,1.335,17.678,1.096c2.302,0.326,4.62,0.232,7.265,0.089    c0.391-0.021,0.78-0.025,1.171-0.043c0.394-0.008,0.786-0.021,1.175-0.043c4.709-0.157,9.386-0.06,14.114,0.02    c2.913,0.048,5.647-0.088,8.411-0.281c3.7,0.615,8.055,0.099,11.256,0.221c4.14,0.158,9.011,0.535,13.564-0.007    c2.485,0.175,4.989,0.011,7.525-0.256c0.061,0.259,0.118,0.612,0.193,1.097c0.327,2.093,0.095,4.205-0.103,6.299    c-0.157,1.663,0.506,7.095-0.573,8.362c-1.066,1.254-5.681,0.213-7.406,0.16c-3.289-0.1-6.621,0.097-9.912,0.11    c-3.594,0.013-7.305-0.403-10.932-0.278c-4.645-0.24-9.644,0.627-14.037,0.631c-2.561,0.002-5.106,0.107-7.651,0.156    c-5.307-1.467-11.053-0.487-16.527-0.508c-3.291-0.012-6.624-0.21-9.912-0.11c-1.725,0.053-6.34,1.092-7.406-0.161    c-1.079-1.267-0.414-6.698-0.572-8.362C333.51,303.426,333.28,301.314,333.606,299.222z M338.89,401.09    c-0.018,1.015-0.034,2.044-0.052,3.063c-1.258,0.067-2.517,0.139-3.771,0.211c-2.218,0.127-4.747,0.08-7.043,0.485    c0.111-3.059,0.191-6.116,0.192-9.165c0.001-2.619,0-5.232,0.07-7.846c0.055-2.026-0.813-6.663,0.107-8.387    c0.168-0.315,0.385-0.578,0.629-0.815c3.281-1.294,7.024-0.627,10.404-1.219c-0.033,0.274-0.058,0.532-0.071,0.761    c-0.149,2.75-0.208,5.484-0.492,8.219C338.357,391.262,338.975,396.192,338.89,401.09z M193.782,322.781    c0.012-1.699-0.317-4.809,0.482-6.296c-0.053-1.409,0.844-1.723,2.693-0.943c0.164,0.568,0.247,1.147,0.248,1.738    c0.276,3.223,0.599,6.667,0.231,9.892c-0.138,1.207-0.462,2.266-0.398,3.258c-1.097,0.022-2.192,0.044-3.289,0.063    C194.054,327.93,193.764,325.401,193.782,322.781z M207.331,334.821c7.109,0.033,14.244-0.347,21.343-0.186    c4.434,0.1,9.483,0.791,14.112,0.226c2.871,0.255,5.804,0.221,8.489,0.195c7.254-0.071,14.807,0.794,22.072,0.024    c3.362-0.013,6.78-0.374,9.892-0.445c7.098-0.161,14.235,0.219,21.344,0.186c6.73-0.03,13.462,0.312,20.199,0.176    c3.172-0.064,8.292,0.488,11.831-0.739c0.117,2.293,0.196,4.583,0.095,6.856c-0.111,2.509-0.193,5.019-0.255,7.529    c-3.711-0.657-8.922,0.045-11.469-0.088c-6.743-0.351-13.492-0.47-20.238-0.702c-5.287-0.182-10.533-0.678-15.805-0.875    c-8.902-2.129-18.569-1.096-27.676-0.882c-4.736,0.111-9.465,0.675-14.196,0.904c-1.777,0.086-3.596,0.027-5.42-0.013    c-4.611-0.535-9.542-0.059-13.953-0.092c-6.872-0.05-13.665,0.723-20.526,0.959c-6.747,0.231-13.495,0.35-20.238,0.702    c-2.547,0.132-7.758-0.569-11.469,0.088c-0.062-2.511-0.143-5.021-0.255-7.529c-0.101-2.273-0.021-4.563,0.095-6.856    c3.539,1.227,8.659,0.675,11.831,0.739C193.869,335.133,200.601,334.79,207.331,334.821z M205.463,318.983    c-0.045-1.374-0.726-4.682,1.522-3.998c1.862,0.567,1.209,2.585,1.318,4.369c0.091,1.475,0.192,2.889,0.134,4.382    c-0.076,1.978-0.613,4.39-0.477,6.524c-0.964,0.004-1.93,0.027-2.894,0.04c0.251-1.789,0.415-5.839,0.422-6.188    C205.521,322.399,205.519,320.693,205.463,318.983z M216.524,322.879c0.038-1.497,0.586-10.806,3.547-8.164    c2.142,1.912,0.946,8.358,0.805,10.886c-0.079,1.408-0.412,2.973-0.216,4.38c-1.525,0.031-3.053,0.074-4.578,0.117    C216.701,327.806,216.464,325.197,216.524,322.879z M229.634,321.225c0.061-1.529-0.054-3.739,0.366-5.174    c0.891-3.042,3.379-1.628,3.651,0.685c0.295,2.499-0.354,5.277-0.318,7.807c0.024,1.609-0.382,3.793-0.065,5.501    c-1.236,0.022-2.449,0.029-3.618-0.018c-0.201-0.008-0.402-0.01-0.603-0.017C229.926,327.2,229.518,324.148,229.634,321.225z     M243.17,314.87c3.101-1.644,2.115,7.857,1.954,9.364c-0.207,1.955-0.741,4.174-0.724,6.239c-0.841-0.164-1.701-0.281-2.573-0.357    c0.211-2.315,0.163-4.644,0.183-6.975C242.025,321.585,241.503,315.753,243.17,314.87z M258.111,320.131    c0.181,3.153,0.617,6.896-0.153,10.004l0.012,0.001c-0.012,0.049-0.02,0.101-0.029,0.153c-1.564,0.082-3.115,0.169-4.653,0.255    c0.574-1.149,0.556-2.607,0.681-3.868c0.333-3.358-0.158-7.362,1.046-10.576c0.806-2.151,2.319-2.905,2.897-0.21    C258.19,317.18,258.034,318.8,258.111,320.131z M270.084,330.116c-0.073,0.007-0.145,0.018-0.218,0.025    c-0.789-0.039-1.582-0.063-2.375-0.077c-0.047-1.946-0.51-4-0.704-5.829c-0.159-1.506-1.146-11.008,1.954-9.364    c1.667,0.883,1.145,6.714,1.158,8.271C269.921,325.473,269.873,327.802,270.084,330.116z M282.863,330.007    c-0.201,0.007-0.402,0.008-0.603,0.017c-1.169,0.047-2.383,0.04-3.618,0.018c0.317-1.708-0.089-3.893-0.065-5.501    c0.037-2.53-0.613-5.308-0.318-7.807c0.274-2.312,2.76-3.727,3.651-0.685c0.421,1.436,0.306,3.646,0.366,5.174    C282.394,324.148,281.986,327.2,282.863,330.007z M295.831,330.098c-1.527-0.043-3.053-0.085-4.579-0.117    c0.196-1.406-0.137-2.971-0.217-4.38c-0.141-2.529-1.337-8.975,0.805-10.886c2.961-2.642,3.509,6.666,3.547,8.164    C295.448,325.197,295.211,327.806,295.831,330.098z M304.927,314.985c2.248-0.685,1.566,2.624,1.522,3.998    c-0.056,1.711-0.058,3.417-0.025,5.128c0.007,0.349,0.169,4.4,0.422,6.188c-0.964-0.012-1.93-0.035-2.894-0.04    c0.136-2.134-0.401-4.546-0.477-6.524c-0.057-1.493,0.044-2.907,0.134-4.382C303.718,317.57,303.065,315.551,304.927,314.985z     M318.162,330.492c-1.097-0.019-2.193-0.04-3.289-0.063c0.065-0.991-0.26-2.051-0.398-3.258c-0.367-3.224-0.044-6.669,0.231-9.892    c0.001-0.59,0.084-1.171,0.248-1.738c1.849-0.78,2.747-0.466,2.693,0.943c0.798,1.488,0.469,4.596,0.482,6.296    C318.149,325.401,317.858,327.93,318.162,330.492z M217.132,298.157c4.877-4.474,9.048-9.56,13.578-14.36    c6.319-6.697,12.831-13.169,18.657-20.26c0.818-0.664,1.591-1.399,2.344-2.107c0.7-0.659,1.767-2.138,2.554-2.637    c2.786-1.767,2.869-0.26,4.052,1.143c1.522,1.804,2.789,3.521,4.815,4.311c5.675,6.814,11.961,13.079,18.069,19.55    c4.53,4.8,8.7,9.885,13.578,14.36c0.788,0.722,1.897,2.024,3.125,3.152c-0.662-0.013-1.326-0.031-1.989-0.065    c-6.681-0.337-13.371-0.378-20.07-0.394c-2.072-0.005-4.182-0.093-6.281-0.101c0.296-1.808,0.11-3.69,0.165-5.558    c0.12-4.073,1.107-8.732-0.152-12.714c-0.902-2.858-3.24-5.325-5.014-7.803c-0.1-0.139-0.2-0.284-0.301-0.425    c0.04-0.129,0.051-0.272,0.016-0.42c-0.451-1.954-1.363-3.587-2.783-4.992c-1.696-1.679-2.987-3.823-5.683-3.572    c-2.206,0.205-3.364,1.922-4.461,3.62c-0.52,0.805-1.038,1.582-1.537,2.356c-0.874,1.122-1.672,2.317-2.473,3.434    c-1.775,2.478-4.112,4.944-5.014,7.803c-1.257,3.982-0.272,8.641-0.151,12.714c0.055,1.869-0.131,3.751,0.165,5.558    c-2.098,0.008-4.208,0.097-6.281,0.101c-6.699,0.016-13.389,0.057-20.07,0.394c-0.663,0.034-1.326,0.052-1.989,0.065    C215.234,300.18,216.344,298.878,217.132,298.157z M246.685,284.852c0.011-2.741,0.977-5.233,2.23-7.651    c1.146-0.868,2.214-1.892,3.074-2.996c1.143-1.464,2.912-5.759,5.458-4.444c1.322,0.682,2.137,1.914,3.05,3    c2.205,3.87,4.711,7.655,4.729,12.091c0.021,5.43-0.819,10.712,0.664,15.749c-1.021,0.028-2.052,0.092-3.088,0.141    c-5.132,0.246-10.266-0.021-15.398,0.176c-0.253,0.01-0.515,0.018-0.777,0.026c-0.222-0.035-0.445-0.067-0.674-0.088    C247.545,295.742,246.663,290.374,246.685,284.852z M183.687,314.193c0.13-2.441-0.09-4.967-0.374-7.46    c4.683,1.027,10.604,0.06,14.931,0.079c6.297,0.027,12.511,0.65,18.799,0.305c8.833-0.485,18.943,1.143,27.931-0.347    c0.851-0.067,1.668-0.119,2.431-0.135c4.896-0.101,9.789,0.208,14.683-0.028c1.13-0.055,2.284-0.06,3.438-0.086    c9.329,1.928,20.046,0.085,29.342,0.596c6.288,0.345,12.502-0.278,18.799-0.305c4.327-0.019,10.248,0.948,14.931-0.079    c-0.284,2.494-0.504,5.02-0.374,7.46c0.302,5.67,4.07,6.222,8.294,5.924c-0.422,3.473-0.294,6.998-0.102,10.531    c-4.318-1.097-9.635-0.067-13.788-0.096c-0.676-0.005-1.35-0.018-2.026-0.027c0.883-5.584,1.887-19.969-4.852-19.143    c-2.822,0.346-2.968,4.011-3.173,6.149c-0.421,4.375-1.314,8.43-1.143,12.833c-0.776-0.016-1.551-0.019-2.326-0.033    c1.155-3.521,0.639-7.834,0.526-11.348c-0.092-2.86-0.566-7.243-4.137-7.833c-3.446-0.568-4.164,3.293-4.461,5.868    c-0.257,2.222-0.436,4.481-0.538,6.717c-0.073,1.597-0.136,3.203-0.176,4.801c-0.009,0.351-0.156,1.166-0.135,1.672    c-0.697-0.013-1.396-0.035-2.095-0.053c1.193-3.732,0.648-8.862,0.068-12.338c-0.446-2.669-1.706-6.372-4.829-6.782    c-7.303-0.957-5.618,14.226-6.071,18.903c-0.854-0.001-1.707,0.004-2.56,0.018c1.318-4.034,0.858-9.531,0.237-13.563    c-0.361-2.345-2.048-5.382-4.823-5.102c-7.922,0.8-3.954,12.514-5.433,17.906c-0.156,0.23-0.269,0.486-0.312,0.767    c-0.423-0.002-0.846-0.001-1.268,0.004c0.2-1.755,0.039-3.669,0.049-5.306c0.015-2.444,0.038-4.959-0.366-7.379    c-0.354-2.121-1.521-6.007-4.122-6.389c-3.163-0.465-4.942,4.69-5.313,7.006c-0.612,3.819-0.623,8.188-0.082,12.167    c-0.553,0.013-1.107,0.038-1.661,0.057c0.624-3.72-0.107-7.808-0.471-11.497c-0.285-2.887-0.336-7.449-4.336-7.821    c-3.483-0.324-4.977,5.006-5.26,7.409c-0.253,2.151-0.352,4.21-0.199,6.378c0.116,1.626,0.952,4.192,0.959,6.002    c-0.341,0.018-0.686,0.038-1.025,0.055c-0.885,0.044-1.797,0.045-2.724,0.028c0.629-4.141,0.656-8.762,0.012-12.778    c-0.372-2.317-2.149-7.47-5.313-7.006c-2.601,0.382-3.768,4.269-4.122,6.389c-0.404,2.421-0.38,4.935-0.366,7.379    c0.01,1.637-0.15,3.55,0.049,5.306c-0.422-0.006-0.845-0.007-1.268-0.004c-0.043-0.281-0.155-0.537-0.312-0.767    c-1.478-5.391,2.49-17.105-5.433-17.907c-2.775-0.281-4.462,2.756-4.823,5.102c-0.621,4.032-1.082,9.529,0.237,13.563    c-0.853-0.013-1.706-0.019-2.56-0.018c-0.453-4.677,1.231-19.86-6.071-18.903c-3.124,0.41-4.384,4.113-4.829,6.782    c-0.579,3.476-1.125,8.606,0.068,12.338c-0.698,0.018-1.397,0.039-2.094,0.053c0.02-0.505-0.126-1.321-0.135-1.672    c-0.04-1.598-0.104-3.205-0.177-4.801c-0.101-2.236-0.281-4.494-0.537-6.717c-0.297-2.575-1.015-6.436-4.461-5.868    c-3.572,0.588-4.046,4.972-4.137,7.832c-0.112,3.514-0.627,7.827,0.526,11.348c-0.776,0.013-1.551,0.017-2.326,0.033    c0.172-4.403-0.722-8.458-1.143-12.833c-0.205-2.139-0.351-5.803-3.173-6.149c-6.739-0.825-5.735,13.56-4.852,19.143    c-0.676,0.009-1.35,0.021-2.026,0.027c-4.153,0.03-9.47-0.999-13.788,0.097c0.193-3.532,0.321-7.058-0.102-10.531    C179.617,320.415,183.385,319.863,183.687,314.193z M164.939,192.433c2.264,1.193,1.9,5.126,2.089,7.331    c0.806,9.444,0.036,18.926,0.356,28.387c0.352,10.422,1.073,20.88,1.016,31.311c-0.057,10.393-1.088,21.027,0.629,31.297    c0.073,0.439,0.267,0.798,0.531,1.088c-0.022,0.256-0.052,0.511-0.075,0.766c-3.04-0.066-6.174,0.161-8.926,0.256    c1.269-10.604-0.155-22.3-0.702-32.938c-0.575-11.191-0.906-22.427-0.927-33.634c-0.02-10.518-1.079-21.02-1.399-31.515    c-0.056-1.836-0.153-2.098,1.093-2.806c0.022-0.012,0.058-0.024,0.083-0.037C160.634,191.902,163.549,191.701,164.939,192.433z     M156.867,138.426c1.56,0.312,3.016,0.694,3.933,1.74c1.267,1.446,0.696,5.073,0.759,7.05c0.09,2.765-0.209,5.425-0.26,8.18    c-0.194,10.503,0.474,21.119,0.072,31.623c-0.451,0.006-0.893,0.009-1.319,0c-1.226-0.025-2.522-0.047-3.843-0.051    c-0.129-7.484-0.442-15.032-0.831-22.516c-0.432-8.308,0.915-17.089-0.601-25.343    C155.516,138.933,156.223,138.716,156.867,138.426z M116.62,120.37c-0.202-2.275-0.138-5.144-0.528-7.783    c3.324,0.357,7.116-0.07,9.744-0.147c-0.693,6.975-0.751,14.138-0.904,21.128c-2.996,0.007-5.428-0.447-8.102-1.355    C116.296,128.435,116.952,124.108,116.62,120.37z M129.646,138.585c1.934,0.158,3.867,0.318,5.808,0.365    c2.441,0.059,4.764-0.009,7.184,0.077c0.584,0.021,1.164,0.045,1.732,0.042c2.62,0.428,5.352,0.645,7.835,0.44    c-1.45,7.929-0.882,17.217-0.515,24.944c0.355,7.489,0.631,15.115,0.548,22.611c-0.237,0.012-0.473,0.03-0.709,0.046    c-2.063-0.474-4.311-0.394-6.365-0.246c-4.583,0.332-9.151-0.201-13.72-0.082c-3.449,0.09-6.901,0.289-10.349,0.348    c-0.232,0.005-0.484,0.005-0.741,0.006c-0.37-0.027-0.741-0.053-1.111-0.072c-0.083-7.496,0.193-15.123,0.548-22.611    c0.366-7.727,0.935-17.015-0.515-24.944C122.573,139.782,126.314,139.31,129.646,138.585z M128.133,112.432    c2.427,0.033,5.149,0.101,7.605-0.402c2.457,0.503,5.178,0.433,7.605,0.402c-0.685,6.887-0.75,13.962-0.899,20.868    c-2.295-0.245-4.415-0.455-6.707,0.297c-2.292-0.752-4.411-0.543-6.707-0.297C128.884,126.394,128.818,119.32,128.133,112.432z     M154.646,132.213c-2.675,0.908-5.107,1.362-8.102,1.355c-0.153-6.99-0.21-14.154-0.904-21.128    c2.629,0.077,6.422,0.504,9.744,0.147c-0.389,2.639-0.326,5.508-0.528,7.783C154.524,124.108,155.18,128.435,154.646,132.213z     M117.221,192.874c-0.03-0.365-0.076-0.696-0.131-1.01c1.041-0.022,2.093-0.052,3.146-0.111c0.963,0.244,1.923,0.441,2.841,0.462    c3.517,0.082,7.059-0.173,10.579,0.047c4.785,0.3,11.502,0.877,16.79-0.566c1.315,0.094,2.638,0.141,3.94,0.168    c-0.055,0.314-0.101,0.645-0.131,1.01c-0.439,5.278,0.23,11.129,0.459,16.438c0.625,14.489,0.128,29.014,0.634,43.507    c0.235,6.727,0.812,13.463,1.019,20.193c0.185,6.01,0.57,12.679-0.055,18.724c-0.226,0.281-0.342,0.622-0.382,0.979    c-1.326-0.098-2.658-0.139-3.966-0.183c-0.567-0.033-1.139-0.058-1.712-0.074c-0.2-0.01-0.405-0.017-0.603-0.03    c-5.455-0.349-10.961,0.157-16.407,0.439c-1.908,0.099-3.785,0.141-5.659,0.164c-3.645-1.002-8.271-0.47-12.021-0.224    c-0.025-0.391-0.155-0.763-0.4-1.069c-0.625-6.044-0.24-12.714-0.055-18.724c0.208-6.73,0.785-13.466,1.019-20.193    c0.506-14.493,0.009-29.019,0.634-43.507C116.992,204.004,117.661,198.153,117.221,192.874z M141.665,31.007    c1.987,10.649,3.539,21.358,5.666,31.987c2.416,12.069,5.07,24.096,7.431,36.173c0.319,1.632,1.741,5.05,1.01,6.544    c-1.064,2.179-5.485,1.463-7.353,1.484c-0.553,0.007-1.128,0.033-1.706,0.061c-0.465-17.825-2.239-35.943-4.384-53.612    c-1.069-8.798-1.94-17.627-2.67-26.452c-0.278-3.368-0.479-6.784-0.735-10.199C139.988,21.63,140.793,26.332,141.665,31.007z     M135.738,9.773c0.286,6.236,0.979,12.505,1.608,18.633c0.881,8.582,1.284,17.239,2.189,25.838    c1.842,17.516,3.673,35.633,3.392,53.274c-1.143,0.092-14.4-1.394-14.378,0c-0.281-17.641,1.55-35.758,3.392-53.274    c0.905-8.599,1.307-17.256,2.188-25.838C134.758,22.28,135.451,16.011,135.738,9.773z M116.715,99.166    c2.359-12.078,5.015-24.104,7.431-36.173c2.127-10.629,3.678-21.337,5.666-31.987c0.872-4.675,1.677-9.377,2.743-14.015    c-0.257,3.414-0.457,6.831-0.735,10.199c-0.73,8.825-1.602,17.654-2.67,26.452c-2.146,17.669-3.921,35.787-4.385,53.612    c-0.578-0.029-1.153-0.055-1.706-0.061c-1.868-0.021-6.289,0.695-7.353-1.484C114.974,104.216,116.396,100.798,116.715,99.166z     M110.676,140.164c0.917-1.046,2.373-1.428,3.933-1.74c0.643,0.291,1.351,0.507,2.091,0.685    c-1.516,8.253-0.168,17.034-0.601,25.343c-0.39,7.485-0.703,15.032-0.832,22.516c-1.321,0.003-2.616,0.027-3.843,0.05    c-0.425,0.009-0.869,0.005-1.319,0c-0.402-10.504,0.266-21.12,0.072-31.623c-0.052-2.757-0.35-5.416-0.26-8.18    C109.98,145.238,109.409,141.61,110.676,140.164z M102.45,290.76c1.716-10.271,0.687-20.905,0.629-31.297    c-0.058-10.431,0.662-20.889,1.016-31.311c0.32-9.461-0.45-18.943,0.356-28.387c0.187-2.205-0.176-6.138,2.088-7.331    c1.39-0.732,4.303-0.531,6.233-0.495c0.025,0.012,0.061,0.024,0.083,0.037c1.246,0.707,1.149,0.969,1.093,2.806    c-0.32,10.495-1.378,20.997-1.399,31.515c-0.021,11.208-0.352,22.443-0.927,33.634c-0.547,10.639-1.971,22.335-0.702,32.938    c-2.752-0.095-5.886-0.322-8.925-0.256c-0.024-0.256-0.054-0.51-0.076-0.766C102.181,291.557,102.376,291.199,102.45,290.76z     M93.846,313.882c-1.079-1.267-0.414-6.698-0.572-8.362c-0.199-2.094-0.429-4.206-0.103-6.299    c0.075-0.484,0.132-0.836,0.193-1.097c2.536,0.267,5.04,0.431,7.525,0.256c4.552,0.542,9.424,0.165,13.563,0.007    c3.202-0.122,7.556,0.394,11.256-0.221c2.763,0.193,5.498,0.329,8.411,0.281c4.728-0.079,9.405-0.177,14.114-0.02    c0.391,0.02,0.782,0.035,1.175,0.043c0.391,0.017,0.779,0.021,1.17,0.043c2.645,0.144,4.962,0.237,7.265-0.089    c5.545,0.239,12.225,0.745,17.678-1.096c2.504,0.347,2.396-0.611,2.786,1.894c0.326,2.093,0.095,4.205-0.103,6.299    c-0.158,1.664,0.506,7.095-0.572,8.362c-1.066,1.254-5.681,0.213-7.406,0.161c-3.289-0.1-6.621,0.097-9.912,0.11    c-5.474,0.021-11.22-0.959-16.527,0.508c-2.545-0.049-5.09-0.154-7.651-0.156c-4.394-0.003-9.393-0.871-14.037-0.631    c-3.627-0.125-7.338,0.292-10.932,0.278c-3.291-0.012-6.624-0.21-9.912-0.11C99.526,314.096,94.912,315.136,93.846,313.882z     M183.628,387.839c0.071,2.615,0.068,5.227,0.07,7.846c0.001,3.049,0.081,6.106,0.192,9.165c-2.298-0.405-4.825-0.358-7.043-0.485    c-1.256-0.072-2.513-0.144-3.771-0.211c-0.018-1.019-0.034-2.049-0.052-3.063c-0.084-4.9,0.532-9.829,0.028-14.693    c-0.284-2.734-0.342-5.47-0.492-8.219c-0.012-0.228-0.038-0.486-0.071-0.761c3.38,0.592,7.123-0.075,10.404,1.219    c0.244,0.237,0.461,0.5,0.629,0.815C184.439,381.176,183.573,385.814,183.628,387.839z M87.956,379.452    c0.168-0.315,0.385-0.578,0.629-0.815c3.281-1.294,7.024-0.627,10.404-1.219c-0.033,0.274-0.058,0.532-0.071,0.761    c-0.149,2.75-0.208,5.484-0.492,8.219c-0.504,4.864,0.113,9.793,0.028,14.693c-0.018,1.015-0.034,2.044-0.052,3.063    c-1.258,0.067-2.517,0.139-3.771,0.211c-2.218,0.127-4.747,0.08-7.045,0.485c0.111-3.059,0.191-6.116,0.192-9.165    c0.001-2.619,0-5.232,0.07-7.846C87.903,385.814,87.036,381.176,87.956,379.452z M87.508,406.899    c3.496,0.76,7.165,0.778,10.837,0.64c-0.02,1.216-0.044,2.421-0.062,3.639c-3.668,0.242-7.331,0.541-10.996,0.733    C87.366,410.241,87.439,408.57,87.508,406.899z M99.775,475.75c-0.057,5.393-0.365,10.58-0.155,15.975    c0.13,3.339-0.094,6.74-0.113,10.084c-0.01,1.725,0.173,2.689-0.189,3.457c-1.845-0.32-3.888-0.061-5.732-0.241    c-1.253-0.123-5.113-0.064-5.87-1.159c0.176,0.255-0.068-3.027-0.079-3.33c-0.071-2.193-0.086-4.453-0.187-6.716    c0.055-2.65-0.026-5.323,0.122-8.052c0.333-6.153,1.035-12.292,1.315-18.453c0.602-13.253,0.476-27.012-0.591-40.207    c-0.34-4.213-0.671-8.47-0.971-12.738c3.41,0.669,7.197,0.55,10.918,0.284c-0.086,8.711-0.01,17.463,0.646,26.038    C99.782,452.335,99.898,464.058,99.775,475.75z M125,440.707c-0.048,15.169,0.161,30.407-1.127,45.491    c-0.297,3.49-0.372,6.99-0.568,10.482c-0.174,3.091-0.854,6.918-0.04,9.929c0.002,0.007,0.005,0.012,0.007,0.019    c-5.03-0.214-10.044-0.432-15.077-0.459c-1.154-0.006-2.477-0.1-3.851-0.165c0.009-0.066,0.027-0.122,0.035-0.191    c0.771-6.9-0.43-14.085-0.572-20.98c-0.283-13.646,0.612-27.363-0.455-41.005c-0.762-9.749-0.938-19.645-0.886-29.509    c1.412-0.11,2.788-0.204,4.1-0.244c6.222-0.188,12.586,0.726,18.764-0.221C125.126,422.795,125.029,431.739,125,440.707z     M125.395,411.142c-2.356-0.301-4.663-0.008-7.051-0.08c-3.661-0.11-7.315-0.291-10.983-0.265    c-1.628,0.011-3.252,0.067-4.874,0.143c0.012-1.2,0.04-2.392,0.057-3.591c1.826-0.084,3.637-0.149,5.41-0.12    c4.204,0.07,8.385,0.457,12.57,0.43c1.477-0.009,3.426,0.302,4.975-0.129C125.466,408.734,125.425,409.937,125.395,411.142z     M125.939,395.099c-0.135,2.969-0.242,5.935-0.338,8.903c-1.383-0.19-3.01,0.147-4.278,0.158c-4.453,0.037-8.904-0.279-13.371-0.3    c-1.784-0.008-3.569,0.039-5.356,0.106c0.022-1.252,0.035-2.509,0.061-3.757c0.114-5.666-0.217-11.333-0.296-16.992    c-0.021-1.541,0.178-3.812,0.141-6.059c4.009,0.411,8.129,0.107,12.099-0.154c4.558-0.297,9.619,0.183,14.126-0.974    c-1.066,2.659-1.027,5.838-1.382,8.616C126.899,388.152,126.1,391.56,125.939,395.099z M143.415,502.607    c-0.51,2.502-0.433,3.483-3.475,4.115c-1.317,0.274-2.805,0.24-4.201,0.254c-1.396-0.013-2.885,0.02-4.201-0.254    c-3.043-0.632-2.966-1.613-3.475-4.115c-0.593-2.906,0.242-6.483,0.341-9.449c0.174-5.229,0.822-10.439,1.056-15.655    c0.55-12.229,0.247-24.544,0.208-36.796c-0.037-11.793,0.248-23.587,0.165-35.354c-0.044-6.154,0.3-12.377,0.86-18.487    c0.212-2.316-0.248-4.955,0.467-7.204c1.07-3.362,2.545-4.409,4.58-5.451c2.035,1.042,3.51,2.089,4.581,5.451    c0.716,2.249,0.255,4.888,0.467,7.204c0.56,6.108,0.904,12.331,0.86,18.487c-0.083,11.767,0.203,23.561,0.165,35.354    c-0.039,12.254-0.342,24.568,0.208,36.796c0.235,5.216,0.881,10.425,1.056,15.655    C143.172,496.124,144.008,499.701,143.415,502.607z M145.976,407.531c1.549,0.43,3.496,0.12,4.975,0.129    c4.186,0.026,8.367-0.36,12.57-0.43c1.773-0.029,3.584,0.036,5.41,0.12c0.018,1.198,0.045,2.39,0.057,3.591    c-1.622-0.075-3.246-0.131-4.874-0.143c-3.668-0.025-7.321,0.156-10.983,0.265c-2.389,0.072-4.695-0.221-7.051,0.08    C146.05,409.937,146.011,408.734,145.976,407.531z M168.126,443.83c-1.066,13.642-0.173,27.359-0.456,41.005    c-0.143,6.895-1.345,14.08-0.572,20.98c0.008,0.068,0.026,0.125,0.035,0.191c-1.373,0.065-2.697,0.159-3.851,0.165    c-5.033,0.026-10.047,0.245-15.077,0.459c0.002-0.007,0.005-0.012,0.007-0.019c0.814-3.013,0.132-6.838-0.04-9.929    c-0.196-3.492-0.271-6.992-0.568-10.482c-1.287-15.084-1.079-30.323-1.127-45.491c-0.028-8.97-0.126-17.912-0.329-26.853    c6.177,0.947,12.541,0.034,18.764,0.221c1.311,0.039,2.687,0.134,4.1,0.244C169.064,424.185,168.888,434.081,168.126,443.83z     M168.818,400.207c0.026,1.248,0.038,2.505,0.061,3.757c-1.786-0.066-3.573-0.113-5.356-0.106c-4.466,0.02-8.918,0.337-13.371,0.3    c-1.266-0.01-2.895-0.348-4.278-0.158c-0.095-2.968-0.203-5.934-0.338-8.903c-0.161-3.539-0.96-6.947-1.406-10.452    c-0.355-2.779-0.315-5.957-1.382-8.616c4.507,1.156,9.568,0.677,14.126,0.974c3.97,0.259,8.09,0.563,12.099,0.154    c-0.037,2.248,0.163,4.518,0.141,6.059C169.035,388.875,168.703,394.541,168.818,400.207z M170.49,347.778    c-0.022,6.007-0.363,12.028-0.634,18.03c-0.11,2.439-0.533,4.718-0.333,7.059c-0.116,0.375-0.207,0.773-0.282,1.184    c-4.384-0.612-8.98-0.571-13.289-0.957c-4.625-0.415-11.225-2.089-15.455,0.081c-0.847-0.587-1.839-0.979-2.877-1.195    c-0.045-0.009-0.09-0.015-0.135-0.024c-0.264-0.051-0.53-0.094-0.798-0.122c-0.121-0.013-0.242-0.016-0.365-0.024    c-0.195-0.011-0.39-0.026-0.585-0.025c-0.195,0-0.389,0.013-0.585,0.025c-0.122,0.008-0.244,0.01-0.365,0.024    c-0.269,0.027-0.534,0.071-0.798,0.122c-0.045,0.009-0.09,0.013-0.134,0.024c-1.038,0.217-2.029,0.608-2.877,1.195    c-4.229-2.17-10.829-0.495-15.455-0.081c-4.309,0.386-8.903,0.346-13.289,0.957c-0.075-0.411-0.166-0.809-0.282-1.184    c0.2-2.341-0.223-4.62-0.333-7.059c-0.273-6.001-0.613-12.023-0.634-18.03c-0.033-9.103,0.887-18.955-0.792-28.067    c0.356-0.035,0.709-0.066,1.056-0.091c7.266-0.515,15.236,0.737,22.569-0.415c4.113,0.639,8.426,0.739,12.312,0.832    c5.151,0.125,10.134,0.36,15.276,0.063c3.058-0.177,5.925,0.047,8.766-0.48c3.41-0.104,6.801-0.229,10.049,0.001    c0.347,0.025,0.7,0.056,1.056,0.091C169.602,328.823,170.522,338.675,170.49,347.778z M183.181,427.107    c-1.067,13.196-1.193,26.955-0.592,40.207c0.279,6.162,0.981,12.3,1.316,18.453c0.148,2.73,0.067,5.402,0.122,8.052    c-0.101,2.263-0.118,4.523-0.187,6.716c-0.02,0.635-0.092,1.268-0.071,1.899c0.019,0.548,0.147,1.561-0.411,1.909    c-0.414,0.258-1.239,0.304-1.717,0.382c-1.245,0.199-2.502,0.176-3.751,0.3c-1.844,0.182-3.887-0.077-5.732,0.241    c-0.36-0.768-0.177-1.732-0.188-3.457c-0.019-3.344-0.244-6.746-0.113-10.084c0.21-5.396-0.098-10.581-0.155-15.975    c-0.123-11.693-0.007-23.416,0.886-35.06c0.657-8.574,0.733-17.326,0.647-26.038c3.721,0.265,7.508,0.384,10.918-0.284    C183.852,418.637,183.521,422.894,183.181,427.107z M173.192,411.178c-0.017-1.218-0.04-2.424-0.062-3.639    c3.673,0.138,7.342,0.12,10.837-0.64c0.068,1.671,0.141,3.343,0.22,5.012C180.523,411.719,176.861,411.42,173.192,411.178z     M311.962,496.154c-0.131,3.146-0.081,6.47-0.77,9.549c-6.427,0.184-12.979,0.184-19.383,0.075    c-6.301-0.108-12.72-0.294-19.039-0.117c-5.227,0.147-10.615,0.878-15.863,0.923c-0.039-0.001-0.074-0.008-0.115-0.007    c-0.277,0.007-0.558,0.001-0.837,0.003c-0.278-0.002-0.559,0.005-0.837-0.003c-0.04-0.001-0.075,0.006-0.114,0.007    c-5.246-0.045-10.635-0.776-15.863-0.923c-6.319-0.177-12.739,0.009-19.039,0.117c-6.402,0.109-12.955,0.108-19.383-0.075    c-0.69-3.079-0.639-6.402-0.77-9.549c-0.03-2.526-0.053-5.051,0.145-7.555c0.629-8.005,0.366-15.839,2.329-23.708    c2.217-8.892,8.556-15.596,18.259-14.329c7.031,0.917,9.527,6.651,14.697,10.376c0.797,0.575,2.352,0.401,2.981-0.384    c3.468-4.325,2.795-10.488,8.32-13.642c1.107-0.633,3.731-0.77,5.957-1.161c0.473,0.033,0.935,0.066,1.377,0.11    c2.544,0.248,5.617,0.682,8.426,0.349c1.168,0.168,2.2,0.364,2.793,0.703c5.525,3.154,4.851,9.318,8.32,13.642    c0.63,0.785,2.183,0.96,2.981,0.384c5.17-3.725,7.666-9.459,14.696-10.376c9.703-1.267,16.042,5.437,18.259,14.329    c1.963,7.87,1.699,15.704,2.328,23.709C312.014,491.102,311.992,493.629,311.962,496.154z M224.695,429.079    c-6.902-7.95-8.954-18.492-8.489-28.749c0.453-10.001,5.667-19.585,12.518-26.784c2.451-2.577,5.317-4.508,8.422-6.039    c6.14-1.025,11.795-3.164,18.252-3.14c4.308,0.017,8.214-0.158,12.384,0.999c2.167,0.601,4.28,1.314,6.455,1.881    c3.31,1.569,6.362,3.576,8.953,6.299c6.85,7.198,12.064,16.783,12.518,26.784c0.465,10.258-1.587,20.8-8.489,28.749    c-5.408,6.229-13.752,9.609-21.639,11.322c-1.571,0.341-5.709,0.245-8.118,1.191c-0.828,0.035-1.633,0.052-2.387,0.006    c-0.242-0.015-0.487-0.031-0.73-0.047c-2.423-0.901-6.461-0.813-8.009-1.149C238.446,438.688,230.103,435.308,224.695,429.079z     M323.394,387.886c-0.291,3.948-0.488,7.985-0.577,12.01c-0.966,15.5,0.568,30.949,0.563,46.463    c-0.003,9.887,0.093,19.708-0.614,29.572c-0.569,7.947-0.972,15.755-0.467,23.695c-0.211,1.94-0.357,3.978,0.016,5.801    c-2.203-0.048-4.416,0.037-6.552,0.125c0.248-2.894,0.062-5.841-0.054-8.732c-0.074-1.832-0.123-3.666-0.282-5.482    c-0.073-3.341-0.265-6.635-0.241-9.607c0.065-8.235-0.421-17.185-4.348-24.603c-3.924-7.41-10.664-11.709-19.183-10.872    c-3.614,0.355-6.768,1.509-9.8,3.439c-2.368,1.509-4.065,3.64-6.047,5.503c-1.158-2.362-1.773-5.484-3.216-7.526    c-0.821-1.161-1.741-2.136-2.757-2.983c8.284-1.032,16.987-6.73,21.68-12.523c7.086-8.746,9.32-19.884,8.902-30.906    c-0.443-11.712-6.419-21.302-14.003-29.891c-3.685-4.173-9.271-7.827-15.108-9.508c-4.517-2.135-9.564-2.259-15.034-2.25    c-3.894,0.006-8.527,0.332-12.728,1.578c-6.856,1.144-13.743,5.311-18.045,10.182c-7.583,8.589-13.559,18.179-14.003,29.891    c-0.418,11.021,1.817,22.16,8.902,30.906c4.693,5.793,13.396,11.492,21.68,12.523c-1.017,0.847-1.937,1.823-2.758,2.983    c-1.442,2.042-2.057,5.166-3.216,7.526c-1.982-1.863-3.679-3.995-6.048-5.503c-3.032-1.931-6.186-3.084-9.8-3.439    c-8.518-0.837-15.26,3.462-19.183,10.872c-3.927,7.418-4.414,16.369-4.348,24.603c0.024,2.972-0.168,6.267-0.241,9.607    c-0.159,1.816-0.209,3.649-0.282,5.482c-0.117,2.889-0.302,5.838-0.054,8.732c-0.964-0.039-1.93-0.073-2.895-0.095    c-0.488-0.011-0.979-0.028-1.468-0.024c-0.319,0.003-0.629,0.132-0.935,0.132c-1.279,0.002-1.273-2.174-1.305-3.023    c-0.027-0.702,0.056-1.39,0.068-2.089c0.037-2.07,0.177-4.143,0.211-6.216c0.101-6.109-0.242-12.215-0.679-18.306    c-0.707-9.865-0.611-19.687-0.614-29.572c-0.005-15.513,1.53-30.964,0.563-46.463c-0.089-4.025-0.286-8.063-0.577-12.01    c-0.293-3.971,0.074-10.224-4.142-12.431c-1.601-0.838-4.389-1.635-6.826-1.729c-0.653-0.263-2.37-1.168-2.245-0.624    c-0.583-1.247,0.076-3.123,0.112-4.372c0.159-5.442,0.184-10.89,0.106-16.337c0.629,0.108,1.22,0.189,1.484,0.214    c3.837,0.375,7.966,0.612,11.819,0.492c6.396-0.2,12.797-0.064,19.189-0.351c6.23-0.281,12.446-0.923,18.682-0.899    c3.753,0.015,8.156,0.477,12.375,0.387c2.051,0.056,4.075-0.02,5.741,0.06c5.148,0.246,10.206-0.272,15.338-0.526    c2.313-0.115,4.638-0.141,6.966-0.132c5.677,1.22,12.585,0.232,18.097,0.211c6.236-0.024,12.453,0.618,18.681,0.899    c6.392,0.287,12.794,0.152,19.19,0.351c3.853,0.12,7.983-0.117,11.819-0.492c0.264-0.026,0.854-0.107,1.484-0.214    c-0.079,5.447-0.054,10.896,0.106,16.337c0.037,1.249,0.695,3.126,0.112,4.372c0.125-0.546-1.592,0.361-2.245,0.624    c-2.437,0.093-5.226,0.89-6.826,1.729C323.32,377.661,323.687,383.915,323.394,387.886z M327.944,406.899    c3.496,0.76,7.165,0.778,10.837,0.64c-0.02,1.216-0.044,2.421-0.062,3.639c-3.668,0.242-7.331,0.541-10.996,0.733    C327.802,410.241,327.876,408.57,327.944,406.899z M340.212,475.75c-0.057,5.393-0.365,10.58-0.155,15.975    c0.129,3.339-0.094,6.74-0.113,10.084c-0.01,1.725,0.173,2.689-0.187,3.457c-1.845-0.32-3.888-0.061-5.732-0.241    c-1.253-0.123-5.113-0.064-5.87-1.159c0.176,0.255-0.068-3.027-0.079-3.33c-0.071-2.193-0.086-4.453-0.187-6.716    c0.055-2.65-0.026-5.323,0.122-8.052c0.333-6.153,1.035-12.292,1.315-18.453c0.602-13.253,0.476-27.012-0.592-40.207    c-0.34-4.213-0.671-8.47-0.971-12.738c3.41,0.669,7.197,0.55,10.918,0.284c-0.086,8.711-0.01,17.463,0.647,26.038    C340.218,452.335,340.334,464.058,340.212,475.75z M365.435,440.707c-0.048,15.169,0.161,30.407-1.127,45.491    c-0.297,3.49-0.372,6.99-0.568,10.482c-0.174,3.091-0.854,6.918-0.04,9.929c0.002,0.007,0.004,0.012,0.007,0.019    c-5.03-0.214-10.044-0.432-15.077-0.459c-1.154-0.006-2.477-0.1-3.851-0.165c0.009-0.066,0.027-0.122,0.035-0.191    c0.772-6.9-0.43-14.085-0.573-20.98c-0.283-13.646,0.612-27.363-0.455-41.005c-0.762-9.749-0.938-19.645-0.886-29.509    c1.412-0.11,2.788-0.204,4.1-0.244c6.223-0.188,12.586,0.726,18.764-0.221C365.561,422.795,365.465,431.739,365.435,440.707z     M365.83,411.142c-2.356-0.301-4.663-0.008-7.052-0.08c-3.661-0.11-7.315-0.291-10.983-0.265    c-1.628,0.011-3.252,0.067-4.874,0.143c0.012-1.2,0.04-2.392,0.057-3.591c1.826-0.084,3.637-0.149,5.41-0.12    c4.204,0.07,8.385,0.457,12.57,0.43c1.478-0.009,3.426,0.302,4.975-0.129C365.901,408.734,365.862,409.937,365.83,411.142z     M366.376,395.099c-0.135,2.969-0.242,5.935-0.338,8.903c-1.383-0.19-3.01,0.147-4.278,0.158c-4.453,0.037-8.904-0.279-13.371-0.3    c-1.784-0.008-3.569,0.039-5.356,0.106c0.022-1.252,0.035-2.509,0.06-3.757c0.116-5.666-0.217-11.333-0.296-16.992    c-0.022-1.541,0.178-3.812,0.141-6.059c4.009,0.411,8.129,0.107,12.099-0.154c4.558-0.297,9.619,0.183,14.126-0.974    c-1.066,2.659-1.027,5.838-1.382,8.616C367.335,388.152,366.535,391.56,366.376,395.099z M383.85,502.607    c-0.51,2.502-0.432,3.483-3.475,4.115c-1.317,0.274-2.805,0.24-4.201,0.254c-1.396-0.013-2.885,0.02-4.201-0.254    c-3.043-0.632-2.966-1.613-3.476-4.115c-0.593-2.906,0.242-6.483,0.341-9.449c0.174-5.229,0.822-10.439,1.056-15.655    c0.55-12.229,0.247-24.544,0.208-36.796c-0.037-11.793,0.248-23.587,0.165-35.354c-0.044-6.154,0.3-12.377,0.86-18.487    c0.212-2.316-0.248-4.955,0.467-7.204c1.07-3.362,2.545-4.409,4.581-5.451c2.035,1.042,3.51,2.089,4.58,5.451    c0.716,2.249,0.255,4.888,0.467,7.204c0.56,6.108,0.904,12.331,0.86,18.487c-0.083,11.767,0.203,23.561,0.165,35.354    c-0.039,12.254-0.342,24.568,0.208,36.796c0.235,5.216,0.881,10.425,1.055,15.655C383.609,496.124,384.443,499.701,383.85,502.607    z M386.413,407.531c1.549,0.43,3.496,0.12,4.975,0.129c4.186,0.026,8.367-0.36,12.57-0.43c1.773-0.029,3.584,0.036,5.41,0.12    c0.018,1.198,0.045,2.39,0.057,3.591c-1.622-0.075-3.246-0.131-4.874-0.143c-3.668-0.025-7.321,0.156-10.983,0.265    c-2.389,0.072-4.695-0.221-7.051,0.08C386.487,409.937,386.447,408.734,386.413,407.531z M408.561,443.83    c-1.066,13.642-0.173,27.359-0.456,41.005c-0.143,6.895-1.345,14.08-0.573,20.98c0.008,0.068,0.026,0.125,0.035,0.191    c-1.373,0.065-2.697,0.159-3.851,0.165c-5.033,0.026-10.047,0.245-15.077,0.459c0.002-0.007,0.004-0.012,0.007-0.019    c0.814-3.013,0.133-6.838-0.04-9.929c-0.196-3.492-0.271-6.992-0.568-10.482c-1.287-15.084-1.079-30.323-1.127-45.491    c-0.028-8.97-0.126-17.912-0.329-26.853c6.178,0.947,12.542,0.034,18.764,0.221c1.311,0.039,2.688,0.134,4.1,0.244    C409.501,424.185,409.323,434.081,408.561,443.83z M409.254,400.207c0.026,1.248,0.038,2.505,0.061,3.757    c-1.786-0.066-3.573-0.113-5.356-0.106c-4.465,0.02-8.918,0.337-13.371,0.3c-1.266-0.01-2.895-0.348-4.278-0.158    c-0.095-2.968-0.203-5.934-0.338-8.903c-0.161-3.539-0.96-6.947-1.406-10.452c-0.355-2.779-0.315-5.957-1.382-8.616    c4.507,1.156,9.568,0.677,14.126,0.974c3.97,0.259,8.09,0.563,12.099,0.154c-0.037,2.248,0.163,4.518,0.141,6.059    C409.47,388.875,409.139,394.541,409.254,400.207z M410.925,347.778c-0.022,6.007-0.363,12.028-0.634,18.03    c-0.11,2.439-0.533,4.718-0.333,7.059c-0.116,0.375-0.207,0.773-0.282,1.184c-4.384-0.612-8.98-0.571-13.289-0.957    c-4.625-0.415-11.225-2.089-15.455,0.081c-0.847-0.587-1.837-0.979-2.877-1.195c-0.045-0.009-0.09-0.015-0.135-0.024    c-0.264-0.051-0.53-0.094-0.798-0.122c-0.121-0.013-0.242-0.016-0.365-0.024c-0.195-0.011-0.39-0.026-0.585-0.025    c-0.195,0-0.389,0.013-0.585,0.025c-0.121,0.008-0.244,0.01-0.365,0.024c-0.268,0.027-0.534,0.071-0.798,0.122    c-0.044,0.009-0.09,0.013-0.134,0.024c-1.038,0.217-2.029,0.608-2.877,1.195c-4.229-2.17-10.829-0.495-15.455-0.081    c-4.309,0.386-8.903,0.346-13.289,0.957c-0.075-0.411-0.166-0.809-0.282-1.184c0.2-2.341-0.222-4.62-0.333-7.059    c-0.272-6.001-0.613-12.023-0.634-18.03c-0.034-9.103,0.887-18.955-0.792-28.067c0.356-0.035,0.709-0.066,1.056-0.091    c3.248-0.23,6.638-0.107,10.049-0.001c2.841,0.528,5.709,0.303,8.766,0.48c5.142,0.297,10.125,0.062,15.276-0.063    c3.886-0.093,8.2-0.193,12.313-0.832c7.333,1.154,15.304-0.1,22.569,0.415c0.347,0.025,0.7,0.056,1.056,0.091    C410.037,328.823,410.958,338.675,410.925,347.778z M423.024,467.313c0.279,6.162,0.981,12.3,1.316,18.453    c0.148,2.73,0.067,5.402,0.122,8.052c-0.101,2.263-0.118,4.523-0.187,6.716c-0.006,0.185-0.1,1.491-0.131,2.414    c-0.11,0.242-0.18,0.503-0.236,0.776c-0.033,0.158-0.066,0.317-0.093,0.474c-1.237,0.749-4.381,0.716-5.489,0.825    c-1.844,0.182-3.887-0.077-5.732,0.241c-0.36-0.768-0.177-1.732-0.189-3.457c-0.019-3.344-0.242-6.746-0.113-10.084    c0.209-5.396-0.098-10.581-0.155-15.975c-0.123-11.693-0.007-23.416,0.886-35.06c0.657-8.574,0.733-17.326,0.647-26.038    c3.721,0.265,7.509,0.384,10.918-0.284c-0.3,4.268-0.63,8.525-0.971,12.738C422.548,440.302,422.422,454.06,423.024,467.313z     M413.628,411.178c-0.017-1.218-0.04-2.424-0.062-3.639c3.673,0.139,7.341,0.121,10.837-0.64c0.068,1.671,0.141,3.343,0.219,5.012    C420.959,411.719,417.296,411.42,413.628,411.178z"/>
	</g>
</g>
<g>
	<g>
		<path d="M404.483,485.842c-0.019-0.043-0.056-0.074-0.08-0.112c-0.035-1.701-0.349-3.461-0.485-4.726    c-0.175-1.638-0.063-3.604-0.4-5.341c-0.095-0.908-0.211-1.8-0.374-2.646c-0.552-2.868-2.199-7.711-5.263-8.889    c-7.85-3.017-6.278,13.646-6.12,16.717c0.127,2.462-1.383,7.733,1.189,9.364c1.921,1.218,6.8,1.492,8.979,0.704    c0.776-0.281,1.313-0.769,1.694-1.38c0.375-0.23,0.687-0.566,0.885-0.966C404.982,487.604,404.933,486.821,404.483,485.842z     M400.787,486.799c0,0.016-0.005,0.029-0.005,0.045c0,0.097,0.001,0.196,0,0.294c-0.024,0.116-0.027,0.231-0.035,0.347    c-1.025,0.326-5.294,0.067-5.786-0.446c-0.854-0.889-0.251-4.924-0.349-6.194c-0.226-2.949-0.441-5.897-0.401-8.862    c0.012-0.919,0.125-3.963,1.166-4.719c2.835-2.055,3.474,1.551,4.199,2.738c1.646,2.694,1.06,6.44,1.216,9.506    c0.07,1.36,0.047,2.682-0.017,4.039C400.774,483.618,400.712,485.732,400.787,486.799z"/>
	</g>
</g>
<g>
</g>
<g>
</g>
<g>
</g>
<g>
</g>
<g>
</g>
<g>
</g>
<g>
</g>
<g>
</g>
<g>
</g>
<g>
</g>
<g>
</g>
<g>
</g>
<g>
</g>
<g>
</g>
<g>
</g>
</svg>
