<?xml version="1.0" encoding="iso-8859-1"?>
<!-- Generator: Adobe Illustrator 19.0.0, SVG Export Plug-In . SVG Version: 6.00 Build 0)  -->
<svg xmlns="http://www.w3.org/2000/svg" xmlns:xlink="http://www.w3.org/1999/xlink" version="1.1" id="Layer_1" x="0px" y="0px" viewBox="0 0 512.002 512.002" style="enable-background:new 0 0 512.002 512.002;" xml:space="preserve">
<g>
	<g>
		<path d="M173.44,184.126c-0.374-3.538-0.415-7.146-0.505-10.755c0.613-4.606,0.676-9.609-0.968-13.661    c-1.597-3.934-5.988-2.524-9.43-2.102c-4.113,0.504-10.491,0.51-11.292,5.403c-0.468,2.865,0.124,7.398,0.268,10.334    c0.195,3.98,0.412,7.855,0.367,11.858c-0.034,3.04-1.326,8.611,2.796,9.463c1.92,0.397,5.186-0.33,7.108-0.456    c2.623-0.171,6.085-0.545,8.601-1.419C174.236,191.452,173.827,187.804,173.44,184.126z M155.832,190.612    c-0.437-0.401,0.003-5.04,0.005-5.407c0.016-5.132-0.527-10.214-0.539-15.324c-0.003-1.526-0.011-3.073,0.014-4.599    c0.043-2.751,0.158-2.698,2.742-3.261c0.034-0.008,0.073-0.013,0.107-0.02c-0.278,2.779,0.279,5.894,0.239,8.462    c-0.104,6.593,0.495,13.151,0.612,19.733c0,0.027,0.008,0.051,0.009,0.078C157.731,190.344,155.689,190.48,155.832,190.612z     M169.607,187.814c-0.718,1.626-3.906,2.097-6.642,2.275c0.003-0.021,0.008-0.042,0.011-0.063c0.083-0.46-0.04-0.935-0.285-1.336    c-1.097-6.484-0.693-13.577-0.855-20.1c-0.056-2.259-0.06-4.885-0.788-7.091c1.7-0.239,3.45-0.382,5.023-0.308    c2.758,0.129,1.974,0.059,2.777,2.342c0.538,1.532,0.707,3.279,0.717,5.091c-0.039,0.951-0.069,1.903-0.088,2.854    c-0.124,2.211-0.324,4.408-0.259,6.34c0.006,0.154,0.051,0.289,0.097,0.422c-0.039,1.532-0.051,3.063,0.074,4.594    C169.49,184.026,170.137,186.615,169.607,187.814z"/>
	</g>
</g>
<g>
	<g>
		<path d="M146.926,182.566c-0.301-3.477-0.592-6.998-0.942-10.508c-0.078-1.762-0.229-3.816-0.647-5.658    c-0.331-2.579-0.913-4.006-3.66-4.783c-2.1-0.594-4.4,0.178-6.471,0.547c-2.663,0.475-5.594,1.058-8.221,1.857    c-5.078,1.544-4.873,4.625-4.456,9.276c0.249,2.776,0.306,5.591,0.577,8.351c0.223,2.266,0.423,4.415,0.356,6.686    c-0.05,1.643-0.633,3.623-0.313,5.223c0.771,3.865,4.824,3.111,8.127,2.95c4.144-0.201,9.051,0.118,13.02-1.212    C149.465,193.56,147.292,186.827,146.926,182.566z M128.079,192.919c-2.166-1.166-1.129-8.125-1.297-10.505    c-0.15-2.131-0.407-4.192-0.594-6.311c-0.122-1.384-0.819-4.553-0.547-5.782c0.319-1.431,1.864-2.471,3.818-3.211    c-0.618,3.881-0.141,7.723-0.288,11.728c-0.178,4.825-0.227,9.668,0.505,14.414C129.055,193.242,128.504,193.149,128.079,192.919z     M141.673,191.815c-1.404,0.503-2.486,0.089-3.865,0.074c-1.061-0.011-2.773,0.459-4.516,0.851    c-0.519-4.603-0.912-9.282-1.001-13.903c-0.08-4.153-0.808-8.235-0.758-12.376c2.721-0.699,5.666-0.964,7.173-0.971    c2.489-0.012,2.13-0.268,2.806,2.338c0.523,2.015,0.845,4.078,1.323,6.112c0.091,4.787,0.517,9.531,0.589,14.5    C143.459,190.769,143.776,191.062,141.673,191.815z"/>
	</g>
</g>
<g>
	<g>
		<path d="M115.607,189.177c-0.452-4.068-0.841-8.073-1.316-12.073c0.033-2.202-0.174-4.363-0.796-5.996    c-0.012-0.083-0.021-0.164-0.035-0.248c-0.03-0.195-0.135-0.34-0.275-0.442c-0.196-0.382-0.413-0.735-0.674-1.023    c-2.409-2.656-8.652-0.383-11.54,0.108c-4.484,0.761-8.074,0.269-8.242,5.359c-0.192,5.844,0.499,11.864,1.154,17.689    c0.344,3.062-1.001,8.581,2.786,9.713c2.168,0.647,6.477-0.53,8.687-0.908c2.725-0.467,6.142-1.004,8.682-2.06    C117.883,197.694,115.984,192.574,115.607,189.177z M98.27,198.269c-0.424-0.293-0.063-2.845-0.154-3.855    c-0.337-3.752-1.169-7.526-1.404-11.299c-0.123-1.977-0.113-3.934-0.27-5.919c-0.203-2.549-0.152-3.019,2.128-3.674    c0.539-0.155,1.1-0.285,1.666-0.405c-0.655,3.703,0.136,8.115,0.224,11.695c0.1,4.06,0.24,8.79,1.101,12.967    C100.218,197.975,98.267,198.268,98.27,198.269z M111.638,195.623c-0.06,0.059-0.12,0.115-0.186,0.168    c-1.502,1.243-4.377,0.968-6.138,1.38c-1.303-8.048-0.721-16.633-3.008-24.439c1.306-0.207,2.62-0.37,3.871-0.543    c2.108-0.29,3.709-0.496,4.257,1.978c0.552,2.495-0.108,5.043,0.402,7.565c0.482,2.384,0.765,4.783,0.945,7.207    C111.907,190.602,112.83,194.432,111.638,195.623z"/>
	</g>
</g>
<g>
	<g>
		<path d="M86.486,182.809c-0.122-3.734-1.117-8.03-4.982-8.566c-4.6-0.638-9.129,3.07-13.331,4.103    c-0.543,0.133-1.069,0.629-1.185,1.185c-0.655,3.152,0.124,7.009,0.511,10.236c0.43,3.581,0.959,7.358,1.787,10.883    c1.417,6.024,2.573,6.681,8.346,5.345c4.451-1.03,11.669,0.114,11.637-6.019C89.239,194.321,87.759,188.463,86.486,182.809z     M72.629,199.052c-0.821-3.625-1.522-7.538-1.857-11.23c-0.159-1.744-1.338-4.919-0.348-6.449c1.038-1.604,3.459-1.83,5.142-2.243    c0.509,2.927,0.061,6.668,0.61,9.481c0.825,4.228,1.952,9.029,2.264,13.363C75.032,202.71,73.51,202.942,72.629,199.052z     M84.961,198.758c-0.428,1.567-1.65,2.197-3.064,2.554c-0.026-0.066-0.047-0.135-0.086-0.195    c-0.404-3.899-1.338-7.994-2.134-11.766c-0.73-3.458-0.918-7.338-2.266-10.659c1.079-0.209,2.124-0.252,3.206,0.231    c2.655,1.185,2.368,4.499,2.736,7.31c0.037,0.279,0.134,0.507,0.257,0.707c0.088,0.833,0.181,1.661,0.275,2.483    C84.176,191.986,85.664,196.179,84.961,198.758z"/>
	</g>
</g>
<g>
	<g>
		<path d="M62.566,203.081c-0.709-3.799-0.893-7.653-1.449-11.454c0.315-2.859-0.024-6.705-2.364-8.184    c-2.75-1.737-6.964,0.947-9.41,2.009c-2.642,1.148-6.475,2.715-7.009,5.944c-0.693,4.209,0.941,9.767,1.493,13.957    c0.455,3.459-0.125,7.427,4.08,8.024c3.725,0.53,9.292-0.49,12.682-1.946C64.213,209.873,63.17,206.317,62.566,203.081z     M49.635,209.534c-1.021-0.34-1.813-1.207-2.304-2.951c-0.725-2.576-0.283-5.419-0.672-7.977c-0.438-2.875-1.246-6.53,1.42-8.535    c0.633-0.475,2.011-1.257,3.439-1.932c0.186,2.964,0.27,5.823,0.721,8.826c0.609,4.047,1.384,8.025,2.28,12.015    C52.621,209.54,50.942,209.97,49.635,209.534z M58.146,207.732c-0.159,0.117-0.335,0.201-0.51,0.289    c-0.875-4.24-2.023-8.421-2.869-12.672c-0.484-2.43-0.549-5.604-1.753-7.863c0.912-0.364,1.738-0.618,2.274-0.639    c1.8-0.072,2.318,1.435,2.6,3.167c-0.271,4.03,0.376,8.383,0.839,12.065C59.037,204.552,60.248,206.188,58.146,207.732z"/>
	</g>
</g>
<g>
	<g>
		<path d="M37.319,208.648c-0.736-4.55-0.929-9.492-2.534-13.808c-0.118-0.316-0.349-0.495-0.6-0.562    c-0.156-0.224-0.32-0.433-0.499-0.609c-2.158-2.116-5.281-0.387-7.382,0.932c-2.652,1.665-6.32,3.963-6.363,7.39    c-0.061,4.819,0.732,10.681,1.617,15.422c0.579,3.096,2.52,3.403,5.502,3.081c1.823-0.197,3.351-0.837,5.115-1.292    c1.467-0.378,3.382,0.012,4.703-0.76C39.812,216.727,37.732,211.203,37.319,208.648z M34.783,214.728    c-0.352,0.581-0.555,0.146-1.306,0.445c-1.757,0.697-5.042,2.329-6.965,1.939c-2.303-0.466-1.682-4.009-1.99-5.798    c-0.388-2.259-1.285-6.424-0.823-8.687c0.406-1.988,5.45-7.861,7.898-5.321c0.927,0.962,1.414,5.539,1.728,7.005    c0.007,0.029,0.018,0.053,0.026,0.08c0.19,1.795,0.43,3.594,0.662,5.426C34.156,210.943,35.27,213.925,34.783,214.728z"/>
	</g>
</g>
<g>
	<g>
		<path d="M170.083,343.596c0.106-5.914,0.658-13.239-4.598-17.286c-3.636-2.798-8.473-2.777-12.466-0.756    c-7.184,3.636-9.193,11.923-8.997,20.012c-1.11,3.739-1.183,8.472,0.33,11.708c1.581,3.38,5.913,3.212,9.163,3.05    c3.451-0.172,6.903-0.768,10.367-0.959c1.542-0.086,3.166,0.201,4.426-0.959C171.495,355.471,170.017,347.279,170.083,343.596z     M151.162,339.466c-1.23,5.465-0.828,11.104-0.189,16.625c-1.176-0.212-2.222-0.673-2.876-1.631    c0.09-1.997-0.159-3.941-0.392-6.079c-0.475-4.366-0.08-8.946,1.585-13.057c1.257-3.107,3.664-5.814,6.521-6.854    C153.339,331.516,151.976,335.853,151.162,339.466z M164.93,355.573c-1.603,0.982-7.625,0.401-9.712,0.566    c-0.141,0.011-0.289,0.02-0.433,0.03c-0.367-3.951-0.988-7.832-0.788-11.876c0.241-4.879,1.509-12.478,4.921-16.239    c1.256,0.113,2.546,0.559,3.826,1.459c5.057,3.558,3.646,10.554,3.582,16.087C166.296,348.247,167.549,353.969,164.93,355.573z"/>
	</g>
</g>
<g>
	<g>
		<path d="M133.807,338.099c-0.268-8.53-7.349-18.108-16.545-12.546c-6.853,4.144-9.115,13.368-8.396,21.438    c-0.001,0.003-0.002,0.005-0.003,0.007c-0.521,2.735-1.947,7.459,0.959,9.313c1.611,1.028,5.034,0.92,6.796,1.028    c2.214,0.135,4.55,0.516,6.775,0.428c3.454-0.137,8.937,0.328,10.181-3.655C135.03,349.445,133.959,342.916,133.807,338.099z     M116.473,353.145c-0.643-0.08-1.283-0.171-1.909-0.298c-1.188-0.241-1.683-0.165-1.965-0.353    c-0.012-6.308-0.833-14.146,2.547-19.548c1.616-2.582,4.092-4.662,6.718-5.03c-1.741,1.727-2.933,4.464-3.759,6.433    C115.984,339.397,114.951,347.645,116.473,353.145z M129.608,352.559c-0.78,1.173,0.048,0.433-1.677,0.752    c-1.33,0.245-3.101,0.105-4.469,0.12c-1.298,0.013-2.626,0.007-3.951-0.047c-0.006-4.129-0.294-8.172,0.115-12.303    c0.352-3.559,2.04-10.227,5.629-12.595c0.71,0.36,1.411,0.867,2.086,1.58c3.533,3.743,2.818,8.694,2.775,13.442    C130.095,345.74,130.927,350.576,129.608,352.559z"/>
	</g>
</g>
<g>
	<g>
		<path d="M100.647,340.671c-0.29-8.452-5.187-21.751-16.138-15.865c-5.466,2.938-8.09,7.737-8.888,13.095    c-1.121,3.839-3.245,10.375-1.31,13.625c1.652,2.777,7.393,2.911,10.2,3.116c3.432,0.252,6.884,0.27,10.306,0.513    c1.37,0.098,2.88,0.459,4.099-0.436C101.949,352.494,100.753,343.738,100.647,340.671z M85.03,350.683    c-1.577-0.152-3.124-0.393-4.702-0.688c-1.339-0.251-1.785-0.178-2.018-0.583c1.138-5.612-0.421-11.528,2.847-16.658    c1.83-2.874,4.847-4.888,7.738-5.129c-1.893,2.225-2.914,6.149-3.419,8.195C84.546,339.582,83.326,346.647,85.03,350.683z     M96.457,350.763c-0.579,0.601,0.072,0.128-1.066,0.526c-1.342,0.468-4.38,0.06-6.715-0.244c0.087-0.369,0.043-0.782-0.209-1.209    c-0.479-0.809-0.306-2.018-0.386-2.94c-0.248-2.824-0.625-5.545-0.307-8.388c0.251-2.255,0.785-4.439,1.727-6.504    c0.392-0.858,1.176-2.992,2.087-4.025c1.713,0.638,3.206,2.116,4.125,4.711c1.386,3.908,1.256,8.5,1.167,12.596    C96.851,346.523,97.242,349.949,96.457,350.763z"/>
	</g>
</g>
<g>
	<g>
		<path d="M66.54,333.976c-0.6-5.392-3.802-13.81-10.736-12.638c-7.807,1.32-10.028,10.223-9.719,17.76    c-0.698,2.574-1.347,6.008,0.687,8.102c0.939,0.966,2.102,1.135,3.378,1.302c2.775,0.364,5.626,0.536,8.415,0.957    c2.853,0.431,5.459,1.505,6.882-1.655C67.018,344.315,66.948,337.638,66.54,333.976z M56.528,334.447    c-0.85,3.478-0.702,7.351-0.263,10.977c-2.131-0.165-4.614-0.555-5.891-1.348c-0.64-0.398-0.985-0.96-1.189-1.61    c0.504-5.63-0.621-12.39,3.978-16.032c3.138-2.485,5.48-1.678,7.077,0.413C57.949,328.325,57.109,332.07,56.528,334.447z     M62.292,343.174c-0.625,2.221-1.16,2.328-3.12,2.351c-0.308-2.872-0.54-5.841-0.258-8.684c0.283-2.853,1.353-5.703,2.259-8.477    c1.083,2.174,1.633,4.965,1.676,7.146C62.896,337.906,62.949,340.839,62.292,343.174z"/>
	</g>
</g>
<g>
	<g>
		<path d="M36.164,325.14c-0.908-3.63-2.868-8.113-7.593-7.738c-6.417,0.508-8.784,8.963-8.681,15.849    c-0.726,3.54-1.323,8.274,1.406,9.689c2.031,1.054,5.468,0.839,7.673,1.022c2.302,0.191,4.973,0.239,7.137-0.595    c0.801-0.31,1.214-0.858,1.298-1.705C37.964,335.949,37.551,330.68,36.164,325.14z M34.004,340.239    c-2.864,0.539-6.707,0.267-9.27-0.418c-1.899-0.507-1.744-1.407-1.714-2.947c0.18-2.177,0.268-5.217,0.285-5.596    c0.146-3.248,0.98-8.089,4.12-9.966C34.639,316.999,34.453,334.273,34.004,340.239z"/>
	</g>
</g>
<g>
	<g>
		<path d="M360.76,163.012c-0.8-4.893-7.178-4.899-11.292-5.403c-3.443-0.422-7.833-1.833-9.43,2.101    c-1.645,4.052-1.581,9.055-0.968,13.661c-0.09,3.608-0.132,7.217-0.505,10.756c-0.387,3.676-0.796,7.324,3.056,8.664    c2.516,0.875,5.978,1.248,8.601,1.419c1.921,0.126,5.188,0.853,7.108,0.456c4.122-0.852,2.83-6.423,2.796-9.463    c-0.044-4.004,0.172-7.878,0.367-11.858C360.637,170.411,361.229,165.877,360.76,163.012z M350.169,168.59    c-0.162,6.523,0.242,13.615-0.854,20.1c-0.244,0.401-0.368,0.876-0.285,1.336c0.003,0.021,0.008,0.042,0.011,0.063    c-2.736-0.178-5.923-0.648-6.642-2.275c-0.53-1.199,0.117-3.788,0.215-4.98c0.125-1.532,0.114-3.062,0.074-4.594    c0.047-0.133,0.092-0.268,0.097-0.422c0.065-1.933-0.135-4.13-0.259-6.34c-0.02-0.952-0.048-1.903-0.088-2.854    c0.01-1.812,0.179-3.559,0.718-5.091c0.803-2.284,0.019-2.213,2.777-2.342c1.574-0.073,3.324,0.07,5.023,0.308    C350.228,163.705,350.225,166.332,350.169,168.59z M356.172,190.611c0.144-0.132-1.899-0.268-3.188-0.34    c0.001-0.026,0.008-0.05,0.009-0.077c0.117-6.58,0.717-13.14,0.612-19.733c-0.041-2.569,0.517-5.683,0.239-8.462    c0.035,0.008,0.073,0.013,0.107,0.02c2.584,0.563,2.699,0.51,2.742,3.261c0.024,1.526,0.017,3.073,0.013,4.599    c-0.012,5.11-0.555,10.192-0.539,15.324C356.169,185.569,356.61,190.209,356.172,190.611z"/>
	</g>
</g>
<g>
	<g>
		<path d="M389.479,173.296c0.417-4.651,0.621-7.732-4.456-9.276c-2.628-0.799-5.558-1.383-8.221-1.857    c-2.071-0.369-4.371-1.141-6.471-0.547c-2.748,0.778-3.33,2.204-3.66,4.783c-0.419,1.843-0.57,3.896-0.647,5.658    c-0.35,3.511-0.642,7.03-0.941,10.506c-0.368,4.263-2.54,10.996,2.631,12.73c3.969,1.332,8.875,1.011,13.02,1.212    c3.302,0.161,7.356,0.915,8.127-2.95c0.32-1.599-0.265-3.578-0.313-5.223c-0.068-2.273,0.132-4.42,0.356-6.686    C389.172,178.887,389.231,176.071,389.479,173.296z M379.714,178.837c-0.089,4.622-0.482,9.301-1.001,13.903    c-1.744-0.392-3.454-0.862-4.516-0.851c-1.38,0.015-2.462,0.429-3.865-0.074c-2.103-0.753-1.785-1.046-1.751-3.376    c0.072-4.969,0.497-9.713,0.589-14.5c0.478-2.033,0.8-4.097,1.323-6.112c0.677-2.605,0.316-2.35,2.806-2.338    c1.507,0.008,4.453,0.272,7.173,0.971C380.523,170.601,379.795,174.683,379.714,178.837z M385.816,176.103    c-0.187,2.12-0.445,4.182-0.594,6.311c-0.167,2.381,0.87,9.339-1.297,10.505c-0.425,0.229-0.976,0.323-1.598,0.332    c0.734-4.747,0.684-9.589,0.507-14.414c-0.147-4.005,0.329-7.846-0.288-11.727c1.955,0.741,3.501,1.781,3.818,3.211    C386.637,171.55,385.939,174.717,385.816,176.103z"/>
	</g>
</g>
<g>
	<g>
		<path d="M419.275,174.86c-0.168-5.09-3.757-4.598-8.242-5.359c-2.887-0.491-9.131-2.764-11.54-0.108    c-0.261,0.288-0.478,0.642-0.674,1.023c-0.14,0.102-0.244,0.247-0.275,0.442c-0.012,0.083-0.021,0.164-0.035,0.248    c-0.621,1.633-0.828,3.794-0.796,5.996c-0.475,4-0.863,8.005-1.315,12.072c-0.377,3.398-2.276,8.52,1.568,10.119    c2.538,1.057,5.957,1.594,8.681,2.06c2.211,0.379,6.519,1.557,8.687,0.908c3.786-1.131,2.441-6.651,2.786-9.713    C418.777,186.724,419.468,180.704,419.275,174.86z M406.688,197.171c-1.76-0.411-4.636-0.136-6.138-1.38    c-0.064-0.053-0.126-0.109-0.186-0.168c-1.19-1.191-0.266-5.021-0.143-6.684c0.18-2.424,0.464-4.823,0.945-7.207    c0.51-2.522-0.15-5.07,0.402-7.565c0.547-2.474,2.148-2.269,4.256-1.978c1.249,0.172,2.565,0.335,3.871,0.543    C407.409,180.538,407.992,189.123,406.688,197.171z M415.563,177.195c-0.158,1.986-0.147,3.943-0.27,5.919    c-0.234,3.773-1.067,7.547-1.404,11.299c-0.091,1.01,0.27,3.563-0.154,3.855c0.002-0.001-1.95-0.294-3.291-0.492    c0.861-4.176,1.001-8.906,1.101-12.966c0.088-3.579,0.879-7.991,0.224-11.695c0.567,0.12,1.127,0.251,1.666,0.405    C415.715,174.177,415.765,174.645,415.563,177.195z"/>
	</g>
</g>
<g>
	<g>
		<path d="M445.019,179.532c-0.116-0.557-0.643-1.052-1.185-1.185c-4.203-1.033-8.731-4.741-13.331-4.103    c-3.865,0.536-4.86,4.832-4.982,8.566c-1.273,5.654-2.753,11.511-2.784,17.169c-0.033,6.132,7.186,4.989,11.636,6.018    c5.773,1.335,6.929,0.679,8.346-5.345c0.83-3.525,1.359-7.303,1.789-10.883C444.895,186.541,445.674,182.683,445.019,179.532z     M430.192,201.117c-0.037,0.06-0.059,0.128-0.086,0.195c-1.414-0.357-2.636-0.987-3.064-2.554    c-0.701-2.579,0.786-6.772,1.076-9.336c0.093-0.822,0.187-1.651,0.275-2.483c0.123-0.2,0.221-0.428,0.257-0.707    c0.368-2.811,0.082-6.124,2.736-7.31c1.083-0.483,2.126-0.44,3.206-0.231c-1.347,3.322-1.536,7.201-2.266,10.659    C431.529,193.123,430.595,197.219,430.192,201.117z M441.233,187.823c-0.335,3.692-1.037,7.603-1.857,11.23    c-0.88,3.89-2.402,3.657-5.81,2.923c0.312-4.334,1.439-9.136,2.264-13.363c0.549-2.814,0.101-6.555,0.61-9.482    c1.683,0.413,4.103,0.639,5.142,2.243C442.572,182.904,441.392,186.079,441.233,187.823z"/>
	</g>
</g>
<g>
	<g>
		<path d="M469.67,191.398c-0.532-3.23-4.367-4.796-7.009-5.944c-2.445-1.064-6.659-3.747-9.409-2.009    c-2.34,1.479-2.68,5.324-2.364,8.184c-0.556,3.8-0.74,7.655-1.45,11.454c-0.606,3.235-1.648,6.792,1.977,8.351    c3.39,1.458,8.957,2.476,12.682,1.946c4.205-0.598,3.626-4.565,4.08-8.024C468.729,201.164,470.363,195.606,469.67,191.398z     M454.37,208.021c-0.174-0.088-0.351-0.172-0.51-0.289c-2.103-1.544-0.893-3.18-0.581-5.653c0.463-3.682,1.11-8.037,0.839-12.065    c0.283-1.732,0.801-3.239,2.6-3.167c0.536,0.021,1.362,0.276,2.274,0.639c-1.203,2.259-1.269,5.433-1.753,7.863    C456.393,199.601,455.243,203.781,454.37,208.021z M465.344,198.605c-0.389,2.56,0.053,5.401-0.672,7.977    c-0.491,1.745-1.283,2.611-2.304,2.951c-1.307,0.436-2.986,0.006-4.886-0.555c0.896-3.989,1.673-7.968,2.28-12.015    c0.454-3.003,0.538-5.862,0.723-8.826c1.427,0.675,2.806,1.456,3.439,1.932C466.59,192.074,465.781,195.73,465.344,198.605z"/>
	</g>
</g>
<g>
	<g>
		<path d="M485.7,194.601c-2.1-1.318-5.224-3.048-7.382-0.932c-0.179,0.176-0.342,0.385-0.499,0.609    c-0.251,0.065-0.483,0.244-0.6,0.562c-1.605,4.316-1.796,9.258-2.534,13.807c-0.413,2.556-2.493,8.079,0.44,9.795    c1.32,0.772,3.236,0.382,4.703,0.76c1.765,0.456,3.291,1.095,5.115,1.292c2.982,0.322,4.923,0.016,5.502-3.081    c0.886-4.741,1.678-10.603,1.617-15.422C492.02,198.564,488.35,196.266,485.7,194.601z M487.484,211.313    c-0.307,1.789,0.313,5.332-1.99,5.798c-1.924,0.389-5.208-1.243-6.965-1.939c-0.751-0.298-0.955,0.136-1.306-0.445    c-0.489-0.801,0.627-3.783,0.77-4.911c0.232-1.833,0.473-3.632,0.662-5.427c0.008-0.028,0.019-0.052,0.026-0.08    c0.313-1.466,0.8-6.042,1.728-7.005c2.448-2.54,7.492,3.334,7.898,5.321C488.769,204.889,487.873,209.054,487.484,211.313z"/>
	</g>
</g>
<g>
	<g>
		<path d="M367.983,345.566c0.196-8.089-1.813-16.376-8.997-20.012c-3.992-2.02-8.83-2.042-12.466,0.756    c-5.257,4.046-4.704,11.372-4.598,17.286c0.066,3.683-1.413,11.875,1.775,14.811c1.258,1.159,2.884,0.873,4.426,0.959    c3.463,0.191,6.916,0.787,10.367,0.959c3.251,0.162,7.582,0.33,9.163-3.05C369.167,354.038,369.093,349.305,367.983,345.566z     M357.219,356.169c-0.144-0.01-0.293-0.02-0.433-0.03c-2.087-0.165-8.109,0.415-9.712-0.566c-2.618-1.603-1.366-7.325-1.397-9.973    c-0.062-5.535-1.475-12.529,3.583-16.087c1.279-0.9,2.569-1.347,3.826-1.459c3.412,3.761,4.68,11.359,4.921,16.239    C358.206,348.337,357.585,352.218,357.219,356.169z M364.298,348.38c-0.233,2.14-0.482,4.084-0.392,6.079    c-0.654,0.958-1.7,1.418-2.876,1.631c0.641-5.521,1.041-11.16-0.189-16.625c-0.813-3.613-2.176-7.95-4.65-10.997    c2.858,1.041,5.264,3.749,6.522,6.855C364.378,339.434,364.773,344.014,364.298,348.38z"/>
	</g>
</g>
<g>
	<g>
		<path d="M403.141,346.998c0-0.002-0.002-0.003-0.003-0.007c0.719-8.07-1.543-17.294-8.396-21.438    c-9.196-5.563-16.276,4.016-16.546,12.546c-0.152,4.818-1.224,11.347,0.233,16.013c1.244,3.983,6.727,3.517,10.182,3.655    c2.225,0.089,4.561-0.293,6.775-0.428c1.763-0.108,5.186,0,6.796-1.028C405.089,354.457,403.663,349.733,403.141,346.998z     M392.494,353.384c-1.326,0.053-2.653,0.061-3.951,0.047c-1.368-0.015-3.138,0.125-4.469-0.12    c-1.726-0.319-0.897,0.421-1.677-0.752c-1.318-1.983-0.486-6.819-0.508-9.05c-0.045-4.749-0.76-9.7,2.773-13.443    c0.674-0.715,1.375-1.221,2.087-1.58c3.589,2.367,5.277,9.035,5.629,12.595C392.788,345.211,392.5,349.256,392.494,353.384z     M399.406,352.493c-0.283,0.188-0.778,0.113-1.965,0.353c-0.626,0.127-1.266,0.218-1.909,0.298    c1.522-5.5,0.49-13.747-1.631-18.797c-0.826-1.97-2.019-4.707-3.759-6.433c2.626,0.368,5.101,2.448,6.718,5.03    C400.239,338.345,399.419,346.185,399.406,352.493z"/>
	</g>
</g>
<g>
	<g>
		<path d="M436.383,337.901c-0.798-5.358-3.422-10.157-8.888-13.095c-10.951-5.886-15.847,7.413-16.138,15.865    c-0.105,3.067-1.302,11.823,1.73,14.049c1.219,0.895,2.73,0.534,4.099,0.436c3.422-0.243,6.874-0.261,10.306-0.513    c2.806-0.206,8.548-0.34,10.2-3.116C439.628,348.275,437.504,341.741,436.383,337.901z M423.925,346.895    c-0.081,0.921,0.092,2.131-0.386,2.94c-0.253,0.427-0.296,0.841-0.209,1.209c-2.336,0.304-5.374,0.712-6.715,0.244    c-1.138-0.397-0.487,0.075-1.066-0.526c-0.784-0.814-0.394-4.24-0.421-5.477c-0.089-4.096-0.218-8.688,1.166-12.596    c0.92-2.594,2.412-4.072,4.125-4.711c0.91,1.033,1.695,3.169,2.087,4.025c0.942,2.064,1.476,4.249,1.727,6.504    C424.549,341.351,424.172,344.07,423.925,346.895z M431.676,349.995c-1.578,0.296-3.125,0.536-4.702,0.688    c1.704-4.036,0.484-11.101-0.446-14.863c-0.505-2.046-1.526-5.97-3.42-8.195c2.892,0.242,5.909,2.257,7.738,5.13    c3.266,5.129,1.709,11.045,2.847,16.658C433.461,349.817,433.015,349.744,431.676,349.995z"/>
	</g>
</g>
<g>
	<g>
		<path d="M465.921,339.097c0.308-7.537-1.912-16.439-9.719-17.76c-6.932-1.173-10.136,7.247-10.736,12.638    c-0.407,3.663-0.476,10.339,1.094,13.828c1.423,3.16,4.029,2.086,6.882,1.655c2.788-0.421,5.639-0.593,8.415-0.957    c1.276-0.167,2.438-0.337,3.378-1.302C467.269,345.107,466.619,341.671,465.921,339.097z M452.834,345.524    c-1.96-0.024-2.495-0.131-3.12-2.351c-0.656-2.334-0.604-5.267-0.557-7.663c0.043-2.181,0.592-4.972,1.676-7.146    c0.906,2.773,1.977,5.623,2.259,8.477C453.373,339.683,453.142,342.652,452.834,345.524z M461.632,344.076    c-1.278,0.794-3.761,1.183-5.891,1.348c0.438-3.626,0.586-7.499-0.263-10.977c-0.581-2.377-1.42-6.123-3.711-7.6    c1.595-2.091,3.936-2.897,7.076-0.413c4.6,3.641,3.474,10.402,3.978,16.032C462.616,343.116,462.273,343.677,461.632,344.076z"/>
	</g>
</g>
<g>
	<g>
		<path d="M492.115,333.251c0.104-6.887-2.262-15.342-8.681-15.849c-4.724-0.374-6.685,4.108-7.593,7.74    c-1.386,5.54-1.8,10.809-1.24,16.521c0.082,0.846,0.496,1.395,1.297,1.704c2.164,0.835,4.834,0.787,7.137,0.595    c2.205-0.183,5.643,0.03,7.674-1.022C493.437,341.525,492.84,336.791,492.115,333.251z M487.27,339.823    c-2.563,0.683-6.408,0.957-9.27,0.418c-0.448-5.968-0.634-23.242,6.58-18.927c3.139,1.878,3.973,6.718,4.12,9.966    c0.017,0.378,0.105,3.419,0.285,5.596C489.013,338.415,489.169,339.317,487.27,339.823z"/>
	</g>
</g>
<g>
	<g>
		<path d="M503.35,290.811c0.215-1.267,0.1-2.564-0.195-3.856c0.567-4.121,0.273-8.701-0.046-12.361    c-0.554-6.328-0.384-13.365-2.064-19.568c1.31-0.227,2.472-0.768,3.354-1.808c3.485-4.108,3.595-13.864-0.564-17.63    c-0.93-0.843-2.008-1.442-3.175-1.89c1.974-4.475,1.135-11.353,1.1-15.358c-0.038-4.445,0.01-9.088,0.429-13.503    c0.195-2.045,0.594-4.337,0.648-6.561c1.854,0.304,3.727,0.135,5.58-0.835c5.755-3.015,3.696-10.763,0.009-14.644    c-2.758-2.903-6.402-4.578-10.205-5.894c-2.508-1.209-5.078-2.325-7.516-3.602c-7.961-4.168-16.248-7.496-24.458-11.112    c-27.095-11.931-56.616-17.93-85.219-25.183c-12.963-3.288-26.072-5.27-39.382-6.541c-4.188-0.4-8.784-1.158-13.181-0.899    c-0.52-4.143,0.836-8.046-0.85-12.192c-1.081-2.658-2.885-5.444-5.495-6.832c-7.35-3.909-18.574-3.192-26.63-3.639    c-10.291-0.571-20.72-0.249-31.03-0.122c-5.946,0.073-17.137-2.231-21.799,2.734c-5.388,5.737-2.907,16.306-3.261,23.293    c-0.119,2.355-0.292,4.758-1.207,6.959c-1.028,2.473-2.364,2.713-4.528,3.927c-3.174,1.781-4.197,5.565-7.813,6.603    c-5.028,1.443-12.371-0.042-15.093,4.729c-1.577-0.875-3.221-1.184-3.971-3.199c-0.809-2.175-1.04-4.292-2.668-6.079    c-2.069-2.273-5.3-3.27-8.446-3.1c0.729-2.128,0.77-4.513-0.075-6.402c-1.225-2.739-3.475-4.58-6.273-5.568    c-5.975-2.109-12.84-0.795-18.967-0.211c-13.31,1.271-26.419,3.253-39.382,6.541c-28.603,7.253-58.124,13.252-85.219,25.183    c-8.211,3.615-16.497,6.944-24.458,11.112c-2.438,1.276-5.008,2.394-7.516,3.602c-3.803,1.315-7.448,2.991-10.206,5.894    c-3.687,3.881-5.746,11.63,0.009,14.644c1.854,0.97,3.727,1.139,5.58,0.835c0.054,2.224,0.454,4.516,0.648,6.561    c0.419,4.415,0.468,9.058,0.429,13.503c-0.035,4.005-0.876,10.882,1.1,15.358c-1.167,0.448-2.246,1.048-3.175,1.89    c-4.159,3.766-4.049,13.523-0.564,17.63c0.884,1.04,2.045,1.58,3.355,1.808c-1.68,6.203-1.511,13.239-2.064,19.568    c-0.321,3.66-0.613,8.24-0.046,12.361c-0.295,1.292-0.41,2.589-0.195,3.856c-1.398,0.14-2.754,0.687-3.938,1.756    c-2.996,2.703-4.259,8.705-1.84,12.147c1.32,1.878,3.622,2.84,6.155,3.372c-1.169,6.25-1.136,12.92-0.67,19.271    c0.568,7.753-0.912,15.406-0.552,23.147c0.288,6.191-0.579,13.725,1.993,19.559c2.255,5.115,7.677,7.792,12.42,9.872    c14.607,6.406,30.116,10.47,45.725,13.53c16.161,3.166,31.865,6.36,48.346,7.461c9.284,0.621,18.604,1.326,27.911,1.276    c2.975-0.016,6.003,0.092,9.033,0.145c4.455,0.751,8.884,0.649,13.685,0.912c4.858,0.264,9.668,0.037,14.523-0.042    c3.125-0.05,6.041,0.09,8.884-0.845c4.419,0.777,9.154,0.886,12.988,1.357c8.041,0.989,16.154,1.915,24.292,1.57    c2.435-0.102,5.124-0.214,7.832-0.479c4.679,0.259,9.355,0.549,14.05,0.51c10.797-0.091,22.37,0.917,33.401-0.095    c0.504,0.021,1.015,0.044,1.502,0.065c8.138,0.344,16.251-0.581,24.292-1.57c3.834-0.472,8.569-0.581,12.988-1.357    c2.843,0.936,5.76,0.796,8.884,0.845c4.856,0.078,9.665,0.306,14.523,0.042c4.801-0.262,9.23-0.162,13.685-0.912    c3.031-0.053,6.058-0.161,9.033-0.145c9.309,0.049,18.627-0.655,27.911-1.276c16.481-1.103,32.185-4.295,48.346-7.462    c15.607-3.058,31.117-7.124,45.725-13.53c4.743-2.08,10.165-4.758,12.42-9.873c2.572-5.834,1.704-13.369,1.993-19.559    c0.36-7.741-1.12-15.393-0.552-23.147c0.466-6.351,0.5-13.02-0.67-19.271c2.533-0.532,4.833-1.495,6.154-3.372    c2.419-3.441,1.156-9.444-1.84-12.147C506.104,291.497,504.749,290.95,503.35,290.811z M501.148,243.825    c0.107,0.961,0.356,4.514-0.038,5.434c-1.677,3.919-9.124,0.35-11.675-0.391c-8.46-2.455-16.652-5.491-24.904-8.547    c-7.611-2.818-15.559-4.712-23.363-6.933c-7.671-2.182-15.468-3.548-23.237-5.259c-7.846-1.729-15.532-3.969-23.403-5.602    c-7.459-1.548-15.347-2.488-22.926-3.367c-5.216-0.604-10.544-1.524-15.87-1.95c-4.036-1.377-9.283-1.127-13.098-1.535    c-2.853-0.306-9.133-2.229-13.465-1.849c1.772-2.004,1.847-5.093,1.371-7.651c-0.147-0.791-0.508-1.585-0.615-2.372    c-0.002-0.02,0.001-0.038-0.001-0.057c2.955,1.174,6.275,1.215,9.455,1.635c2.417,0.32,5.268,0.753,7.977,0.679    c1.978,0.271,3.979,0.463,5.945,0.827c4.606,0.855,9.234,1.602,13.838,2.474c8.182,1.551,16.395,2.857,24.618,4.072    c9.644,1.426,19.061,3.767,28.798,4.668c10.672,0.987,21.347,3.906,31.832,6.057c4.55,0.933,8.924,2.724,13.405,3.95    c4.589,1.255,9.398,2.322,13.852,4.01c3.605,1.366,7.251,2.643,10.842,4.042c2.321,1.083,4.816,1.865,7.213,2.718    C500.413,239.85,500.778,240.497,501.148,243.825z M487.369,283.39c2.946,0.23,6.052,0.411,9.008,0.224    c-0.357,2.446-0.459,4.84,0.458,6.898c-0.988,0.788-2.349,1.257-4.051,1.71c-1.947,0.518-3.913,0.96-5.889,1.357    c0.019-0.097,0.042-0.191,0.053-0.294c0.243-2.179,0.418-4.096,0.412-6.304C487.358,285.737,487.476,284.565,487.369,283.39z     M496.261,279.369c-1.855,0.15-3.31,0.11-5.175-0.037c-2.232-0.176-4.407,0.069-6.635-0.233c-0.289-0.039-1.586-0.052-1.732-0.171    c-0.243-0.198-0.031-0.209,0.003-1.034c0.083-1.93,0.005-2.859,2.248-2.734c2.133,0.119,4.156,0.661,6.256,0.973    c2.079,0.308,4.169,0.741,6.207,0.545c-0.056,0.867-0.177,1.763-0.328,2.677C496.831,279.349,496.556,279.344,496.261,279.369z     M482.557,294.372c-2.429,0.407-4.866,0.758-7.303,1.094c1.331-2.203,1.275-5.562,1.407-8.003    c0.248-4.567,0.253-9.077,0.737-13.642c0.341-3.217,0.754-5.674-0.1-8.838c-0.195-0.719-0.468-1.983-0.89-3.026    c2.388,0.287,4.78,1.416,6.049,3.612c0.965,1.67,0.952,3.869,1.208,5.914c-4.11,0.142-4.528,2.579-4.682,6.41    c-0.163,4.059,1.549,4.857,4.927,5.207c-0.749,1.529-0.893,3.628-0.871,5.06C483.057,289.401,481.967,292.596,482.557,294.372z     M486.781,271.642c1.48-7.567-3.919-13.835-11.87-13.89c-3.631-0.026-6.821,1.219-8.466,4.655    c-0.961,2.008-0.867,4.157-1.137,6.303c-0.141,1.115,0.101,2.305-1.074,2.65c-1.011,0.295-8.651-2.887-8.756-2.506    c0.407-1.503,0.289-3.047,0.24-4.718c-0.084-2.876-0.027-5.747-1.142-8.446c-1.721-4.167-5.057-7.462-9.459-8.559    c-4.161-1.037-9.201,0.497-11.4,4.333c-2.158,3.763-3.372,9.996-3.175,14.698c-0.608-0.045-1.187-0.083-1.704-0.127    c-2.656-0.953-6.405-2.143-9.556-2.195c1.276-4.284-0.395-9.794-1.884-13.629c-2.049-5.273-6.049-8.974-11.793-9.778    c-12.594-1.76-17.353,9.52-17.375,20.039c-3.171-0.198-6.34-0.298-9.52-0.504c-1.065-0.319-2.283-0.642-3.515-0.83    c1.417-9.23-3.09-21.556-12.997-23.588c-12.818-2.628-18.774,9.726-19.449,20.543c-0.916,14.688-1.257,29.503-0.186,44.135    c0.044,0.597,0.081,1.138,0.123,1.635c-0.936,0.072-1.875,0.188-2.8,0.222c-1.71,0.062-3.322,0.062-4.801,0.603    c-1.515-2.805-4.012-4.624-6.895-5.431c0.114-0.45,0.14-0.935,0.043-1.468c2.459-7.564-0.057-17.34-0.062-25.051    c-0.001-1.811,0.269-3.593,0.286-5.399c0.02-2.117-0.969-5.282-0.305-7.262c0.834-2.489-0.162-0.193,1.889-1.974    c0.672-0.584,1.237-0.728,1.755-1.568c1.132-1.836,1.136-4.878,0.872-6.97c-0.45-3.585-3.206-5.349-4.157-8.396    c-1.091-3.496,0.296-9.294,0.242-12.988c-0.035-2.412-0.013-4.634-0.32-6.823c3.825,1.576,9.39,1.535,12.634,2.024    c2.432,0.366,5.813,0.862,9.122,0.929c17.877,2.177,36.278,3.369,53.583,8.32c17.638,5.046,35.448,9.668,53.239,14.206    c9.846,2.511,19.601,4.763,29.517,7.011c2.853,0.647,7.53,2.806,11.612,3.241c-0.031,6.304-0.75,12.58-0.689,18.892    C493.981,272.949,490.381,272.011,486.781,271.642z M472.455,295.181c0.033,0.247,0.12,0.453,0.229,0.636    c-0.589,0.08-1.18,0.162-1.767,0.242c-1.242,0.168-2.485,0.311-3.729,0.454c0.693-1.605,0.713-3.609,0.634-5.317    c-0.091-1.996,0.195-3.925,0.106-5.899c-0.054-1.207-0.239-2.404-0.378-3.605c1.988-0.885,2.418-3.276,2.18-5.408    c-0.137-1.231-0.529-2.204-1.103-2.977c0.782-2.088,0.941-3.864,1.082-6.111c0.182-2.919,1.121-4.496,3.2-5.065    c3.335,4.77,1.011,12.684,0.642,17.946c-0.195,2.776-0.128,5.504-0.439,8.267C472.869,290.491,472.164,292.997,472.455,295.181z     M462.576,296.996c-3.17,0.298-6.345,0.522-9.521,0.717c0.723-3.705,0.284-7.71,0.646-11.436c0.135-1.393,0.312-2.897,0.258-4.359    c0.699,0.2,1.449,0.321,2.244,0.365c1.902,0.104,3.937-0.046,5.836-0.203c0.652-0.054,1.359-0.028,2.067-0.008    c-0.604,1.948-0.643,4.247-0.905,6.08c-0.273,1.907-0.106,3.771-0.475,5.68C462.51,294.933,462.311,295.92,462.576,296.996z     M463.495,277.729c-1.605,0.089-3.198,0.196-4.809,0.231c-2.273,0.048-4.83,0.332-5.779-2.255    c-0.895-2.438,0.27-3.135,2.611-2.762c1.592,0.253,3.149,0.634,4.752,0.808c0.751,0.082,1.979-0.091,2.659,0.205    c0.152,0.066,0.326,0.075,0.493,0.042c1.53,0.486,2.682,1.131,2.883,1.996C466.804,278.142,464.947,277.649,463.495,277.729z     M449.482,277.951c0.358,0.839,0.823,1.525,1.363,2.103c-0.277,0.492-0.552,0.96-0.684,1.718    c-0.234,1.335-0.491,2.602-0.747,3.927c-0.779,4.037-0.855,8.194-1.141,12.284c-1.227,0.062-2.454,0.111-3.68,0.165    c1.034-8.909,3.116-18.312,2.575-27.199c-0.233-3.845,0.294-14.932-3.115-19.687c3.66,0.682,6.325,4.487,7.099,7.895    c0.449,1.98,0.314,4.036,0.458,6.044c0.028,0.388,0.585,2.724,0.669,3.739c-1.077,0.231-2.008,0.699-2.659,1.477    C448.05,272.297,448.608,275.904,449.482,277.951z M440.846,298.306c-1.637,0.064-3.274,0.127-4.911,0.188    c0.407-2.089,0.23-4.561,0.323-6.116c0.269-4.515,0.034-9.313-0.764-13.838c1.307-0.186,2.483-0.684,3.137-1.935    c0.945-1.805,0.882-6.2-0.25-7.915c-0.667-1.011-1.981-1.595-3.497-1.955c1.154-5.461,0.322-14.037,5.963-15.417    c3.884,6.42,3.871,17.316,2.748,24.206C442.457,282.504,440.291,291.085,440.846,298.306z M419.827,278.511    c3.766,0.583,7.859,0.051,11.523,0.063c0.288,0.001,0.594,0.011,0.911,0.023c-0.993,6.652-0.173,13.645-1.893,20.106    c-3.777,0.142-7.552,0.314-11.325,0.499c0.258-1.431,0.293-2.934,0.324-3.777c0.137-3.643,0.248-7.258,0.317-10.904    C419.721,282.57,419.997,280.494,419.827,278.511z M431.704,274.79c-4.562-0.183-14.401,1.809-14.127-4.979    c0.086-2.126,1.448-2.249,3.027-2.062c3.454,0.705,6.927,1.283,10.475,1.837c0.443,0.069,0.897,0.108,1.338,0.145    c0.222,0.062,0.445,0.088,0.662,0.062c1.561,0.164,2.814,0.527,2.683,2.587C435.567,275.471,434.222,274.891,431.704,274.79z     M414.018,299.457c-1.886,0.097-3.773,0.194-5.661,0.29c0.732-5.245,1.192-10.638,1.669-15.883    c0.448-4.928,0.761-10.599,0.265-15.543c-0.519-5.177,0.398-16.71-2.92-23.08c7.912,2.812,6.899,12.174,8.744,19.078    c-1.726,0.683-2.859,2.164-2.818,4.92c0.046,3.135,0.205,6.702,3.046,8.271C413.24,283.893,416.548,293.001,414.018,299.457z     M404.656,299.937c-3.372,0.17-6.746,0.333-10.12,0.48c0.425-2.703,0.044-5.896,0.194-8.073c0.4-5.802,0.85-12.531-0.807-18.269    c0.484-0.082,0.95-0.218,1.379-0.437c3.343-1.7,2.338-5.279,1.97-8.217c-0.391-3.116-1.756-4.128-4.438-4.545    c0.008-3.686,0.072-7.361,1.844-10.622c1.981-3.649,4.947-5.793,8.834-5.74c4.101,7.74,3.365,17.851,3.349,26.269    c-0.01,5.286-0.586,10.816-1.436,15.997C404.756,290.851,403.982,295.752,404.656,299.937z M375.193,274.36    c1.229,0.24,2.612,0.285,4.231,0.273c3.396-0.024,6.697-0.402,10.073-0.505c0.575-0.018,1.196,0.012,1.828,0.036    c-1.326,4.823-0.873,10.083-1.309,15.027c-0.226,2.573-0.208,8.808-0.978,11.442c-0.78,0.028-1.559,0.063-2.34,0.089    c-4.119,0.136-8.237,0.15-12.343,0.235c0.875-3.82,0.539-8.411,0.796-12.227C375.475,283.918,375.35,279.153,375.193,274.36z     M387.899,269.912c-3.109,0.141-6.303,0.76-9.429,0.349c-2.322-0.305-3.892-0.567-5.28-2.69c-0.742-1.135-0.976-4.036-0.871-4.137    c0.245-0.236,0.913-0.359,1.768-0.43c2.879,0.361,5.829,0.604,8.692,0.669c2.205,0.05,4.317,0.387,6.507,0.512    c3.147,0.18,5.021,0.254,4.361,3.663C393.066,270.844,390.572,269.791,387.899,269.912z M369.726,301.097    c-1.709,0.07-3.414,0.177-5.116,0.31c1.466-11.479,1.506-23.861,0.753-35.332c-0.389-5.939-0.055-12.052-1.046-17.941    c-0.351-2.088-0.716-5.404-1.873-7.877c3.216,1.177,5.263,4.021,6.898,7.304c1.27,2.552,1.445,4.826,1.84,7.573    c0.124,0.857-0.086,3.389,0.884,3.908c-1.26,0.164-2.399,0.634-3.241,1.594c-2.466,2.816-0.872,7.08,0.818,9.697    c0.879,1.36,1.778,2.289,2.762,2.932c-1.667,4.852-1.552,9.918-2.168,15.114C369.75,292.497,368.78,297.018,369.726,301.097z     M358.885,239.679c0.149-0.002,0.288,0.01,0.432,0.013c1.981,5.129,2.04,11.068,2.346,16.402    c0.279,4.874,0.778,9.878,0.649,14.763c-0.263,10.049-0.47,20.772-1.927,30.736c-0.045-0.005-0.089-0.018-0.135-0.019    c-1.611-0.036-3.185,0.163-4.789,0.355c-1.781,0.213-6.141,0.849-7.483-0.718c-0.493-0.575-0.371-1.586-0.434-2.287    c-0.131-1.437-0.36-2.864-0.359-4.311c0.002-4.546-0.698-9.095-0.594-13.601c0.11-4.805,0.469-9.526,0.398-14.351    C346.858,257.85,346.202,239.821,358.885,239.679z M300.299,363.977c-0.12-5.368,0.084-10.839-0.43-16.187    c-0.294-3.056-1.209-7.197-3.101-10.398c2.456,1.907,4.077,4.949,5.434,8.532c3.241,8.55,4.841,17.318,5.094,26.307    c-0.607,1.997-1.554,3.803-2.894,4.259c-1.076,0.366-2.312,0.301-3.573,0.123C301.506,372.499,300.392,368.112,300.299,363.977z     M301.626,334.87c-4.893-5.524-13.319-4.837-19.574-2.329c-6.579,2.638-10.66,8.206-12.376,14.914    c-1.192,4.661-0.932,9.449-1.114,14.224c-0.074,1.93-0.23,3.833-0.311,5.733c-7.584-0.922-16.916-1.589-24.483,0.445    c-0.073-2.047-0.245-4.095-0.324-6.176c-0.182-4.775,0.077-9.563-1.115-14.224c-1.715-6.708-5.798-12.276-12.376-14.914    c-6.255-2.508-14.681-3.195-19.574,2.329c-4.756,5.369-7.406,14.438-8.646,21.3c-0.799,4.428-1.185,8.64-1.082,12.846    c-0.026,0.101-0.043,0.208-0.068,0.311c-0.962-0.255-1.935-0.217-3.155-0.116c-2.195,0.183-4.131,0.008-6.295-0.046    c-1.978-0.05-4.327,0.076-6.488,0.532c0.169-3.309,0.337-6.618,0.442-9.922c0.438-13.646,0.96-27.237,0.015-40.873    c0.037-0.033,0.07-0.069,0.105-0.104c9.045,0.891,18.186,0.913,27.292,0.985c8.404,0.065,16.842,0.23,25.203-0.405    c2.97-0.036,6.003-0.31,8.669-0.28c9.219,0.102,19.076,1.144,28.464,0.321c8.186,0.586,16.444,0.429,24.668,0.365    c9.143-0.071,18.321-0.092,27.402-0.994c-0.956,13.674-0.431,27.302,0.009,40.986c0.106,3.304,0.274,6.613,0.442,9.922    c-2.16-0.456-4.51-0.582-6.488-0.532c-2.164,0.054-4.099,0.23-6.295,0.046c-1.22-0.102-2.193-0.141-3.155,0.116    c-0.024-0.102-0.042-0.209-0.068-0.311c0.104-4.206-0.281-8.418-1.082-12.846C309.033,349.307,306.382,340.239,301.626,334.87z     M274.104,348.675c1.518-6.748,7.078-12.478,14.213-13.289c0.685-0.078,1.326-0.099,1.946-0.096    c2.968,1.983,4.882,6.716,5.394,9.575c0.647,3.619,0.398,7.302,0.318,10.953c-0.087,3.978-0.392,8.023-0.26,12.002    c0.052,1.55,0.316,3.081,0.377,4.631c0.02,0.508-0.335,3.725,0.389,2.815c-0.173,0.217-0.305,0.465-0.407,0.72    c-5.002-0.125-10.068,0.01-15.052,0.195c-2.159,0.08-5.722,0.359-6.893-1.109c-0.956-1.199-0.609-5.406-0.549-7.005    C273.818,361.719,272.702,354.901,274.104,348.675z M269.02,377.196c-2.437-0.136-4.911,0.03-7.332,0.068    c-4.219,0.064-8.459-0.135-12.693-0.106c-2.002,0.015-4.009,0.023-6.016,0.054c0.358-1.163,0.433-2.477,0.621-4.003    c0.118-0.965,0.178-1.924,0.197-2.879c4.567,1.099,9.436,0.87,14.11,0.927c3.173,0.038,7.135,0.997,10.352,0.262    c0.033,0.562,0.077,1.124,0.146,1.69C268.592,374.728,268.666,376.038,269.02,377.196z M238.426,368.069    c0.06,1.598,0.406,5.806-0.548,7.005c-1.169,1.469-4.734,1.19-6.893,1.109c-4.984-0.185-10.052-0.32-15.052-0.195    c-0.104-0.255-0.234-0.502-0.407-0.72c0.725,0.909,0.369-2.307,0.389-2.815c0.061-1.55,0.325-3.081,0.377-4.631    c0.132-3.979-0.173-8.024-0.26-12.002c-0.079-3.651-0.329-7.333,0.319-10.953c0.511-2.859,2.426-7.592,5.394-9.575    c0.62-0.003,1.261,0.017,1.946,0.096c7.135,0.81,12.694,6.541,14.213,13.289C239.303,354.901,238.187,361.719,238.426,368.069z     M211.175,376.613c-1.261,0.178-2.497,0.242-3.573-0.123c-1.339-0.455-2.287-2.262-2.894-4.259    c0.253-8.989,1.853-17.757,5.093-26.307c1.357-3.583,2.978-6.625,5.434-8.532c-1.892,3.201-2.807,7.342-3.101,10.398    c-0.514,5.347-0.31,10.819-0.43,16.187C211.613,368.112,210.5,372.499,211.175,376.613z M201.083,377.777    c-2.883-0.388-6.119-0.104-8.686-0.151c-2.786-0.051-5.527-0.027-8.153,0.606c0.053-1.366,0.116-2.733,0.181-4.101    c2.233,0.317,4.68-0.237,6.857-0.149c2.813,0.115,6.111,0.658,8.928-0.131C200.3,375.234,200.571,376.588,201.083,377.777z     M311.793,373.852c2.817,0.789,6.115,0.244,8.928,0.131c2.177-0.089,4.624,0.466,6.857,0.149c0.065,1.368,0.129,2.734,0.181,4.101    c-2.626-0.631-5.367-0.656-8.153-0.606c-2.567,0.047-5.804-0.237-8.686,0.151C311.434,376.588,311.705,375.234,311.793,373.852z     M323.497,313.244c-3.617,0.365-7.011,0.455-10.657,0.432c-8.222-0.051-16.451,0.382-24.681,0.457    c-4.46,0.041-8.91-0.061-13.346,0.036c-7.489-0.675-15.293-0.223-22.64-0.151c-3.773,0.037-7.517,0.074-11.267,0.294    c-5.664-0.306-11.355-0.126-17.061-0.179c-8.23-0.075-16.458-0.508-24.681-0.457c-3.646,0.022-7.041-0.068-10.657-0.432    c-1.812-0.182-5.707,0.165-7.149-1.157c-2.789-2.558-0.188-8.679,2.535-10.014c1.005-0.493,2.75-0.953,4.367-1.305    c6.119,2.001,16.526,1.572,19.056,1.675c9.521,0.387,19.617,1.711,29.315,0.83c4.556,0.359,9.105,0.774,13.687,0.815    c5.259,0.047,10.445-0.575,15.693-0.624c3.049-0.028,6.118,0.01,9.159-0.207c9.76,0.918,19.929-0.425,29.516-0.815    c2.531-0.102,12.939,0.326,19.056-1.675c1.617,0.352,3.361,0.812,4.367,1.305c2.723,1.336,5.324,7.456,2.535,10.014    C329.203,313.409,325.309,313.06,323.497,313.244z M169.258,256.093c-0.675-10.817-6.63-23.171-19.449-20.543    c-9.907,2.031-14.414,14.358-12.997,23.588c-1.233,0.189-2.45,0.511-3.516,0.83c-3.18,0.205-6.348,0.306-9.52,0.504    c-0.022-10.519-4.78-21.799-17.375-20.039c-5.744,0.802-9.744,4.505-11.793,9.778c-1.489,3.835-3.161,9.345-1.884,13.629    c-3.151,0.053-6.9,1.242-9.556,2.195c-0.517,0.044-1.096,0.082-1.704,0.127c0.197-4.7-1.018-10.934-3.175-14.698    c-2.198-3.835-7.239-5.37-11.399-4.334c-4.403,1.097-7.738,4.392-9.459,8.559c-1.115,2.699-1.058,5.571-1.143,8.446    c-0.049,1.672-0.168,3.216,0.24,4.718c-0.104-0.383-7.745,2.8-8.756,2.506c-1.175-0.344-0.933-1.534-1.074-2.65    c-0.27-2.147-0.176-4.295-1.137-6.303c-1.646-3.436-4.834-4.681-8.466-4.655c-7.952,0.055-13.351,6.322-11.87,13.89    c-3.6,0.369-7.199,1.307-10.667,2.339c0.061-6.312-0.657-12.587-0.689-18.892c4.081-0.436,8.758-2.594,11.612-3.241    c9.916-2.248,19.671-4.5,29.517-7.011c17.791-4.538,35.601-9.159,53.239-14.206c16.417-4.697,33.819-6.01,50.825-7.991    c3.094,0.491,7.203-0.066,8.966-0.101c4.641-0.09,10.519,0.007,15.344-1.091c-0.093,1.523-0.095,3.082-0.118,4.732    c-0.054,3.695,1.333,9.493,0.242,12.988c-0.951,3.047-3.707,4.81-4.157,8.396c-0.263,2.091-0.26,5.134,0.872,6.97    c0.518,0.84,1.083,0.984,1.755,1.568c2.051,1.782,1.055-0.514,1.889,1.974c0.664,1.98-0.325,5.145-0.305,7.262    c0.017,1.807,0.287,3.588,0.286,5.399c-0.005,7.711-2.521,17.487-0.062,25.051c-0.098,0.532-0.071,1.018,0.043,1.468    c-2.127,0.594-4.037,1.748-5.505,3.434c-0.475-0.233-1.042-0.326-1.69-0.188c-1.045,0.223-2.172,0.003-3.237,0.102    c-1.336,0.125-2.669,0.348-4.004,0.501c0.02-0.28,0.041-0.572,0.064-0.879C170.516,285.596,170.175,270.781,169.258,256.093z     M165.416,281.015c0.104,4.506-0.597,9.054-0.594,13.6c0.001,1.448-0.23,2.874-0.359,4.311c-0.063,0.7,0.057,1.712-0.435,2.287    c-1.342,1.567-5.703,0.93-7.483,0.718c-1.604-0.191-3.179-0.391-4.789-0.355c-0.046,0.001-0.09,0.013-0.135,0.019    c-1.457-9.965-1.664-20.688-1.927-30.736c-0.128-4.885,0.37-9.891,0.649-14.763c0.306-5.334,0.365-11.273,2.346-16.402    c0.144-0.003,0.284-0.016,0.432-0.013c12.683,0.142,12.027,18.17,11.898,26.985C164.947,271.489,165.306,276.208,165.416,281.015z     M147.395,301.408c-1.702-0.133-3.407-0.24-5.116-0.31c0.945-4.08-0.024-8.601-0.512-12.718c-0.616-5.197-0.5-10.261-2.168-15.114    c0.984-0.643,1.883-1.572,2.761-2.932c1.691-2.616,3.284-6.881,0.818-9.697c-0.842-0.961-1.981-1.43-3.241-1.594    c0.969-0.519,0.76-3.051,0.884-3.908c0.395-2.746,0.571-5.022,1.84-7.573c1.634-3.283,3.683-6.127,6.898-7.304    c-1.157,2.473-1.522,5.789-1.873,7.877c-0.99,5.888-0.655,12.001-1.046,17.941C145.89,277.547,145.93,289.929,147.395,301.408z     M136.854,288.728c0.257,3.817-0.079,8.408,0.796,12.227c-4.106-0.086-8.224-0.099-12.343-0.235c-0.78-0.026-1.56-0.06-2.34-0.089    c-0.77-2.634-0.751-8.869-0.978-11.442c-0.436-4.944,0.016-10.203-1.309-15.027c0.633-0.024,1.253-0.054,1.828-0.036    c3.376,0.102,6.677,0.482,10.073,0.505c1.619,0.011,3.002-0.034,4.231-0.274C136.656,279.153,136.53,283.918,136.854,288.728z     M133.535,270.262c-3.127,0.411-6.321-0.208-9.429-0.349c-2.672-0.122-5.166,0.932-5.746-2.063    c-0.661-3.409,1.213-3.483,4.361-3.663c2.189-0.125,4.302-0.463,6.507-0.512c2.862-0.064,5.813-0.307,8.692-0.669    c0.854,0.07,1.522,0.194,1.768,0.43c0.104,0.1-0.131,3.002-0.871,4.137C137.428,269.693,135.856,269.957,133.535,270.262z     M116.703,273.636c0.43,0.218,0.895,0.355,1.379,0.437c-1.656,5.738-1.207,12.467-0.807,18.269c0.15,2.177-0.232,5.37,0.194,8.073    c-3.376-0.146-6.748-0.31-10.12-0.479c0.674-4.185-0.1-9.086-0.768-13.157c-0.85-5.181-1.426-10.711-1.436-15.997    c-0.017-8.419-0.752-18.529,3.349-26.269c3.887-0.054,6.853,2.091,8.834,5.74c1.771,3.261,1.836,6.936,1.843,10.622    c-2.682,0.418-4.048,1.428-4.438,4.545C114.364,268.359,113.36,271.937,116.703,273.636z M101.977,283.864    c0.477,5.245,0.938,10.638,1.669,15.883c-1.886-0.097-3.774-0.194-5.661-0.29c-2.53-6.456,0.779-15.564-2.325-21.949    c2.841-1.569,3-5.136,3.046-8.271c0.041-2.754-1.092-4.237-2.818-4.92c1.845-6.903,0.832-16.266,8.744-19.078    c-3.318,6.37-2.401,17.903-2.92,23.08C101.216,273.265,101.529,278.936,101.977,283.864z M92.321,284.52    c0.07,3.645,0.18,7.259,0.317,10.904c0.031,0.843,0.068,2.347,0.324,3.777c-3.773-0.185-7.547-0.357-11.325-0.499    c-1.72-6.462-0.902-13.454-1.893-20.106c0.316-0.011,0.622-0.021,0.911-0.023c3.664-0.012,7.756,0.52,11.523-0.063    C92.008,280.494,92.284,282.57,92.321,284.52z M80.301,274.79c-2.518,0.101-3.863,0.682-4.058-2.41    c-0.131-2.061,1.123-2.422,2.683-2.587c0.216,0.026,0.44,0,0.662-0.062c0.441-0.037,0.895-0.077,1.338-0.145    c3.549-0.554,7.021-1.132,10.475-1.837c1.579-0.187,2.941-0.064,3.027,2.062C94.702,276.598,84.863,274.606,80.301,274.79z     M75.748,292.377c0.092,1.556-0.084,4.027,0.323,6.116c-1.637-0.06-3.274-0.124-4.911-0.188c0.555-7.221-1.611-15.802-2.75-22.783    c-1.123-6.89-1.138-17.784,2.748-24.206c5.641,1.381,4.81,9.957,5.963,15.417c-1.516,0.359-2.83,0.943-3.497,1.955    c-1.132,1.715-1.194,6.11-0.25,7.915c0.654,1.249,1.83,1.749,3.137,1.935C75.713,283.064,75.479,287.863,75.748,292.377z     M67.413,298.145c-1.227-0.054-2.454-0.104-3.68-0.165c-0.286-4.089-0.361-8.246-1.141-12.284    c-0.256-1.325-0.512-2.592-0.747-3.927c-0.133-0.758-0.407-1.226-0.684-1.718c0.54-0.577,1.006-1.264,1.364-2.103    c0.873-2.045,1.432-5.654-0.14-7.534c-0.651-0.779-1.581-1.246-2.659-1.477c0.083-1.015,0.64-3.352,0.667-3.739    c0.144-2.008,0.008-4.065,0.458-6.044c0.774-3.408,3.439-7.214,7.099-7.895c-3.408,4.753-2.88,15.842-3.115,19.687    C64.297,279.834,66.378,289.236,67.413,298.145z M49.282,293.832c-0.369-1.909-0.201-3.773-0.475-5.68    c-0.262-1.834-0.299-4.133-0.905-6.08c0.707-0.02,1.415-0.046,2.067,0.008c1.899,0.156,3.934,0.306,5.836,0.203    c0.796-0.044,1.545-0.164,2.244-0.365c-0.055,1.462,0.122,2.967,0.258,4.359c0.361,3.726-0.078,7.731,0.646,11.436    c-3.178-0.196-6.353-0.419-9.521-0.717C49.694,295.92,49.495,294.933,49.282,293.832z M53.318,277.96    c-1.611-0.035-3.202-0.141-4.809-0.231c-1.452-0.081-3.309,0.413-2.811-1.736c0.2-0.865,1.354-1.509,2.883-1.996    c0.167,0.034,0.34,0.025,0.492-0.042c0.681-0.296,1.908-0.123,2.659-0.205c1.603-0.176,3.161-0.556,4.752-0.808    c2.341-0.373,3.507,0.325,2.612,2.762C58.148,278.291,55.591,278.007,53.318,277.96z M38.894,288.342    c-0.311-2.763-0.244-5.492-0.439-8.267c-0.368-5.262-2.692-13.176,0.642-17.946c2.079,0.57,3.018,2.148,3.2,5.065    c0.141,2.247,0.299,4.023,1.082,6.111c-0.574,0.774-0.966,1.746-1.103,2.977c-0.237,2.133,0.192,4.524,2.18,5.408    c-0.14,1.2-0.323,2.399-0.378,3.605c-0.089,1.975,0.197,3.904,0.106,5.899c-0.079,1.709-0.06,3.713,0.634,5.317    c-1.244-0.143-2.488-0.287-3.729-0.454c-0.589-0.079-1.179-0.162-1.767-0.242c0.108-0.185,0.196-0.389,0.229-0.636    C39.84,292.997,39.136,290.491,38.894,288.342z M28.967,288.16c0.021-1.432-0.123-3.531-0.871-5.06    c3.378-0.35,5.09-1.148,4.927-5.207c-0.154-3.832-0.573-6.268-4.682-6.41c0.255-2.045,0.243-4.245,1.208-5.914    c1.269-2.196,3.66-3.325,6.049-3.612c-0.423,1.043-0.697,2.306-0.89,3.026c-0.854,3.164-0.441,5.621-0.1,8.838    c0.484,4.567,0.49,9.077,0.737,13.642c0.132,2.44,0.077,5.8,1.407,8.003c-2.437-0.337-4.874-0.687-7.303-1.094    C30.039,292.596,28.949,289.401,28.967,288.16z M15.629,283.614c2.956,0.187,6.061,0.006,9.008-0.224    c-0.107,1.175,0.011,2.347,0.008,3.589c-0.004,2.208,0.169,4.126,0.412,6.304c0.011,0.102,0.034,0.197,0.053,0.294    c-1.975-0.396-3.941-0.84-5.889-1.357c-1.702-0.452-3.063-0.922-4.051-1.71C16.087,288.454,15.985,286.06,15.629,283.614z     M20.919,279.332c-1.864,0.146-3.319,0.187-5.175,0.037c-0.296-0.024-0.57-0.02-0.843-0.015c-0.151-0.915-0.271-1.811-0.328-2.677    c2.037,0.196,4.129-0.236,6.207-0.545c2.1-0.312,4.123-0.853,6.255-0.973c2.243-0.125,2.164,0.804,2.248,2.734    c0.035,0.825,0.247,0.837,0.003,1.034c-0.146,0.119-1.443,0.132-1.732,0.171C25.326,279.401,23.151,279.156,20.919,279.332z     M179.685,199.99c-2.766-0.012-5.733,0.599-8.155,0.953c-0.244-0.127-0.527-0.19-0.845-0.154    c-8.186,0.934-16.393,1.886-24.603,2.609c-7.449,0.655-15.126,0.66-22.489,1.992c-16.828,3.045-33.724,6.545-50.217,11.105    c-15.738,4.352-31.34,8.732-46.863,13.781c-1.592,0.518-6.384,1.922-7.684,1.237c-1.428-0.754-1.79-3.857-2.046-5.24    c-0.547-2.957-1.166-5.869-1.359-8.944c-0.083-1.342-1.086-15.792-2.231-20.378c2.995-1.417,5.854-3.557,8.39-5.034    c3.748-2.185,8.032-3.353,11.908-5.26c4.381-2.155,8.298-4.634,12.895-6.425c7.857-3.06,15.674-5.584,23.785-7.868    c9.24-2.601,18.496-6.338,27.926-8.132c8.63-1.642,17.241-2.826,25.752-5.109c9.168-2.458,17.94-5.511,27.496-6.406    c4.508-0.422,9.022-0.236,13.525-0.556c4.61-0.326,9.252-1.434,13.849-1.901c1.872-0.19,3.841-0.404,5.795-0.731    c3.89,2.246,0.171,14.979-0.015,17.95c-0.189,3.039,0.413,4.501,2.092,6.944c1.094,1.59,1.742,2.431,2.016,4.452    c0.25,1.849,0.167,2.423,0.644,3.649c-1.266,0.198-2.503,0.538-3.651,1.192c-3.988,2.274-6.406,8.667-6.561,12.985    C178.993,197.998,179.237,199.075,179.685,199.99z M322.481,283.376c0.352,4.077-0.429,8.389,0.733,12.338    c-1.401,0.8-3.872,0.382-5.38,0.45c-2.995,0.137-5.987,0.313-8.984,0.424c-4.749,0.177-9.498,0.162-14.236,0.529    c-7.068,0.547-14.27,0.61-21.382,1.139c-6.639-0.416-13.366,0.323-19.984,0.334c-3.938,0.008-7.844-0.073-11.741-0.098    c-7.993-0.751-16.138-0.759-24.112-1.375c-4.74-0.367-9.489-0.351-14.238-0.529c-2.997-0.111-5.989-0.287-8.984-0.424    c-1.509-0.07-3.979,0.349-5.38-0.45c1.162-3.949,0.38-8.26,0.733-12.338c0.341-3.938,0.18-7.887-0.028-11.842    c-0.237-4.506-0.663-8.933-0.787-13.458c-0.008-0.27-0.012-0.536-0.019-0.797c4.139,0.161,8.374-0.463,12.528-0.925    c-0.134,1.409-0.306,2.815-0.325,4.238c-0.017,1.177-0.204,2.672,0.402,3.743c0.081,3.401,0.531,6.859,0.487,10.264    c-0.046,3.534,0.071,7.611,3.075,10.034c2.81,2.266,8.559,2.037,11.943,1.909c4.912-0.188,9.991-0.187,14.886-0.591    c3.256-0.269,6.058-1.267,8.073-3.928c5.189-6.849,2.677-19.02,2.499-27.128c1.045,0.026,2.338,0.034,3.515-0.147    c2.266,0,4.547-0.257,6.104-0.24c4.117,0.044,9.1,0.537,13.688,0.108c1.334,0.314,2.934,0.31,4.184,0.278    c-0.178,8.108-2.69,20.28,2.499,27.128c2.016,2.661,4.818,3.659,8.073,3.928c4.895,0.405,9.974,0.404,14.886,0.591    c3.384,0.129,9.133,0.357,11.943-1.909c3.004-2.423,3.121-6.499,3.075-10.034c-0.044-3.405,0.406-6.863,0.487-10.264    c0.607-1.07,0.419-2.565,0.402-3.743c-0.02-1.423-0.193-2.828-0.326-4.238c4.153,0.463,8.389,1.086,12.528,0.925    c-0.007,0.261-0.012,0.527-0.019,0.797c-0.124,4.525-0.549,8.951-0.787,13.458C322.301,275.49,322.14,279.438,322.481,283.376z     M188.552,226.18c-0.048-3.295,0.418-6.997-0.94-10.058c4.192,0.774,9.62,0.133,12.939-0.129c6.98-0.552,13.928-1.398,20.906-2.05    c4.812-0.449,9.82-0.297,14.732-0.494c4.836,0.229,9.662,0.401,14.503,0.607c9.799,0.417,19.34,0.955,29.006-0.501    c3.646,0.055,7.302,0.056,10.851,0.387c6.978,0.652,13.926,1.498,20.906,2.05c3.318,0.262,8.746,0.904,12.939,0.129    c-1.357,3.062-0.891,6.764-0.94,10.058c-0.066,4.579-0.725,9.202-0.622,13.769c0.01,0.464,0.046,0.859,0.102,1.212    c-3.789-1.168-7.798-1.177-11.949-1.195c-0.679-0.002-1.353-0.008-2.02-0.004c-0.007-0.446-0.042-0.882-0.078-1.272    c-0.106-1.167-0.398-2.479-1.068-3.49c-0.457-3.211-1.93-6.539-3.361-8.658c-2.911-4.314-7.677-6.023-12.616-6.576    c-11.452-1.281-20.508,8.998-20.169,20.079c-2.132-0.502-4.337-0.502-6.536-0.229c-5.278-1.424-10.889-1.46-16.292-0.908    c-1.939,0.198-4.006,0.316-5.949,0.767c-0.861,0.057-1.716,0.172-2.56,0.37c0.339-11.081-8.718-21.36-20.169-20.079    c-4.939,0.553-9.705,2.261-12.616,6.576c-1.431,2.119-2.904,5.447-3.361,8.658c-0.669,1.013-0.962,2.323-1.068,3.49    c-0.035,0.389-0.07,0.826-0.078,1.272c-0.667-0.002-1.342,0.002-2.02,0.005c-4.151,0.018-8.162,0.026-11.949,1.195    c0.055-0.352,0.091-0.748,0.102-1.212C189.277,235.382,188.618,230.759,188.552,226.18z M296.513,263.845    c0.254-5.725,0.178-11.153-0.304-16.869c-0.357-4.236-0.219-17.12-4.612-21.851c0.004,0,0.009,0.001,0.013,0.001    c8.213,0.836,11.332,8.07,12.128,15.641c-1.544,0.731-2.659,2.109-2.996,4.705c-0.586,4.499,0.738,9.77,5.585,10.448    c-0.269,3.372-1.639,6.757-1.799,10.16c-0.156,3.334-0.073,6.916-0.496,10.224c-0.648,5.057-4.373,4.748-8.592,4.554    c0.101-0.113,0.196-0.236,0.271-0.384C298.183,275.67,296.28,269.09,296.513,263.845z M291.754,279.402    c-0.041,0.511,0.12,0.942,0.396,1.28c-2.701-0.161-5.383-0.337-8.13-0.317c-3.825,0.027-6.617,0.038-8.141-3.982    c-2.4-6.334-1.04-15.283-1.104-22.002c0-0.048-0.012-0.089-0.015-0.136c0.074-0.012,0.161-0.028,0.268-0.048    c1.713-0.328,2.784-1.342,3.323-2.992c0.891-2.724,0.152-6.55-1.903-8.76c1.282-3.907,1.028-8.179,2.948-11.931    c1.66-3.244,4.103-4.758,7.018-5.286c0.039,0.035,0.069,0.073,0.115,0.105c4.673,3.133,5.12,10.057,5.528,15.118    c0.347,4.3,0.655,8.792,0.601,13.107c-0.052,4.111-0.721,8.081-0.761,12.18C291.852,270.286,292.113,274.868,291.754,279.402z     M271.03,249.56c-0.661-0.053-1.298-0.152-1.965-0.142c-0.837,0.012-1.808,0.055-2.75,0.182c-4.749-0.616-9.942,0.171-14.439,0.2    c-1.476,0.01-3.743-0.201-6.012-0.172c-0.995-0.146-2.034-0.197-2.924-0.211c-0.666-0.01-1.303,0.09-1.965,0.142    c-0.122,0.01-1.58,0.099-1.007,0.176c-0.164-0.023-1.377-0.312-1.864-0.376c-0.017-0.197-0.247-0.688-0.292-1.092    c-0.066-0.598-0.061-1.495,0.113-2.073c0.475-1.58,1.89-2.13,3.442-2.597c0.131-0.039,0.265-0.063,0.396-0.098    c2.435,0.229,5.225-0.369,7.357-0.454c4.615-0.182,8.897,0.257,13.284-0.366c2.723,0.454,5.594,0.122,8.234,0.916    c1.552,0.467,2.967,1.016,3.442,2.597c0.173,0.577,0.179,1.476,0.114,2.073c-0.045,0.404-0.275,0.895-0.292,1.092    c-0.487,0.064-1.7,0.353-1.864,0.376C272.61,249.659,271.151,249.569,271.03,249.56z M220.11,265.736    c-0.039-4.099-0.71-8.07-0.761-12.18c-0.054-4.314,0.255-8.808,0.601-13.107c0.407-5.061,0.854-11.985,5.528-15.118    c0.047-0.031,0.075-0.071,0.115-0.105c2.914,0.528,5.358,2.042,7.018,5.286c1.92,3.753,1.666,8.024,2.948,11.931    c-2.056,2.211-2.795,6.036-1.903,8.76c0.54,1.65,1.61,2.664,3.323,2.992c0.107,0.02,0.194,0.036,0.268,0.048    c-0.002,0.047-0.013,0.088-0.015,0.136c-0.064,6.719,1.297,15.668-1.104,22.002c-1.524,4.021-4.317,4.009-8.141,3.982    c-2.747-0.019-5.429,0.156-8.13,0.317c0.276-0.338,0.436-0.77,0.396-1.28C219.893,274.868,220.154,270.286,220.11,265.736z     M211.263,245.472c-0.338-2.596-1.452-3.974-2.996-4.705c0.796-7.571,3.915-14.806,12.128-15.641    c0.004-0.001,0.009-0.001,0.013-0.001c-4.392,4.731-4.255,17.615-4.612,21.851c-0.482,5.716-0.558,11.144-0.304,16.869    c0.233,5.245-1.67,11.825,0.801,16.628c0.075,0.146,0.17,0.27,0.271,0.384c-4.219,0.194-7.943,0.504-8.592-4.554    c-0.424-3.308-0.34-6.89-0.496-10.224c-0.16-3.403-1.53-6.787-1.799-10.16C210.525,255.242,211.849,249.971,211.263,245.472z     M313.47,251.855c-1.66-0.2-3.654-0.074-5.27-0.544c-1.357-0.394-1.89-0.09-2.467-1.937c-0.156-0.502-0.429-2.117-0.266-2.614    c0.899-2.739,10.361-1.606,12.823-1.648c2.407-0.041,5.177-0.455,7.514,0.174c0.097,0.108,0.195,0.219,0.295,0.34    C333.935,255.026,317.828,252.381,313.47,251.855z M324.612,208.395c-0.949,2.401-5.079,2.253-7.423,2.548    c-4.931,0.62-9.582,0.316-14.513,0.14c-10.989-0.395-23.295-2.74-34.158-0.772c-0.214,0.038-0.376,0.146-0.516,0.278    c-5.824-0.549-11.649-0.861-17.658-1.063c-6.925-0.232-14.1-0.546-21.101,0.127c-6.722,0.32-13.539,1.2-19.913,1.43    c-4.931,0.177-9.583,0.481-14.513-0.14c-2.345-0.295-6.476-0.147-7.423-2.548c-0.544-1.378-0.553-2.825-0.801-4.286    c5.15,0.882,11.684-0.016,15.413-0.47c6.934-0.846,14.105-1.291,21.08-1.252c3.775,0.021,7.528-0.51,11.299-0.634    c0.764-0.025,1.523-0.03,2.275-0.041c4.062,0.035,8.11-0.005,12.185,0.002c5.381,0.009,10.797-0.204,16.168-0.063    c4.128,0.108,8.197,0.819,12.247,0.093c0.122,0.003,0.243,0.004,0.365,0.008c3.771,0.124,7.523,0.655,11.299,0.634    c6.975-0.039,14.146,0.406,21.08,1.252c3.729,0.455,10.263,1.353,15.413,0.47C325.166,205.57,325.157,207.017,324.612,208.395z     M193.715,245.113c2.462,0.042,11.923-1.091,12.823,1.648c0.163,0.496-0.109,2.112-0.266,2.614    c-0.577,1.847-1.11,1.542-2.467,1.937c-1.616,0.469-3.61,0.344-5.27,0.544c-4.358,0.525-20.465,3.171-12.629-6.228    c0.1-0.12,0.198-0.232,0.295-0.34C188.538,244.658,191.309,245.074,193.715,245.113z M329.705,171.676    c-0.128-7.347,0.88-14.77-0.685-21.955c1.405,0.226,2.824,0.395,4.266,0.541c4.598,0.467,9.239,1.575,13.849,1.901    c4.502,0.319,9.017,0.134,13.525,0.556c9.556,0.895,18.328,3.947,27.496,6.406c8.512,2.283,17.122,3.466,25.752,5.109    c9.43,1.795,18.686,5.532,27.926,8.132c8.111,2.283,15.928,4.807,23.785,7.868c4.597,1.791,8.515,4.269,12.895,6.425    c3.875,1.907,8.158,3.075,11.908,5.26c2.535,1.477,5.394,3.617,8.39,5.034c-1.145,4.585-2.148,19.035-2.231,20.378    c-0.191,3.075-0.812,5.987-1.359,8.944c-0.255,1.382-0.618,4.485-2.046,5.24c-1.3,0.687-6.093-0.719-7.684-1.237    c-15.523-5.048-31.125-9.429-46.863-13.781c-16.493-4.56-33.389-8.06-50.217-11.105c-7.362-1.332-15.039-1.336-22.489-1.992    c-4.995-0.439-9.988-0.967-14.977-1.522c-3.654-2.052-8.889-2.454-12.732-2.903c-1.912-0.223-3.924-0.606-5.793-0.53    c0.301-0.985,0.476-2.005,0.475-3.031c0.001-0.138-0.036-0.263-0.089-0.379c-0.453-3.064-1.819-6.675-3.908-9.161    C330.753,182.18,329.739,173.587,329.705,171.676z M330.951,134.651c3.603,0.272,7.362,0.687,10.91,1.325    c7.627,1.37,15.502,2.658,23,4.527c16.921,4.22,34.19,7.218,51.048,11.623c16.774,4.383,33.454,8.521,49.55,15.019    c8.091,3.266,16.151,6.375,24.017,10.173c1.992,0.962,4.001,1.869,6.01,2.773c1.169,0.78,2.337,1.562,3.528,2.3    c2.304,1.427,8.405,3.26,7.541,7.204c-0.804,3.671-3.167,2.286-5.341,1.666c-8.494-2.422-17.115-6.121-24.935-10.208    c-7.05-3.685-14.93-6.008-22.143-9.252c-9.211-4.143-18.258-7.836-27.81-11.081c-17.495-5.944-36.368-7.249-54.39-11.04    c-8.466-1.781-17.014-3.047-25.463-4.76c-4.412-0.895-8.695-1.765-13.187-1.803c-3.409-0.029-8.357,0.552-11.508-1.484    c0.382-1.22,0.564-2.534,1.128-3.577C324.494,135.114,328.027,134.43,330.951,134.651z M213.967,161.02    c0.889-6.425,6.627-5.018,11.078-5.64c2.438-0.341,5.112-1.097,7.001-2.767c1.5-1.325,2.008-3.256,3.668-4.473    c0.858-0.629,2.077-0.806,2.97-1.391c5.192-3.409,5.697-10.707,5.895-16.313c0.14-3.92-0.099-7.893,0.525-11.779    c0.396-2.468,0.684-4.783,3.115-5.826c1.451-0.624,3.694-0.454,5.266-0.443c9.715,0.063,19.446,0.233,29.174,0.225    c9.24-0.008,18.443,0.1,27.63,1.265c4.552,0.577,9.77,0.63,11.83,5.438c1.588,3.708,0.329,7.532,0.611,11.347    c-0.189,0.068-0.379,0.127-0.566,0.201c-4.487,1.786-8.307,8.236-6.2,12.957c1.278,2.864,4.135,3.346,6.782,4.321    c1.085,0.4,2.178,0.716,3.277,0.982c-1.292,7.059-2.137,14.393-2.1,21.529c0.009,1.789-0.97,7.662-0.558,11.988    c-1.369-0.272-2.784-0.348-4.169-0.431c-3.623-0.218-7.111-1.28-10.734-1.495c-7.369-0.437-14.755-0.368-22.141-0.868    c-2.289-0.154-4.517-0.229-6.721-0.253c-8.721-1.72-18.683-0.574-27.2-0.433c-4.527,0.075-9.062,0.308-13.594,0.505    c-4.31-0.136-8.599-0.125-13.118,0.181c-4.358,0.295-8.718,0.395-13.074,0.516c1.356-2.632,1.574-6.698,1.66-8.603    C214.429,168.322,213.501,164.39,213.967,161.02z M213.088,184.358c4.879-0.243,9.767-0.523,14.654-0.815    c8.504,0.459,17.04,0.405,25.567,0.521c5.862,0.08,11.721,0.041,17.583,0.015c2.78-0.012,5.663,0.388,8.46,0.247    c2.19,0.503,4.524,0.441,6.799,0.508c3.945,0.115,7.845,0.383,11.773,0.813c6.874,0.754,13.367,2.149,20.216,1.283    c2.605,0.443,4.655,0.885,6.137,3.418c1.094,1.87,2.044,4.721,1.973,6.898c-0.012,0.37-0.791,2.362-0.782,2.726    c-0.008,0.031-0.018,0.062-0.025,0.093c-1.552,0.985-7.947,0.571-10.089,0.362c-5.387-0.526-10.857-1.05-16.214-1.758    c-5.281-0.698-10.574-0.673-15.867-1.228c-3.315-0.348-7.14-0.785-10.686-0.364c-7.186-1.122-14.789-0.255-21.926-0.283    c-3.456-0.013-6.909,0.226-10.366,0.405c-3.783-0.616-7.969-0.136-11.558,0.241c-5.292,0.555-10.586,0.53-15.867,1.228    c-5.357,0.708-10.827,1.233-16.214,1.758c-2.18,0.213-8.777,0.64-10.179-0.413c0.337,0.253-0.703-2.342-0.717-2.77    c-0.071-2.176,0.879-5.028,1.973-6.898c1.682-2.876,4.094-3.056,7.222-3.604C201.088,185.669,206.861,184.669,213.088,184.358z     M192.874,146.74c1.117,0.083,2.267,0.044,3.45,0.198c4.444,0.58,4.684,2.692,5.635,6.218c1.042,3.862,3.92,6.242,7.733,7.117    c0.057,2.461,0.565,5.079,0.72,7.432c0.208,3.163,1.022,9.745-1.142,12.753c-1.909,0.064-3.818,0.142-5.725,0.256    c-3.477,0.206-6.831,1.185-10.299,1.456c1.074-3.137,0.974-6.864-1.007-9.59c-1.676-2.305-2.664-3.277-2.243-6.369    c0.355-2.608,0.87-5.094,0.976-7.742c0.101-2.534-0.418-7.235-2.285-9.871c1.021-0.303,2.015-0.661,2.958-1.096    C192.082,147.299,192.492,147.038,192.874,146.74z M10.791,191.261c-2.173,0.62-4.537,2.005-5.341-1.666    c-0.863-3.944,5.237-5.777,7.541-7.204c1.19-0.737,2.357-1.52,3.526-2.3c2.008-0.905,4.018-1.811,6.01-2.773    c7.864-3.798,15.926-6.907,24.017-10.173c16.096-6.498,32.776-10.636,49.55-15.019c16.858-4.404,34.127-7.403,51.048-11.623    c7.499-1.87,15.372-3.157,23-4.527c3.548-0.637,7.306-1.052,10.91-1.325c2.924-0.221,6.459,0.463,8.046,3.404    c0.564,1.045,0.746,2.358,1.127,3.577c-3.149,2.035-8.097,1.454-11.508,1.484c-4.492,0.038-8.775,0.908-13.187,1.803    c-8.449,1.713-16.997,2.979-25.463,4.76c-18.022,3.791-36.895,5.096-54.39,11.04c-9.552,3.245-18.6,6.939-27.81,11.081    c-7.213,3.244-15.093,5.567-22.143,9.252C27.906,185.14,19.286,188.839,10.791,191.261z M10.895,249.26    c-0.394-0.921-0.145-4.473-0.038-5.434c0.369-3.328,0.734-3.974,3.448-4.942c2.396-0.854,4.892-1.637,7.213-2.718    c3.591-1.398,7.238-2.676,10.842-4.042c4.453-1.688,9.262-2.754,13.852-4.01c4.481-1.226,8.855-3.017,13.405-3.95    c10.486-2.151,21.16-5.07,31.832-6.057c9.737-0.9,19.154-3.242,28.798-4.668c8.222-1.216,16.436-2.521,24.618-4.072    c4.604-0.872,9.232-1.619,13.838-2.474c1.82-0.338,3.669-0.527,5.502-0.768c1.907,0.038,3.819-0.1,5.428-0.182    c3.36-0.172,8.216,0.217,12.022-0.629c-0.831,3.461-0.721,7.519,2.251,9.465c0.179,0.117,0.377,0.219,0.573,0.322    c-0.059,0.187-0.061,0.384-0.008,0.572c-0.054,0.147-0.092,0.295-0.142,0.442c-4.933-0.421-10.379,0.667-15.281,1.081    c-0.629,0.053-1.251,0.093-1.867,0.131c-0.092-0.024-0.185-0.049-0.281-0.061c-8.786-1.003-17.798,0.89-26.497,1.899    c-7.579,0.879-15.467,1.819-22.926,3.367c-7.871,1.633-15.557,3.874-23.403,5.602c-7.768,1.711-15.566,3.076-23.237,5.259    c-7.804,2.221-15.751,4.113-23.363,6.932c-8.252,3.056-16.444,6.091-24.903,8.547C20.019,249.61,12.572,253.179,10.895,249.26z     M9.049,303.323c-3.64-1.706-3.784-6.402,0.637-7.675c0.438-0.126,1.037-0.237,1.679-0.325c4.417,3.801,12.565,4.456,17.718,5.393    c7.026,1.276,14.62,0.523,21.753,0.908c7.208,0.388,14.459,0.791,21.65,1.464c15.686,1.47,31.437,2.124,47.124,3.741    c7.97,0.822,15.942,0.492,23.917,1.075c5.171,0.377,9.948,0.463,14.876-0.43c1.935,0.017,3.908-0.207,5.82-0.463    c1.273-0.17,2.211-0.397,2.913-0.718c1.267,0.079,2.766-0.152,3.989-0.259c1.482-0.129,3.056-0.125,4.583-0.254    c-0.716,2.423-0.871,4.733-0.179,7.164c-2.211-0.107-4.371,0.084-6.577,0.342c-0.256-0.11-0.521-0.191-0.791-0.198    c-28.594-0.717-57.255,0.637-85.788-2.576c-13.7-1.543-27.442-1.782-41.112-3.869c-3.379-0.516-6.728-0.64-10.139-0.827    c-3.403-0.186-6.67-0.943-10.068-1.285C17.675,304.187,12.072,304.74,9.049,303.323z M172.237,396.39    c-0.093-0.017-0.188-0.034-0.29-0.039c-10.34-0.556-20.747,0.043-31.099-0.412c-9.919-0.436-19.752-1.774-29.602-2.983    c-9.616-1.18-19.091-2.435-28.657-4.007c-8.854-1.455-17.997-2.31-26.729-4.317c-8.873-2.038-17.524-3.75-25.998-7.156    c-4.534-1.822-9.691-3.587-12.339-7.929c-1.992-3.268-2.219-7.378-2.419-11.086c-0.141-2.6-0.348-5.196-0.574-7.791    c3.891,2.061,8.881,2.536,12.992,3.488c7.54,1.746,14.988,3.983,22.537,5.634c13.318,2.913,26.215,6.032,39.877,7.044    c14.331,1.061,28.654,2.026,42.964,3.182c5.069,0.409,10.33,0.42,15.479,0.388c4.382,1.085,9.136,0.816,13.62,1.051    c2.743,0.144,5.569-0.23,8.302-0.461c2.799-0.237,5.145-0.048,7.382-0.774c-0.168,2.75-0.326,5.5-0.526,8.237    c-0.335,4.598-1.551,11.452,0.817,15.801c0.212,0.634,0.501,1.232,0.827,1.811C176.635,396.112,174.452,396.256,172.237,396.39z     M179.996,335.179c-0.235,7.971-0.591,15.782-1.437,23.712c-0.178,1.664-0.324,3.334-0.454,5.007    c-4.193-1.535-9.578,0.241-14.094,0.78c-3.743-0.155-7.561-0.055-11.038-0.047c-6.591,0.015-13.604,0.308-20.153-0.393    c-13.348-1.431-26.78-1.892-40.149-3.365c-26.207-2.888-52.907-6.561-78.423-13.325c-0.484-5.277-0.992-10.555-1.177-15.863    c-0.158-4.499-0.531-8.938-0.557-13.464c-0.018-3.069,0.346-6.472,0.084-9.628c2,0.183,3.935,0.243,5.46,0.396    c7.674,0.769,15.874,1.475,23.398,3.094c13.778,2.968,27.458,3.454,41.388,5.028c14.374,1.623,29.157,2.333,43.639,2.277    c8.621-0.034,17.479,0.549,26.05-0.241c3.382-0.312,8.338,0.633,12.363,0.037c0.152,0.008,0.302,0.013,0.455,0.022    c4.631,0.265,9.358,0.824,13.944-0.213c0.136-0.03,0.244-0.097,0.366-0.145c0.147,0.042,0.284,0.079,0.386,0.095    c0.489,0.078,0.959,0.179,1.428,0.271C180.205,324.391,180.152,329.902,179.996,335.179z M326.75,393.772    c-2.384,1.617-8.382,1.527-11.206,1.792c-5.116,0.477-10.33,0.561-15.397,1.278c-6.509,0.921-12.966,1.539-19.557,1.746    c-4.583,0.144-10.089-0.777-14.568,0.548c-5.246,0.031-10.488,0.101-15.734,0.261c-1.135,0.035-2.273,0.042-3.413,0.038    c-4.625-1.754-10.567-0.693-15.459-0.846c-6.591-0.207-13.048-0.824-19.556-1.746c-5.067-0.717-10.281-0.8-15.398-1.278    c-2.824-0.264-8.822-0.174-11.206-1.792c-0.568-0.386-1.01-0.931-1.36-1.569c0.78-3.167,0.301-6.885,0.248-10.149    c2.957,0.425,6.244-0.046,9.071,0.158c3.758,0.27,7.925,1.202,11.133-0.952c0.227,0.102,0.447,0.215,0.697,0.288    c4.159,1.22,9.153-0.209,13.399-0.137c4.394,0.074,8.723,0.035,13.1,0.36c2.154,0.16,4.446,0.237,6.532-0.33    c3.293-0.053,6.586-0.084,9.892-0.051c4.556,0.046,9.184,0.272,13.723,0.114c3.504-0.123,7.041,0.19,10.376-0.795    c2.516,1.354,5.576,1.271,8.398,1.061c4.375-0.325,8.704-0.286,13.1-0.36c4.246-0.072,9.24,1.357,13.399,0.137    c0.251-0.073,0.469-0.186,0.698-0.288c3.207,2.156,7.374,1.222,11.133,0.952c2.827-0.204,6.113,0.268,9.071-0.158    c-0.053,3.264-0.532,6.982,0.248,10.149C327.76,392.841,327.319,393.386,326.75,393.772z M496.903,358.461    c-0.2,3.707-0.427,7.818-2.419,11.086c-2.647,4.341-7.805,6.106-12.339,7.929c-8.473,3.405-17.125,5.117-25.998,7.156    c-8.733,2.007-17.877,2.861-26.729,4.317c-9.566,1.572-19.042,2.829-28.657,4.007c-9.849,1.209-19.683,2.547-29.602,2.983    c-10.352,0.455-20.76-0.145-31.099,0.412c-0.102,0.006-0.196,0.023-0.29,0.039c-2.215-0.135-4.399-0.278-6.562-0.319    c0.326-0.58,0.617-1.178,0.827-1.811c2.368-4.348,1.153-11.203,0.817-15.801c-0.199-2.737-0.359-5.487-0.526-8.237    c2.237,0.726,4.582,0.537,7.382,0.774c2.733,0.232,5.559,0.606,8.302,0.462c4.483-0.234,9.238,0.034,13.62-1.051    c5.148,0.03,10.411,0.02,15.479-0.388c14.31-1.155,28.633-2.12,42.964-3.182c13.662-1.012,26.56-4.131,39.877-7.044    c7.547-1.65,14.996-3.888,22.537-5.634c4.111-0.952,9.102-1.427,12.992-3.488C497.25,353.265,497.043,355.861,496.903,358.461z     M498.933,331.685c-0.186,5.308-0.693,10.586-1.177,15.863c-25.516,6.764-52.216,10.436-78.423,13.325    c-13.37,1.473-26.8,1.935-40.149,3.365c-6.549,0.702-13.561,0.407-20.153,0.393c-3.477-0.008-7.295-0.109-11.038,0.047    c-4.517-0.539-9.902-2.315-14.094-0.78c-0.129-1.673-0.276-3.343-0.454-5.007c-0.846-7.93-1.202-15.74-1.437-23.712    c-0.159-5.374-0.206-10.99-1.545-16.249c3.3,1.131,8.161,0.5,10.843,0.697c2.598,0.191,5.935,0.395,8.89-0.234    c3.271,0.003,6.724-0.481,9.277-0.245c8.57,0.79,17.429,0.208,26.049,0.241c14.482,0.055,29.264-0.654,43.638-2.277    c13.93-1.574,27.61-2.06,41.388-5.028c7.523-1.62,15.723-2.327,23.398-3.094c1.525-0.153,3.46-0.213,5.46-0.396    c-0.262,3.156,0.102,6.559,0.084,9.628C499.464,322.747,499.091,327.186,498.933,331.685z M502.956,303.323    c-3.023,1.417-8.627,0.864-12.004,1.206c-3.398,0.342-6.666,1.1-10.068,1.285c-3.412,0.187-6.761,0.312-10.14,0.827    c-13.669,2.087-27.411,2.325-41.111,3.869c-28.533,3.214-57.193,1.861-85.788,2.576c-0.26,0.007-0.514,0.082-0.761,0.185    c-0.155,0-0.307,0.002-0.465-0.002c-2.001-0.059-4.085-0.225-6.163-0.249c0.552-1.891,0.594-3.705,0.255-5.556    c3.094,0.646,6.838,0.111,9.524-0.421c0.207-0.041,0.388-0.109,0.559-0.189c0.306,0.057,0.63,0.11,0.987,0.159    c1.912,0.255,3.885,0.479,5.82,0.463c4.928,0.891,9.704,0.807,14.876,0.43c7.975-0.583,15.946-0.252,23.917-1.075    c15.687-1.617,31.438-2.271,47.124-3.741c7.191-0.674,14.441-1.077,21.651-1.464c7.133-0.385,14.727,0.368,21.753-0.908    c5.153-0.937,13.301-1.592,17.718-5.393c0.643,0.088,1.242,0.199,1.679,0.325C506.74,296.92,506.597,301.616,502.956,303.323z"/>
	</g>
</g>
<g>
	<g>
		<path d="M277.459,134.129c0.117-3.472,2.022-10.178-2.006-12.2c-3.869-1.944-12.156-2.132-16.192-0.64    c-4.094,1.513-5.2,5.49-5.098,9.4c-0.79,4.141-0.577,9.365-0.37,12.708c0.323,5.213,0.966,9.492,6.674,10.519    c4.079,0.734,11.174,1.813,14.32-1.578C278.497,148.337,277.296,139,277.459,134.129z M272.668,134.129    c-0.134,3.73-0.114,7.493-0.577,11.2c-0.335,2.686-0.215,3.377-2.912,3.981c-1.404,0.314-3.391-0.195-4.784-0.322    c-0.764-0.071-3.353-0.017-3.958-0.409c-1.436-0.932-1.589-3.666-1.847-5.174c-0.568-3.326-0.819-6.949-0.971-10.342    c-0.16-3.537,1.901-6.208,5.186-7.341c2.724-0.94,7.364-1.821,9.779,0.351C274.382,127.689,272.752,131.811,272.668,134.129z"/>
	</g>
</g>
<g>
	<g>
		<path d="M308.195,121.201c-2.771-1.656-7.718-0.932-10.824,0.403c-3.576,0.003-7.206,0.657-9.313,3.027    c-2.643,2.97-1.975,9.239-2.037,12.918c-0.043,2.553,0.314,5.099,0.341,7.645c0.019,1.846-0.511,4.533,0.516,6.261    c2.137,3.597,10.296,4.022,13.83,3.508c10.156-1.473,8.813-15.192,9.239-22.844C310.119,129.023,311.516,123.185,308.195,121.201z     M305.396,131.427c-0.237,5.675,0.774,18.711-6.74,18.94c-1.757,0.054-4.131-0.057-5.771-0.846    c-2.089-1.004-1.809-1.092-1.98-3.683c-0.169-2.551-0.384-5.127-0.531-7.688c-0.123-2.141-0.475-5.231-0.01-7.307    c1.469-6.573,8.658-5.429,13.742-6.148c0.209,0.077,0.403,0.167,0.562,0.283C306.316,126.187,305.48,129.426,305.396,131.427z"/>
	</g>
</g>
<g>
</g>
<g>
</g>
<g>
</g>
<g>
</g>
<g>
</g>
<g>
</g>
<g>
</g>
<g>
</g>
<g>
</g>
<g>
</g>
<g>
</g>
<g>
</g>
<g>
</g>
<g>
</g>
<g>
</g>
</svg>
