<?xml version="1.0" encoding="iso-8859-1"?>
<!-- Generator: Adobe Illustrator 19.0.0, SVG Export Plug-In . SVG Version: 6.00 Build 0)  -->
<svg xmlns="http://www.w3.org/2000/svg" xmlns:xlink="http://www.w3.org/1999/xlink" version="1.1" id="Layer_1" x="0px" y="0px" viewBox="0 0 512 512" style="enable-background:new 0 0 512 512;" xml:space="preserve">
<g>
	<g>
		<path d="M511.68,343.313c0.03-2.378,0.799-4.806-0.159-7.088c-0.956-2.278-3.598-3.514-6.35-3.952    c-2.254-0.521-4.556-0.872-6.889-1.091c0.992-3.002,0.216-6.844-2.825-8.129c-0.88-0.371-1.918-0.576-3.004-0.69    c0.011-0.067,0.029-0.128,0.034-0.199c0.488-6.582,1.301-13.308,1.099-19.876c-0.234-7.613-0.353-15.357-0.13-22.972    c0.291-9.921,0.822-21.035-0.781-31.31c0.799,0.218,1.65,0.21,2.482-0.071c2.974-1.009,5.293-4.42,5.114-7.47    c-0.121-2.033-0.711-3.679-1.807-4.928c2.218,0.024,4.412-0.193,6.182-0.913c3.863-1.572,3.216-5.512,3.017-9.01    c-0.185-3.246,0.387-10.141-1.803-12.973c-2.247-2.909-8.339-1.916-11.533-2.079c-5.765-0.296-11.512,0.578-17.272,0.249    c-5.577-0.32-11.186-0.508-16.774-0.487c-11.693,0.045-23.426-0.352-35.147-0.291c-2.985,0.016-5.975-0.272-8.922-0.491    c-3.38-0.251-6.558,0.889-9.823,1.558c-5.753,1.178-11.808,0.632-17.637,0.565c-3.622-0.042-6.999-0.234-10.687,0.072    c-0.859,0.071-1.737,0.108-2.62,0.137c0.507-3.282,1.094-7.131-1.421-9.481c-3.651-3.411-9.055-5.955-13.484-8.263    c-10.799-5.629-21.332-11.49-32.352-16.782c-10.71-5.143-21.93-10.29-33.128-14.249c-6.498-2.298-12.658-5.247-18.891-8.2    c-1.973-0.935-4.253-2.179-6.612-3.18c-1.251-0.718-2.581-1.351-3.775-2.067c-3.576-2.146-7.657-3.744-11.818-2.599    c-5.034,1.385-10.179,3.956-15.062,5.905c-1.949,0.777-4.121,1.537-5.488,3.087c-5.415,2.56-10.815,5.054-16.471,7.054    c-11.198,3.96-22.419,9.107-33.128,14.249c-11.02,5.291-21.553,11.152-32.352,16.782c-4.43,2.309-9.833,4.852-13.484,8.263    c-2.515,2.35-1.929,6.199-1.421,9.481c-0.883-0.029-1.761-0.066-2.62-0.137c-3.687-0.306-7.065-0.114-10.687-0.072    c-5.828,0.067-11.883,0.614-17.637-0.565c-3.267-0.67-6.443-1.809-9.823-1.558c-2.947,0.219-5.938,0.507-8.922,0.491    c-11.72-0.061-23.453,0.336-35.146,0.291c-5.59-0.021-11.197,0.167-16.774,0.487c-5.759,0.329-11.506-0.545-17.272-0.249    c-3.195,0.164-9.285-0.83-11.533,2.079c-2.189,2.832-1.617,9.727-1.803,12.973c-0.2,3.498-0.846,7.438,3.017,9.01    c1.771,0.72,3.964,0.938,6.182,0.913c-1.095,1.249-1.686,2.896-1.807,4.928c-0.181,3.049,2.138,6.461,5.114,7.47    c0.832,0.282,1.683,0.289,2.482,0.071c-1.601,10.275-1.07,21.388-0.781,31.31c0.223,7.615,0.103,15.359-0.13,22.972    c-0.201,6.567,0.612,13.293,1.099,19.876c0.005,0.07,0.024,0.132,0.034,0.199c-1.086,0.113-2.124,0.318-3.004,0.69    c-3.042,1.285-3.817,5.128-2.825,8.129c-2.333,0.218-4.634,0.57-6.889,1.091c-2.752,0.438-5.394,1.673-6.35,3.952    c-0.958,2.283-0.19,4.711-0.159,7.088c0.041,3.249-0.092,6.568-0.104,9.817c-0.016,4.136-0.617,8.368,4.16,9.336    c7.718,1.563,16.229,0.676,24.048,0.659c13.446-0.029,26.853,1.19,40.294,1.152c7.225-0.021,14.415-0.472,21.627-0.478    c7.839-0.008,17.486,1.525,24.983-0.945c0.117,0.085,0.23,0.17,0.369,0.255c2.607,1.589,7.581,1.247,10.697,1.118    c11.791-0.491,23.548-0.227,35.351-0.055c12.29,0.18,24.574,0.495,36.872,0.701c6.526,0.11,13.046,0.418,19.586,0.452    c3.421,0.018,7.007-0.043,10.533-0.338c0.257,0.001,0.517,0,0.771,0.003c9.505,0.131,19.044-0.252,28.54-0.009    c8.496,0.219,17.164,0.41,25.786,0.045c3.343,0.255,6.729,0.314,9.968,0.297c6.539-0.036,13.059-0.342,19.586-0.452    c12.298-0.206,24.582-0.522,36.872-0.701c11.802-0.172,23.559-0.435,35.35,0.055c3.116,0.129,8.09,0.472,10.697-1.118    c0.139-0.085,0.252-0.17,0.369-0.255c7.499,2.47,17.144,0.938,24.983,0.945c7.211,0.006,14.402,0.458,21.627,0.478    c13.44,0.038,26.848-1.182,40.294-1.152c7.82,0.017,16.329,0.903,24.048-0.659c4.777-0.968,4.176-5.2,4.16-9.336    C511.771,349.882,511.638,346.562,511.68,343.313z M494.528,328.044c0.283,0.793,0.515,2.074,0.057,2.894    c-4.271-0.183-8.6-0.052-12.874,0.088c-0.268,0.001-0.536,0-0.805,0.002c-0.282,0.002-0.526,0.023-0.752,0.048    c-0.506,0.016-1.011,0.031-1.515,0.045c-0.186-0.117-0.305-0.365-0.382-0.882c0.033,0.223,0.385-3.772,0.3-4.276    c1.414,0.272,2.776,0.286,4.133,0.209c3.1,0.037,6.37,0.194,9.398-0.065C493.17,326.306,494.084,326.8,494.528,328.044z     M464.522,323.054c-0.881-0.372-1.918-0.576-3.004-0.69c0.011-0.067,0.029-0.128,0.034-0.199    c0.488-6.582,1.301-13.308,1.099-19.876c-0.234-7.613-0.353-15.357-0.13-22.972c0.291-9.921,0.822-21.035-0.781-31.31    c0.799,0.218,1.65,0.21,2.482-0.071c2.974-1.009,5.293-4.42,5.114-7.47c-0.129-2.184-0.79-3.928-2.048-5.204    c2.606-0.004,5.214,0.058,7.823,0.26c0.346,0.027,0.692,0.043,1.038,0.065c-0.452,0.668-0.845,1.449-1.172,2.374    c-1.179,3.339-0.586,9.398,4.01,9.837c0.832,0.08,1.768-0.185,2.636-0.657c-0.583,5.373-0.172,11.08-0.233,16.295    c-0.074,6.441-0.787,12.827-0.673,19.246c0.235,13.149,0.436,26.516-0.113,39.651c-0.88-0.075-1.752-0.132-2.585-0.085    c-3.535,0.202-3.214,4.274-3.529,6.914c-0.09,0.76-0.127,1.44-0.099,2.045c-0.409,0.003-0.819,0.01-1.225,0.01    c-1.939,0.001-3.878-0.022-5.817-0.04C468.339,328.178,467.563,324.337,464.522,323.054z M433.588,323.054    c-0.88-0.372-1.918-0.576-3.004-0.69c0.011-0.067,0.029-0.128,0.034-0.199c0.488-6.582,1.301-13.308,1.099-19.876    c-0.234-7.613-0.353-15.357-0.13-22.972c0.291-9.921,0.822-21.035-0.78-31.31c0.799,0.218,1.65,0.21,2.481-0.071    c2.974-1.009,5.293-4.42,5.114-7.47c-0.13-2.199-0.798-3.955-2.075-5.234c2.117,0.011,4.232,0.059,6.343,0.204    c0.856,0.058,1.711,0.082,2.567,0.115c-0.462,0.675-0.861,1.47-1.194,2.41c-1.179,3.339-0.586,9.398,4.01,9.837    c0.832,0.08,1.768-0.185,2.636-0.657c-0.583,5.373-0.172,11.08-0.233,16.295c-0.075,6.441-0.787,12.827-0.673,19.246    c0.235,13.149,0.436,26.516-0.113,39.651c-0.88-0.075-1.752-0.132-2.585-0.085c-3.535,0.202-3.213,4.274-3.529,6.914    c-0.073,0.617-0.108,1.177-0.106,1.691c-1.757-0.017-3.514-0.04-5.272-0.041c-0.553,0-1.105,0.018-1.658,0.024    C437.345,327.893,436.515,324.289,433.588,323.054z M416.69,325.963c1.414,0.272,2.776,0.286,4.133,0.209    c3.1,0.037,6.37,0.194,9.398-0.065c1.081,0.198,1.996,0.692,2.44,1.936c0.28,0.783,0.508,2.043,0.073,2.863    c-2.36,0.069-4.718,0.153-7.08,0.215c-0.497-0.066-0.924-0.11-1.232-0.108c-1.794,0.015-3.589-0.005-5.383,0.012    c-0.538,0.005-0.957,0.068-1.3,0.12c-0.323-0.009-0.646-0.017-0.97-0.028c-0.184-0.118-0.303-0.366-0.379-0.88    C416.423,330.462,416.777,326.467,416.69,325.963z M427.661,260.365c-0.032,2.981-0.375,6.02-0.103,8.987    c0.315,3.45,0.148,6.515-0.001,9.965c-0.339,7.887-0.207,15.986,0.085,23.872c0.106,2.853-0.637,5.505-0.686,8.338    c-0.061,3.594-0.271,7.063-0.552,10.639c-0.003,0.036,0.003,0.066,0.002,0.1c-0.655,0.019-1.288,0.044-1.865,0.061    c-0.513,0.016-1.032,0.059-1.552,0.112c1.472-4.614,0.143-11.151,0.138-15.577c-0.009-7.481,0.065-14.968-0.04-22.45    c-0.094-6.687,0.483-13.285,0.422-19.99c-0.036-4,0.18-7.999,0.09-12c-0.073-3.295-0.073-7.7-1.124-10.831    c-0.127-0.38-0.298-0.77-0.623-1.005c-1.88-1.349-4.006,5.273-5.006,0.991c-0.588-2.518,1.064-4.536,3.339-5.214    c2.537-0.756,5.362-0.447,7.964-0.525c0.283-0.009,0.542-0.011,0.8-0.013c1.233,0.15,2.455,0.328,3.574,0.775    c1.979,0.788,3.183,3.03,2.269,5.114c-0.294,0.67-1.281,1.604-1.879,2.026c-1.789,1.261-1.959-1.028-2.33-2.301    c-0.229-0.785-0.771-1.624-1.588-1.65c-0.615-0.02-1.158,0.459-1.407,1.022C425.14,246.338,427.724,254.539,427.661,260.365z     M458.593,260.365c-0.032,2.981-0.375,6.02-0.103,8.987c0.315,3.45,0.148,6.515-0.001,9.965    c-0.339,7.887-0.207,15.986,0.085,23.872c0.106,2.853-0.637,5.505-0.686,8.338c-0.061,3.594-0.271,7.063-0.552,10.639    c-0.003,0.036,0.003,0.066,0.002,0.1c-0.655,0.019-1.288,0.044-1.865,0.061c-0.511,0.016-1.03,0.059-1.552,0.112    c1.472-4.614,0.143-11.151,0.138-15.577c-0.009-7.481,0.065-14.968-0.04-22.45c-0.094-6.687,0.483-13.285,0.422-19.99    c-0.037-4,0.18-7.999,0.09-12c-0.073-3.295-0.073-7.7-1.124-10.831c-0.127-0.38-0.297-0.77-0.623-1.005    c-1.88-1.349-4.006,5.273-5.006,0.991c-0.588-2.518,1.064-4.536,3.339-5.214c2.537-0.756,5.362-0.447,7.964-0.525    c0.283-0.009,0.542-0.011,0.8-0.013c1.233,0.15,2.455,0.328,3.574,0.775c1.979,0.788,3.183,3.03,2.269,5.114    c-0.294,0.67-1.281,1.604-1.879,2.026c-1.789,1.261-1.959-1.028-2.33-2.301c-0.229-0.785-0.771-1.624-1.588-1.65    c-0.615-0.02-1.158,0.459-1.407,1.022C456.074,246.338,458.658,254.539,458.593,260.365z M447.624,325.963    c1.414,0.272,2.776,0.286,4.133,0.209c3.1,0.037,6.37,0.194,9.398-0.065c1.081,0.198,1.995,0.692,2.44,1.936    c0.309,0.864,0.558,2.308-0.083,3.101c-2.692-0.037-5.385-0.081-8.078-0.127c-0.025,0-0.055-0.002-0.078-0.002h-0.079    c-2.588-0.045-5.176-0.088-7.766-0.124c-0.078-0.15-0.142-0.347-0.187-0.651C447.357,330.462,447.709,326.467,447.624,325.963z     M496.662,241.715c-0.294,0.67-1.281,1.604-1.879,2.026c-1.789,1.261-1.959-1.028-2.33-2.301c-0.229-0.785-0.771-1.624-1.588-1.65    c-0.615-0.02-1.158,0.459-1.407,1.022c-2.45,5.525,0.134,13.728,0.07,19.552c-0.032,2.981-0.375,6.02-0.103,8.987    c0.315,3.45,0.148,6.515-0.001,9.965c-0.339,7.887-0.207,15.986,0.085,23.872c0.106,2.853-0.637,5.504-0.686,8.338    c-0.061,3.594-0.271,7.063-0.552,10.639c-0.003,0.036,0.003,0.066,0.002,0.1c-0.655,0.019-1.288,0.044-1.865,0.061    c-0.511,0.016-1.032,0.059-1.552,0.112c1.472-4.614,0.143-11.151,0.138-15.577c-0.009-7.482,0.065-14.968-0.04-22.45    c-0.094-6.687,0.483-13.285,0.422-19.99c-0.037-4,0.18-7.999,0.09-12c-0.073-3.295-0.073-7.7-1.124-10.831    c-0.127-0.38-0.297-0.77-0.623-1.005c-1.88-1.349-4.006,5.273-5.006,0.991c-0.588-2.518,1.064-4.536,3.339-5.214    c2.537-0.756,5.362-0.447,7.964-0.526c0.283-0.009,0.542-0.011,0.8-0.013c1.233,0.15,2.455,0.328,3.575,0.775    C496.372,237.39,497.575,239.631,496.662,241.715z M502.489,227.049c-0.019,2.716,0.296,1.981-1.685,2.663    c-1.57,0.541-3.256,0.851-4.953,1.099c-2.258-0.108-4.209-0.153-4.639-0.12c-5.461,0.417-10.838,0.822-16.299,0.283    c-9.214-0.909-18.57-0.242-27.81-0.362c-11.525-0.149-23.072,0.146-34.606,0.133c-0.143-2.172-0.172-4.353-0.165-6.541    c2.746,0.048,5.491,0.137,8.196,0.344c9.341,0.712,18.819-0.653,28.213,0.031c11.113,0.809,22.217,0.172,33.302,0.708    c4.721,0.228,9.502-0.369,14.22-0.473c2.158-0.047,4.201-0.234,6.21-0.773C502.487,225.045,502.497,226.048,502.489,227.049z     M413.217,214.974c0.107-0.09,0.221-0.17,0.338-0.247c4.531-0.038,9.063-0.091,13.596-0.095c9.404-0.008,18.9-0.348,28.271,0.333    c8.572,0.622,17.729,1.05,26.314,0.836c4.865-0.121,9.598-0.348,14.449,0.031c1.293,0.101,3.769-0.395,4.795,0.079    c1.456,0.673,1.224,2.327,1.336,4.04c0.05,0.752,0.069,1.503,0.096,2.256c-7.458,0.354-15.345,0.464-22.733-0.138    c-5.397-0.44-10.79,0.281-16.186-0.049c-5.514-0.338-11.041-0.381-16.551-0.767c-9.836-0.688-19.818,0.083-29.656-0.179    c-1.652-0.044-3.296-0.112-4.941-0.177c0-0.018,0-0.038,0-0.056C412.35,218.896,411.774,216.203,413.217,214.974z     M411.417,240.464c-0.111-1.864-0.609-3.411-1.539-4.619c0.036-0.001,0.071,0.001,0.107,0c0.753-0.016,2.279-0.468,2.961-0.181    c1.594,0.671-0.012,2.458-0.248,4.001c-0.494,3.232,0.529,7.761,4.42,8.133c0.833,0.08,1.769-0.185,2.637-0.657    c-0.583,5.373-0.172,11.08-0.233,16.295c-0.074,6.441-0.787,12.827-0.673,19.246c0.235,13.149,0.436,26.516-0.113,39.651    c-0.88-0.075-1.752-0.132-2.585-0.085c-3.535,0.202-3.214,4.274-3.529,6.914c-0.079,0.659-0.114,1.254-0.104,1.796    c-0.996-0.039-1.993-0.074-2.989-0.101c0.833-2.949,0.008-6.567-2.927-7.806c-0.88-0.371-1.918-0.576-3.004-0.69    c0.011-0.067,0.029-0.128,0.034-0.199c0.488-6.582,1.301-13.308,1.099-19.876c-0.234-7.613-0.353-15.357-0.13-22.972    c0.291-9.921,0.822-21.035-0.781-31.31c0.799,0.217,1.65,0.21,2.482-0.071C409.278,246.924,411.597,243.513,411.417,240.464z     M122.594,330.239c-0.231,1.542-0.771,0.807-2.649,0.788c-1.794-0.018-3.589,0.003-5.383-0.012    c-0.404-0.003-1.013,0.073-1.72,0.175c-0.598-0.058-1.191-0.123-1.793-0.173c-1.603-0.135-3.22-0.182-4.84-0.193    c-0.379-0.822-0.157-2.023,0.114-2.781c0.445-1.244,1.359-1.738,2.44-1.936c3.028,0.258,6.298,0.101,9.398,0.065    c1.357,0.078,2.719,0.064,4.133-0.209C122.209,326.467,122.561,330.462,122.594,330.239z M120.247,322.335    c-0.549-13.136-0.348-26.503-0.113-39.651c0.115-6.42-0.598-12.805-0.673-19.246c-0.06-5.215,0.349-10.922-0.233-16.295    c0.868,0.472,1.804,0.735,2.636,0.657c1.557-0.149,2.645-0.95,3.369-2.063c0.862,0.998,1.938,1.797,3.13,2.201    c0.832,0.282,1.683,0.289,2.482,0.071c-1.601,10.275-1.07,21.388-0.781,31.31c0.223,7.615,0.103,15.359-0.13,22.972    c-0.201,6.567,0.612,13.293,1.099,19.876c0.005,0.07,0.024,0.132,0.034,0.199c-1.086,0.113-2.124,0.318-3.004,0.69    c-0.963,0.407-1.699,1.07-2.225,1.882c-0.387-1.441-1.18-2.581-3.007-2.687C121.999,322.202,121.126,322.259,120.247,322.335z     M148.543,237.961c-0.513-1.451-1.189-2.551-2.004-3.398c1.481-0.047,2.963-0.061,4.445-0.001c0.224,0.01,0.487,0.042,0.598,0.237    c0.131,0.229-0.044,0.517-0.25,0.683c-0.323,0.258-0.659,0.463-0.891,0.812c-0.253,0.38-0.459,0.795-0.628,1.219    c-0.375,0.94-0.555,1.948-0.614,2.956c-0.18,3.049,2.14,6.461,5.114,7.47c0.832,0.282,1.683,0.289,2.482,0.071    c-1.602,10.275-1.07,21.388-0.781,31.31c0.223,7.615,0.103,15.359-0.13,22.972c-0.201,6.567,0.612,13.293,1.099,19.876    c0.005,0.07,0.024,0.132,0.034,0.199c-1.088,0.113-2.124,0.318-3.004,0.69c-3.105,1.311-3.855,5.292-2.766,8.319    c-0.714-0.002-1.422,0.017-2.132,0.038c0.047-0.655,0.017-1.399-0.084-2.246c-0.315-2.641,0.005-6.713-3.529-6.914    c-0.833-0.047-1.706,0.01-2.585,0.085c-0.549-13.136-0.348-26.503-0.113-39.651c0.115-6.42-0.598-12.805-0.673-19.246    c-0.06-5.215,0.349-10.922-0.233-16.295c0.868,0.472,1.804,0.735,2.636,0.657C149.129,247.359,149.722,241.3,148.543,237.961z     M355.761,222.42c-11.281-0.081-22.591-0.125-33.885-0.161c-14.006-0.046-28.241-1.233-42.187,0.159    c-0.101,0.01-0.176,0.051-0.265,0.073c-1.177-0.157-2.309-0.333-3.113-0.389c-2.863-0.199-5.64-0.32-8.515-0.397    c-5.167-0.139-10.219-0.225-15.395-0.03c-4.604,0.173-9.217,0.542-13.831,0.66c-3.302,0.085-6.951-0.379-10.425-0.242    c-12.609-0.826-25.408,0.123-38.022,0.165c-11.293,0.038-22.604,0.082-33.885,0.161c0.178-3.575-1.428-7.225,3.497-7.266    c7.66,0.344,15.312,0.576,23.013,0.635c8.888,0.068,17.781,0.212,26.67,0.132c4.566-0.041,9.134-0.065,13.699-0.157    c0.227-0.004,0.453-0.008,0.679-0.011c3.79,0.833,8.497,0.127,11.819,0.15c7.043,0.047,14.085,0.046,21.129,0.043    c6.177-0.003,12.276,0.101,18.422-0.042c3.402-0.08,6.983,0.049,10.489-0.219c1.06,0.053,2.137,0.056,3.226,0.078    c4.564,0.093,9.133,0.116,13.699,0.157c8.888,0.08,17.781-0.065,26.67-0.132c7.702-0.059,15.354-0.292,23.013-0.635    C357.189,215.195,355.583,218.845,355.761,222.42z M166.142,225.972c7.357,0.087,14.713,0.095,22.07,0.12    c12.427,0.041,25.049,0.433,37.492-0.348c4.409,0.875,9.417,0.602,13.665,0.486c4.992-0.138,10.019-0.323,14.991-0.581    c6.105-0.318,12.318-0.251,18.433-0.033c2.745,0.098,7.027,0.884,10.085-0.125c13.544,1.104,27.342,0.648,40.908,0.603    c7.357-0.025,14.713-0.032,22.07-0.12c3.486-0.041,6.77-0.019,10.031-0.687c0.124,2.585,0.448,4.953,1.161,7.413    c-2.608-1.088-6.043-0.974-8.815-0.885c-2.446,0.08-4.587,0.321-6.359,1.107c-5.754,0.071-11.476-0.537-17.233-0.702    c-2.345-0.57-5.067-0.478-7.341-0.405c-1.335,0.043-2.579,0.136-3.722,0.336c-4.005,0.014-8.009,0.027-12.005-0.088    c-3.234-0.093-6.59-0.403-9.856-0.174c-1.809-0.188-3.697-0.128-5.349-0.074c-0.366,0.012-0.724,0.029-1.076,0.048    c-2.355-0.071-4.708-0.083-6.922-0.239c-6.547-0.463-13.21-0.461-19.778-0.28c-6.954,0.192-13.86,0.853-20.817,1.001    c-2.359,0.051-4.732,0.068-7.106,0.1c-1.484-0.417-3.171-0.572-5.037-0.631c-1.653-0.053-3.54-0.114-5.349,0.074    c-3.266-0.228-6.622,0.081-9.856,0.174c-3.997,0.115-8.002,0.102-12.005,0.088c-1.145-0.2-2.387-0.293-3.722-0.336    c-2.275-0.073-4.997-0.165-7.341,0.405c-5.756,0.165-11.478,0.772-17.233,0.702c-1.771-0.786-3.913-1.027-6.359-1.107    c-2.773-0.089-6.207-0.202-8.815,0.885c0.713-2.459,1.037-4.827,1.161-7.413C159.372,225.953,162.656,225.932,166.142,225.972z     M362.801,240.464c-0.06-1.005-0.24-2.013-0.615-2.953c-0.169-0.424-0.375-0.839-0.628-1.219    c-0.233-0.348-0.569-0.553-0.892-0.812c-0.207-0.165-0.381-0.453-0.25-0.683c0.111-0.195,0.374-0.227,0.598-0.237    c1.482-0.061,2.964-0.047,4.445,0.001c-0.815,0.847-1.491,1.947-2.004,3.398c-1.179,3.339-0.586,9.398,4.01,9.837    c0.832,0.08,1.768-0.185,2.636-0.657c-0.583,5.373-0.172,11.08-0.233,16.295c-0.074,6.441-0.787,12.827-0.673,19.246    c0.235,13.149,0.436,26.516-0.113,39.651c-0.88-0.075-1.752-0.132-2.585-0.085c-3.535,0.202-3.214,4.274-3.529,6.914    c-0.101,0.847-0.131,1.591-0.084,2.246c-0.708-0.02-1.418-0.04-2.132-0.038c1.088-3.027,0.339-7.008-2.766-8.319    c-0.88-0.372-1.918-0.576-3.004-0.69c0.011-0.067,0.029-0.128,0.034-0.199c0.488-6.582,1.301-13.308,1.099-19.876    c-0.234-7.613-0.353-15.357-0.13-22.972c0.291-9.921,0.822-21.035-0.781-31.31c0.799,0.217,1.65,0.21,2.482-0.071    C360.661,246.924,362.981,243.513,362.801,240.464z M378.006,260.365c-0.032,2.981-0.375,6.02-0.103,8.987    c0.315,3.45,0.148,6.515-0.001,9.965c-0.339,7.887-0.207,15.986,0.085,23.872c0.106,2.853-0.637,5.505-0.686,8.338    c-0.061,3.594-0.271,7.063-0.552,10.639c-0.003,0.036,0.003,0.066,0.002,0.1c-0.655,0.019-1.288,0.044-1.865,0.061    c-0.513,0.016-1.032,0.059-1.552,0.112c1.472-4.614,0.143-11.151,0.138-15.577c-0.009-7.481,0.065-14.968-0.04-22.45    c-0.094-6.687,0.484-13.285,0.422-19.99c-0.037-4,0.18-7.999,0.09-12c-0.073-3.295-0.073-7.7-1.124-10.831    c-0.127-0.38-0.297-0.77-0.623-1.005c-1.88-1.349-4.006,5.273-5.006,0.991c-0.588-2.518,1.064-4.536,3.339-5.214    c2.537-0.756,5.362-0.447,7.964-0.525c0.283-0.009,0.542-0.011,0.8-0.013c1.233,0.15,2.455,0.328,3.574,0.775    c1.979,0.788,3.183,3.03,2.269,5.114c-0.294,0.67-1.281,1.604-1.879,2.026c-1.789,1.261-1.959-1.028-2.33-2.301    c-0.229-0.785-0.771-1.624-1.588-1.65c-0.615-0.02-1.158,0.459-1.407,1.022C375.486,246.338,378.07,254.539,378.006,260.365z     M369.866,341.005c-2.214,0.193-4.435,0.359-6.62,0.35c-8.91-0.036-17.809-0.432-26.702-0.665    c-7.49-0.197-14.962-0.485-22.393-1.036c-5.051-0.375-10.373-0.307-15.445-0.243c-1.952,0.025-3.921-0.023-5.889-0.051    c-0.139-0.088-0.291-0.159-0.464-0.18c-12.097-1.434-24.446,0.375-36.514,0.303c-7.578-0.046-15.122,0.109-22.685,0.364    c-1.508,0.051-3.02,0.07-4.533,0.089c-0.145-0.116-0.31-0.208-0.503-0.234c-4.885-0.632-9.906-0.23-14.828-0.293    c-5.072-0.064-10.393-0.131-15.444,0.243c-7.431,0.551-14.903,0.839-22.393,1.036c-8.893,0.234-17.791,0.63-26.702,0.665    c-2.185,0.009-4.406-0.157-6.62-0.35c0.236-1.184,0.041-2.547,0.631-3.545c-0.323-1.019,0.044-1.431,1.101-1.236    c0.874-0.181,1.759-0.257,2.654-0.229c1.595-0.143,3.183-0.292,4.783-0.334c12.659-0.333,25.236-0.531,37.919-0.52    c6.512,0.004,12.959-0.229,19.463-0.094c2.426,0.051,4.852,0.279,7.265,0.32c0.338,0.005,0.987-0.148,1.68-0.323    c0.607,0.038,1.252,0.015,1.955-0.021c2.118-0.11,4.244-0.152,6.372-0.164c3.076,1.419,7.467,0.747,10.569,0.662    c5.734-0.157,11.515,0.288,17.242-0.049c8.074-0.474,16.349,0.303,24.344-0.703c0.458,0.073,0.967,0.113,1.548,0.11    c4.248-0.025,8.521-0.074,12.757,0.144c0.703,0.037,1.348,0.059,1.955,0.022c0.691,0.177,1.342,0.329,1.68,0.323    c2.414-0.041,4.84-0.269,7.265-0.32c6.504-0.136,12.95,0.098,19.463,0.094c12.682-0.01,25.26,0.187,37.919,0.52    c1.6,0.042,3.189,0.191,4.783,0.334c0.895-0.027,1.78,0.05,2.654,0.229c1.057-0.195,1.424,0.218,1.1,1.236    C369.826,338.458,369.631,339.82,369.866,341.005z M174.492,237.961c-0.101-0.285-0.21-0.553-0.323-0.814    c2.258,0.019,4.515-0.027,6.773-0.076c-0.46,0.979-0.732,2.106-0.808,3.395c-0.181,3.049,2.138,6.461,5.114,7.47    c0.832,0.282,1.683,0.289,2.482,0.071c-1.602,10.275-1.07,21.388-0.781,31.31c0.223,7.615,0.103,15.359-0.13,22.972    c-0.201,6.567,0.612,13.293,1.099,19.876c0.005,0.07,0.024,0.132,0.034,0.199c-1.088,0.113-2.125,0.318-3.004,0.69    c-3.089,1.304-3.845,5.249-2.781,8.271c-2.358-0.041-4.724-0.094-7.087-0.121c0.027-0.604-0.009-1.281-0.099-2.04    c-0.315-2.641,0.005-6.713-3.529-6.914c-0.833-0.047-1.706,0.01-2.585,0.085c-0.549-13.136-0.348-26.503-0.113-39.651    c0.115-6.42-0.598-12.805-0.673-19.246c-0.06-5.215,0.349-10.922-0.233-16.295c0.868,0.472,1.804,0.735,2.636,0.657    C175.077,247.359,175.67,241.3,174.492,237.961z M205.424,237.961c-0.059-0.168-0.127-0.32-0.191-0.479    c2.206-0.006,4.406-0.084,6.576-0.275c-0.421,0.946-0.671,2.03-0.744,3.259c-0.181,3.049,2.14,6.461,5.114,7.47    c0.832,0.282,1.683,0.289,2.481,0.071c-1.602,10.275-1.07,21.388-0.781,31.31c0.223,7.615,0.103,15.359-0.13,22.972    c-0.201,6.567,0.612,13.293,1.099,19.876c0.005,0.07,0.024,0.132,0.034,0.199c-1.088,0.113-2.124,0.318-3.004,0.69    c-2.883,1.217-3.736,4.735-2.973,7.655c-1.231,0.027-2.395,0.086-3.357,0.098c-1.18,0.015-2.356,0.049-3.533,0.08    c0.004-0.522-0.03-1.093-0.106-1.722c-0.315-2.641,0.005-6.713-3.529-6.914c-0.833-0.047-1.706,0.01-2.585,0.085    c-0.549-13.136-0.348-26.503-0.113-39.651c0.115-6.42-0.598-12.805-0.673-19.246c-0.06-5.215,0.349-10.922-0.233-16.295    c0.868,0.472,1.804,0.735,2.636,0.657C206.01,247.359,206.603,241.3,205.424,237.961z M236.358,237.961    c-0.198-0.56-0.423-1.06-0.667-1.521c0.039-0.001,0.076-0.002,0.115-0.003c2.51-0.096,5.013-0.185,7.518-0.277    c-0.786,1.16-1.223,2.595-1.324,4.307c-0.18,3.049,2.14,6.461,5.114,7.47c0.832,0.282,1.683,0.289,2.482,0.071    c-1.602,10.275-1.07,21.388-0.781,31.31c0.223,7.615,0.103,15.359-0.13,22.972c-0.201,6.567,0.612,13.293,1.099,19.876    c0.005,0.07,0.024,0.132,0.034,0.199c-1.088,0.113-2.125,0.318-3.004,0.69c-3.169,1.338-3.881,5.453-2.694,8.501    c-1.502,0.032-3.006,0.067-4.513,0.112c-0.904,0.027-1.81,0.075-2.714,0.129c0.098-0.741,0.074-1.614-0.047-2.632    c-0.315-2.641,0.005-6.713-3.529-6.914c-0.833-0.047-1.706,0.01-2.585,0.085c-0.549-13.136-0.348-26.503-0.113-39.651    c0.115-6.42-0.598-12.805-0.673-19.246c-0.06-5.215,0.349-10.922-0.233-16.295c0.868,0.472,1.804,0.735,2.636,0.657    C236.944,247.359,237.537,241.3,236.358,237.961z M267.292,237.961c-0.328-0.929-0.723-1.713-1.177-2.383    c3.509,0.087,7.009,0.25,10.502,0.323c-0.368,0.599-0.698,1.274-0.976,2.06c-1.179,3.339-0.586,9.398,4.01,9.837    c0.832,0.08,1.768-0.185,2.636-0.657c-0.583,5.373-0.172,11.08-0.233,16.295c-0.074,6.441-0.787,12.827-0.673,19.246    c0.235,13.149,0.436,26.516-0.113,39.651c-0.88-0.075-1.752-0.132-2.585-0.085c-3.535,0.202-3.214,4.274-3.529,6.914    c-0.057,0.482-0.094,0.934-0.106,1.353c-2.347-0.173-4.76-0.186-7.171-0.115c-0.015-0.388-0.046-0.798-0.099-1.238    c-0.315-2.641,0.005-6.713-3.529-6.914c-0.833-0.047-1.706,0.01-2.585,0.085c-0.549-13.136-0.348-26.503-0.113-39.651    c0.115-6.42-0.598-12.805-0.673-19.246c-0.06-5.215,0.349-10.922-0.233-16.295c0.868,0.472,1.804,0.735,2.636,0.657    C267.877,247.359,268.471,241.3,267.292,237.961z M300.933,240.465c-0.073-1.228-0.324-2.311-0.744-3.257    c2.17,0.191,4.369,0.269,6.576,0.275c-0.064,0.159-0.13,0.31-0.191,0.479c-1.179,3.339-0.586,9.398,4.01,9.837    c0.832,0.08,1.768-0.185,2.636-0.657c-0.583,5.373-0.172,11.08-0.233,16.295c-0.074,6.441-0.787,12.827-0.673,19.246    c0.235,13.149,0.436,26.516-0.113,39.651c-0.88-0.075-1.752-0.132-2.585-0.085c-3.535,0.202-3.214,4.274-3.529,6.914    c-0.075,0.629-0.11,1.2-0.106,1.722c-1.177-0.03-2.353-0.065-3.533-0.08c-0.963-0.012-2.127-0.071-3.357-0.098    c0.763-2.92-0.09-6.438-2.973-7.655c-0.881-0.371-1.918-0.576-3.004-0.69c0.011-0.067,0.029-0.128,0.034-0.199    c0.488-6.582,1.301-13.308,1.099-19.876c-0.234-7.613-0.353-15.357-0.13-22.972c0.291-9.921,0.822-21.035-0.781-31.31    c0.799,0.218,1.65,0.21,2.482-0.071C298.794,246.925,301.113,243.514,300.933,240.465z M331.868,240.466    c-0.078-1.289-0.35-2.416-0.81-3.395c2.258,0.05,4.514,0.096,6.773,0.076c-0.113,0.26-0.222,0.528-0.323,0.814    c-1.179,3.339-0.586,9.398,4.01,9.837c0.832,0.08,1.768-0.185,2.636-0.657c-0.583,5.373-0.172,11.08-0.233,16.295    c-0.074,6.441-0.787,12.827-0.673,19.246c0.235,13.149,0.436,26.516-0.113,39.651c-0.88-0.075-1.752-0.132-2.585-0.085    c-3.535,0.202-3.214,4.274-3.529,6.914c-0.09,0.759-0.127,1.436-0.099,2.04c-2.364,0.027-4.729,0.08-7.087,0.121    c1.064-3.021,0.308-6.967-2.781-8.271c-0.88-0.371-1.918-0.576-3.004-0.69c0.011-0.067,0.029-0.128,0.034-0.199    c0.488-6.582,1.301-13.308,1.099-19.876c-0.234-7.613-0.353-15.357-0.13-22.972c0.291-9.921,0.822-21.035-0.781-31.31    c0.799,0.218,1.65,0.21,2.482-0.071C329.729,246.927,332.048,243.515,331.868,240.466z M341.089,325.963    c1.414,0.272,2.776,0.286,4.132,0.209c3.1,0.037,6.37,0.194,9.398-0.065c1.081,0.198,1.996,0.692,2.44,1.936    c0.339,0.951,0.619,2.613-0.294,3.327c-0.039,0.03-0.092,0.052-0.138,0.078c-1.246,0.033-2.491,0.067-3.73,0.086    c-1.609-0.209-3.26-0.525-4.077-0.518c-1.794,0.015-3.589-0.005-5.383,0.012c-0.797,0.008-1.343,0.138-1.736,0.176    c-0.102-0.002-0.203-0.001-0.306-0.002c-0.326-0.043-0.503-0.264-0.607-0.962C340.822,330.462,341.175,326.467,341.089,325.963z     M310.155,325.963c1.414,0.272,2.776,0.286,4.133,0.209c3.1,0.037,6.37,0.194,9.398-0.065c1.081,0.198,1.995,0.692,2.44,1.936    c0.339,0.95,0.619,2.61-0.292,3.324c-0.339,0.002-0.679,0.006-1.018,0.005c-1.475-0.002-2.945-0.033-4.416-0.065    c-1.036-0.157-1.964-0.298-2.513-0.294c-1.794,0.015-3.589-0.005-5.383,0.012c-0.227,0.002-0.432,0.016-0.621,0.033    c-0.596-0.021-1.191-0.04-1.786-0.06c-0.108-0.149-0.184-0.385-0.24-0.761C309.888,330.462,310.241,326.467,310.155,325.963z     M328.259,241.715c-0.294,0.67-1.281,1.604-1.879,2.026c-1.789,1.261-1.959-1.028-2.33-2.301c-0.229-0.785-0.771-1.624-1.588-1.65    c-0.615-0.02-1.158,0.459-1.407,1.022c-2.45,5.525,0.134,13.728,0.07,19.552c-0.032,2.981-0.375,6.02-0.103,8.987    c0.315,3.45,0.148,6.515-0.001,9.965c-0.339,7.887-0.207,15.986,0.085,23.872c0.106,2.853-0.637,5.504-0.686,8.338    c-0.061,3.594-0.271,7.063-0.552,10.639c-0.003,0.036,0.003,0.066,0.002,0.1c-0.655,0.019-1.288,0.044-1.865,0.061    c-0.511,0.016-1.031,0.059-1.552,0.112c1.472-4.614,0.143-11.151,0.138-15.577c-0.009-7.482,0.065-14.968-0.04-22.45    c-0.094-6.687,0.483-13.285,0.422-19.99c-0.037-4,0.18-7.999,0.09-12c-0.073-3.295-0.073-7.7-1.124-10.831    c-0.127-0.38-0.297-0.77-0.623-1.005c-1.88-1.349-4.006,5.273-5.006,0.991c-0.401-1.717,0.253-3.189,1.424-4.176    c3.762-0.12,7.483-0.332,11.028-0.401c1.327-0.026,2.651-0.021,3.975-0.006C328.251,237.993,329.05,239.91,328.259,241.715z     M279.221,325.963c1.414,0.272,2.776,0.286,4.133,0.209c3.1,0.037,6.369,0.194,9.396-0.065c2.441-0.208,3.991,4.51,1.626,5.521    c-2.045,0.874-5.258-0.631-7.422-0.613c-1.794,0.015-3.589-0.005-5.383,0.012c-0.66,0.006-1.148,0.1-1.523,0.154    c-0.285-0.058-0.576-0.104-0.866-0.155c-0.118-0.146-0.201-0.389-0.261-0.787C278.955,330.462,279.307,326.467,279.221,325.963z     M297.326,241.715c-0.294,0.67-1.281,1.604-1.879,2.026c-1.789,1.261-1.959-1.028-2.33-2.301c-0.229-0.785-0.771-1.624-1.588-1.65    c-0.615-0.02-1.158,0.459-1.407,1.022c-2.451,5.525,0.133,13.728,0.07,19.552c-0.032,2.981-0.375,6.02-0.103,8.987    c0.315,3.45,0.148,6.515-0.001,9.965c-0.339,7.887-0.207,15.986,0.085,23.872c0.106,2.853-0.637,5.504-0.686,8.338    c-0.061,3.594-0.271,7.063-0.552,10.639c-0.003,0.036,0.003,0.066,0.002,0.1c-0.655,0.019-1.288,0.044-1.865,0.061    c-0.511,0.016-1.031,0.059-1.552,0.112c1.472-4.614,0.143-11.151,0.138-15.577c-0.009-7.482,0.065-14.968-0.04-22.45    c-0.094-6.687,0.483-13.285,0.422-19.99c-0.037-4,0.18-7.999,0.091-12c-0.073-3.295-0.073-7.7-1.124-10.831    c-0.127-0.38-0.297-0.77-0.623-1.005c-1.88-1.349-4.006,5.273-5.006,0.991c-0.588-2.518,1.064-4.536,3.339-5.214    c2.537-0.756,5.362-0.447,7.964-0.526c0.283-0.009,0.542-0.011,0.8-0.013c0.491,0.06,0.979,0.129,1.462,0.214    c0.437,0.11,0.881,0.201,1.322,0.296c0.268,0.078,0.532,0.163,0.79,0.266C297.036,237.39,298.239,239.631,297.326,241.715z     M264.011,330.239c-0.02,0.139-0.047,0.239-0.074,0.344c-2.162,0.129-4.286,0.293-6.326,0.436c-0.544,0-1.088,0.001-1.631-0.003    c-0.467-0.004-1.211,0.099-2.061,0.226c-1.91,0.098-3.818,0.168-5.726,0.217c-0.054-0.028-0.113-0.054-0.157-0.088    c-0.913-0.714-0.634-2.376-0.294-3.327c0.444-1.244,1.359-1.738,2.44-1.936c3.028,0.258,6.298,0.101,9.398,0.065    c1.357,0.078,2.719,0.064,4.132-0.209C263.625,326.467,263.977,330.462,264.011,330.239z M263.554,241.579    c-1,4.282-3.126-2.34-5.006-0.991c-0.325,0.234-0.495,0.625-0.623,1.005c-1.052,3.132-1.052,7.536-1.124,10.831    c-0.088,4,0.127,7.999,0.09,12c-0.06,6.705,0.516,13.304,0.422,19.99c-0.104,7.481-0.031,14.968-0.04,22.45    c-0.005,4.426-1.333,10.963,0.138,15.577c-0.521-0.054-1.04-0.097-1.552-0.112c-0.577-0.017-1.21-0.042-1.865-0.061    c-0.001-0.034,0.005-0.065,0.002-0.1c-0.28-3.576-0.491-7.044-0.552-10.639c-0.048-2.834-0.791-5.484-0.686-8.338    c0.293-7.886,0.424-15.984,0.085-23.872c-0.149-3.45-0.317-6.516-0.001-9.965c0.271-2.968-0.07-6.007-0.103-8.987    c-0.064-5.825,2.52-14.027,0.07-19.552c-0.25-0.562-0.792-1.041-1.407-1.022c-0.817,0.026-1.359,0.866-1.588,1.65    c-0.372,1.272-0.542,3.562-2.33,2.301c-0.598-0.422-1.585-1.356-1.879-2.027c-0.913-2.084,0.29-4.324,2.269-5.114    c1.037-0.414,2.163-0.595,3.302-0.739c0.245-0.01,0.492-0.019,0.738-0.029c0.111,0.002,0.215,0.001,0.334,0.005    c2.602,0.08,5.427-0.23,7.964,0.526C262.49,237.043,264.142,239.062,263.554,241.579z M233.078,330.239    c-0.23,1.542-0.771,0.807-2.649,0.788c-1.794-0.018-3.589,0.003-5.383-0.012c-2.164-0.018-5.377,1.487-7.422,0.613    c-2.366-1.011-0.816-5.73,1.626-5.521c3.027,0.258,6.297,0.101,9.396,0.065c1.357,0.078,2.719,0.064,4.133-0.209    C232.691,326.467,233.045,330.462,233.078,330.239z M232.62,241.579c-1,4.282-3.126-2.34-5.006-0.991    c-0.325,0.234-0.495,0.625-0.623,1.005c-1.052,3.132-1.052,7.536-1.124,10.831c-0.088,4,0.127,7.999,0.09,12    c-0.06,6.705,0.516,13.304,0.422,19.99c-0.104,7.481-0.031,14.968-0.04,22.45c-0.005,4.426-1.333,10.963,0.138,15.577    c-0.521-0.054-1.04-0.097-1.552-0.112c-0.577-0.017-1.21-0.042-1.865-0.061c-0.001-0.034,0.005-0.065,0.002-0.1    c-0.28-3.576-0.491-7.044-0.552-10.639c-0.048-2.834-0.791-5.484-0.686-8.338c0.293-7.886,0.424-15.984,0.085-23.872    c-0.149-3.45-0.317-6.516-0.001-9.965c0.271-2.968-0.07-6.007-0.103-8.987c-0.064-5.825,2.52-14.027,0.07-19.552    c-0.25-0.562-0.792-1.041-1.407-1.022c-0.817,0.026-1.359,0.866-1.588,1.65c-0.372,1.272-0.542,3.562-2.33,2.301    c-0.598-0.422-1.585-1.356-1.879-2.027c-0.913-2.084,0.29-4.324,2.269-5.114c0.257-0.103,0.522-0.188,0.79-0.266    c0.443-0.095,0.885-0.186,1.322-0.296c0.482-0.084,0.97-0.154,1.462-0.214c0.258,0.002,0.517,0.004,0.8,0.013    c1.147,0.036,2.338-0.003,3.529,0.006c1.549,0.351,3.101,0.529,4.676,0.613C231.667,237.204,233.187,239.154,232.62,241.579z     M202.144,330.239c-0.056,0.376-0.132,0.613-0.24,0.761c-0.595,0.019-1.191,0.039-1.786,0.06c-0.19-0.018-0.395-0.031-0.621-0.033    c-1.794-0.018-3.589,0.003-5.383-0.012c-0.549-0.004-1.477,0.137-2.513,0.294c-1.471,0.031-2.941,0.061-4.416,0.065    c-0.338,0.001-0.678-0.003-1.018-0.005c-0.911-0.715-0.631-2.374-0.292-3.324c0.444-1.244,1.359-1.738,2.44-1.936    c3.028,0.258,6.298,0.101,9.398,0.065c1.357,0.078,2.719,0.064,4.133-0.209C201.758,326.467,202.111,330.462,202.144,330.239z     M201.687,241.579c-1,4.282-3.126-2.34-5.006-0.991c-0.325,0.234-0.495,0.625-0.623,1.005c-1.052,3.132-1.052,7.536-1.124,10.831    c-0.088,4,0.127,7.999,0.09,12c-0.06,6.705,0.516,13.304,0.422,19.99c-0.104,7.481-0.031,14.968-0.04,22.45    c-0.005,4.426-1.333,10.963,0.138,15.577c-0.521-0.054-1.04-0.097-1.552-0.112c-0.577-0.017-1.21-0.042-1.865-0.061    c-0.001-0.034,0.005-0.065,0.002-0.1c-0.28-3.576-0.491-7.044-0.552-10.639c-0.048-2.834-0.791-5.484-0.686-8.338    c0.293-7.886,0.424-15.984,0.085-23.872c-0.148-3.45-0.317-6.516-0.001-9.965c0.271-2.968-0.07-6.007-0.103-8.987    c-0.064-5.825,2.52-14.027,0.07-19.552c-0.25-0.562-0.792-1.041-1.407-1.022c-0.817,0.026-1.359,0.866-1.588,1.65    c-0.372,1.272-0.542,3.562-2.33,2.301c-0.598-0.422-1.585-1.356-1.879-2.027c-0.79-1.804,0.009-3.722,1.52-4.717    c1.323-0.014,2.648-0.019,3.975,0.006c3.546,0.069,7.266,0.281,11.028,0.401C201.434,238.39,202.088,239.862,201.687,241.579z     M170.91,325.963c-0.086,0.504,0.267,4.499,0.3,4.276c-0.104,0.698-0.281,0.919-0.607,0.962c-0.102,0.001-0.205,0-0.306,0.002    c-0.394-0.037-0.939-0.167-1.736-0.175c-1.794-0.018-3.589,0.003-5.383-0.012c-0.817-0.006-2.468,0.31-4.077,0.518    c-1.239-0.019-2.484-0.052-3.73-0.086c-0.046-0.026-0.099-0.047-0.138-0.078c-0.913-0.714-0.634-2.376-0.294-3.327    c0.444-1.244,1.359-1.738,2.44-1.936c3.028,0.258,6.298,0.101,9.398,0.065C168.134,326.25,169.496,326.236,170.91,325.963z     M359.193,241.715c-0.294,0.67-1.281,1.604-1.879,2.026c-1.789,1.261-1.959-1.028-2.33-2.301c-0.229-0.785-0.771-1.624-1.588-1.65    c-0.615-0.02-1.158,0.459-1.407,1.022c-2.451,5.525,0.134,13.728,0.07,19.552c-0.032,2.981-0.375,6.02-0.103,8.987    c0.315,3.45,0.148,6.515-0.001,9.965c-0.339,7.887-0.207,15.986,0.085,23.872c0.106,2.853-0.637,5.504-0.686,8.338    c-0.061,3.594-0.271,7.063-0.552,10.639c-0.003,0.036,0.003,0.066,0.002,0.1c-0.655,0.019-1.288,0.044-1.865,0.061    c-0.511,0.016-1.031,0.059-1.552,0.112c1.472-4.614,0.143-11.151,0.138-15.577c-0.009-7.482,0.065-14.968-0.04-22.45    c-0.094-6.687,0.483-13.285,0.422-19.99c-0.036-4,0.18-7.999,0.09-12c-0.073-3.295-0.073-7.7-1.124-10.831    c-0.127-0.38-0.297-0.77-0.623-1.005c-1.88-1.349-4.006,5.273-5.006,0.991c-0.472-2.02,0.509-3.705,2.086-4.647    c3.154-0.243,6.257-0.828,9.427-0.944c0.593-0.022,1.19-0.005,1.784,0.008c0.82,0.131,1.625,0.306,2.381,0.607    C358.903,237.39,360.107,239.631,359.193,241.715z M155.075,236.601c0.756-0.3,1.56-0.476,2.381-0.607    c0.594-0.013,1.19-0.029,1.784-0.008c3.17,0.116,6.273,0.701,9.427,0.944c1.577,0.943,2.557,2.628,2.086,4.647    c-1,4.282-3.126-2.34-5.006-0.991c-0.325,0.234-0.495,0.625-0.623,1.005c-1.052,3.132-1.052,7.536-1.124,10.831    c-0.088,4,0.127,7.999,0.09,12c-0.06,6.705,0.516,13.304,0.422,19.99c-0.104,7.481-0.031,14.968-0.04,22.45    c-0.005,4.426-1.333,10.963,0.138,15.577c-0.521-0.054-1.04-0.097-1.552-0.112c-0.577-0.017-1.21-0.042-1.865-0.061    c-0.001-0.034,0.005-0.065,0.002-0.1c-0.28-3.576-0.491-7.044-0.552-10.639c-0.048-2.834-0.791-5.484-0.686-8.338    c0.293-7.886,0.424-15.984,0.085-23.872c-0.149-3.45-0.317-6.516-0.001-9.965c0.271-2.968-0.07-6.007-0.103-8.987    c-0.064-5.825,2.52-14.027,0.07-19.552c-0.25-0.562-0.792-1.041-1.407-1.022c-0.817,0.026-1.359,0.866-1.588,1.65    c-0.372,1.272-0.542,3.562-2.33,2.301c-0.598-0.422-1.585-1.356-1.879-2.026C151.892,239.631,153.096,237.39,155.075,236.601z     M144.806,241.579c-1,4.282-3.126-2.34-5.006-0.991c-0.325,0.234-0.495,0.625-0.623,1.005c-1.052,3.132-1.052,7.536-1.124,10.831    c-0.088,4,0.127,7.999,0.09,12c-0.06,6.705,0.516,13.304,0.422,19.99c-0.104,7.481-0.031,14.968-0.04,22.45    c-0.004,4.426-1.333,10.963,0.138,15.577c-0.521-0.054-1.04-0.097-1.552-0.112c-0.577-0.017-1.21-0.042-1.865-0.061    c-0.001-0.034,0.005-0.065,0.002-0.1c-0.28-3.576-0.491-7.044-0.552-10.639c-0.048-2.834-0.791-5.484-0.686-8.338    c0.293-7.886,0.424-15.984,0.085-23.872c-0.149-3.45-0.317-6.516-0.001-9.965c0.271-2.968-0.07-6.007-0.103-8.987    c-0.064-5.825,2.52-14.027,0.07-19.552c-0.25-0.562-0.793-1.041-1.407-1.022c-0.817,0.026-1.359,0.866-1.588,1.65    c-0.372,1.272-0.542,3.562-2.33,2.301c-0.598-0.422-1.585-1.356-1.879-2.027c-0.913-2.084,0.29-4.324,2.269-5.114    c1.12-0.446,2.342-0.625,3.575-0.775c0.258,0.002,0.517,0.004,0.8,0.013c2.602,0.08,5.427-0.23,7.964,0.526    C143.742,237.043,145.394,239.062,144.806,241.579z M128.992,328.044c0.444-1.244,1.359-1.738,2.44-1.936    c3.028,0.258,6.298,0.101,9.398,0.065c1.357,0.078,2.719,0.063,4.133-0.209c-0.086,0.504,0.267,4.499,0.3,4.276    c-0.031,0.211-0.071,0.372-0.116,0.505c-2.466-0.294-5.011-0.223-7.363,0.002c-2.891,0.277-5.787,0.371-8.685,0.422    C128.431,330.381,128.68,328.917,128.992,328.044z M176.469,344.327c7.824-0.312,15.628-0.845,23.405-1.162    c5.191-0.211,10.438-0.22,15.669-0.415c5.661,1.02,12.045,0.517,17.613,0.406c7.908-0.157,15.828-0.157,23.744-0.282    c4.755-0.075,9.497-0.682,14.253-0.606c5.121,0.081,10.278,0.158,15.391-0.226c8.466,0.983,17.097,0.779,25.581,1.123    c7.778,0.317,15.582,0.85,23.405,1.162c14.733,0.588,30.052,1.482,44.631-1.372c0.333,0.052,0.628,0.151,0.859,0.327    c1.409,1.074,0.963,3.09,1.14,4.85c-2.303,0.027-4.323,0.152-4.938,0.217c-8.695,0.928-17.802,0.662-26.543,0.817    c-9.301,0.166-18.634,0.658-27.933,0.6c-8.329-0.052-17.109-1.295-25.4-0.433c-0.191,0.021-0.352,0.115-0.473,0.247    c-2.527,0.016-5.047,0.043-7.542,0.043c-9.99-0.002-20.063-1.276-30.049-0.922c-10.487,0.371-21.046-0.609-31.558-0.024    c-5.22,0.291-10.487,0.04-15.72,0.107c-0.959,0.012-1.911,0.122-2.859,0.265c-6.61-0.078-13.392,0.677-19.9,0.718    c-9.299,0.058-18.632-0.434-27.933-0.6c-8.74-0.156-17.848,0.111-26.543-0.817c-0.615-0.066-2.635-0.191-4.938-0.217    c0.178-1.759-0.269-3.776,1.14-4.85c0.232-0.177,0.528-0.275,0.859-0.327C146.416,345.808,161.736,344.915,176.469,344.327z     M366.853,330.744c-0.045-0.133-0.085-0.294-0.116-0.505c0.033,0.223,0.385-3.772,0.3-4.276c1.414,0.272,2.776,0.286,4.133,0.209    c3.1,0.037,6.37,0.194,9.398-0.065c1.081,0.198,1.996,0.692,2.44,1.936c0.312,0.873,0.561,2.338-0.106,3.125    c-2.899-0.051-5.794-0.145-8.685-0.422C371.864,330.521,369.319,330.45,366.853,330.744z M380.93,322.364    c0.011-0.067,0.029-0.128,0.034-0.199c0.488-6.582,1.301-13.308,1.099-19.876c-0.234-7.613-0.353-15.357-0.13-22.972    c0.291-9.921,0.822-21.035-0.78-31.31c0.799,0.218,1.65,0.21,2.482-0.071c1.192-0.404,2.268-1.203,3.13-2.201    c0.725,1.113,1.813,1.914,3.369,2.063c0.832,0.08,1.768-0.185,2.636-0.657c-0.583,5.373-0.172,11.08-0.233,16.295    c-0.074,6.441-0.787,12.827-0.673,19.246c0.235,13.149,0.436,26.516-0.113,39.651c-0.88-0.075-1.752-0.132-2.585-0.085    c-1.827,0.104-2.621,1.246-3.007,2.687c-0.526-0.812-1.262-1.476-2.225-1.882C383.054,322.682,382.017,322.478,380.93,322.364z     M389.705,325.963c1.414,0.272,2.776,0.286,4.133,0.209c3.1,0.037,6.37,0.194,9.398-0.065c1.081,0.198,1.996,0.692,2.44,1.936    c0.27,0.758,0.492,1.96,0.114,2.781c-1.621,0.011-3.237,0.058-4.84,0.193c-0.603,0.051-1.195,0.115-1.793,0.173    c-0.706-0.102-1.316-0.18-1.72-0.176c-1.794,0.015-3.589-0.005-5.383,0.012c-1.877,0.018-2.417,0.754-2.649-0.788    C389.438,330.462,389.79,326.467,389.705,325.963z M407.809,241.715c-0.294,0.67-1.281,1.604-1.879,2.026    c-1.789,1.261-1.959-1.028-2.33-2.301c-0.229-0.785-0.771-1.624-1.588-1.65c-0.615-0.02-1.158,0.459-1.407,1.022    c-2.45,5.525,0.134,13.728,0.07,19.552c-0.032,2.981-0.375,6.02-0.103,8.987c0.315,3.45,0.148,6.515-0.001,9.965    c-0.339,7.887-0.207,15.986,0.085,23.872c0.106,2.853-0.637,5.504-0.686,8.338c-0.061,3.594-0.271,7.063-0.552,10.639    c-0.003,0.036,0.003,0.066,0.002,0.1c-0.655,0.019-1.288,0.044-1.865,0.061c-0.511,0.016-1.032,0.059-1.552,0.112    c1.472-4.614,0.143-11.151,0.138-15.577c-0.009-7.482,0.065-14.968-0.04-22.45c-0.094-6.687,0.483-13.285,0.422-19.99    c-0.037-4,0.18-7.999,0.09-12c-0.073-3.295-0.073-7.7-1.124-10.831c-0.127-0.38-0.297-0.77-0.623-1.005    c-1.88-1.349-4.006,5.273-5.006,0.991c-0.588-2.518,1.064-4.536,3.339-5.214c2.537-0.756,5.362-0.447,7.964-0.526    c0.283-0.009,0.542-0.011,0.8-0.013c1.233,0.15,2.455,0.328,3.575,0.775C407.52,237.39,408.722,239.631,407.809,241.715z     M378.214,216.674c0.62-0.009,1.269,0.002,1.931,0.015c3.658,0.256,7.282,0.573,10.922,0.877c2.724,0.227,5.472,0.18,8.199,0.038    c1.625-0.084,5.839-1.299,6.917,0.369c0.739,1.143-1.202,11.231-0.223,11.371c-1.38-0.198-2.787-0.227-4.212-0.158    c-4.623,0.223-9.231-0.005-13.864-0.015c-4.687-0.01-9.373,0.148-14.06,0.226c-2.562,0.043-5.116-0.224-7.677-0.206    c-1.579,0.012-4.451,1.143-5.592-0.297c-0.865-1.093-0.494-4.443-0.481-5.722c0.015-1.464-0.394-4.937,0.257-6.182    c0.74-1.412,3.447-0.612,5.228-0.526c1.107,0.054,2.215,0.098,3.323,0.131C371.991,216.694,375.103,216.716,378.214,216.674z     M148.103,200.96c4.28-2.333,8.551-4.786,12.945-6.9c10.356-4.982,20.65-10.011,31.41-14.176    c10.149-3.928,19.799-8.754,30.059-12.449c5.004-1.801,9.871-4.313,14.561-6.803c3.91-2.075,8.293-3.503,12.022-5.905    c1.113-0.315,2.222-0.648,3.323-1.024c1.713-0.586,3.206-1.435,5.055-1.335c1.391,0.074,2.763,0.726,4.057,1.414    c3.987,3.011,8.987,4.518,13.384,6.852c4.692,2.49,9.557,5.002,14.561,6.803c10.261,3.693,19.911,8.521,30.059,12.449    c10.758,4.165,21.053,9.194,31.41,14.176c4.394,2.114,8.665,4.568,12.945,6.9c1.968,1.073,4.973,2.245,6.72,3.822    c-1.713-0.248-3.486-0.273-5.185-0.437c-5.072-0.49-10.537,0.434-15.652,0.469c-8.84,0.062-17.654-1.237-26.508-1.19    c-10.874,0.059-21.865-0.067-32.733-0.638c-4.862-0.255-9.66-0.553-14.531-0.431c-2.692,0.068-5.587,0.392-8.43,0.573    c-4.684-0.378-9.428-0.306-14.095-0.299c-3.633,0.004-7.344-0.256-10.961,0.164c-2.219-0.176-4.436-0.383-6.53-0.436    c-4.871-0.124-9.669,0.174-14.531,0.431c-10.868,0.572-21.859,0.697-32.733,0.639c-8.854-0.047-17.668,1.252-26.508,1.19    c-5.114-0.036-10.579-0.959-15.652-0.469c-1.699,0.164-3.473,0.191-5.185,0.437C143.13,203.204,146.135,202.032,148.103,200.96z     M141.322,208.081c1.567-0.619,4.275-0.098,6.003-0.166c5.239-0.206,10.59,0.69,15.857,0.673    c9.43-0.031,18.815-1.186,28.266-1.182c10.919,0.003,21.822-0.547,32.75-0.708c4.814-0.071,9.602-0.341,14.429-0.414    c4.632,1.41,10.123,0.858,14.856,0.915c6.33,0.076,12.863,0.153,19.138-0.919c0.211-0.002,0.419-0.002,0.619,0.001    c4.872,0.069,9.704,0.345,14.563,0.416c10.929,0.161,21.832,0.713,32.75,0.708c9.451-0.003,18.835,1.15,28.265,1.182    c5.265,0.018,10.617-0.878,15.857-0.673c1.728,0.068,4.436-0.452,6.003,0.166c1.005,0.397,1.701,1.727,1.06,2.597    c-0.493,0.668-1.451,0.728-2.282,0.726c-16.862-0.033-33.59-0.449-50.463-0.449c-7.129-0.048-14.254-0.08-21.384-0.003    c-5.105,0.055-10.894-0.409-16.02,0.631c-2.132-0.178-4.271-0.318-6.422-0.324c-5.831-0.018-11.629-0.039-17.478-0.042    c-9.759-0.004-19.83-0.593-29.675-0.022c-4.487-0.528-9.301-0.198-13.623-0.244c-7.129-0.076-14.254-0.045-21.384,0.003    c-16.873,0-33.601,0.416-50.463,0.449c-0.83,0.002-1.789-0.058-2.282-0.726C139.621,209.808,140.317,208.478,141.322,208.081z     M105.817,217.973c1.078-1.668,5.292-0.454,6.917-0.369c2.726,0.141,5.474,0.19,8.199-0.038c3.64-0.304,7.264-0.62,10.922-0.877    c0.66-0.013,1.31-0.023,1.931-0.015c3.111,0.043,6.223,0.02,9.332-0.076c1.108-0.034,2.216-0.079,3.323-0.131    c1.781-0.086,4.488-0.887,5.228,0.526c0.651,1.245,0.242,4.717,0.257,6.182c0.013,1.279,0.383,4.628-0.481,5.722    c-1.139,1.441-4.012,0.309-5.592,0.297c-2.561-0.018-5.116,0.249-7.677,0.206c-4.686-0.079-9.371-0.236-14.06-0.226    c-4.632,0.01-9.242,0.238-13.865,0.015c-1.426-0.069-2.832-0.04-4.212,0.158C107.018,229.204,105.078,219.117,105.817,217.973z     M106.458,236.601c1.12-0.446,2.342-0.625,3.575-0.775c0.258,0.002,0.517,0.004,0.8,0.013c2.602,0.08,5.427-0.23,7.964,0.525    c2.275,0.678,3.927,2.696,3.339,5.214c-1,4.282-3.126-2.34-5.006-0.991c-0.325,0.234-0.495,0.625-0.623,1.005    c-1.052,3.132-1.052,7.536-1.124,10.831c-0.088,4,0.127,7.999,0.09,12c-0.06,6.705,0.516,13.304,0.422,19.99    c-0.104,7.481-0.031,14.968-0.04,22.45c-0.005,4.426-1.333,10.963,0.138,15.577c-0.521-0.054-1.04-0.097-1.552-0.112    c-0.577-0.017-1.21-0.042-1.865-0.061c-0.001-0.034,0.005-0.065,0.002-0.1c-0.28-3.576-0.491-7.044-0.552-10.639    c-0.048-2.834-0.791-5.484-0.686-8.338c0.293-7.886,0.424-15.984,0.085-23.872c-0.149-3.45-0.317-6.516-0.001-9.965    c0.271-2.968-0.07-6.007-0.103-8.987c-0.064-5.825,2.52-14.027,0.07-19.552c-0.25-0.562-0.792-1.041-1.407-1.022    c-0.817,0.026-1.359,0.866-1.588,1.65c-0.371,1.272-0.542,3.562-2.33,2.301c-0.598-0.422-1.585-1.356-1.879-2.026    C103.277,239.631,104.479,237.39,106.458,236.601z M102.12,235.844c-0.928,1.208-1.427,2.755-1.538,4.622    c-0.181,3.049,2.138,6.461,5.114,7.47c0.832,0.282,1.683,0.289,2.482,0.071c-1.602,10.275-1.07,21.388-0.781,31.31    c0.223,7.615,0.103,15.359-0.13,22.972c-0.201,6.567,0.612,13.293,1.099,19.876c0.005,0.07,0.024,0.132,0.034,0.199    c-1.086,0.113-2.125,0.318-3.004,0.69c-2.933,1.238-3.76,4.856-2.927,7.806c-0.996,0.027-1.993,0.063-2.989,0.101    c0.009-0.542-0.026-1.137-0.104-1.796c-0.315-2.641,0.005-6.713-3.529-6.914c-0.833-0.047-1.706,0.01-2.585,0.085    c-0.549-13.136-0.348-26.503-0.113-39.651c0.115-6.42-0.598-12.805-0.673-19.246c-0.06-5.215,0.349-10.922-0.233-16.295    c0.868,0.472,1.804,0.735,2.637,0.657c3.891-0.372,4.914-4.9,4.42-8.133c-0.236-1.543-1.841-3.331-0.248-4.001    c0.682-0.287,2.208,0.165,2.961,0.181C102.048,235.845,102.085,235.843,102.12,235.844z M75.477,330.838    c-0.552-0.006-1.105-0.025-1.658-0.024c-1.758,0.001-3.515,0.024-5.272,0.041c0.002-0.515-0.031-1.074-0.106-1.691    c-0.315-2.641,0.005-6.713-3.529-6.914c-0.833-0.047-1.706,0.01-2.585,0.085c-0.549-13.136-0.348-26.503-0.113-39.651    c0.115-6.42-0.598-12.805-0.673-19.246c-0.06-5.215,0.349-10.922-0.233-16.295c0.868,0.472,1.804,0.735,2.636,0.657    c4.596-0.438,5.189-6.497,4.01-9.837c-0.332-0.941-0.732-1.735-1.194-2.41c0.856-0.032,1.711-0.056,2.567-0.115    c2.112-0.144,4.226-0.192,6.343-0.203c-1.277,1.279-1.945,3.035-2.075,5.234c-0.181,3.049,2.138,6.461,5.114,7.47    c0.832,0.282,1.683,0.289,2.481,0.071c-1.601,10.275-1.07,21.388-0.78,31.31c0.223,7.615,0.103,15.359-0.13,22.972    c-0.201,6.567,0.612,13.293,1.099,19.876c0.005,0.07,0.024,0.132,0.034,0.199c-1.086,0.113-2.124,0.318-3.004,0.69    C75.484,324.289,74.654,327.893,75.477,330.838z M44.65,331.179c-1.939,0.018-3.878,0.041-5.817,0.04    c-0.406,0-0.816-0.005-1.225-0.01c0.027-0.605-0.009-1.285-0.099-2.045c-0.315-2.641,0.005-6.713-3.529-6.914    c-0.833-0.047-1.706,0.01-2.585,0.085c-0.549-13.136-0.348-26.503-0.113-39.651c0.115-6.42-0.598-12.805-0.673-19.246    c-0.06-5.215,0.349-10.922-0.233-16.295c0.868,0.472,1.804,0.735,2.636,0.657c4.596-0.438,5.189-6.497,4.01-9.837    c-0.326-0.925-0.72-1.707-1.172-2.374c0.346-0.022,0.693-0.038,1.039-0.065c2.61-0.202,5.217-0.265,7.823-0.26    c-1.259,1.277-1.919,3.021-2.048,5.204c-0.181,3.049,2.138,6.461,5.114,7.47c0.832,0.282,1.683,0.289,2.482,0.071    c-1.602,10.275-1.07,21.388-0.781,31.31c0.223,7.615,0.103,15.359-0.13,22.972c-0.201,6.567,0.612,13.293,1.099,19.876    c0.005,0.07,0.024,0.132,0.034,0.199c-1.088,0.113-2.125,0.318-3.004,0.69C44.436,324.337,43.661,328.178,44.65,331.179z     M57.555,264.423c-0.06,6.705,0.516,13.304,0.422,19.99c-0.104,7.481-0.031,14.968-0.04,22.45    c-0.004,4.426-1.333,10.963,0.138,15.577c-0.521-0.054-1.04-0.097-1.552-0.112c-0.577-0.017-1.21-0.042-1.865-0.061    c-0.001-0.034,0.005-0.065,0.002-0.1c-0.28-3.576-0.491-7.044-0.552-10.639c-0.048-2.834-0.791-5.484-0.686-8.338    c0.293-7.886,0.424-15.984,0.085-23.872c-0.149-3.45-0.317-6.516-0.001-9.965c0.271-2.968-0.07-6.007-0.103-8.987    c-0.063-5.825,2.52-14.027,0.07-19.552c-0.25-0.562-0.792-1.041-1.407-1.022c-0.817,0.026-1.359,0.866-1.588,1.65    c-0.371,1.272-0.542,3.562-2.33,2.301c-0.598-0.422-1.585-1.356-1.879-2.026c-0.913-2.084,0.29-4.324,2.269-5.114    c1.12-0.446,2.342-0.625,3.574-0.775c0.258,0.002,0.517,0.004,0.8,0.013c2.602,0.08,5.427-0.23,7.964,0.526    c2.275,0.678,3.927,2.696,3.339,5.214c-1,4.282-3.126-2.34-5.006-0.991c-0.325,0.234-0.495,0.625-0.623,1.005    c-1.052,3.132-1.052,7.536-1.124,10.831C57.376,256.425,57.591,260.423,57.555,264.423z M48.405,328.044    c0.444-1.244,1.359-1.738,2.44-1.936c3.028,0.258,6.298,0.101,9.398,0.065c1.357,0.078,2.719,0.063,4.133-0.209    c-0.086,0.504,0.267,4.499,0.3,4.276c-0.045,0.306-0.11,0.502-0.187,0.651c-2.59,0.036-5.178,0.08-7.766,0.124h-0.079    c-0.024,0-0.054,0.002-0.078,0.002c-2.693,0.047-5.385,0.09-8.078,0.127C47.847,330.351,48.096,328.907,48.405,328.044z     M88.489,264.423c-0.06,6.705,0.516,13.304,0.422,19.99c-0.104,7.481-0.031,14.968-0.04,22.45    c-0.005,4.426-1.333,10.963,0.138,15.577c-0.521-0.054-1.04-0.097-1.552-0.112c-0.577-0.017-1.21-0.042-1.865-0.061    c-0.001-0.034,0.005-0.065,0.002-0.1c-0.28-3.576-0.491-7.044-0.552-10.639c-0.048-2.834-0.791-5.484-0.686-8.338    c0.293-7.886,0.424-15.984,0.085-23.872c-0.149-3.45-0.317-6.516-0.001-9.965c0.271-2.968-0.07-6.007-0.103-8.987    c-0.063-5.825,2.52-14.027,0.07-19.552c-0.25-0.562-0.792-1.041-1.407-1.022c-0.817,0.026-1.359,0.866-1.588,1.65    c-0.371,1.272-0.542,3.562-2.33,2.301c-0.598-0.422-1.585-1.356-1.879-2.026c-0.913-2.084,0.29-4.324,2.269-5.114    c1.12-0.446,2.342-0.625,3.575-0.775c0.258,0.002,0.517,0.004,0.8,0.013c2.602,0.08,5.427-0.23,7.964,0.526    c2.275,0.678,3.927,2.696,3.339,5.214c-1,4.282-3.126-2.34-5.006-0.991c-0.325,0.234-0.495,0.625-0.623,1.005    c-1.052,3.132-1.052,7.536-1.124,10.831C88.309,256.425,88.525,260.423,88.489,264.423z M79.339,328.044    c0.444-1.244,1.359-1.738,2.44-1.936c3.028,0.258,6.298,0.101,9.398,0.065c1.357,0.078,2.719,0.063,4.133-0.209    c-0.086,0.504,0.267,4.499,0.3,4.276c-0.076,0.514-0.195,0.761-0.379,0.88c-0.324,0.011-0.647,0.019-0.97,0.028    c-0.342-0.053-0.761-0.114-1.3-0.12c-1.794-0.018-3.589,0.003-5.383-0.012c-0.308-0.003-0.734,0.041-1.232,0.108    c-2.361-0.064-4.719-0.146-7.08-0.215C78.831,330.086,79.059,328.826,79.339,328.044z M9.682,219.952    c0.113-1.713-0.12-3.367,1.336-4.04c1.026-0.474,3.502,0.023,4.795-0.079c4.852-0.38,9.586-0.153,14.449-0.031    c8.585,0.213,17.741-0.213,26.314-0.836c9.371-0.681,18.867-0.34,28.271-0.333c4.533,0.003,9.065,0.057,13.596,0.095    c0.117,0.076,0.232,0.156,0.338,0.247c1.443,1.229,0.867,3.922,0.871,5.867c0,0.018,0,0.038,0,0.056    c-1.645,0.066-3.29,0.132-4.941,0.177c-9.837,0.262-19.818-0.509-29.656,0.179c-5.51,0.385-11.037,0.429-16.551,0.767    c-5.396,0.332-10.789-0.39-16.186,0.049c-7.388,0.602-15.275,0.492-22.733,0.138C9.613,221.455,9.632,220.703,9.682,219.952z     M11.195,229.712c-1.98-0.682-1.666,0.053-1.685-2.663c-0.008-1.001,0.002-2.003,0.018-3.005c2.009,0.539,4.052,0.727,6.21,0.773    c4.718,0.103,9.498,0.701,14.22,0.473c11.083-0.537,22.188,0.099,33.302-0.708c9.394-0.684,18.872,0.681,28.213-0.031    c2.706-0.207,5.451-0.295,8.196-0.344c0.008,2.188-0.022,4.369-0.165,6.541c-11.533,0.013-23.081-0.282-34.606-0.133    c-9.24,0.118-18.596-0.547-27.81,0.362c-5.461,0.538-10.838,0.134-16.299-0.283c-0.43-0.033-2.382,0.012-4.639,0.12    C14.451,230.563,12.765,230.253,11.195,229.712z M19.546,241.44c-0.372,1.272-0.542,3.562-2.33,2.301    c-0.598-0.422-1.585-1.356-1.879-2.026c-0.913-2.084,0.29-4.324,2.269-5.114c1.12-0.446,2.342-0.625,3.574-0.775    c0.258,0.002,0.517,0.004,0.8,0.013c2.602,0.08,5.427-0.23,7.964,0.525c2.275,0.678,3.927,2.696,3.339,5.214    c-1,4.282-3.126-2.34-5.006-0.991c-0.325,0.234-0.495,0.625-0.623,1.005c-1.052,3.132-1.051,7.536-1.124,10.831    c-0.088,4,0.127,7.999,0.09,12c-0.06,6.705,0.516,13.304,0.422,19.99c-0.104,7.481-0.031,14.968-0.04,22.45    c-0.005,4.426-1.333,10.963,0.138,15.577c-0.521-0.054-1.04-0.097-1.552-0.112c-0.577-0.017-1.21-0.042-1.865-0.061    c-0.001-0.034,0.005-0.065,0.002-0.1c-0.28-3.576-0.491-7.044-0.552-10.639c-0.048-2.834-0.791-5.484-0.686-8.338    c0.293-7.886,0.424-15.984,0.085-23.872c-0.149-3.45-0.317-6.516-0.001-9.965c0.271-2.968-0.07-6.007-0.103-8.987    c-0.064-5.825,2.52-14.027,0.07-19.552c-0.25-0.562-0.793-1.041-1.407-1.022C20.317,239.817,19.776,240.655,19.546,241.44z     M17.471,328.044c0.445-1.244,1.359-1.738,2.44-1.936c3.028,0.258,6.298,0.101,9.398,0.065c1.357,0.078,2.719,0.063,4.133-0.209    c-0.086,0.504,0.267,4.499,0.3,4.276c-0.078,0.517-0.196,0.765-0.382,0.882c-0.504-0.015-1.009-0.029-1.515-0.045    c-0.225-0.025-0.468-0.046-0.752-0.048c-0.268-0.002-0.536-0.001-0.805-0.002c-4.274-0.14-8.603-0.27-12.874-0.088    C16.957,330.117,17.188,328.836,17.471,328.044z M113.839,358.583c-5.795-1.417-12.534-0.519-18.374-0.522    c-5.782-0.003-11.539,0.464-17.301,0.447c-11.471-0.033-22.916-0.481-34.371-0.787c-5.455-0.145-10.895-0.415-16.389-0.425    c-3.735-0.008-7.471,0-11.206-0.024c-2.586-0.016-6.526-0.962-9.032-0.369c-0.415-0.055-0.83-0.11-1.245-0.165    c-0.171-0.942-0.118-1.96-0.197-2.888c-0.195-2.286-0.533-4.567-0.644-6.858c-0.121-2.5-0.994-8.473,1.137-9.967    c0.992-0.695,2.403-1.061,3.783-1.44c3.576,0.467,7.164,0.45,10.825,0.403c5.172-0.067,10.592,0.084,15.858,0.092    c12.1,0.018,24.156-0.326,36.272-0.311c5.836,0.008,11.613,0.463,17.452,0.438c6.796-0.029,13.84-0.587,20.594,0.199    c8.481,0.989,16.913,1.081,25.401-0.285c0.018-0.003,0.03-0.015,0.047-0.018c0.8-0.032,1.615-0.046,2.44-0.055    c-0.239,1.625-0.368,3.43-0.969,3.708c-0.104,0.048-2.288-0.602-2.662-0.647c-1.284-0.154-3.093-0.208-4.381-0.065    c-1.891,0.21-2.824,0.58-3.736,2.186c-0.631,1.11-0.618,4.559-1.702,5.241c-1.417,0.892-4.991,0.223-6.681,0.977    C114.762,349.228,113.732,354.277,113.839,358.583z M386.335,358.841c-4.606-0.52-9.196-0.156-13.819-0.468    c-10.258-0.692-20.46,0.421-30.704,0.395c-11.382-0.027-22.722,0.164-34.092,0.686c-4.496,0.206-8.997,0.071-13.487,0.016    c-12.032-0.798-24.237,0.123-36.187-0.043c-9.155-0.127-18.364,0.06-27.52,0.186c-1.259,0.017-2.565,0.004-3.898-0.019    c-2.16-0.114-4.325-0.149-6.494-0.142c-2.414-0.04-4.854-0.039-7.246,0.088c-2.867,0.037-5.737,0.045-8.606-0.086    c-11.37-0.521-22.71-0.713-34.092-0.686c-10.244,0.025-20.445-1.089-30.704-0.395c-4.624,0.312-9.213-0.053-13.819,0.468    c-1.472,0.167-4.455,0.616-6.642,0.226c0.15-2.392-0.1-4.939,1.287-6.485c0.562-0.627,1.106-0.982,1.646-1.181    c4.937,0.546,9.813,0.594,14.893,1.13c8.594,0.907,17.631,0.779,26.262,0.622c13.935-0.252,28.248,0.163,42.193-1.177    c0.524,0.026,1.056,0.026,1.571,0.039c4.849,0.117,9.762-0.057,14.626-0.029c11.041,0.064,22.073-0.567,33.121,0.055    c10.146,0.572,20.386,0.328,30.567,0.85c10.215,0.523,20.835,0.734,31.037-0.18c0.069-0.005,0.127-0.037,0.192-0.056    c10.821,0.506,21.758,0.306,32.472,0.5c8.631,0.156,17.668,0.285,26.262-0.622c5.08-0.535,9.956-0.584,14.893-1.13    c0.541,0.199,1.084,0.555,1.646,1.181c1.387,1.546,1.137,4.094,1.287,6.485C390.79,359.456,387.807,359.007,386.335,358.841z     M506.918,346.991c-0.11,2.291-0.449,4.572-0.644,6.858c-0.08,0.928-0.026,1.947-0.197,2.888c-0.415,0.055-0.83,0.11-1.245,0.165    c-2.506-0.591-6.446,0.353-9.032,0.369c-3.735,0.024-7.471,0.016-11.206,0.024c-5.494,0.011-10.934,0.28-16.389,0.425    c-11.456,0.306-22.9,0.754-34.371,0.787c-5.761,0.017-11.518-0.45-17.301-0.447c-5.84,0.003-12.579-0.895-18.374,0.522    c0.108-4.306-0.923-9.355-4.919-11.137c-1.691-0.754-5.264-0.085-6.681-0.977c-1.084-0.682-1.071-4.129-1.702-5.241    c-0.913-1.605-1.846-1.976-3.736-2.186c-1.289-0.143-3.098-0.089-4.381,0.065c-0.374,0.045-2.557,0.697-2.662,0.647    c-0.6-0.279-0.73-2.084-0.969-3.708c0.825,0.009,1.64,0.023,2.44,0.055c0.017,0.003,0.029,0.016,0.047,0.018    c8.488,1.366,16.92,1.274,25.401,0.285c6.754-0.786,13.798-0.228,20.594-0.199c5.839,0.025,11.616-0.431,17.452-0.438    c12.116-0.015,24.173,0.33,36.272,0.311c5.266-0.008,10.686-0.158,15.858-0.091c3.661,0.047,7.249,0.063,10.825-0.403    c1.378,0.379,2.79,0.744,3.783,1.44C507.913,338.518,507.039,344.49,506.918,346.991z"/>
	</g>
</g>
<g>
	<g>
		<path d="M331.122,188.944c-7.531-3.25-15.319-6.09-23.026-8.957c-8.147-3.03-16.235-6.263-24.358-9.36    c-4.076-1.555-8.122-2.945-12.064-4.809c-2.125-1.005-4.539-1.823-6.827-2.762c-3.142-3.385-7.105-4.465-11.401-3.041    c-3.417,1.133-6.965,2.758-10.215,4.575c-0.999,0.392-1.98,0.791-2.903,1.229c-3.942,1.864-7.989,3.255-12.064,4.809    c-8.123,3.098-16.211,6.33-24.358,9.36c-7.706,2.866-15.495,5.707-23.026,8.957c-3.391,1.463-13.957,3.644-12.674,9.163    c0.148,0.646,0.762,1.298,1.426,1.427c6.867,1.346,15.114,0.789,22.089,0.373c7.814-0.467,15.67-0.354,23.506-0.742    c13.657-0.675,27.3-1.208,40.773-3.427c13.474,2.219,27.115,2.751,40.772,3.427c7.836,0.388,15.692,0.275,23.506,0.742    c6.975,0.417,15.224,0.973,22.089-0.373c0.663-0.13,1.277-0.782,1.428-1.428C345.079,192.588,334.513,190.407,331.122,188.944z     M334.429,196.004c-4.287,0.017-8.724,0.323-13.002,0.044c-6.9-0.449-13.858-0.389-20.789-0.619    c-3.925,0-7.869-0.262-11.792-0.392c-3.395-0.113-7.179,0.255-10.421-0.809c-3.312-1.086-7.438-0.78-10.904-0.85    c-3.843-0.078-7.694,0.018-11.519,0.403c-3.826-0.384-7.676-0.48-11.519-0.403c-3.464,0.07-7.59-0.237-10.904,0.85    c-3.241,1.064-7.025,0.696-10.421,0.809c-3.924,0.13-7.867,0.392-11.792,0.392c-6.931,0.23-13.889,0.17-20.789,0.619    c-4.278,0.278-8.716-0.028-13.002-0.044c-0.695-0.003-1.566-0.116-2.45-0.218c0.179-0.075,0.361-0.149,0.542-0.225    c3.492-1.478,7.119-2.597,10.584-4.062c3.855-1.628,7.71-3.257,11.565-4.885l23.128-9.772c5.389-2.277,10.985-4.472,16.543-6.49    c2.57-0.934,4.998-1.59,7.455-2.897c0.178-0.095,0.35-0.199,0.527-0.295c2.219-0.724,4.372-1.582,6.6-2.556    c1.924-0.841,4.317-1.903,6.461-1.594c1.079,0.155,2.098,0.614,3.127,1.043c1.707,1.276,3.529,2.402,5.408,3.402    c2.455,1.306,4.884,1.963,7.455,2.897c5.557,2.018,11.152,4.212,16.543,6.49l23.128,9.772c3.855,1.628,7.71,3.257,11.565,4.885    c3.465,1.464,7.093,2.583,10.584,4.062c0.181,0.076,0.363,0.15,0.544,0.225C335.993,195.887,335.123,196,334.429,196.004z"/>
	</g>
</g>
<g>
</g>
<g>
</g>
<g>
</g>
<g>
</g>
<g>
</g>
<g>
</g>
<g>
</g>
<g>
</g>
<g>
</g>
<g>
</g>
<g>
</g>
<g>
</g>
<g>
</g>
<g>
</g>
<g>
</g>
</svg>
