<?xml version="1.0" encoding="iso-8859-1"?>
<!-- Generator: Adobe Illustrator 19.0.0, SVG Export Plug-In . SVG Version: 6.00 Build 0)  -->
<svg xmlns="http://www.w3.org/2000/svg" xmlns:xlink="http://www.w3.org/1999/xlink" version="1.1" id="Layer_1" x="0px" y="0px" viewBox="0 0 512.005 512.005" style="enable-background:new 0 0 512.005 512.005;" xml:space="preserve">
<g>
	<g>
		<path d="M510.57,331.061c-3.724-5.112-9.492-10.103-15.012-13.064c-0.924-0.496-1.786-0.979-2.637-1.426    c2.883-3.72,2.88-10.269,2.088-14.257c-0.026-0.125-0.071-0.237-0.116-0.349c3.181-2.055,5.968-6.351,3.898-9.986    c-1.229-2.158-3.387-3.865-5.708-5.296c-6.076-5.416-12.439-10.317-19.191-15.088c-3.108-2.195-6.342-4.029-9.929-1.932    c-4.266,2.495-7.641,6.459-11.693,9.268c-3.565,2.471-6.507,6.472-11.051,4.263c-3.305-1.606-6.48-4.466-9.648-6.418    c-5.553-3.422-12.622-12.099-20.115-9.07c-0.42,0.17-0.831,0.363-1.237,0.566c0.045-1.935-0.105-3.863-0.038-5.029    c0.436-7.604,0.922-15.203,1.435-22.787c0.507-7.497,1.207-14.984,1.574-22.481c0.196-4.002,0.897-9.001-0.047-13.259    c3.839-0.249,7.535-1.233,8.596-5.375c0.833-3.251-0.498-6.888-1.365-10.001c-1.159-4.162-2.584-8.284-3.66-12.465    c-1.753-6.808-3.922-13.538-5.724-20.366c-1.878-7.115-4.052-14.021-6.914-20.788c-2.425-5.733-5.335-9.572-11.882-9.777    c-17.351-0.543-34.992-0.143-52.351,0.008c-17.449,0.152-34.811-1.505-52.242-1.81c-9.936-0.174-19.859-0.02-29.788-0.227    c-7.932-0.165-16.299-1.263-24.14,0.426c-6.932,1.494-8.948,8.911-11.416,14.698c-1.567,3.671-3.116,7.336-4.43,11.106    c-0.684,1.964-1.067,4.007-1.425,6.037c-0.533-0.694-1.067-1.388-1.595-2.079c-5.032-6.607-9.947-13.44-15.609-19.503    c-2.958-3.167-5.832-6.484-9.174-9.271c-1.901-1.585-4.87-4.476-7.684-5.341c0.709-2.114,0.256-4.998,0.273-6.986    c0.038-4.646,0.4-10.082-1.082-14.524c-0.46-1.378-2.342-1.38-2.802,0c-1.331,3.988-1.084,8.815-1.104,12.997    c-0.011,2.607-0.417,6.212,0.482,8.916c-5.085,2.33-9.733,10.37-12.548,13.564c-5.717,6.487-11.278,12.93-16.438,19.864    c-2.573,3.457-5.036,6.897-7.448,10.458c-1.649,2.436-4.481,5.346-5.07,8.357c-0.639,3.263,1.613,4.529,4.154,4.491    c-0.078,0.645-0.109,1.332-0.106,2.057c0.016,3.377-0.113,7.963,0.746,11.609c-1.911,0.098-3.82,0.213-5.725,0.365    c-3.803,0.305-7.435,0.677-9.511,4.149c-1.415,2.365-2.004,5.177-2.93,7.739c-0.956,2.646-2.505,4.985-2.674,7.815    c-0.051,0.858,0.518,1.837,1.279,2.231c2.883,1.49,6.769,0.735,9.899,0.704c0.32-0.003,0.618-0.012,0.924-0.019    c-0.161,0.548-0.298,1.163-0.407,1.87c-0.192,1.229-0.293,2.466-0.364,3.709c-2.189-0.905-4.607-0.353-6.953-0.354    c-0.313,0.002-0.617-0.002-0.922-0.003c-0.024,0-0.046,0-0.07,0c-0.195-0.001-0.398,0.002-0.588-0.003    c-5.337-0.15-10.729-0.003-16.052-0.43c-4.935-0.396-9.901-0.382-14.854-0.292c-2.994,0.055-7.594-0.118-10.082,1.89    c-2.754,2.224-1.752,5.793-1.863,8.938c-0.2,5.6-0.902,11.164-1.046,16.775c-0.159,6.179-0.28,12.361-0.42,18.542    c-0.101,4.471-1.27,10.009,0.638,14.185c-2.283,1.645-4.587,3.439-6.957,4.592c-4.543,2.209-7.486-1.792-11.051-4.263    c-4.051-2.808-7.426-6.772-11.693-9.268c-3.586-2.097-6.821-0.264-9.929,1.932c-6.752,4.769-13.116,9.671-19.191,15.088    c-2.321,1.43-4.481,3.138-5.709,5.296c-1.405,2.467-0.567,5.238,1.107,7.409c-0.193,0.349-0.326,0.76-0.357,1.248    c-0.273,4.378-0.151,8.721-0.095,13.088c0.008,0.59,0.054,1.107,0.134,1.581c-2.276,1.906-4.008,4.766-5.709,6.972    c-1.726,2.238-3.659,4.297-5.359,6.557c-1.587,2.111-4.62,5.058-4.849,7.888c-0.322,3.982,3.857,4.626,7.024,4.832    c0.193,0.012,0.387,0.017,0.581,0.028c-0.939,3.498-0.91,7.342-1.336,10.896c-0.566,4.723-0.151,9.453-0.171,14.181    c-0.041,9.214,0.24,18.34,0.583,27.514c0.243,6.518-0.726,15.322,6.793,17.86c4.148,1.4,9.041,1.076,13.341,0.927    c1.347-0.047,2.788,0.103,4.23,0.207c0.008,0.072,0.019,0.144,0.026,0.215c2.551,1.021,5.437,0.569,8.556,0.564    c3.282-0.004,6.549,0.658,9.842,0.513c4.748-0.211,9.408-0.511,14.182-0.505c9.894,0.014,19.624-0.167,29.433-0.373    c1.63-0.034,2.98,0.083,4.411-0.639c0.016,0.147,0.038,0.293,0.053,0.44c2.551,1.021,5.435,0.569,8.556,0.564    c3.282-0.005,6.549,0.658,9.842,0.513c4.749-0.211,9.408-0.511,14.183-0.505c9.894,0.014,19.623-0.167,29.433-0.373    c1.49-0.032,2.748,0.063,4.047-0.472c0.009,0.091,0.024,0.182,0.033,0.273c2.551,1.021,5.437,0.569,8.556,0.564    c3.282-0.005,6.549,0.658,9.841,0.513c4.749-0.211,9.408-0.511,14.183-0.505c9.894,0.013,19.623-0.167,29.433-0.373    c1.629-0.034,2.98,0.083,4.411-0.639c0.016,0.147,0.038,0.293,0.053,0.44c2.551,1.021,5.437,0.569,8.556,0.564    c3.284-0.005,6.549,0.658,9.842,0.513c4.748-0.211,9.408-0.511,14.181-0.505c9.894,0.013,19.623-0.167,29.433-0.373    c1.788-0.037,3.238,0.119,4.829-0.865c0.389-0.24,0.706-0.517,0.99-0.812c0.057,0.493,0.129,0.984,0.179,1.477    c2.551,1.021,5.437,0.569,8.556,0.564c3.282-0.005,6.549,0.658,9.841,0.513c4.749-0.211,9.408-0.511,14.182-0.505    c9.894,0.014,19.624-0.167,29.433-0.373c1.538-0.033,2.827,0.076,4.171-0.52c10.51,1.6,21.043,0.578,31.661,1.151    c2.369,0.127,11.128,1.126,14.831-0.948c1.161,0.37,2.31,0.29,3.648,0.318c9.81,0.206,19.539,0.385,29.433,0.373    c4.775-0.007,9.434,0.294,14.183,0.505c3.292,0.145,6.558-0.517,9.841-0.513c3.119,0.005,6.005,0.458,8.556-0.564    c0.009-0.086,0.023-0.17,0.03-0.255c4.402,0.45,8.946-0.144,13.32-0.956c3.311-0.613,8.052-1.619,10.658-3.934    c3.193-2.837,3.447-7.495,3.715-11.464c0.61-9.021,1.217-17.989,1.023-27.059c-0.128-6.014-0.308-12.025-0.45-18.038    c-0.081-3.463,0.027-7.521-0.849-10.967c0.305-0.033,0.611-0.063,0.916-0.105C510.15,339.879,514.31,336.195,510.57,331.061z     M414.311,273.739c3.766-0.619,8.95,5.168,11.773,7.162c2.996,2.116,6.091,4.014,9.055,6.168c2.721,1.977,6.33,4.894,9.935,4.288    c3.263-0.549,6.22-3.491,8.66-5.49c3.006-2.463,5.898-4.906,8.784-7.543c2.185-1.995,3.619-3.526,6.548-2.291    c1.744,0.736,3.207,2.559,4.802,3.618c6.13,4.074,12.279,8.861,18.879,12.286c1.261,1.356,2.208,2.926,1.301,4.505    c-1.252,2.18-2.635,1.222-4.225,0.224c-2.093-1.314-4.258-2.653-6.36-4.058c-1.478-1.434-3.034-2.78-4.578-4.026    c-3.135-2.532-6.746-6.651-11.305-5.933c-3.65,0.575-6.07,5.384-8.686,7.655c-3.696,3.21-11.424,8.88-16.474,7.385    c-6.247-1.85-12.166-7.568-17.172-11.442c-2.958-2.289-6.293-5.671-10.296-4.173c-3.055,1.143-5.796,3.245-8.45,5.355    c-0.832,0.053-1.659,0.096-2.471,0.108c-1.452,0.02-2.834,0.079-4.177,0.177c-2.022-0.249-4.081-0.33-6.143-0.336    c0.133-0.054,0.268-0.09,0.401-0.152c3.766-1.735,7.504-4.458,10.795-6.987C407.637,278.147,410.75,274.324,414.311,273.739z     M425.72,292.582c6.046,4.972,12.471,11.224,19.917,10.484c3.944-0.392,7.845-3.254,11.105-5.251    c3.588-2.198,6.734-5.486,9.504-8.62c1.48-1.676,2.226-2.704,4.309-1.958c1.417,1.899,3.64,3.39,5.309,4.976    c1.613,1.533,3.295,2.949,5.111,4.226c2.218,1.56,5.795,4.906,9.192,6.008c-0.028,0.246-0.029,0.496,0.015,0.745    c-0.546,3.204-0.275,7.036-2.679,9.053c-2.709,2.271-7.046,1.104-10.493,1.114c-6.528,0.018-12.952,0.263-19.473,0.081    c-6.231-0.172-12.485-0.624-18.719-0.349c-4.211,0.186-8.455-0.594-12.517,0.19c-0.325-3.449-0.7-6.55-0.801-8.791    C425.314,300.439,426.481,295.989,425.72,292.582z M370.914,257.662c-0.194-1.483-0.348-2.965-0.347-4.441    c0.001-1.611,0.003-3.227,0.009-4.844c1.055-2.532,1.176-5.443,2.026-8.048c1.756-5.384,6.031-11.867,11.951-13.219    c10.171-2.323,10.568,11.764,12.297,20.041c-0.655,10.498-1.471,21.106-1.116,31.57c-1.796,1.206-3.569,2.192-4.775,2.302    c-3.465,0.313-8.419-3.777-11.316-5.397c-2.997-1.676-5.825-3.557-8.676-5.433C372.328,266.02,371.461,261.832,370.914,257.662z     M399.031,211.459c-0.187,2.786-0.228,5.598-0.482,8.251c-0.399,4.156-0.666,8.302-0.893,12.453c-0.039-0.097-0.08-0.2-0.12-0.294    c-2.12-5.12-5.269-9.295-11.375-8.941c-6.045,0.351-11.362,5.213-14.24,10.227c-0.431,0.752-0.803,1.489-1.14,2.222    c0.044-1.363,0.088-2.724,0.153-4.082c0.42-8.668-0.154-17.687-1.036-26.31c3.743,0.08,7.488,0.139,11.235,0.15    c4.509,0.014,9.018,0.008,13.527-0.037c0.842-0.009,1.959-0.131,3.163-0.263c0.281,0.071,0.522,0.163,0.691,0.295    c0.618,0.481,0.345,2.155,0.369,2.88C398.918,209.11,398.889,210.309,399.031,211.459z M390.535,292.534    c8.038,1.333,16.034,0.348,24.159,0.481c2.702,0.044,4.565-0.406,5.493,2.106c0.444,1.199-0.508,4.433-0.581,5.674    c-0.214,3.674,0.44,7.17,0.637,10.818c0.189,3.49,0.568,7.393,0.239,10.853c-0.291,3.057,0.087,8.033-2.128,10.4    c-2.766,2.954-7.921,1.177-11.644,1.361c-4.301,0.213-8.544,0.366-12.866,0.357c-4.643-0.009-9.24-0.285-13.872-0.395    c-2.323-0.055-5.121-0.463-7.379-0.264c-2.55,0.225-1.978,0.959-2.703-0.795c-1.42-3.433-0.434-8.66-0.441-12.28    c-0.01-4.988,0.01-9.912,0.515-14.877c0.284-2.799,0.15-10.276,1.822-12.375c1.747-2.194,9.549-0.73,12.264-0.799    C386.228,292.746,388.38,292.63,390.535,292.534z M400.945,244.702c0.055-1.693,0.12-3.385,0.206-5.076    c0.339-6.669,0.414-13.307,0.993-19.969c0.338-3.886,1.066-8.926,0.525-13.218c0.138-0.231,0.26-0.469,0.405-0.697    c0.104-0.163,0.641-0.587,0.629-0.779c0.008-0.002,0.006-0.001,0.015-0.005c0.153-0.007,0.34-0.052,0.489-0.085    c0.201-0.045,0.389-0.122,0.572-0.212c0.398,0.08,0.771,0.18,1.082,0.329c4.92,2.355,0.13,15.897-0.095,20.177l-1.202,22.969    c-0.274,5.222-0.547,10.444-0.821,15.666c-0.126,2.402,0.067,5.089-0.387,7.448c-0.346,1.801,0.331,1.566-1.834,3.167    c-0.331,0.245-0.744,0.562-1.203,0.916c0.389-9.191,0.316-18.418,0.54-27.619C400.982,246.749,401.003,245.736,400.945,244.702z     M222.831,164.913c-0.907-1.354-1.871-2.686-2.85-4.008c1.961-3.303,2.88-7.356,4.294-10.82c1.309-3.207,2.691-6.371,4.061-9.551    c1.213-2.815,2.098-6.918,4.465-8.939c2.723-2.325,7.585-1.835,10.96-1.837c3.573-0.002,7.122-0.024,10.686,0.216    c7.461,0.504,15.013,0.658,22.49,0.708c30.914,0.205,61.736,2.347,92.678,2.535c4.154,0.025,8.306,0.062,12.459,0.064    c3.133,0.001,7.965-1.046,10.968-0.159c5.284,1.561,7.924,13.702,9.132,18.344c3.48,13.375,7.202,26.592,10.879,39.893    c0.348,1.259,1.832,5.182,0.513,6.299c-0.266,0.224-3.909,0.37-4.089,0.382c-2.972,0.197-6,0.395-8.976,0.511    c-9.187,0.358-18.501-0.032-27.7-0.038c-14.893-0.011-29.729-1.081-44.615-1.189c-18.182-0.133-36.624-2.088-54.807-0.853    c-7.715,0.524-15.438,0.402-23.183,0.406c-7.154,0.003-14.429,0.819-21.521,0.73c-0.801-1.408-1.685-2.749-2.694-3.954    c-1.763-2.106-3.795-3.071-6.033-3.511c-1.287-4.303-0.057-10.068-1.115-14.055c2.623-0.563,4.882-1.827,5.834-4.318    C225.657,169.166,224.262,167.051,222.831,164.913z M366.486,237.506c0.225,4.969,0.417,9.966,0.42,14.943    c0.003,4.669,0.7,10.268,0.055,15.161c-2.03-1.252-3.986-2.241-6.061-2.143c0.349-8.912-0.278-17.854-0.251-26.736    c0.02-6.338-0.038-12.679-0.096-19.017c-0.045-4.934,0.232-10.054-0.428-14.982c2.487,0.073,4.974,0.132,7.462,0.192    C366.362,215.793,365.989,226.534,366.486,237.506z M320.337,246.602c1.468-4.171,3.357-8.452,5.531-12.166    c1.718-2.934,2.938-5.033,6.2-6.41c3.614-1.526,6.85-1.788,10.632-0.753c6.158,1.684,8.94,4.682,10.479,10.785    c1.002,3.976,0.407,9.358,3.433,12.345c0.109,0.107,0.232,0.179,0.36,0.237c0.016,1.062,0.013,2.12-0.034,3.172    c-0.204,4.534-0.592,9.014-0.482,13.54c-2.688,1.84-5.228,3.932-7.836,5.867c-3.263,2.42-6.948,5.733-10.702,7.321    c-1.724,0.729-0.431,0.967-2.653,0.604c-0.681-0.112-3.135-2.11-3.267-2.205c-1.807-1.287-3.65-2.509-5.473-3.776    c-1.961-1.363-3.854-2.796-5.744-4.229C320.928,262.826,320.622,254.705,320.337,246.602z M356.672,218.595    c-0.051,5.353-0.052,10.707-0.083,16.062c-0.478-1.481-1.076-2.921-1.841-4.268c-2.792-4.918-9.169-7.46-14.627-8.01    c-8.882-0.896-16.454,5.467-20.107,13.468c-0.236-10.791-0.165-21.314-1.225-31.985c3.134,0.074,6.266,0.13,9.396,0.14    c9.646,0.03,19.282,0.348,28.922,0.639C356.491,209.234,356.716,213.999,356.672,218.595z M315.806,235.524    c-0.095,10.485-0.152,21.204,0.101,31.797c-0.312-0.224-0.618-0.455-0.934-0.676c-1.761-1.231-3.598-2.528-5.595-2.805    c-0.035-2.729-0.409-5.617-0.542-7.896c-0.324-5.532-0.519-11.135-0.715-16.688c-0.419-11.896,0.192-23.886-0.956-35.73    c3.1,0.099,6.197,0.197,9.295,0.28C315.257,214.176,315.899,225.169,315.806,235.524z M304.359,265.408    c-3.521,2.239-6.926,5.629-10.025,8.146c-3.145,2.553-6.788,4.776-9.669,7.62c-0.176,0.174-0.317,0.353-0.449,0.533    c-1.151,0.186-2.334,0.293-3.63-0.241c-2.729-1.124-5.264-3.59-7.676-5.766c0.26-5.492-0.588-11.18-0.835-16.588    c-0.139-3.056-0.248-6.149-0.325-9.243c1.275-2.306,1.42-4.439,2.201-7.143c1.843-6.386,5.666-11.992,12.887-12.823    c12.229-1.408,11.221,13.599,15.233,20.768c0.415,0.741,1.459,0.893,2.142,0.488c0.065,1.707,0.146,3.411,0.284,5.106    C304.713,258.892,304.052,262.378,304.359,265.408z M303.86,240.244c0.004,0.08,0.004,0.16,0.009,0.24    c-0.613-2.07-1.411-4.039-2.261-5.681c-2.861-5.526-7.833-9.664-14.28-9.389c-6.638,0.283-12.552,5.039-15.7,11.099    c-0.089-6.373-0.619-12.723-0.633-19.091c-0.009-4.223,1.219-9.604,0.053-13.958c1.128-0.039,2.257-0.065,3.386-0.117    c10.124-0.466,20.263-0.211,30.399,0.107C303.554,215.68,303.266,227.957,303.86,240.244z M267.454,238.983    c-0.073,6.406,0.16,12.884,0.342,19.292c0.126,4.483,0.154,9.041,0.387,13.564c-2.622-2.062-5.562-4.3-8.677-5.568    c0.491-3.151,0.091-6.415,0.083-9.603c-0.012-5.192,0.185-10.285,0.218-15.494c0.079-12.387,1.311-25.077,0.68-37.469    c2.615-0.027,5.228-0.078,7.842-0.149c-1.033,3.272-1.161,12.147-1.205,13.864C266.939,224.599,267.536,231.796,267.454,238.983z     M232.61,206.462c-0.277-0.75-0.568-1.51-0.868-2.274c6.407,0.169,13.065-0.44,19.413-0.437c1.864,0.001,3.727-0.002,5.585-0.011    c-0.565,5.709-0.408,11.471-0.369,17.204c0.034,5.017-0.215,9.996-0.32,14.991c-0.553-1.068-1.23-2.116-2.067-3.145    c-3.849-4.731-10.152-6.691-16.002-5.532c-5.367,1.063-9.544,5.042-12.138,10.019c0.251-8.604,0.667-17.417-0.852-25.839    c0.458-0.047,0.92-0.085,1.376-0.138c1.961-0.231,4.123-0.335,5.477-1.946C232.499,208.578,232.992,207.497,232.61,206.462z     M225.898,262.46c-0.025-3.408-0.089-6.82-0.135-10.232c1.458-8.851,4.137-20.495,14.772-20.991    c6.261-0.292,10.488,3.687,12.596,9.382c1.123,3.032,0.858,6.931,2.801,9.533c0.024,1.651,0.091,3.311,0.256,4.999    c0.329,3.367,0.805,6.9,0.853,10.352c-2.052-0.435-4.157-0.36-6.285,0.569c-5.414,2.363-10.781,7.586-15.31,11.348    c-3.214,2.67-4.972,3.708-7.605,2.442c-0.85-0.734-1.747-1.428-2.655-2.111C226.958,273.076,225.934,267.399,225.898,262.46z     M141.23,172.568c-0.15-0.254,3.659-5.203,4.256-6.064c3.16-4.557,6.66-8.762,10.077-13.135    c3.874-4.956,8.083-9.595,12.217-14.337c1.873-2.15,3.823-4.308,5.556-6.572c1.743-2.277,4.476-7.247,7.569-7.257    c2.661-0.008,5.98,3.702,7.667,5.459c2.17,2.261,4.264,4.544,6.227,6.988c3.78,4.703,7.197,9.644,10.604,14.603    c3.209,4.672,6.972,9.077,10.374,13.639c0.002,0.003,2.701,3.095,2.491,3.536c-0.011,0.024-1.061,0.283-1.381,0.48    c-1.124,0.695-2.889,1.166-4.595,1.536c-0.105-0.003-0.202-0.012-0.31-0.013c-11.44-0.12-22.816-0.655-34.298-0.354    c-6.024,0.158-12.022,0.497-18.067,0.559c-2.319,0.024-4.589,0.081-6.894,0.298c-2.445,0.23-5.183-0.335-7.556,0.144    c-0.773,0.157-1.414,0.4-1.955,0.716C142.521,172.849,141.515,173.047,141.23,172.568z M213.885,189.783    c-0.51,0.003-1.022,0.008-1.543,0.008c-5.723,0-11.313,0.529-17.031,0.281c-2.953-0.127-5.913-0.08-8.873,0.017    c-0.251-1.607-0.748-3.276-1.078-4.567c-0.809-3.171-0.99-5.998-4.875-6.407c-2.967-0.312-6.314,0.365-8.063,2.997    c-1.473,2.215-2.036,5.544-1.531,8.335c-8.187-0.021-16.392-0.115-24.564,0.142c0.541-2.197,0.407-4.314,0.1-6.854    c-0.175-1.455-1.1-5.788,0.256-6.988c0.609-0.538,4.989-0.05,5.973-0.127c9.092-0.714,18.588-0.458,27.718-0.397    c8.726,0.057,17.386,0.212,26.061,0.371c0.965,0.018,3.361-0.37,5.045-0.333c0.329,0.037,0.664,0.069,1.008,0.097    c0.214,0.046,0.395,0.11,0.528,0.198c1.682,1.105,0.906,4.455,0.859,6.098C213.808,184.876,213.509,187.448,213.885,189.783z     M181.629,186.549c0.1,1.007,0.069,1.938,0.074,2.952c0.001,0.251,0.01,0.507,0.023,0.762c-2.46,0.096-4.917,0.181-7.371,0.188    c0.285-1.887,0.021-3.891,0.886-5.692c0.8-1.668,4.281-3.441,5.872-1.908C181.863,183.573,181.526,185.511,181.629,186.549z     M125.945,209.025c0.672-4.03,2.763-10.724,5.016-12.203c2.974-1.951,8.941-0.866,12.468-1.038    c4.515-0.222,8.938,0.618,13.433,0.646c6.496,0.041,12.989,0.178,19.486,0.189c5.324,0.009,10.62-0.449,15.946-0.363    c2.612,0.042,5.208,0.517,7.814,0.518c2.6,0.001,5.113-0.661,7.726-0.603c3.576,0.079,9.891-1.311,12.895,0.685    c1.289,0.857,2.346,2.457,3.254,4.271c0.05,0.835,0.406,1.538,0.943,2.054c0.414,0.978,0.799,1.962,1.158,2.887    c-2.55,0.334-8.657,0.215-9.586,0.305c-4.482,0.439-8.897,0.263-13.389,0.197c-7.971-0.117-15.933,0.169-23.892,0.105    c-13.213-0.106-26.558,0.251-39.627,2.201c-1.398-0.172-2.811-0.193-4.523-0.207C133.156,208.655,128.695,209.382,125.945,209.025    z M220.042,261.37c-0.028,3.849-0.657,8.299-0.213,12.355c-0.072-0.059-0.15-0.114-0.222-0.172    c-2.719-2.208-5.671-5.091-8.731-7.276c-0.067-0.13-0.147-0.251-0.242-0.364c-0.625-4.794-0.375-9.878-0.728-14.691    c-0.466-6.337-0.39-12.81-0.248-19.164c0.118-5.304,0.475-10.609,0.613-15.901c0.03-1.148,0.047-2.615-0.372-3.8    c1.187-0.025,2.373-0.065,3.557-0.133c2.957-0.168,5.967-0.313,8.948-0.549c-1.877,9.935-1.879,20.193-2.231,30.265    C219.945,248.403,220.088,254.903,220.042,261.37z M205.642,263.797c-2.423-0.145-4.601,1.398-6.674,2.847    c-3.935,2.752-7.605,5.776-11.552,8.518c-1.823,1.267-3.666,2.489-5.473,3.776c-0.132,0.094-2.586,2.093-3.267,2.205    c-2.223,0.363-0.93,0.125-2.652-0.604c-3.752-1.588-7.438-4.901-10.702-7.321c-2.952-2.19-5.805-4.602-8.899-6.596    c-0.857-0.551-1.678-0.876-2.481-1.037c0.119-1.441,0.18-4.083,0.168-4.631c-0.065-3.021-0.141-6.04-0.2-9.059    c3.902,0.781,8.152-0.001,12.095,0.05c5.101,0.064,10.171,0.05,15.262,0.057c3.934,0.006,7.752,0.373,11.635,0.478    c3.862,0.104,8.835,0.267,12.772-0.569c0.011,0.477,0.014,0.954,0.026,1.43C205.794,256.75,205.547,260.327,205.642,263.797z     M205.212,243.329c0.085,0.133,0.194,0.247,0.311,0.351c0.016,1.452,0.055,2.905,0.08,4.357    c-8.427,0.13-16.786-0.238-25.242-0.219c-8.35,0.018-18.186-1.252-26.509,0.867c-0.001-0.123-0.006-0.245-0.007-0.367    c-0.014-1.486,0.03-2.974,0.094-4.46c0.651,0.167,1.347,0.29,2.097,0.272c5.399-0.133,10.84-0.468,16.247-0.484    c6.47-0.019,12.872-0.507,19.355-0.34c3.066,0.079,6.114,0.287,9.177,0.436C201.516,243.772,205.966,244.529,205.212,243.329z     M205.481,236.36c-0.002,1.215,0.016,2.426,0.021,3.639c-10.076-1.133-20.011-0.29-30.129-0.222    c-6.93,0.047-14.411-0.186-21.296,1.191c0.179-3.634,0.335-7.268-0.065-10.884c-0.585-5.27,0.49-11.886-1.968-16.854    c-0.142-0.289-0.305-0.551-0.479-0.797c2.404,0.041,4.809,0.107,7.213,0.256c4.468,0.276,8.973-0.549,13.443-0.6    c4.662-0.053,9.32-0.021,13.979-0.094c6.904-0.106,13.871,0.378,20.8,0.388C205.871,220.331,205.49,228.318,205.481,236.36z     M148.697,242.052c-0.488,6.622-0.163,13.328-0.435,19.967c-0.067,1.606-0.322,3.33-0.23,4.967    c-0.7,0.396-1.404,0.837-2.124,1.296c-3.314,2.119-6.524,4.327-9.896,6.333c1.302-10.218,1.99-20.583,1.17-30.858    c-0.446-5.609-0.452-11.518-0.521-17.148c-0.042-3.408-0.597-7.259,0.174-10.596c0.398-1.72,0.095-1.297,1.131-1.995    c0.947-0.638,3.59-0.645,4.684-0.692c7.782-0.334,6.061,8.606,6.072,13.819C148.732,232.183,149.071,236.967,148.697,242.052z     M85.432,224.654c0.927,0.02,1.854,0.038,2.781,0.056c8.361-0.243,16.711,0.097,25.073-0.029c4.519-0.069,9.09,0.013,13.595-0.387    c1.588-0.141,3.415-0.14,4.91-0.739c0.056,4.336,0.459,8.699,0.42,12.967c-0.061,6.933,0.552,13.802,0.384,20.751    c-0.158,6.582-0.525,12.741,0.241,19.244c-2.702,1.737-6.333,4.343-9.187,4.508c0.215-4.095-0.447-8.308-0.482-12.419    c-0.047-5.674,0.16-11.432-0.193-17.095c-0.395-6.338-3.748-14.422-10.714-15.594c-17.31-2.913-21.354,19.658-18.682,32.793    c-2.604,1.386-5.087,3.432-7.39,5.266c0.092-2.421-0.245-4.947-0.3-7.343c-0.125-5.494-0.249-10.989-0.374-16.483    c-0.114-5.001-0.269-9.982-0.674-14.969c-0.16-1.976-0.599-4.091-0.466-6.082C84.086,227.498,84.439,226.016,85.432,224.654z     M118.657,279.016c-2.396-1.56-4.912-3.613-6.24-4.594c-3.169-2.344-6.232-5.218-9.934-6.715c-1.846-0.747-3.667-0.781-5.446-0.36    c0.575-4.867-0.122-10.191,0.916-14.962c1.667-7.656,9.927-17.311,17.326-9.336c4.455,4.8,3.19,12.35,3.139,18.341    C118.373,267.289,118.552,273.155,118.657,279.016z M21.192,291.938c6.6-3.424,12.749-8.212,18.879-12.286    c1.595-1.06,3.057-2.882,4.802-3.618c2.928-1.235,4.363,0.295,6.548,2.291c2.887,2.638,5.778,5.08,8.784,7.543    c2.44,1.997,5.397,4.939,8.66,5.49c3.605,0.606,7.215-2.311,9.935-4.288c2.963-2.154,6.059-4.052,9.055-6.168    c2.823-1.993,8.008-7.781,11.773-7.162c3.561,0.585,6.673,4.409,9.401,6.504c3.292,2.528,7.029,5.252,10.795,6.986    c6.461,2.977,13.492-2.54,18.981-5.599c3.767-2.099,7.216-4.628,10.84-6.954c2.333-1.497,2.111-1.796,4.189-0.765    c1.8,0.893,3.408,2.447,4.998,3.641c3.108,2.336,6.28,4.542,9.461,6.77c2.732,1.915,5.543,4.813,9.065,5.017    c4.245,0.246,8.161-3.595,11.48-5.792c4.105-2.718,7.888-5.691,11.698-8.765c1.603-1.293,3.528-3.359,5.508-2.823    c1.805,0.489,4.738,3.521,6.088,4.633c3.955,3.259,8.159,6.357,12.039,9.687c0.237,0.204,0.482,0.365,0.73,0.499    c1.669,1.469,3.756,2.302,6.819,1.722c7.189-1.359,13.378-8.238,18.991-12.546c1.877-1.441,3.387-2.766,5.866-2.092    c2.134,0.581,4.291,2.566,6.079,3.851c4.046,2.907,7.773,6.233,11.82,9.127c4.05,2.896,11.192,4.394,14.142,0.125    c0.393-0.153,0.782-0.366,1.153-0.685c3.88-3.329,8.082-6.428,12.039-9.687c1.35-1.111,4.283-4.144,6.088-4.633    c1.979-0.536,3.905,1.53,5.508,2.823c3.809,3.075,7.593,6.047,11.697,8.765c3.317,2.197,7.233,6.037,11.48,5.792    c3.523-0.204,6.334-3.102,9.065-5.017c3.18-2.229,6.352-4.436,9.461-6.77c1.591-1.195,3.198-2.749,4.998-3.641    c2.077-1.03,1.855-0.732,4.189,0.765c3.624,2.325,7.073,4.854,10.84,6.954c3.386,1.887,7.36,4.704,11.423,5.891    c-1.17,0.026-2.331,0.042-3.473,0.027c-2.354-0.029-5.336-0.489-8.168-0.469c-0.736-0.497-1.48-0.985-2.248-1.444    c-4.218-2.518-8.02-5.574-12.758-2.675c-5.468,3.346-9.887,8.105-15.429,11.456c-3.996,2.417-6.953,2.692-11.195,0.444    c-2.589-1.372-5.292-3.074-7.65-4.815c-3.59-2.651-6.873-6.952-10.893-8.873c-3.616-1.728-7.733-0.178-10.729,2.012    c-2.736,2.001-4.902,4.693-7.72,6.583c-2.346,1.574-4.908,2.775-7.389,4.101c-0.033,0.017-0.055,0.039-0.087,0.057    c-5.152,1.072-11.002,1.058-15.725-1.203c-5.455-2.613-10.742-7.92-16.746-9.223c-2.681-0.582-4.376,0.14-6.475,1.766    c-3.078,2.386-6.014,4.859-9.422,6.794c-3.973,2.254-9.296,3.385-13.833,2.836c-0.176-0.021-0.385-0.055-0.584-0.085    c-0.21-0.363-0.525-0.692-0.995-0.943c-2.481-1.326-5.043-2.527-7.389-4.101c-2.818-1.89-4.984-4.582-7.72-6.583    c-2.996-2.19-7.113-3.74-10.729-2.012c-4.021,1.922-7.304,6.222-10.895,8.873c-2.358,1.742-5.061,3.445-7.65,4.815    c-4.243,2.248-7.2,1.971-11.196-0.444c-5.542-3.351-9.962-8.11-15.429-11.456c-4.738-2.899-8.54,0.157-12.758,2.675    c-4.331,2.586-8.03,5.919-12.486,8.335c-2.527,1.37-4.837,2.46-7.478,2.392c-2.761-2.376-6.837-3.677-9.736-5.733    c-3.993-2.832-7.929-6.812-12.585-8.553c-4.004-1.498-7.338,1.884-10.296,4.173c-5.005,3.874-10.924,9.593-17.172,11.442    c-5.05,1.495-12.779-4.175-16.474-7.385c-2.616-2.271-5.036-7.08-8.686-7.655c-4.557-0.718-8.17,3.401-11.305,5.932    c-1.543,1.246-3.1,2.593-4.578,4.026c-2.101,1.405-4.265,2.745-6.36,4.058c-1.588,0.996-2.972,1.956-4.224-0.224    C18.984,294.864,19.931,293.294,21.192,291.938z M368.347,288.872c-0.792,0.632-1.454,1.462-1.922,2.572    c-1.504,3.571-1.311,7.622-1.901,11.383c-0.499,3.18-0.753,6.381-0.874,9.593c-0.122-0.016-0.241-0.02-0.364-0.017    c-2.526-0.647-5.409-0.22-7.981-0.148c-3.539,0.099-7.072-0.007-10.647-0.001c-8.152,0.011-16.265-0.373-24.388-0.375    c-8.459-0.002-16.917-0.008-25.375,0.151c-4.253,0.08-9.093-0.193-13.723,0.183c-17.235-0.789-34.412,0.247-51.646-0.522    c-19.736-0.88-39.516,0.709-59.197,1.767c-9.786,0.526-19.582,0.356-29.386,1.012c-9.515,0.637-19.095,0.361-28.576,1.093    c-17.897,1.384-35.735-0.839-53.6-0.566c-7.948,0.122-15.91-0.8-23.846-0.142c-2.746,0.228-9.57,0.655-12.121-0.989    c-0.373-0.24-0.62-0.379-0.79-0.461c0-0.085-0.036-0.225-0.149-0.463c-0.3-0.635-0.225-2.696-0.285-3.43    c-0.183-2.231-0.185-4.48-0.254-6.727c4.008,0.308,8.878-4.402,11.643-6.345c1.816-1.277,3.497-2.692,5.111-4.226    c1.669-1.586,3.892-3.077,5.309-4.976c2.084-0.746,2.829,0.283,4.309,1.958c2.77,3.134,5.916,6.422,9.504,8.62    c3.259,1.996,7.16,4.858,11.105,5.251c9.892,0.983,17.985-10.378,25.781-14.679c5.094-2.81,10.004,2.849,14.078,5.906    c1.557,1.168,3.173,2.177,4.83,3.1c2.013,1.674,4.359,2.948,6.675,3.483c5.171,1.194,9.195-0.961,13.489-3.423    c4.895-2.806,9.021-7.316,14.286-9.453c4.533-1.84,6.8,1.385,10.108,4.208c2.418,2.064,4.953,3.914,7.661,5.589    c4.84,2.994,7.94,5.08,13.577,3.303c5.609-1.769,10.205-5.332,14.783-8.824c4.042-3.083,7.967-8.525,13.228-5.036    c2.795,1.853,4.873,4.687,7.632,6.62c0.942,0.661,1.931,1.248,2.932,1.814c4.682,4.49,12.63,5.207,18.537,3.811    c3.403-0.804,6.095-1.993,8.896-4.031c1.574-1.145,3.234-2.203,4.764-3.404c2.845-2.235,4.599-4.876,8.469-2.741    c6.186,3.411,11.651,8.48,18.697,10.032c3.324,0.733,9.595,1.352,13.539-0.627c0.408,0.002,0.839-0.088,1.278-0.327    c2.675-1.455,5.459-2.771,7.965-4.526c2.759-1.933,4.837-4.766,7.633-6.62c5.261-3.489,9.186,1.953,13.228,5.036    c4.579,3.492,9.174,7.055,14.783,8.824c5.637,1.778,8.737-0.309,13.577-3.303c2.708-1.675,5.243-3.525,7.661-5.589    c3.307-2.823,5.575-6.048,10.108-4.208C367.131,288.257,367.745,288.552,368.347,288.872z M6.266,336.198    c1.832-3.636,5.683-7.045,7.832-10.082c1.419-2.004,2.978-5.304,4.777-7.552c0.2,0.068,0.389,0.138,0.613,0.197    c3.054,0.8,6.851,0.406,9.972,0.635c4.278,0.313,8.561-0.001,12.824,0.238c8.021,0.45,15.991,1.559,23.996,1.966    c4.424,0.224,8.879,0.573,13.307,0.738c5.263,0.196,10.5-0.851,15.756-0.893c19.621-0.156,39.376-1.288,58.984-2.568    c10.404-0.679,20.952-0.216,31.386-0.532c10.576-0.319,21.113-0.22,31.693-0.138c11.471,0.089,22.888,0.747,34.368,0.552    c10.618-0.179,21.3,0.219,31.895-0.478c2.416,0.069,4.84,0.072,7.206,0.157c9.519,0.339,19.058,0.255,28.582,0.264    c8.711,0.008,17.423,0.392,26.166,0.375c5.255-0.009,12.756,1.39,17.918-0.912c-0.05,4.412-0.242,8.86-0.092,13.257    c0.035,1.016,0.045,2.091,0.167,3.138c-7.989,0.092-16.01,0.764-23.983,0.078c-10.684-0.921-21.485-0.804-32.221-0.852    c-12.052-0.055-24.149-1.513-36.178-1.277c-12.218,0.239-24.427,0.107-36.632,0.488c-26.148,0.817-52.285,0.994-78.441,1.558    c-12.615,0.272-25.159,1.553-37.772,1.73c-12.567,0.176-25.074,0.256-37.649,0.223c-12.793-0.033-25.773-0.073-38.52-1.087    c-5.744-0.457-12.149-0.605-17.875,0.016c-3.731,0.405-7.317,0.875-11.085,0.963C11.759,336.432,8.381,336.702,6.266,336.198z     M71.976,406.356c-1.37,1.82-6.289,0.929-8.305,0.931c-3.428,0.005-6.92-0.18-10.335,0.151c-4.929,0.477-9.656,0.128-14.523,0.293    c-0.145-0.152-0.303-0.3-0.492-0.432c-0.055-0.039-0.115-0.064-0.17-0.103c0.535-4.038-1.186-9.279-0.814-12.732    c0.495-4.591-0.184-9.365,1.567-13.742c2.071-5.182,5.777-7.776,10.618-10.093c4.062-1.944,9.706-3.162,14.163-1.507    c4.288,1.593,6.129,6.126,8.128,9.974c-1.483,0.471-2.771,1.273-3.559,2.62c-1.65,2.825-1.496,9.452,1.136,11.702    c0.718,0.614,1.661,0.967,2.673,1.198c-0.144,1.383,0.055,2.68,0.156,4.304C72.302,400.272,73.013,404.976,71.976,406.356z     M91.706,407.727c-4.354,0.931-8.925,0.608-13.361,0.933c0.683-2.469,0.939-5.918,0.871-8.123c-0.052-1.709-0.42-3.414-1.06-5.009    c2.741,0.271,5.116-0.357,7.943-0.024c2.1,0.248,5.057,0.794,7.884,0.78c-0.32,1.519-0.275,3.058-0.087,4.774    C94.274,404.472,95.618,406.891,91.706,407.727z M95.103,390.913c-3.099,1.514-8.145-0.141-11.642,0.005    c-3.282,0.135-8.27,1.056-10.631-1.844c-0.998-1.225-1.778-4.156-0.419-5.575c0.183-0.19,0.478-0.33,0.834-0.433    c3.666,0.06,7.278-0.3,10.936-0.571c1.182-0.047,2.364-0.112,3.544-0.2c1.279-0.048,2.564-0.073,3.869-0.027    c3.208,0.114,4.937-0.667,5.607,3.367C97.652,388.369,97.443,389.769,95.103,390.913z M138.452,406.356    c-1.37,1.82-6.288,0.929-8.305,0.931c-3.428,0.005-6.92-0.18-10.337,0.151c-5.173,0.5-10.121,0.086-15.246,0.316    c0.786-4.1-1.142-9.679-0.752-13.288c0.495-4.591-0.183-9.365,1.567-13.742c2.071-5.182,5.777-7.776,10.618-10.093    c4.063-1.944,9.706-3.162,14.163-1.507c4.289,1.593,6.129,6.126,8.127,9.974c-1.482,0.471-2.771,1.273-3.559,2.62    c-1.649,2.825-1.496,9.452,1.136,11.702c0.718,0.614,1.661,0.967,2.674,1.198c-0.145,1.383,0.055,2.681,0.156,4.304    C138.778,400.272,139.49,404.976,138.452,406.356z M158.183,407.727c-4.354,0.931-8.925,0.608-13.36,0.933    c0.683-2.469,0.939-5.918,0.872-8.123c-0.052-1.709-0.42-3.414-1.06-5.009c2.741,0.271,5.116-0.357,7.943-0.024    c2.1,0.248,5.057,0.794,7.884,0.78c-0.32,1.519-0.275,3.058-0.087,4.774C160.749,404.472,162.094,406.891,158.183,407.727z     M161.579,390.913c-3.099,1.514-8.145-0.141-11.642,0.003c-3.282,0.135-8.27,1.056-10.631-1.844    c-0.998-1.225-1.776-4.156-0.42-5.575c0.183-0.19,0.479-0.33,0.834-0.433c3.666,0.06,7.28-0.3,10.936-0.571    c1.182-0.047,2.364-0.112,3.544-0.2c1.279-0.048,2.564-0.073,3.869-0.027c3.208,0.114,4.937-0.667,5.607,3.367    C164.129,388.369,163.919,389.769,161.579,390.913z M204.544,406.356c-1.37,1.82-6.288,0.929-8.305,0.931    c-3.428,0.005-6.92-0.18-10.337,0.151c-5.173,0.5-10.121,0.086-15.246,0.316c0.786-4.1-1.142-9.679-0.752-13.288    c0.495-4.591-0.183-9.365,1.567-13.742c2.071-5.182,5.777-7.776,10.618-10.093c4.063-1.944,9.706-3.162,14.162-1.507    c4.289,1.593,6.129,6.126,8.127,9.974c-1.482,0.471-2.771,1.273-3.559,2.62c-1.649,2.825-1.496,9.452,1.136,11.702    c0.718,0.614,1.661,0.967,2.674,1.198c-0.144,1.383,0.055,2.681,0.156,4.304C204.87,400.272,205.581,404.976,204.544,406.356z     M224.275,407.727c-4.356,0.931-8.926,0.608-13.36,0.933c0.682-2.469,0.939-5.918,0.871-8.123c-0.052-1.709-0.42-3.414-1.06-5.009    c2.741,0.271,5.116-0.357,7.943-0.024c2.1,0.248,5.057,0.794,7.884,0.78c-0.32,1.519-0.275,3.058-0.087,4.774    C226.841,404.472,228.186,406.891,224.275,407.727z M227.671,390.913c-3.099,1.514-8.145-0.141-11.642,0.005    c-3.282,0.135-8.27,1.056-10.631-1.844c-0.998-1.225-1.776-4.156-0.42-5.575c0.183-0.19,0.479-0.33,0.834-0.433    c3.666,0.06,7.28-0.3,10.936-0.571c1.182-0.047,2.364-0.112,3.544-0.2c1.279-0.048,2.564-0.073,3.869-0.027    c3.208,0.114,4.937-0.667,5.607,3.367C230.221,388.369,230.011,389.769,227.671,390.913z M271.019,406.356    c-1.37,1.82-6.288,0.929-8.305,0.931c-3.428,0.005-6.92-0.18-10.335,0.151c-5.174,0.5-10.122,0.086-15.246,0.316    c0.785-4.1-1.142-9.679-0.752-13.288c0.495-4.591-0.183-9.365,1.567-13.742c2.071-5.182,5.777-7.776,10.618-10.093    c4.063-1.944,9.706-3.162,14.162-1.507c4.289,1.593,6.129,6.126,8.128,9.974c-1.483,0.471-2.771,1.273-3.559,2.62    c-1.649,2.825-1.496,9.452,1.136,11.702c0.718,0.614,1.661,0.967,2.674,1.198c-0.144,1.383,0.055,2.681,0.156,4.304    C271.346,400.272,272.057,404.976,271.019,406.356z M290.751,407.727c-4.356,0.931-8.926,0.608-13.361,0.933    c0.683-2.469,0.94-5.918,0.872-8.123c-0.052-1.709-0.42-3.414-1.061-5.009c2.741,0.271,5.116-0.357,7.943-0.024    c2.1,0.248,5.058,0.794,7.884,0.78c-0.32,1.519-0.275,3.058-0.087,4.774C293.318,404.472,294.661,406.891,290.751,407.727z     M294.147,390.913c-3.099,1.514-8.145-0.141-11.642,0.005c-3.282,0.135-8.27,1.056-10.631-1.844    c-0.998-1.225-1.778-4.156-0.42-5.575c0.183-0.19,0.478-0.33,0.833-0.433c3.666,0.06,7.28-0.3,10.936-0.571    c1.182-0.047,2.364-0.112,3.544-0.2c1.279-0.048,2.564-0.073,3.869-0.027c3.208,0.114,4.937-0.667,5.607,3.367    C296.696,388.369,296.487,389.769,294.147,390.913z M298.14,395.367c-0.009-0.026-0.015-0.053-0.024-0.079    c0.01-0.005,0.019-0.011,0.029-0.017C298.144,395.303,298.142,395.335,298.14,395.367z M339.028,406.356    c-1.37,1.82-6.288,0.929-8.305,0.931c-3.428,0.005-6.92-0.18-10.335,0.151c-5.173,0.5-10.122,0.086-15.246,0.316    c0.786-4.1-1.142-9.679-0.752-13.288c0.496-4.591-0.183-9.365,1.567-13.742c2.071-5.182,5.777-7.776,10.618-10.093    c4.061-1.944,9.706-3.162,14.162-1.507c4.289,1.593,6.129,6.126,8.127,9.974c-1.482,0.471-2.771,1.273-3.559,2.62    c-1.649,2.825-1.496,9.452,1.136,11.702c0.718,0.614,1.662,0.967,2.674,1.198c-0.144,1.383,0.056,2.681,0.156,4.304    C339.354,400.272,340.067,404.976,339.028,406.356z M358.76,407.727c-4.356,0.931-8.926,0.608-13.361,0.933    c0.682-2.469,0.939-5.918,0.871-8.123c-0.052-1.709-0.42-3.414-1.06-5.009c2.741,0.271,5.116-0.357,7.943-0.024    c2.1,0.248,5.058,0.794,7.884,0.78c-0.32,1.519-0.275,3.058-0.087,4.774C361.326,404.472,362.671,406.891,358.76,407.727z     M362.155,390.913c-3.099,1.514-8.145-0.141-11.642,0.005c-3.282,0.135-8.27,1.056-10.631-1.844    c-0.998-1.225-1.776-4.156-0.42-5.575c0.183-0.19,0.479-0.33,0.834-0.433c3.666,0.06,7.278-0.3,10.936-0.571    c1.182-0.047,2.364-0.112,3.544-0.2c1.279-0.048,2.564-0.073,3.869-0.027c3.208,0.114,4.937-0.667,5.607,3.367    C364.705,388.369,364.496,389.769,362.155,390.913z M407.173,405.375c-0.05,0.675-0.085,1.363-0.07,2.04    c-0.183,0-0.362,0-0.534-0.003c-3.786-0.064-7.657,0.017-11.43-0.257c-6.563-0.477-13.053,0.056-19.624,0.153    c-2.832,0.042-5.461,0.132-8.022,0.553c0.045-0.821,0.018-1.66-0.044-2.485c-0.239-3.229-0.273-6.955-1.326-10.086    c0.958-0.481,1.781-1.161,2.374-2.129c2.137-3.493,1.938-11.623-1.619-14.241c-0.136-0.1-0.291-0.183-0.437-0.274    c0.375-0.885,0.786-1.967,0.88-2.519c0.636-3.69,0.919-7.423,2.058-11.03c2.947-9.333,10.197-13.984,19.892-14.233    c8.711-0.223,16.52,4.119,17.889,13.071c0.49,3.206,0.879,6.557,0.916,9.779c0.023,1.917-0.103,3.464,0.109,4.926    c-0.149,0.092-0.307,0.178-0.445,0.28c-3.556,2.619-3.756,10.748-1.619,14.241c0.593,0.968,1.416,1.648,2.375,2.129    C407.446,398.42,407.412,402.147,407.173,405.375z M429.225,408.661c-4.434-0.326-9.005-0.002-13.361-0.933    c-3.911-0.836-2.567-3.255-2.192-6.67c0.188-1.716,0.233-3.253-0.087-4.774c2.826,0.014,5.784-0.532,7.884-0.78    c2.827-0.334,5.203,0.295,7.943,0.024c-0.639,1.595-1.008,3.299-1.06,5.009C428.285,402.744,428.542,406.192,429.225,408.661z     M424.111,390.916c-3.497-0.144-8.543,1.51-11.642-0.005c-2.339-1.143-2.55-2.542-2.097-5.274    c0.658-3.976,6.452-3.457,9.477-3.344c1.18,0.088,2.362,0.152,3.544,0.2c3.657,0.272,7.271,0.631,10.936,0.571    c0.355,0.103,0.652,0.242,0.834,0.433c1.357,1.419,0.577,4.35-0.42,5.575C432.381,391.972,427.393,391.051,424.111,390.916z     M469.483,407.752c-5.124-0.23-10.073,0.185-15.246-0.316c-3.417-0.33-6.908-0.147-10.335-0.151    c-2.018-0.002-6.936,0.889-8.305-0.931c-1.038-1.38-0.326-6.084-0.243-7.435c0.099-1.623,0.3-2.922,0.156-4.304    c1.012-0.232,1.955-0.584,2.674-1.198c2.632-2.25,2.786-8.877,1.136-11.702c-0.788-1.347-2.075-2.148-3.559-2.62    c1.999-3.847,3.839-8.381,8.127-9.974c4.456-1.655,10.101-0.436,14.163,1.507c4.841,2.318,8.548,4.91,10.618,10.093    c1.749,4.377,1.071,9.151,1.567,13.742C470.624,398.073,468.698,403.652,469.483,407.752z M498.444,362.979    c-0.256,9.129-0.725,18.13-1.547,27.182c-0.271,2.986-0.374,6.069-0.858,9.023c-0.396,2.416-0.507,2.886-2.798,3.692    c-2.067,0.726-4.186,1.176-6.352,1.499c-3.636,0.543-7.132,0.242-10.462,0.727c-0.161-0.401-0.259-0.905-0.278-1.557    c-0.061-2.2,0.583-4.397,0.435-6.655c-0.626-9.621-1.311-19.771-9.024-26.762c-5.903-5.35-15.76-8.359-23.693-6.529    c-5.193,1.199-10.84,6.563-11.733,12.154c-0.425,0.865-0.8,1.756-1.071,2.711c-0.023-0.001-0.047-0.002-0.07-0.002    c-1.53-0.326-3.069-0.61-4.547-0.803c-2.634-0.344-6.593-0.859-10.36-0.779c0.246-2.288,0.042-4.699-0.236-6.891    c-0.566-4.46-1.25-9.744-3.086-13.886c-3.996-9.019-15.903-12.156-24.823-11.064c-10.338,1.265-18.529,5.501-22.808,15.297    c-1.372,3.14-4.299,11.556-3.364,16.788c-4.557-0.647-10.186,0.09-13.594,0.537c-1.478,0.193-3.018,0.477-4.547,0.803    c-0.023,0-0.046,0.002-0.07,0.002c-0.271-0.955-0.646-1.846-1.071-2.711c-0.893-5.591-6.539-10.954-11.733-12.154    c-7.933-1.832-17.789,1.178-23.692,6.529c-3.353,3.039-5.377,6.675-6.646,10.606c-0.42-0.733-0.93-1.361-1.547-1.815    c-4.285-3.154-13.797-1.902-18.704-1.26c-1.479,0.193-3.019,0.477-4.547,0.803c-0.023,0-0.046,0.002-0.07,0.002    c-0.271-0.955-0.646-1.846-1.071-2.711c-0.893-5.591-6.54-10.954-11.733-12.154c-7.932-1.832-17.789,1.178-23.692,6.529    c-2.958,2.68-4.876,5.828-6.16,9.23c-0.16-0.156-0.322-0.309-0.498-0.44c-4.285-3.154-13.797-1.902-18.705-1.26    c-1.478,0.193-3.018,0.477-4.547,0.803c-0.024,0-0.047,0.002-0.07,0.002c-0.271-0.955-0.646-1.846-1.071-2.711    c-0.892-5.591-6.539-10.954-11.733-12.154c-7.933-1.832-17.79,1.178-23.693,6.529c-2.885,2.614-4.785,5.669-6.068,8.974    c-0.071-0.059-0.134-0.129-0.207-0.183c-4.283-3.154-13.797-1.902-18.704-1.26c-1.478,0.193-3.018,0.477-4.547,0.803    c-0.024,0-0.046,0.002-0.07,0.002c-0.271-0.955-0.646-1.846-1.071-2.711c-0.892-5.591-6.539-10.954-11.733-12.154    c-7.933-1.832-17.79,1.178-23.693,6.529c-2.958,2.68-4.876,5.828-6.16,9.231c-0.16-0.156-0.322-0.309-0.498-0.44    c-4.283-3.154-13.797-1.902-18.704-1.26c-1.478,0.193-3.018,0.477-4.547,0.803c-0.024,0-0.046,0.002-0.07,0.002    c-0.271-0.955-0.646-1.846-1.071-2.711c-0.893-5.591-6.539-10.954-11.733-12.154c-7.932-1.832-17.789,1.178-23.693,6.529    c-7.714,6.991-8.399,17.142-9.024,26.762c-0.147,2.258,0.497,4.455,0.435,6.655c-0.024,0.847-0.188,1.436-0.45,1.876    c-4.686,0.085-9.679,1.499-13.902-0.291c-2.099-0.891-2.005-1.036-2.404-3.254c-0.347-1.933-0.504-3.968-0.64-5.921    c-0.241-3.455-0.521-6.905-0.675-10.35c-0.329-7.348-0.624-14.948-1.388-22.258c-0.445-4.27-0.506-8.329-0.388-12.579    c0.083-2.974-0.048-6.147-0.823-9.057c6.019,0.154,12.047-0.156,18.058,0.062c5.806,0.21,11.93,0.737,17.721,0.39    c6.74-0.405,13.534-1.849,20.292-1.736c14.301,0.24,28.645,0.978,42.945,0.453c14.764-0.542,29.586,0.796,44.385,0.272    c15.429-0.547,30.917-0.071,46.357-0.482c28.392-0.758,56.742-1.87,85.127-1.013c27.681,0.835,55.423,2.141,83.071,0.654    c1.804,0.36,3.785,0.281,5.476,0.392c5.131,0.34,10.438,0.388,15.585,0.381c4.428-0.005,8.934,0.233,13.354-0.016    c3.369-0.189,6.98,0.021,10.452-0.156c4.306,0.316,8.751-0.055,12.8-0.392c8.903-0.742,17.893-0.621,26.839-0.613    c9.929,0.008,19.874,0.201,29.8,0.024c5.476-0.098,11.067,0.913,16.599,0.973C497.869,347.982,498.648,355.702,498.444,362.979z     M502.978,335.002c-1.441,0.213-3.454-0.017-4.883-0.032c-3.492-0.035-6.957-0.364-10.438-0.605    c-14.68-1.016-29.747-0.114-44.479-0.101c-6.188,0.006-12.421,0.241-18.596,0.742c2.217-4.401,2.44-10.729,2.101-16.758    c5.633,1.297,11.998,0.411,17.599,0.601c7.686,0.26,15.32,1.013,23.038,0.921c0.865-0.01,1.722-0.044,2.58-0.078    c6.549,0.17,14.209-1.381,19.953,1.868c2.9,1.64,5.673,3.473,8.017,5.875c1.864,1.911,3.546,4.885,5.867,6.259    c0.159,0.426,0.329,0.723,0.508,0.918C503.824,334.742,503.401,334.872,502.978,335.002z"/>
	</g>
</g>
<g>
	<g>
		<path d="M415.439,308.895c-0.03-2.647,1.042-6.794-0.268-9.233c-1.445-2.691-4.756-3.174-8.14-2.903    c-6.628-1.241-14.487,0.691-20.93,0.588c-5.422-0.086-9.764-0.186-11.806,5.845c-0.848,2.505-0.753,7.268-0.763,9.906    c-0.016,4.07,0.095,8.397,0.688,12.437c0.947,6.464,6.64,5.433,12.285,5.915c7.166,0.611,16.302,2.674,23.391,0.645    c4.367-1.249,5.26-6.172,5.875-10.179C416.441,317.555,415.489,313.244,415.439,308.895z M411.461,322.737    c-0.434,1.586-1.152,3.874-2.306,4.759c-1.867,1.43-5.852,0.951-8.196,0.94c-5.875-0.026-11.606-0.95-17.441-1.357    c-2.827-0.197-4.528-0.162-5.375-3.109c-0.695-2.421-0.487-5.77-0.715-8.288c-0.344-3.782-1.27-11.841,2.398-14.166    c2.108-1.336,5.695-0.901,8.222-0.995c2.356-0.088,4.706-0.083,7.051-0.247c1.427-0.099,2.823-0.175,4.205-0.262    c0.082,0.027,0.163,0.054,0.259,0.057c2.981,0.094,6.184,0.258,9.102,0.931c2.97,0.685,2.763,1.434,2.733,4.405    C411.343,310.918,412.929,317.386,411.461,322.737z"/>
	</g>
</g>
<g>
</g>
<g>
</g>
<g>
</g>
<g>
</g>
<g>
</g>
<g>
</g>
<g>
</g>
<g>
</g>
<g>
</g>
<g>
</g>
<g>
</g>
<g>
</g>
<g>
</g>
<g>
</g>
<g>
</g>
</svg>
