<?xml version="1.0" encoding="iso-8859-1"?>
<!-- Generator: Adobe Illustrator 19.0.0, SVG Export Plug-In . SVG Version: 6.00 Build 0)  -->
<svg xmlns="http://www.w3.org/2000/svg" xmlns:xlink="http://www.w3.org/1999/xlink" version="1.1" id="Layer_1" x="0px" y="0px" viewBox="0 0 511.999 511.999" style="enable-background:new 0 0 511.999 511.999;" xml:space="preserve">
<g>
	<g>
		<path d="M511.099,425.942c-0.615-7.054-3.044-12.526-10.018-15.328c-5.088-2.043-10.935-1.866-16.641-1.547    c2.17-12.081,0.629-25.284,0.545-37.421c-0.044-6.389-0.902-12.622-1.508-18.962c-0.324-3.391,0.278-7.815-0.696-11.407    c4.808-0.239,9.525-1.605,10.321-6.846c0.683-4.496,1.327-13.293-2.604-16.676c-1.269-1.091-2.929-1.546-4.659-1.767    c0.569-2.28,0.523-5.249,0.421-7.257c-0.129-2.532-0.729-5.18-1.275-7.712c1.766-1.136,2.904-2.955,3.153-5.942    c0.315-3.787,0.637-7.667,0.905-11.478c0.185-2.631,0.781-5.298,0.708-7.942c-0.101-3.608-0.065-7.666-0.501-11.228    c-0.297-2.425-0.85-5.754-2.391-7.732c-1.87-2.399-4.505-2.623-7.308-3.076c-3.928-0.634-7.81-1.444-11.789-1.736    c-8.643-0.635-17.434,0.459-26.105,0.279c-8.157-0.17-16.401-0.07-24.559-0.383c-9.106-0.35-18.166-0.328-27.285-0.243    c-2.152,0.02-4.395-0.088-6.631-0.12c1.198-5.069-0.097-11.937-0.178-16.27c-0.101-5.437-0.023-11.311-1.389-16.681    c5.679-2.007,5.919-8.541,4.381-13.663c-0.896-2.983-2.688-4.63-4.93-5.589c1.994-2.581,0.893-5.921,1.075-9.196    c0.173-3.11,0.357-6.095,0.42-9.238c0.137-6.859,1.504-15.294-0.242-22.206c1.655-0.14,3.239-0.489,4.541-1.308    c4.602-2.895,3.736-11.47,1.77-15.67c-1.169-2.494-3.323-3.57-5.814-3.951c0.835-2.993,0.322-5.909,0.342-8.985    c0.021-3.265,0.174-6.421,0.057-9.706c-0.003-0.086-0.019-0.16-0.028-0.241c0.441-0.055,0.876-0.108,1.292-0.146    c0.799-0.074,1.708-0.198,2.613-0.409c5.029-0.044,8.398-2.227,7.501-8.359c-0.371-2.535-0.762-5.728-2.384-7.804    c-2.419-3.095-4.429-2.727-4.292-7.282c0.258-8.567,0.221-16.189-2.329-24.417c-2.13-6.872-3.145-12.107-11.39-12.168    c-9.477-0.07-18.872-0.885-28.342-0.293c-9.765,0.611-19.549,0.601-29.34,0.659c-3.14,0.018-6.269,0.126-9.396,0.263    c-6.263-1.02-12.639-0.605-19.117-0.677c-10.209-0.114-20.328,1.057-30.526,0.899c-4.468-0.069-9.043-0.705-13.497-1.103    c-5.077-0.454-10.052,0.39-15.111,0.574c-4.89,0.179-9.918-0.382-14.738,0.505c-0.4,0.073-0.805,0.132-1.21,0.188    c-5.802-0.288-11.605-0.618-17.438-0.652c-9.792-0.057-19.576-0.047-29.34-0.659c-9.469-0.593-18.865,0.223-28.342,0.293    c-8.245,0.061-9.26,5.297-11.39,12.168c-2.551,8.228-2.588,15.851-2.329,24.417c0.136,4.556-1.873,4.188-4.292,7.282    c-1.622,2.076-2.014,5.268-2.384,7.804c-0.897,6.132,2.472,8.315,7.501,8.359c0.905,0.211,1.814,0.334,2.613,0.409    c0.417,0.038,0.851,0.091,1.292,0.146c-0.009,0.08-0.026,0.155-0.028,0.241c-0.118,3.285,0.036,6.442,0.057,9.706    c0.02,3.076-0.493,5.991,0.342,8.985c-2.492,0.383-4.647,1.459-5.816,3.951c-1.967,4.2-2.832,12.775,1.77,15.67    c1.302,0.82,2.888,1.169,4.541,1.308c-1.746,6.912-0.379,15.346-0.242,22.206c0.063,3.143,0.248,6.127,0.42,9.238    c0.182,3.275-0.919,6.615,1.075,9.196c-2.241,0.959-4.034,2.605-4.93,5.589c-1.539,5.123-1.299,11.657,4.381,13.663    c-1.367,5.37-1.288,11.244-1.389,16.681c-0.081,4.333-1.376,11.201-0.178,16.27c-2.236,0.032-4.479,0.14-6.631,0.12    c-9.119-0.084-18.179-0.106-27.285,0.243c-8.158,0.313-16.402,0.213-24.559,0.383c-8.671,0.18-17.46-0.915-26.104-0.279    c-3.978,0.293-7.861,1.103-11.789,1.736c-2.803,0.451-5.438,0.677-7.308,3.076c-1.541,1.978-2.094,5.307-2.391,7.732    c-0.436,3.562-0.4,7.62-0.501,11.228c-0.074,2.644,0.523,5.311,0.708,7.942c0.268,3.811,0.59,7.691,0.905,11.478    c0.249,2.985,1.387,4.806,3.153,5.942c-0.546,2.533-1.146,5.181-1.276,7.712c-0.102,2.007-0.146,4.977,0.422,7.257    c-1.73,0.223-3.391,0.677-4.659,1.767c-3.93,3.382-3.286,12.179-2.604,16.676c0.796,5.24,5.513,6.606,10.321,6.846    c-0.974,3.592-0.371,8.018-0.696,11.407c-0.607,6.34-1.464,12.575-1.508,18.962c-0.084,12.137-1.626,25.338,0.545,37.421    c-5.705-0.32-11.552-0.498-16.641,1.547c-6.974,2.801-9.404,8.274-10.018,15.328c-0.538,6.184-2.696,16.196,2.522,21.001    c5.148,4.741,15.062,4.381,21.594,4.271c18.247-0.308,36.461,0.809,54.722,0.946c19.064,0.143,38.069,0.195,57.076,0.448    c22.29,0.297,44.639-0.334,66.896,0.718c10.923,0.517,21.925,0.884,32.859,1.032c4.906,0.066,9.84-0.028,14.745-0.124    c1.637-0.032,3.212-0.178,4.684-0.592c1.472,0.414,3.047,0.561,4.684,0.592c4.905,0.096,9.839,0.19,14.745,0.124    c10.934-0.149,21.937-0.516,32.859-1.032c22.258-1.053,44.607-0.421,66.896-0.718c19.007-0.253,38.012-0.306,57.076-0.448    c18.262-0.136,36.475-1.254,54.722-0.946c6.533,0.11,16.446,0.469,21.594-4.271C513.795,442.138,511.637,432.125,511.099,425.942z     M379.21,211.899c-1.451,0.793-4.3,0.06-5.924,0.147c-3.652,0.198-7.141,0.724-10.826,0.8c-9.652,0.202-19.317,0.963-29.009,0.83    c-9.183-0.125-18.367,0.356-27.567,0.381c-4.798,0.013-9.596,0.009-14.393,0.039c-2.414,0.016-5.052,0.505-7.493,0.563    c-0.006-3.775-0.033-7.551-0.092-11.337c0.835,0.234,1.91,0.684,2.416,0.736c1.663,0.171,3.548-0.001,5.232-0.09    c4.155-0.222,8.314-0.213,12.462-0.475c9.408-0.596,18.867-0.958,28.278-0.6c7.842,0.298,15.669-0.476,23.49-0.378    c4.04,0.051,8.054-0.241,12.089-0.321c3.009-0.06,9.134-0.268,11.578,1.569C381.845,205.563,382.541,210.081,379.21,211.899z     M376.32,248.574c-2.398,5.173-12.295,4.052-17.091,4.029c-5.261-0.024-10.734,0.679-15.945,0.254    c-11.778-0.96-23.529-0.064-35.325-0.082c-5.673-0.009-11.345-0.018-17.018-0.029c-2.561-0.005-5.466,0.25-7.232-1.684    c0.215-0.687,0.229-1.425-0.037-2.096c0.06-0.075,0.02-0.398-0.129-1.005c-0.053-0.912-0.075-1.825-0.068-2.738    c-0.051-2.185-0.115-4.357,0.016-6.538c0.252-4.227,0.523-8.507,0.516-12.748c-0.003-1.898-0.003-3.79-0.003-5.682    c0.831,0.176,1.757,0.198,2.862,0.177c4.96-0.098,9.941,0.059,14.904,0.072c9.833,0.026,19.77-0.566,29.569-0.27    c9.403,0.284,19.021,0.555,28.394-0.14c3.806-0.283,7.531,0.196,11.316-0.389c2.154-0.333,4.443-0.29,6.672-0.481    c-0.747,3.497-1.065,6.809-1.203,10.695c-0.111,3.13-0.135,6.272-0.172,9.402C376.313,241.756,377.337,246.379,376.32,248.574z     M275.71,247.577c-0.339,1.282-0.427,2.626-0.279,3.937c-2.939-0.044-5.88,0.2-8.672,0.744c-4.792-0.589-9.935-0.289-14.326-0.111    c-1.678,0.068-3.358,0.313-5.033,0.608c-3.411-0.893-7.125-1.296-10.836-1.241c0.147-1.31,0.061-2.654-0.279-3.937    c0.606-4.372-0.46-9.372-0.652-13.45c-0.334-7.092-0.659-14.271-1.286-21.35c-0.744-8.389-0.464-17.067,0.106-25.442    c0.206-3.035,0.171-5.867,2.591-7.625c4.37,1.022,9.692,0.34,13.648-0.163c5.692-0.725,14.03,1.456,19.353-1.167    c0.977-0.007,1.954,0.024,2.725,0.27c4.635,1.479,4.515,4.929,4.771,8.685c0.57,8.374,0.85,17.053,0.106,25.442    c-0.627,7.079-0.952,14.258-1.286,21.35C276.17,238.204,275.104,243.205,275.71,247.577z M269.342,173.292    c-0.431,0.024-0.861,0.047-1.29,0.072c-4.975-2.006-11.904-1.256-16.625-0.695c-2.327,0.277-5.135,0.366-7.926,0.67    c-0.281-0.016-0.562-0.031-0.844-0.047c-3.253-0.181-7.114-0.495-9.747,1.823c-5.539,4.876-4.719,16.299-4.743,23.362    c-1.078,0-2.19,0.147-3.366,0.134c-4.098-0.049-8.145-0.803-12.237-0.7c-9.175,0.23-18.418,0.066-27.624,0.234    c-7.993,0.146-15.721,0.325-23.727,0.057c-7.173-0.24-14.885-0.983-22.029-0.462c-0.929,0.068-1.856,0.14-2.77,0.236    c1.591-5.089-0.248-13.096-0.45-18.028c-0.152-3.698-0.518-7.334-0.578-11.053c-0.055-3.388,0.155-6.974-0.556-10.317    c0.626-0.025,1.237-0.046,1.806-0.047c5.772-0.019,11.546,0.043,17.317,0.064c10.894,0.041,21.807-0.17,32.698,0.048    c10.903,0.217,21.749,0.832,32.693,0.832c6.384,0,12.775,0.086,19.158-0.001c5.751-0.079,11.343-1.191,17.072-1.569    c0.152-0.01,0.288-0.039,0.426-0.066c0.138,0.027,0.275,0.056,0.426,0.066c5.729,0.378,11.32,1.49,17.072,1.569    c6.383,0.087,12.774,0.001,19.157,0.001c10.943,0,21.789-0.615,32.693-0.832c10.892-0.217,21.805-0.008,32.698-0.048    c5.772-0.021,11.546-0.082,17.317-0.064c0.57,0.002,1.181,0.024,1.806,0.047c-0.711,3.343-0.501,6.929-0.556,10.317    c-0.061,3.718-0.427,7.354-0.578,11.053c-0.203,4.931-2.04,12.937-0.45,18.028c-0.914-0.096-1.843-0.168-2.77-0.236    c-7.144-0.521-14.856,0.223-22.029,0.462c-8.006,0.267-15.734,0.088-23.727-0.057c-9.205-0.168-18.449-0.005-27.624-0.234    c-4.092-0.102-8.139,0.652-12.237,0.7c-1.176,0.014-2.289-0.134-3.366-0.134c-0.024-7.063,0.796-18.486-4.743-23.362    C276.454,172.797,272.594,173.11,269.342,173.292z M228.324,248.965c-0.266,0.672-0.252,1.409-0.037,2.096    c-1.766,1.934-4.67,1.68-7.232,1.684c-5.673,0.011-11.345,0.02-17.018,0.029c-11.796,0.019-23.546-0.878-35.324,0.082    c-5.211,0.424-10.684-0.278-15.945-0.254c-4.797,0.023-14.693,1.144-17.091-4.029c-1.018-2.195,0.007-6.818-0.023-9.255    c-0.037-3.131-0.06-6.273-0.172-9.402c-0.138-3.886-0.456-7.198-1.203-10.695c2.229,0.191,4.52,0.149,6.672,0.481    c3.785,0.585,7.51,0.107,11.316,0.39c9.373,0.695,18.99,0.423,28.394,0.14c9.798-0.296,19.735,0.296,29.569,0.27    c4.961-0.014,9.944-0.17,14.904-0.072c1.103,0.021,2.03-0.001,2.861-0.177c0,1.891,0.001,3.785-0.003,5.682    c-0.009,4.241,0.262,8.521,0.516,12.748c0.131,2.182,0.065,4.353,0.016,6.538c0.008,0.913-0.015,1.826-0.068,2.738    C228.304,248.567,228.264,248.891,228.324,248.965z M388.241,106.629c2.087,3.992-1.678,5.478-5.315,6.005    c-1.534,0.223-3.046,0.273-4.085,0.271c-7.917-0.024-15.767-0.258-23.787-0.52c-14.918-0.487-29.794-1.453-44.77-1.474    c-8.628-0.012-17.255,0.009-25.882,0.009c-4.516,0-8.037-0.542-8.619-5.687c-0.091-0.802-0.13-1.595-0.142-2.385    c8.419,1.943,17.589,0.187,26.151,0.147c8.765-0.041,17.406,0.917,26.151,0.981c10.099,0.072,20.107-0.251,30.201,0.108    c6.248,0.223,12.501,0.568,18.755,0.383C380.244,104.365,386.286,102.893,388.241,106.629z M376.475,137.699    c-1.233,0.126-2.427,0.276-3.508,0.377c-4.913,0.457-10.206-0.313-15.183-0.314c-4.841-0.001-9.724,0.215-14.557-0.083    c-8.997-0.555-18.041-1.375-27.066-1.468c-0.969-0.01-1.942,0.016-2.913,0.02c-0.002-0.001-0.005-0.003-0.008-0.003    c-8.248-2.251-17.433-0.812-25.881-0.896c-3.929-0.039-7.742,0.61-11.671,0.563c-4.833-0.057-9.705-0.236-14.538-0.123    c-4.367,0.104-8.643,0.952-13.018,0.921c-4.231-0.03-8.45-0.102-12.682-0.051c-5.855,0.071-11.864-0.054-17.781,0.392    c-7.26-0.556-14.572-0.899-21.833-0.824c-9.025,0.093-18.069,0.913-27.066,1.468c-4.832,0.298-9.716,0.081-14.557,0.083    c-4.978,0.001-10.27,0.771-15.183,0.314c-1.082-0.101-2.275-0.251-3.509-0.377c0.084-0.505,0.035-1.019-0.015-1.581    c-0.181-2.064-0.468-4.031-0.517-6.132c-0.079-3.376-0.252-7.294-1.244-10.614c2.301,0.259,4.639,0.369,6.733-0.075    c6.263-0.056,12.595-0.652,18.533-0.61c6.873,0.048,13.761-0.679,20.653-0.825c8.415-0.179,16.81-0.25,25.23-0.239    c8.162,0.011,16.347,0.227,24.506,0.086c4.861-0.084,10.652-1.185,12.657-6.281c2.437-6.196,0.498-12.808,0.906-19.18    c0.134-2.093,0.037-8.454,1.494-10.196c2.827,0.294,5.993,0.045,8.289,0.074c3.565,0.045,7.711,0.332,11.048-1.159    c1.375,0.131,2.674,0.325,3.414,0.786c1.803,1.119,1.681,8.255,1.825,10.495c0.409,6.373-1.532,12.984,0.906,19.18    c2.005,5.095,7.796,6.196,12.656,6.281c8.158,0.142,16.345-0.075,24.506-0.086c8.421-0.011,16.815,0.059,25.23,0.239    c6.892,0.146,13.781,0.874,20.653,0.825c5.938-0.042,12.271,0.554,18.533,0.61c2.094,0.444,4.432,0.334,6.732,0.075    c-0.992,3.32-1.165,7.237-1.244,10.614c-0.048,2.101-0.336,4.068-0.517,6.132C376.441,136.68,376.391,137.193,376.475,137.699z     M132.349,67.453c1.712-3.68,5.814-2.408,9.238-2.674c4.461-0.344,8.913,0.138,13.356-0.227    c7.344-0.606,14.607-0.281,21.982,0.018c8.981,0.365,18.066-0.131,27.053-0.195c0.738-0.006,1.477,0.006,2.214,0.016    c2.401,0.581,4.986,0.621,7.413,0.508c1.04-0.048,2.08-0.07,3.119-0.088c3.81,0.196,7.621,0.37,11.456,0.296    c5.825-0.113,11.567-0.078,17.348-0.304c3.638,0.392,7.351,0.876,11.004,0.967c9.855,0.244,19.684-0.439,29.533-0.522    c1.657-0.015,3.304-0.114,4.946-0.243c5.67-0.22,11.319-0.67,17.005-0.629c8.987,0.064,18.072,0.558,27.053,0.195    c7.377-0.299,14.639-0.624,21.982-0.018c4.443,0.366,8.896-0.117,13.356,0.227c3.423,0.265,7.526-1.006,9.238,2.674    c2.995,6.434,2.177,15.662,1.638,22.534c-0.247,3.144-0.865,6.263-0.406,8.92c-7.541-0.58-15.244-0.316-22.734-0.573    c-9.794-0.337-19.484-0.061-29.281,0.036c-8.401,0.083-16.745-0.645-25.164-0.68c-9.113-0.038-18.346-0.083-27.433,0.047    c-0.152,0.002-0.294,0.023-0.432,0.047c0.074-1.128,0.147-2.264,0.176-3.421c0.083-3.493-0.09-7.1-0.297-10.582    c-0.127-2.133-0.5-4.571-2.057-6.183c-3.009-3.115-8.138-2.218-12.197-2.242c-3.076-0.682-6.524-0.42-9.502-0.383    c-2.312,0.029-5.186-0.158-7.741,0.34c-2.229,0.152-4.333,0.688-5.876,2.285c-1.558,1.612-1.931,4.049-2.057,6.183    c-0.207,3.482-0.38,7.09-0.297,10.582c0.027,1.157,0.1,2.293,0.176,3.421c-0.14-0.025-0.281-0.045-0.432-0.047    c-9.087-0.131-18.32-0.086-27.433-0.047c-8.418,0.036-16.762,0.763-25.164,0.68c-9.795-0.097-19.487-0.373-29.281-0.036    c-7.491,0.258-15.193-0.007-22.734,0.573c0.459-2.658-0.16-5.776-0.406-8.92C130.17,83.116,129.354,73.887,132.349,67.453z     M129.072,112.633c-3.636-0.527-7.403-2.013-5.316-6.005c1.954-3.736,7.996-2.264,11.34-2.164    c6.255,0.186,12.507-0.16,18.755-0.383c10.096-0.359,20.104-0.036,30.201-0.108c8.745-0.062,17.386-1.021,26.151-0.98    c8.562,0.039,17.733,1.797,26.151-0.148c-0.013,0.79-0.051,1.584-0.142,2.385c-0.582,5.146-4.102,5.687-8.619,5.687    c-8.627,0-17.254-0.02-25.883-0.009c-14.975,0.02-29.851,0.986-44.77,1.474c-8.02,0.262-15.87,0.496-23.787,0.52    C132.118,112.906,130.606,112.856,129.072,112.633z M127.321,151.052c-0.505-0.915-0.002-3.757,0.149-4.724    c0.426-2.741,0.465-3.175,3.043-3.354c1.604-0.111,3.381,0.02,4.992,0.096c3.707,0.171,7.018,0.19,10.738,0.032    c8.69-0.372,17.439-0.126,26.133-0.428c7.822-0.272,15.616-1.259,23.462-1.382c7.192-0.114,14.362,0.088,21.528,0.317    c4.451,0.351,8.953,0.376,13.408,0.391c2.533,0.054,5.067,0.089,7.602,0.093c2.92,0.065,5.837,0.155,8.757,0.26    c4.185,0.15,8.23-0.427,12.367-0.647c18.945,1.164,37.726-0.715,56.662-0.415c7.845,0.124,15.64,1.11,23.462,1.382    c8.694,0.302,17.443,0.056,26.133,0.428c3.721,0.159,7.031,0.14,10.738-0.031c1.611-0.074,3.387-0.206,4.992-0.096    c2.578,0.179,2.617,0.612,3.043,3.354c0.15,0.967,0.653,3.808,0.149,4.724c-1.011,1.831-3.777,1.04-5.521,0.967    c-4.518-0.19-9.048-0.127-13.569-0.144c-9.618-0.036-19.237-0.063-28.856-0.063c-8.674,0-17.293,0.86-25.932,0.856    c-9.223-0.006-18.446-0.009-27.67-0.013c-8.851-0.003-17.895-0.749-26.704-0.116c-0.152,0.01-0.288,0.042-0.426,0.069    c-0.138-0.028-0.275-0.059-0.426-0.069c-8.81-0.633-17.853,0.113-26.704,0.116c-9.223,0.005-18.446,0.008-27.67,0.013    c-8.639,0.006-17.258-0.856-25.932-0.856c-9.618,0-19.237,0.027-28.856,0.063c-4.522,0.017-9.051-0.046-13.569,0.144    C131.098,152.092,128.332,152.883,127.321,151.052z M132.547,203.762c2.443-1.838,8.568-1.63,11.578-1.569    c4.036,0.081,8.049,0.372,12.089,0.321c7.821-0.098,15.648,0.678,23.49,0.378c9.409-0.358,18.87,0.005,28.278,0.6    c4.148,0.262,8.306,0.254,12.462,0.475c1.683,0.09,3.569,0.261,5.232,0.09c0.507-0.052,1.581-0.502,2.416-0.736    c-0.06,3.786-0.087,7.563-0.092,11.337c-2.441-0.057-5.079-0.547-7.493-0.563c-4.798-0.03-9.596-0.026-14.393-0.039    c-9.201-0.025-18.385-0.507-27.567-0.38c-9.693,0.132-19.357-0.628-29.009-0.83c-3.686-0.077-7.174-0.602-10.826-0.8    c-1.623-0.088-4.471,0.645-5.923-0.147C129.455,210.081,130.151,205.563,132.547,203.762z M29.382,272.716    c0.335-2.713-0.052-7.448,1.743-9.633c1.546-1.881-0.251-0.432,2.327-1.424c2.246-0.863,5.163-1.111,7.539-1.479    c8.902-1.378,18.218-0.463,27.199-0.636c8.208-0.159,16.493-0.507,24.715-0.794c9.072-0.316,18.102-0.74,27.193-0.823    c4.746-0.044,9.439,0.098,14.118-0.026c3.887,1.65,9.015,1.532,12.796,1.735c6.734,0.361,13.972,0.729,20.686,0.477    c15.263-0.574,30.459,0.204,45.756,0.229c4.733,0.008,10.663,0.736,15.536-0.518c2.258,0.01,4.524-0.148,6.543-0.126    c0.572,0.006,1.147,0.007,1.724,0.007c4.957,0.884,10.48,0.059,15.177-0.108c4.151-0.147,7.863,0.648,11.953-0.513    c0.213-0.061,0.43-0.114,0.645-0.17c3.735,0.763,7.636,0.825,11.431,0.786c2.017-0.021,4.283,0.136,6.542,0.126    c4.873,1.254,10.804,0.525,15.536,0.518c15.298-0.024,30.493-0.803,45.757-0.229c6.714,0.252,13.951-0.116,20.686-0.477    c3.781-0.203,8.908-0.086,12.795-1.735c4.679,0.124,9.371-0.017,14.118,0.026c9.091,0.083,18.121,0.507,27.193,0.823    c8.221,0.287,16.507,0.635,24.715,0.794c8.981,0.173,18.297-0.742,27.199,0.636c2.376,0.368,5.293,0.615,7.539,1.479    c2.578,0.992,0.781-0.457,2.327,1.424c1.794,2.185,1.407,6.92,1.743,9.633c0.716,5.783-0.833,11.622-1.461,17.385    c-0.181,1.041-0.23,2.091-0.147,3.148c0.678,1.331,0.384,1.917-0.88,1.757c-0.624,0.439-2.925,0.469-3.355,0.496    c-3.463,0.22-6.856,0.34-10.325,0.671c-3.792,0.362-7.511,0.653-11.325,0.705c-3.09,0.043-7.425,0.709-10.432-0.104    c-5.389-1.458-3.483-7.504-5.107-11.78c-0.661-1.74-1.491-4.169-2.845-5.517c-0.993-0.988-2.593-1.637-3.955-1.802    c-3.088-0.374-6.744,0.143-9.939-0.056c-8.032-0.5-30.316-6.406-32.935,5.455c-0.645,2.921-0.115,6.472-0.234,9.459    c-0.051,1.279,0.341,4.768-0.313,5.829c-1.112,1.806,0.34,0.501-2.302,1.129c-7.827,1.86-15.808,1.68-23.785,1.618    c-16.32-0.129-32.657-0.925-48.965-0.959c-7.412-0.016-14.772-0.263-22.173-0.689c-1.489-0.086-6.95,0.511-8.11-0.838    c-0.439-0.511-0.193-2.947-0.286-3.731c-0.243-2.049-0.799-4.079-0.942-6.151c-0.28-4.052,1.242-9.624-1.913-12.944    c-0.988-1.04-2.264-1.647-3.682-1.979c-5.217-3.997-18.428-1.558-23.107-1.335c-4.734,0.225-9.447,0.408-14.197,0.603    c-1.065,0.044-2.276,0.178-3.448,0.467c-2.078,0.188-3.975,0.813-5.335,2.245c-3.153,3.32-1.631,8.891-1.911,12.944    c-0.144,2.073-0.7,4.102-0.942,6.151c-0.092,0.784,0.154,3.22-0.286,3.731c-1.158,1.349-6.62,0.752-8.11,0.838    c-7.401,0.425-14.761,0.673-22.173,0.689c-16.31,0.034-32.645,0.831-48.965,0.959c-7.977,0.063-15.957,0.243-23.785-1.618    c-2.642-0.628-1.19,0.677-2.302-1.129c-0.654-1.062-0.261-4.55-0.313-5.829c-0.119-2.987,0.411-6.537-0.234-9.459    c-2.618-11.862-24.903-5.955-32.935-5.455c-3.196,0.199-6.852-0.317-9.94,0.056c-1.362,0.165-2.962,0.814-3.955,1.802    c-1.354,1.348-2.184,3.777-2.845,5.517c-1.624,4.276,0.283,10.322-5.107,11.78c-3.007,0.813-7.342,0.146-10.432,0.104    c-3.814-0.053-7.534-0.343-11.325-0.705c-3.468-0.331-6.862-0.451-10.325-0.671c-0.431-0.027-2.732-0.057-3.355-0.496    c-1.265,0.159-1.558-0.427-0.88-1.757c0.082-1.057,0.034-2.106-0.147-3.148C30.217,284.338,28.668,278.5,29.382,272.716z     M80.558,283.008c1.609-2.205,7.784-0.514,10.392-0.432c4.169,0.133,8.272-0.352,12.424-0.592    c3.357-0.194,11.698-0.968,13.116,3.118c0.893,2.572-0.459,7.496-0.575,10.195c-0.243,5.643,0.538,9.311,6.389,10.768    c16.953,4.221,35.537,2.585,52.886,2.907c9.44,0.176,19.018,0.096,28.43-0.7c8.095-0.686,16.901-0.96,24.787-3.044    c6.36-1.68,5.686-6.959,6.47-12.678c0.468-3.421-0.072-6.869,0.339-10.224c0.144-1.176,0.463-1.827,0.951-2.194    c6.158,0.481,12.594,0.064,18.708-0.412c4.303-0.336,8.722-0.853,13.069-0.579c1.064,0.144,2.137,0.261,3.215,0.356    c1.762,0.316,3.32,0.923,4.833,0.774c0.398,0.385,0.666,1.012,0.794,2.055c0.411,3.354-0.129,6.802,0.339,10.224    c0.784,5.719,0.109,10.998,6.47,12.678c7.886,2.083,16.691,2.358,24.787,3.044c9.411,0.797,18.989,0.876,28.43,0.7    c17.349-0.322,35.934,1.315,52.888-2.907c5.85-1.457,6.631-5.124,6.389-10.768c-0.116-2.698-1.468-7.622-0.575-10.195    c1.417-4.085,9.759-3.312,13.116-3.118c4.152,0.24,8.255,0.725,12.424,0.592c2.607-0.082,8.783-1.773,10.392,0.432    c1.584,2.169,0.33,7.251,0.597,9.758c0.314,2.953,1.381,5.775,3.405,8.004c4.605,5.075,14.684,2.92,20.74,2.989    c4.037,0.046,8.087-0.204,12.111-0.538c3.558-0.295,7.171-0.11,10.705-0.478c0.542-0.056,1.062-0.127,1.568-0.209    c-0.25,2.868-0.09,5.694-0.433,8.602c-0.16,1.35-0.093,2.638-1.3,3.294c-1.319,0.718-5.245,0.011-6.788,0.011    c-4.458-0.002-8.907-0.28-13.361-0.39c-3.775-0.092-7.167-1.012-10.912-1.086c-7.347-0.146-14.775-0.951-22.084-0.763    c-7.511,0.194-14.961,0.845-22.409,1.23c-16.446,0.852-33.01,0.544-49.49,0.164c-16.637-0.384-33.295,0.953-49.929,1.473    c-8.107,0.252-16.138,0.402-24.241,0.55c-0.786,0.015-1.581,0.044-2.371,0.065c-8.757-1.245-18.078-0.654-26.731-0.584    c-5.72,0.046-11.458,0.062-17.168,0.432c-0.321,0.02-0.632,0.056-0.947,0.087c-0.006,0-0.011-0.001-0.017-0.001    c-8.104-0.149-16.134-0.298-24.241-0.551c-16.634-0.518-33.292-1.856-49.929-1.472c-16.481,0.379-33.044,0.688-49.49-0.164    c-7.448-0.385-14.898-1.038-22.409-1.23c-7.309-0.188-14.738,0.617-22.084,0.763c-3.745,0.074-7.137,0.994-10.912,1.086    c-4.455,0.109-8.904,0.387-13.361,0.389c-1.543,0.001-5.469,0.707-6.788-0.011c-1.207-0.656-1.14-1.944-1.3-3.294    c-0.343-2.908-0.183-5.732-0.433-8.602c0.507,0.082,1.027,0.153,1.568,0.209c3.534,0.368,7.146,0.183,10.705,0.478    c4.023,0.334,8.073,0.583,12.111,0.538c6.054-0.069,16.134,2.085,20.74-2.989c2.024-2.229,3.091-5.051,3.405-8.004    C80.228,290.259,78.974,285.177,80.558,283.008z M28.934,333.264c-2.741-0.31-2.492-0.509-3.143-3.207    c-0.377-1.567-1.349-3.78-1.172-5.437c-1.02-2.346,0.108-3.647,3.386-3.903c0.749-0.063,1.494-0.146,2.237-0.253    c0.356-0.064,0.713-0.102,1.068-0.156c0.093,0.006,0.184,0.019,0.278,0.021c4.372,0.132,8.838-0.404,13.252-0.276    c4.091,0.119,8.182,0.755,12.26,0.809c3.297,0.043,6.439-0.561,9.793-0.485c8.055,0.18,15.855-0.314,23.907-0.556    c8.204-0.247,16.193,0.129,24.373,0.043c3.821-0.041,7.562,0.484,11.373,0.538c4.746,0.068,9.397-0.773,14.137-0.491    c17.987,1.073,36.022,1.805,53.992,2.294c9.75,0.266,19.753,1.739,29.454,0.498c2.59-0.331,5.178-0.495,7.766-0.494    c2.061,0.169,4.134,0.272,6.208,0.333c0.705,0.06,1.394,0.073,2.071,0.051c2.414,0.044,4.825,0.051,7.216,0.07    c7.478,0.061,14.939,0.403,22.285-0.242c1.521,0.199,3.072,0.281,4.716,0.09c4.486-0.521,8.976-0.382,13.468,0.194    c9.701,1.242,19.704-0.232,29.454-0.498c17.97-0.49,36.004-1.221,53.992-2.294c4.741-0.283,9.391,0.56,14.137,0.491    c3.811-0.054,7.552-0.579,11.373-0.538c8.181,0.087,16.169-0.289,24.374-0.043c8.052,0.242,15.853,0.737,23.907,0.556    c3.354-0.075,6.497,0.529,9.793,0.485c4.08-0.054,8.169-0.69,12.26-0.809c4.414-0.128,8.88,0.408,13.252,0.276    c0.093-0.002,0.185-0.016,0.278-0.021c0.356,0.054,0.713,0.092,1.068,0.156c0.743,0.106,1.488,0.19,2.237,0.253    c3.277,0.256,4.406,1.557,3.386,3.903c0.178,1.657-0.794,3.871-1.171,5.437c-0.651,2.7-0.402,2.898-3.144,3.207    c-2.907,0.329-5.79,0.499-8.709,0.663c-4.868,0.274-9.684,0.118-14.556,0.484c-10.547,0.791-21.574-0.52-32.164-0.87    c-4.267-0.141-8.529-0.302-12.79-0.456c-0.124-0.041-0.251-0.045-0.375-0.013c-7.455-0.27-14.908-0.516-22.378-0.565    c-21.247-0.141-42.296-0.802-63.497-0.532c-5.373,0.069-10.655,0.796-16.063,0.754c-5.585-0.043-11.17,0.191-16.754,0.231    c-9.429,0.066-18.888-0.156-28.298-0.041c-4.003-0.177-8.011-0.205-11.934-0.337c-7.263-0.242-14.509-0.365-21.718,0.306    c-5.867,0.038-11.743,0.113-17.604,0.071c-5.585-0.039-11.17-0.274-16.754-0.231c-5.409,0.041-10.69-0.687-16.063-0.754    c-21.2-0.269-42.249,0.392-63.497,0.532c-11.865,0.079-23.687,0.642-35.542,1.035c-10.59,0.35-21.617,1.662-32.164,0.87    c-4.873-0.366-9.688-0.211-14.556-0.484C34.724,333.764,31.842,333.593,28.934,333.264z M476.453,354.073    c0.397,6.219,1.017,12.317,0.91,18.559c-0.127,7.416-0.183,14.833-0.216,22.25c-0.021,4.693-1.077,9.824-0.378,14.509    c-0.285,0.001-0.571,0.005-0.852,0.001c-8.924-0.131-17.669,0.991-26.546,0.87c-3.237-0.044-6.458-0.138-9.678-0.233    c0.251-0.456,0.413-0.995,0.419-1.639c0.128-13.486,0.66-26.831,0.358-40.343c-0.115-5.14-1.023-10.338-1.61-15.449    c-0.455-3.965-1.376-7.962-1.563-11.966c-0.05-1.06-0.015-1.88-0.078-2.639c3.785,0.071,7.567,0.207,11.349,0.457    c9.182,0.609,18.336,2.192,27.541,2.689c0.522,0.028,1.083,0.059,1.658,0.088c-0.373,1.315-0.704,3.429-0.785,4.054    C476.603,348.208,476.264,351.125,476.453,354.073z M415.692,402.902c0.078-2.345,0.59-4.558,0.666-6.917    c0.026-0.799,0.037-1.597,0.036-2.398c5.661,0.097,11.351,0.285,16.969-0.167c-0.104,4.988-0.16,9.976-0.113,14.969    c0.006,0.565,0.124,1.056,0.321,1.477c-4.167-0.096-8.341-0.141-12.542-0.02c-1.864,0.053-3.73,0.095-5.594,0.133    C415.813,407.652,415.611,405.334,415.692,402.902z M433.489,388.067c-5.656,0.575-11.484,0.37-17.204,0.294    c-0.126-3.781-0.281-7.56-0.009-11.313c0.212-2.913,0.298-5.829,0.346-8.747c3.911,0.047,7.81,0.093,11.709-0.266    c1.91-0.176,3.877-0.046,5.651-0.467c0.011,0.737,0.012,1.475-0.005,2.213C433.843,375.88,433.646,381.974,433.489,388.067z     M433.087,353.713c0.18,2.933,0.462,5.855,0.663,8.78c-1.394-0.253-2.895-0.141-4.458-0.028    c-4.231,0.305-8.382,0.424-12.607,0.463c0.028-2.688,0.065-5.377,0.178-8.066c0.237-5.664,0.839-11.243-0.205-16.674    c5.611-0.162,11.22-0.274,16.826-0.238c-0.313,2.2-0.904,4.31-0.892,6.656C432.608,347.665,432.9,350.672,433.087,353.713z     M411.01,383.636c0.092,1.611,0.104,3.154,0.086,4.695c-5.336-0.075-11.592-0.731-16.909,0.191    c-0.106-1.448-0.188-2.886-0.216-4.307c-0.116-5.9-0.172-11.825-0.492-17.727c5.722,1.587,12.242,1.726,18.217,1.77    c-0.173,4.081-0.31,7.159-0.405,8.116C411.049,378.771,410.871,381.222,411.01,383.636z M410.048,410.073    c-5.253,0.079-10.503,0.126-15.753,0.176c1.266-5.674,0.755-11.651,0.235-17.547c5.153,1.477,11.048,1.001,16.434,0.875    c-0.002,0.074-0.004,0.146-0.007,0.222c-0.059,2.244-0.367,4.207-0.592,6.41C410.029,403.501,410.681,406.792,410.048,410.073z     M402.019,362.642c-3.011-0.195-5.915-0.511-8.791,0.034c-0.127-1.657-0.272-3.313-0.46-4.963c1.941-0.377,3.79-1.175,5.017-2.738    c3.253-4.143,1.988-11.066,0.5-16.174c5.023-0.161,10.046-0.349,15.069-0.511c-0.578,5.565-1.064,16.046-1.433,24.654    C408.614,362.93,405.342,362.857,402.019,362.642z M387.457,395.952c-0.053,4.732-0.607,9.731,0.437,14.367    c-7.893,0.096-15.781,0.248-23.661,0.611c-0.633,0.029-1.266,0.055-1.899,0.083c0.025-0.052,0.053-0.098,0.075-0.153    c1.755-4.276,0.978-9.982,0.785-14.554c-0.231-5.443-1.042-10.856-1.314-16.294c-0.201-4.036-0.548-8.126-1.181-12.114    c-0.527-3.323-0.838-7.029-1.68-10.42c2.075,0.075,4.195-0.156,6.227-0.182c4.234-0.054,8.368,0.851,12.605,0.523    c2.208-0.171,4.388-0.625,6.619-0.492c1.294,0.078,2.536,0.359,3.798,0.531c-0.987,8.735-1.02,17.577-1.247,26.356    C386.918,388.166,387.501,392.002,387.457,395.952z M384.469,351.379c-2.219-0.063-4.326,0.35-6.51,0.6    c-5.32,0.607-10.883-0.523-16.261-0.393c-1.886,0.046-2.676,0.194-4.316-1.05c-2.04-1.547-1.576-1.991-1.496-4.379    c0.078-2.369,0.147-4.739,0.093-7.108c9.8,0.043,19.603,0.158,29.448,0.051c3.069-0.034,6.139-0.102,9.21-0.188    c-0.012,4.431,0.167,11.628-3.313,12.853C389.366,352.454,386.549,351.437,384.469,351.379z M354.697,356.65    c0.321,0.132,0.648,0.23,0.976,0.325c-0.678,2.326-0.979,4.727-1.083,7.159c-5.431,0.242-10.856-0.272-16.202-0.632    c-0.207-0.013-0.422-0.009-0.632-0.019c0.016-8.119,0.01-16.326-0.84-24.341c4.24-0.077,8.476-0.108,12.711-0.109    C349.385,345.024,347.979,353.887,354.697,356.65z M337.779,372.97c-0.016-1.353-0.022-2.712-0.025-4.075    c0.738,0.056,1.469,0.131,2.176,0.253c3.731,0.643,7.52,0.151,11.307,0.266c1.253,0.038,2.372,0.134,3.376,0.019    c0.132,3.295,0.404,6.591,0.403,9.786c-0.001,4.375,0.492,8.748,0.761,13.123c-1.626-0.115-3.293-0.071-5.11-0.118    c-4.261-0.11-8.498-0.777-12.731-1.005C338.005,385.141,337.85,379.039,337.779,372.97z M337.799,396.515    c0.118,0.016,0.244,0.025,0.361,0.042c5.343,0.749,11.99,1.933,17.769,1.075c-0.101,4.381-0.857,9.212,0.797,13.23    c0.057,0.138,0.124,0.265,0.191,0.389c-6.385,0.267-12.773,0.513-19.156,0.789c0.047-0.531-0.134-1.051-0.458-1.486    C337.011,405.907,337.552,401.175,337.799,396.515z M332.873,390.972c-1.999-0.096-3.999-0.196-6.003-0.283    c-0.867-0.038-6.207,0.343-8.768,0.802c-0.54-5.852-0.224-11.852-0.421-17.734c-0.02-0.593-0.331-3.023-0.76-5.75    c4.802,1.708,10.573,1.011,16.036,0.827c0.002,1.761,0,3.516-0.017,5.259C332.885,379.709,332.993,385.35,332.873,390.972z     M332.413,412.285c-4.536,0.209-9.07,0.432-13.6,0.702c0.186-1.707-0.037-3.495-0.132-5.426c-0.2-4.079-0.114-8.108-0.303-12.155    c2.532,0.386,5.253,0.131,7.754,0.259c2.115,0.109,4.345,0.211,6.56,0.36C332.374,401.297,331.396,407.094,332.413,412.285z     M332.946,363.471c-1.875,0.064-3.753,0.167-5.572,0.201c-1.458,0.028-9.571,1.582-10.516,0.856    c-0.163-0.125-0.359-0.174-0.56-0.178c-0.324-1.744-0.668-3.332-0.983-4.346c2.696-0.464,5.083-1.499,6.518-3.672    c1.986-3.006,1.323-6.815,0.645-10.098c-0.38-1.843-0.494-3.983-1.089-5.755c-0.068-0.199-0.148-0.467-0.235-0.738    c2.159-0.129,4.324-0.268,6.52-0.35c2.044-0.078,4.086-0.136,6.129-0.186C332.953,347.191,332.924,355.372,332.946,363.471z     M289.611,384.872c-0.238-8.273,0.113-16.66-1.74-24.837c0.308-0.004,0.615-0.009,0.915-0.011c4.659-0.03,9.32,0.011,13.98,0.018    c2.334,0.003,5.467,0.338,8.58,0.295c-0.566,3.695-0.038,7.92,0.086,11.438c0.178,5.066-0.265,10.205-0.33,15.276    c-0.06,4.654,0.527,9.212,0.472,13.874c-0.029,2.49-0.096,4.989-0.033,7.478c0.032,1.244,0.53,3.209-0.174,4.326    c-0.156,0.248-0.265,0.499-0.349,0.751c-0.115,0.008-0.23,0.013-0.344,0.021c-4.789,0.346-9.586,0.27-14.381,0.048    c-2.194-0.878-4.563-1.314-6.98-1.537C289.45,402.946,289.872,393.967,289.611,384.872z M309.504,353.161    c-2.994,0.006-5.99,0.007-8.985,0.01c-4.296,0.006-8.607,0.106-12.902,0.036c-2.985-0.049-3.307-0.259-3.509-3.322    c-0.1-1.52,0.241-3.126,0.288-4.647c0.045-1.494,0.464-3.587,0.518-5.561c2.92,0.011,5.84,0.013,8.759,0.033    c5.593,0.037,11.187,0.1,16.776,0.298c1.927,0.069,3.823,0.044,5.709-0.021c-0.573,4.359,2.047,11.39-1.825,13.115    C313.512,353.468,310.141,353.16,309.504,353.161z M273.094,392.278c-2.048-0.037-4.102-0.037-6.157-0.042    c-0.005-0.717-0.007-1.434-0.011-2.151c-0.041-6.864,0.455-13.679,0.411-20.505c-0.001-0.227,0.005-0.458,0.005-0.687    c0.899,0.005,1.798,0.015,2.697,0.017c4.013,0.008,8.398,0.693,12.45,0.355c-0.39,5.216-0.337,10.503-0.439,15.606    c-0.051,2.478-0.126,4.948-0.211,7.413C278.961,391.972,275.89,392.33,273.094,392.278z M281.646,397.751    c-0.167,4.653-0.323,9.303-0.36,13.976c-0.742-0.012-1.476-0.028-2.196-0.056c-4.018-0.158-8.036-0.073-12.054,0.059    c-0.017-4.758-0.045-9.518-0.071-14.277c1.176,0.007,2.353,0.011,3.528,0.009c2.533-0.005,5.046,0.51,7.539,0.537    C279.255,398.014,280.446,397.853,281.646,397.751z M271.844,363.434c-1.476,0.002-2.952,0.015-4.428,0.022    c0.095-3.551,0.256-7.119,0.411-10.63c0.163-3.707,1.024-8.603-0.008-12.534c2.631-0.08,5.238-0.288,7.85-0.71    c0.129,0.002,0.262,0.007,0.391,0.009c0.38,0.007,0.762,0.006,1.144,0.011c-0.027,0.402-0.05,0.79-0.073,1.134    c-0.368,5.428-1.879,14.952,3.937,18.21c0.86,0.482,1.797,0.755,2.764,0.911c-0.317,1.381-0.555,2.784-0.762,4.195    C279.423,363.224,275.563,363.427,271.844,363.434z M255.716,392.315c-2.491,0.043-4.958-0.065-7.423-0.186    c0.033-5.732-0.075-11.478-0.098-17.204c-0.008-2.009-0.054-4.029-0.097-6.05c1.635-0.06,3.274-0.113,4.919-0.099    c3.242,0.028,6.484,0.061,9.726,0.089c-0.035,0.828-0.083,1.655-0.114,2.484c-0.224,6.272-0.637,12.427-0.675,18.735    c-0.004,0.721-0.007,1.441-0.01,2.161C259.867,392.263,257.787,392.279,255.716,392.315z M261.92,397.428    c-0.026,4.827-0.055,9.656-0.072,14.483c-2.437,0.084-4.876,0.156-7.315,0.173c-2.229,0.015-4.468,0.071-6.707,0.106    c-0.019-0.037-0.035-0.074-0.056-0.109c0.305-4.899,0.366-9.934,0.46-14.808c2.167,0.142,4.338,0.245,6.529,0.199    C257.144,397.419,259.532,397.418,261.92,397.428z M254.978,363.554c-2.286,0.024-4.623,0.201-6.957,0.37    c-0.016-2.567,0.021-5.129,0.199-7.67c0.185-2.633,0.31-5.289,0.496-7.949c0.197-2.817-0.502-5.755-0.315-8.559    c2.406,0.08,4.796,0.15,7.143,0.27c3.061,0.158,6.032,0.29,8.961,0.31c0.078,4.768-0.785,9.592-1.037,14.334    c-0.158,2.948-0.323,5.884-0.477,8.819C260.32,363.501,257.65,363.525,254.978,363.554z M239.49,391.87    c-3.168,0.051-6.311-0.531-9.352-0.134c-0.077-2.284-0.145-4.572-0.191-6.866c-0.113-5.556-0.053-11.328-0.567-16.991    c2.512,0.594,5.187,0.498,7.818,0.833c2.131,0.271,4.262,0.322,6.396,0.293c-0.016,1.012-0.035,2.02-0.043,3.041    c-0.048,6.633-0.2,13.249-0.342,19.862C241.975,391.872,240.735,391.851,239.49,391.87z M243.115,396.923    c-0.098,5.091-0.181,10.181-0.179,15.276c-0.693-0.008-1.387-0.01-2.078-0.034c-3.037-0.1-5.749-0.599-8.748-0.143    c-0.466,0.071-0.93,0.132-1.393,0.186c-0.033-5.459-0.234-10.885-0.432-16.321c2.698,0.611,5.506,0.839,8.248,0.856    C240.071,396.755,241.595,396.828,243.115,396.923z M239.531,364.202c-3.578-0.161-7.026-0.06-10.564,0.141    c-0.215-1.51-0.465-3.011-0.804-4.487c0.967-0.154,1.904-0.428,2.764-0.911c5.817-3.259,4.305-12.782,3.937-18.21    c-0.024-0.344-0.046-0.733-0.073-1.134c0.382-0.007,0.763-0.004,1.144-0.011c1.605-0.03,3.269-0.074,4.93-0.204    c1.732,0.125,3.471,0.204,5.207,0.271c-1.487,4.115-1.235,8.848-1.651,13.151c-0.369,3.812-0.578,7.583-0.705,11.378    C242.302,364.244,240.903,364.264,239.531,364.202z M222.699,412.839c-1.388,0.123-2.765,0.29-4.129,0.562    c-5.75,0.325-11.503,0.512-17.245,0.099c-0.115-0.008-0.23-0.014-0.344-0.021c-0.083-0.252-0.193-0.503-0.349-0.751    c-0.706-1.117-0.207-3.082-0.174-4.326c0.063-2.489-0.003-4.988-0.033-7.478c-0.054-4.662,0.531-9.22,0.472-13.874    c-0.065-5.07-0.508-10.211-0.329-15.276c0.124-3.518,0.652-7.743,0.086-11.438c3.113,0.043,6.246-0.292,8.58-0.295    c4.659-0.006,9.32-0.048,13.979-0.018c0.301,0.002,0.607,0.007,0.915,0.011c-1.853,8.177-1.503,16.563-1.74,24.837    C222.117,394.244,222.576,403.492,222.699,412.839z M211.477,353.172c-2.995-0.003-5.99-0.006-8.985-0.01    c-0.637-0.001-4.009,0.306-4.828-0.059c-3.873-1.726-1.253-8.756-1.825-13.115c1.886,0.065,3.781,0.09,5.709,0.021    c5.589-0.198,11.184-0.262,16.777-0.298c2.919-0.019,5.839-0.021,8.759-0.033c0.054,1.975,0.472,4.066,0.518,5.561    c0.047,1.522,0.388,3.127,0.288,4.647c-0.201,3.062-0.523,3.273-3.509,3.322C220.084,353.278,215.773,353.176,211.477,353.172z     M193.184,412.986c-5.075-0.302-10.155-0.548-15.238-0.777c-0.032-5.067-0.077-10.134-0.12-15.201    c3.241,0.124,6.533-0.01,9.76,0.016c2.114,0.017,4.154,0.25,5.978-0.19c-0.116,3.568-0.071,7.127-0.248,10.726    C193.221,409.492,192.998,411.279,193.184,412.986z M177.781,391.385c-0.069-7.098-0.15-14.195-0.245-21.292    c-0.006-0.433,0-0.866,0.001-1.299c0.149,0.012,0.301,0.02,0.448,0.033c4.583,0.393,9.125,0.662,13.712,1.133    c1.044,0.107,2.074,0.2,3.056,0.187c-0.254,1.776-0.423,3.182-0.438,3.613c-0.199,5.983,0.136,12.09-0.445,18.039    C188.705,390.917,183.103,391.449,177.781,391.385z M188.583,364.274c-3.515-0.402-7.32-0.638-10.908-0.708    c0.173-3.868,0.436-7.737,0.391-11.626c-0.051-4.42,0.34-8.713-1.092-12.76c2.448,0.053,4.897,0.116,7.349,0.209    c2.196,0.083,4.361,0.222,6.52,0.35c-0.089,0.272-0.169,0.539-0.235,0.738c-0.596,1.772-0.708,3.911-1.089,5.755    c-0.678,3.283-1.341,7.092,0.645,10.098c1.435,2.173,3.822,3.208,6.518,3.672c-0.325,1.048-0.681,2.707-1.014,4.518    C193.314,364.366,190.784,364.525,188.583,364.274z M174.064,353.044c-0.039,3.512-0.341,7.004-0.582,10.498    c-5.371,0.007-10.725,0.124-16.095,0.151c-0.12-2.28-0.427-4.53-1.064-6.715c0.328-0.097,0.655-0.194,0.976-0.325    c6.717-2.764,5.311-11.627,5.069-17.617c4.038,0.001,8.077,0.029,12.119,0.098C173.746,343.582,174.113,348.691,174.064,353.044z     M149.588,410.861c0.023,0.054,0.051,0.1,0.075,0.153c-0.634-0.028-1.266-0.054-1.899-0.083    c-7.881-0.365-15.768-0.516-23.662-0.611c1.042-4.635,0.49-9.634,0.437-14.367c-0.044-3.95,0.539-7.787,0.437-11.737    c-0.227-8.779-0.26-17.621-1.247-26.356c1.261-0.172,2.505-0.454,3.798-0.531c2.231-0.133,4.412,0.321,6.619,0.492    c4.237,0.328,8.37-0.578,12.604-0.523c2.032,0.026,4.152,0.259,6.227,0.182c-0.841,3.391-1.152,7.096-1.68,10.42    c-0.633,3.987-0.979,8.078-1.181,12.114c-0.271,5.438-1.083,10.851-1.314,16.294C148.61,400.879,147.834,406.585,149.588,410.861z     M150.298,351.586c-5.379-0.131-10.941,1-16.261,0.393c-2.184-0.249-4.29-0.662-6.51-0.6c-2.079,0.06-4.896,1.075-6.856,0.385    c-3.479-1.226-3.3-8.422-3.313-12.853c3.07,0.086,6.14,0.155,9.21,0.188c9.846,0.107,19.649-0.008,29.448-0.051    c-0.054,2.37,0.016,4.739,0.093,7.108c0.079,2.388,0.544,2.831-1.496,4.379C152.973,351.779,152.183,351.631,150.298,351.586z     M117.699,410.248c-5.612-0.054-11.226-0.104-16.841-0.193c-0.064-0.209-0.154-0.408-0.266-0.591    c-0.46-3.787-0.049-7.681,0.042-11.538c5.479,0.061,11.442-0.075,16.494-1.135C116.804,401.339,116.726,405.884,117.699,410.248z     M117.532,391.937c-3.385-0.592-6.698,0.142-10.137,0.326c-2.273,0.122-4.627,0.217-6.958,0.288    c-0.782-6.707-0.585-13.466-0.603-20.239c-0.004-1.569,0.024-3.14,0.065-4.712c3.34,0.106,6.666,0.336,10.015-0.041    c2.827-0.318,5.791-0.101,8.578-0.58c-0.297,5.739-0.351,11.498-0.464,17.233C117.976,386.747,117.76,389.333,117.532,391.937z     M111.472,361.975c-3.871,0.419-7.57,0.491-11.397,0.543c0.324-8.105,0.711-16.215-0.63-24.201    c4.756,0.156,9.511,0.332,14.268,0.484c-1.488,5.107-2.754,12.032,0.5,16.174c1.227,1.563,3.077,2.361,5.017,2.738    c-0.164,1.436-0.294,2.877-0.411,4.32C116.437,361.565,113.931,361.708,111.472,361.975z M155.271,410.861    c1.821-4.426,0.717-9.841,0.787-14.554c0.005-0.284,0.018-0.567,0.026-0.851c5.613,0.992,11.378,0.943,17.064,1.268    c-0.024,5.088-0.05,10.177-0.08,15.266c-5.995-0.256-11.991-0.489-17.987-0.74C155.147,411.125,155.214,410.999,155.271,410.861z     M161.154,391.362c-1.64,0.057-3.261-0.034-4.869-0.012c0.276-4.044,0.697-8.085,0.696-12.13    c-0.001-3.782,0.377-7.707,0.456-11.603c1.605,0.26,3.268,0.27,5.095,0.356c3.513,0.165,7.118,0.307,10.684,0.519    c-0.027,0.859-0.045,1.718-0.04,2.579c0.029,6.694,0.022,13.387-0.001,20.082C169.209,390.887,165.111,391.224,161.154,391.362z     M95.992,409.965c-1.675-0.036-3.349-0.072-5.024-0.119c-4.201-0.12-8.374-0.075-12.542,0.02c0.198-0.421,0.315-0.912,0.321-1.477    c0.037-3.945,0.006-7.886-0.057-11.828c1.304,0.088,2.629,0.077,3.966,0.1c4.334,0.077,8.606,1.095,12.864,1.176    c0.23,0.005,0.477,0.009,0.71,0.015C96.035,401.91,95.453,406.019,95.992,409.965z M96.115,392.411    c0.009,0.077,0.009,0.154,0.017,0.231c-3.333-0.016-6.541-0.859-9.921-0.79c-0.579,0.011-4.752,0.304-7.6,0.642    c-0.164-7.567-0.427-15.135-0.593-22.712c-0.022-1.042-0.009-2.083,0.02-3.122c2.326,0.355,4.864,0.113,7.111,0.155    c3.596,0.069,7.031,0.67,10.616,0.736c0.027,2.219,0.064,4.437,0.059,6.643C95.809,380.228,95.394,386.417,96.115,392.411z     M95.756,362.528c-3.009-0.069-5.951-0.358-8.98-0.395c-0.528-0.007-5.383,0.249-8.548,0.637c0.203-3.017,0.495-6.032,0.682-9.057    c0.187-3.042,0.478-6.05,0.494-9.107c0.012-2.346-0.579-4.456-0.892-6.656c5.924-0.038,11.851,0.084,17.779,0.262    c-0.566,5.187,0.555,10.627-0.06,15.862C95.903,356.873,95.787,359.697,95.756,362.528z M71.886,408.389    c0.006,0.644,0.168,1.183,0.419,1.639c-3.22,0.095-6.442,0.189-9.678,0.233c-8.879,0.12-17.622-1-26.546-0.87    c-0.281,0.005-0.567,0-0.852-0.001c0.699-4.683-0.358-9.815-0.378-14.509c-0.034-7.418-0.089-14.834-0.216-22.25    c-0.107-6.242,0.512-12.34,0.91-18.559c0.188-2.947-0.15-5.864-0.529-8.791c-0.081-0.625-0.413-2.738-0.785-4.054    c0.575-0.029,1.136-0.06,1.658-0.088c9.205-0.499,18.359-2.081,27.541-2.689c3.78-0.251,7.564-0.386,11.349-0.457    c-0.063,0.759-0.029,1.578-0.078,2.639c-0.186,4.003-1.107,8.001-1.563,11.966c-0.587,5.11-1.495,10.308-1.61,15.449    C71.226,381.558,71.758,394.902,71.886,408.389z M504.829,436.649c-0.277,2.961-0.438,4.349-3.443,5.415    c-2.163,0.768-4.389,0.663-6.65,0.854c-3.488,0.295-6.826,0.794-10.346,0.71c-8.15-0.194-16.309,0.54-24.493,0.487    c-8.542-0.055-17.048,0.52-25.62,0.447c-9.168-0.079-18.336-0.187-27.505-0.208c-4.722-0.011-9.363,0.12-14.067,0.414    c-3.34,0.208-6.593-0.526-9.928-0.614c-8.472-0.222-16.967-0.149-25.442-0.184c-18.143-0.075-36.221,0.061-54.341,0.526    c-8.849,0.227-17.703,0.627-26.544,1.067c-4.645,0.231-9.296,0.127-13.941,0.308c-0.803,0.031-1.926,0.242-3.081,0.421    c-0.798-0.35-1.763-0.406-2.712,0.001c-0.212,0.091-0.455,0.153-0.72,0.194c-0.266-0.041-0.508-0.104-0.72-0.194    c-0.949-0.408-1.914-0.351-2.712-0.001c-1.155-0.179-2.277-0.39-3.081-0.421c-4.645-0.182-9.298-0.078-13.941-0.308    c-8.841-0.44-17.696-0.841-26.544-1.067c-18.12-0.465-36.198-0.602-54.341-0.526c-8.476,0.035-16.969-0.038-25.442,0.184    c-3.334,0.088-6.588,0.822-9.928,0.614c-4.704-0.293-9.345-0.426-14.067-0.414c-9.169,0.023-18.337,0.131-27.505,0.208    c-8.57,0.073-17.078-0.502-25.62-0.447c-8.183,0.053-16.342-0.681-24.493-0.487c-3.519,0.084-6.858-0.415-10.344-0.71    c-2.26-0.191-4.487-0.087-6.65-0.854c-3.005-1.066-3.166-2.454-3.443-5.415c-0.411-4.407-1.421-11.506,0.866-15.434    c2.38-4.088,7.379-3.44,11.549-3.592c8.539-0.311,17.198-0.536,25.739-0.503c7.863,0.03,15.535,0.877,23.455,0.611    c8.444-0.283,16.784-0.841,25.277-0.802c17.287,0.079,34.501-0.107,51.739,0.32c27.655,0.684,55.294,3.372,82.869,2.007    c1.017,0.038,2.026,0.03,3.02-0.064c7.411-0.705,15.31,0.087,22.849,0.136c7.185,0.047,14.267-0.225,21.408-0.541    c30.027,2.333,60.136-0.791,90.264-1.538c17.239-0.427,34.452-0.241,51.739-0.32c8.494-0.039,16.833,0.519,25.277,0.802    c7.92,0.266,15.592-0.582,23.455-0.611c8.541-0.033,17.2,0.191,25.739,0.503c4.17,0.152,9.169-0.495,11.549,3.592    C506.25,425.143,505.24,432.242,504.829,436.649z"/>
	</g>
</g>
<g>
</g>
<g>
</g>
<g>
</g>
<g>
</g>
<g>
</g>
<g>
</g>
<g>
</g>
<g>
</g>
<g>
</g>
<g>
</g>
<g>
</g>
<g>
</g>
<g>
</g>
<g>
</g>
<g>
</g>
</svg>
