<?xml version="1.0" encoding="iso-8859-1"?>
<!-- Generator: Adobe Illustrator 19.0.0, SVG Export Plug-In . SVG Version: 6.00 Build 0)  -->
<svg xmlns="http://www.w3.org/2000/svg" xmlns:xlink="http://www.w3.org/1999/xlink" version="1.1" id="Layer_1" x="0px" y="0px" viewBox="0 0 512.001 512.001" style="enable-background:new 0 0 512.001 512.001;" xml:space="preserve">
<g>
	<g>
		<path d="M227.383,245.624c-0.063-5.956-0.164-12.2-0.687-18.142c-0.362-4.111,0.043-11.017-2.249-14.702    c-5.028-8.08-11.514,0.621-13.329,6.126c-2.747,8.335-3.989,16.986-3.114,25.511c-0.366,3.363-0.432,6.751,0.042,10.074    c0.09,0.633,0.801,1.297,1.414,1.414c3.133,0.596,5.873,1.242,9.09,1.031c2.066-0.137,5.221,0.154,7.062-0.891    C228.851,254.207,227.415,248.634,227.383,245.624z M223.897,251.315c-1.166,2.022-4.202,1.807-6.399,1.807    c-4.187-0.002-5.204-0.022-5.573-3.766c-1.006-10.225-2.278-24.723,4.527-33.391c6.386-8.134,6.265,5.929,6.657,10.012    c0.443,4.606-0.017,9.178,0.241,13.783c0.078,1.407,0.503,2.505,0.548,4.04C223.944,245.305,224.594,250.107,223.897,251.315z"/>
	</g>
</g>
<g>
	<g>
		<path d="M233.251,169.476c0.113-3.145,0.14-6.208-0.315-9.339c-0.493-3.393-0.936-8.373-5.392-8.109    c-0.536,0.032-1.035,0.124-1.505,0.262c-2.814,0.42-5.275,3.07-6.219,5.625c-1.919,5.192-1.873,12.278-1.296,17.679    c0.08,0.743,0.461,1.382,1.216,1.597c3.347,0.955,8.397,0.36,11.821-0.007c0.759-0.081,1.323-0.456,1.57-1.196    C233.792,174.009,233.177,171.575,233.251,169.476z M230.261,173.997c-1.305,0.019-2.625-0.084-3.924-0.039    c-1.411,0.05-3.081,0.358-4.589,0.23c-0.025-0.367-0.053-0.733-0.069-1.106c0.204-3.694,0.034-9.443,1.048-13.537    c0.346-1.254,0.914-2.401,2.046-3.312c0.793-0.638,1.592-1.041,2.377-1.531C231.716,155.255,231.154,169.25,230.261,173.997z"/>
	</g>
</g>
<g>
	<g>
		<path d="M350.528,374.951c-2.166-2.578-4.508-4.042-7.143-5.106c-0.126-0.069-0.247-0.145-0.377-0.213    c-0.704-0.367-1.371-0.751-2.024-1.142c0.066-0.933,0.116-1.877,0.151-2.827c1.092-7.021-0.135-14.917-0.214-21.855    c-0.05-4.489-0.18-9.159-0.687-13.719c0.232-0.678,0.567-1.246,1.047-1.636c1.882-1.531,5.679-0.454,7.812-2.301    c4.019-3.478,1.849-11.141-1.877-14.02c-2.669-2.063-5.781-3.578-8.988-4.584c-2.22-0.696-4.551-1.34-6.825-1.812    c-0.169-0.035-0.915-0.099-1.634-0.166c0.142-1.525,0.322-2.819-0.734-4.711c-1.203-2.155-2.838-3.831-4.784-5.18    c0.171-3.956-0.866-7.574-3.389-10.867c-1.7-2.218-4.071-3.394-5.949-5.398c-0.55-0.586-0.966-1.225-1.335-1.882    c0.141-12.298-0.839-24.754-1.643-37.041c-0.181-6.649-0.422-13.287-0.455-19.994c-0.026-5.337-0.747-11.215-0.059-16.503    c0.753-5.782,3.13-3.542,6.228-6.889c3.657-3.95-0.887-10.948-4.595-13.077c-1.832-1.052-9.107-0.924-9.439-1.417    c-0.543-0.803,0.099-3.488,0.122-4.467c0.055-2.334-0.076-4.625-0.221-6.952c-0.299-4.807-0.934-9.587-1.292-14.369    c-0.168-2.246-0.559-4.444-0.57-6.705c-0.015-2.736,0.085-3.883,1.761-5.672c1.987-2.119,3.783-4.701,4.376-7.591    c0.478-2.33-0.069-6.804-2.019-8.41c-0.556-0.459-1.591-0.402-2.013-0.774c-1.058-0.932-1.555-3.801-2.14-5.15    c-1.657-3.822-3.634-7.493-5.522-11.204c-1.304-2.565-2.777-5.015-4.074-7.58c-0.985-1.95-1.545-4.163-3.446-5.465    c-0.75-0.513-1.451-0.779-2.113-0.868c-0.177-6.35-2.406-12.839-4.26-18.799c-2.15-6.917-4.233-13.798-6.104-20.817    c-2.175-8.155-5.292-16.063-7.772-24.133c-0.444-1.443-0.869-3.084-1.386-4.726c-0.46-2.634-2.239-5.365-3.34-7.471    c-0.944-1.805-2.073-4.433-3.624-6.435c2.992-2.289,4.936-6.406,3.809-9.718c-2.158-6.348-11.636-7.265-14.876-1.31    c-1.55,2.847-1.303,6.486,0.305,9.235c0.468,0.799,1.016,1.591,1.649,2.203c-1.151,1.976-1.91,4.4-2.521,5.935    c-0.266,0.669-0.537,1.33-0.807,1.988c-1.998,2.982-2.884,7.122-3.86,10.3c-2.48,8.069-5.597,15.978-7.772,24.133    c-1.872,7.019-3.954,13.9-6.104,20.817c-1.853,5.961-4.082,12.449-4.26,18.799c-0.661,0.089-1.362,0.355-2.113,0.868    c-1.901,1.302-2.461,3.515-3.445,5.465c-1.296,2.565-2.769,5.015-4.074,7.58c-1.835,3.608-3.755,7.177-5.382,10.886    c-0.656,1.496-1.077,3.978-2.165,5.181c-0.983,1.09-2.72,1.253-3.698,2.504c-3.323,4.254,0.967,11.401,3.926,14.558    c1.676,1.787,1.776,2.935,1.761,5.672c-0.013,2.261-0.403,4.459-0.571,6.705c-0.358,4.782-0.993,9.562-1.292,14.369    c-0.145,2.327-0.275,4.618-0.221,6.952c0.023,0.977,0.664,3.662,0.122,4.467c-0.332,0.493-7.607,0.365-9.439,1.417    c-3.709,2.13-8.252,9.127-4.595,13.077c3.098,3.347,5.475,1.107,6.228,6.889c0.688,5.287-0.033,11.166-0.059,16.503    c-0.033,6.707-0.274,13.345-0.455,19.994c-0.804,12.287-1.784,24.743-1.643,37.041c-0.369,0.658-0.784,1.296-1.335,1.882    c-1.878,2.004-4.25,3.18-5.949,5.398c-2.525,3.294-3.561,6.911-3.389,10.867c-1.947,1.349-3.582,3.025-4.784,5.18    c-1.056,1.892-0.876,3.187-0.734,4.711c-0.719,0.067-1.464,0.131-1.634,0.166c-2.274,0.472-4.606,1.116-6.825,1.812    c-3.207,1.006-6.319,2.522-8.988,4.584c-3.726,2.879-5.896,10.543-1.877,14.02c2.133,1.847,5.931,0.769,7.812,2.301    c0.479,0.39,0.814,0.958,1.047,1.636c-0.507,4.56-0.637,9.23-0.687,13.719c-0.078,6.938-1.306,14.834-0.214,21.855    c0.035,0.95,0.085,1.894,0.151,2.827c-0.653,0.39-1.32,0.775-2.024,1.142c-0.13,0.067-0.249,0.143-0.375,0.213    c-2.635,1.064-4.978,2.528-7.143,5.106c-3.028,3.604-3.657,9.177-1.98,13.528c0.653,1.693,1.533,2.86,3.181,3.632    c0.788,0.369,1.865,0.25,2.569,0.622c2.38,1.256,1.297,0.865,1.492,3.148c0.175,2.068-0.413,3.144,1.095,4.87    c1.811,2.074,4.264,1.521,5.58,4.547c0.958,2.203,0.241,5.634,0.207,7.979c-0.055,3.699,0.008,7.402,0.013,11.101    c0.008,7.061-0.451,14.09-0.53,21.145c-0.088,7.686-0.065,15.375-0.092,23.06c-0.176,2.648-0.316,5.295-0.324,7.935    c-0.013,3.592-0.246,7.268-0.191,10.894c0,1.076,0.01,2.155,0.048,3.237c0.013,0.366,0.089,0.686,0.193,0.983    c0.031,0.246,0.069,0.478,0.11,0.708c-1.826,2.33-4.775,1.405-7.067,3.021c-2.635,1.857-2.514,5.867-2.126,8.741    c0.692,5.126,4.187,5.283,8.51,5.511c6.064,0.32,12.183,1.476,18.233,2.086c6.914,0.697,14.711,0.001,21.696-0.313    c3.122-0.141,6.011,0,8.319-1.156c3.658,1.005,8.083,0.082,11.716,0.017c5.59-0.099,11.106,1.014,16.684,1.002    c12.583-0.027,25.125-0.832,37.684-0.891c0.364,0.027,0.707,0.049,1.009,0.068c1.944,0.123,4.374,0.745,6.517,0.569    c1.79,0.322,3.788,0.295,5.896,0.39c6.985,0.315,14.782,1.01,21.696,0.313c6.049-0.61,12.168-1.766,18.233-2.086    c4.325-0.228,7.819-0.386,8.51-5.511c0.388-2.874,0.507-6.885-2.126-8.741c-2.293-1.616-5.241-0.691-7.067-3.021    c0.041-0.23,0.08-0.463,0.11-0.708c0.104-0.297,0.18-0.617,0.193-0.983c0.038-1.083,0.048-2.161,0.048-3.237    c0.055-3.625-0.18-7.302-0.191-10.894c-0.009-2.64-0.149-5.287-0.324-7.935c-0.027-7.686-0.005-15.375-0.092-23.06    c-0.08-7.055-0.538-14.086-0.53-21.145c0.003-3.699,0.067-7.402,0.013-11.101c-0.034-2.345-0.751-5.776,0.207-7.979    c1.315-3.025,3.768-2.472,5.58-4.547c1.508-1.727,0.919-2.801,1.095-4.87c0.195-2.284-0.889-1.893,1.492-3.148    c0.704-0.372,1.779-0.253,2.569-0.622c1.649-0.771,2.529-1.939,3.181-3.632C354.185,384.128,353.556,378.555,350.528,374.951z     M329.468,313.765c3.224,0.418,6.358,1.341,9.489,2.196c2.36,0.644,7.31,4.287,2.701,4.834c-4.884,0.58-10.898-0.634-15.763-1.048    c-4.851-0.413-10.384-0.723-15.125,0.53c-0.064,0.017-0.11,0.055-0.169,0.079c-0.581-0.897-1.19-1.781-1.844-2.648    c-0.958-1.273-1.785-2.923-2.774-4.375c2.391-0.137,4.767-0.311,7.104-0.5c1.836-0.148,3.535-0.562,5.231-0.99    c1.934,0.435,3.941,0.823,3.883,0.811C324.695,313.176,326.925,313.437,329.468,313.765z M176.46,350.308    c3.385,0.518,6.861,0.063,10.313-0.254c-2.826,5.894-5.935,10.635-10.306,14.493c-0.067-0.43-0.107-0.876-0.165-1.312    C176.471,358.929,176.487,354.62,176.46,350.308z M182.196,346.06c-1.835,0.279-3.83,0.477-5.759,0.824    c-0.019-2.274-0.041-4.549-0.047-6.825c-0.001-0.256,0.005-0.521,0.009-0.785c5.15,0.709,10.239-0.051,15.436,0.025    c-0.976,2.089-1.959,4.165-2.939,6.247C186.709,345.419,184.198,345.756,182.196,346.06z M186.89,335.656    c-3.445,0.337-6.973,0.402-10.411,0.934c0.035-1.006,0.059-2.031,0.048-3.049c0.22-2.819,0.229-5.78-0.704-7.87    c7.862-0.519,15.871-0.429,23.626-2.033c-0.85,1.529-1.654,3.088-2.428,4.693c-1.158,2.401-2.286,4.82-3.42,7.235    C191.449,335.118,189.037,335.447,186.89,335.656z M181.522,368.903c4.826-3.806,7.951-10.678,10.499-16.114    c3.067-6.541,6.069-13.072,8.974-19.72c1.616-3.698,3.312-7.403,5.286-10.925c0.808-1.44,1.863-2.786,2.552-4.293    c0.556-1.216,0.789-3.284,1.643-4.318c4.079,0.117,8.161,0.048,12.139-0.387c0.91-0.099,1.911-0.246,2.938-0.454    c-1.023,3.195-1.296,6.737-1.868,9.97c-1.124,6.36-2.171,12.711-3.162,19.093c-1.671,10.771-2.662,21.423-3.48,32.274    c-4.126-0.017-8.25-0.038-12.38-0.031c-9.134,0.015-18.174,0.109-27.262-0.377c-1.082-0.058-2.39-0.134-3.768-0.143    C176.509,371.873,179.547,370.46,181.522,368.903z M221.905,360.203c0.081-6.618,1.508-13.125,2.448-19.656    c0.828-5.743,1.723-11.485,2.503-17.234c0.484-3.567,1.313-7.52,1.006-11.206c2.827-0.877,5.478-2.378,6.59-4.98    c2.109-4.94-1.453-7.87-5.604-9.613c-5.202-2.186-11.304-1.958-16.965-1.891c0.184-0.093,0.355-0.182,0.509-0.262    c5.925-3.097,11.7-6.166,17.78-8.904c3.441-1.55,6.823-3.326,10.436-4.451c1.385-0.431,2.841-0.71,4.252-1.088    c1.369-0.248,2.734-0.484,4.083-0.694c5.635-0.877,11.097-0.414,16.58,0.182c1.885,0.691,3.946,1,5.871,1.6    c3.612,1.124,6.995,2.901,10.436,4.451c6.08,2.739,11.856,5.807,17.78,8.904c0.152,0.08,0.323,0.167,0.509,0.262    c-5.661-0.068-11.763-0.295-16.965,1.891c-4.151,1.744-7.712,4.673-5.603,9.613c1.11,2.602,3.763,4.103,6.59,4.98    c-0.307,3.686,0.521,7.639,1.006,11.206c0.781,5.749,1.675,11.49,2.503,17.234c0.941,6.531,2.368,13.038,2.448,19.656    c0.056,4.63,0.287,9.24,0.927,13.833c-4.402,0.016-8.805,0.031-13.214,0.006c-4.981-0.028-9.934-0.329-14.918-0.245    c-2.286,0.039-4.595,0.279-6.891,0.427c-2.295-0.148-4.605-0.389-6.891-0.427c-4.984-0.084-9.937,0.216-14.918,0.245    c-4.409,0.025-8.812,0.01-13.214-0.006C221.618,369.443,221.849,364.832,221.905,360.203z M288.318,322.664    c-0.572-3.234-0.845-6.775-1.868-9.97c1.026,0.208,2.029,0.354,2.938,0.454c3.978,0.435,8.061,0.504,12.139,0.387    c0.853,1.034,1.087,3.102,1.643,4.318c0.688,1.506,1.744,2.852,2.552,4.293c1.974,3.521,3.67,7.227,5.286,10.925    c2.905,6.648,5.907,13.178,8.974,19.72c2.549,5.435,5.673,12.308,10.499,16.114c1.975,1.558,5.014,2.972,7.89,4.577    c-1.378,0.009-2.686,0.085-3.768,0.143c-9.089,0.486-18.127,0.391-27.262,0.377c-4.13-0.007-8.256,0.014-12.38,0.031    c-0.818-10.851-1.809-21.503-3.48-32.274C290.488,335.374,289.442,329.023,288.318,322.664z M335.54,350.309    c-0.026,4.312-0.009,8.621,0.158,12.927c-0.058,0.436-0.097,0.882-0.165,1.312c-4.371-3.859-7.48-8.6-10.306-14.493    C328.682,350.371,332.158,350.826,335.54,350.309z M323.106,345.545c-0.98-2.082-1.963-4.159-2.939-6.247    c5.198-0.076,10.287,0.684,15.436-0.025c0.005,0.264,0.01,0.529,0.009,0.785c-0.006,2.277-0.027,4.551-0.047,6.825    c-1.929-0.346-3.924-0.545-5.759-0.824C327.805,345.756,325.294,345.419,323.106,345.545z M335.476,333.541    c-0.013,1.018,0.011,2.043,0.048,3.049c-3.437-0.532-6.965-0.597-10.411-0.934c-2.147-0.209-4.559-0.538-6.709-0.09    c-1.134-2.415-2.262-4.834-3.42-7.235c-0.774-1.605-1.578-3.164-2.428-4.693c7.755,1.604,15.764,1.514,23.626,2.033    C335.246,327.761,335.255,330.722,335.476,333.541z M320.759,302.268c4.969,2.876,1.612,3.146-1.062,3.81    c-8.168,2.031-16.421,2.048-24.848,1.954c-3.179-0.035-11.39,0.356-11.924-3.425c-0.589-4.168,7.551-4.04,10.967-4.256    c5.572-0.353,11.933-0.612,17.879-0.12c2.246,0.603,4.462,0.975,6.368,0.898C319.066,301.449,319.96,301.806,320.759,302.268z     M260.64,28.591c1.065,2.902,2.213,5.646,3.111,8.622c2.328,7.717,5.411,15.148,7.546,22.927    c1.995,7.265,4.339,14.355,6.458,21.564c1.479,5.031,2.086,12.298,5.112,17.056c-0.961,0.861-1.815,2.004-2.593,3.091    c-1.775,2.478-4.044,4.393-6.049,6.678c-0.709,0.807-1.382,1.856-2.097,2.901c-1.034,0.952-2.079,1.894-3.152,2.77    c-0.011-0.089-0.021-0.171-0.024-0.231c-0.121-2.047-0.107-4.112-0.306-6.15c-0.407-4.172-1.164-8.349-1.874-12.476    c-1.389-8.066-2.508-16.079-3.393-24.217c-0.939-8.62-1.454-17.286-2.534-25.894c-0.866-6.898-1.093-15.005-2.628-22.166    c0.421,0.745,0.831,1.497,1.214,2.255C259.737,26.403,260.227,27.465,260.64,28.591z M264.965,110.592    c-0.385-0.843-0.737-1.615-1.044-2.161c-1.462-2.6-3.707-5.353-4.526-8.216c-0.304-1.06-1.173-1.547-2.194-1.67    c-4.082-0.494-7.465,9.085-9.111,11.75c-0.65,1.051-1.261,2.163-1.939,3.218c1.578-16.649,3.59-33.313,6.319-49.792    c1.333-8.051,2.5-16.231,3.272-24.354c0.196-2.059,0.455-4.174,0.712-6.316c0.299,3.463,0.598,6.921,1.084,10.371    c1.402,9.942,1.885,20.058,2.653,30.054c0.62,8.066,1.99,15.972,3.177,23.961c0.611,4.114,1.397,8.204,1.591,12.365    C264.968,110.031,264.968,110.301,264.965,110.592z M252.181,5.952c0.214-0.956,0.994-1.496,1.312-2.319    c2.922-1.576,7.824,0.086,6.843,4.088c-0.899,3.664-6.559,6.939-7.961,1.74C252.134,8.572,251.973,6.884,252.181,5.952z     M234.248,81.705c2.118-7.209,4.465-14.299,6.458-21.564c2.134-7.779,5.219-15.21,7.546-22.927    c0.898-2.978,2.046-5.72,3.111-8.622c0.592-1.61,1.328-3.092,1.471-4.679c0.793-1.911,1.514-3.615,2.037-4.631    c-2.537,15.137-3.363,30.558-5.914,45.712c-1.463,8.689-2.576,17.329-3.706,26.072c-0.986,7.629-2.544,15.563-2.847,23.317    c-0.2-0.158-0.401-0.316-0.603-0.486c-1.538-1.592-2.721-3.885-4.023-5.367c-2.006-2.285-4.275-4.199-6.049-6.678    c-0.778-1.088-1.632-2.23-2.593-3.091C232.161,94.003,232.768,86.736,234.248,81.705z M218.865,117.897    c1.176-2.166,2.369-4.312,3.525-6.488c1.15-2.161,1.979-4.763,3.549-6.667c1.512-1.833,2.083-0.638,3.42,0.779    c1.847,1.958,3.859,3.767,5.619,5.808c0.57,0.661,1.082,1.361,1.583,2.062c0.474,3.288,6.601,8.08,9.06,7.514    c3.003-0.692,5.028-5.592,6.41-7.808c1.274-2.041,1.754-4.494,3.033-6.527c1.682-2.676,3.215-0.644,4.215,1.485    c1.942,4.138,2.984,9.217,6.848,12.102c0.628,0.469,1.63,0.366,2.269,0c0.854-0.489,1.8-1.135,2.759-1.884    c0.482-0.338,0.936-0.705,1.348-1.12c2.238-1.967,4.359-4.412,5.403-6.79c1.448-1.563,3.251-2.956,4.54-4.649    c1.496-1.967,2.426-2.801,3.954-0.453c1.265,1.942,2.128,4.107,3.213,6.148c1.157,2.174,2.348,4.321,3.525,6.488    c1.736,3.195,3.153,6.728,5.311,9.653c-0.651-0.03-1.292-0.043-1.878-0.019c-0.66,0.027-1.412,0.207-2.163,0.374    c-0.35-0.023-0.7-0.046-1.049-0.084c-3.429-0.386-6.691-0.773-10.16-0.827c-4.601-0.072-9.202-0.134-13.803-0.16    c-2.094-0.011-3.949-0.137-5.76,0.093c-2.39-0.053-4.745,0.102-6.377,0.043c-2.674-0.097-5.371-0.015-8.059,0.093    c-2.078-0.407-4.177-0.242-6.59-0.23c-4.601,0.025-9.202,0.088-13.803,0.16c-3.469,0.054-6.731,0.441-10.16,0.827    c-0.348,0.039-0.699,0.063-1.049,0.084c-0.751-0.167-1.503-0.347-2.163-0.374c-0.586-0.024-1.228-0.01-1.878,0.019    C215.711,124.624,217.129,121.092,218.865,117.897z M210.108,132.679c0.693-0.41,1.609-0.707,2.615-0.963    c2.264,0.119,4.808,0.603,6.245,0.584c3.601-0.048,7.176-0.072,10.781-0.017c3.447,0.052,6.894,0.089,10.341,0.118    c5.152,0.468,10.682,0.008,15.41,0.132c4.644,0.122,9.711,0.827,14.344-0.109c4.137-0.025,8.273-0.078,12.408-0.141    c3.606-0.055,7.18-0.032,10.781,0.017c1.437,0.019,3.981-0.464,6.245-0.584c1.006,0.257,1.922,0.553,2.615,0.963    c-0.13,0.853-0.356,1.726-0.654,2.53c-6.139-0.675-12.993,0.027-18.894,0.043c-8.325,0.021-16.638-0.114-24.965-0.093    c-7.818,0.019-15.608-0.006-23.415-0.246c-7.692-0.236-15.45,0.58-23.132,0.489C210.498,134.547,210.247,133.6,210.108,132.679z     M275.625,161.039c-0.124-5.409-0.741-10.698-1.19-16.034c1.975,0.034,3.986,0.074,5.988,0.017    c2.43,0.064,4.849,0.084,7.224,0.043c1.434-0.025,5.69-1.141,7.129-0.669c-0.11,0.075,0.185,0.714,0.164,1.5    c-0.035,1.316,0.002,2.645,0.032,3.963c0.141,6.339,0.776,12.645,1.228,18.941c0.305,4.25,0.391,8.508,0.968,12.703    c-0.028,1.142,0.01,2.348,0.344,3.428c-1.134,0.024-2.268,0.058-3.397,0.117c-4.252-0.555-8.682-0.199-13.015,0.017    c-1.305-2.241-3.352-4.154-5.461-5.923C276.717,173.572,275.753,166.64,275.625,161.039z M236.364,179.14    c-2.109,1.769-4.155,3.682-5.461,5.923c-4.334-0.216-8.763-0.572-13.015-0.017c-1.13-0.059-2.263-0.093-3.397-0.117    c0.333-1.079,0.373-2.285,0.345-3.428c0.577-4.195,0.663-8.454,0.968-12.703c0.452-6.295,1.087-12.603,1.228-18.942    c0.03-1.318,0.067-2.646,0.032-3.963c-0.021-0.784,0.275-1.423,0.164-1.5c1.439-0.472,5.697,0.644,7.129,0.669    c4.329,0.075,8.805-0.038,13.232-0.291c-0.451,5.415-1.084,10.778-1.211,16.266C236.249,166.64,235.285,173.572,236.364,179.14z     M245.07,177.822c2.095-1.818,4.232-3.183,6.534-4.659c0.352-0.225,0.666-0.454,0.938-0.695c0.359-0.177,0.721-0.352,1.092-0.512    c2.355-1.022,4.063-0.556,5.754,0.439c0.29,0.268,0.626,0.52,1.011,0.768c2.302,1.476,4.44,2.841,6.534,4.659    c2.485,2.157,5.156,5.053,8.043,7.352c-6.316-0.094-12.763-0.485-18.949,0.874c-0.018,0-0.036,0-0.053-0.001    c-6.185-1.357-12.631-0.967-18.946-0.873C239.914,182.875,242.585,179.979,245.07,177.822z M240.304,144.607    c0.507-0.036,1.004-0.086,1.509-0.126c4.173,0.147,8.352,0.273,12.523,0.354c5.758,0.112,11.524,0.13,17.292,0.138    c-0.157,0.824-0.104,1.699-0.099,2.689c0.016,3.777,0.314,7.538,0.205,11.33c-0.15,5.195-1.304,10.706-1.035,15.998    c-0.051-0.047-0.102-0.096-0.154-0.142c-1.178-2.17-4.777-4.033-6.286-4.997c-2.668-1.703-6.189-4.62-9.615-3.874    c-2.303,0.502-4.705,2.274-6.879,4.069c-0.272,0.118-0.545,0.231-0.809,0.375c-2.113,1.161-3.873,2.941-5.65,4.568    c0.27-5.292-0.885-10.803-1.035-15.998c-0.109-3.792,0.189-7.552,0.205-11.33C240.479,146.524,240.567,145.535,240.304,144.607z     M297.169,139.576c-1.612-0.342-3.668,0.081-5.731,0.363c-4.148,0.567-8.325,0.751-12.507,0.884    c-8.189-0.301-16.412-0.074-24.595-0.217c-5.284-0.092-10.536-0.191-15.815-0.215c-2.694-0.011-5.464,0.033-8.148,0.222    c-0.251,0.017-0.504,0.048-0.758,0.083c-3.026-0.135-6.047-0.346-9.053-0.757c-2.063-0.282-4.118-0.705-5.731-0.363    c-0.908-0.556-1.832-1.049-2.636-1.877c-0.219-0.225-0.422-0.501-0.614-0.801c6.747,0.587,13.636,0.126,20.386,0.266    c8.121,0.167,16.209,0.401,24.34,0.42c8.348,0.022,16.682,0.201,25.024,0.223c5.483,0.014,11.871,0.806,17.762,0.52    C298.478,138.807,297.82,139.176,297.169,139.576z M205.347,190.111c3.424-0.356,7.013-0.844,10.472-0.837    c6.989,0.014,14.005,0.39,21.029,0.415c0.182,0.176,0.427,0.304,0.757,0.311c3.155,0.066,6.381-0.239,9.516,0.011    c1.897,0.152,3.896,0.447,5.768,0.132c1.344,0.055,2.694,0.065,4.041,0.065c2.565,0,5.797,0.415,8.471-0.217    c2.972-0.182,6.014,0.073,8.996,0.009c0.33-0.007,0.575-0.134,0.757-0.311c7.025-0.024,14.041-0.402,21.029-0.415    c3.459-0.007,7.048,0.481,10.472,0.837c2.365,0.246,9.821,0.032,2.111,4.599c-0.672,0.399-4.101,0.658-4.136,0.66    c-4.187,0.207-8.44-0.916-12.675-0.762c-3.792,0.138-7.541,0.422-11.347,0.473c-1.673,0.023-3.393-0.005-5.13-0.042    c-3.234-0.328-6.535-0.166-9.786-0.289c-4.371-0.165-8.723-0.342-13.114-0.339c-6.092,0.005-12.52-0.224-18.666,0.668    c-0.846,0.008-1.691,0.013-2.519,0.001c-3.805-0.05-7.554-0.336-11.347-0.473c-4.235-0.154-8.488,0.969-12.675,0.762    c-0.035-0.002-3.463-0.261-4.136-0.66C195.526,190.143,202.982,190.357,205.347,190.111z M281.762,227.666    c-0.046-5.484-0.472-10.857-0.769-16.311c-0.049-0.902-0.967-8.111-1.452-11.493c3.736-0.063,7.431-0.279,10.978-0.555    c5.119-0.398,10.3-0.023,15.4-0.685c-1.312,6.589-0.601,13.255-0.726,19.956c-0.073,3.906,0.246,7.852,0.606,11.785    c0.014,8.846,0.486,17.543,0.399,26.431c-0.041,4.255,0.354,8.499,0.671,12.746c0.152,2.051,0.162,3.874,0.534,5.605    c-1.991-1.281-4.089-2.382-6.27-3.212c-6.433-2.445-12.796-4.565-19.251-6.081C282.314,253.159,281.868,240.366,281.762,227.666z     M276.742,264.785c-2.026-0.365-4.068-0.659-6.125-0.883c-6.489-1.496-13.599-1.248-19.945-1.036    c-4.448,0.148-8.804,0.652-13.065,1.529c-0.784,0.121-1.567,0.249-2.346,0.39c0.229-7.546,0.173-15.125,0.064-22.7    c0.634,1.09,1.42,2.15,2.409,3.181c3.557,3.708,8.341,6.518,13.459,7.366c11.923,1.976,21.22-5.675,25.569-15.949    C276.61,246.051,276.457,255.445,276.742,264.785z M235.512,199.874c3.767-0.03,7.546-0.254,11.235-0.751    c1.77-0.102,3.47-0.192,5.019-0.197c5.45-0.014,11.364,0.655,17.114,0.602c2.521,0.219,5.069,0.325,7.609,0.346    c-0.678,3.359,0.097,7.076,0.152,10.453c0.022,1.318,0.052,2.631,0.084,3.944c-0.211-0.268-0.428-0.53-0.651-0.787    c-0.605-0.84-1.291-1.66-2.087-2.454c-2.435-2.43-5.908-4.202-9.599-5.134c-3.55-1.17-7.325-1.644-11.07-1.254    c-9.362,0.975-15.269,6.681-18.154,14.352c0.061-2.886,0.146-5.77,0.193-8.666C235.415,206.95,236.191,203.231,235.512,199.874z     M272.101,235.681c-3.092,6.392-7.161,11.851-14.704,12.925c-5.516,0.785-11.607-0.761-15.883-4.403    c-5.799-4.939-6.214-11.531-5.022-18.788c0.91-5.543,3.362-11.627,8.472-14.477c2.756-1.537,5.647-2.438,8.529-2.768    c5.377,0.555,11.666,1.275,16.104,4.425c0.568,0.429,1.115,0.888,1.643,1.371c1.418,1.391,2.551,3.133,3.246,5.358    C276.145,224.633,274.422,230.883,272.101,235.681z M230.119,265.854c-6.455,1.517-12.817,3.636-19.251,6.081    c-2.181,0.829-4.279,1.931-6.27,3.212c0.372-1.731,0.381-3.552,0.534-5.605c0.317-4.247,0.712-8.491,0.671-12.746    c-0.086-8.888,0.386-17.585,0.399-26.431c0.361-3.934,0.679-7.88,0.606-11.785c-0.124-6.701,0.586-13.368-0.726-19.956    c5.098,0.662,10.281,0.286,15.4,0.685c3.548,0.276,7.242,0.493,10.978,0.555c-0.485,3.381-1.403,10.59-1.452,11.493    c-0.297,5.454-0.724,10.826-0.769,16.311C230.134,240.366,229.689,253.159,230.119,265.854z M194.745,291.645    c1.842-4.188,6.55-8.411,10.188-11.089c4.509-3.319,9.435-5.107,14.69-6.957c4.045-1.424,8.25-2.809,12.528-4.013    c6.505-1.327,12.95-2.769,19.761-2.947c4.954-0.13,9.942-0.207,14.846,0.572c3.686,0.586,7.697,2.109,11.486,1.933    c4.833,1.3,9.587,2.851,14.137,4.454c5.254,1.85,10.181,3.639,14.69,6.957c3.637,2.677,8.346,6.901,10.188,11.089    c4.147,9.429-10.211,2.066-13.242,0.043c-4.471-2.983-8.912-6.028-13.721-8.457c-4.634-2.34-9.608-3.798-14.657-4.942    c-3.05-1.995-6.862-2.452-10.497-2.98c-4.979-0.724-10.134-0.93-15.12-0.182c-4.477,0.671-9.413,1.693-14.122,3.271    c-4.887,1.129-9.697,2.566-14.188,4.834c-4.809,2.429-9.25,5.474-13.721,8.457C204.957,293.711,190.598,301.074,194.745,291.645z     M191.243,302.268c0.799-0.463,1.693-0.819,2.619-1.139c1.906,0.077,4.123-0.295,6.368-0.898    c5.947-0.493,12.307-0.232,17.879,0.12c3.417,0.216,11.556,0.089,10.967,4.256c-0.534,3.781-8.746,3.388-11.924,3.425    c-8.427,0.094-16.68,0.077-24.848-1.954C189.631,305.414,186.275,305.145,191.243,302.268z M170.344,320.796    c-4.608-0.547,0.342-4.19,2.701-4.834c3.131-0.854,6.265-1.778,9.489-2.196c2.543-0.329,4.773-0.589,7.265-1.109    c-0.058,0.013,1.949-0.377,3.883-0.811c1.696,0.428,3.396,0.842,5.231,0.99c2.337,0.188,4.714,0.363,7.104,0.5    c-0.989,1.453-1.815,3.102-2.774,4.375c-0.653,0.868-1.263,1.751-1.844,2.648c-0.059-0.024-0.105-0.063-0.17-0.079    c-4.74-1.253-10.274-0.943-15.125-0.53C181.241,320.163,175.229,321.377,170.344,320.796z M219.133,502.423    c-0.263,0.449-0.404,0.773-0.503,1.022c-1.862,1.24-4.667,0.729-7.055,0.737c-3.728,0.014-7.522-0.171-11.239,0.165    c-5.607,0.506-10.868-0.133-16.452-0.098c-3.262,0.021-6.451-0.331-9.731-0.235c-0.506,0.015-1.339,0.102-2.181,0.115    c-1.498-0.375-2.708-0.983-3.024-1.985c-0.03-0.279-0.044-0.576-0.045-0.885c0.045-0.282,0.142-0.585,0.308-0.916    c0.511-1.017,3.359-1.34,5.406-2.186c0.967-0.229,1.934-0.451,2.908-0.647c2.128,0.719,4.719,0.915,6.75,0.917    c4.156,0.005,8.366,0.156,12.496,0.125c4.155-0.031,8.459-0.663,12.613-1.005c2.188-0.18,4.039-0.438,5.616-1.701    c0.354,0.002,0.707,0.009,1.054,0.021C218.741,497.963,222.196,497.199,219.133,502.423z M332.429,410.432    c0.055,2.681,0.093,5.362,0.13,8.044c-0.035,1.946-0.058,3.871-0.09,5.748c-0.166,9.74,0.137,19.405,0.094,29.115    c-0.013,2.856,0.134,5.726,0.322,8.6c0.09,9.578,0.245,19.151,0.578,28.709c0.001,0.055,0.011,0.104,0.02,0.154    c-0.001,0.024,0,0.047,0,0.071c-1.939,2.643-7.49,1.543-10.14,1.487c-4.07-0.085-8.022,0.292-12.085,0.072    c-3.329-0.181-9.432,0.834-11.68-2.133c-2.682-3.541-1.324-10.483-1.057-14.595c0.238-3.653,0.487-7.423,0.307-11.085    c-0.003-0.076-0.013-0.138-0.017-0.212c2.98,0.225,6.28-0.257,8.592-0.498c4.441-0.465,8.247-1.779,8.083-7.003    c-0.113-3.619-1.271-9.662-5.384-10.68c-4.905-1.214-10.656-1.974-15.789-1.605c0.002-0.344-0.003-0.69-0.04-1.042    c-0.316-3.115-1.025-6.633-2.263-9.491c-4.029-9.302-11.017-17.246-20.236-20.814c-5.878-2.905-14.22-2.758-19.722-2.105    c-0.217,0.026-0.434,0.059-0.651,0.088c-0.006,0-0.011-0.003-0.018-0.003c-14.793-0.166-25.867,10.077-31.392,22.836    c-1.238,2.858-1.947,6.376-2.263,9.491c-0.035,0.352-0.042,0.698-0.04,1.042c-5.132-0.368-10.885,0.391-15.789,1.605    c-4.114,1.019-5.271,7.061-5.384,10.68c-0.164,5.223,3.642,6.538,8.083,7.003c2.311,0.242,5.613,0.725,8.592,0.498    c-0.005,0.074-0.013,0.135-0.017,0.212c-0.18,3.661,0.069,7.432,0.307,11.085c0.267,4.112,1.625,11.055-1.057,14.595    c-2.248,2.967-8.351,1.952-11.68,2.133c-4.063,0.221-8.017-0.158-12.085-0.072c-2.65,0.056-8.201,1.156-10.14-1.487    c0-0.024,0.001-0.047,0-0.071c0.008-0.05,0.018-0.099,0.021-0.154c0.333-9.558,0.488-19.132,0.578-28.709    c0.189-2.874,0.334-5.745,0.322-8.6c-0.042-9.71,0.261-19.375,0.094-29.115c-0.032-1.877-0.055-3.802-0.09-5.748    c0.038-2.682,0.075-5.363,0.13-8.044c0.059-2.926-0.007-6.131-1.304-8.776c-0.127-0.815-0.258-1.628-0.415-2.428    c5.965,0.829,12.097,1.133,18.044,1.588c8.961,0.685,18.235,0.222,27.231,0.163c4.278-0.028,8.513-0.617,12.793-0.542    c1.955,0.034,3.749,0.053,5.518-0.032c3.362,0.073,6.722,0.101,10.104,0.116c8.033,0.034,17.935,2.393,25.822-0.064    c3.843,0.041,7.658,0.496,11.507,0.521c8.996,0.059,18.269,0.522,27.231-0.163c5.947-0.455,12.079-0.759,18.044-1.588    c-0.158,0.799-0.288,1.612-0.415,2.428C332.436,404.301,332.37,407.506,332.429,410.432z M295.278,459.305    c-1.377-0.854-2.315-1.568-2.825-2.476c0.121-0.568,0.303-1.151,0.44-1.637c0.517-1.808,0.873-3.102,1.099-5.048    c0.093-0.806,0.14-1.611,0.164-2.414c1.554,0.267,3.02,0.808,4.63,0.92c2.2,0.156,4.167,0.693,6.323,1.173    c1.938,0.431,3.982,0.319,4.956,2.29c0.408,0.827,1.106,3.901,0.957,4.792C310.396,460.627,300.095,458.242,295.278,459.305z     M219.55,456.829c-0.51,0.908-1.448,1.621-2.825,2.476c-4.816-1.063-15.117,1.322-15.742-2.398    c-0.15-0.891,0.548-3.965,0.957-4.792c0.973-1.972,3.018-1.859,4.956-2.29c2.156-0.48,4.122-1.018,6.323-1.173    c1.61-0.114,3.074-0.654,4.63-0.92c0.024,0.803,0.071,1.609,0.164,2.414c0.226,1.947,0.583,3.24,1.099,5.048    C219.247,455.678,219.429,456.261,219.55,456.829z M288.567,491.465c-1.385,0.856-1.948,2.357-2.179,3.963    c-0.819,1.946-0.63,4.306-0.007,6.563c0.09,0.655,0.234,1.236,0.403,1.784c-11.802-0.032-23.526-0.129-35.29-1.039    c-6.11-0.472-12.313-0.082-18.447-0.001c-2.411,0.032-5.021-0.163-7.559-0.046c0.045-0.232,0.1-0.451,0.134-0.697    c0.623-2.256,0.812-4.618-0.007-6.563c-0.232-1.607-0.794-3.107-2.179-3.963c-1.081-0.668-2.477-0.842-3.963-0.748    c1.287-3.573,1.635-8.297,1.696-11.115c0.058-2.716,0.189-5.457,0.201-8.173c0.008-1.842-0.799-4.44,0.073-5.712    c0.844-1.231,2.659-1.579,3.535-3.147c0.801-1.432,0.952-2.962,0.77-4.56c-0.104-0.911-0.292-1.798-0.513-2.674    c-0.093-1.949-0.803-3.822-1.423-5.688c-0.038-0.226-0.08-0.451-0.108-0.678c-0.768-6.199,1.264-11.04,4.141-16.49    c2.238-4.242,5.881-8.804,10.104-11.266c1.211-0.705,2.52-1.272,3.849-1.81c3.425-1.253,7.027-2.006,10.638-2.503    c4.44-0.611,8.888-0.602,13.191,0.584c2.767,1.31,5.815,2.208,8.425,3.73c4.222,2.462,7.865,7.023,10.104,11.266    c2.876,5.45,4.908,10.292,4.141,16.49c-0.028,0.229-0.071,0.453-0.108,0.678c-0.62,1.866-1.329,3.739-1.423,5.688    c-0.22,0.876-0.41,1.761-0.513,2.674c-0.182,1.597-0.03,3.128,0.771,4.56c0.876,1.568,2.691,1.917,3.535,3.147    c0.872,1.271,0.065,3.87,0.073,5.712c0.013,2.716,0.142,5.457,0.201,8.173c0.06,2.818,0.41,7.542,1.695,11.115    C291.044,490.624,289.648,490.797,288.567,491.465z M342.793,500.343c0.166,0.331,0.262,0.634,0.308,0.916    c-0.001,0.31-0.017,0.606-0.046,0.885c-0.316,1.002-1.526,1.61-3.024,1.985c-0.842-0.013-1.675-0.1-2.181-0.115    c-3.28-0.097-6.469,0.256-9.731,0.236c-5.584-0.035-10.845,0.604-16.452,0.098c-3.718-0.336-7.51-0.151-11.239-0.165    c-2.388-0.008-5.193,0.503-7.055-0.737c-0.099-0.248-0.24-0.572-0.503-1.022c-3.063-5.223,0.393-4.461,3.081-6.554    c0.348-0.011,0.7-0.018,1.055-0.02c1.578,1.263,3.428,1.521,5.616,1.701c4.154,0.341,8.459,0.974,12.613,1.005    c4.13,0.031,8.34-0.121,12.496-0.125c2.03-0.002,4.623-0.198,6.75-0.917c0.973,0.197,1.941,0.419,2.908,0.647    C339.435,499.004,342.282,499.327,342.793,500.343z M336.476,393.656c-0.917,0.461-2.744,0.19-3.791,0.284    c-2.555,0.23-5.112,0.49-7.671,0.693c-6.453,0.51-12.844,0.688-19.316,0.655c-7.576-0.039-15.239,0.281-22.793-0.306    c-5.022-0.39-10.023-0.067-14.938,0.911c-0.778-0.007-1.553-0.024-2.319-0.076c-3.672-0.254-7.325-0.634-11.012-0.629    c-5.004,0.006-10.012-0.055-15.015,0.013c-3.483-0.406-6.997-0.492-10.521-0.217c-7.555,0.587-15.218,0.267-22.793,0.306    c-6.472,0.033-12.862-0.145-19.316-0.655c-2.559-0.203-5.115-0.463-7.671-0.693c-1.047-0.094-2.874,0.178-3.791-0.284    c-0.732-0.367-1.312-1.331-1.776-2.394c0.297,0.016,0.586,0.034,0.865,0.058c4.419,0.369,8.921-0.282,13.386-0.064    c5.083,0.249,10.061-0.528,15.096-0.328c4.422,0.176,8.905,0.868,13.313,1.262c5.193,0.464,10.186,0.127,15.37-0.069    c4.573-0.174,8.902,0.543,13.522-0.055c3.561-0.46,7.129-0.909,10.698-1.337c3.569,0.428,7.137,0.877,10.698,1.337    c4.622,0.596,8.951-0.121,13.522,0.055c5.182,0.198,10.176,0.534,15.37,0.069c4.408-0.394,8.891-1.085,13.313-1.262    c5.035-0.2,10.012,0.577,15.096,0.328c4.466-0.218,8.967,0.432,13.386,0.064c0.279-0.024,0.568-0.042,0.865-0.058    C337.788,392.326,337.207,393.288,336.476,393.656z M342.493,386.218c-1.958,0.08-3.97,0.196-5.929,0.217    c-4.171,0.047-8.35-0.708-12.563-0.667c-8.002,0.079-15.6-0.63-23.606,0.015c-4.272,0.345-8.409,0.774-12.705,0.732    c-3.716-0.036-7.405-0.613-11.113-0.375c-6.926,0.445-13.684-0.88-20.576-0.679c-6.893-0.2-13.65,1.124-20.576,0.679    c-3.707-0.238-7.396,0.339-11.113,0.375c-4.296,0.043-8.433-0.387-12.705-0.732c-8.006-0.645-15.604,0.064-23.606-0.015    c-4.213-0.042-8.392,0.713-12.563,0.667c-1.959-0.022-3.972-0.138-5.929-0.217c-2.981-0.122-3.8,0.561-3.611-4.165    c0.051-1.294,0.515-2.44,1.247-3.482c6.238-1.382,14.147,0.939,20.173,1.169c8.881,0.339,17.763,0.146,26.637,0.561    c8.877,0.415,17.915-0.325,26.774-0.889c5.047-0.321,10.415-0.152,15.273-1.552c4.859,1.399,10.226,1.231,15.273,1.552    c8.859,0.563,17.897,1.304,26.774,0.889c8.875-0.415,17.755-0.222,26.637-0.561c6.026-0.23,13.933-2.551,20.173-1.169    c0.732,1.041,1.195,2.188,1.247,3.482C346.293,386.779,345.474,386.097,342.493,386.218z"/>
	</g>
</g>
<g>
	<g>
		<path d="M303.999,244.416c0.875-8.525-0.367-17.176-3.114-25.511c-1.815-5.506-8.302-14.207-13.329-6.126    c-2.293,3.685-1.888,10.591-2.249,14.702c-0.523,5.941-0.625,12.185-0.687,18.142c-0.032,3.01-1.468,8.583,1.771,10.421    c1.841,1.046,4.996,0.755,7.062,0.891c3.216,0.212,5.956-0.435,9.09-1.031c0.613-0.116,1.324-0.781,1.414-1.414    C304.432,251.168,304.366,247.78,303.999,244.416z M300.077,249.353c-0.369,3.744-1.387,3.764-5.573,3.766    c-2.197,0.001-5.233,0.215-6.4-1.807c-0.696-1.205-0.047-6.007-0.001-7.515c0.046-1.535,0.47-2.633,0.548-4.04    c0.258-4.604-0.201-9.177,0.241-13.783c0.393-4.083,0.271-18.146,6.657-10.012C302.355,224.631,301.084,239.129,300.077,249.353z"/>
	</g>
</g>
<g>
	<g>
		<path d="M292.183,157.914c-0.944-2.554-3.405-5.205-6.219-5.625c-0.47-0.137-0.969-0.23-1.505-0.262    c-4.457-0.263-4.899,4.716-5.392,8.109c-0.455,3.132-0.428,6.194-0.316,9.338c0.076,2.1-0.54,4.534,0.121,6.514    c0.247,0.74,0.811,1.115,1.57,1.196c3.426,0.366,8.474,0.961,11.821,0.007c0.755-0.215,1.138-0.854,1.216-1.597    C294.055,170.192,294.102,163.105,292.183,157.914z M290.255,174.188c-1.508,0.129-3.179-0.18-4.589-0.23    c-1.299-0.045-2.619,0.058-3.924,0.039c-0.893-4.747-1.456-18.741,3.112-19.295c0.784,0.49,1.584,0.893,2.377,1.531    c1.132,0.911,1.701,2.058,2.046,3.312c1.014,4.094,0.843,9.843,1.048,13.537C290.309,173.455,290.279,173.819,290.255,174.188z"/>
	</g>
</g>
<g>
	<g>
		<path d="M262.614,216.294c-2.409,2.685-4.561,5.683-6.857,8.475c-0.34-0.119-0.699-0.185-1.06-0.173    c-1.275,0.047-2.306,0.801-2.979,1.845c-0.181,0.281-0.313,0.587-0.414,0.903c-3.372,0.713-6.897,0.955-10.033,2.583    c-2.266,1.176,0.031,4.286,1.791,3.31c2.353-0.688,4.746-1.25,7.12-1.864c0.614-0.159,1.311-0.257,2.014-0.37    c0.849,0.833,2.076,1.247,3.299,0.877c1.747-0.528,2.917-2.348,2.676-4.151c-0.019-0.142-0.05-0.279-0.085-0.413    c2.751-2.38,5.187-6.369,7.034-8.517C266.494,217.054,264.172,214.559,262.614,216.294z"/>
	</g>
</g>
<g>
	<g>
		<path d="M272.037,322.093c-2.294-6.247-11.642-4.865-16.886-4.9c-4.773-0.031-10.466-0.211-11.935,4.166    c-2.769,3.856-0.952,13.371-0.922,17.313c0.042,5.708-3.263,15.837,3.994,18.018c5.542,1.667,12.912,2.353,18.674,2.053    c7.35-0.382,6.494-6.629,6.949-12.63c0.336-4.424,0.507-8.826,0.505-13.261C272.415,329.579,273.186,325.222,272.037,322.093z     M268.723,333.938c-0.003,5.428-0.381,10.837-0.836,16.246c-0.264,3.145-0.393,4.617-3.643,5.043    c-2.39,0.313-5.324-0.303-7.691-0.554c-3.166-0.337-10.015-0.171-11.339-3.626c-0.872-2.276-0.035-5.847,0.014-8.26    c0.066-3.23-0.072-6.559-0.275-9.78c-0.133-2.087-0.347-4.141-0.328-6.241c0.008-0.823,0.151-1.523,0.396-2.13    c0.066-0.085,0.107-0.197,0.147-0.313c1.244-2.512,4.452-3.174,7.518-3.568c0.14-0.018,0.288-0.026,0.43-0.041    c3.625-0.174,7.49,0.236,9.211,0.46c3.78,0.494,6.2,0.953,6.43,5.004C268.9,328.738,268.725,331.368,268.723,333.938z"/>
	</g>
</g>
<g>
</g>
<g>
</g>
<g>
</g>
<g>
</g>
<g>
</g>
<g>
</g>
<g>
</g>
<g>
</g>
<g>
</g>
<g>
</g>
<g>
</g>
<g>
</g>
<g>
</g>
<g>
</g>
<g>
</g>
</svg>
