<?xml version="1.0" encoding="iso-8859-1"?>
<!-- Generator: Adobe Illustrator 19.0.0, SVG Export Plug-In . SVG Version: 6.00 Build 0)  -->
<svg xmlns="http://www.w3.org/2000/svg" xmlns:xlink="http://www.w3.org/1999/xlink" version="1.1" id="Layer_1" x="0px" y="0px" viewBox="0 0 512.001 512.001" style="enable-background:new 0 0 512.001 512.001;" xml:space="preserve">
<g>
	<g>
		<path d="M511.748,383.759c-1.216-5.965-9.207-5.116-13.749-5.299c-7.837-0.314-15.414-1.499-23.292-1.132    c-16.895,0.786-33.724,0.356-50.616,0.155c4.193-1.397,8.296-3.058,12.324-5c8.049-3.882,15.906-7.723,22.043-14.3    c5.489-5.882,9.717-12.503,12.947-19.884c3.349-7.651,5.97-16.004,6.375-24.381c0.108-2.246,0.267-5.45-1.314-7.266    c-2.428-2.79-7.449-1.808-10.72-2.014c-19.543-1.226-39.11,0.814-58.66-0.605c-11.445-0.83-23.019-0.581-34.503-0.447    c-6.362,0.074-12.612,0.369-18.945,0.864c-1.967,0.153-4.067,0.098-5.997,0.578c-0.424,0.105-0.892,0.321-1.375,0.551    c-12.46-0.594-24.968-0.865-37.346-0.455c-8.888,0.294-17.859-0.781-26.713-0.301c-5.487,0.297-14.882-0.744-17.55,5.606    c-2.636,6.273-0.475,15.467,0.885,21.745c1.696,7.823,5.057,15.619,9.698,22.166c4.026,5.678,8.039,10.491,14.172,13.934    c6.509,3.655,13.313,6.551,20.417,8.864c0.269,0.088,0.543,0.163,0.813,0.248c-2.464-0.123-4.926-0.16-7.394-0.155    c-0.07,0-0.14,0-0.208,0c-4.067,0.011-8.149,0.099-12.27-0.025c-5.496-0.166-11.02-0.5-16.511-0.595    c-5.942-0.102-11.982,0.737-17.952,0.296c-0.258-0.019-0.519-0.032-0.777-0.048c-0.404-9.422,0.233-18.941,0.266-28.381    c0.017-4.933,0.802-9.823,0.558-14.756c-0.296-6.022-0.463-11.985-0.46-18.018c0.009-22.794-0.187-45.546,0.101-68.336    c0.289-22.84,0.722-45.633,0.602-68.498c-0.114-21.952-0.967-43.892-1.174-65.856c-0.055-5.885,0.134-11.85-0.262-17.723    c-0.331-4.902,0.141-10.067-0.69-14.911c-1.35-7.872-13.225-5.143-19.13-5.178c-6.597-0.039-17.586-3.368-21.547,4.319    c-1.588,3.081-1.437,8.082-1.692,11.477c-0.454,6.025-0.396,12.043-0.372,18.09c0.05,11.746-0.348,23.468,0.383,35.192    c0.62,9.942,0.821,19.989,0.93,29.964c0.105,9.557,1.171,19.063,1.222,28.626c0.009,1.69,0.029,3.377,0.047,5.065    c-2.669-0.232-5.495,0.331-8.109,0.343c-3.195,0.015-6.256-0.209-9.308,0.188c0.384-9.925,1.145-19.83,1.215-29.751    c0.045-6.343,0.747-12.679,1.003-19.012c0.291-7.133-0.824-14.156,0.127-21.272c0.779-5.826,0.195-11.732,0.66-17.604    c0.595-7.508,0.697-15.23,0.563-22.76c-0.134-7.583,0.381-22.839-10.119-23.49c-5.969-0.37-12.654-1.292-18.623-0.924    c-4.788,0.295-12.631,1.009-15.428,5.553c-2.593,4.214-0.95,9.983-1.367,14.595c-0.403,4.459-0.286,9.059,0.172,13.593    c-0.003,0.655-0.014,1.308-0.007,1.966c0.098,10.306-0.101,20.625-0.127,30.933c-0.048,19.831-0.394,39.659-0.722,59.438    c-0.082,5-0.712,9.979-0.894,14.977c-0.151,4.167,0.476,8.19,0.314,12.382c-0.373,9.645,0.378,19.6,0.892,29.231    c0.552,10.351-0.12,20.808,0.065,31.176c0.166,9.243,0.569,18.431,0.572,27.708c0.007,21.158,0.584,42.303,0.919,63.497    c-3.125,0.021-6.249,0.025-9.37,0.023c0.059-0.329,0.089-0.679,0.051-1.071c-1.445-14.723-14.601-25.68-26.374-33.06    c-13.46-8.438-30.245-11.073-45.766-8.071c-13.253,2.563-26.221,7.164-37.721,14.196c-5.99,3.663-11.36,8.335-15.623,13.891    c-3.066,3.995-6.701,8.643-7.115,13.846c-0.063,0.002-0.126,0.008-0.189,0.01c-4.543,0.182-12.534-0.667-13.749,5.299    c-0.636,3.126-0.212,9.003,2.925,10.686c2.252,1.209,5.412,0.781,7.825,0.781c2.309,0,4.56,0.109,6.806,0.278    c0.252,2.912-0.547,6.081-0.365,9.027c0.236,3.832-0.276,7.966,0.395,11.744c0.086,0.485,0.221,0.911,0.377,1.312    c-0.269,0.032-0.549,0.06-0.814,0.094c-6.564,0.825-8.718,5.993-8.284,12.199c0.152,2.171,1.084,5.168,2.536,6.832    c2.026,2.322,5.275,1.657,8.002,1.539c10.085-0.44,20.071-0.584,30.191-0.45c20.771,0.277,41.399-0.944,62.156-1.308    c10.251-0.18,20.549-0.322,30.797-0.654c8.696-0.281,17.402,0.638,26.163,0.652c5.616,0.009,11.26-0.462,16.857-0.921    c4.845-0.397,9.67,0.015,14.499-0.531c5.834-0.659,11.611-0.06,17.442-0.404c2.433-0.144,4.83-0.516,7.211-0.985    c0.81-0.025,1.617-0.043,2.42-0.033c8.441,0.105,17.403-0.834,25.796,0.006c8.53,0.853,17.078,0.649,25.614,1.071    c3.999,0.198,8.124,0.145,12.151,0.08c3.34-0.055,6.617,0.312,9.886-0.034c3.609-0.034,7.213-0.11,10.839,0.299    c4.829,0.546,9.655,0.133,14.499,0.531c5.597,0.461,11.239,0.93,16.856,0.921c8.761-0.013,17.467-0.933,26.163-0.652    c10.248,0.332,20.547,0.474,30.797,0.654c20.758,0.365,41.386,1.585,62.156,1.308c10.12-0.134,20.107,0.009,30.193,0.45    c2.727,0.119,5.977,0.783,8.002-1.539c1.451-1.664,2.384-4.661,2.536-6.832c0.435-6.205-1.719-11.373-8.284-12.199    c-0.265-0.034-0.545-0.062-0.814-0.093c0.155-0.401,0.291-0.826,0.377-1.312c0.671-3.778,0.159-7.913,0.395-11.744    c0.181-2.945-0.617-6.115-0.365-9.027c2.246-0.169,4.497-0.278,6.806-0.278c2.412,0,5.572,0.428,7.825-0.781    C511.96,392.762,512.385,386.884,511.748,383.759z M288.163,359.042c-6.672-5.299-11.953-14.625-15.047-22.445    c-1.838-4.642-2.889-9.352-3.489-14.295c-0.564-4.639-1.482-9.454,4.246-10.138c9.433-1.128,19.326-0.843,28.835-0.955    c10.708-0.125,21.326-0.572,32.024-0.218c10.644,0.352,21.265,0.135,31.923-0.598c0.027-0.002,0.051-0.01,0.078-0.012    c7.101,0.083,14.212,0.35,21.307,0.348c17.096-0.007,34.365,2.584,51.465,1.588c8.133-0.474,16.44-0.661,24.593-0.274    c1.766,0.083,4.153-0.156,5.84,0.301c1.918,0.519,1.607,0.329,1.439,2.617c-0.341,4.649-1.2,9.76-3.054,14.088    c-2.97,6.936-6.125,13.584-10.693,19.646c-4.846,6.431-10.094,10.119-17.012,14.105c-8.515,4.906-17.47,7.695-26.682,10.807    c-4.544,1.536-9.826,3.308-14.977,4.434c-7.771,0.319-15.54,0.653-23.344,0.665c-4.781,0.008-9.575,0.022-14.373,0.015    c-16.106-3.15-32.919-3.333-48.707-8.145C304.152,368.017,295.081,364.535,288.163,359.042z M219.528,199.7    c0.078-9.152-1.005-18.288-1.001-27.449c0.004-9.55-0.149-19.23-0.713-28.754c-0.636-10.736-0.266-21.493-0.25-32.25    c0.008-5.36-0.159-10.706,0.204-16.052c0.172-2.542,0.288-5.052,0.582-7.587c0.406-3.504-0.1-5.773,3.847-6.919    c3.789-1.1,9.174,0.368,13.141,0.395c2.955,0.02,12.086-1.26,13.412,1.049c0.758,1.318,0.1,4.178,0.087,5.642    c-0.025,2.542,0.227,4.982,0.384,7.51c0.364,5.878-0.202,11.839-0.28,17.723c-0.279,20.898,0.453,41.78,0.343,62.66    c-0.11,21.096-0.714,42.3-0.312,63.359c0.462,24.207-0.524,48.366-0.504,72.578c0.009,11.68,0.18,23.258-0.059,34.907    c-0.203,9.903-0.516,20.077,0.177,29.977c-8.153-0.287-16.419-0.15-24.486,0.054c-2.246,0.057-4.588,0.008-6.967-0.044    c0.578-9.361-0.03-19.073-0.591-28.404c-0.619-10.316-0.815-20.608-0.909-30.967c-0.179-19.672,1.117-39.691,2.846-59.287    C220.181,238.561,219.365,219.021,219.528,199.7z M196.677,217.188c0.007-1.01,0.032-2.019,0.052-3.028    c1.963,0.137,3.943-0.003,6.122,0.149c3.818,0.266,7.707,0.249,11.531,0.235c0.01,0.834,0.018,1.668,0.027,2.502    c-3.12-0.403-6.472-0.525-9.513-0.447c-2.541,0.065-5.499,0.19-8.22,0.701C196.676,217.262,196.677,217.225,196.677,217.188z     M196.624,220.953c2.715,0.112,5.4-0.605,8.271-0.572c3.231,0.037,6.346,0.547,9.547,0.306c0.038,4.66,0.044,9.323-0.05,14.005    c-0.068,3.35-0.159,6.703-0.263,10.056c-1.329-0.119-2.678-0.08-4.038-0.2c-2.014-0.178-4.075-0.392-6.103-0.091    c-2.451,0.363-4.824,0.761-7.306,0.946c-0.268,0.02-0.512,0.042-0.745,0.065C196.05,237.292,196.471,229.102,196.624,220.953z     M205.611,248.142c2.831-0.096,5.622,0.762,8.385,0.535c-0.042,1.213-0.078,2.426-0.124,3.639    c-1.163-0.008-2.312,0.183-3.654,0.373c-2.553,0.36-5.071,0.336-7.66,0.419c-2.065,0.068-4.432,0.029-6.608,0.45    c-0.033-1.7-0.038-3.403-0.033-5.105C199.163,248.691,202.148,248.259,205.611,248.142z M212.9,376.429    c-4.712-0.042-9.453,0.131-13.822,1.282c-0.652,0.002-1.305-0.008-1.959-0.023c0.096-6.454-0.844-12.805-0.428-19.278    c0.44-6.846,0.491-13.551,0.543-20.429c0.047-6.184-0.364-12.183-0.544-18.342c-0.211-7.173,0.476-14.23,0.582-21.367    c0.084-5.721,0.203-11.469-0.445-17.152c-0.727-6.383-0.098-12.959-0.546-19.385c-0.07-1.008-0.105-2.018-0.154-3.027    c2.031,0.356,4.178,0.186,6.43,0.24c3.586,0.086,7.452,0.408,11.051-0.286c-0.685,15.913-1.646,31.836-2.572,47.69    C209.673,329.724,211.27,353.129,212.9,376.429z M160.057,208.274c0.562-19.734,0.627-39.431,0.579-59.205    c-0.029-11.832,0.064-23.671-0.141-35.5c-0.178-10.292,0.345-20.584-0.24-30.842c1.946-2.252,7.303-2.554,9.893-2.819    c3.118-0.321,5.952,0.28,9.018,0.653c2.182,0.265,4.445,0.491,6.635,0.649c3.808,0.275,6.165,0.842,6.944,5.09    c2.179,11.875,1.763,24.573,1.203,36.592c-0.538,11.557-0.518,23.081-0.9,34.666c-0.383,11.592-1.151,23.429-2.352,34.968    c-1.2,11.535-0.77,23.188-1.201,34.779c-0.48,12.887-0.345,25.772,0.319,38.62c0.262,5.071-0.51,10.137,0.071,15.196    c0.651,5.671,0.572,11.443,0.465,17.155c-0.122,6.482-0.645,12.897-0.59,19.409c0.057,6.785,0.655,13.495,0.647,20.3    c-0.008,6.531,0.176,12.919-0.333,19.421c-0.531,6.783,0.495,13.371,0.447,20.105c-1.383-0.014-2.763,0.008-4.139,0.113    c-7.814,0.597-15.68,0.872-23.556,0.999c0.471-37.885-0.769-75.623-0.759-113.5c0.002-9.892-0.339-19.911-0.909-29.794    C160.64,226.353,159.803,217.226,160.057,208.274z M71.491,343.443c14.13-2.716,29.761-1.785,42.443,5.613    c9.907,5.78,24.115,16.212,25.205,28.593c0.034,0.388,0.128,0.734,0.247,1.061c-0.999-0.002-2-0.003-2.996-0.006    c-16.055-0.025-31.965-1.413-48.037-1.226c-17.04,0.198-34.015,0.643-51.057-0.15c-6.42-0.298-12.642,0.428-18.967,0.878    C27.058,358.316,51.539,347.277,71.491,343.443z M496.703,426.444c0.386,1.44,0.557,5.038-0.819,6.084    c-1.464,1.112-7.775-0.314-10.029-0.473c-9.237-0.648-18.689-0.194-27.954-0.316c-9.023-0.12-18.01-0.716-27.015-0.876    c-18.63-0.33-37.196-1.777-55.841-1.797c-16.038-0.017-31.817,1.011-47.887-0.162c-8.162-0.596-16.612-1.102-24.794-1.011    c-15.606,0.175-31.275,1.121-46.927-0.354c-6.92-0.652-13.857,0.279-20.785,0.338c-0.171-0.097-0.364-0.17-0.589-0.203    c-7.99-1.167-16.347,0.308-24.428,0.218c-8.181-0.091-16.631,0.415-24.794,1.011c-16.07,1.173-31.849,0.145-47.887,0.162    c-18.645,0.019-37.211,1.466-55.841,1.797c-9.005,0.16-17.992,0.755-27.015,0.876c-9.266,0.123-18.716-0.331-27.954,0.316    c-2.253,0.158-8.564,1.585-10.029,0.473c-1.376-1.046-1.205-4.643-0.817-6.084c0.927-3.452,3.126-2.916,6.138-3.223    c4.139-0.421,8.726-0.683,12.897-1.847c2.125-0.212,4.25-0.448,6.403-0.377c3.852,0.126,7.247,0.27,11.091-0.039    c7.911-0.636,16.251,0,24.12,0.67c7.754,0.661,16.602,0.766,24.36,0c8.257-0.815,16.454-0.453,24.768-0.432    c17.404,0.044,34.56-0.56,51.934-0.767c10.266-0.123,20.544-0.113,30.807-0.37c3.805-0.096,7.581-0.424,11.361-0.823    c1.035-0.01,2.052-0.004,3.033,0.038c9.679,0.419,19.383-0.642,29.09,0.092c10.748,0.813,21.823-0.247,32.614-0.247    c5.264,0.001,11.047,0.837,16.637,0.779c1.208,0.072,2.419,0.129,3.631,0.16c10.264,0.258,20.541,0.248,30.807,0.37    c17.375,0.207,34.531,0.81,51.935,0.767c8.313-0.02,16.511-0.383,24.768,0.432c7.758,0.766,16.606,0.661,24.36,0    c7.868-0.67,16.209-1.306,24.12-0.67c3.845,0.31,7.239,0.167,11.091,0.039c2.153-0.071,4.279,0.166,6.403,0.377    c4.171,1.162,8.758,1.425,12.897,1.847C493.576,423.528,495.775,422.992,496.703,426.444z M46.02,404.644    c-0.052,2.885-0.836,6.665,0.223,9.467c-2.469-0.008-4.917-0.119-7.483-0.093c-3.928,0.039-9.74,2.095-13.423,0.766    c-1.806-0.652-1.329-0.466-1.708-2.557c-0.427-2.352-0.641-4.507-0.865-6.868c-0.312-3.275-0.992-6.428-1.823-9.581    c1.195,0.114,2.395,0.235,3.61,0.363c7.145,0.747,14.294,0.268,21.429,0.032C45.679,398.904,46.068,401.997,46.02,404.644z     M73.773,414.408c-7.463-0.463-15-1.227-22.44-0.503c-0.602,0.059-1.197,0.099-1.788,0.131c1.096-2.97,0.244-7.059,0.178-10.062    c-0.062-2.794-0.104-5.311-0.832-7.872c6.653-0.123,13.269,0.104,19.924-0.206c1.809-0.084,3.624-0.131,5.439-0.17    C73.04,401.56,73.606,408.456,73.773,414.408z M111.632,413.692c-1.45,0.001-2.902-0.009-4.351,0.011    c-9.388,0.131-18.717,1.234-28.177,0.964c-0.266-0.008-0.533-0.025-0.798-0.034c0.158-6.025,0.754-13.044-0.485-18.956    c11.207-0.093,22.498,0.464,33.724,0.737C111.328,402.173,110.44,408.049,111.632,413.692z M145.251,407.703    c-0.072,1.957-0.158,4.055,0.129,6.041c-2.433,0.053-4.871,0.098-7.319,0.122c-7.16,0.07-14.333-0.101-21.498-0.166    c-1.114-4.545-0.854-9.073-0.887-13.715c-0.009-1.185-0.047-2.379-0.286-3.489c2.161,0.038,4.318,0.065,6.471,0.068    c7.939,0.007,15.879,0.044,23.82,0.029C145.023,400.202,145.385,404.083,145.251,407.703z M175.311,404.623    c-0.135,2.893-0.006,5.934,0.259,8.9c-2.519-0.028-5.038-0.056-7.556-0.086c-5.787-0.068-11.524,0.054-17.27,0.187    c-0.25-2.253-0.261-4.421-0.289-6.734c-0.042-3.316-0.033-6.908-0.544-10.296c8.54-0.026,16.808,0.822,25.414,0.18    C175.186,399.395,175.426,402.173,175.311,404.623z M209.29,413.799c-0.534,0.026-1.07,0.044-1.601,0.078    c-0.247,0.016-0.506,0.02-0.763,0.027c-2.455-0.053-4.91-0.079-7.363-0.109c-6.227-0.075-12.452-0.143-18.679-0.213    c-0.086-2.685-0.524-5.277-0.651-8.108c-0.144-3.226-0.178-6.058-0.729-8.977c8.09-0.431,16.297-0.198,24.389-0.495    c2.014-0.074,3.999-0.203,5.97-0.366c-0.097,0.597-0.223,1.192-0.285,1.772c-0.241,2.228-0.279,4.498-0.358,6.735    C209.113,407.211,208.513,410.753,209.29,413.799z M252.24,399.633c-0.144,4.353-0.697,9.091-0.212,13.464    c-1.023-0.032-2.048-0.064-3.072-0.115c-9.257-0.449-18.441,0.342-27.692,0.534c-2.365,0.048-4.754,0.069-7.142,0.117    c1.065-4.097,0.072-9.372-0.139-13.284c-0.086-1.585,0.036-3.424-0.243-5.085c1.036-0.115,2.067-0.248,3.1-0.383    c2.374,0.034,4.747,0.061,7.132,0.22c9.524,0.634,18.935-0.175,28.438-0.506C252.157,396.315,252.286,398.219,252.24,399.633z     M297.88,413.635c-5.641-0.367-11.283-0.645-16.964-0.646c-6.603-0.001-14.038,1.192-20.559,0.223    c-3.235-0.481-3.475-0.823-3.876-4.441c-0.287-2.594,0.141-5.23,0.072-7.831c-0.055-2.074-0.433-4.287-0.602-6.437    c9.952-0.168,19.878,0.721,29.802,0.727c3.963,0.003,8.181,0.415,12.431,0.715c-0.159,1.473-0.092,3.03-0.167,4.402    C297.807,404.261,296.814,409.538,297.88,413.635z M302.782,404.144c-0.079-2.238-0.117-4.507-0.358-6.735    c-0.044-0.404-0.117-0.816-0.191-1.232c2.625,0.107,5.232,0.101,7.774-0.131c7.476,0.204,15.032,0.053,22.49,0.45    c-0.549,2.92-0.584,5.751-0.727,8.977c-0.126,2.831-0.565,5.423-0.651,8.108c-6.227,0.069-12.452,0.137-18.679,0.213    c-3.252,0.039-6.509,0.05-9.761,0.162C303.518,410.875,302.891,407.264,302.782,404.144z M336.691,404.623    c-0.114-2.45,0.125-5.228-0.012-7.85c8.606,0.642,16.874-0.206,25.414-0.18c-0.511,3.388-0.502,6.981-0.544,10.296    c-0.028,2.314-0.039,4.48-0.289,6.734c-5.746-0.133-11.482-0.255-17.27-0.187c-2.519,0.029-5.038,0.057-7.556,0.086    C336.698,410.557,336.826,407.515,336.691,404.623z M395.438,413.701c-7.164,0.064-14.337,0.235-21.497,0.166    c-2.448-0.024-4.885-0.07-7.319-0.122c0.287-1.987,0.203-4.084,0.129-6.041c-0.134-3.62,0.227-7.501-0.43-11.11    c7.939,0.015,15.881-0.023,23.82-0.029c2.153-0.002,4.311-0.029,6.471-0.068c-0.239,1.109-0.278,2.304-0.286,3.489    C396.292,404.628,396.551,409.156,395.438,413.701z M400.46,396.417c11.225-0.274,22.516-0.831,33.724-0.738    c-1.241,5.911-0.643,12.931-0.485,18.956c-0.266,0.009-0.533,0.026-0.799,0.034c-9.46,0.271-18.79-0.833-28.177-0.964    c-1.449-0.02-2.9-0.011-4.351-0.011C401.563,408.049,400.675,402.173,400.46,396.417z M462.458,414.037    c-0.591-0.032-1.186-0.072-1.788-0.131c-7.44-0.725-14.977,0.041-22.44,0.503c0.166-5.953,0.732-12.848-0.481-18.681    c1.815,0.039,3.63,0.086,5.44,0.17c6.656,0.31,13.271,0.082,19.924,0.206c-0.729,2.56-0.77,5.078-0.832,7.872    C462.214,406.978,461.363,411.067,462.458,414.037z M465.982,404.644c-0.047-2.647,0.341-5.74,0.041-8.475    c7.135,0.236,14.284,0.715,21.429-0.032c1.215-0.127,2.415-0.249,3.61-0.363c-0.831,3.153-1.511,6.305-1.823,9.581    c-0.225,2.362-0.439,4.517-0.866,6.868c-0.379,2.091,0.098,1.905-1.708,2.557c-3.683,1.33-9.494-0.726-13.422-0.766    c-2.566-0.026-5.015,0.086-7.483,0.093C466.818,411.309,466.033,407.529,465.982,404.644z M505.225,390.502    c-1.497,1.003-6.634-0.055-8.456-0.01c-1.573,0.037-3.112,0.152-4.674,0.328c-3.528,0.396-6.907,0.755-10.464,0.717    c-7.049-0.077-14.009-0.802-21.04-0.909c-13.991-0.214-27.925-1.065-41.944-1.243c-16.677-0.212-33.349-0.274-50.027-0.287    c-3.999-0.003-8.196-0.419-12.165-0.041c-2.866,0.272-5.452,0.783-8.348,0.708c-7.316-0.189-14.574-1.021-21.893-0.79    c-6.091,0.191-12.184,0.586-18.275,0.853c-6.824-0.764-14.116-0.515-20.46-0.609c-10.509-0.155-21.004-0.871-31.538-0.71    c-10.298,0.158-20.569,1.633-30.883,1.201c-5.679-0.238-11.419-0.355-17.075,0.257c-7.396-0.24-14.795-0.76-22.193-0.992    c-7.318-0.23-14.576,0.602-21.893,0.79c-2.896,0.074-5.482-0.436-8.348-0.708c-3.97-0.378-8.165,0.037-12.165,0.041    c-16.678,0.012-33.35,0.075-50.027,0.287c-14.019,0.178-27.953,1.028-41.944,1.243c-7.03,0.107-13.991,0.833-21.04,0.909    c-3.558,0.038-6.936-0.321-10.464-0.717c-1.562-0.176-3.102-0.29-4.674-0.328c-1.822-0.044-6.958,1.015-8.456,0.01    c-1.5-1.005-1.671-1.575-1.281-3.211c0.508-2.127,0.664-1.785,3.305-1.901c3.062-0.133,6.063-0.088,9.118-0.368    c7.811-0.717,15.449-1.061,23.301-1.044c16.427,0.036,32.85-0.801,49.271-1.091c13.951-0.247,27.767,1.127,41.703,1.105    c9.019-0.015,18.07,0.068,27.086-0.174c8.143-0.22,16.489,0.27,24.585-0.704c4.704-0.566,9.389-0.373,14.126-0.419    c3.485-0.035,6.8-0.647,10.254-0.808c1.622-0.075,3.236-0.153,4.845-0.238c3.377,0.06,6.75,0.104,10.144,0.173    c10.971,0.225,22.136,0.143,33.074,0.965c5.65,0.424,11.359-0.287,16.987-0.35c5.557-0.063,11.226,0.49,16.789,0.652    c5.319,0.154,10.482-0.053,15.82-0.509c1.151-0.098,2.303-0.154,3.456-0.198c1.536,0.157,3.076,0.296,4.654,0.312    c4.737,0.047,9.422-0.146,14.126,0.419c7.587,0.913,15.405,0.124,23.046,0.628c9.487,0.627,19.118,0.235,28.625,0.25    c13.936,0.023,27.753-1.351,41.703-1.105c16.421,0.289,32.844,1.127,49.271,1.091c7.851-0.017,15.49,0.325,23.301,1.044    c3.055,0.28,6.057,0.235,9.118,0.368c2.64,0.115,2.797-0.227,3.305,1.901C506.896,388.926,506.724,389.497,505.225,390.502z"/>
	</g>
</g>
<g>
</g>
<g>
</g>
<g>
</g>
<g>
</g>
<g>
</g>
<g>
</g>
<g>
</g>
<g>
</g>
<g>
</g>
<g>
</g>
<g>
</g>
<g>
</g>
<g>
</g>
<g>
</g>
<g>
</g>
</svg>
