<?xml version="1.0" encoding="iso-8859-1"?>
<!-- Generator: Adobe Illustrator 19.0.0, SVG Export Plug-In . SVG Version: 6.00 Build 0)  -->
<svg xmlns="http://www.w3.org/2000/svg" xmlns:xlink="http://www.w3.org/1999/xlink" version="1.1" id="Layer_1" x="0px" y="0px" viewBox="0 0 511.998 511.998" style="enable-background:new 0 0 511.998 511.998;" xml:space="preserve">
<g>
	<g>
		<path d="M511.686,405.073c-0.706-6.891-3.25-10.538-10.311-11.757c-2.174-0.375-4.409-0.749-6.662-1.059    c0.207-0.921,0.273-1.961,0.162-3.155c-0.693-7.465-4.88-15.05-8.061-21.735c-3.135-6.587-5.274-14.041-7.932-20.848    c-12.221-31.297-26.367-61.999-36.06-94.205c-2.286-7.594-5.939-13.978-9.31-21.098c-3.167-6.69-5.637-15.176-12.201-19.385    c-3.749-2.405-8.559-3.097-13.258-3.438c-0.607-3.262-2.337-5.807-3.545-9.033c-1.362-3.637-2.006-7.438-3.57-11.012    c-3.023-6.908-5.878-13.792-9.339-20.48c-2.013-3.89-4.635-7.555-6.973-11.254c-1.92-3.038-3.336-6.732-6.095-9.144    c-3.982-3.481-11.001-4.21-16.411-4.579c0.767-4.495,1.28-9.017,1.427-13.585c0.156-4.889,0.602-10.304-0.269-15.117    c-1.606-8.877-11.284-8.94-19.271-8.992c1.09-4.508,0.386-11.007,0.258-13.183c-0.196-3.364-0.367-8.514-3.283-10.799    c-2.957-2.317-8.079-2.155-12.065-2.048c0.29-4.927,0.356-10.705-1.138-14.839c-2.004-5.545-9.456-4.388-14.219-4.72    c-8.404-0.584-17.109,0.039-25.526,0.38c-3.354,0.135-6.609,0.142-9.825,0.207c-7.463-0.63-15.235,0.055-22.448,0.356    c-3.698,0.154-7.428,0.284-11.148,0.355c-6.824-0.919-13.511-0.628-20.648-0.916c-8.417-0.339-17.122-0.964-25.526-0.38    c-4.763,0.332-12.216-0.825-14.219,4.72c-1.494,4.135-1.429,9.912-1.138,14.839c-3.986-0.109-9.109-0.27-12.065,2.048    c-2.916,2.286-3.087,7.436-3.283,10.799c-0.127,2.176-0.832,8.676,0.258,13.183c-7.987,0.051-17.667,0.115-19.271,8.991    c-0.87,4.815-0.425,10.229-0.269,15.117c0.147,4.57,0.66,9.092,1.427,13.585c-5.412,0.369-12.429,1.099-16.412,4.579    c-2.758,2.411-4.176,6.105-6.095,9.144c-2.338,3.699-4.96,7.363-6.973,11.254c-3.461,6.688-6.316,13.572-9.339,20.48    c-1.564,3.574-2.208,7.375-3.57,11.012c-1.208,3.226-2.939,5.771-3.545,9.033c-4.698,0.34-9.509,1.033-13.258,3.438    c-6.564,4.209-9.033,12.694-12.201,19.385c-3.371,7.12-7.024,13.504-9.31,21.098c-9.695,32.206-23.839,62.908-36.06,94.205    c-2.658,6.806-4.797,14.261-7.931,20.848c-3.181,6.685-7.369,14.269-8.061,21.735c-0.111,1.194-0.044,2.233,0.162,3.155    c-2.253,0.31-4.489,0.684-6.662,1.059c-7.061,1.219-9.605,4.866-10.31,11.757c-0.278,2.714-0.838,6.83,0.899,9.193    c1.853,2.52,4.6,2.185,7.335,2.278c9.562,0.322,19.199,0.805,28.856,0.537c10.143-0.281,20.285-0.287,30.398-0.859    c9.973-0.564,20.086,0.675,30.084,0.663c10.362-0.012,20.599-0.536,30.95-0.737c4.675-0.091,9.185,0.02,13.839,0.215    c0.272,0.012,0.55,0.025,0.828,0.037c2.96,0.822,6.019,1.009,9.339,0.682c3.022-0.297,6.113-0.844,9.149-1.031    c-2.066,6.725-4.311,13.423-5.864,20.258c-1.687,7.424-1.688,13.129,7.076,14.911c5.693,1.157,11.774,0.817,17.558,0.868    c6.755,0.06,13.479,0.496,20.276,0.5c11.482,0.01,22.948,0.215,34.383-0.412c5.243,0.063,10.538-0.123,15.713,0.054    c8.135,0.277,16.416,0.074,24.595,0.059c3.471-0.007,7.45,0.328,11.346,0.262c7.953,0.144,15.917,0.045,23.89,0.038    c6.797-0.006,13.521-0.441,20.276-0.5c5.784-0.051,11.864,0.29,17.558-0.868c8.765-1.782,8.763-7.487,7.076-14.911    c-1.554-6.835-3.798-13.533-5.864-20.258c3.037,0.187,6.127,0.734,9.149,1.03c3.32,0.326,6.379,0.14,9.339-0.682    c0.277-0.013,0.555-0.026,0.827-0.037c4.653-0.196,9.163-0.306,13.839-0.215c10.352,0.201,20.587,0.725,30.95,0.737    c9.998,0.012,20.111-1.226,30.084-0.663c10.113,0.572,20.255,0.578,30.398,0.859c9.659,0.267,19.294-0.215,28.856-0.537    c2.737-0.092,5.482,0.242,7.335-2.278C512.524,411.904,511.964,407.788,511.686,405.073z M403.944,216.993    c7.783,1.082,12.79,1.015,17.432,8.185c8.209,12.679,13.168,27.078,17.644,41.363c4.661,14.876,9.659,29.266,15.681,43.676    c5.951,14.241,10.645,29.063,16.767,43.213c2.652,6.13,4.389,12.589,7.291,18.645c1.297,2.706,2.459,5.378,3.573,8.172    c0.645,1.617,4.369,8.453,3.632,10.132c-1.748,3.966-18.26,2.958-21.676,3.203c-7.284,0.523-14.61,0.085-21.91-0.288    c-16.096-0.823-32.078,1.022-48.136,0.425c-16.765-0.623-33.391-0.738-50.192,0.068c-0.135,0.006-0.252,0.037-0.38,0.054    c-1.802-5.93-3.644-11.85-5.123-17.883c-2.754-11.239-6.124-22.524-9.82-33.483c-3.721-11.035-6.644-21.957-9.118-33.345    c-2.3-10.584-5.467-20.966-7.693-31.574c-1.254-5.973-3-11.768-4-17.796c-0.931-5.604-1.962-11.031-3.394-16.535    c-1.648-6.331-2.88-12.747-4.462-19.083c-0.94-3.76-1.764-7.664-3.237-11.266c9.466,0.518,18.893,0.659,28.399,0.721    c9.135,0.06,18.218-0.699,27.358-0.352c9.057,0.344,18.069,1.35,27.122,1.378C387.706,214.651,396.012,215.891,403.944,216.993z     M226.883,191.535c0.259-6.576,1.236-13.13,1.415-19.696c0.08-2.918-0.893-6.052-0.351-8.919c0.688-3.634,4.171-4.047,7.522-4.281    c1.728,0.049,3.472-0.017,5.115,0.037c4.18,0.137,8.453,0.122,12.627-0.116c5.049-0.287,10.055-0.259,15.062-0.398    c1.85-0.005,3.689,0.023,5.478,0.247c3.904,0.49,9.409-0.162,10.294,4.51c0.543,2.867-0.43,6-0.35,8.919    c0.179,6.566,1.156,13.121,1.415,19.696c0.201,5.087-0.607,9.962,0.521,14.821c-2.103-0.165-4.213-0.295-6.341-0.356    c-3.931-0.112-7.865,0.018-11.796,0.245c-0.026-0.272-0.091-0.553-0.227-0.838c-0.411-0.867,0.031-3.069,0.025-4.102    c-0.018-2.725,0.008-5.463-0.074-8.185c-0.135-4.462-0.253-8.959-0.552-13.411c-0.158-2.36,0.346-6.498-1.413-8.353    c-2.317-2.442-8.141-0.977-10.864-0.919c-2.116,0.044-5.81-0.672-7.415,1.102c-1.893,2.093-0.925,7.301-1.068,9.93    c-0.299,5.564-0.01,11.118-0.209,16.677c-0.106,2.951-0.794,6.421-0.399,9.506c-1.45,0.054-2.899,0.111-4.349,0.148    c-4.799-0.817-9.721-1.146-14.636-1.22C227.523,201.648,226.679,196.701,226.883,191.535z M249.196,189.585    c-0.007-4.123,0.258-8.226,0.305-12.341c0.017-1.538-0.351-2.604,0.707-3.451c1.1-0.881,4.59,0.494,6.208,0.515    c1.639,0.02,4.56-0.873,5.705,0.794c0.262,0.381,0.216,3.425,0.256,3.949c0.248,3.348,0.246,6.719,0.299,10.076    c0.069,4.428,0.215,8.806,0.09,13.244c-0.041,1.438-0.198,2.819,0.073,4.18c-2.867,0.208-5.73,0.439-8.589,0.644    c-1.894,0.135-3.788,0.234-5.681,0.325C249.963,201.901,249.205,195.012,249.196,189.585z M230.143,213.791    c8.028,0.32,16.093,0.142,24.103-0.3c10.766-0.596,21.508-0.586,32.232-0.921c1.411,0.019,2.823,0.037,4.24,0.069    c0.789,3.371,1.549,6.747,2.297,10.125c-24.672-0.097-49.347-0.158-74.018-0.069c0.696-3.132,1.401-6.263,2.129-9.39    C224.156,213.601,227.224,213.675,230.143,213.791z M293.871,226.65c1.628,7.397,3.236,14.798,4.996,22.174    c-28.575-0.115-57.153-0.196-85.725-0.062c1.748-7.333,3.349-14.69,4.967-22.043C243.361,226.813,268.618,226.75,293.871,226.65z     M299.729,252.668c1.575,7.326,2.694,14.797,3.995,22.215c-31.815-0.127-63.634-0.232-95.446-0.053    c1.294-7.381,2.41-14.813,3.973-22.103C241.408,252.868,270.571,252.785,299.729,252.668z M304.419,278.688    c0.361,1.922,0.734,3.841,1.148,5.747c1.19,5.49,2.387,10.994,3.544,16.506c-35.405-0.142-70.817-0.288-106.217-0.051    c1.156-5.493,2.348-10.981,3.536-16.453c0.41-1.889,0.781-3.79,1.138-5.696C239.847,278.927,272.135,278.818,304.419,278.688z     M309.892,304.707c0.684,3.322,1.356,6.645,1.992,9.972c0.798,4.183,1.811,8.274,2.943,12.324    c-39.213-0.154-78.437-0.353-117.645-0.042c1.126-4.037,2.134-8.115,2.929-12.282c0.632-3.31,1.3-6.616,1.981-9.922    C238.02,305.003,273.96,304.852,309.892,304.707z M315.9,330.725c1.479,4.97,3.105,9.898,4.717,14.874    c0.805,2.485,1.591,4.976,2.359,7.471c-42.422-0.156-84.861-0.413-127.279-0.062c-2.222,0.001-4.444,0.017-6.667,0.024    c0.765-2.483,1.548-4.961,2.349-7.433c1.607-4.963,3.228-9.877,4.704-14.833C236.014,331.092,275.962,330.882,315.9,330.725z     M195.697,356.803c42.788,0.355,85.596,0.09,128.388-0.066c2.25,7.444,4.389,14.92,6.513,22.4    c-44.961-0.149-89.942-0.462-134.901-0.09c-4.767,0.002-9.532,0.048-14.298,0.085c2.12-7.467,4.256-14.93,6.501-22.361    C190.499,356.783,193.097,356.802,195.697,356.803z M195.697,382.842c45.3,0.375,90.623,0.054,135.927-0.093    c2.123,7.477,4.257,14.95,6.515,22.382c0.007,0.023,0.013,0.044,0.02,0.067c-47.479-0.134-94.983-0.504-142.462-0.111    c-7.29,0.005-14.579,0.053-21.866,0.133c0.008-0.03,0.017-0.059,0.026-0.088c2.258-7.433,4.392-14.906,6.515-22.383    C185.48,382.79,190.587,382.839,195.697,382.842z M195.697,408.883c47.829,0.395,95.685,0.018,143.514-0.113    c2.157,7.502,4.049,15.083,6.607,22.484c-50.029-0.111-100.087-0.54-150.12-0.125c-9.858,0.006-19.713,0.099-29.564,0.263    c2.585-7.459,4.489-15.1,6.663-22.663C180.428,408.82,188.062,408.878,195.697,408.883z M345.613,111.487    c5.982,0.303,10.291,0.358,10.496,7.044c0.247,8.072,0.154,16.15,1.304,24.128c-7.319-0.171-14.66,0.497-21.945-0.159    c-7.511-0.676-15.165-0.503-22.709-0.712c1.735-4.897,0.459-11.484,0.345-16.388c-0.096-4.13-0.838-8.708-0.775-12.99    c5.412-0.233,10.82-0.491,16.261-0.652C334.334,111.589,339.845,111.196,345.613,111.487z M305.181,76.96    c0.117-1.891,0.353-3.727,0.357-5.631c0.002-1.698,0.284-3.856-0.032-5.738c0.02,0,0.042-0.001,0.062-0.002    c3.589-0.105,7.089,0.176,10.66,0.358c3.886,0.199,5.42-0.197,6.05,4.159c0.441,3.047,0.341,6.194,0.982,9.153    c-6.035,0.125-12.069,0.503-18.101,0.87C305.183,79.088,305.115,78.043,305.181,76.96z M301.119,65.771    c-0.236,1.857-0.191,3.898-0.306,5.557c-0.125,1.826-0.423,3.619-0.572,5.438c-0.099,1.207,0.093,2.448-0.029,3.653    c-2.08,0.118-4.16,0.223-6.241,0.31c0.417-2.287,0.362-4.908,0.32-7.059c-0.049-2.461-0.048-5.013-0.388-7.491    C296.324,66.036,298.734,65.89,301.119,65.771z M282.881,66.698c2.279-0.059,4.564-0.158,6.843-0.279    c-0.264,2.141-0.287,4.326-0.346,6.478c-0.073,2.615-0.363,5.219-0.65,7.823c-0.032,0.061-0.059,0.123-0.082,0.186    c-0.049,0.001-0.098,0.004-0.148,0.005c-1.97,0.041-3.937,0.088-5.904,0.144c-0.024-0.961-0.027-1.926,0.106-2.909    c0.242-1.773,0.341-3.246,0.279-5.105c-0.068-2.006,0.084-4.344-0.554-6.287C282.578,66.735,282.73,66.719,282.881,66.698z     M237.405,66.663c6.107,0.856,12.717,0.448,18.354,0.364c7.209-0.105,15.163,0.614,22.734,0.116    c-0.347,2.336-0.431,4.806-0.556,7.058c-0.082,1.465-0.418,2.385-0.679,3.784c-0.202,1.078-0.116,2.171-0.045,3.265    c-2.721,0.123-5.437,0.29-8.147,0.525c-3.503-0.188-7.006-0.376-10.522-0.356c-7.649,0.045-15.526-0.565-23.242-0.143    c-0.173-0.008-0.345-0.018-0.518-0.026c0.07-1.094,0.155-2.185-0.045-3.265c-0.261-1.399-0.597-2.319-0.679-3.784    c-0.134-2.377-0.208-5.003-0.609-7.452C234.772,66.745,236.091,66.715,237.405,66.663z M229.58,66.713    c-0.654,1.951-0.498,4.308-0.566,6.327c-0.063,1.859,0.037,3.332,0.279,5.105c0.135,0.983,0.13,1.948,0.106,2.909    c-1.967-0.056-3.935-0.104-5.904-0.144c-0.049-0.001-0.098-0.004-0.148-0.005c-0.024-0.063-0.05-0.125-0.082-0.186    c-0.287-2.602-0.577-5.207-0.65-7.823c-0.06-2.152-0.082-4.337-0.346-6.478C224.705,66.55,227.146,66.657,229.58,66.713z     M218.093,66.181c-0.339,2.478-0.339,5.029-0.388,7.49c-0.043,2.152-0.097,4.773,0.32,7.059c-2.08-0.088-4.16-0.193-6.242-0.31    c-0.122-1.206,0.069-2.447-0.029-3.653c-0.148-1.819-0.445-3.612-0.572-5.438c-0.115-1.66-0.069-3.7-0.306-5.557    C213.262,65.89,215.67,66.036,218.093,66.181z M189.717,70.106c0.63-4.355,2.165-3.96,6.05-4.159    c3.57-0.183,7.07-0.463,10.66-0.358c0.02,0,0.042,0.001,0.062,0.002c-0.315,1.883-0.035,4.04-0.032,5.738    c0.004,1.905,0.24,3.739,0.357,5.631c0.067,1.083-0.002,2.127,0.021,3.169c-6.034-0.368-12.066-0.745-18.101-0.87    C189.375,76.301,189.275,73.153,189.717,70.106z M175.215,94.656c0.039-1.752,0.113-3.429,0.355-5.169    c0.767-1.513,0.894-2.289,0.414-2.361c0.262-0.079,0.523-0.158,0.786-0.238c8.97-1.628,18.539-0.216,27.577,0.061    c13.878,0.426,28.497,2.729,42.393,0.89c3.606,0.072,7.214,0.128,10.827,0.127c7.266-0.002,16.301,1.628,24.177,0.498    c8.689-0.293,17.436-1.254,25.906-1.514c9.038-0.278,18.607-1.688,27.577-0.061c0.262,0.079,0.523,0.158,0.786,0.238    c-0.48,0.072-0.352,0.848,0.414,2.361c0.241,1.74,0.315,3.417,0.355,5.169c0.078,3.437,0.1,6.862,0.228,10.294    c-12.853-0.792-26.008,0.193-38.884,0.161c-5.333-0.013-10.599,0.478-15.889,0.929c-6.748-0.278-13.536,0.006-20.288,0.305    c-4.607,0.203-9.253,0.517-13.882,0.608c-4.573-0.541-9.232-0.221-13.849-0.554c-6.798-0.492-13.517-1.303-20.345-1.286    c-12.877,0.032-26.032-0.953-38.884-0.161C175.114,101.519,175.137,98.092,175.215,94.656z M308.772,124.418    c-0.139,5.521-0.934,11.64-0.345,17.195c-7.832-0.422-15.645-1.415-23.539-1.629c-0.621-0.017-1.243-0.007-1.865-0.014    c-2.886-0.174-5.813-0.076-8.572-0.011c0.7-5.192-0.246-11.626-0.591-16.5c-0.235-3.316-0.205-7.057-0.841-10.503    c0.764,0.007,1.53,0.007,2.296,0.004c6.159,0.37,12.432-0.02,18.542-0.037c5.008-0.013,9.979-0.17,14.94-0.367    C308.313,116.42,308.861,120.864,308.772,124.418z M245.541,112.978c5.467,0.201,10.941-0.016,16.407-0.115    c1.476-0.026,2.99-0.019,4.526,0c-0.416,3.238,0.233,6.924,0.352,9.836c0.234,5.711,0.216,11.574-0.078,17.308    c-3.68-0.019-7.358-0.072-11.042-0.048c-3.538,0.023-6.966,0.239-10.442,0.426c-0.312-5.855-0.333-11.851-0.093-17.687    C245.289,119.823,245.926,116.189,245.541,112.978z M237.551,140.031c-3.481-0.074-6.965-0.14-10.443-0.045    c-7.894,0.214-15.707,1.207-23.539,1.629c0.589-5.555-0.207-11.673-0.345-17.195c-0.09-3.554,0.459-7.998-0.026-11.862    c4.963,0.197,9.932,0.353,14.94,0.367c6.879,0.019,13.966,0.517,20.862-0.136c-0.667,3.493-0.626,7.304-0.865,10.673    C237.789,128.355,236.833,134.827,237.551,140.031z M155.886,118.531c0.205-6.686,4.514-6.741,10.496-7.044    c5.769-0.293,11.279,0.102,17.023,0.272c5.441,0.161,10.851,0.42,16.261,0.652c0.062,4.281-0.679,8.859-0.775,12.99    c-0.113,4.904-1.39,11.491,0.345,16.388c-7.544,0.208-15.198,0.036-22.709,0.712c-7.285,0.656-14.626-0.012-21.945,0.159    C155.731,134.681,155.638,126.603,155.886,118.531z M114.979,202.222c1.365-3.533,1.999-7.279,3.252-10.851    c2.374-6.77,4.653-13.751,7.904-20.15c1.663-3.273,3.942-6.386,5.957-9.45c2.062-3.136,4.422-7.794,7.994-9.352    c5.883-2.566,14.245-2.897,20.605-3.002c7.777-0.129,15.412-0.759,23.155-1.068c6.916-0.275,13.862-0.116,20.731-0.872    c10.205-1.124,20.408-1.47,30.631-1.764c2.131,0.142,4.283,0.104,6.09,0.13c4.799,0.069,9.606,0.19,14.41,0.22    c5.893,0.037,11.885,0.232,17.758-0.23c0.71-0.056,1.442-0.105,2.188-0.153c10.604,0.301,21.185,0.632,31.769,1.797    c6.868,0.756,13.814,0.596,20.731,0.872c7.742,0.308,15.377,0.939,23.155,1.068c6.36,0.105,14.722,0.436,20.605,3.002    c3.573,1.558,5.932,6.216,7.994,9.352c2.016,3.064,4.294,6.176,5.957,9.45c3.252,6.399,5.53,13.38,7.904,20.15    c1.253,3.57,1.887,7.317,3.251,10.851c0.689,1.783,1.983,3.733,2.689,5.658c-8.012-0.559-15.958-0.75-23.981-0.732    c-8.741,0.02-17.499-1.026-26.258-0.921c-9.279,0.111-18.489,0.817-27.776,0.878c-9.023,0.059-17.947-0.171-26.939-0.441    c-1.238-0.037-2.485-0.066-3.734-0.085c1.74-6.257,1.477-14.139,0.935-20.171c-0.37-4.12-0.353-8.258-0.718-12.373    c-0.331-3.734,0.214-7.409-0.144-11.116c-0.69-7.155-4.655-8.654-11.201-9.664c-4.542-0.7-9.024-0.945-13.611-0.956    c-0.39-0.001-0.755,0.012-1.116,0.027c-4.287-0.374-8.783-0.056-13.061,0.242c-0.699,0.049-1.442,0.074-2.209,0.09    c-1.265-0.227-2.594-0.363-4.18-0.359c-4.588,0.011-9.069,0.255-13.611,0.956c-6.546,1.009-10.51,2.509-11.201,9.664    c-0.357,3.706,0.186,7.382-0.144,11.116c-0.364,4.115-0.347,8.254-0.718,12.373c-0.542,6.031-0.804,13.914,0.935,20.171    c-1.249,0.019-2.494,0.048-3.734,0.085c-8.991,0.27-17.916,0.499-26.939,0.441c-9.288-0.061-18.498-0.767-27.776-0.878    c-8.759-0.105-17.517,0.94-26.258,0.921c-8.022-0.018-15.967,0.173-23.981,0.732C112.994,205.955,114.29,204.005,114.979,202.222z     M29.663,380.249c1.115-2.794,2.276-5.466,3.573-8.172c2.902-6.055,4.639-12.514,7.291-18.645    c6.122-14.15,10.816-28.972,16.767-43.213c6.022-14.409,11.02-28.8,15.681-43.676c4.475-14.285,9.435-28.684,17.644-41.363    c4.643-7.172,9.651-7.105,17.432-8.185c7.931-1.102,16.237-2.342,24.242-2.366c9.054-0.027,18.065-1.034,27.123-1.378    c9.14-0.346,18.224,0.413,27.358,0.352c9.506-0.062,18.932-0.203,28.399-0.721c-1.474,3.601-2.297,7.505-3.237,11.266    c-1.582,6.335-2.814,12.75-4.462,19.083c-1.432,5.504-2.462,10.931-3.394,16.535c-1.002,6.028-2.746,11.821-4,17.796    c-2.227,10.607-5.393,20.988-7.693,31.574c-1.357,6.244-2.855,12.347-4.54,18.407c-0.087,0.158-0.162,0.332-0.258,0.479    c-0.222,0.905-0.448,1.81-0.671,2.715c0.008,0,0.017,0,0.025,0c-1.136,3.918-2.352,7.824-3.674,11.744    c-3.696,10.959-7.067,22.243-9.821,33.483c-1.478,6.033-3.321,11.953-5.123,17.883c-0.128-0.017-0.245-0.048-0.38-0.054    c-16.801-0.806-33.427-0.691-50.192-0.068c-16.058,0.597-32.041-1.248-48.136-0.425c-7.301,0.373-14.626,0.811-21.91,0.288    c-3.415-0.246-19.928,0.763-21.676-3.203C25.293,388.702,29.018,381.866,29.663,380.249z M151.85,408.574    c-2.643,0.035-5.255-0.156-7.867-0.227c-3.377-0.319-6.733-0.675-10.164-0.696c-7.871-0.05-15.663,0.427-23.49,0.534    c-9.426,0.128-19.031,0.275-28.429-0.406c-7.862-0.571-15.484,0.41-23.297,0.443c-8.618,0.037-17.127,0.739-25.718,0.96    c-4.318,0.111-8.724-0.142-13.01,0.41c-3.312,0.426-6.138,0.039-9.444,0.002c0.116,0.001-4.367-0.215-3.443,0.817    c-0.855-0.955,0.387-4.92,0.608-6.145c0.591-3.28,1.226-3.767,4.835-4.376c3.673-0.621,7.268-1.171,10.836-1.906    c0.583,0.203,1.198,0.385,1.839,0.552c7.45,1.931,15.992,1.515,23.653,2.182c9.62,0.837,19.308-0.614,28.964-0.74    c9.835-0.129,20.063,0.164,29.843,1.108c9.301,0.898,18.624-0.01,27.948-0.044c10.203-0.038,20.323,0.79,30.552,0.46    c-0.512,1.804-1.011,3.613-1.472,5.432c-0.102,0.398-0.214,0.794-0.32,1.192c-0.096-0.016-0.193-0.017-0.29-0.029    C160.077,407.445,155.771,408.522,151.85,408.574z M350.331,444.25c-0.492,1.929-11.386-0.063-13.696-0.19    c-22.55-1.236-45.318,0.856-67.852,0.984c-0.578,0.004-1.048,0.146-1.463,0.343c-3.551-0.072-7.104-0.107-10.67-0.167    c-4.229-0.072-8.448-0.121-12.675-0.091c-0.239-0.049-0.488-0.084-0.763-0.085c-22.534-0.128-45.301-2.221-67.852-0.984    c-2.311,0.127-13.204,2.118-13.697,0.189c-0.185-0.725,1.268-3.316,1.483-3.987c0.604-1.888,1.23-3.755,1.87-5.621    c10.224,0.178,20.45,0.276,30.681,0.282c50.437,0.418,100.902-0.023,151.335-0.128c0.621,1.815,1.229,3.631,1.816,5.468    C349.063,440.934,350.516,443.525,350.331,444.25z M505.006,410.409c0.924-1.033-3.558-0.816-3.443-0.817    c-3.306,0.037-6.132,0.424-9.444-0.002c-4.286-0.55-8.692-0.297-13.01-0.41c-8.591-0.221-17.101-0.923-25.718-0.96    c-7.813-0.033-15.435-1.014-23.297-0.443c-9.399,0.682-19.003,0.535-28.429,0.406c-7.827-0.106-15.619-0.584-23.49-0.534    c-3.431,0.023-6.786,0.377-10.164,0.696c-2.612,0.07-5.223,0.261-7.867,0.227c-3.921-0.051-8.227-1.13-12.132-0.48    c-0.096,0.012-0.195,0.013-0.29,0.029c-0.106-0.398-0.219-0.793-0.32-1.192c-0.461-1.82-0.961-3.628-1.472-5.432    c10.229,0.33,20.348-0.498,30.552-0.46c9.323,0.035,18.647,0.942,27.948,0.044c9.78-0.944,20.008-1.237,29.843-1.108    c9.654,0.127,19.344,1.577,28.964,0.74c7.66-0.666,16.203-0.251,23.653-2.182c0.641-0.166,1.255-0.349,1.839-0.552    c3.568,0.734,7.163,1.286,10.836,1.906c3.609,0.609,4.244,1.097,4.835,4.376C504.62,405.489,505.861,409.454,505.006,410.409z"/>
	</g>
</g>
<g>
</g>
<g>
</g>
<g>
</g>
<g>
</g>
<g>
</g>
<g>
</g>
<g>
</g>
<g>
</g>
<g>
</g>
<g>
</g>
<g>
</g>
<g>
</g>
<g>
</g>
<g>
</g>
<g>
</g>
</svg>
