<?xml version="1.0" encoding="iso-8859-1"?>
<!-- Generator: Adobe Illustrator 19.0.0, SVG Export Plug-In . SVG Version: 6.00 Build 0)  -->
<svg xmlns="http://www.w3.org/2000/svg" xmlns:xlink="http://www.w3.org/1999/xlink" version="1.1" id="Layer_1" x="0px" y="0px" viewBox="0 0 511.999 511.999" style="enable-background:new 0 0 511.999 511.999;" xml:space="preserve">
<g>
	<g>
		<path d="M340.177,87.5c-2.566,0.034-4.981-0.061-7.412-0.138c-0.072-0.96-0.268-2.003-0.521-3.101    c-1.323-5.713-2.626-10.789-7.12-14.962c-4.454-4.135-10.937-6.215-16.663-7.848c-3.275-0.934-6.266-2.417-9.478-3.499    c-2.501-0.842-5.04-1.141-7.612-1.22c-1.743-0.305-3.501-0.571-5.271-0.82c-1.919-0.27-3.781-0.279-5.674-0.279    c1.751-2.327,3.156-5.049,4.97-7.152c1.554-1.803,0.554-4.68-1.965-4.744c-7.277-0.181-14.695-2.989-21.865-2.609    c0.296-4.371-0.735-9.026-0.899-13.413c-0.162-4.308-0.214-8.658-0.459-12.967c-0.203-3.546-0.502-7.405-1.253-10.878    c-0.559-2.591-1.736-4.017-4.599-3.858c-2.387,0.133-3.834,1.55-4.466,3.839c-1.267,4.58-0.823,10.888-0.725,15.602    c0.146,7.032-0.349,14.605,0.793,21.656c-7.023-0.238-14.274,2.451-21.391,2.627c-2.518,0.062-3.519,2.941-1.965,4.744    c1.814,2.104,3.22,4.827,4.97,7.152c-1.894,0-3.755,0.01-5.674,0.279c-1.77,0.249-3.528,0.516-5.271,0.82    c-2.572,0.081-5.111,0.378-7.612,1.22c-3.212,1.081-6.204,2.565-9.478,3.499c-5.725,1.633-12.208,3.713-16.663,7.848    c-4.494,4.173-5.798,9.25-7.12,14.962c-0.254,1.098-0.449,2.141-0.521,3.101c-2.431,0.076-4.846,0.172-7.412,0.138    c-5.434-0.071-21.193,7.771-12.544,14.411c1.544,1.185,3.436,1.105,5.266,1.429c2.875,0.509,5.562,1.141,8.473,1.357    c2.588,0.193,5.134,0.231,7.667,0.207c-0.759,2.642-1.05,5.865-0.158,8.224c-1.674,0.318-3.363,0.784-5.17,1.505    c-8.542,3.41-2.291,9.289,2.984,11.852c9.334,4.535,18.511,6.871,28.59,7.956c1.095,2.495,1.466,5.83,2.172,8.071    c0.929,2.95,1.605,6.017,2.622,8.935c1.963,5.628,3.294,11.37,5.149,17.031c3.772,11.504,7.607,22.87,10.311,34.669    c5.322,23.228,9.844,46.853,8.515,70.84c-1.429,25.779-10.071,50.644-15.78,75.845c-2.912,12.853-6.257,25.594-9.093,38.46    c-1.279,5.801-3.085,11.385-4.401,17.204c-1.373,6.08-3.322,11.998-5.224,17.931c-1.605,5.01-3.126,10.036-4.618,15.069    c-1.103,0.122-2.223,0.41-3.062,0.697c-1.1,0.376-1.853,0.827-2.605,1.405c-1.568,0.568-3.082,1.343-4.54,2.083    c-2.155,1.093-4.387,2.138-6.149,3.837c-2.189,2.112-3.864,5.401-5.449,8.017c-2.278,3.765,5.171,4.884,7.342,5.063    c-0.056,1.728,0.251,3.764-0.263,5.441c-0.268,0.879-0.776,1.564-0.773,2.425c-0.64-0.019-1.278-0.042-1.923,0.011    c-1.281,0.106-2.466,0.588-3.719,0.835c-0.843,0.166-1.651,1.188-1.569,2.062c0.317,3.394,2.257,6.321,4.785,8.534    c1.187,1.039,2.89,2.281,4.532,2.573c-0.438,1.07-0.882,2.139-1.333,3.209c-2.083,4.95-5.026,11.218-4.909,16.822    c-0.602,2.334-0.617,4.819,1.243,6.679c2.694,2.693,8.172,2.934,11.718,3.34c4.898,0.561,10.38,0.778,15.222-0.265    c3.34-0.72,6.704-1.859,7.837-5.407c1.289-4.036,0.879-9.028,0.977-13.207c0.054-2.31,0.68-4.503,1.109-6.746    c4.192,0.606,8.14,1.185,12.505,1.196c4.219,0.011,8.694,0.618,12.827-0.401c0.827-0.048,1.638-0.089,2.425-0.104    c6.519-0.129,13.071,0.144,19.594,0.154c3.334,0.004,6.707,0.115,10.073,0.139c3.891,0.749,8.042,0.222,11.973,0.212    c2.062-0.005,4.028-0.143,5.973-0.345c2.284-0.027,4.514-0.224,6.532-0.851c0.43,2.244,1.056,4.436,1.109,6.746    c0.098,4.179-0.312,9.171,0.977,13.207c1.133,3.548,4.497,4.689,7.837,5.407c4.843,1.043,10.325,0.826,15.222,0.265    c3.546-0.406,9.024-0.647,11.718-3.34c1.86-1.86,1.845-4.345,1.243-6.679c0.117-5.603-2.825-11.872-4.909-16.822    c-0.45-1.07-0.895-2.139-1.334-3.209c1.642-0.293,3.345-1.534,4.532-2.573c2.528-2.214,4.468-5.14,4.785-8.534    c0.082-0.875-0.726-1.896-1.569-2.062c-1.254-0.247-2.439-0.729-3.719-0.835c-0.646-0.053-1.283-0.03-1.923-0.011    c0.001-0.861-0.505-1.546-0.773-2.425c-0.484-1.58-0.003-3.703-0.309-5.482c2.084,0.044,9.762-1.103,7.388-5.023    c-1.584-2.616-3.259-5.905-5.448-8.017c-1.762-1.699-3.994-2.744-6.15-3.837c-1.741-0.883-3.561-1.818-5.456-2.386    c-0.906-0.529-1.941-0.954-2.952-1.063c-0.54-0.058-1.025,0.065-1.536,0.142c-1.575-5.328-3.182-10.647-4.881-15.947    c-1.901-5.933-3.85-11.851-5.224-17.931c-1.316-5.82-3.123-11.404-4.401-17.204c-2.836-12.866-6.183-25.607-9.093-38.46    c-5.708-25.201-14.351-50.066-15.779-75.845c-1.329-23.987,3.193-47.613,8.515-70.84c2.704-11.8,6.538-23.165,10.311-34.669    c1.855-5.66,3.186-11.403,5.149-17.031c1.017-2.917,1.693-5.985,2.622-8.935c0.706-2.242,1.076-5.576,2.172-8.071    c10.079-1.086,19.256-3.421,28.59-7.956c5.275-2.563,11.524-8.443,2.984-11.852c-1.807-0.722-3.498-1.187-5.17-1.505    c0.892-2.359,0.601-5.581-0.158-8.224c2.534,0.024,5.078-0.013,7.667-0.207c2.91-0.216,5.597-0.848,8.473-1.357    c1.83-0.324,3.724-0.245,5.266-1.429C361.37,95.269,345.611,87.428,340.177,87.5z M252.444,16.156    c0.037-1.687,0.126-3.375,0.194-5.059c0.057-1.432-0.568-3.645,0.353-4.903c3.499-4.778,3.68,3.794,3.676,5.13    c-0.011,3.353,0.078,6.751,0.102,10.115c0.048,6.745,0.435,13.51,0.954,20.229c-0.577,0.14-1.153,0.307-1.726,0.507    c-0.972-0.34-1.952-0.575-2.935-0.75c0.337-4.811-0.09-9.823-0.306-14.574C252.595,23.303,252.366,19.71,252.444,16.156z     M234.401,48.396c3.364-0.796,6.69-0.699,10.073-1.254c3.792-0.622,7.735-0.598,11.523-1.081c3.789,0.484,7.732,0.46,11.525,1.081    c3.382,0.555,6.71,0.458,10.073,1.254c0.28,0.067,0.55,0.126,0.825,0.189c-1.469,2.121-2.806,4.343-3.984,6.631    c-1.667-0.252-3.327-0.516-4.992-0.447c-1.008,0.042-2.051,0.106-3.094,0.219c-5.437-1.182-12.148,0.086-17.085-0.045    c-1.514-0.04-3.076-0.066-4.658-0.052c-0.694-0.054-1.383-0.094-2.055-0.122c-1.663-0.069-3.324,0.195-4.992,0.447    c-1.177-2.288-2.514-4.51-3.984-6.631C233.851,48.522,234.121,48.462,234.401,48.396z M186.807,82.278    c0.33-3.557,1.46-6.389,4.194-8.851c4.735-4.262,12.217-5.138,17.99-7.341c3.087-1.178,5.953-2.7,9.243-3.301    c4.171-0.763,8.396-0.53,12.601-0.836c4.06-0.295,8.477-0.528,12.63-1.371c2.644,0.125,5.274,0.221,7.865,0.153    c0.279-0.008,0.55-0.088,0.799-0.222c2.574,0.033,5.138,0,7.732-0.002c0.25,0.135,0.522,0.216,0.805,0.224    c1.258,0.033,2.526,0.027,3.8-0.002c1.536,0.123,3.083,0.199,4.527-0.073c4.019,0.771,8.256,1.01,12.169,1.295    c4.204,0.306,8.43,0.072,12.601,0.836c3.29,0.601,6.155,2.124,9.243,3.302c5.771,2.203,13.254,3.078,17.99,7.341    c2.736,2.462,3.865,5.295,4.195,8.851c0.09,0.974,0.362,2.237,0.564,3.472c-0.954-0.091-1.974-0.294-2.598-0.301    c-2.635-0.027-5.273,0.181-7.905,0.167c-2.748-0.014-5.32-0.787-8.057-0.782c-2.78,0.005-5.566,0.467-8.349,0.557    c-5.588,0.18-11.164-0.628-16.715-0.316c-3.471,0.195-6.99,0.537-10.498,0.927c-7.319,0.149-14.792-0.604-22.097-1.044    c-6.098-0.366-12.521-0.172-18.733,0.183c-0.31-0.019-0.624-0.05-0.932-0.068c-5.552-0.312-11.128,0.494-16.715,0.316    c-2.784-0.089-5.569-0.552-8.35-0.557c-2.738-0.005-5.309,0.768-8.057,0.782c-2.634,0.014-5.271-0.194-7.905-0.167    c-0.624,0.006-1.644,0.21-2.598,0.301C186.445,84.515,186.716,83.251,186.807,82.278z M182.043,454.957    c-0.28-0.009-0.559-0.028-0.836-0.063c0.376-0.953,1.203-2.041,1.5-2.447c1.538-2.106,3.25-3.356,5.631-4.346    c2.242-0.932,4.267-2.342,6.379-3.516c0.013,0.01,0.027,0.019,0.041,0.029c-0.904,3.113-1.792,6.231-2.675,9.353    c-0.756,0.071-1.529,0.237-2.305,0.307c-0.082,0.008-0.162,0.021-0.243,0.028c-1.219-0.196-2.46-0.16-3.816,0.063    C184.575,454.552,183.295,454.725,182.043,454.957z M185.62,461.63c-0.064-0.798-0.083-1.655-0.261-2.444    c0.519-0.108,1.036-0.237,1.548-0.381c1.311-0.059,2.584,0.082,3.876-0.205c-0.634,2.265-1.271,4.531-1.902,6.8    c-0.074,0.269-0.157,0.534-0.234,0.801c-0.462,0.028-0.911,0.059-1.324,0.075c-0.252,0.01-1.021-0.082-1.718-0.128    c0.058-0.187,0.103-0.345,0.12-0.416C186.025,464.477,185.722,462.903,185.62,461.63z M181.843,475.713    c-1.207-0.985-2.559-2.329-3.258-3.853c0.398-0.112,0.798-0.213,1.212-0.269c1.218-0.163,2.293-0.21,3.481-0.556    c0.606-0.176,1.245-0.337,1.863-0.542c0.708,0.087,1.434,0.109,2.144,0.097c-0.773,2.32-1.617,4.61-2.502,6.887    C183.811,476.876,182.692,476.404,181.843,475.713z M260.38,481.173c-6.143,0.009-12.384-0.192-18.513,0.242    c-3.658,0.26-7.707,0.095-11.401,0.909c-1.987-0.054-3.951-0.155-5.752-0.152c-2.995,0.004-6.239-0.826-9.238-0.448    c0.034-1.19,0.048-2.383,0.189-3.578c0.204-1.735,0.612-3.421,1.025-5.091c4.519,0.764,9.349,0.806,14.101,0.697    c2.474,0.378,5.017,0.353,7.754,0.413c5.881,0.127,11.977,0.152,17.851-0.149c5.974-0.306,11.888-0.431,17.862-0.464    c2.693,0.072,5.474,0.179,8.275,0.223c2.465,0.103,4.954,0.144,7.346-0.125c1.84-0.113,3.658-0.295,5.426-0.595    c0.414,1.671,0.822,3.355,1.025,5.091c0.12,1.022,0.146,2.042,0.173,3.061C284.456,481.117,272.444,481.156,260.38,481.173z     M217.888,464.918c0.381-1.496,0.538-3.711,1.3-5.043c1.1-1.922,5.235-1.226,7.033-0.888c0.757,0.142,1.632,0.255,2.555,0.344    c-0.084,0.419-0.229,0.848-0.29,1.232c-0.186,1.211-0.22,2.446-0.277,3.668c-0.063,1.309-0.152,2.621-0.079,3.92    c-2.995-0.017-5.991,0.061-8.893,0.386c-0.525-0.018-1.049-0.031-1.57-0.034C217.851,467.32,217.955,466.129,217.888,464.918z     M238.355,439.916c1.23-0.043,2.429-0.167,3.628-0.291c3.273-0.129,6.551-0.194,9.817-0.311    c6.506-0.233,13.085,0.316,19.584,0.833c5.501,0.437,11.41,2.163,16.931,1.725c0.69,2.541,1.363,5.086,1.941,7.664    c0.339,1.509,0.7,3.012,1.07,4.512c-4.512-1.89-10.835-1.056-15.536-0.692c-6.914,0.536-14.049-0.153-21.011-0.093    c-7.11,0.061-14.36-0.443-21.424,0.033c-2.528,0.17-5.542,0.123-8.438,0.388c-1.083-0.064-1.893,0.112-3.067,0.271    c-0.381,0.052-0.779,0.075-1.181,0.095c0.369-1.502,0.731-3.005,1.071-4.515c0.578-2.579,1.252-5.125,1.942-7.667    C228.304,442.164,234.217,440.062,238.355,439.916z M225.11,436.589c0.784-2.942,1.526-5.901,2.106-8.92    c1.46-7.613,3.433-15.055,5.001-22.622c2.147-10.354,5.012-20.599,7.72-30.868c-0.344,1.549-0.648,3.579-0.655,3.653    c-0.214,2.386-0.307,4.765-0.542,7.151c-0.567,5.752-0.442,11.52-0.8,17.291c-0.666,10.719-1.393,21.476-1.441,32.224    c-0.31,0.026-0.617,0.054-0.929,0.078c-1.816,0.134-3.784,0.414-5.752,0.836C228.196,435.677,226.572,436.042,225.11,436.589z     M257.283,351.399c2.244,2.504,4.966,7.006,8.364,8.975c-0.397-0.009-0.773-0.018-1.093-0.042    c-1.755-0.13-3.507,0.021-5.264-0.051c-1.141-0.046-2.197-0.195-3.293-0.058c-1.095-0.136-2.152,0.013-3.293,0.058    c-1.756,0.071-3.508-0.08-5.264,0.051c-0.495,0.037-1.115,0.042-1.774,0.057c2.424-2.284,4.912-5.61,5.855-6.683    c1.301-1.48,2.564-2.976,3.871-4.431C256.022,349.987,256.652,350.695,257.283,351.399z M250.027,335.774    c2.299-2.263,4.514-4.559,6.629-6.927c0.592,0.702,1.183,1.409,1.778,2.107c0.988,1.157,2.21,3.409,3.664,5.009    c-1.86,1.799-3.28,3.954-5.281,5.683c-0.418,0.361-0.812,0.743-1.215,1.119C253.649,340.511,251.753,338.207,250.027,335.774z     M261.195,349.119c-0.884-1.02-1.783-2.031-2.681-3.044c0.266-0.252,0.518-0.515,0.794-0.76c1.866-1.66,3.385-3.509,5.036-5.289    c1.073,5.775,2.284,11.507,3.527,17.125c-0.425-0.461-0.881-0.912-1.303-1.39C264.664,353.606,263.066,351.275,261.195,349.119z     M261.584,327.805c-0.664-0.801-1.31-1.612-1.965-2.419c0.701-0.839,1.396-1.691,2.079-2.551c0.239,2.014,0.505,4.034,0.8,6.057    C262.189,328.526,261.882,328.164,261.584,327.805z M256.93,322.067c-1.172-1.463-2.342-2.927-3.522-4.382    c1.921-2.278,3.907-4.505,5.797-6.814c0.405-0.494,0.843-1.004,1.286-1.523c0.162,2.006,0.324,4.017,0.475,6.04    c0.044,0.589,0.1,1.183,0.152,1.775C259.625,318.487,258.25,320.353,256.93,322.067z M259.538,296.703    c-1.633-2.173-3.209-4.388-4.967-6.439c1.313-1.648,2.933-3.186,4.424-4.743c0.1,1.184,0.209,2.37,0.335,3.557    c0.02,0.383,0.037,0.772,0.043,1.17c0.036,2.195,0.12,4.373,0.233,6.543C259.583,296.762,259.559,296.732,259.538,296.703z     M257.54,280.579c-1.404,1.686-3.061,3.261-4.625,4.887c0.06-1.08,0.08-2.178-0.024-3.355c-0.142-1.611-0.226-3.263-0.29-4.923    c0.156-3.83,0.697-8.01,2.738-9.867c3.131-2.849,2.878,4.764,2.964,6.391c0.108,2.057,0.209,4.114,0.319,6.169    C258.244,279.964,257.87,280.182,257.54,280.579z M255.658,299.043c1.103,1.338,2.214,3.015,3.611,4.18    c-2.838,2.894-5.475,6.319-8.039,9.561c0.471-5.979,0.983-11.884,1.241-17.873C253.526,296.291,254.547,297.697,255.658,299.043z     M253.939,325.625c-1.506,1.678-3.073,3.289-4.677,4.871c0.457-3.013,0.862-6.023,1.19-9.017    C251.617,322.854,252.777,324.241,253.939,325.625z M252.491,345.933c-1.051,1.161-2.071,2.354-3.073,3.57    c-1.538,1.869-3.25,3.607-4.813,5.459c1.084-4.957,2.127-9.998,3.065-15.065C249.203,341.958,250.822,343.967,252.491,345.933z     M250.747,364.882c3.447,0.139,7.063,0.139,10.502,0c2.786-0.112,5.594,0.177,8.31-0.466c0.429,1.755,0.871,3.507,1.322,5.26    c-0.961-0.34-1.908-0.684-2.554-0.741c-1.374-0.121-2.787-0.138-4.17-0.142c-5.43-0.014-10.863-0.014-16.321,0    c-1.382,0.003-2.795,0.02-4.17,0.142c-0.646,0.057-1.592,0.401-2.554,0.741c0.45-1.751,0.893-3.504,1.322-5.26    C245.152,365.059,247.961,364.77,250.747,364.882z M269.591,388.052c-0.212,4.842-0.403,9.683-0.644,14.515    c-1.881-2.179-3.686-4.425-5.668-6.51c-1.889-1.987-3.82-3.982-5.687-6.019c0.102-0.107,0.203-0.223,0.306-0.328    c3.38-3.465,7.058-6.653,10.347-10.205c0.567-0.612,1.196-1.251,1.72-1.939C269.435,380.99,269.738,384.688,269.591,388.052z     M245.751,382.655c2.051,2.691,4.096,5.402,6.28,7.989c-2.747,3.005-5.633,5.807-8.445,8.762    c-0.423,0.446-0.892,0.879-1.367,1.316c0.192-5.478,0.194-10.945,0.406-16.415c0.057-1.469,0.307-3.356,0.45-5.287    C243.894,380.277,244.868,381.495,245.751,382.655z M245.047,374.83c4.286,0.4,8.765,0.145,12.897,0.203    c3.237,0.045,6.361,0.191,9.565,0.434c-1.504,1.214-2.831,2.706-4.22,3.995c-2.769,2.571-5.498,5.153-8.122,7.85    c-2.789-3.253-5.317-6.742-8.074-10.009C246.503,376.607,245.819,375.664,245.047,374.83z M254.303,422.153    c-2.268,1.803-4.608,3.505-6.97,5.213c-1.735,1.256-4.123,2.72-5.905,4.454c0.074-8.13,0.284-16.256,0.562-24.376    C245.58,412.797,249.884,417.512,254.303,422.153z M248.42,431.179c3.004-1.992,5.943-3.782,8.79-5.985    c2.657,2.778,5.303,5.58,7.814,8.519c-3.913-0.238-7.834-0.335-11.67-0.138c-2.801,0.144-5.61,0.269-8.417,0.428    c-0.45-0.01-0.902,0-1.352,0.011C245.202,433.014,247.016,432.109,248.42,431.179z M261.282,421.926    c2.336-1.906,4.662-3.833,6.958-5.785c-0.213,4.232-0.394,8.463-0.493,12.714C265.713,426.437,263.527,424.154,261.282,421.926z     M258.149,418.867c-1.649-1.589-3.305-3.17-4.932-4.772c-2.831-2.786-5.189-6.029-8.166-8.693    c-0.256-0.229-0.516-0.452-0.779-0.662c3.698-3.307,6.945-7.449,10.228-11.271c1.919,2.154,3.862,4.288,5.763,6.456    c2.438,2.779,4.874,6.478,7.777,8.791c0.195,0.155,0.382,0.275,0.568,0.377c-0.016,0.302-0.032,0.604-0.048,0.906    C265.078,411.47,260.216,416.798,258.149,418.867z M273.116,434.295c-0.033-9.686,0.247-19.353,0.8-29.012    c0.271-4.749,0.367-9.497,0.441-14.264c0.037-2.359,0.184-4.933,0.181-7.512c1.898,7.158,3.744,14.323,5.241,21.541    c1.568,7.567,3.542,15.009,5.001,22.622c0.558,2.913,1.27,5.769,2.024,8.61c-2.273-0.916-5.159-1.24-7.763-1.429    c-0.894-0.122-1.771-0.213-2.614-0.275C275.313,434.493,274.211,434.391,273.116,434.295z M294.328,468.502    c-0.521,0.003-1.046,0.016-1.57,0.034c-0.846-0.095-1.7-0.168-2.559-0.225c-1.15-0.18-2.318-0.291-3.493-0.36    c0.408-1.446,0.247-3.153,0.249-4.581c0.001-1.477-0.068-2.926-0.252-4.382c-0.011-0.086,5.001-0.695,5.697-0.054    c1.158,1.066,1.339,4.532,1.709,5.983C294.04,466.129,294.145,467.32,294.328,468.502z M282.707,467.85    c-1.984,0.001-3.959,0.049-5.875,0.043c-0.886-0.003-1.771-0.001-2.655-0.001c-0.264-2.868-0.397-5.735-0.568-8.6    c0.401-0.021,0.802-0.038,1.202-0.066c0.053-0.003,0.103-0.008,0.156-0.011c2.843,0.405,6.117,0.36,8.782,0.061    C283.094,461.977,281.956,465.285,282.707,467.85z M269.744,467.912c-3.188,0.028-6.372,0.088-9.559,0.215    c0.016-0.205,0.013-0.415-0.033-0.631c-0.451-2.069-0.497-4.103-0.738-6.199c-0.084-0.734-0.153-1.503-0.308-2.233    c3.756,0.154,7.54,0.352,11.275,0.322c-0.245,1.374-0.625,2.722-0.727,4.142C269.543,465.04,269.523,466.462,269.744,467.912z     M255.661,468.322c-2.979,0.142-5.967,0.257-8.958,0.353c-0.22-1.035-0.476-2.216-0.51-3.544c-0.028-1.146-0.075-2.29-0.184-3.433    c-0.043-0.455-0.659-2.625-0.515-3.028c2.504,0.117,5.009,0.215,7.514,0.227c0.935,0.004,1.875,0.023,2.818,0.048    C255.644,462.095,254.726,465.193,255.661,468.322z M242.803,458.555c-0.749,1.956-0.535,4.54-0.682,6.426    c-0.071,0.923,0.166,2.76-0.547,3.351c-0.012,0.01-0.024,0.019-0.037,0.029c-0.817,0.602-2.755,0.047-3.684,0.025    c-1.829-0.045-3.657-0.113-5.486-0.164c-0.038-1.909-0.32-3.901-0.446-5.716c-0.067-0.961-0.064-2.04-0.288-3.012    c2.815,0.06,5.801-0.166,8.075-0.852C240.739,458.616,241.771,458.582,242.803,458.555z M332.197,471.589    c0.414,0.056,0.814,0.157,1.212,0.269c-0.699,1.524-2.051,2.868-3.258,3.853c-0.848,0.692-1.968,1.163-2.94,1.764    c-0.885-2.277-1.729-4.567-2.502-6.887c0.71,0.012,1.436-0.01,2.143-0.097c0.617,0.205,1.257,0.366,1.862,0.542    C329.904,471.379,330.979,471.427,332.197,471.589z M326.271,465.733c0.017,0.071,0.061,0.228,0.12,0.416    c-0.697,0.046-1.465,0.138-1.718,0.128c-0.413-0.016-0.862-0.047-1.324-0.075c-0.076-0.268-0.159-0.533-0.234-0.801    c-0.631-2.27-1.268-4.534-1.902-6.8c1.292,0.288,2.565,0.146,3.876,0.205c0.512,0.144,1.028,0.274,1.548,0.381    c-0.179,0.79-0.197,1.646-0.261,2.444C326.272,462.903,325.97,464.477,326.271,465.733z M317.278,444.586    c2.112,1.174,4.138,2.585,6.379,3.516c2.382,0.99,4.093,2.24,5.631,4.346c0.296,0.406,1.125,1.493,1.499,2.447    c-0.278,0.034-0.557,0.054-0.836,0.063c-1.252-0.232-2.531-0.405-3.676-0.594c-2.198-0.361-4.092-0.236-6.085,0.582    c-0.974-3.449-1.956-6.893-2.955-10.332C317.25,444.604,317.265,444.596,317.278,444.586z M298.14,143.199    c-2.256,6.588-4.962,12.899-6.943,19.594c-1.907,6.445-4.558,12.68-6.974,18.95c-2.708,7.032-4.536,14.229-6.572,21.467    c-3.21,11.414-5.726,23.592-6.216,35.421c-0.5,12.112-1.594,25.032-0.491,37.149c1.091,11.979,2.238,23.423,5.502,35.056    c3.74,13.327,6.333,27.21,9.298,40.745c2.962,13.517,6.212,26.965,9.267,40.458c0.767,3.383,2.014,6.475,2.669,9.879    c0.587,3.049,1.194,6.118,1.954,9.129c1.605,6.35,3.658,12.631,5.864,18.793c4.476,12.5,7.485,25.563,11.091,38.332    c3.348,11.851,9.843,23.127,12.042,35.253c0.01,0.055,0.03,0.099,0.042,0.152c-0.365,0.15-0.878,0.27-1.62,0.442    c-3.597,0.827-7.365,0.808-11.027,0.765c-2.956-0.036-8.629,0.899-10.097-2.218c-1.352-2.868-0.408-7.659-0.514-10.682    c-0.083-2.384-0.717-4.651-1.213-6.95c-0.21-3.619-0.769-7.232-1.49-10.689c-2.015-9.667-4.4-19.323-7.165-28.795    c-4.237-14.516-6.663-29.498-10.783-44.019c-4.416-15.563-9.2-31.492-11.953-47.443c-2.542-14.727-5.398-29.369-7.351-44.093    c-0.538-4.057-0.758-8.061-1.265-12.119c-0.289-2.312-0.279-4.746-0.453-7.107c-0.189-4.831-0.487-9.66-0.783-14.48    c-0.254-4.133,0.349-15.828-6.902-14.25c-5.149,1.12-6.844,9.008-6.901,13.319c-0.046,3.518-0.034,7.048-0.186,10.57    c-0.134,0.667-0.266,1.332-0.385,1.99c-0.577,3.195-0.385,6.7-0.792,9.959c-0.506,4.058-0.727,8.063-1.265,12.119    c-1.954,14.725-4.808,29.367-7.351,44.093c-2.753,15.952-7.537,31.881-11.953,47.443c-4.12,14.522-6.547,29.503-10.783,44.019    c-2.764,9.473-5.15,19.127-7.165,28.795c-0.721,3.456-1.281,7.069-1.49,10.689c-0.496,2.299-1.13,4.566-1.213,6.95    c-0.106,3.024,0.838,7.814-0.514,10.682c-1.468,3.117-7.142,2.183-10.097,2.218c-3.662,0.043-7.429,0.062-11.027-0.765    c-0.741-0.17-1.255-0.291-1.62-0.442c0.012-0.053,0.032-0.096,0.042-0.152c2.198-12.128,8.694-23.402,12.042-35.253    c3.606-12.769,6.616-25.831,11.091-38.332c2.206-6.161,4.259-12.442,5.864-18.793c0.76-3.011,1.368-6.08,1.954-9.129    c0.655-3.404,1.903-6.495,2.669-9.879c3.055-13.494,6.306-26.941,9.268-40.458c2.965-13.534,5.559-27.418,9.298-40.745    c3.265-11.633,4.411-23.077,5.502-35.056c1.103-12.117,0.009-25.037-0.491-37.149c-0.489-11.828-3.006-24.007-6.216-35.421    c-2.036-7.237-3.863-14.436-6.572-21.467c-2.415-6.27-5.067-12.505-6.974-18.95c-1.981-6.695-4.688-13.007-6.943-19.594    c-0.888-2.594-1.495-5.77-2.767-8.385c2.065,0.138,4.347,0.16,6.391,0.362c0.71,2.228,1.454,5.908,1.61,6.422    c1.065,3.501,2.43,6.805,3.352,10.355c1.834,7.062,4.512,14.281,6.919,21.183c2.234,6.407,4.28,12.674,6.036,19.157    c0.939,3.468,2.069,6.813,2.895,10.362c0.498,2.134,0.591,5.144,1.929,6.943c0.857,1.154,3.071,1.292,3.411-0.446    c1.133-5.789-0.224-11.869-1.531-17.497c-1.732-7.458-3.115-14.953-5.348-22.286c-2.07-6.798-3.657-13.595-6.201-20.195    c-1.543-4.003-1.609-9.04-3.049-13.232c0.311-0.006,0.614-0.012,0.928-0.019c0.944,0.096,1.908,0.134,2.874,0.145    c1.953,5.775,3.771,11.616,5.819,17.371c2.74,7.702,4.206,15.852,6.647,23.688c2.551,8.19,3.876,16.889,5.123,25.323    c0.549,3.712,1.8,7.324,2.592,10.984c1.135,5.25,0.878,10.656,2.072,15.905c0.044,0.192,0.134,0.346,0.24,0.483    c0.087,0.717,0.159,1.434,0.196,2.151c0.122,2.371,3.203,2.681,4.01,0.543c0.376-0.995,0.432-2.02,0.385-3.051    c0.015-0.043,0.04-0.079,0.051-0.126c1.195-5.25,0.937-10.655,2.072-15.905c0.792-3.66,2.042-7.272,2.592-10.984    c1.248-8.434,2.572-17.133,5.123-25.323c2.441-7.835,3.908-15.986,6.647-23.688c2.048-5.756,3.867-11.598,5.819-17.371    c0.966-0.011,1.93-0.05,2.874-0.145c0.315,0.008,0.617,0.013,0.929,0.019c-1.441,4.192-1.507,9.229-3.051,13.232    c-2.545,6.6-4.131,13.397-6.201,20.195c-2.234,7.333-3.616,14.828-5.348,22.286c-1.308,5.628-2.664,11.709-1.531,17.497    c0.34,1.739,2.554,1.6,3.411,0.446c1.337-1.799,1.432-4.808,1.929-6.943c0.827-3.549,1.956-6.894,2.895-10.362    c1.757-6.484,3.801-12.75,6.035-19.157c2.407-6.901,5.084-14.122,6.919-21.183c0.922-3.549,2.288-6.854,3.352-10.355    c0.156-0.514,0.901-4.193,1.61-6.422c2.043-0.201,4.326-0.224,6.391-0.362C299.635,137.428,299.027,140.605,298.14,143.199z     M220.576,135.731c0.832,0.187,1.683,0.344,2.677,0.311c0.141-0.004,0.294-0.006,0.437-0.011c0.741,1.834,0.918,4.189,1.483,5.977    c0.863,2.732,1.09,5.63,2.108,8.299c2.281,5.98,4,11.979,5.872,18.147c1.363,4.491,2.562,9.023,3.557,13.606    c-1.785-5.403-3.958-10.726-5.616-16.134c-2.243-7.314-4.91-14.718-7.747-21.784C222.659,142.429,221.905,138.637,220.576,135.731    z M244.375,155.337c-0.012,1.751-0.075,3.542-0.138,5.348c-0.73-2.562-1.517-5.095-2.444-7.552    c-1.529-4.052-2.783-8.204-4.386-12.23c-0.539-1.354-1.018-2.942-1.711-4.228c-0.129-0.239-0.267-0.457-0.408-0.667    c1.177-0.031,2.324-0.058,3.409-0.03c1.884,0.046,4.007,0.277,6.151,0.382c-0.637,2.239-0.477,4.866-0.631,7.082    C243.937,147.419,244.401,151.359,244.375,155.337z M256.509,191.095c-1.238-1.257-2.197-2.661-3.424-3.803    c1.767-1.721,3.519-3.499,5.233-5.341c0.937,0.822,1.844,1.69,2.704,2.63c0.057,0.063,0.118,0.104,0.178,0.158    c-0.714,2.895-1.337,5.84-1.845,8.764C258.459,192.649,257.383,191.984,256.509,191.095z M258.548,199.147    c-0.059,0.521-0.136,1.051-0.184,1.568c-0.346,3.71-1.502,7.265-2.367,10.876c-0.864-3.611-2.021-7.166-2.365-10.876    c-0.25-2.688-0.658-5.457-1.169-8.239c0.114,0.161,0.222,0.32,0.347,0.482c0.934,1.217,2.046,2.068,3.127,3.117    c0.866,0.84,1.244,2.028,2.177,2.802C258.25,198.989,258.397,199.074,258.548,199.147z M258.054,176.025    c-0.26-0.197-0.515-0.396-0.774-0.594c-1.7-1.293-3.387-2.619-5.172-3.792c-0.367-0.241-1.827-0.853-2.849-1.398    c1.248-1.367,2.977-2.266,4.284-3.578c0.722-0.725,1.372-1.513,2.015-2.309c2.373,2.188,4.609,4.499,6.569,7.01    C260.801,172.915,259.443,174.475,258.054,176.025z M252.162,161.334c-0.55,0.759-1.102,1.514-1.75,2.2    c-0.443,0.466-0.92,0.872-1.406,1.261c0.008-2.06-0.008-4.105-0.015-6.134C250.048,159.543,251.108,160.431,252.162,161.334z     M248.951,154.019c-0.003-0.153-0.003-0.307-0.006-0.46c1.659-2.302,4.618-4.835,6.689-6.718c2.181,1.756,4.412,3.445,6.472,5.159    c-0.981,0.735-2.441,1.561-2.837,1.914c-1.641,1.46-3.234,3.085-4.797,4.613C252.63,157.029,250.776,155.542,248.951,154.019z     M263.594,176.036c-0.065,0.216-0.12,0.438-0.184,0.654c-0.292,0.965-0.581,1.946-0.861,2.94    c-0.392-0.348-0.808-0.669-1.212-1.003C262.101,177.766,262.852,176.902,263.594,176.036z M257.986,161.458    c0.209-0.229,0.407-0.469,0.628-0.688c1.322-1.323,4.021-2.945,6.118-4.717c-0.005,0.154-0.005,0.311-0.012,0.464    c-0.102,2.558-0.396,5.085-0.431,7.646c-0.014,1.039-0.156,2.13-0.211,3.197C262.186,165.244,260.129,163.306,257.986,161.458z     M258.982,143.692c2.12-2.002,4.286-4.015,6.446-5.929c-0.557,3.407-0.638,6.945-0.641,10.468    C262.876,146.68,260.943,145.172,258.982,143.692z M255.937,141.419c-2.127-1.576-4.367-3.877-6.873-5.123    c0.629-0.056,1.253-0.13,1.853-0.258c0.27,0.024,0.541,0.046,0.812,0.075c3.178,0.329,6.63,0.567,10.103,0.557    C259.738,137.993,257.698,139.782,255.937,141.419z M252.74,144.414c-1.241,1.141-2.639,2.416-3.94,3.768    c-0.042-1.719-0.066-3.44-0.001-5.178c0.03-0.794,0.041-1.604,0.032-2.417C250.021,141.932,251.351,143.194,252.74,144.414z     M255.028,179.325c-1.463,1.562-2.946,3.095-4.444,4.573c-0.623-2.462-1.294-4.885-1.998-7.209    c-0.052-0.169-0.098-0.341-0.149-0.512c0.048-0.406,0.083-0.818,0.124-1.226C250.744,176.387,252.931,177.79,255.028,179.325z     M268.463,136.298c0.153-0.018,0.308-0.029,0.461-0.05c1.526-0.109,3.015-0.237,4.376-0.27c1.084-0.027,2.231-0.001,3.409,0.03    c-0.142,0.21-0.28,0.428-0.408,0.667c-0.693,1.286-1.172,2.874-1.711,4.228c-1.603,4.026-2.858,8.178-4.386,12.23    c-0.588,1.556-1.112,3.147-1.609,4.751C269.143,151.059,269.889,143.146,268.463,136.298z M284.714,150.307    c1.018-2.668,1.245-5.568,2.108-8.299c0.565-1.788,0.742-4.142,1.483-5.977c0.143,0.004,0.295,0.006,0.437,0.011    c0.994,0.032,1.844-0.124,2.677-0.311c-1.329,2.906-2.083,6.699-2.77,8.41c-2.837,7.067-5.504,14.471-7.747,21.784    c-1.659,5.407-3.831,10.731-5.616,16.134c0.994-4.583,2.194-9.116,3.557-13.606C280.714,162.286,282.433,156.287,284.714,150.307z     M333.448,119.559c-3.858,1.439-7.438,3.686-11.433,4.745c-8.755,2.319-17.791,3.88-26.863,4.43    c-3.505,0.213-6.663,1.058-10.23,1.142c-3.405,0.081-7.115-0.026-10.62,0.431c-3.186-0.699-6.754-0.392-9.925-0.25    c-4.48,0.2-8.939,0.482-13.426,0.287c-4.341-0.189-8.546-0.31-12.743,0.04c-3.655-0.541-7.562-0.423-11.132-0.507    c-3.566-0.084-6.725-0.93-10.23-1.142c-9.072-0.55-18.109-2.111-26.863-4.43c-3.996-1.059-7.576-3.306-11.433-4.745    c1.306-0.15,2.946-1.288,4.132-1.602c2.191-0.58,4.479-0.729,6.721-1.008c2.2,0.277,4.327,0.33,6.688,0.141    c10.079-0.8,20.299-1.199,30.402-2.345c1.985,0.067,4.015-0.1,5.959-0.125c6.495-0.082,13.11-0.177,19.581-0.036    c6.589,0.144,13.276-0.55,19.822-0.187c3.872,0.214,7.615,0.362,11.359,0.068c10.847,1.364,21.854,1.763,32.698,2.625    c2.361,0.187,4.489,0.135,6.687-0.141c2.243,0.279,4.531,0.429,6.721,1.008C330.502,118.271,332.142,119.409,333.448,119.559z     M197.414,110.797c-2.903,0.234-5.803,0.358-8.665-0.114c0.447,0.073-2.906-0.263-3-0.339c-0.36-0.295,0.112-1.623,0.112-2.919    c0-0.913-0.13-1.781-0.348-2.623c3.296-0.1,6.601-0.225,9.982-0.197c0.516,0.004,1.035,0.013,1.552,0.019    c-0.059,0.67-0.052,1.359-0.081,1.99C196.9,108.081,197.098,109.429,197.414,110.797z M200.758,104.687    c4.01,0.085,8.064,0.207,12.127,0.278c0.052,0.48,0.136,0.963,0.291,1.458c0.357,1.133,0.195,2.347,0.137,3.544    c-2.803,0.101-5.601,0.214-8.386,0.283c-1.098,0.027-2.2,0.102-3.302,0.19c-0.292-1.49-0.704-2.892-0.794-4.459    C200.808,105.557,200.794,105.119,200.758,104.687z M230.151,109.96c-4.152-0.254-8.331-0.242-12.509-0.13    c0.068-1.273,0.027-2.6-0.301-3.785c-0.104-0.376-0.305-0.698-0.484-1.03c4.312,0.029,8.622-0.04,12.888-0.303    c-0.057,0.72-0.091,1.439-0.067,2.148C229.712,107.911,229.953,108.933,230.151,109.96z M245.575,106.356    c0.135,0.968,0.208,2.159,0.591,3.152c-3.806,0.075-7.603,0.225-11.386,0.492c-0.187-1.032-0.427-2.053-0.537-3.102    c-0.089-0.848-0.141-1.69-0.204-2.53c1.861-0.181,3.708-0.42,5.544-0.699c1.964-0.011,3.928-0.031,5.892-0.069    C245.366,104.505,245.448,105.447,245.575,106.356z M249.655,105.758c-0.242-0.807-0.563-1.54-0.922-2.256    c0.489-0.017,0.978-0.022,1.467-0.044c3.615-0.165,7.338-0.057,11.101,0.115c-0.102,0.42-0.185,0.825-0.257,1.167    c-0.329,1.539-0.778,2.976-0.765,4.504c-2.454,0.112-4.901,0.216-7.319,0.206c-0.899-0.004-1.797,0.004-2.695,0.009    C250.401,108.248,249.977,106.836,249.655,105.758z M264.467,105.84c-0.08-0.629-0.263-1.384-0.39-2.134    c4.001,0.206,8.032,0.434,12.025,0.451c0.617,0.07,1.233,0.149,1.853,0.209c-0.063,0.841-0.115,1.684-0.204,2.53    c-0.094,0.894-0.283,1.768-0.453,2.644c-1.559-0.165-3.149-0.302-4.804-0.415c-2.622-0.181-5.288-0.152-7.963-0.06    C264.609,107.998,264.597,106.855,264.467,105.84z M282.251,104.711c4.267,0.264,8.575,0.332,12.888,0.303    c-0.179,0.332-0.379,0.654-0.484,1.03c-0.329,1.185-0.368,2.512-0.301,3.785c-4.178-0.112-8.357-0.124-12.509,0.13    c0.198-1.026,0.437-2.049,0.473-3.101C282.341,106.15,282.308,105.43,282.251,104.711z M298.818,106.423    c0.156-0.497,0.24-0.978,0.292-1.458c4.063-0.071,8.117-0.193,12.127-0.278c-0.034,0.432-0.05,0.869-0.073,1.294    c-0.089,1.566-0.502,2.97-0.794,4.459c-1.102-0.087-2.204-0.164-3.301-0.19c-2.786-0.068-5.583-0.181-8.386-0.283    C298.622,108.771,298.462,107.556,298.818,106.423z M315.027,106.613c-0.029-0.63-0.022-1.32-0.081-1.99    c0.517-0.006,1.036-0.015,1.552-0.019c3.38-0.029,6.686,0.097,9.982,0.197c-0.218,0.842-0.348,1.711-0.348,2.623    c0,1.295,0.472,2.624,0.112,2.919c-0.093,0.076-3.446,0.413-3,0.339c-2.862,0.473-5.762,0.349-8.665,0.114    C314.897,109.429,315.095,108.081,315.027,106.613z M344.886,97.241c-0.698,1.894-4.27,1.866-5.905,2.001    c-17.725,1.465-35.968-1.006-53.889-0.223c-4.4-0.33-8.895-0.138-13.21-0.142c-6.604-0.006-13.175-0.469-19.776-0.284    c-6.084,0.171-12.177,0.267-18.234,0.714c-0.324,0.024-0.646,0.061-0.969,0.094c-15.981-1.438-31.998,0.378-47.997,0.312    c-3.959-0.016-7.941-0.099-11.884-0.47c-1.806-0.17-6.016,0.712-7.367-0.474c-4.526-3.974,5.788-4.847,7.614-4.834    c3.541,0.025,7.138-0.11,10.579-0.222c3.643-0.12,8.013-0.075,11.749-0.878c2.01-0.145,3.971-0.366,5.767-0.678    c7.709-1.335,15.632-0.842,23.441-1.762c0.849-0.1,1.695-0.17,2.542-0.224c2.152-0.055,4.311-0.095,6.478-0.123    c3.184,0.04,6.367,0.148,9.561,0.019c2.178,0.047,4.348,0.125,6.502,0.249c7.115,0.408,14.366,0.906,21.49,0.841    c6.161-0.056,13.191,0.765,19.319-0.441c6.665,0.486,13.377,0.305,19.935,1.44c5.197,0.899,11.73,1.09,17.029,0.684    c0.752-0.057,1.397-0.173,1.959-0.335c1.241,0.151,2.472,0.38,3.709,0.762c2.971,0.916,7.815-0.473,10.339,0.949    C344.697,94.796,345.296,96.13,344.886,97.241z"/>
	</g>
</g>
<g>
</g>
<g>
</g>
<g>
</g>
<g>
</g>
<g>
</g>
<g>
</g>
<g>
</g>
<g>
</g>
<g>
</g>
<g>
</g>
<g>
</g>
<g>
</g>
<g>
</g>
<g>
</g>
<g>
</g>
</svg>
