<?xml version="1.0" encoding="iso-8859-1"?>
<!-- Generator: Adobe Illustrator 19.0.0, SVG Export Plug-In . SVG Version: 6.00 Build 0)  -->
<svg xmlns="http://www.w3.org/2000/svg" xmlns:xlink="http://www.w3.org/1999/xlink" version="1.1" id="Layer_1" x="0px" y="0px" viewBox="0 0 512.001 512.001" style="enable-background:new 0 0 512.001 512.001;" xml:space="preserve">
<g>
	<g>
		<path d="M33.655,380.822c-0.027-2.27-0.092-5.346-1.635-7.22c-2.528-3.072-8.495-2.048-10.55,0.979    c-2.575,3.794-2.408,9.397-1.435,14.132c-0.106,1.523-0.09,3.048,0.138,4.552c0.14,0.93,1.115,1.356,1.914,1.457    c2.012,0.254,3.976,0.102,5.997,0.058c1.006-0.022,2.605,0.393,3.582,0.122c1.926-0.534,2.102-2.213,2.084-3.972    C33.714,387.564,33.694,384.19,33.655,380.822z M30.118,391.017c-2.088-0.175-4.173-0.04-6.273-0.13    c-0.22-2.335-0.161-4.641-0.549-6.985c-0.114-4.293,0.219-8.479,3.729-8.561c4.018-0.095,3.024,5.512,2.993,8.148    c-0.02,1.734-0.04,3.471-0.032,5.205C29.987,388.745,30.092,390.133,30.118,391.017z"/>
	</g>
</g>
<g>
	<g>
		<path d="M54.511,380.822c-0.026-2.27-0.091-5.346-1.634-7.22c-2.528-3.072-8.495-2.048-10.55,0.979    c-2.577,3.794-2.408,9.397-1.435,14.132c-0.106,1.523-0.09,3.048,0.138,4.552c0.141,0.93,1.113,1.356,1.914,1.457    c2.012,0.254,3.976,0.102,5.996,0.058c1.006-0.022,2.605,0.393,3.582,0.122c1.926-0.534,2.102-2.213,2.084-3.972    C54.571,387.564,54.551,384.19,54.511,380.822z M50.976,391.017c-2.088-0.175-4.173-0.04-6.273-0.13    c-0.22-2.335-0.161-4.641-0.549-6.985c-0.115-4.293,0.219-8.479,3.729-8.561c4.018-0.095,3.024,5.512,2.994,8.148    c-0.021,1.734-0.04,3.471-0.033,5.205C50.845,388.745,50.95,390.133,50.976,391.017z"/>
	</g>
</g>
<g>
	<g>
		<path d="M82.557,380.822c-0.027-2.27-0.093-5.346-1.635-7.22c-2.528-3.072-8.495-2.048-10.55,0.979    c-2.575,3.794-2.408,9.397-1.435,14.132c-0.106,1.523-0.09,3.048,0.138,4.552c0.141,0.93,1.115,1.356,1.914,1.457    c2.012,0.254,3.976,0.102,5.997,0.058c1.006-0.022,2.605,0.393,3.582,0.122c1.926-0.534,2.102-2.213,2.083-3.972    C82.616,387.564,82.597,384.19,82.557,380.822z M79.02,391.017c-2.088-0.175-4.173-0.04-6.273-0.13    c-0.22-2.335-0.161-4.641-0.548-6.985c-0.115-4.293,0.219-8.479,3.729-8.561c4.018-0.095,3.024,5.512,2.993,8.148    c-0.021,1.734-0.04,3.471-0.033,5.205C78.889,388.745,78.994,390.133,79.02,391.017z"/>
	</g>
</g>
<g>
	<g>
		<path d="M103.415,380.822c-0.027-2.27-0.093-5.346-1.635-7.22c-2.528-3.072-8.495-2.048-10.55,0.979    c-2.575,3.794-2.408,9.397-1.435,14.132c-0.106,1.523-0.09,3.048,0.138,4.552c0.14,0.93,1.113,1.356,1.914,1.457    c2.012,0.254,3.976,0.102,5.997,0.058c1.006-0.022,2.605,0.393,3.582,0.122c1.926-0.534,2.102-2.213,2.083-3.972    C103.474,387.564,103.455,384.19,103.415,380.822z M99.877,391.017c-2.088-0.175-4.173-0.04-6.273-0.13    c-0.22-2.335-0.161-4.641-0.549-6.985c-0.114-4.293,0.22-8.479,3.729-8.561c4.018-0.095,3.024,5.512,2.993,8.148    c-0.021,1.734-0.04,3.471-0.033,5.205C99.746,388.745,99.852,390.133,99.877,391.017z"/>
	</g>
</g>
<g>
	<g>
		<path d="M156.877,376.834c-0.027-2.271-0.092-5.348-1.635-7.222c-2.526-3.072-8.493-2.048-10.55,0.979    c-2.575,3.794-2.408,9.397-1.435,14.131c-0.106,1.523-0.09,3.048,0.138,4.552c0.14,0.93,1.115,1.356,1.914,1.457    c2.012,0.254,3.976,0.102,5.997,0.058c1.006-0.022,2.605,0.393,3.582,0.123c1.926-0.534,2.102-2.213,2.084-3.972    C156.936,383.575,156.917,380.202,156.877,376.834z M153.341,387.027c-2.088-0.175-4.173-0.04-6.273-0.13    c-0.22-2.335-0.161-4.641-0.549-6.985c-0.114-4.293,0.22-8.479,3.729-8.562c4.018-0.095,3.024,5.512,2.993,8.148    c-0.021,1.734-0.04,3.471-0.033,5.205C153.21,384.755,153.316,386.144,153.341,387.027z"/>
	</g>
</g>
<g>
	<g>
		<path d="M156.877,413.004c-0.027-2.272-0.092-5.349-1.635-7.222c-2.528-3.072-8.495-2.048-10.55,0.979    c-2.575,3.794-2.408,9.397-1.435,14.131c-0.106,1.523-0.09,3.048,0.138,4.552c0.14,0.93,1.115,1.356,1.914,1.457    c2.012,0.254,3.976,0.102,5.997,0.058c1.006-0.022,2.605,0.393,3.582,0.123c1.926-0.534,2.102-2.213,2.084-3.972    C156.936,419.745,156.917,416.372,156.877,413.004z M153.341,423.196c-2.088-0.175-4.173-0.04-6.273-0.13    c-0.22-2.336-0.161-4.641-0.549-6.985c-0.114-4.293,0.22-8.479,3.729-8.562c4.018-0.094,3.024,5.512,2.993,8.148    c-0.021,1.734-0.04,3.471-0.033,5.205C153.21,420.925,153.316,422.313,153.341,423.196z"/>
	</g>
</g>
<g>
	<g>
		<path d="M33.655,413.004c-0.027-2.272-0.092-5.349-1.635-7.222c-2.528-3.072-8.495-2.048-10.55,0.979    c-2.575,3.794-2.408,9.397-1.435,14.131c-0.106,1.523-0.09,3.048,0.138,4.552c0.14,0.93,1.115,1.356,1.914,1.457    c2.012,0.254,3.976,0.102,5.997,0.058c1.006-0.022,2.605,0.393,3.582,0.123c1.926-0.534,2.102-2.213,2.084-3.972    C33.714,419.745,33.694,416.372,33.655,413.004z M30.118,423.196c-2.088-0.175-4.173-0.04-6.273-0.13    c-0.22-2.336-0.161-4.641-0.549-6.985c-0.114-4.293,0.219-8.479,3.729-8.562c4.018-0.094,3.024,5.512,2.993,8.148    c-0.02,1.734-0.04,3.471-0.032,5.205C29.987,420.925,30.092,422.313,30.118,423.196z"/>
	</g>
</g>
<g>
	<g>
		<path d="M54.511,413.004c-0.026-2.272-0.091-5.349-1.634-7.222c-2.528-3.072-8.495-2.048-10.55,0.979    c-2.577,3.794-2.408,9.397-1.435,14.131c-0.106,1.523-0.09,3.048,0.138,4.552c0.141,0.93,1.113,1.356,1.914,1.457    c2.012,0.254,3.976,0.102,5.996,0.058c1.006-0.022,2.605,0.393,3.582,0.123c1.926-0.534,2.102-2.213,2.084-3.972    C54.571,419.745,54.551,416.372,54.511,413.004z M50.976,423.196c-2.088-0.175-4.173-0.04-6.273-0.13    c-0.22-2.336-0.161-4.641-0.549-6.985c-0.115-4.293,0.219-8.479,3.729-8.562c4.018-0.094,3.024,5.512,2.994,8.148    c-0.021,1.734-0.04,3.471-0.033,5.205C50.845,420.925,50.95,422.313,50.976,423.196z"/>
	</g>
</g>
<g>
	<g>
		<path d="M82.557,413.004c-0.027-2.272-0.093-5.349-1.635-7.222c-2.528-3.072-8.495-2.048-10.55,0.979    c-2.575,3.794-2.408,9.397-1.435,14.131c-0.106,1.523-0.09,3.048,0.138,4.552c0.141,0.93,1.115,1.356,1.914,1.457    c2.012,0.254,3.976,0.102,5.997,0.058c1.006-0.022,2.605,0.393,3.582,0.123c1.926-0.534,2.102-2.213,2.083-3.972    C82.616,419.745,82.597,416.372,82.557,413.004z M79.02,423.196c-2.088-0.175-4.173-0.04-6.273-0.13    c-0.22-2.336-0.161-4.641-0.548-6.985c-0.115-4.293,0.219-8.479,3.729-8.562c4.018-0.094,3.024,5.512,2.993,8.148    c-0.021,1.734-0.04,3.471-0.033,5.205C78.889,420.925,78.994,422.313,79.02,423.196z"/>
	</g>
</g>
<g>
	<g>
		<path d="M103.415,413.004c-0.027-2.272-0.093-5.349-1.635-7.222c-2.528-3.072-8.495-2.048-10.55,0.979    c-2.575,3.794-2.408,9.397-1.435,14.131c-0.106,1.523-0.09,3.048,0.138,4.552c0.14,0.93,1.113,1.356,1.914,1.457    c2.012,0.254,3.976,0.102,5.997,0.058c1.006-0.022,2.605,0.393,3.582,0.123c1.926-0.534,2.102-2.213,2.083-3.972    C103.474,419.745,103.455,416.372,103.415,413.004z M99.877,423.196c-2.088-0.175-4.173-0.04-6.273-0.13    c-0.22-2.336-0.161-4.641-0.549-6.985c-0.114-4.293,0.22-8.479,3.729-8.562c4.018-0.094,3.024,5.512,2.993,8.148    c-0.021,1.734-0.04,3.471-0.033,5.205C99.746,420.925,99.852,422.313,99.877,423.196z"/>
	</g>
</g>
<g>
	<g>
		<path d="M199.04,413.3c-3.416,1.339-5.123,4.666-5.532,8.122c-0.347,2.932-0.726,7.171,0.073,10.04    c0.668,2.399,3.016,2.446,5.216,2.162c2.233-0.287,4.197-0.224,6.426-0.268c1.026-0.021,1.832-0.837,1.86-1.86    C207.21,426.73,208.492,409.594,199.04,413.3z M203.797,422.557c-0.13,2.306-0.148,4.649-0.286,6.963    c-1.005-0.072-1.992-0.122-3.06-0.01c-1.852,0.195-2.709,1.289-3.722-0.464c-0.676-1.17-0.68-3.21-0.707-4.52    c-0.059-2.812,0.439-6.478,2.966-8.203C203.688,413.119,203.963,419.61,203.797,422.557z"/>
	</g>
</g>
<g>
	<g>
		<path d="M227.801,413.3c-3.416,1.339-5.123,4.666-5.532,8.122c-0.347,2.932-0.726,7.171,0.073,10.04    c0.668,2.399,3.016,2.446,5.216,2.162c2.233-0.287,4.197-0.224,6.426-0.268c1.026-0.021,1.833-0.837,1.86-1.86    C235.971,426.73,237.253,409.594,227.801,413.3z M232.558,422.557c-0.13,2.306-0.148,4.649-0.286,6.963    c-1.005-0.072-1.992-0.122-3.06-0.01c-1.854,0.195-2.709,1.289-3.722-0.464c-0.676-1.17-0.68-3.21-0.707-4.52    c-0.059-2.812,0.439-6.478,2.967-8.203C232.448,413.119,232.723,419.61,232.558,422.557z"/>
	</g>
</g>
<g>
	<g>
		<path d="M208.441,236.913c-0.212-1.587-0.368-3.869-1.651-5.006c-3.903-3.458-7.726,2.506-8.669,5.562    c-0.904,2.927-1.096,5.792-0.74,8.833c0.08,0.689,0.12,1.52,0.245,2.328c0.039,0.364,0.077,0.73,0.118,1.077    c0.098,0.829,0.618,1.675,1.494,1.799c0.183,0.068,0.392,0.072,0.586,0.006c3.309-0.161,9.755,0.243,9.683-4.009    C209.449,244.008,208.9,240.366,208.441,236.913z M206.087,247.224c-0.771,0.084-1.791,0.049-2.299,0.116    c-0.971,0.13-1.935,0.276-2.904,0.397c0.071-0.009-0.691-6.857-0.666-7.504c0.058-1.492,0.228-3.167,1.08-4.443    c0.796-1.189,2.177-1.678,3.443-0.909c1.53,0.929,1.242,3.055,1.291,4.636C206.112,242.116,206.182,244.649,206.087,247.224z"/>
	</g>
</g>
<g>
	<g>
		<path d="M227.039,230.849c-2.113-4.48-5.988-3.77-9.727-1.503c-3.789,2.299-4.457,7.318-4.511,11.413    c-0.025,1.903-0.122,6.384,1.146,7.916c1.009,1.221,3.148,0.914,4.52,0.765c1.617-0.175,3.2-0.381,4.83-0.379    c1.201,0.001,2.595-0.648,3.753-0.426c1.145,0.219,2.382-0.504,2.352-1.791C229.278,241.598,229.347,235.746,227.039,230.849z     M225.788,244.911c-1.715,0.044-3.535,0.352-5.082,0.51c-1.263,0.129-2.997,0.602-4.304,0.229    c-0.022-0.257-0.042-0.509-0.055-0.738c-0.167-3.396-0.77-7.147,0.112-10.504c0.528-2.013,2.476-3.751,4.612-3.985    c2.801-0.307,3.594,1.379,4.079,3.703c0.166,0.796,0.311,1.576,0.424,2.381C225.979,239.392,225.927,242.105,225.788,244.911z"/>
	</g>
</g>
<g>
	<g>
		<path d="M242.035,225.73c-9.511,0.348-11.485,12.745-8.851,20.313c0.093,0.709,0.334,1.339,0.784,1.85    c0.014,0.027,0.026,0.056,0.04,0.083c0.114,0.215,0.359,0.401,0.614,0.465c0.591,0.392,1.371,0.673,2.41,0.8    c3.802,0.468,8.301,0.632,11.952-0.823c0.78-0.311,1.217-0.844,1.285-1.687C250.843,239.587,253.035,225.327,242.035,225.73z     M246.97,245.339c-2.324,0.541-5.396,0.699-7.469,0.558c-0.454-0.031-3.097,0.014-3.132-0.011c-0.084-0.06-0.171-0.184-0.258-0.35    c-0.033-0.767-0.195-1.649-0.216-1.883c-0.179-1.914-0.356-3.701-0.32-5.625c0.077-4.172,1.815-9.342,6.855-9.494    C249.88,228.309,247.809,239.905,246.97,245.339z"/>
	</g>
</g>
<g>
	<g>
		<path d="M511.666,424.956c-0.129-9.002,0.299-17.973,0.258-26.97c-0.036-8.013-1.073-16.04-1.266-24.094    c-0.121-4.982-0.198-9.859-0.492-14.735c1.479-3.254,0.728-10.093-0.309-12.376c-2.504-5.517-12.502-4.961-17.366-4.904    c-7.983,0.092-16.438,0.638-24.352,1.614c-7.053,0.871-14.297,1.095-21.384,1.536c-9.904,0.616-20.682,1.683-30.582,0.781    c-7.106-0.647-14.32-1.926-21.399-0.716c-0.181-2.105-0.422-4.207-0.743-6.302c-1.003-6.537-3.47-8.048-9.999-9.151    c-7.017-1.186-14.276-1.492-21.228-2.8c-2.795-0.526-7.215-0.232-9.687-1.181c-0.741-0.285-0.978-0.315-1.033-0.315    c0.059-0.015,0.232-0.138-0.314-0.958c-0.632-0.947-0.438-1.932-1.229-2.985c-1.644-2.188-4.443-3.299-7.381-3.744    c0.556-4.881,0.507-10.04,0.356-14.902c-0.186-5.975-2.273-11.844-1-17.861c0.872-4.123,3.681-7.383,3.808-11.746    c0.107-3.631-2.38-6.942-4.946-9.32c-1.794-1.661-3.881-3.122-5.996-4.33c-2.087-1.193-5.537-1.703-6.567-4.009    c-0.714-1.596-0.464-6.257-0.262-8.041c0.313-2.761,2.202-4.637,3.219-7.092c3.017-7.286,0.313-12.39-4.889-16.709    c-0.363-1.752-0.887-3.484-1.644-5.099c0.41-7.452-8.861-10.622-10.585-17.435c-2.288-9.041-4.344-16.352-9.336-24.179    c-5.592-8.769-14.348-16.35-24.337-20.258c1.834-3.992,1.526-8.736-2.967-10.812c-3.685-1.703-6.515-1.409-7.395-6.588    c-0.513-3.015,0.257-7.394,0.971-10.275c0.881-3.56,2.543-8.447,1.167-12.076c-0.22-0.58-0.498-1.149-0.815-1.701    c-0.32-2.695-2.278-4.841-4.759-6.318c0.473-2.904,0.151-6.089-1.224-8.605c-1.998-3.654-2.537-5.352-2.292-9.754    c0.188-3.37,0.227-6.731,0.076-10.112c-0.202-4.552-1.563-18.205-8.961-15.844c-7.117,2.273-4.652,14.846-4.143,20.125    c0.294,3.05,0.751,8.023-0.084,11.048c-0.81,2.927-3.411,4.745-4.893,7.242c-1.458,2.458-1.589,5.004-0.32,7.274    c-2.758,1.273-5.043,3.846-6.104,6.643c-1.376,3.63,0.286,8.516,1.167,12.076c0.714,2.883,1.484,7.26,0.971,10.275    c-0.881,5.178-3.711,4.884-7.396,6.588c-4.493,2.076-4.801,6.82-2.967,10.812c-9.991,3.907-18.745,11.489-24.337,20.258    c-4.991,7.827-7.048,15.137-9.336,24.179c-1.725,6.813-10.995,9.984-10.585,17.435c-0.757,1.616-1.281,3.348-1.644,5.1    c-5.201,4.32-7.906,9.424-4.889,16.709c1.017,2.455,2.907,4.331,3.219,7.092c0.203,1.784,0.451,6.445-0.262,8.042    c-1.03,2.305-4.48,2.817-6.567,4.009c-2.114,1.208-4.201,2.668-5.996,4.33c-2.567,2.378-5.053,5.689-4.946,9.32    c0.128,4.363,2.936,7.622,3.808,11.746c1.273,6.017-0.815,11.886-1,17.861c-0.15,4.863-0.199,10.021,0.356,14.902    c-2.939,0.444-5.737,1.555-7.381,3.743c-0.791,1.053-0.597,2.038-1.229,2.985c-0.546,0.82-0.373,0.944-0.314,0.958    c-0.055,0-0.291,0.031-1.033,0.315c-2.472,0.948-6.892,0.655-9.687,1.181c-6.952,1.309-14.211,1.613-21.228,2.8    c-6.527,1.104-8.996,2.614-9.999,9.152c-0.321,2.095-0.562,4.197-0.743,6.302c-7.078-1.21-14.292,0.069-21.398,0.716    c-9.901,0.902-20.678-0.165-30.582-0.781c-7.086-0.441-14.331-0.665-21.384-1.536c-7.914-0.977-16.37-1.522-24.352-1.614    c-4.864-0.057-14.862-0.615-17.366,4.904c-1.036,2.284-1.787,9.123-0.309,12.376c-0.294,4.877-0.372,9.753-0.492,14.735    c-0.194,8.054-1.231,16.081-1.266,24.094c-0.041,8.997,0.387,17.967,0.258,26.97c-0.066,4.625-1.605,13.847,2.516,17.219    c2.044,1.673,4.316,1.014,6.755,1.053c3.991,0.063,8.068,0.573,12.029,0.973c6.591,0.667,13.283,0.771,19.888,1.337    c16.517,1.415,33.34,2.762,49.963,1.844c8.204-0.453,16.394-0.86,24.564-1.734c6.011-0.644,13.291-0.22,19.471-1.869    c4.39,0.28,8.755,0.483,13.164,0.249c10.391-0.551,21.133-0.123,31.58,0.146c20.285,0.521,40.471,2.586,60.735,1.085    c0.08-0.006,0.15-0.027,0.227-0.04c5.96,0.31,11.763,1.365,17.768,1.077c5.397-0.258,10.785-0.532,16.181-0.78    c18.863,0.964,37.67-0.856,56.561-1.342c10.446-0.269,21.187-0.698,31.58-0.146c4.408,0.233,8.773,0.031,13.164-0.249    c6.18,1.65,13.459,1.225,19.471,1.87c8.169,0.876,16.358,1.282,24.564,1.734c16.624,0.918,33.446-0.429,49.962-1.844    c6.605-0.566,13.298-0.669,19.888-1.337c3.961-0.401,8.038-0.912,12.029-0.973c2.44-0.038,4.711,0.619,6.755-1.053    C513.271,438.804,511.732,429.581,511.666,424.956z M5.831,355.959c-0.008-0.263-0.019-0.527-0.026-0.79    c0.025-0.369,0.074-0.861,0.13-1.536c0.156-1.879,0.269-2.82,1.678-3.748c1.616-1.062,5.197-0.8,7.058-0.85    c2.448-0.065,4.918-0.019,7.369,0.024c4.955,0.086,9.853,0.937,14.815,0.644c8.111-0.478,16.403,0.373,24.468,1.095    c18.384,1.646,37.441,2.72,55.619-1.251c-0.14,2.976-0.182,5.958-0.159,8.944c-20.316,0.165-40.486-2.02-60.783-1.786    c-10.354,0.12-20.652,0.03-30.992,0.1c-2.888,0.019-5.768-0.106-8.655-0.159c-2.415-0.044-6.015,0.673-8.32-0.009    C6.529,356.191,5.976,356.432,5.831,355.959z M114.776,438.431c-9.362,0.289-18.689,1.045-28.05,1.342    c-9.169,0.292-18.326-0.14-27.468-0.165c-9.099-0.025-18.047-1.115-27.102-1.408c-3.937-0.128-7.728,0.194-11.642-0.233    c-2.502-0.273-5.005-0.253-7.502-0.648c-1.382-0.089-2.689-0.434-3.921-1.035c-1.786-0.173-1.932-0.411-0.434-0.713    c-1.103-3.654-0.607-8.021-0.656-11.783c-0.064-4.923-0.031-9.843-0.299-14.76c-0.539-9.857-0.337-19.571-0.56-29.416    c-0.139-6.105-0.701-12.207-1.066-18.295c1.784,0.035,3.717-0.261,4.939-0.236c5.015,0.102,10.007,0.623,15.021,0.747    c9.271,0.23,18.464,0.842,27.755,0.946c21.083,0.236,42.086,3.589,63.079,0.93c0.217,8.217,0.704,16.442,0.569,24.593    c-0.158,9.597-0.362,19.231-0.269,28.828c0.067,6.887,0.031,14.305,1.11,21.187C117.103,438.355,115.932,438.396,114.776,438.431z     M366.526,332.331c4.526,0.432,9.007,1.066,13.53,1.752c3.971,0.603,7.51,0.087,8.554,4.709c0.234,1.036,0.369,2.168,0.447,3.329    c-0.027-0.01-0.049-0.025-0.077-0.035c-3.453-1.174-7.72-0.241-11.315-0.295c-5.397-0.081-10.765-0.421-16.182-0.419    c-7.357,0.002-14.718-0.302-22.076-0.488c0.178-2.245,0.244-4.5,0.056-6.779c1.433-0.108,2.863-0.234,4.281-0.395    C351.401,332.837,359.148,333.976,366.526,332.331z M287.607,165.052c6.141,3.804,9.987,9.775,13.053,16.076    c1.622,3.334,3.112,6.286,4.073,9.848c1.228,4.551,1.438,9.783,3.167,14.142c0.312,0.787,0.701,1.471,1.146,2.094    c-1.731-0.68-3.484-1.297-5.29-1.767c-1.468-0.383-2.957-0.751-4.454-1.112c0.932-3.515-0.383-8.137-0.986-11.375    c-0.848-4.551-1.955-9.243-3.667-13.549c-2.942-7.399-7.446-13.396-13.962-17.52C283.082,162.714,285.419,163.697,287.607,165.052    z M278.097,161.284c3.108,3.553,6.12,6.261,8.601,10.421c1.502,2.518,2.978,4.987,4.111,7.704    c2.927,7.026,5.552,16.343,5.524,24.228c-3.047-0.683-6.138-1.284-9.24-1.761c1.423-9.368-1.786-20.281-5.016-28.947    c-1.337-3.585-3.392-8.854-6.451-12.593c0.79,0.224,1.579,0.451,2.365,0.687C277.994,161.111,278.026,161.202,278.097,161.284z     M273.995,189.491c-0.314-3.69-0.52-7.381-1.106-11.038c-0.909-5.68-2.12-13.75-6.279-18.576    c-0.158-0.952-0.613-1.663-1.353-2.489c-0.107-0.12-0.223-0.236-0.336-0.354c0.303,0.019,0.605,0.041,0.905,0.048    c1.043,0.459,2.103,0.881,3.186,1.255c12.018,10.827,12.846,28.276,15.499,43.172c-0.757-0.097-1.513-0.179-2.27-0.258    c-2.481-0.827-5.013-1.498-7.546-1.803C274.981,196.195,274.259,192.595,273.995,189.491z M256.502,191.331    c-0.126-3.626,0.109-7.127,0.194-10.76c0.098-4.259-0.03-8.539-0.046-12.799c-0.014-3.697,0.29-7.521-0.577-11.109    c1.388-0.031,2.777-0.035,4.165,0.003c0.055,0.001,0.11,0.008,0.165,0.01c0.277,0.435,0.566,0.839,0.924,1.258    c0.377,0.439,0.666,0.93,1.029,1.379c1.367,3.613,3.993,6.758,5.27,10.505c1.182,3.469,1.729,7.141,2.246,10.777    c0.881,6.202,0.54,12.558,1.874,18.679c-0.838,0.005-1.672,0.079-2.504,0.189c-4.243-0.914-8.723-0.994-13.009-0.81    C256.793,196.257,256.589,193.802,256.502,191.331z M252.655,99.374c1.241-2.435,1.37-4.471,1.371-7.207    c0.002-3.739-0.274-7.292-0.492-10.995c-0.146-2.481-0.685-9.279,0.575-11.484c4.087-7.143,5.384,2.712,5.471,3.854    c0.143,1.903,0.153,3.827,0.128,5.733c-0.059,4.419-0.443,8.854-0.517,13.255c-0.044,2.662,0.592,5.137,1.805,7.511    c1.243,2.434,1.399,4.694,1.683,7.029c-1.08-0.269-2.145-0.425-3.122-0.45c-4.164-0.106-8.053,0.872-11.579,2.633    C248.101,105.25,250.791,103.029,252.655,99.374z M235.281,155.015c0.843-2.318,1.085-2.899,3.428-4.34    c1.241-0.763,2.709-1.041,3.914-2.069c3.552-3.027,3.393-7.017,3.442-11.281c0.055-4.701,1.473-8.752,0.632-13.522    c-0.69-3.905-2.276-6.95-0.929-9.788c4.053-1.6,7.595-3.087,12.469-3.294c2.267-0.097,3.996,0.15,5.779,1.057    c0.171,0.135,0.356,0.245,0.56,0.306c0.173,0.101,0.345,0.197,0.52,0.311c3.128,3.319,1.033,6.752,0.211,11.408    c-0.843,4.77,0.576,8.821,0.631,13.522c0.05,4.264-0.11,8.254,3.442,11.281c1.206,1.028,2.673,1.306,3.914,2.069    c2.344,1.441,2.586,2.022,3.428,4.34c0.031,0.087,0.052,0.181,0.081,0.269c-1.925-0.533-3.885-0.919-5.865-1.156    c-1.2-0.355-2.422-0.669-3.68-0.959c-0.03-0.007-0.06-0.014-0.091-0.021c-4.56-2.121-11.382-0.988-15.87-0.705    c-0.666,0.042-1.387,0.065-2.136,0.084c-0.31-0.008-0.624,0-0.939,0.024c-3.923,0.094-8.484,0.248-11.376,2.343    c-0.55,0.128-1.102,0.239-1.646,0.389C235.228,155.195,235.249,155.101,235.281,155.015z M252.893,182.179    c-0.212,4.617-2.048,12.429,0.62,16.611c-3.393,0.182-6.893,0.378-10.371,0.728c-0.957-0.148-1.921-0.239-2.886-0.244    c1.334-6.121,0.993-12.477,1.874-18.679c0.517-3.636,1.065-7.308,2.246-10.777c0.594-1.744,1.486-3.355,2.405-4.946    c1.888-2.436,3.292-5.18,4.484-8.007c0.75-0.044,1.502-0.084,2.253-0.118C251.392,164.547,253.255,174.3,252.893,182.179z     M237.306,199.447c-2.533,0.306-5.065,0.977-7.546,1.803c-0.757,0.08-1.514,0.161-2.27,0.258    c2.653-14.895,3.481-32.344,15.499-43.172c0.696-0.24,1.383-0.498,2.064-0.771c0.888-0.162,1.723-0.319,2.45-0.418    c-0.343,0.534-0.674,1.075-1.009,1.604c-5.054,4.601-6.396,13.55-7.38,19.701c-0.585,3.657-0.791,7.348-1.105,11.038    C237.745,192.595,237.022,196.195,237.306,199.447z M233.906,161.284c0.072-0.082,0.102-0.173,0.107-0.262    c0.787-0.236,1.576-0.462,2.365-0.687c-3.059,3.739-5.114,9.008-6.451,12.593c-3.231,8.667-6.44,19.579-5.016,28.947    c-3.103,0.477-6.193,1.078-9.24,1.761c-0.028-7.884,2.597-17.201,5.524-24.228c1.133-2.718,2.608-5.186,4.111-7.704    C227.786,167.545,230.798,164.838,233.906,161.284z M204.102,205.119c1.729-4.357,1.939-9.591,3.167-14.142    c0.962-3.563,2.451-6.516,4.073-9.848c3.066-6.302,6.911-12.273,13.053-16.076c2.189-1.356,4.525-2.337,6.919-3.162    c-6.516,4.124-11.02,10.12-13.962,17.52c-1.712,4.305-2.819,8.998-3.667,13.549c-0.603,3.237-1.92,7.859-0.986,11.375    c-1.497,0.361-2.986,0.73-4.454,1.112c-1.806,0.47-3.559,1.087-5.29,1.767C203.401,206.59,203.79,205.906,204.102,205.119z     M192.996,216.66c0.217-0.494,0.451-0.915,0.699-1.301c5.563-2.509,11.278-5.574,17.104-6.906    c7.753-1.773,16.126-2.11,23.901-4.04c5.805,1.31,13.584-0.305,18.88-0.586c3.995-0.212,8.234-0.008,12.385-0.195    c3.444,1.062,7.174,0.64,10.805,0.658c7.923,2.05,16.503,2.35,24.433,4.162c5.826,1.332,11.541,4.398,17.104,6.906    c0.249,0.386,0.482,0.807,0.699,1.301c0.494,2.238-0.069,4.511-0.163,6.728c-0.166-0.048-0.33-0.093-0.498-0.142    c-1.731-0.51-3.479-1.066-5.24-1.612c-0.008-0.187-0.016-0.373-0.033-0.567c-0.165-1.842-0.221-3.736-1.462-5.192    c-0.447-0.526-1.464-0.525-1.914,0c-0.861,1.005-1.463,2.369-1.677,3.672c-0.032,0.191-0.041,0.383-0.063,0.574    c-1.93-0.516-3.868-0.944-5.809-1.243c-0.016-0.197-0.031-0.394-0.057-0.591c-0.052-0.385-0.106-0.771-0.162-1.157    c0.145-1.481-0.118-2.957-0.219-4.44c-0.221-3.252-5.062-3.312-5.103,0c-0.019,1.575,0.328,3.157,0.59,4.711    c-0.047,0.244-0.092,0.48-0.139,0.733c-3.126-0.438-6.36-0.852-9.6-1.101c0.141-0.796,0.199-1.609,0.241-2.342    c0.096-1.658,0.331-3.701-0.96-4.958c-1.276-1.243-3.713-0.767-4.128,1.09c-0.34,1.524-0.529,3.899-0.131,5.981    c-1.773-0.022-3.531,0.035-5.26,0.182c0.098-0.577,0.148-1.167,0.19-1.743c0.134-1.842,0.025-3.609-1.236-5.048    c-0.681-0.776-2.155-0.779-2.837,0c-1.285,1.466-1.608,3.918-1.151,6.104c-2.835-0.32-5.748-0.387-8.636-0.35    c0.149-0.64,0.239-1.297,0.289-1.987c0.081-1.12,0.231-2.9-0.461-3.806c-0.636-0.835-1.765-1.618-2.893-1.177    c-2.148,0.839-2.399,2.677-2.139,4.717c0.102,0.8,0.219,1.594,0.416,2.39c-1.633,0.067-3.237,0.143-4.789,0.205    c-0.92,0.036-1.841,0.067-2.763,0.099c0.019-0.134,0.039-0.27,0.057-0.404c0.209-1.504,0.451-3.268,0.014-4.734    c-0.705-2.364-4.63-2.709-5.14,0c-0.28,1.488-0.151,3.128,0.018,4.633c0.026,0.235,0.062,0.466,0.102,0.693    c-1.825,0.079-3.648,0.173-5.46,0.321c-0.377,0.031-0.766,0.056-1.157,0.082c0.689-2.339,0.44-5.162-0.981-6.785    c-0.682-0.779-2.156-0.776-2.837,0c-1.262,1.439-1.371,3.206-1.236,5.048c0.042,0.576,0.092,1.166,0.19,1.743    c-1.729-0.148-3.487-0.205-5.26-0.182c0.397-2.08,0.209-4.455-0.131-5.981c-0.416-1.858-2.852-2.333-4.128-1.09    c-1.291,1.258-1.055,3.301-0.96,4.958c0.042,0.733,0.1,1.546,0.241,2.342c-3.239,0.249-6.473,0.661-9.599,1.101    c-0.047-0.252-0.092-0.49-0.139-0.733c0.262-1.554,0.609-3.137,0.59-4.711c-0.041-3.312-4.882-3.252-5.103,0    c-0.1,1.482-0.363,2.959-0.219,4.44c-0.056,0.386-0.109,0.772-0.162,1.157c-0.026,0.197-0.041,0.394-0.057,0.591    c-1.941,0.299-3.88,0.726-5.809,1.243c-0.022-0.191-0.031-0.384-0.063-0.574c-0.214-1.302-0.817-2.666-1.677-3.672    c-0.45-0.525-1.466-0.526-1.914,0c-1.241,1.456-1.297,3.348-1.462,5.192c-0.017,0.194-0.025,0.38-0.033,0.567    c-1.76,0.547-3.509,1.101-5.24,1.612c-0.167,0.049-0.331,0.094-0.497,0.142C193.065,221.17,192.502,218.899,192.996,216.66z     M185.16,235.974c0.29-3.265,2.541-4.358,4.583-5.778c0.915-0.094,1.818-0.168,2.615-0.321c2.699-0.516,5.32-1.314,7.971-2.027    c4.864-1.309,9.331-2.318,14.323-2.756c7.028-0.617,14.108-1.917,21.058-3.425c1.068,0.009,2.145-0.013,3.235-0.025    c5.013-0.055,10.015,0.067,15.031-0.041c3.939-0.084,7.808-0.04,11.743,0.064c3.943,0.105,8.125,0.829,12.07,0.321    c6.47,1.37,13.04,2.533,19.563,3.106c4.991,0.438,9.459,1.447,14.323,2.756c2.651,0.713,5.271,1.511,7.971,2.027    c0.797,0.153,1.7,0.227,2.615,0.321c2.043,1.42,4.293,2.512,4.583,5.778c0.334,3.765-2.391,5.529-4.123,8.301    c-1.162,1.86-1.337,3.872-1.474,6.01c-0.126,1.967-0.409,4.213-0.183,6.27c-2.883-0.7-5.801-1.273-8.705-1.761    c-11.2-1.88-24.11-3.451-35.675-1.58c-8.556-1.661-17.722-0.855-26.325-0.303c-4.984,0.32-10.26,0.105-15.477,0.235    c-11.453-1.761-24.178-0.207-35.237,1.649c-2.904,0.487-5.821,1.06-8.705,1.761c0.227-2.057-0.057-4.303-0.183-6.27    c-0.137-2.139-0.311-4.15-1.474-6.01C187.55,241.503,184.826,239.74,185.16,235.974z M171.852,270.667    c0.383-1.023,1.19-1.999,2.187-2.885c3.048-0.862,5.977-2.015,9.027-3.194c6.203-2.397,13.365-3.648,19.963-4.527    c8.182-1.09,16.876-0.899,25.296-1.613c2.632,0.09,5.292-0.013,7.823,0.049c4.74,0.115,9.485,0.027,14.21-0.28    c8.877-0.576,17.939,0.165,26.808-0.556c10.365,1.683,21.492,1.027,31.806,2.401c6.598,0.879,13.761,2.13,19.963,4.527    c3.05,1.178,5.978,2.332,9.027,3.194c0.997,0.886,1.805,1.862,2.187,2.885c0.133,0.354,0.206,0.685,0.244,1.003    c-1.677-0.313-3.759-1.191-4.476-1.435c-3.095-1.047-6.047-1.967-9.273-2.571c-7.247-1.356-14.689-2.039-22.032-2.719    c-11.15-1.032-23.319-3.55-34.773-2.721c-5.027-1.162-10.782-1.065-15.605-0.958c-4.291,0.094-8.857,0.172-13.217,0.881    c-11.117-0.591-22.85,1.8-33.63,2.796c-7.342,0.68-14.785,1.363-22.032,2.719c-3.225,0.603-6.178,1.523-9.273,2.571    c-0.717,0.242-2.799,1.121-4.476,1.435C171.646,271.352,171.72,271.021,171.852,270.667z M331.203,303.912    c0.013-5.303,0.14-10.664-0.175-15.97c0.541-0.035,1.055-0.204,1.555-0.658c1.246-1.131,1.446-3.358,1.03-5.209    c0.521,0.18,1.046,0.347,1.562,0.476c-0.195,0.857-0.361,1.719-0.485,2.57c-0.844,5.746,0.386,10.797,1.025,16.43    c0.523,4.612,0.056,9.106,0.639,13.577c-1.61-0.517-3.32-0.872-5.074-1.128C331.475,310.651,331.196,307.293,331.203,303.912z     M325.463,286.988c1.14,0.411,2.279,0.567,3.478,0.742c-0.367,5.394-0.595,10.781-0.888,16.183    c-0.159,2.941-0.75,6.403-0.885,9.656c-0.791-0.059-1.579-0.102-2.366-0.146c0.008-4.724,0.428-9.568,0.654-14.252    C325.65,295.137,325.314,291.013,325.463,286.988z M327.723,284.203c-1.014-0.09-3.042-0.067-3.457-1.247    c-0.297-0.846,0.541-2.685,0.876-3.421c1.299,0.142,2.628,0.54,3.902,0.849c0.549,0.133,1.316,0.436,2.184,0.782    c-0.372,0.874-0.624,1.851-0.782,2.707c-0.148,0.805,0.183,0.674-0.641,0.477C329.129,284.188,328.41,284.263,327.723,284.203z     M307.58,273.852c-9.633-1.236-18.803-3.081-28.139-3.719c-6.757-2.343-15.864-1.654-22.356-1.383    c-5.863,0.245-12.807-0.281-18.731,1.162c-11.373,0.076-22.314,2.448-33.929,3.938c-6.676,0.857-22.165,0.312-29.058,4.546    c-0.102-0.198-0.182-0.409-0.296-0.601c-0.638-1.083-1.601-1.99-2.356-2.955c1.264-0.032,2.561-0.255,3.665-0.371    c8.709-0.922,16.945-4.199,25.5-5.83c8.209-1.564,16.775-1.956,25.1-2.631c3.774-0.306,7.652-0.216,11.503-0.276    c4.922,0.657,10.251,0.055,15.09,0.141c6.271,0.114,12.957,1.538,19.099-0.157c4.127,0.091,8.298-0.036,12.35,0.291    c8.324,0.675,16.89,1.067,25.1,2.631c8.555,1.63,16.791,4.908,25.5,5.83c1.104,0.116,2.401,0.339,3.665,0.371    c-0.754,0.966-1.717,1.872-2.356,2.955c-0.114,0.192-0.192,0.403-0.295,0.601C329.745,274.164,314.257,274.71,307.58,273.852z     M313.571,297.083c-0.258,4.199-2.279,11.063-0.962,15.374c-0.885-0.112-1.786-0.227-2.687-0.34    c0.706-5.226,0.755-10.802,0.952-16.002c0.148-3.921,0.901-8.53,0.041-12.515c1.184,0.255,2.409,0.371,3.398,0.472    c0.024,0.002,0.049,0.006,0.073,0.009C312.815,287.796,313.788,293.553,313.571,297.083z M311.474,280.604    c-0.324-0.08-1.567-0.364-1.747-0.689c-0.124-0.225,0.359-1.282,0.408-1.503c0.117-0.527,0.147-0.94,0.088-1.359    c2.334,0.273,4.652,0.585,6.952,0.955c-0.076,0.369-0.134,0.745-0.167,1.14c-0.058,0.687,0.079,1.521-0.077,2.227    c-0.827-0.019-1.862-0.301-2.515-0.37C313.435,280.899,312.439,280.842,311.474,280.604z M316.644,284.426    c1.284,0.143,2.506,0.017,3.179-1.326c0.591-1.177,0.587-2.994,0.258-4.588c0.652,0.118,1.305,0.254,1.957,0.378    c-0.346,1.182-0.45,2.599-0.486,3.229c-0.051,0.874-0.134,2.147,0.35,2.936c0.334,0.544,0.886,0.875,1.481,1.134    c-1.195,3.822-0.716,8.524-1.045,12.408c-0.409,4.833-1.144,9.763-1.384,14.628c-1.896-0.093-3.717-0.202-5.382-0.4    c-0.225-0.027-0.463-0.058-0.691-0.087c2.218-4.028,1.616-10.621,1.915-15.01C317.064,293.798,317.671,288.566,316.644,284.426z     M307.617,294.239c-0.324,5.81-0.821,11.619-1.366,17.422c-2.711-0.327-5.462-0.632-8.225-0.853    c1.685-3.923,0.419-9.627,0.595-13.684c0.227-5.222,1.018-10.414,0.967-15.641c1.247,0.018,2.433-0.258,3.133-1.437    c0.652-1.099,0.599-2.53,0.198-3.795c1.44,0.15,2.882,0.313,4.322,0.457c-0.695,1.686-1.013,4.127,0.34,5.399    c0.271,0.254,0.595,0.462,0.939,0.65C307.102,285.991,307.793,291.077,307.617,294.239z M296.328,285.33    c-0.192,2.45-0.253,4.883-0.231,7.336c0.051,5.805-1.102,11.862-0.83,17.587c0.006,0.123,0.025,0.25,0.058,0.375    c-0.909-0.051-1.815-0.091-2.719-0.122c0.977-2.829,0.372-7.752,0.535-9.335c0.712-6.918-0.176-13.767,0.081-20.617    c1.15,0.158,2.273,0.422,3.413,0.592C296.207,282.136,296.395,284.471,296.328,285.33z M296.254,277.944    c-0.816-0.134-2.533-0.113-3.245-0.532c-0.853-0.501-0.373-1.414-0.334-2.288c2.348,0.272,4.694,0.535,7.042,0.788    c0.043,0.795,0.145,2.09-0.055,2.276C299.383,278.446,296.486,277.983,296.254,277.944z M288.776,310.19    c-2.138-0.279-4.317-0.413-6.458-0.505c1.11-5.505,0.419-11.505,0.465-17.062c0.038-4.523,0.451-9.384-0.331-13.92    c1.391,0.067,2.786-0.085,3.474-1.261c0.611-1.046,0.327-2.139-0.217-3.133c1.221,0.15,2.443,0.285,3.665,0.43    c-0.478,1.563-0.118,3.726,1.053,4.887c0.178,0.175,0.37,0.307,0.57,0.414c-1.021,6.862-0.764,14.094-1.52,20.98    C289.225,303.308,288.19,307.363,288.776,310.19z M279.397,292.397c-0.063,5.3-0.977,11.845-0.002,17.167    c-0.388-0.015-0.788-0.028-1.169-0.044c-0.728-0.03-1.452-0.056-2.175-0.08c1.461-3.208,0.525-9.327,0.608-12.147    c0.116-3.911-0.032-7.817-0.058-11.732c-0.016-2.381,0.247-4.732-0.187-7.027c1.102,0.059,2.237-0.028,3.265-0.024    C278.939,282.943,279.447,288.02,279.397,292.397z M278.222,275.22c-0.874,0.033-2.423,0.25-2.997-0.55    c-0.24-0.336-0.206-0.987-0.164-1.543c0.635,0.034,1.272,0.058,1.906,0.059c1.983,0.261,3.968,0.521,5.953,0.772    c-0.065,0.365-0.044,0.8-0.076,1.197C281.391,275.384,279.547,275.17,278.222,275.22z M272.873,309.39    c-0.36,0.002-0.718,0.019-1.077,0.029c-3.042-0.617-6.292-0.872-9.509-0.943c0.425-5.354-0.59-10.953-0.679-16.295    c-0.056-3.368,0.853-8.967-0.494-12.5c0.386-0.133,0.753-0.288,1.063-0.496c1.81-1.216,2.093-4.367,1.83-6.591    c2.425,0.071,4.849,0.159,7.278,0.29c0.125,0.007,0.255,0.017,0.381,0.024c0.071,1.69,0.211,3.798,1.725,4.788    c0.249,0.163,0.513,0.29,0.786,0.398c-0.261,0.964-0.181,2.127-0.262,3.072c-0.403,4.676-0.282,9.385-0.606,14.064    C273.109,298.135,271.412,305.713,272.873,309.39z M253.638,296.441c-0.101-5.141,1.031-11.145-0.223-16.221    c0.314-0.008,0.617-0.018,0.897-0.023c1.191-0.024,2.798,0.055,4.337-0.06c-0.549,4.288,0.002,9.051-0.031,13.29    c-0.039,4.915-0.268,10.111,0.199,15.04c-1.743,0.026-3.454,0.087-5.084,0.163C254.408,304.884,253.703,299.744,253.638,296.441z     M257.242,276.647c-0.977,0.034-1.954,0.128-2.932,0.147c-0.661,0.013-1.712,0.113-2.341-0.118    c-0.889-0.327-0.672-0.266-0.743-1.425c-0.056-0.904-0.178-1.78-0.412-2.633c1.949-0.13,3.852-0.238,5.629-0.202    c1.403,0.029,2.801,0.065,4.201,0.097c-0.102,1.471,0.178,3.526-0.794,4.04C259.263,276.863,257.911,276.625,257.242,276.647z     M250.59,298.124c-0.082,2.22-1.283,7.378-0.862,10.664c-3.244,0.099-6.576,0.179-9.81,0.623c-0.263-0.005-0.525-0.019-0.788-0.02    c1.46-3.676-0.236-11.256-0.436-14.16c-0.323-4.681-0.203-9.388-0.606-14.064c-0.081-0.945-0.001-2.107-0.262-3.072    c0.272-0.108,0.536-0.236,0.786-0.398c1.527-0.997,1.658-3.132,1.727-4.828c2.671,0.228,5.496,0.083,8.276-0.1    c-0.631,1.744-0.763,4.052-0.233,5.478c0.471,1.272,1.629,1.735,2.904,1.899C249.781,285.704,250.797,292.508,250.59,298.124z     M232.607,292.397c-0.051-4.377,0.458-9.453-0.282-13.887c1.027-0.005,2.162,0.084,3.265,0.024    c-0.434,2.295-0.171,4.646-0.187,7.027c-0.026,3.914-0.174,7.821-0.058,11.732c0.083,2.82-0.853,8.939,0.608,12.147    c-0.723,0.023-1.447,0.05-2.175,0.08c-0.381,0.016-0.781,0.03-1.169,0.044C233.584,304.242,232.669,297.697,232.607,292.397z     M233.782,275.22c-1.326-0.049-3.169,0.164-4.622-0.067c-0.031-0.396-0.011-0.831-0.076-1.197    c2.617-0.329,5.234-0.666,7.847-1.017c0.044,0.586,0.116,1.357-0.151,1.729C236.204,275.47,234.656,275.252,233.782,275.22z     M222.527,301.019c-0.756-6.886-0.499-14.118-1.52-20.98c0.2-0.107,0.393-0.239,0.57-0.414c1.172-1.16,1.531-3.323,1.053-4.887    c1.222-0.146,2.444-0.28,3.665-0.43c-0.545,0.994-0.83,2.087-0.217,3.133c0.688,1.176,2.082,1.329,3.474,1.261    c-0.782,4.536-0.369,9.396-0.331,13.92c0.046,5.558-0.646,11.558,0.465,17.062c-2.14,0.092-4.32,0.227-6.458,0.505    C223.813,307.363,222.779,303.308,222.527,301.019z M215.907,292.665c0.022-2.452-0.038-4.885-0.231-7.336    c-0.067-0.858,0.12-3.194-0.309-4.184c1.141-0.17,2.265-0.435,3.413-0.592c0.257,6.849-0.631,13.698,0.081,20.617    c0.163,1.584-0.442,6.506,0.535,9.335c-0.904,0.031-1.81,0.069-2.719,0.122c0.033-0.124,0.052-0.25,0.058-0.375    C217.009,304.528,215.855,298.47,215.907,292.665z M218.994,277.414c-0.713,0.419-2.428,0.397-3.245,0.532    c-0.232,0.039-3.129,0.501-3.408,0.244c-0.2-0.184-0.099-1.481-0.056-2.276c2.348-0.254,4.694-0.517,7.042-0.788    C219.369,275.998,219.847,276.913,218.994,277.414z M203.482,282.757c0.344-0.188,0.668-0.396,0.939-0.65    c1.354-1.272,1.035-3.713,0.34-5.399c1.44-0.143,2.882-0.306,4.322-0.457c-0.401,1.265-0.454,2.696,0.198,3.795    c0.7,1.178,1.887,1.455,3.133,1.437c-0.051,5.227,0.74,10.419,0.967,15.641c0.177,4.057-1.091,9.761,0.595,13.684    c-2.762,0.221-5.514,0.525-8.225,0.853c-0.545-5.802-1.041-11.612-1.366-17.422C204.21,291.077,204.902,285.991,203.482,282.757z     M198.432,297.083c-0.217-3.529,0.755-9.287-0.815-13.002c0.024-0.003,0.049-0.007,0.073-0.009    c0.991-0.102,2.216-0.217,3.399-0.473c-0.86,3.985-0.107,8.594,0.041,12.515c0.197,5.2,0.247,10.775,0.952,16.002    c-0.901,0.114-1.802,0.229-2.687,0.34C200.712,308.146,198.691,301.282,198.432,297.083z M200.53,280.604    c-0.965,0.238-1.961,0.295-2.941,0.4c-0.654,0.069-1.688,0.352-2.515,0.37c-0.156-0.706-0.019-1.54-0.077-2.227    c-0.033-0.395-0.091-0.771-0.167-1.14c2.3-0.37,4.617-0.683,6.952-0.955c-0.059,0.419-0.03,0.832,0.088,1.359    c0.049,0.221,0.532,1.277,0.408,1.503C202.096,280.239,200.854,280.524,200.53,280.604z M190.451,282.119    c-0.036-0.63-0.14-2.047-0.486-3.229c0.652-0.124,1.305-0.261,1.957-0.378c-0.329,1.593-0.332,3.41,0.258,4.588    c0.674,1.343,1.895,1.47,3.179,1.326c-1.027,4.14-0.42,9.371-0.153,13.303c0.299,4.39-0.303,10.983,1.915,15.01    c-0.228,0.027-0.465,0.059-0.691,0.087c-1.665,0.199-3.486,0.306-5.382,0.4c-0.24-4.864-0.976-9.795-1.384-14.628    c-0.329-3.884,0.15-8.586-1.045-12.408c0.597-0.26,1.148-0.591,1.481-1.134C190.586,284.266,190.501,282.994,190.451,282.119z     M186.547,299.17c0.225,4.684,0.646,9.53,0.654,14.252c-0.787,0.043-1.575,0.086-2.366,0.146    c-0.134-3.252-0.725-6.714-0.885-9.656c-0.293-5.401-0.521-10.789-0.888-16.183c1.198-0.174,2.339-0.33,3.478-0.742    C186.688,291.013,186.354,295.137,186.547,299.17z M184.28,284.203c-0.687,0.061-1.406-0.014-2.081,0.148    c-0.824,0.197-0.493,0.328-0.641-0.477c-0.157-0.856-0.41-1.832-0.782-2.707c0.868-0.346,1.634-0.649,2.184-0.782    c1.274-0.31,2.603-0.707,3.902-0.849c0.335,0.736,1.173,2.575,0.875,3.421C187.321,284.135,185.294,284.113,184.28,284.203z     M180.801,303.912c0.008,3.381-0.271,6.738-0.076,10.085c-1.753,0.256-3.465,0.611-5.074,1.128    c0.584-4.471,0.116-8.965,0.639-13.577c0.639-5.633,1.868-10.684,1.025-16.43c-0.125-0.851-0.291-1.711-0.485-2.57    c0.515-0.129,1.041-0.296,1.562-0.476c-0.416,1.851-0.215,4.078,1.03,5.209c0.501,0.454,1.014,0.623,1.555,0.658    C180.66,293.248,180.789,298.609,180.801,303.912z M166.711,325.691c0.862-2.191,4.089-3.03,6.777-3.618    c8.274-0.542,16.641-2.345,24.868-3.555c5.585-0.821,11.117-1.929,16.701-2.734c2.054-0.296,4.132-0.506,6.214-0.708    c4.12,0.356,8.432-0.393,12.509-0.592c3.289-0.161,6.855-0.285,10.259-0.786c3.2-0.021,6.394-0.038,9.604-0.166    c6.103-0.244,12.951,1.318,19.14,0.667c1.849,0.125,3.687,0.199,5.443,0.285c4.077,0.199,8.388,0.948,12.509,0.592    c2.082,0.204,4.16,0.412,6.214,0.708c5.584,0.805,11.118,1.913,16.701,2.734c8.227,1.209,16.594,3.013,24.868,3.555    c2.688,0.59,5.915,1.429,6.777,3.618c0.238,0.606,0.272,1.161,0.268,1.699c-0.888,0.024-1.777,0.049-2.661,0.073    c-9.733,0.265-19.492-0.36-29.243-0.314c-0.421-2.542-0.878-5.378-2.846-6.616c-1.83-1.149-4.876-0.471-6.88-0.454    c-3.438,0.028-6.877,0.055-10.315,0.075c-14.35,0.083-28.739-0.28-43.112-0.268c-12.154,0.01-24.269,0.019-36.41,0.019    c-4.018,0-7.962,0.222-11.955-0.006c-1.004-0.058-2.296-0.523-3.236,0.065c-2.156,1.348-1.168,4.621-0.516,7.185    c-9.765-0.047-19.537,0.58-29.285,0.315c-0.884-0.024-1.772-0.049-2.661-0.073C166.438,326.852,166.473,326.297,166.711,325.691z     M201.679,325.734c-0.222-1.987-1.288-1.997,0.009-2.501c1.856-0.722,6.849-0.069,8.899-0.122c3.113-0.08,6.219,0.009,9.326-0.145    c10.825-0.536,21.763,0.156,32.638,0.166c12.468,0.011,24.962,0.343,37.404,0.351c3.244,0.002,6.489,0.039,9.732,0.067    c1.721,0.015,7.752-0.733,8.546-0.314c-0.269-0.141,0.36,2.318,0.528,3.365c0.034,0.216,0.063,0.422,0.093,0.634    c-10.339,0.329-20.466,1.78-30.8,2.219c-5.582,0.238-11.179,0.201-16.757,0.549c-1.626,0.101-3.494,0.048-5.296,0.216    c-1.802-0.169-3.671-0.115-5.296-0.216c-5.578-0.347-11.175-0.311-16.757-0.549c-10.484-0.446-20.755-1.938-31.252-2.237    c-0.349-0.01-0.699-0.009-1.049-0.017C201.711,326.749,201.741,326.278,201.679,325.734z M123.393,338.792    c1.044-4.622,4.583-4.106,8.554-4.709c4.523-0.687,9.006-1.321,13.53-1.752c7.379,1.645,15.124,0.508,22.78,1.377    c1.419,0.161,2.847,0.288,4.281,0.395c-0.207,2.516-0.1,5,0.121,7.477c-5.912-0.073-11.829-0.163-17.745-0.153    c-10.55,0.019-21.398-0.589-31.936,0.253C123.061,340.674,123.189,339.697,123.393,338.792z M122.94,349.117    c-0.052-1.62-0.117-3.441-0.076-5.251c16.562,1.356,33.429,1.328,50.176,1.341c0.263,2.224,0.549,4.449,0.721,6.695    c-1.211,0.085-2.417,0.184-3.613,0.298c-6.697,0.641-13.628-0.31-20.314-0.837c-4.741-0.373-9.519-0.773-14.266-0.268    c-2.974,0.318-6,0.446-8.96,0.849c-1.372,0.187-2.409,0.673-3.523,1.099C123.034,351.736,122.982,350.428,122.94,349.117z     M173.899,356.816c-0.229,7.551-0.95,15.067-0.822,22.652c0.159,9.497-0.951,18.975-0.682,28.525    c0.274,9.75,0.396,19.574,0.097,29.326c-6.388-0.064-12.788-0.098-19.09,0.021c-4.737,0.089-9.368,0.659-14.118,0.315    c-3.105-0.224-9.343,0.108-13.013-1.035c-0.718-13.818-1.474-27.558-1.589-41.465c-0.109-13.234-0.948-26.372-1.499-39.574    c4.019,0.691,8.167,0.715,12.216,0.512c5.181-0.258,10.33,0.452,15.495,0.79c7.637,0.502,15.334-0.224,23.01-0.814    C173.904,356.32,173.907,356.567,173.899,356.816z M183.28,362.107c0.763,0.649,1.864,0.981,3.067,1.148    c-1.847,9.445-1.18,20.148-1.539,29.659c-0.09,2.381-0.975,7.346,0.137,10.186c-1.691-0.209-3.376-0.447-5.088-0.332    c-0.074,0.005-0.174,0.017-0.288,0.033c0.339-7.773,0.766-15.772-0.039-23.332c-0.784-7.369-1.099-14.235-0.751-21.63    c0.033-0.696,0.035-1.402,0.044-2.105c1.214-0.074,2.426-0.137,3.638-0.187C182.036,357.765,181.568,360.651,183.28,362.107z     M197.45,356.804c0.059,0.547,0.581,1.865,0.305,2.282c-0.786,1.192-4.49,0.569-5.672,0.581c-1.515,0.015-4.75,0.675-6.147-0.133    c-0.971-0.562-1.192-2.581-1.336-4.05c0.307-0.007,0.617-0.023,0.924-0.027c3.921-0.05,7.896-0.163,11.884-0.254    C197.372,355.717,197.388,356.235,197.45,356.804z M201.328,355.129c4.198-0.069,8.396-0.065,12.559,0.083    c-0.687,2.565-1.382,6.263,0.435,7.796c1.198,1.011,3.03,1.192,4.843,1.157c-1.201,8.33-1.586,16.644-2.205,25.069    c-0.236,3.206-0.204,6.421-0.33,9.634c-0.072,1.835-0.355,3.722-0.183,5.537c-3.158-0.044-6.31-0.153-9.419-0.413    c-3.304-0.277-6.603-0.344-9.9-0.392c2.107-5.795,0.445-14.43,0.492-20.316c0.049-6.287,0.863-13.596-0.049-19.944    c1.213-0.157,2.312-0.501,3.014-1.22C202.152,360.511,201.596,357.346,201.328,355.129z M217.249,357.068    c-0.038-0.573-0.11-1.144-0.213-1.71c1.161,0.066,2.323,0.131,3.476,0.229c2.81,0.24,5.644,0.37,8.48,0.403    c0.007,0.108,0.008,0.214,0.017,0.325c0.067,0.74,0.656,2.402,0.321,3.117c-0.299,0.638-5.473,0.69-6.781,0.73    c-0.986,0.031-4.98,0.584-5.712-0.26C217.152,360.267,217.263,357.266,217.249,357.068z M233.339,355.951    c1.834-0.051,3.665-0.134,5.485-0.284c2.803-0.23,5.811-0.068,8.83,0.044c-0.654,1.803-0.091,3.68,0.591,5.62    c0.362,1.03,1.229,1.46,2.284,1.297c0.894-0.138,1.794-0.285,2.699-0.426c-1.313,6.693-0.858,14.124-0.929,20.856    c-0.067,6.422-1.004,14.93,0.829,21.081c-0.146,0.006-0.294,0.014-0.438,0.019c-4.346,0.171-8.862,0.133-13.337,0.404    c-3.129-0.197-6.292-0.172-9.296-0.165c-0.299-6.488,0.237-13.026,0.149-19.505c-0.096-7.077-0.61-14.121-0.923-21.171    c1.325-0.24,2.504-0.698,3.224-1.561C233.703,360.726,233.624,358.206,233.339,355.951z M268.241,355.58    c1.687-0.042,3.347-0.043,4.938,0.088c1.82,0.149,3.651,0.232,5.485,0.284c-0.286,2.255-0.364,4.775,0.832,6.208    c0.721,0.863,1.898,1.321,3.223,1.561c-0.313,7.05-0.828,14.094-0.923,21.171c-0.087,6.315,0.417,12.687,0.164,19.012    c-5.328-0.487-10.766-0.475-16.176-0.303c-0.471-6.432-0.725-12.86-1.167-19.288c-0.292-4.243-0.312-8.597-0.474-12.853    c-0.12-3.126,0.36-6.58-0.368-9.66c0.786-0.049,1.543-0.184,2.221-0.509C267.71,360.472,268.821,357.589,268.241,355.58z     M295.168,359.902c-0.732,0.845-4.726,0.29-5.712,0.26c-1.308-0.041-6.482-0.092-6.781-0.73c-0.335-0.714,0.253-2.376,0.321-3.117    c0.01-0.11,0.01-0.215,0.017-0.324c2.836-0.034,5.67-0.163,8.48-0.403c1.152-0.098,2.315-0.163,3.476-0.229    c-0.104,0.566-0.175,1.137-0.213,1.71C294.741,357.266,294.85,360.267,295.168,359.902z M298.117,355.212    c4.164-0.148,8.361-0.153,12.559-0.083c-0.27,2.217-0.824,5.382,0.745,6.991c0.7,0.72,1.801,1.063,3.014,1.22    c-0.912,6.347-0.098,13.657-0.049,19.944c0.046,5.886-1.616,14.521,0.491,20.316c-3.297,0.047-6.596,0.114-9.9,0.392    c-3.11,0.261-6.261,0.37-9.419,0.413c0.172-1.815-0.112-3.7-0.183-5.537c-0.125-3.213-0.093-6.428-0.329-9.634    c-0.619-8.425-1.005-16.74-2.205-25.069c1.814,0.035,3.646-0.146,4.843-1.157C299.499,361.475,298.803,357.777,298.117,355.212z     M314.595,355.204c3.988,0.09,7.962,0.204,11.884,0.254c0.307,0.003,0.617,0.021,0.924,0.027c-0.143,1.469-0.364,3.486-1.336,4.05    c-1.397,0.808-4.632,0.148-6.147,0.133c-1.183-0.013-4.888,0.611-5.673-0.581c-0.274-0.417,0.246-1.735,0.305-2.282    C314.615,356.235,314.631,355.717,314.595,355.204z M318.066,392.928c-0.137-3.525,0.027-6.975,0.005-10.502    c-0.03-4.622-0.129-9.3,0.091-13.909c0.085-1.8,0.313-3.434,0.052-5.102c0.634-0.027,1.226-0.057,1.707-0.06    c0.825-0.005,1.881,0.044,2.985,0.048c-0.446,3.191-0.224,6.342-0.172,9.6c0.057,3.665-0.365,7.344-0.228,11.01    c0.112,2.96,0.383,5.931,0.491,8.901c0.085,2.345,1.446,11.191-3.846,9.015c-1.627-0.668-1.117-0.952-1.071-3.453    C318.114,396.636,318.138,394.767,318.066,392.928z M286,384.891c-0.033-6.954-0.209-13.973-0.551-20.925    c1.309,0.032,2.57-0.021,3.525-0.002c0.419,0.008,0.894,0.039,1.389,0.073c-0.937,7.346-0.036,15.943,0.536,23.217    c0.45,5.715,0.485,11.448,0.659,17.177c-1.789,0-3.563-0.01-5.342-0.019C286.554,397.934,286.031,391.347,286,384.891z     M264.581,357.038c-0.207,0.912,0.039,0.904-0.767,1.291c-0.855,0.411-3.121-0.09-4.122-0.092c-2.674-0.006-5.537,0.816-8.24,0.82    c-0.29-1.095-0.566-2.244-1.002-3.276c1.884,0.025,3.751-0.016,5.55-0.247c2.699,0.346,5.547,0.281,8.384,0.175    c0.04,0.298,0.147,0.593,0.391,0.86C264.234,355.975,264.689,356.563,264.581,357.038z M261.217,385.996    c0.436,5.925,0.022,11.854,0.631,17.754c-2.038,0.088-4.069,0.184-6.082,0.276c1.89-6.516,0.2-14.276,0.155-20.967    c-0.047-6.877,0.962-14.363-0.351-21.178c1.216-0.146,2.433-0.255,3.647-0.249c0.877,0.005,1.847,0.106,2.822,0.162    c0.11,1.562-0.823,10.126-0.798,11.602C261.311,377.545,260.912,381.867,261.217,385.996z M225.787,404.413    c-1.78,0.009-3.553,0.019-5.342,0.019c0.174-5.73,0.21-11.462,0.659-17.177c0.573-7.274,1.473-15.871,0.536-23.217    c0.494-0.034,0.97-0.065,1.389-0.073c0.954-0.018,2.216,0.034,3.525,0.002c-0.342,6.952-0.518,13.971-0.551,20.925    C225.972,391.347,225.45,397.934,225.787,404.413z M189.27,373.003c0.051-3.258,0.274-6.409-0.173-9.6    c1.106-0.003,2.16-0.054,2.985-0.048c0.479,0.003,1.073,0.033,1.707,0.06c-0.261,1.669-0.033,3.302,0.052,5.102    c0.22,4.61,0.121,9.287,0.091,13.909c-0.023,3.527,0.142,6.977,0.005,10.502c-0.072,1.838-0.048,3.707-0.014,5.548    c0.047,2.501,0.556,2.785-1.071,3.453c-5.292,2.176-3.932-6.67-3.846-9.015c0.108-2.97,0.379-5.942,0.491-8.901    C189.635,380.346,189.213,376.668,189.27,373.003z M332.724,437.391c-1.865,0.022-3.731,0.044-5.585,0.061    c-9.43,0.09-18.908,0.199-28.335,0.49c-5.06,0.156-10.158,0.11-15.221,0.394c-2.815-0.723-6.475-0.249-8.774-0.204    c-6.367,0.124-12.76,0.256-19.138,0.4c-6.663,0.15-13.781-0.229-20.666,0.411c-7.197-0.981-14.544-0.778-21.806-1.001    c-9.427-0.289-18.904-0.398-28.335-0.49c-1.854-0.018-3.72-0.04-5.585-0.061c-0.29-9.408-0.182-18.884,0.056-28.291    c0.023-0.887,0.056-1.784,0.089-2.68c9.693,1.191,19.548,1.913,29.423,2.376c6.755,0.318,13.549,0.248,20.316,0.25    c3.934,0.001,8.317,0.29,12.526,0.014c3.983,0.049,7.952,0.091,11.935,0c4.811-0.11,9.592-0.191,14.397-0.221    c4.88,0.608,10.163,0.209,14.817,0.207c6.767-0.002,13.561,0.067,20.316-0.25c9.876-0.463,19.73-1.185,29.423-2.376    c0.033,0.897,0.066,1.794,0.089,2.68C332.905,418.508,333.014,427.982,332.724,437.391z M332.473,379.468    c-0.805,7.56-0.378,15.559-0.039,23.332c-0.114-0.016-0.214-0.028-0.288-0.033c-1.712-0.115-3.396,0.123-5.088,0.332    c1.111-2.841,0.227-7.806,0.137-10.186c-0.36-9.512,0.307-20.214-1.539-29.659c1.203-0.165,2.304-0.499,3.067-1.148    c1.712-1.456,1.244-4.344,0.82-6.561c1.211,0.05,2.424,0.113,3.638,0.187c0.009,0.704,0.011,1.409,0.044,2.105    C333.572,365.233,333.258,372.101,332.473,379.468z M333.649,344.986c-0.181,2.183-0.338,4.415-0.424,6.648    c-1.89-0.076-3.779-0.132-5.647-0.154c-11.908-0.139-24.189-0.855-36.087,0.163c-6.61,0.565-13.288,0.231-19.897-0.109    c-4.757-0.246-10.535-0.803-15.594-0.073c-5.059-0.73-10.837-0.173-15.595,0.073c-6.609,0.34-13.287,0.675-19.897,0.109    c-11.898-1.018-24.179-0.301-36.087-0.163c-1.868,0.022-3.757,0.077-5.647,0.154c-0.082-2.155-0.232-4.308-0.406-6.418    c2.945,0.008,5.886,0.022,8.819,0.051c22.798,0.231,45.53,0.163,68.317,0.17c22.651,0.007,45.404,0.356,68.039-0.454    c3.368-0.121,6.738-0.117,10.109-0.065C333.653,344.939,333.65,344.964,333.649,344.986z M333.97,340.775    c-2.013-0.027-4.026-0.044-6.038-0.03c-23.401,0.173-46.786,0.649-70.196,0.657c-23.519,0.007-47.023,0.063-70.547,0.248    c-3.029,0.024-6.058,0.011-9.089-0.013c-0.18-2.425-0.411-4.946-0.976-7.272c7.414,0.314,14.936,0.121,22.254,0.007    c9.974-0.155,19.956,0.018,29.912-0.324c5.315-0.183,10.619-0.378,15.936-0.509c3.31-0.082,7.178-0.87,10.775-1.006    c3.596,0.137,7.465,0.926,10.775,1.006c5.318,0.131,10.621,0.326,15.936,0.509c9.956,0.343,19.938,0.169,29.912,0.324    c7.316,0.114,14.839,0.307,22.254-0.007C334.379,336.417,334.145,338.619,333.97,340.775z M387.321,395.156    c-0.116,13.907-0.871,27.648-1.589,41.465c-3.669,1.144-9.908,0.812-13.013,1.035c-4.749,0.343-9.38-0.227-14.118-0.315    c-6.302-0.118-12.702-0.085-19.09-0.021c-0.299-9.753-0.178-19.576,0.097-29.326c0.269-9.55-0.841-19.028-0.682-28.525    c0.128-7.585-0.593-15.103-0.822-22.652c-0.008-0.249-0.005-0.496-0.007-0.745c7.676,0.59,15.372,1.316,23.01,0.814    c5.167-0.339,10.314-1.049,15.495-0.79c4.051,0.201,8.199,0.179,12.216-0.512C388.268,368.783,387.43,381.921,387.321,395.156z     M389.064,349.117c-0.042,1.31-0.096,2.619-0.146,3.927c-1.114-0.426-2.151-0.912-3.523-1.099c-2.96-0.403-5.986-0.532-8.96-0.849    c-4.748-0.507-9.526-0.106-14.266,0.268c-6.685,0.527-13.617,1.477-20.314,0.837c-1.197-0.114-2.402-0.213-3.613-0.298    c0.176-2.302,0.471-4.585,0.74-6.866c6.065,0.174,12.132,0.429,18.194,0.431c5.635,0.001,11.242-0.014,16.857,0.295    c4.083,0.225,10.046-0.992,13.862,0.261c0.473,0.155,0.894,0.141,1.249,0.011C389.129,347.103,389.095,348.147,389.064,349.117z     M504.86,379.614c-0.223,9.845-0.022,19.559-0.56,29.416c-0.269,4.917-0.236,9.836-0.299,14.76    c-0.049,3.762,0.447,8.129-0.656,11.783c1.498,0.302,1.353,0.539-0.434,0.713c-1.232,0.602-2.538,0.947-3.92,1.035    c-2.497,0.395-4.999,0.375-7.502,0.648c-3.913,0.427-7.704,0.106-11.642,0.233c-9.055,0.294-18.004,1.383-27.102,1.408    c-9.141,0.025-18.299,0.457-27.467,0.165c-9.362-0.298-18.689-1.054-28.051-1.342c-1.156-0.035-2.327-0.076-3.506-0.117    c1.079-6.882,1.043-14.3,1.11-21.187c0.094-9.597-0.11-19.231-0.269-28.828c-0.134-8.152,0.351-16.377,0.568-24.594    c20.995,2.658,41.997-0.695,63.08-0.93c9.29-0.104,18.484-0.716,27.754-0.946c5.014-0.124,10.005-0.644,15.021-0.747    c1.222-0.025,3.154,0.271,4.938,0.236C505.561,367.407,504.999,373.509,504.86,379.614z M506.173,355.959    c-0.145,0.474-0.697,0.233-2.198,0.677c-2.306,0.682-5.906-0.035-8.32,0.009c-2.888,0.054-5.767,0.179-8.656,0.159    c-10.34-0.069-20.638,0.019-30.992-0.1c-20.296-0.234-40.466,1.951-60.782,1.786c0.023-2.986-0.019-5.968-0.159-8.944    c18.178,3.971,37.235,2.898,55.619,1.251c8.065-0.722,16.356-1.573,24.468-1.095c4.961,0.293,9.859-0.557,14.815-0.644    c2.45-0.043,4.921-0.089,7.369-0.024c1.86,0.05,5.443-0.213,7.058,0.85c1.41,0.928,1.522,1.87,1.678,3.748    c0.056,0.675,0.105,1.167,0.13,1.536C506.191,355.432,506.181,355.695,506.173,355.959z"/>
	</g>
</g>
<g>
	<g>
		<path d="M490.532,374.582c-2.055-3.029-8.022-4.052-10.55-0.98c-1.542,1.874-1.608,4.949-1.634,7.222    c-0.04,3.367-0.058,6.741-0.094,10.107c-0.018,1.759,0.157,3.437,2.083,3.972c0.977,0.271,2.574-0.145,3.581-0.122    c2.021,0.044,3.985,0.196,5.997-0.058c0.8-0.101,1.774-0.527,1.914-1.457c0.228-1.503,0.244-3.029,0.138-4.552    C492.94,383.979,493.109,378.377,490.532,374.582z M488.707,383.902c-0.388,2.344-0.328,4.649-0.549,6.985    c-2.099,0.09-4.185-0.046-6.273,0.13c0.025-0.884,0.131-2.271,0.131-2.321c0.008-1.734-0.013-3.471-0.033-5.205    c-0.03-2.637-1.025-8.243,2.994-8.148C488.488,375.423,488.821,379.608,488.707,383.902z"/>
	</g>
</g>
<g>
	<g>
		<path d="M469.674,374.582c-2.055-3.029-8.022-4.052-10.55-0.98c-1.542,1.874-1.608,4.949-1.634,7.222    c-0.04,3.367-0.059,6.741-0.094,10.107c-0.018,1.759,0.156,3.437,2.083,3.972c0.977,0.271,2.575-0.145,3.582-0.122    c2.02,0.044,3.984,0.196,5.996-0.058c0.8-0.101,1.774-0.527,1.914-1.457c0.228-1.503,0.244-3.029,0.138-4.552    C472.082,383.979,472.251,378.377,469.674,374.582z M467.848,383.902c-0.388,2.344-0.329,4.649-0.549,6.985    c-2.099,0.09-4.184-0.046-6.273,0.13c0.025-0.884,0.131-2.271,0.131-2.321c0.008-1.734-0.013-3.471-0.033-5.205    c-0.03-2.637-1.025-8.243,2.994-8.148C467.63,375.423,467.963,379.608,467.848,383.902z"/>
	</g>
</g>
<g>
	<g>
		<path d="M441.631,374.582c-2.055-3.029-8.022-4.052-10.55-0.98c-1.542,1.874-1.608,4.949-1.634,7.222    c-0.04,3.367-0.058,6.741-0.094,10.107c-0.018,1.759,0.157,3.437,2.083,3.972c0.977,0.271,2.574-0.145,3.581-0.122    c2.02,0.044,3.985,0.196,5.997-0.058c0.8-0.101,1.774-0.527,1.914-1.457c0.228-1.503,0.244-3.029,0.137-4.552    C444.038,383.979,444.207,378.377,441.631,374.582z M439.805,383.902c-0.388,2.344-0.328,4.649-0.549,6.985    c-2.099,0.09-4.185-0.046-6.273,0.13c0.025-0.884,0.131-2.271,0.131-2.321c0.008-1.734-0.013-3.471-0.033-5.205    c-0.031-2.637-1.025-8.243,2.993-8.148C439.586,375.423,439.919,379.608,439.805,383.902z"/>
	</g>
</g>
<g>
	<g>
		<path d="M420.772,374.582c-2.055-3.029-8.022-4.052-10.549-0.98c-1.542,1.874-1.608,4.949-1.634,7.222    c-0.04,3.367-0.059,6.741-0.094,10.107c-0.018,1.759,0.156,3.437,2.083,3.972c0.977,0.271,2.575-0.145,3.582-0.122    c2.02,0.044,3.984,0.196,5.995-0.058c0.8-0.101,1.774-0.527,1.914-1.457c0.228-1.503,0.244-3.029,0.137-4.552    C423.18,383.979,423.349,378.377,420.772,374.582z M418.947,383.902c-0.388,2.344-0.329,4.649-0.549,6.985    c-2.099,0.09-4.184-0.046-6.273,0.13c0.025-0.884,0.131-2.271,0.131-2.321c0.008-1.734-0.013-3.471-0.033-5.205    c-0.031-2.637-1.025-8.243,2.993-8.148C418.727,375.423,419.061,379.608,418.947,383.902z"/>
	</g>
</g>
<g>
	<g>
		<path d="M367.312,370.591c-2.057-3.027-8.024-4.051-10.552-0.979c-1.542,1.874-1.608,4.949-1.634,7.222    c-0.04,3.367-0.059,6.741-0.095,10.107c-0.018,1.759,0.157,3.437,2.083,3.972c0.977,0.271,2.574-0.145,3.582-0.123    c2.02,0.044,3.985,0.196,5.997-0.058c0.8-0.101,1.774-0.527,1.915-1.457c0.228-1.503,0.244-3.029,0.138-4.552    C369.72,379.989,369.889,374.386,367.312,370.591z M365.485,379.912c-0.388,2.344-0.329,4.649-0.549,6.985    c-2.099,0.09-4.185-0.046-6.273,0.13c0.025-0.883,0.131-2.271,0.131-2.321c0.008-1.734-0.013-3.471-0.033-5.205    c-0.031-2.637-1.025-8.243,2.993-8.148C365.265,371.434,365.599,375.619,365.485,379.912z"/>
	</g>
</g>
<g>
	<g>
		<path d="M367.312,406.761c-2.057-3.029-8.024-4.052-10.552-0.979c-1.542,1.874-1.608,4.949-1.634,7.222    c-0.04,3.367-0.059,6.741-0.095,10.107c-0.018,1.759,0.157,3.437,2.083,3.972c0.977,0.271,2.574-0.145,3.582-0.123    c2.02,0.044,3.985,0.196,5.997-0.058c0.8-0.101,1.774-0.527,1.915-1.457c0.228-1.503,0.244-3.029,0.138-4.552    C369.72,416.159,369.889,410.556,367.312,406.761z M365.485,416.083c-0.388,2.344-0.329,4.649-0.549,6.985    c-2.099,0.09-4.185-0.046-6.273,0.13c0.025-0.883,0.131-2.271,0.131-2.321c0.008-1.734-0.013-3.471-0.033-5.205    c-0.031-2.637-1.025-8.243,2.993-8.148C365.265,407.603,365.599,411.788,365.485,416.083z"/>
	</g>
</g>
<g>
	<g>
		<path d="M490.534,406.76c-2.055-3.027-8.022-4.051-10.551-0.979c-1.542,1.874-1.608,4.949-1.634,7.222    c-0.04,3.367-0.058,6.741-0.094,10.107c-0.018,1.759,0.157,3.437,2.083,3.972c0.977,0.271,2.574-0.145,3.581-0.123    c2.021,0.044,3.985,0.196,5.997-0.058c0.8-0.101,1.774-0.527,1.914-1.457c0.228-1.503,0.244-3.029,0.138-4.552    C492.942,416.158,493.109,410.555,490.534,406.76z M488.707,416.083c-0.388,2.344-0.328,4.649-0.549,6.985    c-2.099,0.09-4.185-0.046-6.273,0.13c0.025-0.883,0.131-2.271,0.131-2.321c0.008-1.734-0.013-3.471-0.033-5.205    c-0.03-2.637-1.025-8.243,2.994-8.148C488.488,407.603,488.821,411.788,488.707,416.083z"/>
	</g>
</g>
<g>
	<g>
		<path d="M469.675,406.76c-2.055-3.027-8.022-4.051-10.55-0.979c-1.542,1.874-1.608,4.949-1.634,7.222    c-0.04,3.367-0.059,6.741-0.094,10.107c-0.018,1.759,0.156,3.437,2.083,3.972c0.977,0.271,2.575-0.145,3.582-0.123    c2.02,0.044,3.984,0.196,5.996-0.058c0.8-0.101,1.774-0.527,1.914-1.457c0.228-1.503,0.244-3.029,0.138-4.552    C472.084,416.158,472.251,410.555,469.675,406.76z M467.848,416.083c-0.388,2.344-0.329,4.649-0.549,6.985    c-2.099,0.09-4.184-0.046-6.273,0.13c0.025-0.883,0.131-2.271,0.131-2.321c0.008-1.734-0.013-3.471-0.033-5.205    c-0.03-2.637-1.025-8.243,2.994-8.148C467.63,407.603,467.963,411.788,467.848,416.083z"/>
	</g>
</g>
<g>
	<g>
		<path d="M441.631,406.76c-2.055-3.027-8.022-4.051-10.551-0.979c-1.542,1.874-1.608,4.949-1.634,7.222    c-0.04,3.367-0.058,6.741-0.094,10.107c-0.018,1.759,0.157,3.437,2.083,3.972c0.977,0.271,2.574-0.145,3.581-0.123    c2.02,0.044,3.985,0.196,5.997-0.058c0.8-0.101,1.774-0.527,1.914-1.457c0.228-1.503,0.244-3.029,0.137-4.552    C444.039,416.158,444.207,410.555,441.631,406.76z M439.805,416.083c-0.388,2.344-0.328,4.649-0.549,6.985    c-2.099,0.09-4.185-0.046-6.273,0.13c0.025-0.883,0.131-2.271,0.131-2.321c0.008-1.734-0.013-3.471-0.033-5.205    c-0.031-2.637-1.025-8.243,2.993-8.148C439.586,407.603,439.919,411.788,439.805,416.083z"/>
	</g>
</g>
<g>
	<g>
		<path d="M420.773,406.76c-2.055-3.027-8.022-4.051-10.55-0.979c-1.542,1.874-1.608,4.949-1.634,7.222    c-0.04,3.367-0.059,6.741-0.094,10.107c-0.018,1.759,0.156,3.437,2.083,3.972c0.977,0.271,2.575-0.145,3.582-0.123    c2.02,0.044,3.984,0.196,5.995-0.058c0.8-0.101,1.774-0.527,1.914-1.457c0.228-1.503,0.244-3.029,0.137-4.552    C423.181,416.158,423.349,410.555,420.773,406.76z M418.947,416.083c-0.388,2.344-0.329,4.649-0.549,6.985    c-2.099,0.09-4.184-0.046-6.273,0.13c0.025-0.883,0.131-2.271,0.131-2.321c0.008-1.734-0.013-3.471-0.033-5.205    c-0.031-2.637-1.025-8.243,2.993-8.148C418.727,407.603,419.061,411.788,418.947,416.083z"/>
	</g>
</g>
<g>
	<g>
		<path d="M318.497,421.422c-0.41-3.457-2.118-6.783-5.533-8.122c-9.453-3.706-8.17,13.43-8.042,18.196    c0.027,1.023,0.835,1.84,1.86,1.86c2.23,0.043,4.193-0.019,6.426,0.268c2.2,0.282,4.547,0.237,5.216-2.162    C319.223,428.593,318.843,424.355,318.497,421.422z M315.273,429.047c-1.013,1.752-1.87,0.659-3.722,0.465    c-1.067-0.113-2.054-0.063-3.059,0.01c-0.138-2.315-0.156-4.658-0.286-6.963c-0.166-2.948,0.108-9.438,4.808-6.234    c2.528,1.724,3.026,5.39,2.966,8.203C315.953,425.837,315.95,427.875,315.273,429.047z"/>
	</g>
</g>
<g>
	<g>
		<path d="M289.736,421.422c-0.41-3.457-2.118-6.783-5.533-8.122c-9.453-3.706-8.17,13.43-8.041,18.196    c0.027,1.023,0.835,1.84,1.86,1.86c2.23,0.043,4.193-0.019,6.426,0.268c2.2,0.282,4.547,0.237,5.216-2.162    C290.461,428.593,290.082,424.355,289.736,421.422z M286.513,429.047c-1.012,1.752-1.868,0.659-3.722,0.465    c-1.067-0.113-2.054-0.063-3.06,0.01c-0.138-2.315-0.155-4.658-0.286-6.963c-0.166-2.948,0.109-9.438,4.808-6.234    c2.528,1.724,3.026,5.39,2.967,8.203C287.193,425.837,287.189,427.875,286.513,429.047z"/>
	</g>
</g>
<g>
	<g>
		<path d="M313.883,237.467c-0.943-3.055-4.766-9.019-8.669-5.562c-1.283,1.137-1.44,3.419-1.651,5.006    c-0.46,3.454-1.009,7.095-1.067,10.589c-0.073,4.252,6.374,3.851,9.682,4.01c0.195,0.066,0.402,0.063,0.585-0.006    c0.874-0.124,1.396-0.97,1.494-1.799c0.041-0.348,0.081-0.713,0.118-1.077c0.126-0.808,0.166-1.638,0.247-2.329    C314.978,243.259,314.786,240.394,313.883,237.467z M311.12,247.738c-0.969-0.122-1.933-0.268-2.904-0.397    c-0.508-0.068-1.528-0.033-2.299-0.116c-0.097-2.576-0.025-5.109,0.055-7.706c0.049-1.581-0.239-3.706,1.291-4.636    c1.266-0.768,2.648-0.279,3.443,0.909c0.853,1.275,1.023,2.951,1.08,4.443C311.811,240.88,311.049,247.729,311.12,247.738z"/>
	</g>
</g>
<g>
	<g>
		<path d="M299.202,240.758c-0.052-4.094-0.721-9.114-4.511-11.413c-3.739-2.267-7.613-2.977-9.727,1.503    c-2.309,4.897-2.238,10.749-2.364,15.995c-0.049,2.03,2.013,1.699,3.317,1.69c2.406-0.016,4.798,0.487,7.168,0.823    c1.468,0.207,3.868,0.652,4.971-0.682C299.324,247.142,299.227,242.661,299.202,240.758z M295.655,244.913    c-0.011,0.229-0.033,0.48-0.055,0.738c-1.307,0.373-3.041-0.1-4.304-0.229c-1.547-0.157-3.368-0.465-5.082-0.51    c-0.138-2.807-0.19-5.52,0.214-8.406c0.113-0.805,0.257-1.585,0.424-2.381c0.485-2.324,1.279-4.01,4.079-3.703    c2.136,0.235,4.085,1.973,4.613,3.985C296.426,237.766,295.824,241.517,295.655,244.913z"/>
	</g>
</g>
<g>
	<g>
		<path d="M269.97,225.731c-11.001-0.403-8.808,13.857-8.235,21c0.067,0.844,0.503,1.377,1.284,1.687    c3.651,1.455,8.151,1.291,11.952,0.823c1.039-0.129,1.819-0.41,2.41-0.8c0.254-0.065,0.5-0.249,0.614-0.465    c0.014-0.027,0.026-0.056,0.04-0.083c0.451-0.511,0.691-1.142,0.786-1.85C281.455,238.476,279.481,226.079,269.97,225.731z     M276.109,243.654c-0.022,0.234-0.184,1.116-0.216,1.883c-0.088,0.164-0.174,0.288-0.258,0.35    c-0.035,0.025-2.678-0.021-3.132,0.011c-2.072,0.142-5.145-0.016-7.469-0.558c-0.838-5.434-2.909-17.031,4.541-16.807    c5.04,0.153,6.778,5.323,6.855,9.495C276.464,239.951,276.286,241.739,276.109,243.654z"/>
	</g>
</g>
<g>
	<g>
		<path d="M263.677,423.762c-0.591-2.686-0.158-6.238-1.745-8.622c-2.797-4.205-8.302-1.096-10.537,1.902    c-3.113,4.176-2.171,8.828-1.768,13.533c0.071,0.824,0.335,1.702,1.008,2.183c0.994,0.71,2.879,0.475,4.038,0.616    c1.609,0.197,3.202-0.113,4.826-0.135c1.792-0.025,3.874-0.082,4.543-1.998C264.818,429.012,264.162,425.957,263.677,423.762z     M258.998,429.852c-1.071-0.011-2.259,0.139-3.318,0.29c-0.96,0.138-2.131,0.753-3.023,0.068c-1.358-1.043-0.616-5.55-0.435-7.066    c0.24-2.008,1.123-4.246,2.679-5.653c0.778-0.704,2.725-1.775,3.826-1.308c0.986,0.419,1.201,1.857,1.338,2.742    c0.458,2.953,1.203,6.341,1.159,9.276C261.194,430.203,261.294,429.876,258.998,429.852z"/>
	</g>
</g>
<g>
</g>
<g>
</g>
<g>
</g>
<g>
</g>
<g>
</g>
<g>
</g>
<g>
</g>
<g>
</g>
<g>
</g>
<g>
</g>
<g>
</g>
<g>
</g>
<g>
</g>
<g>
</g>
<g>
</g>
</svg>
