<?xml version="1.0" encoding="iso-8859-1"?>
<!-- Generator: Adobe Illustrator 19.0.0, SVG Export Plug-In . SVG Version: 6.00 Build 0)  -->
<svg xmlns="http://www.w3.org/2000/svg" xmlns:xlink="http://www.w3.org/1999/xlink" version="1.1" id="Layer_1" x="0px" y="0px" viewBox="0 0 511.994 511.994" style="enable-background:new 0 0 511.994 511.994;" xml:space="preserve">
<g>
	<g>
		<path d="M511.819,239.583c-0.327-9.092-0.197-18.529-0.954-27.703c0.117-3.145,0.362-6.501,0.007-9.43    c-0.328-2.713-1.787-3.395-3.54-5.234c-2.059-2.163-3.81-4.192-6.201-6.006c-0.83-0.629-2.255-0.313-2.925,0.378    c-2.69,2.773-7.548,5.113-8.985,8.792c-0.784,2.005-0.037,5.099,0.048,7.152c0.07,1.685,0.076,3.345,0.075,5.009    c-1.613,0.085-3.229,0.106-4.841,0.154c0.007-0.306,0.013-0.609,0.025-0.896c0.124-3.042,0.77-7.337,0.16-10.323    c-0.489-2.386-2.62-4.215-4.07-6.096c-1.599-2.073-3.08-5.023-5.344-6.452c-0.669-0.422-1.745-0.468-2.409,0    c-1.735,1.224-3.03,3.004-4.699,4.356c-1.69,1.37-4.611,2.84-5.799,4.769c-1.28,2.079-0.405,5.067-0.125,7.353    c0.19,1.555,0.303,3.125,0.347,4.698c-0.626,2.441-1.476,5.754-3.811,3.828c-1.452-1.198-0.745-8.049-0.966-9.921    c-0.701-5.936-5.045-10.185-9.118-14.353c-0.631-0.646-1.598-0.699-2.372-0.306c-2.438,1.238-5.027,4.279-7.182,6.122    c-2.049,1.751-3.784,3.812-4.189,6.559c-0.72,4.902-1.46,11.929-0.523,17.467c-0.1,3.936-0.256,7.827-0.491,11.796    c-0.338,5.712-0.477,11.481-0.554,17.251c-0.906,0.004-1.795-0.147-2.698-0.186c-0.51-0.022-1.029,0.117-1.534,0.072    c-0.508-0.044-0.831-0.297-1.112-0.717c-0.516-0.767-0.262-1.335-0.261-2.171c0.001-0.5-0.029-1-0.05-1.499    c-0.085-1.96,0.2-4.369-0.618-6.136c-1.055-2.276-2.958-4.704-4.328-6.849c-0.843-1.319-1.739-3.082-3.587-2.869    c-1.231,0.141-2.293,1.196-3.183,1.899c-2.236,1.768-4.816,3.763-6.553,6.036c-1.583,2.071-1.013,4.427-0.779,6.905    c0.122,1.295,0.271,2.619,0.297,3.919c0.02,0.962-0.485,1.825-1.533,1.888c-2.561,0.155-2.218-3.299-2.287-4.899    c-0.085-1.96,0.2-4.369-0.618-6.136c-1.056-2.276-2.958-4.704-4.328-6.849c-0.843-1.319-1.739-3.082-3.587-2.869    c-1.231,0.141-2.292,1.196-3.183,1.899c-2.236,1.768-4.816,3.763-6.552,6.036c-1.583,2.071-1.013,4.427-0.779,6.905    c0.128,1.354,0.373,2.841,0.288,4.2c-0.05,0.803-0.598,1.342-1.405,1.364c-2.553,0.07-2.186-2.857-2.258-4.551    c-0.085-1.96,0.202-4.369-0.618-6.136c-1.056-2.276-2.958-4.704-4.328-6.849c-0.843-1.319-1.739-3.082-3.587-2.869    c-1.231,0.141-2.293,1.196-3.183,1.899c-2.236,1.768-4.816,3.763-6.552,6.036c-1.583,2.071-1.013,4.427-0.779,6.905    c0.096,1.015,0.166,2.033,0.219,3.051c0.04,0.745,0.179,1.661-0.577,2.101c-0.436,0.254-0.968,0.308-1.47,0.246    c-0.384-0.047-1.009-0.133-1.342-0.327c-0.259-0.151-0.114,0.071-0.244-0.239c-0.075-0.18,0.037-0.627,0.043-0.83    c0.031-0.997-0.007-1.994-0.049-2.99c-0.085-1.96,0.2-4.369-0.618-6.136c-1.056-2.276-2.958-4.704-4.328-6.849    c-0.843-1.319-1.739-3.082-3.587-2.869c-1.231,0.141-2.293,1.196-3.183,1.899c-2.236,1.768-4.816,3.763-6.553,6.036    c-1.583,2.071-1.013,4.427-0.779,6.905c0.089,0.94,0.155,1.881,0.207,2.823c0.032,0.582,0.415,1.931-0.046,2.362    c-0.733,0.684-2.608,0.763-3.213-0.153c-0.694-1.048-0.168-2.759-0.218-3.914c-0.085-1.96,0.2-4.369-0.619-6.136    c-1.056-2.276-2.958-4.704-4.328-6.849c-0.843-1.319-1.739-3.082-3.587-2.869c-1.231,0.141-2.293,1.196-3.183,1.9    c-2.236,1.768-4.816,3.763-6.552,6.036c-1.583,2.071-1.013,4.427-0.779,6.905c0.085,0.894,0.149,1.79,0.2,2.688    c0.036,0.635,0.416,1.613-0.096,2.11c-0.244,0.236-0.573,0.359-0.897,0.458c-1.29,0.396-2.763,0.59-4.107,0.383    c-0.467-0.072-0.807-0.288-1.238-0.446c-0.628-0.23-1.357-0.22-2.018-0.23c-0.09-2.083-0.173-4.166-0.224-6.25    c-0.212-8.612-1.049-17.126-2.228-25.633c2.185,0.33,4.38,0.478,6.497,0.323c5.781-0.422,3.766-6.331,3.633-10.224    c-0.141-4.174-1.158-6.215-5.476-7.257c-1.47-0.355-2.986-0.577-4.517-0.699c0.786-2.766,0.491-6.057,0.499-8.779    c0.011-3.74,0.503-8.056,0.061-11.704c-0.328-2.713-1.787-3.395-3.54-5.234c-2.059-2.163-3.81-4.192-6.202-6.006    c-0.829-0.63-2.255-0.313-2.925,0.378c-2.69,2.773-7.548,5.113-8.985,8.792c-0.783,2.005-0.037,5.099,0.048,7.152    c0.069,1.685,0.076,3.345,0.075,5.009c-1.613,0.085-3.229,0.106-4.841,0.154c0.007-0.306,0.013-0.609,0.026-0.896    c0.124-3.042,0.772-7.337,0.159-10.323c-0.489-2.386-2.62-4.215-4.07-6.096c-1.599-2.073-3.08-5.023-5.344-6.452    c-0.669-0.422-1.745-0.468-2.408,0c-1.735,1.224-3.029,3.004-4.699,4.356c-1.69,1.37-4.611,2.84-5.8,4.769    c-1.28,2.079-0.405,5.067-0.125,7.353c0.327,2.664,0.424,5.371,0.332,8.063c-0.089,0.057-0.183,0.122-0.232,0.169    c-0.155,0.004-0.343,0.015-0.37,0.037c-0.053,0.006-0.096,0.01-0.143,0.014c-0.043-0.004-0.082-0.009-0.133-0.013    c-0.659-0.019-1.344,0.039-2.005,0.076c-0.925,0.051-1.849,0.147-2.776,0.202c-1.14,0.067-2.291,0.157-3.435,0.121    c-0.085-0.002-0.173-0.016-0.26-0.031c-0.13-2.879-0.045-5.781,0.305-8.635c0.281-2.286,1.156-5.274-0.125-7.353    c-1.188-1.93-4.11-3.399-5.799-4.769c-1.669-1.353-2.964-3.132-4.699-4.356c-0.664-0.468-1.74-0.422-2.408,0    c-2.265,1.43-3.744,4.379-5.344,6.452c-1.451,1.881-3.582,3.71-4.07,6.096c-0.611,2.985,0.036,7.282,0.16,10.323    c0.012,0.288,0.018,0.59,0.024,0.896c-1.612-0.048-3.228-0.069-4.841-0.154c-0.001-1.666,0.004-3.326,0.075-5.009    c0.085-2.053,0.831-5.146,0.048-7.152c-1.436-3.679-6.295-6.018-8.985-8.792c-0.67-0.69-2.096-1.007-2.925-0.377    c-2.392,1.814-4.142,3.842-6.202,6.006c-1.753,1.841-3.211,2.521-3.54,5.234c-0.442,3.649,0.05,7.964,0.061,11.704    c0.008,2.723-0.287,6.015,0.499,8.779c-1.531,0.122-3.047,0.345-4.517,0.699c-4.318,1.042-5.334,3.083-5.476,7.257    c-0.131,3.893-2.148,9.801,3.633,10.223c2.117,0.155,4.312,0.007,6.497-0.323c-1.179,8.508-2.016,17.021-2.228,25.633    c-0.051,2.083-0.134,4.166-0.224,6.25c-0.661,0.01-1.391,0-2.018,0.231c-0.431,0.158-0.771,0.375-1.238,0.446    c-1.344,0.207-2.816,0.013-4.107-0.383c-0.324-0.099-0.655-0.222-0.897-0.458c-0.512-0.495-0.133-1.474-0.096-2.11    c0.051-0.896,0.116-1.793,0.2-2.688c0.234-2.478,0.804-4.834-0.779-6.905c-1.738-2.272-4.318-4.268-6.552-6.036    c-0.891-0.704-1.952-1.758-3.183-1.899c-1.848-0.213-2.745,1.549-3.587,2.869c-1.37,2.144-3.272,4.573-4.328,6.849    c-0.819,1.767-0.534,4.177-0.619,6.136c-0.05,1.155,0.475,2.866-0.218,3.914c-0.606,0.915-2.482,0.836-3.213,0.153    c-0.461-0.431-0.078-1.779-0.046-2.362c0.052-0.942,0.119-1.883,0.207-2.823c0.234-2.479,0.804-4.835-0.779-6.906    c-1.738-2.272-4.317-4.267-6.552-6.036c-0.891-0.704-1.952-1.758-3.183-1.899c-1.848-0.213-2.745,1.549-3.587,2.869    c-1.37,2.144-3.272,4.573-4.328,6.849c-0.819,1.767-0.534,4.177-0.618,6.136c-0.042,0.995-0.08,1.993-0.049,2.99    c0.007,0.203,0.118,0.649,0.043,0.829c-0.129,0.311,0.017,0.088-0.244,0.239c-0.333,0.195-0.958,0.279-1.342,0.327    c-0.502,0.061-1.032,0.008-1.47-0.246c-0.756-0.44-0.616-1.356-0.577-2.101c0.053-1.018,0.124-2.035,0.219-3.051    c0.234-2.479,0.804-4.834-0.779-6.905c-1.738-2.273-4.318-4.267-6.554-6.036c-0.891-0.704-1.952-1.758-3.183-1.9    c-1.848-0.213-2.745,1.549-3.587,2.869c-1.37,2.144-3.272,4.573-4.328,6.849c-0.819,1.767-0.534,4.176-0.618,6.136    c-0.072,1.693,0.295,4.621-2.258,4.551c-0.806-0.022-1.355-0.561-1.405-1.364c-0.086-1.358,0.16-2.846,0.288-4.2    c0.234-2.479,0.804-4.834-0.779-6.905c-1.738-2.273-4.317-4.267-6.554-6.036c-0.891-0.704-1.952-1.758-3.183-1.9    c-1.848-0.213-2.745,1.549-3.587,2.869c-1.37,2.144-3.272,4.573-4.328,6.849c-0.819,1.767-0.534,4.176-0.618,6.136    c-0.069,1.601,0.274,5.055-2.287,4.899c-1.048-0.063-1.554-0.926-1.533-1.888c0.027-1.3,0.175-2.624,0.297-3.919    c0.234-2.479,0.804-4.835-0.779-6.906c-1.738-2.272-4.317-4.268-6.554-6.036c-0.891-0.704-1.952-1.758-3.183-1.9    c-1.848-0.213-2.745,1.549-3.587,2.869c-1.37,2.144-3.272,4.573-4.328,6.849c-0.819,1.767-0.534,4.177-0.618,6.136    c-0.021,0.499-0.051,1-0.05,1.499c0.001,0.836,0.255,1.405-0.261,2.171c-0.283,0.42-0.605,0.672-1.112,0.717    c-0.505,0.044-1.024-0.095-1.534-0.072c-0.902,0.039-1.79,0.19-2.698,0.186c-0.078-5.771-0.216-11.538-0.555-17.251    c-0.235-3.968-0.392-7.86-0.491-11.796c0.936-5.539,0.198-12.565-0.523-17.467c-0.404-2.747-2.14-4.808-4.189-6.559    c-2.156-1.842-4.744-4.883-7.182-6.122c-0.774-0.392-1.74-0.34-2.372,0.306c-4.073,4.168-8.416,8.416-9.118,14.353    c-0.222,1.873,0.485,8.724-0.966,9.921c-2.335,1.926-3.185-1.386-3.811-3.828c0.046-1.572,0.157-3.142,0.347-4.698    c0.281-2.286,1.156-5.274-0.125-7.353c-1.188-1.93-4.109-3.399-5.799-4.769c-1.669-1.353-2.964-3.132-4.699-4.356    c-0.664-0.468-1.74-0.422-2.409,0c-2.265,1.43-3.744,4.379-5.344,6.452c-1.451,1.881-3.582,3.71-4.07,6.096    c-0.611,2.985,0.036,7.282,0.16,10.323c0.012,0.288,0.018,0.59,0.024,0.896c-1.612-0.048-3.228-0.069-4.841-0.154    c-0.002-1.666,0.004-3.326,0.075-5.009c0.085-2.053,0.831-5.146,0.047-7.152c-1.437-3.679-6.295-6.018-8.985-8.792    c-0.67-0.69-2.095-1.007-2.925-0.377c-2.392,1.814-4.142,3.844-6.201,6.006c-1.753,1.841-3.211,2.521-3.54,5.234    c-0.355,2.929-0.11,6.284,0.007,9.43c-0.757,9.176-0.627,18.611-0.954,27.703c-0.425,11.812,0.058,23.449,0.078,35.251    c0.019,11.823,0.352,23.84,0.965,35.661c0.284,5.462,0.42,10.93,0.621,16.392c0.136,3.693,0.408,7.398,0.582,11.096    c0.057,1.198,0.126,2.442,0.689,3.502c0.583,1.097,1.693,1.897,2.917,2.105c2.64,0.449,4.186-1.691,5.403-3.677    c0.45-0.733,0.771-1.651,1.405-2.251c0.639-0.603,0.952,0.277,1.11,0.828c0.499,1.739,0.818,3.408,2.058,4.815    c0.84,0.953,2.387,0.599,3.001-0.386c1.145-1.843,4.582-12.106,7.494-10.929c1.021,0.412-0.665,6.109-0.147,7.86    c0.403,1.362,2.103,2.203,3.376,1.374c2.88-1.877,5.764-9.69,9.235-7.433c2.789,1.813-0.63,5.527,1.05,8.445    c0.395,0.687,1.421,1.209,2.213,0.901c1.586-0.617,2.212-1.632,3.364-2.923c0.789-0.885,1.473-1.867,2.352-2.671    c0.912-0.834,2.085-1.24,3.314-1.251c0.4-0.003,1.003-0.019,1.276,0.337c0.289,0.379,0.166,1.106,0.059,1.523    c-0.644,2.522-2.834,6.289-0.23,8.386c0.99,0.798,2.015,0.952,3.168,0.409c2.417-1.138,5.9-5.14,8.74-4.773    c2.552,0.33,3.08,3.74,5.625,4.189c4.149,0.732,4.178-4.625,5.288-8.303c0.146-0.482,0.907-1.156,1.27-1.501    c0.292-0.278,0.607-0.425,0.966-0.592c0.59-0.275,1.195-0.622,1.837-0.76c0.56-0.119,1.142,0.02,1.691,0.146    c0.812,0.187,1.308,0.491,1.53,1.315c0.452,1.679,1.011,3.339,1.705,4.94c0.785,1.81,2.04,3.547,4.243,3.304    c1.314-0.145,2.181-0.769,2.642-2.012c0.401-1.081,0.159-2.289,0.308-3.39c0.155-1.146,1.341-2.253,2.32-2.727    c0.855-0.414,2.187-0.213,2.83,0.538c0.229,0.268,0.327,0.671,0.5,0.98c0.298,0.533,0.582,1.072,0.848,1.622    c0.313,0.647,0.745,1.226,0.987,1.896c0.531,1.474,1.017,3.001,2.021,4.235c0.434,0.533,1.466,0.816,2.109,0.558    c2.469-0.997,2.868-3.357,3.829-5.665c2.828-6.797,5.116,3.135,6.958,5.562c0.916,1.208,2.104,1.822,3.636,1.48    c5.321-1.188,1.853-8.204,4.594-10.993c3.089-3.141,9.509,3.081,10.885,4.906c1.351,1.792,2.039,3.566,4.347,4.201    c0.789,0.217,1.92,0.035,2.458-0.649c2.965-3.767,0.549-9.68,3.371-13.505c2.642-3.58,3.599,2.006,4.655,4.619    c0.736,1.819,1.12,2.992,2.678,4.173c0.654,0.495,1.902,0.468,2.56,0c3.859-2.743,5.009-9.146,7.232-13.117    c0.864-1.543,1.874-4.564,1.609,0.126c-0.116,2.053-0.623,4.153-1.077,6.149c-0.509,2.244-1.698,4.597-0.856,6.86    c0.835,2.242,3.155,2.76,4.983,1.315c3.253-2.572,4.64-6.708,6.51-10.257c1.044-1.981,2.249-4.003,4.051-5.39    c0.346-0.267,1.001-0.878,1.472-0.618c0.372,0.206,0.186,0.582,0.07,0.902c-0.441,1.204-0.514,2.512-0.738,3.769    c-0.253,1.421-0.543,2.835-0.792,4.257c-0.396,2.271-0.819,3.988,0.295,6.107c0.977,1.857,3.751,2.15,5.169,0.666    c2.391-2.504,7.176-13.173,11.057-12.614c1.462,0.212,0.569,1.563,0.204,3.236c-0.289,1.323-0.784,2.646-0.978,3.988    c-0.223,1.535-0.163,2.613,0.129,4.154c0.13,0.686,0.443,1.498,1.037,1.903c0.886,0.606,2.061,1.063,2.975,0.274    c2.725-2.353,4.114-6.352,7.003-8.518c2.481-1.859,3.631-2.024,4.72,1.558c0.718,2.362,1.126,5,1.542,7.432    c0.301,1.75,2.983,1.987,3.765,0.492c1.446-2.763,1.514-7.954,5.056-8.056c3.305-0.095,4.081,4.783,4.993,7.552    c0.823,2.5,3.733,2.603,5.199,0.679c1.539-2.021,1.475-4.718,2.396-7.03c1.854-4.657,3.777-0.718,5.664,1.5    c1.108,1.303,3.749,1.364,4.84,0c1.817-2.27,1.905-5.351,2.698-8.083c0.934-3.221,2.398-5.621,4.232-8.147    c0.886,0.158,1.299,1.197,1.727,2.859c0.894,3.478,0.478,7.399,1.623,10.76c0.777,2.284,4.125,2.471,4.827,0    c1.002-3.533,2.48-13.614,7.575-13.598c0.656,0.002,1.23,0.174,1.75,0.46c1.672,2.354,3.014,4.65,3.889,7.666    c0.793,2.732,0.881,5.813,2.698,8.083c1.091,1.364,3.732,1.303,4.84,0c1.887-2.218,3.811-6.157,5.664-1.5    c0.921,2.311,0.857,5.008,2.396,7.03c1.465,1.924,4.376,1.82,5.199-0.679c0.912-2.769,1.688-7.647,4.993-7.552    c3.542,0.101,3.61,5.291,5.055,8.056c0.783,1.495,3.465,1.258,3.765-0.492c0.416-2.432,0.825-5.07,1.542-7.432    c1.089-3.582,2.239-3.417,4.72-1.558c2.889,2.166,4.279,6.165,7.003,8.518c0.914,0.789,2.089,0.332,2.975-0.274    c0.592-0.405,0.906-1.216,1.037-1.903c0.293-1.541,0.352-2.619,0.129-4.154c-0.195-1.343-0.689-2.666-0.978-3.988    c-0.365-1.672-1.258-3.024,0.204-3.236c3.881-0.56,8.668,10.11,11.057,12.614c1.416,1.484,4.192,1.191,5.169-0.666    c1.115-2.119,0.691-3.836,0.295-6.107c-0.248-1.422-0.539-2.836-0.792-4.257c-0.224-1.258-0.297-2.565-0.738-3.769    c-0.117-0.32-0.302-0.697,0.07-0.902c0.471-0.261,1.126,0.352,1.472,0.618c1.802,1.386,3.007,3.408,4.051,5.39    c1.871,3.549,3.257,7.685,6.51,10.257c1.827,1.444,4.148,0.927,4.983-1.315c0.843-2.261-0.346-4.615-0.856-6.86    c-0.453-1.996-0.961-4.095-1.077-6.149c-0.265-4.69,0.746-1.669,1.609-0.126c2.222,3.972,3.374,10.373,7.232,13.117    c0.658,0.468,1.906,0.495,2.56,0c1.558-1.181,1.943-2.354,2.678-4.173c1.057-2.612,2.013-8.198,4.655-4.619    c2.823,3.825,0.406,9.738,3.371,13.505c0.539,0.685,1.669,0.867,2.458,0.649c2.308-0.635,2.997-2.409,4.347-4.201    c1.376-1.825,7.797-8.047,10.885-4.906c2.742,2.789-0.726,9.805,4.594,10.993c1.531,0.342,2.719-0.272,3.636-1.48    c1.842-2.426,4.129-12.359,6.958-5.562c0.96,2.307,1.359,4.669,3.829,5.665c0.642,0.258,1.673-0.023,2.109-0.558    c1.004-1.235,1.491-2.76,2.021-4.235c0.242-0.67,0.674-1.249,0.986-1.896c0.266-0.55,0.549-1.089,0.848-1.622    c0.173-0.308,0.271-0.711,0.5-0.98c0.642-0.75,1.974-0.952,2.83-0.538c0.98,0.474,2.167,1.581,2.321,2.727    c0.148,1.102-0.094,2.31,0.308,3.39c0.461,1.243,1.328,1.867,2.642,2.012c2.203,0.244,3.458-1.493,4.243-3.304    c0.694-1.601,1.253-3.261,1.705-4.94c0.222-0.824,0.718-1.128,1.53-1.315c0.548-0.126,1.13-0.265,1.69-0.146    c0.642,0.137,1.248,0.484,1.837,0.76c0.36,0.168,0.674,0.315,0.965,0.592c0.363,0.346,1.125,1.019,1.27,1.501    c1.11,3.679,1.139,9.035,5.288,8.303c2.545-0.449,3.073-3.859,5.625-4.189c2.84-0.366,6.323,3.635,8.74,4.773    c1.152,0.542,2.178,0.39,3.168-0.409c2.604-2.098,0.413-5.864-0.23-8.386c-0.107-0.418-0.23-1.145,0.059-1.523    c0.273-0.357,0.876-0.342,1.276-0.337c1.228,0.011,2.402,0.418,3.314,1.251c0.878,0.804,1.562,1.786,2.352,2.671    c1.151,1.29,1.778,2.306,3.364,2.923c0.792,0.308,1.818-0.214,2.214-0.901c1.68-2.918-1.739-6.633,1.05-8.445    c3.471-2.257,6.354,5.556,9.235,7.433c1.274,0.83,2.973-0.012,3.376-1.374c0.518-1.749-1.167-7.447-0.147-7.86    c2.913-1.177,6.35,9.088,7.494,10.929c0.612,0.986,2.161,1.339,3,0.386c1.239-1.406,1.558-3.075,2.058-4.815    c0.158-0.552,0.472-1.432,1.11-0.828c0.635,0.6,0.956,1.519,1.405,2.251c1.218,1.985,2.764,4.126,5.404,3.677    c1.225-0.208,2.334-1.009,2.917-2.105c0.563-1.06,0.632-2.304,0.689-3.502c0.176-3.699,0.446-7.403,0.582-11.096    c0.202-5.461,0.337-10.929,0.621-16.392c0.613-11.822,0.945-23.837,0.965-35.661C511.761,263.032,512.245,251.395,511.819,239.583    z M72.685,264.458c-0.164,11.887-0.306,23.71-0.62,35.588c-0.141,5.375-0.281,10.741-0.575,16.114    c-0.141,2.582-0.408,5.157-0.45,7.744c-0.042,2.554,0.412,5.069,0.198,7.616c-0.068,0.801-0.193,1.594-0.374,2.377    c-0.178,0.765-0.474,1.39-0.758,2.104c-0.31,0.781-0.763,1.887-1.077,2.996c-3.407-3.971-8.168-1.353-12.174,1.12    c0.441-2.045,0.876-4.593,0.812-5.204c-0.226-2.167-1.326-3.721-3.43-4.307c-2.148-0.598-4.409,0.508-6.204,1.589    c-1.746,1.052-3.035,3.07-4.404,4.775c0.563-1.916,1.43-4.109,1.257-5.417c-0.277-2.098-1.317-3.613-3.422-4.166    c-2.725-0.717-5.611,0.926-7.704,2.455c-1.189,0.868-2.068,2.054-2.899,3.263c0.184-1.442,0.259-2.887-0.305-4.257    c-0.361-0.875-0.935-1.353-1.887-1.436c-6.087-0.533-8.132,6.266-10.865,10.779c-0.349-2.69,0.294-5.976-3.045-6.558    c-2.486-0.434-4.35,1.257-5.881,3.299c0.128-2.56-0.327-5.154-0.4-8.047c-0.128-5.138-0.082-10.284-0.361-15.423    c-0.659-12.143-0.753-24.485-0.865-36.631c-0.106-11.459-0.697-22.846-0.581-34.32c0.075-7.367,0.24-14.855-0.175-22.273    c0.346-4.003-0.125-8.338-0.08-11.889c0.047-3.699-0.213-2.808,2.303-5.558c1.199-1.312,2.475-2.693,3.663-4.086    c2.205,1.663,4.98,3.504,5.652,5.48c0.541,1.596-0.259,4.551-0.344,6.225c-0.109,2.162,0.019,4.221,0.068,6.373    c0.032,1.437,1.102,2.287,2.445,2.445c3.02,0.355,5.979,0.744,9.003,0.568c1.349-0.078,2.13-0.935,2.357-1.92    c1.888-2.933,0.921-7.663,1.036-10.817c0.101-2.794,0.888-3.793,2.454-5.971c0.944-1.314,1.975-3.297,3.129-4.844    c0.813,0.821,1.658,1.814,2.425,2.408c1.286,0.997,4.751,3.161,5.039,3.697c0.163,0.302-1.032,5.647-1.148,7.143    c-0.174,2.238-0.423,4.685-0.011,6.91c0.34,1.837,2.011,3.171,3.711,3.713c1.583,0.505,3.257,0.471,4.897,0.393    c1.403-0.066,2.682-0.528,3.693-1.574c2.886-2.987,2.051-8.681,2.337-12.386c0.316-4.092,2.897-7.748,5.701-10.816    c1.125,1.27,2.424,3.288,3.334,4.134c0.978,0.91,2.18,1.659,2.847,2.859c1.011,1.816,0.513,3.916,0.519,5.935    c0.015,4.669-0.63,10.258,0.588,14.852c0.098,3.415,0.479,6.822,0.673,9.783C73.5,242.199,72.836,253.518,72.685,264.458z     M196.771,332.941c0.843-3.85,1.401-7.832-2.877-9.115c-4.378-1.314-8.008,1.457-11.101,4.943c0.269-1.78,0.528-3.634,0.243-5.373    c-0.501-3.049-2.716-5.203-5.98-4.759c-3.687,0.501-6.634,3.733-8.796,6.462c-0.393,0.497-0.766,1.003-1.126,1.516    c-0.018-0.271-0.019-0.546-0.059-0.811c-0.415-2.78-1.815-5.617-4.823-5.894c-2.753-0.254-4.752,1.768-6.191,3.913    c-1.218,1.815-2.055,4.082-2.916,6.089c-0.387,0.903-0.934,3.029-1.613,4.632c-1.167-2.26-1.812-5.609-3.455-7.226    c-1.454-1.43-3.337-1.922-5.351-1.348c-2.335,0.665-3.541,2.588-4.461,4.652c-0.874,1.961-1.498,4.158-1.901,6.265    c-0.094,0.487-0.108,1.175-0.121,1.905c-0.269-0.392-0.51-0.74-0.696-0.944c-1.221-1.335-2.317-2.387-3.866-3.305    c-2.572-1.523-6.761-4.054-9.943-3.708c-3.768,0.41-5.256,3.495-6.202,6.836c-1.658-2.476-3.652-4.536-7.382-4.2    c-1.431,0.129-2.592,0.834-3.55,1.85c-0.84,0.892-1.502,3.556-2.183,5.424c-1.817-3.201-3.251-7.195-7.185-8.028    c-2.095-0.443-3.806,0.579-5.18,2.033c-0.512,0.542-1.24,1.721-1.684,2.568c-0.176-0.411-0.356-0.821-0.529-1.233    c-2.166-5.077-3.967-9.294-10.212-6.536c-0.046,0.02-0.087,0.045-0.133,0.066c0.978-3.723,0.072-8.286,0.272-11.996    c0.286-5.307,0.636-10.654,0.621-15.965c-0.036-12.414,0.551-24.766,0.38-37.197c-0.05-3.644-0.076-7.307-0.109-10.974    c1.13,0.069,2.211-0.148,3.355-0.235c2.107-0.159,5.652,0.243,6.33-2.427c0.156-0.615,0.16-1.257,0.163-1.892    c0.007-1.437,0.014-2.875,0.021-4.312c0.006-1.323-0.088-2.663,0.108-3.978c0.188-1.262,1.307-2.589,2.263-4.081    c0.56-0.875,1.074-1.78,1.62-2.666c0.061-0.099,0.169-0.238,0.29-0.389c0.11,0.096,0.219,0.19,0.316,0.284    c1.621,1.569,3.911,3.177,5.042,5.142c1.557,2.709-0.993,8.563,0.181,12.199c0.019,0.057,0.043,0.099,0.063,0.154    c0.031,0.111,0.087,0.216,0.134,0.323c0.021,0.043,0.04,0.094,0.061,0.135c0.068,0.131,0.153,0.258,0.249,0.382    c0.033,0.042,0.069,0.08,0.104,0.119c0.076,0.086,0.131,0.176,0.224,0.256c1.639,1.431,3.91,1.302,5.825,1.074    c1.543-0.184,3.92,0.401,5.196-0.772c0.581-0.534,0.685-1.421,0.804-2.154c0.195-1.19,0.315-2.396,0.315-3.602    c0.001-2.176-0.44-4.336-0.116-6.509c0.188-1.261,1.307-2.589,2.262-4.081c0.56-0.875,1.074-1.78,1.62-2.666    c0.061-0.099,0.169-0.238,0.289-0.389c0.11,0.096,0.219,0.19,0.316,0.284c1.621,1.569,3.911,3.177,5.042,5.142    c1.557,2.709-0.993,8.562,0.182,12.199c0.019,0.057,0.043,0.099,0.063,0.154c0.031,0.111,0.087,0.216,0.134,0.323    c0.021,0.043,0.04,0.094,0.061,0.135c0.068,0.131,0.153,0.258,0.249,0.382c0.033,0.042,0.069,0.08,0.104,0.119    c0.076,0.086,0.131,0.176,0.224,0.256c1.639,1.431,3.91,1.302,5.826,1.074c1.402-0.167,2.925,0.198,4.26-0.392    c0.531-0.235,1.034-0.57,1.199-1.133c0.254-0.865,0.245-1.913,0.326-2.809c0.072-0.801,0.306-1.574,0.372-2.357    c0.175-2.079-0.418-4.142-0.105-6.242c0.188-1.262,1.307-2.589,2.262-4.081c0.56-0.875,1.074-1.78,1.62-2.666    c0.061-0.099,0.169-0.238,0.289-0.389c0.11,0.096,0.219,0.19,0.316,0.284c1.62,1.569,3.911,3.177,5.042,5.142    c1.557,2.709-0.993,8.562,0.182,12.199c0.019,0.057,0.043,0.099,0.063,0.154c0.031,0.111,0.087,0.216,0.134,0.323    c0.021,0.043,0.04,0.094,0.061,0.135c0.068,0.131,0.153,0.258,0.249,0.382c0.033,0.042,0.069,0.08,0.104,0.119    c0.076,0.086,0.131,0.176,0.224,0.256c1.639,1.431,3.91,1.302,5.825,1.074c1.548-0.184,3.856,0.37,5.161-0.753    c0.606-0.521,0.69-1.561,0.812-2.29c0.195-1.168,0.266-2.356,0.24-3.541c-0.046-2.117-0.431-4.237-0.116-6.349    c0.188-1.262,1.307-2.589,2.262-4.081c0.56-0.875,1.074-1.78,1.62-2.666c0.061-0.099,0.169-0.238,0.289-0.389    c0.11,0.096,0.219,0.19,0.316,0.284c1.621,1.569,3.911,3.177,5.042,5.142c1.557,2.709-0.993,8.562,0.181,12.199    c0.019,0.057,0.043,0.099,0.063,0.154c0.031,0.111,0.087,0.216,0.134,0.323c0.021,0.043,0.04,0.094,0.061,0.135    c0.068,0.131,0.153,0.258,0.249,0.382c0.033,0.042,0.069,0.08,0.104,0.119c0.076,0.086,0.131,0.176,0.224,0.256    c1.639,1.431,3.91,1.302,5.825,1.074c1.392-0.166,2.827,0.08,4.21-0.229c1.15-0.257,1.484-1.66,1.621-2.687    c0.069-0.519-0.022-1.044,0.043-1.557c0.055-0.42,0.173-0.794,0.185-1.229c0.069-2.379-0.464-4.753-0.111-7.127    c0.188-1.261,1.307-2.589,2.262-4.081c0.56-0.875,1.074-1.78,1.62-2.666c0.061-0.099,0.169-0.238,0.289-0.389    c0.111,0.096,0.219,0.19,0.316,0.284c1.621,1.569,3.911,3.177,5.04,5.142c1.557,2.709-0.993,8.563,0.181,12.199    c0.019,0.057,0.043,0.099,0.063,0.154c0.03,0.111,0.087,0.216,0.134,0.323c0.021,0.043,0.04,0.094,0.061,0.135    c0.068,0.131,0.153,0.258,0.249,0.382c0.033,0.042,0.069,0.08,0.104,0.119c0.076,0.086,0.131,0.176,0.224,0.256    c1.254,1.093,2.948,1.283,4.546,1.194c1.625-0.091,3.532-0.063,5.098,0.431c1.064,0.335,2.693,1.076,2.372,2.414    c-0.529,2.197-0.245,4.4-0.264,6.609c-0.021,2.443,0.01,4.887,0.128,7.327c0.473,9.856-0.159,19.793,0.028,29.674    c0.178,9.394,0.969,18.869,0.969,28.254c0,0.189,0.031,0.357,0.052,0.531C200.056,329.747,198.284,331.209,196.771,332.941z     M208.306,181.667c0.047-3.699-0.213-2.809,2.303-5.559c1.199-1.312,2.475-2.693,3.663-4.086c2.205,1.663,4.98,3.504,5.651,5.48    c0.542,1.596-0.259,4.551-0.344,6.225c-0.109,2.162,0.018,4.221,0.068,6.373c0.032,1.437,1.102,2.287,2.445,2.445    c3.02,0.355,5.979,0.744,9.003,0.568c1.349-0.078,2.13-0.935,2.357-1.92c1.888-2.933,0.921-7.663,1.035-10.817    c0.101-2.794,0.889-3.793,2.453-5.971c0.944-1.314,1.975-3.297,3.129-4.845c0.813,0.821,1.658,1.814,2.425,2.408    c1.286,0.997,4.751,3.161,5.039,3.697c0.164,0.302-1.031,5.647-1.148,7.143c-0.186,2.395-0.311,4.829,0.036,7.215    c0.157,1.08,0.622,1.798,1.532,2.435c0.827,0.579,1.843,0.792,2.772,1.157c0.919,0.361,1.915,0.334,2.888,0.343    c2.412,0.021,5.498-0.092,7.061-0.278c1.269-0.151,2.241-0.86,3.412-1.267c0.318-0.111,0.661-0.157,0.905-0.412    c0.355-0.373,0.411-1.012,0.495-1.494c0.445-2.535,0.312-5.144,0.114-7.697c-0.116-1.495-1.312-6.841-1.148-7.143    c0.289-0.534,3.753-2.7,5.039-3.697c0.767-0.595,1.611-1.588,2.425-2.408c1.152,1.549,2.185,3.531,3.129,4.844    c1.564,2.178,2.352,3.178,2.453,5.971c0.115,3.154-0.853,7.884,1.035,10.817c0.227,0.984,1.008,1.842,2.357,1.92    c3.023,0.175,5.984-0.214,9.003-0.568c1.342-0.158,2.412-1.008,2.445-2.445c0.049-2.152,0.177-4.212,0.067-6.373    c-0.085-1.675-0.885-4.63-0.344-6.225c0.671-1.975,3.447-3.817,5.651-5.48c1.189,1.394,2.465,2.776,3.663,4.086    c2.515,2.75,2.256,1.861,2.303,5.559c0.062,4.984-0.89,11.508,0.828,16.493c-0.946,0.032-1.887,0.108-2.821,0.212    c-0.856,0.039-1.711,0.096-2.553,0.135c-3.877,0.177-7.776-0.196-11.672-0.11c-7.209,0.159-14.803-0.261-22.171,0.278    c-3.872-0.09-7.763-0.04-11.713-0.038c-2.893,0.002-6.764-0.33-10.183-0.147c-6.319-0.244-12.736,0.042-18.874-0.094    c-3.896-0.086-7.795,0.288-11.672,0.11c-0.841-0.039-1.696-0.095-2.553-0.135c-0.933-0.104-1.875-0.179-2.821-0.212    C209.196,193.176,208.244,186.651,208.306,181.667z M304.15,224.702c0.056,5.689-0.217,11.357-0.36,17.04    c-0.233,9.331,0.429,18.663,0.007,27.983c-0.458,10.113,0.058,20.288-0.189,30.422c-0.14,5.765-0.494,11.522-0.748,17.283    c-0.118,2.678-0.215,5.356-0.258,8.036c-0.01,0.649-0.057,1.315-0.019,1.963c0.023,0.4,0.189,0.756,0.232,1.149    c0.115,1.055,0.121,2.579-0.376,3.544c-0.177,0.344-0.434,0.634-0.597,0.988c-0.13,0.284-0.223,0.587-0.32,0.884    c-0.056,0.171-0.356,0.796-0.288,0.954c-1.21-2.809-3.052-5.171-6.446-5.468c-3.576-0.313-5.278,2.22-6.704,5.052    c-0.804-2.704-2.144-5.062-5.209-6.383c-3.11-1.341-5.2-0.637-7.059,0.833c-0.032-0.116-0.062-0.234-0.096-0.35    c-0.596-2.065-1.366-3.809-2.62-5.591c-1.462-2.078-2.766-3.436-4.496-4.181c-1.969-1.264-4.221-1.992-6.086-1.787    c-4.183,0.459-6.688,3.555-8.42,7.271c-0.645-3.364-1.902-6.334-5.094-7.127c-2.123-0.527-4.337,0.391-6.132,1.911    c-1.481,0.783-2.676,2.049-3.988,3.915c-1.254,1.781-2.023,3.525-2.62,5.591c-0.033,0.116-0.063,0.234-0.096,0.35    c-1.861-1.47-3.949-2.175-7.059-0.833c-3.064,1.32-4.405,3.679-5.209,6.383c-1.426-2.831-3.128-5.364-6.704-5.052    c-3.393,0.297-5.235,2.658-6.446,5.468c0.068-0.158-0.233-0.783-0.288-0.954c-0.097-0.297-0.189-0.599-0.32-0.884    c-0.163-0.355-0.42-0.645-0.597-0.988c-0.498-0.965-0.491-2.488-0.376-3.544c0.043-0.393,0.208-0.749,0.232-1.149    c0.038-0.648-0.008-1.314-0.019-1.963c-0.043-2.68-0.14-5.358-0.258-8.036c-0.254-5.761-0.608-11.517-0.748-17.283    c-0.247-10.134,0.267-20.309-0.189-30.422c-0.421-9.319,0.241-18.652,0.007-27.983c-0.143-5.684-0.415-11.352-0.36-17.04    c0.028-2.836,0.55-6.361-0.265-9.284c0.305,0.013,0.61,0.026,0.919,0.046c3.862,0.247,7.599,0.42,11.468,0.328    c7.414-0.176,15.188,0.517,22.688-0.145c3.297-0.11,6.535,0.14,9.824,0.089c5.747-0.09,11.918,0.464,17.837-0.004    c7.198,0.524,14.623-0.108,21.717,0.061c3.869,0.092,7.606-0.081,11.468-0.328c0.31-0.02,0.614-0.032,0.919-0.046    C303.601,218.34,304.122,221.866,304.15,224.702z M301.788,210.597c-3.061,0.136-6.128,0.465-9.195,0.366    c-4.982-0.161-9.982,0.272-14.949,0.124c-0.571-0.017-1.136-0.049-1.695-0.087c-6.844-1.359-14.93-0.871-21.675-0.534    c-2.937,0.146-5.76,0.196-8.556,0.372c-3.749-0.63-7.402,0.13-11.375,0.249c-4.967,0.148-9.966-0.285-14.949-0.124    c-3.066,0.099-6.134-0.23-9.195-0.366c-1.823-0.08-3.652-0.114-5.472,0.02c-1.302,0.095-2.486,0.603-3.763,0.75    c-1.819,0.209-2.348-1.454-2.407-2.955c-0.029-0.74-0.097-1.767,0.14-2.479c0.347-1.044,1.601-1.731,2.598-1.972    c0.932-0.226,1.892-0.159,2.84-0.158c0.872,0.001,1.596-0.222,2.433-0.327c1.549-0.196,3.11-0.293,4.671-0.318    c1.364-0.023,2.674,0.226,4.056,0.216c3.076-0.023,6.152-0.194,9.228-0.129c5.73,0.121,12.012,0.806,18.108,0.676    c3.536,0.316,7.79-0.185,9.705-0.176c4.222,0.019,8.257,0.029,12.26-0.119c7.512,0.833,15.63-0.227,22.869-0.381    c3.076-0.065,6.153,0.107,9.228,0.129c1.381,0.01,2.692-0.239,4.056-0.216c1.561,0.027,3.121,0.122,4.671,0.318    c0.838,0.106,1.562,0.327,2.433,0.327c0.95-0.001,1.908-0.068,2.84,0.158c0.997,0.24,2.25,0.927,2.598,1.972    c0.236,0.711,0.169,1.738,0.14,2.479c-0.059,1.501-0.587,3.164-2.407,2.955c-1.277-0.147-2.462-0.656-3.763-0.75    C305.439,210.484,303.61,210.516,301.788,210.597z M434.358,329.551c-6.245-2.758-8.047,1.459-10.212,6.536    c-0.174,0.412-0.353,0.822-0.529,1.233c-0.444-0.846-1.171-2.025-1.684-2.568c-1.374-1.454-3.084-2.476-5.18-2.033    c-3.934,0.833-5.368,4.827-7.185,8.028c-0.681-1.866-1.344-4.532-2.183-5.424c-0.958-1.017-2.12-1.721-3.55-1.851    c-3.731-0.336-5.724,1.724-7.382,4.2c-0.945-3.341-2.434-6.427-6.202-6.836c-3.182-0.346-7.371,2.183-9.943,3.708    c-1.549,0.917-2.644,1.969-3.866,3.305c-0.186,0.204-0.426,0.551-0.696,0.944c-0.013-0.73-0.028-1.418-0.121-1.905    c-0.403-2.108-1.025-4.305-1.901-6.265c-0.921-2.064-2.127-3.987-4.461-4.652c-2.015-0.573-3.898-0.081-5.351,1.348    c-1.643,1.617-2.288,4.966-3.455,7.226c-0.679-1.603-1.226-3.729-1.613-4.632c-0.861-2.008-1.699-4.274-2.916-6.089    c-1.44-2.144-3.437-4.167-6.191-3.913c-3.007,0.277-4.408,3.115-4.822,5.894c-0.04,0.265-0.041,0.54-0.059,0.811    c-0.36-0.514-0.733-1.021-1.126-1.516c-2.162-2.728-5.109-5.961-8.796-6.462c-3.265-0.443-5.479,1.711-5.98,4.759    c-0.285,1.739-0.027,3.593,0.243,5.373c-3.093-3.486-6.723-6.256-11.101-4.943c-4.277,1.283-3.72,5.264-2.877,9.115    c-1.513-1.731-3.285-3.193-5.125-4.009c0.022-0.174,0.052-0.343,0.052-0.531c0-9.385,0.791-18.86,0.969-28.254    c0.187-9.88-0.445-19.818,0.028-29.674c0.117-2.441,0.149-4.885,0.128-7.327c-0.02-2.209,0.265-4.412-0.264-6.609    c-0.323-1.339,1.307-2.079,2.372-2.414c1.567-0.494,3.474-0.522,5.098-0.431c1.599,0.09,3.294-0.099,4.546-1.194    c0.092-0.08,0.148-0.171,0.224-0.256c0.034-0.039,0.07-0.076,0.104-0.119c0.097-0.124,0.181-0.251,0.249-0.382    c0.022-0.041,0.04-0.091,0.061-0.135c0.047-0.107,0.102-0.212,0.134-0.323c0.02-0.053,0.045-0.097,0.063-0.154    c1.175-3.636-1.375-9.49,0.182-12.199c1.129-1.965,3.42-3.574,5.04-5.142c0.097-0.094,0.206-0.188,0.316-0.284    c0.12,0.15,0.228,0.291,0.289,0.389c0.546,0.885,1.06,1.79,1.62,2.666c0.955,1.492,2.074,2.82,2.263,4.081    c0.354,2.374-0.18,4.749-0.111,7.127c0.012,0.435,0.13,0.81,0.185,1.229c0.066,0.512-0.026,1.038,0.043,1.557    c0.137,1.027,0.472,2.43,1.622,2.687c1.383,0.31,2.818,0.063,4.209,0.229c1.916,0.227,4.187,0.356,5.825-1.074    c0.092-0.08,0.148-0.172,0.224-0.256c0.035-0.039,0.07-0.076,0.104-0.119c0.097-0.124,0.182-0.251,0.249-0.382    c0.022-0.041,0.04-0.091,0.061-0.135c0.047-0.107,0.102-0.212,0.134-0.323c0.02-0.053,0.045-0.096,0.063-0.154    c1.175-3.636-1.375-9.49,0.181-12.199c1.129-1.965,3.42-3.574,5.042-5.142c0.097-0.095,0.206-0.188,0.316-0.284    c0.12,0.15,0.228,0.291,0.289,0.389c0.547,0.885,1.06,1.79,1.62,2.666c0.955,1.492,2.074,2.82,2.262,4.081    c0.315,2.113-0.07,4.233-0.116,6.349c-0.026,1.184,0.047,2.372,0.24,3.541c0.121,0.729,0.206,1.769,0.811,2.29    c1.304,1.122,3.613,0.569,5.16,0.753c1.916,0.227,4.187,0.356,5.825-1.074c0.092-0.08,0.148-0.172,0.224-0.256    c0.034-0.039,0.07-0.076,0.104-0.119c0.097-0.124,0.181-0.251,0.249-0.382c0.022-0.041,0.04-0.091,0.061-0.135    c0.047-0.107,0.102-0.212,0.134-0.323c0.02-0.053,0.045-0.096,0.063-0.154c1.175-3.636-1.375-9.49,0.182-12.199    c1.129-1.965,3.42-3.574,5.04-5.142c0.097-0.095,0.206-0.188,0.316-0.284c0.12,0.15,0.228,0.291,0.289,0.389    c0.546,0.885,1.06,1.79,1.62,2.666c0.955,1.492,2.074,2.82,2.263,4.081c0.313,2.1-0.279,4.163-0.105,6.242    c0.066,0.783,0.3,1.557,0.373,2.357c0.081,0.896,0.072,1.944,0.326,2.809c0.166,0.563,0.668,0.898,1.199,1.133    c1.335,0.59,2.858,0.225,4.26,0.392c1.916,0.227,4.186,0.356,5.825-1.074c0.092-0.08,0.148-0.171,0.224-0.256    c0.035-0.039,0.07-0.076,0.104-0.119c0.097-0.124,0.182-0.251,0.249-0.382c0.022-0.041,0.04-0.091,0.061-0.135    c0.047-0.107,0.102-0.212,0.134-0.323c0.02-0.053,0.045-0.096,0.063-0.154c1.175-3.636-1.375-9.49,0.181-12.199    c1.129-1.965,3.42-3.574,5.042-5.142c0.097-0.095,0.206-0.188,0.316-0.284c0.12,0.15,0.228,0.291,0.289,0.389    c0.547,0.885,1.06,1.79,1.62,2.666c0.955,1.492,2.074,2.82,2.263,4.081c0.324,2.172-0.117,4.333-0.116,6.509    c0.001,1.206,0.121,2.412,0.315,3.602c0.12,0.734,0.223,1.621,0.804,2.154c1.277,1.172,3.653,0.588,5.196,0.772    c1.916,0.227,4.186,0.356,5.825-1.074c0.092-0.08,0.148-0.172,0.224-0.256c0.035-0.039,0.07-0.076,0.104-0.119    c0.097-0.124,0.181-0.25,0.249-0.382c0.022-0.041,0.04-0.091,0.061-0.135c0.047-0.107,0.102-0.212,0.134-0.323    c0.02-0.053,0.045-0.097,0.063-0.154c1.175-3.636-1.375-9.49,0.181-12.199c1.129-1.965,3.42-3.574,5.042-5.142    c0.097-0.094,0.205-0.188,0.316-0.284c0.12,0.15,0.228,0.291,0.29,0.389c0.546,0.885,1.06,1.79,1.62,2.666    c0.955,1.492,2.074,2.82,2.263,4.081c0.196,1.315,0.101,2.656,0.108,3.978c0.007,1.437,0.013,2.875,0.021,4.312    c0.003,0.635,0.007,1.276,0.163,1.892c0.678,2.671,4.224,2.268,6.33,2.427c1.142,0.087,2.225,0.304,3.355,0.235    c-0.033,3.668-0.059,7.33-0.109,10.974c-0.172,12.431,0.415,24.784,0.38,37.197c-0.014,5.311,0.335,10.659,0.621,15.965    c0.199,3.71-0.706,8.273,0.272,11.996C434.445,329.596,434.404,329.571,434.358,329.551z M505.49,218.24    c-0.415,7.418-0.248,14.907-0.175,22.273c0.116,11.474-0.475,22.862-0.581,34.32c-0.112,12.145-0.206,24.488-0.865,36.631    c-0.278,5.14-0.234,10.284-0.361,15.423c-0.072,2.893-0.528,5.486-0.4,8.047c-1.532-2.042-3.395-3.733-5.881-3.299    c-3.338,0.582-2.697,3.868-3.045,6.558c-2.732-4.513-4.778-11.314-10.865-10.779c-0.952,0.083-1.527,0.561-1.887,1.436    c-0.565,1.37-0.489,2.816-0.305,4.257c-0.832-1.21-1.711-2.395-2.899-3.263c-2.093-1.529-4.979-3.172-7.704-2.455    c-2.104,0.553-3.144,2.069-3.422,4.166c-0.173,1.308,0.694,3.501,1.257,5.417c-1.368-1.707-2.658-3.723-4.404-4.776    c-1.795-1.081-4.056-2.187-6.204-1.589c-2.104,0.586-3.204,2.14-3.43,4.307c-0.063,0.611,0.371,3.159,0.812,5.204    c-4.006-2.473-8.767-5.091-12.174-1.12c-0.314-1.109-0.767-2.216-1.077-2.996c-0.284-0.714-0.58-1.339-0.758-2.104    c-0.183-0.782-0.307-1.577-0.374-2.377c-0.214-2.546,0.24-5.063,0.198-7.616c-0.043-2.588-0.31-5.162-0.451-7.744    c-0.294-5.372-0.432-10.74-0.575-16.113c-0.314-11.878-0.456-23.702-0.62-35.588c-0.15-10.941-0.815-22.26-0.101-33.164    c0.194-2.961,0.575-6.368,0.672-9.783c1.218-4.594,0.573-10.183,0.588-14.852c0.007-2.019-0.491-4.119,0.519-5.935    c0.668-1.2,1.869-1.948,2.847-2.859c0.91-0.846,2.209-2.864,3.334-4.134c2.804,3.066,5.385,6.724,5.701,10.816    c0.286,3.704-0.549,9.398,2.337,12.386c1.011,1.047,2.29,1.509,3.693,1.574c1.64,0.078,3.314,0.111,4.897-0.393    c1.7-0.543,3.371-1.877,3.711-3.713c0.412-2.225,0.164-4.672-0.011-6.91c-0.116-1.495-1.311-6.84-1.148-7.143    c0.289-0.534,3.753-2.7,5.039-3.697c0.766-0.595,1.611-1.588,2.425-2.408c1.152,1.549,2.185,3.531,3.128,4.844    c1.564,2.178,2.352,3.179,2.454,5.971c0.115,3.154-0.853,7.884,1.035,10.817c0.227,0.984,1.008,1.842,2.357,1.92    c3.023,0.175,5.984-0.214,9.003-0.568c1.343-0.158,2.413-1.008,2.445-2.445c0.049-2.152,0.177-4.212,0.067-6.373    c-0.085-1.675-0.885-4.63-0.344-6.225c0.671-1.975,3.447-3.817,5.652-5.48c1.188,1.394,2.464,2.776,3.663,4.086    c2.515,2.75,2.256,1.859,2.303,5.558C505.615,209.901,505.144,214.236,505.49,218.24z"/>
	</g>
</g>
<g>
</g>
<g>
</g>
<g>
</g>
<g>
</g>
<g>
</g>
<g>
</g>
<g>
</g>
<g>
</g>
<g>
</g>
<g>
</g>
<g>
</g>
<g>
</g>
<g>
</g>
<g>
</g>
<g>
</g>
</svg>
