<?xml version="1.0" encoding="iso-8859-1"?>
<!-- Generator: Adobe Illustrator 19.0.0, SVG Export Plug-In . SVG Version: 6.00 Build 0)  -->
<svg xmlns="http://www.w3.org/2000/svg" xmlns:xlink="http://www.w3.org/1999/xlink" version="1.1" id="Layer_1" x="0px" y="0px" viewBox="0 0 512.008 512.008" style="enable-background:new 0 0 512.008 512.008;" xml:space="preserve">
<g>
	<g>
		<path d="M511.094,329.395c-1.249-2.421-3.3-2.299-5.468-2.016c-0.004-0.476-0.094-0.867-0.185-1.259    c0.309-3.065,0.072-6.303,0.052-9.335c-0.033-4.943,0.051-9.891-0.153-14.82c-0.339-8.229-0.259-16.633-1.051-24.845    c1.558-0.452,2.882-1.411,3.364-3.599c0.092-0.419,0.135-0.84,0.156-1.259c0.631-1.714,0.494-4.001-0.03-5.666    c2.344-0.83,3.172-2.926,3.665-5.919c0.771-4.678,0.263-9.529-0.074-14.227c-0.229-3.201,0.32-7.317-2.521-9.099    c-1.525-0.957-3.887-0.54-5.54-0.542c1.539-5.155,0.733-11.672,0.911-17.093c0.231-6.992,0.223-14.018,0.33-21.022    c0.087-5.682,1.415-17.01-4.818-18.702c-2.223-0.603-7.136-1.137-8.944,1.048c-2.503,3.027-1.597,12.403-1.758,16.163    c-0.324,7.541-0.175,15.129-0.157,22.674c0.011,4.801,0.805,10.219,0.27,15.037c-0.143,0.297-0.232,0.63-0.26,0.984    c-2.191-0.153-4.38-0.314-6.572-0.489c-1.467-0.118-2.934-0.179-4.401-0.222c1.002-14.263,0.899-28.863,0.577-43.146    c-0.088-3.894,0.017-8.388-2.972-10.573c-3.127-2.287-8.391-3.944-11.973-2.781c-0.837,0.272-1.319,1.159-1.378,2.143    c-0.569,9.425-1.131,18.769-0.861,28.28c0.138,4.855,0.244,9.709,0.332,14.565c0.057,3.174-0.374,6.695,0.014,9.898    c-0.003,0.257,0.019,0.528,0.091,0.823c0.036,0.15,0.074,0.301,0.11,0.45c0.03,0.122,0.07,0.227,0.109,0.336    c-1.664-0.02-3.328-0.062-4.992-0.162c-1.53-0.092-3.113-0.204-4.715-0.312c0.574-3.819,0.412-8.328,0.341-11.93    c-0.115-5.904,0.189-11.771,0.061-17.677c-0.128-5.866-0.029-11.686-0.766-17.515c-0.502-3.969-1.049-6.084-4.383-6.965    c-2.597-0.686-7.002-1.566-9.072,1.057c-2.513,3.187-1.311,9.922-1.355,13.784c-0.146,12.95-0.838,26.15,0.129,39.06    c-1.894,0.165-3.757,0.421-5.547,0.839c-1.168,0.273-2.093,0.788-2.855,1.457c0.018-1.308-0.129-2.648-0.117-3.901    c0.029-2.797,0.331-5.6,0.408-8.396c0.163-5.844-0.123-11.683-0.07-17.534c0.048-5.44,0.344-11.156-0.03-16.546    c-0.109-1.575-0.179-3.623-0.539-5.492c2.381,0.336,4.762-0.116,5.655-2.531c0.749-2.024-0.252-5.757-0.643-7.691    c-0.307-1.515-0.562-2.382-1.841-2.905c-2.509-1.026-6.423-0.646-9.056-0.624c-2.696,0.023-5.451-0.234-8.122-0.142    c-5.741,0.197-5.242,6.078-4.555,11.352c0.127,0.968,1.02,1.49,1.74,1.569c0.991,0.108,1.967,0.21,2.924,0.194    c-0.756,3.769-0.211,9.215-0.209,12.016c0.003,7.56,0.106,15.125,0.028,22.697c-0.056,5.475-0.796,11.235-0.603,16.717    c-3.404,0.077-6.78,0.523-10.192,0.599c-1.841,0.041-3.685-0.01-5.534-0.072c0.377-1.987,0.219-4.231,0.305-6.169    c0.236-5.278,0.11-10.591,0.21-15.877c0.179-9.429-0.665-18.569-1.264-27.934c2.514,0.025,5.685,0.088,6.91-2.809    c1.118-2.644,0.14-5.644,0.09-8.393c-0.013-0.723-0.326-1.475-0.884-1.824c-1.734-1.085-5.104-1.8-8.288-1.728    c-1.238-0.269-2.484-0.438-3.625-0.622c-1.753-0.283-4.313-0.509-6.333-0.094c-0.207-1.696-0.611-3.383-1.254-4.84    c1.434-0.03,2.735-0.401,3.524-1.297c1.793-2.036,0.725-8.049-1.248-9.494c-1.376-1.007-3.968-0.031-5.357,0.006    c-3.177,0.085-6.271-0.603-9.438-0.722c-5.485-0.207-10.984,0.15-16.465-0.347c-11.682-1.059-23.391-1.188-35.102-1.34    c-5.772-0.075-11.443,1.013-17.18,1.418c-3.725,0.263-5.807,2.575-5.567,7.253c0.04,0.768,0.339,1.706,0.99,2.044    c0.771,0.4,1.57,0.612,2.379,0.78c-0.716,2.794-0.763,6.688-0.528,8.887c0.342,3.209,1.523,5.036,3.153,6.074    c-0.642,2.959,0.108,7.506,1.081,10.089c0.526,1.397,1.424,1.97,2.476,2.171c-1.394,4.906-0.024,13.639-0.059,17.404    c-0.046,4.954-0.214,9.893-0.381,14.842c-0.106,3.119,0.458,7.145-0.183,10.187c-0.068,0.276-0.085,0.534-0.08,0.78    c-1.652,0.167-3.273,0.421-4.842,0.787c-1.707,0.4-2.924,1.287-3.81,2.476c-0.135-0.087-0.265-0.184-0.424-0.236    c-6.002-1.965-12.45-2.268-18.674-2.115c-3.272,0.08-6.73-0.188-10.146-0.13c-1.74-0.296-3.649-0.03-5.328,0.067    c-3.561,0.204-7.118,0.358-10.666,0.623c-0.212,0.015-0.742,0.024-1.453,0.044c-5.402-1.306-11.335-0.471-16.754-0.603    c-6.223-0.153-12.671,0.15-18.674,2.115c-0.159,0.052-0.288,0.149-0.424,0.236c-0.886-1.189-2.104-2.076-3.81-2.476    c-1.57-0.367-3.19-0.621-4.842-0.787c0.005-0.247-0.011-0.503-0.08-0.78c-0.642-3.042-0.078-7.068-0.183-10.187    c-0.167-4.949-0.335-9.887-0.381-14.842c-0.035-3.766,1.334-12.497-0.059-17.404c1.05-0.2,1.948-0.774,2.475-2.171    c0.973-2.582,1.723-7.13,1.081-10.089c1.628-1.038,2.81-2.865,3.153-6.074c0.234-2.199,0.187-6.093-0.528-8.887    c0.81-0.168,1.609-0.381,2.379-0.78c0.651-0.337,0.951-1.275,0.99-2.044c0.24-4.678-1.842-6.99-5.567-7.253    c-5.736-0.405-11.409-1.492-17.18-1.418c-11.71,0.152-23.421,0.281-35.102,1.34c-5.482,0.496-10.981,0.14-16.465,0.347    c-3.166,0.119-6.261,0.807-9.438,0.722c-1.388-0.036-3.98-1.014-5.357-0.006c-1.974,1.445-3.042,7.458-1.249,9.494    c0.788,0.895,2.09,1.267,3.524,1.297c-0.643,1.457-1.047,3.145-1.253,4.84c-2.019-0.415-4.58-0.189-6.333,0.094    c-1.14,0.184-2.387,0.353-3.625,0.622c-3.184-0.072-6.554,0.643-8.288,1.728c-0.558,0.349-0.871,1.101-0.884,1.824    c-0.048,2.749-1.028,5.748,0.09,8.393c1.225,2.897,4.397,2.835,6.91,2.809c-0.599,9.365-1.443,18.505-1.264,27.934    c0.1,5.286-0.025,10.597,0.21,15.877c0.087,1.939-0.072,4.182,0.305,6.169c-1.847,0.061-3.693,0.112-5.534,0.072    c-3.413-0.076-6.788-0.522-10.192-0.599c0.193-5.481-0.547-11.24-0.603-16.717c-0.078-7.572,0.023-15.137,0.028-22.697    c0.001-2.802,0.546-8.247-0.209-12.016c0.957,0.018,1.933-0.086,2.924-0.194c0.72-0.078,1.614-0.602,1.74-1.569    c0.687-5.274,1.186-11.154-4.555-11.352c-2.671-0.091-5.425,0.165-8.121,0.142c-2.632-0.022-6.548-0.402-9.056,0.624    c-1.278,0.523-1.533,1.39-1.841,2.905c-0.392,1.934-1.391,5.667-0.643,7.691c0.893,2.415,3.274,2.867,5.655,2.531    c-0.36,1.869-0.43,3.917-0.539,5.492c-0.373,5.392-0.079,11.107-0.03,16.546c0.053,5.851-0.233,11.688-0.07,17.534    c0.078,2.796,0.381,5.599,0.408,8.396c0.012,1.253-0.133,2.594-0.117,3.901c-0.762-0.669-1.686-1.184-2.855-1.457    c-1.79-0.418-3.654-0.674-5.548-0.839c0.968-12.91,0.276-26.11,0.13-39.06c-0.044-3.863,1.158-10.599-1.355-13.784    c-2.07-2.623-6.475-1.743-9.072-1.057c-3.334,0.881-3.883,2.996-4.385,6.965c-0.736,5.829-0.638,11.649-0.766,17.515    c-0.129,5.907,0.175,11.774,0.061,17.677c-0.07,3.603-0.232,8.113,0.341,11.931c-1.602,0.109-3.185,0.219-4.715,0.312    c-1.664,0.1-3.329,0.141-4.992,0.162c0.039-0.109,0.079-0.215,0.109-0.336c0.036-0.151,0.074-0.3,0.11-0.45    c0.073-0.295,0.095-0.566,0.091-0.823c0.389-3.203-0.043-6.725,0.014-9.898c0.087-4.855,0.195-9.71,0.332-14.565    c0.27-9.511-0.292-18.855-0.861-28.28c-0.059-0.985-0.542-1.872-1.378-2.143c-3.582-1.164-8.845,0.493-11.973,2.781    c-2.989,2.185-2.884,6.68-2.972,10.573c-0.323,14.283-0.424,28.883,0.577,43.146c-1.467,0.043-2.935,0.106-4.401,0.222    c-2.192,0.175-4.381,0.336-6.572,0.489c-0.028-0.354-0.117-0.686-0.26-0.984c-0.535-4.818,0.259-10.235,0.27-15.037    c0.018-7.545,0.166-15.134-0.157-22.674c-0.162-3.76,0.745-13.136-1.758-16.163c-1.808-2.185-6.72-1.652-8.944-1.048    c-6.233,1.692-4.905,13.02-4.818,18.702c0.107,7.004,0.1,14.03,0.33,21.022c0.178,5.42-0.627,11.938,0.911,17.093    c-1.654,0.001-4.016-0.415-5.54,0.542c-2.841,1.781-2.292,5.898-2.521,9.099c-0.337,4.698-0.844,9.547-0.074,14.227    c0.493,2.994,1.321,5.089,3.665,5.919c-0.524,1.664-0.66,3.953-0.03,5.666c0.022,0.419,0.064,0.84,0.156,1.259    c0.482,2.187,1.805,3.146,3.364,3.599c-0.793,8.212-0.712,16.617-1.051,24.845c-0.204,4.928-0.12,9.878-0.153,14.82    c-0.02,3.032-0.258,6.27,0.052,9.335c-0.091,0.392-0.18,0.783-0.185,1.259c-2.167-0.283-4.218-0.405-5.469,2.016    c-1.438,2.784-0.774,7.935-0.677,10.984c0.107,3.352,0.115,6.718,0.444,10.059c0.8,8.105,6.553,5.948,11.977,6.057    c7.454,0.15,14.892,1.028,22.341,1.432c8.849,0.48,17.826-0.041,26.689,0.054c9.257,0.098,18.458,1.502,27.731,1.375    c7.917-0.108,15.803-1.62,23.712-1.896c4.627-0.161,9.072-0.018,13.533-0.107c3.106,1.149,7.774,0.545,9.866,0.618    c7.899,0.28,15.541,0.255,23.43-0.156c1.954-0.102,3.87,0.131,5.8-0.036c2.236-0.194,4.476-0.302,6.717-0.351    c4.488-0.1,8.977,0.032,13.464,0.177c1.93,0.063,3.859,0.129,5.79,0.179c4.514,0.121,9.03,0.16,13.545,0.119    c2.258-0.021,4.516-0.062,6.772-0.123c4.416-0.119,8.831-0.342,13.248-0.446c2.21-0.052,4.422-0.075,6.632-0.04    c1.127,0.018,2.254,0.05,3.381,0.101c0.947,0.044,1.831-0.185,2.778-0.261c2.087-0.18,4.162-0.472,6.246-0.671    c1.479-0.142,3.446,0.171,4.794-0.848c1.93-1.459,1.616-4.754,1.732-7.14c0.206-4.252,0.487-8.326,0.345-12.61    c-0.179-5.374-2.622-7.451-5.811-8.184c1.286-2.256,0.85-5.054,0.707-7.813c-0.258-4.954-0.293-9.906-0.476-14.866    c-0.188-5.133-0.143-10.273-0.187-15.41c-0.034-3.949,0.789-8.7-0.068-12.687c1.593,0.064,3.213,0.066,4.543-0.542    c2.635-1.203,2.942-5.259,3.048-8.62c1.029-0.045,2.044-0.144,3.04-0.299c0.996,0.155,2.011,0.254,3.04,0.299    c0.107,3.363,0.413,7.417,3.049,8.62c1.329,0.607,2.95,0.605,4.543,0.542c-0.858,3.987-0.034,8.738-0.068,12.687    c-0.044,5.137,0.002,10.277-0.187,15.41c-0.182,4.96-0.217,9.912-0.476,14.866c-0.143,2.759-0.579,5.557,0.707,7.813    c-3.189,0.733-5.632,2.81-5.811,8.184c-0.143,4.283,0.139,8.356,0.345,12.61c0.116,2.385-0.198,5.682,1.732,7.14    c1.349,1.019,3.315,0.706,4.794,0.848c2.084,0.2,4.158,0.492,6.246,0.671c0.948,0.076,1.832,0.305,2.778,0.261    c1.126-0.052,2.253-0.084,3.381-0.101c2.21-0.035,4.422-0.012,6.632,0.04c4.418,0.105,8.831,0.327,13.248,0.446    c2.257,0.062,4.514,0.102,6.772,0.123c4.516,0.042,9.031,0.002,13.545-0.119c1.93-0.051,3.859-0.117,5.79-0.179    c4.487-0.146,8.976-0.279,13.464-0.177c2.241,0.051,4.481,0.159,6.717,0.351c1.93,0.167,3.846-0.066,5.8,0.036    c7.887,0.411,15.53,0.435,23.429,0.156c2.094-0.074,6.76,0.531,9.867-0.618c4.462,0.089,8.907-0.054,13.533,0.107    c7.908,0.275,15.795,1.788,23.712,1.896c9.273,0.127,18.475-1.277,27.731-1.375c8.864-0.094,17.841,0.427,26.689-0.054    c7.448-0.404,14.887-1.282,22.34-1.432c5.424-0.109,11.175,2.049,11.977-6.057c0.33-3.341,0.338-6.707,0.444-10.059    C511.869,337.329,512.532,332.179,511.094,329.395z M504.633,272.225c-0.137,0.488-0.452,0.855-1.158,1.048    c-1.256,0.342-3.087,0.102-4.39-0.004c-1.448-0.118-5.281,0.778-6.49-0.225c-0.798-0.662-1.041-3.613-1.056-5.63    c0.116-0.03,0.245-0.036,0.365-0.059c1.115-0.036,2.229-0.084,3.343-0.14c0.223,0.002,0.455,0.008,0.655-0.001    c0.41-0.016,0.82-0.055,1.231-0.1c1.456-0.09,2.912-0.209,4.365-0.345c0.423,0.053,0.976,0.165,1.285,0.23    c0.448-0.008,0.873,0.101,1.282,0.299c0.003,0.01,0.004,0.012,0.009,0.022c0.241,0.42,0.378,0.862,0.462,1.314    c0.024,0.383,0.053,0.768,0.078,1.158c0.011,0.173,0.025,0.338,0.04,0.502C504.647,270.932,504.616,271.58,504.633,272.225z     M495.134,303.542c0.066-6.035,0.032-12.042-0.125-18.083c-0.057-2.184-0.702-5.099-0.69-7.511c2.137,0.113,4.465-0.254,6.3-0.363    c0.274-0.016,0.557-0.032,0.842-0.051c-0.672,7.666-0.068,15.912,0.113,23.502c0.211,8.881,0.254,17.842,0.019,26.718    c-0.7,0.07-1.396,0.169-2.076,0.324c-1.495-0.179-2.99-0.406-4.485-0.63c-0.053-0.332-0.111-0.718-0.121-0.993    c-0.044-1.301-0.023-2.601-0.096-3.883c0.208-1.836,0.492-3.849,0.521-5.3C495.426,312.691,495.083,308.109,495.134,303.542z     M491.619,282.516c-0.051,6.358-0.105,12.779-0.357,19.128c-0.221,5.559,0.162,11.142-0.092,16.711    c-0.117,2.552-0.958,5.911-0.535,8.519c-0.915-0.089-1.828-0.156-2.742-0.178c-3.181-0.078-6.356,0.054-9.532,0.225    c-0.035-0.28-0.086-0.545-0.145-0.801c0.309-3.065,0.072-6.303,0.052-9.335c-0.033-4.943,0.051-9.891-0.153-14.82    c-0.339-8.229-0.259-16.633-1.051-24.845c1.558-0.452,2.882-1.411,3.364-3.599c0.092-0.419,0.135-0.84,0.156-1.259    c0.524-1.422,0.516-3.24,0.2-4.77c2.472,0.004,4.945-0.002,7.415-0.044c-0.002,0.372,0.008,0.774,0.031,1.222    c0.172,3.225-0.062,7.075,2.911,8.559c0.194,0.097,0.408,0.16,0.616,0.236C491.421,279.11,491.63,281.134,491.619,282.516z     M467.909,303.542c0.066-6.035,0.032-12.042-0.126-18.083c-0.057-2.184-0.702-5.099-0.69-7.511    c2.137,0.113,4.465-0.254,6.299-0.363c0.274-0.016,0.557-0.032,0.842-0.051c-0.671,7.666-0.068,15.912,0.112,23.502    c0.207,8.678,0.248,17.429,0.031,26.104c-2.192,0.12-4.385,0.22-6.581,0.255c-0.051-0.32-0.103-0.68-0.112-0.941    c-0.044-1.301-0.023-2.601-0.096-3.883c0.208-1.836,0.492-3.85,0.521-5.3C468.2,312.691,467.858,308.109,467.909,303.542z     M471.86,273.268c-1.448-0.118-5.281,0.778-6.49-0.225c-0.786-0.652-1.033-3.52-1.053-5.534c4.197-0.073,8.401-0.052,12.605-0.031    c0.189,0.372,0.316,0.758,0.391,1.155c0.025,0.383,0.053,0.768,0.078,1.158c0.011,0.173,0.025,0.338,0.04,0.502    c-0.009,0.636-0.04,1.284-0.022,1.929c-0.136,0.488-0.452,0.855-1.157,1.048C474.995,273.615,473.163,273.375,471.86,273.268z     M464.394,282.516c-0.051,6.358-0.105,12.779-0.357,19.128c-0.22,5.559,0.162,11.142-0.091,16.711    c-0.124,2.727-1.057,6.363-0.409,9.031c-4.119-0.047-8.245-0.118-12.374-0.175c-0.022-0.398-0.091-0.75-0.171-1.092    c0.308-3.065,0.072-6.303,0.052-9.335c-0.033-4.943,0.051-9.891-0.153-14.82c-0.339-8.228-0.259-16.633-1.051-24.845    c1.558-0.452,2.882-1.411,3.364-3.599c0.092-0.419,0.135-0.84,0.156-1.259c0.483-1.311,0.511-2.955,0.265-4.402    c1.312-0.029,2.622-0.067,3.925-0.133c1.14-0.057,2.283-0.1,3.426-0.137c0.001,0.334,0.01,0.687,0.031,1.08    c0.172,3.225-0.062,7.075,2.911,8.559c0.194,0.097,0.408,0.16,0.616,0.236C464.196,279.11,464.405,281.134,464.394,282.516z     M440.684,303.542c0.066-6.035,0.032-12.042-0.125-18.083c-0.057-2.184-0.702-5.099-0.69-7.511    c2.137,0.113,4.465-0.254,6.299-0.363c0.274-0.016,0.557-0.032,0.842-0.051c-0.672,7.666-0.068,15.912,0.112,23.502    c0.207,8.686,0.248,17.447,0.03,26.13c-2.206-0.022-4.412-0.036-6.619-0.034c-0.035-0.242-0.067-0.488-0.074-0.678    c-0.044-1.301-0.023-2.601-0.096-3.883c0.208-1.836,0.492-3.849,0.521-5.3C440.975,312.691,440.633,308.109,440.684,303.542z     M444.634,273.268c-1.448-0.118-5.281,0.778-6.49-0.225c-0.773-0.64-1.023-3.416-1.051-5.423c4.249,0.151,8.53,0.281,12.792,0.279    c0.087,0.24,0.154,0.485,0.201,0.734c0.024,0.383,0.053,0.768,0.078,1.158c0.011,0.173,0.025,0.338,0.04,0.502    c-0.009,0.636-0.04,1.284-0.022,1.929c-0.136,0.488-0.452,0.855-1.157,1.048C447.77,273.615,445.939,273.375,444.634,273.268z     M494.602,183.171c0.991-0.305,4.484-0.072,5.218,0.645c1.955,1.907,1.385,9.789,1.422,12.363    c0.088,5.857,0.075,11.805-0.085,17.659c-0.15,5.522-0.185,11.018-0.204,16.554c-0.007,1.92-0.465,4.578,0.385,6.355    c-1.658-0.09-3.299-0.254-4.97-0.357c-1.095-0.067-2.188-0.143-3.281-0.214c0.375-3.507,0.036-7.177-0.105-10.695    c-0.227-5.652-0.285-11.333-0.406-16.999c-0.132-6.169-0.042-12.31-0.002-18.47C492.594,187.216,492.015,183.968,494.602,183.171z     M465.846,182.794c2.378-0.049,5.081,1.38,7.008,2.654c0.48,0.317,1.072,0.778,1.059,0.751c0.275,0.607,0.075,5.528,0.106,6.942    c0.072,3.232,0.244,6.463,0.253,9.698c0.03,10.798-0.449,21.527,0.256,32.291c-2.894-0.011-5.789,0.041-8.684,0.063    c0.133-0.304,0.226-0.644,0.255-1.026c0.665-8.529-0.065-17.541-0.434-26.076C465.299,199.598,465.533,191.227,465.846,182.794z     M442.264,184.739c1.159-0.452,4.705,0.552,5.172,1.269c0.941,1.448,0.618,5.474,0.717,7.152c0.139,2.338,0.367,4.661,0.404,7.003    c0.075,4.733,0.313,9.499,0.117,14.232c-0.276,6.657-0.156,13.422,0.138,20.103c-2.319-0.129-4.661-0.211-6.989-0.189    c0.288-8.872-0.33-18.039-0.539-26.915c-0.134-5.702-0.046-11.413-0.242-17.112C440.961,188.024,440.297,185.506,442.264,184.739z     M430.026,244.586c0.309-1.897,0.744-3.458,2.201-4.214c1.053-0.546,2.791-0.386,3.891-0.481    c7.737-0.666,15.541-0.133,23.296,0.067c14.369,0.37,28.666,0.144,43.022,0.956c3.17,0.179,3.745,0.27,4.366,4.103    c0.198,1.225,0.247,2.503,0.34,3.739c0.237,3.142,0.887,8.1-0.19,11.098c-1.186,3.3-4.189,1.797-6.764,2.613    c-0.83,0.025-1.667,0.077-2.513,0.163c-0.414,0.003-0.831,0.002-1.25-0.01c-3.668-0.102-7.327-0.489-11-0.607    c-3.549-0.113-7.079,0.182-10.611,0.45c-0.118-0.007-0.232-0.02-0.351-0.023c-1.8-0.055-3.695,0.121-5.578,0.364    c-1.435,0.042-2.873,0.051-4.313-0.025c-6.73-0.356-13.566-0.422-20.304-0.443c-3.304-0.01-6.584-0.417-9.898-0.441    c-0.763-0.006-3.001,0.407-3.635-0.193c-0.608-0.575-0.482-5.258-0.575-6.386C429.872,251.845,429.459,248.061,430.026,244.586z     M429.496,267.054c1.22,0.404,2.606,0.391,3.95,0.438c0.101,0.003,0.203,0.008,0.304,0.011c-0.001,0.358,0.009,0.741,0.031,1.168    c0.172,3.225-0.062,7.075,2.911,8.559c0.194,0.097,0.408,0.16,0.616,0.236c-0.336,1.645-0.127,3.668-0.138,5.052    c-0.051,6.358-0.105,12.779-0.357,19.128c-0.22,5.559,0.162,11.142-0.091,16.711c-0.121,2.65-1.008,6.162-0.466,8.807    c-3.807,0.044-7.611,0.142-11.41,0.34c-0.436,0.023-0.87,0.045-1.304,0.068c0.097-3.072-0.151-6.224-0.15-9.246    c0-4.423,0.185-8.841,0.364-13.255c0.353-8.671-1.265-17.301-1.144-25.933c1.75-0.199,3.515-0.712,3.992-2.541    c0.561-2.153,0.139-6.746-0.933-9.131c0.35-0.046,0.692-0.097,1.015-0.15C427.464,267.189,428.551,267.265,429.496,267.054z     M413.432,285.995c-0.161-2.049,0.094-4.693-0.35-6.854c0.324-0.009,0.638-0.013,0.93,0.005c1.897,0.117,3.761,0.542,5.653,0.243    c-0.535,2.371-0.268,5.186-0.229,7.484c0.09,5.373,0.682,10.704,0.449,16.09c-0.36,8.3-0.334,16.537-0.423,24.82    c-1.896,0.097-3.788,0.186-5.679,0.269c-0.691-9.105-0.162-18.733,0.032-27.849C413.918,295.431,413.805,290.754,413.432,285.995z     M412.255,274.828c-1.697-0.439-1.278-1.149-1.201-3.233c0.03-0.828,0.022-1.595-0.064-2.354c3.199-0.068,8.355-0.03,12.373-1.318    c-0.453,1.459,0.005,3.406,0.076,4.949c0.026,0.571-0.018,1.161-0.028,1.734c-0.002,0.142,0.003,0.239,0.009,0.335    c-0.002,0-0.003-0.001-0.007-0.001c-0.833,0.193-1.779-0.089-2.644,0.045C418.172,275.39,414.886,275.51,412.255,274.828z     M418.063,206.964c-0.186-5.95-0.545-11.923-0.35-17.869c0.026-0.794,0.078-1.577,0.107-2.369    c0.087-2.448-0.332-2.324,1.342-2.938c1.892-0.695,4.758,0.324,5.576,2.108c1.564,3.415,0.712,9.438,1.038,13.281    c0.463,5.46,0.07,10.835,0.272,16.279c0.154,4.157,0.295,8.202,0.226,12.366c-0.045,2.708,0.381,5.77,0.377,8.603    c-2.846-0.695-5.997-0.566-8.806-0.713C418.248,226.132,418.365,216.586,418.063,206.964z M413.058,176.281    c0.937-1.925,2.821-1.191,4.361-1.221c3.899-0.077,7.756-0.605,11.649-0.182c0.588,0.064,1.016,0.199,1.27,0.201    c-0.004,0.069-0.008,0.127-0.012,0.154c-0.205,1.408,0.261,3.022-0.679,3.994c-0.157,0.162-0.352,0.306-0.598,0.428    c-0.469,0.234-0.99,0.26-1.498,0.282c-4.049,0.174-8.99,1.035-12.961-0.122C413.138,179.391,412.173,178.098,413.058,176.281z     M401.54,241.325c8.243,0.264,16.563-0.411,24.844-0.374c-0.853,2.991-0.82,6.671-0.811,9.907    c0.007,2.532-0.196,6.537,0.209,9.869c-0.508,1.563-1.137,2.155-3.674,2.494c-1.828,0.244-3.681,0.304-5.519,0.444    c-4.525,0.343-9.165,0.621-13.682,0.37c-7.511-0.418-14.906-0.762-22.357-1.784c0.123-0.495,0.233-1.013,0.326-1.573    c0.771-4.678,0.263-9.529-0.074-14.227c-0.099-1.379-0.054-2.928-0.197-4.387c2.482,0.111,5.093-0.299,7.26-0.472    C392.383,241.232,397.001,241.179,401.54,241.325z M409.94,301.307c-0.294,8.809-0.782,18.108-0.133,26.905    c-3.733,0.131-7.462,0.204-11.196,0.183c0.142-2.319-0.054-4.844,0.055-6.98c0.259-5.056-0.028-10.297-0.149-15.358    c-0.194-8.151-0.146-17.998-1.899-26.035c1.662,0.076,3.187-0.185,3.994-1.293c1.518-2.087,0.341-6.641-0.471-9.477    c2.312,0.053,4.622,0.096,6.945,0.069c0.467,3.17-0.567,8.086,2.636,9.52c0.207,0.092,0.429,0.154,0.657,0.204    C408.902,286.059,410.179,294.161,409.94,301.307z M394.346,328.324c-2.466-0.067-4.935-0.189-7.408-0.368    c-0.265-7.248,0.112-14.515,0.002-21.754c-0.139-9.073-0.697-18.309-1.721-27.334c1.866,0.376,4.086,0.132,5.502,0.262    c0.874,0.079,2.182,0.386,3.579,0.621c-0.975,2.529-0.517,5.555-0.359,8.441c0.245,4.458,0.571,8.918,0.631,13.389    c0.072,5.414,0.047,10.851-0.039,16.264C394.484,320.998,394.679,324.973,394.346,328.324z M392.205,275.057    c-1.39-0.162-2.783-0.272-4.173-0.435c-0.874-0.102-1.572,0.258-2.04-0.716c-0.306-0.637-0.272-1.438-0.312-2.127    c-0.059-1.023,0.054-1.836,0.282-2.716c1.951,0.092,3.877,0.013,5.494,0.02c2.093,0.01,4.172,0.059,6.248,0.111    c-0.132,0.779-0.17,1.535-0.133,2.412c0.043,1.05,0.566,2.567,0.324,3.563c-0.051,0.205-0.063,0.334-0.062,0.433    c-0.058,0.01-0.119,0.023-0.211,0.061c-0.469,0.194-1.405-0.07-1.883-0.123C394.559,275.411,393.384,275.194,392.205,275.057z     M382.588,290.897c0.138,5.109,0.262,10.198,0.268,15.306c0.008,6.781-1.063,14.385-0.528,21.356    c-2.434-0.251-4.866-0.39-7.298-0.479c-0.031-0.341-0.088-0.656-0.16-0.96c0.309-3.065,0.072-6.303,0.052-9.335    c-0.033-4.943,0.051-9.891-0.153-14.82c-0.339-8.229-0.259-16.633-1.051-24.845c1.558-0.452,2.882-1.411,3.364-3.599    c0.092-0.419,0.135-0.84,0.156-1.259c0.376-1.021,0.279-1.991,0.413-3.036c0.123-0.967,1.301-2.001,2.297-1.883    c1.315,0.155,1.329,1.468,1.235,2.476c-0.219,2.35-0.007,5.115,1.155,7.225c0.175,0.318,0.395,0.582,0.647,0.81    C381.664,281.742,382.483,286.992,382.588,290.897z M364.562,303.542c0.066-6.035,0.032-12.042-0.126-18.083    c-0.057-2.184-0.702-5.099-0.69-7.511c2.137,0.113,4.465-0.254,6.299-0.363c0.274-0.016,0.557-0.032,0.842-0.051    c-0.672,7.666-0.068,15.912,0.112,23.502c0.206,8.623,0.247,17.319,0.034,25.94c-2.217-0.031-4.433-0.039-6.649-0.033    c-0.023-0.178-0.043-0.349-0.047-0.49c-0.044-1.301-0.023-2.601-0.096-3.883c0.208-1.836,0.492-3.849,0.521-5.3    C364.854,312.691,364.511,308.109,364.562,303.542z M368.514,273.268c-1.448-0.118-5.281,0.778-6.49-0.225    c-0.798-0.662-1.041-3.613-1.056-5.63c0.116-0.03,0.245-0.036,0.365-0.059c1.115-0.036,2.229-0.084,3.343-0.14    c0.223,0.002,0.455,0.008,0.655-0.001c0.408-0.016,0.82-0.055,1.232-0.1c1.456-0.09,2.912-0.209,4.365-0.345    c0.423,0.053,0.976,0.165,1.285,0.23c0.448-0.008,0.874,0.101,1.282,0.299c0.003,0.01,0.004,0.012,0.009,0.022    c0.241,0.42,0.378,0.862,0.462,1.314c0.024,0.383,0.053,0.768,0.078,1.158c0.011,0.173,0.025,0.338,0.04,0.502    c-0.009,0.636-0.04,1.284-0.022,1.929c-0.136,0.488-0.452,0.855-1.157,1.048C371.648,273.615,369.817,273.375,368.514,273.268z     M361.048,282.516c-0.051,6.358-0.105,12.779-0.357,19.128c-0.22,5.559,0.162,11.142-0.091,16.711    c-0.118,2.577-0.972,5.978-0.518,8.596c-4.111-0.003-8.224-0.08-12.34-0.383c-0.03-0.151-0.061-0.302-0.095-0.449    c0.309-3.065,0.072-6.303,0.052-9.335c-0.033-4.943,0.051-9.891-0.153-14.82c-0.339-8.228-0.259-16.633-1.051-24.845    c1.558-0.452,2.882-1.411,3.364-3.599c0.092-0.419,0.135-0.84,0.156-1.259c0.524-1.422,0.516-3.24,0.2-4.77    c2.472,0.004,4.945-0.002,7.415-0.044c-0.002,0.372,0.008,0.774,0.031,1.222c0.172,3.225-0.062,7.075,2.911,8.559    c0.194,0.097,0.408,0.16,0.616,0.236C360.849,279.11,361.059,281.134,361.048,282.516z M337.337,303.542    c0.066-6.035,0.032-12.042-0.126-18.083c-0.057-2.184-0.702-5.099-0.69-7.511c2.137,0.113,4.465-0.254,6.3-0.363    c0.274-0.016,0.557-0.032,0.842-0.051c-0.672,7.666-0.068,15.912,0.113,23.502c0.2,8.402,0.241,16.873,0.046,25.279    c-2.242-0.099-4.477-0.079-6.712-0.019c-0.037-1.248-0.023-2.494-0.092-3.725c0.208-1.836,0.492-3.849,0.521-5.3    C337.629,312.691,337.287,308.109,337.337,303.542z M341.289,273.268c-1.449-0.118-5.281,0.778-6.49-0.225    c-0.786-0.652-1.033-3.52-1.053-5.534c4.197-0.073,8.401-0.052,12.605-0.031c0.189,0.372,0.316,0.758,0.391,1.155    c0.024,0.383,0.053,0.768,0.078,1.158c0.011,0.173,0.025,0.338,0.04,0.502c-0.009,0.636-0.04,1.284-0.022,1.929    c-0.137,0.488-0.452,0.855-1.157,1.048C344.423,273.615,342.592,273.375,341.289,273.268z M333.823,282.516    c-0.051,6.358-0.105,12.779-0.357,19.128c-0.221,5.559,0.162,11.142-0.092,16.711c-0.11,2.417-0.855,5.55-0.576,8.092    c-2.427,0.098-4.856,0.196-7.294,0.205c-1.587,0.005-3.253,0.083-4.947,0.168c-0.036-0.242-0.084-0.473-0.136-0.7    c0.308-3.065,0.072-6.303,0.052-9.335c-0.033-4.943,0.051-9.891-0.153-14.82c-0.339-8.229-0.259-16.633-1.051-24.845    c1.558-0.452,2.882-1.411,3.364-3.599c0.092-0.419,0.135-0.84,0.156-1.259c0.483-1.311,0.511-2.955,0.265-4.402    c1.312-0.029,2.622-0.067,3.925-0.133c1.14-0.057,2.283-0.1,3.425-0.136c0.001,0.334,0.01,0.687,0.031,1.08    c0.172,3.225-0.062,7.075,2.911,8.559c0.194,0.097,0.408,0.16,0.616,0.236C333.624,279.11,333.834,281.134,333.823,282.516z     M310.112,303.542c0.066-6.035,0.032-12.042-0.125-18.083c-0.057-2.184-0.702-5.099-0.69-7.511    c2.137,0.113,4.465-0.254,6.299-0.363c0.274-0.016,0.557-0.032,0.842-0.051c-0.671,7.666-0.068,15.912,0.112,23.502    c0.206,8.634,0.247,17.339,0.033,25.971c-2.258,0.084-4.507,0.099-6.652-0.088c-0.022-0.168-0.04-0.331-0.044-0.466    c-0.044-1.301-0.023-2.601-0.096-3.883c0.208-1.836,0.492-3.849,0.521-5.3C310.405,312.691,310.062,308.109,310.112,303.542z     M314.064,273.268c-1.448-0.118-5.281,0.778-6.49-0.225c-0.773-0.64-1.023-3.416-1.051-5.423c4.249,0.151,8.53,0.281,12.792,0.279    c0.087,0.24,0.155,0.485,0.201,0.734c0.024,0.383,0.053,0.768,0.078,1.158c0.011,0.173,0.025,0.338,0.04,0.502    c-0.009,0.636-0.04,1.284-0.022,1.929c-0.136,0.488-0.452,0.855-1.158,1.048C317.198,273.615,315.367,273.375,314.064,273.268z     M394.457,196.061c0.185,4.883,0.187,9.629-0.059,14.504c-0.277,5.479-0.067,10.948-0.248,16.426    c-0.096,2.909-0.558,6.043-0.373,9.021c-1.492-0.022-2.983-0.008-4.47,0.081c0.369-3.386,0.112-7.181,0.128-10.487    c0.019-4.269,0.301-8.473,0.435-12.73c0.177-5.648-0.328-11.405-0.695-17.035c-0.2-3.084,0.087-6.8-0.434-9.983    c2.065,0.182,4.098,0.294,6.18,0.295C394.173,189.334,394.331,192.751,394.457,196.061z M384.607,177.828    c0.251-0.516,0.441-1.095,0.54-1.759c0.034-0.231,0.055-0.478,0.08-0.72c0.804-0.461,3.567-0.264,4.257-0.279    c0.841-0.018,1.694,0.087,2.552,0.237c0.567,0.138,1.14,0.259,1.743,0.353c0.046,0.008,0.1,0.01,0.148,0.017    c1.735,0.353,3.473,0.663,5.17,0.321c0.625,0.08,1.223,0.204,1.756,0.407c0.059,0.48,0.127,0.959,0.165,1.446    c0.161,2.047,0.529,2.459-1.178,3.343c-1.894,0.981-4.969,0.417-7.034,0.358c-1.324-0.039-2.594-0.385-3.907-0.559    c-1.287-0.172-2.851,0.1-4.108-0.454c-0.169-0.075-0.284-0.131-0.359-0.164C384.411,179.782,384.49,178.78,384.607,177.828z     M385.913,185.588c-0.757,2.403-0.633,5.27-0.598,7.749c0.07,4.978,0.233,9.948,0.167,14.927c-0.067,4.956-0.611,9.858-0.7,14.807    c-0.072,4.015,0.39,9.054-0.362,12.964c-0.061,0.16-0.113,0.318-0.143,0.473c-0.675,0.048-1.351,0.088-2.028,0.099    c-1.658,0.025-3.264-0.226-4.855,0.009c0.771-3.86,0.247-8.891,0.131-12.785c-0.128-4.288-0.259-8.573-0.384-12.86    c-0.211-7.234-0.605-14.45-0.883-21.678c0.009-0.001,0.02-0.003,0.029-0.004c2.193-0.341,4.964,0.225,5.376-3.037    c0.09-0.714,0.136-1.485,0.141-2.278C382.879,185.078,384.463,185.407,385.913,185.588z M373.61,236.788    c-0.332,0.015-0.653,0.026-0.948,0.024c-1.886-0.016-3.732-0.19-5.598-0.331c0.075-0.297,0.083-0.624,0.008-0.98    c0.588-14.761,1.373-30.669-0.689-45.374c2.366,0.288,5.046-0.039,7.264-0.396c-1.303,5.485-0.209,13.223-0.149,18.468    c0.048,4.194-0.037,8.396,0.052,12.589c0.102,4.835,0.794,10.425,0.067,15.168C373.571,236.253,373.577,236.528,373.61,236.788z     M369.348,185.866c-1.042-0.037-4.064,0.171-4.869-0.619c-0.723-0.71-0.287-1.679-0.248-2.699    c0.042-1.102,0.306-1.761,0.714-2.151c3.531,0.197,7.312,0.533,10.93,0.303c0.919,0.236,1.909,0.354,2.891,0.335    c-0.153,0.785-0.094,2.492-0.067,1.546c-0.014,0.504,0.042,0.928,0.131,1.335c-0.208,1.907-0.724,1.51-2.762,1.647    C373.788,185.714,371.646,185.947,369.348,185.866z M302.213,159.89c-0.265-1.426,3.897-1.568,4.573-1.662    c5.053-0.713,10.023-1.295,15.116-1.231c8.537,0.107,17.043,0.418,25.574,0.48c8.692,0.063,17.58-0.044,26.254,0.42    c2.395,0.129,4.707,0.323,7.109,0.285c2.504-0.04,3.635-1.042,3.275,2.286c-0.087,0.804,0.842-0.387,0.306,0.618    c-0.68,1.277-3.076,0.646-4.186,0.739c-0.245-0.083-0.465-0.166-0.698-0.22c-7.314-1.681-15.349-0.925-22.781-1.339    c-8.86-0.492-17.724,0.007-26.578-0.386c-7.061-0.314-14.116,0.284-21.168,0.572C308.341,160.48,302.445,161.137,302.213,159.89z     M304.377,169.095c0.119-5.795,1.969-4.335,6.183-4.462c16.333-0.492,32.663,0.186,49.028,0.653    c3.521,0.1,7.031,0.321,10.55,0.515c2.225,0.123,7.843-0.74,9.623,1.139c1.213,1.281,1.633,7.699,0.655,8.649    c-0.252,0.245-1.202,0.522-2.318,0.778c-1.553-0.433-3.283-0.412-4.787-0.498c-2.7-0.154-6.27-0.973-9.049-0.2    c-1.229-0.122-2.445-0.228-3.639-0.291c-7.483-0.391-15.07-0.592-22.57-0.414c-7.319,0.175-14.632-0.284-21.948-0.255    c-2.34,0.009-4.813,0.391-7.138,0.161C305.11,174.49,304.282,173.697,304.377,169.095z M363.744,209.701    c-0.143,8.547-1.085,17.236-0.777,25.778c-0.056,0.253-0.086,0.499-0.064,0.723c-3.722-0.239-7.44-0.493-11.161-0.791    c-1.743-0.14-3.485-0.206-5.229-0.244c0.385-1.528,0.199-3.191,0.243-5.025c0.115-4.881,0.306-9.755,0.438-14.635    c0.138-5.093,0.006-10.295-0.306-15.382c-0.125-2.055,0.142-5.113-0.393-7.46c1.858-0.405,3.591-1.194,4.269-2.763    c0.828-1.913,0.381-7.174-0.547-9.785c3.462,0.033,6.924,0.099,10.381,0.143c-0.154,1.162-0.14,2.425-0.128,3.666    c0.03,3.157,1.494,4.823,3.564,5.637C362.393,195.518,363.844,203.725,363.744,209.701z M343.603,216.223    c-0.2,4.649-0.352,9.276-0.665,13.917c-0.103,1.534-0.298,3.341-0.145,4.987c-1.586,0.003-3.172,0.022-4.76,0.042    c0.455-1.888,0.145-4.291,0.161-6.084c0.049-5.636-0.277-11.257-0.358-16.881c-0.079-5.539-0.533-10.917-0.892-16.426    c-0.051-0.779-0.003-1.653-0.063-2.472c1.696-0.024,3.365-0.156,4.775-0.187c0.554-0.012,1.257-0.029,2.022-0.079    C342.232,200.233,343.915,208.989,343.603,216.223z M336.652,188.687c-0.352,0.002-4.004-0.528-4.55-0.609    c0.067-0.149-0.252-1.223-0.298-1.625c-0.128-1.104-0.142-2.205-0.184-3.313c-0.044-1.158-0.044-2.098-0.493-2.808    c2.307,0.014,4.616-0.001,6.925-0.091c3.286-0.128,6.573-0.15,9.859-0.135c0.013,1.629-0.053,3.296-0.048,4.932    c0.007,2.673,0.204,3.02-2.281,3.437C342.625,188.972,339.616,188.672,336.652,188.687z M333.645,234.718    c-0.023,0.164-0.033,0.323-0.034,0.479c-2.404,0.001-4.808-0.03-7.212-0.175c-2.634-0.16-5.406-0.371-8.216-0.527    c0.169-0.418,0.214-0.875,0.155-1.321c0.369-2.913-0.02-6.054,0.155-8.977c0.263-4.405,0.424-8.739,0.337-13.161    c-0.111-5.653,0.925-13.809-0.364-19.696c0.904-0.186,1.713-0.532,2.31-1.146c1.876-1.931,1.056-7.359,0.236-10.021    c2.31,0.033,4.619,0.086,6.928,0.123c-0.299,0.455-0.49,1.015-0.51,1.562c-0.115,3.203-0.111,8.517,2.657,10.167    c1.213,0.723,2.69,1.06,4.242,1.2c-0.305,1.439-0.285,2.945-0.292,4.574c-0.018,4.179,0.021,8.341-0.053,12.524    C333.844,218.257,334.772,226.868,333.645,234.718z M315.318,209.127c-0.044,4.41-0.134,8.751-0.488,13.146    c-0.265,3.294,0.136,7.49-0.532,10.62c-0.109,0.509-0.065,1.003,0.081,1.443c-1.409-0.037-2.817-0.042-4.216-0.009    c0.256-2.054,0.01-4.271,0.018-6.324c0.018-4.452,0.201-8.886,0.148-13.34c-0.095-7.79-0.44-15.571-0.661-23.354    c0.697-0.078,1.38-0.151,2.002-0.124c1.153,0.049,2.77,0.299,4.376,0.335C314.733,196.764,315.367,204.169,315.318,209.127z     M311.671,186.735c-1.182-0.075-2.405,0.14-3.576,0.027c-0.224-0.058-0.356-0.04-0.419,0.034c-0.091-0.464-0.182-0.93-0.28-1.394    c-0.24-1.748-0.216-3.397-0.189-5.085c2.25,0.176,4.708-0.101,6.912-0.144c1.661-0.033,3.322-0.03,4.983-0.016    c-0.365,1.188-0.509,2.34-0.601,3.627c-0.035,0.489,0.187,2.711-0.106,3.076C317.587,187.866,312.884,186.811,311.671,186.735z     M299.454,244.586c0.309-1.897,0.744-3.458,2.202-4.214c1.053-0.546,2.789-0.386,3.891-0.481    c7.738-0.666,15.541-0.133,23.296,0.067c14.369,0.37,28.666,0.144,43.022,0.956c3.17,0.179,3.746,0.27,4.366,4.103    c0.198,1.225,0.247,2.503,0.34,3.739c0.237,3.142,0.887,8.1-0.19,11.098c-1.186,3.3-4.189,1.797-6.764,2.613    c-0.83,0.025-1.667,0.077-2.513,0.163c-0.414,0.003-0.83,0.002-1.25-0.01c-3.668-0.102-7.327-0.489-11-0.607    c-3.549-0.113-7.08,0.182-10.611,0.45c-0.118-0.007-0.232-0.02-0.351-0.023c-1.799-0.055-3.695,0.121-5.578,0.364    c-1.435,0.042-2.873,0.051-4.313-0.025c-6.73-0.356-13.566-0.422-20.304-0.443c-3.304-0.01-6.584-0.417-9.898-0.441    c-0.763-0.006-3.001,0.407-3.635-0.193c-0.608-0.575-0.482-5.258-0.575-6.386C299.301,251.845,298.888,248.061,299.454,244.586z     M206.471,239.891c1.102,0.095,2.838-0.065,3.891,0.481c1.456,0.755,1.892,2.316,2.201,4.214    c0.567,3.475,0.153,7.259-0.131,10.734c-0.092,1.126,0.033,5.81-0.575,6.386c-0.634,0.6-2.872,0.187-3.635,0.193    c-3.315,0.025-6.594,0.431-9.898,0.441c-6.738,0.021-13.574,0.087-20.304,0.443c-1.441,0.076-2.878,0.067-4.313,0.025    c-1.882-0.243-3.779-0.418-5.578-0.364c-0.119,0.003-0.233,0.017-0.351,0.023c-3.531-0.27-7.062-0.565-10.611-0.45    c-3.673,0.118-7.332,0.504-11,0.607c-0.421,0.011-0.837,0.013-1.25,0.01c-0.847-0.085-1.683-0.138-2.513-0.163    c-2.577-0.818-5.579,0.687-6.764-2.613c-1.078-2.999-0.427-7.957-0.19-11.098c0.094-1.237,0.142-2.515,0.34-3.739    c0.62-3.833,1.195-3.924,4.366-4.103c14.356-0.811,28.654-0.586,43.022-0.956C190.93,239.759,198.734,239.225,206.471,239.891z     M201.905,303.542c0.051,4.567-0.292,9.15-0.2,13.73c0.029,1.451,0.313,3.463,0.521,5.3c-0.073,1.281-0.052,2.581-0.096,3.883    c-0.004,0.134-0.022,0.296-0.044,0.466c-2.145,0.187-4.394,0.172-6.652,0.088c-0.214-8.631-0.173-17.338,0.033-25.971    c0.18-7.59,0.784-15.836,0.112-23.502c0.285,0.018,0.567,0.034,0.842,0.051c1.835,0.109,4.163,0.477,6.299,0.363    c0.012,2.412-0.633,5.326-0.69,7.511C201.873,291.5,201.839,297.507,201.905,303.542z M197.954,273.268    c-1.303,0.106-3.134,0.347-4.39,0.004c-0.705-0.193-1.02-0.56-1.158-1.048c0.018-0.645-0.013-1.292-0.022-1.929    c0.014-0.164,0.029-0.329,0.04-0.502c0.025-0.39,0.054-0.775,0.078-1.158c0.046-0.249,0.115-0.494,0.201-0.734    c4.262,0.002,8.543-0.128,12.792-0.279c-0.029,2.007-0.28,4.782-1.051,5.423C203.235,274.047,199.402,273.151,197.954,273.268z     M191.597,326.12c-0.053,0.227-0.1,0.458-0.137,0.7c-1.694-0.086-3.36-0.163-4.947-0.168c-2.438-0.008-4.867-0.107-7.294-0.205    c0.279-2.542-0.466-5.675-0.576-8.092c-0.254-5.569,0.129-11.152-0.092-16.711c-0.252-6.349-0.306-12.769-0.357-19.128    c-0.011-1.383,0.198-3.406-0.138-5.052c0.207-0.075,0.422-0.139,0.616-0.236c2.972-1.484,2.739-5.332,2.911-8.559    c0.021-0.393,0.03-0.746,0.031-1.08c1.143,0.036,2.284,0.079,3.425,0.136c1.303,0.065,2.613,0.104,3.925,0.133    c-0.245,1.448-0.217,3.091,0.265,4.402c0.022,0.419,0.064,0.84,0.156,1.259c0.482,2.187,1.805,3.146,3.364,3.599    c-0.793,8.212-0.712,16.617-1.051,24.845c-0.204,4.928-0.12,9.878-0.153,14.82C191.526,319.817,191.289,323.056,191.597,326.12z     M174.681,303.542c0.051,4.567-0.292,9.15-0.2,13.73c0.029,1.451,0.313,3.463,0.521,5.3c-0.069,1.23-0.055,2.477-0.094,3.725    c-2.235-0.062-4.47-0.081-6.712,0.019c-0.195-8.405-0.154-16.875,0.046-25.279c0.181-7.59,0.784-15.836,0.112-23.502    c0.285,0.018,0.567,0.034,0.842,0.051c1.835,0.109,4.163,0.477,6.3,0.363c0.012,2.412-0.633,5.326-0.69,7.511    C174.649,291.5,174.614,297.507,174.681,303.542z M170.729,273.268c-1.303,0.106-3.135,0.347-4.39,0.004    c-0.705-0.193-1.02-0.56-1.157-1.048c0.018-0.645-0.013-1.292-0.022-1.929c0.014-0.164,0.029-0.329,0.04-0.502    c0.025-0.39,0.054-0.775,0.078-1.158c0.075-0.397,0.201-0.783,0.391-1.155c4.204-0.02,8.409-0.042,12.605,0.031    c-0.021,2.013-0.268,4.882-1.053,5.534C176.01,274.047,172.177,273.151,170.729,273.268z M164.372,326.12    c-0.034,0.148-0.065,0.298-0.095,0.449c-4.116,0.303-8.229,0.38-12.34,0.383c0.454-2.619-0.401-6.019-0.518-8.596    c-0.254-5.569,0.129-11.152-0.092-16.711c-0.252-6.349-0.306-12.769-0.357-19.128c-0.011-1.383,0.198-3.406-0.138-5.052    c0.207-0.075,0.422-0.139,0.616-0.236c2.972-1.484,2.739-5.332,2.911-8.559c0.024-0.448,0.033-0.851,0.031-1.222    c2.47,0.042,4.943,0.048,7.415,0.044c-0.317,1.53-0.324,3.346,0.2,4.77c0.022,0.419,0.064,0.84,0.156,1.259    c0.482,2.187,1.805,3.146,3.364,3.599c-0.794,8.212-0.712,16.617-1.051,24.845c-0.204,4.928-0.12,9.878-0.153,14.82    C164.301,319.817,164.064,323.056,164.372,326.12z M147.456,303.542c0.051,4.567-0.292,9.15-0.2,13.73    c0.029,1.451,0.313,3.463,0.521,5.3c-0.073,1.281-0.052,2.581-0.096,3.883c-0.004,0.141-0.024,0.312-0.047,0.49    c-2.216-0.007-4.433,0.002-6.649,0.033c-0.212-8.622-0.172-17.318,0.034-25.94c0.181-7.59,0.784-15.836,0.112-23.502    c0.285,0.018,0.567,0.034,0.842,0.051c1.835,0.109,4.163,0.477,6.299,0.363c0.012,2.412-0.633,5.326-0.69,7.511    C147.424,291.5,147.389,297.507,147.456,303.542z M143.504,273.268c-1.303,0.106-3.134,0.347-4.39,0.004    c-0.705-0.193-1.02-0.56-1.157-1.048c0.016-0.645-0.013-1.292-0.022-1.929c0.014-0.164,0.029-0.329,0.04-0.502    c0.025-0.39,0.054-0.775,0.078-1.158c0.085-0.453,0.221-0.895,0.462-1.314c0.004-0.01,0.004-0.012,0.009-0.022    c0.409-0.198,0.834-0.306,1.282-0.299c0.308-0.065,0.862-0.177,1.285-0.23c1.453,0.135,2.908,0.254,4.365,0.345    c0.412,0.045,0.822,0.084,1.232,0.1c0.201,0.009,0.432,0.003,0.655,0.001c1.114,0.056,2.228,0.104,3.343,0.14    c0.12,0.022,0.25,0.029,0.365,0.059c-0.014,2.017-0.258,4.968-1.056,5.63C148.785,274.047,144.952,273.151,143.504,273.268z     M137.148,326.12c-0.07,0.304-0.129,0.618-0.16,0.96c-2.432,0.089-4.864,0.227-7.298,0.479c0.535-6.97-0.536-14.575-0.528-21.356    c0.005-5.108,0.13-10.198,0.267-15.306c0.105-3.905,0.924-9.153-0.396-13.043c0.252-0.228,0.472-0.493,0.647-0.81    c0.804-1.46,1.093-3.242,1.193-4.884c0.054-0.889-0.221-1.911-0.121-2.759c0.094-0.796,0.943-1.434,1.67-1.701    c1.016-0.373,1.991-0.368,1.995,0.818c0.003,1.295-0.097,2.498,0.363,3.746c0.021,0.419,0.064,0.84,0.156,1.259    c0.482,2.187,1.805,3.146,3.364,3.599c-0.793,8.212-0.712,16.617-1.051,24.845c-0.204,4.928-0.12,9.878-0.153,14.82    C137.076,319.817,136.839,323.056,137.148,326.12z M133.251,181.034c0.982,0.02,1.972-0.099,2.891-0.335    c3.618,0.23,7.398-0.106,10.93-0.303c0.408,0.39,0.673,1.049,0.714,2.151c0.039,1.022,0.476,1.99-0.248,2.699    c-0.804,0.789-3.826,0.581-4.868,0.619c-2.297,0.081-4.441-0.152-6.72-0.305c-2.036-0.137-2.554,0.26-2.762-1.647    c0.089-0.406,0.145-0.83,0.131-1.335C133.345,183.527,133.404,181.819,133.251,181.034z M144.946,235.501    c-0.075,0.354-0.067,0.682,0.008,0.98c-1.866,0.141-3.712,0.315-5.598,0.331c-0.295,0.002-0.614-0.009-0.948-0.024    c0.033-0.259,0.039-0.535-0.008-0.833c-0.727-4.743-0.035-10.333,0.068-15.168c0.089-4.193,0.003-8.395,0.052-12.589    c0.059-5.245,1.154-12.983-0.149-18.468c2.217,0.357,4.899,0.685,7.264,0.396C143.574,204.83,144.359,220.74,144.946,235.501z     M151.419,180.259c3.458-0.043,6.919-0.109,10.381-0.143c-0.927,2.611-1.374,7.871-0.547,9.785    c0.678,1.569,2.411,2.358,4.269,2.763c-0.534,2.346-0.266,5.404-0.392,7.46c-0.31,5.087-0.444,10.287-0.306,15.382    c0.131,4.88,0.324,9.754,0.438,14.635c0.043,1.834-0.143,3.496,0.243,5.025c-1.744,0.039-3.486,0.105-5.229,0.244    c-3.721,0.298-7.439,0.553-11.161,0.791c0.022-0.225-0.008-0.469-0.064-0.723c0.307-8.541-0.634-17.23-0.777-25.778    c-0.1-5.975,1.351-14.184-0.292-20.139c2.071-0.815,3.535-2.48,3.564-5.637C151.559,182.684,151.573,181.422,151.419,180.259z     M184.588,181.859c-0.02-0.547-0.209-1.107-0.51-1.562c2.309-0.037,4.619-0.09,6.928-0.123c-0.82,2.662-1.64,8.09,0.236,10.021    c0.597,0.614,1.407,0.96,2.31,1.146c-1.289,5.887-0.253,14.042-0.364,19.696c-0.087,4.422,0.074,8.756,0.337,13.161    c0.175,2.923-0.214,6.064,0.155,8.977c-0.057,0.446-0.014,0.903,0.155,1.321c-2.81,0.156-5.581,0.368-8.216,0.527    c-2.405,0.145-4.809,0.176-7.214,0.175c-0.001-0.156-0.01-0.315-0.034-0.479c-1.127-7.85-0.199-16.461-0.34-24.394    c-0.074-4.184-0.035-8.345-0.053-12.524c-0.007-1.629,0.012-3.135-0.292-4.574c1.552-0.14,3.029-0.477,4.242-1.2    C184.7,190.376,184.703,185.062,184.588,181.859z M201.837,228.002c0.008,2.053-0.239,4.27,0.018,6.324    c-1.399-0.034-2.807-0.03-4.216,0.009c0.146-0.439,0.19-0.935,0.081-1.443c-0.668-3.13-0.266-7.326-0.532-10.619    c-0.353-4.393-0.445-8.736-0.488-13.146c-0.049-4.958,0.585-12.362-0.728-17.606c1.606-0.036,3.222-0.285,4.376-0.335    c0.623-0.026,1.306,0.047,2.002,0.124c-0.22,7.783-0.566,15.563-0.66,23.354C201.636,219.116,201.82,223.551,201.837,228.002z     M200.348,186.735c-1.213,0.076-5.916,1.132-6.724,0.124c-0.292-0.364-0.07-2.587-0.106-3.076    c-0.092-1.287-0.236-2.439-0.601-3.627c1.66-0.013,3.321-0.015,4.982,0.017c2.204,0.043,4.662,0.32,6.912,0.144    c0.028,1.688,0.051,3.337-0.189,5.085c-0.098,0.464-0.188,0.929-0.28,1.394c-0.064-0.074-0.196-0.091-0.419-0.034    C202.753,186.875,201.53,186.661,200.348,186.735z M180.398,183.141c-0.042,1.109-0.056,2.209-0.184,3.313    c-0.046,0.401-0.365,1.476-0.298,1.625c-0.545,0.08-4.197,0.611-4.55,0.609c-2.964-0.016-5.973,0.284-8.929-0.212    c-2.486-0.418-2.287-0.764-2.281-3.437c0.004-1.636-0.062-3.302-0.048-4.932c3.286-0.013,6.573,0.008,9.859,0.135    c2.31,0.09,4.618,0.106,6.925,0.091C180.442,181.042,180.442,181.983,180.398,183.141z M173.986,235.169    c-1.587-0.019-3.174-0.037-4.76-0.042c0.153-1.646-0.042-3.452-0.145-4.987c-0.313-4.642-0.465-9.269-0.665-13.917    c-0.313-7.233,1.371-15.989-0.076-23.185c0.766,0.051,1.468,0.067,2.022,0.079c1.41,0.031,3.08,0.164,4.775,0.187    c-0.059,0.818-0.012,1.693-0.063,2.472c-0.36,5.508-0.813,10.887-0.892,16.426c-0.08,5.625-0.407,11.246-0.358,16.881    C173.84,230.876,173.531,233.281,173.986,235.169z M203.051,174.872c-2.325,0.23-4.797-0.152-7.138-0.161    c-7.315-0.029-14.629,0.43-21.948,0.255c-7.5-0.179-15.088,0.022-22.57,0.414c-1.194,0.063-2.411,0.167-3.639,0.291    c-2.777-0.773-6.348,0.046-9.049,0.2c-1.505,0.086-3.234,0.065-4.787,0.498c-1.117-0.256-2.066-0.533-2.318-0.778    c-0.978-0.95-0.559-7.368,0.654-8.649c1.781-1.88,7.398-1.016,9.623-1.139c3.519-0.195,7.029-0.415,10.55-0.515    c16.365-0.466,32.694-1.145,49.028-0.653c4.214,0.127,6.065-1.333,6.184,4.462C207.736,173.697,206.907,174.49,203.051,174.872z     M127.599,161.086c-0.536-1.005,0.393,0.185,0.306-0.618c-0.36-3.329,0.771-2.326,3.275-2.286    c2.402,0.037,4.714-0.156,7.109-0.285c8.674-0.466,17.562-0.359,26.254-0.421c8.531-0.06,17.037-0.372,25.574-0.48    c5.093-0.064,10.064,0.517,15.116,1.231c0.676,0.096,4.838,0.237,4.573,1.662c-0.232,1.247-6.128,0.59-6.794,0.563    c-7.054-0.289-14.108-0.886-21.168-0.572c-8.854,0.393-17.719-0.106-26.578,0.386c-7.433,0.413-15.467-0.342-22.781,1.339    c-0.234,0.054-0.452,0.138-0.698,0.22C130.674,161.733,128.279,162.362,127.599,161.086z M130.213,183.975    c0.003,0.793,0.049,1.563,0.141,2.278c0.414,3.262,3.184,2.696,5.376,3.037c0.009,0.001,0.02,0.003,0.029,0.004    c-0.277,7.227-0.672,14.444-0.884,21.678c-0.125,4.288-0.256,8.572-0.384,12.86c-0.116,3.894-0.64,8.924,0.131,12.785    c-1.59-0.233-3.197,0.018-4.855-0.009c-0.677-0.01-1.353-0.05-2.028-0.099c-0.03-0.156-0.083-0.314-0.143-0.473    c-0.752-3.911-0.291-8.951-0.362-12.964c-0.088-4.949-0.633-9.851-0.7-14.807c-0.067-4.979,0.096-9.949,0.166-14.927    c0.035-2.479,0.16-5.346-0.598-7.749C127.554,185.407,129.139,185.078,130.213,183.975z M112.177,181.194    c-1.707-0.884-1.339-1.297-1.178-3.343c0.039-0.487,0.106-0.967,0.165-1.446c0.533-0.204,1.131-0.326,1.756-0.407    c1.697,0.341,3.436,0.032,5.17-0.321c0.047-0.007,0.101-0.009,0.148-0.016c0.602-0.095,1.177-0.217,1.743-0.353    c0.858-0.149,1.711-0.254,2.552-0.237c0.691,0.014,3.454-0.183,4.257,0.279c0.025,0.242,0.046,0.489,0.08,0.72    c0.099,0.665,0.289,1.243,0.54,1.759c0.117,0.952,0.197,1.954,0.175,2.546c-0.076,0.033-0.189,0.089-0.359,0.164    c-1.256,0.554-2.82,0.283-4.107,0.454c-1.313,0.174-2.584,0.521-3.907,0.559C117.146,181.611,114.071,182.175,112.177,181.194z     M122.15,212.877c0.133,4.257,0.415,8.461,0.435,12.73c0.014,3.307-0.241,7.101,0.128,10.487c-1.487-0.089-2.978-0.105-4.47-0.081    c0.185-2.978-0.277-6.111-0.373-9.021c-0.181-5.479,0.03-10.947-0.248-16.426c-0.247-4.875-0.244-9.621-0.059-14.504    c0.125-3.311,0.283-6.728-0.462-9.908c2.082-0.001,4.115-0.113,6.18-0.295c-0.521,3.183-0.233,6.899-0.434,9.983    C122.478,201.472,121.973,207.229,122.15,212.877z M110.478,241.325c4.54-0.146,9.158-0.094,13.677,0.266    c2.166,0.173,4.777,0.583,7.26,0.472c-0.143,1.459-0.098,3.007-0.197,4.387c-0.337,4.698-0.844,9.547-0.074,14.227    c0.092,0.56,0.203,1.078,0.327,1.573c-7.451,1.023-14.848,1.367-22.357,1.784c-4.517,0.252-9.156-0.026-13.682-0.37    c-1.838-0.14-3.691-0.199-5.519-0.444c-2.538-0.339-3.168-0.931-3.674-2.494c0.405-3.332,0.203-7.336,0.209-9.869    c0.009-3.237,0.041-6.916-0.811-9.907C93.915,240.915,102.235,241.589,110.478,241.325z M125.08,327.956    c-2.474,0.178-4.943,0.301-7.408,0.368c-0.333-3.351-0.138-7.326-0.187-10.479c-0.085-5.414-0.11-10.85-0.039-16.264    c0.059-4.471,0.385-8.931,0.631-13.389c0.159-2.885,0.616-5.912-0.358-8.441c1.397-0.234,2.705-0.542,3.579-0.621    c1.416-0.13,3.636,0.115,5.502-0.262c-1.025,9.025-1.582,18.261-1.721,27.334C124.968,313.441,125.347,320.709,125.08,327.956z     M113.351,321.414c0.109,2.137-0.086,4.661,0.055,6.98c-3.733,0.021-7.462-0.052-11.195-0.183    c0.648-8.797,0.161-18.095-0.133-26.905c-0.239-7.148,1.038-15.248-0.44-22.265c0.228-0.049,0.45-0.111,0.657-0.204    c3.203-1.433,2.17-6.349,2.636-9.52c2.323,0.026,4.633-0.015,6.945-0.069c-0.812,2.836-1.989,7.39-0.471,9.477    c0.807,1.11,2.331,1.37,3.994,1.293c-1.753,8.036-1.704,17.884-1.899,26.035C113.379,311.117,113.092,316.357,113.351,321.414z     M114.396,275.664c-0.092-0.039-0.154-0.051-0.211-0.061c0-0.099-0.012-0.227-0.062-0.433c-0.242-0.996,0.281-2.513,0.324-3.563    c0.036-0.877-0.001-1.634-0.133-2.412c2.076-0.052,4.156-0.101,6.248-0.111c1.617-0.008,3.543,0.073,5.494-0.02    c0.228,0.88,0.342,1.693,0.282,2.717c-0.023,0.395-0.035,1.966-0.128,2.828c-0.285-0.413-1.876-0.028-2.224,0.013    c-1.389,0.164-2.783,0.273-4.173,0.435c-1.18,0.138-2.354,0.354-3.532,0.483C115.8,275.593,114.865,275.857,114.396,275.664z     M98.202,300.203c0.194,9.116,0.723,18.745,0.032,27.849c-1.891-0.083-3.784-0.172-5.679-0.269    c-0.089-8.281-0.063-16.519-0.423-24.82c-0.233-5.385,0.358-10.717,0.449-16.09c0.039-2.298,0.306-5.114-0.228-7.484    c1.891,0.299,3.756-0.125,5.653-0.243c0.292-0.018,0.607-0.014,0.93-0.005c-0.444,2.161-0.189,4.805-0.35,6.854    C98.212,290.754,98.101,295.431,98.202,300.203z M91.248,274.985c-0.865-0.134-1.812,0.148-2.644-0.045    c-0.002,0-0.003,0.001-0.007,0.001c0.005-0.096,0.011-0.193,0.009-0.335c-0.009-0.572-0.053-1.162-0.026-1.734    c0.07-1.543,0.529-3.492,0.076-4.949c4.017,1.288,9.173,1.249,12.373,1.318c-0.085,0.758-0.094,1.526-0.064,2.354    c0.076,2.084,0.495,2.794-1.201,3.233C97.132,275.51,93.845,275.39,91.248,274.985z M85.971,215.454    c0.201-5.443-0.192-10.819,0.272-16.279c0.326-3.843-0.525-9.868,1.038-13.281c0.817-1.784,3.682-2.802,5.576-2.108    c1.674,0.614,1.254,0.49,1.342,2.938c0.029,0.793,0.08,1.575,0.107,2.369c0.195,5.947-0.164,11.921-0.35,17.869    c-0.301,9.623-0.185,19.169,0.221,28.745c-2.809,0.148-5.961,0.02-8.806,0.713c-0.004-2.832,0.422-5.895,0.376-8.603    C85.676,223.656,85.817,219.611,85.971,215.454z M82.968,179.656c-0.244-0.122-0.44-0.266-0.597-0.428    c-0.94-0.972-0.474-2.586-0.679-3.994c-0.004-0.026-0.008-0.085-0.012-0.154c0.254-0.002,0.684-0.138,1.27-0.201    c3.892-0.424,7.75,0.105,11.649,0.182c1.54,0.031,3.425-0.705,4.361,1.221c0.885,1.817-0.081,3.111-1.533,3.534    c-3.971,1.158-8.912,0.297-12.961,0.122C83.957,179.916,83.437,179.891,82.968,179.656z M85.331,267.368    c0.324,0.018,0.658,0.051,1.018,0.098c-1.072,2.385-1.495,6.978-0.933,9.131c0.477,1.827,2.241,2.34,3.992,2.541    c0.12,8.631-1.498,17.262-1.144,25.933c0.179,4.413,0.364,8.831,0.364,13.255c0,3.022-0.248,6.173-0.15,9.246    c-0.435-0.023-0.869-0.045-1.304-0.068c-3.799-0.198-7.603-0.296-11.41-0.34c0.543-2.645-0.345-6.158-0.466-8.808    c-0.254-5.569,0.129-11.152-0.091-16.711c-0.252-6.349-0.306-12.769-0.357-19.128c-0.011-1.383,0.199-3.406-0.138-5.052    c0.207-0.075,0.422-0.139,0.616-0.236c2.972-1.484,2.739-5.332,2.911-8.559c0.023-0.427,0.032-0.811,0.031-1.168    c0.101-0.003,0.203-0.008,0.304-0.011c1.459-0.052,3.013,0.177,4.456-0.015C83.863,267.366,84.565,267.326,85.331,267.368z     M71.335,303.542c0.049,4.567-0.292,9.15-0.2,13.73c0.029,1.451,0.313,3.463,0.521,5.3c-0.073,1.281-0.052,2.581-0.096,3.883    c-0.007,0.189-0.039,0.435-0.074,0.678c-2.206-0.002-4.412,0.012-6.619,0.034c-0.218-8.683-0.177-17.443,0.031-26.13    c0.181-7.59,0.784-15.836,0.112-23.502c0.285,0.018,0.567,0.034,0.842,0.051c1.835,0.109,4.162,0.477,6.299,0.363    c0.012,2.412-0.634,5.326-0.69,7.511C71.303,291.5,71.269,297.507,71.335,303.542z M67.383,273.268    c-1.303,0.106-3.134,0.347-4.39,0.004c-0.704-0.193-1.02-0.56-1.158-1.048c0.018-0.645-0.013-1.292-0.022-1.929    c0.014-0.164,0.029-0.329,0.04-0.502c0.025-0.39,0.054-0.775,0.078-1.158c0.046-0.249,0.115-0.494,0.201-0.734    c4.263,0.002,8.543-0.128,12.792-0.279c-0.029,2.007-0.28,4.782-1.051,5.423C72.663,274.047,68.831,273.151,67.383,273.268z     M61.027,326.12c-0.08,0.342-0.149,0.693-0.171,1.092c-4.129,0.057-8.255,0.128-12.374,0.175c0.647-2.668-0.285-6.305-0.41-9.031    c-0.253-5.569,0.129-11.152-0.091-16.711c-0.252-6.349-0.306-12.769-0.358-19.128c-0.011-1.383,0.199-3.406-0.138-5.052    c0.207-0.075,0.422-0.139,0.616-0.236c2.972-1.484,2.739-5.332,2.911-8.559c0.021-0.393,0.03-0.746,0.031-1.08    c1.143,0.036,2.284,0.079,3.425,0.136c1.303,0.065,2.613,0.103,3.925,0.133c-0.244,1.448-0.217,3.091,0.265,4.402    c0.022,0.419,0.064,0.84,0.156,1.259c0.482,2.187,1.805,3.146,3.364,3.599c-0.794,8.212-0.712,16.617-1.051,24.845    c-0.204,4.928-0.12,9.878-0.153,14.82C60.955,319.817,60.717,323.056,61.027,326.12z M44.109,303.542    c0.051,4.567-0.292,9.15-0.2,13.73c0.029,1.451,0.313,3.463,0.521,5.3c-0.073,1.281-0.052,2.581-0.096,3.883    c-0.009,0.261-0.063,0.621-0.112,0.941c-2.196-0.035-4.389-0.135-6.581-0.255c-0.217-8.675-0.176-17.427,0.031-26.104    c0.181-7.59,0.784-15.836,0.112-23.502c0.285,0.018,0.567,0.034,0.842,0.051c1.835,0.109,4.162,0.477,6.299,0.363    c0.012,2.412-0.633,5.326-0.69,7.511C44.078,291.5,44.043,297.507,44.109,303.542z M40.158,273.268    c-1.303,0.106-3.134,0.347-4.39,0.004c-0.705-0.193-1.02-0.56-1.158-1.048c0.018-0.645-0.013-1.292-0.022-1.929    c0.014-0.164,0.029-0.329,0.04-0.502c0.025-0.39,0.054-0.775,0.078-1.158c0.075-0.397,0.201-0.783,0.391-1.155    c4.204-0.02,8.409-0.042,12.605,0.031c-0.021,2.013-0.267,4.882-1.053,5.534C45.438,274.047,41.606,273.151,40.158,273.268z     M33.802,326.12c-0.059,0.256-0.11,0.522-0.145,0.801c-3.175-0.171-6.351-0.303-9.532-0.225c-0.914,0.022-1.827,0.089-2.742,0.178    c0.423-2.608-0.418-5.967-0.535-8.519c-0.254-5.569,0.129-11.152-0.092-16.711c-0.252-6.349-0.306-12.769-0.357-19.128    c-0.011-1.383,0.199-3.406-0.138-5.052c0.207-0.075,0.423-0.139,0.616-0.236c2.972-1.484,2.739-5.332,2.911-8.559    c0.023-0.448,0.033-0.851,0.031-1.222c2.47,0.042,4.942,0.048,7.415,0.044c-0.317,1.53-0.324,3.346,0.2,4.77    c0.022,0.419,0.064,0.84,0.156,1.259c0.482,2.187,1.805,3.146,3.364,3.599c-0.794,8.212-0.712,16.617-1.051,24.845    c-0.204,4.928-0.12,9.878-0.153,14.82C33.73,319.817,33.492,323.056,33.802,326.12z M63.345,214.395    c-0.196-4.733,0.042-9.498,0.117-14.232c0.037-2.344,0.265-4.665,0.404-7.003c0.099-1.678-0.225-5.703,0.717-7.152    c0.467-0.718,4.012-1.722,5.172-1.269c1.966,0.767,1.302,3.287,1.225,5.543c-0.196,5.699-0.107,11.411-0.242,17.112    c-0.209,8.876-0.828,18.042-0.539,26.915c-2.328-0.022-4.67,0.061-6.989,0.189C63.501,227.817,63.621,221.051,63.345,214.395z     M37.747,202.84c0.009-3.236,0.182-6.466,0.253-9.698c0.032-1.413-0.169-6.335,0.106-6.942c-0.012,0.028,0.58-0.435,1.059-0.751    c1.925-1.274,4.63-2.704,7.008-2.654c0.313,8.432,0.548,16.804,0.181,25.296c-0.369,8.533-1.099,17.546-0.434,26.076    c0.03,0.382,0.122,0.722,0.255,1.026c-2.896-0.022-5.791-0.074-8.684-0.063C38.196,224.367,37.717,213.638,37.747,202.84z     M11.062,230.391c-0.019-5.536-0.053-11.031-0.203-16.554c-0.16-5.854-0.172-11.802-0.085-17.659    c0.039-2.574-0.533-10.457,1.422-12.363c0.734-0.716,4.227-0.95,5.218-0.645c2.587,0.797,2.008,4.045,2.027,6.84    c0.041,6.16,0.13,12.302-0.002,18.47c-0.121,5.665-0.179,11.346-0.406,16.999c-0.141,3.518-0.48,7.189-0.105,10.695    c-1.094,0.07-2.187,0.146-3.281,0.214c-1.67,0.102-3.312,0.266-4.97,0.357C11.527,234.969,11.069,232.311,11.062,230.391z     M5.067,259.855c-1.078-2.999-0.427-7.957-0.19-11.098c0.094-1.237,0.142-2.515,0.34-3.739c0.62-3.833,1.195-3.924,4.366-4.103    c14.356-0.811,28.654-0.586,43.022-0.956c7.755-0.199,15.559-0.733,23.296-0.067c1.102,0.095,2.838-0.065,3.891,0.481    c1.456,0.755,1.891,2.316,2.202,4.214c0.566,3.475,0.153,7.259-0.131,10.734c-0.092,1.126,0.033,5.81-0.575,6.386    c-0.634,0.6-2.873,0.187-3.635,0.193c-3.313,0.025-6.594,0.432-9.898,0.441c-6.738,0.021-13.574,0.087-20.304,0.443    c-1.441,0.076-2.878,0.067-4.313,0.025c-1.882-0.243-3.779-0.418-5.578-0.364c-0.119,0.003-0.233,0.016-0.351,0.023    c-3.531-0.27-7.063-0.565-10.611-0.45c-3.673,0.118-7.332,0.504-11,0.607c-0.42,0.011-0.837,0.013-1.25,0.01    c-0.846-0.085-1.683-0.138-2.513-0.163C9.255,261.651,6.253,263.155,5.067,259.855z M7.386,272.225    c0.018-0.645-0.013-1.292-0.022-1.929c0.014-0.164,0.029-0.329,0.04-0.502c0.025-0.39,0.054-0.775,0.078-1.158    c0.085-0.453,0.221-0.895,0.462-1.314c0.004-0.01,0.004-0.012,0.009-0.022c0.409-0.198,0.834-0.306,1.282-0.299    c0.308-0.065,0.862-0.177,1.285-0.23c1.453,0.135,2.908,0.254,4.365,0.345c0.412,0.045,0.822,0.084,1.232,0.1    c0.2,0.009,0.432,0.003,0.655,0.001c1.114,0.056,2.228,0.104,3.343,0.14c0.12,0.022,0.25,0.029,0.365,0.059    c-0.014,2.017-0.258,4.968-1.056,5.63c-1.21,1.002-5.043,0.107-6.49,0.225c-1.303,0.106-3.135,0.347-4.39,0.004    C7.838,273.08,7.522,272.713,7.386,272.225z M16.884,303.542c0.051,4.567-0.292,9.15-0.2,13.73c0.029,1.451,0.313,3.463,0.521,5.3    c-0.073,1.281-0.052,2.581-0.096,3.883c-0.01,0.276-0.068,0.66-0.121,0.993c-1.495,0.225-2.991,0.45-4.485,0.63    c-0.68-0.155-1.376-0.253-2.076-0.324c-0.236-8.876-0.193-17.835,0.019-26.718c0.181-7.59,0.784-15.836,0.112-23.502    c0.285,0.018,0.567,0.034,0.842,0.051c1.835,0.109,4.163,0.477,6.3,0.363c0.012,2.412-0.633,5.326-0.69,7.511    C16.853,291.5,16.818,297.507,16.884,303.542z M226.793,348.476c-0.039,0.535,0.064,2.119-0.171,2.562    c-0.026,0.051-0.033,0.072-0.052,0.112c-0.048-0.096-0.189-0.16-0.561-0.083c-1.923,0.404-4.158-0.645-6.091-0.867    c-1.057,0-2.153-0.245-3.207-0.359c-1.87-0.201-3.952-0.727-5.814-0.268c-1.584,0.39-2.92,0.598-4.565,0.549    c-4.511-0.133-9.023-0.201-13.537-0.206c-9.039-0.009-18.078,0.241-27.107,0.75c-1.03,0.057-2.165,0.294-3.189,0.129    c-0.816-0.132-1.482-0.272-2.328-0.22c-2.231,0.134-4.462,0.295-6.692,0.446c-4.412,0.299-8.827,0.566-13.248,0.543    c-2.453-0.013-4.933,0.033-7.401,0.175c-11.29-1.143-22.231-0.862-33.624-0.024c-13.719,1.008-27.279,0.084-41.006-0.363    c-13.068-0.424-26.048,0.428-39.125-0.622c-2.153-0.173-4.314-0.087-6.472-0.101c-0.871-0.005-1.81-0.149-2.668,0.026    c-0.523,0.107-0.982,0.419-1.5,0.523c-3.774,0.756-2.532-6.839-2.578-8.734c-0.047-1.974-0.272-3.946-0.365-5.919    c-0.042-0.876-0.25-1.423,0.498-2.027c1.81-1.462,4.343-0.687,6.436-0.655c2.568,0.037,5.124-0.277,7.684-0.435    c6.407-0.395,12.955,0.593,19.366,0.992c13.573,0.844,27.263-0.275,40.86,0.189c15.166,0.518,30.167,1.983,45.342,0.797    c6.354-0.496,12.488-1.198,18.863-0.898c5.959,0.28,12.066,0.382,18.008-0.055c8.052-0.591,15.915-0.195,23.962-0.181    c3.845,0.007,7.683-0.249,11.533-0.164c1.577,0.034,3.224,0.116,4.815-0.107c4.292,0.424,8.86-0.116,12.786-0.09    c2.055,0.013,9.276-1.056,10.723,0.481C228.53,336.665,227.02,345.338,226.793,348.476z M228.503,328.836    c-0.018,0.019-0.028,0.041-0.044,0.059c-1.904-1.037-4.342-0.836-6.567-0.788c-4.279,0.094-8.621,0.511-12.906,0.419    c-0.555-0.011-1.464,0.273-1.954-0.075c-0.275-0.196-0.448-0.553-0.526-0.921c-0.156-0.736,0.001-1.486,0.007-2.23    c0.006-0.79-0.057-1.578-0.14-2.361c-0.161-1.528-0.433-3.045-0.503-4.584c-0.253-5.569,0.129-11.152-0.091-16.711    c-0.252-6.349-0.306-12.769-0.358-19.128c-0.011-1.383,0.199-3.406-0.138-5.052c0.208-0.075,0.422-0.139,0.616-0.236    c2.972-1.484,2.739-5.332,2.911-8.559c0.023-0.427,0.032-0.811,0.031-1.168c0.101-0.003,0.203-0.008,0.303-0.011    c2.203-0.078,4.52,0.021,6.031-1.849c0.069,0.077,0.132,0.155,0.209,0.23c2.652,2.599,7.297,1.835,10.513,1.789    c-0.691,2.767-1.143,6.541,0.183,8.194c1.128,1.408,3.384,1.666,5.615,1.609c0.314,9.357-0.635,18.645-0.522,28.018    c0.046,3.785,0.249,7.552,0.245,11.343c-0.003,3.292-0.432,7.343,0.153,10.687C230.387,327.639,229.287,327.986,228.503,328.836z     M247.224,335.866c0.342,2.436,0.173,5.548-0.051,8.001c-0.156,1.708,0.02,4.953-0.568,6.349c-0.634,1.504-0.425,0.84-2.263,0.954    c-1.034,0.064-2.065,0.293-3.095,0.409c-3.097,0.349-6.41,0.109-9.573,0.428c0.117-1.744-0.024-3.627,0.059-5.184    c0.244-4.558,0.926-10.138-0.637-14.537c0.828-0.25,2.17-0.157,2.797-0.161c2.211-0.014,4.419-0.145,6.639-0.185    C243.55,331.884,246.599,331.416,247.224,335.866z M241.586,305.917c0.055,4.257,0.096,8.495,0.211,12.744    c0.076,2.772-0.419,6.105,0.59,8.667c-1.93-0.053-3.949,0.126-5.812,0.222c-0.36,0.019-0.762,0.011-1.183-0.006    c-0.005-0.057-0.008-0.116-0.018-0.174c-0.701-4.13-0.12-8.972-0.206-13.191c-0.079-3.885-0.285-7.751-0.316-11.641    c-0.065-8.085,1.19-17.274-0.49-25.243c0.822-0.072,1.565-0.139,2.144-0.144c1.92-0.019,3.766-0.142,5.678-0.292    c0.165-0.013,0.342-0.013,0.514-0.018C242.264,286.541,241.459,296.186,241.586,305.917z M247.904,272.078    c-1.994,0.578-5.265,0.146-6.9,0.287c-2.118,0.181-4.23,0.121-6.356,0.217c-1.156,0.052-2.268,0.156-3.43,0.085    c-0.543-0.033-1.983-0.526-2.396-0.446c0.048-0.702-0.046-2.872-0.146-4.567c4.583-0.016,9.162-0.139,13.75-0.133    c1.77,0.002,3.648,0.11,5.555,0.187C247.877,269.162,247.84,270.618,247.904,272.078z M256.009,262.261    c-2.765-0.444-5.633-0.291-8.396-0.307c-4.56-0.028-9.159-0.181-13.714-0.014c-4.076,0.149-8.17,0.362-12.252,0.273    c-0.826-0.018-3.387,0.302-4.185-0.549c-0.2-0.215-0.368-0.976-0.56-1.823c0.279-3.133,0.11-6.671,0.117-8.983    c0.007-2.455,0.025-5.165-0.335-7.637c0.047-0.117,0.083-0.247,0.09-0.401c-0.028,0.603,0.115-0.152,0.364-0.64    c0.865-0.406,2.03-0.456,2.889-0.587c4-0.609,8.1-0.662,12.122-0.783c3.639-0.11,7.248,0.244,10.898,0.123    c1.714-0.057,3.461,0.05,5.153-0.102c2.041,0.057,4.038-0.086,5.119-0.05c2.853,0.096,5.731,0.07,8.595,0.062    c1.766-0.005,4.041,0.32,6.104,0.077c0.319,0.002,0.64,0.003,0.958,0.013c3.65,0.121,7.259-0.232,10.898-0.123    c4.021,0.121,8.121,0.174,12.122,0.783c0.86,0.131,2.023,0.181,2.888,0.587c0.25,0.489,0.392,1.244,0.364,0.64    c0.008,0.154,0.043,0.283,0.09,0.401c-0.36,2.472-0.341,5.183-0.335,7.637c0.007,2.312-0.162,5.849,0.117,8.983    c-0.193,0.846-0.36,1.609-0.56,1.823c-0.798,0.851-3.36,0.532-4.185,0.549c-4.082,0.089-8.176-0.125-12.252-0.273    c-4.555-0.166-9.155-0.013-13.714,0.014C261.642,261.971,258.774,261.818,256.009,262.261z M264.114,272.078    c0.064-1.461,0.027-2.915-0.077-4.37c1.908-0.077,3.785-0.185,5.555-0.187c4.588-0.005,9.166,0.117,13.75,0.133    c-0.1,1.694-0.195,3.865-0.146,4.567c-0.415-0.08-1.854,0.413-2.396,0.446c-1.161,0.072-2.274-0.033-3.43-0.085    c-2.125-0.096-4.237-0.036-6.355-0.217C269.379,272.225,266.107,272.656,264.114,272.078z M277.166,302.539    c-0.031,3.89-0.237,7.756-0.316,11.641c-0.086,4.221,0.495,9.061-0.206,13.191c-0.01,0.057-0.012,0.116-0.018,0.174    c-0.422,0.017-0.823,0.024-1.183,0.005c-1.864-0.098-3.884-0.275-5.812-0.222c1.009-2.562,0.514-5.895,0.59-8.667    c0.116-4.249,0.156-8.487,0.211-12.744c0.127-9.73-0.678-19.375-1.111-29.073c0.172,0.005,0.348,0.005,0.514,0.018    c1.912,0.15,3.757,0.273,5.678,0.292c0.578,0.005,1.322,0.073,2.143,0.144C275.977,285.265,277.231,294.453,277.166,302.539z     M280.286,346.822c0.084,1.557-0.058,3.44,0.059,5.184c-3.161-0.318-6.476-0.078-9.573-0.428c-1.03-0.116-2.062-0.346-3.095-0.409    c-1.837-0.113-1.629,0.55-2.263-0.954c-0.588-1.397-0.413-4.641-0.569-6.349c-0.223-2.453-0.393-5.565-0.051-8.001    c0.624-4.448,3.673-3.98,6.694-3.927c2.221,0.041,4.426,0.171,6.639,0.185c0.626,0.004,1.969-0.088,2.797,0.161    C279.36,336.685,280.041,342.263,280.286,346.822z M283.515,328.836c-0.783-0.85-1.885-1.197-3.068-1.322    c0.585-3.344,0.156-7.394,0.153-10.687c-0.003-3.791,0.199-7.558,0.245-11.343c0.113-9.373-0.834-18.661-0.521-28.018    c2.231,0.056,4.487-0.203,5.615-1.609c1.325-1.653,0.874-5.427,0.183-8.194c3.215,0.046,7.861,0.81,10.513-1.789    c0.076-0.075,0.14-0.153,0.209-0.23c1.51,1.87,3.829,1.771,6.031,1.849c0.101,0.003,0.203,0.008,0.304,0.011    c-0.001,0.358,0.009,0.741,0.031,1.168c0.172,3.225-0.062,7.075,2.911,8.559c0.194,0.097,0.408,0.16,0.616,0.236    c-0.337,1.645-0.127,3.668-0.138,5.052c-0.051,6.358-0.106,12.779-0.357,19.128c-0.22,5.559,0.162,11.142-0.092,16.711    c-0.07,1.539-0.341,3.057-0.503,4.584c-0.083,0.783-0.145,1.572-0.14,2.361c0.004,0.744,0.163,1.494,0.005,2.23    c-0.078,0.369-0.251,0.725-0.526,0.921c-0.489,0.347-1.398,0.063-1.954,0.075c-4.285,0.091-8.627-0.326-12.906-0.419    c-2.226-0.048-4.662-0.249-6.567,0.788C283.543,328.877,283.532,328.855,283.515,328.836z M505.75,350.798    c-0.059,0.083,0.008-0.245-1.256-0.373c-1.263-0.128-2.467,0.141-3.719,0.181c-2.611,0.083-5.224-0.085-7.833,0.124    c-13.076,1.05-26.057,0.197-39.125,0.622c-13.727,0.446-27.287,1.372-41.006,0.363c-11.393-0.837-22.334-1.118-33.624,0.024    c-2.467-0.142-4.948-0.188-7.401-0.175c-4.421,0.023-8.836-0.243-13.248-0.543c-2.23-0.152-4.46-0.312-6.692-0.446    c-0.846-0.052-1.512,0.089-2.328,0.22c-1.024,0.165-2.159-0.072-3.189-0.129c-4.367-0.245-8.738-0.432-13.111-0.556    c-4.271-0.122-8.616-0.378-12.886-0.185c-1.791,0.08-3.372,0.922-5.176,0.991c-2.876,0.108-5.759,0.116-8.638,0.174    c-5.759,0.116-11.519,0.232-17.278,0.348c-0.823,0.016-1.668,0.03-2.447-0.237c-1.497-0.512-1.475-1.412-1.571-2.726    c-0.227-3.138-1.737-11.811,0.423-14.105c1.446-1.537,8.668-0.468,10.723-0.481c3.925-0.025,8.493,0.514,12.786,0.09    c1.592,0.222,3.237,0.141,4.815,0.107c3.851-0.085,7.689,0.171,11.533,0.164c8.048-0.013,15.91-0.411,23.962,0.181    c5.942,0.437,12.049,0.335,18.008,0.055c6.376-0.299,12.508,0.402,18.863,0.898c15.175,1.186,30.177-0.277,45.342-0.797    c13.597-0.465,27.287,0.655,40.86-0.189c6.411-0.398,12.96-1.387,19.366-0.992c3.836,0.237,7.813,0.833,11.558,0.035    c0.98,0.142,1.967,0.247,2.964,0.335c0.335,2.587-0.225,6.777-0.27,8.666C506.121,344.037,506.73,349.451,505.75,350.798z"/>
	</g>
</g>
<g>
</g>
<g>
</g>
<g>
</g>
<g>
</g>
<g>
</g>
<g>
</g>
<g>
</g>
<g>
</g>
<g>
</g>
<g>
</g>
<g>
</g>
<g>
</g>
<g>
</g>
<g>
</g>
<g>
</g>
</svg>
