<?xml version="1.0" encoding="iso-8859-1"?>
<!-- Generator: Adobe Illustrator 19.0.0, SVG Export Plug-In . SVG Version: 6.00 Build 0)  -->
<svg xmlns="http://www.w3.org/2000/svg" xmlns:xlink="http://www.w3.org/1999/xlink" version="1.1" id="Layer_1" x="0px" y="0px" viewBox="0 0 512.003 512.003" style="enable-background:new 0 0 512.003 512.003;" xml:space="preserve">
<g>
	<g>
		<path d="M50.702,60.624C50.64,60.676,51.807,61.193,50.702,60.624L50.702,60.624z"/>
	</g>
</g>
<g>
	<g>
		<path d="M54.279,185.351c-0.175-3.685,0.451-8.215-1.991-11.332c-1.912-2.441-6.42-3.637-9.352-2.755    c-5.159,1.554-6.595,6.593-6.417,11.714c-0.289,1.658-0.354,3.371-0.186,5.368c0.109,1.295,0.644,3.035,1.653,3.924    c1.032,0.909,1.819,0.555,2.95,0.615c3.422,0.183,6.455,0.524,9.829-0.663C54.547,190.893,54.464,189.24,54.279,185.351z     M49.719,187.647c-0.224,0.323-0.584,0.594-1.145,0.8c-2.311,0.85-4.828,0.184-7.206,0.144c-0.308-0.083-0.615-0.08-0.922-0.031    c-0.003-0.059-0.008-0.119-0.01-0.179c0.045-0.019,0.083-0.036,0.133-0.056c-0.119-0.783-0.135-1.539-0.209-2.323    c-0.116-1.229-0.184-2.461-0.243-3.694c0.091-2.633,0.629-5.536,2.45-6.82c1.228-0.865,2.792-0.71,4.151-0.348    c2.433,0.649,3.119,1.898,3.367,4.24c0.163,1.543-0.204,3.06-0.19,4.596C49.908,185.409,50.354,186.733,49.719,187.647z"/>
	</g>
</g>
<g>
	<g>
		<path d="M81.733,185.351c-0.174-3.685,0.453-8.215-1.989-11.331c-1.912-2.441-6.42-3.637-9.352-2.755    c-5.159,1.554-6.595,6.593-6.417,11.714c-0.29,1.657-0.355,3.37-0.188,5.367c0.109,1.295,0.644,3.035,1.653,3.924    c1.032,0.909,1.819,0.555,2.95,0.615c3.422,0.183,6.455,0.524,9.829-0.663C82.001,190.893,81.918,189.24,81.733,185.351z     M77.173,187.647c-0.225,0.323-0.584,0.594-1.145,0.8c-2.311,0.85-4.828,0.184-7.206,0.144c-0.308-0.083-0.615-0.08-0.922-0.031    c-0.003-0.059-0.008-0.119-0.01-0.179c0.045-0.019,0.083-0.036,0.131-0.056c-0.119-0.783-0.135-1.539-0.209-2.323    c-0.116-1.229-0.184-2.461-0.243-3.694c0.093-2.633,0.629-5.537,2.451-6.821c1.228-0.865,2.792-0.71,4.151-0.348    c2.435,0.649,3.119,1.898,3.367,4.24c0.164,1.543-0.204,3.06-0.19,4.596C77.363,185.409,77.809,186.734,77.173,187.647z"/>
	</g>
</g>
<g>
	<g>
		<path d="M54.279,220.184c-0.175-3.685,0.451-8.215-1.991-11.333c-1.912-2.441-6.42-3.637-9.352-2.755    c-5.159,1.554-6.595,6.593-6.417,11.714c-0.29,1.657-0.355,3.37-0.188,5.367c0.109,1.295,0.644,3.035,1.653,3.924    c1.032,0.909,1.819,0.555,2.95,0.615c3.422,0.183,6.455,0.524,9.83-0.663C54.547,225.726,54.463,224.073,54.279,220.184z     M49.719,222.478c-0.224,0.323-0.584,0.594-1.145,0.8c-2.311,0.85-4.828,0.184-7.206,0.144c-0.308-0.083-0.615-0.08-0.922-0.031    c-0.003-0.059-0.008-0.119-0.01-0.179c0.045-0.019,0.083-0.036,0.133-0.056c-0.119-0.783-0.135-1.539-0.209-2.323    c-0.116-1.229-0.184-2.461-0.243-3.694c0.093-2.633,0.629-5.537,2.451-6.821c1.228-0.865,2.792-0.71,4.151-0.348    c2.433,0.649,3.119,1.898,3.367,4.24c0.163,1.543-0.204,3.06-0.19,4.598C49.909,220.24,50.355,221.565,49.719,222.478z"/>
	</g>
</g>
<g>
	<g>
		<path d="M81.733,220.182c-0.174-3.685,0.453-8.214-1.989-11.331c-1.912-2.441-6.42-3.637-9.352-2.755    c-5.159,1.554-6.595,6.593-6.417,11.714c-0.29,1.657-0.355,3.37-0.188,5.367c0.109,1.295,0.644,3.035,1.653,3.924    c1.032,0.909,1.819,0.555,2.95,0.615c3.422,0.183,6.455,0.524,9.829-0.663C82.001,225.724,81.918,224.071,81.733,220.182z     M77.173,222.478c-0.225,0.323-0.584,0.594-1.145,0.8c-2.311,0.85-4.828,0.184-7.206,0.144c-0.308-0.083-0.615-0.08-0.922-0.031    c-0.003-0.059-0.008-0.119-0.01-0.179c0.045-0.019,0.083-0.036,0.131-0.056c-0.119-0.783-0.135-1.539-0.209-2.323    c-0.116-1.229-0.184-2.461-0.243-3.694c0.093-2.633,0.629-5.537,2.451-6.821c1.228-0.865,2.792-0.71,4.151-0.348    c2.435,0.649,3.119,1.898,3.367,4.24c0.164,1.543-0.204,3.06-0.19,4.598C77.363,220.24,77.809,221.565,77.173,222.478z"/>
	</g>
</g>
<g>
	<g>
		<path d="M73.162,287.643c0.17-1.601-0.035-3.369-0.019-4.723c0.054-4.604,0.251-9.242-0.365-13.82    c-1.045-7.755-2.975-15.316-12.494-14.171c-9.161,1.102-10.226,11.031-11.096,18.532c-0.295,2.543-1.907,11.441-0.807,16.194    c0.121,1.373,0.503,2.637,1.264,3.495c2.443,2.748,7.965,2.316,11.25,2.392c2.811,0.065,8.508,0.814,10.741-1.433    C73.302,292.435,73.557,289.99,73.162,287.643z M68.252,278.498c-0.203,2.182-0.285,4.376-0.563,6.551    c-0.181,1.414-0.206,4.101-1.592,4.977c-1.225,0.745-3.708,0.476-5.068,0.554c-2.219,0.128-4.455,0.293-6.676,0.093    c-2.119-0.191-2.047-1.393-2.372-3.246c-0.028-0.159-0.075-0.331-0.116-0.5c0.76-10.538-0.821-28.536,10.118-28.342    c5.868,0.104,6.9,5.927,6.896,10.687C68.878,272.355,68.538,275.431,68.252,278.498z"/>
	</g>
</g>
<g>
	<g>
		<path d="M461.281,60.624C460.175,61.193,461.342,60.676,461.281,60.624L461.281,60.624z"/>
	</g>
</g>
<g>
	<g>
		<path d="M490.72,143.397c-0.955-0.241-1.921-0.389-2.888-0.485c1.993-3.934,2.171-9.047,1.837-14.208    c-0.631-9.754-1.107-18.118-6.075-26.786c-2.087-3.64-4.049-7.37-6.865-10.536c-2.362-2.656-5.467-4.596-8.08-6.987    c-1.593-1.458-2.973-3.01-4.176-4.66c-3.132-5.879-3.152-12.687-5.207-18.816c0.566,0.009,1.148-0.065,1.744-0.241    c0.184-0.054,0.258-0.065,0.271-0.053c0.085-0.044,0.18-0.093,0.293-0.149c0.646-0.325,1.163-0.699,1.787-1.06    c0.438-0.254,2.326-1.736,3.187-2.976c2.588-3.729,1.209-7.793-0.441-11.634c-1.448-3.367-3.066-5.499-5.99-6.82    c0.336-1.754,0.163-3.606,0.179-5.414c0.033-3.537,0.555-7.116,0.73-10.67c0.295-6.018,1.087-13.191,0.303-19.135    c-0.481-3.647-6.265-3.721-5.813,0c0.263,2.167,0.052,4.47-0.158,6.755c-1.564-0.333-3.179-0.504-4.789-0.786    c-3.09-0.543-6.092-1.214-9.213-1.447c-2.246-0.168-4.913-0.909-6.453,1.235c-1.662,2.313-1.582,6.135-1.814,8.845    c-0.433,5.053-1.837,8.43,3.896,9.673c5.657,1.227,11.585,2.543,17.431,3.007c-0.094,2.291-0.044,4.589,0.38,6.77    c-5.651,0.161-9.827,5.132-10.779,10.87c-0.761,4.591,1.971,8.603,5.793,10.811c-0.949,1.803-1.489,3.905-2.327,5.781    c-2.321,5.197-4.115,10.243-8.281,14.307c-3.284,3.202-5.666,6.97-8.388,10.686c-3.166,4.321-6.586,8.493-9.587,12.907    c-4.917,7.232-5.506,14.596-5.074,23.199c0.229,4.563,0.932,10.305,3.222,14.879c-5.467-0.219-8.725,2.761-8.973,8.904    c-0.276,6.872,1.596,10.051,6.306,11.608c-1.303,11.656-0.655,24.042-0.708,35.679c-0.014,2.989-0.07,5.971-0.143,8.952    c-2.298-0.344-4.635-0.186-7.101-0.349c-2.793-0.183-5.817-0.844-8.605-0.781c-7.649,0.171-8.714,6.178-8.819,12.384    c-0.065,3.869,0.819,9.297-0.519,13.023c-0.75,2.092-0.779,1.867-3.031,1.618c-1.819-0.201-4.16-0.121-5.889-0.62    c-6.117-1.768-1.932-16.363-3.689-22.05c-2.491-8.065-9.236-5.467-16.067-6.001c-4.715-0.368-14.27-2.538-18.512,0.606    c-4.279,3.172-3.881,11.561-4.139,16.165c-0.174,3.099,0.189,6.151-0.148,9.232c-0.321,2.93-1.088,3.281-3.532,3.201    c-4.264-0.141-12.054,1.611-13.529-3.863c-1.568-5.813,0.052-12.322-1.225-18.282c-1.089-5.08-6.926-6.014-11.398-6.775    c-4.96-0.844-12.774-2.671-17.741-1.288c-3.516,0.979-5.008,5.486-6.012,8.563c-1.806,5.532-2.114,11.43-2.043,17.208    c0.02,1.582,0.391,3.331,0.11,4.894c-0.15,0.837-0.585,1.663-1.323,2.083c-1.46,0.833-2.48,0.046-3.876,1.052    c-1.168,0.183-2.317,0.236-3.265-0.019c-2.088-0.56-1.781-0.37-1.921-3.116c-0.054-1.062,0.034-2.141,0.083-3.202    c0.209-4.573-0.739-8.885-1.2-13.441c-0.521-5.145-0.615-10.703-4.535-14.584c-3.516-3.48-8.523-2.718-13.077-2.293    c-4.135,0.386-9.003-0.598-12.588,2.211c-3.569,2.795-3.577,8.76-3.2,12.833c0.479,5.18,1.996,15.685-2.535,19.529    c-1.164,0.988-2.677,1.425-4.276,1.604c-0.952-0.246-1.803,0.054-2.907-0.576c-0.739-0.421-1.173-1.247-1.323-2.083    c-0.28-1.563,0.091-3.312,0.11-4.894c0.071-5.778-0.238-11.676-2.043-17.208c-1.004-3.077-2.496-7.584-6.012-8.563    c-4.967-1.383-12.779,0.444-17.741,1.288c-4.471,0.76-10.308,1.694-11.398,6.775c-1.278,5.961,0.343,12.469-1.225,18.282    c-1.476,5.472-9.267,3.721-13.529,3.863c-2.446,0.081-3.212-0.271-3.532-3.201c-0.338-3.081,0.025-6.135-0.148-9.232    c-0.258-4.604,0.14-12.993-4.139-16.165c-4.243-3.145-13.796-0.975-18.512-0.606c-6.831,0.534-13.577-2.066-16.067,6.001    c-1.756,5.687,2.428,20.282-3.689,22.05c-1.729,0.5-4.07,0.42-5.889,0.62c-2.251,0.249-2.28,0.474-3.031-1.618    c-1.338-3.726-0.453-9.156-0.519-13.023c-0.105-6.206-1.172-12.213-8.819-12.384c-2.787-0.063-5.811,0.599-8.605,0.781    c-2.466,0.161-4.803,0.004-7.101,0.349c-0.073-2.981-0.129-5.963-0.143-8.952c-0.052-11.636,0.595-24.023-0.708-35.679    c4.71-1.557,6.582-4.735,6.306-11.608c-0.248-6.145-3.505-9.123-8.973-8.904c2.291-4.574,2.993-10.316,3.222-14.879    c0.431-8.603-0.159-15.966-5.074-23.199c-3.001-4.414-6.421-8.585-9.587-12.907c-2.722-3.716-5.104-7.484-8.388-10.686    c-4.168-4.064-5.961-9.111-8.281-14.307c-0.838-1.877-1.378-3.978-2.327-5.781c3.823-2.207,6.555-6.218,5.793-10.811    c-0.952-5.738-5.128-10.708-10.779-10.87c0.424-2.181,0.474-4.479,0.38-6.77c5.847-0.463,11.774-1.781,17.431-3.007    c5.733-1.243,4.329-4.622,3.896-9.673c-0.233-2.711-0.153-6.531-1.814-8.845c-1.541-2.144-4.208-1.403-6.453-1.235    c-3.121,0.233-6.123,0.904-9.213,1.447c-1.609,0.283-3.225,0.453-4.789,0.786c-0.21-2.283-0.421-4.588-0.158-6.755    c0.451-3.721-5.332-3.647-5.813,0c-0.784,5.944,0.008,13.117,0.303,19.135c0.175,3.552,0.698,7.131,0.73,10.67    c0.016,1.808-0.158,3.66,0.179,5.414c-2.925,1.32-4.543,3.452-5.991,6.82c-1.651,3.84-3.03,7.904-0.441,11.634    c0.862,1.24,2.75,2.722,3.187,2.976c0.624,0.361,1.14,0.735,1.787,1.06c0.113,0.057,0.208,0.105,0.293,0.149    c0.014-0.013,0.088-0.001,0.271,0.052c0.596,0.176,1.178,0.25,1.744,0.241c-2.054,6.13-2.073,12.937-5.207,18.816    c-1.202,1.651-2.583,3.202-4.176,4.66c-2.613,2.391-5.718,4.331-8.08,6.987c-2.816,3.166-4.778,6.896-6.865,10.536    c-4.968,8.668-5.443,17.031-6.074,26.786c-0.334,5.162-0.158,10.275,1.837,14.208c-0.968,0.098-1.933,0.244-2.888,0.485    c-6.503,1.643-10.3,7.019-8.609,13.787c1.244,4.978,6.098,5.853,10.96,5.892c-1.691,14.126-0.793,28.816-0.625,42.948    c0.156,13.136,0.361,26.304,0.729,39.434c0.376,13.474,0.484,27.046-0.128,40.53c-0.309,6.817-0.656,13.781-0.057,20.604    c0.151,1.724,0.386,3.44,0.671,5.148c0.024,1.272,0.051,2.516,0.064,3.71c0.091,8.792,0.269,17.592,0.085,26.376    c-0.416,19.915,1.02,39.851-0.37,59.733c-1.28,18.309-1.733,36.95-0.768,55.303c0.464,8.824,1.192,17.862,2.361,26.619    c0.413,3.094,0.658,6.2,1.265,9.257c-0.003,0.636-0.003,1.272-0.004,1.909c-0.011,3.872-0.506,9.042,2.385,12.12    c3.17,3.375,9.88,3.876,14.187,4.531c6.801,1.035,13.881,0.298,20.734,0.55c6.383,0.235,12.916,0.23,19.301-0.201    c3.502-0.236,6.857-1.147,9.023-3.537c2.008,0.494,4.326,0.315,6.417,0.453c5.584,0.368,11.089-0.042,16.677,0.025    c8.843,0.106,18.795,1.212,27.43-1.024c0.093-0.006,0.181-0.021,0.273-0.034c0.955,1.723,2.651,2.888,5.714,3.326    c4.365,0.624,13.988,1.897,17.107-2.302c0.036-0.049,0.061-0.104,0.096-0.153c3.921,2.002,8.899,1.224,13.372,1.507    c7.205,0.454,14.503,0.43,21.735,0.359c8.084-0.08,16.079-0.145,24.178-0.523c5.13-0.24,10.515,0.039,15.555-1.044    c4.154,0.214,8.295,0.5,12.47,0.755c6.655,0.408,13.377,0.183,20.032,0.161c2.299-0.008,5.202,0.155,8.041-0.005    c1.666,0.031,3.326,0.055,4.96,0.131c8.098,0.378,16.094,0.443,24.177,0.523c7.231,0.071,14.53,0.096,21.735-0.359    c4.474-0.283,9.451,0.495,13.372-1.507c0.035,0.049,0.06,0.104,0.096,0.153c3.119,4.198,12.742,2.926,17.107,2.302    c3.063-0.438,4.758-1.603,5.714-3.326c0.091,0.013,0.18,0.027,0.273,0.034c8.635,2.234,18.587,1.13,27.43,1.024    c5.587-0.068,11.092,0.343,16.677-0.025c2.091-0.138,4.409,0.041,6.417-0.453c2.167,2.391,5.521,3.301,9.024,3.537    c6.385,0.431,12.917,0.436,19.301,0.201c6.852-0.253,13.933,0.485,20.734-0.55c4.306-0.655,11.017-1.157,14.187-4.531    c2.891-3.079,2.395-8.248,2.385-12.12c-0.001-0.638-0.001-1.273-0.004-1.909c0.608-3.057,0.852-6.162,1.265-9.257    c1.169-8.757,1.897-17.795,2.361-26.619c0.965-18.354,0.513-36.996-0.768-55.303c-1.39-19.883,0.046-39.818-0.37-59.733    c-0.184-8.784-0.008-17.585,0.085-26.376c0.013-1.193,0.04-2.437,0.064-3.71c0.285-1.708,0.52-3.424,0.671-5.148    c0.599-6.823,0.251-13.787-0.057-20.604c-0.611-13.483-0.505-27.055-0.128-40.53c0.368-13.131,0.573-26.299,0.729-39.434    c0.168-14.132,1.065-28.821-0.625-42.948c4.863-0.039,9.717-0.914,10.96-5.892C501.02,150.416,497.223,145.04,490.72,143.397z     M454.754,25.262c-3.19-0.276-6.427-0.867-9.568-1.264c-2.458-0.31-5.628-0.769-8.226-1.553c-0.226-2.118,0.378-5.029,0.549-6.842    c-0.069-1.329,0.13-2.627,0.598-3.896c-0.034-1.083,0.444-1.214,1.435-0.396c1.11-0.118,2.787,0.196,3.814,0.36    c3.848,0.614,7.804,1.733,11.735,1.713c-0.004,0.138-0.013,0.279-0.014,0.415c-0.027,2.8,0.148,5.538-0.057,8.365    C454.946,23.164,454.85,24.204,454.754,25.262z M452.198,42.56c1.179-1.052,2.676-1.576,4.189-1.504    c0.424,0.353,0.997,0.438,1.537,0.303c3.312,1.093,4.879,4.63,4.603,8.004c-0.185,2.269-1.225,3.355-2.7,4.733    c-0.23,0.153-0.426,0.345-0.631,0.528c-0.063,0.026-0.143,0.061-0.26,0.118c-0.116,0.086-0.228,0.169-0.343,0.251    c-1.052-0.151-2.128-0.401-3.162-0.141c-0.044,0.01-0.076,0.033-0.119,0.045c-0.546-0.145-1.133-0.135-1.703,0.026    C449.127,52.64,448.451,45.903,452.198,42.56z M424.056,113.257c1.448-6.611,7.654-12.004,11.631-17.221    c2.54-3.331,4.758-7.124,7.469-10.295c2.082-2.433,4.463-4.324,6.173-7.124c2.054-3.361,3.455-7.291,4.645-11.03    c0.15-0.471,0.285-1.29,0.444-2.209c0.575,2.296,0.914,4.672,1.434,6.904c0.829,3.555,2.236,6.751,3.951,10.001    c2.7,5.114,7.069,8.269,10.907,12.433c2.445,2.652,4.398,5.608,6.546,8.46c3.039,5.906,4.528,12.083,4.395,19.083    c-0.078,4.101,0.394,8.208,0.076,12.312c-0.578,7.487-7.117,6.712-12.813,7.012c-8.099,0.426-15.685,0.576-23.82,0.283    c-5.397-0.195-14.612,0.6-18.41-3.946C421.836,132.108,422.528,120.227,424.056,113.257z M95.615,276.145    c0.987-13.707,1.228-27.753,1.205-41.504c-0.013-7.598-0.279-15.163-0.51-22.73c2.009,0.379,4.103,0.473,6.12,0.518    c3.078,0.068,9.113-1.664,10.641,1.325c0.569,1.114,0.146,4.832,0.171,6.007c0.054,2.443-0.089,4.868,0.121,7.307    c0.216,2.511,0.228,5.801,1.479,8.086c3.026,5.524,12.242,3.221,17.133,2.901c8.225-0.539,8.79-7.741,8.313-14.579    c-0.231-3.305-1.984-9.374-0.388-12.448c1.084-2.087-0.134-1.564,2.656-1.728c1.319-0.078,2.717,0.136,4.061,0.02    c4.283-0.373,8.658-1.089,12.966-1.085c1.253,0.001,4.239-0.46,5.033,0.295c1.062,1.01,0.852,5.373,0.907,6.781    c0.224,5.728-2.262,15.591,1.192,20.427c3.471,4.862,12.913,4.2,18.624,3.101c3.342-0.116,6.715-0.408,9.429-2.511    c3.406-2.64,3.456-7.21,3.431-11.206c-0.021-3.466-0.231-7.059-0.535-10.511c-0.38-4.345,0.751-5.038,5.195-6.016    c4.464-0.983,15.198-3.617,17.273,1.464c1.981,4.85,0.714,12.169,0.35,17.331c-0.255,3.614-0.744,9.464,2.768,11.794    c2.152,1.428,5.392,1.568,7.794,0.46c5.804,0.503,11.31-1.058,13.041-7.945c0.869-3.456,1.428-7.05,1.581-10.619    c0.151-3.516-0.809-6.967-0.843-10.496c-0.03-3.05-0.436-6.171,2.796-7.247c2.375-0.79,5.957-0.074,8.513-0.249    c3.139-0.214,6.86-0.854,8.975,1.964c2.352,3.132,1.853,7.625,2.154,11.294c0.428,5.218,0.803,9.986,0.715,15.189    c-0.064,3.764,0.373,8.069,4.456,9.383c2.943,0.948,7.19,0.686,10.425-0.683c2.028,0.364,4.258,0.021,5.874-1.052    c3.512-2.331,3.023-8.18,2.768-11.794c-0.364-5.162-1.631-12.48,0.35-17.331c2.076-5.082,12.809-2.447,17.273-1.464    c4.444,0.978,5.577,1.671,5.195,6.016c-0.303,3.452-0.513,7.045-0.535,10.511c-0.025,3.996,0.026,8.567,3.431,11.206    c2.715,2.103,6.086,2.395,9.428,2.511c5.712,1.099,15.154,1.761,18.625-3.101c3.452-4.835,0.968-14.7,1.192-20.427    c0.055-1.408-0.155-5.771,0.907-6.781c0.794-0.755,3.779-0.294,5.033-0.295c4.308-0.004,8.683,0.713,12.965,1.085    c1.344,0.117,2.742-0.098,4.061-0.02c2.79,0.164,1.572-0.359,2.656,1.728c1.597,3.073-0.156,9.142-0.388,12.448    c-0.478,6.836,0.088,14.04,8.313,14.579c4.892,0.32,14.107,2.623,17.133-2.901c1.252-2.286,1.264-5.576,1.479-8.086    c0.21-2.44,0.068-4.864,0.121-7.307c0.026-1.174-0.398-4.892,0.171-6.007c1.528-2.99,7.563-1.258,10.641-1.325    c2.017-0.045,4.11-0.139,6.12-0.518c-0.231,7.568-0.498,15.133-0.51,22.73c-0.023,13.751,0.219,27.797,1.205,41.504    c0.114,1.578,0.198,3.16,0.289,4.74c-10.226-3.592-22.925-2.234-33.434-2.292c-13.339-0.074-26.818,0.17-40.159,0.363    c-19.712,0.286-39.375,0.055-59.052,0.315c-9.863-0.611-19.823-0.254-29.68-0.306c-5.596-0.029-11.12,0.269-16.687,0.479    c-22.908-0.523-45.784-0.155-68.725-0.488c-13.342-0.194-26.82-0.438-40.159-0.363c-10.508,0.058-23.208-1.3-33.434,2.292    C95.419,279.304,95.501,277.723,95.615,276.145z M104.064,284.474c2.796-0.118,5.582-0.339,8.385-0.35    c6.906-0.025,13.865-0.086,20.766,0.103c13.192,0.361,26.484-0.073,39.651,0.474c12.334,0.513,24.454-0.56,36.74-1.188    c6.121-0.313,12.207-0.13,18.324-0.474c0.553-0.031,1.107-0.05,1.663-0.064c0.07,0.007,0.153,0.019,0.204,0.019    c0.658,0.003,1.324-0.029,1.988-0.044c3.898,0.004,7.825,0.188,11.656-0.34c4.188-0.049,8.333,0.015,12.585,0.169    c6.536,0.236,13.077,0.724,19.608,0.894c4.942,0.129,11.808,1.038,16.829-0.395c3.301,0.041,6.603,0.069,9.915,0.238    c12.287,0.628,24.406,1.701,36.74,1.188c13.167-0.546,26.458-0.113,39.651-0.474c6.902-0.189,13.86-0.128,20.766-0.103    c2.803,0.01,5.589,0.231,8.385,0.35c2.881,0.121,6.037-0.491,8.937-0.243c0.126,2.428,0.243,4.857,0.365,7.285    c-0.013,0.229-0.01,0.46-0.02,0.689c-11.949-1.812-24.148,0.329-36.221-0.808c-6.801-0.64-13.697-0.034-20.529-0.394    c-5.519-0.291-11.027-0.578-16.544-0.804c-12.818-0.526-25.276-0.982-38.083-0.489c-5.094,0.196-10.28,0.269-15.466,0.405    c-5.307-0.263-10.688-0.25-15.884-0.269c-7.036-0.025-14.165-0.274-21.202,0.094c-6.033,0.315-12.084,0.446-18.108,0.541    c-1.078,0.016-2.338-0.039-3.582,0.03c-8.458-0.49-17.059-0.479-25.418-0.8c-12.807-0.493-25.265-0.038-38.083,0.489    c-5.517,0.226-11.025,0.513-16.544,0.804c-6.832,0.36-13.728-0.246-20.529,0.394c-12.073,1.137-24.272-1.003-36.221,0.808    c-0.01-0.229-0.008-0.46-0.02-0.689c0.121-2.428,0.238-4.857,0.365-7.285C98.027,283.982,101.183,284.595,104.064,284.474z     M56.892,13.383c3.931,0.021,7.886-1.098,11.735-1.713c1.027-0.164,2.703-0.478,3.814-0.36c0.992-0.818,1.469-0.687,1.435,0.396    c0.468,1.268,0.666,2.567,0.598,3.896c0.171,1.813,0.775,4.724,0.549,6.842c-2.598,0.784-5.767,1.243-8.226,1.553    c-3.141,0.396-6.378,0.988-9.568,1.264c-0.096-1.059-0.193-2.099-0.264-3.099c-0.205-2.827-0.03-5.566-0.057-8.365    C56.906,13.662,56.896,13.522,56.892,13.383z M52.157,54.096c-1.474-1.378-2.515-2.463-2.7-4.733    c-0.275-3.374,1.29-6.911,4.603-8.004c0.54,0.135,1.113,0.05,1.537-0.303c1.513-0.073,3.01,0.453,4.189,1.504    c3.746,3.341,3.071,10.08-1.41,12.363c-0.57-0.161-1.157-0.171-1.703-0.026c-0.043-0.012-0.075-0.035-0.119-0.045    c-1.034-0.259-2.111-0.01-3.162,0.141c-0.115-0.083-0.226-0.165-0.343-0.251c-0.118-0.056-0.198-0.093-0.26-0.118    C52.584,54.442,52.387,54.25,52.157,54.096z M30.331,122.258c-0.133-7,1.358-13.176,4.395-19.083    c2.148-2.851,4.101-5.808,6.546-8.46c3.837-4.164,8.206-7.319,10.907-12.433c1.716-3.25,3.121-6.446,3.951-10.001    c0.521-2.232,0.86-4.608,1.435-6.904c0.158,0.92,0.294,1.739,0.444,2.209c1.19,3.737,2.59,7.668,4.645,11.03    c1.712,2.8,4.093,4.69,6.173,7.124c2.711,3.17,4.929,6.964,7.469,10.295c3.978,5.217,10.183,10.61,11.631,17.221    c1.528,6.971,2.219,18.851-2.631,24.661c-3.796,4.547-13.013,3.751-18.41,3.946c-8.136,0.293-15.721,0.143-23.82-0.283    c-5.694-0.3-12.234,0.476-12.813-7.012C29.937,130.465,30.409,126.359,30.331,122.258z M88.415,298.465    c-0.045,2.339-0.064,4.679-0.14,6.991c-0.285,8.689-1.189,17.318-1.278,26.015c-0.184,18.068-1.054,36.077-1.127,54.18    c-0.076,19.171-0.185,38.381-0.218,57.581c-0.018,10.058,0.543,20.083,0.574,30.12c0.011,3.44-0.139,7.309,0.061,11.104    c-0.817,3.909-0.643,8.77-0.71,11.129c-0.051,1.753,1.127,5.594-0.129,6.92c-1.349,1.424-6.271,0.543-8.076,0.619    c-5.234,0.223-10.293,0.326-15.523,0.341c-5.529,0.016-11.282,0.385-16.784-0.273c-3.459-0.414-9.388-0.445-10.67-3.794    c0.591-3.166-0.19-7.61-0.238-9.564c-0.21-8.669-0.824-17.44-1.45-26.097c-1.399-19.318-1.022-39.142,0.025-58.456    c1.059-19.559-0.451-39.138-0.778-58.707c-0.154-9.218-0.281-18.517-0.932-27.713c-0.041-0.584-0.073-1.169-0.108-1.753    c0.276-3.141,0.354-6.297,0.295-9.602c-0.12-6.75,0.805-13.663,1.133-20.408c0.673-13.847,0.641-27.809-0.201-41.639    c-0.775-12.737-1.007-25.565-1.417-38.316c-0.468-14.535,0.411-29.696-1.294-44.212c0.454-0.01,0.895-0.016,1.31-0.011    c9.142,0.119,18.317,0.173,27.444,0.086c5.305-0.051,10.542-0.276,15.836-0.625c5.164-0.34,10.383,0.001,15.535-0.521    c-1.25,11.08-1.127,22.281-1.173,33.415c-0.055,13.126-0.186,26.219-0.209,39.37C88.141,256.141,86.796,277.27,88.415,298.465z     M89.943,155.759c-3.8,0.514-7.559,0.235-11.379,0.364c-6.802,0.229-13.56,0.899-20.375,1.023    c-11.406,0.205-22.986,0.188-34.386-0.304c-1.284-0.055-4.248,0.219-5.104-1.17c-0.809-1.312,1.143-4.712,2.043-5.373    c2.066-1.519,5.543-1.144,7.919-1.418c0.614-0.071,1.234-0.141,1.853-0.216c0.85,0.344,1.756,0.648,2.777,0.869    c8.902,1.924,19.049,1.718,28.107,1.235c5.367-0.285,11.826-0.383,17.661-1.582c0.506-0.05,1.012-0.104,1.51-0.178    c2.545-0.376,5.157-0.939,7.708-1.403c4.918-0.894,7.395-1.746,6.852,4.344C94.807,155.559,93.377,155.294,89.943,155.759z     M148.925,364.726c-2.893-9.008-11.895-16.697-21.358-17.986c-8.959-1.22-19.109,3.499-25.156,10.031    c-3.195,3.45-6.141,8.321-8.268,13.548c0.024-3.5,0.056-6.999,0.086-10.498c1.202-2.648,2.448-5.677,2.76-6.261    c2.576-4.829,6.046-9.559,10.232-13.152c7.825-6.716,21.357-7.816,31.02-4.438c9.933,3.472,17.172,13.151,18.46,23.325    c1.292,10.201,2.169,20.622,2.016,30.923c-3.026,0.308-5.933,0.923-8.808,1.777c0.812-2.842,0.786-5.968,0.875-8.875    C150.973,377.039,150.8,370.565,148.925,364.726z M143.694,420.085c-0.25,3.923-0.079,7.848-0.116,11.77    c-0.079,8.225-0.046,16.449-0.134,24.682c-0.155,14.43-1.693,28.887-1.448,43.312c-9.154,0.874-18.254,0.578-27.447,0.748    c-5.035,0.093-10.057,0.384-15.089,0.415c-1.37,0.009-2.926,0.008-4.445,0.184c0.213-2.275,0.128-4.749-0.068-7.046    c0.183-0.379,0.308-0.78,0.351-1.195c0.815-7.759,0.022-16.112-0.345-23.9c-0.445-9.449-0.598-18.836-0.613-28.304    c-0.031-17.847-0.135-35.689-0.21-53.515c3.254-8.604,4.664-17.607,10.418-25.207c4.872-6.433,14.417-10.971,22.501-9.431    c10.252,1.954,16.642,10.614,17.727,20.583c0.459,4.218,0.255,8.432,0.21,12.644c-0.022,2.031-0.179,4.646,0.314,6.857    c-4.216,0.743-7.054,2.023-7.421,7.004c-0.284,3.839-0.136,10.363,4.025,12.151c0.854,0.366,1.769,0.513,2.707,0.563    C144.451,414.96,143.857,417.525,143.694,420.085z M162.654,486.319c-0.233,4.584-0.518,9.197-0.784,13.786    c-0.2,3.446,0.323,4.62-3.294,5.042c-1.919,0.224-6.282,0.195-7.522-0.148c-2.821-0.779-2.587-0.211-3.035-3.496    c-0.288-2.107-0.075-4.53-0.019-6.66c0.093-3.44,0.348-6.872,0.461-10.316c0.261-7.979,0.289-15.989,0.37-23.97    c0.09-8.86-0.389-17.705-0.428-26.559c-0.019-4.378-0.199-8.775-0.165-13.158c0.023-2.898,0.545-5.716,0.175-8.508    c0.441-0.009,0.879-0.011,1.303,0.015c3.32,0.203,6.3,0.998,9.668,0.599c0.903-0.108,1.868-0.165,2.852-0.226    c-1.997,6.377-0.834,15.136-0.504,21.26c0.476,8.803,0.469,17.653,0.474,26.477C162.211,469.014,163.084,477.816,162.654,486.319z     M159.556,407.23c-3.989,0.471-7.675-0.396-11.661-0.446c-2.052-0.026-2.998,0.41-4.143-1.034    c-1.332-1.681-0.953-8.096,0.284-8.962c0.238-0.166,0.518-0.311,0.829-0.44c5.732,1.293,12.16-0.829,17.943-0.993    c0.828-0.024,3.003-0.541,3.773-0.074c1.693,1.029,1.229,5.203,1.177,6.852C167.581,407.639,163.798,406.729,159.556,407.23z     M222.327,375.881c-2.486,0.201-4.627,0.258-7.1,0.047c-1.418-0.12-5.594,0.12-6.563-1.052c-0.433-0.521-0.21-3.437-0.099-3.727    c0.765-2.006,1.961-1.828,3.692-2.134c1.454-0.258,2.898-0.49,4.331-0.75c1.557,0.052,3.085-0.164,4.81-0.248    c0.628-0.03,4.57-0.283,4.987,0.073c0.862,0.732,0.419,3.291,0.421,4.273c0.003,0.889,0.226,2.925-0.4,3.535    C226.106,376.189,222.815,375.841,222.327,375.881z M278.736,346.63c-2.773-3.384-7.959-6.59-12.974-7.815    c-3.465-1.584-7.595-1.473-11.451-0.92c-0.877,0.126-2.009,0.259-3.25,0.434c-6.152-0.385-14.117,3.796-17.811,8.3    c-3.109,3.79-7.07,10.73-6.32,16.185c-2.134-0.391-5.144-0.111-7.924,0.49c-0.133-0.004-0.271,0.005-0.405,0.005    c0.98-2.598,1.168-5.563,1.894-8.214c1.262-4.604,3.083-9.207,5.777-13.169c2.356-3.466,6.757-7.171,11.598-9.641    c4.166-0.04,10.018-1.713,12.41-1.956c3.564-0.361,7.107-0.588,10.652-0.829c0.258,0.108,0.541,0.158,0.831,0.108    c8.215-1.388,19.584,5.896,23.949,12.317c2.693,3.963,4.515,8.565,5.777,13.169c0.726,2.651,0.914,5.616,1.894,8.214    c-0.134,0-0.273-0.009-0.405-0.005c-2.78-0.6-5.789-0.88-7.924-0.49C285.805,357.359,281.843,350.42,278.736,346.63z     M283.545,413.85c-1.117-0.173-2.365-0.288-3.761-0.435c-3.021-0.318-5.797-0.599-8.553-0.675    c-5.762-0.371-11.523-0.121-17.363-0.034c-2.631,0.039-5.172-0.01-7.65,0.206c-4.675-0.465-9.014-0.025-14.017,0.503    c-1.397,0.148-2.645,0.263-3.761,0.435c0.905-5.059,0.335-10.89,0.309-15.431c-0.023-3.919-0.203-7.79-0.414-11.7    c-0.099-1.828,0.093-3.828-0.651-5.473c0.528-0.081,1.052-0.229,1.572-0.489c3.454-1.724,2.736-6.007,2.797-9.236    c0.043-2.274-0.281-4.872-1.667-6.663c2.006-4.235,2.752-8.692,5.243-12.836c2.061-3.43,4.942-5.793,8.188-7.674    c3.402-0.64,6.758-1.505,10.183-2.019c3.324-0.498,6.553-0.319,9.817-0.182c4.977,2.239,9.592,4.973,12.539,9.876    c2.491,4.144,3.237,8.6,5.243,12.836c-1.385,1.793-1.709,4.389-1.667,6.663c0.061,3.229-0.656,7.511,2.797,9.236    c0.519,0.26,1.043,0.408,1.572,0.489c-0.743,1.644-0.553,3.645-0.651,5.473c-0.211,3.911-0.391,7.781-0.414,11.7    C283.21,402.96,282.639,408.791,283.545,413.85z M284.839,448.817c-0.11,7.649-0.608,15.308-0.224,22.954    c0.408,8.13-0.406,16.322-0.054,24.424c0.065,1.509-0.23,4.089,0.07,6.286c-5.149,0.08-10.642-0.096-15.649,0.827    c-5.379,0.048-10.791,0.153-16.153-0.128c-5.483-0.288-10.875-0.519-16.347-0.561c-3.052-0.133-6.15-0.091-9.13-0.138    c0.3-2.198,0.005-4.777,0.07-6.286c0.351-8.103-0.461-16.294-0.054-24.424c0.383-7.646-0.114-15.305-0.224-22.954    c-0.086-6.002,0.638-13.473-0.674-19.69c1.402,0.153,2.925-0.034,4.463-0.019c4.525,0.046,9.277,0.158,13.757-0.685    c3.212,0.13,6.597-0.238,9.309-0.135c4.001,0.151,7.926,0.061,11.909-0.179c4.879,1.162,10.145,1.049,15.14,0.998    c1.538-0.016,3.062,0.171,4.463,0.019C284.201,435.343,284.925,442.815,284.839,448.817z M281.049,424.132    c-1.189,0.004-2.362,0.009-3.536,0.004c-6.463-1.994-15.395,0.434-21.924,0.356c-4.015-0.047-8.538-0.574-12.785-0.235    c-1.5-0.166-3.016-0.255-4.566-0.195c-2.462,0.095-4.849,0.079-7.305,0.07c-2.96-0.01-5.747,0.759-4.835-3.697    c0.041-0.204,0.086-0.394,0.135-0.573c0.015-0.019,0.034-0.033,0.046-0.053c0.36-0.564,0.663-1.169,0.935-1.793    c0.87-0.802,2.178-0.803,4.116-0.978c2.195-0.199,4.383-0.659,6.556-1.007c0.724-0.116,1.481-0.226,2.25-0.333    c2.593,1.759,10.621,0.724,12.793,0.769c6.73,0.143,14.19,0.343,21.182-0.434c2.168,0.348,4.35,0.805,6.54,1.004    c1.938,0.175,3.246,0.176,4.116,0.978c0.273,0.624,0.575,1.229,0.935,1.793c0.012,0.02,0.032,0.034,0.046,0.052    c0.047,0.179,0.093,0.369,0.135,0.573C286.797,424.891,284.01,424.122,281.049,424.132z M285.577,375.896    c-0.626-0.61-0.401-2.646-0.4-3.535c0.003-0.982-0.44-3.541,0.421-4.273c0.416-0.354,4.359-0.103,4.987-0.073    c1.726,0.084,3.254,0.3,4.81,0.248c1.433,0.261,2.878,0.493,4.331,0.75c1.732,0.306,2.927,0.129,3.693,2.134    c0.111,0.29,0.333,3.206-0.099,3.727c-0.969,1.172-5.145,0.932-6.563,1.052c-2.473,0.21-4.614,0.154-7.1-0.047    C289.168,375.841,285.877,376.189,285.577,375.896z M344.067,435.662c-0.586,9.354-0.276,18.88-0.269,28.254    c0.005,7.384-0.853,15.009-0.498,22.346c0.236,4.872,0.723,9.722,0.877,14.615c0.016,0.531,0.035,1.083,0.064,1.642    c-3.74-1.147-8.377-0.892-11.809-0.797c-6.872,0.19-13.78,0.278-20.662,0.225c-7.029-0.055-14.102,0.026-21.139,0.32    c0.62-2.895-0.153-6.276-0.204-9.202c-0.131-7.629,0.146-15.291-0.4-22.931c-0.595-8.334-0.279-16.76-0.288-25.111    c-0.006-5.085,1.354-12.739-0.508-17.931c0.034-0.045,0.07-0.083,0.104-0.129c1.25-1.744,1.38-4.253,0.99-6.313    c-0.478-2.528-1.268-4.085-2.393-5.084c0.758-5.354,0.534-10.558,0.519-16.243c-0.016-5.991,0.529-12.233-0.565-18.152    c0.364-0.028,0.728-0.05,1.095-0.054c2.227-0.018,4.37,0.076,6.598-0.138c3.225-0.31,8.232-0.251,10.911-2.315    c2.51-1.933,2.513-8.248,1.618-10.876c-1.242-3.647-6.363-3.605-9.484-4.011c-0.706-0.091-1.352-0.171-1.974-0.244    c1.132-3.983-0.745-9.783-1.879-13.297c-1.606-4.975-4.065-10.277-7.541-14.262c-3.574-4.098-13.394-10.522-20.808-10.675    c-4.27-1.533-9.224-1.249-13.621-0.697c-1.849,0.233-3.878,0.443-5.939,0.738c-7.519-0.669-18.327,6.29-22.115,10.635    c-3.476,3.986-5.936,9.287-7.541,14.262c-1.134,3.514-3.011,9.313-1.879,13.297c-0.623,0.073-1.268,0.153-1.974,0.244    c-3.121,0.406-8.241,0.364-9.484,4.011c-0.895,2.628-0.892,8.943,1.618,10.876c2.68,2.063,7.685,2.004,10.911,2.315    c2.228,0.214,4.373,0.12,6.6,0.138c0.368,0.003,0.731,0.026,1.095,0.054c-1.094,5.919-0.549,12.163-0.565,18.152    c-0.015,5.684-0.239,10.889,0.519,16.243c-1.125,0.999-1.916,2.556-2.393,5.084c-0.389,2.061-0.259,4.569,0.992,6.313    c0.034,0.046,0.07,0.085,0.104,0.129c-1.862,5.192-0.501,12.845-0.508,17.931c-0.01,8.349,0.308,16.777-0.288,25.111    c-0.546,7.64-0.269,15.303-0.4,22.931c-0.05,2.926-0.823,6.307-0.204,9.202c-7.037-0.293-14.111-0.374-21.139-0.32    c-6.882,0.054-13.79-0.034-20.662-0.225c-3.432-0.095-8.068-0.35-11.809,0.797c0.029-0.559,0.047-1.112,0.064-1.642    c0.154-4.893,0.64-9.743,0.877-14.615c0.355-7.337-0.503-14.962-0.498-22.346c0.006-9.373,0.318-18.9-0.269-28.254    c-0.484-7.719,0.46-15.901-0.621-23.582c2.077-0.53,3.904-1.544,5.017-3.655c1.909-3.621,2.012-11.418,0.293-15.109    c-1.682-3.612-5.209-3.62-8.657-3.424c0.194-12.577-0.094-27.128-4.236-38.882c-3.307-9.384-13.257-18.094-23.038-20.212    c-10.586-2.293-23.374-1.442-31.902,5.781c-3.599,3.047-7.534,7.447-10.463,12.349c0.031-6.202,0.026-12.403-0.073-18.602    c-0.133-8.303,0.776-16.569,0.596-24.871c-0.065-3.016,0.03-6.153,0.03-9.296c4.729,0.68,9.686,0.794,14.383,1.029    c6.895,0.346,13.896,1.032,20.772,0.345c6.758-0.675,13.575-0.094,20.359-0.391c5.906-0.259,11.8-0.607,17.701-0.83    c12.355-0.47,24.629-0.732,36.966-0.94c9.681-0.164,19.369,0.494,29.041,0.01c0.568,0.016,1.125,0.033,1.649,0.063    c6.66,0.378,13.358,0.155,20.027,0.133c8.883-0.03,19.084,0.977,28.628-0.003c7.514,0.05,15.035-0.33,22.55-0.204    c12.337,0.209,24.611,0.47,36.966,0.94c5.902,0.225,11.796,0.571,17.701,0.83c6.785,0.298,13.599-0.284,20.359,0.391    c6.875,0.686,13.877,0.001,20.772-0.345c4.698-0.236,9.654-0.35,14.383-1.029c0,3.141,0.095,6.278,0.03,9.296    c-0.18,8.3,0.729,16.568,0.596,24.871c-0.099,6.201-0.103,12.402-0.073,18.602c-2.928-4.902-6.865-9.302-10.463-12.349    c-8.527-7.221-21.315-8.074-31.902-5.781c-9.781,2.118-19.73,10.827-23.038,20.212c-4.143,11.754-4.43,26.305-4.236,38.882    c-3.447-0.195-6.975-0.189-8.657,3.424c-1.719,3.691-1.617,11.488,0.293,15.109c1.113,2.111,2.938,3.123,5.017,3.655    C343.606,419.761,344.551,427.943,344.067,435.662z M361.196,383.12c0.09,2.907,0.064,6.033,0.875,8.875    c-2.875-0.854-5.782-1.468-8.808-1.777c-0.154-10.301,0.723-20.722,2.016-30.923c1.288-10.175,8.528-19.853,18.46-23.325    c9.663-3.379,23.195-2.278,31.02,4.438c4.185,3.592,7.656,8.323,10.232,13.152c0.311,0.583,1.558,3.612,2.76,6.261    c0.031,3.499,0.063,6.997,0.086,10.498c-2.126-5.227-5.073-10.098-8.268-13.548c-6.047-6.531-16.197-11.251-25.156-10.031    c-9.463,1.289-18.464,8.978-21.358,17.986C361.183,370.565,361.009,377.039,361.196,383.12z M363.965,501.503    c-0.448,3.285-0.214,2.717-3.035,3.496c-1.24,0.343-5.604,0.371-7.522,0.148c-3.616-0.421-3.094-1.596-3.294-5.042    c-0.268-4.589-0.551-9.202-0.784-13.786c-0.431-8.504,0.443-17.304,0.446-25.864c0.004-8.824-0.003-17.673,0.474-26.477    c0.331-6.123,1.493-14.882-0.504-21.26c0.984,0.061,1.949,0.119,2.852,0.226c3.37,0.399,6.348-0.396,9.668-0.599    c0.424-0.026,0.862-0.024,1.303-0.015c-0.37,2.793,0.153,5.609,0.175,8.508c0.034,4.383-0.146,8.782-0.165,13.158    c-0.039,8.854-0.516,17.698-0.428,26.559c0.08,7.981,0.108,15.992,0.37,23.97c0.113,3.444,0.369,6.876,0.461,10.316    C364.041,496.974,364.253,499.397,363.965,501.503z M364.087,406.785c-3.986,0.05-7.673,0.918-11.661,0.446    c-4.241-0.501-8.024,0.408-8.2-5.095c-0.052-1.649-0.516-5.823,1.177-6.852c0.769-0.468,2.945,0.05,3.772,0.074    c5.783,0.165,12.211,2.286,17.943,0.993c0.31,0.129,0.59,0.273,0.829,0.44c1.235,0.865,1.615,7.281,0.284,8.962    C367.086,407.195,366.139,406.759,364.087,406.785z M417.643,440.748c-0.016,9.468-0.168,18.856-0.613,28.304    c-0.368,7.789-1.16,16.142-0.345,23.9c0.044,0.415,0.169,0.817,0.351,1.195c-0.195,2.297-0.28,4.77-0.068,7.046    c-1.521-0.176-3.076-0.175-4.447-0.184c-5.03-0.03-10.053-0.321-15.089-0.415c-9.193-0.17-18.292,0.128-27.447-0.748    c0.245-14.426-1.293-28.882-1.448-43.312c-0.089-8.233-0.056-16.457-0.134-24.682c-0.038-3.923,0.135-7.848-0.115-11.77    c-0.164-2.561-0.758-5.124-0.919-7.686c0.937-0.05,1.853-0.196,2.707-0.563c4.161-1.788,4.309-8.313,4.025-12.151    c-0.368-4.98-3.206-6.261-7.421-7.004c0.494-2.211,0.336-4.828,0.314-6.857c-0.046-4.213-0.249-8.427,0.21-12.644    c1.085-9.97,7.475-18.629,17.727-20.583c8.084-1.541,17.63,2.997,22.501,9.431c5.754,7.6,7.165,16.603,10.418,25.207    C417.778,405.057,417.674,422.899,417.643,440.748z M481.254,207.141c-0.41,12.752-0.641,25.581-1.417,38.316    c-0.842,13.83-0.874,27.792-0.201,41.639c0.328,6.746,1.254,13.658,1.133,20.408c-0.059,3.305,0.019,6.461,0.295,9.602    c-0.035,0.584-0.066,1.169-0.108,1.753c-0.65,9.197-0.776,18.496-0.932,27.713c-0.328,19.569-1.838,39.148-0.778,58.707    c1.047,19.315,1.424,39.138,0.025,58.456c-0.626,8.658-1.242,17.43-1.451,26.097c-0.048,1.954-0.829,6.4-0.238,9.564    c-1.28,3.349-7.211,3.38-10.67,3.794c-5.501,0.658-11.254,0.289-16.784,0.273c-5.229-0.015-10.288-0.119-15.523-0.341    c-1.804-0.078-6.726,0.804-8.075-0.619c-1.255-1.324-0.078-5.165-0.129-6.92c-0.069-2.358,0.106-7.22-0.71-11.129    c0.2-3.795,0.05-7.664,0.061-11.104c0.031-10.037,0.591-20.062,0.574-30.12c-0.033-19.2-0.141-38.411-0.218-57.581    c-0.073-18.102-0.943-36.112-1.127-54.18c-0.089-8.698-0.992-17.326-1.278-26.015c-0.076-2.312-0.095-4.652-0.143-6.995    c1.619-21.194,0.274-42.324,0.239-63.82c-0.021-13.152-0.154-26.245-0.209-39.37c-0.046-11.132,0.076-22.334-1.173-33.415    c5.152,0.523,10.37,0.181,15.535,0.521c5.294,0.349,10.53,0.575,15.836,0.625c9.128,0.088,18.302,0.034,27.444-0.086    c0.415-0.005,0.857,0,1.31,0.011C480.842,177.445,481.721,192.606,481.254,207.141z M493.284,155.671    c-0.857,1.389-3.82,1.114-5.104,1.17c-11.399,0.491-22.98,0.51-34.386,0.304c-6.817-0.123-13.573-0.793-20.375-1.023    c-3.819-0.129-7.578,0.15-11.378-0.364c-3.434-0.464-4.864-0.2-5.187-3.809c-0.543-6.091,1.934-5.238,6.852-4.344    c2.55,0.464,5.163,1.027,7.708,1.403c0.499,0.074,1.004,0.128,1.51,0.178c5.836,1.199,12.294,1.297,17.661,1.582    c9.058,0.483,19.205,0.688,28.107-1.235c1.02-0.22,1.927-0.524,2.777-0.869c0.62,0.075,1.239,0.145,1.853,0.216    c2.376,0.274,5.852-0.101,7.919,1.418C492.14,150.961,494.092,154.361,493.284,155.671z"/>
	</g>
</g>
<g>
	<g>
		<path d="M475.46,182.979c0.179-5.12-1.255-10.161-6.416-11.715c-2.931-0.883-7.439,0.314-9.351,2.755    c-2.442,3.117-1.816,7.648-1.991,11.332c-0.184,3.889-0.268,5.543,3.514,6.871c3.375,1.187,6.407,0.845,9.83,0.663    c1.13-0.061,1.917,0.294,2.95-0.615c1.009-0.889,1.545-2.628,1.653-3.924C475.817,186.349,475.752,184.636,475.46,182.979z     M471.624,186.001c-0.074,0.784-0.09,1.541-0.209,2.323c0.049,0.021,0.088,0.037,0.133,0.056c-0.003,0.06-0.009,0.119-0.01,0.179    c-0.308-0.05-0.615-0.051-0.922,0.031c-2.378,0.041-4.897,0.706-7.206-0.144c-0.561-0.206-0.92-0.478-1.145-0.8    c-0.635-0.913-0.19-2.238-0.176-3.67c0.014-1.537-0.353-3.055-0.19-4.596c0.248-2.341,0.933-3.59,3.367-4.24    c1.359-0.363,2.925-0.518,4.151,0.348c1.822,1.284,2.358,4.188,2.451,6.821C471.808,183.54,471.74,184.772,471.624,186.001z"/>
	</g>
</g>
<g>
	<g>
		<path d="M448.008,182.98c0.178-5.12-1.258-10.16-6.417-11.714c-2.932-0.883-7.439,0.314-9.352,2.755    c-2.442,3.117-1.816,7.648-1.991,11.332c-0.183,3.886-0.266,5.541,3.515,6.87c3.375,1.187,6.407,0.845,9.829,0.663    c1.13-0.061,1.917,0.294,2.95-0.615c1.009-0.889,1.545-2.628,1.653-3.924C448.363,186.35,448.298,184.637,448.008,182.98z     M444.17,186.002c-0.074,0.784-0.09,1.54-0.209,2.323c0.05,0.021,0.088,0.038,0.131,0.056c-0.003,0.06-0.008,0.119-0.01,0.179    c-0.308-0.05-0.614-0.051-0.922,0.031c-2.378,0.041-4.895,0.706-7.206-0.144c-0.561-0.206-0.92-0.478-1.145-0.8    c-0.635-0.913-0.19-2.238-0.176-3.67c0.014-1.538-0.354-3.055-0.19-4.598c0.248-2.341,0.933-3.59,3.367-4.24    c1.359-0.363,2.925-0.518,4.151,0.348c1.822,1.284,2.358,4.188,2.451,6.821C444.354,183.54,444.288,184.772,444.17,186.002z"/>
	</g>
</g>
<g>
	<g>
		<path d="M475.46,217.812c0.179-5.122-1.255-10.161-6.416-11.715c-2.931-0.883-7.439,0.314-9.351,2.755    c-2.442,3.117-1.816,7.648-1.991,11.333c-0.184,3.889-0.268,5.543,3.514,6.871c3.375,1.187,6.407,0.845,9.83,0.663    c1.13-0.061,1.917,0.294,2.95-0.615c1.009-0.889,1.545-2.628,1.653-3.924C475.817,221.182,475.752,219.468,475.46,217.812z     M471.624,220.833c-0.074,0.783-0.09,1.541-0.209,2.323c0.049,0.021,0.088,0.037,0.133,0.056c-0.003,0.06-0.009,0.119-0.01,0.179    c-0.308-0.049-0.615-0.051-0.922,0.031c-2.378,0.041-4.897,0.706-7.206-0.144c-0.561-0.206-0.92-0.478-1.145-0.8    c-0.635-0.913-0.19-2.238-0.176-3.67c0.014-1.538-0.353-3.055-0.19-4.598c0.248-2.341,0.933-3.59,3.367-4.24    c1.359-0.363,2.925-0.518,4.151,0.348c1.822,1.284,2.358,4.188,2.451,6.821C471.808,218.372,471.74,219.604,471.624,220.833z"/>
	</g>
</g>
<g>
	<g>
		<path d="M448.009,217.812c0.178-5.12-1.258-10.16-6.417-11.714c-2.932-0.883-7.439,0.314-9.352,2.755    c-2.442,3.117-1.816,7.648-1.991,11.332c-0.184,3.889-0.268,5.543,3.514,6.871c3.376,1.185,6.407,0.844,9.831,0.661    c1.13-0.061,1.917,0.294,2.95-0.615c1.009-0.889,1.546-2.628,1.653-3.924C448.364,221.182,448.299,219.468,448.009,217.812z     M444.17,220.834c-0.074,0.783-0.09,1.54-0.209,2.323c0.05,0.021,0.088,0.038,0.131,0.056c-0.003,0.06-0.008,0.119-0.01,0.179    c-0.308-0.049-0.614-0.051-0.922,0.031c-2.378,0.04-4.895,0.705-7.206-0.144c-0.561-0.206-0.92-0.478-1.145-0.8    c-0.635-0.913-0.19-2.238-0.176-3.67c0.014-1.538-0.353-3.055-0.19-4.598c0.248-2.341,0.933-3.59,3.367-4.24    c1.359-0.363,2.925-0.518,4.151,0.348c1.822,1.284,2.358,4.188,2.451,6.821C444.354,218.372,444.288,219.604,444.17,220.834z"/>
	</g>
</g>
<g>
	<g>
		<path d="M462.796,273.463c-0.87-7.503-1.937-17.432-11.096-18.532c-9.519-1.145-11.449,6.416-12.494,14.171    c-0.616,4.578-0.42,9.216-0.365,13.82c0.016,1.355-0.189,3.124-0.019,4.723c-0.395,2.346-0.14,4.792,1.525,6.467    c2.233,2.248,7.93,1.499,10.741,1.433c3.285-0.078,8.807,0.356,11.25-2.392c0.762-0.857,1.143-2.122,1.264-3.495    C464.703,284.904,463.091,276.006,462.796,273.463z M460.002,287.426c-0.325,1.853-0.253,3.055-2.372,3.246    c-2.221,0.2-4.456,0.035-6.676-0.093c-1.362-0.078-3.843,0.191-5.068-0.554c-1.385-0.875-1.412-3.564-1.592-4.977    c-0.279-2.174-0.36-4.369-0.563-6.551c-0.285-3.067-0.625-6.143-0.628-9.228c-0.004-4.76,1.028-10.583,6.896-10.687    c10.94-0.194,9.358,17.803,10.118,28.342C460.077,287.093,460.029,287.267,460.002,287.426z"/>
	</g>
</g>
<g>
	<g>
		<path d="M267.831,305.456c-1.482-4.529-5.224-7.585-10.112-7.646c-4.972-0.064-10.401,2.285-12.404,7.005    c-1.551,3.654-2.373,7.461-1.727,11.167c-0.616,2.835,0.698,5.772,4.205,5.997c6.285,0.404,12.73-1.397,18.937-1.393    c0.726,0,1.549-0.405,1.883-1.08C270.364,315.961,269.006,309.042,267.831,305.456z M254.709,317.111    c-1.394,0.151-6.055,1.325-7.22-0.01c-0.07-0.08-0.116-0.181-0.166-0.279c0.323-1.927,0.279-4.834,0.348-5.385    c0.625-5.078,3.207-8.848,8.343-9.912c4.893-1.014,8.104,2.281,8.38,6.976c0.094,1.605,0.135,3.176,0.285,4.788    c0.073,0.781,0.385,1.981,0.373,2.974C261.637,316.349,258.045,316.748,254.709,317.111z"/>
	</g>
</g>
<g>
	<g>
		<path d="M268.276,371.78c-1.888-6.56-5.874-10.14-10.932-9.048c-4.148-0.523-8.201,2.391-10.305,6.081    c-3.255,5.711-2.367,14.414-2.137,20.734c0.09,2.466-0.386,6.182,1.526,8.194c1.831,1.927,5.108,1.893,7.503,2.276    c3.646,0.584,8.738,1.489,12.203-0.375c3.365-1.811,3.226-6.83,3.445-10.187C269.954,383.66,269.898,377.414,268.276,371.78z     M264.502,395.897c-0.08-0.046-0.278-0.036-0.688,0.105c-1.28,0.439-2.307,0.48-3.639,0.54c-4.421,0.198-9.838-0.032-11.494-5.094    c-1.227-3.747-0.698-9.471-0.403-13.337c0.355-4.657,1.779-9.779,5.766-11.939c6.553-1.614,9.533,2.532,10.714,9.242    c0.568,3.227,0.984,6.281,0.99,9.569C265.755,387.836,266.218,393.451,264.502,395.897z"/>
	</g>
</g>
<g>
	<g>
		<path d="M268.401,451.794c-0.958-5.706-2.667-15.328-10.155-15.593c-6.45-0.228-11.49,6.568-12.978,12.089    c-1.248,4.628-1.354,9.211-0.804,13.942c0.005,0.043,0.009,0.091,0.012,0.135c-0.867,4.74-1.408,11.282,1.972,12.592    c1.952,0.755,6.577-0.148,8.53-0.333c2.89-0.274,9.354-1.846,12.094-0.691c1,0.421,2.496-0.464,2.665-1.513    C270.805,465.746,269.516,458.43,268.401,451.794z M265.793,469.261c-4.538-0.483-10.521,0.963-14.341,1.132    c-0.809,0.036-1.749,0.145-2.643,0.176c0.014-0.408,0.003-0.814-0.061-1.217c0.244-2.032-0.521-4.704-1.162-7.189    c-0.033-1.861-0.043-3.719,0.049-5.561c0.291-5.879,3.509-18.687,11.48-15.655c6.14,2.336,5.285,11.054,5.843,16.739    C265.336,461.551,266.07,465.388,265.793,469.261z"/>
	</g>
</g>
<g>
</g>
<g>
</g>
<g>
</g>
<g>
</g>
<g>
</g>
<g>
</g>
<g>
</g>
<g>
</g>
<g>
</g>
<g>
</g>
<g>
</g>
<g>
</g>
<g>
</g>
<g>
</g>
<g>
</g>
</svg>
