<?xml version="1.0" encoding="iso-8859-1"?>
<!-- Generator: Adobe Illustrator 19.0.0, SVG Export Plug-In . SVG Version: 6.00 Build 0)  -->
<svg xmlns="http://www.w3.org/2000/svg" xmlns:xlink="http://www.w3.org/1999/xlink" version="1.1" id="Layer_1" x="0px" y="0px" viewBox="0 0 511.994 511.994" style="enable-background:new 0 0 511.994 511.994;" xml:space="preserve">
<g>
	<g>
		<path d="M511.266,402.91c-0.694-2.789-2.291-3.483-4.927-4.277c-2.404-0.724-4.644-0.624-7.108-0.954    c-1.232-0.165-5.647-0.709-7.158-1.457c-0.07-0.274-0.153-0.58-0.258-0.959c-0.097-0.344,0.227-2.305,0.227-2.234    c-0.002-1.335-0.059-3.061-0.676-4.269c-1.482-2.897-4.401-2.711-7.148-2.355c-3.323,0.431-6.102,0.213-9.341-0.169    c-0.773-0.091-2.791-0.044-4.35-0.26c0.178-3.715,0.296-7.875-3.369-10.112c-0.379-0.231-1.2-0.338-2.266-0.36    c-5.823-2.215-12.574-1.27-18.684-0.897c1.094-8.049,0.163-16.835,0.139-24.865c-0.026-8.804-0.089-17.55,0.387-26.331    c0.215-3.97-0.135-7.939-0.182-11.909c-0.05-4.227,0.717-8.28,0.895-12.472c0.173-4.106-0.256-8.272-0.275-12.385    c-0.018-3.813,0.604-7.54,0.62-11.35c0.034-8.458,0.411-16.823,0.4-25.289c-0.01-8.194,1.094-16.43,1.127-24.668    c0.032-8.119-0.7-16.16-0.711-24.296c-0.011-7.631,0.356-15.476-0.836-23.051c3.675-0.258,7.539-0.869,9.942-2.73    c3.373-2.612,2.019-7.275,0.901-10.722c-1.391-4.292-3.23-6.339-7.811-6.693c-1.664-0.128-3.354-0.096-5.052-0.003    c0.22-0.725,0.24-2.656,0.226-3.131c-0.067-2.316,0.086-4.458,0.052-6.778c-0.058-3.924,0.442-7.853,0.489-11.774    c3.874-0.081,8.632-0.139,11.513-2.175c3.323-2.348,2.997-7.158,2.919-10.759c-0.173-7.961-6.977-9.6-14.165-9.68    c0.315-3.247,0.939-8.995-1.156-11.682c-2.077-2.663-5.996-2.016-8.985-1.999c-11.687,0.068-23.406,1.246-35.151,0.607    c-5.98-0.326-12.023-1.156-18.028-0.67c-5.488,0.444-10.797,0.655-16.32,0.616c-9.983-0.071-19.971-0.318-29.898,0.387    c0.046-1.558-0.024-3.092-0.422-4.54c-1.539-5.598-9.042-4.193-13.469-3.907c-8.716,0.563-17.619,1.234-26.336,1.195    c-4.441-0.021-8.981-0.303-13.42,0.083c-4.57-0.593-9.485-0.197-13.86-0.201c-7.098-0.006-14.195-0.032-21.292-0.013    c-5.951,0.016-11.958,0.337-17.864-0.251c-4.416-0.439-9.305-0.417-13.866,0.362c-0.581,0.01-1.161,0.017-1.739,0.021    c-8.717,0.039-17.619-0.632-26.336-1.195c-4.427-0.287-11.93-1.692-13.469,3.907c-0.398,1.446-0.468,2.981-0.422,4.54    c-9.927-0.704-19.915-0.458-29.898-0.387c-5.524,0.039-10.832-0.171-16.32-0.616c-6.004-0.486-12.048,0.344-18.028,0.67    c-11.745,0.639-23.465-0.539-35.151-0.607c-2.989-0.017-6.908-0.664-8.985,1.999c-2.096,2.687-1.472,8.435-1.156,11.682    c-7.188,0.08-13.992,1.719-14.165,9.68c-0.078,3.6-0.404,8.411,2.919,10.759c2.588,1.828,6.685,2.06,10.299,2.147    c-0.166,2.089,0.158,4.293,0.328,6.235c0.257,2.932,0.484,5.447,0.37,8.413c-0.06,1.564-0.226,3.236-0.007,4.789    c0.044,0.311,0.487,2.395,0.583,1.87c-0.022,0.117-0.03,0.24-0.037,0.364c-1.449-0.061-2.889-0.067-4.312,0.044    c-4.582,0.353-6.421,2.399-7.812,6.693c-1.117,3.447-2.472,8.11,0.901,10.722c2.403,1.86,6.267,2.473,9.942,2.73    c-1.192,7.575-0.826,15.42-0.836,23.051c-0.011,8.137-0.743,16.176-0.711,24.296c0.033,8.238,1.138,16.474,1.128,24.668    c-0.01,8.466,0.365,16.832,0.4,25.289c0.016,3.81,0.639,7.538,0.621,11.351c-0.021,4.113-0.45,8.279-0.275,12.385    c0.178,4.193,0.945,8.247,0.895,12.472c-0.048,3.97-0.398,7.939-0.182,11.909c0.475,8.781,0.413,17.527,0.387,26.331    c-0.024,8.029-0.955,16.816,0.139,24.865c-6.11-0.374-12.861-1.318-18.684,0.897c-1.068,0.022-1.888,0.13-2.266,0.36    c-3.666,2.237-3.546,6.397-3.369,10.112c-1.559,0.217-3.577,0.169-4.35,0.26c-3.239,0.382-6.018,0.6-9.341,0.169    c-2.747-0.357-5.666-0.542-7.148,2.355c-0.618,1.208-0.674,2.934-0.676,4.269c0-0.072,0.325,1.89,0.228,2.234    c-0.107,0.378-0.188,0.685-0.258,0.959c-1.512,0.748-5.926,1.292-7.158,1.457c-2.464,0.331-4.704,0.232-7.108,0.954    c-2.637,0.794-4.233,1.488-4.927,4.277c-0.74,2.974-1.363,9.187,0.501,11.98c1.571,2.356,5.042,2.605,7.653,2.765    c5.539,0.341,11.346,0.426,16.909,0.365c4.961-0.054,9.763,0.672,14.701,0.671c5.996-0.001,11.901,0.056,17.853,0.705    c12.141,1.325,25.087,0.133,37.271-0.396c11.848-0.515,23.722-1.739,35.568-1.633c12.4,0.111,24.799-0.036,37.198,0.185    c12.9,0.229,25.818-1.232,38.701-1.504c6.02-0.127,12.054,0.521,18.077,0.142c5.632-0.354,11.258-0.684,16.9-0.96    c4.532,0.562,9.214,0.688,13.759,0.884c4.886,0.21,9.692-0.58,14.58-0.547c2.724,0.018,5.675,0.17,8.626,0.149    c2.607,0.154,5.214,0.31,7.824,0.475c6.024,0.38,12.056-0.268,18.077-0.142c12.883,0.272,25.801,1.733,38.701,1.504    c12.399-0.22,24.798-0.073,37.198-0.185c11.846-0.106,23.719,1.118,35.568,1.633c12.183,0.529,25.13,1.72,37.271,0.396    c5.952-0.649,11.856-0.707,17.853-0.705c4.938,0.001,9.74-0.725,14.701-0.671c5.562,0.061,11.37-0.024,16.909-0.365    c2.61-0.161,6.08-0.409,7.653-2.765C512.629,412.097,512.006,405.884,511.266,402.91z M336.94,108.157    c-0.023-0.372-0.024-0.75-0.024-1.13c3.727,0.04,7.286-0.465,11.048-0.604c5.046-0.189,10.133,0.014,15.182-0.023    c9.582-0.069,19.177-1.023,28.716-0.757c10.162,0.283,20.266,0.611,30.452,0.601c4.435-0.003,8.78-0.437,13.188-0.522    c3.586-0.069,4.501-0.694,4.918,2.778c0.218,1.812,0.63,3.462,1.085,5.2c-2.628,0.15-5.096,0.354-7.07,0.364    c-30.227,0.134-60.417,1.135-90.63,1.339c-2.387,0.016-4.769,0.005-7.149-0.015C337.56,113.071,337.102,110.804,336.94,108.157z     M181.594,105.928c0.009-1.199-0.703-5.635,0.039-6.688c0.281-0.399,0.377-0.622,0.392-0.741c0.146,0.001,0.409-0.041,0.887-0.187    c1.106-0.337,2.931-0.034,4.149-0.023c4.149,0.041,8.172,0.54,12.344,0.414c3.619-0.109,6.942,0.567,10.498,0.76    c4.042,0.22,8.211-0.034,12.26-0.075c5.784-0.058,11.436,1.243,16.991,0.28c3.108-0.008,6.227-0.122,9.285-0.114    c6.724,0.018,13.448-0.006,20.172-0.011c1.254-0.001,2.552,0.032,3.875,0.07c5.665,1.079,11.431-0.284,17.333-0.225    c4.049,0.041,8.219,0.295,12.26,0.075c3.557-0.194,6.878-0.869,10.498-0.76c4.173,0.125,8.195-0.373,12.344-0.414    c1.218-0.013,3.043-0.315,4.149,0.023c0.477,0.146,0.741,0.188,0.887,0.187c0.015,0.12,0.111,0.342,0.392,0.741    c0.742,1.053,0.031,5.489,0.039,6.688c0.01,1.396-0.172,3.014,0.073,4.387c0.28,1.561,0.768,3.395,1.442,5.016    c-9.526-0.147-19.024-0.445-28.571-0.427c-6.766,0.013-13.377,0.612-20.128,0.661c-3.366,0.024-6.611,0.298-9.85,0.611    c-7.905-0.543-15.984-0.178-23.705,0.033c-6.225,0.17-12.807-0.785-19.152-0.606c-0.571-0.017-1.144-0.034-1.722-0.038    c-6.751-0.047-13.362-0.647-20.128-0.661c-9.547-0.018-19.046,0.28-28.571,0.427c0.673-1.621,1.162-3.455,1.442-5.016    C181.767,108.942,181.584,107.324,181.594,105.928z M71.565,108.499c0.417-3.471,1.333-2.847,4.918-2.778    c4.408,0.086,8.753,0.518,13.188,0.522c10.186,0.009,20.29-0.319,30.452-0.601c9.538-0.266,19.135,0.689,28.716,0.757    c5.05,0.037,10.137-0.166,15.182,0.023c3.761,0.141,7.321,0.645,11.048,0.604c0,0.38-0.001,0.758-0.024,1.13    c-0.163,2.646-0.62,4.914,0.283,7.229c-2.381,0.021-4.762,0.031-7.149,0.015c-30.213-0.203-60.402-1.204-90.63-1.339    c-1.974-0.009-4.442-0.213-7.07-0.364C70.935,111.961,71.347,110.311,71.565,108.499z M65.346,129.347    c-1.535-0.007-6.386,0.442-7.695-0.383c-2.019-1.273-0.862-5.503,0.403-6.558c2.11-1.759,6.778-0.819,9.498-0.83    c7.036-0.03,14.071-0.076,21.108-0.116c26.512-0.15,53.014,0.033,79.521-0.144c13.535-0.091,26.961-0.627,40.471-0.653    c8.235-0.016,16.627,0.661,24.956,0.766c6.121,0.398,12.281,0.51,18.237,0.138c7.213-0.451,14.453,0.088,21.656-0.159    c9.919,0.206,19.99-0.764,29.836-0.746c13.509,0.025,26.936,0.562,40.471,0.653c26.507,0.178,53.009-0.006,79.521,0.145    c7.036,0.04,14.071,0.086,21.108,0.116c2.721,0.011,7.387-0.929,9.498,0.83c1.265,1.054,2.422,5.285,0.403,6.558    c-1.309,0.825-6.16,0.376-7.695,0.383c-2.412,0.011-4.76,0.071-7.169,0.221c-6.14,0.383-12.325,0.146-18.476,0.115    c-25.922-0.134-51.732-0.603-77.671-0.593c-12.745,0.005-25.442-0.513-38.191-0.391c-5.541,0.053-11.032-0.108-16.547-0.26    c-4.512-0.59-9.021-0.3-13.745-0.128c-6.924,0.251-13.868-0.037-20.796,0.04c-5.39,0.06-11.16-0.864-16.469-0.241    c-0.967,0.114-1.953,0.195-2.947,0.272c-2.622-0.072-5.273-0.1-7.895-0.032c-6.644,0.169-13.226,0.415-19.882,0.351    c-12.749-0.122-25.446,0.396-38.191,0.391c-25.939-0.01-51.749,0.46-77.671,0.593c-6.151,0.032-12.336,0.268-18.475-0.115    C70.106,129.418,67.758,129.357,65.346,129.347z M439.454,157.792c-0.041,0.183-0.063,0.369-0.073,0.555    c-1.561,0.128-3.117,0.234-4.657,0.247c-8.071,0.067-16.143,0.112-24.214,0.169c-6.458,0.045-13.312-0.592-19.733,0.124    c-13.494,1.505-27.39,1.214-40.991,1.254c-1.632,0.005-3.262-0.022-4.892-0.032c-0.079-7.939-0.17-15.937-0.875-23.845    c5.062,0.078,10.126,0.14,15.194,0.141c27.176,0.007,54.41,1.48,81.575,0.019C439.236,143.272,440.96,151.067,439.454,157.792z     M337.854,144.59c-0.133,5.148-0.297,10.298-0.38,15.447c-9.733-0.158-19.456-0.44-29.205-0.405    c-8.831,0.033-17.728-0.198-26.58,0.11c-11.392-2.301-24.117-0.826-35.611-0.822c-5.604,0.001-11.427-0.56-16.966,0.377    c-0.845,0.143-1.693,0.245-2.53,0.354c-7.623-0.148-15.267,0.009-22.863-0.018c-9.749-0.036-19.472,0.245-29.206,0.405    c-0.083-5.15-0.247-10.3-0.38-15.448c-0.068-2.609,0.367-5.686-0.055-8.43c9.453-0.175,18.902-0.391,28.365-0.478    c8.131-0.075,16.179-0.408,24.292-0.765c4.337-0.19,10.952,1.202,15.264-0.692c4.004,0.119,8.087,0.625,12.047,0.615    c5.951-0.015,11.951,0.178,17.912,0.01c4.182,0.904,9.576-0.097,13.295,0.067c8.114,0.357,16.161,0.69,24.292,0.765    c9.463,0.087,18.911,0.303,28.365,0.478C337.486,138.904,337.92,141.981,337.854,144.59z M70.189,142.347    c-0.265-2.207-0.69-4.028-1.22-6.045c27.904,1.668,55.884,0.11,83.804,0.103c5.07-0.001,10.132-0.062,15.194-0.141    c-0.707,7.907-0.796,15.905-0.875,23.844c-1.631,0.01-3.26,0.038-4.892,0.032c-13.601-0.041-27.496,0.251-40.991-1.254    c-6.42-0.716-13.275-0.079-19.733-0.124c-8.071-0.056-16.143-0.102-24.214-0.169c-2.055-0.017-4.138-0.193-6.225-0.38    c0.033-0.166,0.068-0.333,0.076-0.516C71.333,152.773,70.783,147.281,70.189,142.347z M61.358,169.993    c-0.212-0.102-2.03-0.178-2.098-0.29c-0.334-0.554,0.294-3.934,0.56-4.329c1.539-2.28,4.544-1.38,6.873-1.109    c5.986,0.696,12.242,0.166,18.264,0.124c13.042-0.091,26.182-0.625,39.157,0.283c5.684,0.398,11.417-0.173,17.12,0.257    c6.609,0.498,13.283,0.247,19.913,0.256c2.519,0.003,5.034-0.028,7.551-0.055c1.281,0.773,3.044,0.756,4.305-0.048    c9.874-0.157,19.737-0.45,29.624-0.509c9.232-0.055,18.54,0.205,27.797-0.127c5.948,0.146,12.015-0.345,17.827-0.321    c8.856,0.038,18.463,0.896,27.534,0.025c11.153,0.75,22.42,0.357,33.575,0.423c9.887,0.06,19.75,0.351,29.624,0.509    c1.262,0.804,3.025,0.821,4.305,0.048c2.515,0.028,5.032,0.059,7.551,0.055c6.628-0.009,13.304,0.242,19.913-0.256    c5.703-0.43,11.435,0.141,17.12-0.257c12.975-0.908,26.116-0.374,39.157-0.283c6.023,0.042,12.278,0.572,18.264-0.124    c2.33-0.271,5.335-1.171,6.873,1.109c0.267,0.396,0.895,3.776,0.56,4.329c-0.068,0.112-1.886,0.187-2.098,0.29    c-4.762,2.286-12.436,1.615-17.674,1.875c-5.82,0.288-11.519,0.585-17.366,0.609c-24.183,0.102-48.357-1.706-72.524-1.649    c-12.411,0.029-24.792-0.549-37.232-0.536c-6.655,0.007-13.315,0.103-19.969,0.056c-2.085-0.015-4.126-0.092-6.155-0.146    c-7.642-0.643-15.695,0.493-23.226,0.095c-7.969-0.421-15.871-0.673-23.791-0.105c-2.164,0.055-4.341,0.14-6.569,0.156    c-6.654,0.047-13.314-0.049-19.969-0.056c-12.44-0.014-24.821,0.564-37.232,0.536c-24.168-0.056-48.342,1.751-72.524,1.649    c-5.848-0.024-11.547-0.321-17.366-0.609C73.793,171.608,66.12,172.279,61.358,169.993z M442.537,226.322    c-0.133,8.243-1.472,16.481-1.309,24.693c0.161,8.099-0.499,16.182-0.658,24.279c-0.081,4.134-0.736,8.171-0.699,12.321    c0.037,4.055,0.504,8.316,0.138,12.353c-0.742,8.165-0.279,16.311-0.963,24.454c-0.707,8.404-0.453,16.887-0.478,25.321    c-0.024,7.915-0.93,16.551,0.089,24.505c-1.318-0.14-2.636-0.26-3.941-0.267c-4.032-0.022-8.062-0.042-12.094-0.063    c-4.192-0.021-8.378-0.083-12.56-0.163c0.189-1.055,0.516-2.168,0.564-2.606c0.254-2.34,0.109-4.734,0.103-7.086    c-0.014-5.245-0.015-10.493,0.053-15.737c0.065-5.116,0.247-10.252-0.003-15.365c-0.202-4.139-0.914-7.877-0.423-12.031    c0.515-4.347-0.298-8.63-0.463-12.988c-0.195-5.142-0.102-10.316-0.154-15.461c-0.052-5.184-0.101-10.366-0.232-15.548    c-0.086-3.431,0.203-7.185-0.049-10.701c0.75,0.342,2.331,2.235,3.511,2.365c1.681,0.183,3.365-0.641,4.629-1.67    c0.072-0.059,0.13-0.132,0.2-0.195c0.095-0.08,0.182-0.172,0.27-0.263c1.652-1.637,2.393-4.028,1.879-6.233    c0.002-0.045,0.006-0.093,0.008-0.136c0.273-5.76-0.372-11.681-0.333-17.46c0.034-4.963,0.518-12.425-5.102-14.723    c-2.761-1.129-4.33-0.313-6.714,0.881c-2.292,1.147-2.33,2.132-3.558,0.607c-0.188-0.234-0.338-0.506-0.473-0.791    c-0.006-0.469-0.017-0.952-0.014-1.464c0.008-1.52,0.022-3.666,1.845-4.309c0.369-0.131,1.523,0.232,1.992,0.145    c2.948-0.551,3.442-3.95,2.633-6.436c-1.079-3.317-4.457-5.612-8.028-6.257c-3.203-1.162-6.883-0.061-9.464,3.114    c-1.784,2.193-2.684,4.648-3.251,7.358c-0.828,3.962,0.255,6.453-4.761,4.291c-1.001-0.431-2.201-1.443-3.384-1.356    c-6.118,0.452-6.017,10.802-6.554,14.934c-0.966,7.437-1.419,16.799,0.994,24.05c0.185,0.555,0.561,0.901,1.022,1.08    c0.242,2.231,0.987,4.359,2.71,5.609c1.242,0.902,2.451,1.033,3.472,0.629c-2.052,16.819-0.692,33.653-0.842,50.654    c-0.155,17.457-1.739,35.016-1.239,52.483c-3.642-0.056-7.286-0.1-10.936-0.103c-6.324-0.007-12.642-0.253-18.962-0.42    c1.719-6.945-0.186-14.094-0.213-21.115c-0.032-8.266,0.141-16.543,0.118-24.814c-0.048-17.076-0.623-34.137-0.65-51.233    c-0.03-18.633-0.061-37.264-0.091-55.897c-0.014-8.584-0.089-17.167-0.155-25.75c-0.026-3.448,0.118-6.984-0.315-10.411    c-0.235-1.856-0.286-3.758-0.467-5.628c4.922,0.188,9.846,0.341,14.772,0.354c12.964,0.036,26.128,0.25,39.058,1.152    c12.926,0.9,25.933-0.365,38.815-1.014c0.307-0.015,0.63-0.029,0.96-0.042C440.182,193.918,442.791,210.582,442.537,226.322z     M404.936,295.796c-0.056,5.661-0.296,11.341,0.128,16.991c0.329,4.379-0.482,8.45-0.412,12.788    c0.182,11.272,0.467,22.576,0.468,33.908c0,4.628-0.747,9.575-0.561,14.159c-5.975-0.133-11.947-0.287-17.925-0.407    c0.648-17.518,1.109-35.058,1.114-52.581c0.002-9.935-0.693-19.77-0.795-29.691c-0.078-7.619,0.703-15.625,0.298-23.341    c0.444,0.47,0.994,0.822,1.776,0.986c1.529,0.321,3.059-0.452,4.213-1.344c0.591-0.456,2.943-4.34,3.338-4.392    c1.44-0.188,1.77,3.629,2.341,4.54c0.896,1.425,2.351,2.413,4.095,2.435c0.967,0.011,1.795-0.345,2.523-0.843    C404.217,277.747,405.023,287.112,404.936,295.796z M404.69,261.709c-0.937,1.248-0.601,3.633-1.924,2.209    c-0.608-0.654-0.616-2.483-1.345-3.356c-1.26-1.509-3.844-2.901-5.838-2.418c-2.677,0.649-3.504,5.304-5.69,4.61    c-0.446-0.142-1.477-1.821-2.013-2.182c-0.874-0.59-1.904-1.08-2.988-1.072c-0.843,0.007-1.688,0.209-2.308,0.812    c-0.526,0.513-0.86,1.771-1.542,0.802c-1.148-1.633-0.863-4.275-1.107-6.156c-0.397-3.052-0.833-6.11-0.849-9.194    c-0.016-3.198-0.598-13.919,2.497-17.044c3.493,1.761,8.127,4.435,10.901,0.581c1.678-2.332,1.193-5.5,1.695-8.148    c0.434-2.283,1.262-4.506,3.046-6.108c0.473-0.424,0.986-0.728,1.529-0.946c1.386-0.117,2.778-0.189,4.092,0.297    c0.721,0.267,5.074,3.455,3.842,4.494c-0.195,0.165-2.662-0.151-3.213,0.006c-5.091,1.449-5.426,10.449-3.169,14.158    c0.291,0.478,0.805,0.724,1.314,0.723c1.133,0.9,3.313,1.168,4.668,0.976c2.678-0.377,2.831-1.6,5.769-1.03    c3.189,0.618,2.808,1.616,2.999,4.596c0.139,2.169,0.057,4.332-0.029,6.5c-0.102,2.568-0.304,5.127-0.295,7.699    c0.01,2.828,0.957,7.804-0.658,10.42c-0.328,0.104-0.685,0.107-1.082-0.04c-0.84-0.311-1.616-2.053-2.641-2.553    C408.186,259.287,406.139,259.776,404.69,261.709z M315.152,341.152c-0.018-7.079-0.353-14.109-0.571-21.181    c-0.187-6.071,0.481-12.311-0.131-18.338c-1.324-13.047-0.858-26.586-1.223-39.703c-0.35-12.605,0.167-25.814-1.608-38.365    c3.155-0.732,5.325-2.505,4.731-6.42c-0.481-3.162-0.848-6.357-3.938-7.957c-3.013-1.561-6.777-0.914-10.019-0.807    c-7.096,0.233-14.217,0.181-21.317,0.289c-1.243,0.019-2.526,0.104-3.822,0.21c-0.178-0.216-0.411-0.396-0.726-0.491    c-8.819-2.68-18.727-0.563-27.783-0.57c-8.383-0.007-16.768-0.234-25.076,0.779c-4.695-0.033-9.391-0.063-14.078-0.217    c-3.24-0.107-7.005-0.752-10.019,0.807c-3.089,1.6-3.457,4.794-3.938,7.957c-0.594,3.913,1.576,5.688,4.731,6.42    c-1.776,12.551-1.258,25.76-1.608,38.365c-0.364,13.117,0.101,26.656-1.223,39.703c-0.611,6.027,0.056,12.268-0.131,18.338    c-0.218,7.072-0.554,14.102-0.572,21.181c-0.017,6.875-0.708,13.919-0.045,20.763c0.302,3.115,0.556,6.218,0.829,9.335    c0.052,0.585,0.167,1.171,0.301,1.755c-0.434,0.003-0.867-0.006-1.301,0.005c-8.792,0.203-17.511-0.544-26.288-0.546    c-0.793,0-1.584,0.022-2.377,0.029c0.577-2.935,0.376-5.901,0.432-8.936c0.076-4.044,0.868-8.024,0.871-12.059    c0.006-8.266-0.195-16.543-0.198-24.814c-0.007-17.451,0.51-34.896,0.483-52.366l-0.088-54.762    c-0.014-8.584-0.089-17.167-0.155-25.75c-0.04-5.298,0.929-11.092-0.3-16.288c8.165-0.341,16.328-0.68,24.502-0.588    c16.242,0.182,32.504,0.231,48.672-1.345c0.367-0.036,0.701-0.159,1.002-0.335c4.446,0.147,8.891,0.253,13.308,0.516    c5.188,0.31,10.458,0.373,15.686,0.021c15.392,1.353,30.863,1.318,46.317,1.145c8.173-0.092,16.338,0.249,24.502,0.588    c-1.23,5.197-0.26,10.99-0.3,16.288c-0.064,8.583-0.14,17.167-0.155,25.75l-0.088,54.762c-0.029,17.471,0.49,34.915,0.483,52.366    c-0.003,8.271-0.203,16.547-0.198,24.814c0.002,4.035,0.795,8.015,0.871,12.059c0.057,3.035-0.143,6.001,0.432,8.936    c-0.793-0.007-1.584-0.029-2.377-0.029c-8.778,0.002-17.497,0.749-26.288,0.546c-0.434-0.01-0.867-0.001-1.301-0.005    c0.133-0.584,0.249-1.17,0.301-1.755c0.273-3.116,0.528-6.22,0.829-9.335C315.859,355.071,315.169,348.027,315.152,341.152z     M294.989,295.984c-0.056-24.137-0.325-48.422-1.839-72.492c1.391-0.013,2.776-0.02,4.145,0.001    c2.418,0.037,6.381,0.581,10.076,0.522c-1.714,12.865-0.68,26.013-0.406,38.919c0.132,6.224,0.642,12.364,0.561,18.627    c-0.079,6.026-0.524,12.306,0.132,18.303c0.693,6.331,0.22,12.654,0.343,19.033c0.136,7.081,0.515,14.131,0.497,21.218    c-0.017,6.883,0.571,13.932,0.062,20.791c-0.294,3.956-0.869,8.179-0.825,12.239c-4.345,0.21-8.691,0.572-13.053,0.76    c0.047-0.192,0.078-0.395,0.084-0.615c0.31-14.085,0.223-28.201,0.265-42.29c0.018-6.04,0.501-11.974,0.583-18.001    C295.692,307.27,295.003,301.698,294.989,295.984z M304.699,218.046c-4.894,0.171-9.819,0.085-14.719,0.159    c-8.65,0.131-17.269-0.486-25.921-0.221c-0.367,0.011-0.654,0.135-0.898,0.302c-3.478-0.021-7.044,0.329-10.417,0.342    c-1.194,0.005-2.412-0.06-3.627-0.085c-0.268-0.315-0.656-0.543-1.192-0.559c-8.652-0.265-17.27,0.352-25.921,0.221    c-4.9-0.075-9.826,0.011-14.719-0.159c-1.906-0.067-3.536-0.602-5.37-0.709c-0.025,0.114-0.045,0.201-0.067,0.301    c0.117-0.677,0.161-1.358,0.124-2.046c0.702-1.706,0.123-1.886,2.623-2.065c1.37-0.099,2.742,0.07,4.111,0.092    c4.779,0.079,9.569-0.078,14.348-0.151c6.078-0.093,14.267,0.903,20.995-0.403c1.566-0.007,3.13-0.015,4.696-0.016    c4.753-0.003,9.437-0.531,14.184-0.57c0.865-0.007,1.726-0.005,2.584-0.005c7.091,2.167,16.589,0.89,23.418,0.993    c4.779,0.072,9.569,0.229,14.348,0.151c1.368-0.023,2.741-0.19,4.111-0.092c2.5,0.179,1.921,0.359,2.623,2.065    c-0.037,0.688,0.007,1.371,0.124,2.046c-0.022-0.1-0.041-0.187-0.067-0.301C308.235,217.444,306.605,217.979,304.699,218.046z     M289.748,373.293c0.006,0.267,0.055,0.505,0.12,0.728c-0.194,0-0.387,0.011-0.58,0.01c-3.236-0.015-6.482-0.005-9.718,0.101    c3.439-13.825,0.698-27.708,0.239-41.781c-0.17-5.194,0.101-10.389,0.134-15.583c0.015-2.385,0.079-4.69-1.903-6.386    c-2.02-1.73-4.745-1.324-7.187-1.235c-3.302,0.12-6.472-0.048-9.646,0.479c-2.221-0.048-4.461,0.013-6.712,0.033    c-1.372,0.013-2.853-0.057-4.378-0.135c-2.953-0.404-5.913-0.265-8.985-0.377c-2.443-0.089-5.167-0.494-7.187,1.235    c-1.982,1.696-1.918,4.002-1.903,6.386c0.033,5.193,0.304,10.39,0.134,15.583c-0.452,13.812-3.084,27.439,0.067,41.008    c-0.932,0.006-1.856,0.024-2.765,0.063c-2.815,0.12-5.152-0.224-7.31,0.279c0.026-0.134,0.064-0.258,0.068-0.408    c0.31-14.091,0.104-28.196,0.265-42.29c0.069-6.065-0.485-11.956-0.593-18.001c-0.108-6.051,0.562-11.997,0.549-18.058    c-0.026-12.612,0.513-25.113,0.46-37.708c-0.046-11.019,1.987-22.755,0.359-33.71c2.755,0.002,5.505-0.061,8.186-0.358    c2.599-0.289,5.273-0.337,7.927-0.484c0.335,0.053,0.663,0.104,0.978,0.161c4.145,0.736,8.301,0.82,12.485,0.34    c5.18-0.594,10.327,0.177,15.476-0.418c0.797-0.092,1.61-0.155,2.428-0.211c3.252,0.262,6.562,0.256,9.762,0.611    c2.682,0.297,5.431,0.36,8.186,0.358c-1.628,10.955,0.405,22.691,0.359,33.71c-0.053,12.595,0.486,25.097,0.46,37.708    c-0.013,6.062,0.657,12.007,0.549,18.058c-0.108,6.045-0.662,11.935-0.593,18.001    C289.644,345.096,289.439,359.202,289.748,373.293z M275.207,374.599c-0.562,0.119-1.169,0.252-1.778,0.379    c-7.684-0.741-15.348,0.275-23.044-0.489c-4.341-0.431-9.001-0.867-13.578-1.046c-0.022-0.752-0.118-1.537-0.291-2.428    c-0.789-4.079-1.096-7.971-1.131-12.136c-0.046-5.661,0.734-11.52,1.371-17.117c0.869-7.649,0.731-15.255,0.6-22.94    c-0.068-3.983,0.832-4.487,3.634-4.551c4.072,0.89,8.434,0.604,12.573,0.647c5.791,0.059,12.683,1.133,18.282-0.603    c2.133,0.174,2.843,0.96,2.784,4.508c-0.13,7.685-0.27,15.29,0.6,22.94c0.637,5.598,1.417,11.456,1.371,17.117    c-0.034,4.165-0.341,8.057-1.131,12.136C275.207,372.368,275.1,373.484,275.207,374.599z M216.954,331.002    c0.044,14.089-0.045,28.205,0.265,42.29c0.005,0.221,0.037,0.424,0.084,0.615c-4.362-0.188-8.707-0.551-13.053-0.76    c0.045-4.06-0.531-8.283-0.825-12.239c-0.51-6.859,0.079-13.909,0.062-20.791c-0.018-7.087,0.361-14.137,0.497-21.218    c0.123-6.38-0.35-12.702,0.343-19.033c0.656-5.998,0.211-12.277,0.132-18.303c-0.081-6.262,0.428-12.405,0.561-18.627    c0.274-12.906,1.308-26.055-0.406-38.919c3.697,0.061,7.658-0.485,10.076-0.522c1.368-0.021,2.754-0.014,4.145-0.001    c-1.514,24.07-1.782,48.355-1.839,72.492c-0.014,5.715-0.703,11.286-0.625,17.019    C216.453,319.028,216.936,324.964,216.954,331.002z M161.969,193.804c-0.064,8.583-0.141,17.167-0.155,25.75    c-0.03,18.633-0.061,37.264-0.091,55.897c-0.028,17.095-0.602,34.157-0.65,51.233c-0.023,8.271,0.15,16.547,0.118,24.814    c-0.028,7.019-1.933,14.17-0.213,21.115c-6.32,0.165-12.637,0.413-18.962,0.42c-3.651,0.005-7.296,0.047-10.936,0.103    c0.5-17.466-1.084-35.025-1.239-52.483c-0.15-17,1.21-33.835-0.842-50.654c1.021,0.405,2.23,0.274,3.473-0.629    c1.723-1.25,2.468-3.378,2.709-5.609c0.461-0.179,0.837-0.525,1.022-1.08c2.413-7.251,1.961-16.612,0.994-24.05    c-0.537-4.13-0.436-14.482-6.554-14.934c-1.182-0.087-2.382,0.924-3.384,1.356c-5.016,2.162-3.933-0.329-4.761-4.291    c-0.567-2.71-1.467-5.165-3.251-7.358c-2.581-3.174-6.26-4.276-9.464-3.114c-3.571,0.645-6.948,2.94-8.028,6.257    c-0.809,2.486-0.314,5.885,2.633,6.436c0.47,0.087,1.623-0.274,1.992-0.145c1.824,0.645,1.837,2.791,1.846,4.309    c0.002,0.512-0.009,0.996-0.015,1.464c-0.134,0.286-0.284,0.557-0.473,0.791c-1.228,1.527-1.266,0.54-3.558-0.607    c-2.385-1.193-3.954-2.009-6.714-0.881c-5.621,2.299-5.136,9.76-5.103,14.723c0.039,5.78-0.606,11.7-0.333,17.46    c0.002,0.045,0.006,0.092,0.008,0.137c-0.514,2.204,0.227,4.597,1.879,6.233c0.087,0.091,0.173,0.182,0.27,0.263    c0.07,0.062,0.126,0.135,0.2,0.195c1.264,1.029,2.948,1.854,4.629,1.67c1.179-0.128,2.76-2.022,3.51-2.365    c-0.251,3.517,0.038,7.271-0.049,10.701c-0.131,5.182-0.18,10.364-0.232,15.548c-0.052,5.145,0.041,10.319-0.154,15.461    c-0.165,4.359-0.978,8.641-0.463,12.988c0.491,4.153-0.221,7.891-0.423,12.031c-0.25,5.113-0.069,10.249-0.003,15.365    c0.067,5.245,0.065,10.491,0.053,15.737c-0.006,2.352-0.15,4.746,0.103,7.086c0.047,0.438,0.375,1.551,0.564,2.606    c-4.183,0.08-8.368,0.142-12.561,0.163c-4.032,0.021-8.062,0.041-12.094,0.063c-1.304,0.007-2.622,0.128-3.941,0.267    c1.02-7.954,0.114-16.59,0.089-24.505c-0.025-8.434,0.228-16.917-0.478-25.321c-0.685-8.142-0.221-16.288-0.963-24.454    c-0.367-4.037,0.101-8.298,0.138-12.353c0.037-4.15-0.618-8.188-0.7-12.321c-0.159-8.098-0.819-16.18-0.658-24.279    c0.163-8.212-1.176-16.45-1.309-24.693c-0.253-15.741,2.355-32.406-0.303-48.108c0.331,0.013,0.653,0.026,0.96,0.042    c12.883,0.649,25.888,1.914,38.815,1.014c12.93-0.901,26.094-1.116,39.058-1.152c4.926-0.014,9.85-0.166,14.772-0.354    c-0.182,1.871-0.232,3.772-0.467,5.628C161.851,186.821,161.995,190.358,161.969,193.804z M106.866,359.482    c0.001-11.332,0.284-22.636,0.468-33.908c0.07-4.337-0.741-8.409-0.412-12.788c0.424-5.649,0.185-11.33,0.128-16.991    c-0.086-8.684,0.719-18.049-0.602-26.795c0.727,0.497,1.556,0.854,2.523,0.843c1.743-0.022,3.199-1.009,4.095-2.435    c0.571-0.91,0.901-4.728,2.341-4.54c0.396,0.052,2.747,3.935,3.338,4.392c1.154,0.892,2.684,1.665,4.213,1.344    c0.781-0.164,1.332-0.516,1.776-0.986c-0.405,7.716,0.376,15.723,0.298,23.341c-0.102,9.92-0.797,19.756-0.795,29.691    c0.005,17.522,0.467,35.063,1.114,52.581c-5.978,0.12-11.95,0.274-17.925,0.407C107.613,369.056,106.866,364.11,106.866,359.482z     M124.105,260.572c-0.536,0.361-1.567,2.041-2.013,2.182c-2.186,0.694-3.013-3.961-5.69-4.61    c-1.995-0.484-4.578,0.908-5.838,2.418c-0.729,0.874-0.738,2.702-1.345,3.356c-1.323,1.423-0.986-0.961-1.924-2.209    c-1.45-1.933-3.496-2.422-5.665-1.364c-1.025,0.5-1.802,2.242-2.641,2.553c-0.397,0.147-0.754,0.145-1.082,0.04    c-1.616-2.615-0.669-7.592-0.658-10.42c0.009-2.57-0.193-5.13-0.295-7.699c-0.086-2.169-0.167-4.331-0.029-6.5    c0.19-2.981-0.19-3.978,2.999-4.596c2.939-0.57,3.091,0.653,5.769,1.03c1.357,0.192,3.536-0.076,4.668-0.976    c0.509,0.001,1.023-0.244,1.314-0.723c2.257-3.711,1.922-12.71-3.169-14.158c-0.549-0.157-3.018,0.159-3.213-0.006    c-1.232-1.039,3.121-4.227,3.842-4.494c1.314-0.486,2.707-0.414,4.092-0.297c0.543,0.218,1.056,0.522,1.529,0.946    c1.785,1.602,2.613,3.826,3.046,6.108c0.502,2.647,0.017,5.816,1.695,8.148c2.773,3.854,7.408,1.178,10.901-0.582    c3.093,3.126,2.513,13.845,2.497,17.044c-0.014,2.674-0.343,5.33-0.689,7.977c-0.309,2.36-0.544,4.766-1.052,7.085    c-0.048,0.219-0.103,0.442-0.226,0.63c-0.123,0.188-0.325,0.338-0.548,0.341c-0.788,0.009-0.857-1.168-1.24-1.628    c-0.469-0.564-1.36-0.663-2.05-0.669C126.011,259.491,124.981,259.983,124.105,260.572z M47.627,381.573    c0.506-0.821,1.771-1.258,3.354-1.522c1.879,0.266,3.802,0.345,5.683,0.438c3.8,0.189,7.725,0.828,11.506,0.828    c3.327,0,6.609-0.658,9.974-0.646c4.43,0.017,8.859,0.042,13.289,0.064c18.311,0.092,36.61-0.022,54.946-0.291    c9.496-0.14,18.973-0.805,28.476-0.568c8.932,0.223,18.256-0.205,27.142,0.479c8.946,0.688,17.675,0.321,26.66,0.211    c3.51-0.044,8.441,0.436,12.407-0.651c4.355,0.447,8.724,0.799,13.081,1.1c3.909,0.27,7.816-0.158,11.723-0.225    c3.666-0.063,7.171,0.659,10.801,0.822c5.015,0.226,10.666,0.456,15.661-0.899c5.882,0.089,11.722,0.099,17.658-0.358    c8.886-0.685,18.211-0.256,27.142-0.479c9.504-0.237,18.98,0.428,28.476,0.568c18.336,0.27,36.634,0.383,54.946,0.291    c4.43-0.022,8.859-0.048,13.289-0.064c3.365-0.014,6.647,0.646,9.974,0.646c3.782,0,7.706-0.639,11.506-0.828    c1.88-0.094,3.803-0.172,5.683-0.438c1.582,0.265,2.848,0.702,3.354,1.522c1.116,1.812,0.037,4.155-0.224,6.232    c-2.903-0.107-5.862,0.485-8.849,0.429c-4.466-0.085-8.794-0.314-13.229-0.642c-9.473-0.698-19.293-0.034-28.803-0.045    c-10.298-0.01-20.596-0.024-30.894-0.034c-4.458-0.005-8.756-0.763-13.19-0.822c-4.587-0.061-9.179,0.427-13.769,0.204    c-9.04-0.438-17.959-0.635-27.043-0.595c-8.603,0.038-17.23,0.552-25.878,0.594c-3.189,0.016-6.479,0.213-9.779,0.367    c-2.703-0.055-5.399,0.052-8.124,0.153c-1.68-0.04-3.347-0.132-4.98-0.329c-0.531-0.064-0.944,0.133-1.232,0.457    c-6.631-0.017-13.199-0.221-19.838-0.508c-3.754-0.162-7.454-0.122-11.203-0.39c-3.544-0.255-6.852,0.768-10.39,0.606    c-2.964-0.135-5.292-0.392-8.23-0.04c-1.17,0.14-2.348,0.17-3.525,0.224c-5.234-0.029-10.582-0.513-15.673-0.538    c-8.647-0.042-17.275-0.556-25.877-0.594c-9.084-0.04-18.002,0.157-27.043,0.595c-4.591,0.222-9.183-0.265-13.769-0.204    c-4.434,0.06-8.731,0.818-13.19,0.822c-10.298,0.01-20.596,0.024-30.894,0.034c-9.51,0.01-19.331-0.655-28.803,0.045    c-4.435,0.328-8.763,0.557-13.229,0.642c-2.987,0.056-5.946-0.536-8.849-0.429C47.591,385.728,46.511,383.385,47.627,381.573z     M30.73,392.995c0.91,0.084,1.981,0.142,3.13,0.167c0.663,0.088,1.327,0.159,1.993,0.187c3.614,0.148,7.37-0.544,10.986-0.712    c6.711-0.314,14.003,0.676,20.955,0.123c20.035-1.592,40.672-0.334,60.805-0.313c8.683,0.009,17.27-0.431,25.972-0.534    c9.027-0.107,18.042-0.522,27.111-0.548c15.139-0.044,30.947,1.976,46.042-0.016c2.323,0.064,4.639,0.123,6.953,0.274    c6.869,0.451,13.866,0.139,20.777,0.21c11.601,0.12,23.068,0.848,34.578,0.094c13.321,0.935,27.05-0.6,40.271-0.562    c9.069,0.026,18.084,0.442,27.111,0.548c8.701,0.103,17.29,0.544,25.972,0.534c20.133-0.022,40.769-1.28,60.805,0.313    c6.952,0.553,14.244-0.437,20.955-0.123c3.615,0.169,7.372,0.86,10.986,0.712c0.666-0.028,1.331-0.099,1.993-0.187    c1.149-0.025,2.221-0.084,3.13-0.167c3.885-0.357,4.94-1.824,4.306,2.241c-0.205,1.313-0.533,2.632-0.133,3.912    c-2.406-0.044-4.812-0.033-7.181,0.135c-8.942,0.637-17.811,0.938-26.797,0.903c-9.8-0.039-19.642,0.517-29.496,0.517    c-10.115,0-20.155-0.563-30.273-0.577c-8.82-0.011-17.641-0.54-26.433-1.092c-10.041-0.63-20.046,0.133-30.074-0.991    c-3.92-0.439-7.723-0.215-11.652-0.218c-5.845-0.005-11.654-0.612-17.508-0.549c-8.134,0.088-16.718-1.359-24.81-0.232    c-1.091,0.026-2.162,0.057-3.2,0.076c-7.317,0.138-14.587-0.1-21.852-0.592c-7.64-0.517-15.168-0.452-22.852-0.295    c-2.192,0.045-4.365,0.243-6.54,0.447c-6.877-0.328-13.99,0.669-20.789,0.595c-5.854-0.064-11.664,0.545-17.507,0.549    c-3.93,0.003-7.732-0.221-11.652,0.218c-10.028,1.124-20.033,0.361-30.074,0.991c-8.793,0.552-17.613,1.08-26.433,1.092    c-10.119,0.013-20.158,0.577-30.273,0.577c-9.854,0-19.696-0.556-29.496-0.517c-8.985,0.036-17.855-0.266-26.797-0.903    c-2.37-0.169-4.775-0.179-7.181-0.135c0.399-1.28,0.071-2.599-0.133-3.912C25.79,391.172,26.844,392.639,30.73,392.995z     M505.87,406.001c-0.077,1.313-0.577,2.615-0.619,3.928c-0.071,0.174-0.124,0.315-0.179,0.462    c-1.427-0.341-6.864,0.313-8.363,0.36c-5.41,0.171-10.88,0.361-16.295,0.587c-23.472,0.978-47.102,1.336-70.617-0.443    c-24.797-1.875-49.616,0.101-74.424-1.038c-22.765-1.045-45.636-2.24-68.437-1.233c-0.789,0.034-1.427,0.284-1.915,0.664    c-4.521,0.076-8.944,0.404-13.546,0.124c-1.55-0.094-3.109-0.166-4.673-0.228c-0.467-0.315-1.045-0.528-1.753-0.559    c-22.8-1.007-45.67,0.188-68.437,1.233c-24.808,1.139-49.627-0.837-74.424,1.038c-23.515,1.779-47.145,1.422-70.617,0.443    c-5.415-0.226-10.884-0.416-16.295-0.587c-1.5-0.047-6.936-0.701-8.363-0.36c-0.055-0.147-0.108-0.288-0.179-0.462    c-0.042-1.313-0.544-2.616-0.619-3.928c-0.117-2.015-1.466-0.813,0.271-1.91c0.768-0.485,2.905-0.166,3.697-0.147    c1.888,0.048,3.67,0.243,5.564-0.068c0.539-0.088,1.154-0.17,1.805-0.258c14.998,0.53,30,0.918,45.006,1.511    c19.617,0.776,39.203,0.034,58.857,0.025c9.112-0.005,18.2-0.9,27.298-1.156c9.024-0.253,17.965,0.046,26.965-0.76    c16.613-1.489,33.997,0.619,50.507-2.057c2.722-0.046,5.464-0.18,8.251-0.151c3.775,0.038,7.539,0.024,11.312-0.039    c4.134-0.07,8.124,0.794,12.235,0.82c6.702,0.044,13.346,0.661,20.119,0.549c5.682-0.094,12.702,1.402,18.409-0.045    c13.272,0.813,26.874-0.253,39.993,0.922c9,0.806,17.94,0.507,26.965,0.76c9.098,0.256,18.188,1.152,27.298,1.156    c19.655,0.009,39.24,0.751,58.857-0.025c15.005-0.593,30.008-0.979,45.006-1.511c0.651,0.088,1.266,0.17,1.805,0.258    c1.894,0.311,3.676,0.116,5.564,0.068c0.791-0.019,2.928-0.339,3.697,0.147C507.336,405.188,505.988,403.986,505.87,406.001z"/>
	</g>
</g>
<g>
	<g>
		<path d="M283.415,258.56c-0.732-6.123-0.596-12.336-1.257-18.466c-0.447-4.144-0.81-8.561-5.111-10.084    c-3.117-1.105-6.084-1.145-9.092-0.919c-5.925-0.868-12.24,0.185-18.141,0.188c-0.959,0.001-1.959,0.026-2.97,0.073    c-3.998-0.412-7.822-0.788-11.904,0.658c-4.3,1.523-4.664,5.94-5.111,10.084c-0.662,6.132-0.526,12.344-1.257,18.465    c-0.716,5.99-1.114,13.242-0.214,19.212c0.17,1.129,1.386,1.718,2.379,1.811c2.908,0.272,5.751,0.498,8.577,0.567    c3.195,0.401,6.688-0.005,9.668,0.052c5.663,0.107,11.731,0.697,17.411-0.225c4.917,0.407,9.794,0.08,14.858-0.393    c0.993-0.093,2.208-0.682,2.379-1.811C284.529,271.802,284.13,264.55,283.415,258.56z M279.091,274.833    c-2.895,0.259-5.757,0.543-8.701,0.388c-2.597-0.136-4.954-0.349-7.373-0.205c-4.558-0.483-9.32-0.32-14.052,0    c-2.418-0.143-4.774,0.069-7.368,0.205c-2.944,0.154-5.806-0.128-8.701-0.388c-0.602-5.167-0.216-11.556,0.333-16.456    c0.482-4.306,0.153-8.616,0.529-12.934c0.315-3.616-0.483-9.211,2.572-11.349c4.387,1.223,9.007,0.005,13.487-0.067    c6.535-0.104,14.139,0.405,20.57-1.283c1.056,0.196,2.137,0.377,3.262,0.555c5.408,0.859,4.213,7.883,4.584,12.144    c0.376,4.318,0.047,8.629,0.529,12.934C279.306,263.277,279.693,269.666,279.091,274.833z"/>
	</g>
</g>
<g>
</g>
<g>
</g>
<g>
</g>
<g>
</g>
<g>
</g>
<g>
</g>
<g>
</g>
<g>
</g>
<g>
</g>
<g>
</g>
<g>
</g>
<g>
</g>
<g>
</g>
<g>
</g>
<g>
</g>
</svg>
