<?xml version="1.0" encoding="iso-8859-1"?>
<!-- Generator: Adobe Illustrator 19.0.0, SVG Export Plug-In . SVG Version: 6.00 Build 0)  -->
<svg xmlns="http://www.w3.org/2000/svg" xmlns:xlink="http://www.w3.org/1999/xlink" version="1.1" id="Layer_1" x="0px" y="0px" viewBox="0 0 512.001 512.001" style="enable-background:new 0 0 512.001 512.001;" xml:space="preserve">
<g>
	<g>
		<path d="M330.74,492.345c-0.345-0.78-0.75-1.649-1.2-2.531c-0.177-1.211-0.332-2.419-0.658-3.47    c-0.858-2.775-2.267-5.365-3.494-7.988c-2.852-6.1-4.242-12.525-6.18-18.932c-3.586-11.861-5.569-23.385-7.099-35.629    c-2.727-21.82-2.956-44.078-3.848-66.015c-0.9-22.151-0.76-44.368-2.418-66.502c3.083,0.251,6.965-0.286,8.842-1.795    c2.871-2.308,0.847-6.596,0.778-9.585c-0.081-3.543,0.624-7.816-2.754-10.051c-1.522-1.008-3.572-1.831-5.264-2.429    c-1.296-0.457-2.338-0.142-3.461-0.049c-0.698-9.386-1.312-18.781-1.684-28.181c0.411,0.141,0.9,0.146,1.462-0.063    c1.98-0.736,3.365-1.111,5.449-1.218c1.523-0.079,2.851-0.435,3.82-1.678c1.09-1.398,0.916-3.075,0.845-4.732    c-0.097-2.271-0.026-4.566-0.302-6.826c-0.127-1.045-0.211-2.002-0.372-2.859c0.072-0.297,0.095-0.602,0-0.873    c-0.855-2.436-3.41-4.186-5.881-4.529c-1.347-0.187-3.631-0.287-5.472,0.208c-0.134-10.28-0.458-20.548-0.662-30.827    c3.492,0.078,8.371,0.229,10.511-2.115c1.973-2.161,0.836-5.389,0.444-7.933c-0.442-2.872,0.304-6.385-2.478-8.172    c-2.191-1.408-4.882-2.327-7.432-2.014c0.752-2.276,1.892-4.425,3.642-6.361c1.56,0.2,3.116,0.315,4.654,0.014    c1.675-0.328,2.511-2.006,2.68-3.521c0.544-4.859-4.026-12.437-9.242-16.053c0.192-0.113,0.378-0.234,0.556-0.376    c3.103-2.456,1.298-7.48,1.171-10.883c-0.349-9.399-8.672-11.629-16.818-12.478c-0.494-0.051-0.986-0.083-1.48-0.123    c0.417-1.105,0.476-2.422,0.449-3.815c-0.061-2.928,0.003-6.076-0.659-8.948c-0.346-1.501-1.074-2.898-2.052-4.023    c0.197-0.312,0.378-0.643,0.523-1.019c0.818-2.124,0.827-5.167,0.868-7.448c0.081-4.445,0.446-8.851,0.369-13.298    c-0.083-4.875-0.254-9.751-0.344-14.627c-0.05-2.686,0.275-5.378-0.123-7.94c0.256-0.002,0.505-0.008,0.764-0.009    c2.334-0.015,3.885-0.08,5.693-1.66c0.959-0.837,1.281-2.375,0.941-3.564c-0.919-3.225-1.361-6.396-3.437-9.203    c-2.239-3.029-5.933-5.208-9.249-6.852c-0.728-0.361-1.425-0.743-2.11-1.132c-1.456-0.897-2.902-1.803-4.322-2.744    c-0.977-0.677-1.947-1.376-2.926-2.092c-3.904-3.071-6.909-6.597-10.22-10.541c-0.383-0.456-0.803-0.946-1.256-1.421    c1.749-1.482,3.416-3.017,3.981-5.328c0.977-4-2.343-8.801-6.147-9.898c-4.091-1.18-8.671,2.746-9.258,6.758    c-0.403,2.751,0.949,6.24,3.473,7.558c-1.491,1.595-2.51,4.052-3.525,6.062c-2.161,2.042-4.601,3.877-6.662,5.381    c-3.761,2.746-7.134,5.327-11.314,7.399c-3.316,1.644-7.01,3.823-9.249,6.852c-2.076,2.807-2.518,5.978-3.437,9.203    c-0.338,1.188-0.017,2.726,0.941,3.564c1.809,1.58,3.359,1.645,5.693,1.66c0.259,0.001,0.508,0.007,0.764,0.009    c-0.4,2.56-0.074,5.253-0.123,7.94c-0.091,4.875-0.26,9.752-0.344,14.627c-0.077,4.447,0.288,8.854,0.369,13.298    c0.042,2.282,0.05,5.324,0.868,7.448c0.145,0.376,0.327,0.708,0.523,1.019c-0.979,1.125-1.707,2.522-2.052,4.023    c-0.663,2.872-0.599,6.02-0.659,8.948c-0.029,1.393,0.032,2.71,0.449,3.815c-0.494,0.04-0.986,0.072-1.48,0.123    c-8.146,0.849-16.47,3.079-16.818,12.478c-0.126,3.403-1.931,8.425,1.171,10.883c0.178,0.142,0.365,0.264,0.556,0.376    c-5.216,3.616-9.785,11.194-9.242,16.053c0.169,1.514,1.005,3.193,2.68,3.521c1.537,0.3,3.094,0.185,4.654-0.014    c1.75,1.937,2.891,4.085,3.642,6.361c-2.55-0.312-5.241,0.608-7.432,2.014c-2.782,1.787-2.036,5.299-2.478,8.172    c-0.392,2.543-1.528,5.772,0.444,7.933c2.14,2.343,7.02,2.193,10.511,2.115c-0.207,10.449-0.54,20.885-0.669,31.333    c-0.561-0.029-1.12-0.031-1.675-0.001c-2.134-0.272-4.574,0.015-6.297,0.623c-3.374,1.192-3.343,3.61-3.746,6.926    c-0.274,2.26-0.205,4.554-0.302,6.826c-0.071,1.658-0.243,3.334,0.845,4.732c0.969,1.243,2.295,1.6,3.82,1.678    c2.083,0.107,3.468,0.482,5.448,1.218c0.563,0.209,1.051,0.203,1.462,0.063c-0.372,9.401-0.985,18.795-1.684,28.181    c-1.122-0.093-2.165-0.408-3.461,0.049c-1.692,0.598-3.742,1.421-5.264,2.429c-3.377,2.235-2.671,6.509-2.754,10.051    c-0.069,2.989-2.094,7.276,0.778,9.585c1.878,1.509,5.76,2.046,8.842,1.795c-1.658,22.135-1.517,44.353-2.418,66.502    c-0.892,21.937-1.121,44.196-3.848,66.016c-1.531,12.244-3.513,23.767-7.099,35.629c-1.938,6.409-3.328,12.833-6.18,18.932    c-1.226,2.622-2.635,5.212-3.494,7.988c-0.326,1.051-0.481,2.26-0.658,3.47c-0.451,0.882-0.856,1.75-1.2,2.531    c-1.25,2.828-2.587,6.283-2.249,9.455c0.756,7.098,10.096,8.248,15.706,8.986c7.975,1.048,16.763,1.453,24.805,1.069    c4.642-0.222,9.098-0.516,13.728-1.145c3.267-0.443,6.625-0.249,9.877-0.657c3.398,0.122,6.766,0.096,10.139-0.287    c4.472-0.507,9.163-0.146,13.717-0.037c3.829,0.834,7.863,0.451,11.769,0.98c4.628,0.628,9.084,0.924,13.728,1.145    c8.041,0.384,16.83-0.022,24.805-1.069c5.61-0.737,14.949-1.888,15.706-8.986C333.326,498.628,331.99,495.173,330.74,492.345z     M308.174,272.461c3.446,1.608,2.704,3.989,2.582,7.437c-0.04,1.138,0.434,3.294,0.117,4.342c-0.104,0.344-0.16,0.585-0.185,0.759    c-0.125,0.053-0.297,0.154-0.545,0.344c-1.212,0.921-3.211,0.31-4.715,0.489c-0.391-4.884-0.783-9.771-1.157-14.66    C305.572,271.526,306.834,271.836,308.174,272.461z M305.088,220.62c0.752,0.27,1.517,0.513,2.317,0.731    c0.205,0.056,1.805,0.905,1.384,0.256c0.548,0.848,0.287,3.645,0.312,4.599c0.042,1.582,0.255,3.75-0.066,5.29    c-0.206,0.988,0.085,1.145,0.122,1.159c-0.035-0.009-0.24-0.04-0.859,0.13c-2.22,0.61-4.159,0.448-6.145,1.807    c-0.125-4.03-0.218-8.061-0.235-12.093c-0.002-0.567-0.011-1.132-0.019-1.698C302.922,220.858,304.035,220.688,305.088,220.62z     M306.518,170.379c1.21,0.598,0.948,0.529,1.219,1.654c0.21,0.871,0.077,2.007,0.198,2.939c0.145,1.112,0.302,2.215,0.427,3.329    c0.17,1.521,0.567,1.653-0.936,2.33c-1.605,0.723-4.246,0.518-6.38,0.388c-0.157-4.07-0.304-8.198,0.355-12.074    C303.095,169.38,304.85,169.555,306.518,170.379z M257.408,3.709c2.414,0.751,3.243,4.902,1.811,6.636    c-0.795,0.964-1.816,1.818-2.901,2.58c-0.138-0.021-0.276-0.04-0.417-0.046c-0.715-1.037-2.105-1.588-2.714-2.845    C251.929,7.435,254.005,2.65,257.408,3.709z M225.846,47.503c0.305-2.503,0.684-4.907,2.684-7.014    c3.275-3.449,8.1-4.576,11.643-7.759c3.555-3.195,10.49-7.294,13.103-12.4c0.705-0.508,1.508-0.84,2.598-0.748    c1.229,0.103,2.385,0.824,3.487,1.85c0.84,1.3,1.937,2.531,3.155,3.695c1.324,1.761,2.588,3.535,3.832,4.651    c3.783,3.391,9.655,8.124,15.24,9.09c0.661,0.489,1.302,1.01,1.882,1.621c1.999,2.107,2.379,4.511,2.684,7.014    c-2.122-0.007-5.571,0.265-5.401,0.251c-2.974,0.226-6.022-0.067-9.031,0.102c-5,0.281-10.618-0.043-15.723,0.82    c-5.105-0.864-10.723-0.539-15.723-0.82c-3.007-0.169-6.057,0.125-9.031-0.102C231.417,47.768,227.968,47.496,225.846,47.503z     M238.954,72.765c0.066,7.318-0.318,14.566,0.422,21.833c-1.386,0.096-2.772,0.205-4.157,0.267    c-0.361,0.016-1.464-0.189-1.993-0.103c-0.125-0.863-0.393-2.27-0.399-2.332c-0.574-7.114-0.874-14.33-0.964-21.471    c-0.062-4.921,0.611-11.252-0.956-16.311c1.272-0.041,2.548-0.121,3.868-0.32c1.427-0.216,2.891-0.342,4.375-0.423    C238.382,60.174,238.897,66.436,238.954,72.765z M230.924,102.447c0.155-0.263,0.348-0.499,0.555-0.724    c2.419,0.41,5.165,0.083,7.287-0.18c2.587-0.322,4.92-0.314,7.11-0.551c2.298,0.05,4.577,0.01,6.723,0.057    c3.66,0.079,8.002,0.281,11.995-0.276c2.631,0.474,5.439,0.372,8.637,0.77c2.122,0.264,4.868,0.591,7.287,0.181    c0.208,0.225,0.401,0.462,0.555,0.724c0.935,1.588,0.458,3.344,0.359,5.076c-0.113,1.995-0.051,4.013-0.331,5.985    c-0.046,0.329-0.075,0.625-0.095,0.912c-3.174-0.781-6.358-0.182-9.572,0.202c-0.031,0.003-0.062,0.006-0.093,0.009    c-3.16-0.221-6.393-0.195-9.61-0.081c-0.444-0.162-0.86-0.123-1.207,0.046c-0.235,0.009-0.466,0.023-0.7,0.033    c-1.282-0.105-2.566-0.23-3.858-0.355c-4.879-0.478-9.349-0.714-14.273-0.473c-2.447,0.12-4.976-0.002-7.405,0.351    c-1.127,0.165-2.204,0.63-3.302,0.969c0.024-0.484-0.007-1-0.094-1.611c-0.28-1.972-0.218-3.99-0.331-5.985    C230.466,105.792,229.99,104.036,230.924,102.447z M254.446,71.011c0.166,4.449,0.181,8.929,0.434,13.376    c0.194,3.398-0.011,7.34,1.042,10.562c-1.603,0.169-3.188,0.349-4.712,0.458c-2.309-0.662-5.079-0.948-7.347-0.984    c-0.755-13.415,0.24-27.304-1.835-40.622c4.053-0.091,8.189-0.023,12.135-0.521C253.655,57.701,254.399,69.748,254.446,71.011z     M259.407,84.387c-0.427-4.727-0.35-9.522-0.75-14.251c-0.351-4.143-0.488-8.305-0.891-12.439c-0.144-1.48-0.207-3.04-0.534-4.504    c4.126,0.587,8.475,0.511,12.736,0.607c-2.074,13.319-1.08,27.209-1.834,40.622c-1.026,0.016-2.158,0.089-3.302,0.218    c-1.705-0.169-3.469-0.138-5.242-0.022C260.545,91.239,259.721,87.847,259.407,84.387z M273.044,72.765    c0.057-6.327,0.572-12.591-0.196-18.859c1.483,0.08,2.948,0.207,4.375,0.423c1.318,0.2,2.596,0.279,3.867,0.32    c-1.568,5.06-0.895,11.391-0.955,16.311c-0.09,7.141-0.391,14.356-0.964,21.471c-0.005,0.062-0.274,1.469-0.399,2.332    c-0.529-0.086-1.632,0.119-1.993,0.103c-1.384-0.063-2.771-0.171-4.157-0.267C273.363,87.331,272.978,80.082,273.044,72.765z     M212.806,133.156c0.17-2.242-0.135-5.02,0.914-6.995c2.485-4.678,13.921-5.223,18.806-5.8c2.097-0.248,4.526-0.299,7.013-0.419    c3.256,0.056,6.522,0.223,9.762,0.295c8.64,0.193,18.265,1.377,26.981-0.123c1.119,0.058,2.194,0.13,3.19,0.248    c4.886,0.577,16.321,1.122,18.806,5.8c1.048,1.973,0.744,4.753,0.914,6.995c0.15,0.654,0.21,1.313,0.23,1.973    c-4.07,0.571-8.713,0.494-12.819,0.598c-7.657,0.194-14.757-1.436-22.235,0.507c-1.945-0.031-3.894-0.047-5.853-0.021    c-4.43,0.058-8.947-0.217-13.495-0.528c-2.103-0.335-4.186-0.434-6.268-0.417c-6.557-0.4-13.121-0.58-19.52,0.339    c-2.269-0.063-4.538-0.183-6.654-0.479C212.595,134.467,212.656,133.809,212.806,133.156z M206.424,152.162    c0.811-2.166,2.405-4.867,3.311-6.314c1.258-2.008,2.902-3.476,3.899-5.443c1.063-0.091,2.1-0.229,3.034-0.283    c1.784-0.105,3.56-0.2,5.333-0.299c4.915,0.283,9.9,0.021,14.79,0.254c6.917,0.33,13.863,1.474,20.805,1.547    c7.267,0.075,14.419,0.66,21.703,0.179c2.859-0.189,5.971,0.11,8.785-0.386c1.363-0.24,2.515-0.856,3.681-1.492    c1.187,0.064,2.374,0.128,3.566,0.198c0.932,0.055,1.971,0.192,3.033,0.283c0.997,1.967,2.64,3.436,3.9,5.443    c0.906,1.446,2.5,4.149,3.311,6.314c-4.84-0.008-9.848-0.51-14.629-0.465c-3.545,0.033-6.951-0.398-10.519-0.156    c-2.855,0.193-6.143-0.264-8.823,0.692c-0.121,0.043-0.23,0.107-0.334,0.175c-5.52,0.039-11.042,0.031-16.572-0.495    c-5.699-0.542-11.448-0.387-17.182-0.238c-1.97-0.158-4.051-0.008-5.944-0.135c-3.568-0.241-6.974,0.19-10.519,0.156    C216.271,151.652,211.264,152.154,206.424,152.162z M217.367,221.426c-0.002-0.585-0.013-1.169-0.017-1.754    c4.402,0.134,8.963-0.754,13.288-0.865c1.289-0.033,2.596-0.046,3.91-0.061c0.43,0.078,0.852,0.159,1.288,0.234    c3.928,0.672,8.041,0.415,12.012,0.454c5.677,0.057,11.355,0.136,17.032,0.046c5.538-0.088,10.976-0.815,16.484-0.673    c4.325,0.112,8.886,0.999,13.288,0.865c-0.005,0.585-0.015,1.169-0.017,1.754c-0.05,12.182,0.015,24.576,0.988,36.708    c0.781,9.743,1.739,19.508,2.409,29.286c-1.012-0.3-2.044-0.585-3.191-0.802c-4.068-0.77-8.299-0.37-12.439-0.398    c-4.441-0.029-8.881-0.281-13.287,0.342c-1.119,0.158-2.173,0.427-3.209,0.731c-4.474-0.624-8.988,0.403-13.647,0.353    c-1.835-0.019-3.7-0.097-5.573-0.176c-1.227-0.374-2.467-0.72-3.798-0.908c-4.404-0.622-8.846-0.37-13.287-0.342    c-4.139,0.027-8.371-0.372-12.439,0.398c-1.147,0.217-2.179,0.502-3.191,0.802c0.67-9.778,1.627-19.543,2.409-29.286    C217.352,246.002,217.417,233.607,217.367,221.426z M295.443,177.777c-0.006,12.468-0.55,24.927-0.744,37.395    c-4.726-0.8-9.801-0.932-14.377-0.971c-4.151-0.035-8.189-0.125-12.07,0.869c-6.857-1.528-14.256-0.436-21.385-0.363    c-1.654,0.017-3.27,0.013-4.879-0.011c-3.337-0.588-6.783-0.526-10.31-0.495c-0.17,0.001-0.351,0.007-0.521,0.008    c-0.518-0.006-1.034,0.003-1.552,0.024c-4.012,0.067-8.277,0.257-12.304,0.938c-0.194-12.466-0.738-24.927-0.744-37.395    c-0.003-6.552-0.071-14.658-4.671-19.249c3.056-0.275,6.053-0.48,9.168-0.57c3.529-0.103,6.987-0.816,10.519-1.049    c0.495-0.033,0.979-0.064,1.459-0.098c1.185,0,2.327-0.019,3.367-0.016c6.506,0.021,12.899,0.258,19.364,0.724    c9.544,0.688,19.134,0.544,28.668-0.193c2.167,0.273,4.328,0.568,6.515,0.631c3.115,0.09,6.112,0.295,9.168,0.57    C295.514,163.12,295.446,171.224,295.443,177.777z M204.572,180.631c-1.501-0.676-1.106-0.809-0.936-2.33    c0.126-1.114,0.282-2.217,0.427-3.329c0.121-0.93-0.013-2.068,0.198-2.939c0.272-1.127,0.01-1.057,1.219-1.654    c1.667-0.824,3.423-0.999,5.116-1.434c0.659,3.877,0.512,8.005,0.355,12.074C208.819,181.149,206.179,181.354,204.572,180.631z     M213.605,292.975c0.011-0.211,0.03-0.423,0.041-0.634c0.843-0.011,1.683-0.075,2.492-0.114c4.166-0.202,8.244-0.377,12.458-0.359    c3.348,0.014,6.689,0.051,10.027,0.11c4.499,0.682,9.203,0.634,13.632,0.817c3.075,0.128,5.722-0.457,8.742-0.582    c0.736-0.031,1.43-0.055,2.107-0.083c2.027,0.215,4.022-0.016,6.169-0.073c4.702-0.127,9.409-0.169,14.127-0.189    c4.215-0.017,8.293,0.158,12.458,0.359c0.809,0.039,1.649,0.103,2.492,0.114c0.011,0.211,0.03,0.423,0.041,0.634    c1.224,22.364,1.667,44.685,2.948,67.028c-5.336-0.752-10.902-0.53-16.175-0.55c-6.869-0.025-13.961-0.576-20.718,0.72    c-1.98-0.064-3.913,0.192-6.025,0.276c-3.432,0.138-7.11-0.249-10.579-0.241c-0.035,0-0.07,0.003-0.105,0.003    c-6.814-1.343-13.972-0.785-20.905-0.76c-5.273,0.019-10.839-0.201-16.175,0.55C211.938,337.66,212.382,315.339,213.605,292.975z     M203.699,232.784c-0.619-0.17-0.825-0.139-0.86-0.13c0.038-0.014,0.329-0.169,0.122-1.159c-0.32-1.54-0.109-3.708-0.066-5.29    c0.025-0.955-0.235-3.752,0.312-4.599c-0.42,0.649,1.179-0.2,1.384-0.256c0.125-0.034,0.242-0.072,0.365-0.107    c0.726-0.009,1.429,0.102,2.173,0.139c1.04,0.054,1.955-0.018,2.959,0.093c-0.003,0.34-0.01,0.682-0.011,1.023    c-0.017,4.032-0.11,8.063-0.235,12.093C207.858,233.232,205.921,233.394,203.699,232.784z M201.857,285.341    c-0.248-0.189-0.42-0.29-0.545-0.344c-0.026-0.174-0.081-0.415-0.185-0.759c-0.318-1.048,0.156-3.204,0.117-4.342    c-0.122-3.448-0.864-5.829,2.582-7.437c1.34-0.625,2.602-0.936,3.905-1.291c-0.375,4.89-0.767,9.777-1.157,14.66    C205.067,285.651,203.069,286.262,201.857,285.341z M205.805,433.476c1.203-11.239,1.265-22.572,2.414-33.844    c1.093-10.719,1.296-21.73,2.009-32.499c0.048-0.724,0.086-1.448,0.131-2.172c0.978,0.003,1.975-0.034,3.032-0.079    c4.47-0.189,8.963-0.008,13.442,0.003c2.774,0.007,5.585,0.099,8.398,0.125c4.091,0.414,8.062,0.144,12.614,0.262    c6.648,0.171,13.92,1.472,20.374-0.572c5.597,0.564,11.35,0.199,16.947,0.185c4.479-0.01,8.972-0.192,13.442-0.003    c1.057,0.045,2.054,0.083,3.032,0.079c0.046,0.724,0.083,1.448,0.131,2.172c0.713,10.769,0.915,21.78,2.009,32.499    c1.149,11.272,1.212,22.604,2.414,33.844c0.023,0.211,0.057,0.418,0.081,0.63c-1.588-0.013-3.192,0.136-4.86,0.274    c-4.346,0.362-8.689,0.259-13.01,0.763c-4.449,0.519-8.998-0.197-13.449,0.368c-0.468,0.059-0.933,0.122-1.396,0.185    c-1.752-0.409-3.582-0.386-5.54-0.161c-4.486,0.514-8.23,1.049-12.747,0.686c-5.403-0.434-11.475-0.979-17.249-0.58    c-0.326-0.045-0.65-0.088-0.978-0.13c-4.451-0.564-9.001,0.151-13.449-0.368c-4.321-0.504-8.664-0.401-13.01-0.763    c-1.667-0.139-3.272-0.287-4.86-0.274C205.748,433.895,205.782,433.688,205.805,433.476z M264.555,481.895    c-0.264,2.792-0.746,5.585-1,8.367c-0.378,4.151-0.729,8.816-0.222,13.164c-3.641,0.014-7.267,0.181-10.799,0.582    c-1.833,0.208-3.732,0.241-5.648,0.249c1.287-3.703,1.307-8.494,1.416-11.845c0.12-3.696-0.159-7.398,0.067-11.094    c0.245-4.006,0.078-5.158,3.801-6.114c1.854-0.476,3.968-0.353,5.878-0.402C263.266,474.667,265.091,476.225,264.555,481.895z     M326.454,499.404c-0.922,5.361-15.278,4.232-19.912,4.538c-6.709,0.444-13.351-0.422-20.004-0.01    c-2.958,0.183-6.067,0.11-9.182,0.117c-2.747-0.234-5.537-0.424-8.344-0.531c0.016-2.498-0.423-4.962-0.415-7.477    c0.011-3.896,0.625-8.117,0.882-12.061c0.465-7.144-1.005-13.904-9.345-14.152c-7.271-0.216-15.456-0.707-16.591,7.934    c-0.723,5.507-0.061,11.016-0.351,16.532c-0.178,3.38-0.825,6.674-0.76,10.011c-0.328,0.01-0.656,0.022-0.981,0.039    c-5.285-0.54-10.861-0.094-15.99-0.41c-6.652-0.411-13.295,0.455-20.004,0.01c-4.635-0.306-18.99,0.821-19.912-4.538    c-0.032-0.189-0.041-0.376-0.057-0.564c0.29-0.169,0.569-0.391,0.819-0.705c2.66-3.321,2.975-7.636,4.632-11.477    c2.539-5.886,5.168-11.349,6.88-17.563c2.765-10.032,5.6-19.749,7.213-29.934c1.796,0.27,3.657,0.354,5.336,0.555    c5.192,0.623,10.487,0.975,15.723,1.215c4.564,0.209,9.279,0.361,13.823,0.379c0.802,0.003,1.627-0.061,2.45-0.191    c3.975,0.193,7.974,0.209,11.878,0.561c3.828,0.345,7.147,0.663,10.955,0.059c2.242-0.355,4.817-0.246,7.24-0.435    c4.438-0.025,9.024-0.169,13.473-0.374c5.235-0.24,10.532-0.592,15.723-1.215c1.678-0.201,3.54-0.286,5.336-0.555    c1.613,10.185,4.448,19.902,7.213,29.934c1.713,6.214,4.342,11.677,6.88,17.563c1.657,3.841,1.972,8.156,4.632,11.477    c0.25,0.313,0.529,0.536,0.819,0.705C326.495,499.028,326.487,499.215,326.454,499.404z"/>
	</g>
</g>
<g>
	<g>
		<path d="M272.579,170.139c-0.113-1.004-0.403-1.877-0.4-2.915c0.003-1.104,0.319-2.157-0.039-3.254    c-0.441-1.353-1.373-2.19-2.732-2.449c-0.923-0.176-1.72,0.117-2.615,0.298c-1.371,0.279-2.55,0.246-3.94,0.292    c-2.169,0.073-4.381,0.598-6.506,1.016c-2.701,0.532-4.177,2.083-4.214,4.411c-0.003,0.011-0.01,0.021-0.014,0.033    c-0.567,2.095-0.729,4.852-0.807,7.053c-0.127,3.602,0.289,5.634,4.182,6.285c2.816,0.472,5.868,0.68,8.729,0.769    c1.753,0.055,3.964,0.447,5.552-0.476c1.424-0.827,2.035-2.44,2.186-3.991C272.179,174.974,272.829,172.374,272.579,170.139z     M268.583,173.96c-0.226,1.959,0.043,3.879-2.279,4.267c-2.726,0.455-5.925-0.504-8.657-0.744    c-0.585-0.051-1.943,0.024-2.586-0.327c-0.014-0.066-0.058-0.214-0.117-0.514c-0.267-1.394-0.003-3.164,0.198-4.542    c0.137-0.937-0.066-2.538,0.229-3.348c0.845-2.328,3.526-1.973,5.472-2.316c0.786-0.138,1.562-0.287,2.342-0.43    c1.186-0.049,2.364-0.122,3.504-0.334c1.592-0.295,1.901-0.865,1.861,1.071c-0.024,1.164,0.081,2.074,0.254,3.212    C269.028,171.441,268.751,172.506,268.583,173.96z"/>
	</g>
</g>
<g>
	<g>
		<path d="M269.065,225.808c-0.196-0.826-0.943-1.213-1.71-1.303c-2.541-0.297-5.074-0.404-7.611-0.856    c-1.473-0.262-3.392-0.691-4.609,0.497c-0.999,0.976-1.077,3.341-1.212,4.642c-0.225,2.175-0.567,3.927-0.393,5.802    c-0.168,1.589-0.171,3.232,0.126,4.606c0.776,3.593,4.642,3.299,7.558,3.139c3.061-0.168,6.95-0.67,8.587-3.669    C271.793,235.015,269.948,229.503,269.065,225.808z M266.925,235.825c-0.531,2.862-4.341,2.701-6.671,2.739    c-0.7,0.011-2.463,0.273-2.883-0.198c-0.607-0.681-0.255-4.488-0.187-5.405c0.13-1.765,0.301-3.383,0.057-5.001    c0.008-0.065,0.009-0.133,0.018-0.198c0.005-0.034,0.219-0.7,0.287-1.144c0.448,0.168,1.318,0.302,1.613,0.374    c0.602,0.148,1.17,0.279,1.785,0.366c1.666,0.237,3.32,0.359,4.975,0.53C266.559,230.436,267.391,233.319,266.925,235.825z"/>
	</g>
</g>
<g>
</g>
<g>
</g>
<g>
</g>
<g>
</g>
<g>
</g>
<g>
</g>
<g>
</g>
<g>
</g>
<g>
</g>
<g>
</g>
<g>
</g>
<g>
</g>
<g>
</g>
<g>
</g>
<g>
</g>
</svg>
