<?xml version="1.0" encoding="iso-8859-1"?>
<!-- Generator: Adobe Illustrator 19.0.0, SVG Export Plug-In . SVG Version: 6.00 Build 0)  -->
<svg xmlns="http://www.w3.org/2000/svg" xmlns:xlink="http://www.w3.org/1999/xlink" version="1.1" id="Layer_1" x="0px" y="0px" viewBox="0 0 511.991 511.991" style="enable-background:new 0 0 511.991 511.991;" xml:space="preserve">
<g>
	<g>
		<path d="M511.428,441.16c-0.178-2.161-0.268-5.63-2.053-7.198c-1.847-1.621-5.422-1.839-8.297-1.836    c1.517-4.274-0.069-11.319-3.812-13.256c-1.337-0.692-3.061-1.067-4.855-1.275c0.656-0.953,1.099-2.182,1.254-3.794    c0.554-5.75-0.301-12.204-6.715-13.233c-1.174-0.188-2.297-0.309-3.4-0.402c0.865-2.545,0.283-5.444,0.051-8.022    c-0.351-3.899-0.575-7.839-0.959-11.746c-0.681-6.923-1.091-13.999-1.469-20.97c-0.812-14.975-3.688-29.819-4.145-44.824    c-0.236-7.778-1.963-15.51-1.985-23.294c-0.017-5.697-0.354-12.488-1.552-18.277c3.139-1.637,5.477-5.069,7.278-7.965    c0.107-0.173,0.171-0.369,0.218-0.568c0.602-0.195,1.172-0.445,1.674-0.812c2.381-1.741,2.654-5.301,1.537-8.124    c0.281-0.089,0.564-0.189,0.844-0.307c6.731-2.825,4.59-14.118,1.024-18.916c-1.403-1.887-3.642-2.749-6.159-3.149    c0.623-3.411,0.316-6.741,0.163-10.228c-0.126-2.867,0.489-6.122-0.01-9.024c1.112,0.019,2.178-0.053,3.099-0.307    c5.409-1.486,6.047-8.875,4.407-13.343c0.774-0.164,1.354-0.541,1.948-1.175c0.412-0.441,0.719-1.928,1.078-2.26    c0.217-0.202,0.34-0.333,0.408-0.42c0.039,0.074,0.217,0.137,0.77,0.069c4.226-0.523,6.664,3.091,10.45-0.513    c2.032-1.934,5.695-7.782,4.438-10.722c-0.786-1.838-3.557-2.738-5.569-3.397c-0.02-3.924-1.557-7.582-0.648-11.72    c0.825-3.759,3.019-6.297,5.226-9.343c2.129-2.938,7.242-8.035,4.776-11.932c-3.39-5.36-10.558-2.149-14.52,2.716    c-0.002-0.28-0.022-0.558-0.082-0.829c-0.295-1.331-0.867-2.489-1.964-3.339c-1.777-1.378-4.31-1.414-6.047,0.058    c-2.149,1.821-2.677,5.533-2.671,8.153c0.001,0.49,0.023,0.988,0.057,1.49c-1.903-1.481-4.29-2.109-6.601-0.549    c-1.565,1.057-2.099,2.658-1.916,4.482c0.117,1.162,0.501,2.407,0.777,3.536c0.031,0.127,0.073,0.366,0.129,0.604    c-1.666,1.259-1.749,3.883-0.957,6.089c-7.081-2.929-14.204-5.72-21.388-8.437c-21.379-8.086-42.63-16.499-64.022-24.598    c-21.059-7.973-42.824-14.179-64.123-21.552c-5.785-2.003-11.687-3.608-17.417-5.763c-4.764-1.792-9.752-2.363-14.55-3.947    c-5.646-1.865-11.046-3.662-16.865-4.901c-0.291-0.062-0.598-0.122-0.897-0.183c-0.014-0.03-0.021-0.06-0.038-0.09    c-2.421-4.562-3.879-10.481-8.789-13.308c0.596-1.871,1.555-3.381,3.413-4.553c1.296-0.818,2.315-1.229,3.321-2.514    c1.973-2.522,3.4-5.814,1.7-8.915c-1.187-2.163-3.568-2.99-5.966-2.531c-0.9,0.172-1.886,0.534-2.802,0.995    c0.065-0.309,0.124-0.594,0.183-0.84c0.425-1.795,0.371-3.834-0.366-5.546c-0.737-1.713-1.769-1.951-3.264-2.808    c-1.603-0.92-0.568,0.666-1.171-1.31c-0.201-0.656-0.145-1.347-0.432-1.996c-0.612-1.387-2.056-2.467-3.463-2.921    c-1.284-0.414-2.391-0.349-3.323,0.08c-2.132-0.026-3.923,1.787-4.917,3.628c-0.943,1.746-0.718,3.642-2.605,4.33    c-0.972,0.355-1.615,0.186-2.407,1.058c-0.759,0.835-0.873,3.502-0.489,5.943c-0.421-0.251-0.865-0.495-1.347-0.727    c-2.52-1.212-6.57-1.112-8.257,1.46c-1.686,2.57-1.367,7.003,0.609,9.303c1.624,1.89,4.061,1.984,5.956,3.283    c2.291,1.569,1.464,3.684,0.489,5.661c-1.203,0.748-2.297,1.87-3.342,3.632c-1.562,2.63-3.345,5.599-4.557,8.51    c-0.608,0.12-1.226,0.238-1.808,0.361c-5.82,1.24-11.22,3.037-16.865,4.901c-4.798,1.584-9.786,2.156-14.55,3.947    c-5.73,2.155-11.632,3.76-17.417,5.763c-21.299,7.373-43.066,13.578-64.123,21.552c-21.392,8.1-42.644,16.512-64.022,24.598    c-7.184,2.717-14.307,5.507-21.388,8.437c0.792-2.206,0.709-4.83-0.957-6.089c0.054-0.237,0.097-0.475,0.128-0.604    c0.275-1.129,0.659-2.373,0.777-3.536c0.184-1.824-0.35-3.426-1.916-4.482c-2.311-1.559-4.699-0.932-6.601,0.549    c0.033-0.501,0.055-1,0.057-1.49c0.004-2.62-0.523-6.332-2.671-8.153c-1.737-1.472-4.27-1.436-6.047-0.058    c-1.097,0.85-1.67,2.009-1.964,3.339c-0.06,0.27-0.08,0.548-0.082,0.829c-3.962-4.866-11.13-8.076-14.52-2.717    c-2.465,3.898,2.648,8.994,4.777,11.932c2.207,3.046,4.401,5.584,5.226,9.343c0.909,4.138-0.628,7.795-0.648,11.72    c-2.012,0.659-4.784,1.559-5.569,3.397c-1.256,2.94,2.405,8.787,4.438,10.722c3.786,3.604,6.224-0.01,10.45,0.513    c0.553,0.069,0.73,0.004,0.77-0.069c0.068,0.086,0.191,0.218,0.408,0.42c0.359,0.331,0.665,1.819,1.078,2.26    c0.594,0.635,1.172,1.012,1.948,1.175c-1.64,4.468-1.002,11.857,4.407,13.343c0.921,0.253,1.986,0.325,3.099,0.307    c-0.499,2.902,0.115,6.158-0.01,9.024c-0.153,3.487-0.46,6.818,0.163,10.228c-2.517,0.399-4.756,1.262-6.159,3.149    c-3.566,4.798-5.708,16.091,1.024,18.916c0.281,0.117,0.563,0.218,0.844,0.307c-1.118,2.824-0.844,6.384,1.537,8.124    c0.502,0.367,1.072,0.617,1.674,0.812c0.047,0.199,0.111,0.396,0.218,0.568c1.8,2.896,4.139,6.327,7.278,7.965    c-1.198,5.789-1.537,12.58-1.552,18.277c-0.022,7.784-1.749,15.515-1.985,23.294c-0.456,15.005-3.332,29.848-4.145,44.824    c-0.378,6.971-0.788,14.047-1.469,20.97c-0.384,3.906-0.608,7.847-0.959,11.746c-0.233,2.578-0.814,5.477,0.051,8.022    c-1.103,0.093-2.226,0.214-3.4,0.402c-6.414,1.028-7.269,7.483-6.715,13.233c0.155,1.612,0.598,2.842,1.254,3.794    c-1.794,0.208-3.516,0.583-4.855,1.275c-3.744,1.937-5.33,8.982-3.812,13.256c-2.875-0.003-6.45,0.215-8.297,1.836    c-1.786,1.568-1.875,5.036-2.054,7.198c-0.281,3.405-1.384,7.471,0.584,10.54c3.531,5.511,15.159,4.271,20.818,4.573    c10.413,0.557,20.956-0.05,31.372-0.23c18.751-0.325,37.561-1.657,56.299-2.176c10.342-0.286,20.713-0.045,31.056-0.306    c10.893-0.275,22.171-0.275,33.039,0.425c10.769,0.694,21.578,0.346,32.365,0.738c4.189,0.153,8.389,0.349,12.587,0.28    c3.886,0.779,8.246,0.376,11.992,0.546c8.64,0.393,17.306,0.534,25.95,1.02c7.756,0.437,15.779-0.335,23.557-0.802    c3.678-0.222,7.272-0.478,10.846-0.846c4.961,0.211,9.927-0.019,14.877-0.199c10.786-0.392,21.597-0.045,32.365-0.738    c10.868-0.699,22.147-0.7,33.039-0.425c10.342,0.26,20.714,0.02,31.056,0.306c18.739,0.518,37.548,1.85,56.299,2.176    c10.416,0.181,20.959,0.788,31.372,0.23c5.659-0.302,17.289,0.937,20.818-4.573C512.81,448.63,511.709,444.565,511.428,441.16z     M475.24,350.063c1.637,13.342,1.912,26.989,2.967,40.399c0.193,2.457,1.358,7.28-1.295,8.424    c-1.043,0.45-2.965,0.304-4.532,0.233c-3.653-0.434-7.428-0.572-10.679-0.546c-3.439,0.028-6.887,0.125-10.334,0.198    c-0.135-0.029-0.281-0.053-0.396-0.093c-3.916-1.367-2.268-5.831-2.299-9.277c-0.03-3.458-0.018-6.919-0.091-10.375    c-0.123-5.777,0.782-11.569,0.7-17.355c-0.082-5.811,0.153-11.816,0.471-17.632c0.695-12.713,0.515-25.375,1.747-38.072    c0.586-6.039,1.328-12.015,1.906-18.055c0.397-4.15,0.963-8.71,0.577-13.011c2.784,0.342,5.888,0.101,9.191-0.12    c1.897-0.126,4.046-0.174,6.089-0.477c0.105,5.373,1.088,10.586,1.322,16.014c0.301,6.979,0.814,13.973,1.367,20.942    C472.976,324.185,473.658,337.175,475.24,350.063z M443.33,398.849c-2.116-0.017-4.231-0.071-6.342-0.188    c-3.295-0.184-6.597-0.326-9.906-0.436c0.194-2.018-0.181-4.141-0.356-6.082c-0.351-3.899-0.574-7.839-0.959-11.746    c-0.681-6.923-1.091-13.999-1.469-20.97c-0.812-14.975-3.688-29.819-4.145-44.824c-0.236-7.778-1.963-15.51-1.985-23.294    c-0.017-5.697-0.355-12.488-1.552-18.277c3.139-1.637,5.477-5.069,7.278-7.965c0.107-0.173,0.171-0.369,0.218-0.568    c0.602-0.195,1.172-0.445,1.674-0.812c2.061-1.507,2.536-4.375,1.904-6.951c3.647,0.06,7.274,0.008,10.935-0.133    c-0.843,3.508,0.623,7.822,4.053,9.188c0.388,0.154,0.8,0.255,1.222,0.333c0.006,0.394,0.076,0.801,0.27,1.249    c1.431,3.304,3.332,5.241,5.586,6.35c-1.518,4.764-1.09,10.416-1.52,15.246c-0.609,6.843-1.77,13.642-2.322,20.5    c-1.103,13.714-1.615,27.589-1.663,41.348c-0.048,14.2-1.209,28.286-1.344,42.538C442.889,395.245,442.926,397.159,443.33,398.849    z M370.151,394.998c1.956,0.263,4.345-0.137,5.796-0.284c1.209-0.122,2.477-0.145,3.76-0.162c1.817,0.076,3.661,0.069,5.425-0.299    c0.304-0.044,0.607-0.088,0.904-0.148c0.001,1.685,0.073,3.364,0.449,4.86c-5.438,0.148-10.898,0.033-16.361-0.141    C370.322,397.577,370.268,396.279,370.151,394.998z M386.094,390.287c-0.474-0.023-0.954,0.055-1.594,0.079    c-0.332,0.012-0.667,0.006-1,0.006c-0.573-0.032-1.15-0.043-1.731-0.04c-1.332-0.063-2.663-0.177-3.973-0.292    c-1.649-0.145-4.336-0.429-6.229,0.3c-0.635-0.027-1.26-0.016-1.846,0.091c-0.274-3.339-0.494-6.696-0.823-10.033    c-0.681-6.923-1.091-13.999-1.469-20.97c-0.812-14.975-3.688-29.819-4.143-44.824c-0.236-7.778-1.963-15.51-1.985-23.294    c-0.017-5.697-0.354-12.488-1.552-18.277c3.139-1.637,5.477-5.069,7.278-7.965c0.107-0.173,0.171-0.369,0.218-0.568    c0.602-0.195,1.172-0.445,1.674-0.812c2.001-1.462,2.51-4.21,1.961-6.726c2.332-0.145,4.661-0.276,6.982-0.322    c1.301-0.027,2.604-0.052,3.906-0.078c-0.864,3.515,0.599,7.857,4.042,9.229c0.388,0.154,0.8,0.255,1.222,0.333    c0.006,0.394,0.076,0.801,0.27,1.249c1.431,3.304,3.333,5.241,5.586,6.35c-1.518,4.764-1.09,10.416-1.521,15.246    c-0.609,6.843-1.77,13.643-2.322,20.5c-1.103,13.715-1.615,27.589-1.662,41.348C387.336,363.996,386.346,377.08,386.094,390.287z     M313.193,394.115c2.46,0.385,5.162,0.003,7.555-0.178c2.777-0.211,5.636,0.009,8.418-0.311c-0.011,1.686,0.03,3.383,0.351,4.915    c-2.78,0.045-5.56,0.088-8.335,0.154c-2.492,0.06-5.174-0.02-7.9-0.048C313.486,397.165,313.356,395.617,313.193,394.115z     M329.238,389.206c-2.623-0.401-5.81-0.052-7.883,0.061c-2.673,0.146-5.835-0.185-8.568,0.381    c-0.244-3.082-0.458-6.174-0.76-9.251c-0.681-6.923-1.091-13.999-1.469-20.97c-0.812-14.975-3.688-29.819-4.145-44.824    c-0.236-7.778-1.963-15.51-1.985-23.294c-0.017-5.697-0.354-12.488-1.552-18.277c3.139-1.637,5.477-5.069,7.278-7.965    c0.107-0.173,0.171-0.369,0.218-0.568c0.602-0.195,1.172-0.445,1.674-0.812c2.052-1.5,2.533-4.35,1.913-6.915    c1.481,0.065,2.968,0.109,4.471,0.12c2.124,0.014,4.233,0.138,6.34,0.27c-0.569,3.395,0.916,7.335,4.166,8.629    c0.388,0.154,0.8,0.255,1.222,0.333c0.006,0.394,0.076,0.801,0.27,1.249c1.431,3.304,3.333,5.241,5.586,6.35    c-1.518,4.764-1.09,10.416-1.521,15.246c-0.609,6.843-1.77,13.642-2.322,20.5c-1.103,13.715-1.615,27.589-1.662,41.349    C330.466,363.637,329.523,376.365,329.238,389.206z M253.812,308.212c0.195,3.388,0.283,6.813,0.332,10.245    c-0.448,0-0.897-0.007-1.344-0.002c-3.327,0.034-6.594-0.296-9.912-0.462c-0.476-0.024-3.917,0.075-5.586,0.434    c-0.185-2.991-0.384-5.979-0.625-8.957c-0.472-5.864-1.37-11.685-2.007-17.527c0.828,0.026,1.702-0.047,2.673-0.071    c5.028-0.123,9.977,0.594,14.966,0.36c0.403-0.019,0.81-0.03,1.216-0.04c-0.002,1.668,0.194,3.395,0.284,4.823    C254.044,300.757,253.594,304.442,253.812,308.212z M242.287,322.442c2.923,0.28,5.844,0.655,8.796,0.766    c1.037,0.039,2.073,0.047,3.11,0.068c0.011,3.33,0.002,6.657-0.002,9.953c-0.006,3.922-0.016,7.845-0.023,11.767    c-5.214,0.05-10.878,0.12-15.87,1.235c-0.092-8.048-0.347-16.121-0.787-24.172C239.049,322.372,240.702,322.291,242.287,322.442z     M254.326,391.17c-2.36,0.062-4.716,0.121-7.093,0.259c-2.64,0.154-5.166-0.099-7.572,0.551    c-0.072-5.133-0.267-10.246-0.486-15.351c0.789,0.074,1.594,0.093,2.52,0.105c4.069,0.053,8.189,0.531,12.237,0.449    c0.058-0.001,0.116-0.001,0.174-0.002c-0.001,0.338-0.001,0.676-0.002,1.014C254.096,382.44,253.511,386.974,254.326,391.17z     M254.157,349.912c-0.009,4.522-0.017,9.045-0.027,13.567c-0.006,2.833-0.011,5.667-0.016,8.5c-0.317,0.008-0.634,0.01-0.949,0.02    c-4.904,0.157-9.533-0.107-14.155,0.828c-0.322-7.332-0.643-14.655-0.668-22.008c-0.001-0.474-0.011-0.951-0.014-1.425    C243.51,350.486,248.878,350.009,254.157,349.912z M239.676,395.228c2.402,0.682,5.03,0.576,7.558,0.503    c3.872-0.112,7.651,0.073,11.49-0.258c3.043-0.263,9.618,1.286,13.592,0.102c0.04,1.213,0.151,2.432,0.482,3.556    c-1.861,0.028-3.718,0.093-5.543,0.103c-6.584,0.035-13.169,0.072-19.754,0.107c-2.796,0.016-5.595,0.032-8.393,0.034    C239.531,398.08,239.646,396.644,239.676,395.228z M272.335,390.993c-1.169-0.153-2.412-0.083-3.495-0.074    c-3.244,0.023-6.492,0.021-9.731,0.117c0.548-4.537,0.626-9.222,0.56-13.922c2.354-0.02,4.711-0.042,7.058-0.098    c2.083-0.049,4.185,0.072,6.082-0.461C272.604,381.359,272.417,386.167,272.335,390.993z M271.25,371.495    c-1.472-0.068-3.043,0.309-4.523,0.346c-2.393,0.058-4.783,0.06-7.172,0.069c-0.103-3.568-0.226-7.119-0.233-10.59    c-0.007-3.786-0.014-7.57-0.021-11.356c4.779,0.136,9.639,0.359,14.346-0.222c-0.001,0.359-0.009,0.718-0.01,1.076    c-0.023,6.932-0.309,13.836-0.612,20.747C272.342,371.49,271.435,371.503,271.25,371.495z M267.827,344.966    c-2.802,0.175-5.687,0.052-8.534,0.009c-0.009-4.995-0.016-9.991-0.028-14.987c-0.005-2.203-0.012-4.43-0.034-6.666    c5.077-0.02,10.147-0.206,15.201-0.525c-0.394,7.397-0.637,14.812-0.739,22.209C271.597,344.391,270.128,344.822,267.827,344.966z     M266.701,318.401c-2.502,0.126-5.024,0.116-7.547,0.09c-0.095-3.891-0.28-7.776-0.646-11.574    c-0.427-4.437,0.705-10.045-0.442-14.696c6.407,0.198,13.026,0.881,19.221-0.086c-0.636,5.778-1.52,11.535-1.986,17.335    c-0.234,2.897-0.425,5.804-0.607,8.714C271.975,317.92,269.432,318.263,266.701,318.401z M276.706,286.753    c-3.213,0.517-6.95,0.002-10.205-0.014c-4.096-0.021-8.13,0.152-12.196,0.082c-4.059-0.07-8.242,0.069-12.321,0.137    c-2.436,0.04-5.199,0.645-7.711,0.803c-0.284-4.548-0.044-9.664-1.438-14.038c2.255-1.108,4.156-3.046,5.586-6.35    c0.194-0.448,0.265-0.854,0.27-1.249c0.422-0.079,0.834-0.179,1.222-0.333c3.791-1.51,5.185-6.623,3.706-10.266    c2.523,0.025,5.045,0.05,7.567,0.053c5.708,0.008,11.438,0.109,17.15-0.001c-1.445,3.639-0.049,8.711,3.726,10.215    c0.388,0.154,0.8,0.255,1.222,0.333c0.006,0.394,0.076,0.801,0.27,1.249c1.431,3.304,3.331,5.241,5.586,6.35    c-1.293,4.06-1.177,8.762-1.379,13.054C277.436,286.711,277.084,286.692,276.706,286.753z M198.698,398.645    c-2.727,0.028-5.409,0.109-7.9,0.048c-2.774-0.066-5.555-0.109-8.335-0.154c0.321-1.531,0.362-3.228,0.351-4.915    c2.782,0.32,5.64,0.101,8.418,0.311c2.392,0.182,5.094,0.564,7.555,0.178C198.624,395.617,198.492,397.165,198.698,398.645z     M190.623,389.267c-2.073-0.113-5.259-0.462-7.883-0.061c-0.284-12.84-1.226-25.569-1.271-38.389    c-0.048-13.76-0.559-27.635-1.663-41.348c-0.552-6.859-1.713-13.657-2.322-20.5c-0.43-4.829-0.003-10.482-1.521-15.246    c2.255-1.108,4.156-3.046,5.587-6.35c0.194-0.448,0.265-0.854,0.27-1.249c0.422-0.079,0.834-0.179,1.222-0.333    c3.249-1.294,4.735-5.235,4.166-8.629c2.107-0.132,4.217-0.255,6.34-0.27c1.503-0.01,2.99-0.054,4.471-0.12    c-0.619,2.567-0.138,5.416,1.913,6.915c0.502,0.367,1.072,0.617,1.674,0.812c0.048,0.199,0.111,0.396,0.218,0.568    c1.8,2.896,4.139,6.327,7.278,7.965c-1.198,5.789-1.537,12.58-1.552,18.277c-0.022,7.784-1.749,15.515-1.985,23.294    c-0.456,15.005-3.333,29.848-4.145,44.824c-0.378,6.971-0.788,14.047-1.469,20.97c-0.302,3.077-0.516,6.17-0.76,9.251    C196.458,389.082,193.296,389.413,190.623,389.267z M141.854,398.823c-5.463,0.174-10.924,0.289-16.361,0.141    c0.374-1.496,0.446-3.175,0.449-4.86c0.297,0.061,0.6,0.104,0.904,0.148c1.764,0.368,3.608,0.376,5.425,0.299    c1.284,0.017,2.551,0.04,3.76,0.162c1.45,0.146,3.839,0.546,5.796,0.284C141.711,396.279,141.657,397.577,141.854,398.823z     M140.413,390.339c-1.892-0.73-4.58-0.446-6.229-0.3c-1.31,0.115-2.641,0.229-3.973,0.292c-0.579-0.002-1.158,0.008-1.731,0.04    c-0.333,0-0.668,0.006-1-0.006c-0.641-0.023-1.12-0.102-1.594-0.079c-0.253-13.207-1.242-26.29-1.287-39.469    c-0.047-13.76-0.559-27.635-1.662-41.348c-0.552-6.859-1.713-13.657-2.322-20.5c-0.43-4.829-0.003-10.482-1.521-15.246    c2.255-1.108,4.156-3.046,5.586-6.35c0.194-0.448,0.265-0.854,0.27-1.249c0.422-0.079,0.834-0.179,1.222-0.333    c3.443-1.372,4.906-5.713,4.042-9.229c1.303,0.025,2.607,0.051,3.906,0.078c2.32,0.047,4.65,0.178,6.982,0.322    c-0.549,2.516-0.04,5.264,1.961,6.726c0.502,0.367,1.072,0.617,1.674,0.812c0.047,0.199,0.111,0.396,0.218,0.568    c1.8,2.896,4.139,6.327,7.278,7.965c-1.198,5.789-1.537,12.58-1.552,18.277c-0.022,7.784-1.749,15.515-1.985,23.294    c-0.456,15.005-3.333,29.848-4.143,44.824c-0.378,6.971-0.788,14.047-1.469,20.97c-0.329,3.337-0.549,6.694-0.823,10.033    C141.672,390.324,141.047,390.313,140.413,390.339z M84.895,398.224c-3.308,0.11-6.611,0.253-9.906,0.437    c-2.111,0.117-4.224,0.172-6.342,0.188c0.403-1.691,0.441-3.605,0.423-5.493c-0.136-14.252-1.296-28.339-1.344-42.538    c-0.047-13.76-0.56-27.635-1.662-41.348c-0.552-6.859-1.713-13.657-2.322-20.5c-0.43-4.829-0.003-10.482-1.521-15.246    c2.255-1.108,4.156-3.046,5.586-6.35c0.194-0.448,0.265-0.854,0.27-1.249c0.422-0.079,0.834-0.18,1.222-0.333    c3.429-1.366,4.895-5.679,4.053-9.188c3.659,0.141,7.287,0.193,10.935,0.133c-0.633,2.576-0.157,5.445,1.903,6.951    c0.502,0.367,1.072,0.617,1.674,0.812c0.047,0.199,0.111,0.396,0.218,0.568c1.8,2.896,4.139,6.327,7.278,7.965    c-1.198,5.789-1.537,12.58-1.552,18.277c-0.022,7.784-1.749,15.515-1.985,23.294c-0.456,15.005-3.333,29.848-4.145,44.824    c-0.378,6.971-0.788,14.047-1.469,20.97c-0.384,3.906-0.608,7.847-0.959,11.746C85.076,394.084,84.701,396.206,84.895,398.224z     M116.183,261.121c-4.519,0.005-9.043-0.098-13.543-0.401c-1.815-0.122-3.617-0.212-5.431-0.306    c-0.909-0.048-5.646,0.069-6.36-0.363c-2.859-1.726-2.074-2.82-0.431-3.484c10.805-0.36,21.688-0.31,32.515-0.135    c2.411,0.951,4.561,2.733,0.733,4.755C122.249,261.934,117.853,261.119,116.183,261.121z M119.599,266.143    c-0.201,0.299-0.417,0.602-0.669,0.902c-2.204,2.618-4.617,2.88-7.67,2.69c-3.103-0.194-6.401-0.039-9.47-0.591    c-2.803-0.504-5.046-1.517-7.16-3.406c-0.208-0.186-0.409-0.407-0.608-0.638c0.347,0.012,0.687,0.028,1.011,0.055    c3.345,0.28,6.757,0.439,10.111,0.569c4.382,0.171,8.71,0.358,13.11,0.368C118.686,266.094,119.139,266.116,119.599,266.143z     M90.643,390.462c1.055-13.41,1.329-27.057,2.967-40.399c1.582-12.889,2.263-25.878,3.289-38.803    c0.553-6.97,1.066-13.965,1.367-20.942c0.235-5.429,1.216-10.641,1.322-16.014c2.043,0.304,4.192,0.351,6.089,0.477    c3.303,0.22,6.407,0.462,9.191,0.12c-0.386,4.301,0.182,8.861,0.577,13.011c0.577,6.04,1.319,12.016,1.906,18.055    c1.232,12.697,1.052,25.359,1.747,38.072c0.318,5.818,0.553,11.821,0.471,17.632c-0.082,5.786,0.823,11.578,0.7,17.355    c-0.073,3.457-0.061,6.918-0.091,10.375c-0.03,3.391,1.553,7.76-2.126,9.202c-9.006-0.552-18.065-0.703-27.109-0.538    C89.644,396.244,90.481,392.525,90.643,390.462z M173.054,261.121c-4.519,0.005-9.043-0.098-13.543-0.401    c-1.815-0.122-3.617-0.212-5.431-0.306c-0.908-0.048-5.646,0.069-6.36-0.363c-2.019-1.219-2.217-2.12-1.585-2.781    c2.715,0.154,5.428,0.265,8.125,0.223c6.995-0.111,14.026-0.715,21.007-0.133c2.155,0.18,4.297,0.175,6.437,0.099    c1.256,0.982,1.547,2.294-1.166,3.727C179.121,261.934,174.724,261.119,173.054,261.121z M176.471,266.143    c-0.201,0.299-0.417,0.602-0.669,0.902c-2.204,2.618-4.617,2.88-7.67,2.69c-3.103-0.194-6.401-0.039-9.47-0.591    c-2.803-0.504-5.046-1.517-7.16-3.406c-0.208-0.186-0.409-0.407-0.608-0.638c0.347,0.012,0.687,0.028,1.011,0.055    c3.345,0.28,6.757,0.439,10.111,0.569c4.382,0.171,8.71,0.358,13.11,0.368C175.557,266.094,176.01,266.116,176.471,266.143z     M147.515,390.462c1.055-13.41,1.329-27.057,2.967-40.399c1.582-12.889,2.263-25.878,3.289-38.803    c0.553-6.97,1.066-13.965,1.367-20.942c0.235-5.429,1.216-10.641,1.322-16.014c2.043,0.304,4.192,0.351,6.089,0.477    c3.303,0.22,6.407,0.462,9.191,0.12c-0.386,4.301,0.182,8.861,0.577,13.011c0.576,6.04,1.319,12.016,1.906,18.055    c1.232,12.697,1.052,25.359,1.747,38.072c0.318,5.818,0.553,11.821,0.471,17.632c-0.082,5.786,0.823,11.578,0.7,17.355    c-0.073,3.457-0.061,6.918-0.091,10.375c-0.029,3.257,1.436,7.419-1.709,9.022c-3.084-0.042-6.17-0.082-9.246-0.127    c-5.901-0.086-11.83,0.102-17.766,0.309C146.312,397.103,147.335,392.755,147.515,390.462z M229.926,261.121    c-4.519,0.005-9.043-0.098-13.543-0.401c-1.815-0.122-3.617-0.212-5.431-0.306c-0.908-0.048-5.646,0.069-6.36-0.363    c-3.436-2.074-1.612-3.234,0.64-3.837c1.479-0.157,2.962-0.341,4.446-0.555c2.129,0.018,4.22,0.384,6.337,0.394    c1.709,0.009,3.478-0.064,5.253-0.163c4.19-0.009,8.403-0.479,12.584-0.18c2.231,0.16,9.051,2.573,3.557,5.474    C235.992,261.934,231.596,261.119,229.926,261.121z M233.342,266.143c-0.201,0.299-0.417,0.602-0.669,0.902    c-2.204,2.618-4.617,2.88-7.67,2.69c-3.103-0.194-6.401-0.039-9.47-0.591c-2.803-0.504-5.046-1.517-7.16-3.406    c-0.208-0.186-0.409-0.407-0.608-0.638c0.348,0.012,0.687,0.028,1.011,0.055c3.345,0.28,6.757,0.439,10.111,0.569    c4.382,0.171,8.71,0.358,13.11,0.368C232.429,266.094,232.882,266.116,233.342,266.143z M204.386,390.462    c1.055-13.41,1.329-27.057,2.967-40.399c1.582-12.889,2.263-25.878,3.289-38.803c0.553-6.97,1.066-13.965,1.367-20.942    c0.234-5.429,1.216-10.641,1.322-16.014c2.043,0.304,4.192,0.351,6.089,0.477c3.303,0.22,6.407,0.462,9.191,0.12    c-0.386,4.301,0.182,8.861,0.577,13.011c0.577,6.04,1.319,12.016,1.906,18.055c1.231,12.697,1.052,25.359,1.747,38.072    c0.318,5.818,0.553,11.821,0.471,17.632c-0.082,5.786,0.823,11.578,0.7,17.355c-0.073,3.457-0.061,6.918-0.091,10.375    c-0.031,3.447,1.618,7.91-2.299,9.277c-1.552,0.542-5.173,0.027-6.996,0.23c-2.495,0.278-4.994,0.481-7.506,0.464    c-1.852-0.012-3.59-0.168-5.431-0.273c-0.732-0.041-1.781,0.04-2.835,0.079c-1.086-0.172-2.196-0.293-3.318-0.376    C203.084,397.542,204.197,392.871,204.386,390.462z M301.027,260.413c-1.815,0.094-3.617,0.184-5.431,0.306    c-4.501,0.304-9.024,0.407-13.543,0.401c-1.67-0.002-6.066,0.813-7.484,0.064c-5.494-2.902,1.326-5.315,3.557-5.474    c4.181-0.299,8.394,0.171,12.584,0.18c1.775,0.1,3.543,0.172,5.252,0.163c2.117-0.01,4.208-0.378,6.337-0.394    c1.483,0.214,2.966,0.399,4.446,0.555c2.252,0.603,4.075,1.763,0.64,3.837C306.673,260.482,301.935,260.367,301.027,260.413z     M304.213,265.102c-0.199,0.232-0.4,0.452-0.608,0.638c-2.113,1.889-4.357,2.902-7.16,3.406c-3.069,0.552-6.367,0.396-9.47,0.591    c-3.053,0.192-5.466-0.072-7.67-2.69c-0.253-0.3-0.468-0.603-0.669-0.902c0.46-0.027,0.913-0.049,1.345-0.05    c4.399-0.01,8.729-0.198,13.11-0.368c3.354-0.131,6.766-0.289,10.111-0.569C303.526,265.129,303.867,265.113,304.213,265.102z     M278.057,389.402c-0.03-3.458-0.018-6.919-0.091-10.375c-0.123-5.776,0.782-11.568,0.7-17.355    c-0.082-5.811,0.153-11.816,0.471-17.632c0.695-12.713,0.515-25.375,1.747-38.072c0.586-6.039,1.328-12.015,1.906-18.055    c0.397-4.15,0.963-8.71,0.577-13.011c2.784,0.342,5.888,0.101,9.191-0.12c1.897-0.126,4.046-0.174,6.089-0.477    c0.105,5.373,1.088,10.586,1.322,16.014c0.301,6.979,0.814,13.973,1.367,20.942c1.026,12.925,1.707,25.915,3.289,38.803    c1.637,13.342,1.912,26.989,2.967,40.399c0.189,2.409,1.302,7.078-1.15,8.342c-1.122,0.083-2.232,0.203-3.318,0.376    c-1.054-0.039-2.103-0.12-2.835-0.079c-1.841,0.104-3.578,0.259-5.431,0.273c-2.513,0.017-5.012-0.186-7.506-0.464    c-1.825-0.204-5.445,0.311-6.996-0.23C276.44,397.312,278.088,392.848,278.057,389.402z M357.898,260.413    c-1.815,0.094-3.617,0.184-5.431,0.306c-4.501,0.304-9.024,0.407-13.543,0.401c-1.67-0.002-6.066,0.813-7.484,0.064    c-2.712-1.432-2.422-2.745-1.165-3.727c2.139,0.076,4.282,0.081,6.437-0.099c6.982-0.583,14.011,0.022,21.007,0.133    c2.698,0.042,5.41-0.069,8.125-0.223c0.631,0.66,0.433,1.562-1.585,2.781C363.545,260.482,358.807,260.367,357.898,260.413z     M361.084,265.102c-0.199,0.232-0.4,0.452-0.608,0.638c-2.113,1.889-4.357,2.902-7.16,3.406c-3.069,0.552-6.367,0.396-9.47,0.591    c-3.053,0.192-5.466-0.072-7.67-2.69c-0.253-0.3-0.468-0.603-0.669-0.902c0.46-0.027,0.913-0.049,1.345-0.05    c4.399-0.01,8.729-0.198,13.11-0.368c3.354-0.131,6.766-0.289,10.111-0.569C360.398,265.129,360.738,265.113,361.084,265.102z     M334.837,379.026c-0.123-5.776,0.782-11.568,0.7-17.355c-0.082-5.811,0.153-11.816,0.471-17.632    c0.695-12.713,0.515-25.375,1.747-38.072c0.586-6.039,1.328-12.015,1.906-18.055c0.397-4.15,0.963-8.71,0.578-13.011    c2.784,0.342,5.888,0.101,9.191-0.12c1.897-0.126,4.046-0.174,6.089-0.477c0.105,5.373,1.088,10.586,1.322,16.014    c0.301,6.979,0.814,13.973,1.367,20.942c1.026,12.925,1.707,25.915,3.289,38.803c1.637,13.342,1.912,26.989,2.967,40.399    c0.181,2.292,1.203,6.641-0.814,8.143c-5.935-0.208-11.865-0.396-17.766-0.309c-3.077,0.045-6.162,0.085-9.246,0.127    c-3.144-1.602-1.681-5.763-1.709-9.022C334.898,385.944,334.912,382.483,334.837,379.026z M414.77,260.413    c-1.815,0.094-3.617,0.184-5.431,0.306c-4.501,0.304-9.024,0.407-13.543,0.401c-1.67-0.002-6.066,0.813-7.484,0.064    c-3.828-2.022-1.677-3.805,0.733-4.755c10.827-0.175,21.71-0.225,32.515,0.135c1.643,0.666,2.43,1.758-0.431,3.484    C420.416,260.482,415.678,260.367,414.77,260.413z M417.956,265.102c-0.199,0.232-0.4,0.452-0.608,0.638    c-2.113,1.889-4.357,2.902-7.16,3.406c-3.069,0.552-6.367,0.396-9.47,0.591c-3.053,0.192-5.466-0.072-7.67-2.69    c-0.253-0.3-0.468-0.603-0.669-0.902c0.46-0.027,0.913-0.049,1.345-0.05c4.399-0.01,8.729-0.198,13.111-0.368    c3.354-0.131,6.766-0.289,10.111-0.569C417.27,265.129,417.609,265.113,417.956,265.102z M391.71,379.026    c-0.123-5.776,0.782-11.568,0.7-17.355c-0.082-5.811,0.153-11.816,0.471-17.632c0.695-12.713,0.515-25.375,1.747-38.072    c0.586-6.039,1.328-12.015,1.906-18.055c0.397-4.15,0.963-8.71,0.578-13.011c2.784,0.342,5.888,0.101,9.191-0.12    c1.897-0.126,4.046-0.174,6.089-0.477c0.105,5.373,1.088,10.586,1.322,16.014c0.301,6.979,0.814,13.973,1.367,20.942    c1.026,12.925,1.707,25.915,3.289,38.803c1.637,13.342,1.912,26.989,2.967,40.399c0.162,2.063,0.999,5.782-0.3,7.603    c-9.044-0.166-18.104-0.013-27.109,0.538c-3.679-1.442-2.096-5.811-2.126-9.202C391.769,385.944,391.783,382.483,391.71,379.026z     M474.219,265.739c-2.113,1.889-4.357,2.902-7.16,3.406c-3.069,0.552-6.367,0.396-9.47,0.591c-3.053,0.192-5.466-0.072-7.67-2.69    c-0.253-0.3-0.468-0.603-0.669-0.902c0.46-0.027,0.913-0.049,1.345-0.05c4.399-0.01,8.729-0.198,13.11-0.368    c3.354-0.131,6.766-0.289,10.111-0.569c0.325-0.027,0.664-0.043,1.011-0.055C474.628,265.333,474.428,265.553,474.219,265.739z     M478.002,260.051c-0.715,0.431-5.452,0.316-6.36,0.363c-1.815,0.094-3.617,0.184-5.431,0.306    c-4.501,0.304-9.024,0.407-13.543,0.401c-1.67-0.002-6.066,0.813-7.484,0.064c-3.913-2.067-1.579-3.885,0.895-4.818    c2.914-0.025,6.117-0.075,8.951-0.682c2.101,0.081,4.202,0.201,6.297,0.205c1.775,0.1,3.543,0.172,5.252,0.163    c2.42-0.012,4.8-0.52,7.25-0.4C475.346,255.728,483.562,256.694,478.002,260.051z M486.384,195.768    c-0.636,0.323-4.511-1.393-5.334-1.64c-0.101-0.03-0.195-0.054-0.294-0.083c-4.849-2.456-9.849-4.562-14.92-6.507    c0.007-0.035,0.012-0.069,0.019-0.104c0.09-0.473,0.33-0.893,0.424-1.368c0.035-0.179,0.039-0.357,0.049-0.535    c2.108,0.859,4.219,1.697,6.33,2.497c4.254,1.612,8.271,3.509,12.456,5.231c0.636,0.263,1.298,0.521,1.975,0.763    C486.82,194.765,486.537,195.69,486.384,195.768z M64.827,185.68c15.371-3.987,29.553-11.723,44.762-16.324    c7.244-2.191,14.508-4.376,21.664-6.83c7.418-2.544,14.857-4.578,22.312-6.969c15.067-4.833,30.255-9.188,45.388-13.718    c15.107-4.522,30.634-7.976,45.585-12.896c2.212-0.381,4.426-0.774,6.683-1.148c3.654-0.605,6.465-0.266,10.003,0.622    c2.488,0.624,4.886,1.358,7.431,0.926c14.578,4.711,29.674,8.094,44.372,12.495c15.133,4.53,30.321,8.885,45.388,13.718    c7.455,2.391,14.893,4.425,22.312,6.969c7.156,2.455,14.419,4.639,21.664,6.83c15.21,4.601,29.391,12.336,44.763,16.324    c7.498,1.945,14.904,5.436,22.195,8.109c0.497,0.182,0.985,0.369,1.478,0.553c-7.555-0.676-14.939-1.181-22.584-1.436    c-17.091-0.569-34.199-1.395-51.307-2.087c-17.496-0.708-35.025-0.961-52.543-1.343c-8.905-0.195-17.82-0.479-26.722-0.615    c-2.802-0.043-5.629-0.101-8.458-0.09c-18.046-0.751-36.015-1.819-54.158-1.603c-9.05,0.107-18.236,0.571-27.253,1.229    c-5.718,0.418-11.458,0.031-17.189,0.454c-0.682,0.051-1.36,0.075-2.035,0.088c-4.751-0.268-9.544-0.15-14.266-0.078    c-8.902,0.136-17.817,0.42-26.722,0.615c-17.518,0.382-35.046,0.635-52.541,1.343c-17.108,0.692-34.216,1.518-51.307,2.087    c-7.647,0.255-15.03,0.76-22.584,1.436c0.493-0.184,0.98-0.37,1.478-0.553C49.923,191.116,57.329,187.625,64.827,185.68z     M48.225,184.462c4.489-1.871,8.955-3.828,13.346-5.815c2.255-1.02,4.522-2.036,6.798-3.047c0.506,1.061,0.485,2.546,0.819,3.753    c-0.169,0.06-0.337,0.124-0.505,0.183c-6.503,2.299-13.059,4.473-19.521,6.861c-0.071-0.232-0.157-0.458-0.27-0.679    C48.655,185.256,48.284,184.965,48.225,184.462z M70.86,174.5c6.821-3.007,13.726-5.939,20.674-8.708    c0.029,0.205,0.065,0.41,0.092,0.605c0.104,0.768,0.186,1.519,0.443,2.253c0.206,0.587,0.419,1.206,0.709,1.763    c-6.604,2.544-13.186,5.141-19.842,7.582c-0.158-0.528-0.365-1.045-0.573-1.479C71.983,175.726,71.46,175.086,70.86,174.5z     M94.037,164.799c5.04-1.974,10.098-3.858,15.166-5.603c3.037-1.046,6.071-2.086,9.107-3.128c0.085,0.56,0.138,1.133,0.246,1.647    c0.227,1.09,0.687,2.009,1.075,3.043c0.016,0.042,0.034,0.088,0.052,0.132c-1.678,0.553-3.358,1.1-5.04,1.641    c-6.073,1.954-12.042,4.139-17.978,6.396c-0.174-0.637-0.485-1.246-0.853-1.857c-0.347-0.576-0.667-1.225-1.139-1.714    C94.476,165.154,94.256,164.978,94.037,164.799z M121.546,154.957c6.422-2.202,12.841-4.405,19.257-6.622    c0.13,1.332,0.5,2.639,0.696,3.966c0.039,0.261,0.095,0.538,0.162,0.819c-1.916,0.602-3.812,1.247-5.676,1.975    c-4.012,1.568-8.07,3.012-12.148,4.399c-0.104-0.25-0.209-0.487-0.307-0.691C122.931,157.557,122.353,156.152,121.546,154.957z     M143.92,147.247c4.733-1.641,9.465-3.282,14.193-4.953c2.238-0.791,4.478-1.559,6.719-2.314c0.279,1.637,0.877,3.259,1.245,4.853    c0.052,0.224,0.119,0.474,0.197,0.734c-2.585,0.823-5.165,1.66-7.727,2.534c-3.999,1.364-8.103,2.458-12.178,3.621    c-0.142-0.542-0.318-1.058-0.484-1.486c-0.286-0.738-0.595-1.411-1.107-2.021C144.507,147.887,144.194,147.579,143.92,147.247z     M168.202,138.863c7.562-2.489,15.157-4.792,22.79-7.016c0.014,0.022,0.022,0.044,0.038,0.065    c1.174,1.648,0.823,4.032,1.388,5.924c-7.271,2.057-14.551,4.132-21.77,6.357c0-0.001,0-0.002-0.001-0.002    c-0.187-1.005-0.579-1.942-0.985-2.876C169.322,140.532,168.612,139.7,168.202,138.863z M194.75,130.754    c3.763-1.082,7.536-2.153,11.326-3.211c3.105-0.866,6.217-1.768,9.333-2.668c-0.019,1.372,0.041,2.731,0.404,4.093    c0.18,0.674,0.296,1.32,0.493,1.916c-3.696,1.121-7.362,2.248-10.98,3.287c-2.895,0.831-5.799,1.653-8.706,2.475    c-0.05-0.651-0.152-1.291-0.232-1.842C196.161,133.232,195.624,131.945,194.75,130.754z M239.566,124.841    c-6.44,1.18-12.88,2.944-19.25,4.837c-0.093-1.976-0.751-3.933-0.965-5.932c3.864-1.101,7.735-2.175,11.618-3.136    c2.7-0.669,5.411-1.403,8.123-2.115c0.023,0.358,0.08,0.716,0.122,1.112c0.088,0.838-0.08,1.676-0.156,2.512    C238.97,123.101,239.143,124.026,239.566,124.841z M269.62,124.374c-0.823-0.127-1.647-0.253-2.471-0.359    c-1.933-0.761-4.217-1.044-6.042-1.495c-3.597-0.886-7.391-0.612-11.016,0.066c-1.814,0.339-3.935,0.741-6.061,1.313    c-0.209-0.396-0.492-0.738-0.648-1.138c-0.212-0.538-0.074-1.45-0.126-2.034c-0.104-1.178-0.451-2.136-1.066-3.025    c0.526-0.132,1.052-0.268,1.578-0.394c1.517-0.064,3.177-0.489,4.727-0.892c0.591-0.096,1.168-0.219,1.696-0.423    c0.544-0.125,1.061-0.228,1.529-0.281c3.273-0.373,6.492,0.073,9.741,0.12c1.417,0.67,3.243,0.664,4.799,1.01    c1.605,0.358,3.213,0.76,4.822,1.173c0.001,0.111,0.007,0.219,0.033,0.329C270.339,120.257,269.411,122.368,269.62,124.374z     M274.179,118.827c2.28,0.606,4.559,1.221,6.829,1.784c3.883,0.962,7.755,2.035,11.618,3.136    c-0.214,1.999-0.872,3.955-0.965,5.932c-5.884-1.749-11.832-3.385-17.782-4.553c0.074-0.505,0.071-1.029,0.069-1.565    c-0.005-1.038,0.114-1.966,0.237-2.99C274.254,120.006,274.269,119.393,274.179,118.827z M295.674,130.884    c0.196-0.596,0.313-1.242,0.493-1.916c0.363-1.362,0.423-2.721,0.404-4.093c3.115,0.9,6.227,1.8,9.333,2.668    c3.789,1.057,7.561,2.128,11.326,3.211c-0.875,1.192-1.411,2.478-1.639,4.05c-0.08,0.552-0.182,1.19-0.232,1.842    c-2.907-0.822-5.811-1.644-8.706-2.475C303.034,133.132,299.37,132.005,295.674,130.884z M319.561,137.836    c0.565-1.893,0.214-4.275,1.388-5.924c0.016-0.022,0.023-0.043,0.038-0.065c7.633,2.226,15.228,4.528,22.79,7.016    c-0.41,0.838-1.12,1.67-1.46,2.451c-0.406,0.934-0.799,1.871-0.985,2.876c0,0.001,0,0.002-0.001,0.002    C334.112,141.968,326.832,139.893,319.561,137.836z M345.702,145.567c0.079-0.26,0.145-0.511,0.197-0.734    c0.368-1.593,0.966-3.214,1.245-4.853c2.241,0.754,4.482,1.522,6.719,2.314c4.728,1.672,9.46,3.313,14.193,4.953    c-0.274,0.332-0.586,0.639-0.861,0.966c-0.511,0.609-0.82,1.283-1.107,2.021c-0.166,0.429-0.342,0.944-0.484,1.486    c-4.075-1.162-8.178-2.257-12.178-3.621C350.867,147.227,348.288,146.39,345.702,145.567z M370.317,153.119    c0.066-0.28,0.123-0.557,0.161-0.819c0.196-1.327,0.566-2.635,0.696-3.966c6.416,2.217,12.835,4.419,19.257,6.622    c-0.807,1.195-1.385,2.601-1.983,3.847c-0.097,0.204-0.203,0.441-0.307,0.691c-4.078-1.387-8.136-2.831-12.148-4.399    C374.131,154.366,372.233,153.72,370.317,153.119z M392.297,160.891c0.017-0.044,0.035-0.09,0.052-0.132    c0.388-1.035,0.849-1.953,1.075-3.043c0.107-0.514,0.161-1.088,0.246-1.647c3.034,1.041,6.07,2.082,9.106,3.128    c5.068,1.746,10.127,3.628,15.166,5.603c-0.219,0.178-0.44,0.356-0.636,0.558c-0.472,0.489-0.792,1.138-1.139,1.714    c-0.368,0.61-0.679,1.22-0.853,1.857c-5.936-2.257-11.904-4.441-17.978-6.396C395.655,161.991,393.975,161.443,392.297,160.891z     M419.202,170.412c0.29-0.556,0.503-1.175,0.709-1.763c0.258-0.733,0.339-1.486,0.443-2.253c0.027-0.194,0.063-0.399,0.092-0.605    c6.949,2.769,13.853,5.701,20.674,8.708c-0.6,0.586-1.123,1.225-1.502,2.015c-0.208,0.434-0.414,0.951-0.573,1.479    C432.388,175.552,425.806,172.957,419.202,170.412z M442.791,179.354c0.333-1.208,0.311-2.692,0.819-3.754    c2.276,1.012,4.545,2.026,6.798,3.047c4.391,1.988,8.856,3.944,13.346,5.815c-0.059,0.503-0.43,0.794-0.666,1.256    c-0.113,0.222-0.199,0.448-0.27,0.679c-6.462-2.389-13.018-4.562-19.521-6.861C443.128,179.477,442.96,179.413,442.791,179.354z     M479.872,167.919c0.607-0.792,1.616-0.553,1.849-1.964c0.284-1.722-1.143-3.471-1.157-5.143    c-0.027-3.233,3.232-1.329,5.271,0.084c0.43,1.54,1.085,3.003,2.056,4.247c1.003,1.282,2.587-0.185,2.405-1.4    c-0.555-3.724-1.172-7.745-0.793-11.52c0.063-0.338,0.091-0.679,0.083-1.024c-0.199-2.813,3.645-0.152,4.062,1.281    c0.627,2.157-0.811,4.371-0.434,6.585c0.173,1.018,1.589,1.002,2.064,0.266c1.086-1.682,1.532-3.633,2.574-5.306    c0.637-1.024,1.753-2.341,2.845-2.888c1.244-0.623,5.022-1.084,5.744,0.588c0.399,0.923-6.133,8.913-6.948,10.448    c-2.473,4.663-4.341,13.157-1.602,18.518c-0.897-0.362-1.778-0.752-2.658-1.144c0.017-1.015-0.388-1.902-0.635-3.007    c-0.34-1.523-0.373-3.166-0.47-4.724c-0.096-1.574-0.686-4.146-0.028-5.733c0.102-0.245-0.32-0.419-0.427-0.18    c-0.85,1.89-1.801,3.881-2.181,5.922c-0.3,1.612-0.434,4.045,0.123,6.06c-0.748-0.354-1.498-0.709-2.247-1.064    c-0.135-0.606-0.358-1.219-0.437-1.612c-0.243-1.212-0.259-2.447-0.423-3.669c-0.113-0.843-0.062-1.763-0.524-2.492    c-0.112-0.176-0.399-0.251-0.551-0.071c-1.385,1.646-1.462,4.215-1.005,6.491c-0.533-0.242-1.061-0.491-1.601-0.725    c-1.016-0.44-2.036-0.862-3.053-1.294C481.222,171.756,478.937,169.139,479.872,167.919z M241.165,79.302    c-3.392-2.139-3.17-7.801,1.508-6.35c3.952,1.225,3.755,5.002,6.38,7.311c1.139,1,3.11,0.058,2.648-1.541    c-0.517-1.787-1.141-3.275-1.982-4.561c0.027-0.153,0.035-0.311,0.007-0.479c-0.268-1.532-0.398-3.317-0.557-4.876    c-0.253-2.465,0.741-1.293,2.423-2.212c1.056-0.577,1.465-1.445,1.75-2.568c0.607-2.386,0.648-4.003,2.185-5.351    c1.178-0.131,2.553-0.316,3.348,0.434c1.506,1.421-0.107,4.098,1.66,5.69c0.629,0.567,1.335,0.595,2.017,0.999    c1.966,1.164,1.894,1.988,1.43,4.28c-0.157,0.777-0.131,3.285-0.356,4.381c-0.388,0.682-0.739,1.385-0.98,2.143    c-0.438,1.369,1.319,2.879,2.565,1.972c2.086-1.519,3.043-4.068,5.737-4.829c5.083-1.436,2.584,5.021,0.05,6.698    c-2.8,1.852-5.133,3.786-6.171,6.82c-1.447-0.235-3.001-0.279-4.562-0.226c0.1-0.12,0.203-0.239,0.294-0.361    c0.688-0.924,0.92-2.061,1.744-2.883c0.853-0.851-0.274-2.427-1.322-1.713c-0.943,0.643-1.691,1.453-2.528,2.188    c-0.147-2.237-0.32-4.478-0.581-6.69c-0.178-1.513-0.007-3.044-0.288-4.543c-0.274-1.461-0.821-2.791-1.029-4.294    c-0.078-0.557-1.051-0.559-1.127,0c-0.401,2.975-0.771,6.006-0.641,9.017c0.102,2.358-0.044,4.735,0.025,7.094    c-0.105-0.062-0.212-0.125-0.314-0.183c-1.021-0.574-2.006-1.468-3.184-1.675c-0.573-0.101-1.19,0.358-0.993,0.993    c0.373,1.202,0.816,2.121,1.713,3.044c0.235,0.243,0.502,0.461,0.764,0.682c-0.115,0.012-0.238,0.027-0.35,0.038    c-1.898,0.186-3.551,0.274-5.034,0.496c0.863-2.456,0.242-5.332-2.311-7.147C243.911,80.253,242.386,80.072,241.165,79.302z     M240.904,98.691c0.966-1.552,1.789-3.608,3.029-4.931c2.054-2.193,4.614-2.133,7.346-2.298c4.364-0.264,9.657-0.87,13.845,0.623    c3.821,1.362,5.115,5.166,6.633,8.717c-0.398-0.081-0.795-0.16-1.193-0.245c-5.836-2.873-12.06-5.184-18.657-3.865    c-4.273,0.854-8.287,2.874-12.432,4.263c-0.13,0.026-0.256,0.049-0.386,0.074C239.735,100.313,240.356,99.57,240.904,98.691z     M5.54,151.724c0.721-1.672,4.5-1.211,5.744-0.588c1.092,0.546,2.208,1.863,2.845,2.888c1.04,1.673,1.488,3.624,2.574,5.306    c0.475,0.737,1.89,0.753,2.064-0.266c0.377-2.215-1.061-4.428-0.434-6.585c0.417-1.431,4.26-4.094,4.061-1.281    c-0.008,0.345,0.02,0.686,0.083,1.024c0.379,3.775-0.239,7.796-0.793,11.52c-0.182,1.216,1.403,2.682,2.405,1.4    c0.972-1.243,1.626-2.707,2.056-4.247c2.04-1.414,5.298-3.317,5.271-0.084c-0.013,1.672-1.441,3.422-1.157,5.143    c0.233,1.413,1.242,1.172,1.849,1.964c0.935,1.22-1.351,3.837-1.902,5.531c-1.017,0.433-2.037,0.855-3.053,1.294    c-0.54,0.234-1.067,0.483-1.601,0.725c0.458-2.277,0.38-4.846-1.005-6.491c-0.152-0.181-0.44-0.105-0.551,0.071    c-0.462,0.729-0.411,1.648-0.524,2.492c-0.164,1.222-0.181,2.457-0.423,3.669c-0.079,0.393-0.301,1.006-0.436,1.612    c-0.749,0.355-1.499,0.709-2.247,1.064c0.558-2.014,0.424-4.447,0.123-6.06c-0.381-2.041-1.333-4.032-2.181-5.922    c-0.107-0.238-0.528-0.065-0.427,0.18c0.658,1.588,0.069,4.159-0.028,5.733c-0.095,1.558-0.128,3.2-0.47,4.724    c-0.247,1.105-0.65,1.992-0.635,3.007c-0.88,0.392-1.762,0.782-2.658,1.144c2.739-5.361,0.871-13.855-1.602-18.518    C11.672,160.638,5.141,152.648,5.54,151.724z M20.75,191.52c-3.682,0.183-6.15,3.152-9.435-1.09    c-0.397-0.513-1.329-2.775-1.515-3.489c1.538-1.328,4.923-1.842,6.695-2.509c9.042-3.4,17.848-7.619,26.799-11.289    c9.294-3.812,19.089-6.393,28.301-10.41c18.948-8.263,38.995-14.144,58.307-21.481c19.202-7.295,38.943-13.077,58.366-19.797    c11.022-3.813,22.358-6.522,33.345-10.274c5.165-1.764,10.32-2.871,15.616-4.111c3.792-0.889,8.44-1.436,11.981-3.422    c0.366-0.084,0.731-0.171,1.1-0.25c7.09-1.528,13.72,2.219,20.567,2.861c1.336,0.273,2.651,0.525,3.873,0.812    c5.295,1.241,10.451,2.348,15.616,4.111c10.987,3.752,22.323,6.461,33.345,10.274c19.422,6.719,39.164,12.501,58.366,19.797    c19.312,7.336,39.359,13.218,58.307,21.481c9.211,4.017,19.007,6.597,28.301,10.41c8.951,3.672,17.758,7.889,26.799,11.289    c1.772,0.666,5.157,1.181,6.695,2.509c-0.185,0.715-1.118,2.977-1.514,3.489c-3.284,4.242-5.753,1.273-9.435,1.09    c-14.827-7.457-30.339-13.434-45.704-19.89c-15.304-6.431-30.586-12.968-46.291-18.463c-15.849-5.547-31.935-10.464-47.569-16.632    c-15.11-5.96-31.204-10.179-46.943-14.153c-6.99-1.765-13.932-3.799-20.896-5.749c-4.766-1.335-9.62-2.358-14.388-3.731    c-0.637-0.184-3.151-0.573-4.856-0.815c-5.429-3.529-13.414-2.818-19.304,0.316c-1.209,0.189-2.342,0.384-2.74,0.5    c-4.768,1.374-9.622,2.396-14.388,3.731c-6.963,1.95-13.905,3.984-20.896,5.749c-15.74,3.974-31.833,8.193-46.943,14.153    c-15.634,6.168-31.72,11.084-47.569,16.632c-15.704,5.495-30.986,12.032-46.291,18.463    C51.089,178.086,35.577,184.063,20.75,191.52z M25.595,195.768c-0.153-0.078-0.436-1.003-0.706-1.745    c0.676-0.243,1.338-0.501,1.975-0.763c4.185-1.724,8.201-3.62,12.456-5.231c2.112-0.8,4.222-1.64,6.33-2.497    c0.01,0.178,0.013,0.357,0.049,0.535c0.094,0.475,0.336,0.896,0.424,1.368c0.007,0.035,0.013,0.069,0.019,0.104    c-5.071,1.944-10.071,4.052-14.92,6.507c-0.099,0.029-0.193,0.053-0.294,0.083C30.106,194.375,26.231,196.091,25.595,195.768z     M30.223,204.393c-0.068-1.265-0.934-3.716,0.079-4.822c1.496-1.634,5.991-0.664,7.905-0.648    c4.036,0.033,8.085-0.484,12.121-0.613c10.132-0.322,20.254,0.41,30.393-0.179c8.845-0.514,17.75-0.694,26.622-0.906    c18.755-0.448,37.506-0.428,56.254-1.071c9.368-0.321,18.691-0.92,28.041-1.562c3.224-0.222,6.45-0.342,9.672-0.494    c3.368,0.71,7.012,0.915,10.253,0.807c5.638-0.188,11.396,0.43,17.014-0.085c9.312-0.852,19.08-1.27,28.447-1.204    c10.337,0.072,20.674,0.476,30.985,0.483c6.138,0.003,12.186,0.254,18.211-0.246c4.696,0.308,9.411,0.417,14.12,0.74    c9.351,0.643,18.673,1.241,28.041,1.562c18.749,0.644,37.499,0.623,56.254,1.071c8.871,0.212,17.777,0.391,26.622,0.906    c10.138,0.589,20.261-0.143,30.393,0.179c4.036,0.129,8.085,0.646,12.121,0.613c1.914-0.017,6.41-0.986,7.905,0.648    c1.013,1.107,0.146,3.556,0.079,4.822c-0.132,2.478-0.419,3.381-2.895,3.58c-4.517,0.362-9.157,0.073-13.667,0.095    c-9.601,0.045-19.028-0.822-28.586-1.606c-9.294-0.763-18.61-0.697-27.919-1.126c-18.696-0.862-37.481-1.445-56.182-1.831    c-15.402-0.319-31.065-1.164-46.554-0.658c-8.124-2.245-16.99-0.782-25.276-0.863c-9.158-0.09-18.245-0.384-27.406-0.383    c-9.426,0.001-18.76,0.434-28.16,0.471c-6.694,0.027-13.454-0.138-20.075,0.747c-15.167-0.44-30.492,0.374-45.567,0.686    c-18.702,0.387-37.486,0.971-56.182,1.831c-9.307,0.429-18.624,0.362-27.918,1.126c-9.558,0.784-18.985,1.653-28.586,1.606    c-4.51-0.021-9.15,0.267-13.667-0.095C30.642,207.774,30.354,206.871,30.223,204.393z M461.947,222.787    c-0.124-3.092-0.104-6.174-0.493-9.228c0.574,0,1.146,0.007,1.719-0.001c1.702-0.023,9.638-0.825,10.969,0.718    c1.204,1.396,0.081,7.701,0.187,9.62c0.162,2.911,0.278,6.03,0.826,8.961c-2.485-0.028-4.927,0.065-6.873-0.164    c-2.112-0.249-4.24-0.435-6.379-0.578C462.307,228.98,462.076,225.996,461.947,222.787z M443.336,224.104    c-0.086-3.676,0.007-7.414-0.578-11.053c2.297,0.072,4.594,0.14,6.892,0.218c3.105,0.106,6.209,0.227,9.315,0.275    c-0.353,2.783-0.362,5.588-0.466,8.412c-0.122,3.299-0.568,6.631-0.615,9.918c-0.003,0.009-0.006,0.017-0.01,0.025    c-4.847-0.208-9.716-0.247-14.524-0.306C443.759,229.157,443.393,226.536,443.336,224.104z M419.626,212.393    c6.795,0.18,13.588,0.365,20.382,0.572c-0.563,3.451-0.495,6.979-0.577,10.469c-0.061,2.574-0.523,5.46-0.445,8.088    c-6.185-0.111-12.375-0.309-18.566-0.527C420.321,224.88,421.062,218.437,419.626,212.393z M416.463,220.929    c-0.145,3.327-0.577,6.575-0.653,9.903c-5.65-0.209-11.298-0.421-16.946-0.62c0.366-3.621,0.275-7.211,0.164-10.856    c-0.071-2.325,0.153-5.097-0.329-7.517c0.32,0.009,0.641,0.02,0.961,0.029c5.677,0.153,11.351,0.299,17.025,0.448    C416.212,215.137,416.588,218.048,416.463,220.929z M394.554,230.069c-2.099-0.07-4.199-0.148-6.296-0.208    c-3.165-0.089-6.328-0.126-9.491-0.145c0.383-0.347,0.634-0.886,0.627-1.665c-0.037-5.182,0.475-11.684-1.014-16.882    c5.832,0.225,11.664,0.422,17.487,0.587c-0.828,2.383-0.685,5.113-0.772,7.6C394.972,222.845,394.458,226.565,394.554,230.069z     M358.742,219.858c-0.08-3.207,0.316-6.527-0.357-9.646c5.607,0.329,11.222,0.604,16.84,0.835    c-0.463,2.271-0.079,4.608-0.093,6.95c-0.019,3.217-0.382,6.425-0.278,9.643c-0.223,0.882,0.218,1.608,0.895,2.063    c-5.758-0.008-11.512,0.058-17.263,0.107C358.968,226.513,358.824,223.195,358.742,219.858z M338.682,221.345    c-0.032-4.022-0.041-8.295-0.552-12.332c3.625,0.157,7.248,0.329,10.861,0.591c2.132,0.155,4.265,0.298,6.4,0.432    c-0.557,3.198-0.483,6.643-0.518,9.823c-0.034,3.093-0.305,6.119-0.475,9.184c-0.151,0.246-0.257,0.514-0.267,0.801    c-5.007,0.031-10.011,0.029-15.012-0.058C339.313,226.935,338.7,223.565,338.682,221.345z M334.353,219.736    c-0.13,3.277,0.093,6.634-0.019,9.934c-0.429-0.013-0.857-0.019-1.287-0.033c-5.305-0.178-10.643-0.201-15.979-0.212    c-0.373-7.102,0.198-14.367-0.638-21.467c2.056,0.079,4.11,0.172,6.161,0.305c4.032,0.261,8.074,0.43,12.118,0.599    C334.028,212.418,334.498,216.087,334.353,219.736z M312.972,217.042c0.095,3.977-0.594,7.886-0.634,11.822    c-0.072,0.173-0.122,0.355-0.144,0.546c-1.953-0.007-3.906-0.014-5.853-0.038c-2.925-0.033-5.88-0.15-8.841-0.244    c0.051-0.186,0.088-0.384,0.095-0.602c0.155-4.364,0.167-8.682,0.02-13.068c-0.063-1.873,0.239-4.655-0.055-7.063    c2.06-0.173,4.083-0.452,6.038-0.867c3.266,0.13,6.535,0.22,9.804,0.322C312.668,210.84,312.897,213.921,312.972,217.042z     M292.849,229.017c-1.524-0.02-3.047-0.007-4.567,0.03c-3.948-1.158-8.761-0.676-12.574-0.954    c-2.205-0.161-4.422-0.161-6.644-0.106c0.458-6.245,0.391-13.327-0.526-19.555c3.376,0.057,6.754,0.103,10.137,0.102    c4.68-0.002,9.854,0.25,14.969,0.085c-0.368,2.523-0.196,5.216-0.278,7.649c-0.137,4.1-0.319,8.185-0.538,12.261    C292.816,228.701,292.828,228.862,292.849,229.017z M264.354,228.156c-3.339,0.147-6.675,0.294-9.975,0.13    c-3.412-0.169-6.822-0.225-10.227-0.169c-0.001-0.043,0.005-0.082,0.002-0.126c-0.541-6.533,0.945-13.339-0.774-19.778    c2.291-0.025,4.584-0.044,6.882-0.039c5.024,0.012,10.031,0.112,15.037,0.204c-0.619,2.184-0.661,4.273-0.75,6.788    C264.395,219.457,264.089,223.856,264.354,228.156z M239.925,219.686c-0.193,2.683-0.746,5.905-0.08,8.577    c-2.262,0.104-4.521,0.244-6.776,0.46c-3.054,0.294-6.618,0.37-9.681,0.312c-1.642-0.031-2.94-0.194-4.212-0.019    c-0.016,0-0.03,0-0.045,0c0.021-0.154,0.032-0.315,0.023-0.489c-0.219-4.077-0.401-8.161-0.538-12.261    c-0.084-2.507,0.103-5.292-0.311-7.879c0.61,0.009,1.222,0.03,1.831,0.037c6.815,0.068,13.592-0.079,20.38-0.175    C239.587,212.001,240.203,215.82,239.925,219.686z M198.575,207.852c0.708-0.022,1.417-0.043,2.125-0.064    c0.972,0.151,2.024,0.141,3.009,0.181c3.562,0.147,7.14,0.256,10.717,0.341c-0.312,2.426,0,5.254-0.063,7.15    c-0.147,4.385-0.135,8.704,0.02,13.068c0.008,0.217,0.044,0.414,0.096,0.602c-2.961,0.094-5.915,0.211-8.841,0.244    c-1.948,0.022-3.9,0.031-5.853,0.038c-0.022-0.192-0.071-0.373-0.144-0.546c-0.04-3.936-0.729-7.845-0.634-11.822    C199.082,213.921,199.311,210.84,198.575,207.852z M177.625,219.735c-0.145-3.649,0.326-7.318-0.356-10.875    c4.043-0.169,8.085-0.338,12.118-0.599c2.051-0.133,4.105-0.226,6.161-0.305c-0.836,7.102-0.265,14.367-0.638,21.469    c-5.336,0.011-10.674,0.033-15.979,0.212c-0.429,0.014-0.857,0.021-1.287,0.033C177.532,226.369,177.755,223.012,177.625,219.735z     M172.861,229.786c-5.002,0.086-10.005,0.089-15.012,0.058c-0.01-0.287-0.116-0.555-0.267-0.801    c-0.171-3.065-0.441-6.091-0.475-9.184c-0.035-3.18,0.04-6.623-0.518-9.823c2.135-0.134,4.269-0.277,6.4-0.432    c3.613-0.261,7.236-0.433,10.859-0.591c-0.511,4.037-0.521,8.31-0.552,12.332C173.279,223.565,172.666,226.935,172.861,229.786z     M153.236,219.858c-0.083,3.337-0.227,6.655,0.255,9.951c-5.751-0.05-11.505-0.114-17.263-0.107    c0.677-0.455,1.118-1.181,0.895-2.063c0.104-3.217-0.259-6.426-0.278-9.643c-0.013-2.343,0.371-4.68-0.093-6.95    c5.618-0.23,11.233-0.506,16.84-0.835C152.922,213.331,153.316,216.652,153.236,219.858z M132.584,228.052    c-0.006,0.778,0.245,1.317,0.627,1.665c-3.163,0.02-6.327,0.057-9.491,0.145c-2.097,0.059-4.198,0.138-6.296,0.208    c0.095-3.504-0.419-7.224-0.541-10.713c-0.088-2.487,0.056-5.217-0.771-7.6c5.824-0.165,11.656-0.362,17.487-0.587    C132.11,216.367,132.622,222.869,132.584,228.052z M112.95,219.356c-0.111,3.644-0.201,7.236,0.164,10.856    c-5.647,0.199-11.296,0.412-16.946,0.62c-0.076-3.328-0.508-6.576-0.653-9.903c-0.125-2.882,0.251-5.792-0.223-8.614    c5.675-0.148,11.349-0.295,17.025-0.448c0.32-0.009,0.641-0.02,0.962-0.029C112.797,214.259,113.021,217.031,112.95,219.356z     M91.559,230.994c-6.191,0.218-12.381,0.417-18.566,0.527c0.079-2.628-0.384-5.514-0.445-8.088    c-0.082-3.491-0.014-7.018-0.577-10.469c6.794-0.207,13.587-0.392,20.382-0.572C90.917,218.437,91.658,224.88,91.559,230.994z     M68.629,231.594c-4.807,0.059-9.677,0.098-14.524,0.306c-0.003-0.009-0.006-0.017-0.009-0.025    c-0.047-3.287-0.493-6.62-0.615-9.918c-0.105-2.824-0.113-5.628-0.466-8.412c3.107-0.048,6.21-0.168,9.315-0.275    c2.298-0.079,4.594-0.146,6.892-0.218c-0.585,3.639-0.493,7.376-0.578,11.053C68.585,226.536,68.219,229.157,68.629,231.594z     M50.075,232.114c-2.138,0.142-4.268,0.328-6.379,0.578c-1.947,0.23-4.388,0.136-6.873,0.164c0.547-2.93,0.665-6.049,0.826-8.961    c0.106-1.919-1.016-8.224,0.187-9.62c1.332-1.543,9.267-0.741,10.969-0.718c0.574,0.008,1.147,0.001,1.719,0.001    c-0.389,3.053-0.369,6.135-0.493,9.228C49.903,225.996,49.671,228.98,50.075,232.114z M30.003,249.356    c-0.795-1.115-0.984-2.538-1.135-3.9c-0.222-2-0.371-4.188,0.752-5.856c2.324-3.454,5.723-2.197,8.966-1.742    c5.061,0.71,10.542,0.29,15.644,0.285c10.361-0.013,20.719-0.301,31.08-0.269c15.652,0.049,31.369-0.821,47.012-1.374    c15.846-0.561,31.676,0.181,47.488-0.284c8.612-0.253,17.216-1.002,25.827-1.16c5.455-0.1,11.035,0.008,16.564-0.208    c3.105,0.422,6.421,0.229,9.263,0.286c7.288,0.144,14.603-0.685,21.913-0.235c6.971,0.43,13.956-0.345,20.939-0.147    c4.395,0.124,10.229,1.311,14.788,0.062c5.75,0.254,11.56,0.137,17.235,0.242c8.61,0.158,17.215,0.906,25.827,1.16    c15.813,0.464,31.643-0.277,47.488,0.284c15.643,0.553,31.361,1.422,47.012,1.374c10.361-0.032,20.719,0.256,31.079,0.269    c5.103,0.007,10.584,0.427,15.644-0.285c3.243-0.455,6.642-1.713,8.965,1.742c1.123,1.67,0.973,3.857,0.752,5.856    c-0.151,1.362-0.339,2.785-1.134,3.9c-1.832,2.566-6.56,1.124-9.177,1.163c-3.267,0.049-6.538,0.575-9.806,0.411    c-2.427-0.121-5.178-0.215-7.936-0.061c-2.448-0.191-5.444-0.47-8.24-0.167c-2.194,0.013-4.388,0.085-6.576,0.134    c-6.263,0.138-12.343-0.23-18.583-0.317c-1.314-0.019-2.621-0.003-3.93,0.003c-0.73-0.021-1.469-0.02-2.214,0.002    c-3.903,0.051-7.795,0.182-11.694,0.314c-1.806-0.059-3.716-0.074-5.635,0.032c-3.566-0.277-8.297-0.749-11.873,0.678    c-3.509,0.124-7.001,0.094-10.164-0.433c-3.8-0.634-7.593-0.391-11.383-0.137c-4.32-1.007-9.95-0.091-14.096-0.03    c-3.499-0.151-7.008-0.249-10.499-0.166c-2.867-0.224-6.26-0.431-9.18,0.281c-8.709-0.066-17.389-1.229-26.08-0.497    c-4.292-0.267-9.154,0.535-12.532,0.367c-1.865-0.093-3.922-0.167-6.025-0.127c-4.752-1.178-9.729-0.852-14.597-0.658    c-6.842,0.273-13.72,0.06-20.568,0.069c-5.912,0.008-11.823,0.103-17.735,0.162c-3.709,0.037-7.824-0.629-11.441,0.46    c-0.826,0.025-1.64,0.058-2.411,0.096c-3.378,0.168-8.242-0.634-12.532-0.367c-8.69-0.731-17.371,0.431-26.08,0.497    c-2.92-0.712-6.313-0.506-9.18-0.281c-3.491-0.082-7.001,0.017-10.499,0.166c-4.146-0.06-9.776-0.977-14.096,0.03    c-3.791-0.254-7.583-0.496-11.384,0.137c-3.163,0.527-6.655,0.557-10.164,0.433c-3.576-1.427-8.308-0.955-11.873-0.678    c-1.919-0.106-3.829-0.091-5.635-0.032c-3.899-0.132-7.791-0.261-11.694-0.314c-0.745-0.022-1.483-0.022-2.214-0.002    c-1.31-0.006-2.617-0.021-3.93-0.003c-6.241,0.086-12.321,0.455-18.583,0.317c-2.188-0.049-4.383-0.121-6.576-0.134    c-2.796-0.302-5.793-0.023-8.24,0.167c-2.758-0.154-5.508-0.06-7.936,0.061c-3.268,0.163-6.54-0.363-9.806-0.411    C36.564,250.481,31.836,251.922,30.003,249.356z M33.977,260.051c-5.56-3.357,2.656-4.323,4.172-4.397    c2.451-0.12,4.83,0.388,7.25,0.4c1.709,0.009,3.478-0.064,5.253-0.163c2.095-0.004,4.197-0.124,6.297-0.205    c2.834,0.607,6.037,0.657,8.951,0.682c2.474,0.933,4.808,2.751,0.895,4.818c-1.417,0.749-5.814-0.066-7.484-0.064    c-4.519,0.005-9.043-0.098-13.543-0.401c-1.815-0.122-3.617-0.212-5.431-0.306C39.429,260.367,34.692,260.482,33.977,260.051z     M37.759,265.739c-0.208-0.186-0.409-0.407-0.608-0.638c0.348,0.012,0.687,0.028,1.011,0.055c3.345,0.28,6.757,0.439,10.111,0.569    c4.382,0.171,8.71,0.358,13.11,0.368c0.432,0.001,0.885,0.023,1.345,0.05c-0.201,0.299-0.417,0.602-0.669,0.902    c-2.204,2.618-4.617,2.88-7.67,2.69c-3.103-0.194-6.401-0.039-9.47-0.591C42.117,268.64,39.872,267.629,37.759,265.739z     M33.772,390.462c1.055-13.41,1.329-27.057,2.967-40.399c1.582-12.889,2.263-25.878,3.289-38.803    c0.553-6.97,1.066-13.965,1.367-20.942c0.234-5.429,1.216-10.641,1.322-16.014c2.043,0.304,4.192,0.351,6.089,0.477    c3.303,0.22,6.407,0.462,9.191,0.12c-0.386,4.301,0.182,8.861,0.577,13.011c0.577,6.04,1.319,12.016,1.906,18.055    c1.231,12.697,1.052,25.359,1.747,38.072c0.318,5.818,0.553,11.821,0.471,17.632c-0.082,5.786,0.823,11.578,0.7,17.355    c-0.073,3.457-0.061,6.918-0.091,10.375c-0.031,3.447,1.618,7.91-2.299,9.277c-0.114,0.04-0.26,0.063-0.396,0.093    c-3.448-0.073-6.896-0.171-10.334-0.198c-3.251-0.026-7.026,0.112-10.679,0.546c-1.568,0.071-3.489,0.217-4.532-0.233    C32.414,397.742,33.579,392.92,33.772,390.462z M27.283,406.103c0.626-0.017,1.251-0.032,1.877-0.049    c2.22-0.337,4.323-0.887,6.574-1.051c1.811-0.132,3.581-0.207,5.341-0.477c5.486,0.258,10.739,0.401,16.06-0.215    c5.946,0.332,11.882,0.606,17.855,0.598c15.199-0.019,30.369,0.309,45.543,0.677c15.848,0.383,31.716-1.147,47.558-0.475    c8.189,0.347,16.392,0.092,24.581,0.434c5.328,0.223,10.405-0.544,15.722-0.549c6.404-0.008,12.806-0.014,19.21-0.022    c1.633-0.002,3.3-0.104,4.896-0.462c4.617,0.131,9.271,0.298,13.895,0.323l19.765,0.107c4.697,0.026,9.642,0.449,14.348-0.242    c1.277,0.202,2.585,0.271,3.871,0.273c6.404,0.008,12.806,0.014,19.21,0.022c5.317,0.007,10.394,0.772,15.722,0.549    c8.188-0.342,16.391-0.088,24.581-0.434c15.842-0.671,31.71,0.86,47.558,0.475c15.174-0.368,30.344-0.696,45.543-0.677    c5.973,0.008,11.909-0.266,17.855-0.598c5.321,0.617,10.574,0.474,16.06,0.215c1.76,0.27,3.53,0.346,5.341,0.477    c2.251,0.164,4.354,0.715,6.574,1.051c0.626,0.017,1.251,0.032,1.877,0.049c4.167-0.989,3.7,7.133,1.721,8.805    c-1.702,1.438-6.324,0.891-8.538,0.988c-3.893,0.172-7.7,0.342-11.615,0.294c-19.495-0.24-38.848-1.346-58.359-1.319    c-19.955,0.028-39.955,0.75-59.877,0.846c-10.046,0.049-20.09,0.53-30.125,0.86c-6.427,0.212-13.411,0.191-20.017,1.044    c-14.622-1.066-29.362-0.505-43.971-0.346c-9.644,0.105-19.257,0.916-28.925,0.781c-4.248-0.06-8.688-0.617-13.06-0.675    c-5.954-0.603-12.124-0.616-17.852-0.804c-10.034-0.33-20.078-0.81-30.125-0.86c-19.922-0.098-39.922-0.819-59.877-0.846    c-19.511-0.027-38.865,1.078-58.359,1.319c-3.915,0.049-7.722-0.122-11.615-0.294c-2.215-0.098-6.837,0.45-8.539-0.988    C23.584,413.236,23.116,405.114,27.283,406.103z M16.46,424.932c0.907-1.661,1.419-1.493,3.153-1.902    c1.616-0.381,3.467-0.319,5.117-0.52c2.468-0.3,4.683-0.649,6.943-1.08c7.334,0.657,14.763,0.548,22.124,0.634    c17.836,0.207,35.615-1.001,53.49-0.998c18.368,0.003,36.776,0.489,55.114,0.634c10.253,0.081,20.491,0.558,30.74,0.482    c3.356-0.024,6.767,0.185,10.185,0.348c1.867,0.273,3.791,0.299,5.692,0.342c5.064,0.116,10.041,0.579,15.09,0.864    c9.981,0.564,19.828-0.11,29.803-0.144c9.349-0.032,18.579-0.26,27.945-0.263c5.042-0.001,10.164,0.463,15.178,0.127    c2.164-0.145,4.273-0.42,6.368-0.754c5.159-0.061,10.359-0.56,15.432-0.522c10.248,0.076,20.487-0.401,30.74-0.482    c18.339-0.144,36.746-0.63,55.114-0.634c17.875-0.003,35.653,1.205,53.49,0.998c7.362-0.085,14.79,0.023,22.124-0.634    c2.26,0.43,4.475,0.78,6.943,1.08c1.651,0.201,3.501,0.138,5.117,0.52c1.734,0.409,2.247,0.242,3.153,1.902    c0.227,0.417,0.741,3.468,0.509,4.124c-1.017,2.873-8.673,1.89-11.244,1.961c-4.426,0.122-8.684,0.551-13.136,0.34    c-17.043-0.804-34.096,0.071-51.148,0.079c-17.259,0.008-34.504,0.225-51.756,0.392c-16.756,0.162-33.481,0.753-50.238,0.76    c-7.133,0.003-14.355-0.15-21.579-0.121c-5.948-0.731-11.868-0.517-18.032-0.306c-8.655,0.296-17.338,0.695-25.994,0.764    c-7.26,0.059-14.359,0.349-21.616,0.055c-12.562-0.862-25.325-0.387-37.81-0.392c-16.758-0.008-33.482-0.598-50.238-0.76    c-17.252-0.167-34.497-0.384-51.756-0.392c-17.051-0.008-34.105-0.882-51.148-0.079c-4.453,0.211-8.71-0.218-13.136-0.34    c-2.571-0.071-10.227,0.913-11.244-1.961C15.719,428.399,16.233,425.347,16.46,424.932z M506.378,443.139    c0.089,1.837-0.084,4.982-1.747,6.052c-1.703,1.096-5.664,1.015-7.622,1.061c-4.581,0.11-9.137,0.296-13.724,0.281    c-17.589-0.059-35.367-0.28-52.864-1.847c-16.974-1.519-34.134-0.763-51.174-0.941c-18.002-0.187-36.088-0.505-54.08,0.333    c-8.011,0.373-16.062,0.637-24.08,0.829c-14.426-2.039-29.207,2.169-43.647,1.67c-7.319-0.254-14.568-0.1-21.895-0.422    c-3.481-0.153-6.634-1.311-10.122-1.202c-4.367,0.135-8.762,0.094-13.136-0.006c-8.478-0.193-16.999-0.473-25.475-0.867    c-17.992-0.838-36.077-0.521-54.08-0.333c-17.042,0.177-34.202-0.578-51.174,0.941c-17.497,1.565-35.274,1.788-52.864,1.847    c-4.588,0.016-9.142-0.172-13.723-0.281c-1.959-0.047-5.919,0.034-7.622-1.061c-1.663-1.07-1.836-4.215-1.747-6.052    c0.064-1.335-0.468-4.042,0.743-5.17c1.111-1.036,4.273-0.959,5.745-1.088c3.145-0.275,6.295-0.274,9.42-0.538    c3.31,0.193,6.621,0.321,9.921,0.606c9.471,0.814,19.405-0.258,28.939-0.309c39.225-0.211,78.884-0.472,118.061,1.398    c11.007,0.525,22.149,0.019,33.169,0.024c2.639,0.001,5.271,0.042,7.898,0.079c3.863,0.194,7.714,0.446,11.562,0.787    c7.342,0.647,14.51,0.233,21.84,0.258c8.654,0.03,17.337-0.472,25.994-0.69c3.05-0.076,6.081-0.226,9.129-0.307    c4.107-0.026,8.223-0.123,12.356-0.125c11.02-0.006,22.162,0.502,33.169-0.024c39.177-1.87,78.837-1.609,118.061-1.398    c9.534,0.051,19.468,1.123,28.939,0.309c3.301-0.284,6.611-0.413,9.921-0.606c3.125,0.264,6.275,0.264,9.42,0.538    c1.472,0.129,4.634,0.052,5.746,1.088C506.845,439.096,506.314,441.804,506.378,443.139z"/>
	</g>
</g>
<g>
</g>
<g>
</g>
<g>
</g>
<g>
</g>
<g>
</g>
<g>
</g>
<g>
</g>
<g>
</g>
<g>
</g>
<g>
</g>
<g>
</g>
<g>
</g>
<g>
</g>
<g>
</g>
<g>
</g>
</svg>
