<?xml version="1.0" encoding="iso-8859-1"?>
<!-- Generator: Adobe Illustrator 19.0.0, SVG Export Plug-In . SVG Version: 6.00 Build 0)  -->
<svg xmlns="http://www.w3.org/2000/svg" xmlns:xlink="http://www.w3.org/1999/xlink" version="1.1" id="Layer_1" x="0px" y="0px" viewBox="0 0 511.997 511.997" style="enable-background:new 0 0 511.997 511.997;" xml:space="preserve">
<g>
	<g>
		<path d="M196.363,197.215c-0.057-1.85,0.069-3.768-0.293-5.588c-0.423-2.127-1.489-4.163-2.099-6.256    c-0.593-2.038-1.108-4.575-3.354-5.389c-2.105-0.763-4.547,0.521-5.939,2.078c-4.124,4.615-4.521,12.927-3.679,18.774    c0.721,5.006,9.16,6.441,13.102,4.201C196.907,203.441,196.445,199.944,196.363,197.215z M192.463,198.693    c-0.41,2.454-1.235,2.986-3.685,2.745c-1.973-0.195-3.41-0.501-5.068-1.252c0.149-2.965,0.028-5.911,0.318-8.879    c0.181-1.854,0.879-4.669,1.914-6.311c0.804-1.274,2.969-2.555,4.542-1.629c0.487,0.287,0.676,2.237,0.814,2.74    C192.421,190.218,193.184,194.389,192.463,198.693z"/>
	</g>
</g>
<g>
	<g>
		<path d="M214.622,197.216c-0.057-1.85,0.069-3.768-0.293-5.588c-0.423-2.127-1.488-4.163-2.097-6.255    c-0.593-2.04-1.108-4.575-3.354-5.39c-2.105-0.763-4.547,0.521-5.939,2.078c-4.124,4.615-4.521,12.927-3.679,18.774    c0.72,5.006,9.159,6.441,13.101,4.202C215.166,203.442,214.705,199.945,214.622,197.216z M210.721,198.693    c-0.411,2.454-1.235,2.986-3.685,2.745c-1.973-0.195-3.41-0.501-5.068-1.252c0.149-2.964,0.03-5.91,0.319-8.879    c0.181-1.854,0.879-4.669,1.914-6.311c0.804-1.274,2.969-2.555,4.542-1.629c0.486,0.287,0.676,2.237,0.814,2.74    C210.681,190.217,211.443,194.389,210.721,198.693z"/>
	</g>
</g>
<g>
	<g>
		<path d="M196.363,278.54c-0.057-1.851,0.069-3.769-0.293-5.59c-0.423-2.127-1.489-4.163-2.099-6.256    c-0.593-2.04-1.108-4.575-3.354-5.39c-2.105-0.763-4.547,0.521-5.939,2.079c-4.124,4.615-4.521,12.927-3.679,18.774    c0.721,5.005,9.16,6.441,13.102,4.202C196.907,284.766,196.445,281.269,196.363,278.54z M192.463,280.016    c-0.41,2.454-1.235,2.986-3.685,2.745c-1.973-0.195-3.41-0.501-5.068-1.252c0.149-2.965,0.028-5.911,0.318-8.879    c0.181-1.854,0.879-4.669,1.914-6.311c0.804-1.274,2.969-2.555,4.542-1.628c0.487,0.287,0.676,2.237,0.814,2.74    C192.421,271.541,193.184,275.713,192.463,280.016z"/>
	</g>
</g>
<g>
	<g>
		<path d="M214.622,278.54c-0.057-1.851,0.069-3.769-0.294-5.59c-0.423-2.127-1.488-4.163-2.097-6.256    c-0.593-2.04-1.108-4.575-3.354-5.39c-2.105-0.763-4.547,0.521-5.939,2.079c-4.124,4.615-4.521,12.927-3.679,18.774    c0.721,5.005,9.16,6.441,13.102,4.202C215.166,284.766,214.705,281.269,214.622,278.54z M210.723,280.016    c-0.411,2.454-1.235,2.986-3.685,2.745c-1.973-0.195-3.41-0.501-5.068-1.252c0.149-2.965,0.028-5.911,0.318-8.879    c0.181-1.854,0.879-4.669,1.914-6.311c0.804-1.274,2.969-2.555,4.542-1.628c0.486,0.287,0.676,2.237,0.814,2.74    C210.681,271.541,211.443,275.713,210.723,280.016z"/>
	</g>
</g>
<g>
	<g>
		<path d="M161.498,295.568c-0.702-5.052-1.625-13.262-5.185-17.246c-3.072-3.44-9.405-3.668-13.096-1.073    c-4.839,3.401-6.933,10.783-7.493,16.281c-0.624,6.126-0.969,12.198-0.863,18.296c-0.876,4.7-1.569,10.528,1.669,13.15    c1.454,1.177,3.439,1.301,5.199,1.279c4.275-0.054,8.635-0.923,12.937-1.033c6.089-0.155,8.314-1.242,8.511-7.587    C163.405,310.38,162.495,302.742,161.498,295.568z M155.728,320.038c-1.715,0.473-4.105,0.064-5.922,0.257    c-2.354,0.25-4.97,0.659-7.355,0.453c-3.869-0.332-3.845-1.292-4.279-5.37c-0.012-0.123-0.02-0.247-0.032-0.37    c0.225-8.461-0.286-17.139,1.866-25.265c0.694-2.623,2.358-6.563,4.424-8.559c3.645-3.52,8.64-1.654,10.204,2.744    c1.174,3.299,1.673,7.555,2.065,11.006c0.544,4.797,0.569,9.613,0.91,14.419c0.154,2.171,0.558,4.249,0.559,6.451    C158.172,318.855,158.446,319.287,155.728,320.038z"/>
	</g>
</g>
<g>
	<g>
		<path d="M161.209,387.152c-0.254-6.915,0.572-14.318-0.602-21.13c-0.961-5.572-2.377-11.678-7.98-14.341    c-4.906-2.333-10.379,0.785-13.091,5.079c-3.9,6.172-3.535,13.44-3.801,20.359c-0.158,4.096-1.72,10.642-0.577,15.468    c-0.018,0.718-0.009,1.409,0.073,2.022c0.268,2.034,1.126,3.024,3.117,3.685c5.133,1.704,12.196,1.775,17.302,0.19    C161.198,396.76,161.405,392.461,161.209,387.152z M155.067,393.268c-2.626,1.729-11.585,1.67-14.109,0.172    c-0.566-0.336-0.796-0.089-0.883,0.196c-0.015-0.39-0.07-1.048-0.218-2.153c-0.159-1.189-0.224-2.409-0.276-3.634    c0.288-5.83,0.083-11.771,0.513-17.489c0.395-5.242,3.962-20.029,12.696-13.355c3.23,2.469,3.774,9.568,3.805,13.245    c0.032,4.029-0.103,8.064-0.126,12.094C156.454,385.412,157.879,391.415,155.067,393.268z"/>
	</g>
</g>
<g>
	<g>
		<path d="M84.935,358.669c-1.957-3.231-3.383-4.833-7.432-4.298c-4.111,0.542-6.654,2.893-8.316,6.567    c-2.48,5.486-3.054,10.447-2.921,16.359c0.028,1.219,0.026,2.44,0.021,3.663c-1.288,4.055-1.443,8.716-1.192,12.943    c0.117,1.961,0.378,3.98,1.428,5.465c0.27,0.554,0.727,0.986,1.268,1.255c0.31,0.202,0.655,0.378,1.043,0.522    c1.456,0.545,2.986,0.404,4.509,0.444c1.776,0.047,3.338,0.601,5.098,0.367c1.315-0.175,2.745-0.385,4.057-0.817    c1.12-0.068,2.209-0.265,3.245-0.687c4.467-1.82,3.269-6.285,3.49-10.271C89.821,379.54,90.575,367.972,84.935,358.669z     M84.426,394.854c-0.982,1.648-3.066,1.15-4.601,0.991c-3.298-0.342-6.488-0.996-9.791-0.753    c-0.291-4.303,0.202-8.813,0.231-13.075c0.028-3.837-0.446-7.895,0.176-11.68c0.599-3.646,2.611-11.555,7.246-11.9    c3.641-0.271,5.838,5.327,6.526,8.15c1.734,7.118,1.036,15.388,0.415,22.612C84.561,389.987,84.807,394.214,84.426,394.854z"/>
	</g>
</g>
<g>
	<g>
		<path d="M327.317,182.061c-1.392-1.558-3.834-2.841-5.939-2.078c-2.246,0.814-2.761,3.351-3.354,5.39    c-0.609,2.093-1.675,4.128-2.099,6.255c-0.362,1.82-0.236,3.738-0.293,5.588c-0.084,2.728-0.544,6.224,2.262,7.819    c3.941,2.239,12.381,0.804,13.102-4.201C331.84,194.988,331.441,186.676,327.317,182.061z M323.216,201.438    c-2.451,0.241-3.276-0.292-3.685-2.745c-0.72-4.305,0.042-8.475,1.166-12.585c0.138-0.503,0.327-2.452,0.814-2.74    c1.573-0.927,3.738,0.353,4.542,1.629c1.035,1.642,1.733,4.457,1.914,6.311c0.289,2.968,0.17,5.913,0.318,8.879    C326.625,200.937,325.189,201.244,323.216,201.438z"/>
	</g>
</g>
<g>
	<g>
		<path d="M309.058,182.061c-1.392-1.558-3.834-2.841-5.939-2.078c-2.246,0.814-2.761,3.351-3.354,5.39    c-0.609,2.093-1.675,4.128-2.099,6.255c-0.362,1.82-0.236,3.738-0.293,5.588c-0.082,2.728-0.544,6.224,2.262,7.819    c3.941,2.239,12.381,0.804,13.102-4.201C313.58,194.988,313.181,186.676,309.058,182.061z M304.956,201.438    c-2.451,0.241-3.275-0.292-3.685-2.745c-0.719-4.305,0.043-8.475,1.166-12.585c0.138-0.503,0.327-2.452,0.814-2.74    c1.573-0.927,3.738,0.353,4.542,1.629c1.035,1.642,1.733,4.457,1.914,6.311c0.289,2.968,0.17,5.913,0.318,8.879    C308.366,200.937,306.93,201.244,304.956,201.438z"/>
	</g>
</g>
<g>
	<g>
		<path d="M327.317,263.383c-1.392-1.558-3.834-2.841-5.939-2.079c-2.246,0.814-2.761,3.351-3.354,5.39    c-0.609,2.093-1.675,4.129-2.099,6.256c-0.362,1.82-0.236,3.738-0.293,5.588c-0.084,2.73-0.544,6.227,2.262,7.821    c3.941,2.239,12.381,0.804,13.102-4.202C331.84,276.311,331.441,267.997,327.317,263.383z M323.216,282.761    c-2.451,0.241-3.276-0.292-3.685-2.745c-0.72-4.303,0.042-8.475,1.166-12.585c0.138-0.503,0.327-2.452,0.814-2.74    c1.573-0.927,3.738,0.353,4.542,1.628c1.035,1.642,1.733,4.457,1.914,6.311c0.289,2.968,0.17,5.913,0.318,8.879    C326.625,282.26,325.189,282.567,323.216,282.761z"/>
	</g>
</g>
<g>
	<g>
		<path d="M309.058,263.383c-1.392-1.558-3.834-2.841-5.939-2.079c-2.246,0.814-2.761,3.351-3.354,5.39    c-0.609,2.093-1.675,4.129-2.099,6.256c-0.362,1.82-0.236,3.738-0.293,5.588c-0.082,2.729-0.544,6.226,2.262,7.82    c3.941,2.24,12.381,0.805,13.102-4.201C313.58,276.311,313.181,267.997,309.058,263.383z M304.956,282.761    c-2.45,0.241-3.273-0.29-3.684-2.745c-0.72-4.305,0.042-8.475,1.164-12.585c0.138-0.503,0.327-2.452,0.814-2.74    c1.573-0.927,3.738,0.353,4.542,1.628c1.035,1.642,1.733,4.457,1.914,6.311c0.289,2.968,0.17,5.913,0.318,8.879    C308.366,282.26,306.93,282.567,304.956,282.761z"/>
	</g>
</g>
<g>
	<g>
		<path d="M377.133,311.824c0.106-6.098-0.239-12.17-0.863-18.296c-0.56-5.499-2.655-12.88-7.493-16.281    c-3.692-2.595-10.023-2.366-13.096,1.073c-3.56,3.986-4.482,12.195-5.183,17.246c-0.997,7.175-1.905,14.813-1.68,22.067    c0.196,6.345,2.419,7.432,8.509,7.587c4.302,0.11,8.662,0.979,12.937,1.033c1.76,0.022,3.746-0.102,5.199-1.279    C378.703,322.352,378.009,316.524,377.133,311.824z M373.821,315.378c-0.433,4.078-0.409,5.038-4.279,5.37    c-2.385,0.206-5.002-0.203-7.355-0.453c-1.817-0.193-4.207,0.217-5.922-0.257c-2.718-0.751-2.443-1.183-2.441-4.234    c0.001-2.203,0.405-4.28,0.559-6.451c0.341-4.804,0.366-9.622,0.91-14.419c0.391-3.45,0.891-7.707,2.065-11.006    c1.566-4.398,6.56-6.264,10.204-2.744c2.065,1.995,3.73,5.935,4.424,8.559c2.152,8.125,1.64,16.803,1.866,25.265    C373.841,315.13,373.833,315.255,373.821,315.378z"/>
	</g>
</g>
<g>
	<g>
		<path d="M376.26,377.119c-0.266-6.919,0.1-14.188-3.801-20.359c-2.713-4.293-8.184-7.411-13.091-5.079    c-5.603,2.664-7.019,8.769-7.98,14.341c-1.176,6.812-0.35,14.215-0.603,21.129c-0.196,5.309,0.011,9.609,5.56,11.332    c5.106,1.587,12.169,1.515,17.302-0.19c1.99-0.661,2.848-1.652,3.117-3.685c0.081-0.613,0.091-1.304,0.073-2.022    C377.979,387.762,376.417,381.214,376.26,377.119z M372.136,391.484c-0.148,1.105-0.203,1.764-0.218,2.153    c-0.086-0.286-0.316-0.532-0.883-0.196c-2.525,1.497-11.484,1.557-14.109-0.172c-2.813-1.853-1.387-7.856-1.404-10.923    c-0.022-4.03-0.158-8.064-0.126-12.094c0.03-3.677,0.574-10.777,3.805-13.245c8.733-6.675,12.301,8.112,12.696,13.355    c0.431,5.718,0.225,11.658,0.513,17.489C372.36,389.074,372.295,390.294,372.136,391.484z"/>
	</g>
</g>
<g>
	<g>
		<path d="M511.563,462.989c0.921-5.446-1.208-9.479-3.554-13.941c0.345-5.37,1.118-10.796,1.939-16.114    c0.702-4.543,0.416-9.003,0.505-13.588c0.203-10.587,0.442-21.424,1.141-32.026c1.352-20.498-1.13-40.624-1.083-61.078    c0.043-19.167-1.353-38.059-0.217-57.217c0.598-10.086,0.187-19.232-1.701-29.123c-1.332-6.972-2.793-13.854-4.05-20.846    c-1.477-8.215-2.479-16.473-3.844-24.709c-0.511-3.086-1.034-6.145-1.556-9.207c-0.324-5.846,0.812-16.427-4.081-19.797    c-0.58-0.4-1.454-0.347-2.038,0c-3.831,2.267-3.64,8.47-4.145,12.379c-0.759,5.875-1.297,11.813-2.436,17.478    c-1.273,6.329-1.892,12.832-2.834,19.223c-0.272-4.958-0.561-9.851-1.092-14.858c-0.652-6.155-1.489-12.324-2.571-18.417    c-1.086-6.114-1.482-12.793-4.188-18.461c-0.572-1.2-2.155-1.38-3.214-0.843c-3.922,1.988-3.794,8.205-4.077,11.969    c-0.636,8.435-2.323,16.755-3.331,25.13c-1.04,8.637-1.951,17.267-3.125,25.901c-0.478,3.513-0.971,7.019-1.416,10.535    c-0.387,3.044-0.179,6.328-0.601,9.407c-0.023,0.153-0.043,0.308-0.066,0.46c-0.064,0.399-0.134,0.794-0.225,1.183    c-0.047,0.199-0.053,0.399-0.032,0.592c-0.579,4.282-0.958,8.613-1.162,12.931c-0.421-2.283-0.856-4.563-1.216-6.853    c-0.446-2.825-0.506-4.681-3.087-6.32c-1.008-0.64-2.226-0.309-3.077,0.396c-1.184,0.981-1.87,2.445-2.514,3.845    c-0.682,1.036-1.285,2.148-1.841,3.096c-0.323,0.549-0.553,1.487-0.987,2.118c-0.089-0.171-0.213-0.422-0.423-0.766    c-3.331-5.427-2.752-13.897-4.803-19.93c-1.244-3.66-4.419-5.692-7.938-2.73c-1.615,1.359-3.178,4.466-3.945,6.408    c-0.297,0.75-0.505,1.672-0.794,2.563c-1.539-4.115-2.658-8.291-3.292-12.746c-0.432-3.035-0.99-6.636-2.091-9.772    c-0.161-0.759-0.409-1.454-0.822-1.984c-0.16-0.339-0.319-0.681-0.497-1c-0.82-1.46-2.858-1.647-4.023-0.518    c-1.67,1.619-2.794,3.594-3.756,5.681c-0.09-5.095-0.218-10.197-0.495-15.277c0.299-7.513-0.844-15.208-0.938-22.609    c-0.07-5.519-0.484-10.772-0.309-16.302c0.145-4.588-0.277-9.259-0.398-13.864c-0.295-11.195-2.918-22.182-4.562-33.21    c-0.715-4.799-1.95-9.511-2.733-14.305c-0.743-4.554-0.939-8.966-2.818-13.272c-0.357-0.819-1.662-1.312-2.47-1.006    c-3.428,1.3-2.578,4.484-3.08,7.605c-0.956,5.955-2.623,11.652-3.362,17.68c-0.709,5.78-1.313,11.174-1.512,16.987    c-0.214,6.315-0.066,13.001-0.681,19.269c-1.214,12.388-1.971,24.729-2.454,37.219c-0.17,4.397,0.191,8.721,0.476,13.069    c-0.231-1.162-0.513-2.324-0.828-3.472c-0.004,0.24-0.021,0.48-0.027,0.719c-0.048-0.235-0.098-0.471-0.145-0.705    c-1.241-6.188-2.372-13.267-4.964-19.059c-0.366-0.817-1.599-1.545-2.494-1.43c-6.079,0.777-6.299,6.683-8.934,10.758    c-0.608-2.061-0.917-4.343-1.36-6.18c-1.204-4.988-1.693-10.377-3.115-15.265c-0.959-3.296-2.911-8.373-7.225-6.659    c-2.063,0.819-3.188,3.159-4.253,4.924c-0.435,0.719-0.73,1.643-1.3,2.261c-2.35,2.549-2.093,0.492-2.987-2.086    c-2.862-8.245-5.635-16.233-8.806-24.388c-0.222-0.57-0.627-1.001-1.112-1.302c-0.16-16.733,0.187-33.711-1.862-50.31    c-0.028-0.235-0.096-0.438-0.188-0.613c-0.172-7.602-0.112-15.226-0.537-22.814c-0.556-9.94-4.537-19.334-5.127-29.218    c-0.304-5.095-0.665-12.784-4.106-16.852c-0.859-1.014-2.446-0.371-2.802,0.74c-1.041,3.258-0.752,7.078-1.113,10.512    c-0.473,4.517-1.379,8.663-2.203,13.099c-1.305,7.008-3.215,13.917-4.648,20.885c-0.004-0.032-0.006-0.064-0.01-0.095    c-0.858-7.515-2.158-15.05-3.183-22.563c-1.176-8.609-2.112-17.218-4.431-25.641c-0.362-1.315-2.048-2.121-3.251-1.323    c-4.135,2.744-3.863,10.354-4.354,14.794c-0.596,5.396-1.119,10.726-2.133,16.079c-0.874,4.616-2.682,8.951-4.012,13.455    c-2.624,8.89-3.471,18.267-3.519,27.516c-0.037,7.205-0.116,14.445,0.271,21.647c-2.31-2.111-5.236-3.737-7.537-5.565    c-2.232-1.771-4.389-3.579-6.523-5.407c-1.819-1.883-3.595-3.808-5.367-5.72c-1.582-1.709-3.311-3.29-5.05-4.866    c0.199-0.633,0.098-1.352-0.442-1.828c-1.616-1.425-3.652-2.797-5.599-3.994c-0.479-0.528-0.944-1.068-1.39-1.625    c-2.957-3.692-2.594-6.446-2.622-11.045c-0.025-4.034-0.468-7.984-0.686-12.005c-0.126-3.482-5.575-3.492-5.423,0    c0.126,2.899,0.324,5.771,0.443,8.652c-0.19,4.488-0.789,9.004-0.609,13.488c-0.049,0.014-0.102,0.017-0.15,0.032    c-3.182,0.982-5.172,4.026-6.946,6.63c-0.727,1.068-1.731,2.094-2.543,3.197c-5.396,5.066-10.817,9.866-16.643,14.492    c-2.301,1.828-5.228,3.453-7.537,5.565c0.386-7.202,0.308-14.442,0.271-21.647c-0.048-9.249-0.896-18.627-3.519-27.516    c-1.331-4.504-3.138-8.84-4.012-13.455c-1.014-5.353-1.537-10.682-2.133-16.079c-0.491-4.44-0.219-12.051-4.354-14.794    c-1.204-0.799-2.889,0.009-3.251,1.323c-2.319,8.423-3.256,17.031-4.431,25.641c-1.027,7.511-2.326,15.047-3.183,22.563    c-0.004,0.032-0.006,0.064-0.01,0.095c-1.433-6.968-3.343-13.877-4.648-20.885c-0.825-4.436-1.731-8.581-2.203-13.099    c-0.359-3.435-0.071-7.254-1.113-10.512c-0.356-1.11-1.942-1.754-2.802-0.74c-3.443,4.069-3.804,11.758-4.106,16.852    c-0.588,9.884-4.569,19.28-5.127,29.218c-0.425,7.587-0.364,15.21-0.537,22.814c-0.092,0.175-0.159,0.377-0.188,0.613    c-2.049,16.599-1.701,33.576-1.862,50.31c-0.485,0.303-0.89,0.734-1.112,1.302c-3.171,8.155-5.944,16.142-8.806,24.388    c-0.895,2.579-0.638,4.636-2.987,2.086c-0.57-0.618-0.865-1.542-1.3-2.261c-1.065-1.765-2.19-4.105-4.253-4.924    c-4.314-1.712-6.267,3.364-7.225,6.659c-1.423,4.888-1.912,10.276-3.115,15.265c-0.443,1.838-0.752,4.12-1.36,6.18    c-2.637-4.076-2.854-9.982-8.934-10.758c-0.896-0.114-2.129,0.614-2.494,1.43c-2.592,5.793-3.724,12.872-4.964,19.059    c-0.047,0.234-0.097,0.47-0.145,0.705c-0.006-0.24-0.023-0.48-0.027-0.719c-0.315,1.15-0.597,2.31-0.828,3.472    c0.286-4.349,0.646-8.672,0.476-13.069c-0.485-12.489-1.241-24.831-2.454-37.219c-0.614-6.268-0.467-12.954-0.681-19.269    c-0.198-5.812-0.801-11.207-1.512-16.987c-0.74-6.028-2.405-11.724-3.362-17.68c-0.502-3.119,0.348-6.305-3.08-7.605    c-0.809-0.306-2.113,0.187-2.47,1.006c-1.878,4.306-2.074,8.717-2.818,13.272c-0.783,4.793-2.017,9.505-2.733,14.304    c-1.643,11.028-4.268,22.015-4.563,33.21c-0.122,4.605-0.543,9.276-0.398,13.864c0.176,5.531-0.239,10.782-0.309,16.302    c-0.094,7.403-1.236,15.096-0.938,22.609c-0.278,5.08-0.405,10.182-0.495,15.277c-0.961-2.088-2.085-4.062-3.755-5.681    c-1.164-1.129-3.203-0.942-4.023,0.518c-0.178,0.318-0.336,0.661-0.497,1c-0.414,0.531-0.662,1.226-0.822,1.984    c-1.102,3.135-1.659,6.737-2.091,9.772c-0.634,4.455-1.753,8.631-3.291,12.746c-0.289-0.891-0.497-1.813-0.794-2.563    c-0.767-1.942-2.33-5.049-3.945-6.408c-3.518-2.962-6.694-0.929-7.938,2.73c-2.051,6.034-1.473,14.504-4.803,19.93    c-0.211,0.343-0.335,0.594-0.423,0.766c-0.435-0.631-0.666-1.569-0.987-2.118c-0.556-0.948-1.159-2.058-1.841-3.096    c-0.644-1.401-1.328-2.866-2.514-3.845c-0.852-0.705-2.069-1.038-3.077-0.396c-2.581,1.638-2.642,3.495-3.087,6.319    c-0.361,2.29-0.795,4.569-1.216,6.853c-0.204-4.318-0.583-8.648-1.162-12.931c0.021-0.194,0.015-0.393-0.032-0.592    c-0.09-0.389-0.161-0.785-0.225-1.183c-0.023-0.154-0.043-0.308-0.066-0.46c-0.422-3.079-0.214-6.363-0.601-9.407    c-0.446-3.517-0.939-7.022-1.416-10.535c-1.174-8.632-2.085-17.262-3.124-25.901c-1.008-8.375-2.694-16.695-3.331-25.13    c-0.283-3.764-0.155-9.98-4.077-11.969c-1.059-0.537-2.642-0.357-3.214,0.843c-2.706,5.668-3.102,12.347-4.188,18.461    c-1.082,6.093-1.919,12.262-2.571,18.417c-0.531,5.007-0.819,9.901-1.092,14.858c-0.943-6.391-1.562-12.894-2.834-19.223    c-1.139-5.665-1.677-11.603-2.436-17.478c-0.505-3.909-0.314-10.112-4.144-12.379c-0.586-0.347-1.459-0.4-2.038,0    c-4.894,3.369-3.757,13.95-4.08,19.797c-0.522,3.063-1.044,6.12-1.556,9.207c-1.365,8.236-2.367,16.494-3.844,24.709    c-1.258,6.993-2.718,13.875-4.05,20.846c-1.888,9.892-2.299,19.037-1.701,29.123c1.136,19.158-0.26,38.049-0.217,57.217    c0.046,20.454-2.435,40.58-1.083,61.078c0.699,10.601,0.938,21.439,1.141,32.026c0.087,4.585-0.197,9.045,0.505,13.588    c0.821,5.319,1.594,10.745,1.939,16.114c-2.346,4.461-4.474,8.495-3.554,13.941c1.02,6.034,1.444,11.178,0.287,17.134    c-1.012,5.218-1.453,10.399,4.444,12.399c7.617,2.584,17.288,1.365,25.21,1.896c3.593,0.241,7.189-0.145,10.807-0.025    c3.027,0.101,7.85,1.188,10.822,0.086c0.996-0.369,1.834-0.966,2.542-1.707c2.888,1.116,6.944,0.953,10.463,0.586    c3.226-0.069,6.408-0.334,9.002-0.283c4.047,0.078,8.099-0.175,12.142-0.565c3.583,0.108,7.642,0.294,10.826-1.242    c4.397,3.515,14.562,2.325,18.989,2.393c3.919,0.06,9.594,0.878,12.713-2.221c0.374-0.372,0.654-0.8,0.896-1.249    c1.913,0.661,3.678,0.18,6.214,0.282c4.51,0.183,8.834-0.032,13.311-0.215c1.811,0.006,3.613,0.028,5.391,0.108    c3.866,0.174,7.501-0.337,11.343-0.617c3.182-0.231,5.667,0.011,8.167-1.568c4.749,2.986,11.505,2.549,16.733,2.543    c6.569-0.007,13.641,0.556,20.109-0.275c3.419-0.439,7.341-0.559,9.993-2.329c2.847-0.016,5.676-0.085,8.568-0.073    c3.118,0.014,8.461,1.567,11.11-0.785c0.015-0.012,0.023-0.032,0.038-0.046c7.185-0.026,14.373-0.313,21.569-0.066    c2.628,0.09,6.379,0.789,9.351,0.105c0.002,0.003,0.004,0.005,0.006,0.007c2.649,2.352,7.992,0.799,11.11,0.785    c2.893-0.012,5.723,0.057,8.568,0.073c2.651,1.771,6.572,1.889,9.993,2.329c6.469,0.832,13.539,0.267,20.109,0.274    c5.228,0.006,11.985,0.443,16.733-2.543c2.5,1.581,4.985,1.337,8.167,1.568c3.842,0.279,7.477,0.79,11.343,0.617    c1.78-0.08,3.582-0.102,5.391-0.108c4.477,0.183,8.801,0.399,13.311,0.215c2.536-0.103,4.301,0.379,6.214-0.282    c0.242,0.449,0.521,0.876,0.896,1.249c3.119,3.098,8.794,2.281,12.713,2.221c4.428-0.068,14.591,1.123,18.989-2.393    c3.184,1.537,7.243,1.35,10.826,1.242c4.042,0.389,8.094,0.643,12.142,0.565c2.594-0.049,5.774,0.214,9.002,0.283    c3.519,0.368,7.575,0.532,10.463-0.586c0.709,0.741,1.546,1.339,2.542,1.707c2.973,1.102,7.795,0.015,10.822-0.086    c3.619-0.121,7.214,0.265,10.807,0.025c7.922-0.531,17.593,0.688,25.21-1.896c5.896-2,5.457-7.181,4.444-12.399    C510.12,474.167,510.544,469.023,511.563,462.989z M9.283,246.487c1.356-6.944,2.061-13.698,2.867-20.677    c1.045-9.029,2.083-18.008,2.982-26.996c0.618-4.776,1.454-9.504,2.021-14.313c0.513-4.361,0.204-8.826,0.94-13.183    c0.034,0.17,0.075,0.337,0.102,0.51c0.076,1.075,0.3,2.184,0.438,3.258c0.34,2.642,0.693,5.255,0.913,7.91    c0.688,8.262,2.052,16.137,2.53,24.37c0.321,5.555,0.822,11.057,1.141,16.615c0.339,5.9,0.091,12.723,1.685,18.467    c-0.766,0.298-1.438,0.657-1.955,1.059c-0.021,0.015-0.042,0.026-0.062,0.043c-0.027,0.022-0.064,0.041-0.091,0.062    c0.009,0.004,0.017,0.007,0.026,0.011c-0.276,0.268-0.433,0.657-0.304,1.044c0.535,1.601,1.849,2.206,3.449,2.494    c1.82,0.326,4.071,0.607,5.724-0.385c1.62-0.972,1.819-3.651,0-4.572c-0.218-0.111-0.469-0.181-0.715-0.257    c1.338-4.373,0.988-9.799,1.406-14.178c0.705-7.394,0.535-14.863,1.51-22.212c0.897-6.761,2.075-13.459,2.846-20.215    c0.547-4.789,1.068-10.586,2.257-15.724c0.34,2.528,0.314,5.623,0.393,6.445c0.378,3.902,0.668,7.786,0.967,11.691    c0.579,7.563,1.228,15.109,1.924,22.673c0.667,7.281,2.005,14.526,2.781,21.807c0.427,4.01,0.496,8.754,2.049,12.669    c-0.204,4.962,0.036,9.991,0.191,15.011c-6.877,0.672-13.493-0.464-20.343-0.788c-6.267-0.297-12.34,0.809-18.476,1.549    C8.55,255.919,8.363,251.203,9.283,246.487z M7.627,278.036c0.1-4.349,0.458-8.684,0.693-13.028    c1.278,0.086,2.608-0.017,4.06-0.145c5.78-0.512,11.403-0.816,17.175-0.1c3.832,0.475,13.278,2.848,17.849,0.627    c0.014,2.923-0.058,5.835-0.342,8.715c-0.519,5.26-1.082,10.212-0.438,15.487c0.385,3.156,0.324,6.252,0.414,9.305    c-7.522-0.438-15.116-0.044-22.651-0.026c-3.824,0.01-7.717,0.873-11.494,0.805c-0.252-0.005-3.469,0.042-5.634,0.153    C7.346,292.575,7.46,285.32,7.627,278.036z M7.222,302.707c5.34,1.47,10.458,0.544,16.195,0.604    c8.151,0.086,15.801,0.484,23.941-0.015c0.14,1.096,0.323,2.189,0.612,3.274c-0.01,0.177-0.017,0.356-0.027,0.533    c-7.489,0.065-14.917,1.34-22.393,1.802c-6.105,0.377-12.283-0.038-18.38,0.501C7.188,307.174,7.197,304.94,7.222,302.707z     M7.079,335.749c-0.02-7.736,0.012-15.433,0.066-23.123c5.943,1.376,13.699,0.556,19.215,0.345    c6.96-0.267,14.371-0.441,21.383-1.339c-0.028,0.855-0.06,1.71-0.071,2.568c-0.107,8.058-0.207,16.115-0.278,24.174    c-0.069,7.847-0.137,15.694-0.206,23.541c-0.057,6.562,0.647,12.968,0.718,19.476c0.073,6.699,0.26,13.453,0.174,20.13    c-0.073,5.564,0.588,11.001,0.49,16.534c-0.117,6.616,0.277,13.311,0.807,19.898c0.192,2.389,0.291,4.759,0.391,7.12    c-4.18-0.174-8.362-0.07-12.56-0.027c-5.714,0.058-11.699,1.057-17.329,0.793c-0.002,0-6.233-0.5-10.439,0.049    c0.197-1.326,0.27-2.708,0.172-4.18c-0.138-2.084-0.473-4.103-0.718-6.145c0.971-4.725,0.47-9.65,0.084-14.403    c-0.394-4.841-0.249-9.815-0.792-14.618c-0.604-5.352-0.945-10.682-1.491-16.034c-0.021-0.199-0.034-0.4-0.054-0.601    c0.267-8.314,0.764-16.608,0.693-24.957C7.255,355.193,7.102,345.519,7.079,335.749z M8.369,451.928    c0.031-0.527-0.018-1.052-0.101-1.574c0.054-0.144,0.101-0.289,0.151-0.433c0.028-0.004,0.054,0,0.084-0.005    c3.23-0.564,7.161,0.329,10.519,0.598c3.808,0.305,7.346-0.38,11.118-0.466c5.258-0.119,10.546,0.124,15.806,0.155    c1.384,0.009,2.756,0.159,4.103,0.19c0.162,2.41,0.41,4.819,0.831,7.232c-2.571,0.015-8.955,0.212-9.254,0.224    c-5.433,0.229-11.009-0.522-16.424,0.122c-3.618,0.43-7.358,1.125-10.928,1.254c-2.661,0.096-5.491-0.174-8.267-0.421    C6.356,456.389,8.225,454.414,8.369,451.928z M49.271,478.577c0.716,2.293,1.951,3.97,1.488,6.484    c-0.703,3.818-3.385,2.9-6.566,3.007c-6.408,0.215-12.597,0.337-18.966,0.343c-3.434,0.004-17.899,0.975-18.925-2.446    c-0.094-0.31,1.53-5.08,1.635-5.844c0.327-2.406,0.321-3.87,0.042-6.316c-0.297-2.587-0.464-5.206-0.825-7.793    c-0.161-1.156-0.526-2.371-0.816-3.583c5.182,1.936,11.39,1.216,16.697,0.936c6.233-0.33,12.352-0.062,18.593-0.1    c3.051-0.02,6.561,0.124,9.65-0.627c0.009,0.003,0.018,0,0.03-0.009c0.036-0.009,0.069-0.021,0.105-0.03    c-0.096,0.423-0.681,0.89-0.783,1.363C49.665,468.417,47.864,474.076,49.271,478.577z M87.359,248.591    c1.937-2.1,2.774-6.169,3.288-9.826c0.374-1.091,0.73-2.198,1.066-3.331c0.75-2.533,0.955-5.3,1.269-8.042    c0.207-0.795,0.39-1.583,0.497-2.329c1.168,3.735,3.24,7.224,4.854,10.762c-0.027,1.404-0.052,2.813-0.094,4.208    c-0.224,7.458-0.636,14.85-0.891,22.309c-0.214,6.255-1.315,12.949,0.412,19.06c-0.662,10.783-0.411,21.611-0.207,32.442    c-3.291,0.228-6.62,0.283-9.952,0.245c0.057-13.325-0.143-26.659-0.299-39.983c-0.065-5.578-0.033-11.156,0.159-16.729    C87.562,254.497,87.803,251.466,87.359,248.591z M69.886,260.969c1.044-1.221,1.789-2.861,2.283-4.062    c0.63-1.53,3.84-17.18,4.436-17.118c2.341,0.24,2.525,9.19,6.486,10.095c0.551,0.126,1.054,0.146,1.526,0.107    c-0.03,8.661-1.328,17.584-1.445,26.195c-0.171,12.591-0.326,25.197-0.275,37.79c-2.64-0.095-5.272-0.23-7.877-0.379    c-1.46-0.084-2.933-0.041-4.41,0.048c-0.791-3.693-0.231-8.172-0.241-11.875c-0.015-5.337-0.223-10.617-0.471-15.939    C69.512,277.538,69.969,269.244,69.886,260.969z M53.675,308.424c-0.017-0.566-0.03-1.131-0.037-1.696    c-0.067-4.872,0.178-9.745,0.427-14.61c0.265-5.166,0.66-10.337,1.616-15.427c0.689-3.668,1.312-7.346,2.099-10.992    c0.587-2.722,0.752-7.693,1.903-11.061c1.017,2.594,1.761,5.47,4.236,6.86c0.103,0.058,0.203,0.095,0.305,0.144    c0.435,0.364,0.915,0.65,1.459,0.825c0.139,0.044,0.272,0.066,0.407,0.095c-0.89,8.029-0.347,16.774-0.231,24.42    c0.085,5.687,0.139,11.356,0.119,17.052c-0.01,2.856-0.417,6.898,0.309,9.954c-1.802,0.156-3.603,0.295-5.388,0.298    c-1.596,0.001-4.426,1.011-5.869,0.271C53.157,313.597,53.729,310.257,53.675,308.424z M53.248,318.591    c6.718,1.43,14.541-1.088,21.087-0.383c7.737,0.832,15.545,0.617,23.289-0.263c0.018,1.141,0.032,2.282,0.047,3.423    c-6.813,0.313-13.634,0.939-20.437,1.305c-5.334,0.287-10.708,0.119-16.054,0.19c-2.514,0.033-5.254,0.489-7.875,0.631    C53.284,321.859,53.27,320.225,53.248,318.591z M81.161,486.317c-2.329-0.03-4.655-0.031-6.98,0.181    c-1.958,0.178-3.906,0.453-5.853,0.736c-0.64-8.204-0.293-16.782-0.295-24.99c-0.002-5.891-0.03-24.383,9.805-22.395    c8.002,1.619,5.783,14.989,6.271,21.058c0.673,8.352,0.11,16.716,0.553,25.091C83.496,486.106,82.328,486.208,81.161,486.317z     M98.223,436.848c-0.694,9.588-2.18,19.536-1.323,29.157c0.313,3.513,0.611,5.268-0.748,8.631    c-0.602,1.489-1.152,2.914-1.462,4.51c-0.361,1.86-0.457,4.015-0.249,6.076c-1.452,0.087-2.905,0.208-4.357,0.322    c0.57-11.078,0.294-22.593-0.928-33.577c-0.736-6.617-3.195-17.608-12.063-17.113c-9.867,0.549-11.569,10.322-13.062,17.976    c-1.158,5.937-0.641,12.904-0.292,18.899c0.303,5.197,0.246,10.727,1.514,15.811c-2.713,0.123-5.426,0.194-8.143,0.149    c0.508-2.179,0.534-4.483,0.16-6.348c-0.724-3.613-2.363-6.04-1.836-10.066c0.388-2.959,1.137-4.794,1.414-6.39    c0.671-3.875,1.898-9.078-0.009-12.616c0.674-8.099-0.177-16.18-0.625-24.304c6.337,1.206,13.48-0.508,19.748-0.058    c7.23,0.519,15.1-0.075,22.399-0.872C98.436,430.319,98.458,433.602,98.223,436.848z M58.659,424.589    c1.129-2.006,2.251-3.967,3.668-5.852c3.215-4.275,7.413-5.396,12.68-5.79c7.001-0.523,20.897,0.773,21.765,9.771    c-6.588,0.59-13.282,0.673-19.867,0.668C75.635,423.386,65.044,424.049,58.659,424.589z M98.191,415.386    c-4.682-5.081-13.725-6.899-20.201-6.92c-9.761-0.03-17.714,3.547-22.009,11.397c0.001-0.246-0.009-0.491-0.006-0.739    c0.154-12.547-0.988-25.18-1.242-37.735c-0.132-6.514-0.998-12.917-1.054-19.475c-0.064-7.445-0.129-14.888-0.194-22.333    c-0.037-4.215-0.092-8.428-0.143-12.643c0.714,0.062,1.459,0.076,2.222,0.113c6.073,0.293,12.165,0.203,18.245,0.219    c7.763,0.022,16.226,0.055,23.896-1.504c0.004,0.72,0.011,1.441,0.01,2.16c-0.043,24.247-1.12,48.781,0.577,72.945    C98.627,405.638,98.29,410.568,98.191,415.386z M144.284,196.909c0.117-0.121,0.228-0.245,0.326-0.378    c1.743-2.339,2.203-5.735,2.883-8.518c1.178-4.828,2.298-9.652,3.077-14.558c-0.268,1.694,1.427-4.807,1.422-5.138    c0.292,0.437,0.565,0.887,0.807,1.356c1.164,1.956,2.089,4.221,3.951,5.644c0.553,0.422,1.076,0.711,1.582,0.928    c-0.758,3.88-0.575,8.447-0.724,12.022c-0.354,8.498-0.18,17.052-0.223,25.556c-0.037,7.475-0.505,14.914-0.473,22.387    c0.02,4.562-0.982,11.367,0.283,16.358c-3.925,0.165-7.848,0.368-11.774,0.595c-0.149-9.201-0.767-18.412-0.66-27.617    c0.069-5.937-0.437-11.823-0.48-17.763C144.256,204.271,144.768,200.465,144.284,196.909z M171.299,258.07    c0.01,1.657,0.007,3.312,0.011,4.969c-1.215-0.073-2.5,0.148-3.999,0.24c-4.58,0.286-9.158,0.569-13.73,0.886    c-5.425,0.378-10.817,0.494-16.259,0.659c-3.066,0.094-6.54,0.902-9.744,0.951c0.053-1.919,0.09-3.839,0.092-5.763    c0.473,0.005,0.977-0.144,1.488-0.518c0.284-0.208,0.789-0.302,1.402-0.329C143.926,260.687,157.999,259.404,171.299,258.07z     M133.755,186.678c1.083,1.755,2.219,4.599,2.601,5.351c1.194,2.354,2.123,3.944,4.286,5.444    c-0.261,9.734-0.394,19.421-0.547,29.174c-0.14,8.935,0.403,17.884,0.473,26.818c-2.522,0.187-5.037,0.396-7.57,0.417    c-1.529,0.012-3.715-0.256-5.404,0.23c-0.219-8.034-0.554-16.082-0.832-24.116c-0.123-3.544-0.028-7.472-0.255-11.338    c-0.113-0.692-0.202-1.386-0.305-2.079C129.651,207.089,130.293,196.268,133.755,186.678z M121.288,473.6    c-3.29-0.377-6.786,0.048-9.929,0.755c-2.578,0.579-5.468,0.362-8.033,1.044c0.316-0.638,0.595-1.301,0.794-2.011    c0.929-3.323-0.121-6.513-0.342-9.83c-0.302-4.51,0.475-8.816,0.585-13.273c0.444-17.991,0.452-36.002,0.325-54.022    c1.544,0.339,3.114,0.352,4.761,0.458c2.829,0.181,5.798,0.774,8.454-0.358c0.634-0.271,0.953-0.961,0.966-1.662    c-0.007,5.869,0.033,11.738,0.034,17.605c0.002,9.25,0.006,18.502,0.006,27.752c0.001,5.409-0.305,10.409-0.007,15.45    c-0.273,3.162-0.348,6.589,0.043,9.893c-0.148,0.782-0.03,1.619,0.359,2.302C119.711,469.797,120.356,471.793,121.288,473.6z     M119.003,381.976c-0.102,4.21-0.129,8.422-0.135,12.635c-0.014-0.7-0.332-1.393-0.966-1.664    c-4.079-1.739-8.875-0.026-13.236,0.266c-0.176-22.149-0.538-44.313-0.577-66.476c-0.016-8.925-0.428-17.773-0.654-26.673    c1.294,0.341,2.645,0.393,4.221,0.292c0.579-0.037,1.183-0.066,1.796-0.103c1.883,0.171,3.767,0.121,5.937-0.161    c1.542-0.201,2.783-0.238,3.721-0.575c-0.015,0.908-0.043,1.817-0.049,2.726c-0.06,10.113-0.155,20.228-0.175,30.341    c-0.015,8.112-0.242,15.999-0.611,24.052C117.886,365.135,119.21,373.527,119.003,381.976z M105.956,156.164    c0.138-10.729,2.5-21.115,4.004-31.671c0.687-4.817,1.792-9.53,2.318-14.352c0.261-2.399,0.395-4.879,0.651-7.336    c0.342,1.978,0.668,3.692,0.735,4.021c1.163,5.682,1.045,11.523,2.02,17.235c1.861,10.895,0.731,22.395,1.632,33.387    c0.406,4.948,0.598,9.93,0.716,14.917c-2.046,0.497-4.719,0.383-6.819,0.514c-2.021,0.127-3.939,0.062-5.843,0.357    C105.695,167.544,105.882,161.843,105.956,156.164z M105.142,176.943c2.387,0.508,4.97,0.543,7.313,0.377    c1.855-0.13,3.837,0.001,5.67-0.363c0.021,1.398,0.043,2.797,0.058,4.195c-0.78-0.001-1.536,0.127-2.459,0.297    c-1.946,0.358-3.763,0.298-5.727,0.384c-1.491,0.065-3.604,0.649-5.262,0.452C104.892,180.505,105.019,178.724,105.142,176.943z     M103.403,279.141c1.077-5.171,0.948-10.985,1.036-15.874c0.14-7.761,0.59-15.48,0.357-23.236    c-0.41-13.658-0.158-27.721-1.39-41.455c0.279-4.036,0.527-8.072,0.951-12.101c0.006-0.054,0.009-0.11,0.015-0.164    c1.068,0.289,2.255,0.341,3.339,0.302c1.516-0.057,3-0.062,4.519-0.028c2.056,0.046,4.003-0.385,6.009-0.518    c0.025,2.12,0.052,4.238,0.091,6.35c0.116,6.047-1.148,11.936-0.911,18.043c0.149,3.854,0.594,8.166,1.379,12.192    c-0.036,1.051-0.053,1.829-0.034,2.038c0.329,3.69,1.119,7.309,1.595,11.004c0.009,0.07,0.016,0.139,0.025,0.209    c-0.222,6.073-0.446,12.149-0.631,18.219c-0.234,7.669-0.086,15.332,0.611,22.973c-0.56,5.858-0.939,11.733-1.14,17.619    c-1.446-0.231-3.264,0.066-4.615,0.327c-2.623-0.871-5.812-0.431-8.4-0.031c-0.782,0.121-1.859,0.118-2.883,0.242    c-0.014-0.627-0.032-1.253-0.038-1.882C103.24,288.578,103.308,283.885,103.403,279.141z M123.179,487.098    c-2.906,2.019-10.327,0.689-13.917,0.731c-1.94,0.022-5.908,0.298-7.654-0.811c-1.258-0.8-1.358-1.041-1.497-3.355    c-0.127-2.1,0.656-3.765,1.588-5.393c2.478,1.23,5.761,1.366,8.413,0.982c2.297-0.332,4.436-1.002,6.793-1.114    c2.296-0.108,4.377,0.103,6.577-0.352C124.883,481.082,125.765,485.302,123.179,487.098z M158.426,458.225    c0.038,8.333-0.735,16.658-0.58,24.988c-2.586,0.183-5.175,0.354-7.767,0.507c-2.786-0.063-5.631-0.122-8.476-0.103    c1.388-12.672-3.261-25.672,1.62-38.192c1.03-2.643,2.66-5.225,5.419-6.436c1.889-0.96,3.547-0.441,4.977,1.561    c2.453,0.513,3.688,1.898,3.703,4.151C158.982,448.383,158.407,454.167,158.426,458.225z M167.212,482.434    c-1.313,0.05-2.664,0.186-4.015,0.35c-1.022-11.594,0.443-23.325-1.24-34.88c-1.328-9.116-4.745-16.59-15.118-12.381    c-7.374,2.992-9.112,13.091-9.617,20.119c-0.66,9.179,0.084,18.869,1.664,28.023c-2.834,0.081-5.649,0.267-8.381,0.659    c-0.064-1.295-0.201-2.56-0.257-3.664c-0.262-5.138-3.124-6.878-4.847-11.321c-0.35-0.9-0.553-1.787-0.681-2.674    c0.11-0.613,0.052-1.257-0.169-1.835c-0.065-1.596,0.023-3.213-0.021-4.913c-0.003-0.105-0.02-0.194-0.025-0.297    c2.004-10.564,1.95-21.657,1.721-32.593c1.938,0.161,3.866-0.097,6.018-0.171c4.878-0.169,9.856,0.075,14.738,0.15    c4.196,0.064,8.285-0.601,12.485-0.619c3.155-0.015,6.355,0.415,9.476-0.027c0.005,7.331,0.015,14.663,0.009,21.994    c-0.006,8.065-0.674,16.369-0.185,24.414c0.153,2.528,0.259,6.221,1.077,9.37C168.969,482.238,168.092,482.344,167.212,482.434z     M127.37,423.716c3.157-7.26,11.477-11.444,19.256-10.976c6.697,0.404,19.748,0.928,20.379,9.484    c-3.027,0.245-6.364-0.274-9.328-0.22c-3.598,0.066-7.093,0.689-10.695,0.702c-4.183,0.013-8.381-0.097-12.564,0.027    C133.723,422.753,130.191,423.258,127.37,423.716z M170.841,294.689c-1.224,33.323-1.67,66.781-1.849,100.19    c-0.037,6.849-0.037,13.698-0.038,20.546c-4.6-5.336-14.593-6.448-21.308-6.899c-7.301-0.491-16.892,2.723-21.614,9.031    c-0.027-1.761-0.047-3.515-0.047-5.255c0.003-9.78-0.222-19.592,0.078-29.367c0.27-8.779-1.233-17.488-0.682-26.301    c1.13-18.04,0.555-36.253,0.447-54.392c-0.028-4.855-0.213-9.851-0.225-14.818c0.534-3.031,1.03-6.068,1.286-9.141    c0.277-3.314,0.475-6.62,0.606-9.925c0.398,0.076,0.81,0.13,1.238,0.175c5.49,0.574,11.701,0.359,17.213,0.112    c4.222-0.19,8.423-0.309,12.645-0.463c2.314-0.084,4.627-0.459,6.941-0.544c1.471-0.054,3.993-0.633,5.789-0.473    C171.307,276.347,171.177,285.523,170.841,294.689z M171.454,164.021c-0.953,8.139-1.103,16.807-1.077,25.017    c0.068,21.019,0.673,42.1,0.88,63.173c-2.957,0.015-5.91,0.085-8.86,0.175c0.1-0.931,0.022-1.91-0.073-3.113    c-0.282-3.619-0.304-7.203-0.358-10.837c-0.112-7.516,0.257-14.991,0.22-22.505c-0.041-8.088-0.016-16.18-0.156-24.269    c-0.054-3.093,0.069-6.187,0.011-9.274c-0.034-1.855-0.523-3.982-0.62-5.988c2.635-0.976,4.386-4.728,5.432-7.709    c1.168-3.327,1.641-7.325,3.223-10.405C172.165,154.215,171.55,163.191,171.454,164.021z M297.89,122.735    c0.583-0.37,1.036-1.02,1.156-1.96c1.194-9.37-0.038-19.035-0.069-28.485c-0.027-8.594-0.233-17.635,1.679-26.066    c2.073-9.141,4.919-17.612,5.929-27.016c0.21-1.961-0.129-8.641,0.652-13.358c1.226,6.873,2.006,13.871,2.779,20.768    c0.889,7.923,2.475,15.683,3.392,23.587c1.06,9.126,0.981,18.122,1.236,27.297c0.119,4.277,0.558,8.657,0.31,12.923    c-0.032,0.549-0.055,1.065-0.075,1.567c-0.111,1.498-0.165,2.973-0.036,4.468c-1.065,0.375-1.761,1.472-1.795,2.575    c-0.004,0.085-0.005,0.17-0.007,0.255c-0.042,1.37,1.061,2.464,2.346,2.658c0.615,0.092,1.156-0.032,1.617-0.295    c0.156,0,0.313,0.002,0.469,0.007c0.394,0.015,0.78,0.071,1.172,0.113c1.041,0.116,2.005-0.13,2.933-0.586    c1.276-0.625,1.206-2.643,0-3.288c-0.433-0.231-0.86-0.453-1.289-0.66c1.598-7.275,0.646-15.615,0.766-22.865    c0.138-8.355,0.996-16.978,2.233-25.188c1.15-7.623,3.064-15.229,3.982-22.881c0.462-3.847,1.358-7.497,1.609-11.392    c0.006-0.098,0.007-0.198,0.014-0.297c0.004,0.031,0.005,0.066,0.009,0.097c0.414,3.621,0.654,7.353,1.313,11.002    c1.647,9.094,3.575,17.698,4.29,26.907c0.681,8.767-0.872,17.694-0.027,26.439c0.159,1.644,0.215,3.301,0.228,4.963    c-0.537,9.578-0.515,19.206-0.592,28.808c-5.859-1.023-12.153-0.582-17.998-0.667c-6.135-0.09-11.984-0.783-18.108-0.762    c-0.127-1.287-0.427-2.603-0.496-3.684C297.408,126.062,297.63,124.397,297.89,122.735z M294.831,151.122    c0.364-4.681,1.013-9.377,1.427-14.072c0.293,0.101,0.612,0.174,0.975,0.178c6.369,0.085,12.472,0.561,18.885,0.468    c5.839-0.085,12.105,0.354,17.953-0.659c-0.031,2.48-0.071,4.959-0.14,7.435c-0.183,6.534-1.134,12.672-0.57,19.298    c0.763,8.979,0.805,18.501,0.758,27.516c-0.087,16.731-0.257,33.469-0.412,50.211c-6.363-1.119-13.434-1.52-19.701-1.466    c-3.928,0.034-7.808,1.04-11.711,1.348c-2.427,0.191-4.538,0.129-6.691,0.571c0.034-9.6-0.535-19.258-0.825-28.848    c-0.007-0.26-0.023-0.517-0.032-0.777c1.6-5.972,0.471-12.991,0.311-19.026c-0.166-6.296-0.282-12.479-0.407-18.773    C294.496,166.818,294.233,158.808,294.831,151.122z M292.728,296.26c0.108-4.809,1.257-9.479,1.297-14.286    c0.034-4.128-0.219-8.101,0.161-12.223c0.726-7.891,1.212-15.987,1.366-23.927c6.018,1.459,12.281-0.603,18.451-0.644    c6.702-0.043,13.057,0.721,19.671-0.222c-0.126,13.817-0.236,27.637-0.27,41.461c-0.007,3.279,0.134,6.548,0.343,9.813    c-2.66-0.256-5.606-1.157-7.818-1.337c-4.87-0.398-10.095-0.219-14.991-0.102c-3.929,0.094-7.427,1.233-11.247,1.516    c-2.299,0.171-4.658,0.114-6.972,0.297C292.725,296.493,292.726,296.377,292.728,296.26z M292.662,300.224    c6.978,1.691,14.269-0.177,21.491-0.199c5.531-0.017,11.006,0.444,16.462,0.483c1.147,0.009,2.314-0.028,3.433-0.209    c0.098,1.237,0.206,2.473,0.316,3.71c-13.87,1.418-27.912-0.895-41.743,0.603C292.639,303.149,292.639,301.686,292.662,300.224z     M219.367,304.18c-6.664,0.223-13.302,0.828-19.959,0.436c-7.127-0.421-14.609-0.814-21.799-0.378    c0.117-1.313,0.231-2.626,0.337-3.94c1.119,0.181,2.286,0.218,3.433,0.209c5.457-0.039,10.932-0.5,16.462-0.483    c7.223,0.022,14.512,1.891,21.492,0.199C219.354,301.542,219.352,302.861,219.367,304.18z M217.969,281.974    c0.041,4.808,1.189,9.477,1.297,14.286c0.002,0.116,0.004,0.233,0.006,0.348c-2.314-0.183-4.673-0.126-6.972-0.297    c-3.821-0.284-7.318-1.423-11.247-1.516c-4.897-0.117-10.122-0.295-14.991,0.102c-2.211,0.181-5.158,1.081-7.818,1.337    c0.209-3.264,0.352-6.534,0.343-9.813c-0.032-13.824-0.144-27.644-0.27-41.461c6.614,0.943,12.969,0.178,19.671,0.222    c6.172,0.041,12.435,2.102,18.451,0.644c0.154,7.938,0.64,16.035,1.366,23.927C218.188,273.875,217.933,277.847,217.969,281.974z     M215.737,137.052c0.414,4.693,1.062,9.389,1.427,14.072c0.598,7.686,0.335,15.695,0.181,23.405    c-0.126,6.294-0.24,12.475-0.406,18.773c-0.16,6.036-1.288,13.054,0.311,19.026c-0.009,0.258-0.025,0.517-0.032,0.777    c-0.289,9.591-0.859,19.249-0.825,28.848c-2.153-0.442-4.264-0.38-6.691-0.571c-3.903-0.308-7.783-1.313-11.711-1.348    c-6.267-0.054-13.338,0.347-19.701,1.466c-0.154-16.743-0.325-33.481-0.412-50.211c-0.048-9.016-0.005-18.538,0.758-27.516    c0.564-6.626-0.387-12.765-0.57-19.298c-0.069-2.475-0.11-4.954-0.14-7.435c5.848,1.013,12.113,0.574,17.953,0.659    c6.414,0.094,12.516-0.383,18.885-0.468C215.126,137.224,215.444,137.153,215.737,137.052z M177.485,72.622    c0.715-9.208,2.643-17.813,4.29-26.907c0.661-3.65,0.901-7.381,1.313-11.002c0.004-0.031,0.006-0.066,0.009-0.097    c0.006,0.098,0.007,0.198,0.014,0.297c0.251,3.895,1.147,7.545,1.609,11.392c0.918,7.653,2.832,15.258,3.982,22.881    c1.238,8.21,2.095,16.833,2.233,25.188c0.119,7.25-0.832,15.592,0.766,22.865c-0.428,0.207-0.855,0.428-1.289,0.66    c-1.206,0.645-1.276,2.662,0,3.288c0.928,0.455,1.893,0.7,2.933,0.586c0.391-0.043,0.778-0.098,1.172-0.113    c0.155-0.006,0.313-0.007,0.469-0.007c0.462,0.262,1.002,0.388,1.617,0.295c1.285-0.193,2.388-1.288,2.346-2.658    c-0.002-0.085-0.005-0.17-0.007-0.255c-0.033-1.103-0.73-2.2-1.795-2.575c0.128-1.496,0.075-2.97-0.036-4.468    c-0.02-0.502-0.043-1.018-0.075-1.567c-0.247-4.266,0.191-8.646,0.31-12.923c0.255-9.175,0.177-18.171,1.236-27.297    c0.917-7.904,2.504-15.663,3.392-23.587c0.773-6.896,1.555-13.895,2.779-20.768c0.782,4.717,0.442,11.398,0.652,13.358    c1.011,9.404,3.856,17.875,5.929,27.016c1.913,8.431,1.706,17.473,1.679,26.066c-0.03,9.45-1.263,19.115-0.069,28.485    c0.022,0.174,0.081,0.314,0.124,0.468c-0.114,1.598-0.165,3.2-0.247,4.761c-0.078,1.489-0.097,3.544,0.223,5.4    c-5.787,0.047-11.35,0.676-17.172,0.761c-5.846,0.085-12.139-0.356-17.998,0.667c-0.078-9.602-0.054-19.231-0.592-28.808    c0.012-1.662,0.069-3.317,0.228-4.963C178.357,90.317,176.805,81.388,177.485,72.622z M176.851,424.047    c-0.007-9.478-0.034-18.955-0.081-28.432c1.145,0.078,2.287,0.096,3.357,0.154c5.633,0.305,11.257-0.308,16.891-0.236    c5.417,0.069,10.799-0.022,16.173-0.204c1.391-0.047,2.772-0.09,4.083-0.347c-0.201,5.916-0.416,11.832-0.682,17.758    c-0.267,5.945-0.241,11.909-0.191,17.859c0.043,4.98,0.916,9.788,0.67,14.8c-0.262,5.336-0.747,10.697-0.401,16.041    c0.106,1.631,0.38,3.229,0.71,4.817c-0.036,0.531-0.068,1.062-0.097,1.593c-2.713-0.214-4.957,0.517-7.804,0.583    c-3.575,0.085-7.101-0.223-10.673,0.126c-7.427,0.723-14.913-1.019-22.312-0.331C175.974,453.597,176.861,438.665,176.851,424.047    z M216.993,478.729c-0.952,3.252-3.978,4.201-7.497,4.281c-2.536,0.058-5.271,0.028-7.74,0.013    c-5.627-0.033-11.418,0.494-17.122,0.199c-2.778-0.144-6.054-0.534-7.056-3.021c-0.772-1.917-0.846-6.45-0.949-8.416    c-0.006-0.129-0.009-0.261-0.015-0.39c13.332,2.228,27.421,1.681,40.692,0.231C217.417,474.093,217.56,476.788,216.993,478.729z     M219.462,352.478c-0.025,10.288-1.497,20.556-1.811,30.852c-0.064,2.111-0.138,4.216-0.206,6.323    c-1.375-0.082-2.819,0.169-4.478,0.081c-3.954-0.207-7.781,0.427-11.796,0.41c-5.02-0.021-9.905,0.165-14.903,0.566    c-2.63,0.21-5.278,0.235-7.904,0.471c-0.42,0.038-0.996,0.14-1.624,0.251c-0.031-5.334-0.055-10.666-0.111-16.001    c-0.161-15.736-0.709-31.461-0.624-47.199c0.037-6.919,0.671-13.794,1.301-20.667c6.552,1.802,14.093,0.906,20.711,1.444    c7.145,0.581,14.239,0.017,21.391-0.145c0.039,5.938,0.05,11.876,0.044,17.816c-0.005,4.098,0.753,8.038,0.806,12.104    C220.32,343.376,219.473,347.883,219.462,352.478z M271.399,448.212c-0.212,4.83-0.407,10.054-1.23,14.791    c-0.868,4.989-1.124,10.091-0.719,15.148c0.047,0.587,0.07,1.305,0.103,2.074c-2.778-0.015-5.822,0.432-7.153,0.422    c-5.571-0.036-11.018,0.267-16.553,0.736c-1.155,0.097-2.32,0.119-3.48,0.149c0.087-1.259,0.103-2.472,0.176-3.381    c0.405-5.055,0.149-10.158-0.719-15.148c-0.822-4.738-1.018-9.961-1.23-14.791c-0.239-5.409-0.529-10.786-0.544-16.219    c-0.016-5.559,0.688-9.829,3.011-14.835c0.569-1.226,0.516-1.763,1.097-2.355c3.206-0.353,6.547-1.584,9.674-1.845    c4.734-0.395,8.856,0.59,13.295,1.284c1.4,0.897,1.068,1.326,1.806,2.916c2.323,5.006,3.027,9.276,3.011,14.835    C271.928,437.425,271.638,442.803,271.399,448.212z M288.52,472.947c-0.076,3.102-0.705,6.61-0.373,9.692    c-1.846-0.224-3.709-0.353-5.558-0.435c-1.236-0.054-5.86,0.073-6.466,0.129c0.197-0.379-0.206-4.547-0.241-4.936    c-0.523-5.614,0.448-10.735,1.163-16.21c0.66-5.053,0.473-10.555,0.522-15.671c0.063-6.452,0.855-12.857,0.609-19.377    c-0.18-4.745-2.102-7.523-4.169-11.648c-1.509-3.012-4.2-5.048-7.39-5.763c-4.343-1.807-8.453-2.207-13.865-1.489    c-2.129,0.282-4.623,0.619-6.867,1.396c-3.412,0.606-6.311,2.686-7.899,5.857c-2.067,4.125-3.989,6.903-4.169,11.648    c-0.247,6.52,0.545,12.925,0.609,19.377c0.05,5.116-0.138,10.617,0.522,15.671c0.715,5.475,1.686,10.597,1.163,16.21    c-0.036,0.388-0.437,4.557-0.241,4.936c-0.606-0.057-5.23-0.183-6.466-0.129c-1.848,0.081-3.71,0.21-5.558,0.435    c0.334-3.082-0.297-6.59-0.373-9.692c-0.042-1.723-0.133-3.439-0.238-5.153c0.08-1.081,0.139-2.174,0.159-3.293    c0.084-4.868,0.506-9.856,0.945-14.709c0.851-9.426-0.16-18.63-0.137-28.081c0.018-7.372,0.26-14.74,0.561-22.108    c3.89,0.627,8.712-0.228,12.259-0.127c6.786,0.192,13.659,0.284,20.438-0.094c6.455-0.361,12.991-0.074,19.456,0.03    c3.076,0.049,7.04,0.245,10.283-0.527c0.315,7.607,0.571,15.215,0.59,22.827c0.023,9.451-0.988,18.654-0.137,28.081    c0.438,4.854,0.862,9.841,0.945,14.709c0.02,1.119,0.079,2.212,0.159,3.293C288.653,469.508,288.562,471.224,288.52,472.947z     M226.126,304.997c0.126-4.685,0.894-9.428,0.65-14.115c-0.149-2.867-0.446-5.65-0.627-8.46c4.18,0.761,8.47,0.29,12.715,0.699    c5.734,0.553,11.3,0.5,17.047,0.391c5.666-0.107,11.315-0.092,16.994-0.102c3.978-0.007,8.789,0.086,12.923-0.775    c-0.182,2.738-0.466,5.452-0.612,8.246c-0.244,4.687,0.524,9.43,0.65,14.115c0.508,18.842-0.145,37.499,0.016,56.284    c0.052,6.073,0.247,12.143,0.487,18.21c-0.153-0.204-0.299-0.409-0.474-0.614c-2.669-3.135-4.351-5.126-8.286-6.972    c-6.994-3.28-14.016-5.655-21.612-3.652c-7.596-2.001-14.618,0.373-21.612,3.652c-3.936,1.846-5.618,3.837-8.286,6.972    c-0.175,0.206-0.321,0.41-0.474,0.614c0.24-6.067,0.436-12.137,0.487-18.21C226.271,342.496,225.618,323.839,226.126,304.997z     M237.326,275.724c6.179,0.194,12.121,0.287,18.261-0.452c10.053-1.21,20.277,0.475,30.401-0.687    c-0.012,0.789-0.03,1.578-0.007,2.367c0.007,0.261,0.004,0.518,0.006,0.778c-10.314,1.039-20.743,1.109-31.093,1.469    c-5.115,0.177-10.034,0.377-15.153-0.041c-4.513-0.368-9.244-0.482-13.719,0.48c-0.023-0.889-0.033-1.782-0.009-2.686    c0.017-0.641-0.001-1.281-0.006-1.923C229.707,275.685,233.63,275.608,237.326,275.724z M232.186,271.192    c1.536-0.641,2.998-1.359,4.199-1.873c5.714-2.446,11.132-5.513,16.948-7.704c6.252-2.355,13.146,3.242,18.803,5.623    c2.233,0.939,4.785,1.865,7.282,2.835c-3.018,0.137-6.044,0.311-9.031,0.313c-5.202,0.001-10.452-0.484-15.618,0.139    c-6.558,0.789-12.985,0.475-19.572,0.639C234.243,271.186,233.222,271.177,232.186,271.192z M285.039,385.854    c-3.812,1.622-10.26,0.724-14.767,0.326c-7.745-1.568-16.13-0.652-23.936-0.534c-4.541,0.069-9.041,0.148-13.563-0.025    c-1.854-0.071-3.523-0.011-5.146,0.47c-0.228-0.075-0.458-0.149-0.67-0.24c1.93-2.144,3.557-5.017,5.326-6.595    c3.285-2.932,8.21-4.958,12.337-6.567c3.758-1.465,7.549-1.371,11.377-2.157c3.828,0.785,7.619,0.692,11.377,2.157    c4.126,1.608,9.052,3.635,12.337,6.567C281.48,380.837,283.108,383.711,285.039,385.854z M232.56,390.967    c0.03,0.001,0.059,0.001,0.089,0.004c4.622,0.619,9.684,0.297,13.685,0.377c7.422,0.148,15.397,0.954,22.822-0.324    c3.437,0.062,6.836,0.15,10.277-0.055c1.834-0.11,5.075-0.396,7.363-1.408c0.071,1.599,0.14,3.198,0.211,4.797    c-1.145,0.496-3.941,0.341-5.127,0.487c-2.886,0.354-5.789,0.15-8.688,0.145c-6.153-0.01-12.256,0.07-18.398,0.332    c-6.28,0.267-12.606,0.103-18.892,0.14c-3.53,0.021-7.447,0.014-11.006,0.904c0.098-2.269,0.198-4.537,0.299-6.806    C227.485,390.571,230.726,390.857,232.56,390.967z M289.794,212.396c-0.022,1.738-0.057,3.481-0.111,5.247    c-0.334,10.913-1.05,21.83-1.489,32.672c-0.247,6.089-1.304,12.189-1.869,18.298c-4.633-2.486-9.586-4.249-14.38-6.396    c-4.515-2.022-11.072-6.67-16.285-6.268c-2.626,0.203-5.414,2.411-7.776,3.309c-3.181,1.208-6.054,2.525-9.09,4.095    c-2.291,1.184-4.666,2.04-6.978,3.092c-2.198,1.001-4.003,2.507-6.035,3.669c-0.51-6.611-1.715-13.213-1.982-19.8    c-0.439-10.842-1.156-21.759-1.491-32.672c-0.053-1.765-0.089-3.508-0.111-5.247c3.338-9.787,1.766-21.888,0.215-31.737    c-1.064-6.759-0.462-14.107-0.305-21.006c3.428,1.204,7.517,0.917,11.067,1.211c6.491,0.539,12.565-0.222,19.002-0.277    c12.577-0.108,25.187-0.836,37.702-1.038c0.153,6.928,0.767,14.314-0.303,21.108C288.029,190.506,286.456,202.609,289.794,212.396    z M289.822,136.505c-0.172,5.559-0.108,11.152-0.033,16.734c-0.244,0.054-0.48,0.138-0.702,0.262    c-2.782,1.563-10.423,0.484-14.227,0.527c-6.526,0.073-13.018,0.674-19.563,0.734c-5.828,0.053-11.5,1.081-17.314,0.928    c-5.218-0.137-10.575-0.838-15.801-0.512c0.082-6.226,0.183-12.47-0.009-18.673c-0.162-5.244-1.604-10.805-1.413-16.012    c0.247-6.722,7.534-9.305,11.832-13.572c3.23-3.208,7.144-5.34,10.351-8.816c2.553-2.766,6.494-6.317,8.006-10.076    c1.579-1.572,3.319-2.571,6.084-1.755c0.012,0.004,0.023,0.009,0.034,0.012c2.324,2.453,5.15,4.711,7.047,6.518    c1.635,1.946,3.506,3.747,4.938,5.3c1.118,1.211,2.324,2.256,3.555,3.243c1.516,1.535,3.044,3.055,4.617,4.51    c3.876,3.582,8.326,7.72,12.859,10.641c0.662,1.166,1.094,2.469,1.15,3.993C291.426,125.7,289.985,131.261,289.822,136.505z     M335.365,471.788c-0.103,1.966-0.176,6.499-0.949,8.416c-1.002,2.486-4.277,2.877-7.056,3.021    c-5.703,0.295-11.496-0.233-17.122-0.199c-2.468,0.015-5.204,0.044-7.74-0.013c-3.518-0.081-6.546-1.029-7.497-4.281    c-0.568-1.942-0.425-4.637-0.314-7.101c13.271,1.451,27.359,1.998,40.692-0.231C335.373,471.527,335.371,471.658,335.365,471.788z     M335.502,468.228c-7.4-0.689-14.885,1.054-22.312,0.331c-3.572-0.348-7.099-0.041-10.673-0.126    c-2.847-0.066-5.092-0.798-7.804-0.583c-0.03-0.532-0.062-1.062-0.097-1.593c0.33-1.587,0.604-3.184,0.71-4.817    c0.347-5.345-0.139-10.705-0.401-16.041c-0.246-5.012,0.627-9.82,0.67-14.8c0.05-5.95,0.076-11.914-0.191-17.859    c-0.266-5.927-0.483-11.843-0.682-17.758c1.311,0.257,2.693,0.3,4.083,0.347c5.374,0.182,10.755,0.272,16.173,0.204    c5.634-0.071,11.258,0.542,16.891,0.236c1.07-0.058,2.212-0.078,3.357-0.154c-0.047,9.477-0.074,18.954-0.08,28.432    C335.132,438.665,336.021,453.597,335.502,468.228z M335.364,375.433c-0.055,5.334-0.079,10.667-0.111,16.001    c-0.628-0.111-1.204-0.213-1.624-0.251c-2.627-0.236-5.273-0.261-7.904-0.471c-4.999-0.401-9.884-0.587-14.903-0.566    c-4.015,0.016-7.843-0.618-11.797-0.41c-1.659,0.087-3.103-0.164-4.478-0.081c-0.068-2.107-0.14-4.213-0.206-6.323    c-0.314-10.295-1.786-20.564-1.811-30.852c-0.011-4.594-0.858-9.1-0.798-13.693c0.054-4.066,0.811-8.006,0.806-12.104    c-0.006-6.278,0.005-12.553,0.053-18.829c5.721,1.851,13.38,0.843,18.987,1.084c7.473,0.321,15.741,0.955,23.2-0.34    c0.597,6.53,1.172,13.064,1.206,19.638C336.073,343.972,335.525,359.697,335.364,375.433z M394.676,157.448    c0.901-10.992-0.228-22.492,1.633-33.387c0.975-5.711,0.857-11.553,2.02-17.235c0.068-0.331,0.393-2.043,0.735-4.021    c0.256,2.457,0.39,4.937,0.651,7.336c0.526,4.823,1.632,9.536,2.318,14.352c1.505,10.556,3.866,20.943,4.004,31.671    c0.071,5.505,0.251,11.029,0.556,16.548c-4.128-0.271-8.938-0.798-12.657,0.655C394.05,168.044,394.244,162.727,394.676,157.448z     M393.881,176.116c2.047,0.724,4.388,0.746,6.513,0.753c2.18,0.009,4.324,0.277,6.483,0.4c0.117,1.673,0.235,3.344,0.383,5.014    c-1.658,0.197-3.772-0.387-5.262-0.452c-1.966-0.086-3.781-0.026-5.727-0.384c-0.922-0.17-1.679-0.299-2.459-0.297    C393.831,179.473,393.854,177.794,393.881,176.116z M391.635,235.696c0.476-3.696,1.267-7.315,1.595-11.004    c0.018-0.208,0-0.987-0.034-2.038c0.784-4.026,1.23-8.337,1.379-12.192c0.236-6.107-1.027-11.995-0.911-18.043    c0.041-2.113,0.068-4.232,0.091-6.35c2.006,0.133,3.954,0.563,6.009,0.518c1.519-0.033,3.002-0.027,4.519,0.028    c1.084,0.041,2.271-0.011,3.34-0.302c0.005,0.054,0.009,0.11,0.015,0.164c0.426,4.028,0.673,8.064,0.952,12.101    c-1.231,13.733-0.98,27.798-1.39,41.455c-0.233,7.756,0.217,15.474,0.357,23.236c0.089,4.889-0.042,10.702,1.036,15.874    c0.095,4.744,0.162,9.437,0.116,14.232c-0.006,0.629-0.025,1.254-0.038,1.882c-1.025-0.126-2.101-0.122-2.883-0.242    c-2.587-0.399-5.775-0.839-8.4,0.031c-1.352-0.261-3.168-0.559-4.615-0.327c-0.201-5.886-0.58-11.761-1.14-17.619    c0.695-7.64,0.844-15.303,0.611-22.973c-0.186-6.07-0.41-12.145-0.631-18.219C391.62,235.835,391.626,235.766,391.635,235.696z     M393.72,356.634c-0.368-8.051-0.595-15.939-0.611-24.052c-0.02-10.113-0.113-20.228-0.175-30.341    c-0.005-0.91-0.033-1.818-0.049-2.727c0.938,0.339,2.179,0.374,3.721,0.575c2.17,0.282,4.053,0.332,5.937,0.161    c0.612,0.036,1.217,0.066,1.796,0.103c1.574,0.101,2.927,0.049,4.221-0.292c-0.226,8.899-0.639,17.747-0.654,26.673    c-0.039,22.164-0.403,44.326-0.577,66.476c-4.361-0.292-9.157-2.005-13.236-0.266c-0.634,0.271-0.954,0.964-0.966,1.664    c-0.006-4.213-0.033-8.426-0.135-12.635C392.785,373.527,394.108,365.135,393.72,356.634z M392.691,467.7    c0.389-0.683,0.507-1.52,0.359-2.302c0.391-3.304,0.316-6.732,0.043-9.893c0.298-5.043-0.007-10.043-0.007-15.45    c0.001-9.25,0.005-18.502,0.006-27.752c0.001-5.865,0.042-11.736,0.034-17.605c0.014,0.7,0.332,1.391,0.966,1.662    c2.655,1.132,5.625,0.539,8.454,0.358c1.647-0.105,3.218-0.119,4.761-0.458c-0.128,18.021-0.119,36.031,0.325,54.022    c0.11,4.457,0.886,8.763,0.585,13.273c-0.222,3.317-1.272,6.507-0.342,9.83c0.199,0.71,0.476,1.374,0.794,2.011    c-2.564-0.682-5.455-0.465-8.033-1.044c-3.143-0.705-6.64-1.131-9.929-0.755C391.639,471.793,392.284,469.797,392.691,467.7z     M370.756,201.364c0.031-1.268,0.208-2.506,0.318-3.725c0.06-0.034,0.122-0.054,0.181-0.094c2.238-1.521,3.171-3.125,4.383-5.516    c0.382-0.752,1.518-3.596,2.601-5.351c3.461,9.59,4.104,20.41,7.553,29.9c-0.103,0.693-0.193,1.387-0.307,2.079    c-0.226,3.866-0.132,7.795-0.255,11.338c-0.256,7.394-0.553,14.799-0.771,22.196c-4.463-0.107-8.933-0.144-13.405-0.193    c0-10.767,0.215-21.547,0.047-32.299C371.008,213.605,370.605,207.456,370.756,201.364z M355.244,175.318    c1.862-1.423,2.787-3.688,3.951-5.644c0.241-0.469,0.515-0.919,0.807-1.357c-0.005,0.331,1.691,6.832,1.422,5.138    c0.779,4.906,1.899,9.729,3.077,14.558c0.656,2.691,1.12,5.945,2.724,8.273c-0.511,2.669-0.695,6.857-0.716,7.293    c-0.261,5.741-0.185,11.544-0.268,17.292c-0.149,10.354-0.437,20.695-0.485,31.061c-2.086-0.036-4.174-0.081-6.259-0.148    c-1.173-0.037-2.41-0.128-3.676-0.233c1.036-5.963-0.481-12.341-0.395-18.35c0.101-6.982-0.186-13.946-0.5-20.918    c-0.304-6.733-0.919-13.434-0.944-20.177c-0.021-5.388,0.17-10.46-0.748-15.684C353.868,176.212,354.536,175.86,355.244,175.318z     M359.498,256.696c8.216,0.357,16.638,0.662,24.862,0.5c-0.016,1.276-0.009,2.549-0.002,3.822    c-2.355-0.315-4.695-0.066-7.227,0.103c-5.082,0.341-10.258,0.086-15.351,0.133c-6.633,0.06-14.439-1.247-21.103,0.064    c0.007-2.037,0.01-4.074,0.026-6.112C346.833,256.445,353.313,256.428,359.498,256.696z M341.921,158.287    c1.581,3.08,2.054,7.078,3.223,10.405c0.98,2.793,2.575,6.274,4.938,7.506c-0.844,4.869-0.681,10.244-0.79,15.064    c-0.16,7.017,0.394,14.009,0.586,21.02c0.181,6.615,0.439,13.237,0.341,19.857c-0.09,6.059-0.31,12.911,0.768,18.998    c-3.46-0.279-6.989-0.448-10.235,0.022c0.217-20.724,0.801-41.452,0.868-62.122c0.026-8.209-0.124-16.877-1.077-25.017    C340.444,163.191,339.829,154.215,341.921,158.287z M340.666,264.163c7.262,1.423,14.797,1.274,22.174,1.344    c5.256,0.05,10.508,0.161,15.753-0.01c1.956-0.064,3.933,0.032,5.828-0.239c0.105,4.34,0.321,8.677,0.684,13.026    c0.256,3.072,0.752,6.11,1.286,9.141c-0.012,4.967-0.197,9.963-0.225,14.818c-0.108,18.139-0.683,36.353,0.447,54.392    c0.551,8.813-0.952,17.522-0.682,26.301c0.299,9.775,0.075,19.588,0.078,29.367c0,1.739-0.02,3.493-0.047,5.255    c-4.722-6.307-14.313-9.522-21.614-9.031c-6.716,0.452-16.708,1.563-21.308,6.899c-0.001-6.849-0.001-13.698-0.038-20.546    c-0.178-33.409-0.625-66.867-1.849-100.19C340.781,284.524,340.657,274.345,340.666,264.163z M384.625,423.716    c-2.822-0.458-6.353-0.963-7.048-0.984c-4.183-0.124-8.381-0.012-12.564-0.027c-3.603-0.012-7.097-0.635-10.695-0.702    c-2.964-0.054-6.3,0.464-9.328,0.22c0.63-8.556,13.682-9.08,20.379-9.484C373.148,412.272,381.466,416.456,384.625,423.716z     M370.391,483.615c-2.845-0.018-5.69,0.042-8.476,0.103c-2.592-0.153-5.181-0.324-7.767-0.507    c0.155-8.328-0.618-16.654-0.58-24.988c0.018-4.058-0.556-9.842,1.104-13.525c0.016-2.253,1.251-3.637,3.703-4.151    c1.429-2.001,3.087-2.521,4.977-1.561c2.758,1.212,4.388,3.794,5.419,6.436C373.652,457.944,369.003,470.943,370.391,483.615z     M381.747,480.658c-0.057,1.103-0.193,2.37-0.256,3.664c-2.733-0.391-5.548-0.577-8.381-0.659    c1.58-9.154,2.323-18.844,1.664-28.023c-0.505-7.027-2.243-17.127-9.617-20.119c-10.374-4.21-13.791,3.264-15.118,12.381    c-1.684,11.556-0.218,23.286-1.24,34.88c-1.352-0.164-2.702-0.299-4.015-0.35c-0.88-0.09-1.755-0.196-2.633-0.297    c0.82-3.149,0.924-6.841,1.078-9.37c0.49-8.045-0.178-16.349-0.185-24.414c-0.005-7.331,0.004-14.663,0.009-21.994    c3.122,0.441,6.321,0.012,9.476,0.027c4.2,0.018,8.289,0.683,12.485,0.619c4.882-0.074,9.86-0.319,14.738-0.15    c2.153,0.074,4.081,0.331,6.018,0.171c-0.229,10.937-0.283,22.03,1.721,32.593c-0.005,0.102-0.021,0.192-0.025,0.297    c-0.046,1.7,0.044,3.316-0.021,4.913c-0.219,0.579-0.278,1.221-0.169,1.835c-0.129,0.886-0.332,1.774-0.681,2.674    C384.872,473.779,382.009,475.52,381.747,480.658z M411.882,483.661c-0.139,2.314-0.239,2.557-1.497,3.356    c-1.745,1.109-5.714,0.833-7.654,0.811c-3.588-0.042-11.009,1.288-13.917-0.731c-2.586-1.797-1.705-6.016-0.305-9.313    c2.2,0.457,4.281,0.244,6.577,0.352c2.357,0.112,4.497,0.78,6.793,1.114c2.653,0.384,5.935,0.247,8.413-0.982    C411.227,479.896,412.009,481.562,411.882,483.661z M447.771,261.641c0.102-0.049,0.202-0.085,0.305-0.144    c2.474-1.388,3.22-4.265,4.236-6.86c1.151,3.368,1.316,8.339,1.903,11.061c0.787,3.646,1.409,7.324,2.099,10.992    c0.956,5.091,1.353,10.261,1.617,15.427c0.249,4.865,0.492,9.737,0.427,14.61c-0.007,0.565-0.02,1.13-0.036,1.695    c-0.053,1.834,0.519,5.172-1.355,6.132c-1.443,0.74-4.273-0.27-5.869-0.271c-0.671-0.001-1.344-0.025-2.019-0.057    c0.258-2.619-0.209-5.587-0.162-8.16c0.082-4.589-0.212-9.192-0.304-13.791c-0.105-5.238-0.311-10.511-0.501-15.759    c-0.178-4.943,0.138-9.945-0.368-14.856C447.751,261.653,447.761,261.648,447.771,261.641z M428.957,249.862    c3.904-0.981,4.101-9.835,6.43-10.075c0.597-0.062,3.807,15.588,4.436,17.118c0.752,1.825,2.08,4.67,4.159,5.505    c-1.269,9.476-1.04,19.141-0.689,28.652c0.17,4.604,0.151,9.323,0.1,13.928c-0.031,2.804-0.469,5.953-0.01,8.799    c-2.15-0.178-4.296-0.313-6.413-0.192c-2.504,0.143-5.033,0.273-7.571,0.367c-0.101-0.258-0.238-0.502-0.402-0.723    c-0.244-1.749,0.082-4.081,0.069-5.538c-0.031-3.273-0.055-6.546-0.079-9.819c-0.045-6.376,0.145-12.81-0.138-19.18    C428.423,269.111,429.472,259.449,428.957,249.862z M418.516,225.062c0.107,0.746,0.29,1.534,0.497,2.329    c0.314,2.742,0.519,5.51,1.269,8.042c0.336,1.134,0.693,2.24,1.066,3.331c0.582,4.149,1.579,8.836,4.132,10.562    c-0.665,3.415-0.639,7.033-0.939,10.442c-0.581,6.589-0.612,13.211-0.468,19.792c0.159,7.277-0.098,14.589-0.153,21.867    c-0.026,3.36-1.057,8.78-0.247,12.666c-3.091,0.022-6.177-0.041-9.231-0.252c0.204-10.831,0.457-21.659-0.207-32.442    c1.727-6.11,0.627-12.803,0.412-19.059c-0.255-7.459-0.667-14.851-0.891-22.309c-0.042-1.396-0.065-2.804-0.094-4.208    C415.276,232.285,417.347,228.797,418.516,225.062z M443.667,487.233c-1.947-0.283-3.895-0.558-5.853-0.736    c-2.325-0.212-4.652-0.209-6.98-0.181c-1.167-0.109-2.334-0.212-3.501-0.319c0.443-8.375-0.122-16.739,0.553-25.091    c0.489-6.07-1.731-19.44,6.272-21.058c9.835-1.989,9.808,16.503,9.805,22.395C443.96,470.452,444.306,479.03,443.667,487.233z     M454.885,487.689c-2.715,0.046-5.43-0.026-8.143-0.149c1.268-5.084,1.211-10.614,1.514-15.811    c0.35-5.997,0.867-12.963-0.292-18.899c-1.494-7.654-3.195-17.427-13.063-17.976c-8.867-0.494-11.327,10.497-12.063,17.113    c-1.222,10.983-1.498,22.499-0.928,33.577c-1.452-0.114-2.906-0.236-4.357-0.323c0.208-2.061,0.112-4.217-0.249-6.076    c-0.309-1.595-0.859-3.021-1.462-4.51c-1.359-3.363-1.061-5.117-0.748-8.631c0.857-9.622-0.629-19.569-1.323-29.157    c-0.235-3.246-0.213-6.528-0.137-9.812c7.299,0.796,15.169,1.392,22.399,0.871c6.268-0.451,13.411,1.264,19.748,0.058    c-0.448,8.124-1.3,16.205-0.625,24.304c-1.905,3.538-0.679,8.741-0.009,12.616c0.277,1.595,1.027,3.431,1.413,6.39    c0.527,4.028-1.113,6.455-1.837,10.066C454.351,483.206,454.377,485.51,454.885,487.689z M415.223,422.718    c0.868-8.998,14.764-10.294,21.765-9.771c5.267,0.394,9.465,1.514,12.68,5.79c1.417,1.885,2.539,3.845,3.668,5.852    c-6.385-0.54-16.976-1.204-18.246-1.203C428.504,423.392,421.811,423.308,415.223,422.718z M458.509,339.581    c-0.065,7.445-0.129,14.888-0.194,22.332c-0.057,6.558-0.923,12.963-1.055,19.476c-0.254,12.557-1.396,25.189-1.242,37.735    c0.004,0.246-0.007,0.492-0.006,0.739c-4.296-7.85-12.249-11.427-22.009-11.397c-6.476,0.02-15.518,1.839-20.201,6.92    c-0.098-4.818-0.436-9.748-0.101-14.511c1.697-24.164,0.62-48.699,0.577-72.945c0-0.427,0.005-0.854,0.006-1.281    c1.473,0.487,3.086,0.645,4.625,0.801c5.486,0.559,11.091,0.668,16.601,0.7c5.583,0.033,11.136,0.37,16.708,0.4    c2.211,0.012,4.33,0.187,6.413-0.015C458.59,332.218,458.541,335.9,458.509,339.581z M458.688,323.715    c-2.163-0.041-4.404,0.183-6.467,0.197c-5.172,0.032-10.324-0.234-15.505-0.212c-7.341,0.032-15.057-0.937-22.416-0.166    c0.016-1.864,0.041-3.726,0.07-5.59c7.744,0.88,15.551,1.096,23.289,0.263c6.546-0.704,14.368,1.813,21.087,0.383    C458.723,320.299,458.709,322.008,458.688,323.715z M464.884,244.901c1.555-3.914,1.624-8.658,2.049-12.669    c0.774-7.28,2.112-14.526,2.781-21.807c0.694-7.563,1.344-15.111,1.924-22.673c0.299-3.904,0.588-7.789,0.967-11.691    c0.08-0.822,0.053-3.917,0.393-6.445c1.189,5.138,1.712,10.934,2.259,15.724c0.771,6.757,1.947,13.454,2.845,20.215    c0.975,7.349,0.805,14.818,1.51,22.212c0.417,4.378,0.068,9.805,1.406,14.178c-0.246,0.075-0.497,0.146-0.715,0.257    c-1.819,0.922-1.62,3.599,0,4.572c1.654,0.992,3.903,0.711,5.724,0.385c1.6-0.287,2.914-0.892,3.449-2.494    c0.128-0.387-0.03-0.776-0.304-1.044c0.009-0.004,0.017-0.007,0.026-0.011c-0.026-0.022-0.064-0.041-0.091-0.062    c-0.02-0.017-0.041-0.028-0.062-0.043c-0.516-0.401-1.189-0.762-1.955-1.059c1.594-5.745,1.347-12.568,1.685-18.467    c0.32-5.558,0.82-11.06,1.141-16.615c0.478-8.231,1.843-16.108,2.53-24.37c0.22-2.655,0.574-5.268,0.913-7.91    c0.138-1.073,0.362-2.182,0.438-3.258c0.027-0.171,0.068-0.34,0.102-0.51c0.736,4.359,0.427,8.823,0.94,13.183    c0.567,4.808,1.403,9.537,2.021,14.313c0.901,8.989,1.939,17.969,2.983,26.996c0.807,6.979,1.512,13.733,2.867,20.677    c0.921,4.716,0.734,9.431,0.801,14.184c-6.136-0.74-12.209-1.845-18.476-1.548c-6.85,0.324-13.466,1.46-20.343,0.788    C464.848,254.892,465.089,249.862,464.884,244.901z M482.442,264.764c5.772-0.716,11.393-0.412,17.175,0.1    c1.451,0.128,2.782,0.231,4.06,0.145c0.235,4.344,0.593,8.678,0.693,13.028c0.166,7.285,0.281,14.541,0.369,21.793    c-2.165-0.111-5.382-0.158-5.634-0.153c-3.778,0.068-7.67-0.796-11.494-0.805c-7.536-0.018-15.128-0.412-22.651,0.026    c0.09-3.053,0.028-6.15,0.414-9.305c0.644-5.274,0.081-10.228-0.438-15.487c-0.284-2.88-0.356-5.791-0.342-8.715    C469.164,267.612,478.61,265.239,482.442,264.764z M464.637,303.296c8.14,0.497,15.791,0.1,23.941,0.015    c5.737-0.06,10.854,0.865,16.195-0.604c0.012,1.131,0.015,2.264,0.027,3.395c-7.198,0.126-14.429,1.008-21.611,0.691    c-6.323-0.281-12.847-0.905-19.149,0.063c-0.005-0.095-0.009-0.19-0.015-0.283C464.314,305.485,464.496,304.393,464.637,303.296z     M462.616,437.951c0.531-6.587,0.924-13.28,0.807-19.898c-0.098-5.532,0.563-10.97,0.49-16.534    c-0.086-6.678,0.102-13.431,0.174-20.13c0.07-6.508,0.774-12.915,0.718-19.475c-0.068-7.847-0.135-15.694-0.206-23.541    c-0.07-8.058-0.171-16.115-0.278-24.174c-0.018-1.406-0.065-2.806-0.125-4.204c2.272,0.404,4.482,0.209,7.01,0.299    c3.999,0.142,7.987,0.466,11.98,0.656c7.203,0.342,14.428-0.458,21.644-0.479c0.066,8.407,0.103,16.819,0.082,25.278    c-0.025,9.77-0.176,19.442-0.26,29.199c-0.071,8.349,0.426,16.643,0.693,24.957c-0.02,0.199-0.033,0.401-0.054,0.601    c-0.545,5.352-0.886,10.682-1.491,16.034c-0.543,4.803-0.398,9.777-0.792,14.618c-0.387,4.753-0.888,9.677,0.084,14.403    c-0.245,2.043-0.58,4.062-0.718,6.145c-0.097,1.472-0.025,2.854,0.172,4.18c-4.206-0.549-10.436-0.049-10.436-0.049    c-5.633,0.265-11.617-0.735-17.333-0.793c-4.199-0.043-8.38-0.146-12.56,0.027C462.324,442.71,462.424,440.34,462.616,437.951z     M486.767,488.414c-6.369-0.006-12.558-0.128-18.966-0.343c-3.182-0.107-5.863,0.811-6.566-3.007    c-0.463-2.515,0.773-4.191,1.489-6.484c1.407-4.502-0.394-10.16-1.358-14.612c-0.102-0.471-0.688-0.939-0.783-1.363    c0.036,0.009,0.069,0.021,0.105,0.03c0.011,0.007,0.021,0.01,0.029,0.009c3.09,0.752,6.599,0.608,9.65,0.627    c6.241,0.038,12.36-0.23,18.593,0.1c5.308,0.281,11.515,1.001,16.697-0.936c-0.291,1.212-0.655,2.427-0.816,3.583    c-0.361,2.586-0.529,5.206-0.825,7.793c-0.281,2.446-0.286,3.908,0.042,6.316c0.105,0.766,1.727,5.534,1.635,5.844    C504.665,489.387,490.202,488.417,486.767,488.414z M497.72,459.225c-3.571-0.129-7.312-0.823-10.929-1.254    c-5.415-0.644-10.991,0.107-16.424-0.122c-0.298-0.012-6.681-0.209-9.254-0.224c0.421-2.414,0.668-4.821,0.831-7.232    c1.347-0.032,2.719-0.182,4.103-0.19c5.258-0.031,10.548-0.276,15.806-0.155c3.771,0.086,7.309,0.771,11.118,0.466    c3.359-0.27,7.289-1.161,10.519-0.598c0.028,0.005,0.054,0,0.084,0.005c0.05,0.144,0.098,0.289,0.151,0.433    c-0.081,0.522-0.132,1.048-0.101,1.574c0.144,2.486,2.013,4.46,2.361,6.876C503.211,459.051,500.381,459.321,497.72,459.225z"/>
	</g>
</g>
<g>
	<g>
		<path d="M445.706,380.958c-0.004-1.222-0.005-2.445,0.022-3.662c0.133-5.913-0.441-10.873-2.921-16.359    c-1.662-3.673-4.205-6.024-8.316-6.567c-4.051-0.534-5.475,1.067-7.433,4.297c-5.64,9.303-4.885,20.871-4.297,31.513    c0.22,3.986-0.977,8.451,3.49,10.271c1.035,0.422,2.125,0.619,3.245,0.687c1.311,0.432,2.742,0.643,4.057,0.817    c1.76,0.234,3.322-0.32,5.098-0.367c1.523-0.041,3.053,0.101,4.509-0.444c0.388-0.145,0.734-0.32,1.043-0.522    c0.54-0.271,0.998-0.702,1.268-1.255c1.05-1.486,1.311-3.504,1.428-5.465C447.15,389.675,446.994,385.013,445.706,380.958z     M441.96,395.092c-3.303-0.242-6.493,0.411-9.791,0.753c-1.535,0.159-3.619,0.657-4.601-0.991    c-0.382-0.64-0.135-4.867-0.204-5.656c-0.622-7.225-1.318-15.495,0.415-22.612c0.688-2.822,2.885-8.421,6.526-8.15    c4.636,0.346,6.647,8.255,7.246,11.901c0.622,3.785,0.148,7.843,0.176,11.68C441.758,386.28,442.25,390.79,441.96,395.092z"/>
	</g>
</g>
<g>
	<g>
		<path d="M275.682,197.429c-0.374-10.421-4.655-34.77-19.685-32.6c-15.029-2.17-19.311,22.179-19.682,32.601    c-0.318,8.9-1.113,17.782-0.99,26.795c0.065,4.792,0.545,9.557,0.582,14.351c0.015,1.835-0.081,3.485,0.039,5.096    c-0.294,1.123-0.03,2.165,0.014,3.796c0.02,0.735,0.507,1.425,1.232,1.619c5.855,1.56,11.072,0.389,16.967,0.38    c2.041-0.002,4.056-0.378,6.076-0.655c0.511,0.025,1.022,0.041,1.526,0.026c1.031-0.031,2.07-0.164,3.108-0.281    c1.936,0.086,3.88,0.346,5.854,0.404c0.126,0.05,0.254,0.081,0.38,0.14c1.275,0.595,3.109,0.439,3.808-0.998    c1.545-3.178,1.148-6.016,1.177-9.529c0.037-4.794,0.517-9.559,0.582-14.351C276.794,215.21,275.999,206.329,275.682,197.429z     M270.84,228.404c-0.277,4.591,0.41,10.294-0.41,15.033c-2.218-0.257-4.327-0.046-6.716,0.241    c-2.767,0.332-5.23,0.227-7.718,0.611c-2.486-0.385-4.95-0.279-7.718-0.611c-2.389-0.287-4.498-0.499-6.716-0.241    c-0.82-4.74-0.133-10.442-0.41-15.033c-0.458-7.605-0.575-15.479-0.404-23.093c0.315-13.981,0.185-32.26,15.247-38.652    c15.063,6.392,14.932,24.671,15.247,38.652C271.415,212.925,271.298,220.799,270.84,228.404z"/>
	</g>
</g>
<g>
	<g>
		<path d="M272.82,308.303c-0.422-4.796-1.153-10.08-4.591-13.719c-1.275-1.349-2.911-2.676-4.785-2.984    c-0.251-0.041-0.501-0.05-0.751-0.046c-0.508-0.634-1.099-1.175-2.102-1.584c-2.245-0.916-4.713-0.614-7.021-0.128    c-4.511,0.95-8.252,1.928-10.551,5.662c-2.778,3.577-3.455,8.386-3.844,12.798c-0.507,5.761,0.352,11.193,0.39,16.886    c0.02,2.726,0.081,6.035,0.532,9.176c-0.534,2.826-0.177,6.018,2.259,7.299c2.017,1.061,5.111,1.206,7.37,1.361    c1.91,0.132,4.378,0.387,6.273-0.377c1.894,0.762,4.362,0.507,6.273,0.377c2.259-0.155,5.352-0.3,7.369-1.361    c2.436-1.281,2.794-4.473,2.259-7.299c0.451-3.141,0.513-6.45,0.532-9.176C272.468,319.496,273.327,314.063,272.82,308.303z     M268.556,315.879c-0.283,4.626-0.566,9.269-0.955,13.891c-0.206,2.456-0.276,4.972,0.182,7.372    c-0.881,0.634-2.303,0.474-3.528,0.622c-2.446,0.294-5.825-0.433-8.257,0.564c-2.434-0.997-5.812-0.27-8.257-0.564    c-1.226-0.148-2.646,0.012-3.528-0.622c0.458-2.4,0.388-4.916,0.182-7.372c-0.389-4.622-0.672-9.265-0.955-13.891    c-0.321-5.226,0.021-13.719,3.848-17.772c2.171-2.301,5.044-1.837,7.139-3.663c0.651-0.095,1.283-0.165,1.864-0.197    c0.399-0.022,0.807,0.041,1.22,0.145c2.1,1.886,5.004,1.392,7.196,3.715C268.534,302.16,268.876,310.652,268.556,315.879z"/>
	</g>
</g>
<g>
</g>
<g>
</g>
<g>
</g>
<g>
</g>
<g>
</g>
<g>
</g>
<g>
</g>
<g>
</g>
<g>
</g>
<g>
</g>
<g>
</g>
<g>
</g>
<g>
</g>
<g>
</g>
<g>
</g>
</svg>
