<?xml version="1.0" encoding="iso-8859-1"?>
<!-- Generator: Adobe Illustrator 19.0.0, SVG Export Plug-In . SVG Version: 6.00 Build 0)  -->
<svg xmlns="http://www.w3.org/2000/svg" xmlns:xlink="http://www.w3.org/1999/xlink" version="1.1" id="Layer_1" x="0px" y="0px" viewBox="0 0 512.004 512.004" style="enable-background:new 0 0 512.004 512.004;" xml:space="preserve">
<g>
	<g>
		<path d="M257.26,501.023c-0.009-0.056-0.011-0.021,0.005,0.163C257.26,501.132,257.263,501.078,257.26,501.023z"/>
	</g>
</g>
<g>
	<g>
		<path d="M481.107,480.529c-1.121-0.585-1.808-1.015-2.923-1.452c-0.293-0.115-0.49-0.203-0.639-0.273    c-1.81-2.169-2.739-5.417-4.09-7.838c-1.339-2.399-2.793-4.672-3.974-7.173c-3.013-6.386-5.5-13.01-8.652-19.333    c-5.973-11.985-12.439-23.656-18.51-35.595c-3.027-5.954-6.31-12.262-8.669-18.495c-1.175-3.105-2.197-4.995-3.8-7.878    c-1.02-1.834-2.364-3.622-3.474-5.447c7.557-10.182,9.961-23.687,5.947-35.763c-2.221-6.681-4.802-13.135-8.802-18.995    c-2.516-3.686-6.403-8.847-11.144-9.605c0.641-1.66,1.172-3.364,1.59-5.079c1.342-5.507,3.29-10.782,4.798-16.226    c1.548-5.586,2.501-11.352,3.962-16.966c2.658-10.21,5.453-20.383,7.881-30.635c2.554-10.784,5.8-21.379,7.982-32.255    c1.313-6.544,2.506-13.107,3.9-19.634c0.68-3.18,1.495-6.329,2.191-9.502c0.105-0.482,0.177-1.255,0.277-2.089    c3.234-0.802,6.34-1.993,9.207-3.716c9.513-5.716,14.589-13.333,19.373-23.214c5.155-10.645,8.393-20.471,8.226-32.455    c-0.149-10.689-0.392-21.597-6.083-30.997c-5.358-8.849-13.596-16.73-23.063-21.177c-18.23-8.564-44.932-2.949-57.81,12.762    c-1.192,1.455-2.265,2.949-3.245,4.478c-0.926-0.562-1.849-1.127-2.917-1.534c-2.509-0.958-4.774-2.311-7.256-3.325    c-5.194-2.122-10.415-4.21-15.77-5.898c-11.131-3.507-22.01-8.237-32.935-12.334c-9.006-3.378-18.185-6.9-27.389-9.707    c-3.319-1.012-6.759-2.377-10.256-3.667c1.015-2.003,1.324-5.28,1.408-6.1c0.736-7.096-1.14-13.047-4.459-19.293    c-3.169-5.962-7.46-11.192-13.041-15.025c-0.641-0.441-1.292-0.856-1.953-1.249c-4.873-6.591-16.338-8.669-23.467-7.565    c-8.559,1.325-21.221,4.885-25.832,13.31c-3.065,3.079-5.616,6.644-7.681,10.529c-3.319,6.246-5.196,12.197-4.459,19.293    c0.086,0.821,0.393,4.098,1.408,6.1c-3.496,1.291-6.936,2.656-10.256,3.667c-9.205,2.807-18.384,6.329-27.389,9.707    c-10.924,4.098-21.802,8.828-32.935,12.334c-5.356,1.686-10.576,3.775-15.771,5.898c-2.482,1.014-4.747,2.367-7.255,3.325    c-1.068,0.408-1.99,0.973-2.917,1.534c-0.979-1.529-2.052-3.024-3.244-4.478c-12.88-15.711-39.58-21.327-57.81-12.762    c-9.467,4.447-17.704,12.329-23.063,21.177c-5.691,9.4-5.934,20.307-6.083,30.997c-0.168,11.984,3.071,21.81,8.226,32.455    c4.785,9.88,9.86,17.499,19.373,23.214c2.868,1.722,5.974,2.914,9.207,3.716c0.1,0.835,0.171,1.607,0.277,2.089    c0.696,3.173,1.513,6.322,2.191,9.502c1.394,6.527,2.588,13.091,3.9,19.634c2.182,10.875,5.429,21.47,7.982,32.255    c2.428,10.252,5.223,20.426,7.881,30.635c1.462,5.615,2.414,11.38,3.962,16.966c1.508,5.443,3.455,10.719,4.798,16.226    c0.419,1.715,0.949,3.419,1.59,5.079c-4.741,0.759-8.628,5.919-11.144,9.605c-3.999,5.86-6.58,12.315-8.802,18.995    c-4.015,12.075-1.609,25.581,5.947,35.763c-1.11,1.824-2.455,3.614-3.474,5.447c-1.603,2.883-2.625,4.773-3.8,7.878    c-2.359,6.233-5.642,12.541-8.669,18.495c-6.071,11.94-12.536,23.611-18.51,35.595c-3.152,6.323-5.638,12.946-8.652,19.333    c-1.181,2.501-2.635,4.774-3.974,7.173c-1.351,2.421-2.279,5.669-4.09,7.838c-0.149,0.07-0.346,0.158-0.64,0.273    c-1.114,0.436-1.802,0.868-2.923,1.452c-6.358,3.316-8.507,12.904-7.316,19.503c0.196,1.083,0.485,2.176,1.104,3.087    c1.056,1.555,2.9,2.356,4.682,2.952c4.665,1.562,9.57,2.264,14.459,2.809c14.759,1.644,29.234,1.246,44.025,0.841    c8.457-0.232,21.133,6.449,27.758-2.028c2.737-3.476,3.669-7.732,3.704-12.098c0.045-5.45-2.854-8.253-6.73-11.523    c-6.884-5.806-2.921-14.367-1.109-21.823c0.829-3.411,0.923-6.862,1.991-10.238c1.198-3.788,1.781-7.703,2.534-11.596    c1.489-7.705,2.801-15.363,3.841-23.143c0.816-6.103,0.816-12.919,2.011-19.104c8.927,0.557,23.738-2.126,26.634-11.432    c0.631,0.458,1.262,0.918,1.903,1.362c6.989,4.847,14.283,9.152,21.293,13.97c6.721,4.618,13.096,10.028,19.578,14.94    c3.284,2.488,8.144,7.403,12.809,8.079c-0.161,1.584-0.238,3.201-0.202,4.862c0.143,6.395-0.138,12.635,2.034,18.778    c1.749,4.943,5.389,9.368,8.622,13.422c1.835,2.3,3.835,4.321,5.977,6.066c0.069,0.156,0.162,0.304,0.314,0.424    c-0.054-0.043-3.638,5.189-4.09,5.706c-1.8,2.059-4.587,3.857-7.031,5.208c-3.447,1.904-7.978,2.3-10.276,5.777    c-2.737,4.14-5.425,17.173-1.985,21.644c1.789,2.325,5.364,2.436,8.083,2.71c5.813,0.583,11.219,0.077,17.057,0.032    c6.016-0.047,11.906,0.531,17.899,0.698c1.877,0.052,3.76-0.09,5.64-0.347c2.17,0.195,4.33,0.334,6.669,0.3    c4.423-0.065,9.041-0.38,13.437-0.063c2.442,0.176,4.208,0.613,6.034,0.08c5.743-0.19,11.401-0.712,17.173-0.667    c5.838,0.046,11.244,0.551,17.057-0.032c2.719-0.273,6.293-0.383,8.083-2.71c3.44-4.471,0.752-17.504-1.985-21.644    c-2.298-3.476-6.828-3.873-10.276-5.777c-2.443-1.35-5.232-3.149-7.031-5.208c-0.453-0.518-4.036-5.75-4.09-5.706    c0.151-0.121,0.245-0.267,0.313-0.424c2.142-1.745,4.142-3.765,5.977-6.066c3.234-4.054,6.873-8.478,8.622-13.422    c2.174-6.144,1.891-12.383,2.034-18.778c0.036-1.661-0.04-3.277-0.202-4.862c4.665-0.677,9.525-5.59,12.809-8.08    c6.481-4.911,12.859-10.32,19.578-14.94c7.01-4.818,14.304-9.124,21.293-13.97c0.64-0.444,1.271-0.904,1.903-1.362    c2.896,9.306,17.707,11.989,26.634,11.432c1.195,6.185,1.195,13.002,2.011,19.104c1.04,7.781,2.352,15.438,3.841,23.143    c0.753,3.894,1.336,7.809,2.534,11.596c1.068,3.376,1.162,6.826,1.991,10.238c1.813,7.456,5.776,16.018-1.109,21.823    c-3.876,3.269-6.775,6.072-6.73,11.523c0.036,4.365,0.969,8.622,3.704,12.098c6.626,8.477,19.301,1.796,27.758,2.028    c14.791,0.406,29.266,0.803,44.025-0.841c4.888-0.544,9.794-1.248,14.459-2.809c1.782-0.597,3.625-1.398,4.682-2.952    c0.619-0.911,0.909-2.003,1.104-3.087C489.615,493.435,487.464,483.846,481.107,480.529z M439.215,183.129    c-1.892,6.245-3.191,12.631-4.484,19.021c-2.307,11.407-5.432,22.386-8.405,33.607c-2.451,9.247-5.196,18.444-7.324,27.73    c-2.333,10.181-4.478,20.773-7.873,30.636c-3.156,9.17-3.678,20.768-12.46,26.66c-2.522,1.692-5.446,3.71-8.397-0.416    c-0.707-0.987-0.823-3.129-0.898-4.313c-0.149-2.352,0.434-5.531,0.759-7.913c0.698-5.114,2.196-10.288,3.604-15.254    c1.313-4.631,3.901-8.978,5.491-13.598c1.752-5.089,2.856-10.464,4.312-15.653c1.544-5.499,3.578-10.854,5.147-16.348    c1.358-4.753,2.068-9.589,3.646-14.289c3.3-9.829,6.323-19.59,8.937-29.618c1.834-7.031,4.988-14.518,6.266-21.914    c4.066,0.287,8.199,0.278,12.225-0.218C439.567,181.916,439.388,182.553,439.215,183.129z M270.611,316.927    c-0.052-5.446-0.411-10.886-1.038-16.3c-0.254-2.19-0.305-4.39-0.435-6.583c3.35-0.431,6.695-1.047,9.899-2.106    c4.278-1.413,8.591-3.263,12.739-5.412c2.714,3.233,6.62,6.221,9.219,8.357c4.566,3.752,8.442,8.271,12.789,12.297    c4.723,4.373,9.38,8.584,14.341,12.718c2.442,2.035,4.822,4.086,7.105,6.3c2.121,2.055,5.751,4.329,7.21,6.893    c0.162,0.286,0.353,0.511,0.553,0.706c-1.163,3.821-1.816,7.812-1.704,11.405c0.13,4.142,1.034,8.702,1.928,12.74    c0.525,2.374,1.344,4.822,3.18,6.399c-5.752,4.685-11.959,8.824-17.981,13.139c-5.932,4.25-11.471,9.329-17.571,13.224    c-2.909,1.858-5.404,3.479-8.121,5.612c-2.15,1.688-4.307,2.538-6.159,4.228c-0.015-0.018-0.029-0.035-0.045-0.054    c-6.573-7.674-15.146-15.348-25.785-16.059c0.025-10.786,0.523-21.536,0.508-32.326    C271.226,340.362,270.72,328.634,270.611,316.927z M263.927,392.384c-0.446,3.67-1.811,6.034-3.55,8.495    c-2.119,1.197-4.391,1.856-7.066,0.808c-0.665-0.26-1.265-0.609-1.822-1.014c-1.67-2.388-2.971-4.719-3.405-8.287    c-0.689-5.675,0.054-11.686-0.063-17.404c-0.215-10.492-0.616-20.945-0.63-31.455c-0.014-10.339,0.109-20.639,0.544-30.954    c0.197-4.675,1.862-11.925,1.488-17.963c2.405,0.855,5.325,0.515,7.735,0.298c2.13-0.191,3.832,0.038,5.425-0.094    c-0.326,5.997,1.299,13.138,1.494,17.759c0.434,10.314,0.558,20.616,0.544,30.954c-0.014,10.51-0.415,20.963-0.63,31.455    C263.874,380.698,264.617,386.709,263.927,392.384z M256.005,285.445c-3.594-0.361-7.153,0.162-10.802-0.529    c-3.961-0.749-7.955-1.576-11.68-3.152c-8.866-3.753-17.416-7.836-24.605-14.389c-13.264-12.091-20.307-31.379-18.707-49.204    c0.815-9.076,2.899-17.199,6.733-25.454c1.762-3.794,3.453-7.528,5.709-11.073c2.211-3.474,4.193-7.727,7.287-10.519    c6.083-5.491,12.025-10.353,18.917-14.564c1.176-0.594,2.358-1.157,3.571-1.563c5.379-1.799,11.319-3.676,16.945-4.319    c4.88-0.558,9.28-0.933,14.148,0.158c3.978,0.892,7.03,2.429,10.936,1.72c2.051,0.598,4.045,1.319,5.71,2.252    c8.2,4.597,14.96,10.047,21.904,16.315c3.094,2.793,5.076,7.045,7.287,10.519c2.255,3.544,3.947,7.279,5.709,11.073    c3.834,8.255,5.919,16.378,6.734,25.454c1.6,17.825-5.443,37.113-18.707,49.204c-7.19,6.553-15.739,10.635-24.607,14.389    c-3.724,1.576-7.72,2.402-11.679,3.152C263.159,285.608,259.599,285.084,256.005,285.445z M241.276,384.431    c-10.639,0.712-19.212,8.386-25.785,16.059c-0.015,0.018-0.029,0.035-0.045,0.054c-1.852-1.69-4.008-2.541-6.159-4.228    c-2.717-2.133-5.212-3.753-8.121-5.612c-6.099-3.895-11.64-8.974-17.571-13.224c-6.022-4.316-12.228-8.455-17.981-13.139    c1.837-1.577,2.654-4.024,3.18-6.399c0.893-4.038,1.797-8.598,1.928-12.74c0.11-3.512-0.508-7.404-1.623-11.147    c1.326-0.862,2.411-1.964,3.689-3.107c1.205-0.912,2.383-1.891,3.526-2.912c1.885-1.491,3.786-2.972,5.497-4.628    c4.473-4.328,9.116-8.587,13.711-12.862c4.976-4.629,10.028-9.064,14.616-14.026c2.973-3.215,7.993-5.97,10.693-9.689    c3.964,2.019,8.07,3.761,12.143,5.106c3.204,1.059,6.549,1.673,9.899,2.106c-0.131,2.195-0.182,4.393-0.435,6.583    c-0.626,5.412-0.987,10.854-1.039,16.3c-0.11,11.707-0.617,23.435-0.632,35.178C240.753,362.895,241.251,373.645,241.276,384.431z     M131.033,113.088c2.828-0.646,5.523-1.986,8.164-3.153c4.652-2.057,9.478-3.573,14.156-5.545    c8.621-3.636,17.238-7.036,25.921-10.509c15.451-6.178,30.998-12.424,46.206-19.211c0.788,3.921,4.066,7.904,6.847,10.124    c2.107,1.684,4.664,2.279,7.074,3.391c1.622,0.748,2.98,1.43,4.485,1.622c-1.175,7.267-0.424,15.861-0.467,20.484    c-0.067,7.39,0.057,14.776,0.621,22.127c0.249,3.234-0.541,8.268,0.62,11.835c-2.42,0.526-4.907,1.31-7.333,2.184    c-0.61,0.14-1.221,0.28-1.833,0.444c-6.989,1.877-13.664,5.723-19.352,10.201c-4.205,3.31-7.992,6.867-11.438,10.667    c-0.216-0.084-0.446-0.156-0.702-0.202c-6.239-1.119-12.527-6.296-18.029-9.288c-6.422-3.492-13.447-5.882-19.633-9.792    c-5.912-3.738-12.513-6.484-18.274-10.341c-2.209-1.479-4.193-2.509-6.755-3.225c-3.782-1.056-6.824-2.998-10.386-4.618    c-0.318-0.144-0.638-0.277-0.957-0.417C132.828,125.076,132.328,118.773,131.033,113.088z M136.336,139.786    c2.164,0.924,4.563,1.191,6.628,2.377c2.173,1.246,3.882,2.756,6.189,3.881c9.282,4.523,17.645,10.313,27.084,14.59    c4.922,2.23,9.736,5.125,14.284,8.028c2.943,1.878,5.891,3.9,9.173,5.1c-4.106,5.362-7.666,11.158-10.806,17.415    c-13.937-5.099-26.599-13.215-39.686-19.835c-8.264-4.18-16.282-8.706-24.215-13.483c-5.584-3.364-10.8-8.987-16.956-11.497    c-1.715-3.181-1.203-9.666-0.132-11.321c1.352-2.092,4.288-5.173,6.864-5.528c2.771-0.381,5.786,1.7,8.153,2.864    C127.475,134.62,131.682,137.8,136.336,139.786z M121.946,163.062c8.378,5.179,16.988,9.658,25.688,14.254    c6.552,3.461,12.629,7.663,19.389,10.822c4.808,2.245,9.851,3.963,14.651,6.25c1.436,0.686,3.011,1.6,4.635,2.328    c-5.525,13.384-6.138,30.484-2.528,44.176c2.632,9.979,7.193,19.601,13.673,27.675c-0.53,0.578-1.048,1.182-1.622,1.758    c-2.177,2.189-4.736,3.898-7.043,5.934c-5.529,4.878-10.811,10.087-16.222,15.097c-4.515,4.181-9.131,8.208-13.617,12.424    c-2.361,2.218-5.827,5.329-7.081,8.612c-2.054-1.176-4.179-2.201-6.311-3.054c-5.691-2.278-11.679-4.729-17.691-3.521    c-1.163-7.14-3.332-14.468-6.302-20.254c-5.464-10.641-7.581-23.53-11.055-34.97c-3.737-12.303-6.739-24.758-10.772-36.999    c-2.046-6.209-3.311-12.658-5.135-18.949c-1.249-4.31-3.116-9.127-4.037-13.808c1.293-0.172,2.574-0.36,3.825-0.565    c5.222-0.856,10.688-2.848,15.393-5.235c5.689-2.884,7.557-7.585,10.9-12.787C121.108,162.521,121.517,162.797,121.946,163.062z     M158.723,310.505c2.454-2.069,4.899-4.155,7.331-6.259c4.888-3.879,9.931-7.595,14.237-11.93    c4.277-4.304,9.211-7.841,13.959-11.619c2.715-2.16,5.878-4.04,8.074-6.677c2.079,2.04,4.311,3.935,6.701,5.651    c2.053,1.476,4.233,2.883,6.48,4.217c-0.096,0.102-0.202,0.201-0.3,0.301c-3.419,2.795-6.831,5.62-10.167,8.497    c-4.573,3.945-8.534,8.432-13.043,12.336c-6.198,5.366-12.282,11.184-17.841,17.388c-2.419,2.154-4.851,4.444-6.695,7.084    c-0.855-2.023-1.836-3.927-2.91-5.604c-2.422-3.78-5.776-6.962-9.545-9.547C156.176,313.003,157.427,311.733,158.723,310.505z     M261.211,143.107c-0.04,0.067-0.055,0.133-0.089,0.199c-3.561-0.431-6.791-0.36-10.232,0.007    c-0.034-0.069-0.052-0.137-0.093-0.206c-0.977-1.645-0.04-4.46-0.055-6.232c-0.023-2.631-0.572-5.234-0.608-7.878    c-0.074-5.236-0.632-10.414-0.667-15.678c-0.045-6.621-0.822-13.594-0.331-20.175c0.231-3.101,1.066-7.83,2.875-10.753    c1.044-0.488,2.125-0.767,3.398-0.977c2.005-0.331,2.816-0.176,4.477,0.922c0.045,0.029,0.083,0.053,0.127,0.081    c1.799,2.924,2.629,7.635,2.86,10.726c0.491,6.581-0.286,13.554-0.331,20.175c-0.035,5.264-0.594,10.442-0.667,15.678    c-0.038,2.644-0.585,5.247-0.609,7.878C261.251,138.647,262.189,141.462,261.211,143.107z M267.968,132.416    c0.564-7.351,0.689-14.736,0.621-22.127c-0.042-4.623,0.708-13.217-0.467-20.484c1.504-0.191,2.863-0.873,4.485-1.622    c2.409-1.112,4.968-1.707,7.074-3.391c2.781-2.222,6.059-6.204,6.847-10.124c15.208,6.787,30.755,13.034,46.206,19.211    c8.685,3.472,17.3,6.872,25.921,10.509c4.678,1.973,9.503,3.489,14.156,5.545c2.64,1.167,5.336,2.508,8.164,3.153    c-1.296,5.685-1.795,11.989,1.062,16.775c-0.319,0.141-0.64,0.272-0.957,0.417c-3.562,1.622-6.603,3.562-10.386,4.618    c-2.562,0.716-4.546,1.747-6.755,3.225c-5.762,3.859-12.363,6.603-18.274,10.341c-6.186,3.911-13.211,6.301-19.633,9.792    c-5.501,2.992-11.79,8.17-18.029,9.288c-0.257,0.046-0.487,0.118-0.702,0.202c-3.446-3.8-7.233-7.357-11.438-10.667    c-5.688-4.478-12.363-8.323-19.352-10.201c-2.781-0.747-5.526-1.208-8.3-1.617c-0.348-0.157-0.703-0.304-1.06-0.449    C268.607,141.235,267.707,135.823,267.968,132.416z M389.096,132.377c2.368-1.164,5.384-3.247,8.153-2.864    c2.575,0.354,5.511,3.437,6.864,5.528c1.07,1.656,1.582,8.14-0.133,11.321c-6.158,2.51-11.372,8.133-16.958,11.497    c-7.933,4.778-15.951,9.304-24.215,13.483c-13.088,6.62-25.75,14.736-39.686,19.835c-3.14-6.256-6.7-12.052-10.805-17.415    c3.283-1.201,6.23-3.222,9.173-5.1c4.548-2.903,9.362-5.798,14.284-8.028c9.44-4.276,17.802-10.067,27.084-14.59    c2.307-1.124,4.017-2.636,6.19-3.881c2.065-1.184,4.464-1.453,6.628-2.377C380.329,137.8,384.535,134.62,389.096,132.377z     M321.836,305.669c-3.319-2.928-6.791-5.652-10.25-8.395c-5.118-4.43-10.3-8.771-15.426-13.182    c2.371-1.394,4.668-2.869,6.826-4.42c3.631-2.61,6.888-5.635,9.803-8.956c2.64,2.53,5.67,4.836,8.103,7.396    c4.669,4.91,9.566,9.674,14.596,14.212c4.432,3.998,9.035,7.72,13.36,11.848c2.674,2.552,6.164,7.103,9.933,9.021    c-4.485,2.772-8.524,6.335-11.32,10.699c-0.354,0.552-0.699,1.129-1.032,1.727C339.79,317.715,329.378,312.32,321.836,305.669z     M333.905,282.631c-1.48-1.32-11.121-11.267-17.811-16.007c5.676-7.654,9.714-16.549,12.135-25.731    c3.611-13.691,2.997-30.793-2.528-44.176c1.624-0.728,3.198-1.643,4.635-2.329c4.8-2.287,9.843-4.005,14.651-6.25    c6.762-3.157,12.837-7.361,19.389-10.822c8.7-4.596,17.309-9.075,25.688-14.254c0.429-0.265,0.838-0.543,1.259-0.813    c3.344,5.202,5.213,9.902,10.9,12.787c4.706,2.386,10.171,4.379,15.393,5.235c1.252,0.205,2.533,0.393,3.826,0.565    c-0.922,4.68-2.788,9.498-4.037,13.808c-1.823,6.291-3.089,12.739-5.135,18.949c-4.032,12.241-7.035,24.696-10.772,36.999    c-3.474,11.439-5.592,24.329-11.055,34.97c-2.971,5.785-5.14,13.114-6.302,20.254c-6.012-1.208-12,1.243-17.691,3.521    c-0.832,0.333-1.664,0.694-2.492,1.077c-0.096-0.137-0.205-0.273-0.339-0.404C353.996,300.55,343.992,291.63,333.905,282.631z     M394.428,93.851c2.446-3.621,5.211-7.512,8.578-10.32c14.183-11.827,36.252-14.465,51.594-3.92    c7.368,5.064,14.513,11.364,17.164,20.279c2.596,8.73,3.105,19.498,1.664,28.466c-1.524,9.49-5.112,17.314-9.483,25.82    c-4.099,7.978-10.333,14.371-18.998,17.165c-8.885,2.865-19.131,2.083-28.129-0.045c-3.806-0.9-8.082-2.229-11.618-3.921    c-3.861-1.847-6.608-5.151-9.889-7.806c2.375-1.679,4.684-3.432,7-5.298c2.33-1.878,5.057-3.827,6.542-6.473    c0.321-0.572,0.251-1.158-0.033-1.617c0.093-0.203,0.181-0.402,0.26-0.596c1.758-4.307,2.089-9.665-0.637-13.661    c-2.46-3.605-6.954-7.377-11.5-7.731c-2.055-0.161-3.039,0.45-4.825,1.312c-1.945,0.939-3.924,1.765-5.905,2.584    c-1.668-7.285,1.273-15.157,3.594-21.91C391.267,101.938,391.856,97.656,394.428,93.851z M302.842,58.438    c16.499,4.774,32.345,11.809,48.566,17.465c8.502,2.965,16.832,6.321,25.283,9.375c4.053,1.464,8.178,3.913,12.469,4.874    c-2.69,5.178-4.568,10.692-6.372,16.418c-4.23-0.511-8.66-3.595-12.56-5.115c-4.553-1.775-9.051-3.503-13.55-5.393    c-7.891-3.316-15.9-6.14-23.852-9.349c-14.853-5.995-29.421-12.864-44.528-18.143c-4.774-1.667-9.148-3.74-13.438-6.431    c-2.934-1.841-4.962-2.844-3.9-6.476c1.074-3.674,4.102-4.399,7.81-4.319C286.853,51.517,295.165,56.217,302.842,58.438z     M222.361,41.47c0.42-6.075,2.687-12.363,5.546-17.778c1.502-2.846,3.129-5.305,5.106-7.451c1.489-0.959,2.956-1.967,4.468-2.685    c4.892-2.324,9.263-3.927,14.577-5.044c5.366-1.128,9.727-0.675,14.838,1.167c3.493,1.258,6.395,3.831,10.033,4.571    c2.958,2.579,5.182,5.668,7.174,9.442c2.859,5.416,5.126,11.704,5.546,17.778c0.102,1.47,0.054,4.193,0.611,6.376    c-3.821-1.228-7.677-2.147-11.49-2.21c-6.975-0.115-14.738,3.595-14.291,11.619c0.423,7.605,10.1,11.977,16.127,14.738    c-1.754,1.932-3.024,4.501-4.955,6.193c-2.333,2.045-6.722,3.305-9.861,4.193c-0.167-0.301-0.354-0.58-0.539-0.862    c0.036-0.543-0.127-1.092-0.555-1.464c-1.518-1.324-3.081-3.126-4.942-3.928c-2.252-0.971-5.202-0.145-7.471,0.465    c-2.729,0.735-5.389,2.951-6.389,5.695c-3.112-0.883-7.279-2.122-9.536-4.099c-1.931-1.692-3.201-4.26-4.955-6.193    c6.028-2.762,15.704-7.133,16.127-14.738c0.447-8.024-7.317-11.734-14.291-11.619c-3.813,0.063-7.669,0.981-11.49,2.21    C222.307,45.663,222.259,42.94,222.361,41.47z M135.319,85.278c8.452-3.054,16.782-6.41,25.283-9.375    c16.221-5.655,32.067-12.691,48.566-17.465c7.677-2.222,15.989-6.921,24.071-7.095c3.707-0.08,6.735,0.644,7.81,4.319    c1.062,3.632-0.966,4.636-3.9,6.476c-4.289,2.691-8.663,4.763-13.438,6.431c-15.107,5.278-29.675,12.148-44.528,18.143    c-7.951,3.209-15.961,6.032-23.852,9.349c-4.5,1.891-8.998,3.618-13.55,5.393c-3.9,1.521-8.329,4.604-12.56,5.115    c-1.804-5.725-3.683-11.24-6.372-16.418C127.141,89.191,131.266,86.742,135.319,85.278z M67.064,171.341    c-8.663-2.793-14.897-9.186-18.996-17.165c-4.371-8.506-7.959-16.331-9.483-25.82c-1.441-8.968-0.931-19.736,1.664-28.466    c2.651-8.917,9.795-15.215,17.164-20.279c15.342-10.544,37.41-7.907,51.593,3.92c3.367,2.808,6.132,6.699,8.578,10.32    c2.571,3.805,3.161,8.087,4.618,12.33c2.32,6.753,5.262,14.625,3.594,21.91c-1.98-0.82-3.959-1.645-5.905-2.584    c-1.784-0.862-2.768-1.473-4.824-1.312c-4.546,0.355-9.04,4.126-11.5,7.731c-2.725,3.995-2.393,9.354-0.635,13.66    c0.08,0.193,0.168,0.394,0.26,0.596c-0.284,0.457-0.355,1.044-0.033,1.617c1.485,2.646,4.211,4.594,6.542,6.473    c2.316,1.867,4.624,3.621,7,5.298c-3.281,2.657-6.027,5.96-9.889,7.806c-3.536,1.692-7.812,3.02-11.618,3.921    C86.195,173.425,75.948,174.207,67.064,171.341z M93.012,263.487c-2.128-9.286-4.875-18.484-7.326-27.73    c-2.973-11.221-6.099-22.201-8.405-33.607c-1.292-6.389-2.591-12.775-4.484-19.021c-0.175-0.576-0.352-1.215-0.545-1.882    c4.026,0.496,8.159,0.505,12.225,0.218c1.278,7.396,4.433,14.882,6.266,21.914c2.613,10.028,5.637,19.789,8.938,29.618    c1.578,4.7,2.289,9.536,3.646,14.289c1.569,5.494,3.603,10.849,5.147,16.348c1.457,5.188,2.561,10.564,4.312,15.653    c1.591,4.62,4.178,8.967,5.491,13.598c1.408,4.965,2.905,10.14,3.603,15.254c0.325,2.383,0.909,5.561,0.759,7.913    c-0.075,1.184-0.191,3.326-0.898,4.314c-2.951,4.126-5.875,2.108-8.397,0.416c-8.782-5.892-9.304-17.49-12.46-26.66    C97.489,284.26,95.345,273.667,93.012,263.487z M113.877,407.879c-0.499,6.491-1.523,13.114-2.565,19.533    c-1.087,6.691-2.276,13.537-3.849,20.134c-1.297,5.433-2.003,10.872-3.262,16.29c-2.363,10.165-4.079,18.009,4.27,25.573    c3.404,3.084,5.354,10.169,0.727,13.357c-4.709,3.245-12.806,0.828-18.207,0.911c-11.153,0.17-22.453-0.846-33.543-1.992    c-5.235-0.541-10.329-1.62-15.594-1.986c-3.257-0.226-7.013,0.84-10.13,0.367c-7.806-1.183-1.115-11.657,3.492-13.125    c4.593-1.463,5.655-3.404,8.055-7.79c5.662-10.347,9.703-21.267,14.785-31.905c5.78-12.101,11.842-23.991,17.623-36.099    c2.644-5.539,5.247-11.3,7.572-16.947c1.693-4.113,4.052-8.806,5.535-13.364c3.882,4.23,8.642,8.083,13.857,11.083    c-1.602,2.909-3.697,5.579-5.18,8.638c-1.935,3.989-3.944,7.963-5.868,11.929c-3.467,7.146-7.993,13.807-12.073,20.591    c-7.902,13.138-13.569,27.704-20.396,41.531c-2.053,4.159-4.536,9.717,0.87,12.357c3.37,1.646,7.377,1.354,10.952,2.123    c4.28,0.92,8.002,1.616,12.363,1.482c7.894-0.243,11.79-2.693,13.016-10.829c1.289-8.56,1.383-17.292,2.678-25.841    c1.501-9.909,1.871-19.966,3.172-29.943c1.249-9.576,3.346-18.93,5.356-28.343c0.094-0.44,0.081-0.836,0.002-1.194    c2.386,1.065,4.834,1.938,7.309,2.578C114.27,400.597,114.146,404.386,113.877,407.879z M78.361,474.058    c4.156-3.059,9.558-5.4,13.573-8.778c-0.367,2.874-0.718,5.744-0.987,8.599c-0.226,2.386,0.101,6.174-1.221,8.32    c-1.67,2.711-6.956,2.701-9.8,2.547c-3.283-0.177-6.392-1.381-9.603-1.94c-1.026-0.178-2.633-0.083-3.986-0.212    C70.545,480.068,74.389,476.981,78.361,474.058z M63.297,480.285c0.097-0.688,0.687-1.436,1.206-2.534    c0.883-1.867,1.782-3.72,2.635-5.604c1.89-4.175,3.651-8.383,5.669-12.494c1.163-2.371,2.284-4.664,3.316-7.035    c3.49,3.563,9.879,6.508,12.957,9.357c-4.059,3.598-9.811,6.188-14.024,9.433c-2.484,1.913-4.991,3.795-7.479,5.703    C67.664,477.042,65.193,478.781,63.297,480.285z M86.481,453.514c-1.523-1.281-5.995-3.25-6.454-5.069    c-0.279-1.104-0.824-0.34,1.248-1.782c1.96-1.366,3.999-2.434,6.029-3.667c2.441-1.483,4.753-3.508,7.219-5.064    c-0.212,2.537-0.39,5.07-0.508,7.585c-0.213,4.569-0.737,9.183-1.319,13.799C90.866,457.183,88.535,455.244,86.481,453.514z     M82.403,440.073c-0.026,0.014-0.057,0.029-0.083,0.043c0.429-0.739,0.857-1.482,1.276-2.239    c3.791-6.868,8.497-13.438,11.942-20.492c0.891-1.826,1.753-3.667,2.615-5.507c-0.354,2.306-0.696,4.618-1.116,6.913    c-0.842,4.611-1.509,9.312-2.021,14.024C90.585,433.833,86.391,437.948,82.403,440.073z M116.934,389.278    c-10.193-2.994-19.075-8.309-25.672-16.77c-6.67-8.553-7.824-20.133-5.008-30.291c2.847-10.269,8.601-18.056,14.745-26.433    c2.714,5.453,6.836,10.109,12.659,12.545c8.524,3.565,15.312-3.985,15.173-12.275c-0.028-1.643-0.133-3.354-0.298-5.101    c4.214,1.267,8.546,1.99,12.653,4.027c4.883,2.423,10.177,4.929,13.993,9.027c4.352,4.671,6.318,11.619,7.126,17.785    c0.437,3.339-0.125,6.001-0.728,9.284c-0.387,2.108-0.157,6.003-1.845,7.599c-0.244,0.231-0.437,0.476-0.604,0.728    c-3.847-2.486-8.143-4.398-12.601-4.927c-9.88-1.172-15.359,12.767-11.943,20.618c1.025,2.357,3.531,3.828,5.497,5.298    c1.29,0.965,2.569,1.946,3.849,2.926C136.387,389.405,126.298,392.029,116.934,389.278z M205.39,418.307    c-5.635-2.596-10.569-7.777-15.794-10.869c-6.604-3.907-12.557-9.173-19.022-13.4c-7.494-4.9-15.16-9.193-22.349-14.597    c-3.617-2.719-7.972-4.746-8.688-9.489c-0.591-3.913,0.777-6.851,4.291-8.503c2.024-0.952,4.423-0.375,7.86,1.242    c3.725,1.752,6.783,4.142,9.912,6.757c5.906,4.935,12.454,9.196,18.72,13.638c6.192,4.39,11.916,9.608,18.556,13.283    c4.84,2.679,9.023,5.879,14.363,6.912C209.681,407.933,206.961,412.9,205.39,418.307z M298.063,483.408    c4.071,2.651,8.894,3.194,10.53,8.183c0.519,1.584,2.183,9.578,0.865,11.245c0.479-0.607-3.226,0.059-4,0.147    c-2.04,0.232-4.192,0.587-6.254,0.639c0.145-0.652,0.217-1.342,0.271-2.06c0.141-1.878,0.311-3.898,0.14-5.772    c-0.419-4.568-6.682-4.56-7.099,0c-0.171,1.874-0.001,3.894,0.14,5.772c0.048,0.639,0.115,1.253,0.229,1.842    c-3.208-0.193-6.42-0.424-9.648-0.455c0.335-1.442,0.368-2.999,0.236-4.382c-0.181-1.877-0.73-4.389-2.578-5.275    c-1.994-0.958-3.903-0.406-5.171,1.355c-1.199,1.667-0.304,3.052,0.035,4.709c0.217,1.06,0.074,2.22,0.265,3.304    c0.026,0.147,0.061,0.291,0.095,0.435c-1.104,0.004-2.212,0.055-3.305,0.089c-0.305,0.009-0.624,0.011-0.937,0.016    c-1.905-0.686-3.993-0.824-6.098-0.87c-0.178-1.243-0.684-2.42-1.142-3.601c-0.399-1.026-1.527-3.116-2.395-4.542    c-0.823-1.349-2.637-1.25-3.48,0c-0.861,1.276-1.337,2.497-1.369,4.039c-0.019,0.873-0.185,1.83-0.13,2.8    c0.027,0.142,0.115,0.868,0.168,1.325c-2.159,0.043-4.316,0.097-6.473,0.117c-0.421-3.02-0.495-6.051-3.003-8.199    c-1.457-1.247-3.533-0.389-3.675,1.522c-0.122,1.64-0.771,3.319-0.93,4.996c-0.047,0.495-0.081,0.976-0.099,1.452    c-2.372-0.165-4.725-0.324-7.198-0.148c0.08-0.914,0.022-1.857,0.202-2.734c0.339-1.656,1.235-3.041,0.035-4.709    c-1.267-1.762-3.176-2.313-5.171-1.355c-1.847,0.888-2.398,3.398-2.578,5.275c-0.133,1.382-0.1,2.939,0.236,4.382    c-3.229,0.03-6.442,0.261-9.649,0.455c0.115-0.587,0.181-1.203,0.229-1.842c0.141-1.878,0.311-3.898,0.14-5.772    c-0.417-4.56-6.681-4.568-7.099,0c-0.171,1.874-0.001,3.894,0.14,5.772c0.054,0.718,0.125,1.408,0.271,2.06    c-2.064-0.052-4.214-0.407-6.254-0.639c-0.774-0.088-4.48-0.754-4-0.147c-1.318-1.666,0.346-9.66,0.865-11.245    c1.637-4.989,6.459-5.532,10.531-8.183c4.06-2.643,10.006-7.186,10.528-12.385c2.531,1.542,5.235,2.718,8.073,3.558    c6.563,2.905,12.523,4.182,19.733,4.782c5.844,0.487,12.114,0.692,18-0.714c2.965-0.708,7.185-2.146,10.305-4.4    c2.431-0.811,4.752-1.888,6.949-3.225C288.057,476.221,294.003,480.765,298.063,483.408z M300.484,429.946    c-0.192,5.3,0.189,10.675-1.659,15.771c-1.661,4.582-5.488,9.227-8.73,12.766c-3.48,3.799-7.749,6.072-12.238,7.98    c-3.418,0.735-6.82,2.394-10.125,2.935c-5.452,0.892-10.977,0.644-16.418,0.56c-6.839-0.106-12.976-2.189-19.168-4.997    c-2.53-1.147-5.539-3.37-8.55-4.829c-0.576-0.521-1.141-1.061-1.68-1.65c-3.242-3.539-7.068-8.184-8.729-12.766    c-1.848-5.097-1.467-10.473-1.659-15.771c-0.692-19.097,14.405-33.16,29.777-42.067c0.042,2.353,0.243,4.719,0.694,6.977    c-0.875,5.915,3.93,12.093,9.278,14.212c3.697,1.466,8.137,1.415,11.692-0.455c3.732-1.963,4.539-4.78,5.303-8.411    c1.768-3.638,2.359-8.004,2.438-12.323C286.078,396.788,301.176,410.85,300.484,429.946z M363.786,379.442    c-7.188,5.403-14.854,9.698-22.349,14.597c-6.465,4.227-12.418,9.494-19.022,13.4c-5.226,3.091-10.159,8.272-15.794,10.869    c-1.571-5.407-4.29-10.373-7.847-15.026c5.339-1.033,9.523-4.233,14.362-6.912c6.64-3.676,12.364-8.893,18.557-13.283    c6.267-4.443,12.814-8.703,18.72-13.638c3.129-2.615,6.187-5.004,9.912-6.757c3.438-1.617,5.837-2.194,7.86-1.242    c3.513,1.653,4.882,4.59,4.29,8.503C371.757,374.696,367.403,376.722,363.786,379.442z M395.077,389.278    c-9.366,2.751-19.454,0.127-26.996-5.961c1.28-0.98,2.56-1.962,3.849-2.926c1.965-1.47,4.472-2.942,5.497-5.298    c3.417-7.851-2.064-21.79-11.943-20.618c-4.458,0.529-8.755,2.442-12.601,4.927c-0.167-0.251-0.36-0.497-0.604-0.728    c-1.688-1.596-1.457-5.491-1.846-7.599c-0.603-3.283-1.165-5.944-0.728-9.284c0.808-6.166,2.774-13.113,7.126-17.785    c3.816-4.098,9.111-6.605,13.993-9.027c4.106-2.038,8.438-2.759,12.653-4.027c-0.167,1.747-0.27,3.459-0.298,5.101    c-0.14,8.289,6.649,15.84,15.173,12.275c5.824-2.435,9.944-7.092,12.659-12.545c6.144,8.377,11.898,16.165,14.745,26.433    c2.815,10.158,1.664,21.738-5.008,30.291C414.152,380.969,405.271,386.283,395.077,389.278z M480.288,500.066    c-3.118,0.473-6.873-0.593-10.13-0.367c-5.264,0.366-10.359,1.446-15.594,1.986c-11.089,1.145-22.39,2.162-33.543,1.992    c-5.402-0.082-13.499,2.334-18.207-0.911c-4.627-3.189-2.678-10.273,0.727-13.357c8.35-7.564,6.634-15.407,4.271-25.573    c-1.259-5.418-1.966-10.857-3.262-16.29c-1.573-6.595-2.764-13.442-3.849-20.134c-1.042-6.419-2.066-13.044-2.565-19.533    c-0.268-3.493-0.393-7.283-0.966-10.882c2.475-0.64,4.924-1.514,7.309-2.578c-0.078,0.358-0.093,0.754,0.001,1.194    c2.01,9.414,4.107,18.768,5.356,28.343c1.3,9.977,1.672,20.034,3.173,29.943c1.294,8.548,1.389,17.28,2.678,25.841    c1.225,8.136,5.121,10.587,13.016,10.829c4.36,0.134,8.083-0.562,12.363-1.482c3.575-0.769,7.582-0.477,10.952-2.123    c5.406-2.64,2.924-8.199,0.87-12.357c-6.827-13.827-12.494-28.394-20.396-41.531c-4.08-6.783-8.606-13.444-12.072-20.591    c-1.924-3.966-3.934-7.941-5.868-11.929c-1.483-3.059-3.577-5.729-5.179-8.638c5.214-3,9.975-6.852,13.856-11.083    c1.484,4.557,3.842,9.251,5.535,13.364c2.325,5.647,4.928,11.408,7.572,16.947c5.781,12.108,11.843,23.999,17.623,36.099    c5.081,10.638,9.123,21.558,14.784,31.905c2.399,4.385,3.462,6.325,8.055,7.79C481.403,488.409,488.095,498.883,480.288,500.066z     M444.434,477.109c-2.488-1.908-4.996-3.789-7.479-5.703c-4.213-3.244-9.965-5.834-14.024-9.433    c3.078-2.848,9.467-5.794,12.958-9.358c1.032,2.371,2.153,4.664,3.316,7.035c2.018,4.111,3.78,8.319,5.669,12.494    c0.852,1.884,1.752,3.739,2.635,5.604c0.519,1.097,1.109,1.845,1.206,2.534C446.818,478.781,444.348,477.042,444.434,477.109z     M445.675,482.593c-1.353,0.129-2.962,0.034-3.986,0.212c-3.21,0.559-6.32,1.762-9.603,1.94c-2.843,0.154-8.13,0.164-9.799-2.547    c-1.323-2.146-0.995-5.934-1.221-8.32c-0.271-2.855-0.621-5.725-0.987-8.599c4.015,3.379,9.415,5.719,13.573,8.778    C437.621,476.981,441.466,480.068,445.675,482.593z M431.984,448.447c-0.46,1.817-4.931,3.786-6.454,5.069    c-2.054,1.729-4.385,3.669-6.214,5.803c-0.583-4.617-1.106-9.23-1.32-13.799c-0.117-2.516-0.295-5.049-0.508-7.585    c2.466,1.556,4.778,3.581,7.219,5.064c2.031,1.233,4.07,2.302,6.03,3.667C432.808,448.107,432.263,447.341,431.984,448.447z     M429.608,440.073c-3.988-2.126-8.183-6.241-12.61-7.259c-0.514-4.712-1.18-9.413-2.021-14.024    c-0.419-2.295-0.761-4.607-1.116-6.913c0.862,1.841,1.724,3.682,2.615,5.507c3.445,7.055,8.151,13.624,11.942,20.492    c0.419,0.759,0.846,1.501,1.276,2.239C429.665,440.102,429.635,440.087,429.608,440.073z"/>
	</g>
</g>
<g>
</g>
<g>
</g>
<g>
</g>
<g>
</g>
<g>
</g>
<g>
</g>
<g>
</g>
<g>
</g>
<g>
</g>
<g>
</g>
<g>
</g>
<g>
</g>
<g>
</g>
<g>
</g>
<g>
</g>
</svg>
