<?xml version="1.0" encoding="iso-8859-1"?>
<!-- Generator: Adobe Illustrator 19.0.0, SVG Export Plug-In . SVG Version: 6.00 Build 0)  -->
<svg xmlns="http://www.w3.org/2000/svg" xmlns:xlink="http://www.w3.org/1999/xlink" version="1.1" id="Layer_1" x="0px" y="0px" viewBox="0 0 511.995 511.995" style="enable-background:new 0 0 511.995 511.995;" xml:space="preserve">
<g>
	<g>
		<path d="M181.044,289.06c-0.936-2.08-2.896-3.479-5.191-2.301c-2.791,1.433-3.003,5.866-2.624,9.105    c-0.57,3.602-1.079,7.199-1.588,10.825c-0.685,4.865-1.54,10.552-1.003,15.46c0.303,2.772,2.067,7.646,5.656,7.584    c3.945-0.068,4.179-5.138,4.4-7.982c0.448-5.767,0.648-11.673,0.691-17.471C181.415,299.932,182.969,293.332,181.044,289.06z     M177.99,300.921c0.019,6.929-0.398,13.926-0.783,20.83c-0.141,2.521-1.36,7.293-3.003,0.398    c-0.375-1.572-0.018-3.362,0.111-4.912c0.2-2.391-0.029-4.766,0.083-7.163c0.185-3.991,0.406-8.001,0.635-12.01    c0.016-0.034,0.04-0.064,0.051-0.103c0.475-1.631,2.044-10.562,3.276-4.916C178.841,295.246,177.984,298.673,177.99,300.921z"/>
	</g>
</g>
<g>
	<g>
		<path d="M194.263,283.576c-1.167-2.087-3.132-3.549-5.483-2.079c-3.18,1.986-2.639,6.708-2.482,10.026    c-0.605,4.468-1.41,8.915-1.627,13.435c-0.225,4.669-1.562,11.849,0.472,16.223c1.177,2.532,4.101,3.865,6.746,2.39    c3.193-1.781,2.668-6.35,2.892-9.393c0.42-5.711,0.686-11.198,0.643-16.936C195.39,292.908,196.476,287.543,194.263,283.576z     M192.264,294.475c-0.002,6.198-0.273,12.261-0.761,18.431c-0.115,1.444,0.418,4.414-1.477,5.042    c-1.622,0.538-2.469-1.31-2.74-2.544c-0.685-3.121,0.491-6.315,0.449-9.439c-0.072-5.307,1.156-10.807,1.069-16.133    c0.173-1.532,0.312-3.052,0.645-3.364C192.99,283.14,192.264,292.901,192.264,294.475z"/>
	</g>
</g>
<g>
	<g>
		<path d="M208.286,279.499c-0.88-2.64-2.222-6.012-5.523-5.021c-2.754,0.826-3.524,3.987-3.226,6.546    c-2.091,9.769-3.408,21.611-1.867,31.322c0.473,2.975,1.636,6.059,4.988,6.624c4.07,0.687,5.319-4.222,6.024-7.35    C210.919,301.695,211.526,289.223,208.286,279.499z M206.728,294.005c-0.068,2.881-0.096,5.68-0.388,8.553    c-0.186,1.829-0.257,12.818-3.915,10.245c-2.8-1.969-1.377-6.153-1.445-8.966c-0.071-2.947-0.024-5.826,0.094-8.758    c0.12-2.977,0.058-5.96,0.254-8.933c0.119-1.816-0.033-6.33,2.062-7.251c1.984-0.873,1.838,2.409,2.278,4.164    C206.58,286.706,206.814,290.27,206.728,294.005z"/>
	</g>
</g>
<g>
	<g>
		<path d="M113.343,320.616c-0.938-2.08-2.897-3.479-5.192-2.301c-2.791,1.433-3.003,5.866-2.624,9.105    c-0.57,3.602-1.079,7.199-1.588,10.825c-0.684,4.865-1.54,10.552-1.003,15.46c0.303,2.772,2.067,7.646,5.657,7.584    c3.945-0.068,4.179-5.138,4.399-7.982c0.448-5.767,0.648-11.673,0.691-17.471C113.714,331.488,115.268,324.888,113.343,320.616z     M110.288,332.477c0.019,6.929-0.398,13.926-0.783,20.83c-0.141,2.521-1.36,7.293-3.003,0.398    c-0.375-1.572-0.018-3.362,0.111-4.912c0.2-2.391-0.029-4.766,0.084-7.163c0.185-3.991,0.406-8.001,0.635-12.01    c0.016-0.034,0.04-0.064,0.05-0.103c0.475-1.631,2.044-10.562,3.275-4.916C111.139,326.802,110.282,330.229,110.288,332.477z"/>
	</g>
</g>
<g>
	<g>
		<path d="M126.561,315.132c-1.167-2.087-3.131-3.549-5.483-2.079c-3.18,1.986-2.639,6.708-2.482,10.026    c-0.605,4.468-1.41,8.915-1.627,13.435c-0.225,4.669-1.562,11.849,0.472,16.223c1.177,2.533,4.101,3.865,6.746,2.39    c3.193-1.781,2.668-6.35,2.892-9.393c0.42-5.711,0.686-11.198,0.643-16.936C127.688,324.464,128.774,319.099,126.561,315.132z     M124.562,326.031c-0.002,6.198-0.273,12.261-0.761,18.431c-0.115,1.444,0.418,4.414-1.477,5.042    c-1.623,0.538-2.469-1.31-2.74-2.544c-0.685-3.121,0.491-6.315,0.449-9.439c-0.072-5.307,1.156-10.807,1.069-16.133    c0.173-1.532,0.312-3.052,0.645-3.365C125.288,314.696,124.562,324.457,124.562,326.031z"/>
	</g>
</g>
<g>
	<g>
		<path d="M340.353,306.69c-0.511-3.627-1.019-7.225-1.588-10.825c0.379-3.241,0.166-7.673-2.624-9.105    c-2.295-1.178-4.255,0.22-5.191,2.301c-1.924,4.272-0.371,10.872-0.34,15.221c0.04,5.797,0.242,11.703,0.69,17.471    c0.221,2.844,0.456,7.914,4.399,7.982c3.589,0.062,5.354-4.811,5.657-7.584C341.891,317.242,341.036,311.554,340.353,306.69z     M337.787,322.151c-1.643,6.895-2.862,2.123-3.003-0.398c-0.384-6.904-0.802-13.901-0.783-20.83    c0.007-2.249-0.849-5.677-0.37-7.875c1.232-5.646,2.8,3.286,3.275,4.916c0.011,0.039,0.034,0.068,0.05,0.103    c0.228,4.008,0.45,8.019,0.635,12.01c0.111,2.397-0.117,4.771,0.084,7.163C337.805,318.79,338.162,320.579,337.787,322.151z"/>
	</g>
</g>
<g>
	<g>
		<path d="M327.323,304.956c-0.217-4.52-1.022-8.966-1.627-13.435c0.157-3.317,0.698-8.038-2.482-10.026    c-2.351-1.469-4.316-0.008-5.48,2.078c-2.214,3.966-1.127,9.331-1.16,13.665c-0.046,5.737,0.22,11.226,0.64,16.937    c0.224,3.043-0.302,7.614,2.892,9.393c2.645,1.475,5.569,0.143,6.746-2.39C328.885,316.805,327.548,309.625,327.323,304.956z     M324.707,315.404c-0.271,1.234-1.118,3.082-2.74,2.544c-1.893-0.629-1.362-3.6-1.477-5.042c-0.489-6.17-0.76-12.233-0.761-18.431    c-0.001-1.573-0.725-11.335,2.815-8.007c0.333,0.312,0.472,1.833,0.645,3.364c-0.087,5.326,1.142,10.827,1.069,16.133    C324.215,309.089,325.392,312.283,324.707,315.404z"/>
	</g>
</g>
<g>
	<g>
		<path d="M312.456,281.024c0.297-2.559-0.472-5.72-3.227-6.546c-3.301-0.99-4.643,2.381-5.523,5.021    c-3.241,9.723-2.634,22.196-0.397,32.122c0.707,3.128,1.955,8.037,6.026,7.35c3.353-0.567,4.516-3.649,4.988-6.625    C315.864,302.634,314.547,290.792,312.456,281.024z M309.568,312.802c-3.657,2.573-3.729-8.417-3.915-10.245    c-0.292-2.873-0.32-5.672-0.387-8.555c-0.086-3.735,0.148-7.298,1.059-10.945c0.439-1.756,0.293-5.037,2.278-4.164    c2.095,0.921,1.943,5.436,2.062,7.251c0.195,2.974,0.133,5.957,0.254,8.933c0.118,2.932,0.165,5.811,0.094,8.758    C310.945,306.649,312.366,310.834,309.568,312.802z"/>
	</g>
</g>
<g>
	<g>
		<path d="M408.055,338.246c-0.511-3.627-1.019-7.225-1.588-10.825c0.379-3.241,0.166-7.673-2.624-9.105    c-2.295-1.179-4.255,0.22-5.191,2.301c-1.924,4.272-0.371,10.872-0.34,15.221c0.04,5.797,0.242,11.703,0.69,17.47    c0.221,2.844,0.456,7.914,4.4,7.982c3.589,0.062,5.354-4.811,5.657-7.584C409.593,348.798,408.738,343.11,408.055,338.246z     M405.489,353.707c-1.643,6.895-2.862,2.123-3.003-0.398c-0.384-6.904-0.802-13.901-0.783-20.83    c0.007-2.249-0.849-5.677-0.37-7.875c1.232-5.646,2.8,3.286,3.275,4.916c0.011,0.039,0.034,0.068,0.05,0.103    c0.228,4.008,0.45,8.019,0.635,12.01c0.111,2.397-0.117,4.771,0.084,7.163C405.507,350.346,405.864,352.135,405.489,353.707z"/>
	</g>
</g>
<g>
	<g>
		<path d="M395.025,336.512c-0.217-4.52-1.022-8.966-1.627-13.435c0.157-3.317,0.698-8.038-2.482-10.026    c-2.351-1.469-4.316-0.008-5.48,2.078c-2.214,3.966-1.127,9.331-1.16,13.665c-0.046,5.737,0.22,11.226,0.64,16.937    c0.224,3.043-0.302,7.614,2.892,9.393c2.645,1.474,5.569,0.143,6.746-2.39C396.586,348.361,395.25,341.181,395.025,336.512z     M392.408,346.96c-0.271,1.234-1.118,3.082-2.74,2.544c-1.893-0.629-1.362-3.6-1.477-5.042c-0.489-6.17-0.76-12.233-0.761-18.431    c-0.001-1.573-0.725-11.335,2.815-8.007c0.333,0.312,0.472,1.833,0.645,3.365c-0.087,5.325,1.142,10.827,1.07,16.133    C391.917,340.645,393.094,343.838,392.408,346.96z"/>
	</g>
</g>
<g>
	<g>
		<path d="M416.272,406.264c-0.31-5.175-0.244-10.395-0.339-15.577c-0.09-4.906,0.487-10.209-0.726-14.991    c1.313-0.522,2.253-1.516,2.624-3.151c1.086-1.466,1.324-2.82,0.97-5.094c-0.631-4.046-1.134-8.065-1.137-12.217    c-0.008-7.655-0.223-15.473-1.276-23.005c-0.515-3.68-0.275-7.399-0.756-11.097c-0.433-3.333-0.258-4.082,0.896-6.745    c1.894-4.371-0.072-7.031-3.336-8.592c0.345-0.334,0.632-0.756,0.784-1.317c1.037-3.836,0.189-7.914-0.026-11.836    c-0.227-4.136-0.155-8.297-0.469-12.426c-0.63-8.256-1.619-16.485-2.39-24.73c-1.344-14.365-1.93-29.178-4.474-43.369    c-2.555-14.256-3.115-29.831-7.984-43.508c-0.941-2.642-1.6-4.8-0.999-7.368c0.368-0.467,0.682-1.006,0.908-1.658    c0.202-0.582,0.339-1.312,0.397-2.075c0.267-0.802,0.448-1.625,0.43-2.694c-0.053-3.189-1.042-6.543-1.994-9.555    c-1.243-3.928-1.418-7.509-1.952-11.558c-1.029-7.814-3.557-14.524-6.558-21.738c-0.856-2.057-1.588-4.302-2.36-6.543    c-0.208-1.425-0.741-2.583-1.27-3.989c-0.421-1.121-0.711-2.222-1.17-3.196c0.831-3.743,1.685-10.866-0.309-15.112    c0.137-0.072,0.27-0.174,0.397-0.316c2.844-3.146,5.02-6.82,7.662-10.091c2.56-3.169,4.986-6.542,3.017-10.642    c-2.153-4.482-5.86-8.411-8.218-12.842c-0.429-0.805-0.803-1.867-1.297-2.824c0.001-0.005,0.005-0.008,0.007-0.014    c0.923-3.216,1.209-6.886,0.442-10.086c-0.439-1.83-0.294-5.404-3.431-4.65c-2.041,0.49-2.691,3.269-2.818,5.041    c-0.202,2.823-0.032,5.568-0.015,8.361c-0.068,0.146-0.129,0.293-0.16,0.452c-0.305,0.292-0.593,0.59-0.867,0.859    c-2.06,2.023-4.224,3.701-6.411,5.549c-2.547,2.152-7.297,5.906-7.949,9.419c-0.657,3.543,3.017,8.518,4.643,11.457    c1.336,2.414,2.757,4.95,4.175,7.296c0.37,0.61,0.715,1.177,1.199,1.641c-0.779,0.802-1.361,1.772-1.582,2.811    c-0.344,1.619-0.047,3.446-0.068,5.098c-0.031,2.562-0.356,5.041-0.515,7.573c-0.132,0.346-0.147,0.675-0.075,0.977    c-1.543,1.644-2.721,3.671-3.333,5.523c-2.183,6.598-2.666,13.567-3.42,20.44c-0.483,4.401-0.559,8.755-0.585,13.177    c-0.01,1.811,0.194,3.797-0.108,5.588c-0.391,2.313-1.634,3.507-2.785,5.414c-2.718,4.504-1.489,9.194,0.29,13.874    c3.051,8.022,1.297,18.613,0.654,27.104c-1.331,17.609-2.079,34.966-2.064,52.632c0.007,7.378,0.387,14.705,0.413,22.075    c0.023,6.17-0.237,13.672,1.935,19.608c-2.429-0.271-4.738,0.64-5.383,3.562c-0.823,3.724,0.367,9.147,0.379,12.968    c0.01,3.436-0.028,6.88,0.04,10.318c-2.029-0.893-4.175-0.53-5.935,2.468c-0.744,1.266-1.418,2.627-2.074,4.012    c-0.063-0.345-0.126-0.692-0.189-1.041c0.045-0.053,0.081-0.115,0.127-0.165c-0.148-5.063-0.474-10.129-1.166-15.072    c-0.515-3.68-0.275-7.398-0.756-11.097c-0.433-3.333-0.258-4.082,0.896-6.745c1.895-4.371-0.072-7.031-3.336-8.592    c0.345-0.334,0.632-0.756,0.784-1.317c1.037-3.836,0.189-7.914-0.026-11.836c-0.227-4.136-0.155-8.297-0.469-12.426    c-0.63-8.256-1.619-16.485-2.39-24.73c-1.344-14.365-1.93-29.178-4.474-43.369c-2.555-14.256-3.115-29.831-7.984-43.508    c-0.941-2.642-1.6-4.8-0.999-7.368c0.368-0.467,0.682-1.006,0.908-1.658c0.202-0.582,0.339-1.312,0.397-2.075    c0.267-0.802,0.448-1.625,0.43-2.694c-0.053-3.189-1.042-6.543-1.994-9.555c-1.243-3.928-1.418-7.509-1.952-11.557    c-1.029-7.814-3.557-14.524-6.558-21.738c-0.856-2.057-1.588-4.302-2.36-6.543c-0.208-1.425-0.741-2.583-1.27-3.989    c-0.421-1.121-0.711-2.222-1.17-3.196c0.831-3.743,1.685-10.866-0.309-15.112c0.137-0.072,0.27-0.176,0.397-0.316    c2.843-3.146,5.02-6.82,7.662-10.091c2.56-3.169,4.986-6.542,3.017-10.642c-2.153-4.482-5.86-8.411-8.218-12.842    c-0.429-0.806-0.803-1.867-1.297-2.824c0.001-0.005,0.005-0.008,0.007-0.014c0.923-3.216,1.209-6.887,0.442-10.086    c-0.439-1.83-0.294-5.404-3.431-4.65c-2.041,0.49-2.691,3.269-2.818,5.041c-0.202,2.823-0.032,5.568-0.015,8.361    c-0.068,0.146-0.128,0.293-0.159,0.452c-0.305,0.291-0.593,0.59-0.867,0.859c-2.06,2.023-4.224,3.701-6.411,5.549    c-2.547,2.152-7.297,5.906-7.949,9.419c-0.657,3.543,3.017,8.518,4.643,11.457c1.336,2.414,2.757,4.95,4.175,7.296    c0.37,0.61,0.715,1.177,1.199,1.641c-0.779,0.801-1.361,1.772-1.582,2.811c-0.344,1.619-0.047,3.446-0.068,5.098    c-0.031,2.562-0.356,5.041-0.515,7.573c-0.132,0.347-0.147,0.675-0.075,0.977c-1.543,1.644-2.721,3.671-3.333,5.523    c-2.183,6.598-2.666,13.567-3.42,20.439c-0.483,4.401-0.559,8.755-0.585,13.177c-0.01,1.811,0.194,3.797-0.108,5.588    c-0.391,2.313-1.634,3.507-2.785,5.414c-2.718,4.504-1.489,9.194,0.29,13.874c3.051,8.022,1.297,18.613,0.654,27.104    c-1.331,17.609-2.079,34.966-2.064,52.632c0.007,7.378,0.388,14.705,0.413,22.075c0.005,1.259,0,2.582,0.005,3.927    c-2.796-2.059-6.198-3.329-9.21-5.098c-4.729-2.777-9.285-5.968-14.773-6.806c-0.021-0.117-0.034-0.235-0.056-0.352    c-1.826-9.918-3.071-20.698-6.082-30.521c-0.491-2.588-1.09-5.163-1.72-7.771c-0.243-1.01-0.682-1.927-1.259-2.687    c2.251-2.134,4.278-6.403,4.478-7.811c0.823-5.796-0.528-12.586-6.732-14.612c-5.184-1.693-11.576,3.286-12.347,8.358    c-0.508,3.341,1.129,7.166,2.801,9.973c0.737,1.237,1.566,2.425,2.715,3.31c0.173,0.134,0.597,0.332,1.066,0.531    c-2.647,2.764-3.476,8.207-4.18,11.479c-0.521,2.426-2.056,5.97-1.466,8.651c-1.469,7.046-2.449,14.276-3.704,21.097    c-0.022,0.117-0.036,0.235-0.056,0.352c-5.487,0.838-10.044,4.029-14.773,6.806c-3.012,1.769-6.414,3.04-9.21,5.098    c0.005-1.345,0-2.668,0.005-3.927c0.026-7.37,0.406-14.696,0.413-22.075c0.016-17.666-0.732-35.023-2.064-52.632    c-0.643-8.49-2.397-19.082,0.654-27.104c1.78-4.681,3.01-9.37,0.291-13.874c-1.151-1.906-2.394-3.099-2.785-5.414    c-0.303-1.791-0.098-3.778-0.108-5.588c-0.026-4.421-0.103-8.776-0.585-13.177c-0.754-6.872-1.237-13.842-3.419-20.439    c-0.613-1.852-1.789-3.879-3.333-5.523c0.072-0.301,0.059-0.63-0.075-0.977c-0.159-2.533-0.484-5.012-0.515-7.573    c-0.02-1.652,0.276-3.479-0.068-5.098c-0.221-1.04-0.803-2.009-1.582-2.811c0.484-0.464,0.831-1.03,1.199-1.641    c1.418-2.345,2.839-4.881,4.176-7.296c1.626-2.939,5.3-7.913,4.643-11.457c-0.652-3.513-5.401-7.267-7.949-9.419    c-2.187-1.849-4.351-3.525-6.411-5.549c-0.275-0.27-0.562-0.568-0.867-0.859c-0.032-0.159-0.092-0.306-0.159-0.452    c0.016-2.793,0.187-5.538-0.015-8.361c-0.127-1.772-0.778-4.551-2.818-5.041c-3.137-0.754-2.991,2.819-3.431,4.65    c-0.768,3.199-0.481,6.869,0.442,10.086c0.001,0.005,0.005,0.008,0.007,0.014c-0.493,0.956-0.868,2.017-1.297,2.824    c-2.358,4.43-6.066,8.359-8.218,12.842c-1.969,4.1,0.458,7.472,3.017,10.642c2.642,3.271,4.818,6.945,7.662,10.091    c0.127,0.141,0.26,0.244,0.397,0.316c-1.994,4.247-1.139,11.369-0.309,15.112c-0.458,0.975-0.749,2.075-1.17,3.196    c-0.528,1.407-1.063,2.565-1.27,3.989c-0.772,2.242-1.505,4.486-2.36,6.543c-3.001,7.214-5.529,13.924-6.558,21.738    c-0.534,4.048-0.708,7.63-1.952,11.558c-0.954,3.012-1.942,6.366-1.994,9.555c-0.017,1.069,0.163,1.892,0.429,2.694    c0.057,0.763,0.195,1.493,0.397,2.075c0.226,0.652,0.538,1.191,0.908,1.658c0.6,2.568-0.059,4.727-0.999,7.368    c-4.869,13.677-5.429,29.252-7.984,43.508c-2.544,14.191-3.13,29.004-4.474,43.369c-0.771,8.245-1.76,16.472-2.39,24.73    c-0.314,4.129-0.242,8.291-0.469,12.426c-0.216,3.921-1.065,8-0.026,11.836c0.151,0.561,0.438,0.983,0.784,1.317    c-3.265,1.562-5.23,4.222-3.336,8.592c1.154,2.663,1.329,3.411,0.896,6.745c-0.481,3.698-0.241,7.417-0.756,11.097    c-0.692,4.943-1.019,10.01-1.166,15.072c0.046,0.051,0.083,0.112,0.127,0.165c-0.063,0.35-0.126,0.697-0.189,1.041    c-0.655-1.384-1.331-2.745-2.073-4.012c-1.76-2.997-3.906-3.361-5.935-2.468c0.067-3.439,0.029-6.883,0.04-10.318    c0.011-3.822,1.201-9.244,0.379-12.968c-0.646-2.922-2.955-3.833-5.383-3.562c2.172-5.936,1.913-13.438,1.935-19.608    c0.026-7.37,0.406-14.696,0.413-22.075c0.016-17.666-0.732-35.023-2.064-52.632c-0.643-8.49-2.397-19.082,0.654-27.104    c1.78-4.681,3.01-9.372,0.292-13.874c-1.151-1.906-2.394-3.099-2.785-5.414c-0.303-1.791-0.098-3.778-0.108-5.588    c-0.026-4.421-0.103-8.776-0.585-13.177c-0.754-6.872-1.237-13.842-3.419-20.44c-0.613-1.852-1.789-3.879-3.333-5.523    c0.072-0.301,0.058-0.63-0.075-0.977c-0.159-2.533-0.484-5.012-0.515-7.573c-0.019-1.652,0.277-3.479-0.068-5.098    c-0.221-1.04-0.803-2.009-1.582-2.811c0.484-0.464,0.831-1.03,1.199-1.641c1.418-2.345,2.839-4.881,4.175-7.296    c1.626-2.939,5.3-7.913,4.643-11.457c-0.652-3.513-5.401-7.267-7.949-9.419c-2.187-1.849-4.35-3.525-6.411-5.549    c-0.274-0.27-0.563-0.568-0.867-0.859c-0.032-0.16-0.092-0.306-0.159-0.452c0.016-2.793,0.187-5.538-0.015-8.361    c-0.127-1.772-0.777-4.551-2.818-5.041c-3.137-0.754-2.992,2.819-3.431,4.65c-0.768,3.199-0.481,6.869,0.442,10.086    c0.001,0.005,0.005,0.008,0.007,0.014c-0.493,0.956-0.867,2.017-1.297,2.824c-2.358,4.43-6.066,8.359-8.218,12.842    c-1.969,4.1,0.458,7.472,3.017,10.642c2.642,3.271,4.817,6.945,7.662,10.091c0.127,0.141,0.26,0.244,0.397,0.316    c-1.994,4.247-1.139,11.369-0.309,15.112c-0.458,0.975-0.749,2.075-1.17,3.196c-0.528,1.407-1.063,2.565-1.27,3.989    c-0.772,2.242-1.505,4.486-2.36,6.543c-3.001,7.214-5.529,13.924-6.558,21.738c-0.534,4.048-0.708,7.63-1.952,11.558    c-0.954,3.012-1.942,6.366-1.994,9.555c-0.017,1.069,0.163,1.892,0.429,2.694c0.057,0.763,0.195,1.493,0.397,2.075    c0.226,0.652,0.538,1.191,0.908,1.658c0.6,2.568-0.059,4.727-0.999,7.368c-4.869,13.677-5.429,29.252-7.984,43.508    c-2.544,14.191-3.13,29.004-4.474,43.369c-0.771,8.245-1.76,16.472-2.39,24.73c-0.314,4.129-0.242,8.291-0.469,12.426    c-0.216,3.921-1.065,8-0.026,11.836c0.151,0.561,0.438,0.983,0.784,1.317c-3.265,1.562-5.23,4.222-3.336,8.592    c1.154,2.663,1.329,3.411,0.896,6.745c-0.48,3.698-0.241,7.417-0.756,11.097c-1.053,7.532-1.269,15.35-1.276,23.005    c-0.003,4.153-0.506,8.171-1.137,12.217c-0.355,2.272-0.116,3.627,0.97,5.094c0.372,1.636,1.31,2.629,2.624,3.151    c-1.214,4.782-0.637,10.084-0.726,14.991c-0.094,5.183-0.029,10.402-0.339,15.577c-0.656,10.961-1.332,21.753-1.582,32.745    c-0.254,11.152-0.231,22.3-0.36,33.454c-0.095,8.14,1.122,16.206,1.243,24.347c0.045,3.024,0.031,6.777,2.445,9.022    c2.492,2.317,6.136,2.24,9.277,2.582c8.729,0.952,17.43,0.724,26.164,1.405c9.459,0.737,18.675,0.458,28.123-0.071    c4.472-0.25,8.949-0.194,13.436-0.207c3.82-0.01,7.637,0.678,11.481,0.755c1.851,0.423,3.86,0.524,5.347,0.701    c6.919,0.822,13.67,0.889,20.606,0.988c6.474,0.093,13.041-0.33,19.492-0.902c1.722-0.153,3.437-0.361,5.151-0.573    c2.771,0.131,5.532,0.128,8.293,0.052c1.118,0.022,2.227-0.005,3.329-0.11c0.417-0.016,0.834-0.029,1.251-0.046    c4.075-0.164,8.255-0.151,12.445-0.232c3.522,0.671,7.116,0.368,10.827,0.005c2.637,0.297,5.265,0.669,7.91,0.904    c6.451,0.571,13.018,0.994,19.492,0.902c6.937-0.099,13.687-0.167,20.606-0.988c1.487-0.177,3.496-0.278,5.347-0.701    c3.845-0.077,7.662-0.765,11.481-0.755c4.487,0.013,8.964-0.044,13.437,0.207c9.447,0.529,18.663,0.808,28.123,0.071    c8.734-0.68,17.435-0.453,26.164-1.405c3.141-0.342,6.785-0.265,9.277-2.582c2.414-2.245,2.399-5.999,2.445-9.022    c0.122-8.141,1.338-16.207,1.243-24.347c-0.13-11.154-0.107-22.302-0.36-33.454C417.604,428.018,416.928,417.225,416.272,406.264z     M397.305,194.742c1.999,18.702,3.914,37.404,5.972,56.094c0.983,8.931,2.033,17.911,2.703,26.869    c0.587,7.87-0.303,16.463,1.547,24.257c-1.646-0.591-4.451-1.938-5.008-2.152c-0.815-0.312-1.636-0.615-2.453-0.924    c-1.565-22.618-3.541-45.491-3.661-68.144c-0.064-12.025-1.464-24.24-2.538-36.219c-0.448-4.998-1.08-9.781-2.179-14.689    c-1.138-5.075-2.462-10.245-3.501-15.342c0.178-0.029,0.356-0.049,0.534-0.08c1.689-0.296,3.581-0.467,5.276-0.956    c0.112,1.135,0.371,2.269,0.663,3.437C396.934,175.981,396.31,185.429,397.305,194.742z M387.898,260.868    c-0.092-9.906-0.74-19.903-1.846-29.745c-1.306-11.614-1.06-23.853-1.13-35.54c-0.062-10.29-1.273-20.449-2.334-30.618    c1.211-0.029,2.419-0.087,3.628-0.213c0.252,5.027,1.308,10.268,2.277,15.163c1.082,5.467,1.17,10.991,1.586,16.532    c0.9,11.975,2.232,24.071,2.195,36.073c-0.037,11.996,0.539,24.494,1.688,36.47c0.889,9.256,0.554,18.841,1.401,28.127    c-1.954-0.729-3.911-1.458-5.861-2.199c0.025-0.132,0.045-0.266,0.047-0.413C389.707,283.2,388.002,272.144,387.898,260.868z     M377.006,164.874c1.246,0.063,2.485,0.099,3.724,0.108c-0.839,10.449,0.764,21.221,0.677,31.695    c-0.093,11.115-0.364,22.725,0.714,33.794c1.017,10.447,1.667,20.875,1.737,31.378c0.07,10.503,1.467,20.862,1.366,31.375    c-1.787-0.732-3.569-1.483-5.338-2.259c-0.536-9.186-2.072-18.38-2.519-27.574c-0.55-11.317-1.185-22.603-1.32-33.962    c-0.139-11.748,0.387-23.587,0.596-35.36C376.812,184.513,378.232,174.421,377.006,164.874z M370.247,65.474    c-1.589-3.266-1.465-3.794,0.853-6.371c0.78-0.868,2.127-2.601,2.854-3.313c1.307-1.282,3.02-2.217,4.373-3.49    c0.302-0.283,2.628-3.239,3.135-4.028c0.129,0.007,0.258,0.005,0.388-0.01c0.368,0.551,0.703,1.121,0.988,1.722    c0.783,1.271,1.586,2.604,2.45,3.834c2.44,3.471,7.004,8.004,5.394,12.757c-0.818,2.414-3.459,4.294-4.872,6.439    c-1.573,2.387-3.234,4.959-3.821,7.793c-0.869-0.686-1.961-1.099-3.337-1.12c-0.301-0.005-0.605,0.029-0.908,0.079    C377.395,75.123,372.142,69.368,370.247,65.474z M380.743,95.289c-1.572-0.561-3.106-0.5-4.536-0.019    c0.112-2.303,0.173-4.597,0.053-6.921c-0.083-1.592-0.592-6.456,2.817-5.277c2.098,0.725,1.873,7.291,1.734,9.029    C380.709,93.364,380.658,94.337,380.743,95.289z M370.418,147.418c1.263-3.456,0.802-7.423,0.781-11.03    c-0.052-8.629-0.291-17.765,1.376-26.258c0.707-3.599,2.186-11.709,7.155-8.576c1.099,0.693,1.882,1.853,2.547,3.158    c0.396,1.66,0.771,3.314,1.245,4.834c1.255,4.029,2.776,8.092,3.812,12.188c2.239,8.846-0.507,19.27,3.846,27.375    c-2.987-0.738-6.375-0.748-9.151-0.812c-4.109-0.094-8.078,0.209-12.155,0.248C370.082,148.186,370.272,147.816,370.418,147.418z     M366.268,153.619c0.091-0.192,0.2-0.374,0.307-0.557c3.336,0.656,7.958-0.545,10.846-0.687    c4.199-0.206,11.872-0.867,16.584,0.974c1.3,1.955,1.497,2.785,1.263,3.672c-0.919,1.419-2.273,2.413-4.282,2.653    c-2.689,0.32-5.295,0.972-7.993,0.882c-3.26-0.108-6.715-0.243-9.942-0.721c-2.366-0.351-4.848-1.15-7.244-1.052    C365.446,157.098,365.431,155.388,366.268,153.619z M368.33,272.461c-0.119-4.005-0.382-7.937-0.364-11.957    c0.038-8.351-0.4-16.733-0.392-25.108c0.017-18.918,2.054-37.855,1.321-56.745c-0.165-4.248,0.023-8.851-0.941-13.029    c-0.135-0.588-0.313-1.172-0.507-1.756c2.345,0.736,5.189,0.775,7.355,0.888c-1.582,9.917-1.896,20.336-1.913,30.305    c-0.02,11.492-0.866,22.909-0.942,34.366c-0.132,19.867,0.911,39.697,3.161,59.404c-1.704-0.737-3.892-1.277-5.319-2.334    c-1.042-0.771-1.715-1.813-2.207-2.967C368.857,280.02,368.441,276.226,368.33,272.461z M364.862,288.006    c1.338,2.093,3.436,3.837,6.285,5.277c6.169,3.119,12.665,5.571,19.14,7.949c4.097,1.504,7.992,3.519,12.147,4.872    c1.992,0.648,3.947,0.806,5.952,1.207c1.83,0.366,3.224,1.814,4.5,3.188c0.283,0.305,0.576,0.738,0.376,1.104    c-0.122,0.224-0.386,0.325-0.633,0.384c-1.816,0.438-3.683-0.476-5.407-0.926c-1.975-0.515-3.975-0.925-5.975-1.328    c-5.14-1.035-10.107-2.724-14.844-5.002c-5.242-2.52-10.26-5.044-15.309-7.923c-2.041-1.164-5.143-3.74-7.713-4.256    c-0.013-0.396-0.021-0.791-0.047-1.185C363.096,287.904,362.46,288.759,364.862,288.006z M377.268,344.359    c-3.658,2.573-3.729-8.417-3.915-10.245c-0.291-2.873-0.32-5.672-0.387-8.555c-0.086-3.735,0.148-7.299,1.06-10.946    c0.439-1.756,0.293-5.037,2.278-4.164c2.095,0.921,1.943,5.436,2.062,7.251c0.195,2.974,0.133,5.957,0.254,8.933    c0.118,2.932,0.165,5.811,0.094,8.758C378.647,338.207,380.068,342.39,377.268,344.359z M377.037,350.526    c3.353-0.567,4.517-3.649,4.988-6.625c1.541-9.711,0.224-21.553-1.867-31.322c0.297-2.559-0.472-5.72-3.227-6.546    c-3.301-0.99-4.643,2.381-5.523,5.021c-1.866,5.599-2.448,12.107-2.185,18.517c-0.504-1.324-1.02-2.647-1.573-3.975    c-1.309-3.146-2.863-6.342-4.309-9.459c-0.157-5.689-0.018-11.396-0.001-17.092c0.002-0.91,0.024-1.822,0.044-2.734    c3.806,1.785,7.508,4.451,11.241,6.344c4.849,2.46,9.921,4.484,14.789,6.947c4.481,2.266,8.197,3.973,13.058,5.159    c2.892,0.706,5.565,1.827,8.293,1.851c-0.081,0.472-0.129,1.007-0.116,1.696c0.1,5.499,0.616,11.245,1.079,16.733    c0.559,6.626,0.49,13.522,0.469,20.191c-0.009,3.06,0.042,6.23,0.327,9.268c0.266,2.845,1.292,4.398,0.445,6.991    c-3.481,0.616-8.859-2.962-11.875-4.23c-5.698-2.394-11.235-5.204-16.821-7.844c-1.96-0.927-3.96-1.835-5.956-2.757    c-0.703-2.021-1.396-4.046-2.079-6.076C376.494,350.589,376.758,350.573,377.037,350.526z M329.603,163.186    c1.999,18.702,3.914,37.404,5.972,56.094c0.983,8.931,2.033,17.911,2.703,26.869c0.588,7.869-0.303,16.463,1.547,24.257    c-1.646-0.591-4.451-1.938-5.008-2.152c-0.815-0.312-1.636-0.615-2.453-0.924c-1.565-22.618-3.541-45.491-3.661-68.144    c-0.064-12.025-1.464-24.24-2.538-36.219c-0.448-4.998-1.08-9.781-2.179-14.689c-1.138-5.075-2.463-10.245-3.501-15.342    c0.178-0.029,0.356-0.049,0.534-0.08c1.689-0.296,3.581-0.467,5.276-0.956c0.112,1.136,0.371,2.269,0.663,3.437    C329.232,144.425,328.608,153.873,329.603,163.186z M320.196,229.312c-0.092-9.906-0.74-19.903-1.846-29.745    c-1.306-11.614-1.06-23.853-1.13-35.54c-0.062-10.29-1.273-20.449-2.334-30.619c1.211-0.029,2.419-0.087,3.628-0.215    c0.252,5.027,1.308,10.268,2.277,15.163c1.082,5.467,1.17,10.991,1.586,16.532c0.9,11.975,2.232,24.071,2.195,36.073    c-0.037,11.996,0.539,24.494,1.688,36.47c0.889,9.256,0.554,18.841,1.401,28.127c-1.954-0.729-3.911-1.458-5.861-2.199    c0.025-0.132,0.045-0.266,0.047-0.413C322.005,251.645,320.3,240.588,320.196,229.312z M309.304,133.318    c1.246,0.063,2.485,0.099,3.724,0.109c-0.839,10.449,0.764,21.221,0.677,31.695c-0.093,11.115-0.364,22.725,0.714,33.794    c1.017,10.447,1.667,20.875,1.737,31.378s1.466,20.863,1.365,31.375c-1.787-0.732-3.569-1.483-5.338-2.259    c-0.536-9.186-2.072-18.381-2.519-27.574c-0.55-11.317-1.185-22.603-1.32-33.962c-0.139-11.748,0.387-23.587,0.596-35.36    C309.11,152.957,310.53,142.865,309.304,133.318z M302.545,33.918c-1.589-3.266-1.465-3.794,0.853-6.371    c0.78-0.867,2.127-2.601,2.854-3.313c1.307-1.282,3.02-2.217,4.373-3.49c0.302-0.283,2.628-3.239,3.135-4.028    c0.128,0.007,0.258,0.005,0.388-0.01c0.368,0.551,0.703,1.121,0.988,1.722c0.783,1.271,1.586,2.604,2.45,3.834    c2.44,3.471,7.004,8.004,5.394,12.757c-0.818,2.414-3.459,4.294-4.872,6.439c-1.573,2.387-3.234,4.959-3.821,7.793    c-0.869-0.686-1.961-1.099-3.337-1.12c-0.301-0.005-0.605,0.029-0.908,0.079C309.693,43.567,304.44,37.812,302.545,33.918z     M313.041,63.733c-1.572-0.561-3.106-0.5-4.536-0.02c0.112-2.303,0.173-4.597,0.053-6.92c-0.083-1.592-0.592-6.456,2.817-5.277    c2.098,0.725,1.873,7.291,1.734,9.028C313.007,61.808,312.956,62.781,313.041,63.733z M302.716,115.862    c1.263-3.456,0.802-7.423,0.781-11.03c-0.052-8.629-0.291-17.765,1.376-26.258c0.707-3.599,2.186-11.709,7.155-8.576    c1.099,0.693,1.882,1.853,2.547,3.158c0.396,1.66,0.771,3.314,1.245,4.834c1.255,4.029,2.776,8.092,3.812,12.188    c2.239,8.846-0.507,19.27,3.846,27.375c-2.987-0.738-6.375-0.748-9.151-0.812c-4.109-0.094-8.078,0.209-12.155,0.248    C302.38,116.63,302.57,116.26,302.716,115.862z M298.566,122.063c0.091-0.192,0.2-0.374,0.307-0.557    c3.336,0.656,7.958-0.545,10.846-0.687c4.199-0.207,11.872-0.867,16.583,0.974c1.3,1.955,1.497,2.785,1.263,3.672    c-0.919,1.419-2.273,2.413-4.282,2.653c-2.689,0.32-5.294,0.972-7.993,0.882c-3.26-0.107-6.715-0.242-9.942-0.721    c-2.366-0.351-4.848-1.15-7.244-1.052C297.744,125.542,297.729,123.832,298.566,122.063z M300.628,240.905    c-0.119-4.005-0.382-7.937-0.364-11.957c0.038-8.351-0.401-16.733-0.392-25.108c0.017-18.918,2.054-37.855,1.321-56.745    c-0.165-4.248,0.023-8.851-0.941-13.029c-0.135-0.588-0.313-1.172-0.507-1.756c2.345,0.736,5.189,0.775,7.355,0.888    c-1.582,9.917-1.896,20.336-1.913,30.305c-0.02,11.492-0.866,22.909-0.942,34.366c-0.132,19.867,0.911,39.697,3.161,59.404    c-1.704-0.737-3.892-1.277-5.319-2.334c-1.042-0.771-1.716-1.813-2.207-2.967C301.155,248.464,300.739,244.67,300.628,240.905z     M297.16,256.45c1.338,2.093,3.436,3.837,6.285,5.277c6.169,3.119,12.665,5.571,19.14,7.949c4.097,1.504,7.992,3.519,12.147,4.872    c1.992,0.648,3.947,0.805,5.952,1.207c1.83,0.366,3.224,1.814,4.5,3.188c0.283,0.305,0.576,0.738,0.376,1.104    c-0.122,0.224-0.385,0.325-0.633,0.384c-1.817,0.438-3.683-0.476-5.407-0.926c-1.975-0.515-3.975-0.925-5.975-1.328    c-5.14-1.035-10.107-2.724-14.844-5.002c-5.242-2.52-10.26-5.044-15.309-7.922c-2.041-1.164-5.143-3.74-7.713-4.256    c-0.013-0.396-0.021-0.791-0.047-1.185C295.394,256.348,294.758,257.203,297.16,256.45z M297.16,300.748    c-0.993-5.047-1.324-10.037-1.5-15.157c-0.207-6.023-0.04-12.067-0.021-18.099c0.002-0.91,0.024-1.822,0.044-2.734    c3.806,1.786,7.508,4.451,11.241,6.344c4.849,2.46,9.921,4.484,14.789,6.947c4.481,2.266,8.197,3.973,13.058,5.159    c2.892,0.706,5.565,1.827,8.293,1.851c-0.081,0.472-0.129,1.008-0.116,1.696c0.1,5.499,0.616,11.245,1.079,16.733    c0.559,6.626,0.49,13.522,0.469,20.191c-0.006,1.719,0.032,3.464,0.099,5.207c-0.037,0.106-0.077,0.212-0.114,0.319    c-1.158,3.375-2.48,6.667-3.798,9.957c-2.662-1.012-5.427-2.67-7.29-3.454c-5.698-2.394-11.235-5.204-16.821-7.844    c-4.218-1.994-8.656-3.835-12.731-6.13c-1.626-0.916-4.046-1.978-5.3-3.28c-2.026-2.103-0.841-3.109-0.254-5.283    C299.438,308.918,297.983,304.933,297.16,300.748z M274.263,264.561c2.158,1.278,4.577,2.251,6.019,2.925    c2.795,1.307,5.692,2.495,8.535,3.698c0.477,0.202,0.923,0.404,1.36,0.568c-0.008,3.377-0.021,6.76,0.12,10.13    c0.286,6.792,1.624,13.293,3.118,19.896c0.411,1.819,1.463,4.614,1.347,6.397c-0.151,2.339-1.074,2.926-1.874,4.265    c-2.747-1.704-6.797-2.738-8.838-3.685c-5.3-2.459-11.614-6.031-17.536-6.086c-0.117-0.001-0.226,0.021-0.335,0.045    c-0.332-1.249-0.62-2.561-0.523-3.214c0.322-2.204,2.846-2.41,4.519-3.461c3.752-2.356,5.802-6.675,6.059-10.997    C276.638,278.264,275.523,271.365,274.263,264.561z M280.188,313.026c3.47,1.554,7.281,3.502,11.14,4.25    c0.016,0.434,0.079,0.888,0.217,1.385c0.398,1.438,1.34,2.687,2.559,3.783c-0.528,1.655,0,3.706,0.048,5.423    c0.125,4.572,0.274,9.182,0.515,13.741c0.153,2.884,0.406,5.848,0.716,8.768c0.009,2.117,0.072,4.223,0.18,6.302    c0.056,1.077,0.023,2.226-0.051,3.41c-4.63-10.866-11.05-20.928-16.086-31.634c-3.065-6.518-6.074-13.327-9.913-19.551    C272.861,310.699,277.042,311.617,280.188,313.026z M281.459,235.707c3.265,1.906,7.841,4.787,11.897,5.428    c0.168,3.797,0.61,7.61,1.827,10.934c-2.429-0.271-4.738,0.64-5.383,3.562c-0.711,3.216,0.077,7.696,0.314,11.321    c-2.437-1.634-5.106-2.799-7.864-4.27c-2.391-1.275-4.636-2.779-7.041-4.032c-0.906-0.473-1.533-0.607-2.168-0.663    c-0.236-1.317-0.464-2.628-0.667-3.93c-1.302-8.32-1.371-16.705-2.425-25.041C273.347,231.776,277.787,233.562,281.459,235.707z     M250.487,167.233c1.708-6.333,9.189-3.939,9.517,1.312c0.301,4.807-0.787,8.109-3.845,11.742    c-0.128,0.153-0.237,0.32-0.333,0.495c-0.657-0.952-1.676-1.811-2.234-2.612C251.497,175.153,249.486,170.944,250.487,167.233z     M218.637,241.135c4.056-0.64,8.633-3.522,11.897-5.428c3.672-2.145,8.112-3.931,11.51-6.692    c-1.053,8.335-1.122,16.72-2.425,25.041c-0.204,1.302-0.43,2.614-0.667,3.93c-0.635,0.056-1.26,0.19-2.168,0.663    c-2.406,1.253-4.65,2.757-7.041,4.032c-2.757,1.47-5.428,2.636-7.864,4.27c0.236-3.625,1.025-8.105,0.313-11.321    c-0.646-2.922-2.955-3.833-5.383-3.562C218.027,248.745,218.47,244.931,218.637,241.135z M213.704,313.169    c0.587,2.174,1.774,3.18-0.254,5.283c-1.254,1.301-3.674,2.364-5.3,3.28c-4.076,2.296-8.513,4.137-12.731,6.13    c-5.586,2.64-11.123,5.451-16.821,7.844c-1.864,0.783-4.628,2.442-7.29,3.454c-1.318-3.29-2.64-6.583-3.798-9.957    c-0.037-0.107-0.077-0.212-0.114-0.319c0.067-1.743,0.103-3.49,0.099-5.207c-0.021-6.669-0.091-13.566,0.469-20.191    c0.464-5.487,0.979-11.234,1.079-16.733c0.013-0.688-0.034-1.224-0.116-1.696c2.728-0.024,5.402-1.146,8.293-1.851    c4.862-1.185,8.577-2.893,13.058-5.159c4.868-2.463,9.94-4.487,14.789-6.947c3.733-1.893,7.433-4.56,11.241-6.344    c0.019,0.912,0.041,1.824,0.044,2.734c0.018,6.032,0.185,12.076-0.021,18.099c-0.174,5.12-0.507,10.111-1.5,15.157    C214.009,304.933,212.554,308.918,213.704,313.169z M216.429,356.679c0.108-2.079,0.171-4.185,0.18-6.302    c0.309-2.92,0.563-5.885,0.716-8.768c0.147-2.788,0.255-5.594,0.349-8.401c0.802-3.419,0.694-6.94,1.845-10.327    c0.677-1.992,1.296-3.969,2.208-5.849c3.494-0.867,6.926-2.593,10.078-4.005c3.146-1.409,7.328-2.327,10.674-4.122    c-3.839,6.224-6.848,13.033-9.913,19.551c-5.035,10.706-11.455,20.77-16.086,31.634    C216.406,358.905,216.373,357.758,216.429,356.679z M227.942,308.759c-2.041,0.947-6.091,1.981-8.838,3.685    c-0.799-1.34-1.721-1.928-1.874-4.265c-0.116-1.783,0.936-4.578,1.347-6.397c1.493-6.605,2.831-13.104,3.118-19.896    c0.142-3.371,0.13-6.753,0.12-10.13c0.437-0.165,0.882-0.367,1.36-0.568c2.843-1.204,5.739-2.391,8.535-3.698    c1.441-0.674,3.86-1.647,6.019-2.925c-1.26,6.803-2.375,13.703-1.971,20.483c0.257,4.323,2.306,8.641,6.059,10.998    c1.674,1.051,4.196,1.256,4.519,3.461c0.091,0.62-0.166,1.834-0.475,3.022c-0.037,0.06-0.072,0.122-0.108,0.184    c-0.09-0.018-0.179-0.038-0.274-0.037C239.555,302.727,233.242,306.298,227.942,308.759z M193.888,41.456    c-1.414-2.143-4.054-4.023-4.872-6.439c-1.611-4.753,2.954-9.285,5.394-12.757c0.864-1.229,1.667-2.561,2.45-3.834    c0.283-0.601,0.62-1.172,0.988-1.722c0.13,0.015,0.259,0.017,0.388,0.01c0.506,0.788,2.833,3.745,3.135,4.028    c1.353,1.273,3.066,2.208,4.373,3.49c0.725,0.711,2.073,2.445,2.854,3.313c2.318,2.578,2.442,3.105,0.853,6.371    c-1.895,3.893-7.148,9.648-7.494,14.29c-0.303-0.05-0.607-0.084-0.908-0.079c-1.376,0.021-2.468,0.434-3.337,1.12    C197.122,46.416,195.461,43.843,193.888,41.456z M203.488,63.714c-1.43-0.481-2.964-0.542-4.536,0.02    c0.085-0.951,0.033-1.924-0.068-3.189c-0.139-1.737-0.364-8.303,1.734-9.028c3.409-1.178,2.9,3.686,2.817,5.277    C203.315,59.117,203.375,61.411,203.488,63.714z M192.358,90.178c1.036-4.095,2.557-8.159,3.812-12.188    c0.474-1.522,0.85-3.174,1.245-4.834c0.667-1.305,1.448-2.465,2.547-3.158c4.969-3.133,6.449,4.978,7.155,8.576    c1.667,8.493,1.427,17.63,1.376,26.258c-0.022,3.607-0.483,7.573,0.781,11.03c0.146,0.398,0.335,0.768,0.542,1.126    c-4.076-0.039-8.046-0.342-12.155-0.248c-2.776,0.063-6.164,0.075-9.151,0.812C192.866,109.446,190.12,99.022,192.358,90.178z     M185.69,121.793c4.712-1.841,12.385-1.181,16.583-0.974c2.888,0.142,7.51,1.344,10.846,0.687    c0.107,0.182,0.217,0.365,0.308,0.557c0.837,1.768,0.822,3.479,0.462,5.166c-2.397-0.099-4.878,0.701-7.244,1.052    c-3.227,0.479-6.682,0.614-9.942,0.721c-2.698,0.088-5.305-0.562-7.993-0.882c-2.009-0.24-3.363-1.234-4.282-2.653    C184.193,124.579,184.39,123.749,185.69,121.793z M212.122,203.84c0.007,8.376-0.43,16.758-0.392,25.108    c0.018,4.02-0.246,7.951-0.364,11.957c-0.111,3.765-0.528,7.559,0.747,11.07c-0.491,1.154-1.165,2.195-2.207,2.967    c-1.426,1.056-3.615,1.597-5.319,2.334c2.25-19.706,3.293-39.537,3.161-59.404c-0.076-11.458-0.923-22.874-0.942-34.366    c-0.017-9.969-0.33-20.389-1.913-30.305c2.166-0.114,5.011-0.153,7.355-0.888c-0.194,0.583-0.372,1.168-0.507,1.756    c-0.964,4.178-0.776,8.781-0.941,13.029C210.068,165.985,212.104,184.923,212.122,203.84z M190.192,263.361    c-1.951,0.74-3.907,1.47-5.861,2.199c0.847-9.288,0.513-18.872,1.401-28.127c1.15-11.975,1.725-24.475,1.688-36.47    c-0.037-12.002,1.296-24.097,2.195-36.073c0.417-5.542,0.505-11.065,1.586-16.532c0.968-4.895,2.024-10.136,2.277-15.163    c1.209,0.127,2.418,0.186,3.628,0.215c-1.063,10.169-2.272,20.329-2.334,30.619c-0.07,11.687,0.176,23.926-1.13,35.54    c-1.106,9.842-1.755,19.839-1.846,29.745c-0.104,11.276-1.81,22.331-1.651,33.636    C190.147,263.095,190.168,263.231,190.192,263.361z M195.838,230.292c0.07-10.504,0.721-20.931,1.737-31.378    c1.078-11.069,0.806-22.679,0.714-33.794c-0.087-10.473,1.517-21.245,0.677-31.695c1.237-0.01,2.476-0.045,3.724-0.109    c-1.227,9.548,0.194,19.64,0.364,29.194c0.209,11.773,0.734,23.612,0.596,35.36c-0.134,11.359-0.77,22.646-1.32,33.962    c-0.446,9.193-1.983,18.387-2.519,27.574c-1.769,0.777-3.55,1.527-5.338,2.259C194.372,251.155,195.768,240.795,195.838,230.292z     M173.714,246.148c0.669-8.957,1.72-17.938,2.703-26.868c2.059-18.69,3.973-37.392,5.972-56.094    c0.995-9.313,0.371-18.76,2.646-27.851c0.293-1.168,0.551-2.301,0.663-3.437c1.696,0.489,3.587,0.66,5.276,0.956    c0.178,0.031,0.356,0.052,0.534,0.08c-1.038,5.097-2.363,10.267-3.501,15.342c-1.099,4.907-1.732,9.691-2.179,14.689    c-1.074,11.98-2.474,24.196-2.538,36.219c-0.12,22.653-2.095,45.526-3.661,68.144c-0.817,0.308-1.639,0.612-2.453,0.924    c-0.557,0.213-3.362,1.561-5.008,2.152C174.017,262.611,173.125,254.017,173.714,246.148z M166.807,278.943    c1.276-1.374,2.67-2.822,4.5-3.188c2.006-0.402,3.96-0.559,5.952-1.207c4.155-1.353,8.051-3.368,12.147-4.872    c6.475-2.378,12.972-4.83,19.14-7.949c2.849-1.44,4.948-3.185,6.285-5.277c2.403,0.753,1.766-0.101,1.526,3.361    c-0.028,0.395-0.034,0.789-0.047,1.185c-2.57,0.516-5.672,3.092-7.713,4.256c-5.049,2.879-10.067,5.402-15.309,7.922    c-4.738,2.278-9.705,3.967-14.845,5.002c-2,0.403-4,0.812-5.975,1.328c-1.724,0.45-3.589,1.364-5.407,0.926    c-0.248-0.06-0.512-0.161-0.632-0.384C166.231,279.682,166.524,279.25,166.807,278.943z M126.186,73.012    c-1.414-2.143-4.054-4.023-4.872-6.439c-1.611-4.753,2.954-9.286,5.394-12.757c0.864-1.229,1.667-2.561,2.45-3.834    c0.283-0.601,0.62-1.172,0.988-1.722c0.13,0.015,0.259,0.017,0.388,0.01c0.506,0.788,2.833,3.745,3.134,4.028    c1.353,1.273,3.066,2.208,4.373,3.49c0.725,0.711,2.074,2.445,2.853,3.313c2.318,2.577,2.442,3.105,0.853,6.371    c-1.895,3.893-7.148,9.648-7.494,14.29c-0.303-0.05-0.607-0.085-0.908-0.079c-1.376,0.021-2.468,0.435-3.337,1.12    C129.42,77.972,127.759,75.399,126.186,73.012z M135.786,95.27c-1.43-0.481-2.964-0.542-4.536,0.02    c0.085-0.951,0.033-1.924-0.068-3.189c-0.139-1.737-0.364-8.303,1.734-9.028c3.409-1.178,2.9,3.686,2.817,5.277    C135.613,90.673,135.674,92.967,135.786,95.27z M124.656,121.734c1.036-4.095,2.557-8.159,3.812-12.188    c0.474-1.522,0.85-3.174,1.246-4.834c0.667-1.305,1.448-2.465,2.547-3.158c4.969-3.133,6.449,4.978,7.155,8.576    c1.667,8.493,1.427,17.63,1.376,26.258c-0.022,3.607-0.483,7.573,0.781,11.03c0.146,0.398,0.335,0.768,0.542,1.126    c-4.077-0.039-8.046-0.342-12.155-0.248c-2.776,0.063-6.164,0.075-9.151,0.812C125.164,141.002,122.418,130.578,124.656,121.734z     M117.988,153.349c4.712-1.841,12.385-1.181,16.583-0.974c2.888,0.142,7.51,1.344,10.846,0.687    c0.107,0.182,0.217,0.365,0.307,0.557c0.837,1.769,0.822,3.479,0.462,5.166c-2.397-0.099-4.878,0.701-7.244,1.052    c-3.227,0.479-6.682,0.614-9.942,0.721c-2.698,0.088-5.305-0.562-7.993-0.882c-2.009-0.24-3.363-1.234-4.282-2.653    C116.491,156.135,116.688,155.305,117.988,153.349z M144.42,235.396c0.007,8.375-0.431,16.758-0.392,25.108    c0.018,4.02-0.246,7.951-0.364,11.957c-0.111,3.765-0.528,7.559,0.747,11.07c-0.491,1.154-1.165,2.195-2.207,2.967    c-1.426,1.056-3.615,1.597-5.319,2.334c2.25-19.706,3.293-39.537,3.161-59.404c-0.076-11.458-0.923-22.874-0.942-34.366    c-0.017-9.969-0.33-20.389-1.913-30.305c2.166-0.114,5.011-0.153,7.355-0.888c-0.194,0.583-0.371,1.168-0.507,1.756    c-0.964,4.178-0.776,8.781-0.941,13.029C142.366,197.541,144.402,216.478,144.42,235.396z M122.49,294.918    c-1.951,0.74-3.907,1.47-5.861,2.199c0.847-9.288,0.513-18.872,1.401-28.127c1.15-11.975,1.725-24.475,1.688-36.47    c-0.037-12.002,1.296-24.097,2.195-36.073c0.417-5.542,0.505-11.065,1.586-16.532c0.968-4.895,2.024-10.136,2.277-15.163    c1.209,0.127,2.418,0.186,3.628,0.213c-1.063,10.169-2.272,20.329-2.334,30.618c-0.07,11.687,0.176,23.926-1.13,35.54    c-1.106,9.842-1.755,19.839-1.846,29.745c-0.104,11.276-1.81,22.331-1.651,33.636C122.445,294.651,122.466,294.787,122.49,294.918    z M128.136,261.848c0.07-10.504,0.721-20.931,1.737-31.378c1.078-11.069,0.806-22.679,0.714-33.794    c-0.087-10.473,1.516-21.245,0.677-31.695c1.237-0.01,2.476-0.045,3.724-0.108c-1.227,9.548,0.194,19.64,0.364,29.194    c0.209,11.773,0.734,23.612,0.596,35.36c-0.134,11.359-0.77,22.646-1.32,33.962c-0.446,9.193-1.983,18.387-2.519,27.574    c-1.769,0.777-3.55,1.527-5.338,2.259C126.67,282.71,128.066,272.351,128.136,261.848z M106.012,277.704    c0.669-8.957,1.72-17.938,2.703-26.869c2.059-18.69,3.973-37.392,5.972-56.094c0.995-9.313,0.371-18.76,2.646-27.851    c0.293-1.168,0.551-2.301,0.663-3.437c1.696,0.489,3.587,0.66,5.276,0.956c0.178,0.031,0.356,0.052,0.534,0.08    c-1.038,5.097-2.363,10.267-3.501,15.342c-1.099,4.907-1.732,9.691-2.179,14.689c-1.074,11.98-2.474,24.196-2.538,36.219    c-0.12,22.653-2.095,45.526-3.66,68.144c-0.817,0.309-1.639,0.612-2.453,0.924c-0.557,0.213-3.362,1.561-5.008,2.152    C106.315,294.167,105.423,285.573,106.012,277.704z M99.105,310.499c1.276-1.374,2.67-2.822,4.5-3.188    c2.005-0.402,3.96-0.559,5.952-1.207c4.155-1.353,8.051-3.368,12.147-4.872c6.475-2.378,12.972-4.83,19.14-7.949    c2.849-1.44,4.948-3.185,6.285-5.277c2.403,0.753,1.766-0.101,1.526,3.361c-0.028,0.395-0.034,0.789-0.047,1.185    c-2.57,0.516-5.672,3.092-7.713,4.256c-5.049,2.879-10.067,5.402-15.309,7.923c-4.738,2.278-9.706,3.967-14.845,5.002    c-2,0.403-4,0.812-5.975,1.328c-1.724,0.45-3.589,1.364-5.407,0.926c-0.248-0.06-0.512-0.161-0.633-0.384    C98.529,311.238,98.822,310.806,99.105,310.499z M140.584,311.055c-0.88-2.64-2.222-6.012-5.523-5.021    c-2.754,0.826-3.524,3.988-3.227,6.546c-2.091,9.769-3.408,21.611-1.867,31.322c0.473,2.975,1.636,6.059,4.988,6.625    c0.279,0.047,0.543,0.063,0.796,0.06c-0.683,2.03-1.376,4.055-2.079,6.076c-1.995,0.923-3.996,1.831-5.956,2.757    c-5.586,2.64-11.123,5.451-16.821,7.844c-3.017,1.267-8.394,4.846-11.875,4.23c-0.847-2.592,0.18-4.146,0.445-6.991    c0.285-3.039,0.336-6.208,0.327-9.268c-0.021-6.669-0.091-13.566,0.469-20.191c0.464-5.487,0.979-11.234,1.079-16.733    c0.013-0.689-0.034-1.224-0.116-1.696c2.728-0.024,5.402-1.146,8.293-1.851c4.862-1.185,8.577-2.893,13.058-5.159    c4.868-2.463,9.94-4.487,14.789-6.947c3.733-1.893,7.433-4.56,11.241-6.344c0.019,0.912,0.041,1.824,0.044,2.734    c0.018,5.696,0.156,11.401-0.001,17.092c-1.446,3.117-3,6.311-4.309,9.459c-0.552,1.329-1.069,2.652-1.573,3.975    C143.031,323.162,142.448,316.653,140.584,311.055z M133.373,326.634c0.12-2.977,0.059-5.96,0.254-8.933    c0.119-1.816-0.033-6.33,2.062-7.251c1.984-0.873,1.838,2.409,2.278,4.164c0.912,3.647,1.145,7.211,1.06,10.946    c-0.067,2.884-0.095,5.681-0.387,8.555c-0.186,1.829-0.257,12.818-3.915,10.245c-2.8-1.969-1.377-6.153-1.445-8.966    C133.208,332.445,133.255,329.567,133.373,326.634z M117.349,455.529c0.009,0.075,0.014,0.149,0.023,0.223    c-0.095,1.515-0.169,3.034-0.203,4.565c-0.327,14.573-0.625,29.128-0.682,43.706c-1.261-0.08-2.521-0.182-3.779-0.317    c-4.093-0.436-9.731-0.367-10.69-5.257c-0.666-3.393,0.125-7.38-0.317-10.893c-2.286-18.199-1.531-36.863-1.814-55.236    c-0.145-9.345-0.079-18.619-0.032-27.961c0.045-8.9,1.047-19.647-1.59-28.282c6.32,0.881,17.834-5.177,21.829-7.016    c3.697-1.702,7.374-3.415,11.048-5.133c-2.516,7.251-4.953,14.531-6.856,22.019c-1.802,7.087-3.963,14.053-5.84,21.129    c-1.094,4.123-4.218,11.665,1.816,13.595c0.66,0.211,1.281,0.301,1.873,0.309c-2.691,5.752-3.871,11.155-4.45,17.529    C117.177,444.112,116.674,449.931,117.349,455.529z M143.946,477.246c-0.075,7.119-0.111,14.238-0.153,21.357    c-0.008,1.453-0.348,3.683-0.201,5.695c-1.936,0.095-3.866,0.142-5.788,0.089c-2.351-0.064-4.707-0.076-7.063-0.079    c0.396-3.791,0.04-7.756-0.101-11.506c-0.22-5.854,0.596-11.59,0.698-17.414c0.12-6.853-0.443-13.722-0.11-20.571    c0.145-2.966,0.071-6.037,0.826-8.927c0.855-3.274,5.517-11.514,9.559-5.409c3.422,5.169,2.053,12.253,2.284,17.988    C144.149,464.722,144.011,470.98,143.946,477.246z M172.291,473.248c-0.29,6.118-0.513,12.279-0.894,18.386    c-0.207,3.314-0.846,7.052-0.677,10.559c-2.464,0.145-4.926,0.293-7.384,0.43c-1.819,0.102-3.65,0.258-5.486,0.429    c0.425-1.807,0.267-13.216,0.267-14.072c0.001-5.734,0.061-11.468,0.04-17.202c-0.023-6.209,0.11-12.461,0.859-18.623    c0.45-3.69,0.894-17.398,7.451-14.336c5.188,2.424,5.605,12.341,5.867,17.23C172.648,461.851,172.566,467.463,172.291,473.248z     M188.288,426.356c-0.431,10.771-0.675,21.624-0.951,32.404c-0.247,9.568-1.135,19.063-1.17,28.641    c-0.017,4.489,0.046,8.911,0.252,13.385c0.031,0.67,0.041,1.326,0.06,1.969c-3.558-0.397-7.112-0.949-10.654-0.835    c-0.811-5.983,0.847-13.344,0.948-19c0.13-7.251,0.666-14.412,0.194-21.651c-0.523-8.037-0.35-28.353-13.066-27.557    c-4.819,0.302-7.085,5.355-7.828,9.377c-1.169,6.327-1.72,12.638-1.992,19.045c-0.332,7.853-0.332,15.729-0.285,23.607    c0.033,5.645-0.001,12.004,1.468,17.554c-2.153,0.215-4.31,0.439-6.468,0.631c-0.064-0.053-0.125-0.109-0.193-0.155    c0.516-1.067,0.407-8.572,0.4-9.728c-0.026-4.483-0.048-8.965-0.091-13.449c-0.067-6.97,0.223-14.083-0.433-21.023    c-0.343-3.641,0.143-7.423-0.473-11.031c-0.567-3.321-2.068-6.825-3.485-9.854c-1.445-3.087-3.805-4.806-7.338-3.678    c-3.781,1.207-7.749,7.187-9.175,10.643c-2.532,6.133-1.615,14.05-1.486,20.515c0.252,12.786-1.143,25.493,1.035,38.135    c-2.1-0.005-4.199-0.026-6.295-0.08c-0.029-11.437-0.047-22.884-0.364-34.319c0.157-3.822,0.08-7.663,0.094-11.461    c0.021-5.514,1.138-11.191,1.587-16.687c0.643-7.883,2.082-15.85,4.744-23.389c0.903-0.974,1.696-2.108,2.407-3.208    c4.543-7.021,6.281-14.728,9.749-22.187c2.67-5.743,5.094-11.703,8.004-17.301c1.554-2.988,2.794-6.079,4.217-9.131    c0.491-1.053,1.486-4.411,2.461-4.978c2.667-1.55,5.179,1.166,6.885,2.931c5.034,5.203,5.62,11.444,7.965,17.9    c2.53,6.969,4.511,14.129,6.965,21.14c1.869,5.339,3.298,12.542,8.152,16.06c1.556,1.128,3.193,1.458,4.69,1.189    C188.474,422.849,188.348,424.885,188.288,426.356z M189.013,412.807c-1.174,3.518-2.321-0.353-3.235-2.092    c-0.853-1.621-1.282-3.343-1.89-5.062c-1.139-3.223-2.495-6.362-3.658-9.575c-1.791-4.95-3.61-9.913-5.692-14.725    c-3.781-8.738-6.164-19.375-15.515-24.105c-3.251-1.644-6.161-2.437-9.05,0.232c-4.061,3.75-5.907,9.984-8.345,14.765    c-5.553,10.891-7.405,23.408-12.964,34.242c-0.959,1.87-2.911,7.484-4.741,7.933c-1.608,0.395,1.19-6.178,1.299-6.538    c1.907-6.316,3.739-12.689,5.283-19.095c3.196-13.251,7.609-26.055,11.873-38.961c1.984-6.004,3.378-11.998,5.744-17.873    c1.262-3.134,2.629-6.108,3.99-9.188c0.289-0.654,0.877-2.792,1.504-4.659c0.026-0.021,0.056-0.034,0.083-0.056    c1.665-1.391,0.336-1.456,1.494,0.201c0.417,0.598,0.592,1.509,0.906,2.166c1.277,2.662,2.939,5.039,4.154,7.748    c2.036,4.539,3.243,9.437,5.286,14.02c5.221,11.709,8.864,24.18,13.719,36.104c2.016,4.95,4.25,9.65,5.905,14.759    C186.909,398.428,190.905,407.14,189.013,412.807z M184.435,376.862c-3.224-8.218-5.88-16.526-8.447-24.967    c-0.855-2.81-1.858-5.552-2.912-8.271c5.711-1.627,11.981-4.858,14.722-6.12c7.016-3.229,14.001-6.427,20.934-9.787    c1.325-0.643,3-1.39,4.67-2.278c0.002,0.387,0.009,0.783,0.013,1.196c0.02,2.226,0.217,4.461,0.407,6.696    c-1.361,7.707-1.082,15.596-1.937,23.349c-0.458,4.149-0.282,8.347,0.026,12.481c0.025,0.332,0.037,0.662,0.051,0.993    c-0.514,1.12-1.026,2.24-1.524,3.366c-2.66,6.003-4.363,12.409-7.184,18.359c-2.154,4.544-4.639,8.771-6.456,13.488    c-0.52,1.351-1.345,2.637-2.207,3.918C194.371,398.266,188.167,386.374,184.435,376.862z M244.13,469.706    c-0.216,10.942-1.819,21.793-2.31,32.71c-2.3,0.122-4.637,0.507-6.883,0.731c-1.053,0.106-2.118,0.194-3.18,0.287    c-0.741-0.031-1.487-0.042-2.232-0.061c0.449-4.077-0.011-8.607-0.023-12.484c-0.02-6.442,0.071-12.896-0.079-19.336    c-0.14-5.998,0.412-11.868,1.366-17.798c0.758-4.722,1.798-13.771,6.821-16.166c6.814-3.249,6.664,10.083,6.794,14.072    C244.598,457.641,244.247,463.721,244.13,469.706z M282.571,471.551c-0.153,6.441-0.062,12.894-0.08,19.338    c-0.011,3.876-0.472,8.408-0.023,12.484c-0.745,0.018-1.491,0.03-2.232,0.061c-1.063-0.093-2.126-0.181-3.18-0.287    c-0.908-0.091-1.831-0.207-2.761-0.322c-0.644-0.107-1.293-0.177-1.946-0.225c-0.726-0.077-1.453-0.146-2.176-0.184    c-0.491-10.917-2.094-21.768-2.31-32.71c-0.117-5.983-0.468-12.065-0.273-18.045c0.131-3.989-0.021-17.32,6.794-14.072    c5.023,2.395,6.062,11.444,6.821,16.166C282.158,459.682,282.711,465.553,282.571,471.551z M295.295,503.226    c-3.064,0.083-6.177,0.068-9.291,0.088c1.242-6.402,0.488-13.292,0.468-19.733c-0.023-7.632,0.293-15.236-0.466-22.828    c-0.814-8.133-1.567-25.627-12.228-27.529c-12.088-2.158-9.857,19.21-10.003,26.023c-0.177,8.265-0.177,16.34,0.272,24.583    c0.339,6.23,0.764,12.458,0.931,18.691c-4.459-0.005-8.949-0.081-13.395,0.107c-1.479,0.063-3.024,0.056-4.577,0.094    c0.162-6.3,0.594-12.595,0.938-18.892c0.448-8.242,0.448-16.316,0.272-24.583c-0.146-6.811,2.085-28.18-10.003-26.023    c-10.659,1.903-11.414,19.396-12.228,27.529c-0.76,7.591-0.444,15.195-0.466,22.828c-0.018,6.441-0.773,13.332,0.468,19.733    c-3.113-0.021-6.227-0.006-9.29-0.088c-0.264-0.007-0.528-0.006-0.792-0.01c0.851-5.023,0.306-10.571,0.693-15.42    c0.617-7.728,0.848-15.631,0.841-23.393c-0.009-9.58,0.861-19.181,0.885-28.805c0.023-9.068-0.048-18.564,1.916-27.455    c0.336-1.522,0.378-5.392,1.869-5.733c0.374-0.086,2.862,1.515,3.673,1.509c1.623-0.01,2.951-0.902,3.945-2.1    c1.401-1.691,1.889-4.211,2.196-6.333c0.47-3.252-0.737-8.973,1.293-11.803c1.462-2.039,4.764-1.364,6.624-3.167    c2.574-2.497,2.382-5.571,2.95-8.805c0.374-2.126,1.043-3.938,2.637-5.359c1.064-0.948,2.46-1.32,3.449-2.437    c1.893-2.139,2.593-5.149,4.814-7.072c0.575-0.498,0.76-1.195,0.676-1.877c0.193-0.468,0.334-0.924,0.411-1.349    c0.079-0.443,0.226-0.949,0.353-1.445c0.148,0.462,0.268,0.933,0.433,1.39c0.53,1.484,1.425,3.095,2.943,3.49    c2.049,1.927,2.778,4.798,4.607,6.864c0.989,1.118,2.386,1.489,3.449,2.437c1.594,1.421,2.263,3.232,2.637,5.359    c0.568,3.234,0.376,6.309,2.95,8.805c1.86,1.804,5.163,1.129,6.625,3.167c2.03,2.831,0.824,8.552,1.293,11.803    c0.307,2.123,0.795,4.643,2.196,6.333c0.994,1.198,2.323,2.09,3.945,2.1c0.811,0.005,3.299-1.595,3.673-1.509    c1.492,0.341,1.533,4.212,1.869,5.733c1.963,8.891,1.893,18.387,1.916,27.455c0.024,9.624,0.893,19.225,0.885,28.805    c-0.007,7.762,0.224,15.664,0.841,23.393c0.387,4.848-0.158,10.397,0.693,15.42C295.823,503.22,295.559,503.218,295.295,503.226z     M320.138,438.914c-0.227,9.047-1.315,18.181-1.059,27.227c0.241,8.521,0.529,17.015,0.559,25.56    c0.013,3.387-0.912,8.023-0.617,12.061c-1.533,0.038-3.003,0.092-4.312,0.064c-4.675-0.101-9.324-0.457-13.991-0.583    c0.311-3.257,0.215-8.039,0.204-8.27c-0.176-3.945-0.211-7.988-0.266-11.941c-0.128-9.074,1.102-18.035,0.552-27.103    c-1.081-17.831,2.944-36.971-5.266-53.717c-1.064-2.17-2.374-4.683-4.94-5.128c-2.942-0.51-3.854,2.715-5.463-0.282    c-1.534-2.856-0.334-7.695-0.89-10.982c-0.392-2.316-0.839-4.95-2.511-6.742c-0.911-0.977-1.867-1.273-3.024-1.846    c-3.322-1.649-3.501-1.425-3.909-4.739c-0.342-2.776-0.865-6.245-2.537-8.582c-1.759-2.458-4.575-3.638-6.41-6.118    c-1.62-2.192-2.847-3.819-5.347-4.883c-0.294-1.568-0.92-3.157-1.518-4.289c-1.223-2.319-4.183-3.529-6.631-2.253    c-1.846,0.963-2.763,3.529-2.954,5.477c-0.079,0.812-0.016,1.269-0.124,1.79c-1.623,1.03-2.659,2.416-3.946,4.156    c-1.835,2.48-4.651,3.661-6.41,6.118c-1.673,2.336-2.196,5.806-2.537,8.582c-0.407,3.314-0.588,3.09-3.909,4.739    c-1.157,0.574-2.113,0.87-3.024,1.846c-1.672,1.792-2.118,4.426-2.511,6.742c-0.557,3.286,0.643,8.125-0.89,10.982    c-1.609,2.997-2.522-0.227-5.463,0.282c-2.566,0.444-3.876,2.958-4.94,5.128c-8.209,16.748-4.185,35.887-5.266,53.717    c-0.55,9.066,0.68,18.028,0.552,27.103c-0.056,3.954-0.091,7.997-0.266,11.941c-0.01,0.232-0.107,5.013,0.204,8.27    c-4.667,0.126-9.316,0.482-13.991,0.583c-1.309,0.029-2.779-0.025-4.312-0.064c0.295-4.038-0.629-8.674-0.617-12.061    c0.03-8.545,0.318-17.039,0.559-25.56c0.256-9.047-0.832-18.18-1.059-27.227c-0.104-4.173-0.233-8.384-0.088-12.558    c0.041-1.197,0.383-5.788,1.396-8.651c0.224-0.06,0.437-0.149,0.61-0.297c3.26-2.804,6.343-5.251,8.478-9.063    c2.383-4.26,4.495-8.775,6.692-13.141c5.002-9.934,9.417-20.513,13.446-30.839c4.082-10.463,9.685-20.051,13.213-30.806    c0.661-2.013,1.374-4.045,2.124-6.081c1.576-1.906,2.573-4.296,3.94-6.35c1.704-2.559,3.512-4.903,4.73-7.759    c0.716-1.681,2.661-5.485,3.395-8.727c1.199-1.721,2.006-3.757,2.06-5.806c0.114-4.33-2.378-5.159-5.728-6.961    c-6.327-3.403-4.502-11.586-3.89-17.538c0.61-5.939,1.588-11.838,2.622-17.729c1.679-9.562,1.181-19.285,1.854-28.933    c0.613-8.752,1.945-17.661,3.543-26.45c1.755-4.097,2.36-8.854,4.233-12.804c0.687-1.45,1.083-3.143,2.574-1.384    c0.708,0.834,1.2,3.432,1.564,4.474c0.871,2.491,1.783,4.968,2.698,7.445c1.784,9.52,3.298,19.211,3.962,28.717    c0.675,9.647,0.176,19.371,1.854,28.933c1.035,5.891,2.013,11.789,2.622,17.729c0.612,5.952,2.437,14.136-3.89,17.538    c-3.351,1.802-5.842,2.631-5.728,6.961c0.08,3.064,1.825,6.117,4.084,8.094c0.382,0.334,0.837,0.441,1.268,0.403    c4.259,8.386,8.026,17.475,10.897,26.227c3.529,10.753,9.132,20.343,13.213,30.806c4.029,10.326,8.445,20.906,13.446,30.839    c2.197,4.365,4.309,8.882,6.692,13.141c2.134,3.813,5.218,6.258,8.478,9.063c0.172,0.148,0.386,0.238,0.609,0.297    c1.013,2.863,1.355,7.454,1.396,8.651C320.371,430.53,320.244,434.74,320.138,438.914z M317.402,409.283    c-0.861-1.281-1.687-2.567-2.207-3.918c-1.815-4.716-4.301-8.944-6.456-13.488c-2.822-5.951-4.525-12.356-7.184-18.359    c-0.499-1.126-1.01-2.246-1.524-3.366c0.014-0.33,0.025-0.661,0.051-0.993c0.309-4.134,0.483-8.333,0.026-12.481    c-0.855-7.754-0.576-15.644-1.937-23.349c0.19-2.234,0.388-4.469,0.407-6.696c0.003-0.413,0.01-0.809,0.013-1.196    c1.671,0.889,3.345,1.636,4.67,2.278c6.933,3.36,13.917,6.559,20.934,9.787c2.741,1.261,9.011,4.492,14.722,6.12    c-1.055,2.72-2.057,5.461-2.912,8.271c-2.567,8.441-5.222,16.749-8.447,24.967C323.826,386.374,317.622,398.266,317.402,409.283z     M326.827,393.047c1.656-5.11,3.89-9.809,5.906-14.759c4.854-11.924,8.498-24.394,13.718-36.104    c2.044-4.583,3.251-9.481,5.286-14.02c1.214-2.709,2.877-5.085,4.154-7.748c0.316-0.659,0.49-1.569,0.907-2.166    c1.157-1.657-0.171-1.592,1.494-0.201c0.026,0.022,0.056,0.036,0.083,0.056c0.628,1.867,1.215,4.005,1.504,4.659    c1.361,3.08,2.728,6.053,3.99,9.188c2.366,5.875,3.761,11.87,5.744,17.873c4.264,12.906,8.677,25.71,11.873,38.961    c1.545,6.406,3.376,12.78,5.283,19.095c0.109,0.361,2.907,6.933,1.299,6.538c-1.83-0.449-3.782-6.062-4.741-7.933    c-5.56-10.835-7.412-23.351-12.964-34.242c-2.437-4.78-4.284-11.015-8.345-14.765c-2.889-2.668-5.798-1.876-9.05-0.232    c-9.351,4.73-11.735,15.367-15.516,24.105c-2.082,4.81-3.9,9.774-5.692,14.725c-1.162,3.214-2.518,6.352-3.658,9.575    c-0.608,1.719-1.037,3.44-1.89,5.062c-0.915,1.738-2.061,5.61-3.235,2.092C321.089,407.14,325.084,398.428,326.827,393.047z     M348.655,502.624c-2.457-0.138-4.92-0.286-7.384-0.43c0.169-3.507-0.47-7.245-0.677-10.559    c-0.381-6.107-0.602-12.267-0.894-18.386c-0.275-5.786-0.357-11.397-0.046-17.199c0.262-4.888,0.678-14.806,5.867-17.23    c6.558-3.063,7.002,10.646,7.451,14.336c0.75,6.162,0.882,12.414,0.859,18.623c-0.021,5.734,0.039,11.469,0.04,17.202    c0,0.856-0.157,12.264,0.267,14.072C352.305,502.882,350.473,502.726,348.655,502.624z M381.351,492.801    c-0.141,3.75-0.497,7.715-0.101,11.506c-2.357,0.003-4.713,0.015-7.063,0.079c-1.921,0.053-3.852,0.007-5.788-0.09    c0.147-2.013-0.193-4.242-0.201-5.695c-0.041-7.119-0.078-14.238-0.153-21.357c-0.065-6.265-0.204-12.524,0.048-18.776    c0.232-5.735-1.138-12.819,2.284-17.988c4.041-6.105,8.704,2.135,9.559,5.409c0.755,2.889,0.682,5.96,0.826,8.927    c0.334,6.849-0.231,13.717-0.11,20.571C380.756,481.211,381.572,486.947,381.351,492.801z M390.731,504.222    c-2.096,0.054-4.195,0.076-6.295,0.08c2.178-12.643,0.783-25.348,1.035-38.135c0.127-6.465,1.047-14.382-1.486-20.515    c-1.426-3.455-5.394-9.436-9.175-10.643c-3.533-1.127-5.892,0.591-7.338,3.678c-1.417,3.029-2.918,6.534-3.485,9.853    c-0.616,3.609-0.129,7.391-0.473,11.031c-0.655,6.94-0.366,14.053-0.433,21.023c-0.042,4.483-0.064,8.965-0.091,13.449    c-0.007,1.156-0.116,8.66,0.4,9.728c-0.068,0.047-0.129,0.103-0.193,0.155c-2.158-0.192-4.316-0.417-6.468-0.631    c1.468-5.55,1.433-11.909,1.468-17.554c0.047-7.879,0.047-15.754-0.285-23.607c-0.271-6.406-0.823-12.718-1.992-19.045    c-0.742-4.022-3.009-9.076-7.828-9.377c-12.718-0.796-12.544,19.52-13.066,27.557c-0.472,7.238,0.064,14.4,0.194,21.651    c0.101,5.656,1.759,13.017,0.948,19c-3.542-0.114-7.096,0.437-10.654,0.835c0.018-0.643,0.029-1.299,0.06-1.969    c0.207-4.474,0.27-8.896,0.252-13.385c-0.036-9.579-0.925-19.075-1.17-28.641c-0.278-10.78-0.521-21.632-0.951-32.404    c-0.059-1.471-0.186-3.507-0.53-5.576c1.496,0.27,3.133-0.06,4.69-1.189c4.854-3.518,6.281-10.721,8.152-16.06    c2.455-7.011,4.435-14.172,6.965-21.14c2.344-6.456,2.931-12.697,7.965-17.9c1.706-1.765,4.218-4.481,6.885-2.931    c0.975,0.567,1.97,3.924,2.463,4.978c1.423,3.051,2.663,6.143,4.217,9.131c2.909,5.597,5.332,11.557,8.004,17.301    c3.468,7.46,5.206,15.165,9.75,22.187c0.713,1.1,1.506,2.234,2.407,3.208c2.662,7.539,4.101,15.505,4.744,23.389    c0.448,5.495,1.565,11.173,1.587,16.687c0.014,3.798-0.063,7.64,0.094,11.461C390.777,481.338,390.76,492.785,390.731,504.222z     M412.136,404.357c0.047,9.342,0.112,18.616-0.032,27.961c-0.283,18.374,0.472,37.038-1.814,55.236    c-0.441,3.515,0.349,7.501-0.317,10.893c-0.959,4.889-6.597,4.821-10.69,5.257c-1.258,0.134-2.516,0.236-3.779,0.317    c-0.056-14.578-0.355-29.133-0.682-43.706c-0.034-1.53-0.108-3.05-0.203-4.565c0.009-0.073,0.014-0.149,0.023-0.223    c0.675-5.599,0.172-11.419-0.337-17.021c-0.581-6.374-1.76-11.777-4.451-17.529c0.592-0.008,1.213-0.098,1.873-0.309    c6.035-1.93,2.91-9.473,1.816-13.595c-1.876-7.075-4.039-14.043-5.84-21.129c-1.904-7.489-4.339-14.768-6.856-22.019    c3.675,1.718,7.351,3.431,11.048,5.133c3.996,1.838,15.509,7.898,21.829,7.016C411.09,384.71,412.093,395.457,412.136,404.357z"/>
	</g>
</g>
<g>
	<g>
		<path d="M274.857,405.766c-0.192-3.748-1.774-9.092-4.418-13.558c-0.441-1.239-0.885-2.373-1.481-3.416    c0.098-0.189,0.129-0.411,0.034-0.646c-2.132-5.351-7.619-6.473-12.999-6.201c-3.091,0.156-8.031,1.779-10.031,4.791    c-5.293,4.508-8.545,13.516-8.823,19.03c-0.184,3.631,0.481,9.787,2.481,14.758c0.332,1.971,1.473,3.673,3.008,5.088    c0.893,0.99,1.914,1.756,3.068,2.226c1.721,0.995,3.55,1.733,5.138,2.188c5.167,1.479,12.15,1.643,15.783-2.321    C273.147,424.659,275.159,411.766,274.857,405.766z M268.048,417.615c-1.767,3.791-4.875,4.901-8.215,6.664    c-0.221,0.117-0.392,0.298-0.537,0.504c-2.327,0.298-5.016,0.095-7.228-0.55c-3.306-1.735-6.374-2.861-8.125-6.618    c-2.132-4.577-2.367-12.045-0.931-16.849c1.119-3.741,3.638-7.623,6-10.724c0.114-0.15,0.24-0.293,0.363-0.436    c2.697-1.398,5.205-2.507,8.587-2.343c0.975,0.047,1.942,0.272,2.903,0.554c0.747,0.711,1.503,1.422,2.115,2.225    c2.363,3.102,4.88,6.984,6,10.724C270.416,405.569,270.181,413.037,268.048,417.615z"/>
	</g>
</g>
<g>
</g>
<g>
</g>
<g>
</g>
<g>
</g>
<g>
</g>
<g>
</g>
<g>
</g>
<g>
</g>
<g>
</g>
<g>
</g>
<g>
</g>
<g>
</g>
<g>
</g>
<g>
</g>
<g>
</g>
</svg>
