<?xml version="1.0" encoding="iso-8859-1"?>
<!-- Generator: Adobe Illustrator 19.0.0, SVG Export Plug-In . SVG Version: 6.00 Build 0)  -->
<svg xmlns="http://www.w3.org/2000/svg" xmlns:xlink="http://www.w3.org/1999/xlink" version="1.1" id="Layer_1" x="0px" y="0px" viewBox="0 0 511.999 511.999" style="enable-background:new 0 0 511.999 511.999;" xml:space="preserve">
<g>
	<g>
		<path d="M212.48,186.324c-0.174-3.276,1.446-9.397-1.199-12.094c-1.879-1.917-6.862-2.384-8.723-0.249    c-0.873,1.002-1.251,2.574-1.38,4.328c-0.911,4.144-0.458,8.755-0.895,12.851c-0.369,3.449-1.818,10.197,0.179,13.338    c1.646,2.589,6.083,2.37,8.706,1.751c3.848-0.908,3.556-3.051,3.817-6.532C213.329,195.136,212.725,190.904,212.48,186.324z     M209.691,199.268c-0.121,2.389,0.139,3.067-2.563,3.003c-3.98-0.092-3.178-3.432-3.193-6.661    c-0.013-2.659-0.068-5.332-0.121-8.005c0.73-2.958-0.255-8.044,1.24-10.317c0.603-0.918,2.897-1.325,3.947-0.328    c0.798,0.759,0.19,4.291,0.173,5.217C209.076,187.931,209.98,193.547,209.691,199.268z"/>
	</g>
</g>
<g>
	<g>
		<path d="M232.645,182.213c0.018-4.665,0.351-7.228-4.765-8.436c-2.801-0.662-6.354-0.909-7.683,2.193    c-1.639,3.826-1.157,9.587-0.689,14.297c-0.038,0.405-0.074,0.813-0.116,1.212c-0.37,3.576-1.805,9.968,0.836,13.067    c2.053,2.407,7.467,2.408,10.187,1.594c3.147-0.943,3.3-5.12,3.451-7.898C234.163,192.842,232.627,187.565,232.645,182.213z     M229.145,202.492c-0.209,0.159-3.661,0.053-4.003-0.03c-3.178-0.765-2.647-2.974-2.716-6.049    c-0.131-5.899,1.18-11.874,1.004-17.765c0.502-1.21,1.482-1.887,3.45-1.242c3.305,1.084,1.858,5.469,2.136,8.335    c0.302,3.117,0.915,6.147,1.05,9.29C230.145,196.884,230.615,201.373,229.145,202.492z"/>
	</g>
</g>
<g>
	<g>
		<path d="M247.593,71.28c-0.062-2.028-0.134-2.869-1.976-3.898c-1.821-1.016-2.718-1.047-4.423,0.321    c-1.043,0.836-1.25,1.872-1.193,3.014c-0.786,1.684-0.826,3.848-1.025,5.654c-0.179,1.637-0.031,3.511,1.3,4.661    c1.311,1.132,3.674,1.577,5.304,0.992c1.68-0.602,2.074-1.873,2.24-3.508C248.07,76.06,247.669,73.712,247.593,71.28z     M246.347,78.225c-0.408,1.675-2.164,1.847-3.507,1.081c-1.267-0.722-1.196-1.692-1.092-2.934    c0.143-1.705-0.418-4.963,1.225-6.047c1.98-1.306,2.298,0.479,2.708,1.934C246.214,74.148,246.823,76.262,246.347,78.225z"/>
	</g>
</g>
<g>
	<g>
		<path d="M322.928,215.926c-0.728-1.176-1.631-1.845-2.673-2.23c-0.079-4.555,0.129-9.318,0.373-13.874    c0.18-3.335-0.228-6.347-0.315-9.677c-0.104-3.957-0.65-7.855-0.693-11.791c-0.033-3.045,0.133-6.346-0.841-9.266    c1.438-0.317,2.651-0.922,3.592-2.465c1.659-2.724,0.828-6.879,0.454-9.858c-0.352-2.809-0.309-8.329-1.822-10.85    c-0.493-0.822-1.197-1.408-2.019-1.817c0.373-0.512,0.673-1.1,0.883-1.776c0.728-2.344,0.412-5.356,0.3-7.791    c-0.148-3.197-0.068-6.381-0.619-9.464c0.137-0.49,0.26-0.939,0.315-1.256c0.391-2.25,0.497-4.495,0.464-6.77    c-0.004-0.277-0.006-0.551-0.009-0.823c0.149,0.016,0.281,0.047,0.435,0.058c1.054,0.076,2.108-0.996,2.044-2.044    c-0.258-4.189-3.41-8.379-4.944-12.226c-1.11-2.782-2.487-6.2-5.547-7.342c-3.066-1.144-4.081,1.336-5.343,3.569    c-1.171,2.072-2.446,4.118-3.438,6.304c-0.852,1.878-2.082,3.763-2.728,5.694c-0.353,1.056,0.273,2.042,1.077,2.647    c0.506,0.381,0.964,0.69,1.417,0.931c-0.612,1.525-0.595,3.316-0.683,4.914c-0.125,2.293,0.4,6.026-1.701,6.766    c0,0-5.764,0.369-5.145,0.308c-3.574,0.352-7.165,0.505-10.741,0.761c0.7-5.598-0.18-11.238-0.28-16.884    c-0.111-6.236,1.814-15.211-1.006-20.957c-0.468-0.953-1.124-1.702-1.898-2.294c1.782-5.111,1.595-11.182,0.421-16.361    c-1.545-6.816-8.55-9.483-10.569-15.639c-1.934-5.895,1.412-11.471-2.387-17.198c-1.055-1.591-2.292-2.649-3.955-3.538    c-1.306-0.699-3.253-1.404-3.756-2.952c-1.065-3.289-0.594-5.938-0.079-9.248c0.464-2.981-0.464-5.357-0.972-8.195    c-0.433-2.426,0.44-4.987-0.574-7.271c-0.856-1.931-3.125-4.33-4.717-5.717c-0.463-0.403-1.055-0.402-1.522,0    c-3.587,3.088-1.946,8.459-2.614,12.528c-0.544,3.325-1.698,5.697-1.394,9.209c0.098,1.127,1.822,8.218,2.074,9.414    c-0.662,0.164-1.267,0.332-1.767,0.479c-1.855,0.548-4.09,1.302-5.288,2.927c-0.684,0.564-1.355,1.323-2.046,2.365    c-3.799,5.726-0.453,11.302-2.387,17.198c-2.019,6.156-9.024,8.824-10.569,15.639c-1.174,5.18-1.36,11.251,0.421,16.361    c-0.774,0.592-1.431,1.34-1.898,2.294c-2.82,5.746-0.896,14.721-1.006,20.957c-0.1,5.646-0.98,11.285-0.28,16.884    c-3.577-0.254-7.167-0.409-10.741-0.761c0.619,0.061-5.145-0.308-5.145-0.308c-2.1-0.74-1.575-4.473-1.701-6.766    c-0.088-1.6-0.072-3.389-0.683-4.914c0.453-0.241,0.911-0.55,1.417-0.931c0.804-0.604,1.431-1.591,1.077-2.647    c-0.646-1.932-1.876-3.817-2.728-5.694c-0.992-2.186-2.267-4.232-3.438-6.304c-1.262-2.233-2.277-4.713-5.343-3.569    c-3.059,1.142-4.438,4.559-5.547,7.342c-1.534,3.848-4.685,8.038-4.944,12.226c-0.064,1.047,0.99,2.119,2.044,2.044    c0.154-0.011,0.288-0.042,0.435-0.058c-0.003,0.273-0.004,0.548-0.009,0.823c-0.032,2.275,0.073,4.52,0.464,6.77    c0.056,0.318,0.179,0.765,0.315,1.256c-0.551,3.082-0.471,6.267-0.619,9.464c-0.112,2.435-0.428,5.447,0.3,7.791    c0.21,0.676,0.51,1.264,0.883,1.776c-0.822,0.41-1.526,0.995-2.019,1.817c-1.513,2.521-1.471,8.042-1.822,10.85    c-0.373,2.979-1.205,7.135,0.454,9.858c0.94,1.544,2.154,2.149,3.592,2.465c-0.974,2.92-0.808,6.221-0.841,9.266    c-0.043,3.935-0.589,7.834-0.693,11.791c-0.088,3.33-0.494,6.343-0.314,9.677c0.244,4.555,0.452,9.318,0.373,13.874    c-1.042,0.384-1.945,1.054-2.672,2.23c-3.296,5.334-0.499,10.812,5.395,11.16c0.602,0.036,1.194,0.051,1.788,0.071    c-1.404,5.045-0.565,10.536-1.054,15.685c-0.679,7.153-1.022,14.117-1.015,21.339c0.008,7.801,0.328,15.605,0.48,23.404    c0.053,2.71,0.109,5.473,0.302,8.222c-0.664,10.436-0.293,20.885-1.296,31.382c-0.778,8.132-0.171,16.501-0.227,24.665    c-0.051,7.54-0.363,15.134,0.188,22.635c1.16,15.782-0.904,31.552,0.039,47.351c0.314,5.266,0.603,10.503,0.947,15.726    c-1.049,9.79-1.374,19.587-1.702,29.517c-0.201,6.095-0.139,12.395,0.245,18.472c0.393,6.21-0.895,13.056,0.774,19.136    c1.27,4.624,4.607,5.218,8.954,5.442c5.982,0.309,11.801,0.547,17.778,1.229c8.145,0.929,17.61,0.929,26.247-0.613    c3.964,0.013,7.913,0.674,11.914,0.621c3.943-0.053,8.043,0.144,12.15,0.193c6.91,0.684,14.031,0.521,20.354-0.2    c5.976-0.682,11.796-0.92,17.778-1.229c4.345-0.224,7.683-0.818,8.954-5.442c1.669-6.08,0.381-12.926,0.774-19.136    c0.384-6.077,0.447-12.378,0.246-18.472c-0.328-9.929-0.653-19.725-1.702-29.517c0.344-5.223,0.633-10.46,0.947-15.726    c0.943-15.8-1.121-31.569,0.039-47.351c0.551-7.5,0.239-15.095,0.188-22.635c-0.056-8.164,0.551-16.533-0.227-24.665    c-1.003-10.497-0.632-20.947-1.296-31.382c0.193-2.75,0.249-5.513,0.302-8.222c0.153-7.8,0.473-15.604,0.48-23.404    c0.007-7.222-0.337-14.186-1.015-21.339c-0.489-5.151,0.35-10.64-1.054-15.685c0.594-0.02,1.186-0.037,1.788-0.071    C323.427,226.739,326.224,221.26,322.928,215.926z M306.283,108.219c0.567-1.593,1.719-2.929,2.368-4.454    c0.571-1.342,0.902-2.957,1.803-4.13c0.784-1.023,0.744-1.207,1.719,0.127c1.374,1.881,1.976,4.714,2.942,6.841    c0.772,1.7,1.938,3.534,2.768,5.391c-2.479-1.037-6.539-1.075-8.905-1.211C306.891,110.664,305.314,110.946,306.283,108.219z     M253.551,15.816c0.349-1.488,0.701-2.531,0.703-4.113c0.001-1.047-1.114-7.906,0.208-8.499c2.85-1.276,2.511,9.9,2.62,11.039    c0.219,2.294,0.636,4.048,0.333,6.359c-0.138,1.054-0.475,2.069-0.562,3.136c-0.188,2.333,0.38,4.559,0.512,6.872    c-1.106,0.028-2.239,0.169-3.315,0.36c0.197-1.291-0.008-2.461-0.263-3.993C253.105,22.862,252.566,20.025,253.551,15.816z     M245.383,44.072c0.217-3.81,2.349-5.704,4.697-7.818c0.363-0.14,0.716-0.267,1.043-0.345c3.456-0.842,6.488-0.89,9.814-0.549    c2.702,2.521,5.429,4.378,5.676,8.712c0.157,2.758-0.391,5.523-0.505,8.262c-1.311-0.515-2.655-0.819-4.021-0.845    c-1.553-0.623-3.822-0.345-5.192-0.347c-1.967-0.001-4.017,0.047-5.993,0.382c-1.708-0.148-3.386,0.17-5.014,0.81    C245.774,49.595,245.226,46.83,245.383,44.072z M245.016,57.362c0.251-0.592,0.561-1.003,0.915-1.285    c1.134-0.903,2.723-0.492,4.295-0.542c0.852-0.027,1.687-0.06,2.543-0.047c2.671,0.04,5.246,0.098,7.873-0.277    c1.36-0.242,2.544-0.086,3.899,0.147c0.759,0.13,2.233,0.279,2.388,1.257c0.172,1.076-1.064,1.288-1.857,1.261    c-4.433-0.154-8.648-1.37-13.09-0.943c-1.323,0.128-2.763,0.238-4.018,0.685c-0.621,0.221-2.571,1.185-2.998,0.239    C244.895,57.702,244.949,57.52,245.016,57.362z M235.375,81.61c0.157-3.602-0.2-7.055,0.752-10.606    c0.646-2.41,2.085-4.232,3.661-5.951c1.372-0.909,2.799-1.717,4.323-2.305c2.469-0.951,5.113-1.199,7.669-1.715    c2.219-0.034,4.442,0.014,6.64,0.288c1.11,0.139,2.031,0.166,2.957-0.066c2.189,0.388,4.412,0.685,6.509,1.493    c1.524,0.586,2.951,1.396,4.323,2.305c1.576,1.719,3.015,3.541,3.661,5.951c0.952,3.551,0.595,7.005,0.752,10.606    c0.014,0.324,0.122,1.694,0.273,2.942c-1.086-0.163-2.182-0.23-3.205-0.243c-5.689-0.077-11.962-0.855-17.692,0.153    c-5.73-1.009-12.003-0.23-17.692-0.153c-1.024,0.013-2.119,0.08-3.205,0.243C235.251,83.303,235.36,81.935,235.375,81.61z     M232.471,116.521c0.487-6.253,0.173-12.508,0.551-18.755c0.133-2.199,0.092-6.641,1.746-7.892    c1.446-1.094,4.534-0.61,6.248-0.576c4.951,0.097,10.079,0.754,14.982-0.047c4.903,0.802,10.031,0.143,14.982,0.047    c1.714-0.033,4.802-0.518,6.248,0.576c1.654,1.25,1.613,5.693,1.746,7.892c0.378,6.247,0.064,12.503,0.551,18.755    c0.267,3.424,0.038,7.13,0.995,10.441c-1.079,0.12-2.154,0.268-3.228,0.437c-3.764-1.046-7.955,0.039-11.855-0.079    c-5.548-0.169-11.084,0.379-16.672,0.019c-3.99-0.257-8.225,0.183-12.282,0.373c-1.663-0.32-3.332-0.563-5.01-0.75    C232.432,123.651,232.204,119.946,232.471,116.521z M219.753,131.258c3.82,0.279,7.593,0.587,11.311,0.328    c5.779,1.662,12.831,0.182,18.633,0.493c5.15,0.277,10.339-0.454,15.434-0.198c3.787,0.19,7.685,0.098,11.374-0.915    c5.136,1.133,10.393,0.682,15.739,0.291c4.119-0.301,12.112,1.043,14.111-3.58c1.18-2.728,0.694-6.707,0.768-9.528    c0.114-4.346,3.878-2.975,7.19-2.175c2.289,0.553,1.868-0.065,1.809,2.638c-0.038,1.744-0.21,3.457-0.323,5.197    c-0.093,1.411-0.267,2.766-0.013,4.051c-0.077,1.089-0.119,2.199-0.166,3.361c-0.093,2.298,0.589,6.809-0.568,8.966    c-2.078,3.877-14.87,2.17-18.911,2.174c-3.88,0.003-7.764-0.039-11.643,0.01c-1.701,0.021-4.344,0.665-5.879,0.043    c-1.196-0.485-1.347-1.044-2.272-1.913c-2.14-2.008-4.684-3.853-7.479-4.707c-3.819-2.384-10.219-3.023-13.393-3.007    c-3.458,0.019-11.154,1.101-14.994,4.129c-1.762,0.953-3.388,2.232-4.83,3.584c-0.925,0.869-1.075,1.427-2.272,1.913    c-1.536,0.623-4.179-0.022-5.879-0.043c-3.88-0.049-7.763-0.007-11.643-0.01c-4.041-0.003-16.833,1.703-18.911-2.174    c-1.156-2.156-0.475-6.667-0.568-8.966c-0.047-1.162-0.089-2.273-0.165-3.361c0.253-1.285,0.08-2.64-0.013-4.051    c-0.114-1.741-0.285-3.453-0.324-5.197c-0.059-2.704-0.48-2.086,1.809-2.638c3.312-0.8,7.076-2.172,7.19,2.175    c0.074,2.821-0.412,6.8,0.768,9.528C207.641,132.301,215.633,130.957,219.753,131.258z M196.881,106.604    c0.966-2.127,1.568-4.961,2.942-6.841c0.975-1.334,0.935-1.15,1.719-0.127c1.24,1.616,1.621,3.855,2.587,5.647    c0.674,1.247,2.289,3.25,1.019,4.586c-0.964,1.014-3.169,0.923-4.431,1.021c-2.24,0.172-4.405,0.389-6.555,1.051    C194.852,110.081,196.059,108.412,196.881,106.604z M194.46,148.728c0.935-1.749,0.024-0.991,2.856-1.526    c0.292-0.056,0.583-0.123,0.876-0.183c2.525,0.555,5.328,0.551,7.491,0.623c8.471,0.283,17.278,0.401,25.745-0.052    c2.646-0.141,4.963-0.26,6.823-2.227c2.336-2.47,4.248-4.473,6.79-6.141c0.129-0.046,0.254-0.087,0.375-0.12    c3.02-0.852,6.569-1.415,9.711-1.56c3.47-0.159,6.682,0.682,10.055,1.49c1.124,0.269,2.135,0.765,3.162,1.182    c1.893,1.46,3.508,3.15,5.399,5.151c1.859,1.966,4.177,2.085,6.823,2.227c8.467,0.453,17.275,0.334,25.746,0.052    c2.163-0.072,4.966-0.068,7.491-0.623c0.292,0.06,0.583,0.128,0.876,0.183c2.83,0.535,1.921-0.223,2.855,1.526    c0.638,1.194,0.303,4.131,0.354,5.342c0.087,2.053,0.245,4.221-0.191,6.25c-0.626,2.911-1.772,3.022-4.371,3.236    c-11.634,0.951-23.582-0.249-35.114,1.01c-0.041,0.004-0.077,0.017-0.117,0.023c-1.223,0.02-2.145,0.06-2.204,0.057    c-2.727-0.151-5.374-0.007-6.744-2.547c-0.425-0.791-0.807-1.634-1.184-2.487c-0.535-5.064-5.98-9.239-10.909-9.302    c-1.982-0.024-3.791,0.194-5.411,1.011c-0.064,0.027-0.137,0.043-0.2,0.072c-5.335,0.996-6.369,6.567-8.6,10.704    c-1.37,2.54-4.018,2.395-6.744,2.547c-0.059,0.003-0.981-0.037-2.204-0.057c-0.04-0.007-0.076-0.019-0.117-0.023    c-11.533-1.258-23.48-0.059-35.115-1.01c-2.599-0.212-3.744-0.324-4.371-3.236c-0.437-2.029-0.277-4.198-0.191-6.25    C194.157,152.859,193.823,149.923,194.46,148.728z M314.571,191.909c0.081,6.763-0.564,13.553-0.601,20.336    c-1.518,0.718-3.425,0.21-5.072,0.19c-4.324-0.052-8.821,0.024-13.145,0.332c-4.886,0.349-10.58,0.077-15.822,0.936    c-3.495-0.553-7.472,0.02-10.806,0.2c-4.631,0.251-9.197,0.617-13.818,0.505c-5.569-0.133-11.278,0.337-16.877,0.448    c-0.135,0.002-0.735,0.017-1.617,0.042c-6.347-2.293-14.156-1.675-20.572-2.132c-4.324-0.309-8.821-0.384-13.145-0.332    c-1.647,0.02-3.553,0.528-5.072-0.19c-0.037-6.783-0.681-13.573-0.6-20.336c0.09-7.477,0.15-14.89-0.544-22.342    c3.166,0.333,6.357,0.612,9.537,0.572c8.094-0.103,16.388,0.473,24.33-1.012c4.406,0.967,9.873,1.066,13.037,0.051    c-0.046,1.123-0.087,2.259-0.195,3.415c-0.472,5.015-1.009,10.159-0.659,15.266c0.321,4.682-1.192,11.822,0.933,16.209    c1.851,3.82,7.259,3.613,10.763,3.992c3.566,0.385,9.286,0.696,12.094-2.084c2.606-2.579,2.521-7.883,2.331-11.261    c-0.318-5.646-0.752-11.355-0.795-17.017c-0.021-2.701,0.304-5.601,0.274-8.436c3.202,0.915,8.445,0.803,12.712-0.134    c7.943,1.485,16.236,0.909,24.33,1.012c3.181,0.041,6.372-0.238,9.537-0.572C314.422,177.019,314.482,184.434,314.571,191.909z     M264.808,185.829c-0.042,3.858,0.57,7.818,0.333,11.636c-0.467,7.512-7.171,7.648-13.304,5.947    c-2.185-0.607-3.676-0.478-4.39-2.962c-0.703-2.444-0.106-5.692-0.181-8.225c-0.134-4.522-0.545-9.005-0.505-13.551    c0.033-3.82,0.203-7.591-0.1-11.443c-0.004-0.063-0.004-0.131-0.008-0.195c0.689-0.994,1.137-2.199,1.553-3.46    c0.86-2.614,1.318-5.004,2.317-7.287c0.955-0.578,1.927-1.047,3.008-1.372c1.331-0.267,2.81-0.364,4.043-0.214    c0.272,0.033,0.507,0.091,0.751,0.142c0.271,0.082,0.55,0.174,0.853,0.278c0.134,0.046,0.255,0.064,0.38,0.091    c0.928,0.391,1.615,0.969,2.179,1.714c0.823,2.091,1.276,4.278,2.056,6.648c0.367,1.116,0.768,2.182,1.331,3.104    c-0.29,2.608-0.158,5.346-0.389,7.87C264.386,178.368,264.85,182.016,264.808,185.829z M310.882,502.092    c-0.178-0.1-1.016,0.299-1.612,0.313c-2.566,0.061-5.152,0.076-7.723,0.248c-5.486,0.369-10.867,1.428-16.376,1.432    c-5.856,0.004-11.68-0.272-17.512-0.755c-3.77-0.312-7.904-1.262-11.661-0.464c-3.757-0.798-7.891,0.152-11.661,0.464    c-5.833,0.483-11.656,0.759-17.513,0.755c-5.509-0.003-10.889-1.064-16.376-1.432c-2.57-0.172-5.157-0.187-7.723-0.248    c-0.594-0.014-1.434-0.413-1.612-0.313c-0.331-1.063-0.091-2.844-0.123-3.737c-0.39-10.809-0.963-21.664-1.394-32.523    c1.746-15.064,1.463-30.766,1.064-45.891c-0.401-15.204,1.061-30.422-0.14-45.593c-0.617-7.791-0.403-15.676-0.457-23.51    c-0.053-7.834-0.736-15.836-0.1-23.648c0.599-7.352,0.122-14.773,0.014-22.155c-0.027-1.865-0.018-3.788-0.02-5.732    c0.308-3.934,0.3-7.979,0.373-11.716c0.16-8.164,0.491-16.333,0.479-24.498c-0.007-4.68,0.076-9.394,0.076-14.089    c1.982,0.444,4.117,0.461,6.071,0.558c5.874,0.29,11.873,0.154,17.739-0.211c2.776-0.173,5.527-0.28,8.25-0.605    c1.997,0.066,3.99,0.154,5.954,0.355c6.068,0.623,12.256,0.765,18.339,0.461c6.93-0.348,13.868-0.397,20.811-0.711    c0.492-0.022,0.98-0.039,1.464-0.051c2.571,0.284,5.167,0.389,7.785,0.552c5.866,0.365,11.865,0.501,17.739,0.211    c1.955-0.097,4.09-0.113,6.073-0.558c0,4.695,0.082,9.408,0.076,14.089c-0.012,8.165,0.319,16.334,0.479,24.498    c0.073,3.738,0.066,7.782,0.373,11.716c-0.002,1.944,0.007,3.867-0.02,5.732c-0.108,7.382-0.584,14.803,0.014,22.156    c0.635,7.812-0.048,15.814-0.1,23.648c-0.053,7.833,0.16,15.719-0.457,23.51c-1.201,15.17,0.261,30.389-0.14,45.593    c-0.399,15.124-0.682,30.826,1.064,45.891c-0.431,10.859-1.004,21.715-1.394,32.523    C310.973,499.248,311.213,501.029,310.882,502.092z M311.198,241.927c-0.019,0.615-0.019,1.236-0.031,1.854    c-1.829-0.495-3.711-0.523-5.766-0.468c-5.065,0.135-10.134-0.093-15.204,0.1c-11.61-0.798-23.37,0.124-34.937,1.061    c-8.726,0.705-17.375-0.506-26.039-0.282c-2.147-0.329-4.305-0.645-6.505-0.753c-5.376-0.263-10.749,0.019-16.117-0.124    c-2.055-0.056-3.937-0.028-5.766,0.468c-0.012-0.618-0.013-1.238-0.031-1.854c-0.139-4.606,0.631-10.159-0.568-14.732    c1.621-0.027,3.242-0.091,4.895-0.19c5.066-0.302,10.021,0.369,15.071,0.528c4.556,0.143,9.084,0.35,13.648,0.284    c3.383-0.048,6.932,0.28,10.211-0.489c3.128,0.023,6.26,0.092,9.392,0.119c6.155,0.053,12.668,0.608,19.04,0.384    c1.889,0.044,3.8-0.041,5.662-0.014c4.565,0.064,9.093-0.141,13.648-0.284c5.05-0.159,10.006-0.831,15.071-0.528    c1.653,0.099,3.275,0.164,4.895,0.19C310.566,231.768,311.337,237.321,311.198,241.927z M301.095,221.503    c-5.923,0.418-11.833,1.042-17.75,1.345c-4.279-0.943-8.399-0.533-12.918-0.502c-5.994,0.041-11.99,0.096-17.983,0.166    c-4.632,0.053-9.796-0.171-14.77,0.203c-3,0.018-6.041,0.286-8.836,0.146c-5.979-0.299-11.95-0.934-17.935-1.356    c-5.052-0.357-10.896,1.053-15.817,0.056c-2-0.405-4.032-2.192,0.12-4.058c0.24-0.108,0.524-0.168,0.826-0.203    c2.977,1.268,7.019,1.062,9.799,1.326c5.505,0.524,11.593,0.938,17.112,0.626c1.3-0.073,2.59-0.24,3.879-0.419    c2.779,0.513,5.785,0.5,8.444,0.632c6.384,0.317,12.784-0.264,19.131-0.123c4.656,0.103,9.269,0.151,13.93-0.197    c4.071-0.303,8.492,0.139,12.525-0.845c2.738,0.255,5.454,0.796,8.206,0.952c5.517,0.311,11.607-0.102,17.111-0.626    c2.78-0.264,6.824-0.058,9.799-1.326c0.302,0.037,0.586,0.096,0.826,0.203c4.152,1.866,2.119,3.652,0.12,4.058    C311.99,222.556,306.147,221.146,301.095,221.503z"/>
	</g>
</g>
<g>
	<g>
		<path d="M311.713,191.161c-0.438-4.095,0.016-8.706-0.895-12.851c-0.129-1.754-0.507-3.326-1.38-4.328    c-1.861-2.135-6.844-1.668-8.723,0.249c-2.645,2.696-1.024,8.817-1.199,12.094c-0.243,4.58-0.849,8.812-0.505,13.391    c0.261,3.482-0.031,5.625,3.817,6.532c2.624,0.619,7.06,0.839,8.706-1.751C313.531,201.358,312.081,194.61,311.713,191.161z     M304.868,202.272c-2.701,0.063-2.441-0.614-2.563-3.004c-0.289-5.722,0.615-11.338,0.518-17.09    c-0.016-0.925-0.624-4.459,0.173-5.217c1.05-0.997,3.343-0.59,3.947,0.328c1.495,2.273,0.51,7.36,1.24,10.317    c-0.053,2.674-0.108,5.347-0.121,8.005C308.046,198.839,308.848,202.18,304.868,202.272z"/>
	</g>
</g>
<g>
	<g>
		<path d="M292.602,191.476c-0.04-0.398-0.077-0.805-0.114-1.211c0.47-4.71,0.951-10.471-0.689-14.297    c-1.328-3.101-4.882-2.855-7.683-2.193c-5.115,1.208-4.783,3.771-4.766,8.435c0.019,5.351-1.517,10.629-1.222,16.029    c0.152,2.778,0.304,6.956,3.451,7.898c2.72,0.814,8.134,0.813,10.187-1.594C294.408,201.444,292.972,195.053,292.602,191.476z     M286.855,202.462c-0.343,0.082-3.794,0.189-4.003,0.03c-1.47-1.119-1-5.607-0.921-7.459c0.134-3.143,0.748-6.174,1.05-9.291    c0.278-2.866-1.167-7.251,2.136-8.335c1.968-0.645,2.949,0.032,3.45,1.242c-0.177,5.889,1.135,11.864,1.004,17.765    C289.503,199.489,290.034,201.696,286.855,202.462z"/>
	</g>
</g>
<g>
	<g>
		<path d="M273.02,76.371c-0.198-1.806-0.239-3.97-1.025-5.654c0.057-1.142-0.15-2.177-1.193-3.014    c-1.705-1.368-2.601-1.337-4.423-0.321c-1.843,1.029-1.914,1.869-1.976,3.898c-0.076,2.431-0.475,4.78-0.227,7.236    c0.168,1.635,0.562,2.906,2.242,3.508c1.63,0.584,3.993,0.14,5.303-0.992C273.051,79.882,273.199,78.009,273.02,76.371z     M269.158,79.306c-1.343,0.766-3.099,0.594-3.507-1.081c-0.482-1.979,0.268-3.762,0.58-5.682c0.031-0.19,0.093-0.414,0.182-0.654    c0.46-1.237,1.64-2.862,2.957-1.978c1.192,0.801,0.765,5.117,0.879,6.461C270.353,77.615,270.424,78.584,269.158,79.306z"/>
	</g>
</g>
<g>
	<g>
		<path d="M266.283,108.698c-0.622-4.707-0.403-9.157-4.44-12.496c-2.467-2.041-6.457-3.617-9.534-2.55    c-4.125,1.43-6.782,4.623-7.624,8.807c-0.43,2.138-0.284,4.243-0.254,6.372c-0.759,3.121-2.052,7.392-0.553,9.789    c1.773,2.836,8.139,2.329,10.979,2.336c3.181,0.008,9.208,1.668,11.172-1.747C267.518,116.62,266.654,111.508,266.283,108.698z     M262.606,116.408c-1.042,1.669-7.349,0.916-9.079,0.853c-1.305-0.048-2.798-0.26-4.12-0.393c-1.691-0.171-1.948,0.092-2.331-0.81    c0.103-2.514,0.548-5.018,0.545-7.546c-0.003-4.129,0.148-9.637,4.831-11.348c3.727-1.361,8.35,1.212,9.56,4.799    c0.791,2.341,0.424,5.82,0.564,8.302C262.643,111.45,263.174,115.497,262.606,116.408z"/>
	</g>
</g>
<g>
	<g>
		<path d="M267.567,272.081c-0.364-4.436-0.618-9.716-3.328-13.415c-2.811-3.837-7.017-4.897-11.444-2.959    c-4.158,1.821-6.56,5.988-7.23,10.349c-0.255,1.661-0.553,3.621-0.669,5.612c-0.186,1.553-0.254,3.041-0.332,4.023    c-0.281,3.539-0.328,5.933,3.688,6.114c2.908,0.131,5.963,0.238,8.872,0.066c2.218-0.132,5.364,0.139,7.548-0.434    C268.165,280.519,267.8,274.921,267.567,272.081z M263.331,277.431c-1.464,0.037-2.92-0.003-4.404,0.158    c-2.053,0.223-8.452,1.29-10.315,0.231c-0.163-0.038-0.267-0.022-0.334,0.027c0.014-0.411,0.009-0.823-0.037-1.234    c-0.009-0.191-0.02-0.38-0.03-0.571c0.089-0.505,0.168-0.971,0.181-1.304c0.078-1.855,0.13-3.614,0.348-5.464    c0.559-4.736,1.758-10.465,7.574-11.061c6.395-0.655,6.396,6.115,6.938,10.659C263.539,271.276,264.21,274.863,263.331,277.431z"/>
	</g>
</g>
<g>
	<g>
		<path d="M267.567,305.896c-0.364-4.436-0.618-9.716-3.328-13.415c-2.811-3.837-7.017-4.897-11.444-2.959    c-4.158,1.821-6.56,5.988-7.23,10.349c-0.255,1.661-0.553,3.621-0.669,5.612c-0.186,1.553-0.254,3.041-0.332,4.023    c-0.281,3.539-0.328,5.932,3.688,6.114c2.908,0.131,5.963,0.238,8.872,0.066c2.218-0.132,5.364,0.139,7.548-0.434    C268.165,314.334,267.8,308.736,267.567,305.896z M263.331,311.245c-1.464,0.037-2.92-0.003-4.404,0.158    c-2.053,0.223-8.452,1.29-10.315,0.231c-0.163-0.038-0.267-0.022-0.334,0.027c0.014-0.412,0.009-0.823-0.037-1.234    c-0.009-0.191-0.02-0.38-0.03-0.571c0.089-0.504,0.168-0.97,0.181-1.304c0.078-1.854,0.13-3.613,0.348-5.464    c0.559-4.736,1.758-10.465,7.574-11.06c6.395-0.655,6.396,6.115,6.938,10.658C263.539,305.09,264.21,308.678,263.331,311.245z"/>
	</g>
</g>
<g>
	<g>
		<path d="M267.567,340.821c-0.364-4.436-0.618-9.716-3.328-13.415c-2.811-3.837-7.017-4.897-11.444-2.959    c-4.158,1.821-6.56,5.988-7.23,10.349c-0.255,1.661-0.553,3.621-0.669,5.612c-0.186,1.553-0.254,3.041-0.332,4.023    c-0.281,3.54-0.328,5.933,3.688,6.114c2.908,0.131,5.963,0.238,8.872,0.066c2.218-0.132,5.364,0.139,7.548-0.434    C268.165,349.259,267.8,343.661,267.567,340.821z M263.331,346.17c-1.464,0.037-2.92-0.003-4.404,0.158    c-2.053,0.223-8.452,1.29-10.315,0.231c-0.163-0.038-0.267-0.022-0.334,0.027c0.014-0.411,0.009-0.823-0.037-1.234    c-0.009-0.191-0.02-0.38-0.03-0.571c0.089-0.503,0.168-0.969,0.181-1.303c0.078-1.855,0.13-3.615,0.348-5.464    c0.559-4.736,1.758-10.465,7.574-11.061c6.395-0.655,6.396,6.115,6.938,10.658C263.539,340.015,264.21,343.602,263.331,346.17z"/>
	</g>
</g>
<g>
	<g>
		<path d="M267.567,377.106c-0.364-4.436-0.618-9.716-3.328-13.415c-2.811-3.837-7.017-4.897-11.444-2.959    c-4.158,1.821-6.56,5.988-7.23,10.349c-0.255,1.661-0.553,3.621-0.669,5.612c-0.186,1.553-0.254,3.041-0.332,4.023    c-0.281,3.54-0.328,5.933,3.688,6.114c2.908,0.131,5.963,0.238,8.872,0.065c2.218-0.132,5.364,0.139,7.548-0.434    C268.165,385.544,267.8,379.947,267.567,377.106z M263.331,382.457c-1.464,0.037-2.92-0.003-4.404,0.158    c-2.053,0.223-8.452,1.29-10.315,0.231c-0.163-0.038-0.267-0.022-0.334,0.027c0.014-0.411,0.009-0.823-0.037-1.234    c-0.009-0.191-0.02-0.38-0.03-0.571c0.089-0.505,0.168-0.97,0.181-1.304c0.078-1.855,0.13-3.614,0.348-5.464    c0.559-4.736,1.758-10.465,7.574-11.061c6.395-0.655,6.396,6.115,6.938,10.659C263.539,376.302,264.21,379.889,263.331,382.457z"/>
	</g>
</g>
<g>
	<g>
		<path d="M232.773,473.29c-0.284-3.477-0.484-7.613-2.608-10.511c-2.203-3.006-5.498-3.838-8.967-2.318    c-3.258,1.426-5.14,4.692-5.665,8.109c-0.2,1.301-0.433,2.837-0.524,4.396c-0.146,1.217-0.199,2.383-0.26,3.152    c-0.219,2.774-0.255,4.649,2.89,4.791c2.278,0.103,4.672,0.187,6.951,0.051c1.738-0.103,4.203,0.109,5.914-0.34    C233.241,479.902,232.955,475.516,232.773,473.29z M229.455,477.481c-1.147,0.029-2.288-0.003-3.451,0.123    c-1.608,0.175-6.622,1.01-8.082,0.181c-0.128-0.03-0.209-0.018-0.262,0.021c0.011-0.322,0.007-0.644-0.029-0.966    c-0.007-0.15-0.016-0.298-0.023-0.447c0.07-0.395,0.131-0.76,0.142-1.022c0.061-1.453,0.101-2.831,0.272-4.281    c0.438-3.711,1.377-8.2,5.935-8.666c5.011-0.513,5.011,4.792,5.436,8.351C229.619,472.66,230.144,475.47,229.455,477.481z"/>
	</g>
</g>
<g>
	<g>
		<path d="M294.708,473.29c-0.284-3.477-0.483-7.613-2.608-10.511c-2.203-3.006-5.498-3.838-8.967-2.318    c-3.258,1.426-5.14,4.692-5.665,8.109c-0.2,1.301-0.433,2.837-0.524,4.396c-0.146,1.217-0.199,2.383-0.26,3.152    c-0.22,2.774-0.257,4.649,2.89,4.791c2.278,0.103,4.672,0.187,6.951,0.051c1.738-0.103,4.203,0.109,5.914-0.34    C295.177,479.902,294.89,475.516,294.708,473.29z M291.39,477.481c-1.147,0.029-2.288-0.003-3.451,0.123    c-1.608,0.175-6.622,1.01-8.082,0.181c-0.128-0.03-0.21-0.018-0.262,0.021c0.011-0.322,0.007-0.644-0.029-0.966    c-0.007-0.15-0.016-0.298-0.023-0.447c0.07-0.395,0.131-0.76,0.142-1.022c0.06-1.453,0.101-2.831,0.272-4.281    c0.438-3.711,1.377-8.2,5.935-8.666c5.011-0.513,5.012,4.792,5.436,8.351C291.553,472.66,292.079,475.47,291.39,477.481z"/>
	</g>
</g>
<g>
	<g>
		<path d="M268.803,473.777c-0.037-3.767,0.252-7.611-0.05-11.357c-0.414-5.134-1.813-12.006-7.611-13.677    c-4.502-1.296-9.91,1.01-13.012,4.271c-4.003,4.209-4.35,10.38-4.565,15.821c-0.136,3.43-0.545,7.323-0.282,11.037    c0.016,2.656,0.231,5.599,0.846,7.651c1.275,4.258,7.309,3.508,10.984,3.313c3.861-0.203,12.492,0.403,13.784-4.174    C269.91,483.078,268.839,477.47,268.803,473.777z M264.556,484.147c-1.438,2.202-7.309,2.141-10.057,2.147    c1.227-0.003-5.764-0.234-5.866,0.138c-0.44-0.712-0.564-4.894-0.624-5.263c-0.368-2.254-0.692-4.504-0.96-6.762    c0.009-4.264,0.203-8.514,1.239-12.574c1.207-4.739,3.871-8.605,9.082-9.036c8.161-0.675,7.454,9.864,7.349,15.45    c-0.046,2.457-0.043,4.916-0.067,7.374C264.635,477.403,265.506,482.692,264.556,484.147z"/>
	</g>
</g>
<g>
	<g>
		<path d="M289.136,421.764c-0.036-3.766,0.253-7.611-0.049-11.357c-0.414-5.134-1.813-12.006-7.611-13.677    c-4.502-1.296-9.91,1.01-13.012,4.271c-4.003,4.209-4.35,10.38-4.565,15.821c-0.135,3.43-0.545,7.323-0.282,11.037    c0.016,2.656,0.231,5.599,0.846,7.651c1.275,4.258,7.309,3.508,10.984,3.313c3.86-0.203,12.491,0.403,13.782-4.174    C290.242,431.064,289.172,425.457,289.136,421.764z M284.89,432.133c-1.438,2.202-7.309,2.14-10.057,2.147    c1.227-0.003-5.764-0.234-5.866,0.138c-0.44-0.712-0.564-4.894-0.624-5.263c-0.368-2.254-0.692-4.504-0.96-6.762    c0.009-4.264,0.203-8.514,1.239-12.574c1.207-4.739,3.871-8.605,9.082-9.036c8.161-0.675,7.454,9.864,7.35,15.45    c-0.047,2.457-0.043,4.916-0.067,7.374C284.968,425.389,285.839,430.678,284.89,432.133z"/>
	</g>
</g>
<g>
	<g>
		<path d="M251.896,421.764c-0.036-3.766,0.253-7.611-0.049-11.357c-0.414-5.134-1.813-12.006-7.611-13.677    c-4.502-1.296-9.91,1.01-13.012,4.271c-4.003,4.209-4.35,10.38-4.565,15.821c-0.135,3.43-0.545,7.323-0.282,11.037    c0.016,2.656,0.231,5.599,0.846,7.651c1.275,4.258,7.31,3.508,10.984,3.313c3.859-0.203,12.49,0.403,13.782-4.174    C253.003,431.064,251.932,425.457,251.896,421.764z M247.649,432.133c-1.437,2.202-7.309,2.14-10.057,2.147    c1.227-0.003-5.764-0.234-5.866,0.138c-0.44-0.712-0.564-4.894-0.624-5.263c-0.369-2.254-0.693-4.504-0.96-6.762    c0.009-4.264,0.204-8.514,1.239-12.574c1.207-4.739,3.871-8.605,9.082-9.036c8.161-0.675,7.454,9.864,7.35,15.45    c-0.047,2.457-0.044,4.916-0.067,7.374C247.729,425.389,248.598,430.678,247.649,432.133z"/>
	</g>
</g>
<g>
</g>
<g>
</g>
<g>
</g>
<g>
</g>
<g>
</g>
<g>
</g>
<g>
</g>
<g>
</g>
<g>
</g>
<g>
</g>
<g>
</g>
<g>
</g>
<g>
</g>
<g>
</g>
<g>
</g>
</svg>
