<?xml version="1.0" encoding="iso-8859-1"?>
<!-- Generator: Adobe Illustrator 19.0.0, SVG Export Plug-In . SVG Version: 6.00 Build 0)  -->
<svg xmlns="http://www.w3.org/2000/svg" xmlns:xlink="http://www.w3.org/1999/xlink" version="1.1" id="Layer_1" x="0px" y="0px" viewBox="0 0 512.002 512.002" style="enable-background:new 0 0 512.002 512.002;" xml:space="preserve">
<g>
	<g>
		<path d="M299.157,496.861c-0.544-4.292-0.543-9.832-2.298-14.111c-0.203-2.192-0.454-4.376-0.817-6.545    c-0.978-5.841-2.527-11.412-2.859-17.349c-0.299-5.345-0.88-10.703-1.633-16.016c-0.834-5.883-1.778-11.92-1.93-17.87    c-0.12-4.687-0.674-9.368-0.621-14.037c0.061-5.357-0.925-10.195-1.301-15.496c-0.327-4.613-0.386-9.155-0.775-13.761    c-0.426-5.039-0.393-10.316-0.641-15.381c-0.209-4.262-0.568-8.499-0.726-12.761c-0.33-8.918-0.789-17.925-1.247-26.85    c-0.24-4.665-1.168-9.499-1.694-14.142c-0.497-4.394-0.732-8.817-1.078-13.247c-0.771-9.893-0.18-19.894-0.844-29.8    c-0.614-9.172-0.76-18.348-2.076-27.463c-0.613-4.245-0.805-8.716-1.84-12.855c-0.251-1.003-0.411-2.029-0.598-3.039    c0.183-0.024,0.36-0.034,0.545-0.062c4.884-0.721,9.987,0.103,14.257-3.01c3.023-2.204,5.023-6,4.348-9.783    c-0.34-1.907-1.37-3.839-2.505-5.391c-0.265-0.363-0.587-0.856-0.948-1.296c0.23-0.198,0.453-0.404,0.711-0.567    c4.259-2.133,6.073-5.256,5.316-9.945c-0.155-0.958-0.476-1.894-0.62-2.842c-0.462-3.035,0.074-2.207,0.646-4.114    c0.505-1.685,1.432-2.881,1.175-4.861c-0.61-4.678-5.638-6.054-8.986-8.421c-1.918-1.356-3.665-2.788-5.555-4.11    c0.01-0.014,0.02-0.025,0.029-0.04c1.243-1.873,1.038-4.66,0.483-6.705c-1.374-5.062-5.865-9.462-10.651-11.402    c-1.486-0.602-3.068-0.933-4.691-1.068c0.849-3.306-0.137-6.944-0.16-10.384c-0.039-5.565-0.613-11.087-0.781-16.646    c-0.181-6.015-1.24-11.816-1.687-17.785c-0.133-1.769-0.169-3.16-0.565-4.395c0.432-0.094,0.855-0.194,1.254-0.297    c3.531-0.912,6.785-3.888,7.118-7.654c0.321-3.645-1.872-8.497-5.126-10.301c-1.383-0.767-2.966-1.26-4.55-1.508    c-0.436-0.316-0.857-0.544-1.276-0.712c-0.556-3.007-0.158-7.117-0.451-9.975c-0.338-3.299-0.339-6.606-0.555-9.906    c-0.508-7.793-1.249-15.678-1.385-23.485c-0.122-7.037-1.115-13.994-1.719-20.991c-0.346-4.016-0.7-7.989-1.301-11.981    c-0.235-1.558-0.358-4.026-1.465-5.302c-2.82-3.248-5.018,0.859-5.407,3.437c-0.214,1.416-0.375,2.833-0.515,4.252    c-0.358,2.294-0.941,4.535-1.008,6.882c-0.09,3.148,0.115,6.369,0.122,9.531c0.015,6.743,0.039,13.409-0.249,20.161    c-0.276,6.467,0.15,12.992-0.234,19.455c-0.171,2.888,0.081,6.184,0.14,9.445c-0.055,1.279-0.077,2.55-0.062,3.812    c-0.099,1.633-0.317,3.207-0.735,4.667c-0.022,0.031-0.03,0.063-0.05,0.094c-1.94,0.237-3.986,0.572-5.546,1.499    c-0.455,0.185-0.899,0.389-1.322,0.623c-3.254,1.804-5.448,6.656-5.126,10.301c0.332,3.768,3.585,6.742,7.118,7.654    c0.399,0.103,0.821,0.203,1.254,0.297c-0.396,1.235-0.431,2.624-0.565,4.395c-0.448,5.969-1.506,11.771-1.687,17.785    c-0.167,5.559-0.742,11.079-0.781,16.645c-0.024,3.439-1.01,7.077-0.16,10.384c-1.622,0.137-3.204,0.466-4.691,1.068    c-4.786,1.941-9.277,6.34-10.651,11.402c-0.555,2.045-0.761,4.83,0.482,6.705c0.01,0.014,0.02,0.026,0.029,0.04    c-1.891,1.322-3.637,2.754-5.555,4.11c-3.348,2.368-8.376,3.744-8.986,8.421c-0.258,1.981,0.669,3.176,1.175,4.861    c0.572,1.907,1.107,1.079,0.646,4.114c-0.144,0.947-0.465,1.884-0.62,2.842c-0.757,4.689,1.056,7.811,5.316,9.945    c0.258,0.163,0.481,0.368,0.711,0.567c-0.36,0.44-0.683,0.933-0.948,1.296c-1.136,1.551-2.165,3.484-2.505,5.391    c-0.675,3.785,1.325,7.579,4.348,9.783c4.27,3.113,9.374,2.29,14.257,3.01c0.185,0.027,0.362,0.038,0.545,0.062    c-0.188,1.01-0.347,2.036-0.598,3.039c-1.035,4.139-1.227,8.61-1.841,12.855c-1.318,9.115-1.462,18.29-2.076,27.463    c-0.663,9.906-0.072,19.906-0.843,29.8c-0.346,4.431-0.581,8.853-1.078,13.247c-0.526,4.643-1.454,9.478-1.694,14.143    c-0.459,8.925-0.917,17.933-1.247,26.85c-0.158,4.262-0.517,8.499-0.726,12.761c-0.249,5.065-0.216,10.344-0.641,15.381    c-0.39,4.605-0.448,9.147-0.775,13.761c-0.376,5.301-1.363,10.139-1.301,15.496c0.053,4.669-0.502,9.35-0.621,14.037    c-0.153,5.95-1.095,11.987-1.93,17.87c-0.753,5.312-1.334,10.671-1.633,16.016c-0.333,5.937-1.881,11.507-2.859,17.349    c-0.363,2.168-0.614,4.353-0.817,6.545c-1.755,4.279-1.754,9.819-2.298,14.111c-0.43,3.398-3.305,11,0.753,13.016    c0.306,0.152,0.637,0.247,0.978,0.321c0.659,0.304,1.435,0.436,2.309,0.28c0.189-0.034,0.378-0.067,0.567-0.101    c0.073-0.013,0.143-0.04,0.215-0.061c0.684-0.033,1.349-0.063,1.946-0.014c3.779,0.31,7.513,0.859,11.288,1.055    c2.729,0.142,6.829,0.718,10.473,0.393c4.213,0.364,8.842,0.252,13.068,0.178c4.539-0.08,9.141,0.16,13.64-0.06    c0.755-0.037,1.495-0.067,2.196-0.148c3.727,0.397,8.005-0.218,10.821-0.364c3.775-0.196,7.509-0.745,11.288-1.055    c0.597-0.049,1.262-0.018,1.946,0.014c0.072,0.02,0.142,0.048,0.215,0.061c0.189,0.034,0.378,0.067,0.567,0.101    c0.876,0.156,1.65,0.026,2.309-0.28c0.341-0.074,0.673-0.169,0.978-0.321C302.461,507.862,299.588,500.259,299.157,496.861z     M291.736,186.405c0.26,0.686,0.437,1.462,0.497,2.377c0.069,1.046,0.118,2.762,0.024,4.514c-2.444-0.378-4.887-0.537-7.342-0.649    c0.114-0.69,0.022-1.455-0.05-2.232c-0.07-0.762-0.16-1.523-0.274-2.281c-0.067-0.449-0.073-0.755-0.058-1.1    C287.004,186.998,289.462,186.846,291.736,186.405z M254.006,4.273c2.528-4.644,2.521,3.998,2.629,5.471    c0.911,12.452,1.035,24.983,1.51,37.454c0.251,6.6,0.724,13.2,0.926,19.791c0.093,3.032,0.163,6.034,0.363,9.065    c0.128,1.934-0.157,4.221-0.119,6.353c-1.974-0.004-3.885-0.043-5.831,0.078c0.747-4.861-0.368-10.421-0.164-15.179    c0.117-2.721,0.079-5.454,0.011-8.188c0.041-3.965-0.031-7.946-0.092-11.916c0.013-0.321,0.017-0.643,0.035-0.963    c0.207-3.835,0.08-7.613-0.133-11.395c-0.062-6.285-0.178-12.589,0.069-18.844C253.306,13.527,252.766,6.55,254.006,4.273z     M243.832,95.038c-0.613-0.871-0.585-2.242-0.536-3.239c0.115-2.352,1.24-3.036,3.324-3.694c0.795-0.25,1.613-0.355,2.433-0.464    c1.34,0,2.63-0.001,4.151-0.052c2.686-0.089,7.522,1.051,10.581,0.177c0.536,0.08,1.072,0.174,1.594,0.339    c2.085,0.658,3.209,1.341,3.324,3.694c0.049,0.997,0.077,2.368-0.536,3.239c-1.248,1.772-4.665,1.478-6.521,1.647    c-0.918,0.083-1.798,0.176-2.64,0.336c-1.283-0.06-2.562-0.28-3.838-0.106c-0.455,0.062-0.899,0.173-1.341,0.297    c-1.088-0.294-2.248-0.415-3.475-0.527C248.498,96.515,245.081,96.81,243.832,95.038z M249.093,143.022    c-0.022-4.857,0.342-9.656,0.524-14.502c0.205-5.492,0.431-10.788,1.051-16.252c0.29-2.559-0.697-5.734-0.645-8.353    c0.903,0.026,1.799-0.02,2.663-0.152c1.559,0.307,3.157,0.378,4.779,0.422c1.401,0.038,2.974,0.155,4.348-0.269    c0.055-0.001,0.111,0,0.165-0.001c0.051,2.619-0.935,5.795-0.645,8.353c0.62,5.464,0.846,10.76,1.051,16.252    c0.181,4.847,0.546,9.647,0.524,14.502c-0.013,2.929-0.351,6.652,0.258,9.679c-3.472-0.51-7.42,0.012-10.653,0.108    c-1.137,0.035-2.259,0.083-3.375,0.146c-0.113-0.021-0.223-0.047-0.336-0.066C249.464,149.832,249.106,146.01,249.093,143.022z     M233.814,165.075c0.42-0.7,0.64-1.555,1.091-2.257c3.447-5.371,9.078-4.438,14.789-5.009c0.61-0.061,1.363-0.137,2.105-0.293    c3.302,0.094,7.145,0.66,10.612,0.301c5.675,0.549,11.257-0.337,14.682,5.001c0.451,0.702,0.671,1.556,1.091,2.257    c0.067,0.457,0.134,0.916,0.203,1.373c-2.24,0.286-4.526,0.4-6.835,0.814c-3.284,0.588-6.435-0.021-9.691,0.225    c-0.477,0.036-0.911,0.116-1.328,0.215c-1.711-0.093-3.492,0.167-5.274,0.294c-0.865,0.062-1.73,0.074-2.594,0.073    c-0.768-0.288-1.573-0.509-2.527-0.582c-3.257-0.246-6.408,0.363-9.691-0.225c-2.309-0.414-4.596-0.527-6.835-0.814    C233.68,165.991,233.747,165.534,233.814,165.075z M225.701,180.796c2.702-2.148,4.944-5.023,7.534-7.272    c0.407-0.076,0.82-0.161,1.239-0.245c3.896-0.78,7.981,0.172,11.992-0.446c0.782-0.12,1.56-0.257,2.338-0.4    c2.079,0.179,4.171,0.2,6.038,0.16c2.115-0.044,4.661,0.024,6.938-0.431c1.248,0.242,2.497,0.477,3.756,0.671    c4.011,0.619,8.096-0.334,11.992,0.446c0.418,0.083,0.831,0.169,1.239,0.245c2.589,2.248,4.83,5.124,7.534,7.272    c0.869,0.69,1.703,1.294,2.462,1.904c-4.27-0.229-8.767,0.404-12.861,0.419c-4.019,0.015-8.42-0.142-12.576,0.269    c-3.531-0.573-7.435-0.114-10.839-0.278c-2.312-0.113-5.15-0.279-7.767,0.038c-2.918-0.087-5.859-0.018-8.619-0.028    c-4.094-0.015-8.59-0.647-12.861-0.419C223.998,182.088,224.832,181.486,225.701,180.796z M281.219,192.491    c-1.372-0.06-2.75-0.13-4.136-0.242c-1.533-0.124-3.148-0.234-4.791-0.308c-0.004-1.16-0.144-2.314-0.228-3.495    c-0.034-0.477,0.01-0.955,0.01-1.43c1.006-0.056,2.005-0.1,2.987-0.096c2.064,0.006,4.307,0.087,6.592,0.118    C281.232,188.822,280.826,190.721,281.219,192.491z M268.496,191.863c-2.402,0.013-4.81,0.158-7.099,0.553    c-0.013-0.381-0.04-0.747-0.044-1.052c-0.01-0.771,0.1-1.543,0.089-2.305c-0.006-0.459-0.076-0.921-0.157-1.383    c1.101-0.065,2.188-0.198,3.23-0.455c1.46,0.095,2.947,0.053,4.436-0.025c-0.149,0.618-0.304,1.239-0.362,1.897    C268.505,190.091,268.417,190.987,268.496,191.863z M257.596,192.302c-2.473-0.088-4.953-0.063-7.433,0.026    c-0.101-0.016-0.207-0.022-0.309-0.036c0.155-1.674,0.015-3.475-0.45-5.088c1.242,0.028,2.477,0.05,3.666,0.138    c1.637,0.121,3.39,0.287,5.158,0.354c-0.274,1.218-0.605,2.424-0.671,3.668C257.543,191.633,257.553,191.957,257.596,192.302z     M246.787,187.257c-0.327,1.462-0.873,3.156-0.978,4.669c-2.332-0.107-4.691-0.07-6.973,0.054    c-0.122-0.792-0.219-1.565-0.263-2.395c-0.048-0.883-0.091-1.786-0.275-2.645C241.093,187.029,243.983,187.361,246.787,187.257z     M234.99,192.244c-0.024,0.002-0.049,0.003-0.073,0.005c-2.248,0.181-4.474,0.257-6.689,0.348c0.06-1.327-0.005-2.647-0.151-3.984    c-0.054-0.496-0.089-1.036-0.156-1.572c2.593,0.024,5.18-0.066,7.591-0.104C235.344,188.767,234.757,190.505,234.99,192.244z     M219.768,188.782c0.061-0.916,0.237-1.691,0.497-2.377c1.53,0.297,3.148,0.456,4.793,0.547c-0.105,0.382-0.209,0.743-0.232,0.901    c-0.16,1.153-0.245,2.321-0.282,3.485c-0.014,0.445-0.043,0.954-0.027,1.456c-1.593,0.108-3.183,0.257-4.774,0.503    C219.65,191.543,219.698,189.828,219.768,188.782z M221.063,198.891c-0.457-0.559-0.768-1.495-0.98-2.592    c4.873,0.585,10.102,0.204,14.833-0.069c2.619-0.151,5.321-0.028,8.029,0.071c3.324,0.456,6.896,0.438,9.905,0.54    c4.321,0.145,9.052,0.783,13.25-0.463c3.684-0.054,7.41-0.353,10.982-0.147c4.731,0.273,9.96,0.654,14.833,0.069    c-0.21,1.096-0.522,2.032-0.979,2.592c-1.556,1.906-4.33,2.288-5.823,4.515c-2.377-0.44-5.066-0.164-7.28-0.178    c-3.382-0.022-7.317-0.144-11.068,0.31c-4.505-1.798-10.899-0.753-15.468-0.589c-2.038,0.073-4.253,0.104-6.308,0.567    c-3.678-0.422-7.514-0.309-10.823-0.288c-2.215,0.014-4.903-0.261-7.28,0.178C225.394,201.179,222.619,200.797,221.063,198.891z     M235.546,219.706c-2.235-0.114-4.484-0.289-6.583-0.407c-2.356-0.133-6.454-0.932-6.421-4.288    c0.026-2.679,2.635-3.814,4.049-5.49c0.132-0.157,0.243-0.317,0.354-0.477c2.792-0.435,6.368,0.286,9.035,0.274    c4.122-0.017,8.261,0.86,12.217,0.332c0.473,0.021,0.948,0.053,1.422,0.066c5.408,0.141,12.423,1.185,18.276,0.077    c2.679-0.107,5.407-0.487,8.128-0.475c2.666,0.011,6.242-0.71,9.035-0.274c0.112,0.16,0.222,0.321,0.354,0.477    c1.414,1.676,4.023,2.812,4.049,5.49c0.032,3.357-4.064,4.155-6.421,4.288c-3.946,0.223-8.432,0.669-12.332,0.465    c-0.601-0.031-1.162-0.05-1.706-0.061c-2.488-0.662-5.075-0.477-7.763-0.469c-3.883,0.011-7.765-0.233-11.64-0.18    C245.564,219.11,239.943,218.467,235.546,219.706z M233.132,504.999c-2.493-0.092-4.971-0.234-7.391-0.399    c-1.29-0.088-3.065-0.524-4.853-0.788c1.202-6.618,1.337-13.361,1.912-20.109c0.478-5.6,1.911-10.957,2.875-16.473    c0.734-4.195,0.894-8.472,1.336-12.696c1.086-10.362,2.752-20.984,2.883-31.425c0.055-4.418,0.723-8.688,0.609-13.134    c-0.143-5.588,1.288-10.902,1.401-16.466c0.365-18.058,1.922-36.172,2.686-54.247c0.769-18.195,3.693-36.171,3.972-54.411    c0.168-10.959-0.082-22.019,0.584-32.952c0.299-4.906,1.025-9.786,1.54-14.652c0.262-2.48-0.238-4.888-0.251-7.365    c-0.004-0.806-0.15-2.115-0.198-3.383c3.025,0.296,6.212,0.236,9.263,0.378c0.25,0.012,0.502,0.016,0.752,0.026    c-0.436,8.5,0.404,17.099-0.419,25.576c-0.847,8.718-0.921,17.603-1.408,26.37c-1.076,19.38-3.151,38.837-3.363,58.233    c-0.207,18.913-2.125,37.958-3.329,56.82c-1.178,18.444-3.342,36.848-4.458,55.324c-0.613,10.151-1.093,20.327-1.987,30.45    C234.567,487.85,232.866,496.685,233.132,504.999z M274.653,505.09c-1.608-0.465-3.61-0.172-5.247-0.053    c-1.037-0.031-2.077-0.056-3.098-0.119c-0.763-0.199-1.63-0.088-2.317,0.302c-2.72,0.072-5.439,0.127-8.161,0.17    c-2.256,0.036-5.179-0.238-8.122-0.324c-0.631-0.262-1.363-0.32-2.018-0.148c-2.987,0.186-6.053,0.223-9.12,0.172    c0.647-15.882,2.182-31.862,3.264-47.718c1.294-18.959,1.555-38.351,4.392-57.145c1.283-8.497,1.869-17.844,1.824-26.455    c-0.05-9.51,0.756-19.038,1.299-28.532c1.097-19.169,1.37-38.431,2.985-57.578c0.887-10.514,1.232-21.006,1.707-31.531    c0.432-9.601,1.356-19.456,0.735-29.137c2.144,0.057,4.292,0.088,6.438,0.124c-0.605,9.64,0.313,19.453,0.744,29.012    c0.475,10.526,0.82,21.018,1.707,31.531c1.616,19.146,1.889,38.41,2.985,57.578c0.543,9.495,1.35,19.023,1.299,28.532    c-0.046,8.611,0.541,17.958,1.824,26.455c2.837,18.794,3.099,38.186,4.392,57.145c1.081,15.857,2.617,31.836,3.264,47.718    C275.17,505.093,274.913,505.087,274.653,505.09z M286.259,504.6c-2.42,0.165-4.898,0.307-7.391,0.399    c0.267-8.314-1.435-17.15-2.156-25.321c-0.894-10.121-1.374-20.299-1.987-30.45c-1.116-18.476-3.28-36.88-4.458-55.324    c-1.204-18.862-3.123-37.908-3.329-56.82c-0.212-19.397-2.287-38.853-3.363-58.233c-0.487-8.767-0.56-17.652-1.408-26.37    c-0.815-8.387-0.011-16.895-0.417-25.308c0.731,0.017,1.463,0.033,2.192,0.057c2.5,0.088,5.349,0.426,7.801-0.35    c-0.06,1.144-0.174,2.279-0.179,3.004c-0.014,2.477-0.515,4.886-0.251,7.365c0.516,4.866,1.241,9.745,1.54,14.652    c0.667,10.933,0.416,21.993,0.584,32.952c0.28,18.24,3.204,36.217,3.972,54.411c0.764,18.074,2.321,36.188,2.686,54.247    c0.113,5.564,1.544,10.878,1.401,16.466c-0.114,4.446,0.554,8.716,0.609,13.134c0.131,10.441,1.798,21.062,2.883,31.425    c0.442,4.224,0.602,8.5,1.336,12.696c0.964,5.516,2.397,10.873,2.875,16.473c0.575,6.748,0.711,13.49,1.913,20.109    C289.324,504.076,287.55,504.514,286.259,504.6z"/>
	</g>
</g>
<g>
</g>
<g>
</g>
<g>
</g>
<g>
</g>
<g>
</g>
<g>
</g>
<g>
</g>
<g>
</g>
<g>
</g>
<g>
</g>
<g>
</g>
<g>
</g>
<g>
</g>
<g>
</g>
<g>
</g>
</svg>
