<?xml version="1.0" encoding="iso-8859-1"?>
<!-- Generator: Adobe Illustrator 19.0.0, SVG Export Plug-In . SVG Version: 6.00 Build 0)  -->
<svg xmlns="http://www.w3.org/2000/svg" xmlns:xlink="http://www.w3.org/1999/xlink" version="1.1" id="Layer_1" x="0px" y="0px" viewBox="0 0 511.996 511.996" style="enable-background:new 0 0 511.996 511.996;" xml:space="preserve">
<g>
	<g>
		<path d="M511.298,266.369c-0.079-2.14,0.264-4.168-0.923-6.068c-1.996-3.192-6.753-3.133-10.063-3.31    c-0.26-0.014-0.524-0.018-0.785-0.029c1.037-2.306,1.01-5.266-0.209-8.764c-2.55-7.321-5.458-14.869-9.127-21.678    c-8.942-16.596-16.847-33.878-25.105-50.827c-4.12-8.454-7.33-17.081-10.715-25.827c-2.944-7.604-5.907-14.989-9.101-22.404    c2.459-0.363,4.674-1.122,5.74-2.784c1.616-2.518,0.678-10.809-1.187-13.14c-0.084-0.105-0.189-0.195-0.285-0.291    c4.436-2.76,5.381-9.2,7.254-13.697c1.966-4.724,4.978-9.526,4.47-14.869c-0.388-4.081-3.419-5.798-6.588-7.854    c-4.58-2.971-8.452-6.625-12.708-10.014c-4.745-3.779-9.013-7.087-13.049-11.611c-1.685-1.89-3.347-3.864-5.039-5.82    c-0.802-1.287-1.538-2.568-2.281-3.898c-1.279-2.294-3.303-5.121-6.349-4.335c-1.521,0.393-2.494,1.688-3.349,2.891    c-1.521,2.139-3.03,4.147-4.772,6.122c-1.422,1.611-3.35,3.731-4.261,5.897c-3.802,4.087-7.818,7.22-12.251,10.753    c-4.255,3.389-8.128,7.042-12.708,10.014c-3.168,2.056-6.199,3.773-6.588,7.854c-0.508,5.343,2.505,10.146,4.47,14.869    c1.872,4.498,2.819,10.937,7.25,13.694c-0.091,0.099-0.196,0.189-0.281,0.294c-1.863,2.331-2.801,10.623-1.187,13.14    c1.068,1.662,3.282,2.421,5.742,2.784c-3.195,7.415-6.157,14.799-9.101,22.404c-3.385,8.746-6.595,17.374-10.714,25.827    c-8.258,16.949-16.164,34.231-25.105,50.827c-3.671,6.81-6.578,14.357-9.128,21.678c-1.219,3.498-1.246,6.458-0.209,8.764    c-0.261,0.011-0.525,0.014-0.785,0.029c-3.309,0.176-8.067,0.117-10.063,3.31c-1.187,1.898-0.845,3.928-0.923,6.068    c-0.085,2.332-0.897,4.641-0.655,6.994c0.417,4.091,2.934,6.463,6.948,6.771c3.619,0.276,7.275,0.545,10.946,0.78    c-0.842,4.731-1.209,9.465-1.369,14.207c-3.688,8.318-7.59,16.641-12.894,24.071c-3.784,5.3-8.653,11.021-14.196,14.484    c-4.015,2.508-7.69,4.474-12.464,4.979c-2.636,0.279-5.078-0.593-7.518-0.56c-10.049,0.133-7.036,19.697-6.961,25.991    c0.07,5.822,0.773,11.572,0.493,17.357c-1.502-0.161-3.087,0.139-4.545,0.281c-2.824,0.276-5.293-0.034-8.073-0.095    c-0.615-0.014-1.168,0.016-1.666,0.084c-8.709,1.163-17.962-1.732-26.661,0c-0.498-0.066-1.051-0.098-1.666-0.084    c-2.779,0.063-5.248,0.373-8.073,0.095c-1.457-0.143-3.043-0.443-4.545-0.281c-0.279-5.785,0.424-11.536,0.494-17.357    c0.075-6.293,3.088-25.857-6.961-25.991c-2.44-0.032-4.881,0.839-7.518,0.56c-4.774-0.505-8.449-2.471-12.464-4.979    c-5.543-3.462-10.411-9.183-14.196-14.484c-5.304-7.429-9.206-15.753-12.894-24.071c-0.16-4.742-0.528-9.476-1.369-14.207    c3.671-0.235,7.326-0.504,10.945-0.78c4.015-0.308,6.532-2.68,6.948-6.771c0.24-2.352-0.57-4.662-0.655-6.994    c-0.079-2.14,0.264-4.168-0.923-6.068c-1.996-3.192-6.753-3.133-10.063-3.31c-0.26-0.014-0.524-0.018-0.785-0.029    c1.037-2.306,1.01-5.266-0.209-8.764c-2.55-7.321-5.458-14.869-9.128-21.678c-8.941-16.596-16.847-33.878-25.105-50.827    c-4.12-8.454-7.329-17.081-10.714-25.827c-2.944-7.604-5.907-14.989-9.101-22.404c2.46-0.363,4.674-1.122,5.742-2.784    c1.615-2.518,0.677-10.809-1.187-13.14c-0.084-0.105-0.189-0.195-0.281-0.294c4.431-2.758,5.378-9.197,7.25-13.694    c1.965-4.724,4.978-9.526,4.47-14.869c-0.389-4.081-3.419-5.798-6.588-7.854c-4.58-2.971-8.453-6.625-12.708-10.014    c-4.433-3.533-8.449-6.666-12.251-10.753c-0.912-2.166-2.84-4.286-4.261-5.897c-1.742-1.975-3.252-3.983-4.772-6.122    c-0.855-1.203-1.827-2.499-3.349-2.891c-3.047-0.787-5.07,2.04-6.349,4.335c-0.743,1.331-1.479,2.611-2.281,3.898    c-1.692,1.955-3.354,3.931-5.039,5.82c-4.036,4.525-8.304,7.831-13.049,11.611c-4.255,3.389-8.128,7.042-12.708,10.014    c-3.169,2.056-6.201,3.773-6.588,7.854c-0.508,5.343,2.504,10.146,4.47,14.869c1.872,4.499,2.818,10.937,7.254,13.697    c-0.096,0.096-0.201,0.186-0.285,0.291c-1.865,2.331-2.803,10.623-1.187,13.14c1.067,1.662,3.282,2.421,5.74,2.784    c-3.194,7.415-6.157,14.799-9.101,22.404c-3.385,8.746-6.596,17.374-10.715,25.827c-8.258,16.948-16.163,34.231-25.105,50.827    c-3.669,6.81-6.577,14.357-9.127,21.678c-1.219,3.498-1.246,6.458-0.209,8.764c-0.263,0.011-0.525,0.014-0.785,0.029    c-3.309,0.176-8.067,0.118-10.063,3.31c-1.187,1.898-0.845,3.928-0.923,6.068c-0.085,2.332-0.896,4.641-0.655,6.994    c0.416,4.091,2.934,6.463,6.948,6.771c3.619,0.276,7.275,0.545,10.945,0.78c-1.935,10.879-1.438,21.766-1.413,32.765    c0.015,6.512-0.784,12.929-0.78,19.439c0.004,5.752-0.098,11.868-0.804,17.618c-0.316,2.58-0.14,5.218-0.623,7.779    c-0.326,1.735-0.842,3.312-0.763,5.123c0.295,6.833-0.366,13.919-1.221,20.755c-1.002,8.009-2.407,16.093-2.86,24.135    c-0.204,3.611-0.632,7.2-0.805,10.809c-0.145,3-0.47,5.995-0.619,8.997c-0.253,5.068-0.453,9.987-0.466,15.105    c-0.015,5.947-0.211,11.812,0.889,17.674c0.863,4.591,2.977,6.146,7.231,7.509c4.742,1.521,9.802,2.226,14.782,2.675    c3.124,0.281,6.316,0.193,9.419,0.49c2.167,0.209,4.333,1.098,6.5,1.168c5.848,0.188,12.09-0.69,17.998-0.947    c1.052-0.046,2.12-0.078,3.195-0.115c2.415,0.145,4.815,0.261,7.134,0.415c7.971,0.53,16.715,0.547,24.687,0.109    c7.266-0.4,14.6-0.171,21.867-0.63c1.925,0.101,3.849,0.141,5.723,0.223c5.908,0.256,12.15,1.134,17.998,0.947    c2.166-0.07,4.333-0.958,6.5-1.168c3.102-0.299,6.294-0.21,9.419-0.49c4.979-0.449,10.039-1.154,14.781-2.675    c3.175-1.018,5.158-2.144,6.318-4.559c3.796,1.053,8.029,0.882,11.871,1.139c5.6,0.375,11.246,0.574,16.803,0.818    c1.573,0.069,0.694-0.039,2.799,0.06c2.913,0.136,6.139-0.325,9.055-0.469c1.387-0.069,2.813-0.114,4.247-0.188    c9.927,1.288,21.237,1.632,31.212,0.72c4.165-0.38,8.175-0.253,12.404-0.151c4.889,0.118,9.959-0.818,14.781-0.569    c1.433,0.074,2.86,0.119,4.246,0.188c2.915,0.144,6.142,0.605,9.055,0.469c2.105-0.099,1.226,0.009,2.799-0.06    c5.558-0.245,11.202-0.443,16.803-0.818c3.842-0.258,8.075-0.085,11.871-1.139c1.161,2.415,3.143,3.541,6.318,4.559    c4.742,1.521,9.802,2.226,14.781,2.675c3.124,0.281,6.317,0.193,9.419,0.49c2.166,0.209,4.333,1.098,6.5,1.168    c5.848,0.188,12.09-0.69,17.998-0.947c1.875-0.081,3.798-0.12,5.723-0.223c7.269,0.459,14.602,0.231,21.867,0.63    c7.973,0.439,16.716,0.421,24.687-0.109c2.319-0.154,4.719-0.27,7.134-0.415c1.074,0.038,2.142,0.069,3.195,0.115    c5.908,0.256,12.15,1.134,17.998,0.947c2.166-0.07,4.332-0.958,6.5-1.168c3.102-0.299,6.294-0.21,9.419-0.49    c4.98-0.449,10.039-1.154,14.782-2.675c4.253-1.363,6.368-2.918,7.231-7.509c1.101-5.86,0.905-11.727,0.889-17.674    c-0.013-5.118-0.213-10.039-0.465-15.105c-0.149-3.002-0.474-5.997-0.619-8.997c-0.174-3.609-0.602-7.199-0.805-10.809    c-0.453-8.04-1.858-16.126-2.86-24.135c-0.854-6.836-1.516-13.922-1.221-20.755c0.079-1.811-0.436-3.388-0.763-5.123    c-0.482-2.561-0.305-5.199-0.622-7.779c-0.705-5.749-0.807-11.866-0.804-17.618c0.004-6.51-0.795-12.927-0.78-19.439    c0.025-11.001,0.521-21.887-1.413-32.765c3.671-0.235,7.326-0.504,10.945-0.78c4.015-0.308,6.532-2.68,6.949-6.771    C512.193,271.011,511.384,268.701,511.298,266.369z M130.148,92.343c-2.151,3.997-3.35,9.616-6.441,12.934    c-0.038,0.04-0.083,0.075-0.121,0.114c0.243-2.321,0.291-4.604,0.253-7.05c-0.044-2.773,0.074-5.759-0.42-8.551    c1.988-0.424,3.972-0.884,5.957-1.252c1.091-0.201,2.132-0.395,3.132-0.644C131.782,89.559,130.79,91.152,130.148,92.343z     M62.958,79.015c11.069-9.153,21.663-18.303,28.975-30.319c0.414-0.475,0.817-0.961,1.178-1.479    c0.405-0.58,1.318-2.506,1.887-2.751c1.224-0.528,1.268,0.894,2.029,2.049c1.477,2.244,3.432,4.037,5.005,6.182    c0.203,0.278,0.405,0.525,0.608,0.76c7.046,9.749,16.252,17.653,25.813,25.559c1.138,0.942,3.412,1.827,4.322,3.065    c-6.006,1.331-12.04,2.93-18.185,3.522c-3.824,0.368-7.673,0.201-11.487,0.179c-1.541-0.009-3.232,0.158-4.91,0.245    c-0.139-0.12-0.33-0.19-0.562-0.149c-0.618,0.11-1.267,0.16-1.927,0.184c-0.66-0.024-1.309-0.074-1.927-0.184    c-0.231-0.041-0.422,0.029-0.562,0.149c-1.678-0.088-3.368-0.255-4.91-0.245c-3.813,0.023-7.663,0.19-11.487-0.179    c-6.146-0.592-12.18-2.191-18.185-3.522C59.548,80.842,61.82,79.957,62.958,79.015z M119.189,107.63    c-2.606,0.694-5.597,0.89-7.879,1.079c0.518-3.452,0.604-7.023,0.614-10.504c0.008-2.513,0.164-5.026-0.815-7.31    c0.004-0.001,0.007-0.001,0.007-0.001c1.886,0.126,3.768,0.151,5.612-0.009c1.108-0.096,2.212-0.251,3.313-0.438    c-0.37,2.6-0.27,5.341-0.318,7.893C119.668,101.365,118.863,104.635,119.189,107.63z M107.725,108.797    c0.009,0.073,0.029,0.14,0.048,0.209c-2.284,0.176-4.556,0.334-6.815,0.609c-0.358-0.014-0.717-0.006-1.076-0.008    c0.004-0.255-0.039-0.515-0.153-0.767c-0.565-1.247-0.141-3.113-0.136-4.469c0.008-2.287,0.206-4.403,0.358-6.671    c0.173-2.59-0.13-4.378-0.91-6.475c3.045,0.244,6.278,0.414,9.405,0.084C109.152,97.099,106.999,103.042,107.725,108.797z     M96.258,109.674c-0.989,0.024-1.98,0.036-2.971-0.024c-0.97-0.059-1.943-0.056-2.915-0.046c-0.828-0.1-1.657-0.183-2.489-0.258    c0.538-2.911,0.113-13.946-0.196-18.988c3.029,0.325,6.088,0.49,9.107,0.703c-0.135,1.126,0.066,2.292,0.01,3.454    c-0.113,2.356-0.62,4.595-0.775,6.93C95.876,103.771,95.298,107.26,96.258,109.674z M84.774,109.092    c-1.298-0.099-2.6-0.196-3.906-0.316c-1.349-0.125-3.045-0.229-4.794-0.441c0.209-2.571-0.281-5.278-0.509-7.785    c-0.286-3.144,0.061-6.454-0.266-9.626c3.367,0.221,6.841-0.125,10.21-0.614c-0.361,3.372-0.445,6.762-0.492,10.156    C84.981,103.257,84.593,106.241,84.774,109.092z M61.263,92.343c-0.64-1.191-1.633-2.784-2.357-4.447    c0.998,0.249,2.041,0.443,3.132,0.644c3.422,0.633,6.836,1.538,10.288,2.056c-0.451,3.119-0.275,6.516-0.074,9.474    c0.159,2.336,0.029,5.095,0.289,7.644c-1.947-0.483-3.708-1.226-4.836-2.435C64.614,101.959,63.414,96.34,61.263,92.343z     M66.073,121.146c-0.443-2.576-0.454-6.542,0.594-6.966c0.445-0.18,1.955,0.149,2.716-0.025c0.565-0.129,1.159-0.339,1.76-0.584    c1.793,0.149,3.581,0.218,5.251,0.375c4.177,0.394,8.456,0.385,12.668-0.104c1.518,0.133,3.047,0.229,4.581,0.331    c3.417,0.228,7.505,0.709,11.007-0.114c3.463,0.258,6.95,0.21,10.369-0.114c1.671-0.158,3.458-0.226,5.251-0.375    c0.6,0.245,1.194,0.456,1.76,0.584c0.762,0.173,2.27-0.156,2.716,0.025c1.048,0.424,1.036,4.391,0.594,6.966    c-9.292,2.162-19.077-0.253-28.518,0.858c-0.416-0.016-0.835-0.043-1.252-0.055c-0.698-0.02-1.414-0.044-2.125-0.066    C84.359,121.078,74.988,123.222,66.073,121.146z M21.425,248.957c1.458-4.097,3.039-8.225,4.589-12.267    c2.744-7.154,6.737-14.198,9.981-21.189c6.817-14.691,13.731-29.327,20.039-44.247c3.259-7.708,6.117-15.603,8.819-23.527    c1.528-4.481,2.81-8.963,4.547-13.377c0.78-1.982,1.803-4.272,2.257-6.543c1.382,0.031,2.649,0.041,3.622,0.124    c4.474,0.38,9.141-0.351,13.684-1.441c1.872,0.125,3.748,0.224,5.602,0.363c4.532,0.339,10.376,2.127,15.071,0.929    c2.186,0.24,4.363,0.33,6.496,0.149c0.972-0.083,2.239-0.093,3.622-0.124c0.453,2.271,1.477,4.561,2.257,6.543    c1.737,4.413,3.018,8.896,4.547,13.377c2.703,7.924,5.559,15.819,8.819,23.527c6.308,14.92,13.22,29.555,20.038,44.247    c3.245,6.991,7.237,14.036,9.981,21.189c1.551,4.042,3.132,8.17,4.59,12.267c0.552,1.551,1.875,3.469,0.286,4.942    c-0.588,0.544-7.031,0.824-6.721,0.805c-9.445,0.545-18.826,0.663-28.295,0.807c-6.908,0.105-14.767,0.255-21.618,1.867    c-6.791,0.233-13.733,0.118-20.325-0.477c-6.486-0.585-13.104-0.369-19.681-0.321c-5.763-0.872-11.93-0.983-17.479-1.068    c-9.47-0.144-18.851-0.261-28.295-0.807c0.31,0.018-6.133-0.261-6.721-0.805C19.55,252.426,20.874,250.507,21.425,248.957z     M12.801,272.252c-0.814-0.046-4.584,0.549-5.139,0.126c-0.927-0.705-0.134-4.086-0.176-5.21c-0.12-3.132-0.759-2.669,1.925-3.696    c2.013-0.77,4.84-0.525,6.965-0.592c1.825-0.057,3.576-0.25,5.301-0.496c9.877,1.149,20.045,0.925,30,0.875    c6.605-0.033,12.972,0.441,19.29-0.329c8.921,0.594,18.239,0.888,27.129,0.887c9.302-0.003,18.538-0.027,27.813-0.49    c4.535,0.141,9.121-0.09,13.828-0.068c9.955,0.049,20.123,0.273,30-0.875c1.726,0.246,3.477,0.44,5.301,0.496    c2.125,0.066,4.951-0.178,6.965,0.592c2.683,1.027,2.044,0.564,1.923,3.696c-0.043,1.124,0.75,4.505-0.176,5.21    c-0.555,0.423-4.326-0.171-5.139-0.126c-4.202,0.238-8.35,0.885-12.539,1.218c-8.182,0.65-16.435,0.003-24.629,0.149    c-3.763-0.624-7.891,0.099-12.534-0.233c-8.459-0.605-17.135-0.238-25.619,0.471c-8.195,0.684-16.852,0.559-24.996,0.264    c-4.755-0.173-9.621-0.428-14.38-0.293c-2.483,0.071-5.174-0.133-7.723,0.105c-1.109-0.1-2.221-0.185-3.337-0.234    c-9.138-0.406-18.373,0.498-27.516-0.23C21.151,273.137,17.003,272.488,12.801,272.252z M149.963,464.211    c-2.823,0.269-5.443,0.668-8.393,0.346c-5.001-0.545-10.041-0.44-15.063-0.477c-4.008-0.029-7.748,0.783-11.761,0.708    c-4.13-0.078-8.259-0.153-12.389-0.23c1.984-7.22,0.972-15.095,0.84-22.5c-0.146-8.214-0.331-16.72,0.299-24.903    c0.655-8.503,1.376-16.536,3.636-24.821c2.311-8.471,5.669-19.896,13.704-24.817c8.827-5.408,21.802-0.912,25.549,8.533    c3.502,8.824,4.035,19.794,4.041,29.206C150.439,424.923,150.157,444.527,149.963,464.211z M171.756,454.065    c-0.135,2.279-0.133,4.428-1.064,6.553c-0.263,0.596-0.535,1.127-0.787,1.656c-0.54,0.065-1.014,0.12-1.336,0.171    c-2.961,0.47-5.927,0.828-8.899,1.101c0.011-8.586,0.346-17.231,0.118-25.773c-0.243-8.998-1.5-17.935-1.477-26.941    c0.024-9.171-0.485-18.404-1.767-27.486c-1.048-7.43-3.347-14.57-9.232-19.386c-11.78-9.642-29.341-9.405-38.454,3.869    c-9.015,13.13-11.929,29.621-12.874,45.225c-1.038,17.152-0.033,34.346,1.727,51.421c-4.582-0.085-9.165-0.17-13.746-0.255    c-11.301-0.21-22.864-0.889-34.123,0.338c-3.804,0.414-7.055-0.371-10.903-0.529c-5.113-0.209-10.171-0.755-15.238-1.451    c-3.456-0.474-5.094-0.658-5.869-4.361c-1.951-9.321-0.702-19.185-0.081-28.579c0.344-5.2,0.264-10.415,0.435-15.622    c0.155-4.744,1.144-9.466,1.179-14.182c0.084-11.308,0.56-22.7,1.473-33.973c0.515-6.359,1.987-12.745,2.045-19.053    c0.065-7.144,0.29-14.287,0.793-21.413c0.371-5.26,0.72-10.565,0.223-15.834c-0.899-9.508,0.174-18.956-1.259-28.367    c6.611,0.354,13.239,0.544,19.766,0.36c6.079-0.171,11.999-0.428,18.069-0.431c3.208-0.003,6.047-0.384,8.846-0.952    c2.366,0.086,4.721,0.128,7.014,0.183c7.948,0.193,15.815,0.261,23.844,0.186c6.097-0.056,12.434-0.93,18.647-1.106    c3.913,0.954,7.661,1.685,12.116,1.688c6.071,0.004,11.99,0.26,18.068,0.431c6.527,0.184,13.157-0.006,19.766-0.36    c-1.433,9.411-0.36,18.858-1.259,28.367c-0.498,5.27-0.149,10.575,0.223,15.834c0.075,1.065,0.189,2.326,0.296,3.668    c-0.514,6.725-0.453,13.596-0.393,20.038c0.105,11.413-0.065,22.886,0.87,34.258c0.952,11.571,0.804,23.213,1.77,34.777    c0.433,5.178,0.8,10.289,1.016,15.489c0.163,3.929,0.567,7.826,0.914,11.721C171.836,448.243,171.919,451.296,171.756,454.065z     M317.596,334.661c4.098-3.644,7.645-8.095,10.715-12.729c-0.08,1.51-0.079,3.042-0.055,4.577    c-1.597,20.639-2.666,41.535-3.485,62.203c-0.395,9.986-0.239,19.894-0.319,29.884c-0.046,5.753-0.404,11.478-0.465,17.219    c-0.015,1.408-0.13,2.915-0.104,4.391c-1.044-1.737-2.046-3.504-3.068-5.254c-0.725-1.243-3.355-4.313-3.328-5.702    C318.128,397.713,319.47,366.196,317.596,334.661z M307.358,395.435c0.001-6.121,0.381-12.194,0.356-18.305    c-0.047-11.63,0.587-23.731-1.041-35.348c2.075-0.923,4.076-2.067,6.129-3.417c0.75-0.493,1.478-1.023,2.197-1.57    c-0.787,17.45,0.113,34.837-0.09,52.303c-0.103,8.751-0.694,17.459-1.133,26.202c-0.115,2.289-0.285,4.616-0.399,6.942    c-0.104-0.175-0.205-0.353-0.31-0.528c-2.052-3.454-4.277-6.887-6.562-10.273C307.665,406.444,307.356,400.563,307.358,395.435z     M298.695,344.036c1.756-0.223,3.382-0.603,4.943-1.098c-0.128,4.216,0.356,8.412,0.57,12.686    c0.359,7.144-0.063,14.357-0.08,21.506c-0.016,6.266-0.134,12.643-0.46,18.901c-0.18,3.448-0.64,6.971-0.564,10.459    c-0.664-0.948-1.327-1.901-1.991-2.836c-1.293-1.822-2.481-3.682-3.656-5.55c1.842-8.318,0.336-17.974,0.825-26.493    c0.296-5.154-0.055-10.38-0.12-15.535c-0.004-0.349-0.504-8.474-0.785-11.863C297.819,344.151,298.264,344.089,298.695,344.036z     M288.837,349.556c0.07-0.922-0.003-4.796,0.644-5.291c0.767-0.587,1.109-0.02,2.613,0.171c0.869,0.111,1.775,0.094,2.681,0.036    c-1.587,8.278,0.141,17.668-0.319,25.946c-0.376,6.766-1.368,14.449-0.914,21.582c-0.111-0.168-0.216-0.336-0.33-0.503    c-1.226-1.8-3.212-3.519-3.758-5.64c-0.608-2.357-0.35-5.061-0.024-7.44c0.386-2.815-0.351-5.864-0.523-8.693    C288.506,363.109,288.332,356.174,288.837,349.556z M219.904,344.437c1.503-0.193,1.846-0.759,2.613-0.171    c0.647,0.495,0.574,4.37,0.644,5.291c0.504,6.618,0.331,13.553-0.07,20.168c-0.188,3.105-0.705,6.322-0.622,9.43    c0.031,1.158,0.562,2.102,0.528,3.278c-0.043,1.488-0.27,3.509-1.028,4.794c-0.892,1.516-2.191,2.816-3.183,4.272    c-0.114,0.166-0.218,0.336-0.33,0.503c0.454-7.134-0.538-14.816-0.914-21.582c-0.46-8.278,1.267-17.668-0.319-25.946    C218.129,344.531,219.034,344.547,219.904,344.437z M207.79,355.623c0.214-4.273,0.698-8.469,0.57-12.686    c1.561,0.495,3.185,0.875,4.943,1.098c0.429,0.055,0.874,0.115,1.321,0.174c-0.283,3.389-0.782,11.516-0.785,11.863    c-0.065,5.156-0.416,10.381-0.12,15.535c0.489,8.519-1.017,18.175,0.825,26.493c-1.174,1.867-2.362,3.728-3.656,5.55    c-0.664,0.935-1.327,1.887-1.991,2.836c0.076-3.488-0.385-7.011-0.564-10.459c-0.325-6.258-0.443-12.635-0.46-18.901    C207.853,369.98,207.431,362.768,207.79,355.623z M199.194,338.365c2.054,1.349,4.055,2.494,6.129,3.417    c-1.627,11.616-0.993,23.717-1.041,35.348c-0.025,6.112,0.354,12.185,0.356,18.305c0.001,5.128-0.309,11.009,0.852,16.006    c-2.284,3.385-4.509,6.818-6.562,10.273c-0.104,0.175-0.206,0.353-0.31,0.528c-0.114-2.325-0.285-4.654-0.399-6.942    c-0.439-8.743-1.032-17.451-1.133-26.202c-0.203-17.465,0.697-34.853-0.09-52.303    C197.715,337.342,198.444,337.873,199.194,338.365z M194.4,334.661c-1.873,31.535-0.53,63.05,0.109,94.588    c0.028,1.388-2.603,4.458-3.328,5.702c-1.022,1.75-2.023,3.517-3.068,5.254c0.028-1.476-0.088-2.983-0.104-4.391    c-0.061-5.739-0.42-11.466-0.465-17.219c-0.08-9.99,0.076-19.898-0.319-29.884c-0.819-20.668-1.888-41.565-3.486-62.203    c0.024-1.536,0.025-3.068-0.055-4.577C186.754,326.567,190.3,331.017,194.4,334.661z M181.619,449.696    c-3.324,2.192-2.973-6.328-3.068-8.342c-0.175-3.744,0.143-7.471-0.223-11.207c-0.28-2.86-0.365-5.772-0.378-8.696    c-0.019-4.347,0.125-8.723,0.028-13.003c-0.18-7.999-0.281-16.004-0.885-23.986c-0.834-11.008-1.201-22.099-1.259-33.142    c-0.029-5.265,0.033-10.803-0.149-16.331c-0.008-0.634-0.015-1.261-0.015-1.872c0-5.329-0.141-10.893-0.725-16.191    c-0.178-1.615-1.05-3.532-0.878-5.129c0.718-6.636,4.396,1.391,5.326,3.064c0.423,0.762,0.864,1.528,1.313,2.294    c0.693,1.184-0.687,6.248-0.802,7.746c-0.213,2.776-0.502,5.642-0.413,8.428c0.291,9.086-0.273,18.172,0.522,27.234    c0.779,8.89,1.698,17.783,2.202,26.677c0.523,9.208,0.977,18.229,0.588,27.471c-0.233,5.535-0.145,11.197,0.121,16.727    c0.206,4.287,2.989,14.082-0.484,17.564C182.143,449.302,181.871,449.53,181.619,449.696z M215.059,457.798    c-1.7,0.12-3.362,0.184-4.97,0.134c0.434-0.026-0.429-0.229-0.743-0.238c-1.736-0.045-3.404-0.28-5.16-0.261    c-3.104,0.033-6.163,0.033-9.268-0.084c-3.457-0.129-7.565-0.682-11.271-0.17c2.489-3.454,4.522-7.45,6.721-10.905    c4.752-7.469,9.356-15.058,14.018-22.588c4.13-6.67,9.212-12.765,13.407-19.407c2.416-3.827,4.462-8.494,6.527-12.549    c0.625-1.228,1.406-2.703,1.912-4.193c2.915-1.203,5.932-0.488,9.21-0.119c4.92,0.554,6.43-0.942,4.27,4.906    c-2.748,7.443-5.364,14.903-8.014,22.334c-3.147,8.822-6.484,17.44-10.346,25.973    C219.022,445.773,215.854,451.955,215.059,457.798z M280.764,457.55c-3.104-0.495-6.234-0.842-9.453-0.774    c-10.244,0.214-20.355,0.214-30.625,0c-3.218-0.068-6.348,0.279-9.453,0.774c-3.018-0.574-6.208-0.521-9.408-0.301    c2.905-9.31,6.822-18.22,10.01-27.476c3.884-11.279,7.049-22.493,11.607-33.532c1.032-2.498,2.691-6.041,3.073-9.013    c0.976,1.588,18.868-0.775,18.968,0c0.381,2.973,2.041,6.517,3.073,9.013c4.559,11.041,7.723,22.254,11.607,33.532    c3.188,9.257,7.105,18.167,10.01,27.476C286.972,457.029,283.781,456.976,280.764,457.55z M317.079,457.35    c-3.105,0.115-6.164,0.116-9.268,0.084c-1.756-0.019-3.424,0.216-5.16,0.261c-0.314,0.009-1.177,0.21-0.743,0.238    c-1.608,0.05-3.27-0.014-4.97-0.134c-0.795-5.843-3.963-12.025-6.292-17.17c-3.862-8.533-7.201-17.151-10.346-25.973    c-2.65-7.431-5.266-14.891-8.014-22.334c-2.159-5.847-0.65-4.352,4.271-4.906c3.279-0.369,6.294-1.084,9.21,0.119    c0.507,1.491,1.287,2.965,1.912,4.193c2.065,4.056,4.111,8.723,6.527,12.549c4.195,6.642,9.276,12.739,13.407,19.407    c4.662,7.53,9.266,15.119,14.018,22.588c2.199,3.456,4.232,7.451,6.721,10.906C324.645,456.669,320.535,457.221,317.079,457.35z     M337.051,316.929c-0.584,5.296-0.725,10.862-0.725,16.191c0,0.613-0.008,1.238-0.015,1.872    c-0.181,5.528-0.119,11.064-0.149,16.331c-0.06,11.042-0.426,22.134-1.259,33.142c-0.604,7.982-0.707,15.987-0.885,23.986    c-0.096,4.28,0.046,8.656,0.027,13.003c-0.013,2.925-0.098,5.835-0.378,8.696c-0.365,3.736-0.047,7.463-0.223,11.207    c-0.094,2.014,0.256,10.534-3.068,8.342c-0.251-0.166-0.524-0.393-0.82-0.689c-3.472-3.482-0.689-13.277-0.484-17.564    c0.265-5.532,0.354-11.193,0.121-16.727c-0.389-9.242,0.065-18.264,0.588-27.471c0.504-8.894,1.424-17.788,2.202-26.677    c0.793-9.062,0.23-18.148,0.521-27.234c0.089-2.785-0.2-5.652-0.413-8.428c-0.115-1.498-1.495-6.562-0.802-7.746    c0.448-0.765,0.889-1.532,1.313-2.294c0.93-1.673,4.609-9.7,5.326-3.064C338.102,313.398,337.229,315.315,337.051,316.929z     M450.732,92.343c-2.151,3.997-3.35,9.616-6.441,12.934c-1.128,1.211-2.89,1.952-4.836,2.435c0.26-2.548,0.13-5.308,0.289-7.644    c0.201-2.958,0.378-6.353-0.074-9.474c3.453-0.518,6.867-1.423,10.289-2.056c1.091-0.201,2.134-0.395,3.132-0.644    C452.366,89.559,451.374,91.152,450.732,92.343z M383.542,79.015c9.561-7.906,18.767-15.81,25.813-25.559    c0.203-0.235,0.405-0.483,0.608-0.76c1.573-2.146,3.528-3.938,5.005-6.182c0.759-1.154,0.803-2.576,2.029-2.049    c0.569,0.245,1.482,2.171,1.887,2.751c0.361,0.519,0.764,1.004,1.178,1.479c7.312,12.017,17.905,21.166,28.975,30.319    c1.138,0.942,3.412,1.827,4.323,3.065c-6.006,1.331-12.04,2.93-18.185,3.522c-3.824,0.368-7.673,0.201-11.487,0.179    c-1.542-0.009-3.232,0.158-4.91,0.245c-0.14-0.12-0.33-0.19-0.562-0.149c-0.618,0.11-1.267,0.16-1.927,0.184    c-0.66-0.024-1.308-0.074-1.926-0.184c-0.231-0.041-0.421,0.029-0.562,0.149c-1.678-0.088-3.369-0.255-4.91-0.245    c-3.814,0.023-7.663,0.19-11.487-0.179c-6.146-0.592-12.18-2.191-18.185-3.522C380.132,80.842,382.404,79.957,383.542,79.015z     M436.431,100.552c-0.229,2.506-0.718,5.213-0.509,7.784c-1.748,0.211-3.444,0.316-4.794,0.441    c-1.306,0.121-2.608,0.218-3.907,0.316c0.181-2.851-0.206-5.835-0.243-8.626c-0.045-3.394-0.129-6.785-0.492-10.156    c3.368,0.489,6.844,0.835,10.21,0.614C436.37,94.097,436.718,97.408,436.431,100.552z M424.113,109.346    c-0.83,0.075-1.661,0.159-2.489,0.258c-0.972-0.01-1.943-0.013-2.915,0.046c-0.992,0.059-1.982,0.048-2.971,0.024    c0.961-2.414,0.383-5.903,0.229-8.228c-0.155-2.335-0.663-4.574-0.775-6.93c-0.055-1.162,0.145-2.33,0.01-3.454    c3.019-0.213,6.078-0.378,9.107-0.703C423.999,95.401,423.575,106.435,424.113,109.346z M412.045,97.703    c0.151,2.266,0.35,4.382,0.358,6.671c0.004,1.356,0.428,3.222-0.136,4.469c-0.114,0.251-0.156,0.512-0.153,0.767    c-0.359,0.001-0.718-0.006-1.076,0.008c-2.259-0.275-4.531-0.433-6.815-0.609c0.018-0.069,0.038-0.138,0.048-0.209    c0.725-5.755-1.427-11.697-0.719-17.485c3.127,0.33,6.359,0.16,9.405-0.084C412.175,93.323,411.873,95.112,412.045,97.703z     M400.072,98.206c0.01,3.479,0.098,7.051,0.614,10.504c-2.284-0.189-5.274-0.384-7.879-1.079c0.328-2.997-0.479-6.267-0.534-9.29    c-0.047-2.553,0.053-5.293-0.318-7.893c1.101,0.186,2.204,0.34,3.312,0.438c1.843,0.161,3.726,0.135,5.612,0.009l0.008,0.001    C399.907,93.179,400.064,95.693,400.072,98.206z M381.848,92.343c-0.642-1.191-1.633-2.784-2.359-4.447    c0.999,0.249,2.041,0.443,3.132,0.644c1.985,0.368,3.968,0.828,5.957,1.252c-0.495,2.791-0.376,5.778-0.42,8.551    c-0.039,2.445,0.01,4.727,0.253,7.05c-0.039-0.039-0.084-0.074-0.121-0.114C385.198,101.959,383.999,96.34,381.848,92.343z     M386.656,121.146c-0.443-2.576-0.454-6.542,0.594-6.966c0.445-0.18,1.955,0.149,2.716-0.025c0.565-0.129,1.159-0.339,1.76-0.584    c1.795,0.149,3.581,0.218,5.251,0.375c3.419,0.323,6.906,0.371,10.369,0.114c3.502,0.823,7.59,0.34,11.007,0.114    c1.535-0.103,3.064-0.198,4.582-0.331c4.212,0.489,8.49,0.499,12.668,0.104c1.671-0.158,3.458-0.226,5.251-0.375    c0.6,0.245,1.194,0.456,1.76,0.584c0.762,0.173,2.271-0.156,2.716,0.025c1.048,0.424,1.036,4.391,0.594,6.966    c-8.916,2.075-18.288-0.068-27.374,0.737c-0.709,0.024-1.426,0.046-2.125,0.066c-0.416,0.013-0.834,0.039-1.252,0.055    C405.732,120.895,395.947,123.308,386.656,121.146z M342.009,248.957c1.458-4.097,3.039-8.225,4.59-12.267    c2.744-7.154,6.737-14.198,9.982-21.189c6.817-14.691,13.729-29.327,20.038-44.247c3.259-7.708,6.117-15.603,8.819-23.527    c1.529-4.481,2.81-8.963,4.547-13.377c0.78-1.982,1.803-4.272,2.257-6.543c1.382,0.031,2.649,0.041,3.622,0.124    c2.132,0.181,4.31,0.091,6.496-0.149c4.695,1.197,10.539-0.59,15.071-0.929c1.853-0.139,3.729-0.238,5.602-0.363    c4.545,1.089,9.211,1.821,13.684,1.441c0.972-0.083,2.24-0.093,3.622-0.124c0.453,2.271,1.477,4.561,2.257,6.543    c1.737,4.413,3.019,8.896,4.547,13.377c2.703,7.924,5.56,15.819,8.819,23.527c6.308,14.92,13.222,29.555,20.039,44.247    c3.244,6.991,7.237,14.036,9.981,21.189c1.551,4.042,3.132,8.17,4.589,12.267c0.552,1.551,1.875,3.469,0.286,4.942    c-0.588,0.544-7.031,0.824-6.721,0.805c-9.443,0.545-18.826,0.663-28.294,0.807c-5.549,0.085-11.716,0.196-17.479,1.068    c-6.577-0.046-13.195-0.263-19.681,0.321c-6.592,0.594-13.534,0.709-20.325,0.477c-6.851-1.611-14.71-1.762-21.618-1.867    c-9.47-0.144-18.851-0.261-28.295-0.807c0.31,0.018-6.133-0.261-6.721-0.805C340.134,252.426,341.457,250.507,342.009,248.957z     M397.249,464.79c-4.012,0.075-7.753-0.738-11.761-0.708c-5.021,0.036-10.061-0.069-15.063,0.477    c-2.95,0.321-5.572-0.078-8.393-0.346c-0.193-19.684-0.475-39.289-0.463-58.953c0.005-9.412,0.539-20.381,4.041-29.206    c3.748-9.445,16.723-13.941,25.549-8.533c8.035,4.922,11.393,16.347,13.703,24.817c2.26,8.285,2.98,16.318,3.636,24.821    c0.63,8.183,0.444,16.688,0.299,24.903c-0.131,7.405-1.143,15.28,0.84,22.5C405.508,464.636,401.379,464.713,397.249,464.79z     M494.245,429.637c0.62,9.395,1.87,19.258-0.081,28.579c-0.775,3.704-2.414,3.887-5.869,4.361    c-5.066,0.695-10.125,1.243-15.238,1.451c-3.848,0.156-7.1,0.943-10.903,0.529c-11.259-1.227-22.823-0.548-34.123-0.338    c-4.582,0.085-9.163,0.17-13.746,0.255c1.761-17.075,2.765-34.268,1.727-51.421c-0.944-15.604-3.859-32.095-12.873-45.225    c-9.113-13.274-26.675-13.512-38.454-3.869c-5.885,4.817-8.183,11.957-9.232,19.386c-1.282,9.082-1.791,18.315-1.767,27.486    c0.024,9.007-1.234,17.944-1.477,26.941c-0.23,8.542,0.106,17.187,0.118,25.773c-2.973-0.273-5.938-0.63-8.899-1.101    c-0.321-0.051-0.795-0.105-1.336-0.171c-0.251-0.529-0.524-1.059-0.787-1.656c-0.932-2.124-0.929-4.275-1.064-6.553    c-0.164-2.769-0.08-5.822-0.455-8.721c0.348-3.893,0.752-7.791,0.914-11.721c0.214-5.2,0.583-10.311,1.016-15.489    c0.967-11.565,0.818-23.207,1.77-34.778c0.935-11.372,0.765-22.845,0.87-34.258c0.059-6.443,0.12-13.313-0.393-20.038    c0.108-1.342,0.221-2.603,0.296-3.668c0.371-5.26,0.72-10.565,0.223-15.834c-0.899-9.509,0.174-18.956-1.259-28.367    c6.61,0.354,13.239,0.544,19.766,0.36c6.078-0.171,11.999-0.428,18.068-0.431c4.455-0.004,8.204-0.734,12.117-1.688    c6.213,0.175,12.549,1.048,18.647,1.106c8.028,0.075,15.896,0.006,23.844-0.186c2.294-0.055,4.649-0.095,7.014-0.183    c2.8,0.567,5.638,0.949,8.846,0.952c6.071,0.004,11.99,0.26,18.069,0.431c6.526,0.184,13.155-0.006,19.766-0.36    c-1.433,9.411-0.36,18.858-1.259,28.367c-0.498,5.27-0.149,10.575,0.223,15.834c0.503,7.127,0.729,14.27,0.793,21.413    c0.057,6.308,1.529,12.694,2.045,19.053c0.913,11.273,1.388,22.666,1.473,33.973c0.035,4.716,1.024,9.439,1.179,14.182    C493.982,419.222,493.901,424.436,494.245,429.637z M504.334,272.377c-0.555,0.423-4.325-0.171-5.139-0.126    c-4.202,0.238-8.35,0.885-12.539,1.218c-9.143,0.728-18.378-0.176-27.516,0.23c-1.117,0.05-2.227,0.134-3.337,0.234    c-2.549-0.236-5.24-0.034-7.723-0.105c-4.759-0.136-9.625,0.12-14.38,0.293c-8.144,0.295-16.801,0.42-24.996-0.264    c-8.484-0.709-17.16-1.077-25.619-0.471c-4.641,0.333-8.771-0.391-12.534,0.233c-8.194-0.146-16.447,0.503-24.629-0.149    c-4.19-0.333-8.337-0.982-12.539-1.218c-0.813-0.046-4.584,0.549-5.139,0.126c-0.925-0.705-0.133-4.086-0.176-5.21    c-0.12-3.132-0.759-2.669,1.923-3.696c2.013-0.77,4.84-0.525,6.965-0.592c1.825-0.058,3.576-0.25,5.301-0.497    c9.878,1.149,20.045,0.925,30,0.875c4.707-0.023,9.295,0.209,13.828,0.068c9.276,0.461,18.512,0.488,27.813,0.49    c8.889,0.003,18.208-0.291,27.129-0.887c6.318,0.77,12.685,0.296,19.29,0.329c9.955,0.049,20.123,0.273,30-0.875    c1.726,0.246,3.477,0.44,5.301,0.497c2.125,0.066,4.953-0.178,6.965,0.592c2.684,1.027,2.044,0.564,1.923,3.696    C504.468,268.291,505.261,271.673,504.334,272.377z"/>
	</g>
</g>
<g>
	<g>
		<path d="M480.787,383.179c-0.657-9.651-3.218-19.23-10.327-26.093c-11.501-11.106-26.655-9.267-37.954,1.021    c-5.497,5.004-7.309,14.696-8.032,21.783c-0.855,8.387-0.449,17.51,0.369,25.882c0.76,7.771,6.349,7.644,12.978,8.762    c5.417,0.914,10.859,0.87,16.331,0.747c4.566-0.104,9.217,0.604,13.752,0.339c5.687-0.331,11.376-1.147,11.907-7.756    c0.288-3.589,0.512-7.251,0.484-10.903C480.71,392.4,481.091,387.648,480.787,383.179z M473.459,393.794    c-0.174,1.845-0.339,3.699-0.573,5.573c-0.225,1.801-0.386,4.507-1.111,6.557c-0.271,0.128-0.753,0.338-1.374,0.315    c-0.814-0.029-1.69,0.264-2.506,0.316c-6.381,0.408-13.187-0.166-19.619-0.235c-3.537-0.038-6.783-0.565-10.243-1.128    c-1.352-0.22-3.07-0.125-4.535-0.443c-0.425-3.073-0.136-6.291-0.368-9.343c-0.438-5.757-1.162-11.628-0.484-17.405    c0.607-5.178,2.032-12.006,6.029-15.499c3.275-2.864,7.46-5.598,11.897-5.961c13.2-1.079,20.364,10.669,22.459,22.032    C473.961,383.616,473.724,388.703,473.459,393.794z"/>
	</g>
</g>
<g>
	<g>
		<path d="M87.52,379.891c-0.723-7.089-2.535-16.781-8.031-21.785c-11.299-10.288-26.452-12.127-37.954-1.021    c-7.109,6.865-9.669,16.443-10.326,26.094c-0.304,4.469,0.078,9.221,0.491,13.781c-0.028,3.652,0.196,7.314,0.484,10.903    c0.531,6.608,6.221,7.425,11.907,7.756c4.534,0.264,9.185-0.443,13.752-0.339c5.471,0.124,10.914,0.168,16.331-0.747    c6.628-1.119,12.217-0.99,12.978-8.762C87.969,397.402,88.376,388.278,87.52,379.891z M78.865,395.406    c-0.231,3.053,0.056,6.269-0.368,9.343c-1.464,0.318-3.184,0.223-4.535,0.443c-3.459,0.563-6.706,1.091-10.243,1.128    c-6.432,0.069-13.237,0.643-19.619,0.235c-0.817-0.053-1.692-0.345-2.506-0.316c-0.622,0.023-1.102-0.188-1.374-0.315    c-0.724-2.05-0.885-4.756-1.111-6.557c-0.234-1.872-0.399-3.728-0.573-5.573c-0.265-5.091-0.501-10.179,0.428-15.219    c2.095-11.363,9.258-23.112,22.459-22.032c4.437,0.363,8.622,3.097,11.897,5.961c3.996,3.493,5.422,10.321,6.029,15.499    C80.027,383.779,79.303,389.651,78.865,395.406z"/>
	</g>
</g>
<g>
</g>
<g>
</g>
<g>
</g>
<g>
</g>
<g>
</g>
<g>
</g>
<g>
</g>
<g>
</g>
<g>
</g>
<g>
</g>
<g>
</g>
<g>
</g>
<g>
</g>
<g>
</g>
<g>
</g>
</svg>
