<?xml version="1.0" encoding="iso-8859-1"?>
<!-- Generator: Adobe Illustrator 19.0.0, SVG Export Plug-In . SVG Version: 6.00 Build 0)  -->
<svg xmlns="http://www.w3.org/2000/svg" xmlns:xlink="http://www.w3.org/1999/xlink" version="1.1" id="Layer_1" x="0px" y="0px" viewBox="0 0 512.001 512.001" style="enable-background:new 0 0 512.001 512.001;" xml:space="preserve">
<g>
	<g>
		<path d="M385.704,495.082c-0.371-3.137,0.285-6.595-0.792-9.636c-2.035-5.745-7.387-4.287-12.216-4.763    c-7.503-0.739-14.923-0.69-22.495-0.64c-7.676,0.052-15.484-1.548-23.177-0.566c-0.275,0.036-0.552,0.079-0.83,0.118    c0.296-0.799,0.536-1.666,0.714-2.63c1.048-5.681,3.456-12.666,7.475-16.942c4.949-5.265,11.118-7.269,17.417-9.319    c1.239-0.248,2.485-0.526,3.76-0.817c2.302-0.522,5.263-0.369,7.314-1.63c5.237-3.22,2.338-13.411,2.339-18.342    c0.002-6.855-4.547-7.446-10.407-7.386c-8.934,0.093-17.768,0.389-26.688-0.206c-4.134-0.276-8.397-0.4-12.5,0.198    c-3.904,0.571-7.846-0.345-11.841-0.33c-2.132,0.009-4.087,0.489-6.2,0.634c-1.836,0.126-3.475-0.274-5.306-0.412    c-2.755-0.208-5.497,0.11-8.253,0.154c-0.029-0.446-0.121-0.905-0.326-1.373c-1.128-2.579-0.222-7.316-0.225-10.174    c-0.004-3.006,0.233-6.137-0.119-9.122c-0.753-6.394-0.639-12.716-0.644-19.18c-0.004-5.298-0.508-10.47-0.727-15.735    c-0.123-2.954-0.837-5.795-0.848-8.776c-0.01-2.79,0.331-5.634,0.14-8.416c-1.464-21.426-2.663-43.036-3.739-64.524    c-0.546-10.898-1.461-21.815-2.237-32.706c-0.374-5.264-1.439-10.538-1.672-15.787c-0.242-5.442-0.26-10.701-0.783-16.111    c-0.525-5.438,0.24-10.762-0.524-16.224c-0.728-5.202-0.275-10.434-0.222-15.667c0.066-6.621,0.004-13.247,0.006-19.869    c0.002-5.525,0.556-11.373-0.057-16.856c-1.199-10.713-0.964-21.877-0.671-32.734c0.134-4.981,0.753-10.196,1.273-15.116    c0.628-5.941,6.264-9.456,11.627-10.787c2.671,0.715,5.216,0.042,7.28-3.093c2.177-3.307,4.144-10.9,2.041-14.634    c-1.285-2.283-4.171-3.027-6.577-3.364c-1.303-0.182-2.472,0.069-3.176-1.286c-0.519-0.999-0.243-2.048,0.674-2.699    c1.432-1.017,3.747-0.297,5.383-0.922c3.81-1.458,6.799-7.341,4.947-11.207c-2.17-4.527-10.864-2.617-14.826-2.673    c-1.298-0.018-2.598-0.051-3.898-0.084c3.706-4.784,4-13.016,1.82-18.242c-0.347-0.833-1.152-1.271-2.013-0.819    c-0.318,0.167-0.6,0.372-0.874,0.587c0.378-1.797,0.41-3.647-0.068-5.444c-0.519-1.953-1.636-3.786-2.548-5.559    c-2.454-4.765-3.234-8.04-0.179-12.953c0.545-0.876-0.147-2.316-1.262-2.2c-2.988,0.311-6.2,2.842-8.01,5.867    c-0.733-6.098-4.628-11.708-10.489-14.543c-0.818-0.396-1.813,0.077-1.826,1.048c-0.045,3.369-0.338,6.814-0.811,10.158    c-0.578,4.078-2.803,7.433-3.388,11.416c-0.232,1.578-0.209,3.353,0.077,5.095c-0.632-0.517-1.326-1.026-2.095-1.535    c-0.88-0.584-1.886,0.206-1.954,1.121c-0.508,6.803-6.79,12.648-6.029,19.565c0.182,1.66,1.289,4.4,2.871,6.352    c-2.454,0.053-4.909,0.136-7.357,0.17c-3.962,0.056-12.656-1.852-14.826,2.673c-1.854,3.867,1.137,9.75,4.947,11.207    c1.637,0.626,3.952-0.094,5.383,0.922c0.917,0.652,1.193,1.7,0.674,2.699c-0.703,1.355-1.872,1.104-3.176,1.286    c-2.406,0.336-5.292,1.081-6.577,3.364c-2.104,3.734-0.136,11.327,2.041,14.634c2.064,3.135,4.609,3.808,7.28,3.093    c5.363,1.33,10.999,4.845,11.627,10.787c0.52,4.921,1.138,10.136,1.273,15.116c0.292,10.857,0.528,22.021-0.671,32.734    c-0.613,5.483-0.059,11.331-0.057,16.856c0.002,6.622-0.059,13.247,0.006,19.869c0.053,5.234,0.506,10.465-0.222,15.667    c-0.764,5.462,0.001,10.787-0.524,16.224c-0.522,5.409-0.541,10.669-0.783,16.111c-0.233,5.248-1.298,10.522-1.672,15.787    c-0.775,10.89-1.691,21.808-2.236,32.706c-1.076,21.488-2.274,43.098-3.739,64.524c-0.19,2.782,0.15,5.626,0.14,8.416    c-0.01,2.981-0.724,5.823-0.848,8.776c-0.219,5.264-0.722,10.437-0.727,15.735c-0.005,6.465,0.109,12.786-0.644,19.18    c-0.352,2.985-0.113,6.116-0.119,9.122c-0.004,2.858,0.902,7.595-0.227,10.174c-0.157,0.36-0.234,0.712-0.28,1.059    c-1.239-0.001-2.555,0.028-3.821,0.16c-1.492-0.069-2.983-0.112-4.477,0c-1.831,0.138-3.47,0.539-5.305,0.412    c-2.114-0.146-4.068-0.626-6.2-0.634c-3.996-0.015-7.936,0.901-11.841,0.33c-4.104-0.6-8.366-0.475-12.5-0.198    c-8.92,0.594-17.754,0.299-26.688,0.206c-5.859-0.06-10.409,0.53-10.407,7.386c0.001,4.929-2.898,15.121,2.339,18.342    c2.051,1.261,5.011,1.108,7.314,1.63c1.276,0.289,2.521,0.569,3.76,0.817c6.299,2.05,12.469,4.054,17.417,9.319    c4.02,4.277,6.428,11.261,7.475,16.942c0.178,0.965,0.419,1.831,0.714,2.63c-0.276-0.039-0.553-0.083-0.83-0.118    c-7.693-0.982-15.501,0.618-23.177,0.566c-7.572-0.051-14.992-0.099-22.495,0.64c-4.829,0.476-10.181-0.981-12.216,4.763    c-1.077,3.04-0.422,6.499-0.792,9.636c-0.421,3.556-0.49,6.196,0.549,9.697c1.613,5.434,8.254,6.539,13.34,6.454    c3.446-0.057,6.783,0.683,10.222,0.738c4.794,0.077,9.602-0.015,14.398-0.005c8.248,0.018,16.369-0.712,24.577-0.761    c4.349-0.026,8.595-0.864,12.939-0.865c5.239-0.002,10.356-0.249,15.588-0.545c5.055-0.285,10.248-0.48,15.31-0.274    c4.228,0.172,6.868,0.601,10.484-0.601c3.637,0.156,7.271,0.328,10.926,0.346c5.154,0.027,10.323,0.15,15.483,0.135    c2.767,0.568,5.179,0.261,8.668,0.12c5.061-0.205,10.255-0.011,15.31,0.274c5.233,0.295,10.349,0.542,15.588,0.545    c4.344,0.002,8.59,0.84,12.939,0.865c8.208,0.047,16.33,0.779,24.577,0.761c4.796-0.011,9.603,0.082,14.398,0.005    c3.439-0.055,6.775-0.795,10.222-0.738c5.086,0.085,11.727-1.02,13.34-6.454C386.194,501.279,386.125,498.638,385.704,495.082z     M242.711,38.889c1.376-3.133,1.992-5.879,2.247-8.972c2.923,2.695,3.104,6.19,4.583,10.154c0.198,0.535,1.158,0.708,1.268,0    c0.37-2.38,0.347-4.351-0.069-6.07c0.081-0.165,0.113-0.356,0.072-0.556c-0.474-2.256-1.11-4.898-1.212-7.209    c-0.156-3.579,2.034-6.343,3.091-9.594c1.401-4.312,1.576-8.693,0.891-13.045c6.475,4.593,8.755,14.126,6.268,21.704    c-0.159,0.483,0.557,0.766,0.809,0.341c1.079-1.82,1.774-3.724,2.141-5.646c1.183-2.118,3.125-4.692,5.24-6.44    c-1.062,3.31-1.057,6.451,0.72,10.177c1.625,3.407,3.691,6.075,3.212,10.163c-0.302,2.576-1.145,5.086-1.461,7.683    c-0.094,0.778,0.96,0.849,1.319,0.357c0.624-0.851,1.2-1.774,1.698-2.745c0.004-0.002,0.01-0.001,0.014-0.004    c0.843-0.374,1.53-0.944,2.241-1.479c0.682,3.285,0.411,7.514-0.488,10.343c-0.632,1.993-2.07,3.558-3.097,5.304    c-3.326-0.063-6.653-0.059-9.963,0.215c-2.66-0.151-5.543,0.278-8.122,0.526c-0.173-0.035-0.346-0.064-0.52-0.091    c-3.148-0.492-6.318-0.654-9.495-0.682c-0.737-1.152-1.696-2.138-2.335-3.348C239.602,45.894,241.033,42.709,242.711,38.889z     M228.291,64.063c-0.984-0.241-8.81-2.861-6.237-4.537c1.569-1.021,3.107-0.608,4.891-0.586c3.024,0.039,6.048,0.104,9.072,0.128    c4.612,0.037,9.175-0.563,13.757-0.583c1.821-0.008,3.336,0.375,4.602-0.172c1.286,0.068,2.695,0.19,4.127,0.24    c0.614,0.09,1.282,0.055,2.003,0.006c0.32-0.012,0.639-0.029,0.955-0.056c0.25-0.012,0.506-0.019,0.769-0.018    c4.582,0.019,9.143,0.62,13.757,0.583c3.024-0.024,6.048-0.09,9.072-0.128c1.782-0.023,3.322-0.435,4.891,0.586    c2.574,1.677-5.253,4.296-6.237,4.537c-3.474,0.849-7.062,1.082-10.629,1.072c-1.315-0.004-2.546-0.429-3.838-0.4    c-1.421,0.032-2.833,0.268-4.256,0.372c-4.409-1.152-9.574-0.334-14.003-0.234c-3.381,0.077-6.964-0.732-10.253,0.067    c-0.597,0.097-1.195,0.194-1.815,0.195C235.354,65.146,231.765,64.913,228.291,64.063z M281.206,67.903    c-0.024,1.518-0.506,2.801-0.389,4.189c-1.324,0.043-2.527,0.115-3.462,0.154c-5.59,0.234-10.887-0.997-16.304,0.016    c-2.161,0.045-4.257,0.185-6.016,0.225c-0.969,0.023-2.051-0.009-3.189-0.043c-5.73-1.34-11.3,0.049-17.196-0.198    c-0.935-0.039-2.139-0.112-3.462-0.154c0.117-1.388-0.365-2.671-0.389-4.189c0.01,0.57,8.402,0.625,9.115,0.646    c3.041,0.091,6.358,1.052,9.43,0.64c2.541,0.505,5.204,0.504,7.777,0.597c2.543,0.093,5.334,0.098,7.83-0.507    c2.388-0.097,4.842-0.661,7.14-0.729C272.804,68.528,281.196,68.473,281.206,67.903z M228.768,87.495    c-0.775,0.233-1.373,0.712-2.169,0.487c-0.671-0.19-1.23-0.932-1.559-1.501c-0.735-1.263-0.86-2.822-1.079-4.236    c-0.086-0.555-0.657-2.963,0.058-3.562c1.329-1.116,5.597-0.851,7.197-0.914c5.762-0.225,11.756,0.066,17.491-0.95    c2.108,0.082,4.216,0.137,6.325,0.183c3.913,0.086,8.858,1.119,13.041,0.396c4.233,0.315,8.533,0.207,12.709,0.371    c1.6,0.063,5.868-0.202,7.197,0.914c0.715,0.6,0.143,3.008,0.058,3.562c-0.218,1.414-0.344,2.972-1.078,4.236    c-0.33,0.569-0.889,1.31-1.56,1.501c-0.794,0.225-1.394-0.254-2.169-0.487c-3.792-1.14-7.846-1-11.749-1.395    c-1.922-0.194-3.856-0.428-5.777-0.562c-3.411-1.127-8.181-0.296-11.341-0.125c-0.796,0.043-1.554,0.112-2.312,0.183    c-3.759-0.437-7.674,0.113-11.537,0.504C236.614,86.495,232.561,86.355,228.768,87.495z M235.997,410.15    c-0.009-5.83,0.812-11.448,0.723-17.27c-0.083-5.438-0.524-11.124-0.063-16.546c0.49-5.744,1.481-11.475,1.515-17.258    c0.066-11.211,0.886-22.342,1.259-33.59c0.198-5.975,0.443-11.942,0.643-17.91c0.205-6.142,0.265-12.551,0.966-18.649    c0.557-4.851,0.531-9.665,1.136-14.512c0.784-6.283,1.206-12.921,1.184-19.238c-0.019-5.632,1.239-11.18,1.537-16.781    c0.316-5.935,0.247-11.81,0.646-17.734c0.201-2.96-0.235-5.946-0.247-8.903c-0.012-2.945,0.604-5.707,0.891-8.621    c0.597-6.054,0.013-12.24,0.016-18.314c0.002-5.98,0.004-11.961,0.006-17.942c0.002-6.311,0.224-12.311,0.84-18.525    c0.664-6.7-0.122-13.93-0.128-20.674c-0.006-6.53-0.179-12.713-1.215-19.161c-0.947-5.893-0.942-10.032-5.481-14.569    c-0.767-0.767-1.597-1.452-2.46-2.081c0.281-0.028,0.568-0.054,0.844-0.084c5.644-0.622,11.269-0.494,16.647-2.247    c0.453-0.014,0.905-0.027,1.355-0.042c5.419,1.801,11.091,1.663,16.782,2.289c0.276,0.03,0.563,0.055,0.844,0.084    c-0.863,0.629-1.693,1.315-2.46,2.081c-4.54,4.537-4.534,8.676-5.481,14.569c-1.036,6.447-1.209,12.63-1.215,19.161    c-0.006,6.744-0.792,13.975-0.128,20.674c0.615,6.213,0.838,12.214,0.84,18.525c0.002,5.98,0.004,11.961,0.006,17.942    c0.002,6.074-0.58,12.26,0.016,18.314c0.287,2.914,0.903,5.676,0.891,8.621c-0.011,2.957-0.447,5.942-0.247,8.903    c0.399,5.924,0.33,11.8,0.646,17.734c0.299,5.6,1.557,11.149,1.537,16.781c-0.022,6.318,0.399,12.955,1.183,19.238    c0.605,4.847,0.58,9.661,1.136,14.512c0.699,6.099,0.761,12.507,0.966,18.649c0.2,5.968,0.446,11.934,0.643,17.91    c0.372,11.247,1.193,22.379,1.259,33.59c0.033,5.783,1.026,11.514,1.515,17.258c0.463,5.421,0.022,11.107-0.063,16.546    c-0.09,5.822,0.732,11.439,0.723,17.27c-0.006,4.202-0.572,8.479,0.438,12.514c-7.472-0.031-14.919-0.248-22.391-0.465    c-6.138-0.177-12.256-0.188-18.389-0.043C236.508,418.271,236.003,414.177,235.997,410.15z M155.346,443.211    c-1.763-0.245-2.071,0.219-2.812-1.704c-0.799-2.076,0.537-6.026,0.824-8.102c0.434-3.138,2.908-4.038,5.741-4.09    c5.009-0.093,10.019-0.135,15.029-0.19c4.596-0.051,9.136-0.641,13.724-0.786c4.108-0.131,8.128,0.808,12.171,0.606    c4.924-0.247,8.982-0.648,13.943-0.15c3.739,0.375,7.581-0.59,11.379-0.545c4.563,0.055,9.115-0.483,13.626-1.102    c5.605,0.187,11.211,0.362,16.815,0.509c7.314,0.191,14.609,0.275,21.922,0.413c2.87,0.054,5.823,0.326,8.71,0.176    c0.08,0,0.159,0.003,0.238,0.002c3.798-0.045,7.64,0.92,11.379,0.545c4.962-0.498,9.019-0.096,13.943,0.15    c4.043,0.203,8.062-0.736,12.171-0.606c4.588,0.146,9.128,0.736,13.724,0.786c5.009,0.055,10.019,0.098,15.029,0.19    c2.833,0.052,5.307,0.952,5.742,4.09c0.287,2.077,1.624,6.027,0.824,8.102c-0.741,1.923-1.049,1.459-2.813,1.704    c-5.067,0.703-9.646,1.878-14.802,1.776c-8.794-0.174-17.467,1.313-26.334,0.561c-9.176-0.778-18.437,0.005-27.622-0.596    c-6.792-0.444-13.606-1.174-20.4-0.579c-3.984-0.052-7.972-0.077-11.933-0.036c-3.477,0.037-6.947,0.062-10.415,0.093    c-7.008-0.701-14.038,0.064-21.046,0.522c-9.184,0.601-18.445-0.182-27.621,0.596c-8.867,0.752-17.54-0.736-26.334-0.561    C164.992,445.089,160.413,443.914,155.346,443.211z M175.84,451.592c6.256,0.248,12.514,0.799,18.825,0.313    c9.148-0.705,18.336-0.907,27.507-1.196c4.604-0.146,9.071-1.088,13.697-1.217c1.445-0.04,2.862-0.174,4.267-0.362    c5.411,0.076,10.825,0.105,16.238,0.146c8.959,0.068,18.397,1.272,27.54,0.927c1.962,0.231,3.927,0.443,5.915,0.506    c9.17,0.289,18.359,0.492,27.507,1.196c6.313,0.487,12.569-0.065,18.825-0.313c-8.212,5.138-12.542,13.737-15.336,22.722    c-1.159,3.724-1.46,4.199-5.253,4.926c-2.773,0.531-5.398,0.632-8.185,0.89c-2.59,0.24-5.181,0.603-7.769,0.894    c-3.202,0.359-6.277-0.287-9.494-0.314c-1.669-0.014-3.342,0-5.014,0.001c-4.083-0.544-8.451,0.117-12.495,0.117    c-6.943,0-13.885,0.057-20.827,0.088c-2.009,0.009-4.014,0.074-6.019,0.156c-1.732-0.163-3.516-0.151-5.208-0.195    c-6.223-0.162-12.463-0.218-18.688-0.166c-3.217,0.027-6.292,0.673-9.494,0.314c-2.587-0.291-5.177-0.654-7.769-0.894    c-2.788-0.258-5.413-0.359-8.185-0.89c-3.793-0.726-4.094-1.202-5.253-4.926C188.381,465.329,184.052,456.73,175.84,451.592z     M373.343,504.796c-17.185,1.283-34.384,0.088-51.573-0.086c-9.166-0.093-18.495-0.741-27.677-1.179    c-4.717-0.225-9.585-0.348-14.305-0.136c-0.878,0.04-1.748,0.168-2.614,0.314c-0.018,0.001-0.037,0.001-0.055,0.002    c-7.206,0.278-14.45,0.122-21.661,0.159c-6.964,0.037-14.179-0.468-21.275-0.27c-0.653-0.097-1.308-0.176-1.968-0.205    c-4.719-0.213-9.588-0.089-14.305,0.136c-9.182,0.438-18.511,1.086-27.677,1.179c-17.19,0.175-34.388,1.369-51.573,0.086    c-5.61-0.419-7.081-3.052-6.588-8.496c0.427-4.715-1.39-8.267,4.453-9.081c2.857-0.398,5.722-0.756,8.574-1.193    c2.517-0.386,4.497,0.42,6.972,0.289c2.137-0.113,4.223-0.678,6.386-0.764c3.654-0.146,7.278,0.156,10.912-0.33    c4.978-0.667,10.751-1.102,15.764-0.341c3.078,0.466,6.18,0.805,9.283,0.947c4.121,0.905,8.387,1.14,12.56,1.586    c6.165,0.658,11.805,0.256,17.979,0.288c6.541,0.033,13.15,0.175,19.679-0.297c2.574-0.186,5.216-0.289,7.468-1.308    c2.625,0.012,5.251,0.021,7.876,0.035c2.236,0.987,4.848,1.09,7.395,1.274c6.527,0.471,13.137,0.33,19.679,0.297    c6.174-0.031,11.815,0.371,17.979-0.288c4.172-0.446,8.439-0.68,12.56-1.586c3.102-0.142,6.203-0.481,9.281-0.947    c5.014-0.76,10.787-0.326,15.764,0.341c3.634,0.487,7.258,0.184,10.912,0.33c2.162,0.086,4.249,0.651,6.385,0.764    c2.475,0.131,4.455-0.675,6.973-0.289c2.85,0.437,5.716,0.796,8.573,1.193c5.843,0.813,4.025,4.366,4.453,9.081    C380.423,501.744,378.953,504.378,373.343,504.796z"/>
	</g>
</g>
<g>
</g>
<g>
</g>
<g>
</g>
<g>
</g>
<g>
</g>
<g>
</g>
<g>
</g>
<g>
</g>
<g>
</g>
<g>
</g>
<g>
</g>
<g>
</g>
<g>
</g>
<g>
</g>
<g>
</g>
</svg>
