<?xml version="1.0" encoding="iso-8859-1"?>
<!-- Generator: Adobe Illustrator 19.0.0, SVG Export Plug-In . SVG Version: 6.00 Build 0)  -->
<svg xmlns="http://www.w3.org/2000/svg" xmlns:xlink="http://www.w3.org/1999/xlink" version="1.1" id="Layer_1" x="0px" y="0px" viewBox="0 0 512.002 512.002" style="enable-background:new 0 0 512.002 512.002;" xml:space="preserve">
<g>
	<g>
		<path d="M508.245,408.751c-1.592-0.815-3.834-1.09-5.968-1.224c1.691-4.86,0.29-11.989,0.388-16.574    c0.081-3.754-0.291-6.857-0.856-10.488c-0.628-4.034,0.036-8.235-0.035-12.298c-0.135-7.774-0.889-16.079-2.323-23.814    c0.809-0.288,1.58-0.663,2.283-1.178c5.018-3.68,4.372-14.864,2.591-19.959c-1.51-4.316-5.349-4.363-9.275-4.21    c0.866-7.211,0.811-14.388,0.998-21.652c0.206-8.047,1.224-15.809,0.538-23.886c-0.677-7.989-0.349-16.095-0.249-24.117    c0.082-6.637-0.218-12.783-0.786-19.311c-0.566-6.5,1.4-12.94,1.277-19.397c-0.13-6.847-1.425-13.686-1.641-20.536    c-0.261-8.219,0.135-16.104-3.772-22.399c0.449,0.044,0.897,0.094,1.349,0.097c9.283,0.07,10.524-12.803,11.358-19.545    c1.054-8.526-4.315-11.065-11.75-12.417c-10.762-1.957-21.029-7.085-31.58-10.045c-21.564-6.048-42.891-12.48-64.542-17.823    c-22.221-5.485-44.688-10.607-67.404-14.293c-11.12-1.804-22.121-3.857-33.309-5.191c-6.959-0.831-13.987-2.256-20.83-3.753    c-2.569-0.561-4.963-1.071-7.598-1.21c-1.008-0.053-2.052,0.083-3.082,0.187c-4.183-0.233-8.42-0.027-12.751,0.378    c-0.301-0.212-0.676-0.331-1.123-0.297c-1.684,0.128-3.528-0.358-5.26-0.268c-2.634,0.138-5.029,0.648-7.597,1.21    c-6.843,1.496-13.871,2.922-20.83,3.753c-11.188,1.336-22.189,3.388-33.309,5.191c-22.716,3.686-45.184,8.808-67.404,14.293    c-21.652,5.345-42.978,11.776-64.542,17.823c-10.552,2.959-20.819,8.088-31.58,10.045c-7.435,1.352-12.804,3.891-11.75,12.417    c0.834,6.742,2.075,19.615,11.358,19.545c0.452-0.003,0.9-0.053,1.349-0.097c-3.907,6.296-3.512,14.181-3.772,22.399    c-0.216,6.85-1.511,13.69-1.642,20.536c-0.123,6.458,1.844,12.896,1.277,19.397c-0.569,6.53-0.868,12.674-0.786,19.311    c0.099,8.022,0.428,16.126-0.249,24.117c-0.685,8.076,0.331,15.838,0.538,23.886c0.186,7.264,0.132,14.44,0.998,21.652    c-3.924-0.153-7.765-0.106-9.275,4.21c-1.783,5.095-2.427,16.279,2.591,19.959c0.702,0.515,1.473,0.889,2.282,1.178    c-1.434,7.734-2.189,16.04-2.323,23.814c-0.07,4.063,0.593,8.263-0.035,12.298c-0.565,3.631-0.937,6.734-0.856,10.488    c0.099,4.585-1.302,11.714,0.39,16.574c-2.134,0.135-4.376,0.408-5.968,1.224c-4.099,2.101-4.24,8.244-3.237,12.238    c1.736,6.909,7.394,5.954,13.137,6.718c7.63,1.015,16.555,1.006,24.193,0.154c5.08-0.566,10.137-0.329,15.201-0.861    c2.908-0.306,7.276,0.102,10.008-1.018c4.49-1.84,6.064-7.862,4.816-12.258c-1.33-4.681-5.002-5.789-9.043-6.023    c0.953-1.909,1.424-4.194,1.603-6.696c0.605-8.494,1.468-17.701,0.818-26.202c-0.737-9.628-0.455-19.152-0.807-28.796    c2.316-0.764,4.256-2.253,5.243-4.966c1.081-2.968,0.427-6.26,0.469-9.332c0.043-3.136,0.711-6.693-1.167-9.496    c-0.979-1.462-2.448-2.372-4.157-2.944c0.698-2.852,1.252-5.701,2.024-8.54c1.221-4.493,3.411-8.691,5.03-13.047    c3.126-8.409,7.791-15.986,11.081-24.255c3.161-7.94,7.69-14.97,12.636-21.966c5.101-7.215,9.028-15.261,14.904-21.957    c11.297-12.874,22.922-27.091,37.409-36.454c3.312-2.141,6.06-5.016,9.418-7.055c3.859-2.343,7.727-4.788,11.68-7.003    c3.615-2.026,7.243-4.427,11.156-5.794c4.04-1.411,7.645-3.699,11.621-5.115c10.139-3.611,20.169-6.397,30.716-8.568    c5.348-1.101,10.565-1.975,15.987-2.621c2.64-0.315,5.218-0.346,7.868-0.473c0.735-0.035,1.543-0.14,2.37-0.237    c11.111-1.295,21.798-0.601,32.779,0.71c5.422,0.648,10.638,1.521,15.987,2.621c10.546,2.171,20.576,4.956,30.716,8.568    c3.976,1.417,7.58,3.705,11.621,5.115c3.913,1.366,7.54,3.767,11.156,5.794c3.953,2.215,7.821,4.66,11.68,7.003    c3.357,2.039,6.106,4.914,9.418,7.055c14.486,9.363,26.111,23.58,37.409,36.454c5.876,6.697,9.803,14.742,14.904,21.957    c4.946,6.995,9.476,14.025,12.636,21.966c3.29,8.269,7.955,15.845,11.081,24.255c1.619,4.355,3.809,8.553,5.03,13.047    c0.772,2.839,1.326,5.689,2.024,8.54c-1.709,0.573-3.178,1.483-4.157,2.944c-1.877,2.803-1.211,6.36-1.167,9.496    c0.042,3.072-0.612,6.365,0.468,9.332c0.987,2.713,2.928,4.202,5.243,4.966c-0.352,9.645-0.07,19.167-0.806,28.796    c-0.652,8.502,0.213,17.709,0.816,26.202c0.178,2.503,0.649,4.788,1.603,6.696c-4.041,0.234-7.713,1.343-9.043,6.023    c-1.248,4.395,0.325,10.418,4.816,12.258c2.733,1.119,7.1,0.711,10.008,1.018c5.064,0.532,10.12,0.295,15.201,0.861    c7.636,0.852,16.562,0.861,24.193-0.154c5.743-0.764,11.402,0.191,13.139-6.718C512.486,416.995,512.344,410.852,508.245,408.751z     M19.239,161.898c-1.345-0.461-2.846-3.112-3.385-4.34c-1.385-3.156-3.088-12.65,0.216-14.363c2.958-1.534,6.98-1.057,10.1-2.062    c5.624-1.812,11.12-4.19,16.738-6.077c9.466-3.179,19.304-5.871,28.938-8.561c37.917-10.589,76.163-20.475,115.28-26.317    c11.188-1.672,22.387-3.354,33.557-5.088c6.489-1.007,13.201-1.952,19.527-3.705c1.896-0.525,4.154-0.834,6.27-1.419    c5.108-0.405,10.219-0.64,15.353-0.606c0.705,0.005,1.414,0.041,2.123,0.092c2.52,0.954,5.463,1.274,7.842,1.934    c6.326,1.752,13.038,2.696,19.527,3.705c11.169,1.735,22.368,3.417,33.557,5.088c39.115,5.842,77.362,15.728,115.28,26.317    c9.633,2.69,19.473,5.382,28.937,8.561c5.618,1.887,11.114,4.265,16.738,6.077c3.12,1.005,7.141,0.529,10.1,2.062    c3.306,1.714,1.601,11.207,0.216,14.363c-0.539,1.228-2.04,3.879-3.385,4.34c-1.97,0.676-5.901-1.482-7.649-2.197    c-4.088-1.673-8.199-3.319-12.371-4.762c-2.752-0.952-5.184-2.307-7.981-2.251c-4.832-1.475-9.717-2.759-14.436-4.144    c-5.662-1.661-11.294-3.579-16.813-5.608c-6.358-2.337-13.073-3.368-19.568-5.19c-12.685-3.56-25.759-5.409-38.471-8.743    c-12.911-3.385-26.054-5.726-39.196-7.906c-3.623-0.601-7.226-0.322-10.876-0.85c-2.847-0.413-5.611-1.191-8.442-1.605    c-5.882-0.862-11.941-0.853-17.881-1.515c-2.558-0.285-5.114-0.584-7.669-0.877c-13.401-3.523-27.487-4.803-41.236-2.985    c-4.473,0.592-8.963,0.988-13.444,1.394c-7.952,0.576-15.866,1.583-23.808,2.468c-5.94,0.662-11.999,0.652-17.881,1.515    c-2.831,0.415-5.595,1.193-8.442,1.605c-3.651,0.529-7.254,0.249-10.876,0.85c-13.142,2.179-26.285,4.521-39.196,7.906    c-12.712,3.334-25.786,5.183-38.471,8.743c-6.496,1.822-13.211,2.854-19.569,5.19c-5.519,2.028-11.151,3.947-16.813,5.608    c-4.72,1.385-9.605,2.669-14.436,4.144c-2.798-0.057-5.23,1.298-7.981,2.251c-4.172,1.443-8.283,3.089-12.371,4.762    C25.141,160.416,21.209,162.574,19.239,161.898z M20.474,281.804c0.033-6.457,0.804-12.823,0.829-19.293    c0.027-6.82,0.144-13.638,0.211-20.458c0.049-5.054,1.288-9.868,1.146-14.89c-0.174-6.187-1.427-12.561-0.943-18.705    c0.509-6.464,1.503-12.939,1.679-19.425c0.185-6.806-0.842-15.909,5.073-20.63c9.553-7.624,23.505-10.162,34.952-13.533    c10.928-3.218,21.44-7.214,32.573-9.774c12.523-2.881,24.877-6.034,37.52-8.44c12.861-2.448,25.392-6.152,38.395-7.881    c13.105-1.742,26.264-3.169,39.424-4.694c6.498-0.753,12.838-2.736,19.338-3.321c2.221-0.2,4.419-0.491,6.596-0.878    c3.984-0.223,7.978-0.446,11.96-0.925c6.415-0.772,12.774-0.778,19.119-0.519c4.246,1.169,8.572,1.925,12.989,2.323    c6.5,0.585,12.839,2.568,19.338,3.321c13.16,1.525,26.319,2.952,39.424,4.694c13.002,1.728,25.532,5.432,38.395,7.881    c12.643,2.406,24.996,5.559,37.52,8.44c11.133,2.561,21.645,6.556,32.573,9.774c11.448,3.371,25.399,5.908,34.952,13.533    c5.917,4.721,4.888,13.824,5.073,20.63c0.175,6.486,1.171,12.962,1.68,19.425c0.484,6.145-0.768,12.519-0.943,18.705    c-0.142,5.022,1.097,9.835,1.146,14.89c0.066,6.82,0.182,13.638,0.211,20.458c0.026,6.47,0.795,12.836,0.829,19.293    c0.064,12.516-1.172,24.794,0.347,37.288c-0.64-0.006-1.267-0.036-1.867-0.113c-3.089-0.398-6.165-0.485-9.238-0.677    c0.177-3.83-0.957-13.693-1.087-14.469c-1.121-6.687-2.951-13.666-5.415-19.982c-3.521-9.025-6.218-18.98-11.349-27.222    c-2.878-4.624-5.104-9.598-7.878-14.326c-2.628-4.475-5.786-8.602-8.421-13.078c-5.526-9.385-12.808-18.226-20.279-26.127    c-14.395-15.223-30.646-28.497-47.751-40.493c-3.472-2.435-7.134-4.176-10.648-6.377c-3.791-2.376-7.361-5.113-11.278-7.266    c-8.69-4.782-17.91-8.77-27.146-12.351c-10.937-4.242-22.058-7.545-33.323-10.777c-4.976-1.427-10.425-1.958-15.556-2.735    c-3.665-0.555-7.484-1.126-11.214-1.012c-17.839,0.546-36.177-1.256-53.617,3.747c-11.263,3.232-22.385,6.534-33.323,10.777    c-9.235,3.582-18.456,7.571-27.146,12.351c-3.916,2.155-7.485,4.892-11.278,7.266c-3.514,2.201-7.176,3.942-10.648,6.378    c-17.105,11.996-33.357,25.27-47.751,40.493c-7.472,7.902-14.754,16.743-20.28,26.128c-2.634,4.475-5.793,8.603-8.42,13.078    c-2.776,4.727-5.002,9.702-7.879,14.326c-5.129,8.242-7.827,18.198-11.348,27.222c-2.464,6.317-4.294,13.295-5.415,19.982    c-0.13,0.776-1.263,10.639-1.087,14.469c-3.073,0.192-6.148,0.281-9.238,0.677c-0.6,0.077-1.227,0.106-1.867,0.113    C21.648,306.598,20.41,294.32,20.474,281.804z M59.123,413.113c3.583,1.007,5.784,6.372,0.972,7.878    c-1.141,0.357-3.951-0.04-5.143,0.076c-2.831,0.276-5.397,0.623-8.247,0.65c-4.87,0.047-9.614,0.973-14.46,1.021    c-4.629,0.047-9.412-0.089-14.039-0.262c-3.317-0.124-11.269,0.17-12.508-3.74c-0.442-1.398-0.312-4.452,0.766-5.375    c0.549-0.47,3.251-0.232,4.22-0.379c1.386-0.211,2.938-0.391,4.488-0.653c0.891,0.138,1.849,0.193,2.897,0.305    c3.906,0.42,7.93,0.556,11.837,1.028c5.077,0.614,10.384,0.842,15.573,0.335c0.51,0.067,1.019,0.11,1.528,0.084    c1.872-0.098,3.547-0.95,5.398-1.153C54.265,412.725,57.324,412.607,59.123,413.113z M15.684,381.267    c0.66-6.091-0.378-12.221,0.235-18.336c0.609-6.079,0.364-11.967-0.63-17.914c1.831,0.281,3.723,0.34,5.451,0.552    c3.033,0.372,5.473-0.096,8.039-0.841c7.526,0.822,14.934,0.729,22.479,1.684c1.069,0.136,2.201,0.24,3.347,0.277    c-0.419,14.043,1.493,28,0.586,41.99c-0.233,3.594-0.359,7.206-0.601,10.794c-0.308,4.54-1.863,7.313-6.389,8.014    c-7.338,1.136-14.182,0.184-21.503,0.034c-2.683-0.055-5.535-0.088-8.134-0.873c-1.371-0.415-2.682-0.082-3.36-2.011    c-0.366-1.042,0.048-3.99,0.05-5.065C15.264,393.364,15.019,387.413,15.684,381.267z M59.903,333.854    c0.07,4.569-1.138,6.79-6.005,6.616c-5.637-0.202-11.038-1-16.699-0.924c-6.282,0.084-13.304-1.036-19.496-1.929    c-3.659-0.528-4.273-0.6-4.557-4.784c-0.115-1.69-0.059-3.376-0.007-5.057c0.601-3.357,2.549-2.251,6.184-2.3    c6.458-0.085,13.01-1.694,19.453-1.586c3.335,0.056,6.534,1.031,9.991,0.928c2.549-0.076,7.449-0.822,9.722,0.601    C60.927,326.949,59.861,331.146,59.903,333.854z M449.117,291.7c-1.724-4.784-3.889-9.426-6.202-13.953    c-2.307-4.513-3.951-9.459-6.501-13.792c-9.347-15.889-19.048-32.353-31.949-45.673c-3.576-3.693-6.579-7.829-10.039-11.617    c-3.048-3.336-6.651-6.062-9.887-9.198c-2.963-2.872-6.162-5.814-9.457-8.291c-3.722-2.799-7.651-5.848-11.555-8.408    c-15.548-10.198-32.296-17.985-49.945-23.673c-9.642-3.108-20.114-5.43-30.187-6.546c-2.71-0.299-5.323-0.535-7.94-0.68    c-6.623-1.597-13.991-0.799-20.623-0.67c-5.169,0.101-11.388-0.502-16.856,0.613c-3.099,0.13-6.166,0.383-9.367,0.737    c-10.072,1.115-20.544,3.438-30.187,6.546c-17.648,5.689-34.396,13.476-49.945,23.673c-3.904,2.561-7.833,5.609-11.555,8.408    c-3.295,2.478-6.496,5.419-9.457,8.291c-3.236,3.136-6.84,5.86-9.887,9.198c-3.46,3.788-6.463,7.924-10.039,11.617    c-12.902,13.321-22.603,29.785-31.949,45.673c-2.55,4.334-4.195,9.281-6.501,13.792c-2.313,4.526-4.479,9.167-6.202,13.953    c-3.253,9.033-7.332,17.206-6.842,26.742c-3.315-0.188-6.773,0.15-9.264,0.122c-3.747-0.042-7.037-1.198-10.792-0.696    c-0.498,0.067-0.998,0.122-1.496,0.173c0.663-3.679,0.545-7.7,1.144-11.306c0.889-5.357,2.32-10.571,3.829-15.787    c2.758-9.526,6.673-19.123,11.147-27.872c9.326-18.243,19.582-35.956,32.966-51.672c13.112-15.397,29.505-29.975,46.363-41.107    c6.71-4.431,13.414-8.35,20.209-12.543c8.6-5.307,17.509-10.072,27.017-13.639c11.406-4.279,22.502-8.462,34.239-11.784    c7.296-2.065,14.754-3.548,22.272-4.568c1.982-0.097,3.965-0.239,5.949-0.408c2.754-0.104,5.513-0.118,8.221-0.075    c6.172,0.098,12.344,0.126,18.515,0.228c3.102,0.051,6.409,0.605,9.6,0.48c1.841,0.319,3.708,0.506,5.328,0.22    c6.514,0.994,12.975,2.329,19.311,4.122c11.736,3.322,22.832,7.504,34.239,11.784c9.508,3.567,18.417,8.332,27.017,13.639    c6.795,4.194,13.5,8.112,20.209,12.543c16.858,11.133,33.252,25.711,46.363,41.107c13.384,15.717,23.639,33.429,32.967,51.672    c4.472,8.749,8.388,18.345,11.147,27.872c1.51,5.215,2.94,10.428,3.829,15.787c0.599,3.605,0.48,7.627,1.143,11.306    c-0.498-0.051-0.997-0.106-1.496-0.173c-3.755-0.501-7.044,0.654-10.792,0.696c-2.492,0.028-5.949-0.311-9.264-0.122    C456.449,308.906,452.37,300.732,449.117,291.7z M452.1,333.854c0.042-2.708-1.024-6.905,1.415-8.434    c2.273-1.424,7.173-0.678,9.722-0.601c3.457,0.103,6.656-0.871,9.99-0.928c6.444-0.108,12.995,1.5,19.453,1.586    c3.636,0.049,5.583-1.057,6.184,2.3c0.052,1.681,0.108,3.367-0.007,5.057c-0.284,4.184-0.898,4.257-4.557,4.784    c-6.193,0.893-13.215,2.013-19.496,1.929c-5.662-0.076-11.062,0.722-16.699,0.924C453.238,340.645,452.028,338.423,452.1,333.854z     M457.398,346.691c1.145-0.037,2.278-0.142,3.347-0.277c7.545-0.956,14.953-0.861,22.479-1.684    c2.565,0.745,5.005,1.213,8.039,0.841c1.728-0.212,3.62-0.273,5.451-0.552c-0.994,5.947-1.24,11.834-0.63,17.914    c0.613,6.113-0.423,12.245,0.236,18.336c0.666,6.146,0.42,12.098,0.432,18.308c0.002,1.075,0.416,4.023,0.05,5.065    c-0.677,1.929-1.989,1.597-3.36,2.011c-2.599,0.786-5.451,0.818-8.134,0.873c-7.321,0.151-14.166,1.103-21.503-0.034    c-4.527-0.701-6.082-3.474-6.389-8.014c-0.243-3.589-0.368-7.2-0.601-10.794C455.905,374.69,457.816,360.734,457.398,346.691z     M506.305,418.737c-1.238,3.909-9.191,3.616-12.507,3.74c-4.626,0.173-9.409,0.308-14.038,0.262    c-4.845-0.049-9.591-0.976-14.46-1.021c-2.849-0.027-5.416-0.374-8.247-0.65c-1.193-0.117-4.003,0.281-5.143-0.076    c-4.812-1.507-2.611-6.871,0.972-7.878c1.8-0.505,4.859-0.388,6.719-0.184c1.852,0.204,3.527,1.055,5.398,1.153    c0.509,0.027,1.018-0.018,1.527-0.084c5.188,0.508,10.495,0.281,15.573-0.335c3.907-0.473,7.931-0.608,11.837-1.028    c1.048-0.112,2.007-0.167,2.899-0.305c1.55,0.262,3.102,0.442,4.488,0.653c0.97,0.147,3.673-0.091,4.22,0.379    C506.617,414.286,506.748,417.341,506.305,418.737z"/>
	</g>
</g>
<g>
</g>
<g>
</g>
<g>
</g>
<g>
</g>
<g>
</g>
<g>
</g>
<g>
</g>
<g>
</g>
<g>
</g>
<g>
</g>
<g>
</g>
<g>
</g>
<g>
</g>
<g>
</g>
<g>
</g>
</svg>
