<?xml version="1.0" encoding="iso-8859-1"?>
<!-- Generator: Adobe Illustrator 19.0.0, SVG Export Plug-In . SVG Version: 6.00 Build 0)  -->
<svg xmlns="http://www.w3.org/2000/svg" xmlns:xlink="http://www.w3.org/1999/xlink" version="1.1" id="Layer_1" x="0px" y="0px" viewBox="0 0 511.999 511.999" style="enable-background:new 0 0 511.999 511.999;" xml:space="preserve">
<g>
	<g>
		<path d="M180.443,295.667c0.066-2.639,0.834-12.553-4.381-11.487c-4.713,0.964-4.154,9.301-4.234,12.517    c-0.077,3.057-0.377,6.906,0.044,10.458c-0.041,2.328,0.088,4.656,0.319,7.107c0.079,0.831,0.494,1.367,1.264,1.661    c1.567,0.599,3.518,0.224,5.178,0.279c0.618,0.02,1.363-0.487,1.477-1.124C181.208,308.924,180.288,301.912,180.443,295.667z     M177.871,300.577c-0.131,3.894,0.304,8.517-0.446,12.452c-0.637-0.047-1.309-0.092-1.92-0.179    c-0.254-3.226-0.208-6.551-0.971-9.663c-0.23-4.382-0.598-9.07,0.557-13.292c1.482-5.424,2.983,0.261,3.063,3.029    C178.229,295.475,177.958,298.027,177.871,300.577z"/>
	</g>
</g>
<g>
	<g>
		<path d="M201.576,302.55c-0.051-3.773,0.01-7.562-0.229-11.329c-0.292-4.611-1.122-9.966-5.95-11.892    c-3.784-1.51-7.441,1.042-9.4,4.328c-2.733,4.583-2.698,10.342-2.687,15.48c0.006,2.233-0.149,4.953-0.098,7.665    c-0.011,0.292-0.026,0.582-0.029,0.886c-0.018,1.838-0.686,5.146,0.148,6.884c1.454,3.034,7.611,1.736,10.263,1.4    c2.691-0.34,6.611-0.652,7.844-3.416C202.478,310.228,201.609,305.03,201.576,302.55z M191.987,306.962    c0.034,1.75-0.274,3.831,0.159,5.618c-2.638,0.293-4.833,0.686-5.583-2.119c-0.068-0.252-0.107-0.509-0.16-0.763    c-0.007-5.583-0.566-11.173-0.003-16.758c0.364-3.629,1.729-11.081,6.562-11.128c1.228-0.011,2.171,0.429,2.9,1.162    c-3.334,3.73-3.818,9.155-4.042,13.963C191.663,300.262,191.921,303.627,191.987,306.962z M196.463,311.901    c-0.244,0.131-0.522,0.227-0.817,0.301c-1.091-4.657-1.264-10.518-1.313-15.263c-0.047-4.52,1.29-8.143,2.711-12.158    c1.543,3.494,1.204,9.145,1.26,11.686c0.092,4.217-0.163,8.427-0.243,12.627C198.005,312.085,198.537,310.79,196.463,311.901z"/>
	</g>
</g>
<g>
	<g>
		<path d="M231.346,287.355c-2.52-10.925-14.226-17.973-21.979-7.076c-4.071,5.721-3.962,13.801-4.222,20.511    c-0.102,2.638-1.31,8.52-0.201,12.032c0.226,1.219,0.872,2.26,2.308,2.899c2.236,0.996,5.338,0.133,7.706,0.052    c3.607-0.123,7.173-0.354,10.769-0.622c5.664-0.422,5.282-1.824,5.713-7.127C231.989,301.26,232.888,294.041,231.346,287.355z     M212.998,289.233c-0.401,3.347-0.562,6.788-0.629,10.158c-0.078,3.969-1.076,8.982,0.372,12.779    c-0.471,0.022-0.941,0.053-1.413,0.068c-2.47,0.08-2.741,0.279-3.131-2.274c-0.18-1.181-0.349-2.24-0.584-3.337    c0.104-1.253,0.212-2.481,0.246-3.619c0.15-5.123,0.163-10.522,1.386-15.543c1.034-4.251,3.933-8.538,7.772-9.524    C214.509,280.876,213.337,286.404,212.998,289.233z M228.044,306.833c-0.104,1.307,0.049,3.212-0.289,4.577    c-1.187,0.298-2.546,0.038-3.732,0.08c-2.669,0.093-5.326,0.308-7.987,0.49c-0.001-0.009,0.001-0.017-0.001-0.026    c-0.733-6.474-0.348-13.255-0.221-19.765c0.068-3.514,0.604-6.887,1.963-10.159c0.573-1.381,1.579-2.756,2.298-4.152    c1.077,0.224,2.198,0.709,3.35,1.519c4.069,2.862,5.212,9.127,5.396,13.869C228.995,297.783,228.4,302.34,228.044,306.833z"/>
	</g>
</g>
<g>
	<g>
		<path d="M193.904,389.644c0.311-6.324-2.272-17.423-10.753-13.028c-4.766,2.47-6.237,9.116-5.643,14.722    c-0.057,0.726-0.112,1.429-0.188,2.071c-0.427,3.637,0.65,4.737,4.344,4.784c2.719,0.036,7.895,1.094,10.416-0.174    C194.546,396.78,193.795,391.875,193.904,389.644z M190.687,394.899c-0.876-0.027-1.737,0.078-2.66,0.043    c-1.78-0.065-5.821,0.372-7.308-0.278c-0.231,0.052-0.42,0.067-0.577,0.055c0.341-5.398-0.918-14.763,5.426-16.077    c3.601-0.746,5.147,4.15,5.369,7.144C191.026,386.986,191.462,392.916,190.687,394.899z"/>
	</g>
</g>
<g>
	<g>
		<path d="M233.201,387.48c0.071-1.99,0.249-3.928-0.132-5.916c-1.199-6.254-8.538-9.952-13.193-4.69    c-3.293,3.722-3.956,9.12-3.254,14.047c-0.517,2.172-0.857,4.506,0.731,5.931c1.057,0.949,2.548,0.74,3.838,0.747    c2.062,0.01,3.94,0.158,5.989-0.121c2.499-0.34,5.262-0.432,5.886-3.351C233.495,392.114,233.129,389.539,233.201,387.48z     M230.223,389.424c-0.054,1.163,0.052,3.658-1.042,4.423c-0.438,0.307-1.39,0.153-1.927,0.212    c-1.628,0.178-5.016,0.799-6.624,0.079c-0.593-0.266-1.064-0.878-1.436-1.635c-0.154-2.868-0.057-5.815,0.667-8.522    c0.514-1.928,1.177-3.897,2.666-5.267c4.023-3.703,7.457,1.012,7.836,5.12C230.53,385.652,230.308,387.595,230.223,389.424z"/>
	</g>
</g>
<g>
	<g>
		<path d="M222.478,440.131c-0.247-5.916,1.49-14.794-2.612-19.855c-2.603-3.211-8.876-4.287-12.688-3.016    c-5.696,1.898-7.437,8.997-8.144,14.17c-0.314,2.301-0.789,5.516-0.909,8.742c-0.052,0.774-0.099,1.546-0.141,2.31    c-0.192,3.474-1.584,8.75,2.672,10.21c2.269,0.778,5.539-0.002,7.852-0.189c3.354-0.27,7.12-0.141,10.406-0.796    C224.263,450.643,222.66,444.466,222.478,440.131z M219.296,443.715c0.076,5.712-4.904,4.664-9.103,5.009    c-1.669,0.137-3.322,0.339-4.992,0.43c-2.678,0.147-2.937,0.54-4.071-1.651c-0.052-0.101-0.08-0.228-0.126-0.336    c-0.02-7.682-0.437-17.272,3.509-23.6c1.961-3.144,5.846-4.236,9.316-3.272c5.017,1.394,5.151,5.571,5.397,9.858    C219.482,434.641,219.237,439.222,219.296,443.715z"/>
	</g>
</g>
<g>
	<g>
		<path d="M340.167,296.699c-0.078-3.217,0.481-11.552-4.233-12.518c-5.216-1.068-4.447,8.847-4.381,11.487    c0.154,6.245-0.764,13.257,0.332,19.411c0.113,0.638,0.859,1.144,1.477,1.124c1.66-0.056,3.611,0.319,5.178-0.279    c0.771-0.294,1.187-0.83,1.264-1.661c0.231-2.451,0.36-4.779,0.319-7.107C340.543,303.604,340.243,299.755,340.167,296.699z     M337.461,303.189c-0.763,3.111-0.717,6.438-0.971,9.663c-0.611,0.086-1.284,0.132-1.92,0.179    c-0.75-3.934-0.314-8.557-0.446-12.452c-0.087-2.551-0.358-5.103-0.283-7.653c0.08-2.768,1.581-8.453,3.063-3.029    C338.058,294.118,337.691,298.806,337.461,303.189z"/>
	</g>
</g>
<g>
	<g>
		<path d="M328.812,307.686c-0.004-0.303-0.018-0.593-0.03-0.885c0.052-2.711-0.102-5.431-0.098-7.665    c0.011-5.138,0.047-10.897-2.687-15.48c-1.959-3.286-5.616-5.837-9.4-4.328c-4.828,1.926-5.657,7.281-5.949,11.892    c-0.239,3.768-0.178,7.556-0.229,11.329c-0.033,2.48-0.903,7.678,0.137,10.006c1.233,2.763,5.153,3.076,7.844,3.416    c2.652,0.336,8.808,1.634,10.263-1.4C329.498,312.832,328.83,309.524,328.812,307.686z M316.349,312.201    c-0.293-0.073-0.571-0.17-0.817-0.301c-2.074-1.111-1.541,0.186-1.599-2.809c-0.08-4.2-0.334-8.41-0.243-12.627    c0.056-2.541-0.283-8.191,1.26-11.686c1.421,4.014,2.758,7.638,2.711,12.158C317.613,301.683,317.44,307.544,316.349,312.201z     M325.593,309.697c-0.053,0.254-0.092,0.511-0.16,0.763c-0.75,2.804-2.946,2.412-5.583,2.119c0.432-1.787,0.124-3.868,0.159-5.618    c0.064-3.336,0.323-6.7,0.169-10.024c-0.224-4.809-0.708-10.233-4.042-13.963c0.729-0.733,1.672-1.174,2.9-1.162    c4.832,0.047,6.197,7.498,6.561,11.128C326.158,298.525,325.6,304.114,325.593,309.697z"/>
	</g>
</g>
<g>
	<g>
		<path d="M306.851,300.791c-0.259-6.71-0.151-14.79-4.222-20.511c-7.755-10.898-19.459-3.849-21.979,7.076    c-1.542,6.686-0.643,13.905-0.093,20.67c0.431,5.301,0.049,6.703,5.713,7.127c3.594,0.268,7.161,0.499,10.769,0.622    c2.368,0.081,5.47,0.943,7.706-0.052c1.436-0.64,2.082-1.68,2.308-2.899C308.162,309.311,306.953,303.43,306.851,300.791z     M295.961,311.954c-0.001,0.009,0,0.017,0,0.026c-2.661-0.182-5.318-0.397-7.987-0.49c-1.187-0.041-2.546,0.219-3.732-0.08    c-0.339-1.364-0.186-3.27-0.289-4.577c-0.357-4.495-0.951-9.05-0.777-13.567c0.183-4.742,1.328-11.007,5.396-13.869    c1.152-0.81,2.273-1.294,3.35-1.519c0.719,1.398,1.724,2.772,2.298,4.152c1.358,3.271,1.894,6.644,1.963,10.159    C296.309,298.7,296.693,305.48,295.961,311.954z M303.797,309.963c-0.39,2.553-0.661,2.353-3.131,2.274    c-0.472-0.016-0.942-0.046-1.413-0.068c1.448-3.797,0.45-8.809,0.372-12.779c-0.067-3.371-0.228-6.812-0.629-10.158    c-0.339-2.829-1.511-8.357-4.019-11.292c3.838,0.987,6.738,5.273,7.772,9.525c1.222,5.021,1.236,10.42,1.386,15.543    c0.033,1.137,0.142,2.366,0.246,3.619C304.146,307.723,303.979,308.782,303.797,309.963z"/>
	</g>
</g>
<g>
	<g>
		<path d="M364.811,329.802c-2.139-0.977-5.481-1.27-8.553-1.033c-2.194-0.408-4.422-0.704-6.624-0.983    c0.141-0.343,0.244-0.722,0.276-1.16c0.778-10.976-0.227-22.007,0.593-32.971c0.514-6.89,2.281-14.86,0.907-21.83    c1.822-0.331,3.359-1.336,4.368-3.503c1.14-2.447,3.125-6.009,1.116-8.377c-0.61-0.72-1.463-1.319-2.421-1.823    c-4.561-3.246-11.871-3.567-17.456-4.566c1.582-2.753,0.964-6.583,1.088-9.838c0.114-3.058,0.194-6.236,0.007-9.383    c-0.008-0.286-0.014-0.573-0.014-0.87c-0.003-2.441,0.278-4.947,0.2-7.412c2.723,0.443,5.479,0.607,7.148-1.107    c2.391-2.454,1.127-6.432-0.893-8.672c-3.21-3.56-7.455-4.436-11.212-7.003c-1.298-0.887-2.409-1.928-3.423-3.05    c-1.697-5.39-4.906-10.473-7.408-15.507c-1.77-3.56-4.208-6.671-5.673-10.429c-1.19-3.051-2.596-6.012-3.906-9.022    c-3.627-8.334-7.266-16.442-7.541-25.679c-0.128-4.274-0.251-8.646-0.132-12.92c0.063-2.277,0.598-4.852-1.06-6.746    c-1.511-1.726-4.206-2.119-6.297-2.682c-3.822-1.03-4.272-1.698-5.988-5.092c-3.999-7.914-8.691-15.479-12.52-23.451    c-2.937-6.117-6.275-12.1-9.183-18.266c-1.951-4.134-3.893-11.726-7.507-15.806c-0.526-1.324-1.492-2.262-2.679-2.876    c3.873-1.228,7.242-4.857,8.037-8.703c1.094-5.293-0.86-11.275-5.617-13.653c2.729-4.228,1.206-7.834,0.193-13.178    c-1.353-7.144-1.483-14.919-4.384-21.639c-0.352-0.814-1.623-0.703-2.009,0c-1.368,2.495-1.411,6.067-1.93,8.851    c-0.891,4.782-1.861,9.571-2.62,14.373c-0.388,2.454-1.649,9.222,0.926,11.64c-3.901,1.778-6.81,5.521-7.602,9.973    c-0.834,4.683,1.447,10.723,5.896,12.885c-1.724,1.207-3.216,3.264-3.714,5.368c-2.338,4.137-3.87,9.516-5.402,12.765    c-2.91,6.166-6.247,12.149-9.183,18.266c-3.828,7.972-8.521,15.537-12.52,23.451c-1.716,3.394-2.167,4.062-5.988,5.092    c-2.091,0.563-4.786,0.957-6.297,2.682c-1.658,1.893-1.123,4.469-1.06,6.746c0.119,4.274-0.004,8.646-0.132,12.92    c-0.276,9.238-3.914,17.345-7.541,25.679c-1.309,3.01-2.716,5.971-3.906,9.022c-1.466,3.758-3.903,6.869-5.673,10.429    c-2.502,5.034-5.711,10.117-7.408,15.507c-1.014,1.122-2.126,2.163-3.423,3.05c-3.758,2.568-8.002,3.442-11.212,7.003    c-2.02,2.24-3.284,6.218-0.893,8.672c1.67,1.713,4.426,1.55,7.148,1.107c-0.078,2.466,0.203,4.971,0.2,7.412    c0,0.297-0.007,0.584-0.014,0.87c-0.188,3.148-0.108,6.326,0.007,9.383c0.122,3.254-0.494,7.083,1.088,9.838    c-5.584,0.999-12.895,1.32-17.456,4.566c-0.957,0.503-1.81,1.103-2.421,1.823c-2.01,2.368-0.024,5.931,1.116,8.377    c1.009,2.167,2.546,3.172,4.368,3.503c-1.376,6.97,0.391,14.94,0.907,21.83c0.82,10.965-0.186,21.996,0.593,32.971    c0.031,0.437,0.134,0.817,0.276,1.16c-2.202,0.279-4.43,0.576-6.624,0.983c-3.072-0.237-6.414,0.057-8.553,1.033    c-5.021,2.293-4.293,8.424-3.048,12.78c1.559,5.451,4.038,9.502,7.7,13.74c2.458,2.843,4.799,4.047,7.399,4.592    c-1.312,17.346-1.493,34.879-1.312,52.218c0.11,10.565,0.693,21.102,0.671,31.687c-0.023,10.62-0.181,21.249-0.117,31.867    c0.043,7.148,2.106,14.147,8.024,18.731c6.79,5.26,15.511,7.109,23.462,9.739c8.857,2.929,17.876,4.411,27.147,5.231    c4.745,0.42,9.168,0.492,13.562,0.23c1.55,0.034,3.09,0.09,4.608,0.227c7.995,0.723,16.012,1.389,24.048,1.076    c7.191-0.28,14.557,0.029,21.729-0.443c2.736-0.18,5.849-0.314,8.875-0.788c1.622-0.062,3.261-0.153,4.951-0.302    c9.272-0.821,18.29-2.303,27.147-5.231c7.951-2.63,16.672-4.479,23.462-9.739c5.919-4.584,7.981-11.585,8.024-18.731    c0.064-10.618-0.093-21.248-0.117-31.867c-0.022-10.583,0.561-21.122,0.671-31.687c0.181-17.339,0.001-34.872-1.312-52.218    c2.599-0.546,4.941-1.749,7.399-4.592c3.662-4.238,6.14-8.288,7.7-13.74C369.105,338.227,369.832,332.095,364.811,329.802z     M297.113,129.014c0.729,0.209,1.459,0.419,2.188,0.628c0.153-0.012,0.291-0.013,0.416-0.007c0.028,0.144,0.056,0.287,0.079,0.426    c0.078,0.454,0.192,0.887,0.317,1.314c0.76,3.578-0.104,8.712-0.329,12.33c-0.006,0.086-0.008,0.167-0.013,0.251    c-0.824-2.266-1.744-4.521-2.61-6.749c-1.039-2.674-2.131-5.942-3.54-9.002C294.764,128.525,296.007,128.712,297.113,129.014z     M276.373,100.262c3.651,7.619,7.673,15.046,11.377,22.626c0.733,5.037,4.59,10.828,6.219,15.2    c2.417,6.487,4.099,13.428,6.94,19.722c1.727,7.438,5.15,14.289,8.261,21.289c2.781,6.258,5.986,12.312,9.179,18.311    c1.745,3.278,3.397,6.851,5.381,9.963c0.31,0.487,0.62,0.91,0.944,1.293c-5.028-0.447-10.109-0.287-13.382-0.577    c-0.559-0.05-1.126-0.076-1.688-0.119c-0.949-5.755-3.27-11.386-5.084-16.883c-2.136-6.47-4.132-12.916-6.676-19.241    c-4.649-11.558-7.701-23.749-12.075-35.401c-5.097-13.58-9.901-27.222-14.259-41.057c-2.713-8.616-5.778-17.218-8.491-25.881    C266.986,79.966,271.534,90.166,276.373,100.262z M262.829,73.974c1.876,7.048,4.039,14.038,6.084,21.043    c3.93,13.462,8.135,27.015,13.234,40.091c4.667,11.968,7.917,24.495,12.52,36.499c4.503,11.746,9.081,23.885,12.061,36.161    c-5.484-0.341-11.023-0.456-16.516-0.449c-0.389-1.682-0.297-4.069-0.549-5.548c-0.564-3.299-1.185-6.59-1.887-9.861    c-1.379-6.424-3.24-12.742-4.904-19.091c-3.228-12.317-5.844-24.837-8.972-37.202c-3.362-13.297-6.988-26.956-8.715-40.579    c-0.847-6.677-2.317-13.216-3.113-19.909c-0.257-2.158-0.533-4.314-0.823-6.469C261.801,70.448,262.364,72.225,262.829,73.974z     M262.943,97.425c1.851,13.303,5.072,26.716,8.293,39.746c3.203,12.958,5.84,26.079,9.218,38.972    c1.778,6.784,3.607,13.525,4.981,20.407c0.638,3.191,0.608,7.35,1.434,10.783c-0.156,0.001-0.312,0-0.468,0.002    c-1.538,0.017-3.06,0.089-4.577,0.186c-2.046-0.153-4.43,0.26-5.803,0.206c-0.817-0.032-1.722-0.112-2.669-0.194    c-2.583-0.414-5.29-0.199-7.957-0.216c-2.798-0.018-5.6-0.057-8.406-0.07c0.669-3.223-0.232-7.309-0.271-10.48    c-0.06-4.851-0.41-9.66-0.431-14.502c-0.02-4.722,0.032-9.389,0.182-14.097c0.161-5.056,0.641-10.361,0.224-15.426    c1.121-0.067,2.269-0.191,3.31-0.492c0.196,0.037,0.404,0.042,0.621,0.008c2.521-0.404,5.166,0.137,6.448-2.646    c1.508-3.272,0.574-9.198,0.271-12.596c-0.257-2.883-0.246-5.439-2.323-7.612c-1.141-1.194-2.566-2.009-3.749-3.106    c-1.239-1.148-2.423-2.586-4.244-2.742c-0.421-5.093-0.188-10.34-0.333-15.46c-0.147-5.169-0.304-10.339-0.363-15.51    c-0.067-5.833-0.274-11.688-0.244-17.519c0.014-2.817,0.249-5.569,0.37-8.323c0.688,0.001,1.373-0.004,2.051-0.009    c0.151-0.001,0.323,0.007,0.507,0.018C259.772,77.016,261.532,87.29,262.943,97.425z M253.058,149.144    c-2.136-0.031-3.996-0.639-4.887-2.683c-1.337-3.066-0.428-7.627-0.184-10.859c0.171-2.274,1.147-3.929,2.399-5.43    c1.047-0.833,2.102-1.659,3.168-2.437c4.546-3.32,10.139,3.657,10.457,7.867c0.243,3.232,1.152,7.793-0.184,10.859    c-0.446,1.023-1.132,1.456-1.94,1.791C259.737,148.049,256.116,149.188,253.058,149.144z M255.492,17.42    c0.472-2.447,0.876-4.868,1.276-7.321c0.237-1.448,0.344-3.362,0.614-5.136c1.29,4.592,1.353,9.573,2.112,14.247    c0.477,2.936,1.546,6.352,1.402,9.309c-0.113,2.342-1.168,3.936-1.959,5.87c-0.026-0.002-0.049-0.009-0.074-0.011    c-1.33-0.126-2.62-0.03-3.847,0.246C251.543,30.455,254.602,22.036,255.492,17.42z M249.405,51.625    c-2.736-4.714-0.011-11.108,4.733-13.296c5.694-2.626,10.762,2.152,10.603,7.724c-0.086,2.978-1.422,5.531-3.893,7.276    c-1.787,1.261-4.028,1.604-6.073,2.334C252.899,54.515,250.782,53.996,249.405,51.625z M252.972,67.018    c0.111-0.146,0.217-0.297,0.321-0.448c0.343,0.043,0.689,0.07,1.036,0.094c-1.713,18.905,0.05,38.381,0.098,57.239    c-0.043,0.012-0.088,0.019-0.129,0.041c-0.068,0.022-0.139,0.041-0.204,0.066c-1.436,0.523-2.431,1.463-3.46,2.496    c-1.307,0.872-2.589,1.777-3.66,2.897c-2.077,2.173-2.066,4.728-2.323,7.612c-0.303,3.398-1.237,9.323,0.271,12.596    c0.79,1.714,2.099,2.167,3.577,2.356c1.572,0.748,3.257,1.027,5.274,0.904c0.294-0.018,0.623-0.028,0.943-0.04    c-0.976,9.136-1.151,18.282-1.217,27.466c-0.032,4.448,0.206,8.851,0.149,13.283c-0.033,2.634-0.126,5.278-0.089,7.911    c0.02,1.452,0.473,4.287,0.072,5.75c-3.217,0.021-6.431,0.056-9.64,0.081c-0.88-0.049-1.788-0.036-2.691,0.011    c-1.384-0.032-2.971-0.2-4.242,0.329c-0.373,0.028-0.738,0.051-1.083,0.064c-1.373,0.054-3.758-0.359-5.803-0.206    c-1.517-0.097-3.039-0.169-4.577-0.186c-0.156-0.001-0.312-0.001-0.468-0.002c0.827-3.433,0.797-7.592,1.434-10.783    c1.376-6.882,3.203-13.622,4.981-20.407c3.378-12.893,6.015-26.015,9.218-38.972c3.221-13.03,6.441-26.442,8.293-39.746    C250.452,87.378,252.205,77.195,252.972,67.018z M250.746,68.658c-0.291,2.154-0.567,4.311-0.823,6.469    c-0.797,6.693-2.268,13.233-3.115,19.909c-1.727,13.623-5.351,27.282-8.714,40.579c-3.128,12.366-5.745,24.887-8.972,37.202    c-1.664,6.349-3.524,12.668-4.904,19.091c-0.702,3.272-1.322,6.562-1.887,9.861c-0.252,1.479-0.161,3.864-0.549,5.548    c-5.493-0.006-11.031,0.108-16.516,0.449c2.98-12.277,7.558-24.416,12.061-36.161c4.602-12.003,7.853-24.53,12.52-36.499    c5.099-13.077,9.303-26.629,13.234-40.091c2.046-7.006,4.209-13.997,6.084-21.043C249.63,72.225,250.195,70.448,250.746,68.658z     M211.885,131.375c0.124-0.428,0.239-0.86,0.317-1.314c0.023-0.139,0.051-0.281,0.079-0.426c0.124-0.007,0.262-0.006,0.416,0.007    c0.729-0.209,1.459-0.419,2.188-0.628c1.106-0.302,2.349-0.489,3.494-0.808c-1.409,3.06-2.501,6.329-3.54,9.002    c-0.866,2.228-1.786,4.483-2.61,6.749c-0.004-0.084-0.008-0.166-0.013-0.251C211.989,140.087,211.125,134.953,211.885,131.375z     M188.267,207.373c1.984-3.113,3.636-6.687,5.381-9.963c3.193-5.999,6.397-12.053,9.179-18.311c3.111-7,6.534-13.851,8.261-21.289    c2.841-6.294,4.523-13.237,6.94-19.722c1.629-4.372,5.486-10.163,6.219-15.2c3.703-7.58,7.726-15.007,11.377-22.626    c4.839-10.097,9.387-20.296,13.353-30.755c-2.713,8.663-5.777,17.265-8.491,25.881c-4.358,13.835-9.162,27.477-14.259,41.057    c-4.373,11.652-7.426,23.843-12.075,35.401c-2.544,6.325-4.54,12.771-6.676,19.241c-1.814,5.498-4.137,11.129-5.084,16.883    c-0.561,0.044-1.128,0.07-1.688,0.119c-3.273,0.289-8.354,0.13-13.382,0.577C187.647,208.283,187.957,207.86,188.267,207.373z     M174.424,220.939c-1.902,0.054-1.798,0.846-1.211-0.348c0.603-1.229,2.849-2.547,4.017-3.199c2-1.117,3.731-2.402,5.234-3.833    c1.689-0.244,3.397-0.367,5.168-0.543c6.168-0.618,12.456-0.744,18.653-0.963c7.351-0.26,14.839-1.18,22.192-1.063    c2.149,0.034,4.306,0.518,6.448,0.222c0.211-0.029,0.42-0.063,0.63-0.094c1.03,0.089,2.073,0.162,3.144,0.22    c2.064,0.112,4.812,0.611,7.078,0.094c3.061,0.266,6.156,0.318,9.315,0.328c5.844,0.019,12.702,0.849,18.633-0.451    c0.919-0.053,1.826-0.113,2.716-0.19c0.21,0.031,0.42,0.066,0.63,0.094c2.142,0.294,4.299-0.188,6.448-0.222    c7.352-0.117,14.841,0.802,22.192,1.063c6.198,0.219,12.486,0.346,18.653,0.963c1.771,0.177,3.479,0.299,5.168,0.543    c1.503,1.431,3.234,2.717,5.234,3.833c1.168,0.652,3.413,1.97,4.017,3.199c0.586,1.192,0.69,0.401-1.211,0.348    c-0.814-0.023-1.592-0.196-2.401-0.253c-4.063-0.29-8.11-0.333-12.172-0.777c-10.687-1.166-21.462-1.282-32.206-1.871    c-5.796-0.318-11.589-0.25-17.392-0.281c-2.801-0.014-5.826-0.098-8.776,0.063c-3.643-0.084-7.397,0.243-10.571,0.298    c-1.243,0.021-2.571-0.02-3.935-0.059c-3.777-0.461-7.84-0.322-11.522-0.302c-5.803,0.03-11.597-0.037-17.392,0.281    c-10.743,0.589-21.519,0.704-32.206,1.871c-4.062,0.443-8.109,0.487-12.172,0.777C176.018,220.742,175.24,220.916,174.424,220.939    z M331.539,252.562c-2.449-0.362-4.942-0.61-7.442-0.818c2.66-7.288,3.46-20.956-5.522-24.071    c-3.682-1.277-7.539,1.882-8.94,5.069c-1.12,2.544-1.437,5.266-1.752,7.999c-0.308,2.666-0.048,6.547-0.819,9.317    c-0.064,0.088-0.12,0.181-0.168,0.279c-2.431-0.176-4.86-0.299-7.288-0.399c1.538-8.076,1.13-25.128-10.556-23.491    c-4.367,0.611-7.58,4.128-8.716,8.342c-0.592,2.199-0.862,4.805-0.957,7.086c-0.074,1.809,0.517,5.084-0.281,6.718    c-0.823,1.684-3.094,1.217-4.71,1.252c-2.203,0.05-4.407,0.117-6.611,0.178c0.043-0.118,0.08-0.242,0.103-0.382    c0.924-5.476-0.033-10.949-2.401-15.961c-2.229-4.716-5.681-6.453-10.717-5.517c-5.057,0.941-8.798,3.912-10.441,8.815    c-1.083,3.231-2.373,9.139-0.994,13.021c-1.908-0.052-3.814-0.11-5.722-0.153c-1.615-0.036-3.887,0.432-4.71-1.252    c-0.798-1.633-0.207-4.909-0.281-6.718c-0.096-2.281-0.364-4.887-0.957-7.086c-1.136-4.214-4.349-7.73-8.716-8.342    c-11.685-1.636-12.092,15.416-10.555,23.491c-2.428,0.1-4.857,0.223-7.288,0.399c-0.048-0.098-0.104-0.191-0.168-0.279    c-0.771-2.77-0.51-6.652-0.819-9.317c-0.316-2.733-0.633-5.454-1.752-7.999c-1.401-3.187-5.258-6.346-8.94-5.069    c-8.982,3.116-8.182,16.783-5.522,24.071c-2.5,0.207-4.993,0.454-7.442,0.818c0.907-2.966-0.251-7.041-0.442-9.851    c-0.169-2.472-0.231-5.007-0.383-7.532c0.007-0.542,0-1.103-0.028-1.713c-0.12-2.662-0.171-5.498-0.524-8.216    c5.143-0.12,10.258-0.865,15.396-0.98c6.346-0.142,12.698,0.186,19.048,0.036c7.007-0.167,13.962-0.699,20.993-0.676    c5.94,0.019,11.981,1.099,17.741-0.534c0.627-0.007,1.229-0.01,1.794,0c2.194,0.037,4.486,0.194,6.791,0.28    c5.424,1.219,11.075,0.272,16.635,0.254c7.031-0.022,13.987,0.51,20.993,0.676c6.35,0.151,12.702-0.178,19.048-0.036    c5.138,0.116,10.252,0.86,15.396,0.98c-0.353,2.717-0.404,5.553-0.524,8.216c-0.028,0.61-0.034,1.171-0.028,1.713    c-0.152,2.526-0.214,5.061-0.383,7.532C331.79,245.521,330.633,249.597,331.539,252.562z M322.062,251.583    c-1.156-0.088-2.306-0.172-3.456-0.258c0.847-2.51,2.35-16.577-0.704-20.353c0.388,0.167,0.794,0.387,1.232,0.689    c3.892,2.697,3.206,8.489,3.029,12.471c-0.08,1.798-0.454,3.66-0.453,5.438C321.711,249.876,321.905,250.926,322.062,251.583z     M315.726,251.089c-0.976-0.081-1.956-0.157-2.919-0.254c-0.692-0.07-1.383-0.112-2.076-0.176    c0.791-5.029,0.592-17.482,4.449-19.687c1.413,3.37,2.587,6.733,2.134,10.472c-0.388,3.204-1.44,6.357-1.597,9.583    C315.718,251.053,315.726,251.067,315.726,251.089z M291.918,230.937c1.282,0.558,2.428,1.621,3.173,3.059    c1.182,2.279,1.171,4.984,1.354,7.472c0.211,2.871,0.12,5.594,0.443,8.378c-1.056-0.032-2.111-0.042-3.167-0.064    c0-0.007,0.002-0.011,0.003-0.018C293.887,247.427,294.463,235.896,291.918,230.937z M290.792,240.653    c-0.012,3.029-0.541,6.036-0.603,9.056c-2.296-0.024-4.591-0.027-6.887-0.009c0.549-1.59,0.394-3.751,0.469-5.153    c0.203-3.823-0.446-8.303,1.861-11.635c0.87-1.254,1.951-1.979,3.083-2.267C290.475,232.187,290.798,239.046,290.792,240.653z     M264.103,249.115c0.033,0.38,0.166,0.717,0.368,0.998c-0.476,0.013-0.952,0.024-1.429,0.039    c-3.306-0.189-6.656-0.089-9.821-0.053c-1.662,0.019-3.356,0.016-5.049,0.03c-0.632-0.019-1.266-0.032-1.898-0.051    c0.424-2.774-0.044-5.593,0.477-8.442c0.854-4.669,2.639-8.674,7.711-9.843c9.258-2.133,10.076,11.028,9.583,17.33    C264.064,249.119,264.083,249.117,264.103,249.115z M228.693,249.7c-2.296-0.018-4.591-0.016-6.886,0.009    c-0.062-3.02-0.591-6.027-0.603-9.056c-0.007-1.608,0.318-8.467,2.074-10.008c1.132,0.288,2.214,1.012,3.083,2.267    c2.308,3.331,1.658,7.812,1.862,11.634C228.298,245.949,228.144,248.11,228.693,249.7z M218.27,249.763    c0,0.007,0.002,0.011,0.003,0.018c-1.056,0.022-2.111,0.032-3.167,0.064c0.322-2.783,0.232-5.507,0.443-8.378    c0.183-2.488,0.172-5.193,1.354-7.472c0.746-1.438,1.891-2.501,3.173-3.059C217.532,235.896,218.108,247.427,218.27,249.763z     M194.68,241.447c-0.452-3.739,0.721-7.103,2.134-10.472c3.857,2.204,3.658,14.658,4.449,19.687    c-0.692,0.063-1.383,0.104-2.076,0.176c-0.962,0.098-1.943,0.173-2.919,0.254c0-0.022,0.009-0.037,0.008-0.059    C196.12,247.804,195.068,244.652,194.68,241.447z M193.389,251.325c-1.15,0.086-2.301,0.17-3.456,0.258    c0.157-0.657,0.352-1.707,0.352-2.012c0.002-1.778-0.372-3.64-0.453-5.438c-0.178-3.982-0.865-9.774,3.029-12.471    c0.438-0.303,0.844-0.522,1.232-0.689C191.039,234.748,192.542,248.815,193.389,251.325z M160.755,265.669    c-0.491-0.357-1.247-1.946-1.741-3.187c0.288-0.246,0.594-0.481,0.921-0.708c6.009-0.683,11.996-1.936,17.957-2.903    c7.608-1.234,15.806-1.488,23.529-2.148c7.659-0.654,15.352-0.794,23.012-1.471c5.077-0.448,10.197-0.562,15.285-0.939    c2.772-0.206,5.508-0.037,8.222-0.116c1.989,0.161,4.022,0.233,6.183,0.252c5.436,0.049,11.308,1.071,16.645-0.209    c0.501,0.016,1.003,0.034,1.508,0.071c5.088,0.377,10.209,0.491,15.285,0.939c7.66,0.676,15.353,0.817,23.012,1.471    c7.723,0.66,15.921,0.913,23.529,2.148c5.962,0.968,11.949,2.22,17.957,2.903c0.327,0.227,0.633,0.463,0.921,0.708    c-0.495,1.241-1.25,2.83-1.741,3.187c-1.772,1.289-3.739,0.279-5.53,0.036c-3.689-0.502-7.52-0.55-11.246-0.901    c-8.528-0.806-16.995-2.212-25.547-2.886c-9.741-0.767-19.525-1.239-29.23-1.976c-1.88-0.142-3.799-0.341-5.72-0.476    c-7.203-0.827-14.876,0.631-21.958,0.58c-1.493-0.011-3.11-0.109-4.773-0.204c-4.798-1.03-9.997-0.273-14.927,0.101    c-9.706,0.737-19.489,1.209-29.23,1.976c-8.553,0.673-17.02,2.08-25.547,2.886c-3.726,0.352-7.557,0.4-11.246,0.901    C164.494,265.948,162.528,266.958,160.755,265.669z M343.571,326.625c0.011,0.13,0.042,0.243,0.064,0.366    c-8.6-1.164-17.683-1.23-26.31-1.331c-14.097-0.167-28.282-0.909-42.356-0.068c-6.04-0.022-12.152,0.412-17.953,0.43    c-5.541,0.017-11.118-0.442-16.668-0.199c-15.161-1.191-30.47-0.343-45.677-0.163c-8.627,0.102-17.711,0.168-26.31,1.331    c0.022-0.121,0.053-0.236,0.064-0.366c0.473-5.505-0.311-11.297-0.36-16.853c-0.05-5.687,0.063-11.337-0.623-16.988    c-0.828-6.82-0.973-14.36-2.68-21.095c0.24-0.043,0.482-0.091,0.726-0.143c5.063-1.08,10.117-1.703,15.2-2.58    c6.107-1.053,11.962-2.549,18.171-3.234c6.697-0.74,13.418-0.462,20.127-0.972c5.993-0.456,11.933-0.568,17.918-0.948    c1.018-0.064,2.046-0.098,3.077-0.126c4.571,0.421,9.115,0.726,13.821,0.856c5.078,0.14,10.165-0.462,15.251-0.559    c1.686-0.032,3.398-0.03,5.069-0.219c0.323,0.016,0.648,0.028,0.97,0.048c5.986,0.38,11.924,0.492,17.918,0.948    c6.709,0.51,13.43,0.232,20.127,0.972c6.209,0.686,12.065,2.181,18.171,3.234c5.083,0.877,10.137,1.499,15.2,2.58    c0.243,0.052,0.484,0.1,0.726,0.143c-1.707,6.734-1.852,14.275-2.68,21.095c-0.687,5.651-0.573,11.301-0.623,16.988    C343.881,315.329,343.098,321.12,343.571,326.625z M347.564,409.179c-0.11,18.946-0.827,37.902-0.868,56.875    c-0.017,7.857,1.557,16.249-3.987,22.558c-5.527,6.29-16.57,8.211-24.171,10.572c-8.366,2.599-16.81,3.712-25.493,4.519    c-3.986,0.37-7.673,0.789-11.67,0.463c-4.279-0.349-7.792,0.491-11.693,1.362c-3.988,0.102-7.972,0.223-11.978,0.373    c-5.128,0.193-10.25-0.051-15.365-0.368c-3.912-0.873-7.431-1.718-11.719-1.368c-3.997,0.326-7.685-0.092-11.67-0.463    c-8.683-0.807-17.128-1.92-25.493-4.519c-7.6-2.361-18.643-4.282-24.171-10.572c-5.543-6.309-3.97-14.7-3.987-22.558    c-0.041-18.972-0.758-37.929-0.868-56.875c-0.047-8.055-0.598-16.01,0.009-24.065c0.582-7.741,0.693-15.887,0.201-23.707    c1.149,0.038,2.367,0.072,3.673,0.151c13.916,0.849,28.124-0.33,42.022-1.182c7.421-0.456,14.765-0.121,22.189-0.669    c1.042-0.077,2.212-0.141,3.448-0.213c8.698,0.026,17.37-0.076,26.061-0.011c3.65,0.027,7.299-0.076,10.949-0.191    c2.352,0.181,4.62,0.277,6.488,0.416c7.424,0.548,14.768,0.213,22.189,0.669c13.898,0.852,28.107,2.031,42.023,1.182    c1.307-0.08,2.524-0.113,3.673-0.151c-0.492,7.82-0.382,15.966,0.201,23.707C348.162,393.17,347.611,401.125,347.564,409.179z     M356.376,351.337c-2.496,2.604-4.584,4.786-8.459,4.93c-2.567,0.096-5.102,0.232-7.666,0.358    c-4.928,0.243-9.779-0.673-14.679-0.999c-9.933-0.66-19.915-2.227-29.902-1.993c-11.138-0.717-22.268,0.23-33.636,0.317    c-9.436,0.072-18.855,0.334-28.295,0.549c-3.323,0.076-6.686-0.169-10.042-0.323c-1.876-0.221-3.756-0.421-5.654-0.507    c-10.561-0.478-21.117,1.26-31.619,1.958c-4.9,0.326-9.751,1.241-14.679,0.999c-2.563-0.127-5.099-0.262-7.666-0.358    c-3.874-0.144-5.963-2.326-8.459-4.93c-2.479-2.588-5.149-6.112-6.214-9.866c6.841,0.648,13.767,0.161,20.654,0.157    c8.948-0.006,17.862-0.237,26.806-0.148c8.912,0.089,17.839-0.563,26.761-0.393c0.974,0.019,1.979,0.061,3.006,0.114    c3.221,0.636,6.583,0.264,9.885,0.568c6.386,0.588,12.68,0.576,19.093,0.464c7.047-0.123,13.71,0.083,20.375-0.557    c4.257-0.083,8.55-0.517,12.383-0.59c8.922-0.17,17.85,0.482,26.762,0.393c8.943-0.089,17.858,0.142,26.806,0.148    c6.887,0.004,13.812,0.491,20.653-0.157C361.524,345.224,358.854,348.75,356.376,351.337z M363.068,338.294    c-7.308-0.673-14.613-0.937-21.96-0.976c-8.996-0.048-17.936-0.649-26.928-0.168c-9.082,0.486-18.139,0.387-27.225,0.712    c-10.247-1.128-21.009-0.322-31.346,0.007c-2.422,0.077-4.838,0.212-7.251,0.326c-3.349-0.608-6.889-0.103-10.282-0.132    c-4.274-0.037-8.52-0.037-12.787-0.193c-9.169-0.337-18.309-0.228-27.475-0.719c-8.992-0.481-17.932,0.12-26.928,0.168    c-7.347,0.039-14.652,0.302-21.96,0.976c0-0.039-0.004-0.079-0.004-0.118c0.013-2.699,1.129-3.386,2.936-3.894    c0.782-0.043,1.569-0.119,2.357-0.198c4.021-0.402,8.003-0.644,12.019-0.994c9.422-0.823,18.978-0.933,28.439-1.054    c9.755-0.124,19.472-0.341,29.248-0.384c1.937-0.009,3.882,0.039,5.832,0.097c0.181,0.008,0.362,0.01,0.544,0.017    c4.88,0.149,9.779,0.344,14.609-0.094c3.734,0.054,7.461,0.17,11.215,0.181c4.983,0.016,9.902,0.161,14.848,0.046    c1.894,0.058,3.794,0.048,5.698,0.008c3.844,0.148,7.761,0.439,11.465-0.253c9.759,0.043,19.459,0.259,29.196,0.383    c9.461,0.121,19.017,0.231,28.439,1.054c4.016,0.351,7.998,0.592,12.019,0.994c0.788,0.079,1.574,0.154,2.357,0.198    c1.807,0.509,2.922,1.194,2.936,3.894C363.073,338.215,363.069,338.255,363.068,338.294z"/>
	</g>
</g>
<g>
	<g>
		<path d="M334.675,393.41c-0.076-0.643-0.13-1.347-0.188-2.072c0.593-5.607-0.879-12.252-5.643-14.722    c-8.481-4.396-11.065,6.703-10.753,13.028c0.11,2.231-0.642,7.136,1.824,8.377c2.522,1.269,7.698,0.209,10.416,0.174    C334.024,398.147,335.102,397.047,334.675,393.41z M331.276,394.665c-1.487,0.651-5.528,0.212-7.308,0.278    c-0.923,0.034-1.784-0.07-2.66-0.043c-0.776-1.984-0.339-7.913-0.25-9.112c0.222-2.996,1.768-7.89,5.369-7.144    c6.343,1.312,5.086,10.679,5.426,16.077C331.697,394.731,331.508,394.717,331.276,394.665z"/>
	</g>
</g>
<g>
	<g>
		<path d="M295.373,390.921c0.702-4.927,0.039-10.325-3.254-14.047c-4.656-5.262-11.995-1.564-13.193,4.69    c-0.381,1.988-0.203,3.926-0.133,5.916c0.073,2.059-0.293,4.634,0.137,6.647c0.623,2.918,3.387,3.01,5.886,3.351    c2.049,0.279,3.927,0.131,5.989,0.121c1.291-0.007,2.782,0.202,3.839-0.747C296.231,395.426,295.89,393.094,295.373,390.921z     M292.801,392.501c-0.371,0.758-0.841,1.37-1.436,1.635c-1.609,0.72-4.997,0.099-6.625-0.078    c-0.537-0.059-1.489,0.094-1.927-0.212c-1.094-0.766-0.988-3.259-1.042-4.423c-0.086-1.829-0.308-3.772-0.139-5.591    c0.379-4.108,3.812-8.823,7.836-5.12c1.488,1.37,2.151,3.339,2.666,5.267C292.856,386.688,292.954,389.635,292.801,392.501z"/>
	</g>
</g>
<g>
	<g>
		<path d="M314.01,442.483c-0.04-0.764-0.088-1.536-0.14-2.31c-0.12-3.227-0.594-6.441-0.909-8.742    c-0.708-5.173-2.449-12.272-8.145-14.17c-3.812-1.27-10.084-0.194-12.688,3.016c-4.102,5.06-2.366,13.938-2.613,19.855    c-0.182,4.336-1.783,10.513,3.565,11.578c3.286,0.654,7.051,0.526,10.406,0.796c2.313,0.187,5.583,0.967,7.852,0.189    C315.595,451.233,314.202,445.956,314.01,442.483z M310.991,447.167c-0.046,0.108-0.073,0.234-0.126,0.336    c-1.136,2.192-1.393,1.799-4.071,1.651c-1.669-0.092-3.323-0.293-4.992-0.43c-4.199-0.344-9.179,0.703-9.103-5.009    c0.06-4.493-0.186-9.076,0.071-13.561c0.246-4.287,0.38-8.465,5.397-9.858c3.47-0.964,7.354,0.127,9.316,3.272    C311.429,429.895,311.011,439.486,310.991,447.167z"/>
	</g>
</g>
<g>
	<g>
		<path d="M273.188,303.387c-0.001-5.493-0.032-11.74-1.614-17.043c-3.363-11.271-16.997-13.978-25.53-6.602    c-8.21,7.096-9.141,24.617-5.622,34.156c0.121,0.328,0.436,0.54,0.763,0.603c2.756,2.508,9.208,1.803,12.319,1.632    c3.169-0.176,6.388-0.55,9.543-0.899c2.14-0.237,5.217,0.141,7.293-0.49C274.564,313.461,273.188,306.724,273.188,303.387z     M269.142,309.055c-0.763,2.132,0.681,1.313-1.392,1.926c-3.296,0.974-8.108,0.752-11.565,1.053    c-2.681,0.233-11.005,1.508-13.13-0.709c-0.162-0.169-0.336-0.289-0.513-0.376c0.72-7.311-0.614-14.7,1.952-21.945    c2.289-6.462,9.276-12.163,16.452-9.27c4.63,1.867,6.616,5.539,7.432,10.109c0.668,3.734,0.9,7.959,0.982,11.743    C269.411,303.769,269.884,306.982,269.142,309.055z"/>
	</g>
</g>
<g>
</g>
<g>
</g>
<g>
</g>
<g>
</g>
<g>
</g>
<g>
</g>
<g>
</g>
<g>
</g>
<g>
</g>
<g>
</g>
<g>
</g>
<g>
</g>
<g>
</g>
<g>
</g>
<g>
</g>
</svg>
