<?xml version="1.0" encoding="iso-8859-1"?>
<!-- Generator: Adobe Illustrator 19.0.0, SVG Export Plug-In . SVG Version: 6.00 Build 0)  -->
<svg xmlns="http://www.w3.org/2000/svg" xmlns:xlink="http://www.w3.org/1999/xlink" version="1.1" id="Layer_1" x="0px" y="0px" viewBox="0 0 511.996 511.996" style="enable-background:new 0 0 511.996 511.996;" xml:space="preserve">
<g>
	<g>
		<path d="M245.84,96.205c-1.171-4.271-3.984-5.482-8.192-5.549c-3.689-0.058-11.273-1.536-14.03,1.612    c-1.145,1.307-1.614,3.594-1.65,5.965c-0.506,2.128-0.781,4.341-0.963,6.743c-0.299,3.922-1.793,10.003,1.734,12.869    c2.959,2.404,8.691,2.666,12.352,2.724c4.813,0.076,7.82-1.371,9.609-6.057C246.833,108.92,247.433,102.018,245.84,96.205z     M240.856,105.57c-0.506,3.765-0.497,8.527-5.017,9.215c-2.015,0.308-5.855-0.063-7.868-0.8c-3.081-1.127-1.608-4.863-1.766-7.712    c-0.07-1.277,0.002-2.651,0.092-4.054c0.321-1.413,0.49-2.835,0.874-4.341c0.526-2.065-0.005-1.947,2.18-2.273    c1.582-0.236,3.455,0.073,5.084,0.089c2.345,0.024,4.919-0.631,6.25,1.932C241.704,99.588,241.117,103.625,240.856,105.57z"/>
	</g>
</g>
<g>
	<g>
		<path d="M227.2,417.411c-1.242-0.622-3.17-0.86-4.488-1.273c-1.515-0.477-2.881-0.805-4.422-0.16    c-2.808,1.176-3.254,4.319-3.416,7.031c-0.216,3.62-1.222,7.791-0.748,11.53c0.008,2.032,0.454,3.863,2.54,4.936    c2.608,1.343,7.651,2.252,10.201,0.273c2.983-2.315,2.202-8.866,2.177-12.209C229.024,424.758,230.41,419.02,227.2,417.411z     M223.953,437.14c-0.838,0.516-4.425,0.011-5.275-0.551c-0.686-0.453-1.009-0.926-1.164-1.443    c0.798-4.018-0.006-8.55,0.781-12.573c0.212-1.086-0.075-1.558,0.982-2.176c0.943-0.551,1.969-0.759,2.957-0.399    c0.743,0.269,1.723,0.242,2.379,0.729c1.259,0.932,0.61,5.066,0.63,6.81C225.266,429.59,226.082,435.829,223.953,437.14z"/>
	</g>
</g>
<g>
	<g>
		<path d="M290.99,104.976c-0.182-2.403-0.457-4.614-0.963-6.743c-0.036-2.371-0.506-4.658-1.65-5.965    c-2.757-3.148-10.341-1.67-14.03-1.612c-4.209,0.067-7.021,1.278-8.192,5.549c-1.593,5.813-0.993,12.715,1.141,18.307    c1.787,4.685,4.794,6.132,9.608,6.057c3.66-0.058,9.392-0.321,12.352-2.724C292.782,114.98,291.288,108.898,290.99,104.976z     M284.021,113.985c-2.013,0.736-5.852,1.106-7.868,0.8c-4.52-0.689-4.512-5.45-5.017-9.215c-0.26-1.946-0.847-5.982,0.173-7.943    c1.332-2.562,3.905-1.908,6.25-1.932c1.629-0.017,3.502-0.326,5.084-0.089c2.185,0.326,1.655,0.207,2.18,2.273    c0.383,1.505,0.553,2.928,0.874,4.341c0.089,1.403,0.162,2.777,0.092,4.054C285.631,109.121,287.103,112.857,284.021,113.985z"/>
	</g>
</g>
<g>
	<g>
		<path d="M451.74,498.048c-3.292-4.228-12.477-3.229-17.057-3.62c-2.99-0.254-6.392,0.504-7.225-2.126    c-0.562-1.768,0.252-3.247-1.402-4.749c-2.314-2.104-6.886-1.592-9.717-1.994c-1.866-0.265-3.604-0.662-5.497-0.707    c-1.483-0.036-3.846,0.646-5.235,0.167c-1.633-0.564-0.646,0.186-1.131-1.587c-0.171-0.625,0.049-1.472-0.109-2.141    c-0.232-0.986-0.411-1.68-1.168-2.491c-1.557-1.668-3.644-1.325-5.716-1.383c-5.842-0.166-11.996-0.522-17.906-1.13    c-0.8-3.478-1.896-5.944-5.923-6.686c-5.772-1.066-11.26-0.678-16.597,1.302c-1.197-3.555-3.262-6.491-7.421-8.488    c-6.853-3.291-15.008-2.494-22.382-2.444c-1.302,0.008-2.596-0.004-3.893-0.01c3.893-3.575,7.597-8.432,8.136-12.627    c1.031-8.021-0.224-16.76-0.594-24.787c-0.767-16.635-2.162-33.172-3.56-49.726c-0.638-7.553-1.947-14.975-2.3-22.507    c-0.377-8.044-0.827-16.113-1.295-24.144c-0.848-14.537-1.291-29.274-2.914-43.76c-1.861-16.618-4.437-33.218-5.84-49.87    c-1.396-16.572-2.051-33.191-3.905-49.73c-1.738-15.514-1.83-31.233-3.626-46.733c-0.918-7.918-0.718-15.888-1.135-23.845    c-0.451-8.592-0.87-17.296-0.878-25.901c-0.005-6.09,2.472-13.802-2.333-18.596c-2.371-2.367-7.404-4.65-5.917-8.904    c0.872-2.491,3.895-3.571,5.444-5.65c2.022-2.715,1.484-5.089,0.997-8.171c-0.597-3.77-0.533-7.518-1.033-11.304    c-0.461-3.493-0.818-7-1.295-10.483c0.128-1.629,0.238-3.255,0.08-4.918c-0.293-3.073-0.064-7.513-3.18-9.23    c-1.588-0.875-3.201-0.606-4.929-0.5c-2.096,0.129-4.745-0.309-6.822,0.18c-3.099,0.73-4.304,3.324-4.613,6.283    c-0.219,2.098,0.252,4.172,0.494,6.242c0.361,3.076,0.103,6.1,0.268,9.181c0.175,3.26,1.015,6.51,0.538,9.794    c-0.495,3.402-1.862,4.09-3.984,6.417c-5.505,6.041-3.445,15.678-0.674,23.282c-1.647,0.198-3.298,0.336-5.022,0.287    c-2.023-0.058-3.997-0.13-5.972-0.037c-1.531-12.764-0.947-25.418-0.745-38.243c0.124-7.872,0.327-15.783,0.248-23.653    c-0.037-3.584-1.277-5.591-4.263-6.859c-0.789-0.72-1.866-1.076-3.124-1.17c-2.244-0.168-4.469-0.361-6.727-0.243    c-2.338,0.123-4.034,0.886-5.135,2.224c-1.897,1.281-2.727,3.142-2.757,6.047c-0.08,7.87,0.124,15.781,0.248,23.653    c0.202,12.826,0.786,25.48-0.745,38.243c-1.976-0.093-3.95-0.021-5.972,0.037c-1.724,0.05-3.375-0.089-5.022-0.287    c2.771-7.606,4.831-17.242-0.674-23.282c-2.121-2.327-3.489-3.015-3.983-6.417c-0.477-3.284,0.362-6.534,0.538-9.794    c0.166-3.081-0.092-6.105,0.268-9.181c0.243-2.07,0.713-4.142,0.494-6.242c-0.31-2.959-1.514-5.554-4.613-6.283    c-2.076-0.489-4.726-0.051-6.821-0.18c-1.729-0.106-3.341-0.376-4.929,0.5c-3.115,1.717-2.887,6.158-3.18,9.23    c-0.159,1.663-0.048,3.29,0.08,4.918c-0.477,3.482-0.833,6.989-1.295,10.483c-0.501,3.787-0.436,7.535-1.033,11.304    c-0.488,3.082-1.025,5.456,0.997,8.171c1.549,2.079,4.573,3.16,5.444,5.65c1.488,4.253-3.545,6.537-5.917,8.904    c-4.805,4.794-2.329,12.506-2.333,18.596c-0.007,8.605-0.427,17.309-0.878,25.901c-0.417,7.958-0.217,15.927-1.135,23.845    c-1.796,15.5-1.887,31.218-3.626,46.732c-1.854,16.539-2.507,33.159-3.905,49.73c-1.403,16.653-3.979,33.251-5.84,49.87    c-1.623,14.487-2.067,29.223-2.914,43.76c-0.467,8.031-0.919,16.1-1.295,24.144c-0.353,7.532-1.662,14.955-2.3,22.507    c-1.399,16.554-2.794,33.093-3.56,49.726c-0.37,8.027-1.625,16.767-0.594,24.787c0.539,4.196,4.243,9.052,8.138,12.627    c-1.297,0.006-2.591,0.018-3.893,0.01c-7.374-0.05-15.529-0.848-22.382,2.444c-4.159,1.997-6.225,4.933-7.421,8.488    c-5.337-1.98-10.825-2.368-16.597-1.302c-4.028,0.744-5.123,3.21-5.922,6.686c-5.911,0.608-12.064,0.965-17.906,1.13    c-2.073,0.058-4.159-0.284-5.716,1.383c-0.757,0.811-0.936,1.505-1.169,2.491c-0.157,0.668,0.062,1.517-0.108,2.141    c-0.485,1.773,0.502,1.024-1.132,1.587c-1.389,0.479-3.753-0.201-5.235-0.167c-1.892,0.045-3.631,0.442-5.497,0.707    c-2.832,0.402-7.403-0.111-9.717,1.994c-1.654,1.503-0.841,2.981-1.402,4.749c-0.835,2.63-4.236,1.872-7.225,2.126    c-4.581,0.39-13.765-0.608-17.057,3.62c-2.151,2.763-2.937,9.755,0.367,11.85c2.662,1.687,7.074,0.507,10.074,0.718    c5.7,0.402,11.233,1.29,16.982,1.359c9.596,0.117,19.153-0.242,28.688-1.017c10.814-0.88,21.89-1.408,32.735-0.856    c5.722,0.291,11.464,0.174,17.192,0.179c3.259,0.004,6.452-0.378,9.646-0.749c7.342,0.876,15.36-0.495,22.462,0.101    c4.625,0.388,9.327,0.111,13.971,0.14c4.542,0.029,10.153,0.794,14.762-0.374c7.105,0.339,14.214,0.362,21.351,0.384    c7.955,0.024,16.019,0.929,23.933,0.388c4.842-0.331,9.393,0.8,13.908-0.478c4.299,0.712,9.225,0.106,13.298,0.081    c4.645-0.029,9.348,0.248,13.971-0.14c7.103-0.595,15.121,0.776,22.462-0.101c3.194,0.371,6.387,0.752,9.646,0.749    c5.728-0.005,11.47,0.112,17.192-0.179c10.845-0.553,21.921-0.024,32.735,0.856c9.534,0.775,19.092,1.133,28.688,1.017    c5.751-0.069,11.283-0.957,16.982-1.359c3-0.211,7.411,0.969,10.074-0.718C454.676,507.804,453.89,500.809,451.74,498.048z     M112.867,482.688c0.454-0.442,8.442-0.447,9.244-0.464c3.856-0.08,7.75-0.169,11.582-0.54c1.489,0.013,3.034-0.018,4.663,0.01    c5.166,0.088,9.846,1.275,14.64,0.021c-0.144,1.227-0.298,2.454-0.433,3.682c-3.602-0.459-7.396,0.641-11.007,0.751    c-6.18,0.188-12.609,0.326-18.779,0.007c-3.468-0.179-6.921-0.273-10.37-0.249C112.43,484.528,112.312,483.228,112.867,482.688z     M89.561,491.639c0.954-1.108,12.109-1.16,13.393-1.137c2.121,0.039,4.707,0.568,6.806-0.2c4.339,0.044,8.6,0.265,13.018,0.439    c6.221,0.246,12.555,0.129,18.779,0.045c3.259-0.044,7.228,0.132,10.492-0.925c-0.048,0.39-0.086,0.782-0.135,1.171    c-0.137,1.066-0.321,2.138-0.466,3.209c-6.658-0.7-13.284,0.993-19.989,0.256c-7.018-0.77-14.631,0.194-21.673,0.703    c-6.782,0.491-13.478-0.56-20.244-0.28C89.645,493.924,89.639,491.548,89.561,491.639z M117.921,504.255    c-10.48,0.41-20.851,1.416-31.391,1.244c-5.32-0.087-10.542-1.024-15.835-1.18c-1.513-0.044-3.801,0.631-5.221,0.024    c-0.634-0.271-1.109-1.04-0.811-1.661c0.201-0.42,0.668-0.633,1.103-0.795c2.497-0.934,4.428-0.643,6.976-0.79    c2.494-0.144,5.041-0.51,7.518-0.8c2.064-0.242,5.253-0.169,7.212-1.464c7.565-0.531,15.016,1.004,22.604,0.442    c7.497-0.554,15.147-1.099,22.623-0.416c5.869,0.537,12.6,0.141,18.588-0.657c0.088,0.887,0.278,1.768,0.645,2.636    c0.395,0.932,0.934,1.706,1.571,2.363C141.613,503.334,129.718,503.794,117.921,504.255z M153.369,478.617    c-4.767-1.446-10.068-1.366-15.014-1.286c-0.125,0.002-0.26,0-0.389-0.001c0.817-2.161,2.078-2.195,5.33-2.671    c3.627-0.531,7.281-0.483,10.895-1.023C153.849,475.209,153.603,476.881,153.369,478.617z M178.799,479.85    c-0.21,6.594-0.665,13.619-0.093,20.286c-5.895,0.02-12.268,0.604-17.827-1.436c-3.341-1.226-1.984-4.296-1.8-7.296    c0.192-3.131,0.315-6.258,0.43-9.389c0.138-3.752-0.021-9.81,2.778-12.659c2.667-2.714,7.346-3.279,10.905-3.544    c2.212-0.165,4.429-0.208,6.651-0.21C178.862,470.192,178.947,475.226,178.799,479.85z M188.259,446.222    c-0.774-3.074-0.252-6.578-0.252-9.686c0-7.403,0.72-14.81,1.227-22.19c0.953-13.895,1.761-27.65,2.916-41.527    c0.632-7.582,1.964-14.931,2.3-22.507c0.357-8.039,0.804-16.114,1.259-24.144c0.791-13.918,1.349-27.918,2.612-41.814    c1.508-16.58,4.018-33.078,5.787-49.621c1.633-15.277,2.387-30.778,3.549-46.108c2.373-31.292,5.078-62.478,5.642-93.911    c0.079-4.354,0.305-8.824-0.366-13.14c-0.266-1.706-0.601-3.166-0.593-4.915c0.014-3.197,0.978-3.575,3.497-5.605    c4.618-3.721,7.754-8.629,5.516-14.627c-1.06-2.839-2.965-3.833-4.972-5.897c-2.742-2.821-1.706-8.325-1.88-12.181    c-0.14-3.091-0.076-6.232,0.063-9.388c0.156-1.277,0.192-2.598,0.203-3.926c0.041-5.039-0.867-14.526,7.5-11.154    c4.662,1.879,1.438,7.261,1.29,11.601c-0.217,6.432-3.038,16.405,1.018,22.031c0.782,1.084,1.865,1.817,2.677,2.852    c1.804,2.3,2.11,5.034,1.769,7.953c-0.521,4.466-2.568,9.248-3.818,13.591c-0.622,2.162,1.121,4.513,3.397,4.458    c2.668-0.063,5.287,0.507,7.971,0.508c3.294,0.001,6.632-0.509,9.899,0.108c1.582,0.299,3.784-0.429,4.06-2.305    c1.573-10.703,1.3-21.551,0.821-32.347c-0.258-5.828-0.898-11.427-0.656-17.317c0.125-3.064,0.283-6.127,0.336-9.195    c0.039-2.246-1.049-8.951,1.083-10.633c0.346-0.031,0.719-0.041,1.148-0.03c1.613,0.041,3.167,0.236,4.769,0.361    c0.769,0.061,1.566,0.205,2.355,0.266c1.424,2.301,0.535,7.999,0.571,10.036c0.055,3.067,0.211,6.13,0.337,9.195    c0.241,5.891-0.398,11.489-0.656,17.317c-0.477,10.796-0.75,21.645,0.822,32.347c0.275,1.877,2.478,2.604,4.06,2.305    c3.267-0.618,6.604-0.106,9.898-0.108c2.684-0.001,5.302-0.571,7.971-0.508c2.276,0.054,4.018-2.296,3.396-4.458    c-1.25-4.344-3.297-9.125-3.818-13.591c-0.341-2.92-0.035-5.654,1.769-7.953c0.812-1.035,1.896-1.768,2.677-2.852    c4.055-5.625,1.235-15.597,1.018-22.029c-0.093-2.754-1.164-6.46-0.005-9.165c1.241-2.898,8.571-4.218,7.655-0.15    c0.384,0.849,0.626,1.754,0.792,2.689c0.105,2.053,0.23,4.116,0.348,6.177c0.011,1.328,0.047,2.649,0.203,3.926    c0.138,3.157,0.203,6.299,0.063,9.388c-0.174,3.856,0.863,9.361-1.88,12.181c-2.007,2.064-3.912,3.057-4.972,5.897    c-2.238,5.998,0.898,10.906,5.516,14.627c2.519,2.03,3.483,2.408,3.497,5.605c0.008,1.749-0.328,3.208-0.593,4.915    c-0.671,4.316-0.445,8.786-0.366,13.14c0.564,31.433,3.269,62.619,5.642,93.911c1.162,15.328,1.916,30.831,3.549,46.108    c1.769,16.542,4.279,33.04,5.787,49.621c1.264,13.896,1.823,27.896,2.612,41.814c0.455,8.03,0.903,16.106,1.259,24.144    c0.336,7.576,1.668,14.925,2.3,22.507c1.155,13.877,1.964,27.632,2.916,41.527c0.506,7.38,1.227,14.787,1.227,22.19    c0,3.107,0.522,6.613-0.252,9.686c-7.128-0.795-14.782,0.211-21.756,0.78c-5.388,0.439-10.719,0.247-16.118,0.491    c-2.898,0.131-6.07,0.208-8.927,0.996c-0.068-1.256-0.215-2.517-0.293-3.857c-0.323-5.504-0.862-10.956-1.407-16.387    c-0.866-8.637-1.8-17.221-3.328-25.7c0.669,0.03,1.39,0.002,2.208-0.14c0.182,0.032,0.362,0.067,0.563,0.072    c8.277,0.234,19.904,2.645,26.766-3.566c2.68-2.426,3.117-6.531,2.791-9.835c-0.562-5.711-0.584-11.588-1.286-17.254    c-1.251-10.096-1.67-20.536-2.442-30.733c-0.892-11.794-2.284-23.53-3.312-35.319c-0.851-9.773-1.58-19.516-2.239-29.284    c-0.411-6.089-0.502-12.132-0.502-18.248c-0.001-5.094-0.72-10.07-0.638-15.176c0.142-8.732-0.664-17.582-1.379-26.281    c-0.762-9.268-2.376-18.818-2.273-28.093c0.095-8.62-1.424-17.141-1.859-25.738c0.114-6.884,0.143-13.766-0.733-20.61    c-0.392-3.058-1.08-5.451-2.265-7.098c0-0.715-0.019-1.245-0.063-1.466c-0.154-0.771-0.912-1.502-1.672-1.672    c-4.268-0.951-8.549-1.289-12.932-1.316c-3.434-0.021-5.195,1.075-6.171,4.458c-1.264,4.381-1.333,9.419-2.031,13.906    c-0.824,5.296-0.845,10.627-0.87,15.972c-0.1,21.538,1.263,43.046,1.711,64.556c0.249,11.989-0.082,24.019-0.16,36.01    c-0.075,11.503,0.663,23.325-0.455,34.771c-1.003,10.263,0.241,20.466,0.217,30.703c-0.025,10.972,0.76,21.736,1.656,32.651    c0.399,4.86,0.929,9.752,1.216,14.617c0.234,3.958-0.002,7.689-0.08,11.652c-0.075,3.881,0.08,8.376,2.295,10.773    c0.302,2.068,0.693,4.113,0.979,6.063c0.925,6.291,1.111,13.049,1.44,19.406c0.266,5.138,0.334,10.28,0.823,15.42    c0.202,2.109,0.491,4.627,0.473,6.962c-1.55,0.042-3.107,0.119-4.685,0.119c-4.396,0-8.919-0.252-13.306,0.02    c-3.656,0.227-8.232-0.309-12.395-0.094c-0.151-2.673-0.367-5.362-0.135-7.838c0.541-5.759,1.469-11.482,2.169-17.217    c1.006-8.248,3.678-18.602,2.664-27.448c0.342-1.969,0.373-4.147,0.335-6.165c-0.078-3.963-0.314-7.694-0.08-11.652    c0.287-4.866,0.816-9.757,1.215-14.617c0.898-10.916,1.682-21.68,1.656-32.651c-0.024-10.237,1.22-20.44,0.217-30.703    c-1.118-11.446-0.38-23.268-0.455-34.771c-0.079-11.991-0.41-24.021-0.16-36.01c0.448-21.51,1.811-43.02,1.711-64.556    c-0.025-5.345-0.048-10.676-0.87-15.972c-0.698-4.487-0.767-9.525-2.03-13.906c-0.975-3.383-2.736-4.479-6.171-4.458    c-4.383,0.027-8.663,0.365-12.932,1.316c-0.76,0.169-1.518,0.9-1.672,1.672c-0.044,0.222-0.063,0.751-0.063,1.466    c-1.185,1.647-1.873,4.038-2.265,7.098c-0.876,6.843-0.849,13.726-0.733,20.61c-0.436,8.598-1.955,17.118-1.859,25.738    c0.103,9.275-1.512,18.825-2.274,28.093c-0.715,8.699-1.521,17.547-1.38,26.281c0.083,5.105-0.637,10.081-0.638,15.176    c-0.001,6.117-0.091,12.159-0.502,18.248c-0.661,9.77-1.388,19.511-2.239,29.284c-1.027,11.788-2.42,23.524-3.312,35.319    c-0.771,10.197-1.191,20.636-2.442,30.733c-0.701,5.666-0.724,11.543-1.286,17.254c-0.326,3.304,0.111,7.409,2.791,9.835    c6.862,6.212,18.489,3.801,26.766,3.566c0.2-0.006,0.382-0.039,0.564-0.072c0.818,0.142,1.538,0.171,2.208,0.14    c-1.529,8.48-2.462,17.062-3.328,25.7c-0.545,5.431-1.084,10.883-1.407,16.387c-0.079,1.34-0.225,2.602-0.293,3.857    c-2.857-0.788-6.028-0.864-8.927-0.996c-5.399-0.244-10.73-0.052-16.118-0.491C203.042,446.434,195.386,445.427,188.259,446.222z     M269.428,246.936c-0.018-5.748,0.129-11.509,0.007-17.255c-0.097-4.581-0.9-9.083-0.866-13.67    c0.147-19.373-1.657-38.738-1.084-58.119c0.132-4.463,1.136-8.741,1.654-13.148c0.23-1.966-0.018-4.14,0.502-6.059    c0.638-2.355,0.049-1.81,2.424-2.265c1.827-0.349,4.675-0.176,6.508-0.043c2.735,0.199,1.951-0.074,2.37,2.106    c0.446,2.317,0.759,4.522,1.219,6.824c0.258,5.804,0.205,11.596,0.44,17.397c0.215,5.287,0.672,10.634,1.062,15.899    c0.33,4.46,0.275,8.861,0.538,13.323c0.974,16.651,3.846,33.441,3.517,50.165c-0.1,5.101,0.509,10.018,0.584,15.088    c0.079,5.383-0.248,10.8,0.013,16.177c0.424,8.766,0.881,17.643,1.899,26.36c2.388,20.449,2.959,40.969,5.145,61.401    c0.984,9.201,1.591,18.86,1.94,28.137c0.217,5.742-3.544,6.132-8.481,6.535c-4.828,0.395-9.312-0.067-14.143-0.204    c-0.554-0.016-1.038,0.078-1.453,0.254c-1.53-2.943,0.207-10.66,0.114-13.071c-0.173-4.466-0.732-9.034-1.18-13.487    c-1.044-10.383-2.302-20.828-2.357-31.303c-0.049-9.231-0.672-18.362-0.665-27.538c0.008-10.203,0.576-20.349,0.502-30.576    C269.557,268.888,269.462,257.912,269.428,246.936z M238.771,395.839c-0.415-0.175-0.9-0.269-1.453-0.254    c-4.831,0.137-9.315,0.599-14.143,0.204c-4.937-0.403-8.698-0.793-8.481-6.535c0.349-9.277,0.956-18.936,1.94-28.137    c2.184-20.433,2.757-40.952,5.145-61.402c1.018-8.717,1.475-17.594,1.899-26.36c0.261-5.377-0.066-10.794,0.013-16.177    c0.074-5.068,0.684-9.987,0.583-15.087c-0.329-16.724,2.543-33.515,3.517-50.165c0.261-4.462,0.206-8.862,0.538-13.323    c0.39-5.265,0.848-10.614,1.062-15.899c0.235-5.801,0.182-11.593,0.44-17.397c0.459-2.301,0.771-4.507,1.219-6.824    c0.42-2.18-0.364-1.906,2.37-2.106c1.833-0.134,4.681-0.306,6.508,0.043c2.375,0.455,1.786-0.091,2.424,2.265    c0.52,1.92,0.272,4.093,0.502,6.059c0.517,4.407,1.521,8.685,1.654,13.148c0.573,19.381-1.23,38.747-1.084,58.119    c0.035,4.587-0.769,9.089-0.866,13.67c-0.122,5.746,0.025,11.507,0.007,17.255c-0.035,10.975-0.13,21.952-0.21,32.927    c-0.074,10.228,0.495,20.373,0.502,30.576c0.007,9.176-0.616,18.307-0.665,27.538c-0.055,10.474-1.313,20.92-2.357,31.303    c-0.448,4.453-1.006,9.021-1.18,13.487C238.563,385.178,240.301,392.896,238.771,395.839z M198.895,481.717    c-0.05,6.283-0.628,12.848-0.083,19.156c-1.427-0.061-2.854-0.119-4.282-0.166c-4.026-0.134-7.91-0.357-11.894-0.491    c0.501-6.361-0.074-12.914-0.043-19.257c0.025-5.15-0.106-10.236-0.249-15.346c4.143,0.042,8.291,0.15,12.42-0.129    c1.468-0.099,2.938-0.229,4.403-0.359c0.337,0.062,0.678,0.117,1.022,0.169C199.243,470.711,198.939,476.209,198.895,481.717z     M219.814,472.224c-0.316,3.452-0.423,6.92-0.707,10.372c-0.521,6.332-0.768,12.609-0.77,18.952    c-1.377-0.008-2.741-0.016-4.068-0.05c-3.721-0.098-7.457-0.268-11.195-0.438c0.575-6.366-0.01-12.995-0.055-19.343    c-0.037-5.152,0.86-10.818,0.296-16.064c3.629,0.303,7.001,0.23,8.501,0.231c2.969,0.002,5.778,0.137,8.61,0.165    C220.033,468.809,219.811,472.261,219.814,472.224z M215.999,458.434c-4.95-0.076-9.992-0.353-14.938-0.252    c-0.835,0.017-1.573,0.025-2.271,0.018c-0.298-0.417-0.709-0.793-1.252-1.102c-2.219-1.266-4.768-3.778-6.648-6.132    c6.626,1.376,13.72,1.185,20.356,1.887c4.633,0.49,9.269,0.029,13.924,0.159c3.862,0.107,6.816,0.78,10.104-0.603    c0.453,2.399,1.43,4.617,2.337,6.861c-3.304-0.658-6.491-0.904-9.928-0.749C223.676,458.701,219.963,458.496,215.999,458.434z     M242.096,480.879c-0.358,6.506-1.139,13.945-0.389,20.616c-3.065-0.171-6.132-0.348-9.195-0.461    c-3.055-0.113-6.154-0.279-9.178,0.105c0.041-6.189,0.005-12.357,0.221-18.543c0.186-5.339,0.732-11.106,0.382-16.587    c0.934-0.033,1.874-0.081,2.834-0.167c3.728-0.333,7.101,0.283,10.231-0.875c2.06,0.058,4.122,0.124,6.183,0.201    C242.194,470.298,242.376,475.765,242.096,480.879z M266.367,469.49c-0.791,4.626-0.858,9.59-1.198,14.283    c-0.438,6.035-1.358,12.311-1.028,18.412c-3.292-0.072-6.583-0.169-9.875-0.197c-2.755-0.024-5.513-0.137-8.271-0.273    c-0.974-7.428-0.114-15.631,0.047-23.007c0.093-4.266,0.746-9.014,0.209-13.406c1.847,0.087,3.694,0.186,5.539,0.32    c5.095,0.368,10.273,0.492,15.399,0.628C266.85,467.496,266.487,468.785,266.367,469.49z M268.518,460.009    c-6.26-0.217-12.539-0.232-18.81-0.564c-2.113-0.112-4.241-0.144-6.372-0.149c-0.44-1.787-1.306-3.417-1.994-5.114    c0.025-0.339,0.031-0.684,0.042-1.028c4.425,0.407,9.017-0.072,13.351-0.202c5.399-0.162,10.975,0.383,16.394-0.097    c-0.725,2.345-2.103,4.444-2.59,6.875C268.52,459.827,268.528,459.913,268.518,460.009z M274.86,502.196    c-1.921,0.06-3.839,0.069-5.758,0.058c-0.194-5.592,0.449-11.251,0.713-16.812c0.188-3.973,0.632-7.954,0.596-11.928    c-0.014-1.599-0.533-4.693-0.69-7.197c0.278,0.008,0.558,0.014,0.835,0.023c4.873,0.147,9.791,1.058,14.411-0.516    c0.086,0.007,0.17,0.011,0.256,0.018c0.96,0.086,1.901,0.134,2.834,0.167c-0.351,5.481,0.196,11.248,0.382,16.587    c0.219,6.279,0.178,12.537,0.222,18.821C284.007,501.383,279.152,502.061,274.86,502.196z M308.919,501.06    c-3.739,0.169-7.475,0.34-11.195,0.438c-1.327,0.035-2.691,0.043-4.068,0.05c-0.001-6.343-0.249-12.619-0.77-18.952    c-0.284-3.452-0.391-6.92-0.707-10.372c0.004,0.037-0.218-3.415-0.61-6.175c2.831-0.029,5.641-0.162,8.61-0.165    c1.499-0.001,4.872,0.072,8.501-0.231c-0.565,5.245,0.333,10.912,0.296,16.064C308.929,488.065,308.344,494.694,308.919,501.06z     M295.995,458.434c-3.964,0.062-7.677,0.267-11.682,0.085c-3.439-0.156-6.625,0.089-9.928,0.749    c0.907-2.244,1.884-4.462,2.337-6.861c3.287,1.383,6.243,0.709,10.104,0.603c4.655-0.129,9.289,0.333,13.924-0.159    c6.636-0.702,13.731-0.511,20.356-1.887c-1.88,2.354-4.429,4.867-6.648,6.132c-0.541,0.309-0.953,0.686-1.251,1.102    c-0.699,0.007-1.437,0-2.271-0.018C305.986,458.082,300.944,458.357,295.995,458.434z M329.399,480.959    c0.031,6.343-0.544,12.896-0.043,19.257c-3.985,0.135-7.868,0.358-11.894,0.491c-1.427,0.047-2.854,0.106-4.282,0.166    c0.546-6.307-0.033-12.873-0.083-19.156c-0.044-5.51-0.348-11.007-1.292-16.423c0.342-0.052,0.683-0.107,1.022-0.169    c1.465,0.13,2.935,0.26,4.403,0.359c4.129,0.279,8.276,0.17,12.42,0.129C329.506,470.723,329.374,475.809,329.399,480.959z     M351.114,498.7c-5.56,2.04-11.931,1.456-17.827,1.436c0.571-6.667,0.117-13.692-0.093-20.286    c-0.148-4.624-0.063-9.658-1.043-14.246c2.22,0.002,4.439,0.045,6.651,0.21c3.558,0.265,8.238,0.83,10.905,3.544    c2.798,2.848,2.639,8.907,2.778,12.659c0.116,3.131,0.237,6.258,0.43,9.389C353.098,494.403,354.455,497.475,351.114,498.7z     M409.04,490.502c1.284-0.024,12.439,0.03,13.393,1.137c-0.079-0.092-0.085,2.286,0.02,3.281    c-6.766-0.28-13.464,0.771-20.244,0.28c-7.042-0.51-14.655-1.475-21.673-0.703c-6.706,0.737-13.332-0.956-19.989-0.256    c-0.146-1.071-0.329-2.144-0.466-3.208c-0.05-0.389-0.088-0.781-0.135-1.171c3.265,1.058,7.234,0.882,10.492,0.925    c6.224,0.083,12.559,0.201,18.779-0.045c4.419-0.174,8.679-0.396,13.018-0.439C404.334,491.069,406.92,490.541,409.04,490.502z     M378.301,481.685c3.831,0.37,7.726,0.459,11.582,0.54c0.802,0.017,8.79,0.021,9.244,0.464c0.554,0.54,0.438,1.841,0.459,3.217    c-3.447-0.024-6.901,0.07-10.37,0.249c-6.171,0.318-12.599,0.181-18.779-0.007c-3.612-0.11-7.405-1.21-11.007-0.751    c-0.135-1.228-0.289-2.455-0.432-3.682c4.794,1.253,9.474,0.067,14.64-0.021C375.266,481.666,376.812,481.698,378.301,481.685z     M368.697,474.659c3.253,0.476,4.514,0.51,5.331,2.671c-0.129,0-0.264,0.002-0.389,0.001c-4.946-0.08-10.248-0.16-15.014,1.286    c-0.232-1.736-0.479-3.408-0.823-4.981C361.415,474.176,365.069,474.127,368.697,474.659z M446.52,504.342    c-1.421,0.606-3.709-0.069-5.221-0.024c-5.293,0.156-10.515,1.093-15.835,1.18c-10.541,0.173-20.911-0.833-31.391-1.244    c-11.798-0.461-23.692-0.922-35.583-1.055c0.638-0.657,1.177-1.431,1.571-2.363c0.367-0.869,0.557-1.749,0.645-2.636    c5.988,0.798,12.72,1.194,18.588,0.657c7.476-0.683,15.126-0.138,22.623,0.416c7.588,0.562,15.039-0.973,22.604-0.442    c1.959,1.295,5.148,1.222,7.212,1.464c2.476,0.29,5.023,0.656,7.518,0.8c2.548,0.147,4.479-0.144,6.976,0.791    c0.435,0.163,0.903,0.377,1.103,0.795C447.629,503.303,447.154,504.072,446.52,504.342z"/>
	</g>
</g>
<g>
	<g>
		<path d="M297.118,423.007c-0.16-2.711-0.607-5.855-3.415-7.03c-1.542-0.645-2.907-0.317-4.422,0.16    c-1.318,0.414-3.245,0.652-4.488,1.273c-3.211,1.608-1.824,7.348-1.844,10.128c-0.025,3.343-0.805,9.894,2.177,12.209    c2.55,1.98,7.594,1.069,10.201-0.273c2.085-1.073,2.531-2.904,2.538-4.937C298.34,430.796,297.333,426.625,297.118,423.007z     M293.315,436.591c-0.85,0.562-4.438,1.067-5.275,0.551c-2.129-1.312-1.313-7.551-1.29-9.603c0.021-1.908-0.457-3.931,0.052-5.808    c0.419-1.542,2.389-1.917,3.751-1.989c0.612-0.032,1.685-0.145,2.218,0.217c0.882,0.6,0.751,1.717,0.926,2.616    c0.787,4.023-0.017,8.555,0.781,12.574C294.324,435.665,294.001,436.137,293.315,436.591z"/>
	</g>
</g>
<g>
</g>
<g>
</g>
<g>
</g>
<g>
</g>
<g>
</g>
<g>
</g>
<g>
</g>
<g>
</g>
<g>
</g>
<g>
</g>
<g>
</g>
<g>
</g>
<g>
</g>
<g>
</g>
<g>
</g>
</svg>
