<?xml version="1.0" encoding="iso-8859-1"?>
<!-- Generator: Adobe Illustrator 19.0.0, SVG Export Plug-In . SVG Version: 6.00 Build 0)  -->
<svg xmlns="http://www.w3.org/2000/svg" xmlns:xlink="http://www.w3.org/1999/xlink" version="1.1" id="Layer_1" x="0px" y="0px" viewBox="0 0 512.004 512.004" style="enable-background:new 0 0 512.004 512.004;" xml:space="preserve">
<g>
	<g>
		<path d="M230.696,314.936c-1.432-3.444-3.995-5.757-7.647-6.425c-5.295-0.967-8.076,1.654-9.932,6.325    c-1.847,4.646-4.116,9.704-0.768,14.371c1.993,2.779,6.229,4.699,9.654,3.889c3.453-0.816,5.88-4.567,7.338-7.516    C230.974,322.276,232.173,318.489,230.696,314.936z M225.999,322.25c-0.902,1.885-2.075,4.028-3.664,5.423    c-2.403,2.108-5.974,0.375-7.329-2.14c-1.938-3.598,0.463-9.041,3.241-12.621c0.084-0.053,0.163-0.111,0.251-0.161    c1.732-0.978,4.956-0.588,6.518,0.824C227.664,315.972,227.403,319.314,225.999,322.25z"/>
	</g>
</g>
<g>
	<g>
		<path d="M505.697,429.232c-2.182-0.195-4.419-0.141-6.661-0.026c0.394-3.109-0.544-6.848-1.072-9.266    c-1.413-6.47-8.119-4.895-13.527-5.246c-1.296-0.084-2.584-0.139-3.873-0.181c0.247-0.676,0.402-1.425,0.497-2.263    c0.593-5.177-0.206-10.823-0.258-16.037c-0.084-8.497,0.518-17.637-1.208-26.034c6.418-1.045,8.803-4.87,11.508-10.591    c1.321-2.792,3.432-5.9,2.186-9.064c-1.409-3.578-4.96-3-8.265-3.031c-0.416-0.035-0.832-0.06-1.252-0.065    c-1.181-0.014-2.347-0.026-3.503,0.003c-0.342-0.011-0.676-0.019-1.03-0.04c-0.826-0.045-1.648-0.102-2.471-0.157    c0.393-8.021,1.242-16.144,0.341-24.108c-0.938-8.282-1.008-16.944-1.357-25.272c-0.699-16.729-0.904-33.469-1.297-50.251    c-0.353-15.125-1.044-30.281-1.805-45.38c-0.421-8.345-1.629-16.626-1.776-25.007c-0.128-7.314,0.35-14.65-0.431-21.935    c-0.738-6.88-3.165-11.646-6.773-17.44c-3.675-5.901-6.658-12.621-10.749-18.197c-9.194-12.533-18.63-25.102-27.95-37.526    c-4.036-5.38-8.964-10.744-12.469-16.507c-3.315-5.449-3.435-8.289-10.289-7.633c-4.32,0.414-11.097-1.67-14.842,1.105    c-4.685,3.471-0.459,9.059,0.108,13.34c1.738,13.144,2.21,26.23,3.196,39.392c0.552,7.367,1.168,14.741,1.87,22.078    c0.452,4.724-0.025,9.189,0.695,13.644c-2.427,0.091-4.695,0.693-6.05,2.316c-2.809,3.367-1.405,10.383-1.441,14.464    c-0.254,28.833,1.724,57.553,1.585,86.392c-0.079,16.359-0.219,32.72-0.187,49.079c0.012,6.525-1.046,12.961-0.468,19.498    c-0.225,2.754-0.075,5.655-0.249,7.48c-0.325,3.409,0.178,6.744,0.033,10.164c-0.132,3.102-0.4,6.218-0.143,9.302    c-0.629-0.001-1.257-0.003-1.886-0.005c-3.018-0.008-6.003-0.17-8.886,0.464c-1.964-0.514-4.523,1.041-3.837,3.618    c1.86,6.988,5.463,14.597,11.309,19.115c0.885,0.684,1.812,1.199,2.767,1.609c-1.067,8.347-0.864,16.658-0.86,25.107    c0.003,5.466-0.526,11.917,2.373,16.731c-1.995-0.043-3.987-0.137-5.974-0.333c-6.554-0.645-13.288-0.977-19.984-1.138    c1.108-5.054,1.202-12.24-2.281-14.081c-3.068-1.623-8.864-0.417-12.167-0.453c-5.037-0.057-10.074-0.129-15.111-0.149    c0.712-4.031,1.025-9.889-1.288-12.232c-1.803-1.827-5.173-1.004-7.355-0.962c-3.318,0.064-6.627-0.19-9.939-0.323    c2.162-9.134,1.198-19.672,1.075-28.719c-0.159-11.775-1.859-23.958-4.338-35.457c-2.406-11.16-7.189-22.074-14.125-31.19    c-2.993-3.933-6.415-7.435-10.538-10.161c-5.566-3.68-11.508-6.578-13.519-13.507c-0.089-0.304-0.214-0.558-0.353-0.789    c4.296-1.114,8.236-3.604,10.533-7.091c2.145-3.255,3.503-7.075,3.886-10.957c0.287-2.904,0.422-7.626-1.225-10.169    c-2.561-3.952-11.386-2.604-15.325-2.783c-0.018-0.001-0.039-0.002-0.057-0.003c0.992-1.878,1.576-4.012,2.557-5.913    c1.313-2.544,3.006-4.859,4.314-7.409c0.801-1.561,1.725-3.484,1.819-5.344c3.416-0.084,7.404-0.406,9.073-3.806    c1.537-3.129,2.531-9.189,0.128-12.128c-2.058-2.516-6-2.385-8.937-2.546c-4.019-0.22-8.266,0.238-12.39-0.056    c-4.871-0.347-9.866,0.208-14.832,0.067c-5.703-0.162-11.414-0.324-17.114-0.011c-5.31,0.291-9.505,0.424-10.275,5.992    c-0.698,5.044-0.62,10.164,5.076,11.722c1.826,0.5,3.648,0.721,5.465,0.765c0.093,1.86,1.017,3.782,1.818,5.344    c1.308,2.55,3.002,4.866,4.314,7.409c0.981,1.901,1.565,4.034,2.557,5.913c-0.018,0.001-0.039,0.002-0.057,0.003    c-4.972,0.226-14.54-1.653-16.275,4.443c-1.763,6.2,0.148,14.208,3.612,19.465c2.297,3.487,6.237,5.977,10.533,7.091    c-0.14,0.232-0.265,0.485-0.353,0.789c-2.011,6.929-7.954,9.827-13.519,13.507c-4.122,2.725-7.544,6.227-10.538,10.161    c-6.936,9.115-11.719,20.029-14.125,31.19c-2.48,11.499-4.179,23.682-4.338,35.458c-0.123,9.048-1.087,19.585,1.075,28.719    c-3.312,0.133-6.62,0.386-9.939,0.323c-2.181-0.042-5.552-0.865-7.355,0.962c-2.313,2.344-2,8.202-1.288,12.232    c-5.037,0.019-10.074,0.092-15.111,0.149c-3.303,0.037-9.099-1.17-12.167,0.453c-3.484,1.842-3.388,9.027-2.281,14.081    c-6.697,0.16-13.43,0.493-19.984,1.138c-1.987,0.195-3.979,0.29-5.974,0.333c2.899-4.813,2.371-11.263,2.373-16.731    c0.005-8.449,0.208-16.76-0.86-25.107c0.955-0.41,1.883-0.925,2.767-1.609c5.846-4.518,9.45-12.127,11.309-19.115    c0.686-2.576-1.872-4.132-3.837-3.618c-2.883-0.635-5.868-0.472-8.887-0.464c-0.629,0.001-1.257,0.003-1.886,0.005    c0.257-3.084-0.011-6.2-0.143-9.302c-0.145-3.42,0.358-6.755,0.033-10.164c-0.174-1.825-0.024-4.726-0.249-7.48    c0.579-6.537-0.48-12.973-0.468-19.498c0.032-16.359-0.108-32.72-0.187-49.079c-0.14-28.837,1.84-57.559,1.585-86.392    c-0.036-4.081,1.368-11.097-1.441-14.464c-1.355-1.624-3.625-2.224-6.05-2.316c0.72-4.455,0.243-8.921,0.695-13.644    c0.702-7.337,1.318-14.711,1.87-22.078c0.987-13.162,1.458-26.248,3.196-39.392c0.565-4.281,4.793-9.869,0.108-13.34    c-3.746-2.775-10.524-0.69-14.842-1.105c-6.854-0.657-6.974,2.184-10.289,7.633C96,71.376,91.071,76.74,87.035,82.12    c-9.319,12.424-18.755,24.993-27.949,37.526c-4.091,5.575-7.073,12.295-10.749,18.197c-3.609,5.793-6.036,10.559-6.773,17.44    c-0.781,7.284-0.303,14.621-0.432,21.935c-0.148,8.381-1.356,16.663-1.776,25.007c-0.762,15.099-1.451,30.255-1.805,45.38    c-0.392,16.783-0.597,33.523-1.297,50.251c-0.349,8.328-0.419,16.99-1.357,25.272c-0.902,7.964-0.052,16.087,0.341,24.108    c-0.823,0.055-1.646,0.111-2.471,0.157c-0.354,0.019-0.688,0.027-1.03,0.04c-1.156-0.029-2.322-0.016-3.503-0.003    c-0.419,0.005-0.837,0.03-1.253,0.065c-3.305,0.031-6.857-0.548-8.265,3.031c-1.246,3.164,0.865,6.271,2.186,9.064    c2.706,5.721,5.092,9.547,11.508,10.591c-1.726,8.397-1.123,17.538-1.208,26.034c-0.051,5.214-0.85,10.86-0.258,16.037    c0.096,0.837,0.25,1.586,0.497,2.263c-1.288,0.043-2.578,0.096-3.873,0.181c-5.408,0.352-12.116-1.223-13.527,5.246    c-0.528,2.417-1.466,6.156-1.072,9.266c-2.243-0.114-4.478-0.169-6.661,0.026c-7.367,0.66-6.478,10.065-6,15.509    c0.692,7.886,4.994,9.075,12.315,9.015c10.104-0.083,20.138,0.51,30.238,0.077c22.298-0.956,44.72,1.329,66.975,0.27    c11.188-0.533,22.433-0.09,33.635-0.589c9.765-0.435,19.94-0.959,29.657-0.276c5.44,0.382,10.874-0.31,16.317-0.294    c6.768,0.018,13.535,0.019,20.303,0.031c11.621,0.017,23.438,0.534,35.029-0.66c5.831,0.203,11.648,0.526,17.483,0.539    c3.65,0.009,7.3-0.019,10.951-0.049c9.655,0.552,19.417,0.184,29.043,0.169c6.768-0.01,13.535-0.011,20.303-0.031    c5.444-0.016,10.876,0.676,16.317,0.294c9.718-0.682,19.892-0.159,29.656,0.276c11.202,0.5,22.447,0.058,33.635,0.589    c22.254,1.058,44.677-1.227,66.975-0.27c10.099,0.433,20.134-0.16,30.238-0.077c7.321,0.06,11.623-1.129,12.315-9.015    C512.175,439.298,513.065,429.892,505.697,429.232z M468.713,307.075c0.236,6.969,1.137,13.927,1.358,20.899    c0.036,1.153,0.034,2.305,0.035,3.456c-2.759-0.36-6.678-0.907-7.617-1.044c-5.064-0.735-10.172-1.457-15.201-2.372    c-5.772-1.05-11.625-1.808-17.349-3.103c-4.098-0.928-10.491-1.196-14.383-3.248c0.05-3.032,0.041-6.069,0.005-9.118    c-0.043-3.626-0.153-7.233-0.287-10.835c2.484,0.123,5.457-0.619,7.18-0.762c5.421-0.45,10.846-0.584,16.245-1.054    c9.708-0.847,20.033-0.655,29.565-3.007C468.437,300.287,468.598,303.682,468.713,307.075z M470.075,334.664    c-0.082,4.005-0.273,8.012-0.366,12.016c-1.942-0.176-3.883-0.362-5.827-0.563c-5.575-0.577-11.319-0.349-16.921-0.262    c-5.11,0.078-9.96-0.337-15.023-0.602c-4.827-0.253-10.316,0.279-15.147,0.76c-0.894,0.089-1.787,0.148-2.682,0.195    c0.933-4.961,0.729-10.363,1.069-15.289c0.108-1.563,0.188-3.126,0.25-4.69c2.414,0.935,5.62,1.034,7.625,1.464    c6.682,1.43,13.412,2.452,20.13,3.661c5.757,1.037,11.63,2.039,17.414,2.758C463.763,334.506,466.971,334.988,470.075,334.664z     M467.167,267.232c-0.033,8.676,0.442,17.339,0.902,25.988c-2.563-0.014-5.211,0.501-7.678,0.697    c-5.948,0.474-11.863,0.73-17.799,1.143c-5.114,0.355-10.189,0.653-15.312,0.977c-3.11,0.196-6.215,0.563-9.328,0.698    c-0.535,0.023-1.821,0.26-2.861,0.345c-0.068-1.673-0.139-3.343-0.206-5.016c0.051-7.232-0.094-14.465-0.322-21.689    c4.675,0.128,9.669-2.11,14.089-3.293c5.462-1.461,11.005-2.686,16.481-4.18c7.189-1.963,15.274-3.791,21.987-7.474    C467.159,259.361,467.183,263.294,467.167,267.232z M467.083,251.943c-0.9,0.137-1.817,0.261-2.47,0.464    c-1.552,0.484-3.009,1.28-4.552,1.776c-4.937,1.587-10.097,2.882-15.118,4.268c-10.112,2.793-20.403,4.778-30.523,7.517    c-0.115-3.146-0.242-6.291-0.377-9.433c-0.335-7.727-0.714-15.452-1.096-23.178c9.057-3.936,17.565-10.161,26.369-14.789    c8.948-4.704,17.805-9.416,26-15.207C466.199,219.549,466.855,235.717,467.083,251.943z M463.801,161.02    c0.232,7.343-0.164,14.674,0.305,22.013c0.359,5.616,0.694,11.226,1.011,16.833c-3.982,1.376-8.136,4.23-11.147,6.089    c-4.577,2.825-9.542,5.222-14.338,7.744c-8.998,4.732-18.402,9.338-26.918,14.91c-0.468-9.437-0.932-18.876-1.329-28.32    c2.509-1.35,4.891-4.974,6.384-6.398c5.239-4.998,9.891-10.474,14.789-15.788c5.927-6.432,12.164-12.98,18.427-19.071    c3.413-3.319,7.432-6.874,10.129-11.06C462.872,152.03,463.649,156.213,463.801,161.02z M442.48,117.429    c1.586,2.465,3.831,4.459,5.375,6.916c3.831,6.093,6.812,12.824,10.736,18.912c0.433,0.67,0.828,1.339,1.199,2.008    c-3.535,3.949-7.516,7.689-11.38,11.196c-4.994,4.533-9.39,9.859-14.254,14.56c-4.805,4.644-9.351,9.577-13.909,14.439    c-2.893,3.086-6.116,5.913-9.1,8.933c-0.224-5.789-0.421-11.58-0.565-17.376c-0.07-2.815-0.077-6.023-0.21-9.271    c2.793-3.039,3.942-8.518,5.625-12.175c2.809-6.108,5.663-11.952,8.748-17.892c3.326-6.403,6.991-12.645,10.104-19.137    c0.924-1.928,2.66-4.537,3.836-7.176C439.955,113.373,441.179,115.409,442.48,117.429z M392.165,64.489    c0.715-0.716,6.679,0.351,7.823,0.308c0.717-0.027,1.56-0.206,2.297-0.208c2.849-0.006,2.363,0.018,4.137,2.326    c1.637,2.129,3.056,4.389,4.77,6.489c8.474,10.374,15.521,21.777,23.709,32.446c0.51,0.664,0.981,1.347,1.457,2.026    c-6.289,8.884-10.501,19.572-15.882,29.027c-3.927,6.897-7.854,14.221-11.058,21.679c-0.25-1.291-0.539-2.548-0.929-3.703    c-1.135-3.372-3.961-5.528-7.329-6.352c-0.916-0.225-2.027-0.464-3.223-0.654c0.254-5.176,0.788-10.402,0.365-15.561    c-0.542-6.593-0.973-13.231-1.468-19.84c-1.046-13.967-1.624-27.819-3.255-41.782C393.474,69.789,391.918,64.737,392.165,64.489z     M393.292,153.235c2.059-0.545,7.818,0.702,9.123,2.406c1.407,1.837,1.156,5.851,1.423,8.103    c1.46,12.321,0.639,24.903,1.566,37.279c0.93,12.417,1.365,24.945,2.59,37.356c0.598,6.055,1.125,12.092,1.59,18.156    c0.404,5.279,0.187,10.746,0.886,15.979c0.659,4.933,0.891,9.96,0.921,15.014c-0.433,2.483-0.63,5.025-0.46,7.842    c0.099,1.625,0.173,3.244,0.232,4.86c-0.134,4.253-0.283,8.483-0.315,12.651c-0.028,3.742-0.193,7.464-0.386,11.181    c-0.407,3.303-0.863,6.601-1.131,9.935c-0.294,3.663-1.859,8.561-0.913,12.331c-2.296-0.006-4.593-0.044-6.893-0.056    c-2.824-0.015-5.648-0.016-8.472-0.022c0.117-1.087,0.174-2.201,0.199-3.323c0.086-0.29,0.146-0.598,0.146-0.949    c-0.007-7.448,0.419-14.927-0.42-22.329c-0.82-7.232,0.413-14.505,0.383-21.753c-0.069-16.477-0.151-32.956-0.208-49.435    c-0.09-25.965-1.927-51.861-1.851-77.812c0.01-3.519-0.001-7.036-0.053-10.555C391.207,157.208,390.1,154.08,393.292,153.235z     M386.701,365.294c-0.548-0.346-1.096-0.777-1.648-1.307c-3.044-2.93-4.846-7.13-6.261-11.036c1.55,0.006,3.154-0.143,4.77-0.146    c5.988-0.015,11.975-0.045,17.961-0.045c9.927,0,19.821-1.234,29.693-1.259c5.222-0.014,10.444,0.673,15.744,0.553    c5.696-0.129,11.352-0.086,17.041,0.2c5.408,0.271,10.809,1.062,16.253,0.973c2.583-0.042,5.127-0.604,7.648-1.264    c0.362,0.075,0.606,0.162,0.653,0.265c0.33,0.73-2.139,3.784-2.491,4.415c-1.106,1.982-1.929,4.79-3.786,6.235    c-2.263,1.763-7.209,1.628-10.058,1.922c-2.972,0.308-5.966,0.564-8.948,0.726c-6.777,0.368-13.526,0.577-20.32,0.766    c-12.572,0.352-25.529,1.884-38.111,0.695c-2.64-0.25-4.986-0.689-7.685-0.598C393.095,366.524,389.884,367.305,386.701,365.294z     M474.872,392.613c0.12,3.894-0.083,7.823-0.168,11.716c-0.043,1.956-0.275,3.996-0.127,5.941    c0.177,2.323,0.581,1.306-1.005,1.949c-5.228,2.118-14.217,0.255-19.878,0.093c-6.323-0.182-12.594-0.081-18.909-0.141    c-6.039-0.058-12.09-0.065-18.127,0.186c-3.288,0.136-6.595-0.187-9.88-0.074c-3.34,0.115-7.935,0.929-11.038-0.36    c-6.567-2.727-4.187-15.492-4.183-21.134c0.002-4.292-0.219-8.641,0.049-12.922c0.118-1.896,0.431-3.707,0.594-5.522    c3.504,0.16,7.146-0.235,10.601,0.044c7.945,0.64,16.606,0.754,24.589,0.404c4.104-0.179,7.996-0.791,12.162-0.73    c4.903,0.073,9.798,0.344,14.704,0.305c7.086-0.056,14.258-0.71,21.317-1.627C474.23,377.88,474.65,385.428,474.872,392.613z     M274.888,277.62c4.696,3.496,10.231,6.372,13.718,10.233c8.017,8.875,13.449,20.074,16.142,31.692    c2.852,12.3,4.595,25.299,4.643,37.944c0.025,6.39,0.096,12.759-0.207,19.121c-0.111,2.336-0.308,4.433-0.1,6.507    c-7.549-0.075-15.193,0.12-22.722,0.355c-2.008,0.062-4.069,0.058-6.152,0.053c0.007-0.131,0.005-0.267-0.002-0.4    c0.559-4.334,0.082-8.915,0.05-13.249c-0.043-5.851-0.086-11.703-0.129-17.554c-0.076-10.268-1.139-20.129-2.213-30.32    c-1.033-9.809-2.254-20.411-4.96-29.939c-1.142-4.022-3.365-7.731-5.656-11.2c-0.949-1.438-1.805-3.026-3.009-4.274    C267.779,277.101,271.384,277.236,274.888,277.62z M266.274,349.708c-0.324-2.14-0.656-4.66-2.808-5.683    c-1.488-0.707-3.667-0.311-5.245-0.311c-2.587,0.001-5.239-0.302-7.815-0.015c-9.248,1.033-6.623,10.929-6.586,17.915    c0.04,7.316,0.176,14.828,1.264,22.078c-0.709,0.06-1.417,0.115-2.125,0.182c-1.939-0.19-3.907-0.283-5.881-0.32    c-0.01-0.067-0.009-0.129-0.024-0.199c-1.03-4.853-0.302-10.474-0.338-15.409c-0.041-5.583-0.084-11.168-0.124-16.751    c-0.067-9.437,0.614-18.663,1.751-28.032c1.15-9.483,2.186-19.194,4.248-28.549c1.029-4.669,3.227-8.53,5.469-12.709    c1.041-1.942,2.131-3.583,3.365-5.303c0.629-0.011,1.221-0.026,1.734-0.011c2.498,0.069,4.957,0.098,7.401-0.026    c1.245,1.735,2.343,3.385,3.392,5.34c2.242,4.18,4.44,8.041,5.469,12.709c2.062,9.354,3.098,19.065,4.248,28.549    c1.137,9.369,1.817,18.595,1.751,28.032c-0.04,5.584-0.083,11.168-0.124,16.751c-0.035,4.909,0.681,10.494-0.325,15.329    c-2.628-0.254-5.354-0.077-7.944-0.106c-0.048-0.187-0.122-0.361-0.225-0.516c-0.886-5.018-0.041-10.99-0.086-16.036    C266.664,361.056,267.107,355.215,266.274,349.708z M262.549,383.159c-4.129,0.019-8.268,0.112-12.387,0.223    c-0.908,0.024-1.821,0.083-2.733,0.141c0.075-4.418-0.032-8.858-0.158-13.27c-0.112-3.969-0.278-7.896-0.257-11.872    c0.01-1.927-0.277-4.408,0.036-6.308c0.633-3.844,1.882-5.01,6.015-4.991c1.865,0.009,4.384-0.166,6.134,0.285    c2.59,0.668,2.737,0.467,3.432,3.622c0.85,3.862,0.137,8.666,0.104,12.625C262.686,369.696,261.534,377.048,262.549,383.159z     M245.464,264.021c0.372,0.002,0.742-0.03,1.112-0.05c2.831,0.338,5.765,0.382,8.414,0.422c3.822,0.059,7.736,0.192,11.535-0.3    c-0.171,0.458-0.244,0.979-0.154,1.559c0.441,2.857,1.691,5.227,3.411,7.298c-0.41-0.045-0.819-0.09-1.22-0.136    c-1.84-0.211-3.604-0.525-5.297-0.571c-2.432-0.45-5.211-0.175-7.329-0.151c-2.134,0.024-4.331-0.057-6.467,0.15    c-1.91-0.043-3.915,0.332-6.018,0.573c-0.401,0.045-0.81,0.091-1.22,0.136c1.721-2.071,2.972-4.441,3.411-7.298    C245.737,265.043,245.655,264.496,245.464,264.021z M228.64,207.44c0.417,0.276-1.131-5.365-0.595-6.299    c0.839-1.463,11.619-1.289,13.938-1.506c1.258-0.118,2.651-0.161,4.058-0.262c1.981,0.248,4.013,0.296,5.859,0.408    c4.917,0.296,10.418,0.763,15.348-0.326c0.964,0.055,1.905,0.099,2.78,0.181c3.459,0.324,6.951,0.122,10.412,0.508    c1.402,0.157,3.51,0.226,4.09,1.776c0.619,1.654-0.52,4.343-1.821,5.371c-2.261,1.784-5.64,0.714-8.253,0.829    c-2.831,0.125-5.609,0.445-8.377,0.845c-2.608-0.008-5.219-0.027-7.827,0.002c-0.518,0.006-1.466-0.057-2.246-0.001    c-0.78-0.057-1.729,0.007-2.246,0.001c-2.608-0.03-5.218-0.01-7.827-0.002c-2.767-0.4-5.546-0.72-8.377-0.845    C235.039,208.008,230.864,208.91,228.64,207.44z M238.984,215.066c-0.209-0.734-0.191-1.251-0.019-1.624    c1.629-0.206,3.253-0.502,4.871-0.837c1.944-0.002,3.889-0.003,5.833-0.003c1.949,0,4.259,0.336,6.336,0.04    c2.077,0.296,4.388-0.04,6.336-0.04c1.944,0,3.889,0.001,5.833,0.003c1.617,0.335,3.242,0.631,4.871,0.837    c0.172,0.371,0.191,0.89-0.019,1.624c-1.301,4.555-7.635,10.426-7.258,15.77c-0.227,0.425-0.466,0.848-0.681,1.28    c-2.978-0.192-6.22-0.313-9.083,0.223c-2.596-0.487-5.504-0.43-8.245-0.274c-0.419-0.95-0.992-1.875-1.505-2.666    c-0.029-0.047-0.056-0.091-0.085-0.137C245.43,224.362,240.159,219.178,238.984,215.066z M233.969,251.918    c-2.379-3.211-2.397-6.964-2.972-10.794c-0.164-1.088-0.195-2.094-0.277-3.058c2.901,0.813,6.888,0.688,8.53,0.728    c3.736,0.091,7.595-0.322,11.356-0.332c1.841-0.005,3.657,0.065,5.398-0.154c1.741,0.219,3.558,0.15,5.398,0.154    c3.762,0.009,7.622,0.422,11.356,0.332c1.642-0.04,5.629,0.085,8.53-0.728c-0.083,0.965-0.115,1.97-0.277,3.058    c-0.573,3.83-0.592,7.583-2.972,10.794c-2.753,3.715-7.008,5.257-11.536,5.234c-1.958-0.01-3.603-0.19-5.181-0.001    c-3.313-0.56-6.903-0.164-10.3,0.048c-1.683-0.262-3.422-0.057-5.52-0.047C240.978,257.175,236.722,255.633,233.969,251.918z     M202.62,357.49c0.049-12.645,1.792-25.644,4.643-37.944c2.693-11.617,8.126-22.816,16.142-31.692    c3.487-3.861,9.022-6.737,13.718-10.233c3.503-0.384,7.108-0.519,10.597-1.031c-1.204,1.248-2.06,2.837-3.009,4.274    c-2.292,3.469-4.514,7.178-5.656,11.2c-2.706,9.528-3.925,20.13-4.96,29.939c-1.074,10.191-2.137,20.052-2.213,30.32    c-0.043,5.851-0.086,11.703-0.129,17.554c-0.032,4.333-0.508,8.914,0.05,13.249c-0.007,0.132-0.009,0.269-0.002,0.4    c-2.084,0.005-4.145,0.009-6.152-0.053c-7.53-0.235-15.173-0.43-22.722-0.355c0.208-2.073,0.011-4.171-0.1-6.507    C202.525,370.248,202.596,363.879,202.62,357.49z M185.752,388.654c0.02-0.043,0.032-0.076,0.045-0.112    c0.164,0.048,0.426,0.072,0.839,0.041c7.171-0.522,14.701-0.68,21.887-0.341c7.014,0.332,14.037,0.284,21.046,0.628    c2.013,0.099,4.079,0.192,6.156,0.234c4.54,0.655,10.121-0.344,13.798-0.445c4.995-0.137,10.031-0.066,15.026-0.124    c0.506-0.006,1.029,0,1.553,0.006c5.357,0.847,11.021,0.589,16.34,0.328c7.01-0.345,14.032-0.296,21.046-0.628    c7.186-0.34,14.716-0.181,21.887,0.341c0.412,0.03,0.676,0.007,0.838-0.041c0.015,0.036,0.025,0.069,0.045,0.112    c0.672,1.428,0.253,3.592,0.315,5.098c0.044,1.091,0.156,2.047,0.38,2.961c-9.915,0.01-19.8,0.123-29.705,0.385    c-9.06,0.24-18.067,0.354-27.069,1.154c-5.534-0.517-11.201-0.094-16.714-0.05c-3.161,0.025-6.312,0.199-9.464,0.255    c-9.726-0.989-19.452-1.1-29.241-1.359c-9.905-0.261-19.79-0.374-29.705-0.385c0.225-0.914,0.336-1.869,0.38-2.961    C185.499,392.245,185.079,390.082,185.752,388.654z M155.518,402.417c0.39-0.595,6.794,0.002,7.723,0.01    c9.706,0.083,19.408,0.181,29.115,0.181c8.814,0,17.662,0.091,26.463,0.474c5.632,0.244,11.357,0.011,17.063-0.332    c5.203,1.865,12.786,0.625,17.585,0.648c6.86,0.034,14.376,0.653,21.215-0.737c6.185,0.388,12.403,0.685,18.512,0.42    c8.801-0.383,17.649-0.474,26.463-0.474c9.706,0,19.408-0.098,29.115-0.181c0.929-0.008,7.333-0.605,7.723-0.01    c0.061,0.094-0.336,4.183-0.318,4.885c0.04,1.517-0.008,2.785,0.098,4.01c-1.846-0.023-3.687-0.037-5.514-0.041    c-11.581-0.023-23.191,0.271-34.733-0.369c-3.848-0.213-8.028-0.518-12.25-0.637c-16.114-1.235-32.703,0.891-48.844,0.727    c-9.713-0.099-19.446-0.351-29.162-0.21c-1.793,0.026-3.693-0.031-5.629-0.097c-7.883-0.967-16.648-0.201-24.156,0.217    c-11.542,0.64-23.152,0.346-34.733,0.369c-1.827,0.003-3.669,0.019-5.514,0.041c0.107-1.224,0.058-2.492,0.098-4.01    C155.854,406.599,155.457,402.512,155.518,402.417z M120.762,160.098c-0.052,3.519-0.064,7.036-0.053,10.555    c0.076,25.951-1.762,51.847-1.851,77.812c-0.057,16.479-0.137,32.956-0.208,49.435c-0.031,7.248,1.202,14.521,0.383,21.753    c-0.839,7.401-0.413,14.881-0.42,22.329c0,0.351,0.061,0.66,0.146,0.949c0.026,1.122,0.082,2.236,0.199,3.323    c-2.824,0.006-5.648,0.007-8.472,0.022c-2.299,0.011-4.597,0.051-6.893,0.056c0.946-3.77-0.619-8.667-0.913-12.331    c-0.268-3.334-0.723-6.631-1.131-9.935c-0.193-3.718-0.358-7.44-0.386-11.181c-0.032-4.167-0.181-8.398-0.315-12.651    c0.059-1.616,0.134-3.234,0.232-4.86c0.17-2.817-0.027-5.358-0.46-7.842c0.029-5.054,0.262-10.081,0.921-15.014    c0.698-5.232,0.481-10.701,0.886-15.979c0.464-6.064,0.991-12.102,1.59-18.156c1.225-12.411,1.66-24.939,2.59-37.356    c0.927-12.376,0.106-24.957,1.567-37.279c0.267-2.252,0.016-6.266,1.423-8.103c1.305-1.704,7.064-2.951,9.123-2.406    C121.911,154.08,120.805,157.208,120.762,160.098z M77.11,105.849c8.188-10.669,15.235-22.072,23.709-32.446    c1.715-2.1,3.133-4.359,4.77-6.489c1.774-2.307,1.289-2.331,4.138-2.326c0.737,0.001,1.58,0.181,2.297,0.208    c1.145,0.043,7.107-1.023,7.823-0.308c0.248,0.248-1.308,5.299-1.414,6.198c-1.632,13.963-2.21,27.815-3.255,41.782    c-0.495,6.609-0.927,13.247-1.468,19.84c-0.424,5.159,0.11,10.385,0.365,15.561c-1.196,0.19-2.306,0.43-3.223,0.654    c-3.368,0.824-6.193,2.98-7.329,6.352c-0.389,1.156-0.679,2.412-0.929,3.703c-3.203-7.458-7.131-14.781-11.058-21.679    c-5.382-9.455-9.595-20.143-15.882-29.027C76.129,107.196,76.6,106.513,77.11,105.849z M53.421,143.256    c3.924-6.087,6.905-12.819,10.736-18.912c1.545-2.457,3.789-4.451,5.375-6.916c1.301-2.02,2.525-4.055,3.795-6.063    c1.174,2.638,2.911,5.248,3.836,7.176c3.112,6.492,6.778,12.734,10.104,19.137c3.085,5.94,5.939,11.784,8.748,17.892    c1.683,3.657,2.832,9.136,5.625,12.175c-0.133,3.249-0.14,6.457-0.21,9.271c-0.144,5.796-0.342,11.587-0.565,17.376    c-2.984-3.021-6.207-5.846-9.1-8.933c-4.558-4.863-9.103-9.795-13.909-14.439c-4.865-4.701-9.261-10.027-14.254-14.56    c-3.864-3.508-7.845-7.247-11.38-11.196C52.592,144.595,52.988,143.926,53.421,143.256z M47.906,183.033    c0.469-7.339,0.073-14.67,0.305-22.013c0.152-4.808,0.929-8.99,2.688-13.045c2.697,4.185,6.715,7.74,10.129,11.06    c6.263,6.091,12.5,12.639,18.427,19.071c4.897,5.314,9.55,10.79,14.789,15.788c1.493,1.424,3.873,5.046,6.384,6.397    c-0.396,9.444-0.861,18.884-1.329,28.32c-8.515-5.572-17.921-10.18-26.918-14.91c-4.796-2.522-9.761-4.919-14.338-7.744    c-3.01-1.858-7.165-4.711-11.147-6.089C47.212,194.259,47.547,188.649,47.906,183.033z M46.696,203.362    c8.195,5.79,17.052,10.501,26,15.207c8.804,4.628,17.312,10.853,26.369,14.789c-0.383,7.726-0.761,15.451-1.096,23.178    c-0.136,3.142-0.262,6.286-0.377,9.433c-10.12-2.739-20.411-4.724-30.523-7.517c-5.021-1.386-10.181-2.681-15.118-4.268    c-1.543-0.496-3.001-1.292-4.552-1.776c-0.653-0.203-1.569-0.327-2.47-0.464C45.158,235.717,45.813,219.549,46.696,203.362z     M97.903,346.207c-0.895-0.048-1.788-0.107-2.682-0.195c-4.83-0.48-10.32-1.013-15.147-0.76    c-5.064,0.266-9.913,0.681-15.023,0.602c-5.603-0.086-11.346-0.313-16.921,0.262c-1.944,0.201-3.885,0.387-5.827,0.563    c-0.093-4.005-0.284-8.011-0.366-12.016c3.104,0.325,6.311-0.158,9.477-0.552c5.784-0.72,11.656-1.721,17.414-2.758    c6.719-1.209,13.447-2.23,20.13-3.661c2.005-0.429,5.212-0.53,7.625-1.464c0.061,1.564,0.143,3.126,0.251,4.69    C97.173,335.845,96.97,341.245,97.903,346.207z M44.844,267.232c-0.015-3.939,0.008-7.871,0.048-11.802    c6.713,3.682,14.799,5.511,21.987,7.474c5.475,1.495,11.019,2.718,16.481,4.18c4.421,1.183,9.414,3.421,14.089,3.293    c-0.228,7.225-0.374,14.457-0.323,21.689c-0.067,1.671-0.137,3.343-0.206,5.016c-1.039-0.085-2.326-0.322-2.862-0.345    c-3.114-0.135-6.218-0.502-9.328-0.698c-5.123-0.324-10.198-0.621-15.312-0.977c-5.935-0.412-11.851-0.67-17.799-1.143    c-2.467-0.196-5.117-0.71-7.678-0.697C44.403,284.573,44.877,275.909,44.844,267.232z M41.942,327.974    c0.22-6.972,1.122-13.932,1.358-20.899c0.115-3.393,0.276-6.788,0.451-10.187c9.533,2.352,19.858,2.161,29.565,3.007    c5.398,0.471,10.825,0.605,16.245,1.054c1.723,0.143,4.695,0.885,7.18,0.762c-0.134,3.601-0.245,7.209-0.287,10.835    c-0.036,3.048-0.045,6.085,0.005,9.118c-3.894,2.052-10.285,2.321-14.383,3.248c-5.724,1.294-11.577,2.052-17.349,3.103    c-5.029,0.915-10.137,1.637-15.201,2.372c-0.938,0.136-4.858,0.684-7.617,1.044C41.907,330.279,41.904,329.127,41.942,327.974z     M29.734,362.878c-1.857-1.447-2.68-4.255-3.786-6.235c-0.353-0.631-2.822-3.685-2.491-4.415c0.047-0.102,0.292-0.19,0.653-0.265    c2.521,0.66,5.063,1.222,7.648,1.264c5.443,0.089,10.843-0.702,16.253-0.973c5.689-0.285,11.345-0.329,17.041-0.2    c5.299,0.12,10.522-0.567,15.743-0.553c9.871,0.025,19.766,1.259,29.693,1.259c5.988,0,11.975,0.031,17.962,0.045    c1.616,0.003,3.221,0.152,4.77,0.146c-1.684,4.651-4.304,9.422-8.092,12.064c-2.675,1.866-7.281,1.474-10.271,1.374    c-2.699-0.09-5.045,0.35-7.685,0.598c-12.583,1.189-25.539-0.343-38.111-0.695c-6.794-0.19-13.543-0.399-20.32-0.766    c-2.983-0.162-5.976-0.418-8.948-0.726C36.943,364.505,31.998,364.641,29.734,362.878z M37.309,404.33    c-0.085-3.894-0.288-7.823-0.168-11.716c0.221-7.184,0.642-14.733-0.701-21.872c7.06,0.918,14.231,1.572,21.317,1.627    c4.905,0.039,9.801-0.233,14.704-0.305c4.167-0.062,8.059,0.55,12.162,0.73c7.984,0.35,16.644,0.236,24.59-0.404    c3.454-0.278,7.097,0.117,10.6-0.044c0.162,1.815,0.476,3.626,0.594,5.522c0.268,4.282,0.047,8.63,0.049,12.922    c0.003,5.642,2.383,18.407-4.183,21.134c-3.103,1.289-7.7,0.475-11.038,0.36c-3.286-0.112-6.592,0.21-9.88,0.074    c-6.036-0.25-12.089-0.243-18.127-0.186c-6.315,0.06-12.586-0.041-18.909,0.141c-5.661,0.162-14.649,2.025-19.878-0.093    c-1.587-0.643-1.183,0.375-1.005-1.949C37.584,408.325,37.351,406.286,37.309,404.33z M19.484,424.946    c0.04-1.214,0.33-2.472,0.304-3.671c-0.042-1.991-0.577-0.887,0.759-0.846c2.111,0.065,4.482-0.343,6.604-0.546    c4.022-0.385,8.021-0.621,12.006-0.975c5.572,0.774,12.103-0.347,17.152-0.414c7.858-0.103,15.658-0.301,23.516-0.235    c7.386,0.062,14.793,0.328,22.191,0.249c4.767-0.051,10.793,1.007,15.728-0.376c4.397,0.221,8.831,0.305,13.188-0.039    c4.918-0.388,10.128-0.217,15.073-0.211c5.683,0.007,11.305-0.321,16.99-0.312c11.049,0.018,21.974-0.295,32.991-1.037    c5.247-0.353,10.567-0.352,15.856-0.628c3.736,0.463,7.802,0.17,10.782,0.213c10.518,0.153,21.043,0.333,31.558,0.589    c14.998,0.366,30.712,0.513,45.939-0.806c5.305,0.279,10.642,0.277,15.906,0.631c11.016,0.74,21.941,1.055,32.991,1.037    c5.683-0.009,11.306,0.319,16.99,0.312c4.944-0.006,10.154-0.178,15.073,0.211c4.358,0.344,8.791,0.261,13.188,0.039    c4.935,1.382,10.961,0.324,15.728,0.376c7.398,0.079,14.805-0.186,22.191-0.249c7.859-0.066,15.659,0.132,23.516,0.235    c5.049,0.067,11.58,1.188,17.152,0.414c3.984,0.354,7.984,0.59,12.006,0.975c2.122,0.203,4.493,0.611,6.604,0.546    c1.335-0.041,0.801-1.146,0.758,0.846c-0.025,1.199,0.265,2.457,0.304,3.671c0.111,3.403-0.194,2.68-3.204,2.649    c-16.97-0.174-34.02,1.443-50.995,1.573c-19.158,0.146-38.322-0.471-57.481-0.509c-35.454-0.068-71.043-4.061-106.485-2.162    c-0.677,0.036-1.216,0.261-1.628,0.594c-4.626-0.254-9.254-0.529-13.875-0.456c-6.703,0.104-13.415-0.059-20.113,0.126    c-0.317-0.145-0.681-0.241-1.099-0.263c-35.442-1.899-71.031,2.093-106.485,2.162c-19.158,0.037-38.322,0.655-57.481,0.509    c-16.975-0.129-34.024-1.746-50.995-1.573C19.678,427.626,19.372,428.35,19.484,424.946z M505.695,441.417    c-0.104,2.188,0.05,4.955-1.796,6.131c-2.513,1.6-8.867,0.327-11.717,0.304c-4.874-0.039-9.667,0.617-14.534,0.469    c-4.148-0.126-8.289-0.424-12.436-0.52c-9.947-0.233-19.916-0.108-29.866-0.143c-19.523-0.069-38.942,0.036-58.461-0.479    c-17.764-0.47-35.51-0.882-53.238-0.886c-19.204-0.003-39.177-1.533-58.293,0.835c-0.686,0.008-1.372,0.015-2.052,0.016    c-6.82,0.008-13.593-0.388-20.408-0.434c-17.962-1.757-36.581-0.421-54.526-0.418c-17.729,0.003-35.474,0.416-53.238,0.886    c-19.518,0.517-38.939,0.41-58.461,0.479c-9.95,0.035-19.919-0.09-29.866,0.143c-4.147,0.096-8.288,0.394-12.436,0.52    c-4.868,0.148-9.661-0.508-14.535-0.469c-2.85,0.023-9.204,1.296-11.717-0.304c-1.846-1.175-1.692-3.944-1.796-6.131    c-0.058-1.216-0.656-5.318,0.175-6.282c0.657-0.762,6.159-0.05,7.473-0.104c1.976-0.081,3.988-0.166,5.949-0.418    c2.521-0.324,5.025-0.684,7.515-1.132c4.743,0.039,9.465,0.375,14.216,0.372c21.646-0.013,43.231,0.76,64.902,0.484    c20.138-0.257,40.761,1.221,60.81-0.652c5.58-0.521,11.097-0.291,16.688-0.424c5.512-0.131,11.014-0.743,16.525-0.705    c7.879,0.055,15.813,0.006,23.729-0.194c2.337,0.149,4.623,0.136,6.454,0.209c8.485,0.337,17.122-0.062,25.626-0.109    c13.667-0.075,27.185,1.545,40.754,0.067c4.782,0.048,9.56,0.06,14.317,0.027c5.511-0.037,11.013,0.573,16.525,0.705    c5.59,0.133,11.106-0.098,16.688,0.424c20.049,1.872,40.672,0.395,60.81,0.652c21.671,0.277,43.256-0.496,64.902-0.484    c4.75,0.002,9.472-0.334,14.215-0.372c2.489,0.448,4.994,0.808,7.514,1.132c1.961,0.251,3.973,0.337,5.949,0.418    c1.314,0.053,6.815-0.659,7.472,0.104C506.351,436.099,505.753,440.2,505.695,441.417z"/>
	</g>
</g>
<g>
	<g>
		<path d="M298.681,314.603c-1.866-4.256-4.796-6.99-9.717-6.092c-3.652,0.667-6.214,2.98-7.646,6.425    c-1.477,3.554-0.278,7.34,1.355,10.644c1.457,2.951,3.883,6.701,7.337,7.517c3.425,0.81,7.661-1.111,9.655-3.89    C303.078,324.45,300.768,319.367,298.681,314.603z M297.007,325.533c-1.355,2.516-4.927,4.249-7.329,2.14    c-1.59-1.396-2.763-3.538-3.664-5.423c-1.405-2.936-1.666-6.278,0.982-8.674c1.561-1.414,4.786-1.802,6.518-0.824    c0.089,0.05,0.167,0.108,0.251,0.161C296.543,316.492,298.944,321.935,297.007,325.533z"/>
	</g>
</g>
<g>
	<g>
		<path d="M262.061,307.326c-6.244-4.727-15.864,0.085-17.921,7.061c-0.028,0.097-0.023,0.183-0.027,0.271    c-1.696,3.393-2.214,7.274-0.729,10.383c3.748,7.844,14.751,9.839,21.126,3.966C270.121,323.84,267.779,311.655,262.061,307.326z     M262.004,325.137c-3.768,4.903-11.763,3.91-14.879-1.22c-2.073-3.413-1.062-8.242,1.518-11.629    c2.848-2.666,6.896-4.455,10.458-2.277C263.274,312.562,264.884,321.39,262.004,325.137z"/>
	</g>
</g>
<g>
</g>
<g>
</g>
<g>
</g>
<g>
</g>
<g>
</g>
<g>
</g>
<g>
</g>
<g>
</g>
<g>
</g>
<g>
</g>
<g>
</g>
<g>
</g>
<g>
</g>
<g>
</g>
<g>
</g>
</svg>
