<?xml version="1.0" encoding="iso-8859-1"?>
<!-- Generator: Adobe Illustrator 19.0.0, SVG Export Plug-In . SVG Version: 6.00 Build 0)  -->
<svg xmlns="http://www.w3.org/2000/svg" xmlns:xlink="http://www.w3.org/1999/xlink" version="1.1" id="Layer_1" x="0px" y="0px" viewBox="0 0 512.001 512.001" style="enable-background:new 0 0 512.001 512.001;" xml:space="preserve">
<g>
	<g>
		<path d="M101.866,386.603c-0.265-7.07,0.601-14.97-8.242-16.092c-3.601-0.457-7.689-0.529-11.331-0.299    c-3.104,0.196-7.478,0.101-10.031,2.159c-5.321,4.291-3.644,15.828-3.099,22.3c-0.555,3.854-0.931,7.785-1.169,11.672    c-0.157,2.568-0.94,5.807,0.22,8.204c2.392,4.938,12.737,4.41,17.228,4.811c6.382,0.571,12.788,1.079,14.863-6.063    C102.783,404.765,102.197,395.401,101.866,386.603z M97.433,402.282c-0.071,1.986-0.348,3.885-0.727,5.824    c-0.552,2.827-0.612,3.742-3.288,5.377c-4.646,2.839-12.134,1.281-17.286,0.046c-2.373-0.569-3.346-0.81-3.694-3.21    c-0.368-2.545,0.17-5.54,0.389-8.077c0.671-7.756,1.203-15.538,1.268-23.32c0.243-0.729,0.57-1.407,1.044-1.984    c2.578-3.133,13.786-2.826,17.882-1.974c5.174,1.076,4.063,5.611,4.24,9.586c0.143,3.205,0.184,6.391,0.183,9.599    C97.443,396.856,97.529,399.577,97.433,402.282z"/>
	</g>
</g>
<g>
	<g>
		<path d="M180.929,376.861c-2.652-3.902-9.57-3.456-14.817-2.241c-4.259-0.222-8.651,0.095-12.203,1.576    c-4.895,2.042-5.404,7.851-5.867,12.576c-0.416,4.241-0.472,8.576-0.84,12.837c-0.263,3.053-0.966,7.716,0.168,10.653    c2.077,5.382,11.391,6.351,16.214,6.793c4.988,0.457,11.456,0.901,14.294-3.731c3.441-5.616,3.449-13.445,3.475-19.791    c0.015-3.715,0.092-7.366,0.059-11.087C181.39,381.846,182.53,379.215,180.929,376.861z M177.209,386.653    c0.211,2.462-0.162,4.777-0.268,7.226c-0.231,5.379,0.14,10.783-1.653,16.019c-1.721,5.025-6.665,4.571-11.358,4.374    c-2.543-0.107-5.126-0.747-7.552-1.459c-3.852-1.131-4.423-2.689-4.659-6.583c-0.299-4.932,0.434-9.918,0.493-14.857    c0.025-2.11,0.059-4.665,0.377-6.787c0.603-4.036,2.787-5.25,6.316-5.707c1.728-0.224,3.45-0.393,5.17-0.556    c4.777-0.028,12.304-0.935,13.195,2.835C177.639,382.717,177.064,384.959,177.209,386.653z"/>
	</g>
</g>
<g>
	<g>
		<path d="M506.762,427.755c-3.286-0.601-7.808,0.251-11.165,0.432c-3.343,0.18-6.614,0.464-9.977,0.41    c-0.829-0.013-1.66-0.034-2.49-0.052c0.483-2.171-0.059-5.003-0.107-6.76c-0.2-7.346-0.493-14.77-0.54-22.099    c-0.049-7.603-0.738-15.128-0.764-22.735c-0.019-5.529-0.404-11.405-1.216-16.967c3.138-0.283,6.429-0.858,7.754-3.771    c0.822-1.808,0.968-4.291,0.319-6.33c1.081-0.103,2.162-0.203,3.243-0.312c3.785-0.38,12.03-0.747,14.084-4.806    c2.064-4.08-0.57-11.107-1.019-15.298c-0.675-6.315-0.258-12.809-1.747-19.016c-1.479-6.172-1.71-13.143-4.039-19.046    c-1.898-4.809-7.057-4.771-11.496-5.325c-5.461-0.68-10.837-1.29-16.351-1.378c-3.023-0.048-6.033-0.066-9.042-0.086    c0.033-0.061,0.107-0.246,0.191-0.485c2.297-2.133,4.201-4.944,5.318-7.035c2.134-3.995,8.606-10.973,5.991-15.826    c-1.151-2.138-4.001-3.044-7.157-3.394c2.883-6.182,5.361-12.531,7.655-19.013c1.428-4.038,2.561-8.399,3.542-12.568    c0.696-2.955,2.163-6.431,1.807-9.434c-0.19-1.6-1.115-2.534-2.71-2.71c-3.204-0.355-6.276,0.369-9.477,0.355    c-2.046-0.009-4.082-0.183-6.122-0.297c1.151-1.654,2.279-2.862,2.85-5.306c0.807-3.457,1.688-6.82,2.423-10.309    c1.309-6.216,5.066-12.177,4.287-18.755c-0.186-1.57-1.162-2.764-2.826-2.826c-2.53-0.094-5.119,0.287-7.629,0.116    c-1.56-0.107-2.898-0.37-4.298-0.504c2.437-4.2,2.596-10.036,3.384-14.604c0.685-3.971,1.489-8.638-2.647-11.028    c-2.104-1.216-4.692-0.896-7.004-0.943c-2.464-0.051-4.918-0.244-7.376-0.389c0.657-1.594,0.958-3.419,1.372-5    c0.666-2.546,1.403-5.062,1.838-7.666c0.294-1.762,1.222-4.192,1.001-5.986c-0.506-4.118-4.756-3.87-7.815-3.851    c-1.173,0.008-2.243-0.105-3.254-0.246c2.161-2.82,3.786-8.664,3.706-9.99c-0.274-4.581-4.174-4.293-7.669-4.377    c-8.749-0.209-17.945-0.211-26.765,0c-3.495,0.084-7.395-0.205-7.669,4.377c-0.08,1.326,1.547,7.17,3.706,9.99    c-1.013,0.141-2.081,0.253-3.255,0.246c-3.059-0.019-7.309-0.267-7.814,3.851c-0.22,1.794,0.707,4.224,1.001,5.986    c0.435,2.604,1.172,5.12,1.838,7.666c0.414,1.58,0.715,3.406,1.372,5c-2.457,0.146-4.912,0.339-7.376,0.389    c-2.312,0.048-4.899-0.274-7.004,0.943c-4.136,2.391-3.332,7.057-2.647,11.028c0.788,4.568,0.947,10.404,3.384,14.604    c-1.401,0.135-2.739,0.398-4.298,0.504c-2.51,0.171-5.099-0.209-7.629-0.116c-1.663,0.062-2.639,1.255-2.826,2.826    c-0.779,6.579,2.979,12.539,4.287,18.755c0.735,3.489,1.615,6.853,2.423,10.309c0.235,1.008,0.613,1.996,0.882,3    c0.895,3.334-1.848,2.593-4.154,2.603c-3.203,0.013-6.274-0.709-9.477-0.355c-1.595,0.177-2.521,1.11-2.71,2.71    c-0.356,3.004,1.112,6.48,1.807,9.434c0.981,4.169,2.113,8.529,3.542,12.568c2.293,6.482,4.771,12.831,7.654,19.013    c-3.156,0.351-6.006,1.256-7.157,3.394c-2.615,4.854,3.857,11.831,5.991,15.826c0.982,1.838,2.573,4.232,4.503,6.234    c-2.918-0.205-7.025-0.994-10.226-0.448c-0.446-2.849-1.022-5.685-1.637-8.459c-1.434-6.463-2.507-12.954-3.796-19.45    c-0.897-4.519-1.531-11.354-4.45-15.141c-2.508-3.256-7.313-2.414-10.892-2.216c-12.857,0.71-25.792,1.108-38.674,1.218    c-2.095,0.018-4.213-0.075-6.339-0.174c3.989-1.544,7.537-6.436,9.246-9.636c2.134-3.995,8.606-10.973,5.991-15.826    c-1.151-2.138-4.001-3.044-7.157-3.394c2.883-6.182,5.361-12.531,7.655-19.013c1.428-4.038,2.561-8.399,3.541-12.568    c0.696-2.955,2.163-6.431,1.807-9.434c-0.19-1.6-1.115-2.533-2.71-2.71c-3.204-0.355-6.276,0.369-9.477,0.355    c-2.306-0.01-5.049,0.73-4.155-2.603c0.27-1.004,0.646-1.994,0.882-3c0.807-3.457,1.688-6.82,2.423-10.309    c1.309-6.216,5.066-12.177,4.287-18.756c-0.186-1.57-1.162-2.764-2.826-2.826c-2.53-0.094-5.119,0.287-7.629,0.115    c-1.56-0.106-2.898-0.37-4.298-0.504c2.437-4.2,2.596-10.036,3.384-14.603c0.685-3.971,1.489-8.638-2.647-11.028    c-2.104-1.216-4.692-0.896-7.004-0.943c-2.464-0.051-4.918-0.244-7.375-0.389c0.657-1.594,0.958-3.42,1.372-5    c0.666-2.546,1.403-5.062,1.838-7.666c0.294-1.762,1.222-4.192,1.001-5.986c-0.506-4.118-4.756-3.87-7.815-3.851    c-1.173,0.008-2.243-0.105-3.254-0.246c2.161-2.819,3.786-8.664,3.706-9.99c-0.274-4.581-4.174-4.293-7.669-4.377    c-8.82-0.21-18.016-0.209-26.765,0c-3.495,0.084-7.395-0.204-7.669,4.377c-0.08,1.326,1.547,7.17,3.706,9.99    c-1.013,0.141-2.081,0.253-3.255,0.246c-3.059-0.019-7.309-0.267-7.815,3.851c-0.22,1.794,0.707,4.224,1.002,5.986    c0.435,2.604,1.172,5.119,1.838,7.666c0.414,1.58,0.715,3.406,1.372,5c-2.457,0.145-4.913,0.339-7.376,0.389    c-2.312,0.047-4.899-0.274-7.004,0.943c-4.136,2.391-3.332,7.057-2.647,11.028c0.788,4.568,0.947,10.403,3.384,14.603    c-1.401,0.135-2.739,0.398-4.298,0.504c-2.51,0.171-5.099-0.209-7.629-0.115c-1.663,0.062-2.639,1.256-2.825,2.826    c-0.779,6.579,2.979,12.539,4.287,18.756c0.735,3.489,1.615,6.853,2.423,10.309c0.571,2.444,1.699,3.652,2.85,5.306    c-2.04,0.115-4.076,0.288-6.122,0.297c-3.203,0.013-6.274-0.709-9.477-0.355c-1.595,0.177-2.521,1.11-2.71,2.71    c-0.356,3.004,1.112,6.48,1.807,9.434c0.981,4.169,2.113,8.531,3.542,12.568c2.293,6.482,4.771,12.831,7.653,19.013    c-3.156,0.35-6.006,1.256-7.157,3.394c-2.615,4.854,3.857,11.831,5.991,15.826c1.117,2.091,3.021,4.903,5.318,7.035    c0.084,0.239,0.159,0.424,0.192,0.485c0.495,0.925,1.111,1.553,1.865,2.118c-2.116,0.099-4.224,0.191-6.308,0.173    c-12.883-0.11-25.818-0.508-38.674-1.219c-3.579-0.198-8.384-1.039-10.892,2.216c-2.918,3.788-3.553,10.622-4.45,15.141    c-1.289,6.496-2.362,12.987-3.796,19.45c-0.615,2.774-1.191,5.61-1.637,8.459c-3.201-0.546-7.309,0.243-10.226,0.448    c1.929-2.002,3.521-4.396,4.503-6.234c2.134-3.995,8.606-10.973,5.991-15.826c-1.151-2.138-4.001-3.043-7.157-3.394    c2.883-6.182,5.361-12.531,7.655-19.013c1.428-4.038,2.561-8.399,3.542-12.568c0.695-2.955,2.163-6.43,1.807-9.434    c-0.19-1.6-1.115-2.534-2.71-2.71c-3.204-0.355-6.276,0.369-9.477,0.355c-2.306-0.01-5.049,0.73-4.154-2.603    c0.27-1.004,0.646-1.993,0.882-3c0.808-3.457,1.688-6.82,2.423-10.309c1.309-6.216,5.066-12.177,4.287-18.755    c-0.186-1.57-1.162-2.764-2.826-2.826c-2.53-0.094-5.119,0.287-7.629,0.116c-1.56-0.107-2.898-0.37-4.298-0.504    c2.437-4.2,2.596-10.036,3.384-14.604c0.685-3.971,1.489-8.638-2.647-11.028c-2.104-1.216-4.692-0.896-7.004-0.943    c-2.464-0.051-4.918-0.244-7.375-0.389c0.657-1.594,0.958-3.419,1.372-5c0.666-2.546,1.403-5.062,1.838-7.666    c0.295-1.762,1.222-4.192,1.002-5.986c-0.506-4.118-4.756-3.87-7.814-3.851c-1.173,0.008-2.243-0.105-3.255-0.246    c2.161-2.82,3.786-8.664,3.706-9.99c-0.274-4.581-4.174-4.293-7.669-4.377c-8.82-0.211-18.016-0.209-26.765,0    c-3.495,0.084-7.395-0.205-7.669,4.377c-0.08,1.326,1.545,7.17,3.706,9.99c-1.013,0.141-2.081,0.253-3.254,0.246    c-3.059-0.019-7.309-0.267-7.814,3.851c-0.22,1.794,0.707,4.224,1.001,5.986c0.435,2.604,1.172,5.12,1.838,7.666    c0.414,1.58,0.715,3.406,1.372,5c-2.457,0.146-4.912,0.339-7.376,0.389c-2.312,0.048-4.899-0.274-7.004,0.943    c-4.136,2.391-3.332,7.057-2.647,11.028c0.788,4.568,0.947,10.404,3.384,14.604c-1.401,0.135-2.739,0.398-4.298,0.504    c-2.51,0.171-5.099-0.209-7.629-0.116c-1.663,0.062-2.639,1.255-2.825,2.826c-0.779,6.579,2.979,12.539,4.287,18.755    c0.735,3.489,1.615,6.853,2.423,10.309c0.571,2.444,1.699,3.652,2.85,5.306c-2.04,0.115-4.076,0.289-6.122,0.297    c-3.203,0.013-6.274-0.709-9.477-0.355c-1.595,0.177-2.521,1.11-2.71,2.71c-0.356,3.004,1.112,6.48,1.807,9.434    c0.981,4.169,2.113,8.529,3.542,12.568c2.293,6.482,4.771,12.831,7.653,19.013c-3.156,0.351-6.006,1.256-7.157,3.394    c-2.615,4.854,3.857,11.831,5.991,15.826c1.117,2.091,3.021,4.903,5.318,7.035c0.084,0.239,0.159,0.423,0.192,0.485    c-3.009,0.02-6.02,0.039-9.042,0.086c-5.514,0.087-10.89,0.697-16.351,1.378c-4.439,0.553-9.599,0.516-11.496,5.325    c-2.33,5.904-2.56,12.874-4.039,19.046c-1.488,6.207-1.072,12.702-1.747,19.016c-0.448,4.192-3.082,11.218-1.019,15.298    c2.054,4.059,10.299,4.426,14.084,4.806c1.082,0.108,2.163,0.209,3.243,0.312c-0.647,2.039-0.503,4.522,0.319,6.33    c1.325,2.913,4.616,3.489,7.754,3.771c-0.812,5.562-1.196,11.438-1.216,16.967c-0.027,7.607-0.716,15.132-0.764,22.735    c-0.047,7.328-0.339,14.752-0.54,22.099c-0.047,1.757-0.59,4.589-0.107,6.76c-0.83,0.017-1.661,0.038-2.49,0.052    c-3.363,0.054-6.633-0.23-9.977-0.41c-3.357-0.181-7.879-1.033-11.165-0.432c-4.708,0.862-5.716,7.215-5.057,11.152    c0.852,5.085,4.749,5.937,9.333,6.597c15.432,2.224,31.537,1.269,47.104,1.333c30.347,0.125,60.715,1.723,91.1,0.187    c8.863-0.449,17.729-0.308,26.608-0.309c4.212-0.001,8.552-0.007,12.735-0.143c1.717-0.055,3.775-0.232,5.413-1.004    c3.305,1.033,6.861,0.422,10.592,0.456c5.306,0.05,10.548,0.403,15.838,0.471c3.625,0.046,8.77,1.444,12.172,0.01    c2.206-0.93,3.123-2.812,3.457-4.912c7.426,1.311,15.278,0.157,22.769,0.842c3.701,0.338,7.372-0.143,11.071,0    c2.927,0.113,6.195,0.434,8.951-0.745c0.051-0.007,0.102-0.01,0.152-0.017c0.345,2.067,1.266,3.913,3.444,4.831    c3.401,1.433,8.547,0.036,12.172-0.01c5.291-0.068,10.532-0.422,15.838-0.471c3.731-0.034,7.286,0.577,10.592-0.456    c1.639,0.772,3.696,0.948,5.413,1.004c4.184,0.136,8.524,0.141,12.736,0.143c8.879,0.001,17.745-0.139,26.608,0.309    c30.385,1.537,60.754-0.062,91.1-0.187c15.566-0.064,31.672,0.89,47.104-1.333c4.583-0.661,8.481-1.512,9.333-6.597    C512.478,434.97,511.469,428.616,506.762,427.755z M485.048,352.717c-1.423,3.341-4.532,2.458-7.953,2.823    c-3.697,0.394-6.969,0.11-10.646-0.105c-0.621-0.036-4.041,0.381-4.585-0.006c-0.815-0.581-1.045-2.361-1.14-3.653    c8.271-0.304,16.515-0.863,24.764-1.604C485.449,351.036,485.395,351.904,485.048,352.717z M477.812,428.29    c-0.009,0.043-0.025,0.084-0.033,0.127c-3.006-0.086-6.014-0.202-9.018-0.339c1.011-3.293,0.704-7.707,0.824-10.656    c0.242-5.95-0.463-12.128-0.508-18.107c-0.055-7.4-0.685-14.863-0.983-22.277c-0.22-5.466-0.126-11.087-1.228-16.478    c0.472-0.004,0.939-0.002,1.391,0.024c2.963,0.177,5.669,0.168,8.605-0.257c0.168-0.024,0.346-0.044,0.521-0.065    c-1.487,11.271-0.288,23.169,0.31,34.406c0.365,6.837,0.307,13.748,0.224,20.592c-0.049,4.033,0.755,9.08-0.152,13.055    C477.782,428.306,477.798,428.297,477.812,428.29z M394.1,409.142c-0.018-6.035-0.047-12.07-0.08-18.105    c-0.05-9.692,1.561-20.949-0.449-30.61c2.335-0.203,4.514-0.635,6.093-1.534c3.971,0.792,8.483,0.407,12.417,0.368    c6.028-0.059,12.04,0.222,18.047,0.577c6.052,0.358,12.237,0.379,18.255-0.003c3.089-0.196,6.355-0.081,9.349-0.818    c0.648,0.62,1.479,1.093,2.568,1.347c1.088,0.253,2.261,0.295,3.449,0.278c-1.186,4.207-0.33,9.179-0.357,13.438    c-0.041,6.847-0.179,13.96,0.36,20.774c0.471,5.952-0.112,11.952,0.294,17.921c0.292,4.298,0.587,10.741-0.671,15.013    c-0.002,0.004-0.006,0.009-0.008,0.013c-0.418-0.024-0.837-0.04-1.255-0.065c-15.773-0.961-31.64-0.26-47.406-1.299    c-6.857-0.452-13.853-0.641-20.862-0.629C394.825,420.443,394.116,414.501,394.1,409.142z M389.371,391.035    c-0.033,6.395-0.063,12.792-0.082,19.187c-0.014,5.028-0.645,10.577,0.264,15.615c-3.594,0.05-7.185,0.151-10.757,0.301    c0.862-10.475,1.432-20.879,1.395-31.42c-0.039-11.232,0.563-22.607-0.688-33.818c1.467-0.055,2.867-0.194,3.969-0.246    c1.93-0.092,4.49-0.009,7.092-0.071c-0.852,4.902-0.439,10.076-0.888,15.005C389.211,380.703,389.399,385.898,389.371,391.035z     M385.28,355.747c-2.449,0.034-6.901,1.276-9.086-0.046c-1.307-0.792-1.247-2.837-1.279-4.672c0.346,0.007,0.685,0.017,1.01,0.04    c3.389,0.239,6.791,0.149,10.177,0.354c4.214,0.254,8.436,0.435,12.657,0.65c-0.65,2.27-0.525,3.095-3.756,3.628    C391.714,356.241,388.56,355.701,385.28,355.747z M396.569,313.784c0.094,10.395-0.497,21.164,0.195,31.588    c-3.895-0.129-7.774-0.482-11.662-0.605c-0.029-9.781-1.21-19.5-2.392-29.214c-0.64-5.254-1.676-10.456-2.517-15.679    c-0.532-3.312-0.889-6.908-1.692-10.262c1.131-0.087,2.237-0.171,3.281-0.212c4.717-0.188,9.317,0.217,13.983-0.094    c0.123,0,0.245-0.005,0.368-0.005C395.329,297.423,396.495,305.621,396.569,313.784z M417.183,315.934    c-0.024,9.787-0.188,19.951,0.435,29.794c-5.44-0.078-10.862-0.17-16.275-0.253c0.682-10.517-0.136-21.215-0.469-31.691    c-0.256-8.054-0.609-16.49-1.764-24.551c5.778-0.2,11.552-0.763,17.342-0.713C416.208,297.668,417.207,306.791,417.183,315.934z     M439.243,318.983c0.403,8.752-0.911,18.27,0.547,26.907c-5.777,0.018-11.553-0.032-17.325-0.103    c0.508-10.159-0.638-20.657-1.044-30.733c-0.354-8.803-1.226-17.733-2.591-26.465c0.263,0.011,0.526,0.011,0.79,0.024    c5.59,0.299,11.185,0.419,16.782,0.53C436.742,299.114,438.785,309.017,439.243,318.983z M438.894,289.195    c3.429,0.07,6.859,0.144,10.288,0.267c0.441,0.016,0.886,0.023,1.336,0.023c1.289,0.099,2.578,0.207,3.885,0.352    c1.299,0.145,2.602,0.234,3.905,0.303c0.556,8.729,2.025,17.443,2.266,26.18c0.159,5.778,0.757,11.512,1.077,17.284    c0.211,3.8-0.199,8.111,0.682,11.835c-5.927,0.243-11.871,0.366-17.821,0.421c-0.025-0.125-0.067-0.249-0.127-0.371    c-0.403-9.124-0.165-18.271-0.964-27.384c-0.495-5.646-1.185-11.38-2.029-16.986C440.788,297.113,439.664,293.169,438.894,289.195    z M448.216,352.035c2.402-0.007,4.798-0.047,7.192-0.102c0.103,1.362,0.252,2.765,0.615,4.036    c-3.108-0.185-6.258,0.023-9.338,0.165c-5.594,0.256-11.789,0.049-17.412-0.402c-5.352-0.429-10.783-0.569-16.156-0.594    c-3.614-0.017-7.355-0.39-10.98-0.033c0.05-0.83-0.078-1.781-0.427-2.88c0.315,0.019,0.63,0.03,0.945,0.049    C417.752,353.198,433.086,352.078,448.216,352.035z M488.895,292.524c1.121,0.17,3.494,0.199,4.388,1.045    c0.687,0.651,0.928,3.732,1.18,4.747c0.779,3.144,1.147,6.299,1.747,9.476c1.013,5.368,1.98,10.381,2.157,15.881    c0.154,4.734,0.741,9.286,1.48,13.954c0.708,4.477,0.484,4.052-3.664,4.867c-2.522,0.496-4.961,0.739-7.511,0.907    c-0.022-2.639-0.728-5.495-0.941-7.857c-0.466-5.174-0.975-10.16-1.856-15.287c-1.654-9.632-3.314-19.216-5.159-28.786    C483.451,291.772,486.183,292.114,488.895,292.524z M472.914,290.699c1.68,0.152,3.365,0.315,5.05,0.486    c0.492,8.925,2.371,18.07,3.496,26.878c0.638,4.999,1.433,9.909,1.8,14.935c0.247,3.4,0.18,7.265,0.71,10.793    c-3.996,0.391-7.987,0.897-11.996,1.152c-1.712,0.109-3.431,0.182-5.148,0.271c-0.016-0.127-0.032-0.255-0.071-0.391    c-1.312-4.566-0.753-10.634-1.068-15.395c-0.328-4.964-0.777-9.909-1.118-14.874c-0.366-5.334-1.281-10.67-2.096-15.954    c-0.441-2.863-1.301-5.608-1.973-8.365C464.637,290.367,468.785,290.324,472.914,290.699z M402.824,117.711    c2.339,0.576,5.189,0.028,7.745-0.354c0.418,0.103,0.907,0.156,1.563,0.189c1.901,0.096,3.776,0.425,5.706,0.452    c2.633,0.036,6.34,0.324,9.406-0.431c2.165,0.329,4.43,0.615,6.35,0.144c0.302-0.074,0.483-0.13,0.616-0.176    c-0.052,0.046-0.095,0.105-0.095,0.182c-0.001,0.552-0.241,1.122-0.394,1.645c-0.272,0.929-0.663,1.821-0.916,2.756    c-0.38,1.404-0.517,2.89-0.914,4.292c-1.449-0.118-2.901-0.035-4.515,0.558c-3.055-0.042-6.123,0-9.193-0.309    c-4.355-0.439-9.246-1.214-13.697-0.414c-0.362-1.353-0.508-2.776-0.874-4.126c-0.253-0.936-0.644-1.826-0.916-2.756    c-0.152-0.523-0.393-1.093-0.394-1.645c0-0.077-0.043-0.136-0.095-0.182C402.341,117.581,402.523,117.637,402.824,117.711z     M396.71,131.647c1.237-0.39,2.621,0.204,3.888,0.039c0.931-0.123,1.864-0.261,2.792-0.423c2.061,0.45,4.144,0.425,6.5,0.398    c2.954-0.035,5.737,0.4,8.663,0.542c5.095,0.249,10.781,0.255,16.017-0.69c0.418,0.062,0.835,0.119,1.252,0.173    c1.106,0.146,3.09-0.562,4.054,0.21c0.038,0.03,0.074,0.063,0.109,0.098c0.672,0.68,0.137,1.956,0.007,2.737    c-0.541,3.252-1.507,6.424-2.05,9.665c-0.202,1.203-0.452,2.553-0.493,3.769c-0.012,0.363,0.093,0.852,0.172,1.32    c-2.69-0.04-6.235-0.099-9.038,0.804c-0.07-0.432-0.162-0.853-0.304-1.244c-0.326-0.906-0.89-1.9-1.611-2.823    c-1.286-3.711-8.292-5.716-11.542-3.333c-3.11,0.129-6.034,3.518-6.984,6.155c-0.141,0.391-0.233,0.812-0.304,1.244    c-2.803-0.904-6.348-0.844-9.038-0.804c0.08-0.468,0.184-0.956,0.172-1.32c-0.042-1.216-0.292-2.565-0.493-3.769    c-0.555-3.31-1.533-6.531-2.074-9.843C396.238,133.528,395.405,132.058,396.71,131.647z M422.607,151.254    c-0.214,1.681-1.954,3.341-3.602,3.494c-1.072,0.099-2.674-0.173-3.482-0.847c-2.068-1.723-1.826-3.907-0.759-6.143    c1.097-2.298,4.909-0.763,6.292,0.35C422.004,148.875,422.77,149.983,422.607,151.254z M383.377,155.373    c0.909-0.645,4.385,0.112,5.425,0.157c5.032,0.215,10.033,0.537,15.035,0.927c2.99,0.233,4.714-0.08,7.456,1.442    c2.028,1.126,3.65,2.852,6.133,2.887c3.721,0.051,8.738-1.386,10.398-5.067c1.322,0.739,2.915,0.884,4.757,0.74    c5.002-0.39,10.004-0.71,15.035-0.927c1.042-0.045,4.516-0.802,5.425-0.157c1.433,1.017,1.192,3.72,1.091,5.183    c-0.179,2.602-1.298,5.107-1.689,7.68c-0.395,2.601-0.907,5.769-0.288,8.452c-4.869,0.424-10.131,0.943-14.959,0.504    c-1.454-0.133-5.135-0.241-6.39-0.932c-1.456-0.803-1.954-3.311-3.036-4.811c-2.065-2.866-4.881-4.583-8.253-5.479    c-0.485-0.129-0.933-0.024-1.308,0.198c-0.374-0.222-0.823-0.327-1.308-0.198c-3.373,0.897-6.189,2.614-8.253,5.479    c-1.081,1.501-1.58,4.009-3.036,4.811c-1.255,0.692-4.937,0.801-6.39,0.932c-4.828,0.441-10.09-0.08-14.959-0.504    c0.619-2.683,0.107-5.852-0.288-8.452c-0.392-2.574-1.51-5.078-1.689-7.68C382.185,159.092,381.944,156.39,383.377,155.373z     M420.991,183.954c-0.072,0.025-0.137,0.062-0.206,0.093c-0.059,0.008-0.12,0.02-0.178,0.025c-1.89,0.199-3.839-0.156-5.727-0.346    c-2.965-1.382-2.538-4.291-1.816-7.215c0.508-2.06,1.55-3.554,2.816-4.91c0.844-0.277,1.692-0.594,2.662-0.572    c0.745,0.017,1.438,0.264,2.078,0.659c1.23,1.333,2.235,2.808,2.733,4.823C424.118,179.605,424.556,182.684,420.991,183.954z     M371.3,182.214c4.112-0.508,9.371-0.24,12.946,0.287c5.116,0.753,11.134,1.372,16.322,0.877c1.768-0.169,3.862-0.152,5.751-0.592    c0.539,3.724,3.869,6.513,7.653,6.301c2.793,1.367,7.123,1.016,9.769-0.048c3.224-0.405,5.881-2.963,6.359-6.254    c1.888,0.44,3.984,0.423,5.751,0.592c5.188,0.496,11.205-0.124,16.322-0.877c3.575-0.526,8.834-0.794,12.946-0.287    c-0.471,5.637-3.47,10.972-4.428,16.523c-0.889,5.15-2.811,10.227-3.572,15.393c-4.836,0.085-9.676,0.354-14.521,0.468    c-3.471,0.083-5.664,0.277-7.441-2.977c-0.898-1.645-1.818-3.444-3.015-4.887c-2.261-2.725-5.699-4.965-9.269-5.257    c-2.294-0.686-4.979-0.977-7.3-0.615c-0.722,0.113-1.286,0.321-1.78,0.59c-3.657,0.206-7.202,2.494-9.516,5.283    c-1.198,1.443-2.117,3.242-3.015,4.887c-1.778,3.254-3.97,3.06-7.441,2.977c-4.845-0.115-9.686-0.383-14.521-0.468    c-0.76-5.164-2.683-10.242-3.572-15.393C374.77,193.186,371.771,187.851,371.3,182.214z M429.494,218.424    c-1.883,8.796-20.731,8.588-22.568,0c-0.716-3.345,2.773-10.4,6.355-12.381c0.752,0.056,1.532,0.006,2.292,0.035    c2.774,0.107,5.39,0.172,7.972,1.273c0.938,0.4,1.953,1.223,3.005,2.06C428.582,212.338,429.969,216.2,429.494,218.424z     M368.189,240.023c-1.435-3.776-2.33-7.677-3.365-11.572c-0.658-2.481-2.006-5.9-2.449-8.875c2.224,0.191,4.417,0.73,6.676,0.87    c2.84,0.177,5.716,0.055,8.559,0.101c5.395,0.085,10.795,0.607,16.212,0.732c2.327,0.054,4.859,0.265,7.064-0.349    c-1.501,0.418,6.585,8.332,7.673,8.808c4.22,1.848,9.84,2.234,14.34,1.523c1.154-0.182,2.312-0.516,3.343-1.021    c4.242-1.096,8.179-5.092,9.294-9.31c2.205,0.614,4.736,0.403,7.064,0.349c5.416-0.126,10.817-0.647,16.212-0.732    c2.845-0.045,5.719,0.076,8.559-0.101c2.258-0.14,4.452-0.679,6.676-0.87c-0.443,2.975-1.791,6.394-2.449,8.875    c-1.035,3.896-1.93,7.796-3.365,11.572c-1.786,4.701-5.387,12.148-4.919,17.659c-2.701-0.04-5.29,0.157-6.939,0.2    c-4.96,0.129-9.76,1.374-14.685,1.482c-3.275,0.072-6.497-0.061-9.697,0.384c0.784-0.112-1.148-7.767-1.319-8.451    c-1.207-4.835-3.726-7.154-8.281-9.092c-3.716-1.581-7.916-1.599-10.942,0.975c-3.555,1.988-6.387,6.21-6.245,9.812    c0.072,1.816,0.028,4.338,0.216,6.907c-3.527-0.634-7.075-0.456-10.689-0.536c-4.924-0.108-9.724-1.353-14.684-1.483    c-1.648-0.043-4.238-0.24-6.939-0.2C373.576,252.172,369.976,244.724,368.189,240.023z M410.474,254.558    c-0.283-3.553,0.494-5.963,3.79-7.843c1.029-0.587,2.056-0.869,3.038-1.246c2.175,0.075,4.392,0.825,6.155,2.137    c2.185,1.744,2.726,3.934,2.487,6.953c-0.147,1.848-0.064,3.388,0.203,5.213c1.334,9.113-17.057,8.054-15.877,0.001    C410.538,257.947,410.621,256.406,410.474,254.558z M368.8,266.229c-1.359-2.355-1.291-1.409,0.291-2.218    c1.175-0.602,3.387-0.419,4.663-0.581c4.071-0.517,8.24-0.7,12.337-0.235c6.967,0.792,12.958,1.064,19.569-1.011    c0.563,3.989,1.963,7.603,5.548,8.284c3.114,2.028,9.083,1.495,11.771,0.908c2.713-0.591,4.46-1.902,6.018-4.095    c0.208-0.293,2.974-4.76,2.605-4.866c6.278,1.795,12.058,1.538,18.726,0.78c4.097-0.466,8.267-0.283,12.337,0.235    c1.276,0.162,3.488-0.021,4.663,0.581c1.582,0.81,1.649-0.137,0.291,2.218c-2.623,4.544-6.333,8.522-9.897,11.911    c-1.552,1.476-4.034,2.914-4.698,4.912c-2.416,0.118-4.832-0.257-7.265-0.477c-8.045-0.727-16.154,0.072-24.208-0.629    c-8.562-0.745-17.007,0.402-25.543,0.327c-3.731-0.033-7.265-0.421-10.939-1.077c-0.843-0.15-2.05-0.214-3.217-0.365    c-1.001-0.964-2.239-1.821-3.154-2.69C375.135,274.751,371.423,270.774,368.8,266.229z M367.033,289.396    c2.641,0.671,5.697,0.611,8.7,0.415c0.11,8.908,2.238,17.657,3.007,26.563c0.817,9.464,1.65,18.854,1.832,28.333    c-1.549-0.003-3.093-0.019-4.648-0.134c-0.587-0.043-2.589,0.028-3.221-0.197c-2.198-0.78-1.099,0.001-1.907-1.848    c-1.927-4.409-1.457-10.74-2.091-15.521c-0.629-4.743-1.022-9.55-1.747-14.295c-0.762-4.994-1.388-10.244-1.885-15.246    c-0.239-2.406-0.239-4.855-0.466-7.281c-0.008-0.084-0.034-0.516-0.059-0.991c0.044-0.224,0.042-0.457-0.02-0.692    C365.214,289.179,367.567,289.532,367.033,289.396z M290.901,398.99c-0.138-5.364-0.282-10.729-0.44-16.093    c-0.118-4.013-1.163-9.006-0.505-13.094c3.826,0.109,7.74-0.118,11.536-0.169c-0.224,0.621-0.34,1.283-0.385,1.627    c-0.162,1.246-0.333,2.82-0.108,4.228c-0.689,7.071,0.074,14.35,0.066,21.474c-0.006,5.256,0.239,10.468,0.242,15.724    c0.003,4.534,0.664,9.409,0.221,13.964c-2.975,0.114-5.952,0.283-8.924,0.401c-0.275,0.011-0.55,0.027-0.825,0.04    c-0.007-0.065-0.019-0.129-0.03-0.193C293.34,417.906,291.133,408,290.901,398.99z M292.603,363.968    c-2.293-0.198-4.696,0.208-6.928-0.455c-1.839-0.546-2.608-1.623-4-3.073c-3.418-3.56-7.241-6.859-10.839-10.261    c-1.935-1.829-4.089-3.727-6.503-4.993c-3.154-2.357-8.569-2.381-11.957-1.669c-0.852,0.179-1.684,0.429-2.497,0.731    c-1.519,0.483-2.941,1.258-4.273,2.191c-2.003,1.318-3.837,2.941-5.469,4.698c-3.292,3.066-6.712,6.077-9.808,9.302    c-1.392,1.451-2.162,2.528-4,3.073c-2.232,0.663-4.634,0.257-6.928,0.455c-2.359,0.204-15.436,2.523-16.702-0.078    c-0.207-0.425,0.335-0.064,1.385-0.645c0.869-0.481,1.67-1.008,2.51-1.543c2.235-1.428,4.153-2.751,5.959-4.705    c3.262-3.533,6.171-7.281,9.311-10.907c2.893-3.341,7.125-6.329,11.001-8.442c2.299-1.253,4.643-2.119,7.015-2.847    c2.281-0.19,4.75-0.882,6.402-1.033c3.144-0.287,6.36-0.294,9.52-0.447c3.173-0.154,6.711,0.401,9.831-0.327    c4.587,1.263,9.129,2.266,13.511,4.653c3.875,2.112,8.107,5.1,11.001,8.442c3.14,3.626,6.048,7.374,9.31,10.907    c1.805,1.955,3.724,3.278,5.959,4.705c0.84,0.537,1.639,1.063,2.51,1.543c1.051,0.581,1.592,0.219,1.385,0.645    C308.038,366.491,294.96,364.171,292.603,363.968z M220.252,426.899c-0.012,0.064-0.023,0.128-0.03,0.193    c-0.275-0.013-0.549-0.029-0.825-0.04c-2.972-0.118-5.949-0.287-8.924-0.401c-0.443-4.555,0.218-9.431,0.221-13.964    c0.004-5.256,0.247-10.468,0.242-15.724c-0.008-7.124,0.757-14.404,0.066-21.474c0.223-1.406,0.053-2.982-0.109-4.228    c-0.045-0.345-0.162-1.006-0.385-1.627c3.797,0.051,7.711,0.278,11.536,0.169c0.658,4.089-0.387,9.081-0.505,13.094    c-0.158,5.364-0.3,10.729-0.44,16.093C220.868,408,218.663,417.906,220.252,426.899z M141.917,350.784    c0.641-0.125,1.249-0.315,1.8-0.608c2.072-1.104,3.001-3.162,3.514-5.373c5.133,0.726,10.633,0.06,15.7,0.102    c7.595,0.064,15.127,0.982,22.701,1.186c6.627,0.179,13.266-0.023,19.847,0.303c2.778,0.137,6.375,0.36,9.771,0.092    c-3.061,3.335-6.096,6.684-10.001,9.161c-1.206,0.766-2.824,1.421-4.311,2.195c-0.179-0.177-0.384-0.331-0.648-0.417    c-2.951-0.951-5.198-0.462-8.269-0.305c-2.855,0.146-5.631-0.24-8.468-0.354c-6.482-0.26-13.132-0.358-19.619-0.323    c-5.84,0.032-11.638-0.362-17.468-0.197c-1.625,0.046-3.253,0.104-4.878,0.199C142.191,354.677,142.373,352.561,141.917,350.784z     M306.754,355.648c-3.905-2.478-6.94-5.826-10.001-9.161c3.396,0.268,6.993,0.045,9.771-0.092    c6.581-0.326,13.22-0.124,19.847-0.303c7.574-0.204,15.106-1.122,22.701-1.186c5.067-0.043,10.568,0.623,15.7-0.102    c0.513,2.212,1.441,4.27,3.514,5.373c0.55,0.293,1.159,0.483,1.8,0.608c-0.456,1.778-0.274,3.893,0.329,5.665    c-1.625-0.095-3.253-0.152-4.878-0.199c-5.83-0.166-11.628,0.229-17.468,0.197c-6.487-0.036-13.135,0.063-19.619,0.323    c-2.837,0.114-5.613,0.499-8.468,0.354c-3.071-0.157-5.318-0.646-8.269,0.305c-0.264,0.085-0.471,0.24-0.648,0.417    C309.578,357.069,307.96,356.414,306.754,355.648z M335.763,244.176c3.945-0.272,11.042-2.791,13.169,1.318    c2.488,4.805,2.637,11.614,3.714,16.858c1.572,7.66,2.923,15.782,5.379,23.336c-4.511-0.725-9.22-0.442-13.817-0.225    c0.727-2.549,0.075-4.99-0.473-7.699c-0.819-4.05-1.398-8.194-2.449-12.19c-1.875-7.13-3.905-14.242-5.771-21.384    C335.598,244.184,335.68,244.181,335.763,244.176z M319.068,244.518c4.579-0.253,9.192-0.067,13.773-0.207    c0.318,6.875,2.496,13.653,4.037,20.297c0.973,4.196,1.636,8.42,2.468,12.647c0.549,2.788,0.494,5.81,1.75,8.331    c-0.066,0.002-0.134,0.005-0.2,0.008c-5.34,0.143-10.695,0.15-16.047,0.218c-0.363-3.416-1.385-6.782-2.111-10.14    c-0.821-3.797-1.491-7.579-2.459-11.333c-1.679-6.514-2.923-13.3-5.302-19.606C316.338,244.665,317.701,244.594,319.068,244.518z     M301.662,245.025c3.49,0.052,6.938-0.032,10.389-0.17c0.2,1.597,0.623,3.196,0.91,4.726c0.869,4.63,1.644,9.294,2.665,13.892    c1.649,7.427,3.076,14.924,4.397,22.43c-0.737,0.018-1.475,0.025-2.211,0.047c-3.958,0.119-7.916,0.219-11.877,0.3    c-0.451-7.182-2.758-14.266-4.178-21.275c-1.348-6.653-2.551-13.576-4.87-20.016C298.479,244.981,300.07,245.002,301.662,245.025z     M283.758,264.411c-1.782-6.492-2.751-13.5-4.86-19.967c4.933,0.277,9.874,0.396,14.82,0.472    c1.158,13.875,5.441,27.655,7.397,41.423c-4.022,0.064-8.047,0.107-12.073,0.11c-0.747,0.001-1.486,0.003-2.228,0.005    C288.024,279.747,285.466,270.636,283.758,264.411z M269.618,286.262c-0.007-0.127-0.044-0.24-0.07-0.358    c-0.559-6.225-1.642-12.399-2.46-18.592c-0.563-4.265-1.13-8.518-1.674-12.783c-0.45-3.531-1.308-7.002-1.804-10.475    c3.963,0.157,7.93,0.412,11.864,0.273c0.361,6.843,1.811,13.944,3.7,20.369c1.347,4.578,2.206,9.505,2.7,14.251    c0.274,2.638,0.201,5.124,0.91,7.549c-2.716,0.05-5.426,0.158-8.166,0.432c-1.671,0.167-3.34,0.252-4.993,0.393    c0.021-0.14,0.031-0.287,0.024-0.441C269.638,286.673,269.628,286.468,269.618,286.262z M244.767,286.933    c-1.569-0.006-3.137,0.001-4.713,0.046c-0.558,0.017-1.119,0.024-1.681,0.031c-0.329-0.026-0.658-0.051-0.989-0.084    c-2.739-0.274-5.448-0.382-8.165-0.432c0.709-2.425,0.636-4.909,0.91-7.549c0.493-4.746,1.353-9.674,2.7-14.251    c1.899-6.457,3.355-13.599,3.707-20.474c0.448-0.033,0.897-0.075,1.346-0.112c3.868,0.588,8.033,0.506,11.931,0.288    c-1.341,4.632-3.042,17.656-3.201,19.405c-0.362,3.979-1.126,7.858-1.446,11.844C244.893,279.026,243.644,283.498,244.767,286.933    z M225.188,286.454c-0.741-0.002-1.481-0.004-2.228-0.005c-4.027-0.003-8.05-0.048-12.073-0.11    c1.956-13.768,6.238-27.547,7.397-41.423c4.947-0.076,9.887-0.194,14.82-0.472c-2.109,6.467-3.078,13.475-4.859,19.967    C226.535,270.636,223.978,279.747,225.188,286.454z M249.428,277.302c0.318-4.783,1.107-9.459,1.391-14.252    c0.233-3.932,0.741-7.841,1.102-11.757c0.209-2.266,0.826-4.729,0.661-7.065c0.809-0.055,1.604-0.11,2.368-0.16    c2.391-0.158,4.795-0.139,7.201-0.064c-0.966,1.893-0.772,4.139-0.827,6.337c-0.113,4.513,0.397,9.242,1.006,13.717    c1.037,7.625,1.317,15.49,2.691,23.053c-3.533-0.149-7.099-0.009-10.263-0.042c-2.092-0.022-4.176-0.065-6.26-0.099    C249.555,284.058,249.232,280.255,249.428,277.302z M241.536,69.637c1.92,0.472,4.186,0.186,6.35-0.143    c3.066,0.753,6.774,0.466,9.406,0.43c1.93-0.026,3.805-0.356,5.706-0.452c0.657-0.033,1.147-0.086,1.563-0.189    c2.556,0.381,5.406,0.929,7.745,0.354c0.302-0.074,0.483-0.129,0.616-0.176c-0.052,0.046-0.095,0.105-0.095,0.182    c-0.001,0.552-0.241,1.122-0.394,1.645c-0.272,0.929-0.663,1.821-0.916,2.756c-0.366,1.35-0.51,2.773-0.874,4.126    c-4.451-0.8-9.343-0.024-13.697,0.414c-3.07,0.309-6.139,0.267-9.193,0.309c-1.614-0.593-3.066-0.676-4.515-0.558    c-0.397-1.402-0.534-2.888-0.914-4.292c-0.253-0.936-0.644-1.826-0.916-2.756c-0.152-0.523-0.393-1.093-0.394-1.645    c0-0.077-0.043-0.136-0.095-0.182C241.053,69.506,241.235,69.563,241.536,69.637z M235.146,83.919    c0.034-0.035,0.071-0.067,0.108-0.098c0.963-0.772,2.948-0.065,4.054-0.21c0.418-0.055,0.834-0.113,1.252-0.173    c5.236,0.946,10.921,0.939,16.017,0.69c2.926-0.143,5.708-0.577,8.663-0.542c2.356,0.028,4.439,0.052,6.5-0.398    c0.928,0.162,1.86,0.302,2.792,0.423c1.266,0.166,2.651-0.429,3.889-0.039c1.305,0.411,0.472,1.881,0.305,2.906    c-0.541,3.312-1.519,6.533-2.074,9.842c-0.202,1.203-0.452,2.553-0.493,3.769c-0.012,0.363,0.093,0.852,0.172,1.32    c-2.69-0.04-6.235-0.099-9.038,0.804c-0.071-0.432-0.162-0.853-0.304-1.244c-0.95-2.637-3.875-6.025-6.984-6.155    c-3.25-2.383-10.257-0.378-11.542,3.333c-0.72,0.922-1.284,1.917-1.611,2.823c-0.141,0.391-0.233,0.812-0.304,1.244    c-2.803-0.904-6.348-0.844-9.038-0.804c0.08-0.468,0.185-0.956,0.172-1.32c-0.042-1.216-0.292-2.566-0.493-3.769    c-0.544-3.241-1.509-6.413-2.05-9.665C235.01,85.875,234.476,84.599,235.146,83.919z M259.608,105.828    c-0.808,0.673-2.412,0.947-3.482,0.847c-1.648-0.154-3.388-1.813-3.602-3.494c-0.162-1.272,0.603-2.381,1.552-3.144    c1.383-1.115,5.196-2.648,6.292-0.35C261.434,101.921,261.676,104.105,259.608,105.828z M222.089,107.299    c0.909-0.645,4.385,0.112,5.425,0.157c5.032,0.217,10.033,0.537,15.035,0.927c1.84,0.144,3.435-0.001,4.757-0.74    c1.659,3.681,6.677,5.118,10.398,5.067c2.483-0.034,4.104-1.761,6.133-2.887c2.742-1.521,4.465-1.209,7.456-1.442    c5.002-0.39,10.004-0.71,15.035-0.927c1.042-0.044,4.516-0.802,5.425-0.157c1.433,1.017,1.192,3.72,1.091,5.183    c-0.179,2.602-1.298,5.106-1.689,7.68c-0.396,2.6-0.907,5.769-0.288,8.452c-4.868,0.424-10.131,0.943-14.959,0.504    c-1.453-0.133-5.135-0.241-6.39-0.932c-1.456-0.803-1.954-3.311-3.036-4.811c-2.065-2.866-4.881-4.582-8.253-5.48    c-0.485-0.129-0.933-0.024-1.308,0.198c-0.374-0.222-0.823-0.327-1.308-0.198c-3.373,0.897-6.189,2.615-8.253,5.48    c-1.081,1.501-1.58,4.009-3.036,4.811c-1.255,0.693-4.937,0.801-6.39,0.932c-4.828,0.441-10.09-0.08-14.959-0.504    c0.619-2.683,0.107-5.852-0.288-8.452c-0.392-2.574-1.51-5.078-1.689-7.68C220.897,111.018,220.656,108.315,222.089,107.299z     M260.25,135.652c-1.888,0.19-3.837,0.545-5.727,0.346c-0.057-0.007-0.119-0.019-0.178-0.025    c-0.069-0.031-0.133-0.066-0.206-0.093c-3.565-1.269-3.126-4.348-2.363-7.441c0.497-2.016,1.503-3.49,2.733-4.823    c0.641-0.395,1.334-0.643,2.078-0.659c0.971-0.022,1.818,0.296,2.664,0.572c1.266,1.357,2.308,2.85,2.816,4.91    C262.788,131.362,263.214,134.27,260.25,135.652z M210.012,134.139c4.112-0.507,9.371-0.24,12.946,0.287    c5.116,0.753,11.134,1.373,16.322,0.877c1.768-0.169,3.862-0.152,5.751-0.592c0.476,3.291,3.134,5.847,6.359,6.254    c2.646,1.064,6.975,1.414,9.769,0.047c3.785,0.212,7.114-2.577,7.653-6.301c1.888,0.44,3.984,0.423,5.751,0.592    c5.188,0.496,11.205-0.124,16.322-0.877c3.575-0.526,8.834-0.794,12.946-0.287c-0.471,5.637-3.47,10.972-4.428,16.523    c-0.889,5.15-2.812,10.227-3.572,15.392c-4.836,0.085-9.676,0.354-14.521,0.468c-3.471,0.083-5.664,0.276-7.441-2.977    c-0.898-1.644-1.818-3.444-3.015-4.887c-2.314-2.789-5.858-5.077-9.516-5.283c-0.494-0.268-1.057-0.478-1.78-0.59    c-2.322-0.361-5.007-0.071-7.3,0.615c-3.568,0.293-7.007,2.532-9.269,5.257c-1.198,1.443-2.117,3.242-3.015,4.887    c-1.777,3.254-3.97,3.06-7.441,2.977c-4.845-0.115-9.686-0.383-14.521-0.468c-0.76-5.166-2.683-10.242-3.572-15.392    C213.482,145.111,210.483,139.776,210.012,134.139z M268.206,170.35c-1.838,8.588-20.686,8.796-22.568,0    c-0.476-2.224,0.911-6.086,2.945-9.012c1.052-0.837,2.067-1.66,3.005-2.061c2.582-1.1,5.197-1.165,7.972-1.273    c0.76-0.03,1.54,0.021,2.292-0.035C265.433,159.95,268.921,167.005,268.206,170.35z M206.901,191.95    c-1.435-3.776-2.33-7.677-3.365-11.572c-0.658-2.481-2.006-5.9-2.449-8.875c2.224,0.191,4.417,0.73,6.676,0.87    c2.84,0.177,5.716,0.055,8.559,0.101c5.395,0.085,10.795,0.607,16.212,0.732c2.327,0.054,4.859,0.264,7.064-0.349    c1.115,4.219,5.051,8.215,9.294,9.31c1.031,0.505,2.188,0.839,3.343,1.021c4.501,0.71,10.12,0.325,14.34-1.523    c1.088-0.476,9.175-8.389,7.673-8.808c2.204,0.614,4.736,0.403,7.064,0.349c5.416-0.126,10.817-0.647,16.212-0.732    c2.845-0.045,5.719,0.076,8.559-0.101c2.258-0.14,4.452-0.679,6.676-0.87c-0.443,2.975-1.791,6.394-2.449,8.875    c-1.035,3.896-1.93,7.796-3.365,11.572c-1.787,4.701-5.388,12.149-4.919,17.659c-2.701-0.04-5.29,0.157-6.939,0.2    c-4.96,0.129-9.76,1.374-14.685,1.482c-3.615,0.08-7.162-0.098-10.689,0.536c0.189-2.568,0.145-5.091,0.216-6.907    c0.143-3.602-2.69-7.824-6.245-9.812c-3.026-2.574-7.226-2.556-10.942-0.975c-4.555,1.938-7.073,4.256-8.281,9.092    c-0.171,0.684-2.103,8.341-1.319,8.451c-3.201-0.445-6.422-0.313-9.697-0.384c-4.924-0.108-9.724-1.353-14.684-1.483    c-1.648-0.043-4.238-0.24-6.939-0.2C212.288,204.098,208.688,196.65,206.901,191.95z M249.186,206.484    c-0.24-3.019,0.302-5.208,2.487-6.953c1.763-1.311,3.98-2.063,6.155-2.137c0.982,0.377,2.008,0.66,3.038,1.246    c3.298,1.88,4.073,4.29,3.79,7.843c-0.147,1.848-0.064,3.389,0.203,5.214c1.18,8.053-17.211,9.111-15.877-0.001    C249.25,209.872,249.333,208.331,249.186,206.484z M207.512,218.156c-1.359-2.355-1.291-1.409,0.291-2.218    c1.175-0.602,3.387-0.419,4.663-0.581c4.071-0.517,8.24-0.7,12.337-0.235c6.668,0.759,12.448,1.015,18.726-0.78    c-0.369,0.106,2.397,4.575,2.605,4.866c1.559,2.193,3.305,3.504,6.018,4.095c2.688,0.586,8.657,1.119,11.771-0.908    c3.584-0.682,4.984-4.295,5.548-8.284c6.611,2.075,12.602,1.803,19.569,1.011c4.097-0.466,8.267-0.283,12.337,0.235    c1.276,0.162,3.488-0.021,4.663,0.581c1.582,0.81,1.649-0.137,0.291,2.218c-2.623,4.544-6.333,8.522-9.897,11.911    c-0.915,0.869-2.152,1.726-3.154,2.69c-1.167,0.151-2.374,0.214-3.217,0.365c-3.674,0.656-7.209,1.045-10.939,1.077    c-8.537,0.075-16.982-1.073-25.543-0.327c-8.053,0.7-16.163-0.098-24.208,0.629c-2.434,0.22-4.849,0.595-7.265,0.477    c-0.664-1.997-3.147-3.436-4.698-4.911C213.847,226.677,210.135,222.699,207.512,218.156z M199.95,244.855    c3.451,0.138,6.9,0.222,10.389,0.17c1.592-0.023,3.184-0.044,4.775-0.065c-2.319,6.44-3.522,13.363-4.87,20.016    c-1.42,7.009-3.727,14.093-4.178,21.275c-3.959-0.082-7.919-0.181-11.877-0.3c-0.737-0.022-1.474-0.031-2.211-0.047    c1.321-7.507,2.747-15.003,4.397-22.43c1.021-4.598,1.795-9.263,2.665-13.892C199.327,248.051,199.75,246.453,199.95,244.855z     M192.933,244.518c1.368,0.075,2.73,0.147,4.091,0.213c-2.378,6.308-3.622,13.092-5.302,19.606    c-0.968,3.754-1.638,7.536-2.459,11.333c-0.726,3.358-1.748,6.724-2.111,10.14c-5.353-0.067-10.707-0.075-16.047-0.218    c-0.066-0.002-0.134-0.005-0.2-0.008c1.257-2.521,1.201-5.542,1.751-8.331c0.833-4.227,1.495-8.451,2.468-12.647    c1.541-6.644,3.718-13.422,4.037-20.297C183.742,244.451,188.354,244.265,192.933,244.518z M159.357,262.352    c1.076-5.244,1.225-12.052,3.714-16.858c2.128-4.108,9.224-1.59,13.169-1.318c0.082,0.006,0.165,0.008,0.246,0.013    c-1.866,7.142-3.896,14.254-5.771,21.384c-1.051,3.997-1.631,8.14-2.449,12.19c-0.548,2.71-1.2,5.151-0.473,7.699    c-4.597-0.217-9.305-0.499-13.817,0.225C156.432,278.135,157.785,270.012,159.357,262.352z M147.934,340.258    c0.87-6.384,1.743-12.784,2.329-19.194c0.638-6.997,1.561-14.059,2.557-20.995c0.419-2.915,0.456-5.87,0.703-8.839    c1.739,0.105,3.507,0.05,5.332,0.098c3.585,0.095,7.12,0.463,10.708,0.484c7.927,0.049,15.907,0.261,23.856,0.387    c9.844,0.156,19.677,0.414,29.539,0.234c4.753-0.087,9.35-0.139,14.086,0.097c2.612,0.13,5.338,0.06,7.953-0.437    c2.978,0.125,5.956,0.25,8.932,0.339c3.902,0.118,7.786,0.265,11.685,0.271c3.039,0.004,6.236,0.6,9.2-0.168    c0.048-0.002,0.096-0.002,0.144-0.004c4.736-0.236,9.333-0.183,14.086-0.097c9.862,0.181,19.695-0.078,29.539-0.234    c7.95-0.126,15.928-0.338,23.856-0.387c3.588-0.022,7.123-0.39,10.708-0.484c1.825-0.047,3.594,0.007,5.332-0.098    c0.246,2.969,0.283,5.925,0.703,8.839c0.996,6.937,1.92,13.999,2.557,20.995c0.586,6.411,1.458,12.81,2.329,19.194    c0.02,0.145,0.039,0.294,0.057,0.443c-4.935-0.776-10.304-0.644-15.053-0.666c-7.339-0.033-14.61,0.721-21.921,1.015    c-6.325,0.254-12.793-0.288-19.046,0.136c-3.468,0.235-6.784,0.076-10.246-0.024c-0.843-0.024-3.589,0.617-5.349,0.911    c-0.124-0.118-0.241-0.243-0.365-0.36c-6.76-6.366-17.651-13.229-27.47-12.036c-5.496-2.1-12.087-1.404-17.795-0.72    c-1.889,0.226-4.768,0.468-7.235,1.246c-7.453,1.77-14.763,6.776-19.789,11.51c-0.125,0.117-0.242,0.242-0.365,0.36    c-1.76-0.295-4.505-0.937-5.349-0.911c-3.462,0.101-6.779,0.26-10.246,0.024c-6.254-0.424-12.723,0.118-19.046-0.136    c-7.311-0.294-14.582-1.048-21.921-1.015c-4.75,0.022-10.119-0.109-15.054,0.666C147.895,340.552,147.915,340.403,147.934,340.258    z M144.969,289.396c-0.534,0.136,1.819-0.218,2.503-0.891c-0.061,0.234-0.064,0.467-0.02,0.692    c-0.024,0.475-0.051,0.906-0.059,0.991c-0.228,2.425-0.228,4.875-0.466,7.281c-0.497,5.002-1.121,10.253-1.885,15.246    c-0.725,4.744-1.118,9.551-1.747,14.295c-0.634,4.781-0.165,11.112-2.091,15.521c-0.808,1.849,0.292,1.068-1.907,1.848    c-0.632,0.224-2.635,0.154-3.221,0.197c-1.554,0.115-3.099,0.13-4.648,0.134c0.181-9.478,1.014-18.868,1.832-28.333    c0.769-8.906,2.897-17.653,3.007-26.563C139.271,290.007,142.327,290.067,144.969,289.396z M122.712,410.223    c-0.019-6.395-0.049-12.792-0.082-19.187c-0.026-5.137,0.16-10.332-0.306-15.447c-0.45-4.929-0.036-10.104-0.888-15.005    c2.603,0.062,5.162-0.021,7.093,0.071c1.104,0.053,2.502,0.191,3.969,0.246c-1.252,11.211-0.65,22.587-0.688,33.817    c-0.036,10.541,0.534,20.945,1.395,31.42c-3.572-0.149-7.163-0.251-10.757-0.3C123.357,420.8,122.727,415.251,122.712,410.223z     M126.721,355.747c-3.28-0.046-6.434,0.494-9.723-0.047c-3.231-0.532-3.108-1.357-3.757-3.628    c4.222-0.215,8.442-0.396,12.658-0.65c3.387-0.204,6.787-0.116,10.177-0.354c0.325-0.023,0.664-0.033,1.01-0.04    c-0.032,1.836,0.028,3.881-1.279,4.672C133.623,357.023,129.17,355.782,126.721,355.747z M117.981,391.035    c-0.031,6.035-0.062,12.07-0.08,18.105c-0.016,5.359-0.725,11.301,0.254,16.666c-7.009-0.012-14.006,0.176-20.862,0.629    c-15.765,1.04-31.633,0.338-47.407,1.299c-0.418,0.025-0.837,0.041-1.255,0.065c-0.002-0.004-0.006-0.009-0.008-0.013    c-1.257-4.273-0.962-10.715-0.671-15.013c0.405-5.969-0.177-11.968,0.293-17.921c0.539-6.815,0.401-13.927,0.36-20.774    c-0.025-4.259,0.83-9.231-0.357-13.438c1.188,0.017,2.361-0.024,3.449-0.278c1.088-0.253,1.92-0.727,2.568-1.347    c2.994,0.737,6.26,0.622,9.349,0.818c6.018,0.381,12.205,0.361,18.255,0.003c6.006-0.356,12.018-0.635,18.047-0.577    c3.934,0.039,8.446,0.424,12.418-0.368c1.58,0.899,3.757,1.331,6.094,1.534C116.42,370.088,118.03,381.345,117.981,391.035z     M94.818,315.934c-0.023-9.143,0.975-18.265,0.73-27.412c5.791-0.051,11.564,0.513,17.342,0.713    c-1.157,8.061-1.508,16.497-1.764,24.551c-0.334,10.476-1.151,21.174-0.469,31.691c-5.413,0.083-10.835,0.175-16.275,0.253    C95.006,335.885,94.843,325.72,94.818,315.934z M109.347,352.273c0.315-0.019,0.63-0.03,0.945-0.049    c-0.349,1.099-0.477,2.05-0.428,2.88c-3.625-0.358-7.366,0.017-10.98,0.033c-5.373,0.024-10.804,0.166-16.156,0.594    c-5.624,0.45-11.819,0.658-17.412,0.402c-3.079-0.141-6.229-0.348-9.338-0.165c0.363-1.27,0.513-2.673,0.615-4.036    c2.394,0.054,4.791,0.095,7.192,0.102C78.916,352.078,94.249,353.198,109.347,352.273z M90.579,315.053    c-0.404,10.076-1.551,20.574-1.043,30.733c-5.772,0.071-11.549,0.12-17.325,0.103c1.458-8.638,0.144-18.156,0.547-26.907    c0.458-9.966,2.502-19.867,2.841-29.838c5.596-0.112,11.192-0.231,16.781-0.53c0.263-0.014,0.526-0.014,0.79-0.024    C91.806,297.321,90.933,306.251,90.579,315.053z M70.611,301.118c-0.843,5.606-1.533,11.341-2.029,16.986    c-0.8,9.113-0.561,18.259-0.964,27.384c-0.06,0.124-0.102,0.246-0.127,0.371c-5.95-0.055-11.894-0.178-17.821-0.421    c0.88-3.724,0.47-8.035,0.682-11.835c0.321-5.772,0.918-11.508,1.077-17.284c0.24-8.736,1.71-17.45,2.266-26.179    c1.304-0.068,2.605-0.159,3.905-0.303c1.307-0.146,2.596-0.253,3.885-0.352c0.448,0.001,0.895-0.008,1.336-0.023    c3.429-0.123,6.859-0.198,10.288-0.267C72.337,293.169,71.214,297.113,70.611,301.118z M115.432,313.784    c0.074-8.163,1.241-16.361,0.436-24.485c0.123,0.001,0.245,0.006,0.368,0.006c4.666,0.31,9.266-0.094,13.983,0.094    c1.044,0.042,2.15,0.125,3.281,0.212c-0.803,3.355-1.16,6.951-1.692,10.262c-0.841,5.224-1.878,10.425-2.517,15.679    c-1.182,9.714-2.363,19.433-2.392,29.214c-3.889,0.124-7.766,0.476-11.662,0.605C115.929,334.948,115.338,324.179,115.432,313.784    z M78.407,117.711c1.92,0.472,4.186,0.186,6.35-0.144c3.066,0.753,6.774,0.466,9.406,0.431c1.93-0.027,3.805-0.356,5.706-0.452    c0.657-0.033,1.147-0.086,1.564-0.189c2.556,0.381,5.406,0.929,7.745,0.354c0.302-0.074,0.483-0.13,0.616-0.176    c-0.052,0.046-0.095,0.105-0.095,0.182c-0.001,0.552-0.241,1.122-0.394,1.645c-0.272,0.929-0.663,1.821-0.916,2.756    c-0.366,1.35-0.511,2.773-0.874,4.126c-4.451-0.8-9.343-0.024-13.697,0.414c-3.07,0.309-6.139,0.267-9.193,0.309    c-1.614-0.593-3.066-0.676-4.515-0.558c-0.397-1.402-0.534-2.888-0.914-4.292c-0.253-0.936-0.644-1.826-0.916-2.756    c-0.152-0.523-0.393-1.093-0.394-1.645c0-0.077-0.043-0.136-0.095-0.182C77.924,117.581,78.106,117.637,78.407,117.711z     M72.018,131.993c0.034-0.035,0.071-0.067,0.108-0.098c0.963-0.772,2.948-0.065,4.054-0.21c0.418-0.055,0.835-0.113,1.252-0.173    c5.236,0.946,10.922,0.939,16.017,0.69c2.926-0.143,5.708-0.577,8.663-0.542c2.356,0.028,4.439,0.052,6.5-0.398    c0.928,0.162,1.86,0.302,2.792,0.423c1.266,0.166,2.651-0.429,3.889-0.039c1.305,0.411,0.472,1.882,0.304,2.906    c-0.541,3.312-1.519,6.533-2.074,9.843c-0.202,1.203-0.452,2.553-0.493,3.769c-0.012,0.363,0.093,0.852,0.172,1.32    c-2.69-0.04-6.235-0.099-9.038,0.804c-0.071-0.432-0.162-0.853-0.304-1.244c-0.95-2.637-3.875-6.025-6.984-6.155    c-3.25-2.383-10.256-0.378-11.542,3.333c-0.72,0.922-1.284,1.917-1.611,2.823c-0.14,0.391-0.233,0.812-0.304,1.244    c-2.803-0.904-6.348-0.844-9.038-0.804c0.08-0.468,0.185-0.956,0.172-1.32c-0.042-1.216-0.292-2.565-0.493-3.769    c-0.544-3.241-1.509-6.413-2.05-9.665C71.881,133.949,71.346,132.674,72.018,131.993z M96.479,153.902    c-0.808,0.673-2.412,0.947-3.482,0.847c-1.648-0.155-3.388-1.814-3.602-3.494c-0.162-1.272,0.603-2.381,1.552-3.145    c1.383-1.115,5.195-2.648,6.292-0.35C98.305,149.995,98.548,152.18,96.479,153.902z M58.959,155.373    c0.909-0.645,4.385,0.112,5.425,0.157c5.032,0.215,10.033,0.537,15.035,0.927c1.84,0.144,3.435-0.001,4.757-0.74    c1.659,3.681,6.677,5.118,10.398,5.067c2.483-0.034,4.104-1.761,6.133-2.887c2.742-1.521,4.465-1.209,7.456-1.442    c5.002-0.39,10.004-0.71,15.035-0.927c1.042-0.045,4.516-0.802,5.425-0.157c1.433,1.017,1.192,3.72,1.091,5.183    c-0.179,2.602-1.298,5.107-1.689,7.68c-0.396,2.601-0.907,5.769-0.288,8.452c-4.868,0.424-10.131,0.943-14.959,0.504    c-1.453-0.133-5.135-0.241-6.39-0.932c-1.456-0.803-1.954-3.311-3.036-4.811c-2.065-2.866-4.881-4.583-8.253-5.479    c-0.485-0.129-0.933-0.024-1.308,0.198c-0.375-0.222-0.823-0.327-1.308-0.198c-3.373,0.897-6.189,2.614-8.253,5.479    c-1.081,1.501-1.58,4.009-3.036,4.811c-1.255,0.692-4.937,0.801-6.39,0.932c-4.828,0.441-10.09-0.08-14.959-0.504    c0.619-2.683,0.107-5.852-0.288-8.452c-0.392-2.574-1.51-5.078-1.689-7.68C57.767,159.092,57.526,156.39,58.959,155.373z     M97.12,183.726c-1.889,0.19-3.837,0.544-5.727,0.346c-0.057-0.005-0.119-0.019-0.178-0.025c-0.068-0.031-0.133-0.066-0.206-0.093    c-3.565-1.269-3.126-4.348-2.363-7.441c0.497-2.016,1.504-3.49,2.733-4.823c0.641-0.396,1.334-0.643,2.078-0.659    c0.971-0.022,1.818,0.296,2.663,0.572c1.266,1.357,2.308,2.85,2.816,4.91C99.659,179.435,100.085,182.344,97.12,183.726z     M46.884,182.214c4.112-0.508,9.37-0.24,12.946,0.287c5.116,0.753,11.134,1.372,16.321,0.877c1.768-0.169,3.862-0.152,5.751-0.592    c0.476,3.291,3.135,5.848,6.359,6.254c2.646,1.064,6.976,1.414,9.769,0.048c3.785,0.212,7.114-2.577,7.653-6.301    c1.888,0.44,3.984,0.423,5.751,0.592c5.187,0.496,11.205-0.124,16.322-0.877c3.575-0.526,8.834-0.794,12.946-0.287    c-0.471,5.637-3.47,10.972-4.428,16.523c-0.889,5.15-2.812,10.227-3.572,15.393c-4.836,0.085-9.676,0.354-14.521,0.468    c-3.471,0.083-5.664,0.277-7.441-2.977c-0.898-1.645-1.818-3.444-3.015-4.887c-2.314-2.788-5.859-5.077-9.516-5.283    c-0.494-0.268-1.057-0.477-1.78-0.59c-2.322-0.361-5.007-0.071-7.3,0.615c-3.568,0.293-7.007,2.532-9.269,5.257    c-1.198,1.443-2.117,3.242-3.015,4.887c-1.777,3.254-3.97,3.06-7.441,2.977c-4.845-0.115-9.686-0.383-14.521-0.468    c-0.76-5.165-2.683-10.242-3.572-15.393C50.352,193.186,47.354,187.851,46.884,182.214z M105.077,218.424    c-1.838,8.588-20.686,8.796-22.568,0c-0.476-2.224,0.911-6.086,2.944-9.012c1.053-0.837,2.067-1.66,3.005-2.06    c2.582-1.1,5.198-1.165,7.972-1.273c0.76-0.029,1.54,0.021,2.292-0.035C102.304,208.025,105.792,215.079,105.077,218.424z     M43.772,240.023c-1.435-3.776-2.33-7.677-3.365-11.572c-0.659-2.481-2.006-5.9-2.449-8.875c2.224,0.191,4.417,0.73,6.676,0.87    c2.84,0.177,5.716,0.055,8.559,0.101c5.395,0.085,10.795,0.607,16.212,0.732c2.327,0.054,4.859,0.265,7.064-0.349    c1.115,4.219,5.051,8.215,9.294,9.31c1.031,0.505,2.188,0.839,3.343,1.021c4.501,0.71,10.12,0.325,14.34-1.523    c1.088-0.476,9.175-8.389,7.673-8.808c2.204,0.614,4.736,0.403,7.064,0.349c5.416-0.126,10.817-0.647,16.212-0.732    c2.845-0.045,5.719,0.076,8.559-0.101c2.258-0.14,4.452-0.679,6.676-0.871c-0.443,2.975-1.791,6.394-2.449,8.875    c-1.035,3.896-1.93,7.796-3.365,11.572c-1.787,4.701-5.387,12.148-4.919,17.659c-2.701-0.04-5.29,0.157-6.939,0.2    c-4.96,0.129-9.76,1.374-14.685,1.483c-3.615,0.08-7.162-0.098-10.689,0.536c0.189-2.568,0.145-5.091,0.217-6.907    c0.143-3.602-2.69-7.824-6.245-9.812c-3.026-2.574-7.227-2.556-10.942-0.975c-4.555,1.938-7.073,4.256-8.281,9.092    c-0.171,0.684-2.103,8.341-1.319,8.451c-3.2-0.445-6.422-0.313-9.697-0.384c-4.924-0.108-9.724-1.353-14.685-1.483    c-1.648-0.043-4.238-0.24-6.939-0.2C49.158,252.172,45.558,244.724,43.772,240.023z M86.057,254.558    c-0.24-3.019,0.3-5.208,2.487-6.953c1.763-1.311,3.98-2.063,6.155-2.137c0.982,0.377,2.008,0.66,3.038,1.246    c3.298,1.88,4.073,4.291,3.79,7.843c-0.147,1.848-0.064,3.389,0.203,5.215c1.18,8.052-17.211,9.111-15.877-0.001    C86.121,257.946,86.205,256.405,86.057,254.558z M44.383,266.229c-1.359-2.355-1.291-1.409,0.291-2.218    c1.175-0.602,3.387-0.419,4.663-0.581c4.071-0.517,8.24-0.7,12.337-0.235c6.668,0.759,12.448,1.015,18.726-0.78    c-0.368,0.106,2.398,4.575,2.605,4.866c1.559,2.193,3.305,3.504,6.018,4.095c2.688,0.585,8.656,1.119,11.771-0.908    c3.584-0.682,4.984-4.295,5.548-8.284c6.611,2.075,12.601,1.803,19.569,1.011c4.097-0.466,8.267-0.283,12.337,0.235    c1.276,0.162,3.488-0.021,4.663,0.581c1.582,0.81,1.649-0.137,0.291,2.218c-2.623,4.544-6.333,8.522-9.897,11.911    c-0.914,0.869-2.153,1.726-3.154,2.69c-1.167,0.15-2.374,0.214-3.217,0.365c-3.674,0.656-7.209,1.045-10.939,1.077    c-8.537,0.075-16.982-1.073-25.543-0.327c-8.053,0.701-16.163-0.098-24.208,0.629c-2.433,0.22-4.849,0.595-7.265,0.477    c-0.664-1.997-3.147-3.436-4.698-4.912C50.717,274.751,47.005,270.774,44.383,266.229z M39.088,290.699    c4.128-0.373,8.277-0.331,12.415-0.465c-0.672,2.757-1.532,5.501-1.973,8.365c-0.814,5.284-1.73,10.621-2.097,15.954    c-0.34,4.965-0.789,9.91-1.118,14.874c-0.315,4.761,0.244,10.83-1.068,15.395c-0.039,0.136-0.056,0.264-0.072,0.391    c-1.716-0.087-3.435-0.161-5.147-0.271c-4.01-0.255-8-0.76-11.996-1.152c0.53-3.528,0.462-7.393,0.71-10.793    c0.367-5.025,1.161-9.936,1.8-14.935c1.125-8.808,3.005-17.954,3.496-26.878C35.723,291.014,37.407,290.85,39.088,290.699z     M24.272,335.543c-0.213,2.361-0.918,5.216-0.941,7.857c-2.55-0.168-4.989-0.411-7.511-0.907c-4.148-0.815-4.372-0.39-3.664-4.867    c0.738-4.667,1.327-9.22,1.48-13.954c0.178-5.499,1.144-10.514,2.157-15.881c0.599-3.177,0.967-6.331,1.747-9.476    c0.252-1.015,0.493-4.096,1.18-4.747c0.894-0.846,3.267-0.876,4.388-1.045c2.711-0.41,5.443-0.751,8.179-1.053    c-1.845,9.569-3.505,19.154-5.159,28.786C25.248,325.383,24.739,330.369,24.272,335.543z M26.954,352.717    c-0.347-0.813-0.401-1.681-0.44-2.546c8.249,0.742,16.492,1.3,24.764,1.604c-0.095,1.293-0.325,3.072-1.14,3.653    c-0.542,0.388-3.963-0.031-4.585,0.006c-3.678,0.217-6.949,0.499-10.646,0.105C31.485,355.175,28.378,356.058,26.954,352.717z     M42.415,417.421c0.12,2.95-0.186,7.362,0.824,10.656c-3.005,0.136-6.012,0.253-9.018,0.339c-0.007-0.043-0.023-0.084-0.033-0.127    c0.015,0.009,0.03,0.018,0.045,0.025c-0.907-3.976-0.104-9.022-0.152-13.055c-0.083-6.843-0.14-13.755,0.224-20.592    c0.599-11.237,1.797-23.135,0.31-34.406c0.176,0.021,0.354,0.041,0.521,0.065c2.935,0.425,5.642,0.435,8.605,0.257    c0.452-0.026,0.919-0.03,1.391-0.024c-1.101,5.391-1.009,11.012-1.228,16.478c-0.298,7.414-0.928,14.876-0.983,22.276    C42.879,405.293,42.173,411.47,42.415,417.421z M190.932,437.354c-0.486,3.57-2.424,3.156-5.593,3.103    c-3.354-0.057-6.645,0.253-9.992,0.341c-13.079,0.344-26.153-0.134-39.224,0.518c-25.307,1.262-50.646-0.143-75.916,0.032    c-13.571,0.094-27.154,0.399-40.69-0.213c-2.703-0.123-18.307-0.337-13.492-6.72c1.943-2.576,12.986-0.615,16.521-0.566    c13.525,0.188,27.054-1.544,40.568-1.692c13.473-0.148,26.884-0.801,40.342-1.143c13.937-0.355,28.045-0.215,41.945,0.615    c7.679,0.46,15.404,0.35,23.1,0.293c4.566-0.034,9.207,0.144,13.807-0.02c0.868,0.134,1.738,0.258,2.608,0.368    c1.98,0.6,3.933,0.618,5.88,0.295c0.097,0.01,0.162,0.021,0.175,0.033C191.597,433.249,191.054,436.453,190.932,437.354z     M191.793,427.697c-0.33,0.001-0.667,0.018-1.015,0.061c-0.732,0.092-1.469,0.197-2.206,0.304    c-6.949-0.961-14.137-0.57-21.129-0.608c-7.884-0.042-15.764-0.183-23.623-0.727c-1.834-0.127-3.678-0.24-5.528-0.341    c-0.002-0.195-0.021-0.379-0.057-0.55c-0.794-10.373-1.401-20.709-1.45-31.118c-0.053-11.059-0.072-22.776-1.409-33.869    c1.043-0.092,2.044-0.285,2.927-0.638c2.282,0.109,4.631,0.005,5.662,0.05c6.018,0.256,12.023,0.758,18.044,0.68    c6.508-0.084,13.041,0.289,19.555,0.366c5.264,0.062,10.465,0.617,15.659-0.094c-0.323,0.825-0.38,1.789-0.013,2.961    c1.504,4.803,6.02,5.38,10.289,5.435c-0.282,0.489-0.388,2.047-0.424,3.184c-0.057,0.818-0.135,1.675-0.062,2.494    c-0.115,3.053-0.189,6.1-0.511,9.143c-0.572,5.414-0.708,10.857-0.851,16.296c-0.149,5.664-0.279,11.351-0.456,17.025    c-0.081,2.597-0.699,5.885-0.358,8.784C200.466,426.535,196.11,426.805,191.793,427.697z M225.719,441.421    c-3.622,0.381-7.772-0.751-11.427-0.832c-4.35-0.096-8.78-0.154-13.158-0.067c-1.515,0.03-3.271-0.098-5.025-0.099    c0.794-2.897,0.868-6.407,0.163-8.928c3.671,0.156,7.426-0.112,11.034-0.139c0.518,0.228,1.057,0.201,1.552-0.004    c3.834,0.04,7.663,0.14,11.495,0.32c1.996,0.094,3.999,0.357,5.995,0.355c0.941-0.001,2.239-0.329,3.313-0.173    c0.034,1.403-0.038,2.82,0.019,4.22C229.818,439.5,229.035,441.072,225.719,441.421z M270.802,407.678    c-0.806,9.592-0.972,18.931-0.716,28.549c0,0.005,0.002,0.009,0.002,0.014c-6.336,0.115-12.661-0.057-19.017-0.252    c-3.556-0.108-7.136,0.239-10.697,0.209c-0.207-0.001-0.414-0.008-0.622-0.016c-0.101-0.127-0.227-0.243-0.404-0.332    c1.111,0.555,1.18-10.559,1.19-11.571c0.049-5.049,0.055-10.098,0.071-15.148c0.028-8.932,0.359-18.037-0.133-26.917    c-0.076-1.388,0.201-3.151-0.091-4.496c0.056-0.492,0.035-0.98-0.047-1.464c2.486-0.939,7.117-0.065,9.641-0.246    c6.917-0.497,14.054,0.686,20.988,0.344c1.233,4.159,0.048,9.883-0.136,13.895C270.567,396.035,271.288,401.9,270.802,407.678z     M279.859,427.746c-2.799,1.355-2.42,5.373-2.438,8.258c-0.109-0.008-0.215-0.023-0.33-0.016    c-0.626,0.035-1.253,0.061-1.879,0.089c0-0.129,0.001-0.258,0.001-0.388c0-0.05-0.011-0.091-0.013-0.139    c-0.289-10.807,0.61-21.444,0.625-32.228c0.008-5.932,0.057-11.827,0.234-17.746c0.128-4.316,0.5-8.969-1.401-12.937    c-0.334-0.697-1.308-1.265-2.08-1.193c-3.303,0.304-7.019-0.015-10.394-0.005c-4.624,0.013-9.107-0.319-13.698,0.031    c-5.187,0.395-13.1-1.951-12.877,5.527c0.265,8.876,0.51,17.754,0.538,26.669c0.019,6.16,0.013,12.321,0.064,18.481    c0.036,4.446-0.515,9.519,0.599,13.914c-0.75-0.005-1.495,0.033-2.222,0.175c-0.043-2.897,0.434-7.097-2.441-8.49    c-1.378-0.667-3.081-0.376-4.536-0.369c-0.429,0.002-0.856-0.011-1.285-0.019c-1.034-10.4,0.316-20.956,0.081-31.384    c-0.123-5.406-0.262-10.82-0.482-16.224c-0.13-3.211-0.102-6.931-1.171-10.085c0.732-0.06,1.46-0.134,2.181-0.233    c5.057-0.695,7.919-4.925,10.498-9.09c1.648-2.661,3.786-5.589,6.258-8.173c1.962-1.417,3.984-2.735,6.227-3.617    c5.029-1.974,9.623-0.581,14.612,0.198c4.087,3.126,7.604,7.649,10.046,11.592c2.579,4.165,5.442,8.395,10.498,9.09    c0.72,0.099,1.448,0.173,2.181,0.233c-1.068,3.154-1.041,6.875-1.171,10.085c-0.22,5.403-0.359,10.817-0.482,16.224    c-0.236,10.427,1.115,20.985,0.081,31.384c-0.427,0.009-0.855,0.021-1.285,0.019C282.939,427.37,281.236,427.078,279.859,427.746z     M310.868,440.522c-4.378-0.086-8.808-0.029-13.158,0.067c-3.654,0.081-7.804,1.213-11.426,0.832    c-3.317-0.349-4.101-1.921-3.963-5.349c0.056-1.4-0.015-2.816,0.019-4.22c1.073-0.156,2.371,0.172,3.313,0.173    c1.997,0.001,4-0.261,5.995-0.355c3.831-0.18,7.66-0.282,11.495-0.32c0.495,0.206,1.034,0.232,1.552,0.004    c3.609,0.028,7.364,0.295,11.034,0.139c-0.705,2.521-0.63,6.032,0.164,8.928C314.139,440.425,312.383,440.552,310.868,440.522z     M307.164,426.534c0.341-2.899-0.276-6.185-0.358-8.784c-0.177-5.674-0.307-11.361-0.456-17.025    c-0.144-5.44-0.278-10.883-0.851-16.296c-0.321-3.042-0.395-6.089-0.51-9.143c0.073-0.82-0.004-1.677-0.062-2.494    c-0.038-1.137-0.143-2.694-0.424-3.184c4.27-0.055,8.786-0.632,10.289-5.435c0.367-1.172,0.309-2.135-0.013-2.961    c5.194,0.711,10.395,0.156,15.659,0.094c6.513-0.076,13.047-0.45,19.555-0.366c6.022,0.077,12.026-0.423,18.044-0.681    c1.032-0.044,3.379,0.06,5.662-0.05c0.884,0.352,1.885,0.547,2.929,0.638c-1.337,11.094-1.357,22.81-1.41,33.869    c-0.05,10.409-0.656,20.744-1.45,31.118c-0.036,0.171-0.055,0.356-0.057,0.55c-1.85,0.102-3.695,0.214-5.528,0.341    c-7.858,0.544-15.739,0.685-23.623,0.727c-6.991,0.038-14.179-0.354-21.129,0.608c-0.737-0.106-1.474-0.212-2.206-0.304    c-0.348-0.043-0.685-0.061-1.015-0.061C315.891,426.805,311.535,426.535,307.164,426.534z M492.486,441.135    c-13.536,0.612-27.118,0.306-40.69,0.213c-25.27-0.174-50.61,1.23-75.916-0.032c-13.071-0.652-26.145-0.174-39.224-0.518    c-3.347-0.088-6.638-0.399-9.992-0.341c-3.171,0.054-5.108,0.468-5.594-3.103c-0.123-0.9-0.665-4.105-0.038-4.756    c0.012-0.012,0.077-0.023,0.174-0.033c1.948,0.324,3.901,0.306,5.88-0.295c0.87-0.109,1.74-0.234,2.608-0.368    c4.6,0.162,9.24-0.014,13.807,0.02c7.694,0.057,15.421,0.167,23.1-0.293c13.9-0.832,28.008-0.97,41.945-0.615    c13.458,0.342,26.87,0.995,40.342,1.143c13.514,0.149,27.043,1.88,40.568,1.692c3.535-0.049,14.578-2.011,16.521,0.566    C510.793,440.798,495.189,441.012,492.486,441.135z"/>
	</g>
</g>
<g>
	<g>
		<path d="M305.131,310.592c-0.805-3.509-1.537-6.395-5.222-7.79c-2.518-0.953-4.44-0.186-6.318-2.708    c-1.03-1.384-1.076-2.851-2.587-4.031c-3.113-2.43-6.682-1.637-10.257-1.3c-1.881,0.178-3.799,0.49-5.721,0.807    c-8.377-1.23-17.332-0.597-25.713-0.509c-4.79,0.05-9.493,0.486-14.298,0.193c-1.264-0.198-2.52-0.376-3.76-0.493    c-3.575-0.337-7.145-1.13-10.257,1.3c-1.511,1.18-1.558,2.648-2.587,4.031c-1.878,2.523-3.8,1.754-6.318,2.708    c-3.685,1.395-4.417,4.282-5.222,7.79c-0.695,3.029-3.064,8.246-0.816,11.206c2.152,2.834,8.799,2.835,11.896,3.047    c5.849,0.401,11.609,0.769,17.486,0.703c2.658-0.03,5.423,0.056,8.194,0.053c1.658,0.242,3.45,0.14,4.984,0.198    c3.706,0.139,8.353,0.373,12.112-0.634c5.197,0.701,10.716,0.325,15.842,0.382c5.877,0.066,11.637-0.302,17.487-0.703    c3.095-0.212,9.744-0.214,11.894-3.045C308.197,318.838,305.826,313.621,305.131,310.592z M302.239,317.149    c-0.576,2.541-2.253,2.138-4.756,2.45c-3.822,0.476-7.653,0.907-11.49,1.231c-8.349,0.705-17.469-0.714-25.836,0.676    c-2.783-0.55-5.703-0.234-8.567-0.038c-8.297-1.319-17.314,0.059-25.58-0.639c-3.837-0.324-7.669-0.755-11.49-1.231    c-2.504-0.313-4.18,0.091-4.756-2.45c-0.208-0.911,0.751-5.758,1.048-6.931c1.182-4.662,4.514-3.147,7.876-4.896    c1.886-0.981,2.045-2.705,3.191-4.27c1.263-1.723,2.662-2.567,4.174-2.947c1.475,0.402,3.133,0.367,4.593,0.512    c5.522,0.545,10.78,0.682,16.315,0.413c8.753-0.424,18.036,1.074,26.713-0.591c1.397-0.077,2.793-0.164,4.165-0.22    c4.739-0.193,8.975-1.676,12.281,2.834c1.147,1.564,1.306,3.289,3.191,4.27c3.362,1.749,6.693,0.235,7.876,4.896    C301.486,311.391,302.446,316.237,302.239,317.149z"/>
	</g>
</g>
<g>
	<g>
		<path d="M444.007,406.342c-0.237-3.889-0.614-7.818-1.169-11.672c0.545-6.472,2.223-18.009-3.099-22.3    c-2.553-2.058-6.927-1.963-10.031-2.159c-3.643-0.23-7.73-0.158-11.331,0.299c-8.843,1.122-7.977,9.022-8.242,16.092    c-0.33,8.798-0.916,18.161,1.561,26.691c2.075,7.142,8.481,6.634,14.863,6.063c4.491-0.402,14.836,0.127,17.228-4.811    C444.947,412.151,444.164,408.911,444.007,406.342z M439.564,410.318c-0.348,2.401-1.32,2.641-3.694,3.21    c-5.152,1.236-12.64,2.794-17.287-0.046c-2.677-1.635-2.735-2.55-3.288-5.377c-0.379-1.939-0.657-3.838-0.727-5.824    c-0.096-2.704-0.01-5.425-0.011-8.134c-0.001-3.208,0.041-6.394,0.183-9.599c0.177-3.974-0.935-8.51,4.24-9.586    c4.096-0.852,15.304-1.159,17.882,1.974c0.474,0.576,0.801,1.254,1.044,1.984c0.066,7.783,0.598,15.564,1.268,23.32    C439.395,404.778,439.933,407.774,439.564,410.318z"/>
	</g>
</g>
<g>
	<g>
		<path d="M364.798,401.609c-0.367-4.262-0.423-8.596-0.84-12.837c-0.464-4.725-0.972-10.535-5.867-12.576    c-3.552-1.481-7.944-1.798-12.203-1.576c-5.247-1.215-12.165-1.661-14.819,2.241c-1.601,2.354-0.461,4.986-0.483,7.585    c-0.031,3.721,0.045,7.372,0.06,11.087c0.027,6.345,0.034,14.175,3.475,19.791c2.838,4.632,9.306,4.188,14.294,3.731    c4.824-0.442,14.137-1.41,16.214-6.793C365.763,409.324,365.062,404.662,364.798,401.609z M360.282,406.229    c-0.236,3.894-0.808,5.452-4.659,6.583c-2.426,0.713-5.009,1.352-7.552,1.459c-4.693,0.198-9.636,0.652-11.358-4.374    c-1.793-5.236-1.422-10.641-1.653-16.019c-0.105-2.449-0.479-4.762-0.268-7.226c0.146-1.694-0.43-3.936-0.061-5.496    c0.89-3.769,8.418-2.863,13.195-2.835c1.72,0.162,3.443,0.331,5.17,0.556c3.53,0.457,5.714,1.673,6.316,5.707    c0.317,2.122,0.351,4.677,0.377,6.787C359.848,396.311,360.581,401.298,360.282,406.229z"/>
	</g>
</g>
<g>
</g>
<g>
</g>
<g>
</g>
<g>
</g>
<g>
</g>
<g>
</g>
<g>
</g>
<g>
</g>
<g>
</g>
<g>
</g>
<g>
</g>
<g>
</g>
<g>
</g>
<g>
</g>
<g>
</g>
</svg>
