<?xml version="1.0" encoding="iso-8859-1"?>
<!-- Generator: Adobe Illustrator 19.0.0, SVG Export Plug-In . SVG Version: 6.00 Build 0)  -->
<svg xmlns="http://www.w3.org/2000/svg" xmlns:xlink="http://www.w3.org/1999/xlink" version="1.1" id="Layer_1" x="0px" y="0px" viewBox="0 0 512.002 512.002" style="enable-background:new 0 0 512.002 512.002;" xml:space="preserve">
<g>
	<g>
		<path d="M235.314,136.436c-0.052-0.976-1.359-0.923-1.479,0c-0.686,5.249-2.861,10.472-4.882,15.327    c-1.94,4.662-3.962,10.331-7.002,14.367c-0.492,0.654,0.544,1.376,1.099,0.848c4.304-4.089,6.812-7.85,8.979-13.451    C234.163,148.01,235.629,142.386,235.314,136.436z"/>
	</g>
</g>
<g>
	<g>
		<path d="M235.939,155.666c-2.192,5.181-5.503,10.304-8.04,15.396c-2.621,5.26-2.85,10.017-2.656,15.701    c0.009,0.264,0.347,0.433,0.541,0.224c1.363-1.46,1.398-3.256,1.811-5.198c0.854-4.02,2.035-7.631,3.942-11.289    c2.136-4.097,5.738-9.717,5.509-14.535C237.021,155.437,236.187,155.08,235.939,155.666z"/>
	</g>
</g>
<g>
	<g>
		<path d="M226.836,132.292c-2.781,2.016-5.443,4.2-8.185,6.27c-1.303,0.983-2.911,1.487-4.17,2.442    c-1.198,0.909-1.625,1.53-3.348,2.008c-0.522,0.144-0.585,1.014,0,1.12c1.446,0.263,2.714,0.309,4.042-0.392    c1.101-0.581,2.364-1.199,3.487-1.844c4.026-2.314,6.634-4.967,8.787-8.989C227.645,132.542,227.224,132.011,226.836,132.292z"/>
	</g>
</g>
<g>
	<g>
		<path d="M270.209,173.901c-0.063-0.292-0.483-0.328-0.626-0.081c-6.52,11.246-5.181,25.928-7.963,38.236    c-1.766,7.813-4.166,15.292-6.627,22.897c-2.149,6.635-2.933,14.499-6.112,20.716c-0.234,0.457,0.394,0.817,0.684,0.4    c1.908-2.745,3.129-6.232,4.757-9.2c1.661-3.028,3.248-6.089,4.55-9.297c3.057-7.534,5.296-15.418,7-23.358    c1.674-7.795,1.771-15.728,2.794-23.591C269.358,185.301,271.386,179.28,270.209,173.901z"/>
	</g>
</g>
<g>
	<g>
		<path d="M246.969,261.822c-0.073,0-0.073,0.113,0,0.113C247.041,261.935,247.041,261.822,246.969,261.822z"/>
	</g>
</g>
<g>
	<g>
		<path d="M252.305,197.637c-5.444,9.799-11.71,19.448-16.351,29.648c-2.354,5.174-4.143,10.636-5.589,16.13    c-1.677,6.369-1.769,12.625-2.685,19.073c-0.096,0.67,0.766,0.923,1.019,0.281c2.214-5.639,2.662-11.888,4.271-17.72    c1.598-5.791,4.064-11.637,6.705-17.017c2.355-4.795,5.025-9.467,7.524-14.196c2.715-5.139,4.371-10.225,6.529-15.6    C254.06,197.41,252.726,196.878,252.305,197.637z"/>
	</g>
</g>
<g>
	<g>
		<path d="M286.569,332.87c0.426-4.977,1.777-9.63,1.247-14.655c-0.089-0.841-1.25-0.856-1.32,0    c-0.755,9.057-2.595,18.016-3.357,27.098c-0.688,8.211-2.504,18.255,0.279,26.164c0.388,1.101,1.817,1.074,2.215,0    c1.513-4.08,0.331-8.644,0.383-12.934c0.052-4.395-0.125-8.848,0.082-13.23C286.293,341.188,286.216,336.994,286.569,332.87z"/>
	</g>
</g>
<g>
	<g>
		<path d="M277.139,336.252c-1.921,4.356-1.74,9.732-1.849,14.439c-0.143,6.099-0.494,11.693,0.731,17.749    c0.193,0.952,1.847,1.013,1.986,0c0.692-5.009-0.234-10.163-0.034-15.228c0.206-5.218-1.085-11.406,0.492-16.401    C278.709,336.043,277.475,335.49,277.139,336.252z"/>
	</g>
</g>
<g>
	<g>
		<path d="M253.952,122.485c-0.706,0.238-1.464,0.593-2.214,0.613c-0.331,0.009-0.808-0.009-1.111-0.151    c-0.281-0.132-0.38-0.336-0.715-0.381c-0.292-0.039-0.673,0.066-0.731,0.415c-0.456,2.704,5.093,2.607,5.815,0.548    C255.205,122.93,254.545,122.286,253.952,122.485z"/>
	</g>
</g>
<g>
	<g>
		<path d="M264.988,122.827c-0.651,0.199-1.513,0.144-2.188,0.082c-0.616-0.057-1.227-0.115-1.833-0.142    c-0.38-0.017-0.771,0.354-0.743,0.742c0.096,1.281,1.059,1.494,2.167,1.666c1.159,0.179,2.389,0.261,3.452-0.319    C266.941,124.257,266.197,122.456,264.988,122.827z"/>
	</g>
</g>
<g>
	<g>
		<path d="M260.924,131.294c-0.541-0.397-1.139-0.239-1.789-0.281c-0.888-0.056-1.77-0.123-2.659-0.096    c-0.438,0.014-2.806,0.184-2.222,1.237c0.544,0.984,2.641,0.631,3.564,0.576c1.118-0.066,2.518,0.154,3.268-0.823    C261.243,131.702,261.099,131.422,260.924,131.294z"/>
	</g>
</g>
<g>
	<g>
		<path d="M259.348,128.16c-0.278,0.028-0.332-0.082-0.586-0.185c-0.352-0.141-0.761-0.115-1.13-0.113    c-0.436,0.002-0.859-0.063-1.292-0.082c-0.307-0.014-0.658,0.078-0.959,0.01c-0.241-0.053-0.412,0.143-0.374,0.374    c0.204,1.2,1.612,1.307,2.626,1.351c0.749,0.033,1.662-0.285,1.931-1.072C259.608,128.316,259.489,128.146,259.348,128.16z"/>
	</g>
</g>
<g>
	<g>
		<path d="M330.79,200.647c2.16-3.831,3.77-9.669,0.148-13.036c-2.352-2.186-6.209-3.48-9.071-4.935    c-2.482-1.262-5.203-2.413-8.004-2.59c-6.707-0.422-8.8,5.094-11.988,9.996c-1.118-0.845-2.229-1.501-2.984-3.088    c-0.904-1.901-0.813-4.066-1.832-5.969c-1.02-1.905-2.54-2.924-4.102-4.317c-0.599-0.534-1.063-1.341-1.778-1.744    c-0.37-0.208-0.784-0.272-1.192-0.353c-0.504-4-1.091-8.014-2.879-11.548c-2.329-4.602-7.043-6.045-10.636-9.146    c-0.151-0.482-0.402-0.939-0.773-1.359c0.648-2.709,1.195-5.38,0.771-8.144c-0.442-2.865-1.704-4.609-1.265-7.847    c0.182-1.35,0.808-2.614,0.935-4.013c0.278-3.057,0.01-5.386-1.023-8.169c-0.484-1.305-0.45-2.483-0.083-3.844    c0.146-0.543,0.956-3.313,1.343-3.433c0.073-0.023,0.143-0.03,0.22-0.062c4.545-1.875,10.326,0.654,14.49-2.098    c0.221-0.146,0.221-0.446,0-0.593c-2.187-1.446-4.626-1.184-7.164-1.226c-1.615-0.027-3.347,0.113-4.938-0.207    c-0.554-0.112-1.041-0.263-1.534-0.388c0.003-1.224-0.274-2.422-0.728-3.564c0.441-0.247,0.904-0.513,1.449-0.772    c1.549-0.738,3.139-1.373,4.685-2.13c2.825-1.382,5.388-1.579,7.642-3.85c0.279-0.282,0.083-0.83-0.336-0.811    c-1.181,0.053-2.051,0.532-3.126,0.774c-1.401,0.315-2.793,0.402-4.215,0.896c-2.589,0.899-5.67,1.206-8.329,2.133    c-0.25-0.313-0.507-0.617-0.77-0.907c-0.975-1.075-2.098-1.999-3.314-2.797c1.853-1.937,3.681-3.931,5.356-6.012    c1.04-1.291,2.738-3.123,2.721-4.878c-0.003-0.305-0.37-0.442-0.586-0.242c-1.512,1.39-3.698,2.224-5.37,3.427    c-2.222,1.6-4.172,3.447-6.125,5.359c-0.082,0.081-0.143,0.167-0.21,0.251c-2.275-0.838-4.693-1.34-7.094-1.481    c-0.056-0.241-0.157-0.483-0.327-0.721c-1.033-1.444-0.489-3.997-0.629-5.685c-0.206-2.491-0.239-6.276-1.911-8.295    c-0.115-0.139-0.39-0.139-0.504,0c-2.169,2.618-1.106,6.256-1.23,9.326c-0.074,1.861-0.696,3.803-0.275,5.553    c-2.246,0.256-4.465,0.696-6.545,1.441c-0.656-1.021-1.598-1.627-2.607-2.329c-1.058-0.735-1.86-1.691-2.907-2.425    c-1.368-0.959-2.783-1.852-4.135-2.844c-1.41-1.033-2.755-2.4-4.471-2.867c-0.253-0.069-0.549,0.131-0.535,0.408    c0.152,2.989,3.567,5.58,5.482,7.614c0.862,0.916,1.645,1.964,2.554,2.823c0.708,0.669,1.515,1.213,2.292,1.8    c-1.29,0.886-2.47,1.955-3.488,3.259c-0.442,0.566-0.882,1.161-1.301,1.78c-0.125-0.028-0.25-0.059-0.388-0.07    c-0.759-0.06-1.675-0.152-2.456,0.018c-0.06-0.002-0.148-0.001-0.296,0.006c-0.442,0.02-0.816,0.036-1.254,0.03    c-1.342-0.016-3.186,0.109-4.475-0.302c-0.639-0.204-1.141,0.672-0.656,1.126c0.734,0.685,1.733,1.003,2.673,1.261    c1.366,0.375,1.718,0.674,2.812,1.128c0.373,0.312,0.798,0.555,1.273,0.722c0.827,0.29,0.06-0.01,0.639,0.282    c-0.409,1.313-0.568,2.683-0.328,4.081c0.192,1.117,1.359,4.565,2.461,4.412c0.059,0.067,0.153,0.11,0.238,0.161    c-0.669,1.194-1.1,2.507-1.147,3.719c-0.06,1.538,0.174,3.149,0.291,4.718c-0.415-0.429-0.865-0.823-1.304-1.289    c-1.886-2.01-1.557-2.731-1.481-5.168c0.159-5.024-2.32-10.132-7.079-8.012c-0.228-0.91-0.537-1.811-0.948-2.694    c-0.579-1.25-0.988-2.207-1.289-3.164c1.992-6.991-0.53-11.477-1.583-18.834c-1.126-7.859-3.727-16.659-2.919-24.51    c0.594-5.777,1.662-12.555-1.467-17.915c-0.526-0.901-1.324-1.647-2.251-2.19c0.676-2.016,0.566-4.145,0.593-6.253    c0.003-0.263,0.003-0.524-0.006-0.782c2.215-0.237,4.774,0.104,5.915-2.077c1.17-2.233,0.409-6.738,0.11-9.159    c-0.515-4.161-4.968-4.902-9.324-4.915c4.634-5.925,4.586-15.627-1.367-20.815c-0.384-0.335-1.019-0.418-1.393,0    c-0.971,1.086-1.17,2.577-1.33,4.066c-0.971-1.152-2.001-2.55-2.364-3.201c-0.536-0.962-2.092-0.536-2.074,0.562    c0.057,3.547-1.079,6.051-2.632,9.165c-0.843,1.691-2.075,3.44-2.191,5.334c-0.114,1.865,0.846,3.948,2.337,5.194    c-2.313,0.159-4.634,0.54-6.636,1.465c-2.386,1.102-2.349,2.353-2.493,4.801c-0.161,2.726-0.655,6.256,1.513,8.307    c1.283,1.215,2.959,1.475,4.605,1.242c0.019,1.852,1.291,4.039,2.446,5.394c-1.887,0.112-2.771,1.683-2.399,3.502    c0.213,1.042,0.756,2.056,1.079,3.073c0.522,1.643,0.223,3.314,0.605,4.959c0.353,1.52,1.237,2.96,2.558,3.659    c-0.456,1.448-0.446,2.765-0.107,4.438c0.479,2.365,0.49,4.7,0.868,7.07c0.204,1.283,0.523,3.035,1.237,4.446    c-0.793,4.389,0.07,9.045,0.192,13.473c0.117,4.277-0.071,8.812,0.521,13.045c0.26,1.864,0.828,3.315,1.435,5.043    c1.29,3.672,1.5,6.766,1.523,10.651c0.009,1.508,0.045,2.986,0.123,4.447l-0.038,0.019c-0.045,0.023-0.08,0.055-0.116,0.086    c-2.763,1.666-4.406,6.201-5.581,9.018c-0.913,2.186-2.068,4.62-2.206,7.021c-0.158,2.727,1.254,4.018,2.077,6.42    c1.138,3.322-1.822,7.487,0.392,10.557c0.999,1.386,1.87,1.328,3.45,1.659c2.239,0.468,1.185-1.421,2.939,1.047    c0.016,0.021,0.026,0.063,0.041,0.09c-0.795,2.413-1.246,5.078-1.213,7.489c0.051,3.688,3.335,4.998,3.086,8.779    c-0.203,3.07-2.115,6.313-1.759,9.403c0.207,1.793,1.567,2.644,2.839,3.695c2.159,1.782,4.581,4.261,4.817,7.186    c0.076,0.937,0.133,4.415,1.051,6.43c-0.681,1.865-0.643,3.944-1.242,5.854c-0.675,2.159-1.705,4.131-2.789,6.109    c-1.279,2.336-2.757,4.618-3.858,7.033c-1.291,2.833-2.003,6.288-1.68,9.381c0.26,2.487,0.997,3.839,2.077,5.252    c1.052,2.863,2.852,5.325,5.013,7.806c-0.23,2.14-0.654,4.243-1.548,6.257c-2.47,5.563-2.93,10.436-0.356,16.209    c1.034,2.321,2.418,4.131,2.596,6.883c0.134,2.081-0.572,4.312-0.914,6.375c-0.617,3.729-0.866,7.161-0.192,10.884    c0.914,5.033,0.506,8.172-0.443,13.156c-0.471,2.478-1.224,5.471,0.048,7.835c0.417,0.774,0.87,1.368,1.346,1.834    c-0.724,1.636-1.641,3.211-2.079,4.968c-0.69,2.762-1.149,5.633-1.266,8.469c-0.291,7.096,1.298,13.669,1.407,20.67    c0.061,3.923,0.366,6.378-1.772,9.805c-1.466,2.349-2.32,4.701-1.935,7.456c0.162,1.163,0.735,2.178,0.82,3.38    c0.155,2.17-0.657,3.455-1.683,5.44c-0.632,1.222-1.392,2.412-2.062,3.622c-0.93,1.677-1.776,3.234-0.953,5.227    c0.213,0.516,0.475,0.939,0.774,1.286c-2.184,0.456-4.86,0.931-5.371,1.161c-1.81,0.815-4.066,2.213-5.032,4.028    c-1.072,2.013-1.484,6.48-0.221,9.132c-0.526,0.095-1.04,0.189-1.517,0.279c-2.238,0.428-3.906,1.263-4.78,3.441    c-1.173,2.923,0.71,5.184,0.788,8.096c0.079,2.962-1.893,5.222-2.278,8.155c-0.274,2.086,0.385,6.26-0.29,6.784    c-1.789,1.39-5.703,0.954-7.719,2.004c-2.347,1.222-2.94,2.88-3.53,5.255c-1.426,5.741-1.654,12.808-0.219,18.583    c0.426,1.715,0.9,2.933,2.425,3.78c0.499,0.277,1.875,0.372,2.167,0.603c1.251,0.988,1.992,3.725,2.195,5.149    c0.211,1.481,0.092,3.158,0.081,4.658c-0.053,7.015-0.577,14.04-1.095,21.03c-0.248,3.344-0.043,6.624-0.141,9.941    c-0.108,3.662-0.966,7.621-0.718,11.246c0.041,0.594,0.136,1.12,0.255,1.617c-0.213,0.797-0.073,1.681,0.634,2.386    c3.567,3.555,9.39,4.209,14.34,4.161c6.137-0.06,12.284-0.597,18.454-0.507c8.253,0.119,16.668,0.178,24.882-0.305    c8.437-0.496,16.691-0.304,25.153-0.312c9.72-0.009,19.425-0.026,29.129,0.321c5.229,0.187,16.245,1.073,19.535-4.268    c1.844-2.994,0.349-6.703,0.127-9.934c-0.295-4.297-0.154-8.635,0.213-12.924c0.674-7.852,1.752-16.095,1.429-23.962    c-0.174-4.215,1.753-6.262,4.354-9.17c1.094-1.224,1.635-2.285,2.004-3.868c0.957-4.101,0.694-9.125,0.204-13.281    c-0.314-2.665-0.075-6.838-2.811-8.314c-2.613-1.411-5.6,0.394-7.36-1.869c-1.174-1.509-0.41-4.131-1.5-5.663    c-1.216-1.709-2.324-1.322-2.69-3.357c-0.333-1.859,0.539-4.831,0.746-6.741c0.464-4.267,0.233-8.209-3.37-11.146    c-0.748-0.61-1.499-1.039-2.252-1.346c1.709-2.781,0.27-8.137-0.255-10.723c-0.043-0.21-0.119-0.385-0.217-0.537    c0.212-0.642,0.091-1.393-0.588-2.073c-3.167-3.168-4.188-5.328-4.678-9.821c-0.513-4.695-0.88-9.698-0.977-14.405    c-0.08-3.951,0.028-7.635-0.404-11.563c-0.11-1.008-0.146-2.03-0.166-3.055c0.367,0.245,0.767,0.448,1.241,0.543    c7.382,1.485,5.936-16.528,5.938-19.925c0.008-10.945-0.157-20.989-2.442-31.595c0.278-0.962,0.5-1.942,0.545-3.003    c0.103-2.395-0.211-4.953-0.549-7.319c-0.995-6.965-0.585-13.434-2.501-20.323c-0.667-2.398-1.159-4.713-1.531-7.014    c0.829,0.372,1.697,0.611,2.402,0.705c3.68,0.491,6.819-1.589,8.138-4.977c0.772-1.981,0.559-4.153,1.163-6.167    c0.786-2.621,2.905-3.897,4.01-6.27c1.669-3.584,2.358-8.467,1.212-12.465c0.672,0.095,1.211-0.145,1.559-0.555    c0.994,0.034,2.143-0.673,3.246-1.149c3.659-1.583,6.062-4.207,8.025-7.643c2.036-3.564,3.824-11.126,1.113-15.064    C330.651,200.856,330.725,200.762,330.79,200.647z M292.668,182.174c0.946,1.419,0.79,2.731,1.109,4.319    c0.632,3.144,2.585,6.013,5.308,7.67c-1.51,2.166-3.028,4.376-4.299,6.684c-0.002-0.26-0.005-0.522-0.018-0.782    c-0.338-6.337-2.305-11.933-3.662-18.08c-0.15-0.679-0.277-1.37-0.394-2.068C291.356,180.678,292.113,181.342,292.668,182.174z     M271.096,108.69c0.396,0.623,0.738,1.299,1.008,2.042c0.392,1.078,0.472,2.095,0.432,3.086c-0.57-0.844-1.307-1.591-2.157-2.257    C270.74,110.645,270.831,109.645,271.096,108.69z M266.557,106.393c0.151-0.534,0.212-1.076,0.256-1.621    c0.705,0.392,1.367,0.845,1.983,1.349c-0.278,0.496-0.552,0.995-0.777,1.52c-0.261,0.606-0.521,1.345-0.673,2.096    c-0.472-0.221-0.954-0.43-1.451-0.619C266.137,108.217,266.304,107.288,266.557,106.393z M260.225,102.545    c1.325,0.246,2.647,0.58,3.913,1.03c-0.259,0.719-0.472,1.459-0.765,2.205c-0.297,0.761-0.54,1.564-0.635,2.376    c-0.862-0.205-1.727-0.37-2.579-0.494c-0.382-0.972-0.383-2.604-0.562-3.624c-0.096-0.549-0.204-1.084-0.313-1.62    C259.596,102.462,259.922,102.489,260.225,102.545z M256.595,102.214c-0.212,1.716-0.18,3.504,0.205,5.163    c-1.007-0.025-1.956,0.005-2.79,0.099c-0.305,0.035-0.622,0.105-0.933,0.157c-0.195-1.674-0.568-3.513-1.421-4.98    C253.293,102.316,254.969,102.19,256.595,102.214z M264.796,112.251c2.869,1.126,4.604,3.644,5.567,6.471    c0.983,2.883,1.59,6.412,1.908,9.423c0.326,3.086-0.276,5.139-0.91,8.124c-0.417,1.961-0.341,3.347,0.216,5.276    c1.003,3.468,0.852,6.067,0.641,9.439c-0.153-0.012-0.308-0.036-0.46-0.038c-1.414-0.025-3.18,0.167-4.893,0.488    c-0.048-0.719-0.234-1.278-0.436-2.034c-0.666-2.496-0.691-4.288-0.754-6.851c-0.051-2.027,0.46-4.28,0.267-6.358    c3.049-3.332,4.356-8.472,3.379-13.182c-0.099-3.886-1.545-4.556-4.847-6.752c-2.74-1.822-4.935-4.873-8.804-3.924    c-1.616,0.397-2.233,1.843-3.444,2.798c-1.822,1.434-4.367,1.613-6.153,3.041c-2.187,1.75-2.623,4.768-1.997,7.411    c-0.126,0.816-0.213,1.568-0.143,2.027c0.283,1.846,0.95,3.84,1.853,5.487c2.119,3.864,6.341,6.037,10.624,6.577    c2.553,0.321,4.805-0.175,6.7-1.228c-0.309,1.932-0.314,3.923-0.374,5.967c-0.099,3.39,0.251,5.219,2.115,7.469    c-0.942,0.241-1.82,0.509-2.536,0.798c-0.886,0.356-1.763,0.875-2.593,1.505c-3.124-1.967-4.466-4.454-6.633-7.306    c-0.713-0.939-1.478-1.348-2.408-2.017c-1.207-0.869-1.476-1.546-2.197-2.737c-1.15-1.901-2.137-4.119-3.908-5.553    c-1.309-1.06-2.548-1.223-3.896-1.492c-0.057-0.329-0.132-0.659-0.201-0.989c1.911-2.862,0.934-6.22,0.7-9.453    c-0.056-0.775-0.408-1.548-0.457-2.249c-0.341-4.732,5.778-8.899,9.54-10.481C254.888,109.961,260.182,110.44,264.796,112.251z     M263.673,134.139c-3.08,3.255-7.96,2.554-11.627,0.644c-3.737-1.946-4.853-5.049-5.862-8.784    c-0.033-0.122-0.056-0.245-0.082-0.367c0.017-0.06,0.024-0.104,0.046-0.174c0.737-2.341,1.813-4.951,4.09-6.383    c1.798-1.131,2.652-1.22,4.171-2.865c3.559-3.855,4.9-0.832,8.089,1.54c1.021,0.758,2.457,1.234,3.31,2.155    c1.127,1.219,0.851,2.544,1.29,3.983c0.1,0.328,0.312,0.543,0.563,0.67C266.769,127.953,266.162,131.51,263.673,134.139z     M249.127,103.356c0.018,0.356,0.048,0.702,0.064,1.01c0.064,1.289,0.215,2.795,0.711,4.057c-1.195,0.401-2.385,0.899-3.52,1.501    c-0.131-0.764-0.585-1.479-1.081-2.146c-0.382-0.515-0.765-1.015-1.172-1.493C245.511,104.978,247.243,104.02,249.127,103.356z     M242.186,108.595c0.078,0.179,0.154,0.357,0.226,0.532c0.325,0.781,0.763,1.779,1.442,2.383    c-1.276,0.923-2.426,1.959-3.326,3.113c-0.023,0.029-0.059,0.076-0.104,0.133C240.473,112.338,240.885,110.526,242.186,108.595z     M206.998,11.318c0.989-2.038,1.546-4.003,1.707-6.076c0.683,0.834,1.406,1.612,2.127,2.199c0.581,0.474,1.599,0.383,1.791-0.473    c0.227-1.012,0.328-2.807,0.632-4.177c1.584,1.892,2.376,4.369,2.488,6.831c0.136,2.994-0.742,4.895-1.855,7.504    c-0.596,1.399-1.627,2.608-2.322,4.057c-1.126,0.052-2.162,0.106-3.017,0.104c-0.581-0.002-1.182,0-1.79,0.007    C204.276,17.623,205.177,15.069,206.998,11.318z M197.699,27.665c0.576-4.553,9.259-3.501,12.69-3.289    c2.496,0.154,5.02,0.143,7.538,0.365c2.58,0.228,2.883,0.268,2.943,2.827c0.013,0.56,0.03,1.235,0.015,1.902    c-6.709-2.897-16.331-1.745-22.519,2.033C197.921,30.312,197.539,28.929,197.699,27.665z M202.204,34.68    c-1.453-0.437-2.479-0.826-3.227-1.941c1.529-0.259,3.755-0.713,3.715-0.703c2.516-0.578,5.186-1.021,7.774-1.236    c3.462-0.288,6.908,1.11,10.207,0.615c-0.318,1.884,0.873,1.013-1.684,2.054c-0.775,0.315-1.591,0.503-2.372,0.795    c-1.833-1.005-4.508-0.461-6.444-0.43c-1.677,0.026-3.176,0.221-4.826,0.348C204.242,34.264,203.153,34.097,202.204,34.68z     M214.611,43.323c-1.129-0.089-2.255,0.11-3.209,0.677c-0.58-0.836-1.226-1.619-2.486-2.003c-1.346-0.41-2.393-0.322-3.386-0.018    c0.031-0.39,0.007-0.783-0.091-1.251c-0.136-0.651-1.22-2.851-0.804-3.266c0.117-0.117,1.753-0.16,2.033-0.206    c1.183-0.196,2.31-0.276,3.505-0.343c0.96-0.054,3.947-0.714,4.702-0.028c0.035,0.032,0.052,0.083,0.081,0.122    c0.041,0.078,0.086,0.152,0.137,0.221c0.344,0.909-0.205,2.741-0.303,3.48C214.663,41.666,214.559,42.462,214.611,43.323z     M205.593,54.139c-0.53-0.654-0.581-1.886-0.717-2.666c-0.26-1.506-0.798-2.786-1.13-4.23c-0.33-1.432-0.11-1.678,0.287-2.43    c1.995-0.003,3.757-0.214,4.863,2.184c0.952,2.062,4.578,2.424,3.71,4.874c-0.631,1.784-2.142,1.929-3.723,2.475    C207.737,54.741,206.722,55.531,205.593,54.139z M208.501,64.662c-0.347-2.083-0.817-4.357-1.486-6.42    c0.012,0,0.023,0.003,0.034,0.002c1.24-0.037,2.339-0.616,3.486-1.004c0.515-0.174,1.032-0.306,1.532-0.474    c-0.068,2.038,0.198,4.055,0.023,6.129c-0.154,1.817,0.632,7.417-0.806,8.647c-1.733,1.483-1.585,0.009-1.948-1.242    C208.794,68.437,208.815,66.552,208.501,64.662z M209.874,76.067c0.154,0.03,0.31,0.056,0.477,0.066    c3.056,0.174,3.992-3.411,4.445-5.753c0.937-4.842,0.587-10.207,0.106-15.069c-0.021-0.22-0.109-0.41-0.221-0.585    c0.805-1.263,1.251-2.899,1.248-4.27c-0.003-2.036-1.063-2.898-2.359-3.983c2.287,0.264,3.526,1.322,4.294,4.376    c0.9,3.574,0.584,6.71,0.14,10.31c-0.715,5.798,0.098,10.579,0.642,16.37c0.488,5.195,0.927,10.395,1.826,15.544    c0.408,2.337,1.403,4.335,1.965,6.58c0.406,1.62,0.463,3.272,0.536,4.926c-0.35,2.346-0.1,4.513,0.88,7.376    c1.451,4.238,0.758,7.158-0.883,11.164c-1.69,4.124-4.471,6.079-7.51,8.92c0.656-5.226-0.82-10.773-0.731-16.073    c0.045-2.669,0.605-5.639,0.217-8.284c-0.368-2.509-2.078-4.347-2.806-6.728C209.715,93.001,211.168,84.307,209.874,76.067z     M215.934,371.599c1.223-1.744,2.125-2.976,2.269-5.252c0.225-3.572-2.124-5.298,0.702-9.324c0.63-0.898,1.69-1.445,2.326-2.363    c1.764-2.549,1.288-4.995,1.106-7.916c-0.445-7.134-2.806-13.839-3.156-21.006c-0.166-3.394-0.052-7.167,0.758-10.493    c0.321-1.318,0.839-2.571,1.241-3.85c5.982,0.726,14.063-12.548,16.117-15.425c4.88-6.836,11.987-11,17.699-16.961    c2.253-2.352,3.973-5.522,5.654-8.281c0.917-1.505,2.131-3.122,3.113-4.8c0.688,3.797,1.832,7.506,1.404,11.433    c-0.364,3.337-1.167,6.666-1.611,9.999c-0.607,4.557-0.873,9.027-1.714,13.57c-0.551,2.98-1.557,6.469-1.434,9.493    c0.097,2.372,0.847,4.313,2.332,5.704c-0.105,0.569,0.03,1.156,0.536,1.555c1.669,1.314,7.958,5.861,8.065,7.607    c0.22,3.578-10.534,6.923-12.719,7.498c-6.518,1.716-12.261,1.758-16.51,7.733c-2.365,3.326-3.759,5.753-7.061,8.378    c-2.182,1.735-4.978,3.251-6.713,5.458c-4.807,6.113-3.043,17.219-9.507,22.27c-0.552,0.432-4.458,2.404-5.082,2.064    C211.435,377.425,215.426,372.324,215.934,371.599z M276.391,314.208c3.476-1.615,6.875-3.646,9.99-5.936    c1.855-0.211,3.959-0.594,5.444-0.415c2.799,0.338,1.002,0.489,1.437,3.208c0.269,1.687,0.906,2.003,1.849,3.23    c2.015,2.622,1.682,4.78,1.564,7.965c-0.18,4.819-0.59,9.77-0.231,14.614c-0.292,1.491-0.734,3.276-0.782,3.846    c-0.21,2.484-0.283,4.988-0.086,7.469c0.428,5.376,0.204,10.921,0.39,16.331c0.207,6.044-0.202,11.912,2.654,16.665    c-1.581-0.332-3.168-0.61-4.76-0.838c0.103-0.684-0.137-1.414-0.905-1.893c1.093,0.681-0.204-2.019-0.419-3.342    c-0.489-3-0.686-6.117-1.029-9.16c-0.46-4.082,0.382-9.859-1.552-13.506c-0.33-0.623-1.408-0.195-1.158,0.488    c0.987,2.699-0.177,6.742-0.207,9.568c-0.034,3.06,0.196,6.079,0.267,9.127c0.052,2.214-0.512,5.784,0.454,8.201    c-3.348-0.291-6.716-0.391-10.106-0.339c-7.941,0.122-15.966,0.047-23.978,0.003c2.977-4.16,3.512-11.383,4.144-16.02    c0.982-7.212,0.293-14.32-1.206-21.308c-0.064-0.302-0.546-0.303-0.611,0c-1.349,6.337-0.217,13.173-1.101,19.632    c-0.775,5.669-3.71,11.953-3.474,17.684c-0.808-0.003-1.617-0.009-2.424-0.011c-2.096-0.006-4.206,0.014-6.32,0.039    c0.011-0.044,0.028-0.083,0.035-0.132c2.525-6.615,3.825-13.479,3.488-20.603c-0.047-1.013-1.576-1.025-1.584,0    c-0.027,3.37-0.905,7.337-1.606,10.636c-0.678,3.193-2.086,6.126-2.849,9.263c-0.082,0.336-0.036,0.63,0.086,0.874    c-6.887,0.125-13.816,0.399-20.627,0.797c-0.993,0.057-1.995,0.107-3.003,0.161c0.301-0.135,0.593-0.273,0.864-0.406    c5.814-2.856,8.232-9.812,10.148-15.702c0.63-1.936,0.918-4.715,2.061-6.4c1.175-1.73,3.521-2.619,5.207-3.766    c2.376-1.618,5.044-3.494,6.927-5.676c2.257-2.617,3.095-5.9,6.154-7.879c3.753-2.429,9.105-2.469,13.333-4.022    c2.18-0.801,4.988-1.963,7.397-3.556c-1.74,9.795-3.905,19.705-1.758,29.705c0.21,0.977,1.782,0.987,1.986,0    c1.377-6.669,0.336-13.735,0.821-20.523c0.242-3.391,0.78-7,0.706-10.494c1.293-1.104,2.347-2.374,2.92-3.832    c1.451-1.548,1.191-4.753,1.413-6.7C276.626,318.883,276.697,316.551,276.391,314.208z M291.725,387.713    c0.096,1.255-0.38,2.403-0.481,3.555c-2.736-0.167-5.489-0.232-8.063-0.119c-12.349,0.541-25.009-0.088-37.442-0.088    c-4.831-0.001-9.563,0.95-14.402,0.967c-5.202,0.019-10.624-0.027-15.8,0.424c-0.285,0.025-0.624,0.065-0.987,0.113    c-0.211-1.272-0.554-2.521-0.651-3.815c-0.115-1.537-0.025-3.066-0.216-4.575c3.979-0.359,8.001-0.385,12.01-0.329    c9.262,0.13,18.503-0.705,27.774-0.69c8.218,0.015,16.433,0.195,24.588,0.322c4.271,0.066,8.546-0.166,12.813,0.247    c0.159,0.015,0.317,0.043,0.475,0.062C291.073,385.014,291.636,386.544,291.725,387.713z M272.789,319.681    c-0.048-0.044-0.09-0.091-0.14-0.134c-1.023-0.881-2.171-1.814-3.376-2.669c1.446-0.408,2.901-0.914,4.356-1.49    C273.343,316.818,273.038,318.241,272.789,319.681z M205.145,385.586c1.953-0.504,3.93-0.857,5.921-1.121    c-0.432,2.765-0.131,5.767,0.419,8.509c-3.358,0.42-7.31,0.676-8.509-0.981C201.007,389.268,202.565,387.199,205.145,385.586z     M211.061,505.613c1.247-6.049,0.326-12.644,0.345-18.903c0.013-4.425,0.832-8.708,1.101-13.103    c0.086-1.402,0.126-2.825,0.185-4.228c0.067-1.606-0.577-5.086,0.057-6.432c0.727-1.541,2.664-1.294,4.364-1.522    c3.276-0.439,2.874,0.58,3.077,3.688c0.314,4.835,0.255,9.759,0.429,14.606c0.305,8.475-0.122,16.978,0.375,25.44    c0.01,0.179,0.041,0.344,0.083,0.499C217.734,505.647,214.402,505.6,211.061,505.613z M227.459,505.602    c-0.827,0.021-1.65,0.018-2.473,0.027c0.037-0.146,0.063-0.303,0.073-0.471c0.646-11.007,0.039-22.084-0.617-33.066    c-0.146-2.451,0.181-7.071-0.659-10.345c2.925,0.303,6.031,0.256,8.941,0.212c-0.012,0.033-0.033,0.055-0.045,0.089    c-0.907,2.391-0.188,6.412-0.384,8.97c-0.181,2.37-0.15,4.79-0.077,7.168c0.144,4.757,0.519,9.469,0.809,14.214    c0.267,4.369-0.157,8.802,0.586,13.064C231.561,505.508,229.512,505.55,227.459,505.602z M245.309,505.248    c-2.864,0.042-5.729,0.088-8.596,0.145c0.891-5.145-0.152-11.557-0.482-16.563c-0.305-4.641-0.407-9.333-0.426-13.991    c-0.007-1.616,0.063-3.195,0.127-4.805c0.061-1.522-0.752-5.722-0.038-6.893c0.314-0.515,1.291-0.934,2.464-1.201    c1.415-0.019,2.833-0.097,4.25-0.207c0.392,0.071,0.735,0.172,0.984,0.318c1.169,0.681,1.204,2.246,1.385,3.524    c0.714,5.067,0.487,10.176,0.462,15.279c-0.021,4.358,0.241,8.731,0.193,13.076C245.587,497.719,245.062,501.481,245.309,505.248z     M249.258,505.193c0.514-4.951,0.152-10.247-0.09-15.088c-0.319-6.366,0.168-12.775-0.171-19.136    c-0.13-2.422-0.062-6.888-1.359-9.68c1.858-0.167,3.717-0.311,5.574-0.35c1.296-0.027,2.599-0.05,3.901-0.072    c-0.237,1.172-0.098,2.624-0.112,4.356c-0.044,5.322-0.227,10.562,0.009,15.86c0.229,5.123,0.233,10.263,0.893,15.359    c0.33,2.545,0.166,5.92,0.9,8.665C255.62,505.125,252.438,505.154,249.258,505.193z M268.531,505.08    c-2.303-0.002-4.6,0.009-6.898,0.018c-0.273-2.426,0.069-5.143-0.171-7.507c-0.373-3.677-0.48-7.216-0.613-10.9    c-0.135-3.747-0.773-7.578-0.543-11.327c0.121-1.963,0.312-3.857,0.308-5.834c-0.003-1.744-0.809-6.074-0.096-7.502    c0.633-1.266,2.678-1.026,4.277-1.081c2.754-0.094,3.169-0.716,3.711,1.735c0.998,4.511,0.373,9.38,0.484,13.955    c0.134,5.523,0.151,11.025,0.101,16.553c-0.034,3.85-0.471,8.052,0.321,11.889C269.12,505.078,268.825,505.08,268.531,505.08z     M272.987,505.063c1.554-4.502,0.318-10.483,0.281-14.949c-0.061-7.114-0.148-14.269-0.551-21.37    c-0.106-1.859,0.047-5.284-0.514-7.853c0.881,0.023,1.767,0.035,2.644,0.069c1.846,0.072,3.901,0.331,6.003,0.552    c-0.141,1.226,0.034,2.43,0.091,3.861c0.18,4.455-0.452,8.876-0.771,13.306c-0.299,4.148,0.504,8.498,0.932,12.616    c0.478,4.58,0.629,9.16,1.056,13.736C279.097,505.016,276.034,505.043,272.987,505.063z M292.438,469.974    c-0.02,2.411,0.001,4.828-0.062,7.238c-0.237,9.022-1.237,18.075-1.03,27.1c0.009,0.377,0.101,0.697,0.245,0.969    c-2.375-0.131-4.765-0.202-7.161-0.233c0.598-7.716-0.442-15.028-0.844-22.77c-0.198-3.814,0.59-7.892,0.817-11.716    c0.132-2.223-0.651-6.015-0.113-8.416c0.508-0.069,1.044-0.18,1.59-0.303c1.704,0.011,3.352-0.123,4.858-0.533    c0.722,0.172,1.336,0.562,1.76,1.319C293.284,464.029,292.451,468.421,292.438,469.974z M315.201,456.272    c-2.375,12.981-4.273,27.517-3.254,40.718c0.117,1.513,0.843,3.504,0.603,4.995c-0.595,3.679-3.621,3.656-6.63,3.884    c-3.629,0.275-7.167-0.042-10.766-0.344c0.231-0.313,0.38-0.716,0.392-1.21c0.304-12.168,0.685-24.323,0.58-36.498    c-0.025-2.888,1.115-7.835-1.604-9.76c-1.38-0.977-2.943-0.896-4.54-0.533c-4.793-1.27-10.326-1.02-15.135-1.12    c-7.205-0.149-14.413-0.171-21.636,0.028c-5.915,0.163-11.709,0.935-17.628,0.888c-4.73-0.038-11.138-1.192-15.877,0.472    c-1.757-0.139-3.739,0.454-5.335,0.748c-3.479,0.642-4.656,1.425-4.767,4.931c-0.149,4.64-0.302,9.222-0.811,13.84    c-0.626,5.684-0.869,11.386-0.544,17.104c0.133,2.335,0.19,4.608,0.222,6.95c0.009,0.701-0.148,3.306,0.15,4.291    c-0.955,0.015-1.91,0.016-2.867,0.046c-5.066,0.164-10.871,1.02-15.585-1.209c-0.045-1.048,0.025-2.091,0.223-3.132    c0.352-3.348,0.612-6.798,0.69-10.159c0.18-7.751-0.14-15.551,0.141-23.323c0.18-5.003,0.772-13.124-2.341-17.764    c10.008,1.039,20.921-0.348,30.56-1.086c12.562-0.962,25.105,0.424,37.65,0.548c11.822,0.116,23.804,1.18,35.593,2.107    c5.482,0.43,10.917,0.056,16.387,0.115c2.261,0.025,5.14,0.205,7.788-0.118C316.139,453.026,315.534,454.455,315.201,456.272z     M320.099,445.782c-0.451-0.043-0.936,0.044-1.434,0.321c-3.433,1.915-9.087,0.373-12.811,0.633    c-5.711,0.4-11.231-0.134-16.909-0.484c-11.643-0.718-23.309-0.523-34.957-1.028c-11.986-0.519-24.076-1.687-36.072-0.67    c-10.79,0.915-22.344-0.167-33.056,1.849c-0.343-1.414-0.311-4.168-0.395-4.897c-0.116-0.998-0.328-2.127-0.544-3.298    c5.02,0.602,10.742-0.501,15.625-0.773c5.688-0.317,11.305-0.509,17.008-0.446c12.428,0.137,24.847-0.306,37.305,0.354    c12.485,0.661,24.982,1.805,37.465,2.297c5.536,0.219,11.087,0.673,16.628,0.948c3.871,0.192,9.089,1.012,13.13-0.091    C320.986,442.362,320.71,444.189,320.099,445.782z M311.766,427.694c1.86,0.811,3.907,0.782,5.923,1.11    c3.29,0.535,2.762,1.183,3.107,4.511c0.122,1.173,0.231,2.462,0.291,3.785c-4.003-1.62-8.801-0.708-13.133-0.877    c-5.548-0.215-11.086-0.647-16.628-0.773c-12.482-0.285-24.986-1.28-37.465-1.904c-12.463-0.623-24.875,0.074-37.305,0.068    c-10.961-0.007-22.212,0.328-33.04,2.253c-0.288-1.855-0.456-3.699-0.17-5.242c0.661-3.562,2.563-4.483,4.729-4.727    c8.376,1.355,17.232,0.11,25.612,0.062c12.911-0.076,25.848-0.481,38.749-0.575c11.894-0.087,24.185-0.58,36.061,0.389    c5.128,0.418,10.249,0.72,15.379,1.195C306.268,427.19,309.128,427.788,311.766,427.694z M306.587,410.129    c-0.565,2.471-1.148,5.604,0.488,7.81c0.808,1.088,1.928,0.995,2.66,1.807c0.919,1.02,1.034,1.979,0.971,2.987    c-2.368-0.34-4.827-0.42-7.058-0.629c-5.049-0.472-10.106-0.616-15.152-0.983c-12.169-0.884-24.672-0.161-36.852-0.134    c-12.64,0.027-25.315,0.649-37.96,0.986c-5.799,0.154-11.676,0.525-17.455,1.065c0.094-0.278,0.179-0.573,0.241-0.91    c0.206-1.111-0.055-2.705-0.051-3.816c0.011-3.058,0.842-4.378,1.885-7.071c0.919-2.371,0.42-4.435,0.159-6.795    c7.991,1.35,16.849-0.291,24.792-0.609c10.534-0.423,21.065-0.534,31.618-0.533c17.577,0.002,35.242,1.145,52.76,0.9    C307.732,406.227,307.029,408.197,306.587,410.129z M306.686,400.837c-6.363-1.494-13.213-0.913-19.76-1.262    c-10.25-0.546-20.715-0.422-30.978-0.408c-10.242,0.015-20.49-0.06-30.703,0.54c-8.97,0.526-18.551,0.313-27.411,2.3    c-0.629-0.997-1.324-1.796,0.83-3.305c0.978-0.685,4.06-0.524,5.212-0.693c0.952-0.14,1.88-0.327,2.802-0.532    c2.977-0.109,6.144-0.688,8.046-0.815c7.66-0.506,15.365-0.447,23.031-0.888c16.013-0.921,32.394-0.38,48.409,0.088    c3.283,0.096,6.586,0.224,9.86,0.456c0.843,0.06,1.796,0.237,2.779,0.412c0.398,0.24,0.836,0.419,1.282,0.612    C302.756,398.493,305.324,398.711,306.686,400.837z M302.554,385.697c0.088,0.002,0.168-0.009,0.249-0.018    c0.174,1.904,0.97,5.871,0.114,6.968c-0.45,0.575-3.745-0.617-5.238-0.799c-1.092-0.133-2.222-0.251-3.366-0.355    c0.121-1.518,0.611-2.969,0.358-4.587c-0.123-0.786-0.336-1.798-0.715-2.692C296.824,384.801,299.675,385.633,302.554,385.697z     M300.71,297.491c0.263,1.905,0.692,3.842,0.995,6.048c0.704,5.123,0.915,10.212,0.962,15.387    c0.054,5.858,0.189,11.805-0.741,17.61c-0.348,2.17-0.239,5.669-1.378,1.657c-0.721-2.542-0.225-6.065-0.473-8.723    c-0.419-4.496,0.766-8.861,0.788-13.344c0.007-1.281-0.062-2.253-0.791-3.324c-0.386-0.568-1.097-0.832-1.47-1.366    c-1.246-1.787-0.737-1.494-0.966-3.146c-0.292-2.102-0.089-3.7-2.604-4.388c-0.983-0.268-2.102-0.283-3.258-0.153    c1.077-1.028,2.107-2.073,3.036-3.145c2.82-3.251,3.545-4.856,2.83-9.35c-1.095-6.888-2.24-13.92-3.723-20.721    c-0.606-2.779-1.983-5.215-2.383-8.073c-0.443-3.168-0.355-6.267-0.237-9.437c0.206-5.518-0.577-11.039-1.807-16.375    c-2.359-10.225-1.434-22.001-5.77-31.669c-0.127-0.284-0.62-0.213-0.676,0.088c-0.606,3.29,0.164,6.786,0.614,10.058    c0.704,5.132,1.152,10.292,1.819,15.437c0.701,5.404,1.648,10.755,1.562,16.217c-0.082,5.154-0.889,10.184-0.144,15.301    c0.733,5.04,2.317,9.872,3.224,14.893c0.571,3.165,1.17,6.313,1.645,9.496c0.443,2.969,1.735,6.604,0.519,9.501    c-1.985,4.73-8.355,8.366-12.456,11.017c-4.26,2.755-9.541,3.92-13.648,6.831c-2.795-3.926,1.219-14.332,1.735-18.214    c0.797-5.992,1.742-12.215,2.208-18.244c0.229-2.957-0.238-5.759-0.819-8.62c-0.771-3.787-0.753-7.201-0.784-10.977    c-0.019-2.265-0.5-4.158-0.125-6.542c0.424-2.694,1.474-5.207,2.081-7.874c1.376-6.037,0.847-12.217,1.83-18.297    c1.075-6.657,1.573-13.389,2.535-20.06c0.806-5.581,1.816-11.187,2.233-16.809c0.445-6.007-0.232-13.055,1.434-18.872    c0.273-0.95-1.206-1.354-1.477-0.407c-1.672,5.833-2.339,12.047-3.067,18.052c-0.804,6.629-2.349,13.131-3.509,19.709    c-1.342,7.61-3.401,15.582-3.829,23.296c-0.224,4.036-0.305,8.038-1.144,12.01c-0.555,2.635-1.462,5.14-1.844,7.803    c-0.382,2.66,0.132,5.16,0.094,7.691c-0.016,1.099-0.139,2.123-0.231,3.153c-0.161,0.136-0.307,0.309-0.399,0.566    c-0.886,2.471-3.627,4.696-5.08,6.898c-1.793,2.714-3.442,5.882-5.705,8.244c-4.694,4.9-10.555,8.436-15.07,13.565    c-3.964,4.504-6.809,9.931-10.997,14.24c-1.421,1.463-2.838,3.278-4.294,2.18c-1.319-0.995,1.345-9.359,1.493-11.341    c0.489-6.6-3.055-12.064-1.822-18.93c0.508-2.828,1.264-5.169,0.729-8.099c-0.501-2.741-2.034-5.174-2.685-7.885    c-1.582-6.58,2.518-10.71,2.923-16.822c0.105-1.589-0.068-3.347-0.358-5.118c0.089-1.299-0.025-2.566-0.021-3.951    c0.011-4.132,1.166-8.123,2.955-11.815c2.551-5.265,6.189-9.461,10.225-13.599c6.191-6.348,15.894-12.655,16.885-22.368    c0.123-1.2-1.643-1.542-2.19-0.593c-3.155,5.47-6.538,10.487-11.218,14.794c-3.421,3.149-7.168,5.914-10.358,9.346    c-3.563,3.833-6.653,8.641-8.658,13.5c-1.598,3.873-1.592,7.303-1.761,10.981c-0.576-0.626-1.131-1.28-1.638-1.959    c-0.691-3.441-1.372-6.721-0.258-10.268c0.825-2.623,2.57-4.854,3.96-7.184c3.883-6.506,4.16-15.089,9.643-20.258    c8.363-7.886,20.058-16.22,20.52-29.017c0.011-0.322-0.501-0.492-0.64-0.174c-2.934,6.763-8.324,14.217-13.73,19.098    c-3.359,3.032-7.785,5.432-11.142,8.699c-0.09-1.371-0.27-2.753-0.675-3.902c-0.812-2.309-3.107-4.318-5.556-5.669    c-0.255-0.291-0.534-0.598-0.837-0.96c-2.857-3.417,0.215-7.142,0.597-11.27c0.338-3.653-1.675-4.19-3.157-6.92    c-0.682-1.255-0.726-2.661-0.633-4.118c1.737-2.127,2.171-5.858,0.495-8.194c-0.59-0.823-1.474-1.51-2.451-1.748    c-2.117-0.515-3.277,1.514-3.634-1.973c-0.15-1.468,0.601-2.984,0.421-4.49c-0.236-1.977-1.273-2.555-2.063-4.184    c-1.976-4.078-0.503-8.099,1.351-11.916c0.61-1.254,1.553-3.53,2.492-5.138c0.314,3.395,0.923,6.718,2.08,10.097    c0.237,0.69,1.167,0.984,1.719,0.625c0.077,0.068,0.161,0.128,0.275,0.146c2.827,0.45,5.141-1.861,7.272-3.589    c2.945-2.388,4.408-6.362,5.465-9.927c0.379-1.277,0.535-2.544,0.509-3.796c1.004,0.134,1.686,0.438,2.301,1.788    c0.669,1.468,0.056,3.237-0.128,4.703c-0.126,1.006-0.282,2.035-0.212,3.035c-0.49,2.116-1.028,4.225-1.671,6.267    c-1.331,4.225-4.182,10.714-7.298,14.015c-0.37,0.392,0.098,1.012,0.576,0.747c5.643-3.128,9.77-10.246,11.081-17.228    c0.134,0.096,0.265,0.198,0.39,0.321c1.324,1.299,1.398,1.919,1.921,3.767c0.51,1.802,1.103,3.706,2.433,4.954    c-0.005,0.081-0.007,0.153-0.006,0.206c0.045,2.275,0.397,4.541,0.43,6.814c0.07,4.624-0.363,9.278-0.169,13.899    c0.024,0.578,0.771,0.788,1.083,0.293c2.853-4.516,2.601-9.009,2.267-14.193c-0.131-2.024-0.248-4.332-0.596-6.573    c0.084-0.158,0.141-0.341,0.142-0.559c0.002-0.306-0.009-0.637-0.029-0.976c0.728,0.525,1.469,1.038,1.921,1.675    c1.648,2.326,1.46,6.111,3.479,8.075c1.186,1.155,2.679,1.468,3.699,2.937c0.978,1.41,1.673,2.727,2.93,3.968    c1.291,1.278,2.648,2.207,4.168,2.345c-1.698,2.234-2.647,4.994-1.938,7.612c0.078,0.287,0.536,0.385,0.676,0.088    c0.777-1.662,2.435-3.737,3.683-5.092c1.834-1.99,3.603-2.045,6.034-2.458c2.007-0.341,4.091-0.989,6.001-1.793    c1.537-0.647,3.06-1.655,2.017,1.247c-0.966,2.684-4.048,5.005-5.829,7.29c-1.651,2.118-3.253,4.163-4.513,6.525    c-2.732,5.121-6.009,10.244-5.914,16.254c0.012,0.759,1.205,1.218,1.55,0.42c3.781-8.724,8.872-17.269,14.627-24.852    c0.888-1.17,1.956-2.749,2.573-4.375c1.662,1.904,4.087,3.523,5.429,5.425c3.743,5.304,4.292,13.695,6.553,19.797    c2.439,6.581,3.041,12.569,2.629,19.561c-0.174,2.943-0.869,5.405-0.427,8.37c0.492,3.305,1.815,6.505,2.474,9.785    c2.629,13.09-0.883,26.531,2.95,39.54c1.112,3.772,2.349,7.628,2.517,11.586c0.133,3.135-0.205,6.191,0.192,9.323    c0.648,5.122,0.263,10.457,1.13,15.489C299.704,297.063,300.177,297.394,300.71,297.491z M311.877,232.791    c-0.651,3.32-3.316,4.749-4.557,7.681c-1.025,2.422-0.535,5.596-1.668,7.853c-1.432,2.852-3.137,1.958-5.63,1.893    c-0.089-0.002-0.509-0.161-0.895-0.25c-0.273-2.934-0.383-5.91-0.376-9.067c0.001-0.794,0.01-1.59,0.019-2.386    c1.408,0.98,3.077,1.815,4.47,2.021c3.352,0.496,4.288-2.993,5.636-5.301c1.126-1.927,2.168-3.865,3.23-5.803    C312.129,230.514,312.106,231.625,311.877,232.791z M315.831,216.425c-0.436,0.855-0.961,1.384-1.375,2.064    c-0.82,0.937-1.334,1.973-2.036,3.238c-1.031,1.856-2.659,3.286-3.696,5.159c-1.162,2.102-2.371,4.086-3.631,6.137    c-0.345,0.561-0.879,2.584-1.609,2.807c-0.544,0.166-2.937-1.814-3.375-2.193c-0.409-0.354-0.848-0.537-1.28-0.593    c0.007-4.317-0.159-8.622-1.065-12.87c-0.824-3.862-2.851-7.732-3.194-11.673c-0.034-0.388-0.048-0.779-0.054-1.168    c4.52-5.104,8.172-11.32,11.842-17.009c1.646-2.552,4.224-5.972,7.72-6.014c2.301-0.028,5.196,2.346,7.113,3.355    c1.593,0.839,4.3,1.666,5.466,2.928c1.957,2.119,1.439,5.068,0.119,7.709c-0.045,0.09-0.07,0.179-0.104,0.269    c-0.283-0.047-0.576-0.084-0.886-0.103c-3.394-0.203-3.817,2.182-5.153,4.637c-1.345,2.472-4.923,3.372-5.068,6.856    C315.464,212.439,317.207,213.726,315.831,216.425z M325.804,214.743c-1.217,2.206-2.646,4.058-4.695,5.571    c-0.404,0.299-1.713,1.471-2.788,2.262c-0.204-0.277-0.506-0.506-0.924-0.641c-1.3-0.418,1.832-3.879,2.356-4.763    c0.756-1.275,1.029-2.452,0.757-3.917c-0.09-0.487-0.447-1.012-0.515-1.468c-0.33-2.226,0.078-2.959,1.422-4.581    c0.537-0.649,1.224-0.855,1.668-1.679c0.238-0.442,0.113-1.27,0.395-1.638c1.376-1.794,3.69-0.679,4.344,1.505    C328.769,208.545,327.292,212.047,325.804,214.743z"/>
	</g>
</g>
<g>
</g>
<g>
</g>
<g>
</g>
<g>
</g>
<g>
</g>
<g>
</g>
<g>
</g>
<g>
</g>
<g>
</g>
<g>
</g>
<g>
</g>
<g>
</g>
<g>
</g>
<g>
</g>
<g>
</g>
</svg>
