<?xml version="1.0" encoding="iso-8859-1"?>
<!-- Generator: Adobe Illustrator 19.0.0, SVG Export Plug-In . SVG Version: 6.00 Build 0)  -->
<svg xmlns="http://www.w3.org/2000/svg" xmlns:xlink="http://www.w3.org/1999/xlink" version="1.1" id="Layer_1" x="0px" y="0px" viewBox="0 0 512.002 512.002" style="enable-background:new 0 0 512.002 512.002;" xml:space="preserve">
<g>
	<g>
		<path d="M179.299,105.025c-0.918,0-1.699,0.781-1.699,1.699c0,0.922,0.778,1.699,1.699,1.699c0.918,0,1.699-0.781,1.699-1.699    C180.998,105.802,180.22,105.025,179.299,105.025z"/>
	</g>
</g>
<g>
	<g>
		<path d="M222.631,88.61c-2.239,0-2.244,3.481,0,3.481C224.871,92.09,224.874,88.61,222.631,88.61z"/>
	</g>
</g>
<g>
	<g>
		<path d="M324.389,196.535c-0.124-3.168-0.267-8.048-3.052-10.18c-2.65-2.029-7.278-1.611-10.373-1.4    c-4.121,0.282-8.122-0.194-12.272,0.292c-4.375,0.512-8.69,0.92-13.058,1.155c-11.576-1.96-24.238,0.654-35.766,0.571    c-6.282-0.046-12.673-0.646-18.957-0.353c-0.469,0.022-0.94,0.025-1.411,0.034c-0.116-0.044-0.239-0.082-0.387-0.087    c-5.72-0.16-11.289-0.657-16.962-1.321c-4.149-0.486-8.15-0.01-12.272-0.292c-3.094-0.212-7.724-0.629-10.373,1.4    c-2.786,2.133-2.928,7.012-3.052,10.18c-0.119,3.065-1.061,9.186,0.433,12.005c1.813,3.427,6.2,1.991,9.381,2.493    c8.59,1.354,17.919,2.859,26.533,0.906c0.324,0.054,0.626,0.097,0.896,0.122c3.167,0.294,6.1,0.334,9.273,0.363    c7.696,0.069,15.375,0.493,23.088,0.513c12.051,0.032,24.876,1.113,37.095-0.22c7.113,0.594,14.506-0.595,21.422-1.684    c3.181-0.501,7.567,0.934,9.382-2.492C325.449,205.722,324.509,199.602,324.389,196.535z M320.047,204.328    c-0.926,1.256-3.773,1.385-5.161,1.507c-2.547,0.225-5.007,1.01-7.547,1.285c-2.147,0.232-4.291,0.339-6.428,0.433    c-7.29-1.088-15.243-0.083-22.547,0.151c-8.271,0.264-16.553,0.568-24.828,0.654c-8.089,0.083-16.134-0.213-24.204,0.007    c-2.561,0.069-6.256-0.37-9.522-0.074c-5.385-0.789-10.833-0.58-16.306-1.171c-2.17-0.234-4.278-0.844-6.438-1.148    c-1.532-0.216-2.886,0.529-4.254,0.332c-2.786-0.401-2.25-4.575-2.298-6.482c-0.154-6.233-0.45-11.073,7.073-11.107    c2.673-0.012,5.193,0.392,7.856,0.195c3.529-0.261,7.083-0.253,10.644-0.201c4.64,0.582,9.452,0.582,14.027,0.436    c6.562-0.208,13.192,0.229,19.755,0.426c7.34,0.22,14.806,0.233,22.171,0.254c5.382,0.016,12.162,0.69,17.331-0.954    c0.061-0.02,0.11-0.054,0.163-0.083c5.308-0.07,10.615-0.267,15.869,0.122c2.662,0.196,5.182-0.207,7.856-0.195    c7.523,0.034,7.227,4.875,7.071,11.108C320.298,201.073,320.832,203.267,320.047,204.328z"/>
	</g>
</g>
<g>
	<g>
		<path d="M331.544,105.025c-0.922,0-1.699,0.778-1.699,1.699c0,0.919,0.78,1.699,1.699,1.699c0.921,0,1.699-0.778,1.699-1.699    C333.243,105.806,332.462,105.025,331.544,105.025z"/>
	</g>
</g>
<g>
	<g>
		<path d="M288.211,88.609c-2.244,0.001-2.239,3.481,0,3.481C290.456,92.09,290.451,88.609,288.211,88.609z"/>
	</g>
</g>
<g>
	<g>
		<path d="M481.213,274.952c-0.201-5.77,0.083-11.836,0.821-17.499c0.407-3.119,1.008-6.22,1.369-9.351    c0.16-1.386,0.271-2.739,0.284-4.129c0.002-0.208,0.015-0.407,0.032-0.6c2.251-0.065,4.672-0.097,6.417-0.957    c3.184-1.57,5.304-6.6,6.959-9.503c2.533-4.445,5.472-11.467,0.571-15.441c-3.099-2.512-7.124-1.678-10.796-1.869    c-2.715-0.14-5.283-0.437-8.012-0.429c-2.678,0.008-6.159,0.684-8.753,0.071c-2.833-0.669-1.696-0.494-2.175-2.912    c-0.337-1.696-0.355-3.537-0.488-5.246c-0.199-2.574-0.512-5.168-0.987-7.727c0.214-0.094,0.414-0.216,0.595-0.377    c4.399-0.974,8.189-3.63,8.686-8.562c0.481-4.771-2.814-8.711-7.248-10.103c-7.412-2.324-16.133-1.226-23.775-1.226    c-8.062,0-16.059-0.341-24.118-0.391c-7.924-0.048-15.836,0.391-23.792,0.391c-7.661,0-15.436-0.236-23.058,0.509    c-6.456,0.631-13.072,1.132-19.464,2.258c-0.286,0.05-0.586,0.088-0.877,0.132c-0.331,0.026-0.656,0.058-0.986,0.085    c-3.445-0.545-7.226,0.194-10.656,0.272c-1.576,0.036-4.154-0.362-6.255-0.123c0.092-1.098,0.274-2.093,0.136-3.051    c4.376,0.557,8.863,0.917,12.792-0.076c5.092-1.288,2.708-6.703,1.385-10.223c-0.346-0.92-0.964-1.34-1.928-1.469    c-11.778-1.561-23.426-1.06-35.272-1.175c0.051-0.185,0.084-0.384,0.073-0.61c-0.106-2.23-0.274-4.413-0.787-6.59    c-0.083-0.353-2.094-4.978-1.974-5.21c-0.048,0.091,6.787-3.401,7.042-3.438c3.217-0.46-0.447,6.094-0.311,7.96    c0.145,1.987,1.178,3.664,3.021,4.412c4.21,1.71,10.07-3.243,11.655-6.799c3.005-6.738-3.811-8.744-6.866-13.204    c-1.604-2.342-0.847-4.654-0.168-7.746c0.704-3.209,1.385-7.605,3.023-10.5c3.46-6.112,8.371-1.621,13.711-1.373    c2.329,0.109,4.57-0.34,6.06-2.355c0.018-0.025,0.029-0.048,0.047-0.073c1.838-1.721,1.82-4.356,0.745-6.811    c-0.892-2.243-2.621-4.348-4.117-6.194c-1.875-2.313-3.946-4.182-6.235-6.111c-1.22-1.028-2.213-1.828-3.605-2.678    c-0.054-0.033-0.592-0.279-1.25-0.572c-1.747-1.323-3.754-2.307-5.941-2.21c-2.002-2.506-5.516-1.092-7.209,1.207    c-0.308,0.417-0.919,2.348-1.299,2.586c-0.308,0.192-1.539-0.195-1.981-0.095c-2.489,0.564-1.324,2.023-2.555,3.357    c-0.131,0.142-1.58,0.165-1.947,0.325c-0.782,0.341-1.147,0.696-1.484,1.484c-0.64,1.499,0.378,3.408-0.019,4.404    c-0.544,1.367-1.385,1.599-1.042,3.314c0.033,0.167,0.065,0.308,0.097,0.435c-0.492,0.612-0.499,1.4-0.532,2.163    c-0.012,0.285,0.032,0.534,0.103,0.762c-1.178,0.936-2.452,1.664-3.857,2.004c-2.362,0.572-5.399-0.122-7.667,0.634    c-0.467,0.05-0.914,0.139-1.293,0.244c-1.234,0.346-2.491,0.621-3.54,1.338c-0.447-0.8-0.953-1.523-1.524-2.144    c0.327-1.738,0.432-3.575,0.537-5.456c0.14-2.507,0.701-4.719,1.551-7.041c0.511-1.397,1.058-2.658,1-4.115    c0.657-0.113,1.317-0.208,1.975-0.26c4.191-0.33,9.908,2.013,12.547-2.673c2.761-4.906-1.857-7.442-5.485-9.427    c-4.483-2.452-9.774-4.935-14.925-6.063c-1.899-0.824-3.668-0.937-5.275-0.441c-1.538-1.472-3.758-2.603-5.251-0.526    c-0.879,1.224-0.181,2.673-0.952,3.391c-0.868,0.808-2.279,0.518-2.942,1.89c-0.64,1.323,0.126,2.69-0.279,3.901    c-0.258,0.769-0.865,1.311-1.099,2.152c-0.257,0.923,0.144,1.756-0.184,2.729c-0.49,1.457-1.664,2.32-1.641,4.129    c0.023,1.779,0.957,3.367,2.062,4.674c-0.248,2.022-1.16,3.757-1.993,5.539c-0.577-3.214-2.646-6.613-3.886-9.171    c-0.713-1.472-1.698-4.186-3.271-5.456c4.537-4.309,4.324-13.694-0.498-17.705c-1.594-1.326-3.873-1.807-6.019-1.59    c-0.233-4.265,0.271-8.71-0.754-12.845c0.208-0.046,0.42-0.081,0.626-0.135c6.494-1.711,9.714-7.712,10.447-14    c0.868-7.448-2.955-15.619-9.101-19.482c3.342-0.559,6.747-1.838,8.69-3.851c1.765-1.829,2.412-4.002,1.255-5.455    c1.953-0.797,3.933-1.787,4.955-3.58c0.881-1.545,0.736-2.887-0.044-3.77c2.354-1.037,4.264-2.322,5.306-5.303    c1.099-3.145-0.092-5.531-3.447-5.685c-3.617-0.166-7.954,2.325-11.364,3.499c-2.594,0.892-5.877,1.7-7.947,3.675    c-0.395-0.653-0.852-1.258-1.369-1.78c0.437-1.928,0.57-3.652-0.034-5.617c-0.594-1.934-2.471-2.576-4.328-2.209    c-1.89,0.374-3.419,1.799-3.976,3.625c-0.283,0.93-0.279,1.758-0.039,2.697c0.127,0.496,0.296,0.82,0.522,1.104    c-1.03,0.726-1.882,1.641-2.532,2.707c-2.108-2.328-6.171-3.228-8.911-4.448c-3.575-1.593-8.366-4.516-12.389-3.67    c-3.246,0.683-4.736,3.384-3.471,6.495c1.547,3.803,5.054,5.454,8.391,7.209c-1.013,1.399-1.546,3.126-0.706,4.706    c0.488,0.917,1.493,1.686,2.4,2.175c0.012,0.007,2.683,0.954,2.884,0.539c0.009,0.565-0.357,1.933-0.164,2.503    c0.296,0.875,0.822,1.433,1.554,2.001c2.137,1.659,5.601,2.482,8.809,2.86c-7.186,5.541-10.541,20.184-4.041,26.586    c0.513,0.747,1.086,1.45,1.739,2.086c2.153,2.1,4.934,3.583,7.908,4.346c-0.253,1.252-0.12,2.6-0.148,3.902    c-0.035,1.661,0.057,3.312,0.138,4.969c-0.005-0.084-3.307,2.465-3.603,2.771c-1.154,1.195-2.194,2.496-3.209,3.809    c-1.858,2.404-3.335,5.158-4.095,8.111c-0.71-1.065-1.975-0.885-2.781-1.636c-0.769-0.717-0.073-2.167-0.952-3.391    c-1.491-2.077-3.713-0.946-5.251,0.526c-1.608-0.496-3.376-0.382-5.275,0.441c-5.151,1.127-10.442,3.611-14.925,6.063    c-3.628,1.983-8.245,4.521-5.485,9.427c2.637,4.686,8.355,2.343,12.547,2.673c0.658,0.051,1.317,0.146,1.975,0.26    c-0.059,1.457,0.489,2.718,1,4.115c0.85,2.322,1.41,4.534,1.551,7.041c0.105,1.882,0.209,3.719,0.537,5.456    c-0.571,0.621-1.077,1.345-1.524,2.144c-1.049-0.717-2.306-0.993-3.54-1.338c-0.379-0.106-0.827-0.195-1.293-0.244    c-2.268-0.754-5.306-0.062-7.667-0.634c-1.404-0.34-2.679-1.069-3.857-2.004c0.071-0.228,0.115-0.477,0.103-0.762    c-0.033-0.764-0.041-1.551-0.532-2.163c0.032-0.127,0.064-0.269,0.098-0.435c0.341-1.716-0.498-1.947-1.042-3.314    c-0.396-0.996,0.621-2.905-0.019-4.404c-0.337-0.788-0.702-1.141-1.484-1.484c-0.367-0.161-1.816-0.184-1.947-0.325    c-1.231-1.333-0.067-2.793-2.555-3.357c-0.442-0.101-1.673,0.286-1.981,0.095c-0.38-0.237-0.992-2.168-1.299-2.586    c-1.693-2.299-5.207-3.713-7.209-1.207c-1.982-0.088-3.818,0.715-5.446,1.85c-3.771,1.404-7.547,4.72-9.963,7.271    c-1.547,1.635-3.827,4.469-5.128,7.458c-1.999,3.383-2.125,7.519,2.027,9.16c0.073,0.033,0.144,0.068,0.218,0.097    c0.019,0.007,0.037,0.013,0.056,0.019c0.346,0.132,0.709,0.229,1.083,0.298c0.049,0.01,0.088,0.028,0.137,0.037    c0.261,0.054,0.525,0.073,0.789,0.076c4.502,0.303,10.251-2.568,12.078,0.025c2,2.839,3.008,7.131,4.251,10.346    c0.706,1.827,1.673,3.552,2.255,5.435c0.757,2.457,0.696,1.959-0.461,3.899c-2.453,4.108-9.003,7.171-6.894,12.965    c1.123,3.084,4.736,6.601,8.306,7.189c0.897,0.358,1.83,0.498,2.739,0.05c0.338-0.166,0.655-0.41,0.945-0.703    c0.203-0.123,0.407-0.241,0.602-0.398c1.518-1.219,2.128-2.854,2.218-4.75c0.046-0.975-0.172-1.673-0.261-2.609    c-0.047-0.498-1.451-1.076-1.406-1.386c0.33-2.25,6.832,0.582,7.304,1.348c0.551,0.891-0.164,1.947-0.275,2.845    c-0.382,3.102-1.25,6.226-1.097,9.354c0.004,0.078,0.022,0.147,0.033,0.221c-11.841,0.116-23.485-0.385-35.259,1.175    c-0.965,0.127-1.582,0.548-1.928,1.469c-1.324,3.52-3.707,8.935,1.385,10.223c3.928,0.993,8.415,0.633,12.792,0.076    c-0.388,0.049,0.294,2.481,0.175,2.781c-0.179,0.451-0.636,0.644-1.038,0.838c-1.061,0.513-2.538,0.422-3.678,0.394    c-2.458-0.062-4.854-0.545-7.284-0.849c-1.872-0.234-3.782-0.311-5.698-0.329c-1.765-0.138-3.544-0.263-5.354-0.379    c-8.408-0.534-17.12-1.153-25.516-0.368c-2.341,0.219-4.69,0.396-7.043,0.548c-16.982-0.055-33.949,0.27-50.875-0.683    c-4.65-0.262-9.149-0.137-13.791-0.2c-3.785-0.053-7.404-0.993-11.197-0.555c-5.141,0.592-9.936,1.416-10.851,7.255    c-0.945,6.035,1.768,8.513,6.393,11.184c5.515,3.184,1.207,12.223,2.685,18.321c-3.803-1.334-7.734-1.622-11.959-2.159    c-2.216-0.282-4.391-0.297-6.6,0.06c-2.245,0.361-3.905,0.13-6.077,0.254c-9.383,0.537-5.039,12.409-3.064,17.432    c1.162,2.957,1.861,6.826,4.98,8.245c1.712,0.779,3.943,0.123,5.334,1.369c1.64,1.469,0.713,4.869,0.758,7.101    c0.057,2.869,1.084,5.335,1.16,8.18c0.078,2.926,0.007,5.872,0.012,8.799c0.005,2.711-0.631,6.393-0.055,9.398    c-3.983-1.091-9.602-0.462-11.846,1.778c-2.349,2.345-2.699,6.277-2.822,9.408c-0.063,1.63-0.159,3.247,0.436,4.77    c0.706,1.807,0.702,3.326,0.943,5.26c0.299,2.397,1.675,4.002,3.108,5.82c1.483,1.88,2.198,3.744,3.978,5.506    c2.251,2.228,3.352,4.036,4.051,7.23c0.221,1.01,0.363,1.759,0.598,2.48c-0.386,11.254-0.138,22.795,0.805,33.799    c0.081,0.943,0.137,1.885,0.206,2.829c-0.006,0.761-0.013,1.521-0.02,2.283c-0.095,11.94,0.186,23.866,0.686,35.774    c-0.02,1.68-0.04,3.362-0.058,5.044c-0.11,10.106,0.222,20.158,0.598,30.206c-0.077,6.723-0.085,13.441,0.352,20.13    c0.109,1.661,0.218,3.326,0.325,4.995c-0.009,12.692-0.582,25.405-0.174,38.086c-5.792,2.968-8.726,13.206-2.912,17.322    c4.395,3.111,13.593,3.377,18.728,3.191c6.218-0.226,12.538-0.185,18.705-0.939c5.908-0.723,10.607-0.964,15.978-3.968    c5.005-2.8,10.488-4.051,15.516-6.832c4.218-2.333,7.015-6.062,7.664-10.895c0.463-3.443-1.321-6.054-3.404-8.537    c1.553-14.057,0.4-28.785,0.4-42.909c0-3.528-0.067-7.081-0.152-10.644c0.054-1.617,0.125-3.233,0.168-4.853    c0.433-16.39,1.872-33.074,0.765-49.507c0.025-1.532,0.057-3.056,0.119-4.564c0.322-7.766-0.588-15.45-0.682-23.192    c-0.081-6.58-0.346-13.06-0.636-19.598c-0.103-2.294-0.534-3.718,0.454-5.841c0.738-1.587,1.671-3.608,3.059-4.743    c1.499-1.227,3.449-0.138,5.171,0.341c2.774,0.773,1.733,0.853,2.266,3.085c0.554,2.318,0.007,5.488,0.013,7.889    c0.009,4.223,0.515,8.267,0.67,12.448c0.309,8.288-0.81,16.493-0.706,24.752c0.11,8.641,0.143,17.291,0.077,25.933    c-0.061,8.048,1.233,15.9,1.434,23.925c0.211,8.402-1.106,17.024-0.13,25.38c1.077,9.224,1.176,19.127,1.12,28.433    c-0.041,6.895,0.997,13.857,1.151,20.741c-0.669,2.781-2.264,3.264-3.882,5.404c-2.299,3.042-4.434,8.518-2.555,12.206    c2.169,4.258,6.729,3.722,10.796,4.536c5.202,1.041,10.59,1.713,15.929,1.525c6.046-0.214,12.385-0.03,18.361-0.778    c4.813-0.602,8.73-1.262,12.009-5.233c2.993-3.624,7.187-10.015,6.793-14.905c-0.256-3.176-2.536-6.702-5.206-9.013    c0.148-6.816-0.352-13.653-0.658-20.474c-0.286-6.386-0.743-12.736-1.244-19.11c-0.583-7.421,0.025-15.078,0.021-22.525    c-0.005-7.268-0.495-14.498-0.585-21.758c-0.17-13.824-0.552-27.654-0.641-41.528c-0.044-6.985-0.034-13.842,0.482-20.763    c0.403-5.421,0.185-10.231-0.464-15.351c0.016-0.103,0.027-0.207,0.049-0.308c1.135,0.042,2.131,0.069,3.482-0.374    c3.753-1.233,6.65-1.539,10.732-1.348c3.159,0.147,6.29,0.638,9.457,0.79c1.675,0.081,5.763-0.808,7.6-0.241    c0.144,3.06-0.55,6.735-0.596,9.442c-0.057,3.37-0.014,6.49-0.513,9.801c-1.028,6.819-0.874,14.862-0.057,21.699    c1.748,14.644,0.068,29.639,1.569,44.304c1.436,14.032,1.518,28.406,1.528,42.556c0.006,7.476,0.795,14.844,0.806,22.335    c0.011,7.4-1.057,15.509-0.035,22.927c-4.086,2.022-6.275,8.693-4.606,12.619c3.223,7.581,14.792,6.66,21.553,7.026    c5.262,0.285,10.75,0.362,15.989-0.165c3.989-0.402,9.25-0.42,12.564-2.911c2.481-1.864,3.571-5.659,3.298-8.643    c-0.358-3.906-3.236-6.005-5.834-8.443c0.745-12.554-1.25-25.179-2.038-37.695c-0.959-15.202-2.311-30.483-2.52-45.686    c-0.119-8.64,0.519-17.223,0.352-25.9c-0.143-7.398-0.564-14.791-0.994-22.171c-0.475-8.146-0.945-16.294-1.61-24.411    c-0.495-6.042,0.861-12.345,0.776-18.426c0.762,0.181,1.524,0.354,2.407,0.358c2.12,0.009,4.276-0.454,6.431-0.454    c4.685,0.001,9.333,0.465,14.027,0.497c4.313,0.029,8.562-0.354,12.853-0.368c2.914-0.011,8.203-0.85,11.134,0.301    c0,0.198,0.002,0.421,0.009,0.684c-0.142,1.024-0.237,2.053-0.29,3.086c-0.152,2.677-0.039,5.389-0.029,8.069    c0.019,5.288-0.17,10.603,0.207,15.869c0.309,4.31-0.387,8.514-0.11,12.842c0.317,4.938,0.6,10.429,0.015,15.364    c-2.406,20.299-2.08,40.693-3.618,61.033c-0.685,9.061-1.249,18.203-1.583,27.28c-0.158,4.274-0.123,8.6-0.125,12.927    c-0.13,2.909-0.216,5.812-0.207,8.703c0.003,1.352-0.161,3.042-0.279,4.828c-0.349,0.823-0.716,1.642-1.173,2.445    c-1.395,2.451-3.646,3.513-5.265,5.666c-1.813,2.411-2.429,6.798-0.836,9.429c1.866,3.084,6.004,3.943,9.265,4.479    c5.145,0.845,10.404,2.196,15.655,2.289c5.272,0.094,10.541-0.009,15.82-0.41c3.637-0.277,7.736-0.754,10.555-3.377    c2.705-2.515,3.205-6.039,2.431-9.483c-0.876-3.9-2.946-5.315-5.425-7.792c0.249-13.462,0.228-26.943,0.244-40.424    c0.051-0.782,0.102-1.568,0.153-2.349c0.729-11.151,0.24-22.382,0.215-33.581c0.178-7.064,0.44-14.124,0.841-21.174    c0.737-12.945,2.565-25.623,1.85-38.61c-0.389-7.08,0.078-14.209-0.379-21.295c-0.306-4.762-0.256-9.629-0.765-14.404    c0.133-0.382,0.222-0.759,0.327-1.179c2.365-0.347,5.746,0.137,7.689,0.206c2.877,0.103,5.661,0.122,8.519,0.448    c2.158,0.246,4.403,0.282,6.619,0.388c1.678,0.081,6.381-0.53,7.262,0.384c0.958,0.995,0.559,6.87,0.622,8.207    c0.138,2.959-0.115,5.978,0.117,8.924c0.271,3.447,0.433,6.885,0.607,10.339c0.492,9.746,0.624,19.438,0.144,29.181    c-0.918,18.631-0.044,37.128-0.353,55.785c-0.161,9.74-1.111,19.537-0.848,29.268c0.014,0.529,0.009,1.056,0.013,1.583    c-0.384,5.338-0.518,10.675-0.758,16.027c-0.78,2.315-1.618,4.607-3.123,6.784c-2.388,3.451-3.553,7.392-2.147,11.534    c1.721,5.073,5.626,8.147,10.202,10.064c0.289,0.237,0.61,0.448,1.006,0.602c0.969,0.38,2.093,0.644,3.221,0.821    c2.54,0.679,5.14,1.113,7.588,1.406c5.674,0.677,11.898,0.847,17.582,0.436c5.286-0.381,10.732-0.035,15.951-1.16    c5.628-1.213,7.106-4.527,6.553-8.264c-0.108-2.434-0.994-4.998-2.581-6.567c-0.772-1.286-1.645-2.496-2.527-3.577    c1.109-9.487,0.226-19.565,0.23-29.103c0.001-2.013-0.018-4.032-0.041-6.053c0.156-2.48,0.316-4.956,0.476-7.419    c0.711-10.878,0.265-21.832,0.22-32.757c0.062-3.273,0.096-6.54,0.122-9.81c0.039-1.235,0.069-2.47,0.132-3.704    c0.656-12.794,1.061-25.616,1.095-38.45c0.302-3.813,0.578-7.627,0.715-11.443c0.26-7.263,0.679-14.551,0.151-21.816    c-0.243-3.346-0.577-6.677-0.918-10.012c-0.219-2.133-0.109-4.34-0.352-6.464c-0.056-0.49,5.35-0.215,5.833-0.087    c2.804,0.744,2.342,3.174,4.054,5.07c1.027,1.138,1.803,1.179,2.271,2.575c0.377,1.123-0.187,2.904-0.292,4.031    c-0.361,3.878-0.244,7.766-0.224,11.674c0.05,10.391,0.06,20.784,0.068,31.175c-1.755,17.888-0.077,36.136,0.396,54.034    c0.236,8.938,0.647,17.853,1.096,26.769c-0.082,3.813-0.117,7.625,0.189,11.389c0.595,7.333-0.583,14.598,0.677,21.957    c-0.099,0.048-0.199,0.102-0.297,0.154c-1.316,0.263-2.51,0.947-3.117,2.127c-0.165,0.32-0.294,0.682-0.396,1.066    c-0.999,1.555-1.447,3.406-0.848,5.289c0.448,1.41,1.572,2.678,2.96,3.818c0.078,0.075,0.153,0.157,0.235,0.223    c0.31,0.255,0.653,0.491,1.009,0.719c2.037,1.442,4.346,2.653,5.922,3.656c8.293,5.276,18.261,8.982,27.996,10.494    c6.737,1.047,13.821,0.372,20.618,0.446c4.461,0.048,11.146,0.594,15.131-1.521c7.046-3.74,5.188-14.958-1.362-18.01    c0.416-6.467,0.117-12.962-0.269-19.46c0.298-7.74,0.801-15.485,1.3-23.135c0.599-9.16,0.374-18.374,0.26-27.578    c0.402-7.019-0.075-14.125,0.662-21.083c0.754-7.116,0.527-14.821,0.472-22.028c0.159-6.818,0.237-13.639,0.184-20.466    c-0.07-8.813-0.132-17.624-0.292-26.436c-0.051-2.843-0.123-5.675-0.277-8.51c0.509-1.689,0.936-3.398,1.194-5.143    c0.196-1.327-0.113-3.352-0.058-4.984c2.119-0.564,4.255-1.614,5.645-3.178c1.814-2.043,0.752-4.872,1.252-6.881    c7.294-2.386,6.493-11.848,6.208-18.598C498.04,273.278,488.366,276.468,481.213,274.952z M364.547,186.481    c0.685-0.065,1.367-0.119,2.05-0.18c7.801-0.214,15.493-0.171,23.337,0.451c20.469,1.622,41.51,0.893,62.045,0.95    c2.849,0.008,5.696,0.022,8.545-0.006c1.401-0.013,6.921-0.792,8.762-0.146c0.768,1.117,0.892,2.087,0.593,2.907    c-1.663,0.802-5.352,0.541-5.716,0.545c-2.044,0.021-4.037,0.032-6.073,0.178c-9.656,0.692-19.66-0.175-29.377-0.344    c-7.007-0.122-14.014,0.034-21.02,0.158c-2.639,0.047-4.668,0.478-7.171,1.083c-2.691,0.65-5.641-0.011-8.378-0.028    c-2.458-0.016-4.9,0.257-7.353,0.303c-3.519,0.067-7.16,0.012-10.672-0.27c-3.754-0.301-7.668-0.263-11.369-1.007    c-3.46-0.696-6.862-2.048-10.266-3.004C356.523,187.588,360.572,186.86,364.547,186.481z M460.576,205.828    c-0.056,2.909,0.025,5.879-0.011,8.822c-1.442-0.467-2.912-0.891-4.342-1.386c-5.295-1.832-11.077-2.862-16.576-3.921    c-11.637-2.243-23.107-5.416-34.744-7.738c-7.305-1.458-14.535-3.239-21.745-5.097c4.274,0.032,8.557-0.14,12.727-0.154    c11.578-0.041,23.123-0.492,34.681-0.53c8.514-0.028,17.298,0.863,25.768,0.262c1.559-0.111,3.102-0.16,4.644-0.193    C459.924,198.888,460.636,202.771,460.576,205.828z M377.223,206.246c7.731,0.638,15.464,0.076,23.194-0.267    c8.941,1.839,17.838,3.935,26.731,5.972c-5.488-0.01-11.072,0.399-16.175,0.371c-9.384-0.05-18.735-0.398-28.088-0.93    c-9.223-0.525-18.505-1.638-27.756-1.658c-3.86-0.008-7.604-0.475-11.465-0.421c-2.142,0.03-4.453-0.331-6.579-0.005    c-0.097-1.514-0.232-3.031-0.377-4.55C350.205,204.996,363.783,205.136,377.223,206.246z M336.383,201.425    c-0.116-1.18-0.221-2.36-0.316-3.537c7.61,0.077,15.233,0.055,22.839,0.052c2.38-0.001,4.671-0.538,7.021-0.662    c7.2,2.014,14.456,4.006,21.746,5.803c-3.935,0.051-7.858,0.051-11.73-0.243C362.875,201.841,349.522,201.241,336.383,201.425z     M337.246,213.408c2.596,0.099,5.421-0.38,7.876-0.341c3.954,0.062,7.92,0.344,11.893,0.44c8.6,0.208,17.291,1.01,25.872,1.567    c8.616,0.559,17.28,0.758,25.936,0.723c5.551-0.023,11.102-0.067,16.654-0.127c3.469-0.039,6.964-0.198,10.419-0.495    c0.722-0.062,1.434-0.181,2.153-0.261c1.531-0.168,3.155,0.232,4.707,0.498c3.549,0.61,7.167,1.399,10.573,2.367    c1.393,0.396,2.761,0.912,4.123,1.45c-1.908,0.007-3.818,0.008-5.737-0.006c-19.032-0.144-38.055-0.805-57.089-0.812    c-17.23-0.007-34.262-2.168-51.539-1.748c-1.969,0.048-3.946,0.07-5.927,0.081C337.231,215.634,337.252,214.522,337.246,213.408z     M335.798,188.243c3.474,2.156,7.705,2.763,11.664,3.798c3.222,0.842,6.425,1.766,9.625,2.698    c-7.07,0.003-14.16-0.288-21.239-0.26c-0.043-0.958-0.073-1.914-0.073-2.869C335.777,191.086,335.714,189.431,335.798,188.243z     M326.398,150.844c0.661,0.81,1.258,1.533,1.589,2.27c-0.095,0.674-2.907,4.928-4.735,5.915c-0.148,0.019-0.297,0.042-0.441,0.034    c-0.517-0.029-0.905-0.146-1.189-0.322c-0.382-0.518-0.341-1.371-0.119-2.315c0.071-0.103,0.138-0.207,0.224-0.308    c1.248-1.444,2.727-1.261,2.194-3.816c-0.027-0.131-0.062-0.262-0.102-0.391c-0.469-1.517-1.773-2.853-3.141-3.904    c-0.427-0.471-0.864-0.878-1.265-1.147c-0.173-0.117-0.331-0.215-0.483-0.306c0.505-0.773,0.984-1.567,1.42-2.376    C322.441,146.332,324.503,148.521,326.398,150.844z M293.937,123.722c0.275-0.131,0.526-0.339,0.719-0.644    c-0.359,0.568,0.347-0.148,0.544-0.269c0.143-0.088,0.284-0.15,0.43-0.206c0.056,0.006,0.112,0.015,0.17,0.008    c4.86-0.55,9.79,0.469,13.909-2.68c1.894-1.449,3.203-3.029,4.539-4.976c0.668-0.973,1.504-1.935,1.927-3.063    c1.431-1.992,2.765-4.07,3.474-4.949c2.269-2.81,4.965-8.143,9.469-7.147c0.392,0.087,0.791,0.24,1.193,0.436    c1.204,0.802,2.311,1.644,3.353,2.524c1.966,1.896,3.794,4.224,5.081,5.589c0.541,0.573,1.414,1.355,2.347,2.246    c0.212,0.26,0.421,0.511,0.635,0.778c0.715,0.889,1.69,1.558,2.214,2.626c1.922,3.93-0.911,5.027-3.888,4.934    c-1.588-0.415-3.329-0.982-4.411-1.144c-0.316-0.047-0.621-0.106-0.93-0.161c-1.222-0.47-2.45-0.906-3.718-0.961    c-2.419-0.905-4.461-2.37-5.889-4.9c-0.699-1.24-2.519-0.146-1.893,1.106c1.049,2.099,2.285,3.79,3.94,5.052    c-2.541,1.904-3.804,5.495-4.557,8.6c-0.415,1.324-0.776,2.787-1.164,4.453c-0.11,0.475-0.248,0.933-0.373,1.399    c-0.25,0.798-0.5,1.608-0.729,2.423c-0.69,2.071-1.503,4.082-2.428,6.094c-2.234,4.855-5.417,7.096-10.21,9.382    c-0.057,0.027-0.089,0.067-0.139,0.098c-0.37-1.404-0.635-2.849-0.684-4.427c-0.064-2.099,0.424-4.063,0.089-6.117    c-0.018-0.109-0.174-0.168-0.262-0.106c-3.292,2.324-2.852,8.18-1.992,11.536c0.688,2.685,1.807,5.261,2.548,7.937    c0.593,2.139,0.52,4.774,1.131,6.974c-0.988-0.021-1.986-0.044-2.983-0.068c0.428-3.488-1.346-7.002-2.554-10.216    c-2.057-5.47-1.244-10.784-2.565-16.254c-0.184-0.76-1.306-0.905-1.678-0.22c-1.738,3.207-1.259,7.737-0.297,11.556    c-0.221-0.047-0.444-0.083-0.691-0.102c-0.106-0.008-0.208,0.001-0.309,0.015c-0.343-2.739-1.841-6.708-4.245-8.599    c0.361-0.695,0.675-1.422,0.945-2.176C295.463,136.032,295.603,129.139,293.937,123.722z M303.388,166.054    c-0.606-0.014-1.22-0.015-1.828-0.026c0.237-0.856,0.38-1.742,0.464-2.448c0.027-0.223,0.057-0.451,0.089-0.684    C302.514,163.985,302.934,165.048,303.388,166.054z M295.954,156.42c0.446-0.656,0.801-1.359,1.041-2.111    c0.198,0.077,0.406,0.13,0.617,0.145c0.49,0.036,0.992,0.095,1.459-0.01c0.043-0.001,0.085,0.007,0.129,0.003    c0.044-0.003,0.089-0.015,0.133-0.023c0.393,1.227,0.792,2.514,1.206,3.816c-0.275,0.296-0.561,0.586-0.744,1    c-0.386,0.877-0.516,1.851-0.677,2.789c-0.235,1.368-0.677,2.644-1.092,3.948c-0.633-0.006-1.261-0.023-1.894-0.027    C296.597,162.687,296.372,159.679,295.954,156.42z M293.987,149.836c0.809,3.146-0.637,6.396-3.856,7.451    c-0.852,0.279-2.445,0.498-2.805-0.244c-0.018-0.198-0.035-0.396-0.044-0.598c0.105-0.513,0.512-1.238,1.401-2.262    c0.239-0.275,0.801-0.337,1.086-0.622c0.65-0.651,1.199-1.09,1.49-1.997c0.63-1.962-0.104-3.781-1.249-5.304    c0.509-0.458,0.976-0.951,1.402-1.475C292.198,146.492,293.557,148.166,293.987,149.836z M292.66,165.961    c-0.569,0.006-1.14-0.005-1.71,0.006c-0.026-0.041-0.042-0.083-0.074-0.124c-1.155-1.513-1.952-3.381-2.596-5.249    c1.47,0.261,3.19-0.318,4.512-1.171c0.358-0.23,0.692-0.479,1.017-0.737c-0.205,2.151-0.407,4.303-1.106,6.358    C292.586,165.384,292.589,165.688,292.66,165.961z M285.036,159.003c0.716,2.48,1.737,4.748,2.793,7.06    c-0.778,0.03-1.559,0.049-2.333,0.094c-1.687-4.099-3.847-7.95-5.244-12.198c-0.299-0.911-0.582-1.836-0.867-2.76    c0.165-0.088,0.318-0.206,0.496-0.327c2.045-1.395,3.408,0.479,5.137,1.421C283.832,153.955,284.53,157.252,285.036,159.003z     M285.584,148.677c0.808-0.291,1.556-0.588,2.106-0.833c0.821,1.083,0.886,1.815,0.294,2.713c-0.382-0.41-0.795-0.667-1.252-0.994    C286.333,149.28,285.958,148.979,285.584,148.677z M272.61,114.285c1.407-1.739,2.97-3.697,3.578-5.537    c0.745-2.252,0.336-5.096,0.66-7.434c0.554-3.991,1.387-8.306,3.168-11.976c1.648-3.396,4.95-4.312,8.359-4.246    c2.581,1.228,5.076,2.665,7.668,3.856c1.428,0.656,13.889,6.294,7.253,9.249c-2.124,0.945-6.165-0.633-8.599-0.399    c-1.756,0.168-3.778,1.332-5.397,1.389c-2.099,0.075-4.199-0.951-6.225-1.375c-0.757-0.159-1.589,0.668-1.083,1.409    c2.641,3.871,6.054,3.474,9.651,2.781c-1.754,1.823-2.688,4.77-3.19,7.012c-0.593,2.646-0.29,5.326-0.773,7.96    c-0.503,2.738-2.14,4.916-2.424,7.723c-0.094,0.92,1.07,1.132,1.637,0.678c1.499-1.198,2.481-2.563,3.142-4.049    c0.476,1.443,1.047,2.89,1.285,4.308c0.561,3.343,0.855,7.099,0.277,10.461c-1.36,7.909-7.281,8.664-13.197,11.689    c-0.015,0.008-0.028,0.023-0.043,0.032c-1.227-4.157-2.374-8.362-3.529-12.501c-0.201-0.723-1.131-0.484-1.211,0.164    c-0.762,6.146,1.837,13.463,3.601,19.316c1.209,4.017,2.932,7.868,4.811,11.618c-0.579,0.053-1.153,0.124-1.727,0.193    c-0.303-0.073-0.614-0.13-0.929-0.175c-1.518-3.958-3.732-7.693-5.147-11.723c-1.147-3.267-2.341-6.7-3.162-10.066    c-0.472-1.94-0.34-4.234-1.546-5.88c-0.471-0.642-1.655-0.695-1.854,0.242c-0.529,2.499-0.063,5.382,0.771,8.256    c-0.986-0.793-1.932-1.661-2.586-2.863c-2.22-4.087-2.244-8.685-1.376-13.137c0.815-4.187,2.727-7.899,5.028-11.441    C270.646,118.057,272.082,116.27,272.61,114.285z M243.172,158.519c4.955,0.373,10.286-0.331,15.063-0.271    c2.001,0.025,5.026,0.588,7.869,0.649c-0.485,2.285,0.018,4.737,0.854,6.926c0.078,0.203,0.174,0.412,0.285,0.617    c-5.492-0.097-10.963,0.069-16.454,0.164c-3.174,0.055-6.392,0.056-9.618,0.07C242.422,164.139,243.331,161.329,243.172,158.519z     M238.1,166.693c-1.294,0.012-2.589,0.029-3.881,0.057c2.022-2.552,3.272-6.09,4.342-9.035c0.095,0.057,0.193,0.112,0.311,0.143    c0.799,0.205,1.62,0.354,2.452,0.471C240.928,161.114,239.391,164.254,238.1,166.693z M263.303,154.929    c-2.922-0.145-5.861-0.83-8.794-0.569c-4.736,0.421-10.16,1.061-15.02,0.903c0.359-0.914,0.736-1.861,1.126-2.862    c7.829-2.277,10.487-11.19,9.654-18.895c-0.357-3.305-1.182-6.443-2.54-9.463c2.009,0.522,4.644,0.434,5.928,0.493    c2.039,0.096,4.216-0.186,6.246-0.354c1.131-0.095,2.263-0.166,3.336-0.428c-1.437,3.108-2.298,6.343-2.667,9.753    c-0.27,2.496-0.179,5.045,0.326,7.505c0.519,2.529,1.486,5.012,3.067,7.073c0.767,1,1.675,1.893,2.706,2.619    c0.55,0.387,1.132,0.725,1.739,1.013c0.398,0.188,1.541,0.381,1.796,0.692C271.924,154.51,264.253,154.977,263.303,154.929z     M272.157,157.376c1.034,2.833,2.22,6.29,4.108,8.9c-1.523,0.035-3.063,0.175-4.5,0.222c-0.015-0.469-0.182-0.927-0.529-1.2    c-0.945-0.745-1.156-2.538-1.387-3.672c-0.218-1.07-0.663-1.944-1.07-2.872C270.109,158.561,271.292,158.154,272.157,157.376z     M256.354,80.109c1.548-0.388,3.114-0.209,4.512,0.978c3.452,2.935,2.627,10.327-0.744,12.758    c-3.54,2.554-8.723,1.092-10.222-3.205C248.249,85.908,252.442,82.1,256.354,80.109z M253.392,70.976    c0.158,1.768-0.164,3.776-0.063,5.639c-0.447-1.174-1.116-2.111-2.132-2.824c0.05-0.161,0.087-0.326,0.094-0.49    c0.082-1.945-0.216-3.846-0.213-5.786c0.002-1.109,0.088-2.27-0.053-3.371c0.909,0.071,1.82,0.07,2.724,0.007    C253.257,66.372,253.192,68.737,253.392,70.976z M256.864,12.58c-0.073-0.235-0.152-0.471-0.239-0.706    c2.949,0,6.757-2.308,9.167-3.104c2.097-0.692,4.186-1.457,6.288-2.127c5.062-1.616,2.824,1.659,0.909,3.631    c-1.105,1.138-2.449,1.714-3.871,2.327c-1.193,0.515-0.401,2.062,0.588,2.174c1.12,0.126-0.315,2.071-0.463,2.28    c-0.483,0.678-1.39,1.052-2.101,1.455c-0.75,0.424-1.566,0.729-2.339,1.117c-1.005,0.504-0.602,1.863,0.286,2.194    c1.265,0.471-1.292,2.412-1.633,2.673c-1.393,0.934-3.696,1.517-5.348,1.864c-0.762,0.16-1.537,0.234-2.305,0.311    C257.312,22.103,258.313,17.301,256.864,12.58z M248.592,4.87c0.195-1.001,1.114-1.939,2.176-1.982    c0.52-0.021,0.475,0.03,0.589,0.498c0.13,0.525,0.146,1.114,0.147,1.651c0.001,0.435-0.094,0.823-0.188,1.196    c-0.828-0.184-1.732-0.156-2.708,0.144c0.005-0.054,0.014-0.108,0.015-0.161C248.64,5.743,248.502,5.333,248.592,4.87z     M245.874,14.364c0.857-3.104,4.439-7.102,7.421-2.36c2.608,4.147-0.304,11.52-1.974,15.925c-0.679-0.037-1.371-0.027-2.073,0.04    c-1.562-2.133-2.907-4.888-3.397-7.381C245.471,18.664,245.343,16.282,245.874,14.364z M237.957,26.366    c-1.189-0.448-2.473-0.76-3.024-2.039c-0.477-1.107,0.967-2.285-0.37-3.157c-1.176-0.767-3.196,0.296-4.151-0.975    c-0.253-0.336-0.35-0.765-0.37-1.185c-0.06-1.287,0.668-1.919,1.258-2.918c0.427-0.72,0.482-1.59-0.448-2.084    c-2.258-1.197-7.461-2.334-7.933-4.968c-1.009-5.63,6.754-1.436,8.29-0.808c3.79,1.548,7.568,3.321,11.595,4.17    c-0.875,2.455-1.055,5.234-0.696,7.658c0.23,1.553,1.132,4.986,2.63,7.425C242.468,27.41,239.908,27.1,237.957,26.366z     M244.153,58.052c-5.613-3.542-6.577-10.342-4.993-16.383c0.544-2.076,1.371-3.788,2.455-5.213c0.656-0.78,1.417-1.51,2.307-2.167    c9.021-6.667,18.636,2.939,19.271,12.029c0.291,4.169-0.678,8.85-4.101,11.601C255.203,61.042,248.288,60.661,244.153,58.052z     M247.032,75.507c0.291-0.153,0.559-0.267,0.682-0.261c0.401,0.019,1.317,0.743,1.649,0.997c1.123,0.862,1.503,2.325,1.395,3.684    c-0.122,1.52-1.4,2.076-2.266,3.243c-1.799,2.423-2.646,5.646-1.78,8.592c1.928,6.557,9.042,8.617,14.526,5.737    c1.113,2.849,2.732,5.379,4.08,8.091c1.319,2.652,1.454,6.24,3.132,8.583c0.12,0.167,0.277,0.29,0.447,0.381    c-1.482,1.789-2.835,3.955-3.915,5.868c-0.844-3.029-1.981-5.987-2.809-9.023c-0.469-1.72-0.971-4.854-2.975-5.485    c-0.147-0.047-0.29,0.055-0.337,0.192c-0.754,2.204,0.244,4.832,0.745,7.026c0.547,2.397,1.275,4.768,1.854,7.161    c-0.484,0.083-0.989,0.177-1.555,0.244c-2.101,0.251-4.378,0.387-6.497,0.343c-2.202-0.046-5.014-0.709-7.114,0.316    c-1.107-2.03-2.587-4.458-4.218-6.464c1.009-1.462,0.788-3.596,1.258-5.31c0.808-2.95,1.648-6.463,3.059-9.175    c0.33-0.634-0.423-1.152-0.947-0.731c-0.679,0.545-1.271,1.23-1.806,1.982c-0.795-0.729-1.657-1.427-2.329-2.209    c-0.435-0.505-0.772-1.091-1.063-1.703c-0.113-0.806-0.25-1.662-0.395-2.593C238.627,87.112,242.273,81.257,247.032,75.507z     M240.4,103.066c0.432,0.481,0.878,0.95,1.307,1.428c0.051,0.057,0.106,0.098,0.16,0.146c-0.483,1.05-0.904,2.11-1.284,3.083    c-0.237,0.608-0.505,1.313-0.738,2.053c-0.338-0.717-0.671-1.434-0.952-2.172C239.733,105.918,240.191,104.47,240.4,103.066z     M219.523,125.634c0.237-1.418,0.809-2.865,1.285-4.308c0.661,1.484,1.643,2.85,3.142,4.049c0.567,0.454,1.731,0.242,1.637-0.678    c-0.284-2.807-1.921-4.985-2.424-7.723c-0.483-2.635-0.181-5.315-0.773-7.96c-0.502-2.242-1.436-5.189-3.19-7.012    c3.597,0.693,7.011,1.091,9.651-2.781c0.505-0.741-0.326-1.568-1.083-1.409c-2.025,0.424-4.126,1.45-6.225,1.375    c-1.618-0.058-3.64-1.221-5.397-1.389c-2.434-0.234-6.475,1.345-8.599,0.399c-6.636-2.954,5.825-8.593,7.253-9.249    c2.593-1.19,5.088-2.628,7.668-3.856c3.408-0.064,6.71,0.85,8.359,4.246c1.781,3.67,2.614,7.985,3.168,11.976    c0.325,2.338-0.084,5.182,0.66,7.434c0.608,1.841,2.172,3.798,3.578,5.537c0.527,1.983,1.965,3.771,3.108,5.531    c2.301,3.542,4.213,7.256,5.028,11.441c0.868,4.452,0.843,9.05-1.376,13.137c-0.654,1.203-1.6,2.07-2.586,2.863    c0.834-2.873,1.299-5.757,0.771-8.256c-0.199-0.937-1.382-0.885-1.854-0.242c-1.207,1.645-1.074,3.94-1.546,5.88    c-0.821,3.367-2.014,6.799-3.162,10.066c-1.448,4.12-3.734,7.931-5.253,11.99c-0.849-0.099-1.694-0.207-2.549-0.284    c1.879-3.75,3.602-7.601,4.811-11.618c1.762-5.854,4.362-13.17,3.601-19.316c-0.081-0.648-1.01-0.886-1.211-0.164    c-1.155,4.139-2.303,8.344-3.529,12.501c-0.015-0.009-0.027-0.025-0.043-0.032c-5.916-3.025-11.837-3.78-13.197-11.689    C218.667,132.734,218.962,128.977,219.523,125.634z M225.806,159.003c0.506-1.753,1.204-5.049,0.018-6.711    c1.637-0.891,3.118-2.798,5.137-1.421c0.178,0.122,0.331,0.24,0.496,0.327c-0.284,0.924-0.567,1.848-0.867,2.76    c-1.395,4.248-3.555,8.099-5.244,12.198c-0.774-0.044-1.555-0.063-2.333-0.094C224.07,163.752,225.089,161.484,225.806,159.003z     M224.112,149.564c-0.457,0.327-0.87,0.584-1.252,0.994c-0.594-0.898-0.529-1.63,0.294-2.713c0.55,0.243,1.298,0.54,2.106,0.833    C224.885,148.979,224.508,149.28,224.112,149.564z M219.43,144.786c0.427,0.524,0.893,1.015,1.403,1.475    c-1.145,1.524-1.879,3.342-1.249,5.304c0.291,0.907,0.84,1.346,1.49,1.997c0.285,0.286,0.848,0.347,1.086,0.622    c0.889,1.023,1.296,1.748,1.401,2.262c-0.009,0.202-0.027,0.4-0.044,0.598c-0.36,0.743-1.953,0.525-2.805,0.244    c-3.219-1.056-4.665-4.306-3.856-7.451C217.285,148.166,218.645,146.492,219.43,144.786z M218.141,165.044    c-0.698-2.055-0.902-4.208-1.106-6.358c0.324,0.257,0.66,0.506,1.017,0.737c1.321,0.854,3.04,1.431,4.51,1.171    c-0.644,1.869-1.441,3.736-2.596,5.25c-0.032,0.041-0.049,0.083-0.074,0.124c-0.57-0.01-1.14,0-1.71-0.006    C218.254,165.688,218.255,165.384,218.141,165.044z M187.022,151.913c-0.04,0.129-0.074,0.26-0.102,0.391    c-0.533,2.554,0.946,2.372,2.194,3.816c0.338,0.391,0.55,0.81,0.64,1.21c-1.107,1.326-4.899,0.442-6.289-1.476    c-0.363-0.499-0.634-0.962-0.849-1.402c-0.132-1.254,0.779-2.321,1.828-3.608c1.896-2.325,3.956-4.513,6.047-6.666    c0.471,0.875,0.984,1.738,1.534,2.568C190.172,147.847,187.708,149.697,187.022,151.913z M192.945,140.888    c-1.482-3.222-2.719-6.425-3.529-9.915c-1.337-5.759-2.341-9.127-6.493-12.473c2.076-1.291,3.501-3.209,4.712-5.632    c0.626-1.252-1.194-2.347-1.893-1.106c-2.273,4.029-6.1,5.361-10.536,6.022c-0.816,0.122-2.008,0.475-3.225,0.82    c-6.072,0.608-6.091-2.327-4.554-5.572c1.552-1.866,3.675-3.63,4.673-4.688c2.266-2.402,6.206-7.793,9.627-8.548    c4.503-0.995,7.2,4.337,9.469,7.147c0.71,0.881,2.043,2.957,3.474,4.949c0.422,1.127,1.259,2.09,1.927,3.063    c1.335,1.947,2.643,3.527,4.538,4.976c4.119,3.149,9.049,2.131,13.909,2.68c0.057,0.007,0.113-0.002,0.17-0.008    c0.146,0.056,0.288,0.118,0.43,0.206c0.196,0.12,0.903,0.837,0.544,0.269c0.193,0.305,0.444,0.513,0.719,0.644    c-1.668,5.417-1.526,12.309-0.068,16.382c0.27,0.754,0.585,1.482,0.945,2.176c-2.404,1.891-3.902,5.86-4.245,8.599    c-0.101-0.014-0.202-0.023-0.309-0.015c-0.247,0.018-0.47,0.055-0.691,0.102c0.964-3.819,1.441-8.351-0.297-11.556    c-0.372-0.686-1.495-0.541-1.678,0.22c-1.32,5.469-0.508,10.783-2.565,16.254c-1.208,3.214-2.981,6.728-2.554,10.216    c-0.996,0.023-1.995,0.048-2.983,0.068c0.61-2.201,0.538-4.834,1.131-6.974c0.741-2.676,1.861-5.252,2.548-7.937    c0.861-3.356,1.3-9.213-1.991-11.536c-0.088-0.062-0.244-0.002-0.262,0.106c-0.336,2.055,0.152,4.018,0.089,6.117    c-0.048,1.579-0.315,3.024-0.683,4.427c-0.05-0.032-0.082-0.071-0.139-0.098C198.361,147.984,195.177,145.743,192.945,140.888z     M214.711,165.95c-0.634,0.003-1.262,0.021-1.894,0.027c-0.415-1.304-0.856-2.58-1.092-3.948    c-0.161-0.938-0.291-1.911-0.677-2.789c-0.182-0.414-0.469-0.704-0.744-1c0.413-1.302,0.813-2.589,1.206-3.816    c0.044,0.007,0.089,0.019,0.133,0.023c0.043,0.004,0.085-0.003,0.129-0.003c0.468,0.105,0.969,0.046,1.458,0.01    c0.212-0.015,0.42-0.068,0.617-0.145c0.241,0.752,0.595,1.456,1.041,2.111C214.47,159.679,214.245,162.687,214.711,165.95z     M209.282,166.027c-0.608,0.012-1.222,0.013-1.828,0.026c0.453-1.005,0.874-2.069,1.275-3.157    c0.032,0.233,0.062,0.461,0.089,0.684C208.902,164.284,209.045,165.171,209.282,166.027z M174.28,174.354    c-2.494-0.028-7.209,1.014-10.063,0.253c0.622-5.391,7.943-4.308,12.501-4.427c6.594-0.172,13.143,0.529,19.713,0.635    c6.936,0.112,13.965-0.215,20.879,0.385c5.088,0.442,10.596,0.78,15.831,0.396c4.574,0.356,9.12,0.285,13.716,0.239    c6.323-0.064,12.631-0.403,18.971-0.329c4.308,0.05,9.434,0.906,13.917,0.205c4.611,0.178,9.36-0.128,13.791-0.511    c6.914-0.6,13.942-0.272,20.877-0.385c6.57-0.106,13.118-0.807,19.713-0.635c4.558,0.118,11.879-0.964,12.501,4.427    c-2.853,0.76-7.568-0.281-10.063-0.253c-2.361,0.026-4.315,0.208-6.315,0.717c-3.058-0.37-6.642,0.368-9.11,0.524    c-12.419,0.784-24.888,0.585-37.34,0.995c-9.851-1.205-20.343-0.423-29.876-0.106c-5.506,0.182-11.013,0.455-16.519,0.717    c-0.174-0.076-0.364-0.127-0.571-0.141c-15.698-1.068-31.456-0.475-47.131-1.464c-2.467-0.156-6.052-0.893-9.11-0.524    C178.595,174.562,176.64,174.381,174.28,174.354z M180.357,200.438c-0.116-3.253,0.004-6.604-0.578-9.805    c0.258-0.773,0.421-1.607,0.538-2.583c0.22-1.835,0.178-3.837,0.161-5.677c-0.008-0.948,0.354-2.246-0.037-1.913    c1.179-1.005,6.696,0.09,8.245,0.221c3.215,0.274,6.319,0.206,9.555,0.202c7.391-0.007,14.757,0.117,22.135,0.357    c1.055,0.034,2.148,0.119,3.263,0.215c3.221,1.165,7.475,1.084,10.466,1.266c6.577,0.401,13.241,0.276,19.816,0.033    c11.839-0.437,23.652,0.656,35.269-1.451c0.429-0.027,0.855-0.05,1.272-0.064c7.379-0.24,14.745-0.364,22.135-0.357    c3.237,0.002,6.341,0.07,9.555-0.202c1.548-0.132,7.067-1.226,8.244-0.221c-0.392-0.333-0.028,0.965-0.036,1.913    c-0.015,1.841-0.057,3.843,0.161,5.677c0.117,0.977,0.279,1.81,0.538,2.583c-0.581,3.202-0.462,6.552-0.578,9.805    c-0.193,5.43,0.153,10.893,0.634,16.299c-12.975-0.087-26.093-0.523-38.98,0.395c-3.148-0.061-6.309,0.002-9.47,0.084    c-7.267,0.188-14.613-0.188-21.898-0.46c-8.749-0.325-17.433-0.655-26.202-0.52c-4.41,0.068-8.785,0.575-13.192,0.778    c-0.946,0.043-1.904,0.071-2.863,0.104c-12.826-0.9-25.879-0.468-38.79-0.381C180.205,211.332,180.551,205.867,180.357,200.438z     M163.381,192.041c3.958-1.035,8.189-1.642,11.664-3.798c0.085,1.188,0.022,2.843,0.022,3.369c0,0.954-0.029,1.911-0.073,2.869    c-7.078-0.028-14.169,0.263-21.239,0.26C156.955,193.808,160.159,192.885,163.381,192.041z M50.265,205.828    c-0.06-3.057,0.654-6.939-0.401-9.938c1.541,0.034,3.084,0.083,4.644,0.193c8.47,0.601,17.253-0.29,25.768-0.262    c11.558,0.039,23.104,0.489,34.681,0.53c4.17,0.015,8.454,0.186,12.727,0.154c-7.211,1.859-14.44,3.64-21.745,5.097    c-11.637,2.322-23.106,5.494-34.744,7.738c-5.5,1.061-11.281,2.089-16.576,3.921c-1.43,0.495-2.9,0.92-4.342,1.386    C50.242,211.705,50.323,208.737,50.265,205.828z M57.516,217.778c3.405-0.968,7.023-1.756,10.573-2.367    c1.551-0.267,3.176-0.667,4.707-0.498c0.718,0.078,1.43,0.199,2.153,0.261c3.454,0.298,6.951,0.457,10.419,0.495    c5.551,0.061,11.102,0.104,16.654,0.128c8.656,0.036,17.32-0.164,25.936-0.723c8.581-0.557,17.272-1.359,25.872-1.567    c3.972-0.096,7.939-0.379,11.893-0.44c2.455-0.039,5.28,0.44,7.876,0.341c-0.006,1.114,0.016,2.227,0.086,3.333    c-1.98-0.011-3.957-0.033-5.927-0.081c-17.277-0.42-34.308,1.741-51.539,1.748c-19.033,0.007-38.057,0.669-57.089,0.812    c-1.919,0.014-3.829,0.014-5.737,0.006C54.755,218.689,56.123,218.173,57.516,217.778z M167.177,209.314    c-3.861-0.054-7.606,0.413-11.465,0.421c-9.251,0.02-18.534,1.133-27.756,1.658c-9.353,0.533-18.703,0.879-28.088,0.93    c-5.103,0.027-10.687-0.381-16.175-0.371c8.895-2.037,17.79-4.133,26.732-5.972c7.731,0.341,15.463,0.904,23.194,0.267    c13.44-1.11,27.018-1.249,40.514-1.486c-0.145,1.518-0.279,3.036-0.377,4.55C171.63,208.984,169.319,209.344,167.177,209.314z     M134.898,202.836c-3.872,0.295-7.795,0.295-11.73,0.243c7.29-1.796,14.546-3.789,21.746-5.803    c2.351,0.124,4.641,0.661,7.021,0.662c7.606,0.004,15.227,0.026,22.837-0.051c-0.095,1.179-0.2,2.358-0.316,3.537    C161.32,201.241,147.968,201.841,134.898,202.836z M41.084,187.806c1.061-1.085,7.682-0.125,9.234-0.11    c2.849,0.027,5.696,0.013,8.545,0.006c6.876-0.019,13.812,0.048,20.762,0.088c0.512,0.047,1.03,0.088,1.539,0.136    c7.538,0.709,15.394,0.087,22.972,0.09c8.373,0.004,16.746,0.016,25.119-0.071c8.394-0.088,16.787-0.145,25.181-0.195    c1.443-0.008,2.946,0.07,4.475,0.171c-4.253,1.178-8.665,3.27-12.971,3.93c-4.466,0.685-8.972-0.18-13.43-0.491    c-5.466-0.381-10.968-0.257-16.479-0.237c-11.302,0.041-22.629-0.481-33.903-0.285c-9.717,0.168-19.72,1.035-29.377,0.344    c-2.037-0.146-4.029-0.156-6.074-0.178C46.107,190.996,37.331,191.646,41.084,187.806z M26.015,235.73    c-0.263-0.041-0.52-0.089-0.766-0.15c-2.867-0.71-3.854-1.406-4.97-3.964c-0.348-0.979-0.636-1.81-0.7-1.982    c-0.422-1.127-1.506-3.995-1.633-5.158c-0.69-0.982-0.552-1.876,0.406-2.684c0.698-0.029,1.417-0.032,2.144-0.012    c0.154,0.021,0.305,0.062,0.461,0.08c0.081-0.022,0.154-0.034,0.235-0.056c1.747,0.077,3.436,0.247,4.641,0.37    c3.598,0.366,7.147,0.951,10.767,1.285c8.987,0.831,17.936,0.778,26.963,0.903c18.528,0.257,37.047,0.051,55.581,0.022    c16.994-0.027,33.794-1.775,50.834-1.279c14.938,0.434,30.489,1.2,45.628,0.306c6.252,0.746,13.097-0.035,18.965-0.035    c8.759,0,17.458,0.241,26.202,0.543c12.793,0.442,26.595,1.651,39.512-0.267c13.534,0.488,27.302-0.163,40.585-0.548    c17.042-0.495,33.841,1.252,50.834,1.279c18.534,0.029,37.053,0.235,55.581-0.022c9.025-0.125,17.976-0.07,26.963-0.903    c3.619-0.334,7.167-0.919,10.767-1.285c2.09-0.213,5.619-0.568,8.408-0.325c0.288,0.131,0.546,0.298,0.765,0.512    c-0.933,3.012-2.282,6.039-3.458,8.889c-1.189,2.881-2.127,3.585-5.134,4.33c-0.246,0.061-0.503,0.109-0.766,0.15    c-4.48-0.195-8.937-0.532-13.497-0.157c-7.463,0.613-14.876,0.612-22.346,0.123c-17.429-1.14-35.063-0.207-52.474-1.535    c-7.6-0.58-15.102-0.381-22.676-0.2c-7.823,0.188-15.588-0.629-23.454-0.03c-8.538,0.649-17.335,1.081-25.906,0.854    c-2.872-0.076-5.86-0.329-8.869-0.515c-9.013-2.118-19.243-0.168-28.24-0.168c-9.483,0-19.022-0.143-28.507-0.336    c-11.848-0.242-23.685-0.14-35.539-0.099c-4.773,0.016-9.664,0.113-14.405,0.541c-0.855,0.077-1.773,0.106-2.715,0.134    c-6.487-0.767-13.445,0.273-19.83,0.442c-8.571,0.227-17.367-0.205-25.906-0.854c-7.864-0.598-15.63,0.219-23.454,0.03    c-7.574-0.181-15.076-0.38-22.676,0.2c-17.41,1.328-35.045,0.394-52.474,1.535c-7.47,0.489-14.883,0.49-22.346-0.123    C34.953,235.2,30.496,235.536,26.015,235.73z M463.083,269.164c-0.069-4.233-0.415-8.478-0.828-12.694    c1.553,0.002,3.105-0.012,4.652-0.12c1.906-0.135,5.345-1.157,7.128-0.002c1.815,1.175,0.877,2.649,0.796,4.956    c-0.115,3.215-0.311,7.974,0.495,12.076c-0.185,1.431-0.344,2.878-0.458,4.322c-4.072-0.143-8.157-0.477-12.243-0.9    C463.647,274.507,463.123,271.594,463.083,269.164z M463.968,251.35c-9.779,0.264-19.723,0.765-29.503,0.25    c-9.62-0.506-19.041-1.417-28.711-1.437c-20.295-0.043-40.88,0.92-61.094-0.723c-9.72-0.789-19.384-0.227-29.125-0.366    c-9.339-0.133-18.67-1.096-27.994-0.174c-3.979-0.339-8.031-0.206-11.972-0.37c-7.23-0.302-14.464-0.428-21.702-0.681    c-7.637-0.265-15.44,0.296-23.07,0.5c-3.425,0.092-6.938,0.088-10.408,0.327c-8.354-0.498-16.713,0.276-25.079,0.396    c-9.741,0.139-19.405-0.423-29.125,0.366c-20.216,1.642-40.799,0.679-61.094,0.723c-9.67,0.021-19.092,0.931-28.711,1.437    c-9.78,0.515-19.724,0.014-29.503-0.25c-3.355-0.091-8.587-1.188-12.347-0.078c-0.635-0.282-1.21-0.553-1.268-0.654    c-0.616-1.076,0.572-6.66,0.519-8.271c-0.035-1.057-0.058-1.999-0.225-2.823c1.472,0.065,2.964,0.126,4.489,0.207    c7.333,0.393,14.506,1.021,21.862,0.675c17.761-0.836,35.835,0.785,53.551-0.588c7.382-0.572,14.682-0.417,22.053-0.143    c7.952,0.297,15.925-0.889,23.93-0.506c8.901,0.424,18.015,0.927,26.931,0.476c5.327-0.27,11.084-0.144,16.609-0.69    c6.676,0.787,13.845,0.022,20.339,0.119c12.014,0.181,24.015,0.298,36.026,0.396c9.344,0.076,18.685,0.338,28.02,0.338    c5.31,0,10.583-0.532,15.892-0.582c2.608-0.025,5.19,0.073,7.737-0.025c4.542,0.265,9.154,0.223,13.481,0.443    c8.916,0.451,18.029-0.052,26.93-0.476c8.005-0.381,15.978,0.803,23.93,0.506c7.371-0.276,14.67-0.43,22.053,0.143    c17.715,1.373,35.791-0.248,53.551,0.588c7.356,0.346,14.529-0.282,21.862-0.675c1.525-0.082,3.017-0.141,4.489-0.207    c-0.166,0.826-0.189,1.767-0.224,2.823c-0.025,0.764,0.228,2.42,0.436,4.065c-0.099,1.502-0.237,2.998-0.432,4.51    c-0.216,0.106-0.475,0.225-0.753,0.349C472.555,250.163,467.324,251.26,463.968,251.35z M457.762,276.268    c-3.122-0.356-6.24-0.725-9.347-1.057c0.292-4.031,0.384-7.893,0.222-11.945c-0.076-1.925,0.237-4.644-0.814-6.431    c2.377-0.057,4.755-0.15,7.132-0.284c1.275-0.073,2.549-0.085,3.825-0.085c-0.412,4.218-0.754,8.462-0.828,12.697    C457.918,271.272,457.409,274.016,457.762,276.268z M425.902,264.66c-0.043-2.529,0.091-5.411-0.258-8.036    c6.06,0.18,12.119,0.304,18.177,0.248c-0.022,0.239-0.037,0.479-0.042,0.715c-0.028,1.675-0.034,3.336,0.228,4.954    c-0.014,0.239-0.027,0.479-0.039,0.725c-0.097,2.12-0.064,4.274-0.221,6.388c-0.13,1.753-0.523,3.333-0.433,5.061    c-1.188-0.104-2.375-0.207-3.559-0.288c-4.534-0.308-9.077-0.524-13.625-0.679C426.446,270.795,425.952,267.569,425.902,264.66z     M421.105,269.063c-0.008,1.183-0.267,2.973-0.143,4.543c-3.582-0.087-7.167-0.134-10.752-0.166    c0.37-2.26-0.111-4.893-0.136-6.969c-0.041-3.466-0.553-6.912-0.745-10.342c4.143,0.105,8.284,0.243,12.425,0.377    C420.474,260.331,421.133,265.228,421.105,269.063z M405.218,273.39c-0.005,0.008-0.007,0.018-0.012,0.026    c-5.301-0.019-10.599-0.002-15.895,0.016c0.377-2.177,0.007-4.668-0.032-6.787c-0.035-1.932,0.323-4.685,0.132-7.161    c0.036-1.171-0.001-2.349-0.132-3.481c2.851-0.019,5.702-0.036,8.546-0.036c2.629,0,5.258,0.039,7.885,0.089    c-0.16,0.983-0.143,2.056-0.175,3.004c-0.095,2.724-0.203,5.439-0.232,8.165C405.291,268.551,405.931,272.12,405.218,273.39z     M384.288,273.448c-0.53,0.002-1.062,0.003-1.592,0.006c-2.757,0.009-5.514,0.028-8.271,0.044c0.136-1.821-0.15-3.804-0.229-5.257    c-0.218-4.005-0.247-8.188-0.967-12.159c3.774,0,7.546-0.025,11.318-0.053c-0.002,0.069-0.003,0.138-0.008,0.206    c-0.047,0.823-0.005,1.62,0.109,2.403c-0.306,2.423,0.074,5.227,0.029,7.225C384.628,268.005,384.038,270.939,384.288,273.448z     M369.095,266.006c-0.034,2.339-0.474,5.065-0.474,7.524c-6.57,0.043-13.136,0.081-19.699,0.07    c0.319-2.976-0.241-6.408-0.336-9.155c-0.098-2.811,0.208-6.091-0.26-8.987c7.16,0.429,14.351,0.585,21.547,0.617    C368.686,259.006,369.135,263.128,369.095,266.006z M332.068,262.042c-0.126-2.563-0.239-5.155-0.913-7.621    c3.611,0.098,7.215,0.278,10.807,0.585c0.737,0.063,1.476,0.102,2.213,0.158c-0.752,1.915-0.723,4.447-0.806,6.222    c-0.188,4.067-0.161,8.125-0.167,12.189c-3.64-0.025-7.281-0.067-10.92-0.14C332.886,269.754,332.242,265.588,332.068,262.042z     M326.128,273.358c-6.112-0.043-12.233,0.025-18.342,0.076c0.012-0.495-0.016-0.999-0.048-1.512    c0.278-1.085,0.446-2.239,0.427-3.57c-0.061-4.357-0.785-9.402-1.851-13.79c6.953-0.126,13.916-0.296,20.856-0.215    c-0.216,0.889-0.283,1.863-0.355,2.676c-0.247,2.734-0.372,5.473-0.465,8.216C326.262,267.786,326.757,270.834,326.128,273.358z     M302.504,267.666c-0.088,2.547-0.37,4.136-0.201,5.803c-2.973,0.008-5.986,0.023-8.986,0.159    c0.349-3.086,0.002-6.315-0.046-9.377c-0.05-3.215,0.143-6.49-0.62-9.588c3.336,0.027,6.678,0.005,10.024-0.044    C301.879,258.933,302.655,263.275,302.504,267.666z M287.799,259.48c-0.968,4.528-1.104,9.411-0.817,13.932    c-5.199-0.38-10.815,0.296-15.608,0.303c-2.169,0.004-4.34,0.004-6.509,0.006c-0.678-6.328,0.126-12.73-1.102-18.999    c8.096,0.263,16.168,0.624,24.262,0.185c-0.104,1.031-0.282,2.078-0.299,3.039C287.717,258.468,287.747,258.976,287.799,259.48z     M260.23,266.619c-0.032,2.26-0.255,4.737-0.061,7.108c-3.644,0.003-7.289,0.01-10.934,0.01c-0.465-3.187-0.531-6.535-0.856-9.713    c-0.311-3.039-0.102-6.463-0.835-9.504c1.281,0.004,2.561,0.011,3.843-0.002c3.132-0.029,6.256,0.026,9.376,0.112    C260.071,258.525,260.283,262.732,260.23,266.619z M244.995,273.836c-4.834,0.208-9.636,0.706-14.48,0.995    c-0.8,0.048-1.709,0.03-2.671-0.007c-1.33-0.276-2.672-0.504-4.029-0.678c0.35-4.721,0.248-9.893-0.773-14.666    c0.051-0.503,0.082-1.012,0.073-1.533c-0.019-1.06-0.239-2.224-0.332-3.356c0.064-0.004,0.127-0.007,0.192-0.011    c0.962-0.025,1.925-0.047,2.886-0.085c0.21-0.008,0.407-0.049,0.596-0.104c0.667-0.029,1.313-0.05,1.919-0.05    c5.687,0.002,11.363,0.137,17.045,0.178c0.097,3.74-0.674,7.661-0.605,11.411C244.862,268.297,244.624,271.282,244.995,273.836z     M217.524,273.629c-3.001-0.136-6.013-0.151-8.987-0.159c0.17-1.666-0.113-3.256-0.2-5.803c-0.15-4.39,0.624-8.733-0.171-13.047    c3.045,0.044,6.086,0.062,9.123,0.046c0.297,0.015,0.595,0.023,0.895,0.03c-0.754,3.088-0.564,6.353-0.614,9.556    C217.522,267.313,217.177,270.542,217.524,273.629z M203.104,271.922c-0.032,0.513-0.06,1.017-0.048,1.512    c-6.109-0.051-12.23-0.119-18.342-0.076c-0.629-2.525-0.133-5.572-0.221-8.119c-0.094-2.743-0.219-5.482-0.465-8.216    c-0.074-0.813-0.139-1.786-0.356-2.676c6.94-0.081,13.903,0.089,20.856,0.215c-1.067,4.388-1.79,9.431-1.852,13.79    C202.659,269.682,202.825,270.837,203.104,271.922z M178.561,273.434c-3.638,0.073-7.278,0.116-10.92,0.14    c-0.006-4.064,0.02-8.122-0.167-12.189c-0.082-1.775-0.054-4.308-0.806-6.222c0.737-0.056,1.477-0.095,2.213-0.158    c3.591-0.306,7.195-0.488,10.807-0.585c-0.675,2.467-0.787,5.058-0.913,7.621C178.601,265.588,177.956,269.754,178.561,273.434z     M162.256,264.446c-0.095,2.747-0.655,6.179-0.336,9.155c-6.564,0.009-13.129-0.027-19.699-0.07c0-2.459-0.44-5.185-0.474-7.524    c-0.041-2.878,0.408-7-0.779-9.931c7.197-0.033,14.386-0.188,21.547-0.617C162.049,258.355,162.354,261.634,162.256,264.446z     M136.417,273.499c-2.756-0.016-5.513-0.036-8.271-0.044c-0.53-0.001-1.062-0.004-1.592-0.006c0.249-2.51-0.34-5.444-0.387-7.585    c-0.044-1.997,0.336-4.802,0.029-7.225c0.113-0.783,0.156-1.58,0.109-2.403c-0.003-0.068-0.006-0.137-0.008-0.206    c3.77,0.027,7.544,0.051,11.318,0.053c-0.72,3.97-0.75,8.154-0.967,12.159C136.567,269.695,136.282,271.678,136.417,273.499z     M121.53,273.431c-5.295-0.019-10.594-0.034-15.895-0.016c-0.005-0.008-0.007-0.018-0.012-0.026    c-0.714-1.269-0.074-4.838-0.089-6.167c-0.029-2.725-0.138-5.441-0.232-8.165c-0.033-0.948-0.015-2.021-0.175-3.004    c2.628-0.051,5.256-0.089,7.885-0.089c2.845,0,5.695,0.018,8.546,0.036c-0.131,1.131-0.168,2.311-0.132,3.481    c-0.191,2.477,0.167,5.23,0.133,7.161C121.523,268.764,121.155,271.253,121.53,273.431z M100.632,273.44    c-3.585,0.03-7.17,0.079-10.753,0.166c0.124-1.57-0.134-3.36-0.143-4.543c-0.028-3.836,0.631-8.731-0.65-12.557    c4.141-0.132,8.282-0.271,12.425-0.377c-0.192,3.43-0.704,6.876-0.745,10.342C100.743,268.547,100.262,271.18,100.632,273.44z     M84.709,273.75c-4.548,0.156-9.091,0.371-13.625,0.679c-1.183,0.081-2.37,0.182-3.559,0.288c0.091-1.73-0.303-3.308-0.433-5.061    c-0.157-2.114-0.124-4.268-0.221-6.388c-0.012-0.246-0.025-0.487-0.039-0.725c0.262-1.618,0.256-3.279,0.228-4.954    c-0.003-0.235-0.019-0.475-0.042-0.714c6.059,0.056,12.117-0.069,18.177-0.248c-0.35,2.625-0.214,5.507-0.258,8.036    C84.89,267.569,84.397,270.795,84.709,273.75z M62.205,263.266c-0.161,4.052-0.07,7.913,0.222,11.945    c-3.107,0.332-6.225,0.702-9.347,1.057c0.352-2.253-0.156-4.997-0.192-7.105c-0.074-4.236-0.416-8.479-0.828-12.697    c1.276,0,2.552,0.014,3.825,0.085c2.377,0.135,4.755,0.226,7.133,0.284C61.968,258.623,62.281,261.34,62.205,263.266z     M48.219,276.8c-4.086,0.423-8.172,0.758-12.244,0.9c-0.113-1.443-0.274-2.89-0.458-4.322c0.806-4.101,0.608-8.862,0.495-12.076    c-0.082-2.307-1.019-3.78,0.796-4.956c1.782-1.154,5.221-0.132,7.128,0.002c1.547,0.109,3.099,0.123,4.652,0.12    c-0.412,4.216-0.758,8.461-0.828,12.694C47.72,271.594,47.196,274.507,48.219,276.8z M26.848,304.256    c-1.375-0.648-1.827-2.065-2.008-3.619c0.329-0.489,0.907-0.904,1.814-1.159c2.234-0.626,5.092,0.308,7.426,0.395    c6.246,0.235,12.689,0.168,18.926-0.202c2.763-0.165,5.504-0.221,8.269-0.309c2.525-0.079,3.516-0.051,3.104,2.993    c-0.416,3.068-7.131,3.3-11.827,3.429c-3.072-0.952-6.57-0.042-9.761,0.177c-3.294-0.178-6.604-0.599-9.782-1.041    C31.41,304.698,28.154,304.872,26.848,304.256z M68.721,299.595c2.953,1.117,7.2,2.838,7.972,3.154    c2.663,1.092,5.175,2.403,7.81,3.507c2.41,1.009,9.248,2.013,10.299,4.105c1.05,2.09-0.863,3.649-2.479,3.712    c-1.341,0.051-3.111-0.63-4.475-0.923c-3.564-0.762-7.192-1.506-10.706-2.47c-3.115-0.855-6.259-2.732-9.473-3.895    c0.518-0.576,0.905-1.275,1.076-2.159C69.007,303.276,68.983,301.335,68.721,299.595z M74.136,313.74    c5.268,1.828,10.865,2.913,16.222,4.469c0.651,0.189,1.254,0.366,1.822,0.506c-0.748,3.59-0.679,7.317-0.769,11.008    c-0.106,4.391-0.435,8.851-0.24,13.242c0.311,7.001,0.939,14.01,1.179,21.017c0.208,6.093,0.461,12.206,0.647,18.328    c-0.062,1.42-0.123,2.84-0.215,4.261c-0.838,12.866-0.817,25.799-0.66,38.744c-0.684,12.061-1.319,24.127-1.868,36.192    c-0.161,3.542,0.028,7.078-0.194,10.618c-0.295,4.703,1.194,10.278-4.219,12.098c-5.778,1.941-10.729,4.016-16.692,5.198    c-0.085-2.418-0.379-4.804-0.373-6.594c0.039-12.88-1.628-25.998-2.087-38.894c-0.506-14.229-1.07-28.518-1.932-42.711    c-0.899-14.816-2.004-29.633-2.224-44.473c-0.237-15.964,0.039-31.821,0.061-47.791c0.118-0.015,0.23-0.04,0.347-0.058    C66.72,310.385,70.277,312.401,74.136,313.74z M34.616,479.895c-0.099-1.397-0.185-2.796-0.268-4.193    c0.132-17.936-0.499-35.872-1.022-53.796c-0.074-5.448-0.195-10.893-0.417-16.331c-0.062-2.982-0.117-5.965-0.154-8.947    c-0.187-15.117-0.018-30.134-1.206-45.159c-0.034-0.428-0.06-0.857-0.089-1.286c-0.069-7.982-0.182-15.964-0.315-23.946    c-0.082-4.894,1.028-11.113,0.056-16.25c5.611,0.78,12.152,0.27,16.97-0.571c1.407-0.023,2.816-0.079,4.234-0.224    c1.107-0.113,2.645-0.062,4.335-0.028c-0.005,12.972-0.985,26.019-0.248,38.974c0.663,11.66,1.34,23.44,1.607,35.111    c0.289,12.674,1.359,25.404,2.387,38.043c1.089,13.394,0.601,26.9,1.638,40.287c0.465,6.003,0.941,12.036,1.346,18.035    c0.191,2.816,0.083,5.643,0.094,8.465c0.003,1.042,0.248,2.626,0.028,3.578c-0.78,3.378-3.238,3.222-6.077,3.523    c-5.178,0.551-11.068-0.398-16.224-1.021c-1.56-0.188-3.466-0.113-4.837-1.03c-1.844-1.234-0.996-0.478-1.52-2.662    C34.212,487.439,34.847,483.116,34.616,479.895z M60.357,503.85c-4.892,0.336-9.602,0.995-14.529,0.985    c-4.893-0.01-9.604,0.179-14.436-0.646c-1.497-0.255-2.616-0.005-3.175-1.556c-0.464-1.289-0.12-3.251,0.716-4.314    c1.766-2.244,3.946-0.274,6,0.334c5.252,1.554,11.017,1.768,16.475,2.107c4.19,0.261,11.604,0.627,15.181-2.286    c0.648-0.527,1.131-1.19,1.505-1.934c0.588,0.733,1.106,1.447,1.188,1.783C70.8,504.596,63.342,503.645,60.357,503.85z     M94.856,491.097c-0.137,0.174-0.283,0.343-0.448,0.493c-2.548,2.345-7.386,3.734-10.633,5.032    c-2.946,1.178-5.874,2.451-8.774,3.741c-0.099-1.975-0.882-4.019-2.057-5.751c5.634-1.2,10.649-3.044,16.278-4.985    c1.224-0.422,2.439-0.955,3.492-1.72c0.893-0.649,1.763-1.369,2.548,0.03c0.092,0.166,0.163,0.333,0.215,0.503    C95.498,489.427,95.263,490.306,94.856,491.097z M106.109,308.054c-2.183,0.049-5.01-0.37-7.171,0.441    c-2.435-3.146-7.853-4.224-11.307-5.718c-4.115-1.781-8.027-3.948-12.224-5.57c1.088-0.037,2.177-0.048,3.268,0    c8.552,0.373,16.85,1.055,25.394,0.969c-0.078,0.265-0.16,0.529-0.21,0.829c-0.568,3.378,0.449,5.822,2.436,7.564    c0.53,0.637,1.14,1.015,1.796,1.255c0.032,0.018,0.068,0.029,0.099,0.047C107.47,307.953,106.764,308.04,106.109,308.054z     M110.96,304.256c-1.375-0.648-1.827-2.065-2.008-3.619c0.33-0.489,0.907-0.904,1.814-1.159c2.234-0.626,5.092,0.308,7.426,0.395    c6.246,0.235,12.689,0.168,18.926-0.202c2.763-0.165,5.504-0.221,8.269-0.309c2.525-0.079,3.516-0.051,3.104,2.993    c-0.416,3.068-7.131,3.3-11.827,3.429c-3.072-0.952-6.57-0.042-9.761,0.177c-3.294-0.178-6.604-0.599-9.782-1.041    C115.523,304.698,112.267,304.872,110.96,304.256z M152.074,313.828c0.675,0.524,1.277,1.133,1.989,1.614    c0.913,0.617,1.921,1.104,2.961,1.423c-0.776,14.107-2.662,28.564-1.763,42.625c0.531,8.317,0.313,16.829,0.464,25.166    c0.125,6.905,0.875,13.734,0.828,20.672c-0.035,5.288,0.051,10.581,0.178,15.875c0.022,6.558,0.111,13.107,0.428,19.59    c0.041,0.844,0.094,1.685,0.14,2.528c0.051,2.71,0.094,5.418,0.103,8.125c0.025,7.037,1.226,13.99,1.223,21.034    c-0.001,4.531,1.292,9.118-1.779,12.858c-1.158,1.41-2.41,2.616-3.592,3.909c-0.094-2.357-0.372-4.673-0.367-6.421    c0.039-12.88-1.628-25.998-2.087-38.894c-0.506-14.229-1.071-28.518-1.932-42.711c-0.899-14.816-2.004-29.633-2.224-44.473    c-0.228-15.361,0.014-30.628,0.053-45.988c0.527,0.42,1.126,0.785,1.782,1.133C149.754,312.572,150.904,312.919,152.074,313.828z     M149.905,308.121c1.509-0.671,2.616-1.752,2.954-3.494c0.109-0.565,0.166-1.234,0.179-1.946c0.752,0.407,1.561,0.787,2.382,1.264    c1.517,0.879,2.914,1.864,4.124,3.141c1.4,1.477,4.287,5.626-0.372,5.763c-2.794,0.082-4.785-2.749-7.23-3.777    C151.287,308.796,150.603,308.449,149.905,308.121z M118.729,479.895c-1.896-26.607-0.512-53.436-1.977-80.069    c-0.787-14.303-0.994-28.708-1.114-43.07c0.123-4.094,0.246-8.188,0.299-12.301c0.056-4.342-0.294-8.482-0.592-12.791    c-0.002-0.032-0.002-0.063-0.004-0.095c-0.023-1.506-0.044-3.012-0.069-4.519c0.042-1.955,0.136-3.917,0.172-5.873    c0.235-3.729,0.532-7.706-0.127-11.192c5.611,0.78,12.152,0.27,16.97-0.571c1.407-0.023,2.816-0.08,4.234-0.225    c1.109-0.113,2.645-0.062,4.335-0.028c-0.005,12.972-0.985,26.019-0.248,38.974c0.663,11.66,1.34,23.44,1.607,35.111    c0.289,12.674,1.36,25.404,2.387,38.043c1.089,13.394,0.601,26.9,1.638,40.287c0.465,6.003,0.941,12.036,1.346,18.035    c0.191,2.816,0.083,5.643,0.094,8.465c0.003,1.042,0.248,2.626,0.028,3.578c-0.78,3.378-3.238,3.222-6.077,3.523    c-5.178,0.551-11.068-0.398-16.225-1.021c-1.56-0.188-3.465-0.113-4.837-1.03c-1.843-1.234-0.996-0.478-1.52-2.662    c-0.103-0.432-0.173-0.893-0.228-1.371c0.019-1.809-0.009-3.63-0.076-5.458C118.782,482.324,118.811,481.039,118.729,479.895z     M144.469,503.85c-4.892,0.336-9.602,0.995-14.529,0.985c-3.045-0.006-6.019,0.064-8.995-0.081    c-0.17-0.014-0.343-0.027-0.511-0.042c-0.433-0.039-0.989-0.068-1.611-0.105c-1.103-0.097-2.207-0.228-3.319-0.417    c-0.422-0.073-0.83-0.101-1.217-0.117c-1.213-0.272-2.296-0.688-2.977-1.341c-0.141-0.485-0.193-1.146-0.124-2.078    c0.156-2.097,1.843-3.46,3.286-4.827c0.842,1.22,2.241,2.136,4.575,2.828c5.252,1.554,11.017,1.768,16.475,2.107    c4.19,0.261,11.604,0.627,15.181-2.286c0.648-0.527,1.13-1.19,1.505-1.934c0.588,0.733,1.106,1.447,1.188,1.783    C154.913,504.596,147.455,503.645,144.469,503.85z M162.332,487.612c0.903,1.604,1.437,3.335,1.095,5.094    c-0.54,1.505-1.358,2.914-2.414,4.291c-0.629,0.821-1.353,1.54-2.01,2.327c-0.363-2.155-1.475-4.315-2.948-5.987    c1.933-2.315,4.08-4.034,5.686-6.059C161.937,487.383,162.134,487.493,162.332,487.612z M195.817,312.102    c-5.863-1.527-13.146-0.575-19.15-0.675c-0.37-0.006-0.755-0.016-1.154-0.028c-1.233-0.077-2.463-0.118-3.672-0.092    c-1.928-0.019-3.935,0.041-5.772,0.352c0.289-2.688-1.305-5.387-3.108-7.581c-1.427-1.735-3.781-4.023-6.317-5.481    c10.461-0.075,20.935-0.077,31.345,0.344c-0.003,0.022-0.012,0.04-0.016,0.062c-0.568,3.378,0.449,5.822,2.436,7.564    c0.53,0.637,1.14,1.015,1.796,1.255c1.037,0.578,2.227,1.034,3.508,1.399C195.841,310.127,195.859,311.101,195.817,312.102z     M195.072,304.253c-1.374-0.644-1.825-2.062-2.008-3.617c0.329-0.489,0.907-0.904,1.814-1.159    c0.233-0.065,0.477-0.105,0.723-0.139c0.812,0.051,1.627,0.083,2.438,0.14c0.672,0.048,1.344,0.096,2.016,0.144    c0.776,0.116,1.538,0.222,2.25,0.249c0.679,0.026,1.369,0.034,2.053,0.051c6.317,0.42,12.623,0.695,18.981,0.226    c3.001-0.221,6.035-0.16,9.026-0.249c0.333,0.429,0.412,1.172,0.237,2.453c-0.416,3.069-7.131,3.3-11.827,3.429    c-3.072-0.952-6.57-0.042-9.761,0.177c-3.294-0.178-6.604-0.599-9.782-1.041C199.635,304.695,196.379,304.869,195.072,304.253z     M234.814,498.474c0.589-0.479,1.028-1.082,1.387-1.744c0.465,0.526,0.912,1.049,1.295,1.565c0.002,0.008,0.01,0.02,0.012,0.028    c1.519,6.274-5.939,5.322-8.925,5.527c-4.892,0.336-9.602,0.995-14.529,0.985c-4.894-0.01-9.604,0.179-14.436-0.646    c-0.061-0.01-0.12-0.016-0.181-0.025c-0.855-0.34-1.6-0.761-2.159-1.3c-1.829-1.765-1.624-3.311-0.869-4.828    c0.63-0.802,1.434-1.506,2.176-2.209c0.842,1.22,2.241,2.137,4.575,2.828c5.252,1.554,11.017,1.768,16.475,2.107    C223.823,501.022,231.237,501.388,234.814,498.474z M231.82,491.656c-0.78,3.378-3.238,3.222-6.077,3.523    c-5.178,0.551-11.068-0.398-16.224-1.021c-1.56-0.188-3.465-0.113-4.837-1.03c-1.843-1.234-0.996-0.478-1.519-2.662    c-0.726-3.028-0.09-7.351-0.32-10.571c-1.896-26.607-0.512-53.436-1.977-80.069c-0.868-15.762-1.036-31.654-1.155-47.469    c-0.065-8.709-0.193-17.414-0.338-26.121c-0.082-4.894,1.028-11.113,0.056-16.25c5.611,0.78,12.152,0.27,16.97-0.571    c1.407-0.023,2.816-0.08,4.234-0.224c1.109-0.113,2.645-0.062,4.335-0.028c-0.005,12.972-0.985,26.019-0.248,38.974    c0.663,11.66,1.34,23.44,1.607,35.111c0.289,12.674,1.36,25.404,2.388,38.043c0.016,0.195,0.025,0.392,0.04,0.587    c0.159,3.403,0.344,6.805,0.552,10.208c0.341,9.835,0.286,19.695,1.047,29.492c0.465,6.003,0.941,12.036,1.346,18.035    c0.191,2.816,0.083,5.643,0.094,8.465C231.796,489.12,232.04,490.704,231.82,491.656z M279.153,310.803    c-4.471-0.768-9.245-0.319-13.749-0.451c-5.157-0.152-10.349-0.407-15.516-0.104c-5.591,0.329-12.231-0.315-17.994,0.851    c-0.16-0.102-0.343-0.18-0.564-0.218c-0.095-0.015-0.188-0.032-0.283-0.047c-0.084-0.014-0.159-0.006-0.24-0.012    c0.004-0.621,0.007-1.242,0.008-1.865c3.035-0.407,5.606-1.5,6.155-4.329c0.262-1.353,0.237-3.299-0.027-5.042    c1.085-0.133,2.154-0.339,3.212-0.599c4.367,0.458,8.759,0.575,13.289,0.693c6.11,0.16,13.357,0.884,19.803-0.196    c0.218,0.032,0.432,0.075,0.65,0.102c-0.263,1.744-0.289,3.688-0.027,5.042c0.548,2.829,3.119,3.923,6.155,4.329    c0.001,0.641,0.006,1.279,0.008,1.919C279.746,310.845,279.451,310.822,279.153,310.803z M279.554,490.328    c0.771-6.939,0.244-13.955,0.334-20.942c0.199-2.604,0.401-5.21,0.602-7.808c0.227-2.929,0.373-5.865,0.486-8.803    c0.25-3.037,0.481-6.074,0.586-9.111c0.309-8.917,0.736-17.809,1.273-26.723c0.165-2.727,0.241-5.458,0.292-8.189    c0.647-8.497,1.194-17.013,1.388-25.504c0.006-0.242,0.016-0.486,0.022-0.729c0.642-5.432,1.273-10.868,0.96-16.307    c-0.083-1.436-0.115-2.872-0.131-4.309c0.239-4.598,0.495-9.192,0.754-13.766c0.737-12.953-0.243-26.002-0.248-38.974    c1.69-0.034,3.228-0.085,4.335,0.028c1.419,0.145,2.828,0.201,4.234,0.224c4.818,0.841,11.36,1.351,16.97,0.571    c-0.973,5.138,0.138,11.357,0.056,16.25c-0.145,8.707-0.272,17.412-0.338,26.121c-0.099,13.377-0.263,26.803-0.828,40.164    c-0.039,0.49-0.083,0.98-0.118,1.47c-1.128,15.732-1.27,31.475-1.3,47.287c-0.019,9.777-0.233,19.566-0.353,29.351    c-0.141,3.091-0.313,6.179-0.533,9.265c-0.229,3.221,0.406,7.544-0.32,10.571c-0.524,2.183,0.324,1.428-1.519,2.662    c-1.37,0.918-3.277,0.842-4.837,1.03c-5.156,0.623-11.047,1.572-16.224,1.021c-2.811-0.299-5.247-0.153-6.052-3.431    C279.305,491.351,279.492,490.882,279.554,490.328z M314.849,500.717c-0.237,1.549-0.843,2.596-1.669,3.325    c-0.591,0.026-1.254,0.028-1.956,0.149c-4.832,0.824-9.544,0.635-14.436,0.646c-4.927,0.011-9.638-0.65-14.529-0.985    c-2.985-0.205-10.443,0.746-8.925-5.527c0.082-0.336,0.6-1.049,1.188-1.783c0.374,0.744,0.856,1.407,1.505,1.934    c3.577,2.913,10.991,2.547,15.181,2.286c5.458-0.34,11.222-0.554,16.475-2.107c2.009-0.594,3.315-1.362,4.178-2.342    c0.146-0.013,0.29-0.036,0.433-0.068C313.778,497.431,315.145,498.79,314.849,500.717z M309.61,304.921    c-3.177,0.442-6.488,0.863-9.782,1.041c-3.193-0.22-6.689-1.128-9.761-0.177c-4.696-0.13-11.411-0.36-11.827-3.429    c-0.173-1.282-0.095-2.024,0.237-2.453c2.99,0.088,6.025,0.027,9.025,0.249c6.359,0.469,12.665,0.194,18.981-0.226    c0.684-0.019,1.373-0.027,2.053-0.051c0.711-0.027,1.474-0.133,2.25-0.249c0.671-0.048,1.344-0.097,2.016-0.144    c0.81-0.057,1.627-0.09,2.438-0.14c0.246,0.034,0.49,0.074,0.723,0.139c0.906,0.254,1.485,0.669,1.814,1.159    c-0.182,1.555-0.633,2.973-2.008,3.619C314.463,304.872,311.207,304.698,309.61,304.921z M347.882,304.079    c-1.803,2.194-3.397,4.893-3.108,7.581c-3.487-0.592-7.591-0.282-10.598-0.233c-6.003,0.098-13.287-0.854-19.15,0.675    c-0.041-1.001-0.023-1.975,0.105-2.881c1.282-0.365,2.471-0.821,3.507-1.399c0.656-0.239,1.266-0.617,1.796-1.255    c1.987-1.741,3.005-4.185,2.436-7.564c-0.004-0.022-0.012-0.04-0.015-0.062c10.41-0.421,20.883-0.417,31.345-0.344    C351.662,300.056,349.308,302.343,347.882,304.079z M355.423,303.945c0.821-0.476,1.63-0.857,2.382-1.264    c0.013,0.712,0.069,1.382,0.179,1.946c0.338,1.742,1.447,2.823,2.954,3.494c-0.698,0.327-1.382,0.674-2.037,0.95    c-2.445,1.028-4.437,3.858-7.23,3.777c-4.659-0.136-1.772-4.286-0.372-5.763C352.509,305.808,353.906,304.824,355.423,303.945z     M351.84,499.324c-0.657-0.786-1.381-1.506-2.01-2.327c-1.459-1.904-2.474-3.866-2.904-6.067c0.368-1.104,0.955-2.232,1.708-3.389    c0.156-0.091,0.312-0.181,0.468-0.264c1.604,2.024,3.753,3.743,5.686,6.059C353.315,495.009,352.203,497.169,351.84,499.324z     M353.995,485.339c-0.697-0.849-1.161-1.744-1.475-2.67c1.192-5.371,1.043-11.548,1.024-16.919    c-0.032-9.045,0.168-18.042,0.385-27.085c0.226-9.422,0.527-18.853,0.541-28.291c0.003-2.701-0.069-5.39-0.154-8.076    c0.132-5.902,0.691-11.744,0.799-17.643c0.152-8.337-0.067-16.849,0.464-25.166c0.898-14.061-0.987-28.518-1.763-42.625    c1.04-0.319,2.048-0.806,2.961-1.423c0.712-0.482,1.314-1.09,1.989-1.614c1.171-0.909,2.32-1.256,3.596-1.934    c0.656-0.348,1.255-0.713,1.782-1.133c0.039,15.36,0.281,30.626,0.053,45.988c-0.221,14.84-1.325,29.656-2.224,44.473    c-0.862,14.193-1.425,28.483-1.932,42.711c-0.46,12.895-2.126,26.015-2.087,38.894c0.005,1.748-0.274,4.063-0.367,6.421    C356.407,487.955,355.153,486.749,353.995,485.339z M369.987,309.163c1.69-0.034,3.228-0.085,4.335,0.028    c1.418,0.145,2.828,0.201,4.234,0.224c4.818,0.841,11.36,1.351,16.97,0.571c-0.972,5.138,0.138,11.357,0.056,16.25    c-0.145,8.707-0.272,17.412-0.338,26.121c-0.041,5.46-0.101,10.928-0.18,16.396c-0.555,6.654-1.035,13.309-1.245,20.019    c-0.518,16.533-0.319,33.235-0.983,49.799c-0.305,7.614-0.006,15.373-0.001,23.029c0.001,2.639-0.067,5.32-0.141,8.016    c-0.148,3.429-0.337,6.855-0.58,10.278c-0.229,3.221,0.406,7.544-0.32,10.571c-0.524,2.183,0.324,1.428-1.519,2.662    c-1.371,0.918-3.277,0.842-4.837,1.03c-5.156,0.623-11.047,1.572-16.226,1.021c-2.839-0.302-5.299-0.145-6.077-3.523    c-0.22-0.952,0.025-2.538,0.028-3.578c0.012-2.821-0.096-5.649,0.094-8.465c0.405-5.999,0.881-12.032,1.346-18.035    c1.037-13.387,0.548-26.892,1.638-40.287c1.028-12.639,2.098-25.369,2.388-38.043c0.265-11.672,0.944-23.451,1.607-35.111    C370.971,335.184,369.993,322.136,369.987,309.163z M394.854,503.927c-3.426,0.619-7.081,0.82-10.546,0.862    c-0.881,0.01-1.772,0.029-2.665,0.048c-0.247,0-0.493-0.002-0.741-0.001c-4.927,0.011-9.637-0.65-14.529-0.985    c-2.984-0.205-10.443,0.746-8.925-5.527c0.082-0.336,0.6-1.049,1.188-1.783c0.374,0.744,0.856,1.407,1.505,1.934    c3.577,2.913,10.991,2.547,15.181,2.286c5.458-0.34,11.222-0.554,16.475-2.107c2.25-0.665,3.626-1.545,4.477-2.7    C398.655,499.205,400.301,502.943,394.854,503.927z M399.883,304.256c-1.306,0.616-4.563,0.442-6.159,0.664    c-3.177,0.442-6.488,0.863-9.782,1.041c-3.193-0.22-6.69-1.128-9.761-0.177c-4.696-0.13-11.411-0.36-11.827-3.429    c-0.413-3.045,0.579-3.072,3.104-2.992c2.764,0.087,5.506,0.144,8.269,0.309c6.236,0.371,12.68,0.436,18.926,0.202    c2.334-0.088,5.193-1.021,7.426-0.395c0.906,0.254,1.485,0.669,1.814,1.159C401.708,302.191,401.258,303.609,399.883,304.256z     M411.904,308.494c-1.197-0.449-2.597-0.518-3.981-0.5c-1.378-0.202-2.9-0.214-4.391-0.027c-0.29-0.03-0.584-0.063-0.881-0.098    c0.032-0.018,0.069-0.029,0.099-0.047c0.655-0.239,1.266-0.617,1.796-1.255c1.987-1.741,3.004-4.185,2.436-7.564    c-0.05-0.301-0.132-0.564-0.211-0.829c8.544,0.085,16.842-0.598,25.394-0.969c1.091-0.048,2.181-0.037,3.268,0    c-4.197,1.622-8.109,3.789-12.224,5.57C419.757,304.271,414.338,305.349,411.904,308.494z M442.096,304.627    c0.172,0.883,0.558,1.581,1.076,2.159c-3.215,1.162-6.358,3.04-9.472,3.895c-3.513,0.964-7.142,1.707-10.706,2.47    c-1.366,0.292-3.135,0.974-4.475,0.923c-1.616-0.063-3.528-1.622-2.479-3.712c1.051-2.092,7.89-3.095,10.299-4.105    c2.637-1.104,5.148-2.415,7.81-3.507c0.772-0.317,5.019-2.037,7.972-3.154C441.86,301.335,441.834,303.276,442.096,304.627z     M454.1,309.163c1.69-0.034,3.228-0.085,4.335,0.028c1.418,0.145,2.828,0.201,4.234,0.224c4.818,0.841,11.36,1.351,16.97,0.571    c-0.502,2.652-0.448,5.59-0.29,8.486c-0.586,13.246-0.7,26.626-0.22,39.836c0.063,1.727,0.102,3.453,0.125,5.179    c-0.136,12.127-0.388,24.27-1.054,36.338c-0.465,8.45-0.642,16.92-0.73,25.396c-0.308,6.014-0.717,12.025-1.321,18.055    c-0.765,7.63-0.405,15.248-0.125,22.861c0.141,3.872,0.227,7.751,0.334,11.629c-0.046,0.71-0.085,1.421-0.136,2.131    c-0.229,3.221,0.406,7.544-0.32,10.571c-0.524,2.183,0.324,1.428-1.52,2.662c-1.371,0.918-3.277,0.842-4.837,1.03    c-5.156,0.623-11.047,1.572-16.224,1.021c-2.839-0.302-5.297-0.145-6.077-3.523c-0.22-0.952,0.025-2.538,0.028-3.578    c0.012-2.821-0.096-5.649,0.094-8.465c0.405-5.999,0.881-12.032,1.346-18.035c1.037-13.387,0.548-26.892,1.638-40.287    c1.028-12.639,2.098-25.369,2.387-38.043c0.267-11.672,0.944-23.451,1.607-35.111C455.085,335.184,454.105,322.136,454.1,309.163z     M448.311,356.749c-0.221,14.84-1.325,29.656-2.224,44.473c-0.862,14.193-1.425,28.483-1.932,42.711    c-0.46,12.895-2.126,26.015-2.087,38.894c0.006,1.792-0.288,4.177-0.373,6.594c-5.963-1.182-10.914-3.257-16.692-5.198    c-5.412-1.818-3.923-7.393-4.219-12.098c-0.222-3.54-0.034-7.076-0.194-10.618c-0.729-16.036-1.567-32.076-2.542-48.101    c-0.161-2.653-0.26-5.31-0.332-7.967c-0.06-5.693-0.046-11.389-0.023-17.084c0.17-8.143,0.524-16.276,0.801-24.373    c0.24-7.007,0.868-14.015,1.179-21.017c0.195-4.391-0.133-8.851-0.24-13.242c-0.09-3.691-0.021-7.416-0.769-11.008    c0.567-0.14,1.171-0.317,1.822-0.506c5.357-1.557,10.954-2.642,16.222-4.469c3.859-1.339,7.416-3.354,11.197-4.84    c0.117,0.018,0.229,0.042,0.347,0.058C448.273,324.928,448.549,340.785,448.311,356.749z M435.842,500.365    c-2.9-1.29-5.828-2.565-8.774-3.741c-0.76-0.304-1.61-0.614-2.494-0.938c-1.807-1.021-3.581-2.098-5.327-3.222    c-0.948-0.61-2.932-1.542-3.865-2.494c-0.2-0.657-0.175-1.362,0.199-2.029c0.785-1.4,1.654-0.679,2.547-0.03    c1.052,0.765,2.267,1.298,3.492,1.72c5.63,1.941,10.644,3.785,16.278,4.985C436.724,496.346,435.941,498.39,435.842,500.365z     M482.759,500.841c-1.052,4.103-10.205,3.865-13.44,3.902c-1.676,0.019-3.359,0.048-5.043,0.071    c-4.659-0.051-9.146-0.646-13.791-0.964c-2.986-0.205-10.443,0.746-8.925-5.527c0.082-0.336,0.6-1.049,1.188-1.783    c0.374,0.744,0.856,1.407,1.504,1.934c3.577,2.913,10.991,2.547,15.181,2.286c5.458-0.34,11.222-0.554,16.475-2.107    c2.334-0.69,3.733-1.607,4.575-2.828c0.184,0.173,0.371,0.346,0.558,0.522C482.27,497.63,483.23,499.002,482.759,500.841z     M483.995,304.256c-1.306,0.616-4.563,0.442-6.159,0.664c-3.177,0.442-6.488,0.863-9.782,1.041    c-3.193-0.22-6.689-1.128-9.761-0.177c-4.696-0.13-11.411-0.36-11.827-3.429c-0.413-3.045,0.579-3.072,3.104-2.992    c2.764,0.087,5.506,0.144,8.269,0.309c6.236,0.371,12.68,0.436,18.926,0.202c2.334-0.088,5.193-1.021,7.426-0.395    c0.906,0.254,1.485,0.669,1.814,1.159C485.821,302.191,485.37,303.609,483.995,304.256z M490.998,291.54    c-0.096,0.737-0.027,1.758-0.136,2.645c-1.193,0.124-2.345,0.375-3.591,0.45c-2.929-0.862-6.902-0.115-9.851,0.147    c-2.146-0.173-4.313-0.22-6.337-0.367c-4.362-0.319-8.896-0.692-13.259-0.704c-4.916-0.014-9.781,0.646-14.712,0.145    c-3.631-0.368-7.266-0.807-10.947-0.744c-9.337,0.159-18.392,1.031-27.773,0.423c-8.558-0.554-17.195-0.098-25.762,0.013    c-21.93,0.283-43.922-0.94-65.827,0.058c-8.739,0.399-17.27,0.877-26.028,0.448c-4.219-0.207-9.872-1.248-14.784-0.782    c-6.146-0.788-13.218,0.101-18.548,0.24c-3.653,0.096-7.302,0.31-10.949,0.474c-5.515-1.778-13.113-0.192-18.43,0.069    c-8.758,0.43-17.287-0.049-26.027-0.448c-21.905-0.999-43.897,0.225-65.827-0.058c-8.567-0.111-17.204-0.567-25.762-0.013    c-9.38,0.608-18.437-0.264-27.773-0.423c-3.681-0.063-7.316,0.375-10.947,0.744c-4.931,0.5-9.796-0.158-14.712-0.145    c-4.364,0.012-8.898,0.385-13.259,0.704c-2.024,0.148-4.19,0.195-6.337,0.367c-2.949-0.262-6.922-1.01-9.851-0.147    c-1.247-0.074-2.398-0.326-3.591-0.45c-0.109-0.886-0.04-1.907-0.136-2.645c-0.161-1.234-1.53-5.178-1.606-7.443    c0.495-2.01,1.759-2.391,3.445-2.648c2.197-0.151,4.82,0.336,6.077,0.486c7.715,0.925,15.533-0.008,23.245-0.159    c9.167-0.179,18.314-1.028,27.468-1.376c10.586-0.402,21.088-0.631,31.692-0.599c20.621,0.064,41.318,0.813,61.919,0.483    c9.43-0.151,18.875-0.475,28.338-0.477c4.843-0.001,9.683-0.037,14.525-0.153c2.841-0.068,5.669,0.122,8.483,0.037    c2.428,0.205,4.927,0.108,7.085,0.126c6.213,0.054,12.395-0.675,18.615-0.612c7.414,0.075,14.828,0.106,22.243,0.118    c4.664,0.007,10.129,0.644,15.223,0.324c3.081,0.156,6.183-0.07,9.297,0.005c4.841,0.116,9.682,0.152,14.524,0.153    c9.464,0.002,18.909,0.326,28.338,0.477c20.601,0.331,41.298-0.417,61.919-0.483c10.604-0.034,21.107,0.196,31.692,0.599    c9.154,0.347,18.301,1.196,27.468,1.376c7.711,0.151,15.531,1.083,23.245,0.159c2.051-0.246,7.746-1.395,9.282,0.812    C493.324,284.128,491.202,289.987,490.998,291.54z"/>
	</g>
</g>
<g>
	<g>
		<path d="M251.62,35.706c-2.257-0.392-4.314,0.592-5.921,2.225c-3.672,2.397-4.563,10.884-2.732,14.136    c3.152,5.596,13.859,6.352,16.255-0.331C261.455,45.508,258.904,36.969,251.62,35.706z M248.027,39.393    c0.441-0.271,0.871-0.449,1.296-0.588c-0.515,1.82-0.075,4.347,0.12,6.296c-0.82-0.076-1.634-0.165-2.456-0.168    c-0.529-0.002-1.438,0.081-2.183,0.092C245.38,42.778,246.229,40.5,248.027,39.393z M245.835,51.813    c-1.064-1.145-1.603-2.43-1.76-3.757c0.019-0.043,0.044-0.079,0.056-0.13c0.004-0.016,0.008-0.036,0.012-0.053    c1.14,0.406,2.625,0.359,3.668,0.442c0.568,0.046,1.127,0.11,1.684,0.178c-0.048,1.748-0.085,3.719,0.329,5.235    C248.342,53.577,246.955,53.019,245.835,51.813z M251.421,38.612c2.856,0.421,5.03,3.582,5.753,6.648    c-1.081-0.018-2.237,0.278-3.216,0.284c-0.527,0.003-1.098-0.07-1.675-0.151C252.226,43.075,252.073,40.778,251.421,38.612z     M253.416,53.418c-0.229,0.057-0.46,0.099-0.689,0.145c-0.257-1.535-0.333-3.126-0.371-4.729c1.647,0.164,3.288,0.193,4.978-0.191    C257.009,50.983,255.987,52.771,253.416,53.418z"/>
	</g>
</g>
<g>
</g>
<g>
</g>
<g>
</g>
<g>
</g>
<g>
</g>
<g>
</g>
<g>
</g>
<g>
</g>
<g>
</g>
<g>
</g>
<g>
</g>
<g>
</g>
<g>
</g>
<g>
</g>
<g>
</g>
</svg>
