<?xml version="1.0" encoding="iso-8859-1"?>
<!-- Generator: Adobe Illustrator 19.0.0, SVG Export Plug-In . SVG Version: 6.00 Build 0)  -->
<svg xmlns="http://www.w3.org/2000/svg" xmlns:xlink="http://www.w3.org/1999/xlink" version="1.1" id="Layer_1" x="0px" y="0px" viewBox="0 0 511.994 511.994" style="enable-background:new 0 0 511.994 511.994;" xml:space="preserve">
<g>
	<g>
		<path d="M492.264,462.684c-0.043-5.107,0.418-10.251,0.244-15.346c-0.203-5.949,0.294-13.787-6.808-15.205    c-0.971-0.194-1.973-0.378-2.991-0.554c-1.021-3.5-1.578-7.148-3.005-10.633c-1.322-3.227-3.105-6.196-4.662-9.261    c-1.824-3.592-2.335-7.778-4.239-11.403c-0.924-1.761-1.954-5.095-4.074-5.825c-2.184-0.751-3.34,0.598-4.292,2.293    c-2.083,3.707-3.497,8.06-5.524,11.872c-2.711,5.095-8.347,13.998-8.265,20.549c-1.046,0.006-2.071,0.098-3.064,0.322    c0.217-1.387,0.8-3.033,0.921-4.108c0.287-2.537,0.148-5.316-0.025-7.858c-0.311-4.552-0.433-8.698-0.247-13.258    c0.214-5.257-0.267-10.554-0.519-15.801c-0.129-2.661,0.496-6.101-1.283-8.392c-0.993-1.278-2.566-2.103-4.406-2.646    c-1.102-4.26-3.189-8.296-4.759-12.399c-1.625-4.245-3.036-8.489-4.809-12.679c-1.165-2.751-2.816-10.079-7.296-8.826    c-1.844,0.516-2.46,2.509-3.066,4.071c-1.189,3.06-2.379,6.044-3.757,9.043c-1.813,3.947-3.924,7.894-5.587,11.897    c-0.994,2.393-2.291,5.209-2.841,7.921c-0.022,0-0.043-0.002-0.066-0.002c-0.229-2.674,0.344-6.625,0.377-8.213    c0.079-3.722-0.547-7.099-0.676-10.767c-0.248-7.025,0.483-14.295-0.46-21.303c1.489,0.045,2.979,0.08,4.486,0.114    c2.257,0.051,5.053,0.532,7.058-0.787c3.757-2.473,1.201-7.244,0.51-10.715c-0.358-1.803-0.952-3.094-1.756-4.077    c-0.1-5.389-2.105-11.836-3.3-16.688c-0.896-3.633-2.637-6.957-3.513-10.567c-0.376-1.55-0.232-3.051-1.591-4.118    c-0.763-0.599-1.999-0.86-2.729,0c-1.368,1.612-1.507,2.82-1.971,4.908c-0.641,2.884-1.718,5.216-3.185,7.77    c-1.617,2.815-2.191,5.954-3.507,8.876c-0.154,0.342-0.331,0.661-0.516,0.971c-0.15-2.412-0.609-4.735-2.032-6.174    c-0.786-0.794-1.771-1.354-2.859-1.755c-0.502-3.766-2.253-7.711-3.038-11.115c-0.822-3.563-1.915-6.948-2.99-10.434    c-0.85-2.755-0.946-5.945-2.718-8.247c-0.659-0.857-1.671-1.269-2.686-0.704c-3.475,1.938-4.722,8.414-6.335,11.698    c-1.629,3.32-2.748,7.44-3.77,10.974c-0.575,1.984-1.195,3.8-1.322,5.718c-1.166-0.173-2.335-0.351-3.514-0.529    c-2.66-0.401-5.344-0.706-8.007-1.118c-0.284-0.044-1.214-0.034-1.98-0.072c0.029-0.244,0.032-0.583,0.143-0.901    c0.831-2.391,0.069-6.262-1.809-8.421c-0.55-5.577-3.507-11.302-4.896-16.743c-0.983-3.848-2.245-7.611-3.221-11.457    c-0.583-2.299-0.692-4.867-2.039-6.864c-0.811-1.201-2.799-1.46-3.551,0c-1.393,2.708-1.121,5.574-1.809,8.508    c-0.599,2.557-1.629,5.252-2.561,7.713c-1.982,5.231-3.102,10.76-4.78,16.098c-0.742-0.06-1.484-0.114-2.227-0.153    c-0.816-0.042-8.397,0.14-9.167-0.737c-0.722-0.823-0.107-5.248-0.353-6.498c-0.243-1.235-0.596-2.435-0.935-3.641    c3.417-0.237,6.704-0.901,9.485-2.5c4.546-2.613,3.744-9.479,0.115-12.825c-1.175-1.084-2.747-1.749-4.514-2.144    c0.094-0.257,0.173-0.53,0.234-0.822c1.607-7.706-2.985-11.689-8.801-12.752c0.257-0.717,0.314-1.588,0.053-2.691    c2.353-4.129,1.221-10.266,1.301-14.73c0.096-5.318-0.662-10.425-0.698-15.671c-0.071-10.003-1.872-21.093-4.644-30.691    c-3.14-10.877-6.415-20.996-11.504-31.086c-3.245-6.435-7.219-13.195-12.617-18.152c1.622-0.786,2.971-1.797,3.706-3.099    c2.64-4.679,0.496-10.48-3.402-13.502c-3.196-2.476-7.3-2.871-9.326-6.699c-0.53-1.001-0.939-2.06-1.318-3.138    c-0.108-1.085-0.347-2.206-0.48-3.394c-0.364-3.261-0.852-6.485-1.195-9.747c-0.826-7.839-2.379-15.553-3.204-23.401    c-0.893-8.49-2.101-16.836-3.519-25.255c-0.616-3.662-0.603-7.527-1.561-11.122c-0.323-1.218-0.783-2.434-1.241-3.642    c0.29-0.154,0.578-0.311,0.851-0.517c2.305-1.73,3.86-4.614,3.957-7.494c0.094-2.788-0.523-5.545-1.647-8.089    c-0.944-2.137-2.606-3.395-3.709-5.396c-1.863-3.379-3.775-7.901-8.142-8.415c-3.588-0.422-6.788,3.096-8.845,6.783    c-3.712,4.265-6.442,9.366-6.247,15.118c0.098,2.879,1.652,5.764,3.957,7.494c0.273,0.204,0.562,0.363,0.851,0.517    c-0.458,1.208-0.917,2.426-1.241,3.642c-0.957,3.595-0.944,7.46-1.561,11.122c-1.417,8.419-2.626,16.764-3.519,25.255    c-0.825,7.849-2.379,15.561-3.204,23.401c-0.343,3.261-0.831,6.484-1.195,9.747c-0.133,1.188-0.371,2.309-0.48,3.394    c-0.377,1.077-0.787,2.137-1.317,3.138c-2.026,3.828-6.13,4.224-9.326,6.699c-3.898,3.022-6.042,8.822-3.402,13.502    c0.735,1.302,2.084,2.313,3.706,3.099c-5.398,4.957-9.372,11.718-12.617,18.152c-5.089,10.09-8.363,20.208-11.504,31.086    c-2.771,9.599-4.573,20.689-4.644,30.691c-0.036,5.247-0.794,10.353-0.698,15.671c0.08,4.465-1.052,10.602,1.301,14.73    c-0.261,1.104-0.204,1.974,0.053,2.691c-5.817,1.061-10.407,5.044-8.801,12.752c0.061,0.293,0.14,0.565,0.234,0.822    c-1.766,0.395-3.339,1.06-4.514,2.144c-3.629,3.347-4.432,10.213,0.115,12.825c2.781,1.598,6.068,2.262,9.485,2.5    c-0.34,1.206-0.692,2.406-0.936,3.641c-0.246,1.25,0.368,5.675-0.353,6.498c-0.77,0.878-8.352,0.696-9.167,0.737    c-0.742,0.039-1.484,0.093-2.227,0.153c-1.678-5.338-2.798-10.865-4.78-16.098c-0.932-2.46-1.962-5.155-2.561-7.713    c-0.686-2.933-0.416-5.8-1.809-8.508c-0.75-1.46-2.74-1.201-3.551,0c-1.347,1.998-1.456,4.566-2.039,6.864    c-0.977,3.846-2.239,7.61-3.221,11.457c-1.389,5.442-4.346,11.166-4.896,16.743c-1.878,2.159-2.64,6.03-1.809,8.421    c0.11,0.318,0.114,0.657,0.143,0.901c-0.765,0.039-1.696,0.028-1.98,0.072c-2.663,0.411-5.348,0.717-8.007,1.118    c-1.179,0.177-2.348,0.356-3.514,0.529c-0.127-1.918-0.747-3.734-1.322-5.718c-1.024-3.533-2.141-7.653-3.771-10.974    c-1.611-3.284-2.859-9.76-6.335-11.698c-1.014-0.565-2.026-0.153-2.685,0.704c-1.772,2.301-1.869,5.491-2.718,8.247    c-1.075,3.487-2.168,6.871-2.99,10.434c-0.784,3.404-2.535,7.349-3.037,11.115c-1.088,0.401-2.073,0.959-2.859,1.755    c-1.423,1.439-1.882,3.761-2.032,6.174c-0.185-0.31-0.361-0.629-0.515-0.971c-1.318-2.922-1.89-6.061-3.507-8.876    c-1.467-2.554-2.544-4.886-3.185-7.77c-0.464-2.088-0.604-3.294-1.971-4.908c-0.73-0.86-1.966-0.599-2.729,0    c-1.36,1.067-1.215,2.568-1.591,4.118c-0.877,3.61-2.619,6.935-3.513,10.567c-1.195,4.85-3.2,11.299-3.3,16.688    c-0.804,0.983-1.396,2.274-1.756,4.077c-0.69,3.471-3.247,8.242,0.51,10.715c2.005,1.32,4.801,0.838,7.058,0.787    c1.507-0.034,2.997-0.07,4.486-0.114c-0.943,7.008-0.21,14.28-0.46,21.303c-0.129,3.668-0.756,7.045-0.676,10.767    c0.033,1.588,0.606,5.539,0.377,8.213c-0.022,0-0.044,0.002-0.066,0.002c-0.55-2.714-1.845-5.529-2.841-7.921    c-1.663-4.003-3.774-7.951-5.587-11.897c-1.379-2.998-2.568-5.982-3.757-9.043c-0.608-1.562-1.222-3.555-3.066-4.071    c-4.48-1.253-6.13,6.075-7.296,8.826c-1.773,4.19-3.184,8.433-4.809,12.679c-1.57,4.103-3.658,8.139-4.759,12.399    c-1.841,0.543-3.413,1.367-4.406,2.646c-1.781,2.291-1.154,5.729-1.283,8.392c-0.254,5.246-0.735,10.544-0.519,15.801    c0.186,4.56,0.065,8.706-0.247,13.258c-0.174,2.542-0.313,5.32-0.025,7.858c0.121,1.074,0.704,2.721,0.921,4.108    c-0.993-0.223-2.019-0.316-3.064-0.322c0.082-6.551-5.554-15.454-8.265-20.549c-2.027-3.811-3.441-8.165-5.524-11.872    c-0.952-1.695-2.108-3.044-4.292-2.293c-2.119,0.73-3.15,4.064-4.074,5.825c-1.904,3.625-2.415,7.811-4.239,11.403    c-1.557,3.065-3.34,6.034-4.662,9.261c-1.427,3.485-1.985,7.133-3.005,10.633c-1.018,0.176-2.02,0.36-2.991,0.554    c-7.101,1.417-6.605,9.255-6.808,15.205c-0.174,5.095,0.288,10.239,0.244,15.346c-0.039,4.521-0.847,9.32-0.08,13.777    c0.228,1.322,1.081,2.128,2.132,2.482c0.571,0.953,2.226,1.201,2.952,0.045c0.04-0.063,0.092-0.128,0.135-0.192    c0.954-0.397,1.735-1.124,2.049-2.135c2.385-2.011,5.745-3.964,7.485-5.236c3.292-2.404,7.247-5.982,11.307-6.804    c0.71-0.247,1.435-0.438,2.177-0.576c2.57,0.347,3.284,1.582,2.143,3.703c-0.026,1.584-0.879,3.485-1.242,5.01    c-0.974,4.088-3.048,7.502-4.168,11.487c-0.813,2.897,2.794,4.787,4.891,2.847c1.891-1.749,3.326-3.816,5.288-5.523    c1.84-1.601,3.13-3.588,5.546-2.138c2.242,1.346,1.678,2.468,1.052,5.224c-1.187,5.217-4.922,10.817-4.397,16.266    c0.243,2.514,2.839,3.567,4.78,1.98c2.434-1.99,3.638-4.839,5.878-6.989c1.333-1.279,3.841-3.291,5.706-3.541    c3.234-0.432,3.049,1.12,3.272,3.634c0.449,5.053-2.751,10.722,0.851,14.976c0.689,0.814,2.251,1.268,3.257,0.86    c4.841-1.959,6.862-8.956,11.736-10.377c4.498-1.312,7.404,5.731,10.681,7.903c1.672,1.108,4.042,0.306,5.024-1.318    c1.756-2.899,0.403-13.815,4.588-13.59c1.734,0.093,4.068,2.979,5.599,3.862c1.577,0.909,3.727,2.261,5.539,2.516    c2.473,0.348,4.262-0.924,4.532-3.452c0.202-1.902-0.286-3.854-0.058-5.721c0.503-4.109,3.726-3.867,7.027-2    c3.172,1.792,5.902,6.026,10.017,5.586c3.073-0.328,4.188-2.983,4.451-5.746c0.275-2.891-2.152-11.493,3.438-9.48    c3.962,1.428,5.396,6.473,9.957,7.388c3.14,0.629,5.862-0.861,6.786-3.947c0.651-2.173-0.182-4.21-0.26-6.389    c-0.082-2.319,0.776-5.853,2.115-7.889c0.527-0.8,1.729-2.239,2.818-2.166c0.829,0.055,1.506,1.511,1.909,2.213    c1.196,2.081,1.772,4.484,2.478,6.758c0.824,2.659,4.092,3.553,6.124,1.617c3.39-3.23,4.131-16.862,10.956-15.266    c3.648,0.853,2.497,10.425,6.376,12.834c1.005,0.624,2.04,0.611,2.911,0.219c0.793-0.001,1.617-0.367,2.227-1.224    c1.49-2.093,6.69-11.938,9.615-10.748c1.096,0.447,0.689,8.726,1.567,10.459c1.156,2.285,4.477,2.005,5.705,0    c1.387-2.265,2.517-5.822,4.78-7.398c1.671-1.164,3.146-1.771,3.558,0.327c0.159,0.806-0.765,3.34-0.867,4.23    c-0.316,2.773,3.139,4.124,5.229,3c1.762-0.947,2.886-2.514,4.706-3.481c1.838-0.975,3.561-1.066,5.388-1.433    c1.963-0.301,3.83-1.124,5.418-2.383c3.252-2.58,6.16-1.677,8.994,0.036c-0.086,0.866,0.417,1.701,1.332,1.986    c2.389,0.747,4.523,0.562,6.84,1.793c1.821,0.967,2.944,2.534,4.706,3.481c2.09,1.124,5.545-0.228,5.229-3    c-0.101-0.89-1.025-3.424-0.867-4.23c0.411-2.097,1.886-1.49,3.558-0.327c2.262,1.576,3.394,5.134,4.78,7.398    c1.227,2.005,4.547,2.285,5.705,0c0.877-1.732,0.469-10.013,1.565-10.459c2.925-1.191,8.126,8.654,9.615,10.748    c0.61,0.857,1.433,1.222,2.227,1.224c0.871,0.393,1.906,0.407,2.911-0.219c3.878-2.409,2.728-11.981,6.376-12.834    c6.825-1.596,7.566,12.035,10.956,15.266c2.031,1.936,5.301,1.041,6.124-1.617c0.662-2.134,1.688-6.055,3.23-7.861    c0.269-0.315,0.832-1.094,0.673-1.209c0.817-0.025,2.876,1.617,3.301,2.265c1.34,2.036,2.198,5.57,2.115,7.888    c-0.078,2.179-0.911,4.216-0.26,6.389c0.925,3.084,3.646,4.575,6.786,3.947c4.561-0.913,5.995-5.96,9.957-7.388    c5.59-2.014,3.163,6.589,3.438,9.48c0.263,2.763,1.377,5.418,4.451,5.746c4.115,0.438,6.846-3.794,10.017-5.586    c3.301-1.866,6.524-2.108,7.027,2c0.228,1.869-0.26,3.82-0.058,5.721c0.27,2.528,2.059,3.8,4.532,3.452    c1.812-0.255,3.962-1.607,5.539-2.516c1.531-0.883,3.865-3.768,5.599-3.862c4.185-0.224,2.832,10.69,4.588,13.59    c0.983,1.623,3.352,2.426,5.024,1.317c3.277-2.171,6.183-9.214,10.681-7.903c4.874,1.421,6.895,8.419,11.736,10.377    c1.006,0.407,2.568-0.047,3.257-0.86c3.602-4.253,0.401-9.923,0.851-14.975c0.223-2.514,0.038-4.068,3.272-3.634    c1.864,0.249,4.373,2.262,5.706,3.541c2.24,2.151,3.444,5,5.878,6.989c1.94,1.587,4.538,0.534,4.78-1.98    c0.527-5.45-3.21-11.049-4.397-16.266c-0.626-2.755-1.191-3.877,1.052-5.224c2.416-1.45,3.706,0.536,5.546,2.138    c1.96,1.707,3.395,3.774,5.288,5.523c2.098,1.939,5.705,0.049,4.892-2.847c-1.121-3.987-3.194-7.4-4.168-11.487    c-0.363-1.527-1.216-3.427-1.242-5.01c-1.142-2.123-0.428-3.357,2.143-3.703c0.74,0.138,1.467,0.329,2.177,0.576    c4.061,0.822,8.015,4.4,11.307,6.804c1.741,1.272,5.101,3.224,7.485,5.236c0.314,1.012,1.094,1.738,2.049,2.135    c0.044,0.063,0.095,0.128,0.135,0.192c0.726,1.155,2.381,0.909,2.952-0.045c1.051-0.354,1.905-1.16,2.132-2.482    C493.111,472.004,492.302,467.206,492.264,462.684z M459.591,415.588c1.473-3.56,3.223-6.989,4.802-10.505    c0.495-1.101,0.907-2.43,1.373-3.723c0.091,0.134,0.163,0.248,0.2,0.322c0.993,2.007,2.093,3.982,2.798,6.136    c1.134,3.459,2.214,5.908,3.85,9.107c2.074,4.054,3.488,9.848,6.168,14.056c-5.462-0.744-11.215-1.107-16.296-0.625    c-2.634,0.25-5.486-0.248-8.341-0.673C456.275,425.195,457.682,420.199,459.591,415.588z M419.195,362.164    c0.219-0.535,4.754-13.34,5.185-13.382c0.395-0.039,5.395,13.783,5.98,15.342c1.569,4.183,3.244,8.674,5.652,12.559    c-3.878-0.402-8.039-0.15-10.618-0.196c-3.89-0.069-7.823,0.417-11.693,0.336C415.929,372.164,417.264,366.875,419.195,362.164z     M407.594,399.11c0.361-4.77,0.717-9.642,0.228-14.431c-0.04-0.385-0.098-0.789-0.167-1.206c2.459-0.315,5.026,0.649,7.505,0.464    c3.495-0.26,6.696-0.527,10.233-0.475c3.382,0.049,6.477,0.253,9.835,0.618c0.974,0.106,4.497-0.341,5.15,0.709    c0.797,1.28-0.341,5.392-0.463,7.061c-0.565,7.8-1.848,16.127-1.041,23.916c0.463,4.478-0.625,10.408,1.275,14.817    c-4.892-0.168-9.999-0.469-14.725,0.494c-0.259-0.649-0.517-1.296-0.772-1.946c-1.477-3.763-3.732-6.867-5.537-10.447    c-0.543-1.078-1.836-1.375-2.916-1.187c-2.609,0.455-3.268,2.791-3.943,5.028c-0.897,2.972-1.764,5.956-2.634,8.939    c-0.733-0.264-1.471-0.481-2.214-0.67c0.163-0.38,0.221-0.809,0.15-1.28c0.053-4.861,0.358-9.442-0.008-14.254    C407.151,410.014,407.199,404.346,407.594,399.11z M401.628,313.808c1.141-2.325,1.477-5.017,2.482-7.41    c1.147-2.733,2.824-4.84,3.589-7.709c0.08-0.299,0.141-0.635,0.196-0.985c0.12,0.554,0.217,0.97,0.267,1.104    c1.124,2.99,2.098,5.976,2.646,9.134c0.575,3.315,1.138,6.797,2.2,10.059c-0.764-0.263-1.588-0.505-2.473-0.76    c-3.217-0.924-6.626-1.42-10.04-1.819C400.938,314.899,401.354,314.367,401.628,313.808z M398.123,322.411    c2.373,0.326,4.738,0.679,7.121,0.978c2.412,0.302,5.605,0.519,7.142,2.363c0.946,1.133,0.968,2.946,1.313,4.347    c-0.127-0.032-0.251-0.063-0.403-0.098c-4.391-1.017-9.521-0.153-13.912,0.217c-0.803,0.068-1.415,0.377-1.857,0.81    c-0.342,0.019-0.681,0.034-1.008,0.042c-6.29,0.156-12.872,0.054-19.149,0.557c-5.844,0.468-11.605,0.165-17.481-0.16    c-2.977-0.165-6.003,0.155-8.986,0.112c-2.227-0.033-4.163-0.389-6.281,0.085c0.075-2.647-0.046-5.294-0.521-7.897    c5.322-0.015,10.667-0.032,15.951,0.457c5.527,0.511,11.183-0.368,16.721-0.744C382.962,323.061,391.54,324.42,398.123,322.411z     M401.797,415.259c0.279,4.888-0.113,9.61-0.005,14.551c0,0.036,0.011,0.065,0.013,0.1c-2.736-0.205-5.523-0.16-8.356-0.13    c-3.789,0.04-7.157,0.447-10.947,0.006c-3.126-0.363-6.294-0.579-9.314,0.276c-0.537-1.272-1.072-2.543-1.614-3.813    c-0.973-2.284-2.298-5.995-3.71-7.988c-0.845-1.193-1.852-2.207-3.461-2.076c-1.696,0.139-2.582,1.471-3.234,2.891    c-1.396,3.039-2.885,6.117-4.287,9.179c-0.574,1.25-1.038,2.562-1.477,3.885c-2.267-0.645-4.602-1.05-6.975-1.296    c0.854-1.276,1.501-2.635,1.886-4.374c0.321-1.451,0.444-2.844,0.863-4.217c0.276-0.911,0.77-1.182,0.837-2.165    c0.261-3.84-4.215-4.472-8.027-4.537c0.666-9.575-0.471-19.121-0.554-28.692c-0.062-7.261,0.425-15.289-0.986-22.616    c1.353-0.031,2.702-0.079,4.042-0.169c3.538-0.237,5.536-1.903,5.784-5.534c0.233-3.405-0.644-8.989-3.869-10.904    c-1.699-1.01-3.695-0.816-5.572-0.807c1.409-2.405,1.059-6.222,1.326-8.782c0.089-0.852,0.168-1.709,0.24-2.568    c5.446,2.131,11.233,0.893,16.931,1.468c5.403,0.545,10.988,0.542,16.409,0.027c7.169-0.68,14.447-0.369,21.643-0.96    c0.538-0.044,1.112-0.074,1.705-0.101c-1.268,7.88-1,17.005-0.455,24.612c0.33,4.605,0.68,9.083,0.529,13.74    c-0.088,2.698-0.441,5.25,1.017,7.604c0.261,5.386,0.655,10.7-0.021,16.12C401.46,403.57,401.478,409.645,401.797,415.259z     M374.866,444.895c-3.407-1.167-8.259-0.155-11.728-0.617c-1.661-0.221-4.055-0.549-6.419-0.515    c1.054-3.562,2.534-7.174,3.688-10.635c0.86-2.58,1.986-4.754,3.17-7.177c0.402-0.824,0.712-2.127,1.12-3.32    c0.474,1.105,0.968,2.345,1.082,2.572c1.219,2.443,2.158,4.923,3.192,7.442C370.693,436.84,372.819,440.858,374.866,444.895z     M155.117,428.256c-1.402-3.062-2.891-6.14-4.287-9.179c-0.652-1.42-1.538-2.753-3.234-2.891    c-1.609-0.132-2.616,0.883-3.461,2.076c-1.413,1.993-2.737,5.706-3.71,7.988c-0.542,1.271-1.077,2.542-1.614,3.813    c-3.021-0.856-6.189-0.639-9.314-0.276c-3.788,0.441-7.156,0.034-10.945-0.006c-2.834-0.031-5.62-0.075-8.356,0.13    c0.001-0.036,0.012-0.063,0.013-0.1c0.108-4.94-0.283-9.663-0.005-14.551c0.32-5.613,0.337-11.689-0.358-17.271    c-0.676-5.42-0.282-10.734-0.021-16.12c1.457-2.354,1.105-4.904,1.017-7.604c-0.152-4.658,0.199-9.137,0.529-13.74    c0.545-7.607,0.813-16.731-0.455-24.612c0.594,0.027,1.168,0.058,1.705,0.101c7.195,0.591,14.474,0.28,21.642,0.96    c5.422,0.515,11.007,0.518,16.409-0.027c5.698-0.575,11.485,0.663,16.931-1.468c0.072,0.859,0.15,1.716,0.24,2.568    c0.267,2.56-0.083,6.377,1.326,8.782c-1.877-0.008-3.873-0.202-5.572,0.807c-3.225,1.917-4.102,7.5-3.869,10.904    c0.248,3.632,2.246,5.297,5.784,5.534c1.34,0.09,2.689,0.138,4.042,0.169c-1.411,7.328-0.924,15.355-0.986,22.616    c-0.081,9.573-1.22,19.118-0.554,28.692c-3.813,0.065-8.287,0.696-8.027,4.537c0.067,0.983,0.561,1.255,0.837,2.165    c0.417,1.373,0.541,2.765,0.863,4.217c0.385,1.739,1.032,3.098,1.886,4.374c-2.373,0.247-4.708,0.65-6.975,1.296    C156.154,430.818,155.689,429.506,155.117,428.256z M155.28,443.764c-2.365-0.034-4.759,0.294-6.419,0.515    c-3.469,0.462-8.321-0.55-11.728,0.617c2.046-4.036,4.172-8.055,5.896-12.251c1.034-2.519,1.973-4.997,3.192-7.442    c0.114-0.228,0.609-1.467,1.081-2.572c0.408,1.192,0.718,2.496,1.12,3.32c1.184,2.423,2.309,4.599,3.17,7.177    C152.746,436.59,154.226,440.201,155.28,443.764z M337.957,372.788c-0.031,4.688-0.116,9.381-0.154,14.072    c-0.075,9.493,0.025,19.194,0.623,28.671c-9.171-0.249-18.468-1.18-27.623-0.579c-1.805,0.119-3.774,0.729-5.581,0.615    c-1.247-0.079-2.47-0.547-3.723-0.703c-0.329-4.201-0.629-8.423-1.045-12.61c-1.095-11.012-0.695-22.081-2.529-33.04    c-0.268-1.604-0.483-3.06-0.747-4.424c2.988,0.468,6.556-0.281,9.474-0.115c6.63,0.375,13.166-0.637,19.768-0.597    c3.784,0.022,7.63,0.159,11.464,0.193C337.68,367.079,337.976,369.886,337.957,372.788z M304.995,420.829    c2.754,0.168,5.467-0.609,8.234-0.596c7.083,0.032,14.119,0.508,21.183,0.618c1.863,0.029,3.727-0.034,5.588,0.012    c1.562,0.039,4.002,0.636,5.648,0.531c-0.798,1.635-0.415,4.907-0.896,6.666c-0.29,1.06-0.566,1.785-0.713,2.494    c-5.753-0.206-11.614,0.183-17.171,0.019c-5.145-0.153-10.28-1.023-15.41-1.345c-3.122-0.196-6.203-0.785-9.165-0.341    c0.013-0.603-0.026-1.24-0.101-1.958c-0.239-2.26-0.174-4.421-0.281-6.643C302.928,420.492,303.941,420.764,304.995,420.829z     M334.613,358.333c-4.642-0.002-9.492-0.424-14.107-0.039c-4.585,0.382-9.227,0.959-13.854,0.608    c-3.808-0.289-7.718-0.755-11.454,0.145c-0.669-1.153-1.541-2.281-2.736-3.426c-1.631-1.564-3.106-3.263-4.524-5.015    c10.015,1.369,20.578,0.487,30.63,0.543c5.409,0.031,10.89-0.112,16.291,0.236c3.186,0.204,14.26-0.453,12.033,5.654    C345.894,359.775,337.475,358.336,334.613,358.333z M338.3,336.388c-0.275,2.879-1.524,7.196-0.489,10.197    c-1.755-0.136-3.508-0.287-5.277-0.334c-8.14-0.213-16.307-0.061-24.447,0.076c-7.451,0.126-15.14-0.159-22.5,1.152    c-0.031,0.006-0.052,0.025-0.081,0.033c-1.441-1.859-2.882-3.726-4.432-5.506c-4.773-5.48-9.234-11.199-14.262-16.413    c-0.152-0.457-0.348-0.899-0.563-1.333c3.092,0.203,6.653,0.315,9.508-0.657c1.59,0.125,3.192,0.176,4.792,0.21    c6.906,0.148,13.805,0.21,20.713,0.183c12.75-0.052,25.497-0.237,38.246-0.224C338.811,327.899,338.697,332.242,338.3,336.388z     M277.766,345.936c2.965,3.804,5.324,8.232,8.702,11.651c2.559,2.59,4.322,4.356,5.189,8.121c0.534,2.318,0.817,4.879,1.118,7.239    c1.365,10.715,1.705,21.756,2.064,32.54c0.134,4.041,0.463,8.046,0.83,12.058c-0.15,0.477-0.086,0.939,0.123,1.345    c0.029,0.316,0.058,0.632,0.087,0.95c0.34,3.61-0.277,7.5,1.046,10.942c-2.301,0.047-4.595,0.173-6.895,0.228    c0.266-2.247-0.065-4.736,0.052-6.928c0-0.014,0-0.028,0-0.043c0.321-8.007-0.213-15.936-0.77-23.886    c-0.488-6.955-0.474-14.339-3.534-20.753c-3.44-7.21-9.126-13.935-13.691-20.475c-1.596-2.287-3.339-4.715-5.202-7.076    c-0.425-2.85-3.569-5.772-5.187-7.796c-1.865-2.333-5.051-6.32-8.538-4.944c-2.569,1.013-4.542,5.147-5.974,7.361    c-1.396,2.159-2.409,4.378-3.471,6.707c-0.283,0.622-0.651,1.229-1.011,1.842c-0.97,1.322-1.905,2.637-2.79,3.907    c-4.565,6.539-10.251,13.264-13.691,20.475c-3.06,6.415-3.046,13.798-3.534,20.753c-0.557,7.951-1.091,15.88-0.77,23.886    c0,0.014,0,0.028,0,0.043c0.115,2.192-0.215,4.681,0.051,6.928c-2.3-0.055-4.595-0.181-6.895-0.228    c1.322-3.442,0.706-7.331,1.046-10.942c0.029-0.317,0.058-0.632,0.087-0.95c0.209-0.405,0.274-0.867,0.123-1.345    c0.368-4.014,0.696-8.019,0.83-12.058c0.358-10.783,0.699-21.824,2.064-32.54c0.3-2.36,0.584-4.922,1.118-7.239    c0.866-3.766,2.629-5.531,5.189-8.121c3.378-3.419,5.737-7.846,8.702-11.651c4.176-5.359,8.419-10.695,12.659-16.041    c0.857-0.944,1.649-1.829,2.361-2.474c1.863-1.685,3.948-3.618,6.301-4.058c0.992,0.105,1.984,0.206,2.975,0.31    c0.284,0.116,0.571,0.251,0.864,0.424c1.716,1.015,2.509,2.773,3.984,3.607C268.19,333.787,273.02,339.846,277.766,345.936z     M278.465,417.511c-0.999-6.746-1.597-13.598-2.435-20.359c-0.623-5.034-2.378-8.628-5.888-12.445    c-1.642-1.786-3.254-3.639-4.89-5.466c-0.189-0.284-0.394-0.572-0.632-0.871c-1.837-2.313-3.437-4.913-5.551-6.985    c-2.596-2.543-7.224,2.802-8.897,4.431c-2.899,2.823-5.631,5.97-8.319,8.892c-3.509,3.817-5.264,7.411-5.888,12.445    c-0.837,6.761-1.436,13.613-2.435,20.359c-0.612,4.135-0.794,8.569,0.04,12.73c-0.5,0.13-0.988,0.288-1.468,0.465    c-1.224,0.061-2.486,0.214-3.705,0.153c-0.532-2.963-0.617-5.489-0.562-8.53c0.058-3.221-0.029-6.444-0.132-9.663    c-0.107-3.368,0.614-6.562,0.621-9.917c0.015-7.416-0.295-16.604,3.337-23.268c3.465-6.358,7.847-12.412,11.699-18.542    c1.75-2.784,3.763-5.386,5.672-8.06c1.793-2.51,2.895-5.511,5.219-7.594c0.564-0.505,1.36-0.984,2.036-0.641    c0.235,0.12,0.414,0.323,0.588,0.523c2.018,2.326,4.064,4.577,5.754,7.154c1.141,1.742,2.373,3.353,3.763,4.863    c2.775,3.015,4.5,7.266,6.757,10.685c2.507,3.799,5.008,7.611,7.187,11.611c3.632,6.664,3.321,15.852,3.337,23.268    c0.007,3.355,0.727,6.549,0.621,9.917c-0.102,3.206-0.188,6.416-0.133,9.624c0.036,1.971,0.853,4.588,0.396,6.644    c-0.06,0.268-0.141,0.527-0.249,0.773c-0.876,2.005-4.18,0.986-5.952,0.92C279.281,426.356,279.096,421.773,278.465,417.511z     M273.501,422.559c0.041,1.907-0.971,5.375-1.012,8.095c-0.224,0.008-0.447,0.002-0.67,0.002    c-1.615-0.337-3.253-0.585-4.995-0.606c-4.763-0.056-9.563,0.113-14.329,0.174c-3.983,0.051-8.618-0.685-13.047-0.658    c-0.226-2.503-0.986-5.346-0.951-7.007c0.063-2.939,0.701-5.805,1.01-8.721c0.429-4.044,0.189-8.053,0.871-12.074    c0.44-2.59,0.341-5.25,0.971-7.766c0.919-3.673,3.455-6.13,6.044-8.753c1.181-1.196,2.321-2.543,3.337-3.987    c1.839-1.81,3.843-3.381,6.006-4.795c1.587,2.282,2.818,5.081,5.176,6.654c2.124,1.417,3.565,3.431,5.25,5.295    c1.594,1.763,2.877,3.143,3.488,5.585c0.63,2.516,0.531,5.176,0.971,7.766c0.682,4.022,0.442,8.031,0.871,12.074    C272.8,416.754,273.437,419.62,273.501,422.559z M238.743,332.775c-0.259,0.308-0.518,0.616-0.778,0.926    c-2.336,2.784-4.714,5.632-7.042,8.306c-1.55,1.781-2.991,3.647-4.432,5.506c-0.029-0.007-0.051-0.027-0.081-0.033    c-7.36-1.31-15.048-1.026-22.5-1.152c-8.14-0.138-16.306-0.289-24.447-0.076c-1.769,0.046-3.523,0.197-5.277,0.334    c1.035-3.002-0.214-7.318-0.489-10.197c-0.397-4.146-0.51-8.489-1.207-12.615c12.748-0.012,25.497,0.174,38.246,0.224    c6.908,0.028,13.807-0.035,20.713-0.183c2.539-0.054,5.081-0.153,7.571-0.53c0.775-0.011,1.517,0.001,2.203,0.061    c1.515,0.132,3.016,0.383,4.515,0.544C243.167,326.712,241.166,329.894,238.743,332.775z M177.138,351.384    c5.4-0.347,10.882-0.205,16.291-0.236c10.051-0.056,20.616,0.826,30.63-0.543c-1.417,1.752-2.891,3.452-4.524,5.015    c-1.195,1.146-2.067,2.273-2.736,3.426c-3.736-0.899-7.646-0.434-11.454-0.145c-4.627,0.351-9.269-0.226-13.854-0.608    c-4.615-0.385-9.465,0.035-14.107,0.039c-2.862,0.001-11.28,1.442-12.278-1.295C162.878,350.933,173.952,351.588,177.138,351.384z     M206.775,415.565c-1.806,0.114-3.775-0.496-5.581-0.615c-9.154-0.599-18.452,0.33-27.623,0.579    c0.598-9.477,0.699-19.177,0.623-28.671c-0.038-4.691-0.123-9.382-0.154-14.072c-0.019-2.902,0.277-5.71,0.073-8.517    c3.834-0.034,7.68-0.17,11.464-0.193c6.603-0.04,13.138,0.972,19.768,0.597c2.918-0.165,6.486,0.584,9.474,0.115    c-0.264,1.362-0.479,2.818-0.747,4.424c-1.836,10.958-1.435,22.028-2.529,33.04c-0.416,4.185-0.715,8.408-1.045,12.61    C209.244,415.018,208.022,415.486,206.775,415.565z M210.085,420.286c-0.107,2.221-0.042,4.384-0.281,6.643    c-0.076,0.718-0.115,1.355-0.101,1.958c-2.962-0.444-6.043,0.145-9.165,0.341c-5.13,0.322-10.265,1.193-15.41,1.345    c-5.557,0.165-11.418-0.224-17.171-0.019c-0.147-0.709-0.424-1.434-0.713-2.494c-0.482-1.759-0.098-5.031-0.896-6.666    c1.647,0.105,4.086-0.492,5.648-0.531c1.862-0.046,3.727,0.018,5.588-0.012c7.066-0.11,14.1-0.585,21.183-0.618    c2.768-0.013,5.48,0.764,8.234,0.596C208.056,420.764,209.07,420.492,210.085,420.286z M167.482,436.219    c5.881,0.052,11.763,0.113,17.646,0.17c4.658,0.046,9.329-0.562,13.967-0.978c1.258-0.113,2.573-0.148,3.903-0.186    c7.713,1.198,15.53,1.349,23.307,1.678c5.482,0.232,10.793-0.665,16.16-1.216c4.438-0.456,8.909-0.143,13.345,0.149    c2.07,0.136,4.216,0.448,6.29,0.355c1.516-0.068,3.187-0.791,4.734-0.362c1.725,0.478,3.488,0.757,5.3,0.689    c4.567-0.172,9.061,0.576,13.559,0.385c7.777-0.328,15.594-0.481,23.307-1.678c1.33,0.038,2.646,0.073,3.903,0.186    c4.637,0.416,9.308,1.024,13.967,0.978c5.881-0.058,11.763-0.119,17.646-0.17c3.279-0.029,6.384,0.477,9.523,0.027    c-0.073,0.207-0.139,0.417-0.213,0.622c-0.978,2.677-2.882,5.393-2.943,8.281c-0.261,0.173-0.499,0.369-0.722,0.582    c-4.742-1.216-10.124-0.686-14.985-0.816c-7.736-0.205-15.464-0.02-23.206-0.052c-8.524-0.034-17.044,0.209-25.567,0.205    c-4.126-0.002-8.282-0.39-12.423-0.432c-3.378-0.562-6.884-0.217-10.355-0.166c-5.325,0.079-10.57,0.068-15.857-0.474    c-3.301-0.338-7.622-0.353-10.847,0.404c-0.154,0.036-0.452,0.136-0.807,0.268c-3.509,0.113-7.027,0.397-10.521,0.4    c-8.522,0.006-17.043-0.239-25.567-0.205c-7.742,0.032-15.47-0.153-23.206,0.052c-4.86,0.128-10.241-0.401-14.985,0.816    c-0.222-0.213-0.462-0.409-0.722-0.582c-0.061-2.888-1.965-5.604-2.943-8.281c-0.074-0.205-0.141-0.416-0.213-0.622    C161.098,436.698,164.203,436.191,167.482,436.219z M376.511,292.5c1.067-3.306,2.466-6.267,3.686-9.5    c0.416-1.105,0.618-2.929,1.175-4.358c0.718,2.154,1.088,4.944,1.651,6.646c0.934,2.828,1.739,5.65,2.448,8.54    c0.79,3.22,1.931,6.256,3.046,9.309c-1.967-0.207-3.976-0.162-5.66-0.14c-3.172,0.041-6.258-0.219-9.339-0.599    C375.263,299.59,375.548,295.48,376.511,292.5z M340.069,273.834c0.806-2.12,1.538-4.45,2.134-6.657    c0.162-0.598,0.274-1.272,0.369-1.973c0.109,0.517,0.221,1.013,0.349,1.444c1.032,3.474,2.038,6.94,2.997,10.437    c1.175,4.287,2.817,7.964,4.582,11.813c-3.783-0.838-8.158-0.183-11.85-0.311c-0.853-0.029-1.705-0.083-2.559-0.147    C337.511,283.617,338.271,278.556,340.069,273.834z M254.258,5.12c0.233-0.117,0.47-0.224,0.717-0.311    c1.294-0.453,2.087-0.071,3.013,0.631c3.508,4.515,8.817,10.781,6.958,15.768c-1.549,4.157-6.911,5.64-10.932,5.055    c-2.856-0.416-5.922-2.268-6.961-5.055C245.148,16.103,250.759,9.657,254.258,5.12z M246.928,70.884    c0.857-7.833,2.222-15.598,3.399-23.387c0.588-3.891,1.133-7.791,1.542-11.706c0.096-0.92,0.187-1.841,0.266-2.762    c0.095-1.115-0.115-1.763,0.814-2.213c1.892-0.916,4.766-0.197,6.719,0.115c1.026,6.606,1.493,13.334,2.527,19.961    c1.038,6.652,2.144,13.297,2.877,19.992c0.686,6.271,1.5,12.499,2.213,18.734c-0.991-0.003-1.978,0.011-2.914-0.039    c-1.508-0.08-3.028-0.212-4.537-0.106c-1.22,0.085-2.259,0.543-3.461,0.558c-2.904,0.038-5.893-0.604-8.745-0.451    c-0.934,0.049-1.922,0.035-2.914,0.039C245.427,83.385,246.241,77.156,246.928,70.884z M244.156,94.71    c0.019-0.181,0.041-0.362,0.06-0.543c0.933,0.208,1.89,0.357,2.959,0.377c0.837,0.016,1.714,0.067,2.601,0.101    c1.454,0.273,2.971,0.304,4.459,0.335c1.981,0.042,3.84,0.089,5.666-0.336c1.652,0.082,3.355-0.07,4.921-0.101    c1.07-0.02,2.027-0.169,2.959-0.377c0.019,0.181,0.041,0.362,0.06,0.543c0.235,2.3,0.204,5.04,0.464,7.713    c-1.242,0.011-2.543,0.11-4.047,0.126c-2.512,0.026-5.694-0.145-8.26,0.61c-2.567-0.756-5.748-0.585-8.26-0.61    c-1.503-0.015-2.804-0.115-4.047-0.126C243.952,99.749,243.922,97.01,244.156,94.71z M240.159,113.242    c0.474-1.019,0.933-2.208,1.285-3.461c0.639-0.914,1.099-1.95,1.441-3.055c0.396,0.026,0.794,0.065,1.198,0.146    c1.878,0.376,3.549,0.503,5.439,0.671c2.154,0.192,4.647,0.95,6.478,0.195c1.831,0.755,4.323-0.004,6.478-0.195    c1.889-0.168,3.561-0.295,5.439-0.671c0.403-0.081,0.8-0.12,1.196-0.146c0.343,1.104,0.802,2.14,1.441,3.055    c0.351,1.253,0.811,2.442,1.285,3.461c0.315,0.677,0.657,1.329,1.022,1.964c-3.114-0.061-6.251,0.168-9.393,0.403    c-2.854-0.425-5.67-0.368-8.744-0.08c-3.064,0.287-6.241-0.187-9.394-0.145c-2.071-0.13-4.138-0.22-6.194-0.179    C239.502,114.571,239.844,113.919,240.159,113.242z M228.403,123.313c0.669-1.359,2.313-2.152,4.03-2.864    c0.572-0.016,1.172-0.042,1.823-0.056c3.56-0.075,7.281,0.136,10.843,0.268c1.906,0.071,3.984,0.543,5.815,0.5    c0.977,0.089,1.936,0.138,2.848,0.15c1.737,0.023,3.385-0.492,5.117-0.581c1.285,0.564,2.874,0.483,4.52,0.293    c1.171,0.047,2.304-0.026,3.546-0.364c3.548-0.132,7.252-0.341,10.796-0.267c0.651,0.014,1.25,0.041,1.823,0.056    c1.717,0.711,3.361,1.506,4.03,2.864c2.515,5.114-3.93,5.426-7.239,5.527c-3.789,0.115-7.897,0.054-11.667-0.3    c-5.801-0.544-11.54-0.548-17.38,0c-3.77,0.354-7.878,0.415-11.667,0.3C232.334,128.739,225.888,128.425,228.403,123.313z     M203.669,231.975c-0.015-5.424,0.048-10.553,0.463-15.932c0.753-9.768,1.119-19.42,2.901-29.124    c1.812-9.867,4.882-20.713,9.053-29.769c2.144-4.652,4.05-9.265,6.901-13.563c1.903-2.869,3.703-6.398,5.958-9.239    c2.433,0.625,4.917,0.932,6.698,1.047c6.932,0.45,14.058-0.458,21.068-0.274c6.564,0.173,13.033,0.703,19.645,0.274    c1.781-0.115,4.264-0.422,6.698-1.047c2.255,2.841,4.055,6.37,5.958,9.239c2.851,4.298,4.758,8.91,6.901,13.563    c4.171,9.054,7.242,19.902,9.053,29.769c1.782,9.703,2.147,19.356,2.901,29.124c0.415,5.379,0.478,10.508,0.463,15.932    c-0.009,3.63-0.776,7.603,0.441,10.933c-3.605-0.014-7.06,0.377-10.632,0.397c-5.135,0.029-9.977-0.385-14.843,0.051    c1.262-6.772,0.919-14.414-0.039-21.056c-1.151-7.987-1.764-16.073-3.527-23.988c-1.775-7.968-3.902-15.457-7.704-22.716    c-1.4-2.673-2.897-6.524-5.336-8.937c-1.584-5.325-9.979-5.712-14.424-4.547c-3.3,0.865-9.186,4.431-9.774,8.471    c-0.96,1.739-1.755,3.553-2.52,5.014c-3.801,7.259-5.929,14.749-7.704,22.716c-1.763,7.914-2.375,16.001-3.527,23.988    c-0.957,6.637-1.3,14.27-0.041,21.038c-0.094,0-0.187,0-0.28,0c-4.771-0.396-9.525-0.002-14.561-0.032    c-3.572-0.02-7.028-0.411-10.632-0.397C204.445,239.578,203.678,235.605,203.669,231.975z M280.494,243.712    c-0.512,0.085-1.025,0.187-1.538,0.296c-2.365-0.076-4.662-0.699-7.018-0.841c-6.22-0.375-12.902-0.268-19.097,0.226    c-6.188,0.492-12.15-0.324-18.337-0.065c-0.953,0.04-1.943,0.041-2.952,0.033c1-6.066,0.175-12.312,0.933-18.414    c0.762-6.142,1.924-12.176,2.753-18.293c0.893-6.593,2.284-13.555,4.512-19.849c1.424-4.022,3.52-7.676,5.473-11.443    c1.623-3.129,2.555-5.63,5.895-7.223c1.095-0.523,2.232-1.005,3.435-1.159c2.838-0.362,5.82,1.185,8.232,2.485    c2.146,1.156,2.919,3.835,3.99,5.898c1.953,3.767,4.049,7.421,5.473,11.443c2.228,6.295,3.62,13.256,4.512,19.849    c0.829,6.117,1.99,12.151,2.753,18.293C280.285,231.166,279.402,237.537,280.494,243.712z M198.636,250.382    c1.436-0.451,2.851-0.933,4.267-1.417c2.305,0.242,4.789,0.237,6.604,0.539c4.289,0.713,8.54,0.31,12.862-0.008    c4.323-0.318,8.896,0.321,13.087-0.909c5.703,0.026,11.229,1.201,16.961,0.557c6.19-0.696,13.28-0.811,19.52-0.304    c2.466,0.2,5.181,0.65,7.698,0.358c3.292,0.366,6.713,0.058,9.992,0.299c4.323,0.318,8.573,0.723,12.862,0.008    c1.815-0.302,4.3-0.297,6.604-0.539c1.416,0.485,2.831,0.966,4.268,1.417c2.544,0.799,4.113,2.178,4,4.897    c-0.114,2.689-0.571,1.278-3.14,1.54c-5.626,0.576-11.42,0.527-17.076,1.2c-2.714,0.119-5.446,0.336-8.132,0.418    c-5.739,0.175-11.561-0.769-17.261-0.025c-1.904-0.005-3.824,0.072-5.74,0.066c-6.037-0.021-11.848-0.256-17.88-0.005    c-2.268,0.094-4.635,0.102-7.012,0.068c-2.939-0.478-5.915-0.469-8.898-0.355c-0.389-0.025-0.791-0.043-1.174-0.069    c-4.299-0.302-8.831-0.633-13.146,0.069c-1.017-0.06-2.033-0.122-3.048-0.167c-5.657-0.673-11.451-0.625-17.076-1.2    c-2.569-0.263-3.026,1.149-3.14-1.54C194.522,252.56,196.092,251.181,198.636,250.382z M188.658,269.602    c-1.616-0.776-1.471,0.71-1.292-1.355c0.102-1.175,0.676-1.818,1.689-2.38c1.774-0.984,5.405-1.048,7.309-1.345    c1.125-0.175,2.205-0.41,3.278-0.666c6.088,0.495,12.734,0.264,18.829-0.966c1.808,0.16,3.614,0.318,5.412,0.471    c2.528,0.214,5.168,0.106,7.797-0.04c2.349,0.155,4.742-0.085,7.088-0.013c3.126,0.095,6.238,0.757,9.362,0.686    c5.668-0.128,11.16,0.046,16.832,0.133c4.782,0.074,9.858,0.556,14.46-0.856c2.923,0.169,5.875,0.328,8.691,0.089    c1.798-0.152,3.605-0.311,5.412-0.471c6.095,1.231,12.741,1.46,18.829,0.966c1.072,0.257,2.153,0.491,3.278,0.666    c1.905,0.296,5.536,0.361,7.309,1.344c1.013,0.562,1.587,1.205,1.689,2.38c0.18,2.065,0.324,0.579-1.292,1.355    c-2.38,1.142-5.88,0.938-8.478,0.971c-5.533,0.068-11.079-0.079-16.616-0.066c-2.523,0.006-5.093-0.108-7.616,0.062    c-4.581-0.63-9.34-0.51-13.854-0.954c-7.964-0.785-16.328-0.105-24.335-0.072c-7.26,0.031-14.467,1.065-21.658,0.252    c-3.733-0.422-7.53,0.109-11.271,0.083c-3.553-0.025-5.894-0.388-9.294,0.642c-4.36,0.031-8.725,0.107-13.082,0.054    C194.538,270.539,191.038,270.744,188.658,269.602z M313.155,287.144c0.012,0.222,0.026,0.441,0.045,0.655    c-3.203-0.192-6.414-0.289-9.644-0.625c-5.804-0.603-11.392,0.737-17.126,0.577c-6.26-0.175-12.255,0.378-18.446,0.671    c-2.997,0.142-5.903-0.75-8.878-0.952c-3.14-0.213-6.283,0.102-9.422,0.176c-11.848,0.28-23.855,1.359-35.703,0.813    c-5.053-0.233-10.17-0.101-15.259,0.047c0.059-0.436,0.098-0.891,0.122-1.363c0.175-3.462,0.382-6.873-0.537-10.039    c3.271-0.062,6.502-0.302,9.375-0.308c4.679-0.011,14.018,1.712,18.832-1.106c9.4,0.448,18.969-0.315,28.229-0.281    c8.168,0.029,16.36-0.334,24.452,0.625c2.495,0.296,5.142,0.261,7.706,0.334c5.058,1.851,13.164,0.42,17.415,0.429    c2.872,0.006,6.103,0.247,9.375,0.308C312.773,280.271,312.98,283.681,313.155,287.144z M193.451,294.1    c0.134-0.018,0.257-0.045,0.385-0.067c6.944,0.283,13.995-0.106,20.862,0.445c5.546,0.445,11.399-0.28,17.046-0.209    c6.03,0.076,11.922-0.469,17.938-0.606c2.827-0.065,5.658-0.351,8.487-0.203c2.999,0.157,5.885,0.973,8.899,0.986    c6.151,0.025,12.239-0.853,18.468-0.693c6.577,0.169,12.848-0.885,19.45-0.116c3.768,0.438,7.621,0.33,11.418-0.136    c0.604,0.283,1.309,0.489,2.141,0.602c6.15,0.829,12.788,0.819,19.002,1.045c3.04,0.11,6.131-0.279,9.153,0.065    c0.28,0.032,1.581,0.145,2.442,0.311c-0.21,0.405-0.15,1.447-0.214,1.771c-0.341,1.737-0.543,3.744-0.188,5.518    c-7.221-0.197-14.502-0.544-21.698,0.043c-7.248,0.592-14.531-0.246-21.747,0.57c-7.5,0.847-16.003-1.013-23.273,1.167    c-11.97-0.011-23.99,0.074-35.967,0.043c-5.685-0.014-11.66,0.023-17.415-0.398c-2.539-0.586-5.204-0.753-7.91-0.758    c-3.601-0.301-7.293-0.4-10.835,0.158c-1.079-0.031-2.146-0.093-3.192-0.212c-7.216-0.816-14.5,0.022-21.747-0.57    c-7.196-0.588-14.477-0.241-21.698-0.043c0.356-1.773,0.153-3.781-0.188-5.518c-0.063-0.324-0.004-1.365-0.214-1.771    c0.862-0.167,2.161-0.28,2.442-0.311c3.022-0.343,6.113,0.046,9.153-0.065C180.663,294.92,187.301,294.93,193.451,294.1z     M166.08,277.085c0.958-3.496,1.965-6.962,2.997-10.437c0.128-0.431,0.24-0.927,0.349-1.444c0.095,0.702,0.208,1.375,0.369,1.973    c0.597,2.207,1.328,4.537,2.135,6.657c1.798,4.722,2.557,9.783,3.977,14.604c-0.853,0.063-1.706,0.117-2.559,0.147    c-3.694,0.128-8.067-0.527-11.85,0.311C163.261,285.048,164.904,281.372,166.08,277.085z M126.525,293.829    c0.709-2.89,1.515-5.711,2.449-8.54c0.563-1.702,0.932-4.492,1.651-6.646c0.558,1.429,0.759,3.253,1.175,4.358    c1.221,3.233,2.62,6.194,3.686,9.5c0.963,2.981,1.249,7.091,2.991,9.898c-3.08,0.381-6.167,0.639-9.339,0.599    c-1.684-0.021-3.693-0.066-5.66,0.14C124.595,300.085,125.736,297.049,126.525,293.829z M122.412,310.855    c0.159-0.101,0.559-0.39,1.201-0.393c1.534-0.006,3.069-0.315,4.625-0.304c5.754,0.039,11.343-0.572,17.043-1.356    c2.46-0.337,4.909-0.528,7.356-0.899c1.664-0.004,3.226-0.067,4.434-0.058c8.555,0.065,17.236-0.374,25.773,0.222    c8.427,0.588,16.877,0.31,25.264,1.176c4.743,0.49,10.743,0.903,16.126,0.357c0.579,0.055,1.154,0.116,1.718,0.188    c7.679,0.988,15.889,1.02,23.623,1.038c9.067,0.02,18.135,0.066,27.202,0.046c4.573-0.011,10.071,0.525,14.585-1.042    c4.349,0.13,8.823-0.204,12.531-0.588c8.387-0.866,16.837-0.588,25.264-1.176c8.537-0.596,17.217-0.157,25.773-0.222    c1.208-0.009,2.77,0.055,4.434,0.058c2.447,0.371,4.897,0.562,7.356,0.899c5.7,0.783,11.289,1.395,17.043,1.356    c1.555-0.011,3.09,0.297,4.625,0.304c0.642,0.002,1.042,0.291,1.201,0.393c0.543,1.871,0.319,5.499,0.402,7.209    c-4.763,0.099-9.547,0.056-14.326,0.316c-11.76,0.638-23.301,0.005-35.099-0.045c-13.485-0.055-26.97,0.125-40.456,0.139    c-6.872,0.007-13.774-0.139-20.637,0.27c-0.096,0.006-0.196,0.004-0.293,0.008c-0.221-0.15-0.502-0.239-0.85-0.215    c-1.095,0.074-2.222,0.125-3.352,0.17c-1.602-0.054-3.21-0.082-4.759,0.114c-2.912,0.012-5.826-0.075-8.595-0.284    c-0.699-0.053-1.375-0.113-2.046-0.172c-2.011-0.723-4.184-0.854-6.237-0.175c-0.169,0.012-0.329,0.006-0.501,0.021    c-0.033,0.002-0.087,0.011-0.135,0.016c-3.66-0.749-7.739-0.342-11.484-0.387c-3.705-0.043-7.344,0.294-10.935,0.561    c-1.925,0.143-3.902-0.078-5.761,0.088c-4.213-0.052-8.429-0.013-12.635-0.016c-13.485-0.014-26.97-0.195-40.456-0.139    c-11.799,0.049-23.339,0.682-35.099,0.045c-4.779-0.26-9.561-0.217-14.324-0.316C122.093,316.354,121.868,312.726,122.412,310.855    z M101.19,307.943c0.548-3.158,1.522-6.144,2.646-9.134c0.049-0.134,0.146-0.55,0.267-1.104c0.055,0.35,0.116,0.685,0.196,0.985    c0.764,2.869,2.442,4.976,3.589,7.709c1.005,2.393,1.342,5.085,2.482,7.41c0.274,0.559,0.69,1.093,1.134,1.616    c-3.414,0.4-6.824,0.896-10.04,1.819c-0.885,0.254-1.71,0.497-2.473,0.76C100.052,314.74,100.615,311.26,101.19,307.943z     M98.702,330.001c-0.15,0.035-0.276,0.066-0.403,0.098c0.344-1.401,0.367-3.214,1.313-4.347c1.537-1.843,4.731-2.06,7.142-2.363    c2.383-0.299,4.748-0.652,7.121-0.978c6.584,2.01,15.161,0.65,21.351,1.07c5.538,0.375,11.193,1.255,16.721,0.744    c5.284-0.489,10.629-0.472,15.951-0.457c-0.475,2.603-0.596,5.25-0.521,7.897c-2.118-0.475-4.055-0.117-6.281-0.085    c-2.983,0.043-6.009-0.276-8.986-0.112c-5.876,0.323-11.638,0.628-17.481,0.16c-6.278-0.503-12.86-0.401-19.149-0.557    c-0.328-0.008-0.665-0.023-1.008-0.042c-0.442-0.431-1.054-0.742-1.857-0.81C108.223,329.848,103.093,328.984,98.702,330.001z     M81.638,364.124c0.585-1.56,5.585-15.382,5.98-15.342c0.43,0.042,4.966,12.847,5.185,13.382c1.931,4.712,3.266,10,5.493,14.66    c-3.87,0.081-7.803-0.405-11.693-0.336c-2.579,0.046-6.739-0.207-10.618,0.196C78.395,372.798,80.069,368.307,81.638,364.124z     M71.621,384.788c0.653-1.048,4.176-0.603,5.15-0.709c3.358-0.366,6.451-0.568,9.835-0.618c3.538-0.052,6.738,0.214,10.233,0.475    c2.48,0.185,5.046-0.779,7.505-0.464c-0.069,0.417-0.127,0.82-0.167,1.206c-0.49,4.789-0.133,9.661,0.228,14.431    c0.395,5.236,0.443,10.904,0.045,16.15c-0.367,4.812-0.062,9.393-0.008,14.254c-0.07,0.471-0.012,0.9,0.15,1.28    c-0.742,0.19-1.481,0.405-2.214,0.67c-0.87-2.984-1.738-5.967-2.634-8.939c-0.675-2.237-1.334-4.574-3.943-5.028    c-1.08-0.188-2.373,0.109-2.916,1.187c-1.805,3.58-4.059,6.684-5.537,10.447c-0.255,0.651-0.515,1.299-0.772,1.946    c-4.726-0.963-9.835-0.663-14.725-0.494c1.9-4.409,0.812-10.339,1.275-14.817c0.806-7.79-0.476-16.116-1.041-23.916    C71.962,390.181,70.823,386.068,71.621,384.788z M39.384,416.925c1.636-3.199,2.716-5.648,3.85-9.107    c0.706-2.153,1.806-4.128,2.798-6.136c0.036-0.074,0.11-0.188,0.2-0.322c0.465,1.293,0.878,2.622,1.373,3.723    c1.58,3.514,3.33,6.945,4.802,10.505c1.907,4.611,3.315,9.607,5.446,14.095c-2.855,0.425-5.707,0.924-8.341,0.673    c-5.082-0.482-10.835-0.119-16.297,0.625C35.896,426.774,37.31,420.978,39.384,416.925z M75.559,461.435    c-0.378,1.454-0.552,2.988-0.485,4.497c0.012,0.262,0.031,0.524,0.058,0.784c0.163,1.612,0.093,3.136,0.106,4.796    c0.028,3.788,0.615,7.555,0.498,11.346c-0.035,1.137-0.134,2.16-0.127,3.122c-4.316-0.321-7.818,2.542-10.938,5.825    c2.362-6.325,5.255-13.187,0.291-17.553c-3.351-2.948-7.005-1.775-10.406,0.605c2.57-7.772,3.689-16.301-4.881-16.921    c-6.177-0.447-11.863,3.696-16.512,7.147c-1.95,1.447-4.238,3.212-6.29,5.199c-0.13-5.988,0.053-12.004-0.15-17.982    c-0.12-3.525-0.236-6.902,0.758-10.331c0.626-2.158,0.136-1.772,1.918-2.688c1.31-0.673,3.952-0.434,5.498-0.61    c9.078-1.037,19.235-0.107,28.308-2.453c2.08,0.059,4.16,0.065,6.22,0.099c4.923,0.085,10.167,0.558,15.106-0.086    c-0.849,2.156-1.677,4.319-2.449,6.513c-1.458,4.145-3.129,8.213-4.572,12.364C76.784,457.194,76.112,459.298,75.559,461.435z     M79.809,462.753c2.378-5.024,4.369-10.045,6.242-15.481c1.554-4.507,3.256-8.933,5.029-13.356    c1.254-3.13,2.801-5.968,4.333-8.863c0.811,2.603,1.819,6.302,1.947,6.751c1.441,5.036,2.703,9.942,4.591,14.861    c1.544,4.029,3.132,8.072,4.468,12.176c0.354,1.084,0.569,2.293,0.885,3.449c-0.51,0.032-0.999,0.056-1.446,0.052    c-5.088-0.046-9.952,0.347-15.001,0.577C87.499,463.072,83.08,461.988,79.809,462.753z M111.463,472.151    c0.058,2.722-0.502,5.391-0.606,8.099c-0.099,2.553-0.689,5.073-0.577,7.589c-0.227,0.071-0.455,0.141-0.69,0.241    c-2.472,1.049-4.492,3.694-5.523,6.086c-0.633,1.47-1.011,3.115-1.347,4.712c-0.649-0.75-1.297-1.454-1.96-1.973    c-1.952-1.53-4.53-2.952-7.096-2.973c-2.568-0.021-4.848,1.471-6.777,2.993c-1.415,1.117-2.724,2.862-4.07,4.533    c0.053-0.333,0.091-0.591,0.095-0.724c0.098-2.47,0.127-5.273-0.254-7.731c-0.289-1.866-1.081-3.769-2.443-5.109    c1.609-3.688,1.175-8.109,1.235-12.13c0.021-1.384-0.266-7.153-0.074-7.259c0.452-0.248,4.2,0.268,4.596,0.266    c1.913-0.013,3.954-0.003,5.861-0.148c3.717-0.28,7.271-0.686,11.014-0.599c1.574,0.036,3.145,0.056,4.719,0.061    c0.985,0.003,2.888-0.542,3.553,0.537C111.596,469.395,111.444,471.261,111.463,472.151z M114.028,462.921    c-0.101-0.176-0.222-0.346-0.384-0.497c-0.958-0.897-0.863-2.539-1.234-3.721c-0.751-2.392-1.897-4.658-2.727-7.022    c-1.852-5.272-4.359-10.357-5.97-15.714c2.061,0.323,6.012,0.749,6.926,0.793c3.634,0.179,7.021,0.2,10.641,0.2    c3.969,0,10.541,2.01,14.507,0.224c-0.049,0.115-0.096,0.229-0.147,0.344c-1.265,2.932-2.966,6.253-2.824,9.469    c0.025,0.554,0.362,1.01,0.803,1.281c-0.128,0.351-0.242,0.724-0.326,1.139c-0.579,2.883,0.255,5.956-0.013,8.877    c-0.31,3.382-0.185,6.658-0.436,10.026c-0.013,0.168,0.016,0.327,0.073,0.476c-2.756,0.158-5.51,0.351-8.206,0.534    c-2.32,0.156-5.323,0.058-7.921,0.632c-0.096-2.302-0.442-4.666-1.624-6.106C114.836,463.461,114.449,463.16,114.028,462.921z     M142.972,482.663c-0.103,0.933-0.311,2.212-0.384,3.418c-0.987-0.729-2.467-1.497-3.01-1.839    c-4.363-2.753-10.386-4.183-14.839-0.705c-3.173,2.479-3.112,5.773-3.127,9.197c-0.961-0.538-1.845-1.196-2.727-1.856    c-0.692-0.517-1.904-1.111-2.253-1.872c-0.776-1.697-0.005-4.839,0.08-6.651c0.122-2.617,0.132-5.304,0.105-7.927    c2.297,0.291,4.839-0.148,7.038-0.281c5.653-0.341,11.503-0.578,17.164-0.678c1.86-0.033,3.587,0.624,5.391,0.658    c0.107,0.002,0.214-0.014,0.321-0.015C144.225,475.897,143.353,479.228,142.972,482.663z M141.83,468.494    c-2.005,0.005-4.043,0.075-6.086,0.168c0.313-1.305,1.158-2.586,1.323-3.998c0.297-2.546,0.954-5.47,1.028-8.025    c0.066-2.269-1.186-4.628,0.421-6.498c1.704-1.982,6.536-0.659,9.194-0.903c1.952-0.179,7.259-1.577,9.213-0.44    c2.251,1.31,0.758,4.299,1.055,6.701c0.381,3.071,0.397,6.146,0.209,9.247c-0.076,1.265-0.335,2.461-0.474,3.666    c-0.322,0.019-0.648,0.031-0.966,0.056C151.691,468.877,146.818,468.482,141.83,468.494z M157.392,474.851    c-0.77-0.487-1.544-0.906-2.336-1.243c2.557,0.063,5.205,0.161,7.744,0.042c-0.121,0.539-0.221,1.086-0.259,1.662    c-0.012,0.173,0.348,3.43,0.328,4.294C162.64,478.608,158.162,475.338,157.392,474.851z M347.553,468.573    c-0.638-1.714-1.414-3.405-2.647-4.694c-2.527-2.643-7.769-5.218-11.353-3.405c-1.632,0.825-2.977,2.566-4.097,4.598    c-0.738-1.548-1.604-3.026-2.648-4.393c-2.3-3.016-5.223-5.147-9.023-5.631c-4.258-0.543-7.048,0.682-9.248,4.319    c-0.981,1.622-1.755,3.347-2.293,5.162c-0.023,0.076-0.044,0.168-0.063,0.268c-2.569-4.466-6.49-8.617-10.656-8.998    c-3.138-0.287-5.715,1.517-6.906,4.345c-0.422,1-0.626,2.177-0.777,3.344c-2.456-3.06-5.392-5.651-9.406-5.355    c-3.887,0.287-4.948,3.005-5.239,6.11c-2.141-1.268-4.414-2.116-6.481-1.853c-2.193-2.58-6.996-3.775-10.14-3.499    c-3.252,0.287-5.658,0.879-7.91,3.279c-0.497,0.53-0.604,0.816-0.966,1.151c-2.593-1.835-5.878-0.866-8.897,0.923    c-0.292-3.105-1.352-5.823-5.239-6.11c-4.014-0.296-6.949,2.294-9.406,5.355c-0.15-1.166-0.355-2.342-0.777-3.344    c-1.191-2.828-3.768-4.632-6.907-4.345c-4.166,0.381-8.087,4.532-10.656,8.998c-0.02-0.1-0.041-0.19-0.063-0.268    c-0.538-1.815-1.312-3.54-2.293-5.162c-2.2-3.638-4.99-4.863-9.248-4.319c-3.799,0.485-6.721,2.615-9.023,5.631    c-1.042,1.368-1.91,2.845-2.648,4.393c-1.12-2.032-2.465-3.771-4.097-4.598c-3.585-1.813-8.826,0.762-11.353,3.405    c-1.233,1.289-2.009,2.981-2.647,4.694c-0.511-0.058-1.027-0.098-1.543-0.134c0.067-2.876,0.537-5.865,0.441-8.741    c-0.075-2.279-0.731-4.743-0.617-6.994c0.047-0.947,0.368-1.848,0.508-2.775c4.833,0.477,9.537,0.32,14.637,0.257    c7.762-0.095,15.521,0.132,23.287,0.121c8.147-0.011,16.293,0.005,24.438-0.224c5.276-0.148,10.95-0.123,16.234-1.184    c3.14,0.308,6.289,0.558,9.403,0.82c6.822,0.575,15.581,1.424,22.731-0.249c4.146,0.472,8.409,0.5,12.442,0.612    c8.145,0.228,16.291,0.213,24.438,0.224c7.766,0.011,15.526-0.216,23.287-0.121c5.098,0.062,9.803,0.22,14.637-0.257    c0.14,0.927,0.461,1.826,0.508,2.775c0.114,2.251-0.542,4.714-0.617,6.994c-0.095,2.876,0.374,5.865,0.441,8.741    C348.58,468.475,348.066,468.515,347.553,468.573z M354.606,474.851c-0.77,0.487-5.248,3.757-5.477,4.755    c-0.02-0.864,0.34-4.122,0.328-4.294c-0.038-0.576-0.138-1.124-0.259-1.662c2.539,0.119,5.187,0.021,7.744-0.042    C356.15,473.945,355.376,474.364,354.606,474.851z M355.249,468.469c-0.318-0.026-0.644-0.038-0.966-0.056    c-0.139-1.205-0.397-2.401-0.474-3.666c-0.188-3.103-0.172-6.176,0.209-9.247c0.297-2.402-1.195-5.391,1.055-6.701    c1.955-1.138,7.261,0.26,9.213,0.44c2.658,0.243,7.49-1.079,9.194,0.903c1.608,1.87,0.355,4.229,0.421,6.498    c0.074,2.555,0.731,5.479,1.028,8.025c0.166,1.413,1.011,2.694,1.323,3.998c-2.043-0.092-4.081-0.162-6.086-0.168    C365.18,468.482,360.306,468.877,355.249,468.469z M395.514,488.603c-0.043,0.147-0.095,0.288-0.156,0.421    c-0.346,0.747-1.569,1.348-2.248,1.856c-0.88,0.658-1.764,1.316-2.725,1.855c-0.015-3.424,0.046-6.718-3.127-9.197    c-4.452-3.478-10.475-2.047-14.838,0.705c-0.542,0.342-2.023,1.111-3.01,1.839c-0.073-1.206-0.281-2.485-0.384-3.418    c-0.381-3.435-1.253-6.766-3.76-8.55c0.107,0.001,0.214,0.016,0.321,0.015c1.804-0.034,3.531-0.691,5.39-0.658    c5.661,0.1,11.511,0.337,17.164,0.678c2.2,0.133,4.742,0.572,7.038,0.281c-0.027,2.622-0.018,5.31,0.105,7.927    C395.363,484.044,396.035,486.833,395.514,488.603z M398.355,462.424c-0.162,0.152-0.283,0.32-0.384,0.497    c-0.422,0.24-0.809,0.541-1.134,0.938c-1.183,1.44-1.528,3.803-1.624,6.106c-2.597-0.575-5.601-0.476-7.921-0.632    c-2.696-0.182-5.45-0.376-8.206-0.534c0.055-0.149,0.085-0.309,0.073-0.476c-0.251-3.37-0.126-6.645-0.436-10.026    c-0.268-2.919,0.565-5.993-0.013-8.877c-0.083-0.415-0.196-0.787-0.326-1.139c0.441-0.271,0.778-0.726,0.803-1.281    c0.142-3.217-1.56-6.537-2.824-9.469c-0.049-0.115-0.098-0.23-0.146-0.344c3.964,1.784,10.536-0.224,14.507-0.224    c3.62,0,7.007-0.021,10.641-0.2c0.913-0.045,4.865-0.47,6.926-0.793c-1.61,5.357-4.118,10.441-5.97,15.714    c-0.83,2.365-1.976,4.632-2.727,7.022C399.217,459.885,399.313,461.527,398.355,462.424z M429.338,493.003    c-0.381,2.459-0.351,5.262-0.254,7.731c0.005,0.133,0.042,0.391,0.095,0.724c-1.346-1.672-2.655-3.417-4.07-4.533    c-1.929-1.522-4.209-3.015-6.777-2.993c-2.567,0.021-5.144,1.444-7.096,2.973c-0.663,0.519-1.312,1.225-1.96,1.973    c-0.336-1.597-0.712-3.241-1.346-4.712c-1.032-2.392-3.052-5.037-5.523-6.086c-0.235-0.1-0.462-0.17-0.689-0.241    c0.112-2.517-0.478-5.037-0.577-7.589c-0.083-2.181-0.479-4.343-0.579-6.526c-0.062-1.362-0.227-2.901,0.374-4.176    c0.797-1.692,1.905-1.47,3.494-1.463c1.574-0.005,3.145-0.025,4.719-0.061c3.742-0.087,7.296,0.32,11.014,0.599    c1.907,0.143,3.948,0.135,5.861,0.148c0.396,0.002,4.144-0.514,4.597-0.266c0.193,0.106-0.094,5.874-0.074,7.259    c0.061,4.021-0.373,8.442,1.235,12.13C430.419,489.234,429.627,491.136,429.338,493.003z M421.142,462.921    c-5.049-0.229-9.915-0.623-15.001-0.577c-0.448,0.003-0.937-0.02-1.446-0.052c0.316-1.158,0.531-2.367,0.885-3.449    c1.336-4.103,2.923-8.146,4.468-12.176c1.886-4.92,3.15-9.825,4.591-14.861c0.128-0.449,1.136-4.148,1.947-6.751    c1.533,2.895,3.079,5.733,4.333,8.863c1.774,4.423,3.475,8.849,5.029,13.356c1.873,5.435,3.863,10.456,6.241,15.481    C428.918,461.988,424.499,463.072,421.142,462.921z M485.278,452.3c-0.203,5.977-0.02,11.995-0.15,17.982    c-2.052-1.987-4.339-3.751-6.29-5.199c-4.649-3.449-10.334-7.594-16.512-7.147c-8.571,0.619-7.451,9.148-4.881,16.921    c-3.401-2.38-7.055-3.552-10.406-0.605c-4.964,4.367-2.072,11.228,0.29,17.553c-3.12-3.283-6.623-6.146-10.938-5.825    c0.006-0.963-0.093-1.985-0.127-3.122c-0.147-4.787,0.863-9.85,0.356-14.596c-0.019-0.17-0.045-0.328-0.069-0.489    c0.564-0.37,0.97-1.059,0.849-1.818c-1.246-7.825-4.859-15.763-7.48-23.211c-0.772-2.194-1.601-4.358-2.449-6.513    c4.939,0.643,10.183,0.169,15.106,0.086c2.059-0.035,4.139-0.04,6.22-0.099c9.073,2.347,19.231,1.416,28.308,2.453    c1.546,0.176,4.188-0.063,5.498,0.61c1.782,0.916,1.292,0.531,1.918,2.688C485.514,445.397,485.398,448.775,485.278,452.3z"/>
	</g>
</g>
<g>
</g>
<g>
</g>
<g>
</g>
<g>
</g>
<g>
</g>
<g>
</g>
<g>
</g>
<g>
</g>
<g>
</g>
<g>
</g>
<g>
</g>
<g>
</g>
<g>
</g>
<g>
</g>
<g>
</g>
</svg>
