<?xml version="1.0" encoding="iso-8859-1"?>
<!-- Generator: Adobe Illustrator 19.0.0, SVG Export Plug-In . SVG Version: 6.00 Build 0)  -->
<svg xmlns="http://www.w3.org/2000/svg" xmlns:xlink="http://www.w3.org/1999/xlink" version="1.1" id="Layer_1" x="0px" y="0px" viewBox="0 0 511.995 511.995" style="enable-background:new 0 0 511.995 511.995;" xml:space="preserve">
<g>
	<g>
		<path d="M38.482,384.239c-0.374-6.513-0.22-13.026-1.027-19.518c-0.553-4.448,0.548-19.674-7.502-17.535    c-4.03,1.072-6.305,4.656-7.206,8.482c-1.094,4.646-1.789,10.049-1.615,14.843c0.009,0.256,0.029,0.507,0.04,0.761    c-0.626,8.029,0.287,16.365,1.301,24.299c0.347,2.711,0.12,5.159,2.817,6.383c3.308,1.501,9.641,1.174,12.586-0.731    c0.922-0.596,1.108-1.747,0.791-2.661C39.915,393.997,38.749,388.889,38.482,384.239z M26.82,397.19    c-0.21-0.346-0.373-0.79-0.504-1.291c0.952-5.067-0.858-11.79-1.309-16.582c-0.328-3.492-0.727-7.278-0.568-10.79    c0.196-4.281,0.741-11.796,3.132-15.19c5.454-7.742,5.66,3.826,5.87,7.636c0.241,4.348,0.729,8.658,0.85,13.015    c0.221,7.938,0.658,15.847,0.762,23.769C32.146,398.504,27.682,398.61,26.82,397.19z"/>
	</g>
</g>
<g>
	<g>
		<path d="M66.942,358.349c-0.321-6.705-3.031-19.72-12.564-15.812c-9,3.688-9.949,16.216-9.903,24.36    c0.024,4.17,0.082,8.297,0.252,12.428c-1.351,4.785-0.101,10.655,0.086,15.464c0.074,1.9-0.134,4.112,1.11,5.709    c0.744,0.956,2.661,1.577,2.631,1.567c2.666,0.961,14.759,2.114,17.615-1.355c0.618-0.356,1.064-0.997,1.058-1.928    C67.139,385.328,67.583,371.751,66.942,358.349z M62.817,368.262c-0.684,9.801-0.241,19.631-0.268,29.456    c-1.976,1.119-4.628,0.785-6.929,0.823c-2.442,0.04-5.617,0.772-6.624-1.601c-1.011-2.384-0.465-6.406-0.762-9.011    c-0.047-0.413-0.091-0.831-0.136-1.251c-0.107-3.361-0.246-6.725-0.288-10.113c-0.109-8.809-1.532-20.542,4.519-27.747    C62.837,336.312,63.2,362.775,62.817,368.262z"/>
	</g>
</g>
<g>
	<g>
		<path d="M101.478,348.13c-0.664-8.997-7.329-16.032-16.666-12.436c-10.311,3.971-11.338,17.762-11.308,27.185    c0.006,2.056,0.074,4.107,0.156,6.157c-0.105,0.2-0.166,0.43-0.119,0.704c0.621,3.582-0.208,8.113-0.218,11.801    c-0.009,3.314,0.143,6.633,0.255,9.943c0.146,4.339-0.218,9.485,4.643,11.051c3.849,1.24,26.586,3.432,24.065-4.869    c0.274-0.352,0.453-0.81,0.47-1.38C103.26,380.423,102.648,363.957,101.478,348.13z M97.598,398.429    c-0.484,0.369-3.368,0.217-4.335,0.317c-3.699,0.38-13.722,1.772-15.299-2.537c-0.293-0.801-0.484-1.737-0.625-2.731    c0.48-6.266,0.121-12.785-0.156-18.91c-0.43-9.533-1.783-20.925,2.846-29.695c3.768-7.141,14.638-9.838,16.965-0.026    c1.125,4.746,0.598,10.165,0.662,15.011c0.163,12.144,0.061,24.298,0.48,36.429c0.009,0.238,0.052,0.45,0.112,0.651    C97.919,397.667,97.659,398.382,97.598,398.429z"/>
	</g>
</g>
<g>
	<g>
		<path d="M162.66,351.54c-0.444-8.836-2.408-20-13.299-20.354c-11.066-0.359-15.385,9.866-17.001,19.03    c-0.302,1.709-0.553,3.444-0.777,5.189c-0.082,0.46-0.134,0.93-0.162,1.402c-0.789,6.778-1.017,13.744-0.616,20.587    c-0.242,5.731-1.13,12.004,5.828,13.032c3.687,0.545,7.817,0.625,11.545,0.512c2.75-0.085,8.18,0.502,10.594-0.74    c3.547-1.825,3.654-6.963,3.202-11.513c0.393-2.836,0.347-5.858,0.407-8.474C162.524,363.941,162.974,357.811,162.66,351.54z     M158.948,358.368c-0.265,6.059-0.703,12.1-0.935,18.152c-0.051,0.216-0.11,0.424-0.151,0.648    c-0.378,2.015,0.531,7.668-0.973,8.951c-0.787,0.671-6.594,0.484-7.774,0.55c-2.784,0.153-5.51-0.032-8.28-0.233    c-3.431-0.25-5.456,0.231-6.239-3.682c-0.65-3.254-0.287-6.985-0.338-10.276c-0.049-3.104-0.061-6.216-0.217-9.318    c0.035-0.862,0.072-1.724,0.14-2.584c0.679-8.689,1.877-23.874,12.891-25.667C159.276,332.921,159.305,350.21,158.948,358.368z"/>
	</g>
</g>
<g>
	<g>
		<path d="M199.905,338.794c-5.964-13.133-21.101-5.616-25.518,4.784c-2.893,6.813-3.227,13.802-3.788,21.073    c-0.188,2.433-0.19,4.806-0.125,7.187c-0.779,5.501-1.787,11.73-0.455,16.703c0.182,0.677,0.769,1.318,1.47,1.47    c3.27,0.709,7.104-0.06,10.503-0.059c3.875,0.003,7.745-0.304,11.607-0.318c7.576-0.026,8.397-0.25,8.61-7.952    C202.59,367.923,205.805,351.789,199.905,338.794z M197.825,384.688c-0.883,1.469-0.415,0.346-2.16,0.536    c-1.086,0.119-2.943-0.057-3.872-0.046c-2.628,0.034-5.198,0.487-7.829,0.59c-1.808,0.071-7.589,0.858-9.963,0.328    c0.054-0.166-0.258-0.761-0.233-1.59c0.015-0.507-0.051-1.056-0.135-1.616c0.333-10.989-1.039-22.33,2.263-32.982    c1.291-4.166,3.059-8.013,6.352-10.956c4.19-3.746,10.539-5.551,13.64,0.477c2.16,4.198,3.295,10.03,3.409,14.649    c0.172,6.982-0.661,13.988-1.019,20.949C198.159,377.315,198.988,382.754,197.825,384.688z"/>
	</g>
</g>
<g>
	<g>
		<path d="M511.975,319.703c-0.482-9.549-9.661-11.993-18.728-13.632c-2.433-0.896-4.857-1.8-7.343-2.626    c-9.348-3.107-18.661-6.487-27.951-9.817c-8.901-3.19-17.981-6.537-27.123-8.931c-7.877-2.062-15.534-6.025-23.685-6.654    c-9.638-0.744-19.273-1.042-28.917-1.175c1.21-3.551,1.538-8.079,1.726-11.52c0.011-0.196-0.001-0.396,0-0.594    c0.663,0.389,5.838-0.382,5.893-0.394c3.154-0.719,5.297-1.703,8.13-3.491c4.189-2.641,7.743-6.065,6.714-11.484    c-0.932-4.903-6.019-6.763-10.1-8.405c-3.167-1.275-6.32-2.621-9.495-3.908c2.125-6.517,1.32-14.249,0.358-20.84    c-1.033-7.081-2.673-13.838-4.777-20.545c0.046-0.166,0.036-0.354-0.061-0.543c-0.064-0.123-0.146-0.235-0.215-0.353    c-0.762-2.381-1.582-4.756-2.457-7.139c-5.381-14.661-14.206-29.603-24.985-40.92c-13.702-14.387-28.309-25.37-45.189-35.752    c-7.158-4.403-15.065-6.846-22.563-10.501c-3.504-1.707-7.388-3.255-10.462-5.69c-1.771-1.401-2.734-3.305-4.011-4.998    c2.223-1.23,4.117-3.044,5.688-5.633c4.93-8.123,1.059-19.448-6.998-23.669c-0.212-2.278-0.875-5.26-0.646-7.161    c0.415-3.464,4.206-4.569,6.639-6.325c4.731-3.414,7.524-8.355,7.868-14.231c0.235-4.008-0.84-8.906-3.062-12.275    c-1.998-3.029-5.187-7.54-9.003-8.175c-1.404-0.235-3.233,1.305-2.13,2.771c5.457,7.25,0.848,22.98-9.984,18.894    c-7.327-2.764-8.803-11.443-6.273-18.017c0.545-1.416-1.041-2.599-2.307-2.307c-8.715,2.009-14.446,15.566-10.652,23.411    c1.903,3.933,6.174,8.222,10.184,10.009c3.149,1.404,4.711,0.963,4.585,4.721c-0.097,2.901,0.371,5.469,0.802,8.239    c-2.172,0.918-4.124,2.348-5.647,4.349c-1.676,2.201-2.462,5.083-3.53,7.621c-0.373,0.682-0.726,1.385-1.043,2.126    c-2.137,4.998-0.418,9.358,2.69,13.465c0.499,0.66,1.088,1.215,1.732,1.698c-1.482,1.804-2.453,3.948-4.396,5.485    c-3.076,2.436-6.958,3.983-10.462,5.69c-7.497,3.653-15.404,6.098-22.562,10.501c-16.88,10.382-31.486,21.364-45.189,35.752    c-10.779,11.318-19.604,26.259-24.985,40.92c-0.875,2.383-1.694,4.759-2.457,7.139c-0.07,0.12-0.152,0.23-0.215,0.353    c-0.097,0.188-0.107,0.376-0.061,0.543c-2.104,6.706-3.744,13.464-4.777,20.545c-0.962,6.592-1.767,14.324,0.358,20.84    c-3.175,1.286-6.328,2.634-9.495,3.908c-4.08,1.642-9.168,3.501-10.1,8.405c-1.029,5.419,2.524,8.843,6.714,11.484    c2.834,1.787,4.975,2.771,8.13,3.491c0.055,0.013,5.232,0.784,5.893,0.394c0.003,0.198-0.01,0.398,0.001,0.594    c0.187,3.441,0.515,7.969,1.726,11.52c-9.644,0.134-19.277,0.432-28.916,1.175c-8.151,0.629-15.81,4.592-23.686,6.654    c-9.142,2.394-18.221,5.741-27.123,8.931c-9.292,3.33-18.605,6.71-27.951,9.817c-2.485,0.826-4.91,1.731-7.343,2.626    c-9.067,1.639-18.246,4.085-18.728,13.632c-0.379,7.515,4.683,9.212,11.025,8.633c-0.475,4.024-0.322,8.075-0.551,12.15    c-0.303,5.393-1.009,10.519-1.043,15.949c-0.07,11.154,0.499,22.123,0.453,33.27c-0.046,11.135,1.152,22.287,1.043,33.429    c-0.064,6.548,0.122,13.176,0.8,19.729c-0.509,3.405-0.495,6.975,0.367,10.075c-2.453-0.482-4.834-0.176-6.734,1.953    c-3.364,3.767-4.167,14.114-1.115,18.119c1.975,2.593,5.021,3.346,8.066,4.02c4.51,0.996,8.886,2.428,13.379,3.516    c9.413,2.28,18.79,4.801,28.198,7.092c16.601,4.041,33.2,9.169,50.137,11.387c10.344,1.354,21.468,0.248,31.935,0.243    c10.346-0.005,20.551-0.069,30.848-0.615c9.802-0.52,19.74-1.239,29.505-1.516c2.507-0.071,4.936,0.304,7.444,0.056    c2.679-0.265,5.267-1.043,7.965-1.104c3.032-0.07,5.504-0.11,7.899-0.958c3.084-0.004,6.115-0.041,9.34-0.58    c3.073-0.514,5.26-0.841,6.512-3.961c3.024,0.507,6.406,0.16,9.302,0.198c5.208,0.071,10.331,0.485,15.561,0.111    c1.566-0.112,11.681-0.051,15.553-2.313c0.145,0.626,0.303,1.223,0.488,1.731c1.23,3.384,3.459,3.707,6.622,4.236    c3.225,0.539,6.256,0.576,9.34,0.58c2.396,0.847,4.866,0.888,7.899,0.958c2.699,0.061,5.286,0.84,7.965,1.104    c2.508,0.247,4.936-0.127,7.443-0.056c9.765,0.277,19.703,0.996,29.505,1.516c10.297,0.547,20.501,0.61,30.848,0.615    c10.467,0.005,21.593,1.111,31.936-0.243c16.936-2.217,33.536-7.345,50.137-11.387c9.408-2.291,18.785-4.812,28.198-7.092    c4.494-1.088,8.869-2.52,13.379-3.516c3.046-0.674,6.091-1.427,8.066-4.02c3.052-4.005,2.248-14.354-1.114-18.119    c-1.9-2.129-4.281-2.434-6.734-1.953c0.862-3.101,0.876-6.67,0.367-10.075c0.677-6.553,0.863-13.181,0.8-19.729    c-0.109-11.142,1.088-22.294,1.043-33.429c-0.046-11.148,0.523-22.116,0.453-33.27c-0.034-5.431-0.74-10.557-1.043-15.949    c-0.23-4.075-0.076-8.126-0.55-12.15C507.291,328.914,512.354,327.219,511.975,319.703z M376.761,235.373    c-2.935-1.098-5.905-2.09-8.944-2.865c-6.703-1.708-13.488-4.021-20.301-5.551c1.339-4.091,0.123-9.338-0.368-13.318    c-0.121-0.977-0.242-1.949-0.363-2.922c4.489,1.467,8.945,3.079,13.389,4.938c3.726,1.558,7.356,3.077,10.931,4.94    c1.597,0.832,3.162,1.708,4.831,2.277C376.275,227.03,376.451,231.193,376.761,235.373z M374.574,212.456    c0.347,1.737,0.611,3.474,0.833,5.21c-4.786-3.706-10.986-5.778-16.445-8.148c-4.211-1.827-8.548-3.399-12.946-4.801    c-0.448-3.34-0.937-6.674-1.526-10.017c-0.816-4.634-1.771-9.344-2.915-14.016c3.414,1.288,6.776,2.66,10.035,4.142    c4.509,2.05,8.972,4.06,13.405,6.225c1.218,0.595,2.619,1.088,4.036,1.608C371.532,199.061,373.266,205.903,374.574,212.456z     M200.402,221.617c-1.681,0.216-3.364,0.424-5.056,0.603c-8.736,0.921-17.175,2.422-25.864,3.764    c-0.55,0.085-1.099,0.196-1.648,0.294c0.679-4.303,0.475-9.095,0.981-13.327c0.14-1.175,0.288-2.347,0.438-3.517    c5.353-1.641,10.764-3.111,16.281-4.544c4.523-1.175,9.184-2.072,13.88-2.827c-0.018,1.072-0.034,2.144-0.031,3.22    C199.392,210.622,198.73,216.451,200.402,221.617z M199.924,189.01c-0.136,2.595-0.266,5.175-0.366,7.758    c-4.825,0.796-9.629,1.721-14.327,2.796c-5.059,1.158-10.144,2.433-15.171,3.904c0.422-2.908,0.883-5.811,1.407-8.716    c0.942-5.232,2.095-10.513,3.506-15.725c4.691-1.646,9.44-3.138,14.124-4.505c4.17-1.218,8.35-2.282,12.544-3.264    C200.801,177.116,200.238,183.018,199.924,189.01z M185.766,170.628c-3.102,0.994-6.195,2.066-9.278,3.174    c1.194-3.853,2.542-7.643,4.08-11.315c2.704-6.453,5.754-12.901,9.391-18.959c5.346-1.723,10.732-3.338,16.23-4.626    c1.15-0.27,2.311-0.525,3.476-0.771c-1.707,4.857-3.147,9.821-4.412,14.812c-1.083,4.275-1.986,8.548-2.737,12.836    C196.707,167.245,191.064,168.928,185.766,170.628z M203.012,208.728c0.005-2.401-0.014-4.809-0.004-7.217    c4.512-0.658,9.031-1.21,13.468-1.752c4.674-0.57,9.201-1.092,13.902-1.412c0.226-0.015,0.45-0.022,0.676-0.035    c-0.09,6.876-0.034,13.755,0.168,20.626c-0.086,0.178-0.142,0.366-0.181,0.555c-1.817,0.055-3.711,0.131-5.637,0.26    c-1.895-0.039-3.791-0.067-5.691-0.037c-5.672,0.09-11.261,0.843-16.878,1.585c-0.061-0.228-0.206-0.443-0.48-0.601    C202.767,220.938,203.009,209.821,203.012,208.728z M231.13,193.35c-5.083,0.095-10.128,0.714-15.49,1.263    c-4.152,0.425-8.345,0.979-12.533,1.611c0.052-1.351,0.128-2.701,0.242-4.049c0.619-7.328,1.188-14.589,2.212-21.806    c4.327-0.945,8.674-1.804,13.068-2.569c1.709-0.297,3.421-0.527,5.134-0.729c2.947,0.206,5.947,0.222,8.956,0.151    C231.86,175.908,231.347,184.623,231.13,193.35z M206.459,164.826c0.415-2.312,0.875-4.622,1.429-6.926    c1.646-6.849,3.464-13.846,5.885-20.575c6.255-1.149,12.632-1.945,18.877-2.303c0.725-0.041,1.455-0.077,2.182-0.115    c0.828,0.074,1.664,0.125,2.503,0.162c-0.951,5.583-1.854,11.174-2.706,16.76c-0.482,3.157-0.902,6.32-1.278,9.488    C224.449,161.377,215.302,162.788,206.459,164.826z M274.487,161.401c-8.557-0.679-17.105,0.336-25.828,0.502    c-1.487,0.029-2.987,0.054-4.493,0.08c-2.298-0.309-4.628-0.509-6.981-0.601c0.309-3.384,0.676-6.77,1.122-10.161    c0.705-5.37,1.513-10.725,2.372-16.073c3.782,0.017,7.571-0.16,11.157-0.116c6.454,0.077,12.981,0.328,19.428-0.187    c0.877,5.449,1.701,10.905,2.419,16.376c0.445,3.391,0.812,6.778,1.122,10.161C274.698,161.386,274.593,161.397,274.487,161.401z     M275.195,166.106c0.68,8.982,0.978,17.948,1.142,26.93c-7.475-0.507-15.218,0.055-22.273,0.107    c-5.366,0.041-10.695,0.296-16.027,0.46c-0.802-0.077-1.601-0.141-2.394-0.183c0.156-8.784,0.448-17.551,1.087-26.334    c4.374-0.177,8.721-0.419,12.901-0.374c4.986,0.054,9.963-0.54,14.958-0.695C268.052,166.386,271.719,166.045,275.195,166.106z     M235.568,198.186c2.454-0.044,4.888-0.129,7.356-0.639c0.284-0.059,0.5-0.206,0.685-0.384c3.477-0.075,6.957-0.146,10.455-0.119    c4.72,0.036,9.481-0.069,14.219,0.022c0.196,0.227,0.445,0.412,0.781,0.48c2.468,0.51,4.902,0.595,7.356,0.639    c0.095,7.043,0.142,14.1,0.257,21.187c-0.863-0.011-1.727-0.023-2.588-0.039c-6.739-0.125-13.535-0.397-20.214-0.401    c-6.101-0.004-12.387,0.246-18.566,0.433C235.427,212.283,235.473,205.227,235.568,198.186z M274.604,134.772    c1.581,0.085,3.16,0.16,4.735,0.25c6.245,0.358,12.623,1.154,18.877,2.303c2.422,6.73,4.24,13.726,5.885,20.575    c0.554,2.305,1.014,4.614,1.429,6.926c-8.842-2.038-17.989-3.45-26.894-3.51c-0.376-3.168-0.796-6.331-1.278-9.488    C276.493,146.144,275.573,140.455,274.604,134.772z M293.361,167.799c4.396,0.765,8.743,1.625,13.068,2.569    c1.024,7.217,1.593,14.478,2.212,21.806c0.114,1.347,0.19,2.698,0.242,4.049c-4.189-0.631-8.381-1.185-12.533-1.611    c-5.364-0.549-10.408-1.169-15.49-1.263c-0.225-9.036-0.757-18.062-1.674-27.055C283.934,166.574,288.654,166.98,293.361,167.799z     M280.936,198.313c0.226,0.012,0.449,0.02,0.676,0.035c4.701,0.321,9.228,0.842,13.902,1.412    c4.437,0.542,8.956,1.094,13.468,1.752c0.01,2.408-0.008,4.815-0.003,7.217c0.003,1.092,0.245,12.21,0.656,11.971    c-0.273,0.158-0.419,0.373-0.48,0.601c-5.617-0.741-11.206-1.495-16.878-1.585c-1.847-0.029-3.687-0.001-5.527,0.035    c-1.926-0.165-3.865-0.253-5.807-0.301c-0.04-0.175-0.095-0.347-0.175-0.51C280.97,212.067,281.025,205.189,280.936,198.313z     M309.472,165.778c-0.751-4.288-1.654-8.562-2.737-12.836c-1.265-4.991-2.705-9.954-4.412-14.812    c1.165,0.246,2.326,0.502,3.476,0.771c5.499,1.289,10.885,2.903,16.23,4.627c3.637,6.058,6.688,12.506,9.392,18.959    c1.538,3.672,2.886,7.463,4.08,11.315c-3.083-1.109-6.176-2.18-9.278-3.174C320.925,168.928,315.283,167.245,309.472,165.778z     M322.891,174.522c4.684,1.367,9.433,2.86,14.124,4.505c1.411,5.21,2.564,10.493,3.506,15.725    c0.523,2.906,0.986,5.808,1.407,8.716c-5.027-1.471-10.11-2.746-15.171-3.904c-4.699-1.076-9.501-1.999-14.327-2.796    c-0.1-2.583-0.231-5.163-0.366-7.758c-0.313-5.993-0.877-11.894-1.718-17.752C314.542,172.24,318.72,173.304,322.891,174.522z     M312.608,205.283c0.003-1.077-0.014-2.149-0.031-3.22c4.694,0.755,9.357,1.652,13.88,2.827c5.519,1.435,10.93,2.903,16.283,4.544    c0.15,1.172,0.297,2.342,0.438,3.517c0.505,4.232,0.302,9.023,0.981,13.327c-0.549-0.099-1.098-0.21-1.648-0.294    c-8.689-1.343-17.127-2.844-25.864-3.764c-1.692-0.178-3.375-0.387-5.056-0.603C313.259,216.451,312.598,210.622,312.608,205.283z     M354.597,165.112c4.749,6.175,7.784,13.715,11.349,20.59c0.327,0.63,0.625,1.281,0.933,1.926    c-3.822-1.974-7.673-3.884-11.576-5.716c-4.915-2.306-9.967-4.419-15.083-6.373c-1.286-4.559-2.784-9.041-4.594-13.324    c-2.406-5.693-5.038-11.399-8.061-16.871c4.754,1.582,9.499,3.179,14.283,4.661C346.308,154.849,350.532,159.825,354.597,165.112z     M335.304,143.186c-1.668-0.57-3.284-1.108-4.753-1.651c-2.157-0.797-4.345-1.527-6.545-2.223    c-1.537-2.407-3.174-4.741-4.931-6.98c-1.906-2.428-3.852-4.849-5.852-7.223C321.161,130.463,328.622,136.546,335.304,143.186z     M291.26,112.703c0.009,0.004,0.017,0.007,0.026,0.011c3.138,1.452,6.251,3.023,9.322,4.704    c5.489,5.514,10.719,11.191,15.568,17.463c0.679,0.877,1.329,1.778,1.973,2.684c-3.716-1.044-7.456-1.995-11.184-2.887    c-2.137-0.512-4.303-0.997-6.487-1.446c-2.035-5.069-4.418-9.984-7.345-14.611c-1.179-1.863-2.498-3.99-3.954-6.114    C289.872,112.571,290.566,112.637,291.26,112.703z M283.951,112.038c3.472,4.226,6.615,8.741,9.124,13.485    c1.185,2.24,2.245,4.554,3.227,6.907c-5.21-0.945-10.478-1.657-15.666-1.994c-2.287-0.148-4.579-0.331-6.869-0.459    c-1.011-5.7-2.079-11.388-3.25-17.042c-0.131-0.631-0.266-1.268-0.399-1.903C274.734,111.283,279.345,111.638,283.951,112.038z     M270.873,103.109c2.907,1.633,5.915,3.083,8.952,4.471c-3.512-0.407-7.068-0.653-10.632-0.78    c-0.435-1.913-0.898-3.828-1.411-5.728C268.695,101.783,269.715,102.458,270.873,103.109z M239.46,34.251    c-1.34-4.347,0.755-11.519,4.648-15.05c-1.532,9.504,3.127,19.364,14.102,20.172c10.018,0.736,15.11-9.358,13.788-18.162    c0.994,1.784,1.733,3.635,2.025,4.847c1.429,5.929,0.26,12.386-4.584,16.37c-2.92,2.402-7.716,3.57-9.162,7.393    c-0.989,2.614-0.434,6.024-0.165,9.07c-1.679-0.186-3.37-0.155-5.01,0.111c0.114-2.906-0.076-5.818-0.044-8.756    c0.032-2.91-0.141-4.242-2.781-5.655C247.48,42.022,241.355,40.405,239.46,34.251z M249.782,67.131    c2.101-1.702,4.543-2.88,7.352-2.925c9.874-0.156,16.938,10.504,9.465,18.395c-4.444,4.693-16.5,4.774-19.616-1.54    C244.579,76.194,246.472,71.075,249.782,67.131z M247.863,98.62c0.172-0.776,0.372-1.573,0.564-2.383    c0.808-1.434,1.42-3.041,1.9-4.861c2.593,0.614,5.406,0.673,7.833,0.562c1.243-0.057,2.421-0.188,3.543-0.398    c0.474,1.754,1.076,3.305,1.86,4.698c0.191,0.809,0.391,1.607,0.564,2.383c0.601,2.706,1.291,5.395,1.946,8.095    c-6.59-0.116-13.158,0.115-19.446,0.413c-0.272,0.013-0.545,0.027-0.817,0.04C246.496,104.317,247.228,101.477,247.863,98.62z     M244.942,111.029c0.316-0.02,0.629-0.045,0.945-0.065c7.041-0.437,14.09-0.382,21.134-0.072c0.15,0.706,0.308,1.41,0.44,2.121    c1.044,5.603,2.042,11.216,2.987,16.837c-2.578-0.051-5.147,0.04-7.696,0.413c-3.643-0.01-7.29,0.085-10.915,0.126    c-0.586,0.006-1.179,0.006-1.777,0.002c-2.817-0.484-5.662-0.599-8.517-0.543c0.945-5.621,1.943-11.233,2.987-16.837    C244.653,112.348,244.802,111.689,244.942,111.029z M231.728,107.781c3.185-1.447,6.342-2.96,9.389-4.671    c1.158-0.65,2.178-1.326,3.091-2.038c-0.56,2.076-1.062,4.17-1.531,6.259c-3.742,0.201-7.519,0.454-11.288,0.832    C231.503,108.035,231.613,107.906,231.728,107.781z M241.828,111.243c-0.119,0.564-0.238,1.13-0.356,1.691    c-1.172,5.655-2.24,11.343-3.25,17.042c-2.29,0.128-4.582,0.311-6.869,0.459c-5.188,0.337-10.456,1.049-15.666,1.994    c0.983-2.353,2.042-4.668,3.227-6.907c2.462-4.653,5.535-9.083,8.929-13.239C232.505,111.907,237.165,111.559,241.828,111.243z     M211.381,117.418c2.337-1.279,4.704-2.473,7.082-3.621c1.379-0.349,2.747-0.676,4.096-0.926c-1.356,2.001-2.59,3.993-3.701,5.748    c-2.927,4.628-5.31,9.541-7.345,14.611c-2.184,0.449-4.349,0.935-6.487,1.446c-3.729,0.892-7.469,1.844-11.184,2.887    c0.643-0.906,1.294-1.807,1.973-2.684C200.662,128.609,205.893,122.932,211.381,117.418z M198.767,125.109    c-2,2.374-3.945,4.795-5.852,7.223c-1.757,2.238-3.395,4.574-4.931,6.98c-2.201,0.696-4.388,1.426-6.545,2.223    c-1.469,0.543-3.084,1.081-4.753,1.651C183.367,136.546,190.829,130.463,198.767,125.109z M146.044,185.701    c3.565-6.875,6.6-14.415,11.349-20.59c4.065-5.285,8.289-10.262,12.752-15.106c4.782-1.484,9.529-3.081,14.282-4.661    c-3.024,5.472-5.656,11.178-8.061,16.871c-1.81,4.283-3.308,8.765-4.594,13.324c-5.117,1.954-10.169,4.068-15.084,6.373    c-3.903,1.832-7.754,3.742-11.576,5.716C145.419,186.983,145.717,186.33,146.044,185.701z M137.416,212.456    c1.306-6.553,3.042-13.395,5.521-19.796c1.417-0.519,2.82-1.013,4.036-1.608c4.433-2.165,8.896-4.175,13.405-6.225    c3.259-1.481,6.623-2.855,10.037-4.142c-1.144,4.671-2.1,9.38-2.915,14.016c-0.589,3.343-1.077,6.676-1.526,10.017    c-4.398,1.402-8.736,2.973-12.946,4.801c-5.459,2.369-11.659,4.442-16.445,8.148C136.805,215.93,137.071,214.193,137.416,212.456z     M136.051,222.873c1.669-0.569,3.235-1.445,4.831-2.277c3.575-1.863,7.207-3.381,10.931-4.94c4.444-1.859,8.9-3.471,13.389-4.938    c-0.121,0.973-0.242,1.945-0.363,2.922c-0.492,3.98-1.706,9.227-0.368,13.318c-6.815,1.53-13.599,3.842-20.301,5.551    c-3.038,0.774-6.008,1.767-8.944,2.865C135.54,231.193,135.716,227.03,136.051,222.873z M132.409,261.416    c-3.506-1.707-7.345-3.187-10.511-5.264c-2.086-1.37-4.834-2.804-5.399-5.452c-0.942-4.421,4.612-5.474,7.848-6.663    c12.396-4.552,25.645-5.884,38.337-9.399c13.296-3.682,27.397-4.968,41.045-6.725c4.699-0.605,9.252-1.647,13.913-2.23    c5.071,0.262,10.613-0.802,15.269-0.867c6.952-0.097,14.1-0.313,20.989-0.252c6.698,0.06,13.45,0.231,20.189,0.356    c5.167,0.096,10.4,0.614,15.579,0.374c6.337,0.236,12.334,1.813,18.59,2.618c13.649,1.757,27.75,3.043,41.046,6.725    c12.69,3.515,25.941,4.847,38.337,9.399c3.237,1.189,8.79,2.242,7.848,6.663c-0.564,2.649-3.311,4.083-5.399,5.453    c-3.165,2.077-7.003,3.556-10.511,5.264c-0.571-2.411-1.771-4.695-3.573-6.325c-2.721-2.459-7.559-4.608-10.883-6.11    c-5.485-2.478-11.471-4.011-17.131-6.053c-13.417-4.84-27.008-5.972-40.991-8.043c-6.91-1.024-14.498-2.077-21.875-1.895    c-0.191-0.009-0.384-0.021-0.574-0.029c-8.539-0.331-17.242-0.337-25.786-0.296c-9.207,0.044-18.598-0.387-27.744,0.498    c-0.156,0.015-0.312,0.024-0.468,0.039c-8.502-0.74-17.495,0.488-25.565,1.684c-13.983,2.071-27.574,3.204-40.991,8.043    c-5.661,2.042-11.647,3.575-17.131,6.053c-3.324,1.502-8.161,3.651-10.882,6.11C134.18,256.721,132.982,259.005,132.409,261.416z     M346.867,262.193c0.17-4.065,0.525-8.714-0.175-12.979c6.963,2.122,13.878,4.724,20.125,8.095    c4.901,2.645,6.538,5.106,5.958,10.663c-0.318,3.049-0.235,6.045,0.821,8.844c-8.634-0.077-17.276-0.061-25.935-0.132    c-0.396-0.004-0.792-0.006-1.189-0.01C347.473,272.036,346.674,266.821,346.867,262.193z M341.296,276.63    c-4.655-0.042-9.317-0.117-13.968-0.281c0.611-6.095,0.367-12.365,0.681-18.484c0.166-3.219-0.079-6.448,0.064-9.667    c0.01-0.221-0.095-2.056-0.216-3.529c3.232,0.548,6.449,1.178,9.64,1.985c1.809,0.458,3.635,0.952,5.462,1.465    c-0.825,4.892-1.028,9.947-1.289,14.843C341.461,266.925,340.564,272.285,341.296,276.63z M324.35,258.809    c-0.15,2.916-0.061,5.837-0.263,8.756c-0.04,0.586-0.594,8.231,0.151,7.712c-0.333,0.232-0.56,0.558-0.695,0.912    c-1.279-0.061-2.555-0.143-3.832-0.223c-0.43-0.105-0.861-0.212-1.289-0.298c-0.213-10.719,1.787-21.575,1.083-32.261    c1.869,0.257,3.738,0.523,5.602,0.811C324.028,248.843,324.583,254.254,324.35,258.809z M316.798,243.042    c-0.992,3.873-0.621,8.731-0.95,12.324c-0.599,6.536-1.426,13.15-1.508,19.729c-3.664-0.319-7.302-0.171-11.138-0.09    c-6.328,0.136-12.556-0.06-18.864,0.341c-6.676,0.424-13.53-0.344-20.232-0.342c-7.361,0.004-14.723-0.004-22.084,0.01    c-12.591,0.022-25.151,0.646-37.702,0.745c-2.217-0.166-4.437-0.243-6.657-0.14c-0.044-6.751-0.906-13.544-1.52-20.253    c-0.328-3.592,0.041-8.451-0.951-12.324c4.517-0.609,9.036-1.208,13.529-1.995c3.862-0.678,7.761-1.092,11.634-1.676    c3.369-0.015,6.736-0.012,10.109-0.092c9.023-0.215,18.063-0.294,27.116-0.242c8.387,0.049,16.747,0.362,25.14,0.423    c4.917,0.036,10.235,1.049,15.309,0.8c1.749,0.237,3.497,0.483,5.237,0.789C307.76,241.834,312.281,242.433,316.798,243.042z     M187.902,267.566c-0.201-2.92-0.114-5.841-0.263-8.756c-0.233-4.555,0.322-9.967-0.759-14.591    c1.864-0.288,3.733-0.554,5.603-0.811c-0.709,10.759,1.33,21.691,1.083,32.483c-1.704,0.115-3.411,0.217-5.121,0.299    c-0.136-0.354-0.362-0.68-0.695-0.912C188.497,275.798,187.943,268.152,187.902,267.566z M170.318,262.964    c-0.26-4.896-0.463-9.952-1.289-14.843c1.828-0.514,3.653-1.008,5.462-1.465c3.19-0.807,6.408-1.437,9.64-1.985    c-0.12,1.472-0.225,3.308-0.216,3.529c0.141,3.219-0.102,6.448,0.064,9.667c0.314,6.119,0.07,12.387,0.681,18.484    c-4.653,0.163-9.314,0.238-13.969,0.281C171.426,272.285,170.529,266.925,170.318,262.964z M139.214,267.973    c-0.58-5.557,1.056-8.018,5.958-10.663c6.247-3.371,13.163-5.971,20.125-8.095c-0.7,4.265-0.344,8.914-0.175,12.979    c0.193,4.626-0.605,9.842,0.394,14.481c-0.397,0.003-0.792,0.006-1.189,0.01c-8.659,0.072-17.301,0.055-25.935,0.132    C139.449,274.018,139.532,271.023,139.214,267.973z M229.323,487.192c-0.185,0.035-0.398,0.077-0.671,0.137    c-1.562,0.342-3.33,0.847-4.91,1.053c-4.12,0.539-8.064-0.298-12.249,0.586c-0.512,0.109-1.041,0.218-1.566,0.328    c-0.343,0.036-0.692,0.072-1.023,0.11c-4.63,0.535-8.989,0.59-13.614,0.822c-9.468,0.477-18.969,1.023-28.466,1.5    c-11.096,0.558-22.131,0.588-33.281,0.581c-10.932-0.005-22.081,0.654-32.877-0.741c-8.808-1.138-17.384-4.009-26.213-5.258    c-10.833-1.533-21.469-5-32.075-7.661c-9.26-2.324-18.447-4.908-27.68-7.267c-2.706-0.691-5.511-0.284-6.024-3.994    c-0.288-2.079,0.817-7.379,3.018-8.103c1.472-0.484,3.172,0.042,4.913,0.51c5.228,4.341,13.217,5.622,19.318,7.541    c8.476,2.666,17.136,4.02,25.66,6.532c7.607,2.242,15.62,3.416,23.454,4.507c9.158,1.275,17.87,3.315,27.21,3.812    c9.373,0.499,19.105,0.852,28.484,0.507c9.384-0.347,18.603,0.084,27.975-0.17c9.148-0.247,18.795,0.533,27.93-0.817    c1.862-0.115,3.708-0.217,5.515-0.236c3.442-0.035,6.781-0.085,10.208-0.388c3.981-0.352,9.584-1.496,13.444-0.746    c2.134,0.414,3.239,0.015,3.778,2.836c0.171,0.891-0.037,3.024-0.262,3.979C229.316,487.171,229.321,487.181,229.323,487.192z     M112.195,474.124c-4.58-0.156-9.154-0.469-13.674-1.077c0.475-2.709-0.052-6.199-0.067-8.31    c-0.046-6.211-0.085-12.421-0.155-18.631c-0.062-5.504-0.412-11.051-0.236-16.552c0.12-3.731,0.648-7.497,0.156-11.183    c3.573-0.016,7.149-0.032,10.705-0.057c0.946-0.006,1.901-0.001,2.861,0.008c-0.004,4.286-0.003,8.57-0.013,12.856    c-0.02,7.792,0.58,15.519,0.568,23.302C112.326,460.969,111.733,467.626,112.195,474.124z M107.923,413.713    c-10.382-0.313-20.985-0.47-31.372-0.207c-11.34,0.287-22.519-0.714-33.824-0.71c-7.896,0.003-16.198-1.245-24.139-0.525    c-0.421-7.524-0.994-15.049-1.012-22.565c-0.026-10.824-0.73-21.463-0.797-32.274c-0.031-5.018,0.289-10.176,0.393-15.327    c6.063-1.767,12.592-2.649,18.625-4.383c8.808-2.532,17.641-5.353,26.57-7.416c9.33-2.156,18.578-4.953,27.961-6.86    c6.716-1.365,13.564-3.736,20.366-4.955c-0.035,6.357,0.362,12.587,0.54,18.919c0.419,14.855,0.51,29.678,0.535,44.587    c0.019,10.598,0.025,21.196,0.02,31.795C110.502,413.775,109.216,413.752,107.923,413.713z M93.531,472.253    c-4.371-0.8-8.708-1.782-13.08-2.61c1.526-7.969,0.127-17.468,0.046-25.286c-0.054-5.097-0.205-10.198-0.196-15.294    c0.005-3.394,0.57-7.183,0.131-10.677c4.923,0.022,9.858,0.02,14.788,0.004c-1.565,9.104-1.254,18.531-1.358,27.719    c-0.07,6.21-0.11,12.421-0.156,18.631C93.694,466.647,93.261,469.684,93.531,472.253z M75.717,468.837    c-0.127-0.019-0.253-0.046-0.381-0.065c-4.709-0.689-9.242-1.969-13.791-3.185c0.226-3.183-0.282-6.471-0.348-9.635    c-0.117-5.551-0.404-11.156-0.351-16.706c0.054-5.532,0.349-11.066,0.524-16.591c0.05-1.582,0.178-3.368-0.027-5.049    c5.335,0.382,10.675,0.736,16.044,0.775h0.02c-0.428,3.326-1.118,11.65-1.132,12.71c-0.067,5.158-0.146,10.317-0.191,15.475    c-0.046,5.184-0.069,10.368-0.102,15.553C75.967,464.393,75.577,466.676,75.717,468.837z M56.647,464.347    c-1.475-0.349-2.955-0.676-4.453-0.942c-2.052-0.363-4.11-0.75-6.166-1.165c-0.245-7.252-1.41-14.637-1.031-21.817    c0.412-7.782,0.882-15.956-0.07-23.76c4.645,0.114,9.277,0.432,13.908,0.764c0.052,3.416-0.719,7.154-0.922,10.43    c-0.278,4.493-0.966,8.971-1.103,13.465C56.596,448.334,55.663,456.949,56.647,464.347z M41.907,461.357    c-3.877-0.88-7.725-1.901-11.481-3.162c0.485-6.065-0.225-12.513-1.067-18.516c-1.062-7.567,0.901-16.137-0.936-23.519    c4.354,0.267,8.781,0.444,13.123,0.445c0.288,0,0.576,0.013,0.865,0.014C40.392,431.452,41.881,446.482,41.907,461.357z     M26.101,439.252c0.374,5.874,0.385,11.808,0.801,17.681c-4.015-1.541-6.286-2.831-7.5-5.39    c1.222-9.148-0.319-17.843-0.382-27.242c-0.019-2.849-0.116-5.697-0.251-8.547c2.658,0.328,5.495,0.14,8.068,0.312    c0.105,0.008,0.21,0.013,0.316,0.019C25.234,423.197,25.645,432.102,26.101,439.252z M110.739,314.825    c-2.775,0.606-5.515,1.646-8.255,2.333c-4.344,1.089-8.692,2.05-13.081,2.941c-9.661,1.96-19.207,4.795-28.806,7.051    c-8.952,2.104-17.868,4.854-26.69,7.479c-5.475,1.629-11.441,2.494-16.712,4.839c0.008-4.051-0.175-8.084-0.848-12.022    c6.372-1.47,12.894-4.131,16.048-5.005c17.791-4.925,35.082-11.271,52.693-16.79c7.197-2.256,14.451-5.298,21.91-6.478    c1.094-0.173,2.191-0.327,3.291-0.469C111.132,303.999,110.884,309.453,110.739,314.825z M394.147,375.848    c0.001,12.659-0.005,25.316-0.035,37.971c-2.393-0.004-4.791-0.015-7.213-0.011c-2.79,0.004-5.671,0.311-8.541,0.555    c2.047-2.937,2.754-7.142,0.095-9.728c-1.945-1.893-5.935-1.701-8.461-2.004c-3.813-0.457-7.842-0.13-11.678-0.166    c-10.7-0.102-21.528,1.253-32.171,0.146c-6.925-0.72-14.055-0.593-21.137-0.447c1.087-6.554,0.003-14.079-0.538-20.522    c-0.766-9.147-6.245-5.275-12.737-9.018c-3.942-2.273-4.992-7.693-7.562-11.515c-1.76-2.618-4.076-5.569-6.71-7.364    c-3.808-2.598-9.28-5.146-14.194-4.812c-4.147-1.063-8.972-0.787-13.001-0.284c-0.631,0.079-1.27,0.163-1.91,0.252    c-4.815-0.182-10.11,2.313-13.822,4.845c-2.634,1.795-4.95,4.746-6.709,7.364c-2.57,3.822-3.62,9.243-7.562,11.515    c-6.492,3.743-11.97-0.128-12.737,9.018c-0.54,6.443-1.625,13.968-0.538,20.522c-7.082-0.145-14.211-0.273-21.137,0.447    c-10.643,1.107-21.471-0.247-32.171-0.146c-3.837,0.036-7.866-0.291-11.679,0.166c-2.527,0.303-6.516,0.111-8.462,2.004    c-2.659,2.587-1.953,6.791,0.095,9.728c-2.87-0.245-5.751-0.551-8.541-0.555c-2.422-0.004-4.82,0.008-7.213,0.011    c-0.03-12.656-0.036-25.312-0.035-37.971c0.001-7.808,0.513-15.858-0.141-23.637c-0.548-6.512-0.155-13.049-0.8-19.558    c-0.489-4.93-0.47-9.906-0.485-14.881c0.015-0.001,0.029-0.004,0.044-0.004c19.228-1.082,38.515-0.598,57.751-1.397    c8.942-0.372,17.933,0.715,26.869,0.362c6.397-0.253,12.804-0.247,19.179-0.499c8.71,0.13,17.396,0.148,26.091-0.186    c8.82-0.338,17.661,0.57,26.476,0.695c6.558,0.092,13.714,0.792,20.319-0.458c5.908,0.201,11.841,0.213,17.764,0.448    c8.936,0.353,17.927-0.734,26.869-0.362c19.236,0.801,38.523,0.316,57.751,1.397c0.015,0.001,0.029,0.004,0.044,0.004    c-0.015,4.975,0.003,9.95-0.485,14.881c-0.645,6.509-0.252,13.047-0.8,19.558C393.634,359.99,394.145,368.04,394.147,375.848z     M362.343,454.275c-0.246-9.238,0.989-19.21-0.412-28.413c1.598-0.119,3.089-0.512,4.134-1.582    c1.78-1.824,1.306-3.797,0.815-5.888c0.186-0.001,0.371-0.001,0.556-0.004c2.497-0.034,5.171-0.006,7.479-1.061    c6.209,1.197,12.754,1.198,19.186,1.089c-0.057,18.621-0.192,37.237-0.548,55.847c-1.869,0.024-3.736,0.04-5.593,0.051    c-8.048,0.052-16.198,0.882-24.239,1.383c-0.583,0.036-1.159,0.067-1.741,0.102C364.191,469.122,362.527,461.227,362.343,454.275z     M358.538,471.941c0.017,1.402-0.13,2.852,0.245,4.05c-2.362,0.135-4.715,0.251-7.068,0.354c0.862-2.389,0.22-5.204,0.347-7.769    c0.271-5.49,0.255-10.959,0.218-16.467c-0.037-5.626-0.368-11.211-0.497-16.829c-0.014-0.573-0.242-5.833-0.585-9.137    c1.708-0.11,3.384-0.292,4.814-0.353c0.893-0.037,1.93,0.026,3.007,0.074c-0.312,4.139-0.084,8.494-0.284,12.604    c-0.307,6.276-0.286,12.628-0.391,18.914C358.264,462.228,358.479,467.084,358.538,471.941z M355.4,421.63    c-2.315,0.009-5.839,0.697-8.105-0.022c-1.313-0.417-1.461-1.409-1.648-2.606c1.943-0.059,3.883-0.15,5.817-0.328    c4.172-0.386,8.35-0.297,12.533-0.276c-0.145,1.506-0.344,2.92-2.069,3.371C360.049,422.262,357.367,421.623,355.4,421.63z     M347.925,449.192c-0.067,8.955-1.227,18.4-0.306,27.315c-2.968,0.099-5.944,0.166-8.952,0.172    c-2.25,0.005-4.535-0.025-6.836-0.041c-0.93-0.202-1.873-0.342-2.821-0.458c1.194-7.196,0.125-15.79-0.022-22.747    c-0.176-8.274,0.59-17.876-1.175-26.166c1.586-0.152,3.049-0.571,4.146-1.528c2.059-1.795,1.633-4.522,0.821-6.841    c2.887,0.091,5.774,0.165,8.659,0.168c-0.299,2.513,0.306,5.465,2.78,6.447c1.144,0.454,2.48,0.636,3.878,0.688    C346.36,433.291,347.975,442.569,347.925,449.192z M325.036,452.639c0.084,7.736-0.601,15.49-0.443,23.206    c-2.293-0.089-4.594-0.105-6.859-0.225c0.031-0.131,0.055-0.268,0.065-0.417c1.009-15.846,0.022-32.286-1.359-48.124    c1.031-0.009,2.109-0.081,3.172-0.091c1.649-0.016,3.817,0.289,5.963,0.343C323.887,435.488,324.948,444.446,325.036,452.639z     M323.935,423.034c-1.692-0.09-3.399-0.034-5.096-0.032c-0.946,0.001-4.081,0.518-4.633-0.005    c-1.249-1.183-0.266-3.25,0.171-4.592c2.052,0.133,4.081,0.236,6.053,0.227c3.22-0.012,6.454,0.08,9.693,0.183    c-0.141,0.885-0.081,1.706-0.334,2.67C329.083,424.179,325.936,423.141,323.935,423.034z M313.763,475.204    c0.004,0.061,0.019,0.114,0.026,0.172c-4.196-0.26-8.391-0.439-12.583-0.69c0.316-1.706,0.121-3.596,0.136-5.281    c0.039-4.688-0.045-9.382-0.079-14.069c-0.041-5.631-0.027-11.268-0.146-16.899c-0.06-2.856-1.152-7.354-0.811-10.642    c0.307-0.081,0.601-0.167,0.877-0.256c4.921-1.601,4.871-5.45,4.023-9.839c1.798,0.133,3.59,0.284,5.374,0.429    c-0.695,1.618-0.427,3.902,0,5.425c0.658,2.342,2.131,3.162,3.943,3.42c-0.535,7.235-0.387,14.307-0.507,21.554    C313.868,457.397,313.198,466.34,313.763,475.204z M297.091,474.362c-2.272-0.282-5.062-0.737-7.874-0.957    c1.426-7.859,0.586-16.305,0.489-24.227c-0.081-6.655-0.156-13.983-1.477-20.646c3.084,0.377,6.557,0.248,9.448-0.201    c-0.077,1.168-0.025,2.364-0.067,3.476c-0.215,5.496-0.277,10.985-0.321,16.485C297.222,456.817,296.295,465.878,297.091,474.362z     M294.507,423.673c-2.358-0.039-5.203,0.554-7.469-0.106c-4.333-1.26-3.651-4.22,0.485-5.193    c4.635-1.092,9.601-1.143,14.618-0.873c-0.213,1.953-0.273,4.456-1.147,5.384C299.781,424.172,295.99,423.698,294.507,423.673z     M222.772,473.404c-2.812,0.22-5.602,0.676-7.874,0.957c0.796-8.484-0.13-17.545-0.197-26.071    c-0.044-5.499-0.105-10.989-0.321-16.485c-0.044-1.112,0.009-2.31-0.069-3.476c2.891,0.449,6.363,0.578,9.448,0.201    c-1.321,6.663-1.395,13.991-1.477,20.646C222.185,457.099,221.346,465.544,222.772,473.404z M217.483,423.673    c-1.482,0.025-5.274,0.499-6.488-0.789c-0.873-0.928-0.935-3.43-1.147-5.384c5.017-0.27,9.983-0.218,14.618,0.873    c4.136,0.973,4.819,3.933,0.485,5.193C222.686,424.227,219.841,423.634,217.483,423.673z M210.784,474.686    c-4.192,0.251-8.388,0.43-12.583,0.69c0.007-0.059,0.022-0.111,0.026-0.172c0.565-8.864-0.106-17.807-0.253-26.677    c-0.12-7.245,0.029-14.317-0.507-21.554c1.812-0.258,3.285-1.078,3.943-3.42c0.428-1.523,0.695-3.808,0-5.425    c1.784-0.146,3.576-0.297,5.374-0.429c-0.848,4.389-0.898,8.239,4.023,9.839c0.276,0.09,0.57,0.175,0.877,0.256    c0.341,3.286-0.751,7.786-0.811,10.642c-0.119,5.63-0.105,11.267-0.146,16.899c-0.034,4.688-0.117,9.382-0.079,14.069    C210.662,471.09,210.468,472.981,210.784,474.686z M194.192,475.204c0.01,0.148,0.034,0.286,0.065,0.417    c-2.265,0.119-4.565,0.136-6.859,0.225c0.157-7.716-0.527-15.47-0.443-23.206c0.089-8.194,1.149-17.151-0.538-25.307    c2.146-0.054,4.313-0.359,5.963-0.343c1.063,0.01,2.141,0.084,3.172,0.091C194.168,442.919,193.181,459.36,194.192,475.204z     M193.151,423.001c-1.697-0.003-3.404-0.059-5.096,0.032c-2.001,0.107-5.148,1.145-5.854-1.548    c-0.253-0.964-0.193-1.784-0.334-2.67c3.238-0.104,6.473-0.197,9.693-0.183c1.971,0.008,4.001-0.094,6.053-0.227    c0.437,1.341,1.42,3.409,0.171,4.592C197.231,423.519,194.096,423.003,193.151,423.001z M183.001,453.433    c-0.147,6.957-1.216,15.551-0.022,22.747c-0.948,0.115-1.891,0.255-2.821,0.458c-2.301,0.016-4.587,0.045-6.836,0.041    c-3.008-0.006-5.984-0.074-8.952-0.172c0.921-8.915-0.238-18.36-0.306-27.315c-0.05-6.622,1.567-15.9-0.171-22.989    c1.397-0.051,2.734-0.233,3.878-0.688c2.474-0.983,3.079-3.935,2.78-6.447c2.885-0.004,5.772-0.077,8.659-0.168    c-0.811,2.32-1.237,5.046,0.821,6.841c1.097,0.956,2.56,1.375,4.145,1.528C182.411,435.557,183.177,445.159,183.001,453.433z     M159.927,468.576c0.127,2.565-0.515,5.381,0.347,7.769c-2.353-0.104-4.706-0.22-7.068-0.354c0.374-1.199,0.227-2.648,0.245-4.05    c0.061-4.856,0.276-9.713,0.195-14.56c-0.105-6.286-0.084-12.638-0.391-18.914c-0.201-4.109,0.026-8.464-0.284-12.604    c1.077-0.047,2.114-0.111,3.007-0.074c1.43,0.061,3.106,0.243,4.814,0.353c-0.343,3.304-0.571,8.564-0.585,9.137    c-0.13,5.618-0.459,11.202-0.497,16.829C159.672,457.618,159.655,463.086,159.927,468.576z M156.588,421.63    c-1.966-0.008-4.648,0.631-6.529,0.138c-1.724-0.452-1.924-1.865-2.069-3.371c4.184-0.021,8.361-0.11,12.533,0.276    c1.934,0.178,3.874,0.269,5.817,0.328c-0.187,1.198-0.336,2.19-1.648,2.606C162.428,422.328,158.904,421.639,156.588,421.63z     M149.646,454.275c-0.185,6.952-1.847,14.846,0.362,21.527c-0.581-0.035-1.157-0.066-1.741-0.102    c-8.042-0.5-16.192-1.33-24.239-1.382c-1.858-0.013-3.724-0.027-5.594-0.051c-0.354-18.611-0.489-37.227-0.547-55.847    c6.432,0.109,12.977,0.107,19.186-1.089c2.308,1.054,4.982,1.027,7.479,1.061c0.186,0.003,0.371,0.001,0.557,0.004    c-0.492,2.091-0.966,4.064,0.815,5.888c1.044,1.071,2.535,1.464,4.134,1.582C148.657,435.067,149.892,445.038,149.646,454.275z     M227.326,413.715c-4.968,2.488-12.623,0.081-17.927,0.119c-8.282,0.057-16.441,0.558-24.741,0.467    c-10.098-0.111-20.192-0.66-30.256-0.78c-3.848-0.046-8.398,0.666-12.178-0.055c-3.49-0.666-8.377-4.041-2.689-6.073    c1.193-0.427,3.496-0.528,4.724-0.596c9.247-0.515,18.762,0.278,28.002,0.714c10.906,0.514,21.811-0.463,32.752-0.435    c5.557,0.014,11.113,0.051,16.671,0.079c2.256,0.011,5.849-0.755,7.446,1.376C230.737,410.673,229.356,412.698,227.326,413.715z     M225.781,402.049c-3.086-0.156-6.337,0.236-8.608,0.246c-2.036,0.009-4.09-0.017-6.149-0.054    c0.966-5.288,0.579-10.652,1.014-16.09c0.304-3.801-0.519-6.942,4.015-7.474c2.921-0.342,5.663,0.142,8.096-1.787    c4.607-3.653,5.638-11.228,9.534-15.71c3.148-3.622,6.884-5.482,10.967-6.821c1.887-0.279,3.771-0.678,5.589-0.785    c4.224-0.25,8.93,0.613,13.102-0.377c5.645,1.491,10.814,3.208,14.964,7.982c3.895,4.482,4.927,12.057,9.534,15.71    c2.433,1.93,5.175,1.445,8.096,1.787c4.534,0.532,3.711,3.672,4.015,7.474c0.435,5.439,0.049,10.803,1.014,16.09    c-2.06,0.035-4.112,0.062-6.149,0.054c-2.271-0.01-5.522-0.402-8.608-0.246c1.187-9.228-1.666-18.53-6.7-26.283    c-2.041-3.143-10.412-12.194-16.493-13.005c-3.107-1.759-7.843-1.315-11.143-0.721c-0.846,0.152-1.712,0.382-2.554,0.691    c-6.105,0.503-14.757,9.832-16.837,13.035C227.446,383.518,224.595,392.821,225.781,402.049z M290.305,407.151    c5.557-0.027,11.113-0.064,16.671-0.079c10.941-0.027,21.845,0.949,32.752,0.435c9.241-0.435,18.757-1.229,28.002-0.714    c1.227,0.069,3.53,0.171,4.724,0.596c5.688,2.031,0.801,5.406-2.689,6.073c-3.778,0.721-8.33,0.009-12.178,0.055    c-10.064,0.121-20.158,0.669-30.256,0.78c-8.3,0.091-16.458-0.408-24.741-0.467c-5.304-0.037-12.959,2.371-17.927-0.119    c-2.03-1.017-3.412-3.042-1.804-5.187C284.457,406.396,288.051,407.162,290.305,407.151z M337.778,312.928    c-8.949-0.318-17.936,0.724-26.869,0.377c-5.356-0.208-10.724-0.313-16.083-0.272c-3.379-0.679-6.59-0.265-10.094-0.186    c-4.287,0.096-8.663-0.272-12.956-0.382c-8.694-0.221-17.609-0.953-26.299-0.367c-9.238,0.624-18.525,0.468-27.791,0.62    c-5.61,0.092-11.262-0.121-16.824,0.591c-8.861,0.321-17.775-0.698-26.651-0.382c-19.261,0.685-38.567,0.414-57.82,1.324    c-0.027-2.246-0.086-4.488-0.228-6.725c-0.182-2.855-0.271-6.437-1.42-9.319c6.658-0.644,13.384-0.877,20.031-1.167    c16.455-0.717,32.924-1.154,49.388-1.721c1.783,0.121,3.544,0.145,4.938,0.223c7.028,0.398,14.014-0.257,21.03-0.215    c13.739,0.084,27.367-1.081,41.072-0.027c14.024,1.077,28.226,0.594,42.267,1.491c10.526,0.672,21.852-0.109,32.615-1.531    c17.042,0.598,34.094,1.036,51.128,1.778c6.648,0.289,13.374,0.523,20.031,1.167c-1.149,2.882-1.238,6.464-1.42,9.319    c-0.142,2.236-0.201,4.479-0.228,6.725C376.344,313.342,357.04,313.614,337.778,312.928z M275.319,483.619    c-0.318-0.13-0.658-0.198-1.007-0.156c-7.962,0.948-16.078,1.61-24.088,1.625c-3.304,0.006-9.188-0.992-13.61-0.126    c0.13-1.847,0.066-3.742-0.277-5.323c2.197,0.087,4.467-0.2,6.673-0.175c5.843,0.065,11.703,0.148,17.529,0.593    c4.639,0.353,9.061,0.665,13.721,0.384c0.435-0.026,0.855-0.041,1.266-0.056C275.368,481.397,275.3,482.497,275.319,483.619z     M242.242,417.682c0.056-3.195-0.553-4.549,2.144-5.371c3.059-0.933,6.643-0.064,9.778-0.029    c-1.671,20.919-0.06,41.793,0.014,62.687c-4.367-0.238-9.022-0.712-13.516-0.452c1.068-12.528,1.372-25.214,2.049-37.781    C243.052,430.375,242.131,424.047,242.242,417.682z M270.994,476.236c-4.265-0.372-8.533-0.847-12.793-1.073    c-0.101-9.939-1.031-19.87-0.887-29.793c0.158-11.056,0.143-22.203-0.749-33.234c4.786-0.463,12.918-1.661,14.043,2.042    c0.813,2.679-0.049,7.333-0.064,10.111c-0.02,3.446-0.233,6.829-0.447,10.261C269.251,448.21,269.815,462.581,270.994,476.236z     M276.976,476.642c-0.561-0.022-1.123-0.059-1.684-0.091c-1.364-16.992-0.915-34.016-1.001-51.036    c-0.019-3.702,2.061-13.79-1.681-16.39c-1.452-1.009-4.513-0.76-6.217-0.832c-3.889-0.163-7.742,0.26-11.607,0.361    c-3.722,0.097-12.569-2.036-15.258,1.63c-2.716,3.703-1.088,12.939-0.791,17.064c1.138,15.815-2.166,31.613-1.051,47.471    c-1.24,0.18-2.461,0.429-3.648,0.784c-1.883-1.628-4.613-2.228-7.585-2.31c1.2-7.378-0.075-15.751-0.152-23.142    c-0.042-4.036,0.099-8.05,0.112-12.082c0.011-3.274-0.403-6.642-0.353-9.932c1.256-0.291,2.388-0.69,3.303-1.219    c3.291-1.905,4.351-7.503,1.916-10.567c3.578-1.852,4.587-5.391,2.846-9.871c-0.895-2.305-2.836-3.464-5.169-4.016    c0.359-2.982,0.15-5.988,0.513-8.991c0.578-4.773,2.897-9.168,5.205-13.346c2.283-4.131,5.321-7.695,9.34-10.24    c2.641-1.673,6.292-2.005,8.643-3.989c0.012-0.003,0.024-0.005,0.035-0.008c2.094-0.339,4.242-0.258,6.398-0.223    c2.334,2.185,6.149,2.487,8.886,4.22c4.019,2.544,7.057,6.109,9.34,10.24c2.308,4.176,4.628,8.572,5.205,13.346    c0.364,3.004,0.154,6.009,0.513,8.991c-2.333,0.554-4.275,1.713-5.169,4.016c-1.739,4.478-0.732,8.019,2.847,9.871    c-2.434,3.064-1.375,8.662,1.916,10.567c0.915,0.529,2.046,0.928,3.303,1.219c0.049,3.29-0.364,6.656-0.353,9.932    c0.015,4.031,0.156,8.045,0.112,12.082c-0.077,7.391-1.354,15.765-0.154,23.142C282.003,473.387,278.801,474.207,276.976,476.642z     M500.298,459.29c2.202,0.724,3.306,6.024,3.018,8.103c-0.514,3.709-3.319,3.303-6.024,3.994    c-9.233,2.358-18.42,4.942-27.68,7.267c-10.607,2.661-21.242,6.128-32.076,7.661c-8.828,1.25-17.406,4.121-26.212,5.258    c-10.796,1.394-21.945,0.735-32.877,0.741c-11.151,0.006-22.185-0.024-33.281-0.581c-9.497-0.478-18.999-1.024-28.466-1.5    c-4.625-0.232-8.985-0.287-13.614-0.822c-0.331-0.039-0.679-0.074-1.023-0.11c-0.525-0.11-1.054-0.221-1.566-0.328    c-4.186-0.885-8.129-0.047-12.249-0.586c-1.58-0.207-3.348-0.711-4.91-1.053c-0.273-0.06-0.487-0.102-0.671-0.137    c0.003-0.011,0.008-0.02,0.005-0.035c-0.225-0.956-0.432-3.088-0.262-3.979c0.539-2.822,1.644-2.422,3.778-2.836    c3.862-0.75,9.463,0.394,13.444,0.746c3.426,0.303,6.765,0.353,10.208,0.388c1.808,0.019,3.653,0.12,5.515,0.236    c9.134,1.35,18.782,0.57,27.93,0.817c9.371,0.253,18.591-0.177,27.975,0.17c9.379,0.347,19.11-0.007,28.484-0.507    c9.339-0.497,18.052-2.538,27.21-3.812c7.834-1.09,15.847-2.265,23.454-4.507c8.523-2.512,17.183-3.865,25.659-6.532    c6.101-1.919,14.09-3.2,19.318-7.541C497.126,459.332,498.827,458.806,500.298,459.29z M401.297,318.491    c6.801,1.219,13.65,3.59,20.366,4.955c9.383,1.907,18.631,4.704,27.961,6.86c8.929,2.064,17.762,4.883,26.57,7.416    c6.034,1.734,12.562,2.618,18.625,4.383c0.102,5.151,0.424,10.309,0.393,15.327c-0.067,10.811-0.771,21.451-0.797,32.274    c-0.019,7.516-0.593,15.041-1.013,22.565c-7.942-0.719-16.245,0.528-24.139,0.525c-11.305-0.004-22.484,0.997-33.824,0.71    c-10.387-0.263-20.989-0.106-31.372,0.207c-1.293,0.039-2.579,0.061-3.865,0.079c-0.005-10.598,0.001-21.196,0.02-31.795    c0.026-14.909,0.116-29.732,0.536-44.587C400.935,331.078,401.332,324.848,401.297,318.491z M401.7,298.702    c1.1,0.142,2.197,0.296,3.291,0.469c7.459,1.18,14.713,4.224,21.91,6.478c17.613,5.52,34.903,11.864,52.693,16.79    c3.154,0.873,9.676,3.535,16.048,5.005c-0.674,3.938-0.856,7.97-0.848,12.022c-5.27-2.344-11.236-3.21-16.712-4.839    c-8.821-2.625-17.737-5.375-26.69-7.479c-9.599-2.256-19.146-5.091-28.806-7.051c-4.389-0.891-8.735-1.852-13.081-2.941    c-2.74-0.686-5.48-1.727-8.255-2.333C401.105,309.453,400.857,303.999,401.7,298.702z M492.587,451.544    c-1.214,2.559-3.485,3.848-7.5,5.39c0.417-5.873,0.428-11.807,0.802-17.681c0.455-7.149,0.866-16.054-1.053-23.166    c0.105-0.006,0.211-0.012,0.316-0.019c2.571-0.172,5.409,0.016,8.068-0.312c-0.135,2.848-0.232,5.698-0.251,8.547    C492.906,433.7,491.365,442.396,492.587,451.544z M482.632,439.681c-0.842,6.003-1.552,12.451-1.067,18.516    c-3.757,1.259-7.605,2.282-11.481,3.162c0.026-14.875,1.513-29.906-0.503-44.737c0.288-0.003,0.575-0.014,0.863-0.014    c4.342-0.001,8.768-0.178,13.123-0.445C481.732,423.544,483.693,432.113,482.632,439.681z M455.178,441.322    c-0.137-4.494-0.825-8.972-1.103-13.465c-0.203-3.274-0.974-7.012-0.922-10.43c4.631-0.332,9.263-0.65,13.908-0.764    c-0.952,7.804-0.482,15.978-0.07,23.76c0.379,7.179-0.785,14.566-1.031,21.817c-2.056,0.416-4.114,0.802-6.166,1.165    c-1.498,0.265-2.979,0.593-4.453,0.942C456.327,456.949,455.393,448.334,455.178,441.322z M450.444,465.587    c-4.549,1.215-9.081,2.495-13.791,3.185c-0.127,0.019-0.253,0.045-0.381,0.065c0.138-2.161-0.25-4.444-0.265-6.718    c-0.034-5.184-0.057-10.368-0.102-15.553c-0.045-5.158-0.124-10.317-0.191-15.475c-0.014-1.061-0.704-9.384-1.133-12.71h0.02    c5.368-0.039,10.708-0.393,16.043-0.775c-0.206,1.682-0.077,3.469-0.026,5.049c0.175,5.526,0.47,11.06,0.524,16.591    c0.055,5.549-0.232,11.153-0.351,16.706C450.726,459.116,450.219,462.404,450.444,465.587z M431.539,469.642    c-4.371,0.828-8.708,1.81-13.078,2.61c0.268-2.568-0.163-5.605-0.178-7.515c-0.046-6.211-0.085-12.421-0.156-18.631    c-0.104-9.188,0.207-18.615-1.358-27.719c4.93,0.016,9.864,0.02,14.788-0.004c-0.439,3.492,0.126,7.282,0.131,10.677    c0.009,5.097-0.142,10.198-0.196,15.294C431.412,452.174,430.013,461.673,431.539,469.642z M400.206,418.322    c0.96-0.009,1.915-0.015,2.861-0.008c3.556,0.025,7.132,0.041,10.705,0.057c-0.492,3.686,0.036,7.453,0.156,11.183    c0.177,5.5-0.173,11.048-0.236,16.552c-0.07,6.21-0.109,12.421-0.156,18.631c-0.015,2.111-0.544,5.6-0.067,8.31    c-4.519,0.606-9.093,0.921-13.675,1.077c0.462-6.498-0.132-13.155-0.143-19.643c-0.014-7.783,0.586-15.51,0.568-23.302    C400.208,426.894,400.209,422.608,400.206,418.322z M488.015,318.263c-19.701-5.678-38.897-11.957-58.194-18.859    c-7.863-2.812-16.049-6.08-24.363-7.234c-10.098-1.401-20.414-1.739-30.601-1.815c-15.727-0.117-31.417,0.613-47.102,1.419    c-11.419-0.72-22.863,0.56-34.284,0.045c-14.376-0.649-28.953-0.424-43.29-1.649c-12.149-1.039-24.364,0.029-36.539,0.162    c-6.74,0.074-13.422,0.341-20.152,0.671c-3.135,0.155-6.245-0.152-9.355-0.11c-0.579,0.007-2.095,0.402-3.409,0.702    c-14.516-0.732-29.038-1.348-43.592-1.239c-10.188,0.076-20.505,0.414-30.601,1.815c-8.312,1.154-16.5,4.422-24.363,7.234    c-19.297,6.902-38.493,13.181-58.194,18.859c-4.151,1.197-9.388,3.807-13.771,3.744c-4.141-0.059-5.388-3.515-2.183-6.093    c1.397-1.124,4.861-2.15,6.587-2.745c2.661-0.92,6.139-1.809,9.367-3.108c11.398-3.182,22.638-7.365,33.925-10.673    c16.706-4.895,33.135-11.088,49.994-15.384c9.081-2.315,20.088-1.397,29.428-0.682c10.496,0.803,20.869,1.077,31.419,1.157    c10.582,0.079,21.033-0.892,31.552-1.793c6.627-0.568,14.154,0.198,21.024-0.941c8.524-0.041,17.074-0.21,25.582-0.206    c6.564,0.003,13.128,0.006,19.693,0.009c6.244,0.003,12.589,0.775,18.808,0.23c1.386-0.121,2.784-0.195,4.189-0.236    c7.156,1.424,15.132,0.547,22.111,1.144c10.518,0.901,20.97,1.873,31.552,1.793c10.549-0.079,20.924-0.353,31.419-1.157    c9.342-0.715,20.348-1.632,29.428,0.682c16.86,4.296,33.289,10.49,49.996,15.384c11.287,3.306,22.527,7.491,33.925,10.673    c3.228,1.299,6.705,2.188,9.367,3.108c1.724,0.596,5.189,1.621,6.587,2.745c3.204,2.578,1.958,6.034-2.183,6.093    C497.403,322.071,492.167,319.459,488.015,318.263z"/>
	</g>
</g>
<g>
	<g>
		<path d="M490.817,371.273c0.011-0.255,0.031-0.507,0.04-0.761c0.173-4.794-0.52-10.196-1.615-14.843    c-0.901-3.826-3.175-7.411-7.205-8.482c-8.05-2.14-6.95,13.087-7.503,17.535c-0.807,6.492-0.651,13.005-1.027,19.518    c-0.267,4.649-1.432,9.757-0.185,14.324c-0.318,0.914-0.132,2.065,0.791,2.66c2.945,1.904,9.278,2.232,12.586,0.731    c2.698-1.224,2.47-3.672,2.817-6.383C490.531,387.639,491.443,379.303,490.817,371.273z M486.984,379.317    c-0.45,4.792-2.261,11.516-1.309,16.582c-0.131,0.503-0.294,0.946-0.504,1.291c-0.861,1.42-5.325,1.314-8.235,0.566    c0.105-7.922,0.54-15.831,0.762-23.769c0.122-4.357,0.609-8.668,0.851-13.015c0.211-3.81,0.417-15.378,5.87-7.636    c2.391,3.394,2.936,10.909,3.132,15.19C487.711,372.038,487.313,375.824,486.984,379.317z"/>
	</g>
</g>
<g>
	<g>
		<path d="M467.264,379.324c0.17-4.131,0.227-8.257,0.252-12.428c0.047-8.144-0.903-20.672-9.902-24.36    c-9.534-3.908-12.244,9.107-12.564,15.812c-0.643,13.403-0.198,26.98-0.287,40.434c-0.006,0.931,0.44,1.572,1.058,1.928    c2.856,3.469,14.95,2.316,17.615,1.355c-0.031,0.011,1.886-0.611,2.631-1.567c1.245-1.597,1.037-3.81,1.11-5.709    C467.365,389.98,468.615,384.109,467.264,379.324z M464.179,376.566c-0.042,3.388-0.181,6.751-0.288,10.113    c-0.044,0.422-0.089,0.84-0.135,1.251c-0.297,2.605,0.25,6.627-0.762,9.011c-1.006,2.373-4.182,1.641-6.624,1.601    c-2.301-0.037-4.952,0.296-6.929-0.823c-0.027-9.824,0.415-19.655-0.268-29.456c-0.383-5.487-0.02-31.95,10.486-19.443    C465.71,356.023,464.288,367.757,464.179,376.566z"/>
	</g>
</g>
<g>
	<g>
		<path d="M438.448,369.741c0.047-0.273-0.014-0.505-0.119-0.704c0.082-2.05,0.15-4.1,0.156-6.157    c0.029-9.424-0.997-23.214-11.309-27.185c-9.337-3.596-16.002,3.439-16.667,12.436c-1.169,15.827-1.782,32.293-1.278,48.156    c0.019,0.57,0.197,1.028,0.472,1.38c-2.522,8.301,20.215,6.109,24.064,4.869c4.861-1.566,4.497-6.71,4.643-11.051    c0.111-3.31,0.263-6.629,0.255-9.943C438.655,377.853,437.826,373.324,438.448,369.741z M434.807,374.568    c-0.277,6.125-0.636,12.644-0.156,18.91c-0.141,0.994-0.332,1.93-0.625,2.731c-1.577,4.308-11.6,2.917-15.299,2.537    c-0.967-0.1-3.849,0.052-4.335-0.317c-0.061-0.047-0.321-0.762-0.651-1.49c0.059-0.201,0.104-0.414,0.112-0.653    c0.419-12.131,0.317-24.287,0.48-36.429c0.065-4.847-0.463-10.265,0.663-15.011c2.327-9.812,13.197-7.114,16.965,0.026    C436.59,353.643,435.237,365.035,434.807,374.568z"/>
	</g>
</g>
<g>
	<g>
		<path d="M380.57,356.808c-0.029-0.474-0.08-0.943-0.162-1.402c-0.225-1.744-0.477-3.479-0.777-5.189    c-1.616-9.164-5.937-19.391-17.001-19.03c-10.891,0.354-12.855,11.518-13.298,20.354c-0.314,6.271,0.136,12.401,0.281,18.672    c0.06,2.616,0.014,5.638,0.407,8.474c-0.452,4.549-0.346,9.687,3.202,11.513c2.414,1.243,7.844,0.656,10.594,0.74    c3.728,0.115,7.858,0.035,11.545-0.512c6.957-1.029,6.07-7.303,5.828-13.032C381.587,370.552,381.359,363.586,380.57,356.808z     M377.393,382.752c-0.782,3.914-2.807,3.434-6.239,3.682c-2.77,0.201-5.496,0.387-8.28,0.233c-1.18-0.065-6.987,0.121-7.774-0.55    c-1.505-1.283-0.595-6.936-0.973-8.951c-0.042-0.225-0.101-0.433-0.151-0.648c-0.231-6.051-0.67-12.094-0.935-18.152    c-0.356-8.158-0.328-25.447,11.876-23.459c11.015,1.793,12.213,16.978,12.891,25.667c0.067,0.86,0.105,1.722,0.14,2.584    c-0.156,3.102-0.168,6.214-0.217,9.318C377.68,375.767,378.043,379.498,377.393,382.752z"/>
	</g>
</g>
<g>
	<g>
		<path d="M341.516,371.838c0.065-2.382,0.064-4.755-0.125-7.188c-0.561-7.27-0.895-14.26-3.788-21.073    c-4.417-10.398-19.554-17.917-25.518-4.782c-5.902,12.995-2.686,29.129-2.305,42.887c0.213,7.702,1.036,7.925,8.61,7.952    c3.862,0.014,7.732,0.321,11.607,0.318c3.4-0.001,7.234,0.767,10.503,0.059c0.701-0.152,1.288-0.792,1.47-1.47    C343.304,383.568,342.295,377.339,341.516,371.838z M338.356,382.891c-0.084,0.56-0.15,1.109-0.135,1.616    c0.025,0.83-0.287,1.425-0.233,1.59c-2.373,0.53-8.155-0.258-9.963-0.328c-2.633-0.104-5.203-0.557-7.829-0.59    c-0.928-0.013-2.786,0.165-3.872,0.046c-1.744-0.191-1.276,0.933-2.16-0.536c-1.164-1.935-0.334-7.373-0.453-9.661    c-0.358-6.961-1.192-13.967-1.019-20.949c0.114-4.619,1.249-10.45,3.409-14.649c3.099-6.028,9.45-4.222,13.64-0.477    c3.293,2.943,5.061,6.79,6.352,10.956C339.396,360.561,338.022,371.903,338.356,382.891z"/>
	</g>
</g>
<g>
	<g>
		<path d="M292.041,323.1c-1.377-1.804-4.068-2.217-6.17-2.472c-5.166-0.628-10.44-0.484-15.643-0.487    c-5.733-0.003-11.317,0.838-17.026,1.047c-4.059,0.148-7.904,0.05-11.902,0.749c-0.297,0.052-0.502,0.205-0.654,0.393    c-3.477,0.172-6.929-0.046-10.442,0.077c-2.928,0.104-7.043-0.09-9.695,1.289c-4.648,2.414-4.347,7.383-3.919,11.883    c0.725,7.621,3.949,5.406,10.552,6.109c16.874,1.797,34.564,2.749,51.56,1.718c4.059-0.246,11.3,0.818,13.837-2.811    C295.271,336.688,294.895,326.843,292.041,323.1z M288.124,339.529c-1.929,0.921-6.31,0.454-8.352,0.599    c-8.871,0.63-18.276,0.81-27.181,0.387c-7.415-0.352-15.1-0.057-22.471-0.94c-2.072-0.248-7.494-0.161-8.977-1.276    c-3.882-2.918-1.072-10.876,3.167-12.359c5.935-2.075,14.004-0.004,20.244-0.828c6.095-0.805,12.365-0.55,18.446-1.323    c0.896-0.021,1.794-0.05,2.69-0.064c4.467-0.072,9.013-0.16,13.48-0.02c1.827,0.057,5.55-0.057,7.167,0.55    c3.078,1.158,3.44,4.134,3.812,7.171C290.482,334.168,291.384,337.974,288.124,339.529z"/>
	</g>
</g>
<g>
</g>
<g>
</g>
<g>
</g>
<g>
</g>
<g>
</g>
<g>
</g>
<g>
</g>
<g>
</g>
<g>
</g>
<g>
</g>
<g>
</g>
<g>
</g>
<g>
</g>
<g>
</g>
<g>
</g>
</svg>
