<?xml version="1.0" encoding="iso-8859-1"?>
<!-- Generator: Adobe Illustrator 19.0.0, SVG Export Plug-In . SVG Version: 6.00 Build 0)  -->
<svg xmlns="http://www.w3.org/2000/svg" xmlns:xlink="http://www.w3.org/1999/xlink" version="1.1" id="Layer_1" x="0px" y="0px" viewBox="0 0 512.003 512.003" style="enable-background:new 0 0 512.003 512.003;" xml:space="preserve">
<g>
	<g>
		<path d="M511.859,415.111c-0.31-4.346-0.804-7.655-3.302-9.541c-0.054-0.573-0.431-1.078-1.17-1.028    c-0.26,0.017-0.536,0.009-0.815-0.005c-0.781-0.278-1.669-0.488-2.713-0.61c-0.514-0.059-1.032-0.097-1.549-0.136    c-0.774-0.173-1.54-0.332-2.276-0.441c1.029-8.815,0.786-18.095,0.324-26.851c-0.636-12.086-0.73-24.622-0.001-36.703    c0.665-11.043,0.159-22.824-0.582-33.863c-0.23-3.438-0.254-6.955-0.302-10.486c0.04-1.991-0.039-4.009-0.148-6.006    c-0.04-0.948-0.097-1.892-0.164-2.835c-0.084-1.437-0.16-2.85-0.188-4.219c-0.055-2.59,0.332-6.131-0.533-8.848    c0.265-3.219,1.104-6.785,2.197-9.72c1.521-4.086,3.922-6.158,6.61-9.311c1.895-2.224,6.348-7.022,3.721-10.11    c-1.272-1.494-3.901-1.599-5.798-1.679c0.926-6.069,0.018-12.06,0.341-18.161c0.197-3.742,1.517-8.424,0.792-12.356    c0.135-0.039,0.265-0.083,0.385-0.139c0.336-0.155,0.648-0.382,0.912-0.646c0.039-0.039,0.068-0.084,0.103-0.125    c0.379-0.165,0.748-0.381,1.008-0.603c0.991-0.849,1.148-2.03,1.137-3.338c-0.031-3.415-1.739-6.171-4.919-7.046    c-3.4-0.936-7.484-1.318-11.324-1.467c1.809-1.777,3.13-4.562,3.773-6.379c1.784-5.04,1.155-9.757-1.288-14.433    c-2.597-4.973-6.744-8.973-10.805-12.735c-2.021-1.872-3.857-3.651-5.239-6.114c-0.354-0.63-0.604-1.239-0.875-1.815    c0.209-0.514,0.27-1.099,0.257-1.707c-0.011-0.471-0.027-0.947-0.058-1.422c0.079-0.034,0.163-0.056,0.237-0.097    c0.473-0.267,0.836-0.658,1.095-1.111c0.777-0.936,1.057-2.256,0.746-3.432c-0.3-1.133-1.175-2.035-2.245-2.467    c0.137-0.948,0.283-1.893,0.344-2.858c0.081-1.275-0.346-2.822,0.137-4.042c0.741-1.875-2.19-2.941-3.151-1.329    c-0.74,1.241-0.586,2.226-0.579,3.647c0.007,1.691-0.308,3.323-0.465,4.993c-0.19,0.131-0.374,0.274-0.544,0.44    c-0.955,0.933-1.321,2.359-1.063,3.645c0.172,0.857,0.674,1.535,1.334,2.034c0.032,0.655,0.096,1.3,0.205,1.918    c-0.153,0.177-0.277,0.377-0.354,0.592c-2.289,6.439-7.884,7.315-12.707,11.095c-2.802,2.195-5.075,5.641-6.268,8.929    c-2.716,7.493-1.745,15.81,2.441,22.631c-1.419,0.042-2.836,0.096-4.255,0.171c-3.232,0.173-8.072,0.092-10.554,2.689    c-3.345,3.501-2.297,10.235,2,10.137c-1.218,3.907-0.364,9.764-0.457,13.321c-0.097,3.719-0.147,7.439-0.253,11.159    c-0.056,1.987-0.354,3.798,0.279,5.531c-3.305-0.084-8.527-0.446-9.158,3.438c-0.768,4.733,5.805,9.452,8.25,12.783    c3.409,4.643,3.242,10.211,5.301,15.278c-0.963,2.378-0.53,5.645-0.568,8.304c-0.008,0.544-0.007,1.088-0.013,1.632    c-0.203,0.115-0.409,0.229-0.622,0.34c-0.076-0.003-0.159-0.016-0.235-0.018c-1.131-0.029-2.288,0.164-3.414,0.271    c-0.187,0.018-0.373,0.039-0.553,0.066c-0.002-0.023-0.001-0.039-0.006-0.064c-0.165-1.184,1.218-4.529,1.325-6.056    c0.301-4.34,0.13-9.699-2.3-13.475c-4.741-7.365-12.031-5.438-15.51,2.045c-1.85,3.978-1.809,8.681-0.984,12.886    c0.363,1.849,0.932,2.442-0.092,4.08c-0.581,0.93-2.258,2.273-3.622,1.624c-1.61-0.768-1.704-2.71-1.353-4.708    c0.31-0.939,0.552-1.891,0.708-2.843c0.236-0.787,0.456-1.483,0.57-1.98c1.017-4.46,2.763-8.89,3.354-13.44    c1.142-4.395,1.201-8.97-0.072-13.795c-2.091-7.934-5.625-15.767-11.047-22.045c-11.78-13.636-27.844-22.454-36.499-38.786    c0.567-0.171,1.107-0.406,1.548-0.648c2.948-1.614,4.862-3.975,5.336-7.355c0.714-5.096-1.754-9.304-6.11-10.696    c1.196-3.97,0.579-9.184,0.222-13.125c-0.229-2.531,0.34-5.77-2.754-6.785c-3.954-1.297-3.384,3.255-3.34,5.468    c0.058,2.919-0.309,5.824-0.326,8.741c-0.007,1.203,0.01,2.367,0.072,3.564c0.015,0.29-0.039,1.731,0.055,1.988    c-5.639,1.418-8.172,7.069-5.771,12.829c1.333,3.197,3.298,4.796,6.586,5.57c-0.681,4.371-2.313,8.093-4.538,11.406    c-0.822,0.879-1.688,1.73-2.546,2.648c-4.089,4.383-8.953,7.693-13.513,11.563c-8.218,6.975-17.022,15.449-20.934,25.65    c-0.822,2.144-1.559,4.149-2.194,6.154c-0.391,1.145-0.752,2.294-1.061,3.444c-0.383,1.431-0.727,3.325-0.923,5.39    c-0.021,0.156-0.046,0.305-0.065,0.462c-0.275,2.347-0.49,4.651-0.184,7.014c0.185,1.418,0.63,2.746,0.949,4.133    c0.019,0.084,0.316,1.674,0.59,1.291c-0.423,0.908-1.677,1.696-1.994,2.953c-0.603,2.396,0.232,4.791,0.802,7.065    c0.737,2.936,2.777,7.341-1.585,8.45c-1.552,0.395-3.424,0.073-5.184,0.133c-0.021-0.577-0.042-1.154-0.062-1.731    c0.6-3.041,0.357-6.29,0.117-9.381c-0.301-3.889-0.404-7.901-0.936-11.768c-0.665-4.843-0.916-9.943-0.963-14.838    c-0.042-4.349,0.876-8.451,0.547-12.825c-0.344-4.601,0.509-12.314-4.097-15.189c-1.234-0.771-2.7-1.264-4.276-1.552    c0.456-2.005,0.188-4.247,0.154-6.238c-0.046-2.653,0.058-5.42-0.375-8.063c0.014-0.782-0.024-1.598-0.119-2.463    c-0.474-4.266-1.748-8.54-3.45-12.469c-2.536-5.854-6.002-13.372-11.571-16.925c-3.125-1.994-5.854-4.508-9.018-6.47    c-3.626-2.249-7.464-4.19-11.06-6.483c-3.318-2.113-6.509-5.075-9.472-7.678c-1.101-0.967-2.518-2.097-3.867-3.344    c-0.206-0.603-0.454-1.212-0.732-1.857c-0.595-1.381-1.009-2.77-1.727-4.027c1.584-0.709,3.017-1.777,4.062-3.106    c4.6-5.842,2.304-17.757-5.139-20.341c-0.024-0.008-0.048-0.011-0.072-0.019c0.589-0.701,0.908-1.58,1.007-2.521    c0.573-1.187,0.657-2.615,0.141-3.995c-0.439-1.176-1.13-2.129-1.986-2.769c-0.289-3.396-0.627-6.792-0.628-10.195    c-0.001-3.307,0.094-7.185-0.785-10.545c-0.165-0.98-0.389-1.94-0.709-2.868c-0.245-0.712-0.972-0.931-1.529-0.676    c-0.487-0.01-0.98,0.211-1.227,0.668c-2.233,4.132-1.103,8.912-1.275,13.42c-0.132,3.472,0.156,6.931,0.453,10.389    c-2.105,1.439-3.473,3.957-2.904,6.54c0.333,1.511,1.326,2.654,2.597,3.351c-1.617,0.801-3.069,1.932-4.085,3.223    c-1.719,2.184-2.384,4.409-2.362,6.781c-0.372,2.684-0.083,5.376,0.901,7.102c1.296,2.272,2.724,4.108,4.691,5.242    c-0.213,0.404-0.374,0.838-0.464,1.284c-0.031,0.154-0.038,0.303-0.052,0.455c-0.102,0.476-0.18,0.96-0.316,1.466    c-1.795,2.443-4.689,4.646-6.619,6.341c-2.963,2.603-6.154,5.564-9.472,7.678c-3.596,2.291-7.436,4.234-11.06,6.483    c-3.163,1.962-5.893,4.478-9.018,6.47c-5.569,3.553-9.034,11.071-11.571,16.925c-1.703,3.929-2.977,8.204-3.45,12.469    c-0.096,0.866-0.132,1.682-0.12,2.463c-0.433,2.644-0.33,5.412-0.375,8.063c-0.034,1.992-0.302,4.234,0.154,6.239    c-1.576,0.289-3.041,0.781-4.276,1.552c-4.605,2.875-3.752,10.589-4.097,15.189c-0.328,4.374,0.59,8.476,0.547,12.825    c-0.047,4.895-0.297,9.995-0.963,14.838c-0.531,3.866-0.635,7.879-0.936,11.768c-0.24,3.091-0.482,6.339,0.119,9.381    c-0.019,0.577-0.041,1.154-0.062,1.731c-1.759-0.06-3.631,0.261-5.184-0.133c-4.361-1.109-2.322-5.514-1.585-8.45    c0.571-2.274,1.406-4.668,0.802-7.065c-0.316-1.258-1.57-2.045-1.994-2.953c0.274,0.384,0.569-1.206,0.59-1.291    c0.319-1.387,0.764-2.716,0.949-4.133c0.307-2.363,0.091-4.667-0.184-7.014c-0.018-0.159-0.044-0.306-0.065-0.462    c-0.196-2.065-0.539-3.959-0.923-5.39c-0.308-1.151-0.669-2.299-1.061-3.444c-0.636-2.005-1.372-4.011-2.194-6.154    c-3.912-10.201-12.715-18.673-20.934-25.65c-4.561-3.871-9.424-7.181-13.513-11.563c-0.857-0.918-1.722-1.769-2.544-2.648    c-2.225-3.313-3.857-7.035-4.538-11.406c3.288-0.774,5.254-2.373,6.586-5.57c2.402-5.761-0.131-11.412-5.771-12.829    c0.095-0.257,0.04-1.697,0.055-1.988c0.062-1.198,0.079-2.361,0.072-3.564c-0.017-2.916-0.384-5.822-0.326-8.741    c0.044-2.213,0.614-6.764-3.341-5.468c-3.094,1.015-2.526,4.254-2.755,6.785c-0.357,3.94-0.974,9.154,0.222,13.125    c-4.356,1.393-6.825,5.6-6.11,10.696c0.474,3.38,2.388,5.741,5.336,7.355c0.44,0.241,0.981,0.477,1.548,0.648    c-8.655,16.333-24.719,25.15-36.499,38.786c-5.422,6.277-8.956,14.11-11.047,22.045c-1.272,4.825-1.214,9.4-0.072,13.795    c0.592,4.549,2.338,8.978,3.354,13.44c0.113,0.497,0.334,1.193,0.57,1.98c0.156,0.952,0.399,1.905,0.708,2.843    c0.351,1.997,0.258,3.94-1.353,4.708c-1.363,0.65-3.042-0.693-3.622-1.624c-1.023-1.638-0.454-2.231-0.091-4.08    c0.825-4.205,0.865-8.908-0.984-12.886c-3.479-7.483-10.769-9.41-15.51-2.045c-2.43,3.776-2.601,9.135-2.3,13.475    c0.106,1.527,1.491,4.871,1.325,6.056c-0.003,0.025-0.002,0.04-0.006,0.064c-0.181-0.026-0.366-0.048-0.553-0.066    c-1.126-0.107-2.282-0.3-3.414-0.271c-0.075,0.002-0.157,0.014-0.235,0.018c-0.212-0.109-0.419-0.225-0.622-0.34    c-0.006-0.544-0.005-1.088-0.013-1.632c-0.038-2.658,0.395-5.925-0.568-8.304c2.06-5.068,1.893-10.635,5.301-15.278    c2.445-3.33,9.018-8.05,8.25-12.783c-0.631-3.883-5.853-3.522-9.158-3.437c0.633-1.734,0.335-3.544,0.279-5.531    c-0.106-3.719-0.156-7.439-0.253-11.159c-0.094-3.556,0.761-9.414-0.457-13.321c4.297,0.098,5.345-6.635,2-10.137    c-2.482-2.598-7.322-2.517-10.554-2.689c-1.419-0.075-2.836-0.13-4.255-0.171c4.186-6.821,5.156-15.138,2.441-22.631    c-1.192-3.288-3.465-6.732-6.268-8.929c-4.823-3.78-10.418-4.654-12.707-11.095c-0.076-0.214-0.201-0.415-0.352-0.592    c0.109-0.618,0.173-1.264,0.205-1.918c0.66-0.498,1.162-1.177,1.334-2.034c0.259-1.286-0.107-2.712-1.063-3.645    c-0.17-0.167-0.355-0.309-0.544-0.44c-0.157-1.671-0.472-3.302-0.465-4.993c0.006-1.421,0.161-2.406-0.579-3.647    c-0.961-1.613-3.894-0.546-3.151,1.329c0.482,1.219,0.056,2.766,0.137,4.042c0.062,0.965,0.209,1.91,0.344,2.858    c-1.07,0.433-1.946,1.336-2.245,2.467c-0.311,1.176-0.031,2.495,0.746,3.432c0.259,0.452,0.622,0.844,1.095,1.111    c0.074,0.042,0.159,0.064,0.237,0.097c-0.03,0.476-0.047,0.952-0.058,1.422c-0.015,0.608,0.048,1.192,0.257,1.707    c-0.27,0.575-0.52,1.185-0.875,1.815c-1.382,2.464-3.218,4.242-5.239,6.114c-4.061,3.761-8.207,7.762-10.805,12.735    c-2.443,4.676-3.071,9.393-1.288,14.433c0.643,1.817,1.964,4.603,3.773,6.379c-3.84,0.149-7.924,0.531-11.324,1.467    c-3.179,0.875-4.888,3.631-4.919,7.046c-0.011,1.308,0.145,2.49,1.137,3.338c0.26,0.222,0.63,0.438,1.008,0.603    c0.034,0.042,0.065,0.087,0.103,0.125c0.265,0.262,0.576,0.489,0.912,0.646c0.121,0.056,0.251,0.1,0.385,0.139    c-0.725,3.932,0.594,8.613,0.792,12.356c0.323,6.103-0.585,12.093,0.341,18.161c-1.898,0.079-4.527,0.185-5.798,1.679    c-2.627,3.088,1.826,7.886,3.721,10.11c2.688,3.153,5.089,5.225,6.61,9.311c1.093,2.936,1.932,6.502,2.197,9.72    c-0.865,2.717-0.477,6.258-0.533,8.848c-0.029,1.369-0.104,2.782-0.188,4.219c-0.067,0.943-0.124,1.888-0.164,2.835    c-0.109,1.997-0.188,4.015-0.148,6.006c-0.048,3.53-0.072,7.048-0.302,10.486c-0.74,11.04-1.248,22.82-0.582,33.863    c0.728,12.082,0.635,24.617-0.002,36.703c-0.462,8.757-0.706,18.037,0.324,26.851c-0.737,0.108-1.502,0.267-2.276,0.441    c-0.518,0.04-1.036,0.076-1.549,0.136c-1.045,0.121-1.932,0.332-2.713,0.61c-0.279,0.014-0.555,0.022-0.815,0.005    c-0.739-0.05-1.115,0.455-1.17,1.028c-2.498,1.886-2.992,5.195-3.302,9.541c-0.314,4.399-0.584,10.443,4.576,12.047    c3.652,1.135,8.157,0.36,11.909,0.222c4.234-0.155,8.409,0.243,12.62-0.306c17.784-2.315,36.42-1.164,54.335-1.076    c18.092,0.09,36.158-0.503,54.241-0.235c8.777,0.13,17.55,0.38,26.334,0.009c8.096-0.342,16.57,0.39,24.603-0.893    c5.388,0.071,10.782-0.026,16.162-0.178c6.776-0.19,13.558-0.365,20.337-0.423c4.583-0.04,9.804,0.59,14.65,0.212    c6.898,0.059,13.947-0.728,20.531-0.72c2.083,0.002,4.138-0.137,6.189-0.286c6.118,1.987,13.732,0.739,20.108,0.795    c6.779,0.059,13.562,0.233,20.337,0.423c5.38,0.152,10.774,0.249,16.162,0.178c8.031,1.283,16.506,0.551,24.603,0.893    c8.784,0.371,17.558,0.122,26.334-0.009c18.083-0.269,36.149,0.324,54.241,0.235c17.915-0.089,36.552-1.24,54.336,1.076    c4.211,0.549,8.385,0.151,12.618,0.306c3.752,0.138,8.258,0.912,11.909-0.222C512.443,425.555,512.174,419.511,511.859,415.111z     M462.75,172.174c2.934-3.216,6.728-4.515,10.037-7.094c1.637-1.275,2.956-3.038,3.996-4.914c0.19,0.46,0.326,0.797,0.298,0.741    c0.827,1.633,1.844,3.116,3.02,4.509c2.222,2.632,5.109,4.694,7.34,7.347c3.737,4.447,7.888,9.677,6.803,15.849    c-0.716,4.081-3.54,6.58-5.242,10.134c-5.56-0.014-11.083,0.013-16.658-0.019c-2.863-0.016-5.722-0.027-8.579-0.002    c-0.076-0.102-0.161-0.195-0.254-0.278C459.01,190.495,455.847,179.739,462.75,172.174z M445.661,206.416    c-0.14-1.083,0.878-2.026,1.648-2.605c1.698-1.277,6.673-1.099,8.864-1.176c6.325-0.22,12.625-0.344,18.972-0.381    c6.674-0.039,13.19-0.027,19.831,0.411c2.454,0.162,5.818-0.598,8.08,0.405c2.079,0.922,4.669,4.215,1.691,5.132    c-0.121,0.038-0.208,0.105-0.308,0.161c-2.485-2.354-6.933-2.06-10.178-2.298c-6.534-0.478-13.338-0.598-19.866-0.06    c-5.994,0.494-12.004,1.001-18.015,1.372c-2.752,0.17-5.499,0.105-8.253,0.159C446.775,207.564,445.864,207.983,445.661,206.416z     M498.341,222.794c-0.646-3.134-2.13-8.055-5.912-8.546c-10.692-1.387-7.774,20.74-8.411,27.815    c-1.12-0.063-2.24-0.127-3.361-0.188c1.215-5.915,0.925-13.173,0.025-18.968c-0.546-3.521-1.827-7.311-5.725-7.962    c-10.896-1.821-8.038,19.837-8.082,26.552c-0.649,0.003-1.298,0.001-1.947,0.008c1.014-2.591,0.421-8.586,0.374-10.107    c-0.115-3.744,0.863-15.575-4.543-16.91c-5.635-1.393-8.321,6.457-8.859,10.356c-0.584,4.228,0.168,8.123,0.22,12.349    c0.018,1.489-0.064,3.127,0.446,4.531c-1.032,0.022-2.065,0.043-3.096,0.063c0.906-4.496,0.461-9.095,0.354-13.672    c-0.065-2.749-0.197-5.502-0.172-8.251c0.014-1.54-0.384-6.249,0.495-7.326c1.482-1.819,9.446-1.069,11.914-1.35    c4.726-0.541,9.573-0.841,14.328-1.153c5.292-0.348,10.894-0.146,16.168,0.292c1.9,0.157,5.356-0.211,7.113,0.469    c2.778,1.073,2.282,3.783,2.178,6.1c-0.382,8.537-1.012,17.207,0.332,25.72c-1.183-0.04-2.364-0.048-3.55-0.074    C499.884,236.486,499.572,228.767,498.341,222.794z M487.241,232.332c0.025-2.629-0.03-5.264,0.298-7.88    c0.261-2.083,0.496-5.704,2.637-6.842c0.815-0.435,3.447,0.119,3.814,1.013c0.463,1.128,0.843,2.283,1.141,3.466    c0.657,2.403,0.657,4.684,0.857,7.141c0.358,4.395-0.038,8.941,0.772,13.273c-0.878-0.015-1.76-0.048-2.632-0.055    c-2.272-0.021-4.541-0.105-6.812-0.213C487.753,238.928,487.207,235.739,487.241,232.332z M478.205,241.748    c-2.552-0.129-5.107-0.226-7.669-0.25c-0.034-0.165-0.1-0.318-0.19-0.458c0.034-4.107-0.139-8.21-0.122-12.318    c0.006-1.391,0.123-2.766,0.193-4.153c0.058-1.155-0.206-2.126,0.285-3.26c0.627-1.448,3.045-2.093,4.535-2.121    c1.593-0.031,1.81,0.803,2.451,1.98c1.679,3.082,0.549,8.613,0.208,11.983C477.61,235.973,477.677,238.935,478.205,241.748z     M462.093,241.545c-2.405,0.036-4.813,0.082-7.222,0.132c0.563-2.19,0.212-4.808,0.087-7.012c-0.13-2.286-0.691-4.504-0.663-6.802    c0.022-1.715,0.263-4.253,0.758-5.773c0.403-1.237,2.736-4.951,4.213-4.651c4.896,0.992,3.253,13.834,2.925,17.57    C462.031,236.886,461.189,239.71,462.093,241.545z M448.241,254.83c-1.804-2.273-4.44-3.764-6.023-6.242    c-1.911-2.99,2.3-1.638,4.129-1.614c2.095,0.029,4.192-0.006,6.289-0.009c9.338-0.014,18.661-0.284,28.008-0.439    c4.515-0.074,8.965,0.478,13.483,0.415c3.241-0.044,8.765-0.628,12.247,0.487c-1.247,2.254-4.679,5.479-5.596,6.503    c-1.764,1.972-3.034,4.52-4.004,6.97c-0.831,2.101-2.029,5.596-2.297,8.797c-3.48-1.071-7.824-0.36-11.284-0.616    c-3.697-0.274-7.663-0.274-11.359,0.023c-2.8,0.226-5.546,0.512-8.347,0.69c-3.148,0.2-6.671-0.212-9.808,0.471    C453.005,264.667,452.071,259.658,448.241,254.83z M493.535,306.261c0.632,11.197,0.758,23.111,0.136,34.303    c-0.697,12.511-0.165,25.217,0.164,37.728c0.214,8.086-0.878,16.765-0.172,24.897c-2.121,0.006-4.243,0.006-6.382-0.102    c-7.743-0.389-15.607-1.122-23.35-0.852c-2.096,0.073-4.188,0.123-6.281,0.174c0.474-3.156,0.217-6.408,0.204-9.627    c-0.016-4.171,0.206-8.369,0.12-12.525c-0.195-9.454-0.964-18.995-1.424-28.45c-0.919-18.884-1.738-37.781-2.21-56.69    c-0.113-4.497-0.387-8.978-0.443-13.484c-0.043-3.534-2.122-6.021,1.927-7.121c2.68-0.728,5.669,0.18,8.392,0.017    c5.505-0.328,11.009-0.803,16.529-0.638c2.806,0.084,5.446,0.623,8.235,0.651c1.523-0.255,3.038-0.201,4.548,0.135    c0.003,0.074,0.005,0.144,0.01,0.232c0.551,1.115,0.713,2.768,0.737,4.47C492.524,288.069,493.052,297.73,493.535,306.261z     M370.147,178.601c-1.142-4.593,2.685-8.105,7.248-7.258c4.084,0.758,5.681,4.232,4.532,8.012    c-0.65,2.135-2.295,3.573-4.165,4.606C374.05,183.889,371.183,182.765,370.147,178.601z M335.467,244.162    c3.394-9.106,9.341-16.83,16.377-23.46c1.145-0.948,2.316-1.883,3.541-2.805c3.937-2.958,7.899-6.221,11.424-9.863    c1.857-1.746,3.616-3.588,5.212-5.59c1.294-1.622,2.242-3.131,3.028-5.071c0.164-0.406,0.301-0.838,0.428-1.279    c0.534-1.085,1.024-2.192,1.445-3.334c1.062,1.767,2.227,3.441,3.461,5.056c4.067,8.743,12.975,16.076,19.854,21.44    c4.565,3.561,9.427,7.529,13.391,12.111c2.945,3.802,5.373,7.883,7.185,12.73c0.807,3.131,1.147,6.358,1.862,9.487    c0.046,3.384,0.151,6.773-0.647,10.026c-0.114,0.464-0.247,0.906-0.387,1.339c-0.367,1.052-0.748,2.097-1.109,3.133    c-1.544-2.828-3.638-5.642-5.148-7.425c-0.497-0.586-1.337-0.413-1.853,0c-3.114,2.492-8.714,5.698-9.763,9.871    c-0.847,3.376,2.986,9.327,2.264,13.044c-0.375,0.708-0.805,1.375-1.743,1.743c-2.768,1.086-5.845,1.137-8.336-0.485    c-0.21-0.137-0.438-0.213-0.672-0.247c1.947-3.42,3.278-7.577,2.729-11.277c-0.591-3.988-4.663-9.714-7.149-12.648    c-0.497-0.586-1.337-0.413-1.853,0c-3.114,2.492-8.714,5.698-9.763,9.871c-0.947,3.772,3.968,10.769,1.82,14.257    c-0.023,0.015-0.04,0.034-0.063,0.049c-1.013,0.643-2.046,0.667-3.189,0.814c-1.752,0.226-3.15,0.041-4.849-0.391    c-0.178-0.046-0.375-0.056-0.576-0.049c-0.002-0.035-0.007-0.058-0.008-0.098c-0.005-0.13,0.011-0.277,0.039-0.432    c1.976-3.437,3.335-7.64,2.782-11.374c-0.591-3.988-4.663-9.714-7.149-12.648c-0.497-0.586-1.337-0.413-1.853,0    c-3.114,2.492-8.714,5.698-9.763,9.871c-0.844,3.361,2.953,9.274,2.274,12.994c-0.481,0.596-1.003,1.073-2.036,1.367    c-1.038,0.297-2.388,0.465-3.468,0.546c-2.416,0.18-5.181,0.578-7.348-0.419c-0.025-0.011-0.054-0.014-0.079-0.024    c0.005-0.1,0.008-0.2,0.027-0.311c1.976-3.437,3.334-7.64,2.782-11.374c-0.59-3.989-4.662-9.714-7.147-12.648    c-0.497-0.586-1.337-0.414-1.853,0c-1.437,1.15-3.4,2.453-5.204,3.931c-0.13-0.269-0.233-0.565-0.342-0.852    c-0.073-0.349-0.152-0.707-0.234-1.09C332.545,256.733,333.338,249.875,335.467,244.162z M321.978,334.79    c-0.043-11.908,0.536-23.913,0.355-35.768c-0.046-3.02-0.144-6.041-0.251-9.062c2.753,0.566,6.055-0.06,8.383-0.666    c1.375-0.358,3.347-0.871,4.231-2.326c0.123-0.202,0.213-0.424,0.286-0.654c0.945-1.722,0.291-4.838-0.062-6.891    c-0.673-3.919-2.858-6.756-0.137-10.591c1.31-1.846,3.472-3.842,5.387-5.345c0.961,1.65,1.71,3.523,2.603,5.161    c1.015,1.862,2.457,3.646,2.608,5.852c0.218,3.167-1.276,6.327-2.222,9.474c-0.235,0.465-0.458,0.931-0.627,1.396    c-0.224,0.617-0.2,1.217-0.011,1.745c0.011,0.046,0.032,0.087,0.051,0.128c0.567,1.355,2.241,1.726,3.51,2.162    c1.389,0.479,2.831,0.784,4.303,0.81c1.937,0.033,3.894-0.19,5.786-0.601c2.225-0.482,4.736-0.907,5.607-3.361    c0.168-0.47,0.251-0.951,0.259-1.417c0.201-1.71-0.241-3.867-0.506-5.416c-0.673-3.919-2.858-6.756-0.137-10.591    c1.31-1.846,3.472-3.842,5.387-5.345c0.963,1.65,1.71,3.523,2.603,5.161c1.016,1.862,2.457,3.646,2.608,5.852    c0.218,3.167-1.276,6.327-2.222,9.474c-0.235,0.465-0.458,0.931-0.627,1.396c-0.224,0.617-0.2,1.217-0.011,1.745    c0.01,0.046,0.031,0.086,0.051,0.128c0.684,1.427,2.231,1.739,3.661,2.041c1.712,0.362,3.503,0.243,5.218-0.033    c1.748-0.282,3.632-0.762,5.108-1.791c2.639-1.84,1.629-5.375,1.17-8.037c-0.673-3.919-2.858-6.756-0.137-10.591    c1.31-1.846,3.472-3.842,5.387-5.345c0.963,1.65,1.71,3.523,2.603,5.161c1.016,1.862,2.457,3.646,2.608,5.852    c0.243,3.524-1.434,7.085-2.508,10.365c-0.262,0.799-0.806,2.121-0.316,2.922c0.4,0.655,1.519,1.178,2.187,1.458    c0.363,0.152,0.723,0.319,1.086,0.474c1.874,1.12,4.498,1.049,6.532,0.769c2.023-0.279,4.914-0.815,6.297-2.495    c0.374-0.455,0.626-1.001,0.803-1.584c1.012-1.706,0.336-4.896-0.023-6.983c-0.673-3.919-2.858-6.756-0.137-10.591    c1.31-1.846,3.472-3.842,5.387-5.345c0.963,1.65,1.71,3.523,2.603,5.161c1.016,1.862,2.457,3.646,2.608,5.852    c0.023,0.327,0.017,0.655,0.005,0.982c-0.458,2.061-1.442,4.605-1.739,6.984c-0.17,0.503-0.336,1.006-0.487,1.509    c-0.235,0.465-0.458,0.931-0.627,1.396c-0.224,0.617-0.2,1.217-0.011,1.745c0.01,0.046,0.031,0.086,0.051,0.128    c0.444,1.058,1.575,1.78,2.781,1.656c1.739,0.892,4.594,0.594,6.099,0.352c1.631-0.262,3.696-0.68,5.017-1.828    c2.7-0.861,1.72-5.332,1.261-7.999c-0.185-1.073-0.481-2.063-0.761-3.017c-0.266-2.653-0.359-5.34,0.719-7.652    c0.024-0.051,0.054-0.1,0.079-0.152c0.833-1.122,1.953-2.287,3.132-3.358c0.975-0.488,2.019-0.585,2.984-0.046    c0.571,1.164,1.106,2.356,1.7,3.448c0.357,0.656,0.766,1.302,1.155,1.961c0.327,1.918,0.334,3.952,0.265,5.721    c-0.086,2.205-0.804,4.793-0.902,7.235c-0.043,0.137-0.09,0.274-0.131,0.411c-0.235,0.465-0.458,0.931-0.627,1.396    c-0.224,0.617-0.2,1.217-0.011,1.745c0.01,0.046,0.031,0.086,0.051,0.128c0.328,0.784,1.039,1.372,1.873,1.582    c1.784,1.176,4.925,0.792,6.866,0.504c0.339-0.05,0.676-0.109,1.005-0.186c-0.005,5.992,0.052,11.987,0.036,17.983    c-0.024,8.719,1.015,17.472,1.355,26.194c0.308,7.882,0.295,15.758,0.633,23.65c0.352,8.248,1.364,16.898,0.766,25.124    c-0.49,6.756-0.726,13.648-0.431,20.447c-1.718,0.029-3.435,0.063-5.153,0.082c0.152-5.511,0.146-11.035,0.202-16.551    c0.056-5.488,0.241-11.618-0.701-17.037c-0.901-5.182-4.285-9.3-8.048-12.776c-1.938-1.789-3.967-3.508-5.535-5.666    c-1.028-1.415-1.47-3.265-3.021-4.195c-0.795-0.476-2.121-0.072-2.291,0.932c-1.087,6.406-6.951,7.755-10.539,12.182    c-2.791,3.443-3.747,7.817-4.289,12.126c-0.659,5.234,0.015,10.514,0.176,15.75c0.156,5.096,0.08,10.197,0.044,15.3    c-2.34-0.005-4.681-0.019-7.021-0.049c0.153-5.517,0.146-11.047,0.203-16.569c0.056-5.488,0.241-11.618-0.701-17.037    c-0.901-5.182-4.286-9.3-8.048-12.776c-1.938-1.789-3.967-3.508-5.535-5.666c-1.028-1.415-1.47-3.265-3.021-4.195    c-0.795-0.476-2.121-0.072-2.291,0.932c-1.087,6.406-6.951,7.755-10.539,12.182c-2.791,3.443-3.747,7.817-4.289,12.126    c-0.659,5.234,0.016,10.514,0.176,15.75c0.154,5.032,0.081,10.069,0.046,15.108c-2.341,0.062-4.684,0.123-7.022,0.16    c0.153-5.521,0.147-11.057,0.203-16.585c0.056-5.488,0.24-11.618-0.701-17.037c-0.901-5.182-4.286-9.3-8.048-12.776    c-1.938-1.789-3.967-3.508-5.535-5.666c-1.028-1.415-1.47-3.265-3.021-4.195c-0.795-0.476-2.121-0.072-2.291,0.932    c-1.087,6.406-6.951,7.755-10.539,12.182c-2.791,3.443-3.747,7.817-4.289,12.126c-0.659,5.234,0.016,10.514,0.176,15.75    c0.16,5.192,0.076,10.391,0.043,15.589c-2.648,0.044-5.404-0.001-8.039,0.17c0.284-5.104,0.087-10.299,0.075-15.361    c-0.011-5.63,0.247-11.362-0.341-16.965C320.671,358.932,322.022,346.751,321.978,334.79z M443.551,402.647    c-9.025,0.078-18.047,0.051-27.106,0.048c-0.07-5.12-0.309-10.199-0.691-15.309c-0.419-5.58-0.972-11.571-0.027-17.119    c0.513-3.018,1.259-6.194,3.331-8.534c1.422-1.607,3.29-2.59,4.914-3.972c2.015-1.715,3.882-4.199,5.014-6.806    c0.594,1.056,1.171,2.251,1.734,2.907c1.089,1.268,2.268,2.648,3.502,3.773c4.959,4.519,8.558,8.557,8.797,15.708    c0.184,5.517,0.187,11.003,0.319,16.522C443.442,394.252,442.777,398.388,443.551,402.647z M402.521,402.596    c-6.832-0.102-13.66-0.25-20.481-0.275c-2.2-0.008-4.409,0.025-6.622,0.073c-0.074-5.018-0.312-9.999-0.688-15.008    c-0.417-5.58-0.972-11.571-0.027-17.119c0.513-3.018,1.259-6.194,3.331-8.534c1.422-1.607,3.29-2.59,4.915-3.972    c2.015-1.715,3.881-4.199,5.014-6.806c0.594,1.056,1.17,2.251,1.735,2.907c1.088,1.268,2.268,2.648,3.501,3.773    c4.959,4.519,8.557,8.557,8.797,15.708c0.184,5.517,0.188,11.003,0.319,16.522C402.418,394.235,401.761,398.354,402.521,402.596z     M361.51,402.677c-2.621,0.011-5.234-0.019-7.829-0.143c-6.332-0.301-12.892,0.015-19.279,0.293    c-0.067-5.164-0.308-10.288-0.693-15.441c-0.419-5.58-0.972-11.571-0.027-17.119c0.513-3.018,1.259-6.194,3.331-8.534    c1.422-1.607,3.29-2.59,4.916-3.972c2.015-1.715,3.882-4.199,5.014-6.806c0.594,1.056,1.17,2.251,1.735,2.907    c1.089,1.268,2.268,2.648,3.502,3.773c4.959,4.519,8.557,8.557,8.796,15.708c0.185,5.517,0.188,11.003,0.319,16.522    C361.397,394.262,360.728,398.407,361.51,402.677z M251.863,134.478c-1.468-2.403-1.8-4.207-1.266-6.982    c0.667-2.469,1.931-4.547,5.198-5.418c6.833-1.823,10.657,9.442,6.63,13.879C259.516,139.161,253.849,137.728,251.863,134.478z     M208.273,206.842c-0.152-2.479-0.5-4.578-0.107-7.097c0.711-4.556,2.217-8.863,4.001-13.092    c1.596-3.784,3.449-7.908,6.811-10.415c3.165-2.359,6.334-4.979,9.756-6.987c6.261-3.674,11.733-7.538,17.223-12.224    c3.966-3.385,7.653-7.398,9.021-12.451c0.09-0.16,0.177-0.322,0.255-0.488c0.115-0.241,0.265-0.514,0.364-0.74    c0.214,0.095,0.465,0.217,0.472,0.221c-0.03-0.026,0.129,0.273,0.167,0.325c0.052,0.067,0.103,0.133,0.155,0.2    c0.005,0.05,0.011,0.109,0.026,0.198c0.046,0.569,0.414,1.037,0.893,1.209c1.545,4.62,5.023,8.348,8.743,11.524    c5.489,4.686,10.961,8.551,17.223,12.224c3.423,2.007,6.591,4.628,9.756,6.987c3.362,2.507,5.216,6.631,6.811,10.415    c1.784,4.229,3.29,8.535,4.001,13.092c0.392,2.519,0.044,4.618-0.107,7.097c-0.157,2.572,0.313,4.17,0.933,6.641    c-0.015,0.17-0.03,0.339-0.05,0.502c-0.318,2.533-0.048,3.035-2.483,3.552c-2.141,0.455-4.606-0.274-6.831,0.014    c-10.747,1.388-22.09,0.031-32.838,1.835c-3.148-0.063-6.308-0.039-9.501-0.019c-1.194,0.007-2.412-0.003-3.638-0.017    c-10.683-1.75-21.945-0.42-32.619-1.799c-2.225-0.287-4.691,0.441-6.832-0.014c-2.436-0.518-2.165-1.018-2.483-3.552    c-0.021-0.163-0.036-0.332-0.051-0.502C207.961,211.012,208.431,209.414,208.273,206.842z M197.227,234.134    c0.194-2.347-0.289-7.618,1.344-9.435c0.087-0.096,0.187-0.171,0.281-0.255c3.616-0.148,7.279,0.051,10.919-0.023    c1.251,0.065,2.497,0.056,3.628,0.079c7.856,0.155,15.79,0.657,23.618,0.203c5.288,0.518,10.787,0.243,15.946,0.275    c6.245,0.039,12.354,0.1,18.501-0.543c8.965,0.892,18.108,0.243,27.146,0.065c1.131-0.023,2.376-0.014,3.628-0.079    c3.64,0.075,7.303-0.125,10.919,0.023c0.094,0.084,0.194,0.16,0.281,0.255c1.632,1.817,1.148,7.088,1.344,9.435    c0.003,0.038,0.003,0.076,0.006,0.114c-9.22-0.785-18.503-0.716-27.73-1.225c-5.047-0.278-10.16-0.691-15.23-0.776    c-6.418-0.757-13.714,0.546-19.878,0.414c-1.861-0.04-3.711-0.019-5.555,0.034c-1.35-0.271-2.726-0.478-4.172-0.482    c-5.736-0.022-11.546,0.494-17.272,0.81c-9.228,0.509-18.51,0.44-27.73,1.225C197.223,234.209,197.223,234.171,197.227,234.134z     M197.768,243.984c-0.169-2.161-0.464-4.28-0.573-6.422c2.778,1.007,6.103,0.795,9.025,0.764    c5.448-0.057,11.057-0.086,16.501-0.444c5.554-0.366,11.06-0.563,16.543-0.961c4.571,0.115,9.182-0.01,13.732,0.404    c4.21,0.382,8.696-0.308,12.961-0.317c1.868-0.005,3.545-0.007,5.163-0.221c6.018,0.486,12.064,0.695,18.167,1.096    c5.444,0.358,11.052,0.387,16.501,0.444c2.922,0.031,6.246,0.243,9.025-0.764c-0.108,2.143-0.403,4.262-0.573,6.422    c-0.581,7.393-0.081,14.806-0.057,22.176c0.013,3.832,0.371,7.6,0.4,11.425c0.024,3.208-0.032,5.84,1.37,8.685    c-0.066,4.589-0.062,9.195-0.339,13.761c-0.705,11.574-0.902,23.114-0.965,34.759c-0.066,12.134-1.459,24.436-0.352,36.516    c0.811,8.866-0.036,17.769,0.029,26.649c0.013,1.712-0.667,4.192-0.871,6.29c-4.482-0.297-8.85-0.762-13.373-0.717    c-0.397,0.005-0.794,0.007-1.19,0.011c1.079-6.11-0.755-13.446-0.952-19.5c-0.221-6.778-0.447-13.51-0.914-20.285    c-0.389-5.642-0.547-11.301-1.015-16.934c-0.318-3.84-0.421-7.682-0.667-11.531c-0.257-4.018-0.998-7.353,1.665-10.68    c3.083-3.854,5.551-7.582,3.596-12.715c-0.945-2.483-2.826-4.563-4.868-6.186c-1.583-1.258-4.192-1.688-5.587-2.847    c-1.572-1.306-0.607-4.14-0.863-6.184c-0.232-1.84-0.861-3.484-1.99-4.949c-1.383-1.793-3.965-3.871-6.073-4.871    c-0.557-0.263-1.183-0.531-1.803-0.65c-0.233-5.104-0.032-10.036-2.457-14.853c-2.095-4.164-4.789-6.448-8.356-8.322    c-0.43-0.746-0.977-1.469-1.91-2.157c-2.965-2.189-7.296-2.515-10.853-2.227c-4.859,0.391-8.415,1.804-11.631,3.976    c-3.971,1.957-6.911,4.26-9.162,8.73c-2.425,4.816-2.224,9.748-2.457,14.853c-0.62,0.12-1.247,0.387-1.803,0.65    c-2.108,0.999-4.69,3.077-6.073,4.871c-1.129,1.463-1.759,3.108-1.99,4.949c-0.257,2.045,0.708,4.878-0.863,6.184    c-1.395,1.159-4.005,1.589-5.587,2.847c-2.042,1.623-3.922,3.703-4.868,6.186c-1.955,5.135,0.513,8.862,3.596,12.715    c2.663,3.328,1.922,6.662,1.665,10.68c-0.246,3.85-0.349,7.691-0.667,11.531c-0.468,5.632-0.626,11.292-1.015,16.934    c-0.466,6.775-0.692,13.507-0.914,20.285c-0.197,6.054-2.031,13.391-0.952,19.5c-0.397-0.005-0.794-0.007-1.191-0.011    c-4.523-0.043-8.891,0.421-13.373,0.717c-0.204-2.097-0.884-4.577-0.871-6.29c0.066-8.88-0.782-17.783,0.029-26.649    c1.106-12.08-0.286-24.383-0.352-36.516c-0.063-11.644-0.26-23.185-0.965-34.759c-0.278-4.567-0.274-9.172-0.339-13.761    c1.402-2.844,1.346-5.477,1.37-8.685c0.029-3.825,0.388-7.593,0.4-11.425C197.849,258.79,198.349,251.377,197.768,243.984z     M293.544,403.586c-3.471,0.03-6.943,0.051-10.417,0.042c-1.195-0.003-2.465-0.063-3.758-0.105    c0.676-4.254,1.228-8.385,0.927-12.933c-0.372-5.619-0.543-12.258-2.456-17.594c-1.829-5.103-5.487-9.329-9.4-13.004    c-2.729-2.562-5.283-4.408-6.923-7.892c-1.103-2.341-1.01-4.6-2.254-6.697c0.35-0.69,0.263-1.551-0.577-2.007    c-1.013-0.549-2.615-0.618-3.65-0.081c-0.275,0.143-0.573,0.389-0.825,0.687c-0.358,0.099-0.707,0.313-0.993,0.683    c-1.77,2.296-1.499,4.805-2.729,7.417c-1.641,3.483-4.195,5.331-6.923,7.892c-3.914,3.675-7.572,7.901-9.4,13.004    c-1.913,5.336-2.084,11.975-2.456,17.594c-0.301,4.548,0.251,8.679,0.927,12.933c-1.293,0.042-2.564,0.102-3.758,0.105    c-3.474,0.009-6.947-0.013-10.417-0.042c-0.143-22.764,3.822-45.515,2.365-68.298c-0.251-3.929,0.001-8.193-2.28-11.624    c-1.88-2.828-4.999-4.557-4.801-8.541c0.255-5.162,4.992-8.401,9.359-9.71c3.017-0.904,2.978-1.338,3.091-4.829    c0.139-4.333,0.966-7.723,5.672-9.105c1.485-0.437,2.92-0.19,4.231-1.07c0.681-0.456,1.258-1.216,1.196-2.086    c-0.344-4.892-1.555-9.133,0.007-14.102c0.888-2.826,2.445-4.961,4.341-6.811c0.115-0.086,0.229-0.171,0.344-0.257    c3.27-2.421,6.154-4.211,10.215-4.986c7.257-1.386,11.67,1.704,17.624,4.898c0.07,0.038,0.146,0.047,0.222,0.044    c2.039,1.917,3.717,4.131,4.654,7.111c1.562,4.968,0.352,9.211,0.007,14.102c-0.062,0.871,0.517,1.63,1.196,2.086    c1.31,0.879,2.745,0.633,4.231,1.07c4.706,1.382,5.533,4.772,5.672,9.105c0.113,3.491,0.074,3.924,3.091,4.829    c4.367,1.31,9.103,4.549,9.359,9.71c0.197,3.984-2.921,5.713-4.801,8.541c-2.281,3.431-2.028,7.695-2.28,11.624    C289.723,358.072,293.686,380.823,293.544,403.586z M275.605,403.521c-0.996,0.048-1.976,0.154-2.924,0.342    c-1.933,0.052-3.828,0.212-5.489,0.37c-5.602,0.534-11.208,0.365-16.823,0.761c-2.508,0.177-5.009,0.19-7.506,0.159    c-0.008-0.005-0.013-0.011-0.021-0.016c-1.893-1.11-4.131-1.504-6.44-1.615c0.222-2.978-0.547-6.788-0.525-8.372    c0.09-6.201,0.196-14.545,2.28-20.43c2.265-6.399,6.946-10.568,11.647-15.219c3.872-3.831,4.029-8.319,6.199-12.854    c2.169,4.535,2.327,9.024,6.199,12.854c4.701,4.652,9.381,8.819,11.647,15.219c2.084,5.885,2.19,14.229,2.28,20.43    C276.151,396.734,275.382,400.544,275.605,403.521z M130.079,179.355c-1.15-3.78,0.447-7.255,4.532-8.012    c4.563-0.846,8.391,2.665,7.248,7.258c-1.034,4.164-3.902,5.287-7.615,5.36C132.374,182.928,130.729,181.491,130.079,179.355z     M90.365,264.953c-0.139-0.433-0.274-0.875-0.387-1.339c-0.797-3.254-0.692-6.642-0.647-10.026    c0.715-3.128,1.055-6.357,1.862-9.487c1.812-4.847,4.24-8.928,7.185-12.73c3.963-4.581,8.825-8.551,13.391-12.111    c6.878-5.365,15.787-12.697,19.854-21.44c1.234-1.615,2.4-3.288,3.461-5.056c0.421,1.141,0.911,2.248,1.445,3.334    c0.127,0.44,0.262,0.872,0.428,1.279c0.786,1.94,1.734,3.449,3.028,5.071c1.596,2,3.355,3.843,5.212,5.59    c3.525,3.642,7.487,6.905,11.424,9.863c1.225,0.92,2.396,1.856,3.541,2.805c7.038,6.63,12.984,14.354,16.378,23.46    c2.129,5.712,2.922,12.569,1.657,18.491c-0.082,0.383-0.161,0.741-0.234,1.09c-0.111,0.287-0.212,0.584-0.342,0.852    c-1.804-1.478-3.767-2.782-5.204-3.931c-0.517-0.414-1.356-0.586-1.853,0c-2.485,2.934-6.558,8.659-7.149,12.648    c-0.552,3.734,0.805,7.937,2.782,11.374c0.021,0.112,0.023,0.211,0.027,0.311c-0.025,0.01-0.054,0.013-0.079,0.024    c-2.166,0.997-4.933,0.6-7.348,0.419c-1.08-0.081-2.43-0.25-3.468-0.546c-1.032-0.294-1.555-0.771-2.036-1.367    c-0.679-3.719,3.118-9.633,2.274-12.994c-1.048-4.173-6.649-7.38-9.763-9.871c-0.517-0.413-1.356-0.586-1.853,0    c-2.485,2.935-6.558,8.66-7.149,12.648c-0.552,3.734,0.805,7.937,2.782,11.374c0.027,0.155,0.043,0.302,0.039,0.432    c-0.001,0.039-0.006,0.063-0.008,0.098c-0.201-0.007-0.399,0.005-0.576,0.049c-1.699,0.432-3.098,0.616-4.849,0.391    c-1.143-0.147-2.176-0.171-3.189-0.814c-0.023-0.015-0.041-0.034-0.063-0.049c-2.149-3.489,2.767-10.486,1.82-14.257    c-1.048-4.173-6.649-7.38-9.763-9.871c-0.517-0.413-1.356-0.586-1.853,0c-2.485,2.934-6.558,8.66-7.149,12.648    c-0.547,3.7,0.784,7.857,2.73,11.277c-0.234,0.034-0.462,0.112-0.672,0.247c-2.491,1.622-5.567,1.569-8.336,0.485    c-0.938-0.367-1.367-1.034-1.743-1.743c-0.722-3.716,3.111-9.668,2.264-13.044c-1.048-4.173-6.649-7.38-9.763-9.871    c-0.517-0.413-1.356-0.586-1.853,0c-1.51,1.783-3.604,4.596-5.148,7.425C91.114,267.051,90.732,266.005,90.365,264.953z     M62.903,307.123c-0.016-5.997,0.041-11.991,0.036-17.983c0.328,0.076,0.666,0.136,1.005,0.186    c1.942,0.287,5.083,0.672,6.867-0.504c0.834-0.21,1.544-0.798,1.873-1.582c0.021-0.042,0.041-0.082,0.051-0.128    c0.189-0.528,0.212-1.129-0.011-1.745c-0.169-0.466-0.392-0.932-0.627-1.396c-0.041-0.137-0.088-0.274-0.131-0.411    c-0.098-2.442-0.817-5.031-0.902-7.235c-0.07-1.768-0.063-3.802,0.265-5.721c0.388-0.658,0.797-1.305,1.155-1.961    c0.595-1.091,1.129-2.283,1.7-3.448c0.965-0.538,2.007-0.443,2.984,0.046c1.179,1.071,2.299,2.235,3.132,3.358    c0.025,0.05,0.055,0.1,0.079,0.152c1.078,2.313,0.984,5,0.719,7.652c-0.279,0.953-0.576,1.943-0.761,3.017    c-0.458,2.668-1.438,7.138,1.261,7.999c1.321,1.15,3.386,1.566,5.017,1.828c1.504,0.242,4.36,0.539,6.099-0.352    c1.206,0.123,2.336-0.598,2.781-1.656c0.021-0.042,0.041-0.082,0.051-0.128c0.189-0.528,0.212-1.129-0.011-1.745    c-0.169-0.466-0.392-0.932-0.627-1.396c-0.151-0.503-0.317-1.006-0.487-1.509c-0.299-2.378-1.281-4.922-1.739-6.984    c-0.011-0.327-0.018-0.655,0.005-0.982c0.152-2.206,1.592-3.99,2.608-5.852c0.893-1.638,1.641-3.51,2.603-5.161    c1.915,1.503,4.076,3.499,5.387,5.346c2.722,3.834,0.537,6.672-0.137,10.591c-0.358,2.087-1.033,5.277-0.023,6.983    c0.177,0.584,0.429,1.13,0.803,1.584c1.383,1.68,4.273,2.217,6.297,2.495c2.032,0.281,4.657,0.351,6.532-0.769    c0.363-0.155,0.723-0.323,1.086-0.474c0.668-0.281,1.787-0.803,2.188-1.458c0.49-0.801-0.054-2.121-0.316-2.922    c-1.074-3.28-2.751-6.842-2.508-10.365c0.152-2.206,1.592-3.989,2.608-5.852c0.893-1.638,1.641-3.51,2.603-5.161    c1.915,1.503,4.076,3.499,5.387,5.346c2.722,3.834,0.537,6.672-0.137,10.591c-0.457,2.662-1.469,6.197,1.17,8.037    c1.476,1.029,3.36,1.51,5.108,1.791c1.715,0.276,3.506,0.395,5.218,0.033c1.43-0.302,2.977-0.615,3.661-2.042    c0.021-0.042,0.041-0.082,0.051-0.128c0.189-0.528,0.212-1.129-0.011-1.745c-0.169-0.466-0.392-0.932-0.627-1.396    c-0.947-3.147-2.441-6.307-2.222-9.474c0.152-2.206,1.592-3.989,2.608-5.852c0.893-1.638,1.641-3.51,2.603-5.161    c1.915,1.503,4.076,3.499,5.387,5.346c2.722,3.834,0.537,6.672-0.137,10.591c-0.266,1.549-0.707,3.708-0.506,5.416    c0.008,0.465,0.092,0.947,0.259,1.417c0.87,2.454,3.382,2.879,5.607,3.361c1.892,0.411,3.849,0.634,5.786,0.601    c1.474-0.025,2.914-0.33,4.303-0.81c1.269-0.438,2.944-0.809,3.51-2.162c0.021-0.042,0.041-0.082,0.051-0.128    c0.188-0.528,0.212-1.129-0.011-1.745c-0.169-0.466-0.392-0.932-0.627-1.396c-0.947-3.147-2.441-6.307-2.222-9.474    c0.152-2.206,1.593-3.988,2.608-5.852c0.894-1.639,1.641-3.51,2.603-5.161c1.915,1.503,4.076,3.499,5.387,5.346    c2.722,3.834,0.537,6.672-0.137,10.591c-0.352,2.054-1.007,5.169-0.062,6.891c0.073,0.229,0.164,0.451,0.286,0.654    c0.884,1.454,2.855,1.967,4.231,2.325c2.328,0.604,5.629,1.232,8.383,0.666c-0.107,3.02-0.205,6.041-0.251,9.062    c-0.181,11.855,0.398,23.86,0.355,35.768c-0.043,11.96,1.307,24.142,0.059,36.029c-0.589,5.603-0.33,11.335-0.341,16.965    c-0.01,5.063-0.208,10.258,0.075,15.361c-2.637-0.171-5.391-0.125-8.039-0.17c-0.034-5.198-0.116-10.397,0.043-15.589    c0.161-5.236,0.835-10.517,0.176-15.75c-0.543-4.308-1.497-8.683-4.289-12.126c-3.588-4.426-9.452-5.774-10.539-12.182    c-0.17-1.004-1.497-1.409-2.291-0.932c-1.551,0.928-1.994,2.779-3.021,4.195c-1.567,2.158-3.596,3.877-5.534,5.666    c-3.763,3.475-7.149,7.593-8.048,12.776c-0.942,5.417-0.757,11.547-0.701,17.037c0.056,5.528,0.05,11.064,0.203,16.585    c-2.338-0.035-4.681-0.098-7.022-0.16c-0.035-5.039-0.108-10.076,0.046-15.108c0.161-5.236,0.835-10.516,0.176-15.75    c-0.543-4.308-1.497-8.683-4.289-12.126c-3.588-4.426-9.452-5.774-10.539-12.182c-0.17-1.004-1.497-1.409-2.291-0.932    c-1.551,0.928-1.992,2.779-3.021,4.195c-1.568,2.158-3.597,3.877-5.535,5.666c-3.762,3.475-7.147,7.593-8.048,12.776    c-0.942,5.417-0.757,11.547-0.701,17.037c0.056,5.522,0.05,11.053,0.203,16.569c-2.34,0.03-4.681,0.043-7.021,0.049    c-0.035-5.101-0.112-10.204,0.044-15.3c0.161-5.236,0.835-10.516,0.176-15.75c-0.543-4.308-1.497-8.683-4.289-12.126    c-3.588-4.426-9.452-5.774-10.539-12.182c-0.17-1.004-1.497-1.409-2.291-0.932c-1.551,0.928-1.994,2.779-3.021,4.195    c-1.568,2.158-3.597,3.877-5.535,5.666c-3.764,3.475-7.149,7.593-8.048,12.776c-0.942,5.417-0.758,11.547-0.701,17.037    c0.056,5.517,0.05,11.041,0.202,16.551c-1.716-0.019-3.435-0.054-5.153-0.082c0.295-6.798,0.059-13.69-0.431-20.447    c-0.596-8.226,0.414-16.876,0.766-25.124c0.338-7.892,0.326-15.767,0.633-23.65C61.888,324.597,62.927,315.842,62.903,307.123z     M150.715,389.866c0.131-5.519,0.135-11.007,0.319-16.522c0.24-7.151,3.838-11.189,8.795-15.708    c1.234-1.125,2.413-2.505,3.502-3.773c0.563-0.657,1.139-1.851,1.734-2.907c1.131,2.608,2.998,5.092,5.014,6.806    c1.625,1.382,3.493,2.365,4.915,3.972c2.071,2.34,2.818,5.518,3.331,8.534c0.944,5.547,0.391,11.537-0.027,17.119    c-0.385,5.153-0.626,10.276-0.693,15.441c-6.387-0.278-12.947-0.594-19.279-0.293c-2.596,0.123-5.209,0.155-7.829,0.143    C151.28,398.407,150.61,394.262,150.715,389.866z M109.693,389.866c0.131-5.519,0.136-11.007,0.319-16.522    c0.238-7.151,3.838-11.189,8.797-15.708c1.233-1.125,2.413-2.505,3.501-3.773c0.563-0.657,1.141-1.851,1.735-2.907    c1.131,2.608,2.998,5.092,5.014,6.806c1.625,1.382,3.493,2.365,4.916,3.972c2.072,2.34,2.818,5.518,3.331,8.534    c0.944,5.547,0.39,11.537-0.027,17.119c-0.375,5.009-0.614,9.99-0.688,15.008c-2.213-0.048-4.422-0.081-6.622-0.073    c-6.821,0.025-13.649,0.172-20.481,0.275C110.246,398.354,109.588,394.235,109.693,389.866z M68.669,389.866    c0.132-5.519,0.136-11.007,0.319-16.522c0.238-7.151,3.838-11.189,8.797-15.708c1.234-1.125,2.413-2.505,3.502-3.773    c0.563-0.657,1.141-1.851,1.735-2.907c1.131,2.608,2.997,5.092,5.014,6.806c1.624,1.382,3.492,2.365,4.914,3.972    c2.072,2.34,2.818,5.518,3.331,8.534c0.944,5.547,0.391,11.537-0.027,17.119c-0.382,5.108-0.623,10.189-0.691,15.309    c-9.059,0.003-18.081,0.03-27.106-0.048C69.229,398.388,68.564,394.252,68.669,389.866z M17.761,188.615    c-1.085-6.172,3.066-11.403,6.803-15.849c2.23-2.654,5.117-4.715,7.339-7.347c1.176-1.393,2.193-2.875,3.02-4.509    c-0.029,0.055,0.107-0.283,0.298-0.741c1.041,1.876,2.36,3.638,3.996,4.914c3.31,2.579,7.104,3.879,10.037,7.094    c6.903,7.565,3.741,18.32-0.762,26.275c-0.094,0.084-0.178,0.177-0.254,0.278c-2.857-0.024-5.716-0.014-8.58,0.002    c-5.575,0.032-11.098,0.005-16.658,0.019C21.301,195.195,18.478,192.695,17.761,188.615z M8.95,203.07    c2.263-1.003,5.626-0.243,8.08-0.405c6.641-0.437,13.157-0.448,19.831-0.411c6.347,0.036,12.647,0.16,18.972,0.381    c2.191,0.076,7.167-0.102,8.864,1.176c0.771,0.579,1.788,1.521,1.648,2.605c-0.203,1.566-1.114,1.147-2.468,1.12    c-2.753-0.055-5.501,0.011-8.253-0.159c-6.012-0.372-12.021-0.879-18.015-1.372c-6.528-0.537-13.332-0.419-19.866,0.06    c-3.246,0.237-7.694-0.056-10.178,2.298c-0.1-0.056-0.186-0.123-0.307-0.161C4.28,207.286,6.871,203.992,8.95,203.07z     M60.108,224.845c-0.538-3.898-3.224-11.748-8.859-10.356c-5.406,1.336-4.429,13.166-4.543,16.91    c-0.047,1.521-0.64,7.516,0.374,10.107c-0.65-0.007-1.298-0.005-1.948-0.008c-0.043-6.715,2.815-28.373-8.081-26.552    c-3.897,0.651-5.179,4.441-5.725,7.962c-0.9,5.795-1.19,13.053,0.025,18.968c-1.12,0.062-2.241,0.125-3.361,0.188    c-0.638-7.076,2.281-29.202-8.411-27.815c-3.782,0.49-5.267,5.413-5.912,8.546c-1.232,5.974-1.543,13.693-0.285,19.748    c-1.186,0.026-2.368,0.034-3.55,0.074c1.345-8.514,0.714-17.183,0.333-25.72c-0.104-2.317-0.6-5.027,2.178-6.1    c1.758-0.68,5.213-0.311,7.113-0.469c5.274-0.437,10.876-0.639,16.168-0.292c4.755,0.313,9.602,0.612,14.327,1.153    c2.469,0.283,10.432-0.469,11.914,1.35c0.879,1.079,0.481,5.787,0.495,7.327c0.024,2.75-0.108,5.503-0.172,8.251    c-0.107,4.577-0.553,9.176,0.354,13.672c-1.031-0.019-2.064-0.041-3.096-0.063c0.51-1.404,0.428-3.042,0.446-4.531    C59.94,232.967,60.691,229.072,60.108,224.845z M57.134,241.677c-2.408-0.05-4.815-0.096-7.22-0.132    c0.904-1.836,0.063-4.659-0.102-6.536c-0.326-3.736-1.971-16.578,2.925-17.57c1.477-0.3,3.81,3.415,4.213,4.651    c0.496,1.52,0.738,4.058,0.76,5.773c0.029,2.298-0.533,4.516-0.663,6.802C56.923,236.869,56.572,239.488,57.134,241.677z     M34.112,233.152c-0.341-3.37-1.471-8.901,0.208-11.983c0.641-1.177,0.858-2.011,2.451-1.98c1.489,0.029,3.907,0.672,4.535,2.121    c0.492,1.134,0.227,2.104,0.285,3.26c0.07,1.387,0.187,2.761,0.193,4.153c0.017,4.107-0.156,8.21-0.122,12.318    c-0.091,0.139-0.156,0.293-0.19,0.458c-2.56,0.024-5.115,0.121-7.669,0.25C34.33,238.935,34.397,235.973,34.112,233.152z     M24.692,242.232c-2.271,0.108-4.54,0.194-6.812,0.213c-0.872,0.008-1.754,0.041-2.632,0.055c0.81-4.332,0.414-8.878,0.772-13.273    c0.2-2.457,0.2-4.738,0.857-7.141c0.297-1.183,0.676-2.338,1.141-3.466c0.367-0.894,2.998-1.447,3.814-1.013    c2.142,1.139,2.376,4.76,2.637,6.842c0.327,2.615,0.273,5.251,0.298,7.88C24.8,235.739,24.253,238.928,24.692,242.232z     M11.23,253.934c-0.917-1.024-4.35-4.249-5.596-6.503c3.482-1.117,9.006-0.533,12.247-0.487c4.519,0.063,8.968-0.489,13.483-0.415    c9.347,0.155,18.671,0.425,28.008,0.439c2.095,0.003,4.194,0.036,6.289,0.009c1.829-0.025,6.04-1.378,4.129,1.614    c-1.583,2.477-4.219,3.968-6.023,6.242c-3.83,4.827-4.764,9.837-5.436,15.438c-3.138-0.683-6.661-0.271-9.808-0.471    c-2.801-0.178-5.549-0.465-8.347-0.69c-3.697-0.297-7.662-0.298-11.359-0.023c-3.46,0.257-7.804-0.455-11.284,0.616    c-0.267-3.2-1.464-6.696-2.297-8.797C14.263,258.454,12.995,255.906,11.23,253.934z M54.154,392.782    c-0.013,3.218-0.27,6.471,0.204,9.627c-2.093-0.051-4.185-0.101-6.281-0.174c-7.744-0.27-15.608,0.463-23.35,0.852    c-2.14,0.107-4.261,0.107-6.382,0.102c0.706-8.132-0.387-16.811-0.172-24.897c0.331-12.51,0.861-25.217,0.164-37.727    c-0.623-11.192-0.496-23.105,0.136-34.303c0.481-8.53,1.01-18.192-0.74-26.88c0.024-1.702,0.186-3.353,0.737-4.47    c0.006-0.088,0.008-0.157,0.01-0.232c1.51-0.335,3.026-0.39,4.548-0.135c2.789-0.029,5.43-0.567,8.236-0.651    c5.519-0.165,11.024,0.309,16.529,0.638c2.724,0.163,5.712-0.745,8.392-0.017c4.05,1.099,1.972,3.587,1.927,7.121    c-0.056,4.506-0.33,8.987-0.443,13.484c-0.472,18.909-1.291,37.806-2.21,56.69c-0.461,9.454-1.229,18.995-1.424,28.45    C53.948,384.413,54.171,388.611,54.154,392.782z M506.183,417.415c-0.315,2.27-0.339,2.752-2.354,3.498    c-3.696,1.369-10.385,0.403-14.38,0.61c-8.811,0.458-18.002-0.415-26.845-0.716c-9.959-0.34-19.927-0.401-29.904-0.441    c-19.526-0.078-39.003-1.048-58.52-0.781c-16.724,0.228-33.644-0.882-50.345-0.181c-5.877-0.026-11.771-0.236-17.639-0.457    c-6.472-0.244-12.974-0.399-19.453-0.469c-0.747-0.008-1.507-0.026-2.273-0.049c-0.262-0.38-0.692-0.634-1.285-0.61    c-8.47,0.341-16.963,0.525-25.448,0.899c-4.505,0.198-8.978,0.46-13.483,0.593c-6.013-1.631-12.867-0.899-18.99-0.833    c-6.479,0.071-12.98,0.225-19.453,0.469c-5.868,0.221-11.762,0.431-17.639,0.457c-16.7-0.7-33.621,0.409-50.345,0.181    c-19.517-0.267-38.993,0.703-58.521,0.781c-9.977,0.04-19.944,0.102-29.904,0.441c-8.843,0.302-18.034,1.175-26.845,0.716    c-3.995-0.208-10.685,0.758-14.38-0.61c-2.015-0.747-2.039-1.228-2.354-3.498c-0.197-1.423-0.547-5.281-0.026-6.293    c0.957-1.856,3.726-2.145,6.308-2.237c3.522,0.278,7.158,0.739,10.684,0.53c7.813-0.463,15.868-1.356,23.702-1.093    c16.633,0.559,33.147,0.57,49.824,0.563c19.881-0.008,39.756-0.099,59.615-0.074c7.031,0.008,14.109,0.481,21.145,0.277    c3.343-0.097,6.86,0.838,10.182,0.559c0.875,0.034,1.762,0.04,2.645,0.068c5.807,0.189,11.497-0.531,17.273-0.566    c6.151-0.037,12.291,0.252,18.446,0.3c3.067,0.55,6.238,0.909,9.249,1.079c2.808,0.159,5.704-0.48,8.584-0.251    c2.661,0.212,5.003,0.355,7.669,0.141c5.096-0.409,10.227,0.079,15.317-0.466c2.521-0.27,5.1-0.291,7.641-0.503    c3.815,0.604,8.191,0.027,11.639,0.01c6.378-0.031,12.74-0.346,19.111-0.309c5.775,0.034,11.464,0.755,17.273,0.566    c0.883-0.029,1.77-0.034,2.645-0.068c3.323,0.279,6.841-0.656,10.182-0.559c7.035,0.204,14.112-0.269,21.144-0.277    c19.859-0.024,39.735,0.066,59.616,0.074c16.676,0.007,33.191-0.005,49.824-0.563c7.834-0.263,15.888,0.63,23.702,1.093    c3.526,0.209,7.162-0.252,10.684-0.53c2.582,0.092,5.351,0.381,6.308,2.237C506.73,412.134,506.38,415.992,506.183,417.415z"/>
	</g>
</g>
<g>
</g>
<g>
</g>
<g>
</g>
<g>
</g>
<g>
</g>
<g>
</g>
<g>
</g>
<g>
</g>
<g>
</g>
<g>
</g>
<g>
</g>
<g>
</g>
<g>
</g>
<g>
</g>
<g>
</g>
</svg>
