<?xml version="1.0" encoding="iso-8859-1"?>
<!-- Generator: Adobe Illustrator 19.0.0, SVG Export Plug-In . SVG Version: 6.00 Build 0)  -->
<svg xmlns="http://www.w3.org/2000/svg" xmlns:xlink="http://www.w3.org/1999/xlink" version="1.1" id="Layer_1" x="0px" y="0px" viewBox="0 0 511.998 511.998" style="enable-background:new 0 0 511.998 511.998;" xml:space="preserve">
<g>
	<g>
		<path d="M492.229,464.495c-0.468-6.933-10.742-6.375-16.027-4.193c-0.546-3.175-1.647-5.367-5.246-5.812    c-1.93-0.239-4.491-0.209-6.483,0.559c0.028-0.502,0.057-1.002,0.079-1.504c0.12-2.801-0.229-4.809-3.238-5.746    c-2.893-0.9-7.269-1.229-10.142,0.187c-0.074-3.647-0.679-5.389-4.323-6.211c-3.297-0.743-7.181-1.474-10.501-0.508    c0.237-3.569,0.144-6.715-3.178-9.041c-1.513-1.059-3.831-2.022-5.63-2.39c-2.154-0.44-5.762,0.628-7.841-0.099    c-0.029-2.102-0.123-4.187-0.357-6.224c-0.48-4.194-2.995-6.807-7.245-7.378c-2.433-0.327-6.265-0.637-8.995,0.347    c-0.001-1.797,0-3.593-0.001-5.389c-0.004-3.599,0.342-7.919-3.915-9.192c-2.322-0.695-5.691-0.617-8.439,0.084    c0.027-1.132,0.043-2.267,0.019-3.408c-0.086-4.107,0.295-9.015-4.547-10.339c-1.735-0.475-4.908-1.283-7.172-0.71    c0.422-4.583,0.884-9.255,0.398-13.764c-0.44-4.075-0.435-8.194-5.333-8.962c-1.904-0.298-4.006-0.545-6.013-0.425    c0.035-4.754,0.096-9.511,0.026-14.255c-0.07-4.703-0.757-10.322-5.31-12.807c-2.739-1.495-5.317-1.637-7.818-0.762    c-0.004-0.042-0.004-0.082-0.009-0.122c-0.454-4.675,0.202-10.332-0.853-14.861c-0.719-3.088-2.521-4.684-5.688-5.139    c-2.599-0.374-4.226-0.09-6.073,0.517c-0.217-6.336-0.957-12.683-0.447-19.033c0.405-5.038,1.582-12.764-3.043-16.258    c-2.815-2.128-6.757-3.628-10.311-3.133c-0.062-0.888-0.121-1.773-0.176-2.656c-0.265-4.31-0.701-9.102-0.361-13.403    c0.151-1.922,0.788-3.752,0.834-5.688c0.056-2.37-0.514-4.75-0.523-7.133c-0.035-9.438-0.332-19.39-1.548-28.758    c-0.383-2.944-0.063-5.683-2.43-7.831c-1.991-1.805-5.094-2.692-7.869-3.158c0.265-3.378,0.549-6.758,0.566-10.17    c0.019-3.964,0.042-7.966-0.177-11.924c-0.125-2.259,0.084-5.559-0.94-7.657c-1.551-3.179-6.353-4.908-9.808-4.951    c-0.028-4.255-0.07-8.504-0.226-12.758c-0.007-0.195-0.412-6.903-1.05-10.253c3.198-4.246-0.743-15.656-1.556-18.994    c-2.622-10.767-5.926-21.347-8.475-32.099c-1.378-5.811-3.962-11.092-6.459-16.474c-2.231-4.809-4.172-9.678-6.445-14.499    c-2.677-5.68-4.951-11.541-7.617-17.227c-1.213-2.588-2.706-4.89-3.853-7.514c-1.187-2.715-2.335-5.459-3.877-7.998    c-1.675-2.76-3.468-5.475-5.548-7.95c-1.34-1.596-3.093-3.316-4.917-4.325c-0.006-0.043,0.001-0.08-0.007-0.125    c-0.144-0.805-0.257-1.612-0.361-2.421c0.164-2.26,0.067-4.593-0.086-6.935c1.118-0.199,2.194-0.429,3.179-0.654    c2.687,0.875,4.84-3.143,2.101-4.634c-1.735-0.945-3.721-0.405-5.641-0.006c-0.006-0.098-0.013-0.196-0.018-0.294    c0.064-2.591,0.177-5.177,0.26-7.747c0.084-2.579-4.093-3.242-4.583-0.621c-0.59,3.164-0.571,6.128-0.525,9.174    c-0.678,0.013-1.365-0.002-2.117-0.1c-1.62-0.211-2.616-0.261-4.069,0.536c-1.293,0.711-1.007,2.319,0,3.088    c1.669,1.272,3.871,1.726,6.197,1.752c-0.037,2.866-0.035,5.951,0.475,8.835c-0.717,0.511-1.386,1.31-1.977,2.474    c-2.77,5.466-4.753,11.416-7.422,16.91c-1.222,2.515-2.593,4.977-3.771,7.488c-0.813,1.735-1.41,3.575-2.023,5.412    c-1.892,4.32-3.679,8.687-5.655,12.878c-2.272,4.821-4.214,9.688-6.445,14.499c-2.497,5.382-5.081,10.662-6.459,16.474    c-2.549,10.752-5.853,21.331-8.475,32.099c-0.814,3.339-4.754,14.749-1.556,18.994c-0.638,3.349-1.044,10.057-1.05,10.253    c-0.156,4.255-0.198,8.503-0.226,12.758c-3.455,0.043-8.258,1.772-9.808,4.951c-1.024,2.099-0.816,5.398-0.94,7.657    c-0.219,3.959-0.196,7.96-0.177,11.924c0.017,3.411,0.301,6.792,0.566,10.17c-2.775,0.466-5.879,1.351-7.869,3.158    c-2.368,2.148-2.048,4.887-2.43,7.831c-1.218,9.367-1.515,19.32-1.549,28.758c-0.009,2.383-0.579,4.763-0.523,7.133    c0.046,1.937,0.682,3.767,0.834,5.688c0.339,4.301-0.096,9.093-0.361,13.403c-0.054,0.883-0.114,1.77-0.176,2.656    c-3.554-0.495-7.495,1.005-10.311,3.133c-4.625,3.494-3.449,11.22-3.043,16.258c0.512,6.349-0.23,12.697-0.447,19.033    c-1.847-0.607-3.474-0.89-6.073-0.517c-3.167,0.456-4.969,2.051-5.688,5.139c-1.055,4.529-0.398,10.186-0.853,14.861    c-0.003,0.042-0.004,0.082-0.009,0.122c-2.501-0.875-5.08-0.734-7.818,0.762c-4.552,2.484-5.24,8.104-5.31,12.807    c-0.071,4.745-0.009,9.502,0.026,14.255c-2.007-0.12-4.109,0.127-6.013,0.425c-4.898,0.769-4.893,4.887-5.333,8.962    c-0.486,4.509-0.024,9.18,0.397,13.764c-2.264-0.572-5.438,0.236-7.172,0.71c-4.842,1.324-4.46,6.231-4.547,10.339    c-0.024,1.142-0.008,2.277,0.019,3.408c-2.748-0.701-6.118-0.779-8.439-0.084c-4.257,1.272-3.911,5.594-3.915,9.192    c-0.002,1.797,0,3.593-0.002,5.389c-2.73-0.984-6.561-0.673-8.995-0.347c-4.25,0.571-6.765,3.182-7.245,7.378    c-0.233,2.038-0.328,4.123-0.357,6.224c-2.079,0.727-5.687-0.341-7.841,0.099c-1.799,0.367-4.117,1.331-5.63,2.39    c-3.323,2.326-3.416,5.471-3.178,9.041c-3.319-0.966-7.205-0.236-10.501,0.508c-3.645,0.821-4.249,2.565-4.323,6.211    c-2.871-1.417-7.248-1.088-10.141-0.187c-3.009,0.937-3.357,2.945-3.238,5.746c0.021,0.502,0.05,1.003,0.08,1.504    c-1.993-0.768-4.553-0.798-6.483-0.559c-3.599,0.445-4.699,2.637-5.246,5.813c-5.285-2.181-15.558-2.74-16.026,4.193    c-0.282,4.185,0.95,8.725,1.235,13.021c-0.807,7.254-0.865,14.634-0.939,21.893c-0.093,9.128,4.18,10.745,12.664,11.763    c8.636,1.037,16.966,0.78,25.671,0.467c11.015-0.396,22.117-0.037,33.137-0.009c10.804,0.028,21.607,0.164,32.41,0.255    c10.253,0.086,20.729,0.268,30.961-0.151c9.43-0.386,18.83-1.389,28.292-1.335c3.158,0.018,6.271-0.144,9.389-0.319    c1.405,0.209,2.81,0.343,4.092,0.529c4.118,0.596,8.389,0.296,12.648,0.369c6.099,0.105,12.262,0.313,18.356-0.015    c1.029-0.055,2.167-0.11,3.34-0.203c2.371,1.277,5.64,0.708,8.28,0.824c5.091,0.222,10.074-0.187,15.193-0.196    c2.646-0.005,5.266-0.163,7.888-0.341c1.893,0.03,3.789,0.046,5.706,0.011c2.461-0.045,7.595,0.741,10.741-0.517    c1.911,0.254,3.831,0.336,5.477,0.423c6.094,0.328,12.259,0.12,18.356,0.015c4.26-0.073,8.53,0.227,12.648-0.369    c1.284-0.185,2.689-0.321,4.092-0.529c3.118,0.175,6.231,0.337,9.389,0.319c9.46-0.055,18.861,0.948,28.292,1.335    c10.232,0.419,20.708,0.238,30.961,0.151c10.802-0.092,21.607-0.228,32.41-0.255c11.02-0.028,22.123-0.387,33.137,0.009    c8.705,0.313,17.037,0.57,25.671-0.467c8.485-1.019,12.758-2.635,12.664-11.763c-0.074-7.259-0.132-14.639-0.939-21.893    C491.279,473.221,492.512,468.681,492.229,464.495z M32.48,504.463c-2.33-0.297-4.832-0.31-6.159-2.947    c-0.702-1.395-0.085-4.634-0.123-6.322c-0.027-1.191-0.055-2.379-0.088-3.565c2.041-5.911,0.687-14.156,0.192-19.83    c-0.128-1.47-0.769-3.67-0.402-5.098c0.457-1.776,0.047-1.12,1.628-1.568c2.87-0.812,5.284,0.043,7.855-0.776    c-0.188,3.944,0.136,7.996,0.139,11.889c0.003,4.274-0.76,9.209,0.633,13.334c0.208,5.129,0.542,10.255,0.705,15.376    C35.366,504.806,33.886,504.643,32.48,504.463z M44.743,505.555c-0.885-0.04-1.8-0.095-2.723-0.158    c0.362-6.005-0.314-12.226-0.866-18.34c1.099-5.744,0.001-12.969-0.044-18.111c-0.018-2.025-0.167-4.043,0.01-6.062    c0.257-2.914,0.285-2.266,2.602-3.104c1.534-0.555,2.831-0.587,4.028-1.285c0.319,4.277,0.715,8.549,0.697,12.849    c-0.018,4.486-0.848,9.79,1,13.993c0.303,6.728-0.091,13.575,0.303,20.29C48.075,505.642,46.404,505.63,44.743,505.555z     M55.051,505.492c0.04-0.567,0.042-1.147,0.028-1.707c-0.126-5.089-0.742-10.118-0.824-15.221c-0.04-2.503-0.148-5.03-0.293-7.556    c0.144-1.884,0.048-3.828,0.056-5.746c0.02-4.668-0.209-9.172-0.495-13.823c-0.125-2.016-0.048-4.038-0.24-6.05    c-0.096-0.722-0.195-1.443-0.295-2.165c0.138-0.019,0.295-0.045,0.471-0.077c2.742-1.175,5.134-1.478,7.355-3.305    c-0.04,5.922,0.218,11.779,0.476,17.697c0.011,0.265,0.02,0.531,0.03,0.796c-0.082,3.321-0.145,6.644-0.172,9.968    c-0.071,8.96-0.661,18.002,0.496,26.881C59.448,505.293,57.248,505.403,55.051,505.492z M75.976,463.157    c-0.515,4.482-0.783,9.182-0.617,13.66c0.013,0.358,0.138,0.673,0.325,0.937c-0.104,9.042-0.026,18.085,0.011,27.099    c-1.401,0.001-2.804,0.007-4.206,0.008c-1.664,0.001-3.336,0.048-5.011,0.109c0.107-3.585-0.543-7.16-0.45-10.788    c0.08-3.112,0.063-6.23,0.025-9.347c2.766-8.436,0.405-17.523,0.279-26.278c-0.036-2.513-0.011-5.028-0.018-7.542    c0.002-1.305-0.002-2.611-0.013-3.916c-0.844-0.017-0.583-0.084,0.779-0.204c1.524-0.938,3.881-0.431,5.604-0.781    c1.156-0.236,2.217-0.586,3.253-1.047c0.128,1.619,0.249,3.241,0.347,4.863C76.153,454.338,76.068,458.748,75.976,463.157z     M93.101,504.818c-4.099,0.017-8.199,0.018-12.298,0.025c1.488-9.906,0.155-20.18-0.203-30.18    c0.424-1.327,0.589-2.799,0.764-4.234c0.605-4.954,0.784-10.112,0.834-15.114c0.045-4.615-1.478-10.159-0.861-14.631    c0.857-6.219,6.5-4.956,10.973-6.892c0.073,3.757,0.259,7.524,0.246,11.161c-0.012,3.577-0.187,7.334,0.072,11.011    c-0.099,3.425-0.127,6.849,0.099,10.229C93.58,478.997,92.91,491.946,93.101,504.818z M100.45,504.785    c-0.821,0.007-1.643,0.006-2.464,0.011c0.23-12.568,0.943-25.721-0.481-38.174c-0.135-1.175-0.227-2.356-0.303-3.541    c3.142-9.373,1.312-21.36,1.277-30.955c-0.007-2.041-0.692-5.392-0.022-7.308c1.247-3.565,4.722-2.574,7.38-2.839    c1.13-0.113,2.157-0.476,3.057-1.041c-0.001,4.062-0.007,8.124-0.003,12.186c0.003,5.005-1.329,12.482,0.902,17.054    c0.001,0.003,0.003,0.005,0.004,0.007c0.067,3.224,0.127,6.448,0.093,9.679c-0.157,14.949,0.055,29.897,0.608,44.837    L100.45,504.785z M122.19,466.405c-0.339,4.451-0.849,8.569-0.683,13.062c0.312,8.392-0.557,16.71-0.329,25.142l-5.818,0.049    c0.475-14.942-0.35-29.852-0.506-44.795c-0.047-4.507-0.289-9-0.515-13.497c0.479-2.232,0.379-4.614,0.387-6.948    c0.019-5.962,0.009-11.923,0.013-17.885c0.002-2.831-1.313-13.001,0.57-14.247c0.921-0.609,3.085-0.133,4.249-0.467    c0.613-0.175,1.228-0.456,1.838-0.758c0.19,4.201,0.393,8.381-0.136,12.646c-0.463,3.739-0.696,9.133,0.516,13.208    c-0.065,7.482-0.14,14.963-0.202,22.444C121.543,458.419,122.5,462.322,122.19,466.405z M134.201,441.86    c0.054,10.653-0.798,21.244-0.766,31.934c0.017,6.023,0.021,12.046,0.053,18.069c0.021,4.272-0.626,8.44-0.463,12.657    c-1.626,0.009-3.255,0.017-4.871,0.03l-2.119,0.018c0.376-8.658,0.845-17.416,0.56-26.055c-0.146-4.429,0.592-8.64,0.811-13.042    c0.201-4.034-0.614-7.931-0.693-11.949c-0.138-6.965-0.169-13.934-0.202-20.902c1.499-3.448,0.346-6.788,0.587-10.79    c0.344-5.713,0.851-11.102,0.249-16.861c-0.266-2.547-1.193-6.742-0.348-9.254c0.792-2.351,2.258-1.839,4.437-2.698    c0.441-0.174,1.169-0.456,1.882-0.835c0.264,4.722,0.044,9.341,0.983,13.974C134.064,418.066,134.142,429.95,134.201,441.86z     M144.737,406.156c-0.279,7.287-0.601,14.471-0.603,21.791c-0.002,14.56-0.004,29.121-0.007,43.681    c0,6.434-0.408,12.796-0.563,19.214c-0.104,4.29-0.569,9.145,0.018,13.594c-1.923,0.026-3.847,0.037-5.77,0.05    c1.019-9.819,0.591-19.832,0.619-29.7c0.033-11.013,0.861-21.936,0.812-32.926c-0.052-11.874-0.33-23.756-0.57-35.628    c-0.009-0.433-0.022-0.862-0.031-1.293c2.401-6.848,0.673-15.092,0.444-22.214c-0.107-3.321-2.237-10.537,1.243-12.518    c0.917-0.522,2.467-0.573,3.522-1.048c0.021-0.01,0.037-0.018,0.058-0.028c0,0.715,0.006,1.43,0.001,2.144    c-0.025,3.688-0.085,7.414,0.229,11.094c0.053,0.617,0.162,1.214,0.291,1.803c-0.019,0.98-0.036,1.959-0.056,2.94    C144.244,393.516,144.981,399.776,144.737,406.156z M154.91,504.116c-2.113,0.105-4.24,0.177-6.373,0.232    c-0.728-4.933-0.212-10.62,0.026-15.406c0.325-6.512,0.5-12.942,0.499-19.471c-0.002-14.183-0.004-28.367-0.007-42.55    c-0.001-6.954,0.46-13.839,0.521-20.763c0.048-5.479-0.488-10.806-0.687-16.25c1.437-3.231,1.102-6.551,1.347-10.414    c0.376-5.927,0.137-11.901,0.092-17.837c-0.035-4.619-0.637-9.424-0.223-14.026c0.371-4.137,2.664-5.516,6.375-5.881    c0.121-0.012,0.233-0.025,0.347-0.038c0.066,3.024,0.447,6.007,1.048,8.969c-0.104,5.88-0.199,11.761-0.233,17.643    c-0.099,16.447-0.067,32.897-0.065,49.343c0.002,16.357-0.024,32.714,0.007,49.069c0.024,12.297,0.282,24.859,1.417,37.137    C157.636,503.962,156.273,504.047,154.91,504.116z M171.161,473.235c-0.147,3.298-0.879,6.591-1.096,9.849    c-0.26,3.887-0.272,7.795-0.467,11.707c-0.137,2.751-0.836,5.591-0.671,8.356c-1.651,0.114-3.3,0.238-4.95,0.362    c-1.629-28.185-1.437-56.461-1.433-84.758c0.002-16.076-0.013-32.154-0.062-48.23c-0.02-6.674-0.094-13.351-0.221-20.024    c1.432-7.348,1.611-15.189,1.261-22.555c-0.104-2.186-0.989-4.711,1.37-6.09c0.81-0.474,3.599-0.582,4.598-0.906    c0.025-0.008,0.046-0.013,0.071-0.02c-0.015,5.404-0.135,11.472,0.812,17.037c0.006,0.876,0.009,1.752-0.001,2.627    c-0.045,3.927-0.68,7.758-0.719,11.658c-0.085,8.483-0.588,16.8-0.557,25.313c0.037,10.199,0.003,20.396,0.036,30.595    c0.029,9.198,0.992,18.423,0.76,27.57c-0.107,4.205-0.33,8.391,0.177,12.57c0.564,4.658,0.123,9.091,0.333,13.742    C170.574,465.785,171.33,469.445,171.161,473.235z M183.016,333.75c-0.949,7.713-0.493,15.752-1.113,23.52    c-0.844,10.557-0.132,21.451-0.15,32.04c-0.017,10.248,0.787,20.87-0.327,31.048c-0.903,8.262-0.625,16.755-0.785,25.059    c-0.368,19.026-0.581,38.169-0.613,57.275c-2.241,0-4.481,0.075-6.718,0.189c-0.121-7.057,1.023-14.711,1.927-21.516    c0.935-7.037,0.292-13.777,0.239-20.79c-0.136-18.207-0.978-36.358-0.92-54.604c0.033-10.197,0.131-20.4,0.029-30.595    c-0.045-4.524,0.194-8.76,0.53-13.23c0.289-3.852-0.436-7.79-0.132-11.632c0.396-5.007,0.589-10.06,0.726-15.108    c0.238-3.053,0.223-6.151,0.355-9.189c0.254-5.82,0.901-11.602,0.864-17.421c-0.035-5.431-0.535-10.41-1.013-15.774    c-0.352-3.968-0.027-6.455,3.836-8.152c1.124-0.494,2.253-0.995,3.355-1.545c-0.332,5.645-0.406,11.304,0.84,16.761    C184.061,311.372,184.38,322.654,183.016,333.75z M192.748,344.443c-0.903,11.16-0.204,22.629-0.211,33.827    c-0.006,9.054-0.63,17.968-0.577,26.998c0.061,10.462-0.011,20.928-0.018,31.392c-0.007,11.564-0.573,23.068-0.58,34.608    c-0.003,5.658-0.231,11.331-0.569,16.979c-0.278,4.665-0.145,9.702-0.727,14.404c-1.692,0.073-3.385,0.082-5.08,0.073    c-0.003-9.883-0.006-19.767-0.008-29.65c-0.002-9.23,0.642-18.498,0.598-27.655c-0.042-8.743,0.118-17.59,0.945-26.293    c0.929-9.782,0.125-19.982,0.136-29.815c0.02-18.901-0.063-37.861,1.514-56.619c0.684-8.14-0.015-16.596-0.061-24.775    c-0.012-2.135-0.02-4.274-0.03-6.415c1.105-7.674,0.057-15.559,0.944-23.242c0.726-6.301,1.378-13.124,0.831-19.446    c-0.704-8.143,0.945-16.721,0.835-24.949c-0.058-4.344-0.644-9.211,0.268-13.503c0.671-3.159,1.489-3.978,4.579-5.407    c0.104-0.048,0.199-0.092,0.295-0.137c0.074,1.426,0.125,2.854,0.12,4.285c-0.002,0.729-0.008,1.451-0.008,2.169    c-0.054,0.984-0.11,1.969-0.182,2.961c-0.744,10.289-0.164,20.717-0.217,31.027c-0.102,19.997-1.821,39.91-1.844,59.963    C193.693,325.009,193.538,334.689,192.748,344.443z M205.15,204.907c-0.095,10.53-0.664,20.947-0.248,31.489    c-2.332,32.634-2.522,65.456-2.602,98.216c-0.046,18.839,0.422,37.637,0.452,56.455c0.029,18.217-1.657,36.265-1.701,54.514    c-0.046,19.107-0.895,37.983,0.321,57.042c-1.189-0.148-2.572-0.488-3.282-0.505c-1.114-0.027-2.2,0.053-3.293,0.157    c0.254-3.352,0.189-6.714,0.521-10.064c0.459-4.617,0.491-9.348,0.674-13.995c0.395-10.053,0.614-20.137,0.63-30.193    c0.017-11.225,0-22.451-0.006-33.675c-0.005-9.307,0.549-18.51,0.545-27.773c-0.003-11.578-0.022-23.156-0.027-34.733    c-0.003-9.989,1.192-19.875,1.103-29.857c-0.095-10.68,0.861-21.326,0.451-31.992c-0.175-4.565,0.833-8.977,0.673-13.571    c-0.19-5.452,0.454-10.743,0.423-16.185c-0.047-8.087-0.105-16.159-0.062-24.228c2.317-2.386,1.928-6.354,1.766-9.447    c-0.27-5.136,0.352-10.24-0.036-15.368c-0.503-6.653,0.111-13.447-0.028-20.141c-0.043-2.032-1.281-7.232-0.168-8.878    c0.828-1.225,2.847-2.252,4.556-3.259C205.695,187.609,205.229,196.194,205.15,204.907z M294.328,125.067    c1.161,4.165,1.807,8.43,2.788,12.644c-2.361-0.122-4.791,0.102-7.162,0.27c-0.49-6.391-0.522-12.823-1.022-19.192    c-0.139-1.773,0.022-4.018-0.358-5.989c0.238,0.364,0.481,0.751,0.739,1.133c1.059,1.573,1.968,2.899,3.172,4.39    C293.09,120.57,293.7,122.816,294.328,125.067z M286.183,95.478c1.346,4.54,2.59,9.071,3.814,13.607    c-2.032-2.186-4.282-3.199-6.515-1.097c-1.134,1.067-2.03,2.133-2.741,3.224c-0.183-3.62-0.987-7.258-0.937-10.882    c0.042-3.014-0.522-5.947-0.689-8.953c-0.092-1.654-0.688-4.696-0.093-6.645c2.455,1.997,3.847,5.643,6.306,7.957    C285.616,93.615,285.904,94.542,286.183,95.478z M285.116,111.813c0.243-0.258,0.47-0.445,0.686-0.577    c0.283,2.889-0.263,6.155-0.042,9.005c0.462,5.962,0.672,11.902,0.236,17.899c-1.636,0.012-3.29,0.009-4.951-0.019    C283.22,129.776,278.833,118.476,285.116,111.813z M274.662,67.016c-0.007-0.372-0.006-0.752-0.002-1.136    c0.092,0.189,0.177,0.382,0.27,0.57c2.735,5.536,5.11,11.137,7.218,16.863c-0.91-1.007-1.867-1.832-2.87-2.326    c-0.665-0.328-1.454-0.291-2.004,0.258c-0.916,0.916-1.453,2.2-1.752,3.643c-0.251-0.568-0.503-1.133-0.738-1.692    c-0.431-1.019-0.802-2.077-1.159-3.146C275.132,75.864,274.746,71.409,274.662,67.016z M278.024,138.044    c-0.571-0.017-1.152-0.024-1.716-0.044c-0.509-0.018-1.04-0.019-1.579-0.013c-0.085-8.995,0.8-18.17-0.434-27.081    c1.564,2.171,3.37,5.762,4.153,6.832c-0.163,1.323-0.213,2.724-0.192,4.239C278.322,126.784,276.732,133.217,278.024,138.044z     M271.289,123.732c-0.607,4.69-0.321,9.57-0.359,14.316c-1.017,0.002-2.028-0.034-3.008-0.134    c-0.484-0.082-0.968-0.155-1.458-0.22c-0.199-0.039-0.403-0.071-0.597-0.119c-0.001-3.779,0.007-7.418,0.512-11.161    c0.485-3.587-0.488-7.17-0.146-10.714c0.168-1.742,3.023-6.182,5.518-6.518C271.417,114.031,271.922,118.848,271.289,123.732z     M269.673,105.773c-0.114-5.761-0.343-11.464,0.295-17.211c0.273-2.459-0.406-6.223-0.3-9.46    c1.584,4.382,2.818,8.824,5.688,12.724c0.092,1.084,0.203,2.09,0.281,2.925c0.447,4.795,1.112,9.942,1.38,14.899    c-0.785-1.365-1.582-3.402-2.782-4.236C272.734,104.368,271.126,104.855,269.673,105.773z M265.355,44.627    c0.816,2.261,1.928,4.479,2.784,6.485c1.031,2.413,2.048,4.837,3.09,7.25c-0.399,4.321-0.891,9.226-0.638,13.86    c-0.789-0.812-2.19-0.452-2.836,0.429c-0.836,1.14-1.247,2.447-1.428,3.834c-0.504-1.203-1.073-2.37-1.373-3.398    c-0.272-0.93-0.654-1.793-1.051-2.647c0.004-0.019,0.018-0.034,0.021-0.054c0.996-4.941,0.189-10.692,0.153-15.773    c-0.027-3.807,0.003-7.59-0.211-11.363C264.341,43.749,264.831,44.221,265.355,44.627z M261.552,75.037    c0.676,2.558,2.032,4.803,3.104,7.162c0.381,0.842,0.726,1.697,0.992,2.588c1.171,3.932,0.766,8.158,0.366,12.171    c-0.362,3.633-0.168,7.409-0.16,11.058c0.001,0.301,0.061,0.554,0.15,0.779c-0.865,0.789-1.534,1.478-2.052,2.144    c-0.855-2.296-1.597-4.66-2.643-6.876c-0.797-1.689-1.997-3.141-2.699-4.869c-0.587-1.449-0.902-2.88-1.664-4.259    c-0.301-0.544-0.876-0.865-1.477-0.922c-0.066-2.349-0.343-4.742-0.34-6.986c0.005-2.428-0.295-4.809-0.487-7.202    c0.947-1.793,2.034-3.503,2.841-5.395c0.696-1.632,1.229-3.468,1.863-5.229c0.046,0.144,0.094,0.283,0.15,0.413    C260.293,71.46,261.036,73.086,261.552,75.037z M255.961,117.529c-0.085-5.064,0.186-10.273-0.196-15.371    c0.92,1.78,2.034,3.356,2.75,5.303c1.082,2.942,1.695,5.667,3.507,8.222c0.096,0.136,0.205,0.247,0.32,0.343    c-0.019,0.826,0.008,1.757,0.062,2.857c0.301,6.117-0.449,12.262-0.542,18.425c-1.794-0.074-3.59-0.07-5.364-0.031    C256.913,130.68,256.072,124.12,255.961,117.529z M253.066,31.745c0.406-0.5,0.442-0.853,0.552-1.047    c0.6,0.498,1.159,1.115,1.688,1.655c1.532,1.562,2.992,3.16,4.234,4.963c0.467,0.678,0.833,1.473,1.241,2.227    c-0.578,5.297-0.494,10.618-0.523,15.964c-0.013,2.425-0.212,4.916-0.172,7.367c-0.764-0.239-1.682,0.166-2.128,0.824    c-1.5,2.214-2.369,4.951-3.268,7.58c-0.055-1.46-0.36-2.824-1.268-3.78c-0.025-1.017-0.127-2.048-0.251-3.138    c-0.405-3.545-0.26-7.097-0.656-10.641c-0.695-6.216-0.281-12.49-1.564-18.613C251.613,33.862,252.325,32.657,253.066,31.745z     M249.634,115.403c0.736-0.938,1.79-2.711,1.856-2.852c0.407-0.869,0.772-1.775,1.115-2.692c0.006,2.58,0.063,5.152,0.067,7.671    c0.012,6.518,0.083,13.328,0.585,19.851c-0.356,0.015-0.717,0.027-1.069,0.043c-0.688,0.029-1.367,0.09-2.046,0.149    c-0.075-6.251-0.851-12.484-0.546-18.687C249.664,117.498,249.691,116.373,249.634,115.403z M251.097,76.781    c0.003,2.557,0.017,4.97,0.058,5.333c0.587,5.132-0.474,10.602,0.847,15.627c-0.338,1.051-0.57,2.144-0.818,3.072    c-0.823,3.086-2.346,6.651-3.156,10.1c-0.516-0.66-1.178-1.341-2.033-2.12c0.091-0.224,0.15-0.478,0.15-0.779    c0.013-6.433-0.117-12.717-0.53-19.087c0.086-0.082,0.167-0.175,0.229-0.295C247.726,84.947,249.597,80.889,251.097,76.781z     M240.71,123.732c-0.633-4.885-0.128-9.701-0.461-14.55c2.496,0.336,5.35,4.777,5.518,6.518c0.342,3.544-0.631,7.126-0.146,10.714    c0.506,3.743,0.514,7.383,0.512,11.161c-1.573,0.395-3.316,0.477-5.063,0.472C241.031,133.302,241.317,128.424,240.71,123.732z     M242.45,54.428c0.469-1.106,0.938-2.213,1.409-3.317c1.067-2.498,2.531-5.329,3.323-8.16c0.514-1.184,1.047-2.369,1.619-3.547    c0.031,0.474,0.065,0.956,0.098,1.464c0.243,3.868-0.647,7.601-0.189,11.494c0.63,5.336,0.033,11.046,0.828,16.406    c-0.968,3.291-2.476,6.528-3.743,9.814c0.008-2.16-0.303-4.23-1.552-5.933c-0.294-0.402-0.746-0.687-1.225-0.81    c0.029-2.977-0.349-6.082-0.379-8.666c-0.024-2.023,0.46-5.11-0.445-7.232C242.286,55.438,242.376,54.934,242.45,54.428z     M242.33,79.101c0.107,3.237-0.572,7.002-0.3,9.46c0.637,5.746,0.41,11.45,0.295,17.211c-1.453-0.918-3.061-1.404-4.562-0.36    c-1.2,0.834-1.996,2.871-2.782,4.236c0.267-4.956,0.932-10.103,1.38-14.899c0.077-0.835,0.19-1.84,0.281-2.925    C239.512,87.925,240.746,83.481,242.33,79.101z M237.269,137.987c-0.539-0.004-1.069-0.004-1.579,0.013    c-0.563,0.02-1.146,0.027-1.716,0.044c1.292-4.827-0.299-11.26-0.232-16.066c0.021-1.515-0.029-2.916-0.192-4.239    c0.783-1.07,2.589-4.662,4.153-6.832C236.469,119.817,237.356,128.992,237.269,137.987z M237.068,66.45    c0.8-1.62,1.555-3.263,2.297-4.914c-0.154,2.498-0.32,4.907-0.321,5.152c-0.018,3.278-0.618,7.097,0.337,10.303    c-0.699,2.084-1.325,4.216-2.166,6.205c-0.237,0.56-0.487,1.124-0.738,1.692c-0.298-1.443-0.836-2.727-1.752-3.643    c-0.55-0.55-1.339-0.586-2.004-0.258c-1.003,0.494-1.96,1.321-2.87,2.326C231.958,77.587,234.335,71.986,237.068,66.45z     M225.816,95.478c0.277-0.936,0.567-1.863,0.855-2.791c2.46-2.314,3.851-5.959,6.306-7.957c0.595,1.949-0.001,4.991-0.093,6.645    c-0.166,3.006-0.73,5.938-0.689,8.953c0.05,3.624-0.754,7.262-0.937,10.882c-0.711-1.09-1.607-2.156-2.741-3.224    c-2.233-2.102-4.483-1.088-6.515,1.097C223.226,104.55,224.471,100.018,225.816,95.478z M226.198,111.236    c0.214,0.131,0.442,0.319,0.686,0.577c6.284,6.663,1.895,17.963,4.071,26.309c-1.661,0.027-3.315,0.03-4.951,0.019    c-0.437-5.995-0.227-11.937,0.236-17.899C226.46,117.391,225.915,114.125,226.198,111.236z M217.672,125.067    c0.627-2.252,1.237-4.498,1.842-6.743c1.204-1.49,2.113-2.815,3.172-4.39c0.258-0.384,0.502-0.771,0.739-1.133    c-0.38,1.969-0.218,4.216-0.358,5.989c-0.5,6.368-0.532,12.8-1.022,19.192c-2.371-0.168-4.802-0.393-7.162-0.27    C215.865,133.498,216.51,129.234,217.672,125.067z M212.808,146.864c0.36-1.739,0.744-3.467,1.146-5.194    c2.161,0.369,4.401,0.497,6.496,0.612c3.932,0.215,7.649,0.719,11.623,0.658c4.69-0.073,9.589-0.11,14.262-0.512    c1.039-0.09,2.367-0.185,3.41-0.597c1.125-0.043,2.246-0.076,3.36-0.086c4.144-0.039,8.052,0.369,12.155,0.714    c1.793,0.15,3.4,0.32,4.981,0.249c3.235,0.141,6.507,0.182,9.687,0.232c3.973,0.062,7.692-0.442,11.623-0.658    c2.095-0.114,4.335-0.242,6.496-0.612c0.402,1.726,0.786,3.454,1.146,5.194c0.104,0.505,0.433,1.552,0.558,2.272    c-0.017,0.004-0.03,0.003-0.049,0.011c-0.31,0.127-0.575,0.288-0.796,0.475c-1.398,0.026-2.724,0.007-3.296,0.058    c-3.873,0.348-7.681,0.29-11.565,0.231c-3.282-0.049-6.461,0.243-9.617,0.713c-3.128-0.212-6.35,0.389-9.466,0.338    c-5.245-0.088-10.275-0.122-15.573-0.068c-4.135,0.042-8.204-0.191-12.305-0.34c-2.995-0.426-6.013-0.689-9.126-0.642    c-3.885,0.058-7.692,0.117-11.565-0.231c-0.57-0.052-1.897-0.033-3.296-0.058c-0.221-0.186-0.485-0.348-0.796-0.475    c-0.019-0.008-0.033-0.007-0.051-0.011C212.374,148.416,212.703,147.369,212.808,146.864z M264.806,504.945    c-3.419,0.066-6.78,0.061-10.257-0.192c-4.326-0.313-8.867,0.189-13.144-0.475c-0.292-0.045-0.779-0.156-1.111-0.15    c0.259-1.72,0.219-3.462,0.169-5.264c-0.108-3.985,0.232-7.617,0.506-11.582c0.311-4.501,0.808-8.978,1.272-13.461    c2.83,0.547,6.252,0.222,8.332,0.244c4.544,0.049,9.735,1.1,14.256-0.075c-0.088,4.37-0.215,8.733-0.188,13.097    C264.677,492.951,264.131,499.09,264.806,504.945z M264.882,470.229c-7.45-0.729-14.849-0.489-22.258-0.322    c0.196-2.071,0.387-4.144,0.554-6.216c3.209,0.762,8.161,0.186,9.708,0.222c3.448,0.08,8.435,0.794,12-0.236    c0.007,1.304,0.019,2.607,0.02,3.91C264.907,468.469,264.891,469.348,264.882,470.229z M256.217,459.108    c-1.516,0.029-3.078,0.091-4.618,0.169c0.236-2.914-0.302-5.888-0.279-8.822c0.027-3.633,0.096-7.27,0.122-10.91    c0.027-3.723-0.159-7.425-0.41-11.153c-0.004-0.065-0.006-0.134-0.01-0.2c0.096-2.006,0.193-4.014,0.258-6.022    c0.166-5.033,0.71-11.781,2.442-17.353c0.355,1.097,0.597,1.941,0.689,2.3c1.752,6.843,3.252,14.035,3.297,21.118    c0.038,5.954-0.426,11.798-0.823,17.728C256.633,449.757,255.122,455.18,256.217,459.108z M252.267,393.593    c-1.169-1.465-3.39-2.811-5.318-2.875c0.288-0.601,0.627-1.176,1.026-1.72c1.957-2.671,4.065-5.138,6.032-7.708    c0.314-0.206,0.634-0.399,0.968-0.56c0.352-0.169-0.232-1.371,1.555,1.072c0.524,0.716,0.902,1.564,1.286,2.359    c1.123,2.32,2.334,4.549,3.558,6.819c-1.033,0.664-2.852,1.693-3.21,2.028c-1.368,1.277-2.62,2.63-3.7,4.124    C253.842,395.861,253.123,394.665,252.267,393.593z M252.335,400.944c-2.199,5.236-2.74,11.896-3.133,17.393    c-0.479,6.699-0.806,13.503-0.816,20.212c0,0.329-0.008,0.661-0.01,0.991c-0.062,0.815-0.118,1.629-0.159,2.445    c-0.294,5.828-0.872,11.705-0.137,17.519c-1.746,0.146-3.354,0.33-4.634,0.567c0.525-7.176,0.911-14.359,1.193-21.54    c0.438-11.173,0.343-22.381,0.628-33.569c0.093-3.667-0.178-7.919,0.761-11.635C248.269,392.213,250.672,396.746,252.335,400.944z     M264.612,429.383c0.002,9.952,0.171,19.901,0.25,29.862c-1.11-0.094-2.878-0.15-4.951-0.163c0.944-2.859,0.673-6.618,0.651-9.561    c-0.016-2.024,0.092-4.084-0.072-6.103c0.221-2.331,0.453-4.663,0.53-7.004c0.275-8.369-0.386-16.329-2.274-24.494    c-0.853-3.687-1.626-7.964-3.035-11.858c0.088-0.156,0.168-0.32,0.259-0.471c1.665-2.777,4.121-4.486,6.389-6.659    c2.434,5.457,2.227,11.445,2.507,17.387C265.165,416.678,264.61,423.033,264.612,429.383z M285.672,488.468    c0.053,4.795-0.676,9.954-0.205,14.787c-0.711,0.03-1.424,0.044-2.134,0.088c-3.246,0.201-8.155-0.631-11.068,1.28    c-0.798,0.046-1.586,0.101-2.358,0.149c-1.051-7.204-0.243-15.386,0.056-22.607c0.333-8.021,0.136-16.095,0.14-24.128    c0.009-13.916-0.016-27.784,0.002-41.693c0.009-6.293,0.199-12.982-0.793-19.207c-0.911-5.714-4.515-11.509-7.552-16.343    c-1.618-2.574-4.863-6.559-8.259-4.533c-1.893,1.13-3.584,4.019-4.954,6.046c-0.935,1.147-1.814,2.273-2.645,3.21    c-2.822,3.186-3.77,6.138-4.235,10.282c-1.38,12.294-1.524,25.043-1.779,37.403c-0.232,11.271-1.843,22.44-2.643,33.671    c-0.419,5.876-1.296,11.702-1.669,17.577c-0.399,6.313-0.119,12.64-0.359,18.93c-2.27-0.148-4.685,0.077-6.551-0.038    c-0.71-0.044-1.423-0.057-2.134-0.088c0.47-4.833-0.258-9.993-0.205-14.787c0.079-7.087-0.957-14.116-0.715-21.253    c0.415-12.241,1.679-24.484,1.584-36.773c-0.047-6.284,0.31-12.443,0.789-18.695c0.505-6.59,0.291-13.314,2.313-19.696    c1.95-6.157,6.243-11.157,9.564-16.571c1.609-2.625,3.404-5.155,5.168-7.676c0.343-0.49,0.677-1.038,1.01-1.603    c4.608-5.991,9.832-12.353,14.146-7.033c5.058,6.239,8.197,14.234,13.546,20.242c0.22,0.617,0.441,1.208,0.685,1.712    c1.431,2.975,3.26,5.728,4.92,8.568c1.413,2.415,2.554,4.829,3.521,7.297c0.801,4.864,0.78,9.85,1.157,14.761    c0.479,6.252,0.836,12.413,0.789,18.695c-0.094,12.288,1.169,24.531,1.584,36.773    C286.629,474.353,285.595,481.381,285.672,488.468z M302.746,503.25c-0.026,0-0.052-0.001-0.077-0.002    c-3.253-0.055-6.522-0.131-9.789-0.143c-0.126-0.295-0.3-0.564-0.531-0.798c-0.265-2.818,0.193-5.925,0.172-8.666    c-0.03-3.945-0.209-7.76,0.214-11.683c0.64-5.918,0.539-12.343-0.037-18.267c-1.345-13.849-0.641-27.844-1.72-41.724    c-0.941-12.11-0.659-25.759-6.66-36.682c-3.006-5.474-7.022-10.307-10.767-15.267c-0.969-1.768-2.065-3.467-3.068-5.092    c-2.472-4.004-4.881-9.137-8.933-11.726c-8.308-5.31-15.491,4.185-19.98,12.479c-1.07,1.474-2.068,2.939-3.016,4.199    c-3.775,5.011-7.839,9.883-10.874,15.409c-6.001,10.924-5.718,24.574-6.66,36.683c-1.079,13.881-0.375,27.875-1.72,41.724    c-0.576,5.924-0.676,12.349-0.037,18.267c0.423,3.923,0.245,7.738,0.214,11.683c-0.02,2.742,0.437,5.848,0.172,8.666    c-0.232,0.233-0.406,0.503-0.531,0.798c-3.268,0.011-6.536,0.086-9.789,0.143c-0.026,0-0.052,0.001-0.077,0.002    c-1.11-16.814-0.404-33.381-0.412-50.224c-0.004-9.591,0.728-19.215,0.452-28.79c-0.256-8.867,1.284-17.836,1.212-26.764    c-0.151-18.861-0.612-37.672-0.658-56.545c-0.046-18.931,0.492-37.826,0.422-56.728c-0.042-11.263-0.033-22.549-0.65-33.798    c-0.003-0.057-0.005-0.114-0.008-0.172c0.456-4.455,0.784-8.923,0.974-13.511c0.454-10.965-0.129-21.814-0.242-32.766    c-0.096-9.421,0.479-18.724,0.424-28.172c-0.029-5.145-0.082-10.282-0.31-15.423c-0.084-1.885,0.095-3.795,0.091-5.661    c2.552,0.848,5.881,1.069,7.694,1.279c6.193,0.716,12.46,0.806,18.657,0.286c4.578,0.25,9.218,0.121,13.591,0.157    c6.709,0.056,13.607,0.522,20.21-0.623c7.617,1.008,15.393,1.065,23.054,0.18c1.812-0.21,5.143-0.431,7.693-1.279    c-0.005,1.866,0.175,3.776,0.091,5.661c-0.229,5.141-0.281,10.277-0.31,15.423c-0.055,9.448,0.522,18.75,0.424,28.172    c-0.113,10.953-0.697,21.801-0.242,32.766c0.19,4.588,0.518,9.056,0.974,13.511c-0.002,0.057-0.005,0.115-0.008,0.172    c-0.617,11.249-0.608,22.535-0.65,33.798c-0.07,18.902,0.469,37.797,0.422,56.728c-0.046,18.871-0.506,37.683-0.658,56.545    c-0.071,8.93,1.468,17.897,1.212,26.764c-0.276,9.576,0.457,19.2,0.452,28.79C303.15,469.869,303.855,486.437,302.746,503.25z     M313.91,502.118c-0.71,0.017-2.094,0.357-3.283,0.505c1.217-19.059,0.367-37.935,0.321-57.042    c-0.044-18.248-1.73-36.297-1.701-54.514c0.029-18.818,0.498-37.616,0.452-56.455c-0.08-32.759-0.27-65.582-2.602-98.216    c0.416-10.543-0.154-20.961-0.248-31.489c-0.079-8.713-0.544-17.298-0.659-25.991c1.709,1.007,3.728,2.033,4.556,3.259    c1.113,1.646-0.126,6.846-0.168,8.878c-0.139,6.693,0.475,13.488-0.028,20.141c-0.387,5.129,0.234,10.232-0.036,15.368    c-0.163,3.091-0.552,7.061,1.765,9.447c0.044,8.069-0.015,16.141-0.062,24.228c-0.031,5.441,0.613,10.732,0.423,16.185    c-0.159,4.594,0.848,9.006,0.673,13.571c-0.41,10.667,0.545,21.311,0.451,31.992c-0.089,9.982,1.106,19.868,1.103,29.857    c-0.004,11.578-0.024,23.156-0.027,34.733c-0.003,9.263,0.551,18.467,0.545,27.773c-0.007,11.225-0.022,22.451-0.006,33.675    c0.015,10.055,0.235,20.139,0.63,30.193c0.183,4.647,0.214,9.377,0.674,13.995c0.333,3.351,0.267,6.714,0.521,10.064    C316.11,502.171,315.025,502.091,313.91,502.118z M327.013,502.724c-1.694,0.009-3.388-0.001-5.08-0.073    c-0.582-4.703-0.449-9.74-0.727-14.404c-0.337-5.648-0.566-11.321-0.569-16.979c-0.007-11.54-0.573-23.043-0.58-34.608    c-0.006-10.464-0.079-20.929-0.018-31.392c0.053-9.03-0.571-17.943-0.577-26.998c-0.007-11.197,0.692-22.666-0.212-33.827    c-0.79-9.754-0.945-19.434-0.956-29.221c-0.022-20.053-1.742-39.966-1.844-59.963c-0.053-10.31,0.527-20.739-0.217-31.027    c-0.072-0.992-0.128-1.977-0.182-2.961c0.001-0.718-0.005-1.44-0.008-2.169c-0.004-1.432,0.045-2.859,0.12-4.285    c0.096,0.045,0.191,0.089,0.295,0.137c3.09,1.43,3.908,2.249,4.579,5.407c0.912,4.292,0.327,9.159,0.268,13.503    c-0.11,8.228,1.538,16.807,0.835,24.949c-0.546,6.323,0.105,13.145,0.831,19.446c0.885,7.683-0.163,15.568,0.944,23.242    c-0.011,2.141-0.019,4.281-0.03,6.415c-0.046,8.179-0.745,16.636-0.061,24.775c1.577,18.758,1.493,37.718,1.514,56.619    c0.01,9.833-0.793,20.033,0.136,29.815c0.826,8.703,0.986,17.55,0.944,26.293c-0.044,9.157,0.601,18.425,0.599,27.655    C327.018,482.956,327.016,492.84,327.013,502.724z M331.971,502.693c-0.031-19.106-0.245-38.249-0.613-57.275    c-0.16-8.304,0.118-16.798-0.785-25.059c-1.112-10.18-0.31-20.801-0.325-31.048c-0.018-10.589,0.693-21.484-0.15-32.04    c-0.62-7.769-0.164-15.807-1.113-23.52c-1.366-11.094-1.046-22.378-0.931-33.661c1.247-5.458,1.172-11.116,0.84-16.761    c1.102,0.55,2.23,1.05,3.355,1.545c3.862,1.697,4.189,4.183,3.836,8.152c-0.478,5.366-0.978,10.344-1.013,15.774    c-0.037,5.818,0.61,11.6,0.864,17.421c0.132,3.038,0.117,6.136,0.355,9.189c0.137,5.048,0.33,10.101,0.726,15.108    c0.304,3.841-0.423,7.778-0.132,11.632c0.336,4.469,0.576,8.705,0.53,13.23c-0.102,10.195-0.003,20.399,0.029,30.595    c0.058,18.245-0.784,36.397-0.92,54.604c-0.052,7.012-0.696,13.754,0.239,20.79c0.904,6.806,2.049,14.459,1.927,21.516    C336.451,502.768,334.212,502.694,331.971,502.693z M349.516,370.524c-0.048,16.076-0.064,32.154-0.062,48.23    c0.004,28.297,0.195,56.572-1.433,84.758c-1.649-0.125-3.299-0.249-4.95-0.362c0.165-2.765-0.534-5.605-0.671-8.356    c-0.194-3.912-0.205-7.821-0.467-11.707c-0.219-3.258-0.949-6.551-1.096-9.849c-0.169-3.792,0.587-7.451,0.756-11.197    c0.21-4.651-0.231-9.084,0.333-13.742c0.506-4.178,0.284-8.365,0.177-12.57c-0.232-9.147,0.73-18.372,0.76-27.57    c0.033-10.199-0.001-20.396,0.036-30.595c0.031-8.513-0.471-16.83-0.557-25.313c-0.039-3.9-0.674-7.731-0.719-11.658    c-0.01-0.874-0.007-1.75-0.001-2.627c0.947-5.563,0.827-11.632,0.812-17.037c0.024,0.008,0.046,0.012,0.071,0.02    c1,0.323,3.788,0.432,4.598,0.906c2.359,1.378,1.474,3.904,1.37,6.09c-0.35,7.368-0.171,15.208,1.262,22.555    C349.61,357.173,349.536,363.85,349.516,370.524z M363.463,504.348c-2.133-0.055-4.261-0.127-6.374-0.232    c-1.363-0.067-2.727-0.154-4.09-0.245c1.137-12.278,1.394-24.84,1.417-37.137c0.031-16.357,0.004-32.714,0.007-49.069    c0.002-16.447,0.033-32.897-0.065-49.343c-0.035-5.882-0.129-11.763-0.233-17.643c0.602-2.962,0.982-5.945,1.048-8.969    c0.114,0.012,0.227,0.026,0.347,0.038c3.711,0.365,6.003,1.744,6.375,5.881c0.414,4.602-0.189,9.408-0.223,14.026    c-0.045,5.936-0.284,11.91,0.092,17.837c0.245,3.865-0.091,7.185,1.347,10.414c-0.2,5.444-0.735,10.772-0.687,16.25    c0.061,6.924,0.521,13.81,0.521,20.763c-0.002,14.183-0.004,28.367-0.007,42.55c-0.001,6.528,0.174,12.959,0.499,19.471    C363.676,493.728,364.191,499.415,363.463,504.348z M368.417,504.435c0.588-4.449,0.122-9.304,0.018-13.594    c-0.156-6.417-0.563-12.78-0.564-19.214c-0.001-14.56-0.005-29.121-0.007-43.681c-0.001-7.322-0.322-14.505-0.603-21.791    c-0.245-6.38,0.491-12.64,0.359-19.043c-0.02-0.982-0.038-1.96-0.057-2.94c0.129-0.589,0.238-1.186,0.292-1.803    c0.314-3.679,0.254-7.405,0.229-11.094c-0.005-0.715,0.001-1.43,0-2.144c0.021,0.009,0.037,0.018,0.058,0.028    c1.055,0.475,2.605,0.525,3.522,1.048c3.481,1.983,1.35,9.198,1.243,12.518c-0.229,7.121-1.956,15.366,0.444,22.214    c-0.009,0.432-0.022,0.861-0.031,1.293c-0.24,11.872-0.518,23.754-0.57,35.628c-0.047,10.99,0.781,21.912,0.812,32.926    c0.029,9.868-0.399,19.88,0.619,29.7C372.263,504.473,370.34,504.461,368.417,504.435z M383.846,504.551    c-1.616-0.013-3.245-0.021-4.871-0.03c0.163-4.217-0.485-8.385-0.463-12.657c0.03-6.023,0.035-12.046,0.053-18.069    c0.031-10.689-0.82-21.281-0.766-31.934c0.061-11.91,0.138-23.794-0.098-35.703c0.938-4.631,0.718-9.251,0.982-13.974    c0.713,0.379,1.442,0.661,1.882,0.835c2.179,0.858,3.646,0.347,4.437,2.698c0.846,2.512-0.081,6.707-0.348,9.254    c-0.601,5.759-0.096,11.147,0.249,16.861c0.241,4.003-0.912,7.342,0.587,10.79c-0.033,6.968-0.064,13.936-0.202,20.902    c-0.08,4.018-0.894,7.915-0.693,11.949c0.219,4.402,0.957,8.613,0.811,13.042c-0.284,8.639,0.184,17.397,0.56,26.055    L383.846,504.551z M397.273,439.419c0.007,2.334-0.092,4.716,0.387,6.948c-0.226,4.496-0.468,8.989-0.515,13.497    c-0.156,14.943-0.981,29.853-0.506,44.795l-5.818-0.049c0.228-8.431-0.641-16.75-0.329-25.142    c0.166-4.493-0.344-8.611-0.683-13.062c-0.311-4.083,0.647-7.986,0.614-12.047c-0.062-7.481-0.137-14.962-0.202-22.444    c1.212-4.075,0.98-9.469,0.516-13.208c-0.529-4.265-0.324-8.446-0.136-12.646c0.609,0.303,1.224,0.583,1.838,0.758    c1.165,0.333,3.328-0.143,4.249,0.467c1.884,1.247,0.569,11.417,0.57,14.247C397.264,427.495,397.255,433.457,397.273,439.419z     M414.495,466.623c-1.424,12.453-0.711,25.606-0.481,38.174c-0.821-0.006-1.643-0.005-2.464-0.011l-10.047-0.085    c0.553-14.94,0.765-29.888,0.608-44.837c-0.034-3.232,0.025-6.457,0.092-9.679c0.001-0.003,0.003-0.004,0.005-0.007    c2.231-4.571,0.899-12.048,0.902-17.054c0.003-4.062-0.002-8.124-0.003-12.186c0.9,0.565,1.927,0.928,3.057,1.041    c2.658,0.265,6.133-0.726,7.38,2.839c0.67,1.917-0.015,5.268-0.022,7.308c-0.035,9.594-1.865,21.581,1.277,30.955    C414.721,464.266,414.629,465.448,414.495,466.623z M431.196,504.843c-4.099-0.006-8.199-0.008-12.298-0.025    c0.191-12.872-0.479-25.821,0.375-38.625c0.226-3.38,0.198-6.804,0.099-10.229c0.259-3.677,0.084-7.434,0.072-11.011    c-0.012-3.639,0.173-7.406,0.246-11.162c4.474,1.936,10.116,0.672,10.973,6.892c0.616,4.472-0.907,10.016-0.861,14.631    c0.049,5.001,0.229,10.159,0.834,15.114c0.175,1.436,0.34,2.907,0.764,4.234C431.041,484.663,429.708,494.937,431.196,504.843z     M445.667,458.557c-0.126,8.756-2.485,17.842,0.279,26.278c-0.037,3.117-0.054,6.234,0.025,9.347    c0.093,3.628-0.557,7.203-0.45,10.788c-1.675-0.061-3.347-0.107-5.011-0.109c-1.403-0.001-2.804-0.007-4.206-0.008    c0.036-9.014,0.116-18.058,0.011-27.099c0.187-0.264,0.312-0.579,0.325-0.937c0.166-4.478-0.102-9.179-0.617-13.66    c-0.092-4.41-0.176-8.819-0.307-13.226c0.098-1.623,0.219-3.244,0.347-4.863c1.037,0.461,2.097,0.811,3.253,1.047    c1.721,0.35,4.079-0.156,5.604,0.781c1.363,0.119,1.623,0.187,0.779,0.204c-0.011,1.305-0.016,2.61-0.013,3.916    C445.678,453.529,445.702,456.044,445.667,458.557z M458.715,455.387c-0.192,2.013-0.117,4.034-0.24,6.05    c-0.286,4.651-0.515,9.156-0.495,13.823c0.009,1.919-0.088,3.862,0.057,5.746c-0.145,2.526-0.252,5.053-0.293,7.556    c-0.082,5.102-0.699,10.133-0.824,15.221c-0.013,0.56-0.012,1.14,0.028,1.707c-2.197-0.09-4.397-0.2-6.597-0.312    c1.157-8.879,0.567-17.921,0.496-26.881c-0.026-3.324-0.09-6.645-0.172-9.968c0.01-0.265,0.019-0.531,0.03-0.796    c0.258-5.918,0.516-11.774,0.476-17.697c2.222,1.827,4.613,2.13,7.355,3.305c0.177,0.033,0.333,0.058,0.471,0.077    C458.911,453.944,458.812,454.666,458.715,455.387z M470.889,468.948c-0.045,5.141-1.142,12.367-0.044,18.111    c-0.552,6.113-1.229,12.334-0.866,18.34c-0.924,0.062-1.838,0.118-2.723,0.158c-1.661,0.075-3.332,0.086-5.006,0.074    c0.393-6.715,0-13.562,0.303-20.29c1.848-4.202,1.018-9.506,1-13.993c-0.018-4.3,0.378-8.573,0.697-12.849    c1.196,0.698,2.494,0.73,4.028,1.285c2.317,0.839,2.345,0.191,2.602,3.104C471.057,464.905,470.907,466.922,470.889,468.948z     M485.89,491.63c-0.034,1.186-0.062,2.374-0.088,3.565c-0.037,1.686,0.579,4.926-0.123,6.322c-1.329,2.637-3.83,2.649-6.159,2.947    c-1.406,0.18-2.886,0.342-4.38,0.493c0.163-5.121,0.497-10.247,0.705-15.376c1.391-4.125,0.63-9.06,0.633-13.334    c0.003-3.891,0.328-7.943,0.139-11.889c2.571,0.819,4.984-0.036,7.855,0.776c1.582,0.448,1.171-0.209,1.628,1.568    c0.367,1.427-0.274,3.628-0.402,5.098C485.203,477.474,483.848,485.719,485.89,491.63z"/>
	</g>
</g>
<g>
	<g>
		<path d="M267.863,163.691c-6.911-5.948-17.194-6.238-23.295-0.742c-0.596,0.355-1.166,0.751-1.695,1.178    c-2.291,1.853-4.38,4.933-5.628,7.581c-2.669,5.659-2.949,12.351,0.24,17.9c6.292,10.947,21.663,11.634,30.707,4.176    C277.568,186.052,276.971,171.529,267.863,163.691z M262.552,191.8c-8.546,4.32-19.926,0.862-22.503-8.88    c-1.293-4.889,0.651-9.699,3.557-13.613c1.954-2.63,4.459-3.821,6.948-5.379c0.223-0.071,0.434-0.155,0.667-0.214    c5.607-1.448,10.98-0.274,15.006,4.053C273.163,175.221,271.935,187.057,262.552,191.8z"/>
	</g>
</g>
<g>
	<g>
		<path d="M262.142,214.442c-0.191-2.77,0.533-5.465-2.465-6.485c-2.402-0.817-7.603-1.165-9.881-0.01    c-2.172,1.101-2.089,3.252-1.539,5.281c-0.539,2.993-0.744,5.942-0.802,9.098c-0.044,2.366-1.243,7.281,1.738,8.466    c1.22,0.485,2.969,0.541,4.238,0.864c1.579,0.402,2.822,0.371,4.446,0.125c3.043-0.461,4.331-1.623,4.576-4.766    C262.772,222.902,262.425,218.556,262.142,214.442z M259.138,225.98c-0.831,3.586-3.72,1.763-6.224,1.263    c-0.444-0.089-1.25-0.049-1.773-0.132c-0.011-0.809-0.021-1.618-0.026-2.427c-0.061-4.061,0.127-8.575-0.573-12.688    c0.307-0.879,0.818-1.1,2.656-1.123c0.921-0.011,5.417-0.093,5.444-0.061c0.188,0.228-0.06,2.253-0.022,2.686    c0.127,1.486,0.352,2.915,0.45,4.402C259.23,220.349,259.691,223.593,259.138,225.98z"/>
	</g>
</g>
<g>
	<g>
		<path d="M262.142,244.415c-0.191-2.772,0.533-5.465-2.465-6.485c-2.402-0.817-7.603-1.165-9.881-0.01    c-2.172,1.101-2.089,3.252-1.539,5.281c-0.539,2.993-0.744,5.941-0.802,9.098c-0.044,2.367-1.243,7.281,1.738,8.466    c1.22,0.485,2.969,0.541,4.238,0.864c1.579,0.402,2.822,0.371,4.446,0.125c3.043-0.461,4.331-1.623,4.576-4.766    C262.772,252.874,262.425,248.528,262.142,244.415z M259.138,255.952c-0.831,3.586-3.72,1.763-6.224,1.263    c-0.444-0.089-1.25-0.049-1.773-0.132c-0.011-0.809-0.021-1.618-0.026-2.427c-0.061-4.061,0.127-8.575-0.573-12.688    c0.307-0.879,0.818-1.1,2.656-1.123c0.921-0.011,5.417-0.093,5.444-0.062c0.188,0.228-0.06,2.253-0.022,2.686    c0.127,1.486,0.352,2.915,0.45,4.402C259.23,250.322,259.691,253.566,259.138,255.952z"/>
	</g>
</g>
<g>
	<g>
		<path d="M262.142,274.387c-0.191-2.772,0.533-5.465-2.465-6.485c-2.402-0.817-7.603-1.165-9.881-0.01    c-2.172,1.101-2.089,3.252-1.539,5.281c-0.539,2.993-0.744,5.942-0.802,9.098c-0.044,2.367-1.243,7.281,1.738,8.466    c1.22,0.485,2.969,0.541,4.238,0.864c1.579,0.402,2.822,0.371,4.446,0.125c3.043-0.461,4.331-1.623,4.576-4.766    C262.772,282.847,262.425,278.501,262.142,274.387z M259.138,285.925c-0.831,3.586-3.72,1.763-6.224,1.263    c-0.444-0.089-1.25-0.05-1.773-0.132c-0.011-0.809-0.021-1.618-0.026-2.427c-0.061-4.061,0.127-8.575-0.573-12.688    c0.307-0.879,0.818-1.1,2.656-1.123c0.921-0.011,5.417-0.093,5.444-0.061c0.188,0.228-0.06,2.253-0.022,2.686    c0.127,1.486,0.352,2.915,0.45,4.402C259.23,280.294,259.691,283.538,259.138,285.925z"/>
	</g>
</g>
<g>
	<g>
		<path d="M262.142,304.361c-0.191-2.773,0.533-5.466-2.465-6.486c-2.402-0.817-7.603-1.165-9.881-0.01    c-2.172,1.101-2.089,3.252-1.539,5.281c-0.539,2.993-0.744,5.941-0.802,9.098c-0.044,2.367-1.243,7.281,1.738,8.466    c1.22,0.485,2.969,0.541,4.238,0.864c1.579,0.402,2.822,0.371,4.446,0.126c3.043-0.461,4.331-1.623,4.576-4.766    C262.772,312.82,262.425,308.474,262.142,304.361z M259.138,315.897c-0.831,3.586-3.72,1.763-6.224,1.263    c-0.444-0.089-1.25-0.049-1.773-0.132c-0.011-0.809-0.021-1.618-0.026-2.427c-0.061-4.061,0.127-8.575-0.573-12.688    c0.307-0.879,0.818-1.1,2.656-1.123c0.921-0.011,5.417-0.093,5.444-0.061c0.188,0.228-0.06,2.253-0.022,2.686    c0.127,1.486,0.352,2.915,0.45,4.402C259.23,310.266,259.691,313.51,259.138,315.897z"/>
	</g>
</g>
<g>
	<g>
		<path d="M260.225,169.844c-2.187,2.595-5.153,5.792-6.57,9.028c-1.032,0.514-2.46,0.357-3.629,0.598    c-1.743,0.359-3.417,0.971-5.176,1.302c-2.013,0.378-1.582,3.857,0.489,3.617c2.221-0.258,4.301-0.974,6.486-1.276    c1.397-0.193,2.655-0.255,3.759-1.255c2.041-1.848,3.434-4.527,4.861-7.054c0.498-0.846,0.985-1.682,1.489-2.457    c0.174-0.263,0.344-0.531,0.526-0.779C263.409,170.273,261.265,168.609,260.225,169.844z"/>
	</g>
</g>
<g>
</g>
<g>
</g>
<g>
</g>
<g>
</g>
<g>
</g>
<g>
</g>
<g>
</g>
<g>
</g>
<g>
</g>
<g>
</g>
<g>
</g>
<g>
</g>
<g>
</g>
<g>
</g>
<g>
</g>
</svg>
