<?xml version="1.0" encoding="iso-8859-1"?>
<!-- Generator: Adobe Illustrator 19.0.0, SVG Export Plug-In . SVG Version: 6.00 Build 0)  -->
<svg xmlns="http://www.w3.org/2000/svg" xmlns:xlink="http://www.w3.org/1999/xlink" version="1.1" id="Layer_1" x="0px" y="0px" viewBox="0 0 511.999 511.999" style="enable-background:new 0 0 511.999 511.999;" xml:space="preserve">
<g>
	<g>
		<path d="M156.446,397.11c-1.195-11.187,0.145-22.494-0.675-33.683c-0.251-3.439,0.353-9.504-1.746-12.635    c-2.285-3.407-7.03-2.714-10.6-3.142c-5.952-0.715-19.429-0.693-19.323,8.103c-1.382,3.834-0.95,9.106-1.261,13.026    c-0.443,5.576-0.862,11.231-1.028,16.826c-0.345,11.668,0.864,23.468,0.834,35.195c-0.014,5.378-0.16,10.77-0.063,16.147    c0.065,3.577,0.428,7.621,3.173,10.257c2.343,2.25,6.606,3.262,9.759,3.365c4.327,0.141,9.199,0.176,13.449-0.881    c9.011-2.241,7.402-15.223,8.35-22.243C158.613,417.842,157.472,406.727,156.446,397.11z M150.946,430.7    c-0.585,4.089,0.584,11.311-4.375,12.615c-3.348,0.879-8.218,0.762-11.766,0.512c-6.736-0.476-5.744-6.861-5.747-11.849    c-0.007-10.767-0.007-21.486-0.703-32.207c-0.628-9.678-1.051-19.483-0.324-29.197c0.292-3.901-0.425-11.957,2.676-14.567    c2.327-1.959,7.765-2.078,11.691-2.673c0.375,0.031,0.724,0.061,1.005,0.082c1.662,0.125,4.862-0.531,6.098,0.977    c0.893,1.09,0.108,4.405,0.242,5.66c0.957,8.959,0.265,17.997,1.175,26.976c0.991,9.78,1.443,20.039,1.309,29.89    C152.161,421.682,151.618,426.005,150.946,430.7z"/>
	</g>
</g>
<g>
	<g>
		<path d="M156.446,248.353c-1.195-11.189,0.145-22.494-0.675-33.683c-0.251-3.439,0.353-9.504-1.746-12.635    c-2.285-3.407-7.03-2.714-10.6-3.142c-5.952-0.715-19.429-0.693-19.323,8.103c-1.382,3.834-0.95,9.106-1.261,13.026    c-0.443,5.576-0.862,11.231-1.028,16.826c-0.345,11.668,0.864,23.468,0.834,35.195c-0.014,5.378-0.16,10.77-0.063,16.147    c0.065,3.577,0.428,7.621,3.173,10.257c2.343,2.25,6.606,3.262,9.759,3.365c4.327,0.141,9.199,0.176,13.449-0.881    c9.011-2.241,7.402-15.223,8.35-22.243C158.613,269.085,157.472,257.971,156.446,248.353z M150.946,281.942    c-0.585,4.089,0.584,11.311-4.375,12.615c-3.348,0.88-8.218,0.762-11.766,0.512c-6.736-0.476-5.744-6.861-5.747-11.849    c-0.007-10.767-0.007-21.486-0.703-32.207c-0.628-9.678-1.051-19.483-0.324-29.197c0.292-3.901-0.425-11.956,2.676-14.567    c2.327-1.959,7.765-2.078,11.691-2.673c0.375,0.031,0.724,0.061,1.005,0.082c1.662,0.125,4.862-0.531,6.098,0.977    c0.893,1.09,0.108,4.405,0.242,5.66c0.957,8.959,0.265,17.997,1.175,26.976c0.991,9.781,1.443,20.039,1.309,29.89    C152.161,272.924,151.618,277.248,150.946,281.942z"/>
	</g>
</g>
<g>
	<g>
		<path d="M390.189,385.606c-0.166-5.595-0.585-11.25-1.028-16.826c-0.312-3.92,0.121-9.192-1.261-13.026    c0.105-8.796-13.372-8.818-19.323-8.103c-3.571,0.429-8.316-0.264-10.6,3.142c-2.1,3.131-1.495,9.194-1.746,12.635    c-0.82,11.189,0.519,22.494-0.674,33.682c-1.026,9.617-2.167,20.732-0.869,30.335c0.949,7.02-0.66,20.002,8.35,22.243    c4.25,1.057,9.123,1.023,13.449,0.881c3.153-0.103,7.416-1.115,9.759-3.365c2.745-2.636,3.108-6.68,3.173-10.257    c0.097-5.375-0.05-10.769-0.064-16.147C389.324,409.074,390.534,397.274,390.189,385.606z M383.647,399.77    c-0.696,10.72-0.696,21.44-0.703,32.207c-0.003,4.988,0.988,11.373-5.747,11.849c-3.548,0.251-8.417,0.368-11.766-0.512    c-4.961-1.304-3.791-8.526-4.375-12.615c-0.672-4.695-1.216-9.018-1.28-13.781c-0.133-9.853,0.319-20.111,1.309-29.89    c0.91-8.979,0.218-18.017,1.175-26.976c0.134-1.255-0.652-4.57,0.242-5.66c1.235-1.508,4.437-0.852,6.098-0.977    c0.28-0.021,0.629-0.051,1.005-0.082c3.927,0.596,9.365,0.714,11.691,2.673c3.101,2.612,2.383,10.666,2.675,14.567    C384.698,380.287,384.275,390.092,383.647,399.77z"/>
	</g>
</g>
<g>
	<g>
		<path d="M390.189,236.847c-0.166-5.593-0.585-11.249-1.028-16.825c-0.312-3.92,0.121-9.192-1.261-13.026    c0.105-8.796-13.372-8.818-19.323-8.103c-3.571,0.429-8.316-0.264-10.6,3.142c-2.1,3.131-1.495,9.194-1.746,12.635    c-0.82,11.189,0.519,22.494-0.674,33.682c-1.026,9.617-2.167,20.732-0.869,30.335c0.949,7.019-0.66,20.002,8.35,22.243    c4.25,1.057,9.123,1.023,13.449,0.881c3.153-0.103,7.416-1.115,9.759-3.365c2.745-2.636,3.108-6.68,3.173-10.257    c0.097-5.376-0.05-10.769-0.064-16.147C389.324,260.315,390.534,248.517,390.189,236.847z M383.647,251.013    c-0.696,10.72-0.696,21.44-0.703,32.207c-0.003,4.988,0.988,11.373-5.747,11.849c-3.548,0.25-8.417,0.368-11.766-0.512    c-4.961-1.304-3.791-8.526-4.375-12.615c-0.672-4.695-1.216-9.018-1.28-13.781c-0.133-9.853,0.319-20.111,1.309-29.89    c0.91-8.979,0.218-18.017,1.175-26.976c0.134-1.255-0.652-4.57,0.242-5.66c1.235-1.508,4.437-0.852,6.098-0.977    c0.28-0.021,0.629-0.051,1.005-0.082c3.927,0.596,9.365,0.714,11.691,2.673c3.101,2.612,2.383,10.666,2.675,14.567    C384.698,231.53,384.275,241.336,383.647,251.013z"/>
	</g>
</g>
<g>
	<g>
		<path d="M426.758,488.599c0.754-2.616,0.518-5.723-0.236-8.598c-0.001-0.34-0.002-0.678,0.002-1.014    c0.071-4.985,0.039-9.974,0.039-14.959c0-9.498,0.494-18.935,0.455-28.416c-0.038-9.402-0.433-18.834,0.326-28.173    c0.742-9.131-0.22-18.3,0.634-27.437c0.41-4.395-0.153-8.708-0.116-13.109c0.036-4.247,0.555-8.418,0.523-12.689    c-0.07-8.829,0.213-17.58,0.371-26.39c0.151-8.438-0.185-16.947-0.503-25.408c-0.029-8.505-0.118-17.009-0.341-25.513    c-0.536-20.568-2.409-41.748-0.625-62.244c0.981-11.272,0.117-22.95,0.09-34.262c-0.027-11.199-0.008-22.356-0.576-33.539    c-0.503-9.923-0.827-20.316,0.078-30.182c0.959-10.467,0.093-21.42,0.045-31.937c-0.089-19.974,0.826-40.012-0.231-59.975    c1.261-0.002,2.52-0.003,3.777,0.01c3.532,0.043,7.422-0.399,9.161-3.9c1.412-2.846,1.362-9.118,0.52-12.08    c-3.036-10.692-19.048-6.537-26.837-6.248c-12.011,0.448-24.367-1.088-36.362-1.903c-13.428-0.912-26.565-0.073-39.958,0.059    c-12.494,0.123-24.836-0.766-37.291-0.687c-6.446,0.041-12.783,0.652-19.108,1.448c-10.203-1.523-20.582-0.925-30.99-0.913    c-6.999,0.007-13.996,0.053-20.995,0.075c-1.275,0.003-2.543,0.044-3.81,0.096c-4.141-0.403-8.301-0.678-12.507-0.706    c-12.454-0.079-24.795,0.81-37.291,0.687c-13.393-0.132-26.529-0.971-39.958-0.059c-11.996,0.815-24.351,2.351-36.362,1.903    c-7.789-0.291-23.8-4.445-26.837,6.248c-0.841,2.962-0.892,9.234,0.52,12.08c1.738,3.503,5.628,3.943,9.16,3.9    c1.257-0.015,2.518-0.014,3.777-0.01c-1.057,19.964-0.14,40.001-0.231,59.975c-0.046,10.517-0.913,21.47,0.045,31.937    c0.904,9.866,0.581,20.259,0.078,30.182c-0.568,11.183-0.548,22.341-0.576,33.539c-0.028,11.314-0.891,22.99,0.09,34.262    c1.784,20.497-0.088,41.676-0.625,62.244c-0.222,8.504-0.312,17.008-0.341,25.513c-0.318,8.46-0.654,16.971-0.503,25.408    c0.158,8.81,0.439,17.562,0.371,26.39c-0.034,4.271,0.487,8.444,0.523,12.689c0.037,4.401-0.526,8.714-0.116,13.109    c0.854,9.139-0.109,18.307,0.634,27.437c0.759,9.339,0.364,18.771,0.326,28.173c-0.039,9.482,0.455,18.918,0.455,28.416    c0,4.985-0.031,9.974,0.039,14.959c0.005,0.336,0.005,0.674,0.002,1.014c-0.754,2.875-0.991,5.982-0.236,8.598    c-4.108-0.038-8.06,0.846-10.359,4.821c-2.448,4.235-5.429,12.065,0.22,14.92c3.233,1.634,7.856,1.364,11.335,1.371    c4.648,0.009,9.133,0.183,13.762,0.55c16.602,1.317,33.518,1.145,50.259,1.145c9.089,0,18.968,1.145,27.97,0.03    c4.017-0.498,7.965-0.832,12.022-0.457c2.086,0.194,4.463,0.705,6.706,0.644c2.002,0.463,4.445,0.687,6.014-0.497    c2.761-0.883,5.101-3.286,7.228-5.135c4.358-3.787,3.373-5.112,3.158-10.6c-0.137-3.473,0.279-7.412-2.828-9.798    c-1.161-0.892-3.417-0.641-4.292-1.409c-2.202-1.935-1.695-7.514-1.729-10.278c-0.156-12.828,0.993-25.454,1.884-38.204    c0.979-14.01,0.716-28.174,1.719-42.223c0.499-6.992,0.725-14.215,0.882-21.213c0.155-6.969,0.41-13.909,0.41-20.894    c-0.001-15.581-0.156-31.166-0.2-46.742c-0.009-3.334,0.615-6.558,0.774-9.876c0.167-3.484-0.262-6.993-0.066-10.469    c0.411-7.309,0.637-14.519,0.636-21.863c-0.002-15.199,0.276-30.36,0.458-45.543c0.086-7.176,1.606-14.23,2.181-21.355    c0.678-8.398,0.476-15.938,5.483-23.135c4.999-7.185,11.54-11.549,19.659-14.56c3.095-1.148,6.823-2.035,10.006-3.519    c21.254-2.769,44.079,7.252,49.141,29.823c3.101,13.824,0.54,29.089,0.535,43.137c-0.003,13.463-0.391,26.54-1.66,39.94    c-0.56,5.909,0.679,11.659,0.565,17.547c-0.127,6.599,0.75,13.076,1.059,19.643c0.63,13.375,1.769,26.463,1.769,39.908    c-0.001,14.614,0.358,29.252,1.095,43.836c0.344,6.805,0.057,13.683,0.06,20.497c0.003,7.203,0.826,14.299,0.757,21.492    c-0.081,8.34,0.241,16.571,0.448,24.866c0.176,7.07-1.149,14.311-1.206,21.438c-0.023,2.855-0.162,6.364,0.921,9.179    c-0.693,0.263-1.446,0.699-2.314,1.338c-2.967,2.183-4.745,5.688-4.385,9.423c0.355,3.673,2.542,7.394,5.305,9.769    c2.46,2.114,7.083,5.261,10.456,4.547c0.212,0.124,0.424,0.247,0.64,0.338c2.978,1.262,6.731,0.239,9.828-0.047    c4.057-0.375,8.004-0.042,12.022,0.457c9.002,1.115,18.881-0.03,27.97-0.03c16.742,0,33.657,0.173,50.259-1.145    c4.629-0.367,9.113-0.541,13.762-0.55c3.48-0.007,8.102,0.263,11.335-1.371c5.648-2.855,2.669-10.685,0.22-14.92    C434.818,489.445,430.866,488.562,426.758,488.599z M82.887,18.723c-2.825,0.141-4.876,0.971-5.097-2.273    c-0.516-7.585,5.2-7.584,11.111-7.557c5.752,0.026,11.446,0.59,17.228,0.53c10.939-0.114,21.97-2.052,32.94-2.512    c5.554-0.233,11.123-0.518,16.652-0.723c6.083-0.225,12.063,0.475,18.146,0.393c10.865-0.146,21.579-0.957,32.363-1.421    c0.328,0.392,0.824,0.667,1.49,0.7c13.907,0.677,27.943,0.408,41.887,0.454c6.08,0.02,11.942-0.158,18.018,0.093    c6.381,0.263,12.247,0.109,18.272-1.231c4.604-0.18,9.211-0.365,13.808-0.239c12.844,0.352,25.53,1.469,38.429,1.642    c6.082,0.081,12.062-0.618,18.146-0.393c5.529,0.204,11.098,0.49,16.652,0.723c10.97,0.46,22.002,2.398,32.94,2.512    c5.782,0.06,11.476-0.504,17.228-0.53c5.911-0.027,11.628-0.028,11.111,7.557c-0.22,3.244-2.271,2.414-5.097,2.273    c-1.327-0.066-2.65-0.114-3.973-0.148c-0.461-0.177-0.979-0.193-1.45-0.025c-0.691-0.013-1.38-0.031-2.073-0.036    c-5.918-0.047-11.836-0.054-17.754-0.081c-11.084-0.05-22.399-0.547-33.417-1.882c-11.641-1.41-23.397-0.295-35.093-0.316    c-11.893-0.021-23.793-0.148-35.686-0.05c-5.661,0.046-11.213,0.9-16.891,0.997c-0.856,0.014-1.714,0.044-2.57,0.067    c-11.789-3.703-25.213-0.111-37.211-1.051c-5.102-0.4-10.274,0.02-15.368,0.525c-0.956,0.095-1.913,0.17-2.87,0.251    c-4.144-0.285-8.254-0.755-12.422-0.79c-11.892-0.098-23.792,0.029-35.686,0.05c-11.696,0.021-23.453-1.094-35.093,0.316    c-11.019,1.335-22.334,1.832-33.417,1.882c-5.918,0.027-11.836,0.034-17.755,0.081c-0.693,0.006-1.382,0.023-2.073,0.036    c-0.472-0.168-0.988-0.152-1.451,0.025C85.536,18.609,84.213,18.657,82.887,18.723z M420.339,53.041    c-0.362,13.273-0.761,26.495-0.813,39.785c-0.078,20.108-1.239,40.07-0.461,60.198c0.871,22.545-0.388,45.191-0.798,67.685    c-0.388,21.231,0.577,42.554,0.996,63.785c0.222,11.274,0.054,22.549,0.138,33.824c0.041,5.412,0.626,10.423,1.309,15.77    c0.058,0.457,0.13,0.913,0.194,1.37c-0.242,6.959-0.386,13.907-0.499,20.894c-0.068,4.203-0.743,8.286-0.679,12.501    c0.068,4.509,0.122,8.811-0.439,13.304c-1.108,8.882,0.272,17.946-0.783,26.844c-1.117,9.406-0.229,19.413-0.245,28.894    c-0.014,8.711-0.65,17.395-0.655,26.133c-0.002,4.984-0.031,9.975,0.039,14.959c0.037,2.601-0.169,5.373,0.272,7.948    c-0.828-0.008-1.653,0.036-2.474,0.16c-2.113,0.052-4.133,0.285-6.237,0.388c-10.818,0.535-21.858-0.178-32.698-0.169    c-11.084,0.01-22.561-0.193-33.575,1.095c-5.327,0.623-11.163,0.577-16.797,1.195c0.068-10.419,0.517-20.769,0.501-31.246    c-0.02-12.03-0.257-24.083-0.035-36.11c0.188-10.16-0.637-20.396-0.652-30.619c-0.016-11.094,0.036-22.075-0.716-33.115    c-0.732-10.748-1.213-21.699-1.66-32.486c-0.394-9.506-1.224-18.994-1.237-28.525c-0.034-22.853-0.247-45.706-0.44-68.558    c-0.101-11.876-0.19-23.75-0.28-35.626c-0.053-7.044,0.278-14.083-0.162-21.076c-0.043-3.517-0.258-6.988-0.754-10.654    c-1.401-10.354-4.107-21.58-9.673-30.569c-5.383-8.694-10.906-15.487-19.647-21.121c-3.314-2.136-6.755-3.752-10.251-5.358    c-0.16-0.173-0.329-0.341-0.508-0.501c0.153-1.529,0.26-3.059,0.278-4.641c0.042-3.402-0.198-4.405,3.302-4.65    c2.981-0.207,6.555-0.155,8.193-3.081c2.229-3.979,0.714-11.109,0.708-15.474c-0.008-5.774,0.903-11.313,0.368-17.103    c-0.786-8.503,2.608-23.66-7.527-27.843c-4.824-1.991-10.286-1.167-15.365-1.147c-4.199,0.016-9.022,0.156-13.227,1.227    c-0.584,0.012-1.163,0.009-1.735-0.019c-0.416-0.021-0.826-0.041-1.235-0.059c-4.139-1.006-8.843-1.134-12.949-1.151    c-5.079-0.02-10.541-0.844-15.365,1.147c-10.135,4.183-6.743,19.34-7.527,27.843c-0.535,5.79,0.377,11.329,0.368,17.103    c-0.006,4.365-1.521,11.495,0.708,15.474c1.638,2.925,5.212,2.872,8.193,3.081c3.502,0.243,3.262,1.248,3.302,4.65    c0.02,1.67,0.133,3.28,0.299,4.896c-3.679,1.688-7.3,3.36-10.781,5.604c-8.741,5.634-14.265,12.427-19.647,21.121    c-5.565,8.989-8.272,20.215-9.673,30.569c-0.496,3.666-0.711,7.138-0.754,10.654c-0.44,6.993-0.108,14.033-0.162,21.076    c-0.09,11.876-0.181,23.751-0.28,35.626c-0.194,22.852-0.407,45.706-0.44,68.558c-0.014,9.532-0.844,19.02-1.238,28.525    c-0.447,10.786-0.928,21.738-1.66,32.486c-0.752,11.04-0.7,22.021-0.716,33.115c-0.015,10.223-0.84,20.459-0.652,30.619    c0.222,12.028-0.015,24.081-0.035,36.11c-0.016,10.477,0.432,20.827,0.501,31.246c-5.634-0.618-11.47-0.572-16.797-1.195    c-11.014-1.289-22.491-1.085-33.575-1.095c-10.84-0.01-21.88,0.705-32.698,0.169c-2.103-0.104-4.123-0.336-6.237-0.388    c-0.82-0.124-1.645-0.168-2.474-0.16c0.44-2.575,0.235-5.346,0.272-7.948c0.071-4.984,0.042-9.974,0.039-14.959    c-0.005-8.738-0.641-17.422-0.655-26.133c-0.015-9.481,0.872-19.487-0.245-28.894c-1.057-8.898,0.323-17.963-0.783-26.844    c-0.56-4.494-0.508-8.796-0.439-13.304c0.064-4.217-0.611-8.299-0.679-12.501c-0.114-6.987-0.257-13.935-0.499-20.894    c0.064-0.457,0.136-0.913,0.194-1.37c0.684-5.347,1.269-10.358,1.309-15.77c0.083-11.276-0.086-22.55,0.138-33.824    c0.419-21.231,1.385-42.554,0.997-63.785c-0.411-22.494-1.67-45.14-0.798-67.685c0.777-20.128-0.384-40.091-0.461-60.198    c-0.052-13.289-0.452-26.51-0.813-39.785c-0.243-8.929,0.925-19.198-0.797-28.241c9.67,0.151,19.389,0.539,28.993,0.098    c12.132-0.556,24.297-1.207,36.405-2.014c3.932-0.262,7.806,0.533,11.742,0.597c3.914,0.063,7.836-0.01,11.751-0.003    c7.811,0.014,15.623,0.05,23.434,0.041c13.595-0.016,27.046,0.525,40.609-0.582c5.704,0.483,11.928-0.152,17.629-0.32    c1.05-0.031,2.107-0.036,3.166-0.034c0.151,0.042,0.309,0.073,0.481,0.09c14.624,1.482,29.093,0.827,43.731,0.845    c7.811,0.009,15.623-0.027,23.434-0.041c3.914-0.007,7.836,0.066,11.751,0.003c3.937-0.064,7.812-0.859,11.742-0.597    c12.107,0.805,24.273,1.457,36.405,2.014c9.606,0.44,19.324,0.052,28.993-0.098C419.414,33.843,420.582,44.112,420.339,53.041z     M275.737,101.49c-0.751-0.241-1.512-0.436-2.262-0.611c0.093-0.235,0.155-0.477,0.14-0.704c-0.146-2.302-2.137-3.703-2.598-5.991    c-0.329-1.63-0.631-3.584-1.197-5.32c0.751-1.628,1.283-3.375,2.016-5.081c1.472-3.423,4.111-4.301,5.56-7.358    c0.709-1.496,0.885-3.243,1.131-4.853c0.56-3.665,0.833-5.754-1.609-7.289c-0.497-0.312-0.781-0.872-0.742-1.458    c0.489-7.222-0.41-14.676-6.445-19.429c-5.19-4.088-12.391-5.401-18.558-3.123c-3.685,1.362-7.315,3.327-10.033,6.211    c-2.805,2.976-4.285,5.991-4.184,10.197c0.021,0.907,0.104,1.827-0.09,2.713c-0.613,2.781-3.657,4.316-4.942,6.857    c-1.115,2.204-0.76,4.832-0.378,7.272c0.122,0.779,0.261,1.598,0.761,2.207c0.475,0.581,1.202,0.878,1.872,1.214    c3.713,1.863,4.3,5.221,6.385,8.541c0.488,0.777,0.978,1.496,1.474,2.188c-0.199,1.024-0.294,2.57-0.295,2.855    c-0.007,1.436,0.131,2.908,0.086,4.331c-0.06,1.833-1.233,4.376-1.345,6.505c-1.437,0.094-2.841,0.315-4.293,0.813    c0.614-5.125,0.607-11.295-3.886-12.472c-1.465-0.384-3.315-0.232-4.818-0.378c-2.098-0.205-2.841,0.089-3.463-1.977    c-0.742-2.466-0.068-6.33-0.066-8.922c0.001-2.823,0.209-5.695-0.004-8.508c-0.396-5.262,0.117-10.11,0.178-15.348    c0.064-5.48-1.552-13.731,3.189-17.446c4.131-3.237,10.774-2.093,15.855-2.03c2.462,0.03,4.853,0.276,7.23,0.269    c1.738,0.24,3.497,0.384,5.208,0.562c3.711,0.387,8.331,0.744,11.873-0.791c0.446-0.017,0.893-0.034,1.344-0.039    c5.081-0.061,11.723-1.207,15.855,2.03c4.74,3.715,3.125,11.966,3.189,17.446c0.061,5.239,0.574,10.087,0.178,15.348    c-0.212,2.813-0.005,5.686-0.003,8.508c0.001,2.592,0.674,6.456-0.066,8.922c-0.621,2.066-1.365,1.771-3.463,1.977    c-1.503,0.147-3.354-0.005-4.818,0.378C275.404,90.829,275.21,96.514,275.737,101.49z M245.888,91.82    c1.681,1.314,3.64,2.29,6.161,2.852c4.779,1.067,10.048,1.67,14.211-1.314c0.14,1.452,0.467,2.861,0.857,3.996    c0.256,0.747,0.762,1.757,1.429,2.652c-5.415-0.713-10.803-0.656-16.235-0.109c-2.47,0.249-4.847,0.794-7.276,1.263    c0.747-2.039,0.972-4.491,0.985-6.285C246.027,93.988,245.987,92.923,245.888,91.82z M265.81,87.574    c-3.76,4.241-8.124,3.752-13.414,2.743c-8.52-1.625-8.115-9.094-12.73-14.41c-1.222-1.408-3.009-1.26-4.122-2.158    c-0.888-0.716-1.03-2.003-0.783-3.466c0.194-1.151,0.693-2.589,1.48-3.472c0.897-1.006,2.349-1.314,3.218-2.365    c1.034-1.249,0.883-3.051,0.929-4.672c0.116-3.999,2.348-7.762,3.587-11.526c0.48-1.456,3.641-4.43,5.266-2.837    c0.762,0.747,0.585,2.437,1.324,3.387c0.76,0.977,1.998,1.79,3.286,1.524c0.116,0.467,0.341,0.893,0.651,1.229    c0.063,0.183,0.129,0.345,0.201,0.439c0.465,0.603,1.148,1.047,1.904,1.18c1.548,0.27,3.495-1.188,3.894-2.682    c0.239-0.895-0.043-1.787-0.353-2.682c0.035-0.305,0.051-0.612,0.044-0.921c-0.03-1.682,3.874-2.08,4.809-1.542    c7.818,4.497,6.134,11.544,7.294,19.247c0.124,0.825,0.628,1.243,1.228,1.356c0.158,0.163,0.355,0.302,0.606,0.396    c2.684,1.014,2.03,5.425,1.153,7.727c-1.225,3.215-4.404,3.899-5.846,6.773C268.208,83.293,267.785,85.346,265.81,87.574z     M198.335,501.636c-1.086,1.889-0.856,1.923-3.012,2.335c-1.625,0.311-3.58-0.44-5.265-0.535c-3.44-0.196-6.94-0.183-10.357,0.26    c-8.447,1.095-17.374,0.244-25.915,0.244c-9.054,0-18.111,0.02-27.165-0.017c-14.182-0.057-28.17-1.4-42.352-1.758    c-0.067-0.001-5.123-0.227-5.01,0.499c-0.341-0.91,0.857-4.038,1.409-4.922c2.423-3.881,7.239-2.301,10.955-1.956    c2.728,0.254,5.538-0.012,8.336-0.285c0.997,0.038,1.962,0.067,2.838,0.102c6.139,0.245,12.374-0.056,18.523-0.038    c13.781,0.039,27.517,0.293,41.289,0.606c6.718,0.153,13.357,1.352,20.089,1.562c3.008,0.094,6.05,0.411,8.994,0.126    c0.425,0.131,0.852,0.271,1.275,0.383C195.742,498.979,200.471,497.921,198.335,501.636z M205.162,489.201    c4.211,1.677,3.061,3.662,3.324,7.63c0.022,0.321,0.273,1.517,0.228,2.043c-0.19,2.169-0.89,2.645-2.483,3.938    c0.752-2.677,0.757-5.397-0.489-7.192c-1.759-2.533-4.971-3.293-7.848-3.447c0.681-0.363,1.366-0.722,2.081-1.001    c1.505-0.587,2.805-1.339,3.79-2.451C204.2,488.861,204.663,489.002,205.162,489.201z M306.259,495.621    c-1.235,1.779-1.24,4.466-0.508,7.119c-1.368-0.723-2.674-1.519-3.634-2.66c-1.9-2.26-3.254-5.496-1.775-8.336    c0.702-1.35,2.23-2.561,3.861-2.992c0.196,0.16,0.396,0.316,0.618,0.459c1.974,1.278,4.33,2.334,6.635,3.307    C309.421,492.957,307.485,493.855,306.259,495.621z M310.353,485.974c-4.637-2.292-2.596-0.968-3.527-3.92    c-1.886-5.976-0.484-13.855,0.074-20.049c0.576-6.409-0.082-12.519-0.032-18.948c0.061-7.904,0.548-15.841-0.226-23.716    c-0.676-6.88-0.337-13.9-0.338-20.816c0-7.461-0.575-14.869-0.574-22.322c0.003-15.487-0.453-31.005-0.597-46.505    c-0.11-11.986-1.25-24.293-2.573-36.208c-1.547-13.92-0.178-27.717,0.409-41.622c0.599-14.165-0.057-28.455,0.922-42.619    c0.826-11.956-0.149-23.053-4.038-34.277c-3.921-11.318-13.755-18.071-24.434-22.23c-10.797-4.204-25.64-4.815-36.402,0.834    c-0.528,0.14-1.044,0.285-1.542,0.437c-5.73,1.748-10.623,4.11-15.332,7.944c-9.365,7.629-12.635,18.1-13.533,29.784    c-0.521,6.788-1.521,13.6-2.295,20.384c-0.832,7.299,0.041,14.71-0.474,22.044c-1.037,14.759,0.473,29.618-0.414,44.374    c-0.842,14.036-1.126,27.943-1.129,42.028c-0.002,14.609,0.27,29.231-0.6,43.794c-0.407,6.813-0.585,13.864-0.585,20.701    c0,7.753-0.514,15.513-0.825,23.271c-0.54,13.474-0.826,26.915-2.198,40.321c-0.691,6.755-0.436,13.577-0.622,20.37    c-0.097,3.561-0.056,7.07,0.35,10.612c0.185,1.621,0.076,3.816,0.554,5.611c-0.964,1.071-2.282,1.511-3.584,2.139    c-0.888,0.428-1.669,1.013-2.412,1.647c-0.11-19.489-0.621-39.016-0.652-58.562c-0.016-10.113,0.547-20.071,0.531-30.184    c-0.019-11.161-0.446-22.395-0.164-33.547c0.512-20.236,2.038-40.655,3.335-60.87c1.44-22.458-0.021-45.432-0.211-67.933    c-0.148-17.608,0.395-35.373-0.578-52.977c0.426-6.222-0.209-12.817,0.603-18.568c1.4-9.928,3.688-20.334,8.444-29.236    c4.499-8.422,9.992-15.088,17.862-20.568c3.662-2.549,7.661-4.409,11.683-6.226c1.844-0.832,3.533-1.696,5.376-2.472    c0.43-0.181,0.879-0.397,1.336-0.628c3.556-0.65,7.162-1.287,10.782-1.57c4.65-0.363,9.495-0.636,14.191-0.039    c1.476,0.7,3.075,1.642,4.49,2.237c1.842,0.775,3.533,1.64,5.376,2.472c4.022,1.817,8.022,3.677,11.683,6.226    c7.87,5.48,13.362,12.147,17.862,20.568c4.755,8.902,7.044,19.308,8.444,29.236c0.811,5.752,0.176,12.346,0.603,18.568    c-0.974,17.603-0.43,35.369-0.578,52.977c-0.19,22.501-1.65,45.476-0.211,67.933c1.297,20.216,2.823,40.635,3.335,60.87    c0.282,11.153-0.146,22.385-0.165,33.547c-0.016,10.112,0.547,20.069,0.531,30.184c-0.032,19.777-0.557,39.536-0.659,59.253    c-1.433-0.747-2.83-1.608-4.153-2.3C312.449,486.892,311.38,486.482,310.353,485.974z M432.742,502.664    c0.111-0.727-4.943-0.501-5.01-0.499c-14.183,0.357-28.171,1.7-42.352,1.758c-9.054,0.036-18.111,0.017-27.165,0.017    c-8.541,0-17.468,0.851-25.915-0.244c-3.417-0.443-6.916-0.455-10.357-0.26c-1.685,0.096-3.641,0.846-5.265,0.535    c-2.155-0.411-1.926-0.446-3.011-2.335c-2.134-3.715,2.593-2.656,5.37-3.394c0.423-0.112,0.849-0.253,1.275-0.384    c2.944,0.285,5.987-0.032,8.994-0.126c6.732-0.21,13.37-1.409,20.089-1.562c13.771-0.314,27.507-0.568,41.289-0.606    c6.149-0.017,12.384,0.282,18.523,0.038c0.876-0.035,1.841-0.063,2.838-0.102c2.798,0.273,5.608,0.539,8.336,0.285    c3.717-0.345,8.532-1.925,10.955,1.956C431.884,498.626,433.082,501.755,432.742,502.664z"/>
	</g>
</g>
<g>
	<g>
		<path d="M260.834,75.407c-0.024-0.014-0.045-0.022-0.07-0.036c0.058-0.056,0.129-0.094,0.184-0.154    c1.129-1.221,1.803-6.446-1.17-5.569c-0.345,0.102-0.709,0.4-0.775,0.775c-0.177,1.014,0.496,2.509-0.516,3.21    c-0.666,0.462-1.557,0.382-2.327,0.416c-0.09,0.003-0.183,0.029-0.275,0.038c-0.645-0.145-1.385,0.008-2.052-0.076    c-1.099-0.139-1.174-0.591-1.081-1.622c0.052-0.581,0.555-1.292,0.003-1.804c-0.438-0.406-1.232-0.205-1.691,0.066    c-1.682,0.997-1.424,3.888-0.11,5.081c0.176,0.16,0.38,0.277,0.587,0.386c-0.725,0.469-1.379,0.99-1.821,1.346    c-1.396,1.127-3.92,3.182-2.827,5.191c0.206,0.379,0.635,0.601,1.058,0.606c1.74,0.023,3.512,0.422,5.257,0.249    c2.078-0.206,3.906-0.582,6.038-0.419c1.492,0.112,6.196,0.913,6.367-1.642C265.746,79.472,262.32,76.279,260.834,75.407z"/>
	</g>
</g>
<g>
	<g>
		<path d="M250.08,64.242c-1.432-0.083-2.85-0.125-4.27,0.118c-0.879,0.151-2.531,0.662-2.454,1.837    c0.001,0.022,0.002,0.043,0.005,0.065c0.031,0.48,0.25,1.073,0.736,1.282c1.007,0.432,1.696,0.35,2.74,0.266    c1.074-0.083,2.163-0.02,3.243-0.085C252.317,67.592,252.323,64.373,250.08,64.242z"/>
	</g>
</g>
<g>
	<g>
		<path d="M269.082,64.482c-1.188-0.645-2.535-0.547-3.849-0.436c-1.193,0.101-2.416,0.254-3.263,1.189    c-0.399,0.439-0.401,1.056,0,1.498c0.846,0.934,2.069,1.087,3.263,1.189c1.313,0.111,2.662,0.21,3.849-0.436    C270.213,66.871,270.213,65.097,269.082,64.482z"/>
	</g>
</g>
<g>
</g>
<g>
</g>
<g>
</g>
<g>
</g>
<g>
</g>
<g>
</g>
<g>
</g>
<g>
</g>
<g>
</g>
<g>
</g>
<g>
</g>
<g>
</g>
<g>
</g>
<g>
</g>
<g>
</g>
</svg>
