<?xml version="1.0" encoding="iso-8859-1"?>
<!-- Generator: Adobe Illustrator 19.0.0, SVG Export Plug-In . SVG Version: 6.00 Build 0)  -->
<svg xmlns="http://www.w3.org/2000/svg" xmlns:xlink="http://www.w3.org/1999/xlink" version="1.1" id="Layer_1" x="0px" y="0px" viewBox="0 0 511.997 511.997" style="enable-background:new 0 0 511.997 511.997;" xml:space="preserve">
<g>
	<g>
		<path d="M366.657,139.16c0.909-2.256,0.71-5.006,0.858-7.416c0.263-4.273,0.955-8.489,1.276-12.729    c0.405-5.362-5.76-4.276-9.659-5.274c-1.061-0.272-2.12-0.545-3.18-0.819c0.804-5.453,1.557-10.914,2.406-16.335    c2.01-12.831,3.156-25.661,5.122-38.481c0.712-4.641,2.01-9.234,2.072-13.962c0.011-0.888-0.952-1.782-1.783-1.871    c-8.482-0.914-16.946-2.318-25.456-3.037c-4.629-0.391-9.15-1.821-13.805-2.161c-1.776-0.129-3.633-0.436-5.493-0.641    c-1.394-0.18-2.795-0.311-4.188-0.455c-4.115-0.427-8.22-1.091-12.32-1.748c0.302-1.716-0.003-3.805,1.392-5.096    c1.741-1.611,4.98-2.37,7.186-3.095c5.259-1.729,10.728-2.839,15.85-4.976c1.254-0.523,2.279-1.996,1.364-3.352    c-2.477-3.669-7.15-6.143-10.424-9.065c-3.291-2.937-7.509-4.829-10.506-7.98c-0.787-0.828-2.474-0.949-3.239,0    c-1.81,2.245-1.52,5.458-1.841,8.21c-0.572,4.897-1.856,9.747-2.638,14.624c-0.537,3.35-1.174,6.677-1.782,10.008    c-0.277-0.041-0.554-0.087-0.831-0.129c-2.202-0.323-4.51-0.812-6.861-1.31c-2.636-0.831-5.528-1.149-8.121-1.797    c-4.529-1.132-9.269-1.186-13.79-2.26c-8.308-1.974-16.787-3.285-25.13-5.066c-0.818-0.175-2.011,0.373-2.277,1.221    c-2.643,8.408-2.17,17.349-4.317,25.84c-2.191,8.671-3.783,17.392-5.228,26.224c-0.887,5.414-1.877,10.838-2.817,16.27    c-1.092-0.071-2.185-0.143-3.276-0.216c-4.016-0.27-9.533-3.227-10.823,1.994c-1.02,4.129-1.679,8.35-2.763,12.491    c-0.611,2.336-1.661,4.887-1.501,7.313c-4.416,2.235-4.833,8.735-6.417,13.523c-2.347,7.095-3.328,14.134-3.729,21.543    c-0.429,7.915-2.256,15.613-2.848,23.482c-0.32,4.242-0.888,8.39-1.614,12.591c-0.445,2.574-1.378,5.487-0.931,8.145    c-1.812,0.014-3.564,0.326-5.057,1.351c-5.432,3.721-4.202,12.561,1.947,14.509c0.392,0.124,0.792,0.223,1.189,0.329    c-2.154,2.996-2.682,7.66-3.894,11.323c-2.347,7.095-3.328,14.135-3.729,21.543c-0.429,7.915-2.256,15.613-2.848,23.482    c-0.32,4.242-0.888,8.39-1.614,12.591c-0.445,2.574-1.378,5.487-0.931,8.145c-1.812,0.014-3.564,0.328-5.057,1.351    c-5.432,3.722-4.202,12.561,1.947,14.509c0.474,0.15,0.955,0.273,1.437,0.396c-2.434,2.963-2.951,7.91-4.222,11.752    c-2.347,7.095-3.328,14.135-3.729,21.543c-0.429,7.916-2.256,15.613-2.848,23.482c-0.32,4.242-0.888,8.39-1.614,12.591    c-0.445,2.574-1.378,5.487-0.931,8.145c-1.812,0.014-3.564,0.328-5.057,1.351c-5.432,3.722-4.202,12.561,1.947,14.509    c0.392,0.125,0.792,0.223,1.189,0.329c-2.154,2.996-2.682,7.66-3.894,11.323c-2.347,7.095-3.328,14.135-3.729,21.543    c-0.398,7.367-1.997,14.547-2.696,21.85c-2.82,7.613-3.146,16.515-4.772,24.245c-0.982,4.668-1.722,9.21-2.222,13.95    c-0.509,4.829-2.969,10.222-2.138,15.089c0.855,5.007,5.601,5.898,9.973,5.926c1.966,0.013,3.937,0.104,5.91,0.212    c0.323,0.086,0.668,0.148,1.06,0.148c0.639,0,1.281,0.014,1.92,0.024c2.19,0.14,4.381,0.286,6.572,0.384    c2.45,0.109,4.903,0.169,7.357,0.222c3.919,0.222,7.836,0.427,11.732,0.463c1.081,0.01,2.168,0.002,3.251,0.009    c0.228,0.003,0.455,0.001,0.683,0.002c7.123,0.035,14.271,0.005,21.367-0.063c16.763-0.164,33.449,0.109,50.201,0.022    c7.9-0.042,15.856,0.192,23.713-0.34c3.391-0.229,6.789-0.269,10.179-0.477c3.399-0.208,5.962,0.442,9.279-0.913    c5.709-2.333,5.627-7.833,6.168-13.256c0.016,0.002,0.034,0.004,0.05,0.007c0.337-1.543,0.463-3.165,0.652-4.675    c0.662-3.427,1.554-7.083,1.888-10.566c0.191-0.86,0.385-1.718,0.598-2.579c1.894-7.66,2.563-15.544,4.628-23.197    c1.932-7.163,3.199-14.156,3.186-21.629c-0.008-3.857,0.947-8.455-0.164-11.972c0.411,0.024,0.821,0.055,1.232,0.059    c6.45,0.07,10.378-7.943,6.38-13.174c-1.099-1.438-2.666-2.282-4.382-2.862c1.254-2.385,1.277-5.445,1.659-8.028    c0.622-4.218,1.378-8.336,2.4-12.466c1.894-7.66,2.563-15.544,4.628-23.197c1.932-7.162,3.2-14.156,3.186-21.629    c-0.008-4.047,1.046-8.909-0.341-12.483c0.496,0.033,0.992,0.067,1.489,0.072c6.449,0.07,10.377-7.943,6.38-13.174    c-1.099-1.438-2.666-2.282-4.382-2.862c1.254-2.386,1.279-5.445,1.659-8.029c0.622-4.217,1.378-8.336,2.4-12.465    c1.894-7.66,2.563-15.544,4.628-23.197c1.932-7.162,3.199-14.156,3.186-21.629c-0.008-3.857,0.947-8.455-0.164-11.972    c0.411,0.023,0.821,0.055,1.232,0.059c6.45,0.07,10.378-7.943,6.38-13.174c-1.099-1.438-2.666-2.282-4.382-2.862    c1.254-2.386,1.278-5.445,1.659-8.029c0.622-4.218,1.378-8.336,2.4-12.465c1.894-7.66,2.563-15.544,4.628-23.197    c1.932-7.163,3.2-14.156,3.186-21.63C368.52,148.969,370.154,142.663,366.657,139.16z M305.903,14.45    c0.377-1.882,0.79-3.645,0.992-5.57c0.04-0.385,0.017-1.546,0.065-2.662c2.364,1.681,4.937,3.109,7.186,5.023    c2.394,2.038,5.887,4.155,8.349,6.562c-5.97,1.93-12.244,3.101-18.054,5.382C304.904,20.269,305.324,17.346,305.903,14.45z     M348.518,50.442c0.369-1.526,0.895-2.526,0.842-4.149c-0.001-0.046-0.085-0.76-0.206-1.53c4.031,0.511,8.059,1.045,12.078,1.503    c-0.257,3.692-1.139,7.535-1.854,11.263c-3.308-1.171-8.026-1.319-10.232-1.727c-0.639-0.118-1.28-0.228-1.918-0.345    C347.986,54.054,348.063,52.325,348.518,50.442z M330.752,47.68c0.128-1.304,0.408-3.327,0.203-5.093    c2.222,0.332,4.445,0.652,6.684,0.862c2.616,0.246,5.233,0.548,7.849,0.865c-0.63,1.192-1.089,2.517-1.622,3.683    c-0.682,1.491-0.549,3.224-1.068,4.763c-0.235,0.695-0.5,1.224-0.646,1.793c-4.169-0.726-8.346-1.418-12.523-2.106    C330.363,51.025,330.609,49.144,330.752,47.68z M300.907,43.128c0.241-1.297,0.477-2.597,0.71-3.897    c7.32,1.43,14.884,3.109,22.214,2.376c1.149,0.129,2.294,0.273,3.437,0.436c-0.435,1.142-0.678,2.416-0.9,3.332    c-0.311,1.287-0.639,2.593-1.107,3.834c-0.424,1.121-0.752,1.277-1.035,2.345c-2.054-0.337-4.184-0.654-6.334-0.875    c-1.929-0.585-4.004-0.805-6.039-1.01c-3.034-0.306-6.061-0.672-9.078-1.121c-1.15-0.169-1.925-0.11-2.265-0.736    c-0.132-0.243-0.199-0.59-0.195-1.093C300.322,45.508,300.687,44.312,300.907,43.128z M277.696,37.58    c0.067-0.818,0.193-1.9,0.189-2.973c0.531,0.115,1.072,0.227,1.637,0.342c5.831,1.187,11.632,2.426,17.498,3.433    c-0.373,2.273-0.703,4.554-0.949,6.852c-0.239,0.753-0.355,1.488-0.232,2.13c-0.022-0.004-0.044-0.008-0.067-0.012    c-3.662-0.721-8.355-1.95-12.853-2.332c-1.723-0.347-3.443-0.639-5.12-0.9c-0.01-0.001-0.021-0.003-0.031-0.004    c0.096-1.098-0.168-1.349-0.219-2.547C277.493,40.242,277.59,38.9,277.696,37.58z M260.256,34.605    c-0.143-1.275-0.165-2.676-0.391-4.005c2.584,0.516,5.165,1.047,7.726,1.63c2.091,0.476,4.198,0.852,6.308,1.213    c0.095,0.038,0.19,0.079,0.285,0.115c-0.728,1.604-1.09,3.579-1.372,4.841c-0.322,1.435-0.675,3.298-0.422,4.878    c-4.183-0.651-8.365-1.297-12.554-1.91c0.038-0.586-0.049-1.171-0.055-1.905C259.771,37.838,260.439,36.236,260.256,34.605z     M244.3,27.539c3.961,0.819,7.955,1.57,11.943,2.344c-0.356,0.693-0.658,1.345-0.674,1.388c-0.557,1.525-0.37,2.64-0.496,4.204    c-0.156,1.931-0.625,3.599-0.341,5.168c-0.643-0.09-1.286-0.185-1.93-0.272c-2.224-0.301-6.75-1.634-10.259-1.555    C243.028,35.052,243.39,31.127,244.3,27.539z M237.618,77.249c1.536-9.81,3.14-19.535,3.36-29.427    c0.151-0.495,0.273-1.004,0.379-1.524c0.248-0.781,0.496-1.68,0.9-1.933c1.18-0.739,3.098,0.177,4.473,0.479    c6.181,1.361,12.478,2.335,18.721,3.365c9.957,1.641,20.145,3.209,30.181,4.889c5.08,0.851,10.156,1.735,15.218,2.685    c2.525,0.474,5.051,1.098,7.591,1.479c1.967,0.295,3.916,0.024,5.929,0.347c3.439,0.551,6.871,1.153,10.313,1.689    c6.253,0.973,12.539,2.013,18.835,2.651c1.4,0.142,3.509-0.129,4.399,0.941c0.305,0.366,0.259,1.298,0.25,2.117    c-0.061,0.527-0.105,1.049-0.116,1.566c-2.88,9.466-4.394,19.205-5.998,29.004c-0.853,5.21-1.801,10.427-2.709,15.653    c0.043-0.245-8.377-1.882-9.181-2.185c-2.667-1.004-0.438-4.079-0.01-6.066c0.596-2.762,1.015-5.561,1.71-8.303    c1.214-4.796,2.238-9.768,2.079-14.731c-0.171-5.339-1.611-15.564-8.978-15.669c-7.209-0.103-11.216,5.437-12.333,12    c-1.628,9.563-2.816,19.043-4.647,28.56c-2.274-0.547-4.614-0.894-6.958-1.089c-0.748-0.214-1.503-0.413-2.276-0.575    c-0.86-0.18-1.728-0.331-2.594-0.492c0.813-4.664,0.878-9.648,1.408-14.357c0.542-4.811,1.256-9.885,1.018-14.742    c-0.168-3.428-0.214-8.442-2.58-11.197c-2.343-2.728-6.891-2.985-10.208-3.06c-9.336-0.211-12.639,6.318-14.948,14.321    c-2.402,8.327-2.727,16.366-2.705,24.8c-1.209-0.164-2.416-0.33-3.625-0.503c-2.439-0.611-4.934-1.052-7.427-1.257    c1.234-9.612,3.066-18.989,4.506-28.581c0.988-6.582-1.087-13.097-7.968-15.251c-7.03-2.201-11.592,7.063-13.422,12.082    c-1.701,4.665-2.281,9.708-2.626,14.644c-0.331,4.74-1.473,9.596-1.195,14.362c-3.686-0.406-7.381-0.711-11.081-0.974    C236.072,87.717,236.802,82.465,237.618,77.249z M343.319,115.368c1.049-1.073,3.943,0.249,5.227,0.55    c-0.56,3.366-1.089,6.738-1.544,10.122c-0.167,1.24-0.111,4.049-0.76,5.793c-0.205,0.551-0.48,0.997-0.855,1.251    c-1.01,0.686-3.723,0.156-4.629-0.563c-1.375-1.091-0.012-2.939,0.318-4.336c0.352-1.489,0.573-3.005,0.947-4.489    c0.407-1.619,0.711-3.268,0.879-4.929C343.002,117.778,342.537,116.169,343.319,115.368z M335.269,131.261    c-6.256-1.141-12.554-1.736-18.919-2.307c-0.048-0.004-0.098-0.01-0.146-0.014c1.473-2.714,1.48-6.473,1.896-9.424    c0.105-0.748,0.345-6.187,0.216-9.21c3.674,0.694,7.375,1.251,10.982,1.788c3.388,0.504,6.807,1.13,10.218,1.823    c-1.226,3.188-1.717,6.672-2.732,9.919C336.065,126.141,334.888,128.865,335.269,131.261z M336.916,108.368    c-0.961-0.194-1.922-0.389-2.887-0.565c-3.904-0.716-7.915-0.998-11.79-1.865c1.772-5.793,2.859-12.199,2.908-18.151    c0.034-4.101,0.638-8.504,1.602-12.482c0.474-1.954,2.219-5.94,4.252-6.944c4.613-2.274,8.333,1.813,9.348,6.029    c0.985,4.095,0.757,8.623,0.047,12.726C339.179,94.153,336.482,101.151,336.916,108.368z M266.322,119.981    c-0.375-1.66,0.276-3.488,0.537-5.14c0.385-2.432,0.685-4.866,1.275-7.259c0.444-1.802,0.844-3.541,0.885-5.291    c1.123,0.145,2.24,0.255,3.268,0.424c5.555,0.912,11.127,1.665,16.691,2.536c-0.879,2.008-1.176,4.223-1.616,6.474    c-0.79,4.038-1.346,8.174-1.736,12.274c-0.619-0.072-1.238-0.147-1.856-0.227c-0.867-0.112-1.732-0.237-2.595-0.366    c-0.778-0.154-1.559-0.272-2.345-0.359c-3.398-0.532-6.773-1.079-10.157-1.332c-0.814-0.155-1.63-0.309-2.443-0.478    C266.379,120.873,266.429,120.456,266.322,119.981z M261.253,120.139c-0.047-0.011-0.096-0.022-0.143-0.033    c-6.224-1.445-12.394-2.847-18.693-3.717c1.111-2.157,0.844-5.113,0.88-7.526c0.051-3.401,0.673-6.864,0.503-10.276    c3.457,0.407,6.901,0.88,10.276,1.459c3.594,0.617,7.284,1.244,10.991,1.73c-1.067,2.831-2.537,8.073-2.672,8.816    C261.869,113.528,260.703,117.101,261.253,120.139z M262.704,96.402c-3.951-0.386-7.851-1.372-11.782-1.911    c-0.972-0.133-1.946-0.249-2.918-0.365c2.666-6.72,2.289-14.212,3.331-21.275c0.607-4.12,1.804-8.492,4.019-12.075    c2.281-3.689,7.091-6.409,10.763-2.808c1.62,1.589,2.032,5.92,1.871,7.924c-0.326,4.081-1.128,8.451-2.377,12.358    C263.799,83.92,262.83,90.346,262.704,96.402z M279.97,98.692c1.958-3.712,1.238-10.42,1.797-13.838    c1.07-6.547,2.374-19.295,9.757-21.842c2.221-0.765,4.48-0.525,6.749-0.242c4.236,0.526,5.739,2.496,6.577,6.756    c0.676,3.441,0.435,7.611,0.136,11.102c-0.591,6.941-1.213,14.543-2.752,21.366c-3.833-0.62-7.687-1.152-11.506-1.768    C287.146,99.65,283.559,99.174,279.97,98.692z M291.142,113.902c0.36-2.734,0.707-5.439,0.769-8.18    c4.997,0.821,9.994,1.708,15.012,2.362c1.024,0.133,2.023,0.227,3.013,0.303c1.475,0.412,2.97,0.784,4.478,1.121    c-0.52,1.689-0.682,3.484-0.824,5.353c-0.187,2.459-0.663,4.864-1.056,7.295c-0.267,1.651-0.221,3.591-1.095,5.05    c-0.25,0.417-0.332,0.83-0.305,1.221c-1.001-0.114-2.001-0.241-2.996-0.375c-5.908-2.25-12.157-2.936-18.418-3.604    C290.67,121.052,290.683,117.384,291.142,113.902z M232.917,107.677c0.618-3.327,1.164-6.665,1.678-10.008    c1.877,0.163,3.759,0.337,5.647,0.533c-1.103,2.83-1.669,5.97-1.878,8.893c-0.191,2.684-1.244,6.103-0.334,8.792    c-0.424-0.039-0.845-0.088-1.271-0.122c-1.653-0.131-4.653,0.262-5.061-1.647c-0.041-0.2-0.068-0.403-0.079-0.61    C231.517,111.626,232.593,109.425,232.917,107.677z M215.943,109.48c0.474-1.455,0.659-3.027,1.003-4.518    c0.307-1.324,0.627-2.721,0.892-4.094c0.119-0.616,0.227-1.226,0.318-1.824c0.189-1.244-0.171-2.886,1.478-3.276    c1.201-0.285,3.302,0.813,4.449,1.121c2.317,0.622,3.355,0.985,3.093,3.588c-0.34,3.366-1.001,6.714-1.393,10.079    c-0.265,1.211-0.448,2.51-0.263,3.651c-0.111-0.683-4.443-0.695-4.975-0.726c-1.201-0.07-4.929,0.598-5.337-0.875    C214.913,111.533,215.63,110.446,215.943,109.48z M175.76,481.849c-0.936,4.825-1.708,9.82-2.309,14.7    c-0.276,2.241-0.795,4.609-0.847,6.923c-3.267-0.222-6.533-0.441-9.8-0.638c0.706-2.752,0.691-6.012,0.98-8.742    c0.449-4.235,0.789-8.474,1.273-12.704c0.704-6.163,1.815-12.259,2.804-18.409c0.834-5.182,0.728-10.544,1.458-15.758    c0.901-6.441,2.144-12.847,3.154-19.273c0.502-3.19,0.864-6.293,2.393-9.183c2.615-4.941,8.764-5.104,9.563,0.908    c0.612,4.606-0.301,10.355-0.87,14.995c-0.699,5.7-2.301,11.364-2.654,17.097c-0.266,4.321-1.034,8.637-1.801,12.954    C177.085,470.107,176.838,476.285,175.76,481.849z M205.422,484.903c-0.924,6.488-2.346,12.886-2.849,19.424    c-5.31-0.169-10.636,0.121-15.94-0.067c0.817-2.977,0.987-6.451,1.384-9.227c0.552-3.864,0.605-7.802,1.108-11.651    c0.414-3.166,0.882-6.148,1.068-9.371c0.107-1.86,0.468-3.854,0.488-5.786c0.472-3.761,1.087-7.535,1.42-11.313    c0.524-5.935,1.96-11.881,2.905-17.763c0.893-5.554,1.867-11.769,5.028-16.521c2.01-3.022,5.231-4.807,8.903-3.465    c3.952,1.444,3.675,6.673,3.517,10.227c-0.273,6.112-1.131,12.363-1.766,18.441c-0.319,3.053-1.256,6.027-1.709,9.061    c-0.433,2.9-0.368,5.799-0.824,8.716c-0.515,3.292-0.918,6.589-1.336,9.886C206.239,478.631,205.861,481.819,205.422,484.903z     M238.887,505.659c-2.58-0.14-5.162-0.267-7.747-0.313c-4.808-0.086-9.672,0.024-14.507-0.095    c0.555-2.109,0.727-4.458,1.007-6.436c0.436-3.089,0.907-6.162,1.271-9.266c0.585-4.991,1.679-10.42,1.937-15.625    c0.899-7.361,1.331-14.856,2.765-22.031c1.179-5.902,1.965-12.258,3.887-17.974c2.152-6.402,8.372-13.94,16.047-12.29    c12.54,2.696,5.966,25.281,4.577,33.649c-1.424,8.572-2.983,17.088-4.472,25.627c-0.594,2.648-1.006,5.361-1.575,7.999    C240.873,494.469,239.91,500.062,238.887,505.659z M272.298,491.681c-0.002,0.012-0.004,0.026-0.007,0.038    c-0.919,4.978-2.721,9.798-3.379,14.812c-5.602-0.017-11.203-0.124-16.777-0.257c1.033,0.024,1.983-6.211,2.097-6.985    c0.365-2.46,0.248-4.891,0.823-7.29c1.449-6.049,2.687-12.15,3.692-18.289c0.477-2.913,1.444-5.648,1.939-8.538    c0.518-3.024,0.557-6.141,1.206-9.141c1.295-5.972,2.432-12.179,4.081-18.07c0.96-3.426,2.329-8.479,6.534-8.616    c3.907-0.128,6.41,2.574,7.375,6.072c1.519,5.501,0.502,11.71-0.383,17.265c-0.938,5.884-1.432,11.981-2.787,17.782    c-1.016,4.35-1.661,8.817-2.588,13.168c-0.585,1.834-1.01,3.74-1.367,5.591c-0.198,0.804-0.38,1.632-0.493,2.452    C272.276,491.678,272.287,491.68,272.298,491.681z M295.716,494.394c-1.245,3.776-2.341,7.579-2.868,11.435    c-3.474,0.235-6.958,0.415-10.453,0.522c0.724-3.959,1.51-7.934,2.034-11.907c0.048-0.365,0.105-0.733,0.166-1.101    c0.029,0.004,0.06,0.009,0.089,0.012c0.522-2.212,0.919-4.462,1.273-6.725c0.212-1.11,0.388-2.222,0.495-3.327    c0.68-4.794,1.297-9.605,2.508-14.229c1.455-5.556,1.702-11.436,2.819-17.07c0.908-4.585,1.836-10.332,3.856-14.517    c2.638-5.462,8.427-3.388,9.368,2.124c0.55,3.223-0.075,6.283-0.595,9.47c-1.047,6.421-1.867,12.894-3.023,19.294    C299.813,477.083,296.997,485.618,295.716,494.394z M316.767,430.958c-0.123,5.378-0.157,10.552-1.205,15.855    c-0.725,3.665-2.057,7.142-2.946,10.785c-2.089,8.556-4.053,17.203-5.618,25.864c-0.357,1.975-0.664,3.966-0.971,5.95    c-0.074,0.479-0.118,1.299-0.18,2.217c-0.372,1.422-0.593,2.969-0.812,4.524c-0.036,0.063-0.072,0.129-0.111,0.182    c0.028,0,0.057,0.002,0.085,0.002c-0.288,2.036-0.602,4.065-1.322,5.789c-1.315,3.143-3.548,3.259-6.438,3.417    c1.06-6.833,3.724-13.684,4.461-20.638c2.232-8.546,3.686-17.421,5.091-25.928c1.371-8.293,7.053-27.156-6.528-28.797    c-4.496-0.543-7.089,3.276-8.513,7.11c-2.229,6-3.393,12.689-4.445,18.98c-1.093,6.546-2.721,12.911-3.727,19.441    c-0.57,3.693-1.025,7.458-1.686,11.132c-1.188,6.6-3.239,12.931-3.922,19.622c-1.591,0.028-3.181,0.051-4.774,0.061    c1.142-5.109,2.669-10.102,3.506-15.287c0.478-2.961,1.23-6.057,1.4-9.12c0.074-0.422,0.148-0.842,0.217-1.278    c1.21-7.754,3.148-15.357,4.371-23.144c0.991-6.309,2.366-12.849,1.837-19.28c-0.333-4.055-1.777-9.767-5.463-12.088    c-3.649-2.297-10.768-1.397-13.636,1.922c-3.578,4.14-4.584,13.184-5.481,18.293c-2.22,12.657-5.369,25.16-7.784,37.817    c-0.438,2.046-0.825,4.101-1.186,6.144c-0.766,4.344-3.446,11.081-2.385,15.654c-1.73-0.071-3.46-0.156-5.189-0.253    c0.27,0.015,5.058-26.835,5.509-29.231c1.875-9.974,3.473-20.001,4.761-30.068c1.185-9.261,2.967-26.379-9.558-28.597    c-12.588-2.229-19.495,10.43-21.693,20.703c-2.809,13.126-5.039,26.525-6.029,39.939c-0.716,3.498-1.245,7.038-1.768,10.607    c-0.561,3.828-1.358,7.62-1.824,11.454c-0.178,1.466-0.518,2.939-0.452,4.353c-1.431-0.087-2.859-0.195-4.279-0.357    c-0.395-0.045-0.792-0.071-1.187-0.107c0.814-9.823,3.205-19.385,4.469-29.12c0.036-0.278,0.07-0.556,0.1-0.833    c1.421-11.747,2.335-23.548,4.029-35.227c0.745-5.133,2.613-14.039,0.508-19.09c-1.688-4.048-8.17-7.127-12.353-6.084    c-4.227,1.054-7.384,6.03-8.966,9.777c-2.51,5.945-3.247,12.586-4.275,18.889c-1.27,7.78-1.805,15.608-3.077,23.352    c-0.308,1.876-0.526,3.615-0.622,5.4c-0.852,4.319-1.355,8.806-1.979,12.988c-0.489,3.28-0.844,6.629-1.288,9.915    c-0.394,2.91-1.465,6.332-1.534,9.485c-0.044-0.001-0.087-0.004-0.13-0.007c-1.515-0.087-3.03-0.175-4.543-0.267    c0.312-2.081,0.254-4.292,0.557-6.301c0.81-5.361,1.507-10.766,2.386-16.113c1.18-7.176,2.561-14.396,3.761-21.616    c1.082-6.518,1.524-13.072,2.531-19.632c0.967-6.305,1.95-13.023,1.706-19.419c-0.156-4.087-1.426-8.525-5.866-9.413    c-13.414-2.684-13.907,17.011-15.195,25.317c-1.286,8.296-2.637,16.937-3.213,25.523c-0.331,1.01-0.485,2.125-0.67,3.064    c-0.836,4.233-1.286,8.612-1.871,12.905c-0.677,4.97-1.319,9.941-1.978,14.91c-0.381,2.873-1.202,6.508-0.895,9.576    c-1.555-0.089-3.093-0.166-4.653-0.142c-2.688,0.041-2.937,1.226-2.485-1.487c1.162-6.971,2.451-13.919,3.613-20.889    c1.134-6.806,3.363-13.423,4.318-20.262c1.218-8.717,2.053-17.545,2.741-26.325c0.293-3.737,0.114-7.457,0.57-11.164    c0.661-5.365,2.244-10.29,3.807-15.438c0.485-1.596,0.652-3.534,1.519-4.951c1.045-1.708,0.417-1.619,2.92-1.612    c4.776,0.014,9.865,0.798,14.624,1.347c9.061,1.046,18.369,1.514,27.243,3.774c1.999,0.509,4.078,0.977,6.198,1.387    c0.471,0.102,0.942,0.195,1.409,0.28c6.191,1.108,12.525,2.162,18.756,3.024c5.007,0.692,10.101,1.144,15.123,1.855    c0.072,0.01,0.141,0.022,0.213,0.032c6.14,1.737,12.75,2.701,18.831,3.118c9.136,0.626,18.126,3.088,27.06,4.924    c4.692,0.964,9.77,1.809,14.313,3.287c2.381,0.775,1.811,0.495,2.271,2.442C317.252,427.396,316.805,429.291,316.767,430.958z     M326.921,414.396c-0.48,4.104-16.726-0.095-20.204-0.279c-2.198-0.117-4.424-0.297-6.659-0.514    c-1.384-0.252-2.759-0.531-4.114-0.86c-7.973-1.939-16.004-2.715-24.142-3.447c-2.494-0.476-4.996-0.864-7.516-0.985    c-8.2-2.449-17.01-2.923-25.402-4.255c-4.796-0.761-9.801-1.64-14.803-2.068c-2.67-0.802-5.423-1.288-8.205-1.65    c-7.959-1.847-15.832-3.618-24.011-4.267c-1.391-0.11-2.783-0.276-4.177-0.468c-2.192-0.492-4.363-1.016-6.487-1.591    c-3.363-0.911-20.106-1.995-19.282-6.044c0.428-2.102,4.049-2.371,7.052-2.244c3.318,1.605,7.8,1.995,10.883,2.76    c8.361,2.075,16.86,4.199,25.455,4.995c8.376,0.775,16.739,2.451,25.135,3.285c3.008,0.59,6.021,1.155,9.045,1.506    c5.297,0.616,10.651,1.356,15.896,2.317c2.776,0.509,5.659,1.371,8.527,1.761c6.69,1.266,13.469,2.218,20.071,3.732    c8.413,1.929,17.151,2.567,25.741,3.205c3.168,0.236,7.547,1.264,11.2,0.777C323.815,410.878,327.171,412.264,326.921,414.396z     M180.976,383.322c0.003-0.014,0.013-0.024,0.016-0.039c2.102-9.617,1.904-19.616,3.263-29.33    c0.901-6.441,2.144-12.847,3.154-19.273c0.502-3.19,0.864-6.293,2.393-9.183c2.615-4.941,8.764-5.104,9.563,0.908    c0.612,4.606-0.301,10.355-0.87,14.995c-0.699,5.7-2.301,11.364-2.654,17.097c-0.562,9.141-3.433,18.26-3.712,27.423    c-3.115-0.718-6.222-1.491-9.352-2.221C182.303,383.589,181.681,383.466,180.976,383.322z M203.692,388.124    c1.242-2.252,1.25-5.652,1.417-8.128c0.367-5.423,1.448-10.885,1.93-16.354c0.524-5.935,1.96-11.881,2.905-17.763    c0.893-5.554,1.868-11.769,5.028-16.521c2.01-3.022,5.231-4.807,8.903-3.465c3.952,1.444,3.675,6.673,3.517,10.227    c-0.273,6.111-1.131,12.363-1.766,18.441c-0.319,3.053-1.255,6.027-1.709,9.061c-0.433,2.9-0.368,5.799-0.824,8.716    c-0.93,5.945-1.463,11.906-2.429,17.853c-4.246-0.706-8.504-1.244-12.672-1.579C206.547,388.494,205.117,388.321,203.692,388.124z     M233.614,392.273c3.114-11.157,2.835-23.34,5.107-34.71c1.179-5.902,1.965-12.258,3.887-17.974    c2.153-6.403,8.372-13.94,16.047-12.29c12.54,2.696,5.967,25.281,4.577,33.649c-1.895,11.413-4.045,22.725-5.932,34.129    c-4.601-0.794-9.287-1.105-13.914-1.718C240.126,392.928,236.869,392.638,233.614,392.273z M287.188,401.497    c-1.415-0.258-2.829-0.539-4.237-0.88c-4.066-0.984-8.279-1.804-12.532-2.459c0.94-5.95,2.295-11.78,3.268-17.717    c0.477-2.913,1.444-5.648,1.939-8.538c0.518-3.024,0.557-6.141,1.206-9.141c1.295-5.972,2.432-12.179,4.082-18.07    c0.959-3.426,2.329-8.479,6.534-8.617c3.907-0.128,6.41,2.574,7.375,6.072c1.519,5.501,0.502,11.71-0.383,17.265    c-0.938,5.884-1.432,11.981-2.787,17.782c-1.249,5.346-1.928,10.871-3.273,16.139    C287.765,395.737,286.712,398.969,287.188,401.497z M310.267,404.03c-0.714-0.084-1.343-0.16-1.83-0.204    c-3.201-0.284-6.395-0.521-9.577-0.811c2.596-8.792,2.717-18.35,5.039-27.211c1.455-5.556,1.702-11.436,2.819-17.07    c0.908-4.585,1.836-10.333,3.856-14.517c2.637-5.462,8.427-3.388,9.368,2.123c0.55,3.223-0.075,6.283-0.595,9.471    c-1.047,6.421-1.867,12.893-3.023,19.294c-1.744,9.653-5.054,19.09-6.06,28.883C310.262,404.003,310.268,404.015,310.267,404.03z     M331.706,337.688c-0.123,5.378-0.157,10.552-1.205,15.855c-0.725,3.665-2.057,7.142-2.946,10.784    c-2.089,8.556-4.053,17.203-5.618,25.865c-0.357,1.975-0.664,3.966-0.971,5.95c-0.271,1.752,0.135,3.89-0.828,5.418    c-0.854,1.355-3.161,2.817-4.519,1.339c-1.473-1.603-0.475-5.656,0.022-7.556c0.855-3.269,1.761-6.509,2.485-9.812    c1.438-6.564,2.518-13.197,3.614-19.824c1.37-8.293,7.053-27.156-6.528-28.797c-4.496-0.543-7.088,3.276-8.513,7.11    c-2.229,6-3.393,12.689-4.445,18.98c-1.093,6.546-2.721,12.911-3.727,19.44c-0.57,3.693-1.025,7.458-1.686,11.133    c-0.229,1.262-0.755,2.505-1.074,3.749c-0.304,1.181-0.211,4.229-1.273,5.018c-2.181,1.619-3.454,0.07-3.764-2.376    c-0.27-2.126,0.437-3.936,1.107-5.887c0.716-2.089,1.092-4.332,1.431-6.507c1.211-7.753,3.148-15.357,4.371-23.144    c0.991-6.309,2.366-12.848,1.837-19.28c-0.333-4.055-1.777-9.767-5.463-12.088c-3.649-2.297-10.768-1.397-13.636,1.922    c-3.578,4.14-4.584,13.184-5.481,18.293c-0.036,0.206-0.072,0.413-0.109,0.619c-1.855,10.43-4.326,20.735-6.472,31.106    c-0.473,2.282-0.884,11.101-4.639,11.06c-3.366-0.037-0.941-7.248-0.655-8.897c0.671-3.874,1.371-7.742,2.06-11.612    c1.376-7.733,2.713-15.477,3.71-23.27c1.185-9.261,2.967-26.379-9.558-28.597c-12.588-2.229-19.495,10.43-21.692,20.703    c-0.707,3.304-1.378,6.615-2.001,9.935c-1.952,10.389-3.211,20.795-4.162,31.315c-0.156,1.732-2.27,8.276-5.028,6.467    c-1.846-1.211-0.602-5.543-0.359-7.267c0.606-4.321,1.043-8.671,1.497-13.011c0.897-8.566,1.706-17.146,2.943-25.672    c0.745-5.134,2.613-14.039,0.507-19.09c-1.688-4.048-8.17-7.127-12.353-6.084c-4.227,1.054-7.384,6.03-8.966,9.778    c-2.51,5.945-3.247,12.586-4.275,18.889c-1.27,7.78-1.805,15.608-3.076,23.352c-0.42,2.561-0.678,4.868-0.679,7.389    c-0.001,1.968,0.478,3.937-0.965,5.458c-1.337,1.408-2.954,1.433-3.928-0.421c-0.556-1.058-0.498-2.046-0.217-3.155    c0.39-1.537,0.296-3.067,0.521-4.684c0.52-3.697,1.263-7.415,1.875-11.102c1.083-6.518,1.524-13.072,2.531-19.632    c0.967-6.305,1.95-13.023,1.706-19.419c-0.155-4.086-1.426-8.525-5.866-9.413c-13.414-2.684-13.907,17.011-15.195,25.317    c-1.076,6.943-2.172,13.888-2.851,20.885c-0.341,3.508-0.579,7.027-0.647,10.551c-0.033,1.669,1.011,6.345-0.899,7.226    c-1.734,0.8-4.704-0.95-5.434-2.432c-0.657-1.335,0.822-5.632,1.061-7.075c0.328-1.98,0.658-3.968,0.937-5.956    c1.218-8.717,2.053-17.545,2.741-26.326c0.293-3.737,0.114-7.456,0.57-11.164c0.661-5.365,2.244-10.29,3.807-15.438    c0.485-1.596,0.652-3.534,1.519-4.951c1.045-1.708,0.417-1.619,2.92-1.61c4.778,0.014,9.865,0.798,14.624,1.347    c9.061,1.046,18.369,1.514,27.243,3.774c5.78,1.472,12.199,2.596,18.444,2.89c4.025,1.14,8.534,1.566,12.125,2.182    c4.657,0.8,9.563,1.931,14.42,2.349c5.166,1.214,10.531,1.929,15.54,2.272c9.136,0.626,18.126,3.088,27.06,4.924    c4.692,0.964,9.77,1.809,14.313,3.287c2.381,0.775,1.811,0.495,2.271,2.442C332.191,334.126,331.744,336.02,331.706,337.688z     M341.939,320.628c-0.48,4.104-16.726-0.095-20.204-0.279c-3.827-0.204-7.74-0.589-11.646-1.055    c-6.171-1.441-12.377-2.216-18.642-2.828c-2.721-0.569-5.449-1.143-8.192-1.527c-3.038-1.293-6.703-1.381-9.929-1.905    c-5.22-0.848-10.449-1.639-15.676-2.443c-5.054-0.778-10.104-1.476-15.17-2.14c-1.328-0.174-2.599-0.285-3.859-0.379    c-4.024-1.146-8.233-1.585-12.418-2.055c-6.142-1.376-12.281-2.578-18.593-3.136c-3.857-0.776-7.693-1.633-11.393-2.634    c-3.363-0.911-20.106-1.995-19.282-6.044c0.428-2.102,4.048-2.371,7.052-2.244c3.318,1.605,7.8,1.995,10.883,2.76    c8.361,2.075,16.86,4.199,25.455,4.995c7.896,0.73,15.78,2.274,23.693,3.148c0.052,0.008,0.103,0.016,0.155,0.024    c4.187,0.603,8.257,1.526,12.398,2.407c4.238,0.902,8.575,1.454,12.858,2.144c3.091,0.498,6.301,1.144,9.464,1.139    c6.702,1.27,13.492,2.223,20.106,3.738c8.413,1.929,17.151,2.567,25.741,3.205c3.168,0.236,7.547,1.264,11.201,0.777    C338.834,317.11,342.189,318.497,341.939,320.628z M195.994,289.554c0.003-0.014,0.013-0.024,0.016-0.039    c2.102-9.617,1.904-19.616,3.263-29.33c0.901-6.441,2.144-12.847,3.154-19.273c0.502-3.19,0.864-6.293,2.393-9.183    c2.615-4.941,8.764-5.104,9.563,0.908c0.612,4.606-0.302,10.355-0.87,14.995c-0.699,5.7-2.301,11.364-2.654,17.097    c-0.562,9.141-3.432,18.26-3.712,27.423c-3.115-0.718-6.222-1.491-9.352-2.221C197.321,289.82,196.7,289.698,195.994,289.554z     M218.711,294.355c1.242-2.252,1.25-5.652,1.417-8.127c0.367-5.424,1.448-10.885,1.931-16.354    c0.524-5.935,1.96-11.881,2.905-17.763c0.893-5.554,1.867-11.769,5.028-16.521c2.01-3.022,5.231-4.807,8.903-3.465    c3.952,1.444,3.675,6.673,3.517,10.227c-0.273,6.111-1.131,12.363-1.766,18.441c-0.319,3.053-1.256,6.026-1.709,9.061    c-0.433,2.9-0.368,5.799-0.824,8.716c-0.93,5.945-1.463,11.906-2.429,17.853c-4.245-0.706-8.504-1.244-12.672-1.579    C221.566,294.727,220.136,294.553,218.711,294.355z M272.242,302.329c-5.042-0.824-10.322-1.103-14.866-2.06    c-2.706-0.571-5.701-1.292-8.756-1.84c3.177-11.215,2.878-23.481,5.164-34.922c1.179-5.902,1.965-12.258,3.887-17.974    c2.153-6.403,8.372-13.94,16.047-12.29c12.54,2.696,5.967,25.281,4.577,33.649c-1.932,11.636-4.132,23.164-6.045,34.794    C272.212,301.916,272.219,302.127,272.242,302.329z M302.206,307.73c-1.415-0.258-2.829-0.539-4.237-0.88    c-4.066-0.983-8.278-1.804-12.531-2.459c0.94-5.95,2.295-11.78,3.268-17.718c0.477-2.913,1.444-5.648,1.939-8.538    c0.518-3.024,0.557-6.141,1.206-9.141c1.294-5.972,2.432-12.179,4.081-18.07c0.96-3.426,2.329-8.479,6.534-8.617    c3.907-0.128,6.41,2.573,7.375,6.072c1.519,5.5,0.502,11.71-0.383,17.265c-0.938,5.884-1.432,11.981-2.787,17.782    c-1.249,5.346-1.928,10.871-3.273,16.139C302.785,301.969,301.73,305.201,302.206,307.73z M325.286,310.262    c-0.714-0.083-1.343-0.16-1.829-0.204c-3.201-0.284-6.394-0.521-9.578-0.811c2.596-8.792,2.717-18.35,5.039-27.211    c1.455-5.556,1.702-11.436,2.819-17.07c0.908-4.585,1.836-10.333,3.856-14.517c2.638-5.462,8.427-3.387,9.368,2.124    c0.55,3.223-0.075,6.283-0.595,9.471c-1.047,6.42-1.867,12.893-3.023,19.294c-1.744,9.654-5.054,19.09-6.061,28.883    C325.281,310.235,325.287,310.247,325.286,310.262z M346.724,243.919c-0.123,5.378-0.157,10.552-1.205,15.855    c-0.725,3.665-2.057,7.142-2.946,10.784c-2.089,8.556-4.053,17.203-5.618,25.864c-0.357,1.975-0.664,3.966-0.971,5.95    c-0.224,1.445-0.161,5.989-1.202,7.053c-1.274,1.3-5.049,2.03-5.72,0.157c-0.821-2.294,0.7-5.028,1.345-7.163    c0.995-3.289,1.839-6.624,2.586-9.978c1.514-6.784,2.63-13.648,3.763-20.505c1.37-8.293,7.053-27.156-6.528-28.797    c-4.496-0.543-7.089,3.276-8.513,7.11c-2.229,6-3.393,12.689-4.445,18.98c-1.093,6.546-2.721,12.911-3.727,19.441    c-0.57,3.693-1.025,7.458-1.686,11.133c-0.456,2.525-1.251,5.167-2.71,7.291c-1.046,1.523-2.951,3.191-3.536,0.373    c-0.502-2.42,0.142-4.73,1.07-6.911c0.896-2.106,1.25-4.499,1.602-6.756c1.211-7.754,3.148-15.357,4.371-23.144    c0.991-6.309,2.366-12.848,1.837-19.28c-0.333-4.055-1.777-9.767-5.463-12.088c-3.649-2.297-10.768-1.397-13.636,1.922    c-3.578,4.14-4.584,13.184-5.481,18.293c-1.511,8.612-3.457,17.14-5.304,25.684c-0.937,4.33-1.849,8.665-2.667,13.018    c-0.264,1.406-2.698,8.349-4.536,4.535c-1.428-2.963,0.154-6.642,0.678-9.658c0.673-3.871,1.371-7.737,2.06-11.607    c1.376-7.73,2.713-15.469,3.71-23.258c1.185-9.261,2.967-26.379-9.558-28.597c-12.588-2.229-19.495,10.43-21.693,20.703    c-2.046,9.558-3.788,19.189-4.976,28.895c-0.596,4.871-0.852,9.755-1.311,14.634c-0.192,2.035-2.249,6.548-4.863,4.163    c-2.108-1.925-0.488-6.574-0.196-8.91c0.513-4.115,0.954-8.237,1.383-12.361c0.844-8.13,1.633-16.271,2.806-24.363    c0.745-5.134,2.613-14.039,0.508-19.09c-1.688-4.048-8.17-7.127-12.353-6.084c-4.227,1.054-7.384,6.03-8.966,9.778    c-2.51,5.945-3.247,12.586-4.275,18.889c-0.787,4.822-1.293,9.683-1.869,14.533c-0.288,2.42-0.591,4.839-0.959,7.248    c-0.262,1.721-0.075,3.222-0.194,4.909c-0.118,1.664-1.65,13.262-4.999,10.186c-1.453-1.334-0.853-4.334-0.701-6.025    c0.426-4.751,1.472-9.313,2.252-14.015c1.082-6.518,1.524-13.072,2.531-19.632c0.967-6.305,1.95-13.023,1.706-19.419    c-0.156-4.086-1.426-8.525-5.866-9.413c-13.414-2.684-13.907,17.011-15.195,25.317c-1.145,7.383-2.311,14.769-2.975,22.215    c-0.314,3.523-0.215,7.076-0.575,10.603c-0.171,1.679-0.196,3.988-1.039,5.506c-0.574,1.035-0.818,0.965-1.932,0.459    c-1.156-0.525-2.717-1.352-3.309-2.553c-0.657-1.335,0.822-5.632,1.061-7.076c0.328-1.98,0.658-3.967,0.937-5.956    c1.218-8.717,2.053-17.545,2.741-26.326c0.293-3.737,0.114-7.456,0.57-11.164c0.661-5.365,2.244-10.29,3.807-15.438    c0.485-1.596,0.652-3.534,1.519-4.951c1.045-1.708,0.417-1.619,2.92-1.61c4.778,0.014,9.865,0.798,14.624,1.347    c9.061,1.046,18.369,1.514,27.243,3.774c6.102,1.554,12.925,2.739,19.497,2.954c3.207,0.599,6.406,1.237,9.62,1.796    c4.359,0.759,9.573,1.991,14.569,2.363c5.564,1.403,11.416,2.211,16.844,2.582c9.136,0.626,18.126,3.088,27.06,4.924    c4.692,0.964,9.77,1.809,14.313,3.287c2.381,0.774,1.811,0.495,2.271,2.442C347.209,240.359,346.763,242.252,346.724,243.919z     M356.878,227.357c-0.48,4.105-16.726-0.095-20.204-0.279c-2.197-0.117-4.423-0.298-6.659-0.514    c-1.384-0.252-2.759-0.531-4.114-0.86c-6.235-1.516-12.609-2.333-18.987-2.965c-2.67-0.264-5.547-0.888-8.217-0.563    c-2.663,0.324-4.293-0.77-6.798-1.557c-2.126-0.668-4.341-0.855-6.547-1.101c-4.233-0.471-8.475-1.255-12.709-1.801    c-4.703-0.606-10.72-2.265-16.141-2.241c-0.562-0.091-1.12-0.18-1.687-0.282c-2.911-0.955-5.929-1.498-8.981-1.894    c-7.959-1.847-15.832-3.618-24.011-4.267c-1.391-0.11-2.783-0.276-4.177-0.468c-2.192-0.492-4.363-1.015-6.486-1.591    c-3.363-0.911-20.107-1.995-19.282-6.044c0.428-2.102,4.049-2.371,7.052-2.244c3.319,1.605,7.8,1.995,10.883,2.76    c8.361,2.075,16.86,4.199,25.455,4.995c7.109,0.658,14.208,1.965,21.326,2.858c3.151,0.62,6.319,1.326,9.477,1.686    c4.521,0.515,9.066,1.117,13.516,2.026c3.358,0.686,6.812,1.399,10.258,1.484c7.982,1.72,16.166,2.728,24.096,4.547    c8.413,1.929,17.151,2.566,25.741,3.205c3.168,0.236,7.547,1.264,11.2,0.777C353.773,223.84,357.128,225.227,356.878,227.357z     M210.933,196.284c0.003-0.014,0.013-0.024,0.016-0.039c2.102-9.617,1.904-19.616,3.263-29.33    c0.901-6.441,2.144-12.847,3.154-19.273c0.501-3.19,0.864-6.293,2.393-9.183c2.615-4.941,8.764-5.104,9.563,0.908    c0.612,4.606-0.301,10.355-0.87,14.995c-0.699,5.701-2.301,11.364-2.654,17.097c-0.562,9.142-3.433,18.26-3.712,27.423    c-3.115-0.718-6.222-1.491-9.352-2.221C212.26,196.55,211.638,196.427,210.933,196.284z M233.65,201.085    c1.241-2.252,1.25-5.652,1.417-8.128c0.367-5.423,1.448-10.884,1.93-16.354c0.524-5.934,1.96-11.881,2.905-17.763    c0.893-5.554,1.868-11.769,5.028-16.521c2.01-3.022,5.231-4.807,8.903-3.465c3.952,1.444,3.675,6.673,3.517,10.227    c-0.273,6.112-1.131,12.363-1.766,18.441c-0.319,3.053-1.255,6.027-1.709,9.061c-0.433,2.9-0.368,5.799-0.824,8.716    c-0.93,5.945-1.463,11.906-2.429,17.853c-4.246-0.706-8.504-1.244-12.672-1.579C236.506,201.457,235.074,201.282,233.65,201.085z     M263.454,205.892c3.144-11.184,2.855-23.406,5.133-34.809c1.179-5.902,1.965-12.258,3.887-17.974    c2.153-6.402,8.372-13.94,16.047-12.29c12.54,2.696,5.966,25.281,4.577,33.649c-1.932,11.636-4.132,23.164-6.045,34.794    c-0.019,0.115-0.017,0.219-0.021,0.328c-2.257-0.333-4.539-0.576-6.737-1.021c-4.315-0.87-8.781-1.547-13.185-1.888    c-0.32-0.025-0.642-0.058-0.963-0.093C265.262,206.34,264.352,206.125,263.454,205.892z M317.145,214.458    c-1.415-0.258-2.829-0.539-4.237-0.88c-4.066-0.984-8.278-1.804-12.532-2.459c0.94-5.95,2.295-11.78,3.268-17.718    c0.477-2.913,1.444-5.648,1.939-8.538c0.517-3.024,0.557-6.141,1.206-9.141c1.294-5.972,2.432-12.179,4.081-18.07    c0.96-3.426,2.329-8.479,6.534-8.617c3.907-0.128,6.41,2.574,7.375,6.072c1.519,5.5,0.502,11.71-0.383,17.265    c-0.938,5.884-1.432,11.981-2.787,17.782c-1.249,5.346-1.928,10.871-3.273,16.139    C317.724,208.699,316.669,211.931,317.145,214.458z M340.225,216.991c-0.714-0.084-1.343-0.16-1.83-0.204    c-3.201-0.284-6.395-0.521-9.577-0.811c2.596-8.792,2.717-18.35,5.039-27.211c1.455-5.556,1.702-11.436,2.819-17.07    c0.909-4.585,1.836-10.333,3.856-14.517c2.638-5.462,8.427-3.388,9.368,2.124c0.55,3.222-0.075,6.283-0.595,9.471    c-1.047,6.421-1.867,12.893-3.023,19.294c-1.744,9.653-5.054,19.09-6.06,28.883C340.219,216.964,340.226,216.977,340.225,216.991z     M361.663,150.649c-0.123,5.379-0.157,10.552-1.205,15.855c-0.725,3.665-2.057,7.142-2.946,10.784    c-2.089,8.556-4.053,17.203-5.618,25.865c-0.357,1.975-0.664,3.966-0.971,5.95c-0.224,1.445-0.16,5.989-1.202,7.053    c-1.278,1.305-4.404,1.309-7.195,1.075c4.867-12.089,7.054-25.752,9.171-38.564c1.37-8.293,7.053-27.156-6.528-28.797    c-4.496-0.543-7.089,3.276-8.513,7.11c-2.229,6-3.393,12.689-4.445,18.98c-1.093,6.546-2.721,12.911-3.727,19.441    c-0.57,3.693-1.025,7.458-1.686,11.133c-0.25,1.381-0.826,2.737-1.165,4.102c-0.296,1.197-0.111,4.078-1.323,4.754    c-1.644,0.917-3.922-0.518-4.078-2.153c-0.18-1.877,0.76-3.736,1.33-5.471c0.787-2.396,1.262-4.668,1.663-7.234    c1.211-7.754,3.148-15.357,4.371-23.144c0.991-6.309,2.366-12.849,1.837-19.28c-0.333-4.055-1.777-9.767-5.463-12.088    c-3.649-2.297-10.768-1.397-13.636,1.922c-3.578,4.14-4.584,13.184-5.481,18.293c-2.585,14.74-6.452,29.267-8.929,44.076    c-0.007,0.033-0.02,0.06-0.024,0.094c-0.004,0.031-0.01,0.062-0.014,0.093c-1.52-0.188-3.038-0.345-4.555-0.485    c0.004-0.022,0.012-0.039,0.015-0.061c2.295-14.715,5.422-29.385,7.31-44.156c1.185-9.261,2.967-26.379-9.558-28.597    c-12.588-2.229-19.495,10.43-21.692,20.703c-3.326,15.539-5.882,31.458-6.48,47.338c-1.931-0.462-3.882-0.892-5.846-1.278    c0.005-0.031,0.01-0.062,0.015-0.093c0.005-0.034,0.002-0.063,0.007-0.097c2.273-14.841,3.137-29.85,5.284-44.66    c0.745-5.134,2.613-14.039,0.508-19.09c-1.688-4.048-8.17-7.127-12.353-6.084c-4.227,1.054-7.384,6.03-8.966,9.778    c-2.51,5.945-3.247,12.586-4.275,18.889c-1.27,7.78-1.805,15.608-3.076,23.352c-0.42,2.561-0.679,4.868-0.679,7.389    c-0.001,1.848,0.988,6.023-1.134,7.186c-1.7,0.931-4.282-0.853-4.066-2.721c0.278-2.404,0.275-4.882,0.61-7.268    c0.52-3.697,1.263-7.415,1.875-11.102c1.083-6.518,1.524-13.072,2.531-19.632c0.967-6.305,1.95-13.023,1.706-19.419    c-0.156-4.086-1.426-8.525-5.866-9.413c-13.414-2.684-13.907,17.011-15.195,25.317c-1.99,12.833-4.18,26.494-3.332,39.498    c-2.724-0.65-5.693-1.63-6.498-3.269c-0.657-1.335,0.822-5.632,1.06-7.075c0.328-1.98,0.658-3.967,0.937-5.956    c1.218-8.717,2.053-17.545,2.741-26.326c0.293-3.737,0.114-7.456,0.57-11.164c0.661-5.365,2.244-10.29,3.807-15.438    c0.485-1.596,0.652-3.534,1.519-4.951c1.045-1.708,0.417-1.619,2.92-1.611c4.778,0.014,9.865,0.798,14.624,1.347    c9.061,1.046,18.369,1.514,27.243,3.774c6.723,1.712,14.316,2.96,21.489,2.971c0.273,0.051,0.547,0.099,0.819,0.151    c5.586,1.062,11.182,1.944,16.806,2.783c0.235,0.035,0.479,0.073,0.718,0.11c6.65,2.096,13.993,3.222,20.698,3.681    c9.136,0.626,18.126,3.088,27.06,4.924c4.691,0.964,9.77,1.809,14.313,3.287c2.381,0.775,1.811,0.495,2.271,2.442    C362.148,147.089,361.701,148.982,361.663,150.649z M363.211,124.16c-0.6,3.534-1.566,8.528-0.905,12.678    c-3.328-1.129-6.805-1.794-10.304-2.374c0.532-1.026,0.765-2.318,0.891-3.55c0.897-4.383,1.652-8.806,2.342-13.245    c1.761,0.493,3.564,0.979,5.393,1.119c1.05,0.08,3.142-0.211,3.632,1.084C364.64,120.873,363.396,123.077,363.211,124.16z"/>
	</g>
</g>
<g>
</g>
<g>
</g>
<g>
</g>
<g>
</g>
<g>
</g>
<g>
</g>
<g>
</g>
<g>
</g>
<g>
</g>
<g>
</g>
<g>
</g>
<g>
</g>
<g>
</g>
<g>
</g>
<g>
</g>
</svg>
