<?xml version="1.0" encoding="iso-8859-1"?>
<!-- Generator: Adobe Illustrator 19.0.0, SVG Export Plug-In . SVG Version: 6.00 Build 0)  -->
<svg xmlns="http://www.w3.org/2000/svg" xmlns:xlink="http://www.w3.org/1999/xlink" version="1.1" id="Layer_1" x="0px" y="0px" viewBox="0 0 511.997 511.997" style="enable-background:new 0 0 511.997 511.997;" xml:space="preserve">
<g>
	<g>
		<path d="M317.322,129.468c-2.408-4.567-5.723-10.768-9.659-14.15c-3.499-3.006-9.498-4.686-13.806-6.075    c-2.743-0.885-5.581-1.411-8.435-1.841c-0.876-0.2-1.706-0.396-2.443-0.603c-8.744-2.457-17.734-2.712-26.765-2.579    c-8.213,0.121-16.087,0.459-24.175,1.849c-2.779,0.477-5.788,1.101-8.782,1.899c-1.73,0.333-3.443,0.733-5.119,1.273    c-4.308,1.389-10.307,3.069-13.806,6.075c-3.936,3.382-7.252,9.583-9.659,14.15c-1.922,3.644-4.61,7.917-3.849,12.187    c0.82,4.595,4.084,6.916,7.975,8.94c6.583,3.426,11.722,2.543,16.767,0.285c5.1-0.547,10.096-3.085,14.129-6.105    c2.268-1.697,4.077-3.827,6.065-5.8c-0.935,2.226-1.702,4.521-2.233,6.782c-1.42,6.047-3.558,12.278-4.511,18.381    c-0.968,6.19-1.869,12.394-2.56,18.62c-0.417,3.764-1.143,7.619-3.001,10.948c-1.349,2.417-3.585,4.222-5.307,6.369    c-4.666,5.813-4.503,14.551,1.088,19.844c3.847,3.643,10.049,5.094,16.116,5.223c5.482,1.424,11.608,1.725,16.379,1.789    c7.092,0.097,16.389,1.26,23.214-1.787c6.583,0.124,13.604-1.242,17.812-5.225c5.592-5.294,5.755-14.032,1.088-19.844    c-1.723-2.148-3.96-3.952-5.307-6.369c-1.858-3.331-2.584-7.184-3.001-10.948c-0.689-6.226-1.591-12.431-2.559-18.62    c-0.955-6.104-3.092-12.334-4.511-18.381c-0.53-2.261-1.298-4.555-2.234-6.782c1.989,1.973,3.797,4.103,6.065,5.8    c4.033,3.02,9.029,5.56,14.13,6.106c5.044,2.26,10.184,3.141,16.767-0.284c3.891-2.024,7.156-4.347,7.975-8.94    C321.931,137.384,319.243,133.111,317.322,129.468z M277.473,218.892c-4.284,0.347-8.078,0.794-12.134,2.381    c-0.085,0.034-0.153,0.086-0.228,0.132c-3.285,0.208-6.557,0.417-9.916,0.431c-2.803,0.013-5.541-0.181-8.279-0.411    c-0.084-0.055-0.165-0.115-0.263-0.152c-4.054-1.587-7.849-2.034-12.133-2.381c-3.664-0.297-8.05-0.494-10.992-2.544    c2.867-2.07,6.161-4.114,9.01-5.292c4.01-1.658,8.173-2.138,12.284-3.045c2.339-0.297,4.651-0.482,6.592-0.52    c6.457-0.129,13.3,1.314,19.878,1.353c2.749,0.532,5.49,1.108,8.163,2.214c2.849,1.178,6.143,3.222,9.01,5.292    C285.525,218.399,281.137,218.595,277.473,218.892z M280.899,189.37c0.85,3.874,1.556,6.826,4.013,9.892    c3.077,3.841,7.869,7.023,6.567,12.564c-0.135,0.574-0.328,1.081-0.547,1.56c-1.98-2.431-5.06-4.416-7.396-5.546    c-4.778-2.309-10.31-4.187-15.639-3.653c-6.037-1.045-12.172-1.494-18.316-0.962c-2.819,0.243-6.12,0.447-9.137,0.947    c-4.152,0.356-8.294,1.884-11.985,3.669c-2.337,1.129-5.416,3.114-7.396,5.546c-0.218-0.479-0.412-0.986-0.547-1.56    c-1.302-5.541,3.489-8.723,6.567-12.564c2.457-3.066,3.163-6.02,4.013-9.892c2.302-10.489,1.768-21.352,4.792-31.763    c1.414-4.871,1.562-9.958,3.042-14.805c0.849-2.779,1.522-5.057,1.441-7.651c2.54-1.844,5.136-3.498,7.862-4.969    c1.677-0.432,3.391-0.759,5.151-0.955c2.233-0.248,4.853-0.745,7.228-0.611c3.923,1.802,7.514,3.998,11.007,6.535    c-0.081,2.594,0.593,4.872,1.441,7.651c1.481,4.847,1.63,9.935,3.042,14.805C279.129,168.018,278.596,178.881,280.899,189.37z     M309.238,145.839c-3.887,1.562-9.709,2.276-13.914,1.323c-0.515-0.117-1.964-0.569-3.659-1.158    c-1.006-0.477-1.999-0.997-2.989-1.645c-2.708-1.771-4.184-3.155-5.694-5.893c-0.874-1.582-1.777-2.99-3.046-4.28    c-2.829-2.875-6.797-5.98-11.028-7.647c-4.792-3.973-11.784-3.046-17.765-1.963c-1.108,0.201-2.169,0.477-3.207,0.787    c-5.929,0.469-11.98,4.864-15.873,8.823c-1.269,1.29-2.173,2.697-3.046,4.28c-1.511,2.738-2.987,4.122-5.694,5.893    c-0.99,0.648-1.982,1.168-2.989,1.645c-1.695,0.589-3.143,1.041-3.659,1.158c-4.206,0.952-10.027,0.238-13.916-1.324    c-6.208-2.493-7.379-5.701-5.206-11.579c1.614-4.369,3.83-8.16,6.314-12.069c5.143-8.093,15.997-9.754,24.88-10.957    c2.135-0.289,4.279-0.6,6.419-0.952c6.552-0.588,13.164-0.796,19.941-0.867c8.493-0.09,17.325-0.358,25.574,2.028    c2.99,0.865,5.74,1.727,8.809,2.265c2.223,0.389,4.954,0.213,7.028,1.048c0.459,0.185,0.921-0.022,1.228-0.376    c4.201,1.582,7.941,3.965,10.385,7.812c2.483,3.908,4.7,7.7,6.315,12.069C316.617,140.14,315.445,143.346,309.238,145.839z"/>
	</g>
</g>
<g>
	<g>
		<path d="M303.783,252.079c-4.474-4.379-9.791-5.739-15.946-6.616c-7.934-1.131-17.96-4.341-26.108-2.404    c-3.459-0.128-6.931-0.02-10.348,0.312c-8.334-2.543-18.921,0.909-27.223,2.091c-6.155,0.877-11.472,2.238-15.946,6.616    c-0.346,0.339,0.015,0.865,0.45,0.774c5.875-1.224,12.337-2.134,18.378-2.939c2.314-0.307,4.64-0.595,6.963-0.886    c3.963-0.109,7.932,0.015,11.908-0.081c5.986-0.143,11.715-1.077,17.757-0.467c3.291,0.332,6.366,0.174,9.515-0.079    c3.918,0.517,7.856,0.991,11.77,1.513c6.041,0.805,12.503,1.715,18.378,2.939C303.768,252.944,304.13,252.419,303.783,252.079z"/>
	</g>
</g>
<g>
	<g>
		<path d="M509.974,280.037c4.829-8.445,0.027-14.279-4.152-21.787c-4.722-8.486-10.675-16.275-13.343-25.746    c-0.625-2.219-1.892-5.521-1.339-7.858c0.61-2.581,3.039-3.468,4.74-5.214c2.362-2.422,4.73-5.941,4.954-9.369    c0.544-8.285-1.725-18.152-3.935-26.108c-4.063-14.628-18.23-23.783-31.668-28.874c-8.949-3.389-18.389-6.082-27.906-7.017    c-1.255-0.124-2.505-0.303-3.751-0.504c-0.475-0.101-0.953-0.193-1.429-0.297c-5.829-1.27-11.597-2.692-17.329-4.346    c-3.227-0.932-6.47-1.589-9.314-3.464c-2.191-1.446-4.033-3.096-6.362-4.376c-7.293-4.011-14.737-5.539-22.376-1.487    c-7.201,3.819-9.583,16.245-10.499,23.546c-1.39,11.095-2.003,22.199-3.022,33.313c-0.926,10.084-1.703,20.13-2.664,30.227    c-0.993,10.44-1.829,20.86-2.763,31.275c-0.499,5.568-0.595,11.431-0.602,17.044c-0.006,5.34-1.297,10.262-1.888,15.498    c-0.502,4.448-1.389,9.71,0.324,14.025c1.273,3.206,4.526,5.49,6.972,7.787c2.904,2.728,6.391,4.901,10.315,5.818    c0.201,0.047,0.399,0.067,0.599,0.104c0.641,6.525,2.008,12.267,5.944,17.277c-0.661,3.806-0.434,7.389,0.064,11.516    c0.439,3.641,0.906,7.668,0.197,11.301c-0.791,4.056-3.372,5.808-6.716,7.678c-7.072,3.953-15.027,6.876-20.044,12.579    c-0.493-2.491-0.985-4.984-1.464-7.489c-1.087-5.678-2.475-11.559-6.583-15.895c-4.406-4.65-10.993-6.849-16.681-9.429    c-6.666-3.024-10.829-7.224-13.069-14.336c-1.016-3.226-1.339-6.445-1.987-9.594c7.501-3.18,14.309-8.321,17.21-15.529    c2.478-6.16,1.381-12.398,1.94-18.855c0.534-6.182,0.277-12.145,0.392-18.333c0.227-12.282,1.748-24.729,2.511-37.001    c0.847-13.65,0.603-27.432,0.698-41.126c0.101-14.583,1.363-29.048,1.228-43.637c-0.107-11.587-2.316-22.929-2.827-34.453    c-0.549-12.417-2.352-24.953-8.347-36.066c-5.286-9.797-11.742-17.634-22.851-20.602c-6.997-1.869-14.376-3.011-21.738-3.222    c-5.841-0.518-11.714,0.373-17.764-0.23c-6.096-0.608-11.354-0.31-17.536,0.064c-1.933,0.116-3.88,0.277-5.829,0.454    c-10.476-0.946-21.356,0.24-31.439,2.934c-11.109,2.968-17.564,10.805-22.851,20.602c-5.995,11.113-7.798,23.649-8.347,36.066    c-0.51,11.523-2.719,22.866-2.827,34.453c-0.135,14.589,1.127,29.054,1.228,43.637c0.094,13.695-0.151,27.477,0.698,41.126    c0.762,12.272,2.284,24.718,2.511,37.001c0.115,6.188-0.144,12.151,0.391,18.333c0.558,6.457-0.539,12.695,1.941,18.855    c2.9,7.208,9.708,12.349,17.21,15.529c-0.648,3.148-0.97,6.368-1.987,9.594c-2.24,7.112-6.403,11.312-13.069,14.336    c-5.688,2.581-12.275,4.781-16.681,9.429c-4.108,4.335-5.496,10.216-6.583,15.895c-0.479,2.505-0.971,4.998-1.464,7.489    c-5.017-5.703-12.972-8.627-20.044-12.579c-3.346-1.869-5.926-3.623-6.716-7.678c-0.709-3.634-0.242-7.661,0.197-11.301    c0.498-4.127,0.724-7.708,0.064-11.516c3.936-5.01,5.302-10.752,5.944-17.277c0.2-0.036,0.398-0.056,0.599-0.104    c3.925-0.918,7.411-3.09,10.315-5.818c2.446-2.297,5.701-4.582,6.972-7.787c1.713-4.314,0.826-9.577,0.324-14.025    c-0.591-5.238-1.882-10.159-1.888-15.498c-0.006-5.613-0.102-11.476-0.602-17.044c-0.933-10.415-1.768-20.835-2.763-31.275    c-0.961-10.097-1.738-20.141-2.664-30.227c-1.021-11.114-1.632-22.218-3.022-33.313c-0.915-7.3-3.298-19.726-10.499-23.546    c-7.64-4.051-15.082-2.523-22.376,1.488c-2.329,1.28-4.169,2.93-6.362,4.376c-2.843,1.876-6.087,2.532-9.314,3.464    c-5.73,1.655-11.5,3.076-17.329,4.346c-0.475,0.104-0.953,0.197-1.429,0.297c-1.247,0.201-2.496,0.381-3.751,0.504    c-9.517,0.933-18.957,3.626-27.906,7.017c-13.439,5.092-27.605,14.246-31.668,28.874c-2.21,7.956-4.48,17.823-3.935,26.108    c0.226,3.428,2.593,6.946,4.954,9.369c1.701,1.745,4.129,2.633,4.74,5.214c0.553,2.337-0.714,5.639-1.339,7.858    c-2.668,9.47-8.621,17.26-13.343,25.746c-4.179,7.509-8.98,13.341-4.152,21.787c2.596,4.539,7.999,11.305,13.768,14.612    c-2.873,3.604-5.244,10.471-5.79,14.019c-0.465,3.026,1.375,4.921,3.817,5.948c0.06,1.103,0.378,1.34,1.091,3.045    c1.761,4.212,1.678,6.56-0.089,10.781c-1.966,4.693-2.606,7.705-3.381,12.83c-1.171,7.727-4.03,19.218,0.081,26.553    c3.272,5.84,12.275,6.49,18.165,6.58c3.605,0.056,7.235-0.001,10.869-0.112c-3.198,12.007-2.536,25.287-3.926,37.472    c-0.932,8.168-1.777,16.474-4.244,24.354c-1.156,3.694-2.497,7.309-3.862,10.899c-0.713,0.931-1.214,1.953-1.721,3.016    c-0.937,1.965-2.361,4.106-1.958,6.392c0.675,3.829,4.559,3.429,7.854,2.156c0.852-0.025,1.712-0.1,2.02-0.082    c1.666,0.091,3.367,0.366,4.951,0.901c3.727,1.263,6.391,4.4,10.057,5.733c2.521,0.916,4.995,0.514,5.498-2.574    c0.714-4.395-3.488-9.218-3.422-13.763c0.026-1.841-0.145-6.21,3.213-5.841c0.676,0.074,2.314,2.106,2.819,2.593    c2.512,2.421,5.431,6.287,6.544,9.617c1.101,3.293,6.333,1.887,5.231-1.443c-1.292-3.901-0.459-10.886,0.292-14.785    c0.624-3.24,3.19-13.761,7.978-6.294c1.698,2.648,1.027,9.05,1.143,12.066c0.136,3.528,0.282,6.955,3.206,9.357    c1.856,1.525,5.581,1.365,6.054-1.599c0.92-5.76,2.244-11.286,4.242-16.783c1.333-3.668,3.328-7.733,6.339-10.386    c2.004-1.766,0.809-1.747,1.152,0.296c0.237,1.405,0.233,3.015,0.316,4.45c0.338,5.868-4.544,19.911,2.271,23.568    c0.996,0.534,2.285,0.639,3.272,0c2.478-1.604,2.574-4.038,3.889-6.499c1.655-3.1,2.921-6.406,4.565-9.512    c1.32-2.495,3.428-7.614,5.143-1.592c0.628,2.203-0.401,5.191-0.718,7.389c-0.589,4.084-2.085,8.141-2.002,12.257    c0.055,2.687,3.129,3.728,5.04,2.088c2.261-1.938,11.684-18.362,15.162-13.959c0.764,0.967-1.443,7.631-1.606,8.577    c-0.414,2.412-0.761,4.466,0.358,6.741c1.02,2.074,3.982,2.183,5.501,0.709c1.72-1.669,2.421-3.52,3.675-5.502    c1.781-2.815,4.819-4.934,7.632-6.71c3.619-2.285,8.296-3.24,11.612,0.293c1.204,1.284,1.716,2.556,2.818,3.663    c0.708,1.726,1.822,3.216,3.655,4.282c1.383,0.804,3.079,0.277,3.921-1.028c2.883-4.465,2.088-10.772,5.369-15.328    c2.639-3.666,7.032-6.022,7.255-0.215c0.082,2.145-0.429,4.01,0.09,6.143c0.452,1.856,3.079,2.623,4.386,1.158    c1.882-2.108,2.058-9.514,5.251-8.315c2.841,1.067,6.442,8.034,8.083,10.415c1.428,2.072,4.302,2.179,5.708,0    c1.083-1.678,0.802-3.363,1.511-5.082c0.612-1.482,2.169-3.673,4.355-3.513c1.819,0.132,3.932,2.589,5.372,3.719    c2.301,1.805,6.444,0.252,5.377-3.131c-1.375-4.364-2.692-10.023-0.772-14.442c0.467-1.073,1.057-1.934,1.735-2.654    c4.862-3.458,10.408-5.151,14.657,0.084c1.997,2.46,4.374,5.477,5.828,8.237c1.336,2.536,1.685,4.624,4.074,6.47    c2.818,2.176,6.257-1.403,5.581-4.29c-0.881-3.77-1.531-7.969,0.869-11.447c3.772-5.465,7.408-0.78,10.098,2.652    c1.307,1.666,4.378,1.091,5.277-0.68c1.242-2.446,1.943-3.168,3.63-4.01c3.145,0.87,5.765,2.259,7.233,5.638    c1.919,4.418,0.603,10.078-0.772,14.442c-1.067,3.383,3.076,4.935,5.377,3.131c1.44-1.129,3.554-3.586,5.372-3.719    c2.186-0.159,3.744,2.03,4.355,3.513c0.709,1.718,0.428,3.403,1.511,5.081c1.408,2.179,4.28,2.072,5.708,0    c1.641-2.381,5.24-9.348,8.083-10.415c3.193-1.199,3.369,6.207,5.251,8.315c1.308,1.465,3.935,0.698,4.386-1.158    c0.519-2.134,0.008-3.998,0.09-6.143c0.223-5.808,4.616-3.452,7.255,0.215c3.281,4.556,2.486,10.863,5.369,15.328    c0.842,1.305,2.538,1.832,3.921,1.028c1.833-1.066,2.948-2.556,3.655-4.282c1.102-1.107,1.614-2.379,2.818-3.663    c3.316-3.533,7.993-2.578,11.612-0.293c2.813,1.776,5.852,3.895,7.632,6.71c1.253,1.982,1.954,3.834,3.675,5.502    c1.519,1.474,4.481,1.365,5.501-0.709c1.119-2.275,0.772-4.329,0.358-6.741c-0.162-0.946-2.369-7.61-1.606-8.577    c3.478-4.404,12.901,12.021,15.162,13.959c1.912,1.639,4.987,0.599,5.042-2.088c0.084-4.116-1.413-8.173-2.002-12.257    c-0.317-2.196-1.345-5.185-0.718-7.389c1.716-6.021,3.822-0.902,5.143,1.592c1.643,3.105,2.911,6.411,4.565,9.512    c1.313,2.461,1.409,4.896,3.888,6.499c0.987,0.639,2.276,0.534,3.272,0c6.814-3.659,1.933-17.7,2.271-23.568    c0.082-1.435,0.079-3.045,0.316-4.45c0.344-2.042-0.851-2.062,1.152-0.296c3.011,2.653,5.005,6.718,6.339,10.386    c1.998,5.496,3.322,11.023,4.242,16.783c0.473,2.964,4.198,3.124,6.054,1.599c2.924-2.401,3.07-5.829,3.206-9.357    c0.116-3.015-0.555-9.417,1.143-12.066c4.788-7.466,7.354,3.054,7.978,6.294c0.751,3.898,1.585,10.883,0.292,14.785    c-1.102,3.329,4.131,4.735,5.231,1.443c1.113-3.329,4.032-7.197,6.544-9.616c0.504-0.487,2.141-2.518,2.819-2.593    c3.358-0.368,3.187,4.001,3.213,5.841c0.067,4.545-4.136,9.367-3.422,13.763c0.503,3.09,2.979,3.49,5.498,2.574    c3.666-1.333,6.328-4.47,10.057-5.733c1.584-0.537,3.285-0.811,4.951-0.901c0.085-0.005,0.215-0.003,0.373,0.004    c1.328,0.626,2.558,1.41,4.094,1.67c5.14,0.867,6.822-4.521,3.937-7.346c-2.077-5.505-4.29-11.018-6.071-16.71    c-2.467-7.881-3.312-16.187-4.244-24.354c-1.39-12.186-0.729-25.464-3.927-37.473c3.634,0.111,7.264,0.167,10.869,0.112    c5.89-0.091,14.893-0.741,18.165-6.58c4.111-7.335,1.25-18.826,0.081-26.553c-0.775-5.124-1.415-8.136-3.381-12.83    c-1.767-4.219-1.849-6.568-0.089-10.781c0.713-1.705,1.031-1.942,1.091-3.045c2.442-1.027,4.282-2.92,3.817-5.948    c-0.547-3.548-2.918-10.415-5.79-14.019C501.975,291.341,507.38,284.575,509.974,280.037z M111.45,147.052    c0.125-1.195,0.603-2.331,1.294-3.388c1.772-1.137,3.53-2.306,5.457-3.212c4.496-2.114,8.19-2.633,12.799-0.802    c5.858,2.325,7.152,6.809,8.254,12.543c1.025,5.329,1.369,10.685,1.712,16.111c0.316,4.968-0.991,9.92-0.631,14.878    c0.308,4.264,0.839,8.574,1.202,12.837c0.376,4.411,0.04,8.787,0.332,13.193c0.626,9.464,2.486,18.875,2.95,28.369    c0.426,8.707,1.248,17.364,1.747,26.072c0.318,5.547-0.057,10.934,0.922,16.449c0.709,3.99,2.728,10.737,1.409,14.784    c-1.127,3.458-6.296,7.652-9.478,9.176c-2.264,1.084-3.787,0.854-6.084,0.986c-1.869,0.107-3.569,0.705-5.365,1.152    c-4.103-0.352-8.077-1.118-10.653-3.428c-5.282-4.736-2.291-16.545-1.562-22.948c0.928-8.163,0.397-17.264-0.382-25.445    c-0.809-8.507-0.749-17.02-0.763-25.565c-0.025-15.13,1.363-31.041-1.151-45.978c-1.403-8.331-2.836-16.837-1.826-25.317    C112.054,153.999,111.096,150.458,111.45,147.052z M16.433,253.03c2.659-6.902,6.583-13.494,8.491-20.764    c0.706-2.693,1.492-6.696,0.825-9.498c-0.755-3.173-3.319-4.195-5.309-6.465c-0.302-0.344-0.545-0.73-0.761-1.132    c7.756-1.96,15.293-4.76,23.21-6.241c9.099-1.701,18.852-3.689,28.102-4.043c7.52-0.288,19.269,1.969,23.285,9.152    c6.599,11.808-6.115,18.197-15.933,19.056c-11.729,1.026-32.764-2.163-34.639,14.485c-0.923,8.208,2.224,15.621,4.923,23.218    c0.948,2.669,3.165,6.872,3.146,10.245c-0.432-0.591-0.845-1.195-1.177-1.562c-1.56-1.73-3.186-3.326-5.083-4.7    c-4.073-2.951-8.894-3.413-13.73-4.232c-4.702-0.795-10.116-1.156-14.852-0.479c-3.085,0.44-6.732,1.223-9.816,2.692    C7.71,266.225,14.306,258.555,16.433,253.03z M7.678,276.811c-0.144-0.337-0.251-0.683-0.342-1.031    c8.502-2.23,17.501-2.772,26.077-0.867c4.751,1.055,8.687,1.928,12.137,5.76c1.424,1.582,2.46,3.679,4.011,5.114    c-0.147,0.162-0.287,0.324-0.443,0.487c-6.831-0.061-14.201,3.422-20.81,4.249c-3.795,0.475-6.695,1.315-9.851-1.188    C14.398,286.116,9.773,281.749,7.678,276.811z M32.58,367.937c-3.562,0.061-8.083,0.525-11.574-0.468    c-6.091-1.733-5.131-9.621-4.569-14.613c0.448-3.96,1.031-7.916,1.554-11.87c0.638-4.821,2.371-8.638,3.609-13.199    c0.268-0.991,0.407-2.014,0.437-3.042c5.208,0.004,10.541,0.745,15.716,0.196c2.95-0.313,4.867-0.78,7.904-0.412    c2.646,0.321,5.238,0.563,7.858,0.12c1.043-0.177,0.904-1.711,0-1.974c-3.126-0.91-6.151-2.658-9.407-3.081    c-3.238-0.422-6.6,0.294-9.841,0.297c-3.054,0.001-8.876-0.703-12.755,0.674c-0.495-1.802-1.315-3.515-2.458-4.98    c3.436-0.042,6.904-0.864,10.409-0.912c3.735-0.052,7.539-0.376,11.265-0.29c4.015,0.091,8.857,0.534,12.791,1.374    c2.85,0.609,4.703,2.44,7.642,2.401c1.908-0.025,2.296-2.35,0.91-3.361c-8.729-6.369-21.193-5.153-31.445-5.276    c-3.005-0.036-6.156,0.119-9.126-0.135c-1.718-0.146-4.248,2.412-5.448-1.062c-0.21-0.607,1.166-3.177,1.395-3.846    c0.764-2.218,2.41-5.453,2.376-8.174c0.759,0.182,1.514,0.308,2.261,0.313c6.942,0.05,14.598-1.639,21.564-4.162    c0.138,0.18,0.357,0.28,0.636,0.172c6.243-2.381,13.056-3.871,12.923-12.056c-0.164-10.154-8.402-18.977-8.9-29.09    c-0.821-16.656,20.274-12.151,31.023-13.192c7.468-0.723,16.481-3.344,20.068-10.614c8.158-16.534-11.154-26.856-24.737-27.734    c-10.059-0.65-20.795,2.381-30.615,4.138c-5.678,1.016-11.548,2.407-17.003,4.3c-2.229,0.774-4.341,1.771-6.469,2.778    c-0.047,0.022-0.866,0.485-1.801,1.022c-0.464-3.498,0.458-7.741,0.721-10.859c0.366-4.327,0.505-8.555,1.285-12.819    c1.222-6.673,3.456-12.741,8.259-17.652c6.368-6.51,14.436-10.959,23.121-13.683c1.033-0.323,2.072-0.605,3.112-0.88    c3.604,0.352,7.369-0.268,10.834-1.036c9.598-2.128,19.391-3.902,29.082-5.567c4.005-0.688,8.11-1.436,11.904-2.965    c-0.921,3.789-0.401,8.116-0.916,11.997c-0.635,4.784-0.265,9.734,0.143,14.518c0.772,9.059,2.674,17.895,2.735,27.035    c0.079,11.513-0.245,23.062-0.265,34.581c-0.019,10.73,0.075,21.439,0.029,32.165c-0.04,9.515-1.31,18.655-1.974,28.132    c-0.549,7.849,3.745,14.326,11.103,17.139c4.04,1.544,9.691,2.148,14.473,0.933c-0.65,2.747-0.646,5.676-1.871,8.335    c-1.596,3.464-4.723,6.154-7.36,8.81c-5.745,5.785-12.024,10.4-18.349,15.389c-7.03,5.546-15.217,8.824-23.111,12.892    c-0.507,0.261-1.031,0.538-1.561,0.82c0.568-0.714,1.131-1.431,1.69-2.153c3.376-4.354,4.123-8.543,5.906-13.59    c4.182-11.827,5.833-25.124,7.657-37.594c1.781-12.166,2.657-24.384,3.769-36.619c0.952-10.486,4.136-21.81,2.723-32.331    c-0.094-0.696-1.055-0.731-1.112,0c-0.764,9.926-3.907,19.948-5.215,29.875c-1.494,11.339-2.019,22.703-3.634,33.987    c-1.708,11.935-3.957,23.997-6.792,35.709c-1.043,4.312-3.129,11.336-5.442,15.006c-2.716,4.307-6.543,8.478-9.802,12.523    c-4.041,1.259-9.145,1.675-13.22,2.096C48.698,367.206,40.619,367.798,32.58,367.937z M83.312,433.033    c-0.329-1.008-0.708-2-1.199-2.943c-1.933-3.699-5.44-6.281-9.689-4.592c-4.238,1.685-6.106,6.913-7.33,10.911    c-0.704,2.301-1.338,5.218-1.646,8.2c-0.965-1.021-1.969-1.988-2.994-2.878c-2.713-2.355-5.043-5.355-8.782-3.159    c-3.203,1.882-4.017,6.182-4.258,9.57c-0.165,2.334-0.122,4.631,0.483,6.896c0.046,0.172,1.042,2.544,1.745,4.332    c-3.039-1.856-5.734-4.908-9.392-5.717c-2.186-0.483-3.923-0.457-5.591-0.161c5.367-12.358,8.136-25.726,9.665-39.157    c0.78-6.859,0.85-13.393,0.923-20.285c0.074-6.842,1.44-13.328-0.072-19.929c4.579-0.228,9.151-0.574,13.67-1.057    c4.139-0.442,8.592-0.845,12.62-1.874c4.156-1.062,7.988-3.696,11.862-5.512c8.963-4.201,17.84-8.518,25.818-14.417    c6.701-4.954,12.386-10.501,18.208-16.333c-0.379,2.007-0.728,4.058-1.118,6.258c-1.005,5.666-2.037,12.867,1.118,18.065    c-0.538-0.11-1.146,0.05-1.57,0.411c1.065-0.904-6.182,0.572-7.42,0.981c-3.442,1.136-6.463,3.272-9.18,5.627    c-6.198,5.374-10.31,12.133-13.273,19.74c-3.374,8.666-6.287,17.354-8.511,26.388C85.843,418.723,83.694,426.13,83.312,433.033z     M153.691,405.122c-0.59,6.198-1.039,12.387-1.575,18.568c-0.458,5.289-1.482,11.508,0.287,16.73    c-3.041,1.168-5.95,3.227-8.458,5.133c-0.291,0.221-0.547,0.463-0.807,0.7c0.197-0.928,0.328-1.781,0.306-2.467    c-0.11-3.329-1.752-6.563-5.223-7.317c-3.933-0.854-8.572,2.497-11.371,4.848c-0.922,0.775-1.782,1.636-2.594,2.545    c1.138-8.014,1.424-16.727-5.448-16.606c-3.87,0.069-7.172,3.754-9.074,6.709c-1.6,2.486-2.568,5.312-4.073,7.844    c-0.172,0.288-0.364,0.572-0.562,0.852c0.03-5.324,0.734-12.886,0.57-14.364c-0.408-3.684,0.034-10.42-5.566-10.534    c-4.988-0.101-10.66,8.511-12.639,12.316c-0.208,0.399-0.383,0.799-0.58,1.198c2.956-12.891,5.387-25.839,10.527-38.14    c3-7.182,5.871-14.694,11.553-20.23c0.781-0.761,1.586-1.525,2.418-2.266c4.092-2.543,8.501-4.484,13.426-5.017    c2.936-0.317,5.903-0.44,8.83-0.07c2.145,1.501,4.458,2.789,6.669,4.002c3.396,1.864,7.279,3.004,10.383,5.387    c1.594,1.224,2.666,2.798,3.453,4.534c-5.164-2.274-12.754-2.502-16.179-1.928c-6.915,1.159-12.112,4.913-17.013,9.767    c-4.102,4.063-4.808,8.895-6.971,14.082c-0.307,0.735,0.85,1.384,1.344,0.782c1.812-2.208,3.115-4.685,4.572-7.134    c2.836-4.768,6.576-8.176,11.774-10.506c6.825-3.06,19.202-4.197,24.575,2.589C155.186,393.088,154.269,399.064,153.691,405.122z     M190.297,295.724c-1.259-5.272-0.523-10.878-1.157-16.252c-0.686-5.833-0.188-11.52-0.484-17.35    c-0.547-10.728-1.929-21.585-3.147-32.26c-2.805-24.562-0.961-49.138-0.364-73.751c0.273-11.31,0.029-22.564,0.396-33.809    c0.146-4.453,1.305-8.894,1.448-13.352c0.192-6.022-0.021-12.338,0.968-18.301c2.104-12.674,6.558-28.411,19.944-33.337    c1.771-0.651,3.575-1.182,5.398-1.636c4.094-0.147,8.295-0.716,12.11-0.96c6.815-0.435,13.861-1.084,20.703-1.192    c2.833-0.045,5.485,0.079,8.304-0.272c3.322-0.412,5.966,0.431,9.232,0.565c6.26,0.26,13.123,0.656,19.454-0.478    c7.164,0.648,14.292,1.506,20.992,3.972c13.386,4.926,17.84,20.664,19.944,33.337c0.99,5.963,0.777,12.278,0.968,18.301    c0.142,4.458,1.302,8.899,1.448,13.352c0.367,11.245,0.122,22.5,0.396,33.809c0.596,24.612,2.441,49.188-0.364,73.751    c-1.219,10.673-2.602,21.532-3.147,32.26c-0.296,5.83,0.202,11.517-0.484,17.35c-0.633,5.374,0.102,10.979-1.157,16.252    c-2.782,11.651-17.833,15.428-28.043,16.685c-12.107,1.49-23.638,2.993-35.891,2.45c-0.775-0.035-1.215,0.377-1.396,0.906    c-0.242,0.014-0.484,0.024-0.726,0.037c-0.172-0.548-0.614-0.978-1.408-0.942c-12.253,0.543-23.785-0.96-35.891-2.45    C208.13,311.152,193.079,307.375,190.297,295.724z M204.913,317.976c2.201,0.613,4.39,1.066,6.489,1.357    c4.767,0.66,9.598,1.324,14.433,1.726c1.345,0.19,2.669,0.358,3.837,0.565c7.637,1.362,14.52,1.078,22.274,1.25    c7.549,0.168,15.301-0.218,22.868-0.392c2.863-0.066,5.582-0.62,8.32-1.207c5.841-0.338,11.697-1.146,17.457-1.944    c2.099-0.291,4.288-0.744,6.489-1.357c-0.026,0.297-0.042,0.598-0.04,0.904c0.022,2.755,0.812,5.738,1.474,8.387    c0.768,3.075,1.828,5.96,3.313,8.637c-4.166,7.333-6.907,15.075-12.658,21.619c-2.641,3.005-5.94,5.883-9.492,8.436    c-0.492-0.639-1.406-0.981-2.215-0.523c-6.046,3.428-11.47,8.334-18.376,10.082c-6.786,1.717-13.878,0.582-20.75,0.392    c-5.112-0.141-9.649-1.094-14.223-2.728c-0.072-0.262-0.25-0.499-0.588-0.654c-7.374-3.387-15.376-8.941-20.703-15.005    c-5.75-6.543-8.491-14.286-12.658-21.619c1.485-2.677,2.546-5.562,3.313-8.637c0.661-2.648,1.451-5.631,1.474-8.387    C204.956,318.574,204.939,318.273,204.913,317.976z M347.539,440.631c-3.071,1.405-4.112,4.626-6.523,6.28    c-0.146-0.804-0.301-1.58-0.523-2.247c-0.725-2.193-1.544-4.413-2.633-6.454c-2.158-4.041-5.014-6.242-9.316-7.594    c-3.172-0.996-5.975-1.167-7.852,2.11c-0.221,0.387-0.387,0.78-0.52,1.177c-1.217-1.174-2.594-1.94-4.458-1.836    c-3.54,0.198-7.202,3.741-10.134,7.386c-0.13-0.479-0.289-0.947-0.533-1.381c-1.142-2.039-2.988-3.545-5.189-4.289    c-2.684-0.906-5.03-0.524-7.187,0.462c0.539-5.042-0.036-10.275-3.11-14.075c-1.897-2.346-4.297-4.193-6.925-5.093    c-0.367-0.475-0.941-0.815-1.627-0.892c-2.8-0.317-4.419-1.426-7.19,0.182c-1.673,0.971-2.777,2.337-3.64,3.876    c-1.386-0.987-2.748-2.103-4.511-2.641c-2.948-0.898-5.335-0.445-7.826,1.348c-2.356,1.697-3.739,3.951-4.716,6.661    c-0.107,0.298-0.19,0.616-0.291,0.922c-0.643-0.769-1.299-1.529-1.917-2.327c-2.582-3.339-4.376-6.671-8.648-8.107    c-3.468-1.166-8.582-0.782-12.01,0.706c-2.983,0.754-5.718,2.75-7.831,5.364c-3.074,3.801-3.649,9.035-3.11,14.075    c-2.156-0.986-4.503-1.368-7.187-0.462c-2.203,0.742-4.047,2.25-5.189,4.289c-0.243,0.434-0.402,0.902-0.533,1.381    c-2.933-3.645-6.594-7.188-10.134-7.386c-1.863-0.104-3.241,0.661-4.458,1.836c-0.134-0.397-0.299-0.79-0.52-1.177    c-1.877-3.277-4.68-3.107-7.852-2.11c-4.303,1.35-7.158,3.553-9.316,7.594c-1.091,2.042-1.908,4.262-2.633,6.454    c-0.221,0.668-0.377,1.444-0.523,2.247c-2.411-1.654-3.452-4.874-6.522-6.28c-1.345-0.615-2.809-0.992-4.303-1.169    c1.176-4.516,0.723-9.781,1.149-14.215c0.574-5.965,0.568-12.132,0.946-18.129c0.392-6.231,0.009-12.606,0.65-18.827    c0.087-0.852,0.195-1.7,0.308-2.547c0.467-0.796,0.705-1.763,0.537-2.873c-0.016-0.106-0.046-0.2-0.064-0.306    c0.961-5.775,2.371-11.451,3.683-17.175c1.93-8.425,6.861-11.979,14.386-15.417c5.266-2.405,10.726-4.486,14.703-8.86    c0.161-0.177,0.303-0.363,0.459-0.543c1.904,7.665,7.576,15.724,12.077,20.787c2.874,3.233,7.144,7.166,11.823,9.961    c1.465,1.139,3.034,2.158,5.093,3.261c6.751,3.616,13.063,5.941,20.715,6.483c12.673,0.897,27.171,1.359,37.182-6.602    c7.328-1.713,14.858-8.214,19.206-13.103c4.501-5.063,10.173-13.122,12.077-20.787c0.155,0.18,0.297,0.366,0.459,0.543    c3.977,4.374,9.437,6.456,14.703,8.86c7.526,3.438,12.455,6.992,14.386,15.417c1.312,5.724,2.722,11.4,3.683,17.175    c-0.017,0.105-0.047,0.198-0.064,0.306c-0.169,1.111,0.071,2.078,0.537,2.873c0.114,0.846,0.22,1.695,0.308,2.547    c0.641,6.221,0.258,12.596,0.651,18.827c0.378,5.996,0.371,12.162,0.946,18.129c0.427,4.434-0.026,9.699,1.149,14.215    C350.347,439.639,348.884,440.015,347.539,440.631z M491.554,216.302c-1.989,2.27-4.554,3.292-5.309,6.466    c-0.668,2.803,0.119,6.806,0.825,9.498c1.908,7.27,5.832,13.862,8.491,20.764c2.129,5.525,8.723,13.194,9.316,19.728    c-3.084-1.469-6.732-2.251-9.816-2.692c-4.736-0.676-10.149-0.316-14.852,0.479c-4.836,0.817-9.656,1.279-13.73,4.232    c-1.897,1.374-3.522,2.97-5.083,4.7c-0.332,0.367-0.745,0.971-1.177,1.562c-0.017-3.372,2.198-7.576,3.146-10.245    c2.701-7.596,5.848-15.01,4.923-23.218c-1.874-16.647-22.909-13.459-34.638-14.485c-9.819-0.859-22.534-7.248-15.933-19.056    c4.016-7.183,15.765-9.44,23.285-9.152c9.248,0.354,19.003,2.342,28.102,4.043c7.917,1.48,15.454,4.279,23.21,6.241    C492.099,215.572,491.856,215.957,491.554,216.302z M378.659,305.045c-2.296-0.131-3.819,0.099-6.084-0.986    c-3.181-1.524-8.351-5.718-9.478-9.176c-1.319-4.048,0.7-10.794,1.409-14.784c0.98-5.515,0.604-10.902,0.922-16.449    c0.499-8.708,1.322-17.365,1.747-26.072c0.464-9.493,2.324-18.905,2.95-28.369c0.291-4.408-0.045-8.782,0.332-13.193    c0.364-4.263,0.893-8.573,1.202-12.837c0.359-4.959-0.946-9.91-0.631-14.878c0.343-5.426,0.688-10.782,1.712-16.111    c1.102-5.734,2.396-10.217,8.254-12.543c4.609-1.829,8.302-1.312,12.799,0.802c1.927,0.906,3.685,2.075,5.457,3.212    c0.691,1.057,1.169,2.193,1.294,3.388c0.354,3.406-0.604,6.947-0.185,10.463c1.012,8.48-0.423,16.985-1.826,25.317    c-2.513,14.938-1.126,30.849-1.151,45.978c-0.014,8.544,0.046,17.058-0.762,25.565c-0.779,8.181-1.31,17.282-0.382,25.445    c0.729,6.403,3.72,18.212-1.562,22.948c-2.577,2.31-6.55,3.076-10.653,3.428C382.228,305.749,380.529,305.151,378.659,305.045z     M424.532,430.081c-1.979-3.804-7.651-12.417-12.639-12.316c-5.599,0.114-5.158,6.849-5.566,10.534    c-0.164,1.478,0.54,9.039,0.57,14.364c-0.198-0.282-0.391-0.564-0.562-0.852c-1.506-2.532-2.473-5.36-4.073-7.844    c-1.902-2.955-5.204-6.641-9.074-6.709c-6.872-0.121-6.587,8.591-5.448,16.606c-0.812-0.908-1.672-1.771-2.594-2.544    c-2.799-2.35-7.438-5.702-11.371-4.848c-3.469,0.754-5.112,3.987-5.223,7.317c-0.022,0.686,0.107,1.539,0.306,2.467    c-0.262-0.238-0.517-0.479-0.807-0.7c-2.508-1.907-5.417-3.965-8.458-5.133c1.768-5.221,0.745-11.441,0.287-16.73    c-0.535-6.181-0.985-12.369-1.575-18.568c-0.577-6.057-1.495-12.032-2.551-17.99c5.374-6.786,17.75-5.648,24.575-2.589    c5.198,2.33,8.939,5.738,11.774,10.506c1.458,2.45,2.76,4.928,4.572,7.134c0.494,0.601,1.651-0.047,1.344-0.782    c-2.163-5.186-2.869-10.018-6.971-14.082c-4.901-4.854-10.098-8.607-17.013-9.767c-3.426-0.574-11.015-0.347-16.179,1.928    c0.787-1.736,1.858-3.309,3.453-4.534c3.104-2.383,6.987-3.524,10.383-5.387c2.211-1.214,4.524-2.501,6.669-4.002    c2.928-0.371,5.895-0.247,8.83,0.07c4.926,0.532,9.334,2.473,13.426,5.017c0.832,0.741,1.636,1.505,2.418,2.266    c5.682,5.536,8.552,13.048,11.553,20.23c5.139,12.301,7.571,25.249,10.527,38.14C424.915,430.88,424.74,430.481,424.532,430.081z     M477.335,453.492c-1.667-0.296-3.404-0.321-5.591,0.161c-3.658,0.807-6.353,3.861-9.392,5.717    c0.703-1.788,1.698-4.161,1.743-4.332c0.605-2.265,0.649-4.562,0.483-6.896c-0.24-3.388-1.053-7.688-4.258-9.57    c-3.739-2.196-6.069,0.804-8.782,3.158c-1.025,0.89-2.029,1.857-2.994,2.878c-0.308-2.983-0.942-5.899-1.646-8.2    c-1.223-3.996-3.091-9.226-7.33-10.911c-4.249-1.688-7.756,0.894-9.689,4.592c-0.493,0.942-0.871,1.933-1.199,2.943    c-0.382-6.902-2.531-14.31-4.088-20.633c-2.224-9.035-5.136-17.722-8.511-26.388c-2.963-7.606-7.074-14.366-13.273-19.74    c-2.717-2.355-5.738-4.491-9.18-5.627c-1.238-0.408-8.485-1.884-7.42-0.981c-0.423-0.359-1.032-0.519-1.57-0.411    c3.156-5.198,2.123-12.401,1.119-18.065c-0.391-2.201-0.739-4.253-1.118-6.258c5.823,5.832,11.507,11.379,18.208,16.333    c7.978,5.899,16.856,10.217,25.818,14.417c3.874,1.816,7.705,4.45,11.861,5.512c4.028,1.03,8.48,1.431,12.62,1.874    c4.519,0.483,9.091,0.829,13.67,1.057c-1.512,6.602-0.145,13.087-0.072,19.929c0.074,6.892,0.142,13.426,0.923,20.285    C469.198,427.768,471.968,441.134,477.335,453.492z M495.945,308.324c-1.201,3.474-3.73,0.916-5.448,1.062    c-2.97,0.253-6.121,0.099-9.126,0.135c-10.252,0.124-22.717-1.093-31.445,5.276c-1.386,1.012-0.997,3.336,0.911,3.361    c2.939,0.039,4.792-1.792,7.642-2.401c3.933-0.84,8.775-1.283,12.791-1.374c3.728-0.085,7.531,0.238,11.265,0.289    c3.507,0.049,6.973,0.869,10.409,0.912c-1.144,1.465-1.963,3.178-2.458,4.98c-3.879-1.378-9.701-0.673-12.755-0.674    c-3.241-0.003-6.603-0.719-9.841-0.297c-3.256,0.424-6.281,2.171-9.407,3.081c-0.904,0.263-1.043,1.797,0,1.974    c2.621,0.443,5.213,0.201,7.858-0.12c3.037-0.368,4.955,0.099,7.904,0.412c5.175,0.549,10.509-0.192,15.716-0.196    c0.029,1.028,0.167,2.05,0.437,3.042c1.237,4.56,2.971,8.378,3.609,13.199c0.523,3.955,1.106,7.911,1.554,11.87    c0.564,4.992,1.522,12.88-4.569,14.613c-3.492,0.993-8.013,0.529-11.574,0.468c-8.038-0.139-16.118-0.731-24.11-1.559    c-4.076-0.422-9.18-0.837-13.22-2.096c-3.26-4.044-7.087-8.216-9.802-12.523c-2.314-3.67-4.399-10.695-5.442-15.006    c-2.835-11.712-5.084-23.773-6.792-35.709c-1.615-11.284-2.14-22.648-3.634-33.987c-1.308-9.927-4.45-19.948-5.215-29.875    c-0.057-0.731-1.018-0.696-1.112,0c-1.413,10.521,1.771,21.845,2.723,32.331c1.112,12.235,1.988,24.453,3.769,36.619    c1.824,12.469,3.475,25.767,7.657,37.594c1.785,5.047,2.531,9.236,5.906,13.59c0.559,0.72,1.122,1.438,1.688,2.153    c-0.53-0.282-1.055-0.559-1.561-0.82c-7.894-4.068-16.081-7.346-23.111-12.892c-6.326-4.989-12.604-9.605-18.349-15.389    c-2.638-2.656-5.764-5.345-7.36-8.81c-1.225-2.659-1.22-5.588-1.871-8.335c4.782,1.214,10.434,0.61,14.473-0.933    c7.359-2.813,11.652-9.291,11.103-17.139c-0.664-9.477-1.934-18.616-1.974-28.132c-0.045-10.727,0.047-21.436,0.029-32.165    c-0.02-11.52-0.343-23.069-0.265-34.581c0.061-9.14,1.963-17.976,2.735-27.035c0.408-4.785,0.779-9.734,0.143-14.518    c-0.515-3.88,0.005-8.209-0.916-11.997c3.792,1.529,7.899,2.277,11.904,2.965c9.689,1.665,19.484,3.439,29.082,5.567    c3.465,0.769,7.23,1.388,10.834,1.036c1.041,0.273,2.079,0.555,3.112,0.88c8.686,2.724,16.753,7.173,23.121,13.683    c4.803,4.911,7.038,10.979,8.259,17.652c0.78,4.264,0.92,8.492,1.285,12.819c0.263,3.119,1.186,7.361,0.721,10.859    c-0.936-0.537-1.753-1-1.801-1.022c-2.129-1.007-4.242-2.004-6.469-2.778c-5.456-1.894-11.326-3.285-17.004-4.3    c-9.82-1.757-20.556-4.788-30.615-4.138c-13.584,0.877-32.895,11.2-24.737,27.734c3.586,7.269,12.6,9.891,20.068,10.614    c10.751,1.041,31.844-3.464,31.023,13.192c-0.498,10.113-8.737,18.936-8.9,29.09c-0.132,8.185,6.68,9.675,12.923,12.056    c0.28,0.106,0.499,0.007,0.636-0.172c6.966,2.523,14.622,4.212,21.564,4.162c0.746-0.005,1.503-0.131,2.26-0.313    c-0.034,2.722,1.612,5.956,2.376,8.174C494.78,305.147,496.155,307.718,495.945,308.324z M493.538,289.335    c-3.156,2.503-6.056,1.663-9.851,1.188c-6.609-0.827-13.979-4.31-20.81-4.249c-0.156-0.162-0.296-0.324-0.443-0.487    c1.551-1.436,2.587-3.532,4.011-5.114c3.451-3.834,7.386-4.706,12.137-5.76c8.576-1.904,17.574-1.363,26.077,0.867    c-0.091,0.348-0.198,0.694-0.342,1.031C502.221,281.749,497.596,286.116,493.538,289.335z"/>
	</g>
</g>
<g>
	<g>
		<path d="M284.968,258.007c-4.604-1.672-8.911-2.92-13.824-2.986c-6.213-0.082-12.368-0.874-18.587-0.553    c-9.225,0.475-19.079,0.366-27.785,3.879c-0.654,0.263-0.841,1.339,0,1.522c3.547,0.774,7.873,0.256,11.476,0.089    c5.426-0.252,10.859-0.755,16.308-1.082c5.899-0.354,11.828,0.658,17.745,0.676c4.903,0.015,9.809,1.677,14.666,0.656    C286.159,259.958,285.941,258.36,284.968,258.007z"/>
	</g>
</g>
<g>
</g>
<g>
</g>
<g>
</g>
<g>
</g>
<g>
</g>
<g>
</g>
<g>
</g>
<g>
</g>
<g>
</g>
<g>
</g>
<g>
</g>
<g>
</g>
<g>
</g>
<g>
</g>
<g>
</g>
</svg>
