<?xml version="1.0" encoding="iso-8859-1"?>
<!-- Generator: Adobe Illustrator 19.0.0, SVG Export Plug-In . SVG Version: 6.00 Build 0)  -->
<svg xmlns="http://www.w3.org/2000/svg" xmlns:xlink="http://www.w3.org/1999/xlink" version="1.1" id="Layer_1" x="0px" y="0px" viewBox="0 0 511.996 511.996" style="enable-background:new 0 0 511.996 511.996;" xml:space="preserve">
<g>
	<g>
		<path d="M110.866,325.134c-2.272-2.351-4.568-1.152-7.365-1.464c-2.351-0.262-3.628-0.294-2.474-2.839    c0.683-1.508,2.457-3.992,4.136-4.427c0.767-0.198,0.866-1.523,0-1.652c-4.608-0.691-8.709,3.968-8.565,8.478    c0.084,2.632,1.915,4.078,4.297,4.692c2.031,0.524,3.709,0.547,5.768,0.505c1.051-0.022,0.416-0.385,1.524,0.182    c0.685,0.35,2.058,1.67,2.48,2.294c0.315,0.467,1.036,0.533,1.336,0C113.027,329.087,112.264,326.58,110.866,325.134z"/>
	</g>
</g>
<g>
	<g>
		<path d="M122.108,368.333c-0.513-3.517-3.337-5.778-5.275-8.54c-1.316-1.874-2.622-3.171-4.291-4.154    c0.535-0.502,1.097-0.992,1.725-1.453c2.571-1.885,5.531-2.661,6.693-5.777c0.321-0.86-0.623-1.567-1.394-1.394    c-5.009,1.122-9.434,4.039-12.815,7.907c-1.701,1.945-2.597,4.336-4.336,6.248c-2.194,2.413-6.876,4.505-4.07-1.977    c4.049-9.35,21.714-15.27,16.697-27.757c-0.185-0.461-0.854-0.534-1.013,0c-1.3,4.372-2.826,7.923-5.634,11.198    c-0.13-0.675-0.288-1.354-0.261-2.064c0.027-0.704,0.23-1.366,0.188-2.079c-0.044-0.722-0.236-1.383-0.195-2.116    c0.027-0.475-0.581-0.665-0.896-0.372c-2.098,1.96-3.617,6.879-1.104,8.964c-1.011,0.929-2.023,1.794-3.017,2.641    c-0.188-1.827-0.903-3.649-1.402-5.514c-0.544-2.029-0.916-3.224,0.067-5.101c0.636-1.211,1.629-2.221,2.216-3.436    c0.14-0.29,0.146-0.69-0.119-0.921c-2.453-2.15-5.405,2.109-6.271,4.104c-0.798,1.84-0.04,3.951,0.461,5.768    c0.182,0.658,2.181,6.062,2.497,7.368c-1.208,1.15-2.349,2.394-3.37,3.894c-2.252,3.308-5.267,10.058-0.899,13.215    c3.63,2.624,7.792-1.333,9.99-3.892c0.048-0.057,0.092-0.113,0.139-0.169c1.335,1.734,2.698,3.462,3.636,5.408    c1.662,3.45,0.486,8.483-1.829,11.515c-0.263,0.344,0.107,0.732,0.441,0.769c5.115,0.57,7.034-6.659,6.055-10.549    c-0.942-3.746-3.157-7.469-6.499-9.39c0.729-0.942,1.44-1.876,2.195-2.78c1.858,2.307,3.813,4.556,5.672,6.862    c2.076,2.573,2.624,5.277,1.559,8.503c-0.417,1.264-0.699,3.384-1.485,4.416c-0.254,0.333,0.085,0.925,0.501,0.874    C120.737,378.052,122.606,371.744,122.108,368.333z"/>
	</g>
</g>
<g>
	<g>
		<path d="M108.135,321.918c-0.076,0-0.076,0.118,0,0.118C108.21,322.036,108.21,321.918,108.135,321.918z"/>
	</g>
</g>
<g>
	<g>
		<path d="M159.091,216.814c-0.6-6.477-0.572-13.015-0.991-19.506c-0.232-3.584-0.167-7.26-4.015-8.79    c-2.919-1.161-6.858-1.111-10.029-1.562c-3.49-0.495-7.001-0.548-10.519-0.468c-6.43,0.146-12.675-0.329-19.104,0.098    c-2.904,0.192-5.822,0.357-8.742,0.525c-1.366-0.046-2.729-0.078-4.089-0.081c-6.904-0.018-13.808-0.156-20.714-0.141    c-3.312,0.006-6.624,0.195-9.931,0.119c-2.386-0.054-4.974-0.329-7.245,0.664c-3.386,1.48-4.314,4.731-4.739,8.093    c-0.813,6.437-1.333,12.74-1.659,19.201c-0.334,6.611-1.421,13.344-1.425,19.947c-0.002,4.251,0.878,7.389,4.465,9.84    c3.706,2.531,9.012,1.983,13.291,1.979c6.856-0.005,13.604,1.049,20.495,1.013c14.766-0.074,29.482-0.248,44.208-0.602    c4.194-0.101,10.983,0.111,14.701-2.085c3.738-2.208,4.738-7.914,5.667-11.775C159.942,228.196,159.571,221.992,159.091,216.814z     M152.758,235.576c-1.845,6.399-9.519,6.529-15.299,6.475c-5.122-0.048-10.19,0.777-15.337,0.73    c-6.319-0.058-12.633-0.152-18.954-0.156c-10.527-0.005-20.944-1.03-31.423-1.086c-5.556-0.029-10.341-0.34-10.685-6.629    c-0.284-5.18,0.265-11.02,0.511-16.249c0.221-4.698,0.302-9.339,0.78-14.011c0.246-2.407,0.708-4.8,1.005-7.2    c0.653-5.278,4.078-5.852,8.691-5.537c5.83,0.399,12.034-0.429,17.936-0.498c6.484-0.074,12.858-0.198,19.314,0.239    c7.128,0.484,15.07,0.587,22.569-0.219c0.883,0.012,1.768,0.021,2.675,0.012c2.859-0.031,5.665,0.026,8.501,0.4    c2.241,0.296,5.922,0.19,7.969,1.145c3.052,1.424,2.59,8.984,2.668,11.781c0.156,5.608,0.394,11.235,0.499,16.823    C154.269,226.542,154.139,230.783,152.758,235.576z"/>
	</g>
</g>
<g>
	<g>
		<path d="M149.534,205.495c-0.817-7.852-10.275-8.302-16.539-8.709c-10.034-0.652-20.025-0.664-30.005,0.376    c-3.344-0.133-6.686-0.246-10.031-0.281c-4.274-0.044-8.672,0.402-12.975,0.594c-2.787,0.125-6.057-0.098-8.406,1.552    c-5.747,4.038-5.091,14.653-5.418,20.604c-0.297,5.475-2.594,14.487,4.03,16.992c3.83,1.45,8.284,0.837,12.275,0.738    c5.232-0.13,10.525,0.213,15.75,0.455c10.335,0.478,20.926,1.153,31.252,0.165c5.505-0.526,14.932,0.932,17.958-5.172    c1.674-3.379,1.501-7.614,1.866-11.263C149.804,216.428,150.066,210.609,149.534,205.495z M144.364,230.389    c-2.737,4.356-9.593,3.005-13.878,3.23c-9.741,0.513-19.759,0.74-29.498-0.091c-4.528-0.386-9.136-0.494-13.68-0.673    c-5.064-0.199-10.76,1.386-15.026-1.571c-3.125-2.167-2.309-2.378-2.156-5.689c0.106-2.318-0.105-4.634,0.026-6.948    c0.244-4.3,0.06-9.014,1.635-13.029c1.986-5.066,6.226-4.416,11.098-4.423c3.975-0.006,7.839-0.54,11.791-0.537    c5.029,0.004,10.039-0.228,15.05-0.485c6.076-0.054,12.168-0.328,18.217,0.085c3.855,0.263,7.615,0.823,11.371,1.571    c8.032,1.599,6.395,8.558,6.37,14.886C145.669,220.309,146.306,227.299,144.364,230.389z"/>
	</g>
</g>
<g>
	<g>
		<path d="M228.094,168.123c-1.404-0.617-2.621-0.598-4.116-0.51c-3.767,0.223-7.394,0.975-11.211,1.049    c-5.655,0.107-11.275,0.784-16.909,1.073c-3.098,0.159-6.129,1.033-9.234,1.071c-1.375,0.017-3.204-0.511-4.545-0.019    c-2.329,0.855-2.371,3.079-2.638,5.362c-1.421,12.102,0.66,24.587-0.744,36.777c-0.29,2.514,3.592,2.452,3.916,0    c0.572-4.345,4.614-10.303,7.505-13.353c3.626-3.826,7.632-7.217,12-10.144c4.646-3.114,9.62-5.726,14.783-7.871    c3.99-1.658,10.013-2.174,13.362-4.997C233.292,174.005,231.342,169.55,228.094,168.123z M226.627,174.41    c-0.129,0.357-0.563,0.768-1.069,1.181c-9.73,1.104-19.78,7.085-27.361,12.444c-4.916,3.476-11.018,8.567-15.096,14.383    c0.007-4.744-0.177-9.497-0.177-14.246c0-3.059-1.356-9.506,0.268-12.312c1.168-2.018,0.58-1.388,3.432-1.367    c7.164,0.052,14.597-1.211,21.773-1.577c3.786-0.192,7.696-0.015,11.458-0.51C221.59,172.178,227.912,170.848,226.627,174.41z"/>
	</g>
</g>
<g>
	<g>
		<path d="M509.754,120.681c-3.291-4.992-12.572-4.091-17.65-4.772c-7.674-1.028-15.838-2.047-23.596-2.007    c-0.486,0.002-0.969-0.002-1.455,0c1.727-4.583,0.626-8.968,0.624-13.758c-0.002-4.557,0.379-9.096,0.622-13.589    c0.126-2.316-0.31-4.482-1.238-6.312c2.752-0.336,5.143-1.439,6.44-3.779c2.349-4.242,0.663-10.507-4.315-11.183    c-1.953-0.265-3.966-0.234-5.982-0.159c1.815-6.007,2.168-14.063-5.494-15.027c-2.253-0.283-7.055-1.499-8.979,0.267    c-1.549,1.421-1.462,4.468-1.6,6.741c-0.987,0.178-2.011,0.343-2.627,0.252c-2.763-0.409-1.609-4.869-1.825-7.28    c-0.075-0.837-0.577-1.856-1.524-2.001c-1.672-0.256-3.467-0.377-5.278-0.372c-0.861-0.081-1.697-0.124-2.408-0.166    c-1.92-0.116-4.792-0.36-6.107,1.444c-1.564,2.144,1.084,7.188-0.393,8.676c-2.42,2.435-4.81-1.767-5.089-3.092    c-0.315-1.494,0.133-4.055-0.773-5.377c-1.264-1.847-3.236-1.26-5.359-1.531c-2.543-0.324-6.55-1.792-8.676,0.443    c-1.173,1.234-1.326,3.112-1.387,4.726c-0.045,1.157,0.364,2.522-0.132,3.622c-0.803,1.782-2.093,0.374-2.636-0.795    c-0.833-1.788,0.231-4.311-0.607-6.068c-1.558-3.261-5.754-2.338-8.853-2.296c-2.459,0.033-4.858-0.155-6.023,2.458    c-0.554,1.243-0.468,3.063-0.632,4.419c-0.372,3.055,0.453,2.891-2.106,2.833c-5.976-0.134-1.629-5.813-3.719-8.936    c-1.373-2.052-4.023-1.309-6.171-1.368c-2.355-0.065-6.758-1.196-8.268,1.196c-1.085,1.718-0.583,5.058-0.501,7.638    c-4.564,0.417-2.148-3.989-4.492-7.013c-1.07-1.38-3.388-1.912-5.735-1.992c-2.704-0.583-5.785-0.586-7.564,0.886    c-1.342,1.111-1.499,2.913-1.704,4.506c-0.072,0.56-0.35,2.365-0.277,3.179c-0.586-0.087-1.633-0.04-1.99-0.061    c-3.399-0.209-3.634,0.096-3.953-3.348c-0.126-1.356-0.074-3.571-1.141-4.614c-0.953-0.932-2.267-0.876-3.53-1.001    c-2.374-0.236-5.951-0.738-8.397-0.268c-6.192,1.191-1.57,6.725-5,8.476c-1.266,0.019-2.176,0.024-2.536-1.422    c-0.276-1.11,0.144-2.329-0.029-3.421c-0.254-1.596-0.513-2.439-1.911-3.19c-1.464-0.787-6.219-0.4-7.531-0.493    c-1.644-0.117-3.109-0.504-4.269,0.898c-0.955,1.153-1.023,3.48-1.224,4.909c-0.454,3.217-0.406,3.105-2.63,2.906    c-0.132-0.012-0.473-4.492-0.55-4.926c-0.257-1.468-0.638-2.662-2.287-2.912c-1.109-0.167-2.217-0.04-3.32-0.151    c-0.809-0.081-1.484-0.277-2.322-0.192c-1.529,0.153-3.383,0.666-4.231,2.072c-0.593,0.985-0.48,2.136-0.34,3.223    c0.105,0.808,0.693,2.29-0.298,2.73c-0.62,0.276-2.426,0.446-3.078,0.311c-2.544-0.526-1.573-1.063-2.042-3.543    c-0.307-1.619-0.281-4.051-1.729-5.1c-1.744-1.261-6.657-0.593-8.521-0.162c-4.564,1.058-3.807,5.79-3.887,9.71    c-1.881-0.633-3.765,0.218-5.714-0.462c-2.296-0.801-1.674-1.67-2.196-3.988c-1.008-4.475-3.431-6.411-8.14-5.97    c-3.726,0.349-5.638,1.632-5.477,5.528c0.127,3.096-0.671,5.607-4.562,5.096c-0.402-0.053-0.706-0.109-0.948-0.172    c-0.085-3.926,0.688-8.682-3.888-9.742c-1.865-0.432-6.777-1.1-8.521,0.162c-1.45,1.049-1.424,3.48-1.729,5.1    c-0.469,2.48,0.501,3.017-2.043,3.543c-0.652,0.134-2.458-0.037-3.078-0.311c-0.992-0.44-0.403-1.922-0.3-2.73    c0.14-1.089,0.254-2.24-0.34-3.223c-0.848-1.406-2.702-1.919-4.231-2.072c-0.839-0.084-1.513,0.111-2.322,0.192    c-1.103,0.111-2.211-0.017-3.32,0.151c-1.65,0.249-2.03,1.444-2.287,2.912c-0.077,0.434-0.417,4.915-0.55,4.926    c-2.224,0.199-2.175,0.311-2.63-2.906c-0.202-1.428-0.269-3.755-1.224-4.909c-1.161-1.401-2.625-1.014-4.269-0.898    c-1.311,0.093-6.067-0.295-7.53,0.493c-1.399,0.751-1.658,1.595-1.911,3.19c-0.173,1.092,0.246,2.312-0.029,3.421    c-0.359,1.446-1.27,1.441-2.536,1.422c-3.43-1.753,1.192-7.286-5-8.476c-2.446-0.471-6.022,0.033-8.397,0.268    c-1.263,0.125-2.578,0.071-3.53,1.001c-1.066,1.041-1.016,3.258-1.141,4.614c-0.32,3.444-0.554,3.14-3.953,3.348    c-0.356,0.022-1.405-0.026-1.99,0.061c0.073-0.814-0.205-2.618-0.277-3.179c-0.205-1.593-0.363-3.396-1.704-4.507    c-1.779-1.472-4.859-1.468-7.562-0.886c-2.347,0.08-4.666,0.613-5.735,1.992c-2.345,3.024,0.072,7.43-4.492,7.013    c0.081-2.579,0.584-5.919-0.501-7.638c-1.51-2.391-5.912-1.261-8.269-1.196c-2.148,0.059-4.798-0.684-6.171,1.368    c-2.09,3.123,2.257,8.802-3.719,8.936c-2.559,0.058-1.735,0.222-2.106-2.833c-0.165-1.357-0.078-3.176-0.632-4.419    c-1.165-2.612-3.564-2.425-6.023-2.458c-3.098-0.041-7.295-0.964-8.853,2.296c-0.84,1.757,0.224,4.279-0.607,6.068    c-0.544,1.168-1.833,2.577-2.636,0.795c-0.497-1.102-0.088-2.465-0.132-3.622c-0.061-1.613-0.214-3.492-1.387-4.726    c-2.125-2.235-6.133-0.769-8.676-0.443c-2.123,0.271-4.095-0.316-5.359,1.531c-0.905,1.322-0.456,3.883-0.773,5.377    c-0.279,1.326-2.669,5.528-5.089,3.092c-1.477-1.486,1.171-6.532-0.393-8.676c-1.314-1.802-4.187-1.558-6.107-1.444    c-0.71,0.042-1.547,0.085-2.408,0.166c-1.809-0.006-3.604,0.116-5.278,0.372c-0.947,0.145-1.449,1.164-1.524,2.001    c-0.216,2.412,0.94,6.871-1.825,7.28c-0.616,0.091-1.641-0.074-2.627-0.252c-0.139-2.275-0.052-5.321-1.6-6.742    c-1.925-1.766-6.725-0.55-8.978-0.267c-7.661,0.962-7.309,9.02-5.494,15.027c-2.016-0.074-4.029-0.106-5.982,0.159    c-4.977,0.676-6.665,6.942-4.315,11.183c1.296,2.34,3.689,3.442,6.44,3.779c-0.928,1.83-1.365,3.995-1.238,6.312    c0.244,4.494,0.625,9.033,0.622,13.589c-0.004,4.79-1.103,9.175,0.624,13.758c-0.486-0.002-0.971,0.004-1.457,0    c-7.758-0.04-15.922,0.98-23.596,2.007c-5.077,0.681-14.359-0.221-17.65,4.772c-2.926,4.438-2.276,12.569-1.922,17.619    c0.432,6.148,6.103,6.444,11.274,6.647c7.361,0.29,14.707,0.627,22.067,0.78c-0.98,5.625-1.702,15.744,3.147,19.168    c1.34,0.947,3.109,1.207,4.936,1.228c-0.464,3.534-1.185,11.333-1.203,11.899c-0.156,5.045,0.626,10.07,0.954,15.096    c0.74,11.334,0.579,22.66,0.524,34.023c-0.05,10.152-0.705,20.222-0.705,30.345c0,2.494-0.315,5.126,1.183,7.095    c-1.064,0.081-2.134,0.144-3.214,0.158c-3.55,0.047-7.14-0.053-9.979,2.489c-2.562,2.293-2.11,4.931-1.842,8.022    c0.23,2.651-0.219,6.553,2.663,7.895c1.19,0.554,2.229,0.044,3.405-0.086c2.215-0.245,4.274-0.292,6.458-0.237    c-0.555,3.7-0.78,7.319-0.768,11.131c0.019,6.239-0.802,12.42-0.79,18.696c0.02,10.875,0.696,21.871,0.528,32.71    c-0.155,9.982-0.04,20.432-1.014,30.385c-0.973,9.936-0.26,19.82-0.185,29.745c0.087,11.515-1.012,23.44-0.005,34.899    c0.215,2.446,0.301,5.253,1.853,7.208c-0.078,0.006-0.156,0.018-0.235,0.022c-2.802,0.17-5.36,0.217-7.956,1.449    c-5.316,2.525-4.187,7.384-5.055,12.319c-0.216,1.227,0.316,2.707,1.698,2.991c7.085,1.459,14.682,1.888,21.935,1.901    c10.848,0.019,21.647,0.372,32.461,0.63c9.999,0.239,20.204-0.502,30.245-0.482c8.951,0.019,18.073,0.271,26.971-0.695    c8.595-0.933,17.321-0.314,25.95-0.796c4.245-0.237,8.469-0.872,12.708-1.084c2.714-0.136,5.732,0.979,8.082-0.78    c3.171-2.373,3.755-8.545,2.164-12.115c2.63-3.381,3.337-7.83,3.771-12.373c0.663-6.951,0.157-13.987,0.116-20.969    c-0.097-16.713,0.998-33.534-0.163-50.255c-0.538-7.75-0.376-15.513-0.833-23.245c-0.493-8.36-1.286-16.784-1.545-25.161    c-0.366-11.798,0.535-24.315-1.466-35.92c1.362-0.022,2.691-0.242,3.923-0.921c3.058-1.687,4.106-4.722,4.492-8.057    c0.367-3.162,0.193-7.969-1.879-10.605c-0.975-1.24-2.319-1.718-3.787-1.861c2.316-6.374,2.318-13.407,5.329-19.715    c1.554-3.255,2.313-6.82,3.906-10.024c1.519-3.055,3.447-6.225,5.356-9.064c4.786-7.124,10.55-11.454,17.951-15.68    c2.906-1.659,5.719-3.555,8.807-4.922c2.282-1.011,4.668-1.602,6.963-2.469c0.12,1.312,0.532,2.569,1.405,3.68    c2.709,3.447,9.3,2.734,13.137,2.908c4.541,0.208,11.414,1.564,15.306-1.617c1.217-0.995,2.185-2.999,2.677-5.143    c2.431,0.966,4.982,1.564,7.414,2.641c3.088,1.367,5.901,3.262,8.807,4.922c7.402,4.227,13.165,8.558,17.951,15.68    c1.907,2.84,3.835,6.01,5.356,9.064c1.593,3.203,2.352,6.769,3.906,10.024c3.012,6.307,3.013,13.343,5.329,19.715    c-1.468,0.143-2.812,0.622-3.787,1.861c-2.072,2.635-2.246,7.443-1.879,10.605c0.387,3.334,1.434,6.37,4.492,8.057    c0.903,0.498,1.861,0.737,2.842,0.848c-2.272,14.438-0.774,28.836-1.562,43.368c-0.383,7.078-1.341,14.043-1.755,21.104    c-0.447,7.625-0.124,15.101-0.157,22.74c-0.037,8.452,0.908,16.999,0.208,25.443c-0.589,7.101-0.771,14.173-0.803,21.33    c-0.034,7.988-0.412,16.059-0.146,24.04c0.163,4.902,1.148,8.521,4.683,11.415c-0.912,3.605-0.122,8.593,2.655,10.67    c2.351,1.76,5.369,0.644,8.082,0.78c4.238,0.212,8.463,0.847,12.708,1.084c8.63,0.482,17.355-0.137,25.95,0.796    c8.899,0.965,18.021,0.714,26.971,0.695c10.04-0.021,20.246,0.721,30.245,0.482c10.815-0.258,21.614-0.611,32.461-0.63    c7.252-0.013,14.85-0.442,21.935-1.901c1.382-0.284,1.914-1.764,1.698-2.991c-0.868-4.935,0.261-9.795-5.056-12.319    c-2.596-1.234-5.154-1.28-7.956-1.449c-0.078-0.005-0.157-0.017-0.235-0.022c1.552-1.955,1.638-4.762,1.853-7.208    c1.007-11.459-0.092-23.384-0.005-34.899c0.075-9.925,0.788-19.809-0.185-29.745c-0.974-9.953-0.86-20.403-1.014-30.385    c-0.167-10.839,0.508-21.834,0.528-32.71c0.011-6.276-0.809-12.457-0.79-18.696c0.012-3.813-0.212-7.433-0.768-11.131    c2.184-0.055,4.244-0.008,6.458,0.237c1.176,0.13,2.215,0.64,3.405,0.086c2.882-1.342,2.433-5.244,2.663-7.895    c0.269-3.091,0.719-5.73-1.842-8.022c-2.839-2.542-6.43-2.441-9.979-2.489c-1.08-0.014-2.15-0.077-3.214-0.158    c1.498-1.97,1.183-4.602,1.183-7.095c0.001-10.123-0.656-20.191-0.705-30.345c-0.057-11.364-0.217-22.689,0.522-34.023    c0.328-5.027,1.11-10.051,0.954-15.096c-0.018-0.565-0.74-8.364-1.203-11.899c1.827-0.021,3.596-0.281,4.936-1.228    c4.849-3.423,4.127-13.542,3.147-19.168c7.359-0.151,14.706-0.489,22.067-0.78c5.171-0.204,10.842-0.499,11.274-6.647    C512.03,133.251,512.679,125.119,509.754,120.681z M52.061,57.591c0.886-2.651,3.03-2.92,5.076-3.373    c0.369-0.081,2.715-0.076,3.224-0.287c-0.1,0.867,0.324,5.156,0.311,5.045c0.163,1.303,0.886,2.027,2.197,2.197    c2.927,0.38,6.799,1.696,9.27-0.637c2.246-2.121,1.565-5.679,1.36-8.663c2.531-0.205,5.053,0.125,7.584-0.066    c0.448,0.495,0.154,1.391,0.13,3.192c-0.079,5.849,1.12,6.859,6.914,6.679c2.47-0.077,4.518-0.823,5.096-3.404    c0.405-1.809-0.535-6.743,1.735-7.58c0.847-0.313,2.263-0.106,3.211-0.263c0.835-0.138,2.373-0.672,3.19-0.28    c2.18,1.047,1.26,7.542,1.648,9.609c0.112,0.596,0.722,1.19,1.312,1.31c1.485,0.304,2.995,0.101,4.51,0.052    c0.399-0.013,0.724-0.129,0.992-0.302c0.456-0.123,0.915-0.355,1.38-0.751c0.75-0.639,1.028-1.421,1.315-2.305    c0.526-1.618-0.475-5.501,0.473-6.616c0.788-0.927,5.622-1.138,6.698-0.592c2.36,1.198,1.68,3.682,1.793,5.713    c0.129,2.296,0.525,4.299,2.899,4.977c2.029,0.58,6.075-0.198,7.869-1.303c2.557-1.575,2.109-3.98,1.98-6.642    c-0.045-0.933-0.773-2.272-0.14-3.135c0.458-0.625,1.404-0.587,2.135-0.66c1.446-0.145,3.746-0.471,5.103,0.199    c1.406,0.693,0.598,1.804,0.472,3.699c-0.1,1.498-0.153,2.987,0.061,4.471c0.098,0.673,0.833,1.333,1.473,1.473    c3.043,0.666,7.605,1.353,9.248-2.031c0.916-1.889-0.903-5.941,1.105-7.335c0.702-0.487,3.491-0.316,5.676-0.302    c0.938,0.291,1.68,0.801,1.994,1.679c0.688,1.917-0.781,4.173,0.399,6.324c1.845,3.366,6.303,1.954,9.459,1.3    c1.672-0.347,3.196-1.02,3.427-2.862c0.229-1.827-0.469-3.649,0.348-5.385c0.673-1.431,1.796-1.534,3.243-1.363    c-0.093,0.002,5.055-0.047,4.85-0.127c2.959,1.157,0.693,4.298,1.376,6.609c1.04,3.526,5.697,3.516,8.876,2.572    c1.596-0.473,2.596-1.49,2.835-3.145c0.209-1.446-0.388-2.886-0.217-4.331c0.216-1.826,1.136-1.484,2.512-1.482    c1.428,0,4.647-1.154,4.831,0.932c0.133,1.512-0.238,3.107,0.045,4.621c0.878,4.705,4.03,3.65,8.276,3.444    c0.849-0.041,1.806-0.604,1.983-1.51c0.322-1.648-0.171-3.445,0.014-5.122c0.073-0.663,0.14-1.412,0.819-1.712    c0.547-0.243,4.3-0.078,4.742,0.287c0.077,0.063,0.14,0.131,0.178,0.209c0.637,1.307-0.927,4.13-0.41,5.671    c1.078,3.209,6.429,2.68,9.076,2.075c1.997-0.456,3.002-1.55,3.232-3.551c0.104-0.9,0.096-1.809,0.278-2.7    c0.167-0.815,0.328-2.433,1.045-2.88c1.281-0.797,5.159-0.619,5.903,0.921c0.67,1.386-0.356,5.042-0.172,6.645    c0.146,1.275,1.092,2.065,2.147,2.056c3.499,2.047,9.833,0.231,11.077-3.591c0.36-1.103,0.127-2.31,0.113-3.436    c-0.158-1.036-0.185-2.081-0.081-3.134c2.535-1.225,4.715-0.698,6.539,1.58c0.886,1.815-0.41,4.054,0.278,5.873    c1.506,3.982,8.371,3.568,11.536,2.011c0.054,0.046,0.11,0.092,0.164,0.138c1.478,1.242,3.403,0.369,3.616-1.498    c0.184-1.604-0.842-5.259-0.172-6.645c0.744-1.54,4.622-1.718,5.903-0.921c0.718,0.447,0.879,2.065,1.045,2.88    c0.183,0.892,0.173,1.8,0.278,2.7c0.23,2.003,1.235,3.096,3.232,3.551c2.647,0.605,7.998,1.135,9.076-2.075    c0.517-1.54-1.047-4.364-0.41-5.671c0.038-0.078,0.101-0.146,0.178-0.209c0.442-0.364,4.195-0.53,4.742-0.287    c0.678,0.301,0.745,1.05,0.818,1.712c0.185,1.677-0.308,3.475,0.014,5.122c0.177,0.906,1.133,1.468,1.983,1.51    c4.246,0.206,7.398,1.261,8.276-3.444c0.283-1.514-0.089-3.108,0.045-4.621c0.184-2.085,3.403-0.932,4.831-0.932    c1.376,0,2.296-0.343,2.512,1.482c0.171,1.446-0.426,2.885-0.217,4.331c0.239,1.655,1.24,2.672,2.835,3.145    c3.18,0.944,7.837,0.954,8.876-2.572c0.682-2.313-1.583-5.452,1.376-6.609c-0.205,0.08,4.943,0.13,4.85,0.127    c1.447-0.171,2.57-0.067,3.243,1.363c0.817,1.735,0.119,3.558,0.348,5.385c0.23,1.842,1.755,2.516,3.427,2.862    c3.156,0.655,7.614,2.066,9.459-1.3c1.179-2.151-0.289-4.407,0.399-6.324c0.315-0.877,1.057-1.387,1.994-1.679    c2.185-0.014,4.975-0.185,5.676,0.302c2.009,1.394,0.189,5.446,1.105,7.335c1.643,3.385,6.204,2.697,9.248,2.031    c0.64-0.14,1.376-0.8,1.473-1.473c0.215-1.484,0.162-2.974,0.061-4.471c-0.127-1.894-0.934-3.005,0.472-3.699    c1.357-0.67,3.657-0.344,5.103-0.199c0.731,0.073,1.677,0.035,2.135,0.66c0.631,0.862-0.096,2.202-0.14,3.135    c-0.127,2.662-0.576,5.068,1.981,6.642c1.794,1.105,5.842,1.883,7.869,1.303c2.374-0.678,2.77-2.681,2.899-4.977    c0.113-2.031-0.566-4.515,1.793-5.713c1.076-0.546,5.91-0.336,6.698,0.592c0.948,1.116-0.053,4.997,0.473,6.617    c0.288,0.883,0.565,1.665,1.315,2.305c0.465,0.396,0.923,0.629,1.38,0.751c0.268,0.173,0.593,0.289,0.992,0.302    c1.516,0.05,3.025,0.254,4.51-0.052c0.59-0.12,1.199-0.715,1.311-1.31c0.388-2.068-0.532-8.561,1.648-9.609    c0.816-0.393,2.355,0.142,3.19,0.28c0.948,0.157,2.365-0.05,3.211,0.263c2.27,0.837,1.33,5.772,1.735,7.58    c0.578,2.582,2.628,3.327,5.096,3.404c5.792,0.18,6.993-0.83,6.913-6.679c-0.024-1.801-0.318-2.696,0.13-3.191    c2.531,0.191,5.053-0.139,7.584,0.066c-0.205,2.984-0.886,6.542,1.36,8.663c2.471,2.334,6.343,1.017,9.27,0.637    c1.311-0.17,2.036-0.894,2.197-2.197c-0.014,0.111,0.412-4.179,0.311-5.046c0.51,0.211,2.855,0.205,3.224,0.287    c2.045,0.453,4.19,0.722,5.076,3.373c0.303,0.908,0.158,2.657,0.146,3.622c-0.024,1.731-0.251,2.755-0.057,4.019    c-0.861,0.021-1.718,0.028-2.565-0.005c-3.847-0.15-7.633-0.628-11.492-0.716c-9.544-0.219-19.093-0.171-28.636-0.374    c-4.426-0.094-8.787-0.906-13.218-0.817c-4.228,0.085-8.16,0.526-12.412,0.171c-8.522-0.712-17.16-0.013-25.722-0.784    c-17.855-1.607-36.024-1.481-53.953-1.473c-14.413,0.006-28.714-0.969-43.042-0.263c-4.264-0.044-8.566-0.198-12.81,0.022    c-3.804,0.198-7.97,0.052-12.173,0.027c-14.659-0.803-29.283,0.221-44.027,0.214c-17.929-0.008-36.098-0.134-53.953,1.473    c-8.561,0.77-17.199,0.072-25.722,0.784c-4.251,0.355-8.185-0.086-12.412-0.171c-4.431-0.089-8.792,0.723-13.219,0.817    c-9.543,0.203-19.091,0.154-28.636,0.374c-3.859,0.089-7.645,0.566-11.492,0.716c-0.847,0.033-1.704,0.026-2.565,0.005    c0.195-1.263-0.034-2.288-0.057-4.019C51.902,60.248,51.758,58.499,52.061,57.591z M42.895,71.857    c-0.33-1.243,0.261-2.224,1.775-2.945c0.992-0.474,4.803-0.039,5.921-0.044c9.576-0.035,19.086-0.138,28.685-0.046    c5.123,0.05,10.266,0.229,15.388,0.133c4.758-0.088,9.441-0.967,14.208-0.729c9.16,0.458,18.243,0.415,27.472,0.098    c19.347-0.665,38.552-1.842,57.925-1.842c8.765,0,17.677,0.443,26.422-0.092c3.644-0.223,7.291-0.336,10.938-0.434    c7.894,1.401,17.028,0.407,24.538,0.116c8.019-0.311,16.815,0.98,24.968-0.094c3.387,0.094,6.776,0.205,10.161,0.413    c8.745,0.535,17.657,0.092,26.422,0.092c19.373,0,38.578,1.178,57.925,1.842c9.23,0.317,18.311,0.36,27.472-0.098    c4.768-0.238,9.451,0.64,14.208,0.729c5.123,0.096,10.266-0.084,15.388-0.133c9.599-0.093,19.11,0.011,28.687,0.046    c1.118,0.005,4.929-0.432,5.921,0.044c1.514,0.721,2.105,1.703,1.775,2.945c-1.025,2.331-2.628,3.267-4.81,2.81    c-1.23,0.256-2.428,0.372-3.614,0.478c-0.492-0.126-0.995-0.234-1.529-0.297c-5.304-0.631-11.116,0.472-16.485,0.438    c-4.518-0.028-9.071-0.209-13.581,0.047c-9.843,0.56-19.432-0.728-29.22-0.692c-21.614,0.079-43.086-2.463-64.713-1.448    c-15.063,0.705-30.545,0.085-45.751,1.044c-4.382-0.262-8.756-0.091-13.26-0.14c-6.704-0.074-13.333-0.024-20.029,0.046    c-8.579,0.09-17.251,0.565-25.824,0.33c-3.465-0.096-7.089-0.41-10.68-0.4c-14.24-0.715-28.682-0.221-42.758-0.88    c-21.627-1.013-43.099,1.529-64.713,1.448c-9.788-0.035-19.376,1.253-29.22,0.692c-4.51-0.256-9.064-0.075-13.581-0.047    c-5.367,0.034-11.18-1.069-16.483-0.438c-0.533,0.064-1.038,0.171-1.529,0.297c-1.185-0.107-2.384-0.222-3.614-0.478    C45.524,75.124,43.921,74.187,42.895,71.857z M463.322,113.9c-7.773,0.002-15.532-0.065-23.293-0.12    c0.008-4.966-0.803-9.941-0.872-14.914c-0.08-5.838,0.09-11.757-0.329-17.594c0.593-0.012,1.185-0.028,1.779-0.032    c4.621-0.03,9.196-0.232,13.809-0.468c3.013-0.154,6.053-0.928,7.253,2.868c0.591,1.872-0.186,2.61-0.218,4.232    C461.288,96.21,460.803,105.857,463.322,113.9z M435.69,113.757c-6.254-0.038-12.511-0.063-18.782-0.019    c-2.459,0.017-4.913,0.064-7.367,0.129c0.016-4.996-0.803-9.999-0.872-15.001c-0.08-5.846,0.091-11.775-0.33-17.621    c1.807,0.085,3.615,0.188,5.424,0.333c7.163,0.571,14.298,0.054,21.456-0.206c-0.008,0.934-0.005,1.871,0.012,2.811    C434.851,94.063,435.993,103.927,435.69,113.757z M405.195,114.003c-5.679,0.188-11.354,0.423-17.045,0.581    c-3.013,0.084-6.053,0.014-9.102-0.105c0.093-5.199-0.796-10.407-0.868-15.613c-0.083-6.083,0.122-12.258-0.37-18.331    c2.924,0.149,5.846,0.27,8.758,0.314c6.081,0.092,12.124,0.07,18.168,0.256c-0.013,1.023-0.013,2.047,0.006,3.077    C404.36,94.145,405.525,104.091,405.195,114.003z M347.317,80.431c0.042-0.259,0.076-0.521,0.123-0.781    c0.041-0.227,0.04-0.43,0.021-0.624c3.998-0.076,7.99-0.038,11.962,0.262c4.92,0.37,9.88,0.753,14.843,1.052    c-0.028,1.275-0.034,2.555-0.011,3.84c-0.386,10.059,0.809,20.101,0.446,30.108c-3.76-0.176-7.523-0.355-11.262-0.347    c-4.979,0.012-9.924-0.156-14.872-0.307c-0.008-4.918-0.806-9.845-0.873-14.769C347.609,92.749,347.819,86.539,347.317,80.431z     M316.828,80.431c0.022-0.136,0.044-0.271,0.064-0.407c3.997-0.118,7.975-0.248,11.908-0.339    c4.978-0.117,9.991-0.396,15.006-0.564c-0.001,0.013-0.004,0.024-0.005,0.037c-0.065,1.662-0.067,3.34-0.035,5.023    c-0.376,9.8,0.742,19.583,0.465,29.332c-2.434-0.06-4.872-0.104-7.321-0.101c-6.277,0.006-12.554-0.074-18.83-0.121    c-0.044-4.805-0.809-9.616-0.875-14.424C317.121,92.749,317.331,86.539,316.828,80.431z M286.341,80.431    c0.032-0.192,0.06-0.385,0.091-0.578c8.89,0.599,17.914,0.511,26.862,0.272c-0.034,1.346-0.04,2.697-0.015,4.055    c-0.373,9.716,0.722,19.414,0.471,29.082c-2.3-0.008-4.6-0.011-6.9,0.005c-5.651,0.039-11.322,0.257-16.987,0.642    c-0.741-0.143-1.501-0.225-2.273-0.278c-0.008-4.916-0.805-9.841-0.873-14.764C286.633,92.749,286.843,86.539,286.341,80.431z     M256.228,98.866c-0.084-6.118,0.126-12.327-0.376-18.435c0.024-0.147,0.047-0.294,0.07-0.441c0.061,0.001,0.123,0,0.184,0.001    c8.715,0.086,17.794,0.519,26.702-0.024c-0.039,1.398-0.045,2.802-0.019,4.213c-0.377,9.853,0.755,19.688,0.461,29.49    c-3.479,0.248-7.007,0.875-10.133,1.035c-5.38,0.276-10.755,0.793-16.14,0.942c0.061-0.193,0.106-0.399,0.113-0.631    C257.261,109.641,256.302,104.253,256.228,98.866z M252.806,115.688c-4.247-0.057-8.486,0.007-12.723,0.027    c-4.473-0.599-8.969-1.086-13.475-1.466c0.064-5.122-0.798-10.254-0.868-15.383c-0.084-6.118,0.126-12.327-0.376-18.435    c0.032-0.193,0.06-0.388,0.092-0.583c1.274-0.085,2.549-0.163,3.817-0.278c0.004,0,0.007,0,0.009,0    c7.622,0.561,15.364,0.405,23.039,0.405c-0.038,1.395-0.044,2.798-0.019,4.206c-0.395,10.303,0.88,20.59,0.427,30.838    C252.718,115.266,252.752,115.484,252.806,115.688z M194.875,80.431c0.022-0.137,0.044-0.274,0.065-0.41    c8.926,0.264,17.96,0.454,26.889,0.038c-0.035,1.368-0.041,2.742-0.016,4.123c-0.381,9.934,0.776,19.853,0.455,29.735    c-5.712-0.392-11.431-0.611-17.127-0.65c-3.004-0.02-6.009-0.012-9.013,0.006c-0.046-4.798-0.81-9.603-0.876-14.406    C195.168,92.749,195.378,86.539,194.875,80.431z M164.388,80.431c0.042-0.259,0.075-0.521,0.123-0.781    c0.041-0.227,0.04-0.43,0.021-0.624c6.231,0.117,12.471,0.513,18.657,0.658c2.7,0.063,5.423,0.145,8.156,0.228    c-0.04,1.415-0.046,2.839-0.02,4.268c-0.374,9.73,0.725,19.444,0.469,29.124c-5.571,0.048-11.143,0.112-16.716,0.106    c-3.16-0.004-6.303,0.072-9.442,0.162c-0.013-4.897-0.804-9.802-0.872-14.706C164.68,92.749,164.89,86.539,164.388,80.431z     M160.836,84.18c-0.379,9.861,0.757,19.704,0.46,29.515c-4.24,0.131-8.479,0.256-12.746,0.247    c-4.451-0.011-8.936,0.243-13.409,0.443c0.083-5.167-0.796-10.343-0.867-15.519c-0.083-6.077,0.12-12.247-0.369-18.317    c6.234-0.31,12.479-0.795,18.662-1.261c2.766-0.209,5.543-0.285,8.325-0.291c-0.006,0.054-0.018,0.103-0.02,0.16    C160.808,80.819,160.806,82.497,160.836,84.18z M130.789,114.55c-2.326,0.068-4.644,0.098-6.948,0.034    c-6.405-0.177-12.788-0.456-19.182-0.649c0.025-5.018-0.803-10.045-0.872-15.069c-0.08-5.844,0.091-11.769-0.329-17.612    c7.31-0.351,14.609-0.294,21.963-0.406c1.641-0.025,3.286-0.088,4.931-0.15c-0.02,1.157-0.025,2.318-0.002,3.483    C129.961,94.328,131.183,104.458,130.789,114.55z M100.319,113.828c-1.744-0.038-3.487-0.077-5.234-0.09    c-6.983-0.048-13.949-0.015-20.912,0.031c0.005-4.963-0.806-9.934-0.874-14.903c-0.08-5.839,0.09-11.76-0.329-17.598    c8.435,0.149,16.828,0.98,25.257,0.309c0.54-0.044,1.08-0.074,1.62-0.111c-0.007,0.902-0.002,1.808,0.014,2.715    C99.481,94.086,100.629,103.974,100.319,113.828z M50.537,87.871c-0.032-1.622-0.81-2.36-0.218-4.232    c1.201-3.797,4.24-3.023,7.253-2.868c3.939,0.202,7.855,0.356,11.791,0.422c-0.011,0.993-0.011,1.988,0.008,2.987    c-0.38,9.894,0.765,19.77,0.458,29.614c-7.052,0.051-14.102,0.107-21.164,0.105C51.186,105.856,50.701,96.209,50.537,87.871z     M39.377,157.523c-1.519-3.564-1.31-7.845-1.846-11.727c0.1,0.001,0.201,0.005,0.301,0.006c3.694,0.033,7.329-0.073,10.994-0.237    c-0.451,1.952-0.327,3.991-0.349,6.056c-0.029,2.715-0.545,5.891-0.091,8.696C44.791,160.542,40.738,160.716,39.377,157.523z     M61.565,160.179c-2.742,0.001-5.485,0.006-8.228,0.006c-0.079-0.143-0.162-0.284-0.283-0.415c-0.086-0.093-0.178-0.16-0.27-0.228    c-0.436-2.549-0.042-5.403-0.212-7.922c-0.048-0.719-0.808-4.384-0.932-6.166c3.57-0.073,7.157,0.504,10.742,0.643    c-0.134,0.629-0.189,1.264-0.186,2.024c0.006,1.775-0.436,3.433-0.545,5.216C61.509,155.692,61.267,157.964,61.565,160.179z     M62.721,165.925c20.658,0.014,41.337-1.254,61.96-1.046c15.685,0.158,31.279,0.158,46.859-0.477    c-0.305,2.512-1.6,7.849-1.678,8.583c-0.472,4.445-0.126,9.024-0.443,13.497c-0.635,8.933,0.183,17.808-0.526,26.763    c-0.749,9.459-0.931,19.543-0.451,29.017c0.29,5.732,2.792,14.931-0.885,20.017c-2.163,0.333-4.231,1.03-6.507,1.303    c-4.584,0.551-9.329,0.54-13.942,0.532c-9.249-0.016-18.438,0.012-27.715,0.017c-20.01,0.011-39.879-2.076-59.885-2.108    c-2.514-0.004-5.132,0.218-7.634,0.021c-3.42-0.268-4.722-0.219-4.956-3.664c-0.278-4.113,0.007-8.182,0.323-12.272    c0.773-9.978-0.05-20.173,0.052-30.181c0.098-9.781-0.498-19.688-1.38-29.431c-0.412-4.552-0.692-8.816-0.605-13.399    c0.047-2.454,0.046-4.8-0.466-7.091c0.86-0.053,1.685-0.105,2.432-0.103C52.422,165.917,57.571,165.921,62.721,165.925z     M77.162,160.168c-3.576,0.002-7.152,0.004-10.728,0.007c-0.394-2.704-0.63-5.623-0.285-8.255    c0.297-2.272-0.004-3.848-0.688-5.781c3.968,0.033,7.947,0.001,11.932-0.047c-0.223,2.476-0.171,4.949-0.328,7.461    C76.932,155.701,76.615,158.071,77.162,160.168z M92.873,156.64c0.105,1.116-0.005,2.276,0.005,3.383    c-3.597,0.071-7.195,0.126-10.796,0.137c0.055-2.569-0.361-5.37-0.583-7.875c-0.186-2.115-0.592-4.173-1.054-6.227    c4.378-0.061,8.762-0.133,13.142-0.167C93.006,149.442,92.541,153.119,92.873,156.64z M111.737,159.53    c-4.471,0.129-8.942,0.259-13.413,0.372c0.024-0.164,0.055-0.324,0.06-0.495c0.051-1.682-0.454-3.344-0.586-5.02    c-0.226-2.878-0.423-5.687-0.782-8.515c5.232-0.012,10.457,0.065,15.665,0.294c-0.653,2.579-0.967,5.071-1.097,7.882    C111.503,155.839,111.333,157.802,111.737,159.53z M129.521,159.133c-4.221,0.058-8.439,0.14-12.656,0.252    c0.104-1.738-0.357-3.655-0.441-5.338c-0.126-2.537-0.196-5.159-0.405-7.711c1.462,0.086,2.925,0.171,4.384,0.289    c3.607,0.29,7.214,0.288,10.823,0.196c-0.315,0.942-0.81,1.8-1.045,2.816c-0.388,1.684-0.305,3.53-0.421,5.245    C129.666,156.272,129.416,157.748,129.521,159.133z M145.166,159.181c-2.776-0.066-5.546-0.121-8.294-0.119    c-0.731,0.001-1.461,0.018-2.193,0.021c0.044-2.132-0.112-4.361-0.342-6.424c-0.223-1.996-0.222-3.949-0.383-5.918    c4.244-0.153,8.488-0.372,12.736-0.368c-0.002,0.029-0.001,0.058-0.005,0.087c-0.257,2.163-0.986,4.234-1.353,6.372    C145.011,154.705,144.624,157.167,145.166,159.181z M160.22,155.822c0.09,1.026,0.17,2.302,0.381,3.546    c-3.359,0.058-6.74,0.014-10.123-0.061c-0.018-0.061-0.027-0.122-0.052-0.185c-1.031-2.728-0.29-6.225-0.414-9.104    c-0.051-1.171-0.119-2.439-0.349-3.605c0.854,0.025,1.707,0.06,2.56,0.111c3.052,0.185,6.12,0.231,9.193,0.218    C161.128,149.736,159.955,152.795,160.22,155.822z M164.782,146.705c3.298-0.06,6.598-0.172,9.893-0.267    c-0.016,1.054,0.159,2.106,0.116,3.18c-0.054,1.329-0.322,2.59-0.574,3.887c-0.271,1.4-0.728,3.373-0.709,5.182    c-2.661,0.185-5.318,0.367-7.973,0.506c0.011-1.756-0.446-3.637-0.573-5.22C164.756,151.429,165.035,149.052,164.782,146.705z     M182.322,458.565c-0.906,0.399-2.95-0.21-4.001-0.172c-1.741,0.064-3.371,0.475-5.108,0.59c-3.342,0.221-6.8,0.541-10.148,0.55    c-13.66,0.034-27.302,1.86-40.944,1.691c-15.992-0.197-32.001,0.289-47.931,0.105c-14.01-0.162-28.93,1.357-42.762-1.225    c0.078-0.583,0.152-1.167,0.264-1.728c0.758-3.83,2.412-5.509,6.379-6.079c2.822-0.406,5.469-1.214,8.151-2.034    c2.469,0.21,5.046,0.098,6.934,0.318c9.998,1.168,20.679,1.029,30.668,0.448c2.695-0.157,5.333,0.557,8,0.523    c2.233-0.029,4.394-0.553,6.665-0.501c5.95,0.134,11.883,0.54,17.852,0.598c10.675,0.104,21.246,0.723,31.962-0.064    c6.825-0.5,13.744,0.479,20.571-0.177c0.816-0.078,1.606-0.153,2.374-0.245c0.262,0.17,0.557,0.29,0.886,0.326    c2.726,0.287,7.446-0.868,9.947,0.673c0.134,0.865,0.741,1.622,1.52,1.911C184.229,455.798,183.783,457.923,182.322,458.565z     M44.593,359.47c-0.015-4.453,0.559-8.791,0.605-13.188c0.058-5.633-0.638-11.286-0.651-16.937    c-0.014-5.915,0.018-11.829-0.029-17.744c-0.047-5.904,0.57-11.769,0.379-17.647c-0.117-3.583,0.218-7.447-0.683-10.953    c3.588,0.171,7.166,0.363,10.786,0.493c10.708,0.383,21.275,0.729,32.018,0.283c10.086-0.419,20.03-1.187,30.181-1.161    c10.716,0.027,21.352-0.508,32.036-0.497c8.667,0.009,17.395-0.179,26.067,0.098c-0.169,0.829-0.36,1.651-0.427,2.407    c-0.255,2.871-0.521,5.792-0.696,8.676c-0.402,6.625-0.624,13.377-0.633,20.013c-0.022,15.316,1.019,30.481,0.995,45.756    c-0.012,7.635-0.685,15.45-0.123,23.063c0.103,1.394,0.166,2.79,0.217,4.188c-14.379,0.939-28.845-0.112-43.261-0.36    c2.779-2.808,3.379-7.461,1.807-10.985c-1.55-3.475-2.256-4.777,0.899-7.703c1.868-1.733,4.05-3.526,4.689-6.148    c0.513-2.104-0.162-4.088-1.461-5.742c-0.61-0.776-5.969-3.679-5.993-3.793c0.015,0.078,4.413-6.844,4.734-7.965    c0.138-0.481,0.218-0.938,0.257-1.381c1.289-4.405-0.375-8.919-3.3-12.633c-1.664-2.113-3.404-4.056-5.865-5.207    c-1.516-0.709-3.687-0.938-4.347-2.812c-0.643-1.828,1.151-5.888,1.396-7.91c0.657-5.436-0.598-10.372-6.069-12.545    c-2.3-0.913-4.55-0.657-6.826,0.209c-1.209,0.46-2.161,1.219-3.304,1.805c-3.344,1.71-4.365,0.907-7.487,0.234    c-4.562-0.984-10.123,0.269-13.474,3.629c-4.575,4.589-3.467,10.974-1.959,16.64c1.052,3.95,2.798,6.299,0.08,9.694    c-1.801,2.249-3.104,4.129-3.59,7.108c-0.445,2.72-0.026,5.987,0.956,8.559c0.441,1.155,1.42,2.181,1.773,3.338    c1.017,3.339-0.704,3.425-2.888,4.839c-5.201,3.368-7.467,9.3-4.952,15.079c1.543,3.544,4.136,6.149,6.889,8.762    c1.343,1.275,2.576,2.702,4.042,3.84c0.606,0.472,1.584,0.902,2.486,1.34c-1.332,0.079-2.645,0.305-3.734,0.891    c-7.99-0.748-16.087,0.451-24.111,0.178c-5.49-0.188-10.934-0.31-16.442-0.126c-0.671,0.022-1.322,0.008-1.945,0.028    c0.127-4.527,0.432-9.051,0.861-13.382C44.966,369.061,44.608,364.228,44.593,359.47z M134.586,444.852    c0.798-7.87,0.443-16.27,0.484-24.173c0.038-7.523,0.196-15.246-0.635-22.761c4.411,0.145,8.821,0.408,13.234,0.783    c4.857,0.413,9.678-0.261,14.475-0.276c4.358-0.013,8.513,0.591,12.835,0.008c0.064,1.28,0.14,2.559,0.258,3.834    c0.692,7.529,0.836,15.583,0.809,23.145c-0.011,2.864,1.987,17.735-1.657,19.415c-3.281,0.488-7.397,0.278-10.155,0.33    c-5.74,0.106-11.658-0.485-17.368,0.112c-4.11,0.429-8.212,0.506-12.312,0.439c0.001-0.005,0.002-0.009,0.004-0.015    C134.631,445.412,134.635,445.126,134.586,444.852z M133.703,393.773c-0.278-1.736-0.547-3.259-1.109-4.502    c5.47,0.364,10.987,0.258,16.519,0.282c8.338,0.037,17.284,1.169,25.614-0.042c0.033,1.524,0.061,3.048,0.097,4.571    c-5.024,0.889-9.975-0.373-14.941,0.172c-5.482,0.602-10.828-0.061-16.285-0.278C140.289,393.846,136.994,393.79,133.703,393.773z     M129.665,445.575c-3.352-0.129-6.704-0.307-10.057-0.432c-11.131-0.413-22.239-0.511-33.345-0.502    c-0.09-8.119-0.198-16.233-0.204-24.355c-0.005-5.84,1.006-12.781-0.499-18.629c-0.025-0.459-0.054-0.919-0.096-1.378    c-0.058-0.65-0.077-1.124-0.127-1.46c3.222-0.243,6.441-0.546,9.655-0.677c6.147-0.251,12.351,0.414,18.491,0.04    c5.819-0.355,11.629-0.462,17.435-0.357c-0.807,7.574-0.458,15.247-0.653,22.852c-0.213,8.282-0.434,16.539-0.604,24.824    C129.659,445.528,129.665,445.55,129.665,445.575z M86.482,394.673c0.303-1.319,0.285-2.759,1.203-3.847    c1.191-1.413,5.719-0.644,7.506-0.716c2.746-0.111,5.419-0.59,8.18-0.587c5.753,0.006,11.557-0.208,17.304-0.009    c1.558,0.054,5.497-0.245,6.942,0.806c0.66,0.481,1.047,2.014,1.394,3.458c-6.054,0.04-12.101,0.189-18.188,0.304    c-5.602,0.106-11.279-0.367-16.868-0.012C91.464,394.227,88.973,394.461,86.482,394.673z M127.403,367.202    c-1.094,1.968-1.08,3.595-0.597,5.701c0.373,1.623,1.597,3.105,1.961,4.65c0.698,2.964-2.169,5.057-2.833,7.887    c-0.028,0.12-0.024,0.229-0.033,0.343c-7.094-0.841-14.402-0.259-21.523-0.288c-3.224-0.013-6.408,0.31-9.613,0.519    c2.044-2.318,1.507-6.404-0.256-9.034c-0.219-0.327-0.465-0.622-0.702-0.926c1.086-0.841,2.753-1.341,3.92-1.553    c1.153-0.21,2.062-0.124,3.118,0.287c0.998,0.388,1.692,0.833,2.765,0.452c0.515-0.183,0.9-0.708,0.724-1.275    c-1.657-5.352-9.966-3.459-12.569-0.255c-0.758-0.795-1.529-1.583-2.257-2.44c-1.838-2.162-0.961-2.559-0.084-4.676    c0.359-0.865,0.711-0.451,0.584-1.42c-0.07-0.525-0.682-0.74-1.005-0.272c-0.024,0.034-1.628,0.26-1.841,0.362    c-0.732,0.349-1.572,1.222-1.967,1.913c-0.866,1.513-0.558,3.089,0.176,4.59c1.151,2.359,3.359,3.837,4.974,5.836    c1.684,2.085,1.889,3.627,1.678,5.402c-2.386-2.995-5.98-5.372-8.354-8.165c-3.791-4.461-4.956-10.511,0.525-14.172    c1.698-1.135,3.688-1.527,4.736-3.41c0.987-1.771,0.626-3.554-0.094-5.389c-1.195-3.042-3.13-5.905-3.173-9.138    c0.315,0.098,0.658,0.193,0.712,0.208c0.436,0.119,0.889,0.198,1.314,0.355c1.137,0.42,1.856,1.228,2.618,2.123    c0.559,0.656,1.171,1.387,2.137,1.146c0.932-0.232,1.308-1.197,1.281-2.071c-0.073-2.364-2.415-4.268-4.505-4.942    c-0.773-0.249-1.727-0.505-2.651-0.573c1.376-2.498,4.166-3.253,5.173-5.968c0.932-2.509-0.129-5.044-0.859-7.416    c-1.119-3.636-2.995-8.861-1.997-12.627c1.131-4.268,6.108-6.513,10.212-6.254c1.733,0.109,3.411,0.895,5.129,1.141    c1.773,0.908,3.828,1.886,4.865,3.388c2.226,3.223-0.747,5.885-0.859,9.136c-0.029,0.852,1.071,1.258,1.651,0.684    c3.495-3.458,5.231-7.564,2.141-11.959c-0.682-0.969-1.691-1.849-2.847-2.505c3.076-1.721,6.086-4.093,9.077-0.591    c4.941,5.785-3.649,14.293,1.006,19.939c1.409,1.71,3.378,1.766,5.244,2.648c1.043,0.493,2.111,1.245,3.101,2.165    c-0.377,0.211-0.697,0.526-0.842,0.945c-0.87,2.499-1.665,4.254-3.588,6.16c-1.103,1.095-2.72,3.832-4.374,3.993    c-0.436,0.042-0.524,0.605-0.103,0.761c2.242,0.829,5.003-1.043,6.724-2.305c2.047-1.503,4.173-3.965,4.647-6.605    c1.681,2.635,2.435,5.739,0.985,8.348c-0.348,0.625-0.393,1.233-0.251,1.773c-0.139,0.311-0.267,0.625-0.423,0.929    c-0.863,1.667-2.631,3.421-3.479,5.305c-1.155,0.629-2.241,1.69-2.77,2.407c-1.626,2.2-3.229,5.319-1.326,7.842    c0.427,0.566,1.182,0.618,1.599,0c0.62-0.918,0.522-1.979,0.995-2.943c0.376-0.764,1.021-1.576,1.508-2.28    c0.136-0.196,0.288-0.372,0.446-0.539c2.188,2.509,7.221,3.254,4.716,7.809C131.049,364.208,128.504,365.222,127.403,367.202z     M50.195,390.154c4.718,0.034,9.36,0.409,14.068,0.452c5.981,0.054,13.129,0.705,19.473-0.218    c-0.329,1.424-0.244,3.025,0.005,4.496c-2.018,0.149-4.037,0.274-6.061,0.297c-6.002,0.07-12.01,0.084-18.013,0.08    c-5.274-0.004-10.753-0.144-16.036,0.305c-0.067-1.847-0.087-3.715-0.071-5.589C45.748,390.221,47.973,390.137,50.195,390.154z     M43.942,400.742c-0.059-0.648-0.097-1.307-0.142-1.961c11.512,1.074,23.327,0.493,34.908,0.379    c1.008-0.009,2.017-0.052,3.024-0.104c-0.455,2.404-0.178,5.112-0.184,7.408c-0.005,1.937,0.08,3.804,0.228,5.656    c0.047,2.808,0.196,5.592,0.156,8.166c-0.125,8.112-0.219,16.25,0.077,24.361c-6.562,0.019-13.124,0.066-19.693,0.101    c-5.056,0.027-10.144-0.574-15.172-1.071c-2.688-0.265-2.499-0.074-2.911-2.802c-0.41-2.72-0.232-5.467-0.166-8.205    C44.322,422.181,44.888,411.188,43.942,400.742z M187.129,412.655c-0.731,7.049-0.755,14.615-0.721,21.692    c0.015,3.275-0.221,6.546-1.104,9.736c-0.295,1.067-0.776,1.994-1.283,2.906c-1.11-0.348-2.313-0.504-3.552-0.526    c0.863-1.398,1.425-3.032,1.664-4.494c1.296-7.927-0.209-17.015-0.602-24.972c-0.418-8.46-0.552-17.103-0.439-25.566    c0.055-4.142-0.791-8.138-0.873-12.273c-0.087-4.4,0.178-8.81,0.18-13.212c0.012-17.605-1.117-35.026-1.149-52.636    c-0.014-7.585,0.127-15.456,0.775-23.005c0.178-2.096,0.567-5.172,0.202-7.873c0.835,0.046,1.671,0.087,2.504,0.145    c0.502,0.035,1.014,0.089,1.529,0.146c-0.031,1.392,0.075,2.802,0.124,4.164c0.146,4.104,0.166,8.189,0.146,12.304    c-0.032,6.621,0.176,13.168,0.347,19.762c0.192,7.429,0.842,14.881,1.168,22.304c0.342,7.823,0.173,15.7,0.73,23.533    c0.504,7.078,0.59,14.305,0.69,21.377C187.588,394.888,188.028,403.98,187.129,412.655z M191.422,272.461    c-0.544,7.154-6.432,4.246-11.319,3.985c-21.229-1.135-42.713,0.653-63.944,0.63c-19.901-0.021-39.499,2.297-59.383,1.23    c-4.774-0.256-9.58-0.224-14.356-0.425c-2.23-0.094-4.602-0.241-6.829-0.092c-2.721,0.18-2.759,1.389-3.493-1.113    c-0.673-2.293-0.748-5.55,1.245-7.19c2.272-1.867,7.098-1.004,9.873-1.391c1.466-0.204,2.972-0.441,4.439-0.8    c2.152,0.427,4.465,0.448,6.396,0.486c21.821,0.433,43.52,2.168,65.339,2.18c10.593,0.006,20.966,0.218,31.541,0.02    c4.966-0.093,13.61,0.58,18.473-2.571c4.732-0.256,9.458-0.467,14.192-0.481c1.52-0.005,5.185-0.616,6.51,0.017    C191.822,267.762,191.555,270.704,191.422,272.461z M238.236,193.416c-6.12,0.578-13.205,5.667-17.69,8.236    c-3.601,2.063-7.113,4.228-10.519,6.615c-3.246,2.275-5.109,5.207-7.566,8.265c-5.47,6.81-7.601,14.632-11.123,22.314    c-3.15,6.874-5.689,15.18-4.753,22.906c-0.401,0.027-0.793,0.048-1.17,0.053c-3.657,0.045-7.177,0.565-10.755,1.008    c0.1-0.222,0.185-0.456,0.271-0.691c0.387-0.046,0.747-0.268,0.813-0.684c1.612-10.168,2.766-19.683,6.432-29.419    c3.009-7.99,8.115-14.918,13.206-21.676c6.126-8.134,13.766-13.864,22.799-18.5c3.886-1.994,8.376-3.601,12.679-4.437    c2.5-0.486,5.095-0.451,7.549-1.059C238.395,188.709,238.338,191.064,238.236,193.416z M238.263,173.993    c0.058,2.536,0.103,5.08,0.131,7.625c-0.071,0.008-0.137,0.006-0.21,0.02c-17.612,3.263-33.864,10.216-44.886,25.154    c-7.834,10.618-15.319,22.581-18.425,35.524c-0.272-7.063-0.267-14.153-0.331-21.221c-0.046-5.042,0.401-10.019,0.347-15.049    c-0.058-5.385-0.795-10.858-0.574-16.207c0.232-5.642-0.272-11.461,0.278-17.058c0.28-2.84,0.382-5.731-0.304-8.487    c2.485-0.113,4.971-0.242,7.456-0.392c9.847-0.593,19.816,0.203,29.633,0.819c8.744,0.548,18.573,0.76,27.381-0.82    c0.044,0.251,0.093,0.497,0.151,0.736C238.25,167.744,238.196,171.087,238.263,173.993z M178.628,146.339    c1.267-0.026,2.532-0.05,3.795-0.058c2.129-0.014,4.255-0.024,6.383-0.033c-0.326,2.783-0.796,5.56-1.04,8.361    c-0.094,1.085-0.425,2.223-0.564,3.339c-2.803,0.074-5.597,0.217-8.383,0.393C178.875,154.571,180.466,149.587,178.628,146.339z     M201.613,156.147c0.111,0.651,0.35,1.451,0.691,2.231c-3.26-0.222-6.52-0.405-9.788-0.462c0.164-1.495,0.283-2.943,0.157-4.552    c-0.189-2.397-0.634-4.755-0.942-7.128c3.436-0.013,6.868-0.021,10.3-0.032c-0.051,0.999-0.073,2.005-0.154,2.984    C201.686,151.429,201.231,153.908,201.613,156.147z M215.573,159.296c-0.795-0.031-1.587-0.067-2.376-0.121    c-1.727-0.119-3.451-0.25-5.174-0.381c-0.009-0.191-0.031-0.381-0.091-0.552c-0.471-1.334-1.128-2.529-1.315-3.943    c-0.171-1.29-0.057-2.681-0.152-3.986c-0.109-1.49-0.322-2.813-0.65-4.121c3.654-0.012,7.308-0.029,10.961-0.053    C215.916,150.334,214.393,155.373,215.573,159.296z M229.951,159.411c-3.207-0.079-6.434-0.027-9.644-0.031    c0.561-2.223,0.189-4.773,0.111-6.994c-0.077-2.182-0.13-4.207-0.294-6.278c3.725-0.031,7.449-0.08,11.176-0.138    c0.106,0.007,0.211,0.011,0.317,0.017c-1.131,2.135-1.462,4.718-1.757,7.06C229.596,155.149,229.406,157.359,229.951,159.411z     M239.943,156.831c-0.698,0.798-1.103,1.979-1.276,3.275c-1.238-0.191-2.485-0.324-3.738-0.432    c0.321-2.459-0.071-5.14,0.002-7.604c0.063-2.089,0.316-4.123-0.456-5.934c3.551,0.164,7.091,0.245,10.646,0.366    c-0.515,2.174-1.356,5.679-0.814,8.245C242.514,155.125,240.878,155.762,239.943,156.831z M259.866,154.475    c-2.936-0.055-5.865-0.184-8.794-0.236c-0.651-0.012-1.449-0.012-2.314,0.019c0.029-0.732-0.024-1.481-0.067-2.2    c-0.114-1.843-0.386-3.666-0.773-5.47c4.346,0.146,8.715,0.159,13.075,0.087c-0.477,1.446-0.736,3.011-0.978,4.452    C259.864,152.027,259.664,153.355,259.866,154.475z M249.991,158.904c4.011-0.074,9.352-0.594,13.264,0.203    c3.763,0.767,4.3,2.704,4.958,4.838c-0.005,0.208,0.001,0.418,0.001,0.626c-3.649-0.934-8.176,0.372-11.861,0.209    c-4.223-0.186-8.386-0.195-12.582,0.098c0.017-1.288-0.044-2.555-0.291-3.756C244.7,158.913,246.95,158.961,249.991,158.904z     M265.833,200.867c-2.106,1.631-7.525,0.576-9.951,0.521c-2.314-0.053-8.593,0.593-10.724-0.703    c-0.605-0.368-1.148-1.688-1.592-3.156c2.943,0.364,7.396-0.176,8.322-0.126c3.766,0.204,7.457-0.02,11.233,0.084    c1.492,0.041,2.906,0.248,4.282,0.255C267.133,198.994,266.768,200.143,265.833,200.867z M268.625,173.993    c-0.392,6.576-0.638,13.247-0.359,19.846c-5.159-0.436-10.341,0.231-15.521,0.054c-2.71-0.092-6.12-0.526-8.795,0.065    c-0.057,0.012-0.138,0.047-0.23,0.09c0.294-6.666,0.041-13.41-0.355-20.055c-0.11-1.839,0.081-3.844,0.239-5.868    c3.756,0.727,8.019,0.13,11.689,0.321c3.917,0.203,9.126,0.735,13.071-0.565C268.527,169.989,268.739,172.08,268.625,173.993z     M269.615,155.629c-1.608-1.11-3.552-1.191-5.458-1.159c0.653-2.3,0.35-5.929,0.329-7.871c0.555-0.014,1.111-0.024,1.664-0.041    c3.176-0.097,6.292-0.052,9.398-0.146c-0.589,2.446-0.492,4.957-0.778,7.481c-0.191,1.684-0.767,4.174-0.256,6.054    c-0.649,0.085-1.296,0.173-1.941,0.283C272.038,158.346,271.081,156.641,269.615,155.629z M273.096,163.879    c8.842,1.605,18.729,1.393,27.518,0.841c9.816-0.616,19.786-1.413,29.633-0.819c2.485,0.15,4.97,0.278,7.456,0.392    c-0.686,2.756-0.584,5.647-0.304,8.487c0.55,5.596,0.045,11.417,0.278,17.058c0.221,5.35-0.517,10.822-0.574,16.207    c-0.054,5.031,0.393,10.007,0.347,15.049c-0.065,7.069-0.059,14.159-0.33,21.221c-3.105-12.944-10.591-24.906-18.425-35.524    c-11.022-14.938-27.274-21.891-44.886-25.154c-0.073-0.013-0.139-0.012-0.21-0.02c0.028-2.545,0.073-5.089,0.131-7.625    c0.066-2.901,0.013-6.238-0.643-9.342C273.096,164.398,273.099,164.139,273.096,163.879z M291.684,159.379    c-4.113,0.006-8.252-0.083-12.344,0.134c0.316-2.277,0.144-4.978,0.045-7.117c-0.091-1.927-0.423-4.149-1.011-6.127    c1.041-0.07,2.083-0.159,3.127-0.291c3.456,0.051,6.912,0.099,10.366,0.127c-0.164,2.071-0.216,4.096-0.294,6.278    C291.496,154.606,291.123,157.156,291.684,159.379z M295.216,146.137c3.654,0.025,7.306,0.041,10.961,0.053    c-0.328,1.307-0.541,2.631-0.65,4.121c-0.096,1.306,0.019,2.696-0.152,3.986c-0.186,1.414-0.843,2.609-1.315,3.943    c-0.06,0.171-0.081,0.361-0.091,0.552c-1.723,0.131-3.447,0.261-5.174,0.381c-0.789,0.054-1.583,0.092-2.376,0.121    C297.597,155.373,296.074,150.334,295.216,146.137z M310.115,149.187c-0.083-0.979-0.104-1.984-0.155-2.984    c3.432,0.009,6.864,0.019,10.3,0.032c-0.307,2.373-0.754,4.732-0.942,7.128c-0.126,1.61-0.007,3.057,0.157,4.552    c-3.268,0.058-6.529,0.241-9.788,0.462c0.341-0.781,0.579-1.58,0.691-2.231C310.76,153.908,310.304,151.429,310.115,149.187z     M333.172,158.339c-2.786-0.177-5.58-0.318-8.383-0.393c-0.139-1.115-0.468-2.254-0.564-3.339    c-0.244-2.801-0.715-5.576-1.04-8.361c2.126,0.009,4.253,0.019,6.383,0.033c1.263,0.008,2.529,0.032,3.795,0.058    C331.524,149.587,333.115,154.571,333.172,158.339z M361.564,159.123c-0.024,0.064-0.033,0.123-0.052,0.185    c-3.384,0.076-6.765,0.119-10.123,0.061c0.212-1.244,0.291-2.519,0.381-3.547c0.264-3.029-0.908-6.086-1.198-9.08    c3.073,0.014,6.141-0.033,9.193-0.218c0.854-0.052,1.708-0.086,2.56-0.111c-0.23,1.168-0.298,2.434-0.349,3.605    C361.854,152.897,362.595,156.394,361.564,159.123z M387.311,164.879c20.622-0.208,41.3,1.06,61.959,1.046    c5.149-0.004,10.299-0.008,15.449-0.021c0.747-0.002,1.572,0.05,2.432,0.103c-0.512,2.29-0.513,4.636-0.466,7.091    c0.087,4.583-0.193,8.847-0.605,13.399c-0.882,9.743-1.478,19.65-1.379,29.431c0.1,10.01-0.721,20.203,0.051,30.181    c0.317,4.09,0.603,8.159,0.323,12.272c-0.234,3.445-1.536,3.397-4.956,3.664c-2.503,0.196-5.12-0.026-7.634-0.021    c-20.006,0.033-39.877,2.118-59.885,2.108c-9.277-0.005-18.466-0.034-27.715-0.017c-4.614,0.008-9.357,0.019-13.942-0.532    c-2.276-0.274-4.344-0.971-6.507-1.303c-3.676-5.086-1.175-14.285-0.885-20.017c0.48-9.475,0.298-19.558-0.451-29.017    c-0.709-8.955,0.107-17.83-0.526-26.763c-0.318-4.474,0.028-9.052-0.443-13.497c-0.078-0.734-1.374-6.069-1.678-8.583    C356.03,165.036,371.625,165.037,387.311,164.879z M366.658,152.832c-0.367-2.139-1.096-4.209-1.353-6.372    c-0.004-0.029-0.002-0.058-0.005-0.087c4.248-0.004,8.494,0.215,12.736,0.368c-0.162,1.97-0.16,3.923-0.383,5.918    c-0.23,2.063-0.386,4.292-0.342,6.424c-0.731-0.004-1.461-0.021-2.193-0.021c-2.749-0.002-5.518,0.054-8.294,0.119    C367.366,157.167,366.979,154.705,366.658,152.832z M382.23,154.882c-0.117-1.715-0.034-3.561-0.421-5.245    c-0.234-1.015-0.729-1.873-1.045-2.816c3.609,0.092,7.217,0.094,10.823-0.196c1.459-0.118,2.921-0.203,4.384-0.289    c-0.209,2.552-0.278,5.174-0.404,7.711c-0.084,1.682-0.545,3.6-0.441,5.338c-4.216-0.112-8.435-0.195-12.656-0.252    C382.574,157.748,382.324,156.272,382.23,154.882z M413.667,159.902c-4.472-0.112-8.942-0.244-13.413-0.372    c0.403-1.727,0.235-3.69,0.152-5.482c-0.129-2.811-0.443-5.303-1.097-7.882c5.209-0.229,10.434-0.307,15.665-0.294    c-0.357,2.829-0.554,5.639-0.782,8.515c-0.132,1.676-0.637,3.336-0.586,5.02C413.611,159.577,413.644,159.738,413.667,159.902z     M418.402,145.888c4.381,0.034,8.764,0.105,13.142,0.167c-0.462,2.055-0.868,4.113-1.056,6.227    c-0.222,2.505-0.638,5.306-0.581,7.875c-3.601-0.011-7.199-0.066-10.796-0.137c0.009-1.106-0.1-2.267,0.005-3.383    C419.451,153.119,418.984,149.442,418.402,145.888z M445.841,151.921c0.344,2.631,0.109,5.55-0.285,8.255    c-3.576-0.004-7.152-0.005-10.728-0.007c0.547-2.097,0.231-4.468,0.098-6.615c-0.157-2.512-0.104-4.984-0.328-7.461    c3.984,0.048,7.963,0.08,11.932,0.047C445.844,148.074,445.544,149.649,445.841,151.921z M459.206,159.542    c-0.092,0.067-0.183,0.134-0.27,0.228c-0.121,0.131-0.203,0.272-0.283,0.415c-2.743,0-5.485-0.004-8.228-0.006    c0.297-2.215,0.055-4.488-0.087-6.842c-0.107-1.783-0.551-3.442-0.544-5.217c0.002-0.761-0.052-1.396-0.186-2.024    c3.585-0.139,7.172-0.716,10.742-0.643c-0.124,1.782-0.883,5.447-0.932,6.166C459.248,154.139,459.641,156.993,459.206,159.542z     M347.029,153.974c-0.129,1.583-0.584,3.464-0.573,5.22c-2.655-0.139-5.312-0.321-7.973-0.506    c0.019-1.809-0.438-3.782-0.709-5.182c-0.251-1.297-0.52-2.558-0.574-3.887c-0.044-1.074,0.132-2.126,0.116-3.18    c3.294,0.096,6.595,0.206,9.893,0.267C346.955,149.052,347.236,151.429,347.029,153.974z M320.652,238.846    c-3.522-7.683-5.653-15.504-11.123-22.314c-2.457-3.058-4.319-5.989-7.566-8.265c-3.407-2.388-6.918-4.554-10.519-6.615    c-4.485-2.569-11.57-7.658-17.689-8.236c-0.101-2.352-0.16-4.708-0.172-7.067c2.456,0.609,5.049,0.573,7.549,1.059    c4.302,0.836,8.792,2.443,12.679,4.437c9.032,4.636,16.672,10.366,22.799,18.5c5.089,6.758,10.196,13.686,13.206,21.676    c3.667,9.736,4.82,19.251,6.432,29.419c0.066,0.416,0.426,0.638,0.813,0.684c0.086,0.235,0.171,0.469,0.271,0.691    c-3.578-0.445-7.098-0.965-10.755-1.008c-0.377-0.005-0.769-0.026-1.17-0.053C326.341,254.027,323.803,245.72,320.652,238.846z     M324.569,430.963c-0.033-7.724-0.131-15.45-0.127-23.173c0.002-7.125,0.754-14.169,0.722-21.317    c-0.033-7.6-0.475-15.178-0.492-22.786c-0.029-13.264,1.307-26.258,1.784-39.503c0.255-7.054-0.709-14.093-0.301-21.118    c0.232-3.998,0.085-7.959,0.203-11.962c0.083-2.851,0.452-5.502,0.259-8.257c0.89-0.1,1.776-0.211,2.642-0.271    c0.834-0.058,1.669-0.099,2.504-0.145c-0.366,2.703,0.022,5.779,0.203,7.875c0.648,7.551,0.789,15.421,0.775,23.005    c-0.032,17.61-1.159,35.031-1.149,52.636c0.003,4.403,0.268,8.813,0.18,13.212c-0.081,4.135-0.928,8.131-0.873,12.273    c0.113,8.463-0.02,17.106-0.439,25.566c-0.394,7.957-1.898,17.046-0.602,24.972c0.239,1.462,0.801,3.097,1.664,4.494    c-1.525,0.028-2.996,0.255-4.301,0.802C322.888,444.225,324.587,435.416,324.569,430.963z M473.92,452.296    c3.968,0.57,5.621,2.249,6.379,6.079c0.111,0.563,0.186,1.145,0.264,1.728c-13.832,2.583-28.752,1.064-42.762,1.225    c-15.931,0.184-31.94-0.302-47.931-0.105c-13.642,0.169-27.284-1.658-40.944-1.691c-3.348-0.008-6.806-0.329-10.148-0.55    c-1.737-0.114-3.367-0.527-5.108-0.59c-1.051-0.038-3.095,0.57-4.001,0.172c-2.037-0.894-2.114-4.676-0.026-6.234    c2.419-1.806,7.391-0.546,10.217-0.843c0.328-0.034,0.623-0.156,0.885-0.326c0.768,0.092,1.558,0.167,2.374,0.245    c6.828,0.656,13.746-0.323,20.571,0.177c10.716,0.785,21.288,0.166,31.962,0.064c5.969-0.058,11.9-0.464,17.852-0.598    c2.269-0.052,4.432,0.473,6.664,0.501c2.668,0.035,5.306-0.678,8-0.523c9.99,0.58,20.67,0.718,30.668-0.448    c1.888-0.221,4.465-0.11,6.934-0.318C468.451,451.083,471.098,451.891,473.92,452.296z M467.474,311.6    c-0.047,5.914-0.014,11.829-0.029,17.744c-0.014,5.653-0.71,11.306-0.651,16.937c0.045,4.397,0.619,8.735,0.605,13.188    c-0.016,4.758-0.374,9.591,0.096,14.326c0.429,4.331,0.734,8.855,0.861,13.382c-0.623-0.021-1.274-0.006-1.945-0.028    c-5.508-0.184-10.953-0.061-16.442,0.126c-8.022,0.274-16.119-0.926-24.109-0.178c-1.089-0.585-2.402-0.811-3.734-0.89    c0.903-0.438,1.88-0.868,2.486-1.34c1.466-1.138,2.698-2.565,4.042-3.84c2.752-2.612,5.346-5.218,6.889-8.762    c2.516-5.778,0.25-11.709-4.952-15.079c-2.184-1.414-3.905-1.5-2.888-4.839c0.353-1.157,1.332-2.183,1.773-3.338    c0.982-2.572,1.401-5.839,0.957-8.559c-0.487-2.979-1.79-4.858-3.59-7.108c-2.717-3.394-0.972-5.742,0.08-9.693    c1.508-5.667,2.616-12.051-1.959-16.64c-3.351-3.36-8.913-4.613-13.474-3.629c-3.122,0.673-4.144,1.477-7.487-0.234    c-1.144-0.585-2.095-1.345-3.305-1.805c-2.276-0.866-4.528-1.122-6.826-0.209c-5.472,2.172-6.727,7.109-6.069,12.545    c0.244,2.021,2.039,6.082,1.396,7.91c-0.659,1.874-2.832,2.104-4.346,2.812c-2.461,1.151-4.201,3.094-5.865,5.207    c-2.925,3.714-4.588,8.228-3.3,12.633c0.039,0.445,0.12,0.901,0.257,1.381c0.321,1.12,4.719,8.042,4.734,7.964    c-0.024,0.114-5.383,3.017-5.993,3.793c-1.3,1.654-1.974,3.638-1.461,5.743c0.639,2.622,2.821,4.416,4.689,6.148    c3.155,2.926,2.45,4.228,0.899,7.703c-1.572,3.524-0.972,8.177,1.808,10.985c-14.416,0.248-28.881,1.299-43.261,0.36    c0.051-1.396,0.113-2.793,0.217-4.188c0.564-7.613-0.111-15.428-0.123-23.063c-0.024-15.276,1.018-30.44,0.995-45.756    c-0.009-6.635-0.231-13.389-0.633-20.013c-0.175-2.884-0.442-5.805-0.697-8.676c-0.067-0.756-0.258-1.578-0.427-2.407    c8.671-0.277,17.399-0.088,26.067-0.098c10.684-0.012,21.32,0.524,32.036,0.497c10.152-0.026,20.096,0.742,30.181,1.161    c10.744,0.447,21.311,0.1,32.018-0.283c3.62-0.13,7.198-0.322,10.786-0.493c-0.901,3.506-0.566,7.37-0.683,10.953    C466.904,299.831,467.52,305.696,467.474,311.6z M467.921,432.671c0.066,2.739,0.244,5.485-0.166,8.205    c-0.412,2.728-0.223,2.538-2.911,2.802c-5.028,0.495-10.116,1.098-15.171,1.071c-6.568-0.035-13.132-0.083-19.693-0.101    c0.296-8.111,0.203-16.249,0.077-24.361c-0.04-2.575,0.109-5.358,0.156-8.166c0.149-1.853,0.234-3.72,0.228-5.656    c-0.006-2.296,0.271-5.004-0.183-7.408c1.007,0.052,2.016,0.093,3.024,0.104c11.581,0.114,23.396,0.696,34.908-0.379    c-0.045,0.656-0.083,1.315-0.141,1.961C467.103,411.188,467.669,422.181,467.921,432.671z M452.323,395.258    c-6.003,0.005-12.011-0.011-18.013-0.08c-2.024-0.024-4.043-0.147-6.061-0.297c0.249-1.471,0.335-3.072,0.005-4.496    c6.344,0.925,13.492,0.274,19.473,0.218c4.709-0.042,9.352-0.417,14.068-0.452c2.222-0.016,4.448,0.067,6.633-0.178    c0.017,1.874-0.004,3.742-0.071,5.589C463.074,395.114,457.597,395.254,452.323,395.258z M425.931,420.287    c-0.006,8.12-0.116,16.236-0.204,24.355c-11.106-0.008-22.213,0.09-33.345,0.502c-3.353,0.124-6.704,0.303-10.057,0.432    c0-0.025,0.006-0.047,0.005-0.072c-0.17-8.285-0.39-16.544-0.604-24.824c-0.196-7.605,0.153-15.278-0.653-22.852    c5.806-0.105,11.616,0.002,17.435,0.357c6.14,0.375,12.344-0.291,18.491-0.04c3.213,0.131,6.431,0.434,9.655,0.677    c-0.052,0.336-0.07,0.81-0.127,1.46c-0.041,0.459-0.071,0.918-0.096,1.378C424.925,407.506,425.936,414.447,425.931,420.287z     M387.864,352.467c-0.53-0.716-1.616-1.777-2.77-2.407c-0.848-1.883-2.617-3.638-3.479-5.305    c-0.157-0.304-0.284-0.619-0.423-0.929c0.14-0.54,0.097-1.148-0.251-1.773c-1.452-2.609-0.697-5.713,0.985-8.348    c0.474,2.64,2.599,5.102,4.647,6.605c1.721,1.263,4.482,3.134,6.723,2.305c0.421-0.156,0.334-0.717-0.103-0.761    c-1.655-0.162-3.272-2.899-4.374-3.993c-1.922-1.906-2.717-3.662-3.588-6.16c-0.146-0.419-0.465-0.734-0.842-0.945    c0.99-0.919,2.058-1.672,3.101-2.165c1.866-0.882,3.834-0.938,5.244-2.648c4.655-5.647-3.935-14.154,1.006-19.939    c2.99-3.5,6.001-1.129,9.076,0.591c-1.155,0.656-2.165,1.536-2.846,2.505c-3.091,4.397-1.354,8.502,2.141,11.959    c0.58,0.574,1.681,0.167,1.651-0.684c-0.112-3.25-3.084-5.912-0.859-9.136c1.037-1.503,3.092-2.48,4.865-3.388    c1.718-0.245,3.397-1.032,5.129-1.141c4.104-0.258,9.083,1.987,10.212,6.254c0.998,3.766-0.877,8.989-1.997,12.627    c-0.73,2.372-1.79,4.906-0.859,7.416c1.007,2.714,3.797,3.469,5.173,5.968c-0.925,0.068-1.879,0.324-2.652,0.573    c-2.091,0.673-4.433,2.577-4.505,4.942c-0.026,0.875,0.348,1.839,1.281,2.071c0.965,0.241,1.577-0.49,2.136-1.146    c0.763-0.895,1.481-1.703,2.618-2.123c0.425-0.157,0.878-0.236,1.314-0.355c0.054-0.014,0.397-0.11,0.712-0.208    c-0.044,3.234-1.979,6.096-3.173,9.138c-0.721,1.835-1.081,3.617-0.094,5.389c1.05,1.882,3.038,2.275,4.736,3.41    c5.48,3.661,4.315,9.711,0.525,14.172c-2.374,2.794-5.969,5.171-8.354,8.165c-0.211-1.775-0.006-3.317,1.678-5.402    c1.615-1.998,3.822-3.477,4.974-5.836c0.732-1.501,1.04-3.077,0.176-4.59c-0.395-0.691-1.235-1.564-1.967-1.913    c-0.213-0.101-1.819-0.328-1.841-0.362c-0.323-0.467-0.935-0.254-1.005,0.272c-0.127,0.969,0.225,0.555,0.584,1.42    c0.878,2.117,1.754,2.513-0.084,4.676c-0.728,0.857-1.499,1.645-2.257,2.44c-2.603-3.203-10.911-5.097-12.569,0.255    c-0.176,0.567,0.209,1.092,0.724,1.275c1.072,0.381,1.767-0.064,2.765-0.452c1.057-0.412,1.965-0.497,3.12-0.287    c1.166,0.212,2.834,0.712,3.92,1.553c-0.238,0.304-0.484,0.599-0.702,0.926c-1.764,2.631-2.301,6.717-0.257,9.034    c-3.206-0.209-6.389-0.532-9.613-0.519c-7.121,0.029-14.429-0.553-21.523,0.288c-0.009-0.114-0.005-0.223-0.033-0.343    c-0.665-2.829-3.532-4.923-2.833-7.887c0.364-1.545,1.589-3.026,1.961-4.65c0.484-2.106,0.498-3.732-0.597-5.701    c-1.1-1.98-3.646-2.995-4.663-4.846c-2.505-4.556,2.529-5.301,4.716-7.809c0.159,0.167,0.31,0.343,0.446,0.539    c0.487,0.704,1.131,1.516,1.508,2.28c0.474,0.964,0.375,2.024,0.997,2.943c0.418,0.618,1.172,0.566,1.599,0    C391.093,357.787,389.49,354.666,387.864,352.467z M424.306,390.826c0.918,1.089,0.901,2.527,1.203,3.847    c-2.492-0.212-4.982-0.446-7.474-0.604c-5.589-0.355-11.266,0.118-16.868,0.012c-6.087-0.114-12.134-0.264-18.188-0.304    c0.347-1.442,0.734-2.977,1.394-3.458c1.445-1.052,5.384-0.752,6.942-0.806c5.748-0.198,11.551,0.015,17.304,0.009    c2.761-0.002,5.435,0.477,8.18,0.587C418.587,390.182,423.115,389.413,424.306,390.826z M379.396,389.273    c-0.563,1.242-0.83,2.766-1.109,4.502c-3.291,0.016-6.586,0.072-9.895,0.204c-5.457,0.217-10.803,0.88-16.285,0.278    c-4.965-0.545-9.916,0.717-14.941-0.172c0.035-1.524,0.064-3.048,0.097-4.571c8.331,1.21,17.276,0.079,25.614,0.042    C368.408,389.531,373.926,389.637,379.396,389.273z M336.752,402.266c0.118-1.276,0.195-2.555,0.258-3.834    c4.323,0.583,8.479-0.021,12.835-0.008c4.797,0.014,9.618,0.688,14.475,0.276c4.413-0.375,8.824-0.638,13.234-0.783    c-0.83,7.515-0.672,15.239-0.635,22.761c0.04,7.903-0.315,16.303,0.484,24.173c-0.048,0.275-0.046,0.56,0.027,0.841    c0.001,0.005,0.002,0.009,0.003,0.015c-4.1,0.067-8.203-0.009-12.312-0.439c-5.711-0.597-11.628-0.005-17.368-0.112    c-2.757-0.052-6.874,0.158-10.155-0.33c-3.644-1.681-1.646-16.552-1.657-19.415C335.916,417.85,336.06,409.795,336.752,402.266z     M478.646,269.486c1.992,1.639,1.919,4.897,1.245,7.19c-0.736,2.504-0.773,1.295-3.493,1.113    c-2.227-0.149-4.597-0.001-6.828,0.092c-4.774,0.201-9.581,0.169-14.356,0.425c-19.884,1.067-39.482-1.251-59.383-1.23    c-21.23,0.024-42.715-1.764-63.944-0.63c-4.886,0.262-10.775,3.169-11.319-3.985c-0.133-1.757-0.4-4.699,1.315-5.516    c1.326-0.632,4.99-0.021,6.51-0.017c4.734,0.014,9.46,0.225,14.192,0.481c4.863,3.151,13.505,2.478,18.473,2.571    c10.576,0.198,20.949-0.014,31.541-0.02c21.819-0.012,43.518-1.746,65.339-2.18c1.931-0.038,4.243-0.06,6.396-0.486    c1.467,0.359,2.972,0.596,4.439,0.8C471.547,268.483,476.375,267.619,478.646,269.486z M472.615,157.523    c-1.361,3.193-5.415,3.019-9.011,2.793c0.454-2.805-0.06-5.98-0.091-8.696c-0.024-2.065,0.101-4.104-0.349-6.056    c3.664,0.164,7.301,0.27,10.994,0.237c0.1-0.001,0.201-0.005,0.301-0.006C473.925,149.677,474.134,153.959,472.615,157.523z     M504.98,139.229c-2.827,1.465-8.744,0.158-11.871,0.131c-7.934-0.068-15.844,0.459-23.806,0.38    c-33.597-0.334-67.403-0.414-101.033-0.468c-8.104-0.013-16.205,0.734-24.322,0.941c-9.053,0.23-18.151-0.169-27.196,0.301    c-15.322,0.796-30.601,0.147-45.938,0.381c-7.926-0.33-15.931,0.309-23.927,0.113c-0.452-0.011-0.903-0.011-1.355-0.018    c-16.801-0.462-33.522,0.395-50.295-0.477c-9.044-0.469-18.142-0.071-27.196-0.301c-8.117-0.206-16.218-0.954-24.322-0.941    c-33.63,0.054-67.436,0.136-101.033,0.468c-7.962,0.079-15.872-0.448-23.806-0.38c-3.127,0.027-9.043,1.334-11.871-0.131    c-1.845-0.955-1.324-0.991-1.312-3.449c0.013-2.419,0.071-4.612,0.616-6.966c0.944-4.078,2.963-4.721,6.73-5.255    c3.865-0.548,7.913-1.319,11.813-1.446c8.071-0.263,15.927-1.617,24.066-1.676c16.148-0.117,32.221-0.771,48.389-0.882    c8.125-0.055,16.212,0.249,24.331,0.407c7.514,0.146,14.915-0.593,22.441-0.596c19.584-0.004,39.114-0.767,58.745-0.711    c2.851,0.008,5.689,0.098,8.525,0.215c5.359,1.488,12.208,1.241,17.2,1.642c8.41,0.677,16.827,0.67,25.271,0.723    c4.515,0.028,9.044-0.264,13.564-0.585c5.14,0.072,10.189-0.526,15.529-0.816c8.752-0.475,17.453-1.153,26.243-1.179    c19.632-0.055,39.162,0.708,58.746,0.711c7.526,0.001,14.927,0.742,22.441,0.596c8.12-0.158,16.206-0.462,24.331-0.407    c16.167,0.11,32.24,0.765,48.389,0.882c8.138,0.059,15.995,1.413,24.066,1.676c3.9,0.127,7.947,0.898,11.813,1.446    c3.767,0.534,5.786,1.177,6.731,5.255c0.545,2.354,0.602,4.545,0.616,6.966C506.306,138.237,506.824,138.273,504.98,139.229z"/>
	</g>
</g>
<g>
	<g>
		<path d="M406.829,314.749c-0.866,0.13-0.767,1.454,0,1.652c1.678,0.435,3.452,2.919,4.136,4.427    c1.154,2.546-0.124,2.577-2.474,2.839c-2.798,0.311-5.093-0.887-7.365,1.464c-1.398,1.446-2.161,3.953-1.136,5.767    c0.3,0.534,1.02,0.468,1.335,0.001c0.421-0.624,1.794-1.944,2.479-2.294c1.107-0.566,0.472-0.203,1.524-0.182    c2.059,0.042,3.738,0.019,5.768-0.505c2.382-0.613,4.213-2.059,4.298-4.693C415.537,318.717,411.437,314.059,406.829,314.749z"/>
	</g>
</g>
<g>
	<g>
		<path d="M414.801,353.772c-1.02-1.5-2.162-2.745-3.37-3.894c0.316-1.306,2.315-6.71,2.497-7.368c0.5-1.817,1.26-3.929,0.461-5.768    c-0.866-1.994-3.819-6.254-6.271-4.104c-0.264,0.232-0.259,0.631-0.119,0.921c0.589,1.214,1.582,2.223,2.216,3.436    c0.984,1.876,0.61,3.072,0.068,5.101c-0.499,1.865-1.215,3.687-1.402,5.514c-0.993-0.847-2.006-1.711-3.017-2.641    c2.513-2.085,0.994-7.004-1.104-8.963c-0.315-0.294-0.923-0.104-0.896,0.371c0.041,0.731-0.151,1.393-0.195,2.116    c-0.042,0.714,0.162,1.375,0.188,2.079c0.027,0.711-0.131,1.389-0.261,2.064c-2.808-3.275-4.334-6.826-5.634-11.198    c-0.158-0.534-0.828-0.461-1.012,0c-5.018,12.489,12.647,18.407,16.696,27.757c2.807,6.481-1.876,4.389-4.069,1.977    c-1.74-1.913-2.635-4.304-4.337-6.248c-3.383-3.866-7.807-6.785-12.815-7.907c-0.771-0.172-1.715,0.534-1.394,1.394    c1.162,3.116,4.122,3.893,6.693,5.777c0.629,0.461,1.189,0.951,1.726,1.453c-1.669,0.982-2.976,2.28-4.291,4.154    c-1.939,2.762-4.764,5.023-5.277,8.54c-0.499,3.412,1.371,9.718,5.441,10.221c0.416,0.052,0.755-0.54,0.501-0.874    c-0.785-1.032-1.067-3.153-1.485-4.416c-1.064-3.227-0.515-5.93,1.56-8.503c1.86-2.305,3.814-4.555,5.672-6.862    c0.756,0.903,1.467,1.838,2.195,2.78c-3.342,1.921-5.557,5.645-6.5,9.39c-0.978,3.89,0.941,11.118,6.056,10.549    c0.334-0.037,0.704-0.426,0.441-0.769c-2.315-3.031-3.491-8.065-1.829-11.515c0.938-1.945,2.301-3.674,3.636-5.408    c0.047,0.057,0.091,0.113,0.139,0.169c2.197,2.559,6.361,6.516,9.99,3.892C420.069,363.829,417.053,357.081,414.801,353.772z"/>
	</g>
</g>
<g>
	<g>
		<path d="M403.857,321.918c-0.076,0-0.076,0.118,0,0.118C403.932,322.036,403.932,321.918,403.857,321.918z"/>
	</g>
</g>
<g>
	<g>
		<path d="M454.675,214.965c-0.327-6.461-0.847-12.764-1.659-19.201c-0.425-3.362-1.353-6.613-4.739-8.093    c-2.272-0.993-4.859-0.718-7.245-0.664c-3.306,0.076-6.618-0.113-9.931-0.119c-6.904-0.013-13.808,0.124-20.714,0.142    c-1.36,0.004-2.724,0.035-4.089,0.081c-2.92-0.166-5.837-0.331-8.742-0.525c-6.429-0.427-12.674,0.048-19.104-0.098    c-3.518-0.08-7.029-0.026-10.519,0.468c-3.17,0.449-7.109,0.4-10.029,1.562c-3.847,1.53-3.782,5.206-4.015,8.79    c-0.42,6.493-0.39,13.029-0.991,19.506c-0.48,5.179-0.85,11.382,0.374,16.468c0.929,3.863,1.93,9.568,5.667,11.776    c3.719,2.196,10.507,1.985,14.701,2.085c14.726,0.354,29.442,0.528,44.208,0.601c6.89,0.034,13.639-1.018,20.495-1.013    c4.279,0.004,9.585,0.552,13.291-1.979c3.589-2.452,4.468-5.589,4.465-9.841C456.096,228.308,455.009,221.575,454.675,214.965z     M450.934,234.912c-0.344,6.29-5.129,6.6-10.685,6.629c-10.48,0.057-20.896,1.08-31.424,1.086    c-6.32,0.004-12.635,0.098-18.953,0.156c-5.146,0.047-10.214-0.778-15.337-0.73c-5.779,0.054-13.455-0.075-15.299-6.475    c-1.383-4.793-1.513-9.035-1.42-13.982c0.105-5.588,0.342-11.215,0.499-16.823c0.078-2.798-0.385-10.358,2.668-11.781    c2.047-0.954,5.728-0.849,7.969-1.145c2.836-0.374,5.642-0.43,8.501-0.4c0.907,0.009,1.792,0,2.675-0.012    c7.499,0.807,15.441,0.703,22.569,0.219c6.456-0.438,12.83-0.315,19.314-0.239c5.903,0.068,12.107,0.896,17.936,0.498    c4.613-0.316,8.038,0.259,8.691,5.537c0.297,2.4,0.758,4.792,1.006,7.2c0.478,4.673,0.559,9.314,0.78,14.011    C450.668,223.89,451.218,229.731,450.934,234.912z"/>
	</g>
</g>
<g>
	<g>
		<path d="M445.827,219.632c-0.326-5.953,0.329-16.566-5.417-20.604c-2.347-1.65-5.619-1.427-8.406-1.552    c-4.301-0.192-8.699-0.638-12.975-0.594c-3.345,0.034-6.687,0.147-10.031,0.281c-9.979-1.04-19.971-1.028-30.004-0.376    c-6.264,0.407-15.723,0.856-16.539,8.709c-0.532,5.114-0.269,10.933,0.243,16.053c0.364,3.65,0.192,7.887,1.866,11.265    c3.024,6.103,12.452,4.646,17.958,5.172c10.327,0.987,20.917,0.311,31.252-0.165c5.225-0.242,10.518-0.584,15.75-0.455    c3.992,0.099,8.446,0.711,12.276-0.738C448.423,234.118,446.126,225.106,445.827,219.632z M439.712,231.283    c-4.267,2.957-9.961,1.372-15.026,1.571c-4.545,0.179-9.153,0.288-13.681,0.673c-9.74,0.83-19.756,0.603-29.498,0.091    c-4.284-0.225-11.141,1.125-13.878-3.23c-1.941-3.09-1.306-10.08-1.32-13.673c-0.025-6.329-1.662-13.287,6.37-14.886    c3.755-0.748,7.515-1.308,11.371-1.571c6.048-0.413,12.14-0.138,18.217-0.085c5.01,0.257,10.021,0.488,15.05,0.485    c3.951-0.002,7.816,0.531,11.791,0.537c4.871,0.007,9.112-0.643,11.098,4.423c1.574,4.015,1.391,8.729,1.635,13.029    c0.131,2.315-0.08,4.632,0.026,6.948C442.02,228.905,442.837,229.116,439.712,231.283z"/>
	</g>
</g>
<g>
	<g>
		<path d="M333.295,212.928c-1.405-12.19,0.676-24.676-0.744-36.777c-0.268-2.282-0.309-4.507-2.638-5.362    c-1.341-0.493-3.17,0.035-4.544,0.019c-3.103-0.038-6.134-0.912-9.234-1.071c-5.634-0.289-11.254-0.966-16.909-1.073    c-3.818-0.072-7.444-0.826-11.211-1.049c-1.496-0.088-2.714-0.107-4.116,0.51c-2.985,1.313-4.168,3.936-3.142,6.151    c0.359,0.777,0.991,1.505,1.913,2.108c3.988,2.607,8.401,3.486,12.736,5.307c5.05,2.121,9.918,4.69,14.469,7.74    c4.367,2.927,8.374,6.318,12,10.144c2.891,3.05,6.934,9.008,7.505,13.353C329.701,215.38,333.584,215.442,333.295,212.928z     M329.066,188.171c0,4.749-0.184,9.502-0.177,14.246c-4.077-5.816-10.18-10.908-15.096-14.383    c-7.58-5.359-17.63-11.34-27.361-12.444c-0.506-0.413-0.94-0.823-1.069-1.181c-1.284-3.562,5.037-2.231,6.772-2.004    c3.762,0.494,7.672,0.317,11.458,0.51c7.177,0.366,14.609,1.629,21.773,1.577c2.852-0.021,2.263-0.651,3.432,1.367    C330.421,178.664,329.066,185.112,329.066,188.171z"/>
	</g>
</g>
<g>
	<g>
		<path d="M62.975,91.103c-2.102-0.789-4.998-0.354-6.532,1.357c-0.65,0.725-1.346,1.702-1.786,2.582    c-0.328,0.655-0.377,1.116-0.29,1.584c-0.484,1.391-0.553,2.872,0.029,4.347c1.862,4.719,7.073,6.086,10.67,2.188    C68.023,99.958,67.45,92.783,62.975,91.103z M63.122,101.079c-1.928,1.687-4.623,2.04-5.917-0.607    c-1.156-2.371,0.18-4.902,2.04-6.537c0.493-0.242,0.994-0.4,1.48-0.417C64.169,93.389,65.545,98.96,63.122,101.079z"/>
	</g>
</g>
<g>
	<g>
		<path d="M89.518,91.103c-2.102-0.789-4.998-0.354-6.532,1.357c-0.65,0.725-1.346,1.702-1.786,2.582    c-0.328,0.655-0.377,1.116-0.29,1.584c-0.482,1.391-0.553,2.872,0.029,4.347c1.862,4.719,7.073,6.086,10.67,2.188    C94.566,99.958,93.992,92.783,89.518,91.103z M89.665,101.079c-1.928,1.687-4.623,2.04-5.917-0.607    c-1.157-2.371,0.179-4.902,2.04-6.537c0.493-0.242,0.994-0.4,1.48-0.417C90.713,93.389,92.089,98.96,89.665,101.079z"/>
	</g>
</g>
<g>
	<g>
		<path d="M119.599,91.103c-2.103-0.789-4.998-0.354-6.532,1.357c-0.65,0.725-1.346,1.702-1.786,2.582    c-0.328,0.655-0.377,1.116-0.29,1.584c-0.482,1.391-0.553,2.872,0.029,4.347c1.862,4.719,7.073,6.086,10.67,2.188    C124.646,99.958,124.073,92.783,119.599,91.103z M119.747,101.079c-1.928,1.687-4.623,2.04-5.917-0.607    c-1.158-2.371,0.178-4.902,2.039-6.537c0.493-0.242,0.994-0.4,1.48-0.417C120.793,93.389,122.17,98.96,119.747,101.079z"/>
	</g>
</g>
<g>
	<g>
		<path d="M363.912,91.103c-2.103-0.789-4.998-0.354-6.531,1.357c-0.65,0.725-1.346,1.702-1.786,2.582    c-0.328,0.655-0.377,1.116-0.29,1.584c-0.484,1.391-0.553,2.872,0.029,4.347c1.862,4.719,7.073,6.086,10.67,2.188    C368.96,99.958,368.387,92.783,363.912,91.103z M364.059,101.079c-1.928,1.687-4.623,2.04-5.917-0.607    c-1.156-2.371,0.179-4.902,2.04-6.537c0.493-0.242,0.994-0.4,1.48-0.417C365.106,93.389,366.482,98.96,364.059,101.079z"/>
	</g>
</g>
<g>
	<g>
		<path d="M394.4,91.103c-2.102-0.789-4.998-0.354-6.532,1.357c-0.65,0.725-1.347,1.702-1.786,2.582    c-0.328,0.655-0.377,1.116-0.29,1.584c-0.482,1.391-0.553,2.872,0.029,4.347c1.862,4.719,7.073,6.086,10.67,2.188    C399.448,99.958,398.875,92.783,394.4,91.103z M394.547,101.079c-1.928,1.687-4.623,2.04-5.917-0.607    c-1.157-2.371,0.179-4.902,2.04-6.537c0.493-0.242,0.994-0.4,1.48-0.417C395.595,93.389,396.971,98.96,394.547,101.079z"/>
	</g>
</g>
<g>
	<g>
		<path d="M149.679,91.103c-2.103-0.789-4.998-0.354-6.532,1.357c-0.65,0.725-1.346,1.702-1.786,2.582    c-0.328,0.655-0.377,1.116-0.29,1.584c-0.482,1.391-0.552,2.872,0.029,4.347c1.863,4.719,7.073,6.086,10.67,2.188    C154.727,99.958,154.154,92.783,149.679,91.103z M149.828,101.079c-1.928,1.687-4.623,2.04-5.917-0.607    c-1.158-2.371,0.178-4.902,2.039-6.537c0.493-0.242,0.994-0.4,1.48-0.417C150.874,93.389,152.25,98.96,149.828,101.079z"/>
	</g>
</g>
<g>
	<g>
		<path d="M182.12,91.103c-2.102-0.789-4.998-0.354-6.532,1.357c-0.65,0.725-1.347,1.702-1.786,2.582    c-0.328,0.655-0.377,1.116-0.29,1.584c-0.484,1.391-0.554,2.872,0.03,4.347c1.862,4.719,7.073,6.086,10.67,2.188    C187.168,99.958,186.595,92.783,182.12,91.103z M182.266,101.079c-1.928,1.687-4.623,2.04-5.917-0.607    c-1.157-2.371,0.179-4.902,2.04-6.537c0.492-0.242,0.994-0.4,1.48-0.417C183.314,93.389,184.69,98.96,182.266,101.079z"/>
	</g>
</g>
<g>
	<g>
		<path d="M332.78,91.103c-2.103-0.789-4.998-0.354-6.532,1.357c-0.65,0.725-1.346,1.702-1.786,2.582    c-0.328,0.655-0.377,1.116-0.29,1.584c-0.482,1.391-0.553,2.872,0.029,4.347c1.862,4.719,7.073,6.086,10.67,2.188    C337.828,99.958,337.254,92.783,332.78,91.103z M332.928,101.079c-1.928,1.687-4.623,2.04-5.917-0.607    c-1.158-2.371,0.178-4.902,2.039-6.537c0.493-0.242,0.994-0.4,1.48-0.417C333.974,93.389,335.351,98.96,332.928,101.079z"/>
	</g>
</g>
<g>
	<g>
		<path d="M212.796,91.103c-2.102-0.789-4.998-0.354-6.532,1.357c-0.65,0.725-1.346,1.702-1.786,2.582    c-0.328,0.655-0.377,1.116-0.29,1.584c-0.484,1.391-0.553,2.872,0.029,4.347c1.862,4.719,7.073,6.086,10.67,2.188    C217.844,99.958,217.271,92.783,212.796,91.103z M212.943,101.079c-1.928,1.687-4.623,2.04-5.917-0.607    c-1.157-2.371,0.179-4.902,2.04-6.537c0.493-0.242,0.994-0.4,1.48-0.417C213.99,93.389,215.366,98.96,212.943,101.079z"/>
	</g>
</g>
<g>
	<g>
		<path d="M244.056,91.103c-2.102-0.789-4.998-0.354-6.532,1.357c-0.65,0.725-1.346,1.702-1.786,2.582    c-0.328,0.655-0.377,1.116-0.29,1.584c-0.484,1.391-0.553,2.872,0.029,4.347c1.862,4.719,7.073,6.086,10.67,2.188    C249.104,99.958,248.53,92.783,244.056,91.103z M244.203,101.079c-1.928,1.687-4.623,2.04-5.917-0.607    c-1.156-2.371,0.179-4.902,2.04-6.537c0.493-0.242,0.994-0.4,1.48-0.417C245.25,93.389,246.626,98.96,244.203,101.079z"/>
	</g>
</g>
<g>
	<g>
		<path d="M271.778,91.103c-2.102-0.789-4.998-0.354-6.532,1.357c-0.65,0.725-1.346,1.702-1.786,2.582    c-0.328,0.655-0.377,1.116-0.29,1.584c-0.484,1.391-0.553,2.872,0.029,4.347c1.862,4.719,7.073,6.086,10.67,2.188    C276.826,99.958,276.253,92.783,271.778,91.103z M271.926,101.079c-1.928,1.687-4.623,2.04-5.917-0.607    c-1.157-2.371,0.179-4.902,2.039-6.537c0.493-0.242,0.994-0.4,1.48-0.417C272.972,93.389,274.348,98.96,271.926,101.079z"/>
	</g>
</g>
<g>
	<g>
		<path d="M301.859,91.103c-2.103-0.789-4.998-0.354-6.532,1.357c-0.65,0.725-1.346,1.702-1.786,2.582    c-0.328,0.655-0.377,1.116-0.29,1.584c-0.484,1.391-0.553,2.872,0.029,4.347c1.862,4.719,7.073,6.086,10.67,2.188    C306.907,99.958,306.334,92.783,301.859,91.103z M302.005,101.079c-1.928,1.687-4.623,2.04-5.917-0.607    c-1.156-2.371,0.18-4.902,2.04-6.537c0.493-0.242,0.994-0.4,1.48-0.417C303.053,93.389,304.429,98.96,302.005,101.079z"/>
	</g>
</g>
<g>
	<g>
		<path d="M422.806,91.103c-2.103-0.789-4.998-0.354-6.531,1.357c-0.65,0.725-1.347,1.702-1.787,2.582    c-0.327,0.655-0.377,1.116-0.29,1.584c-0.482,1.391-0.552,2.872,0.031,4.347c1.862,4.719,7.073,6.086,10.67,2.188    C427.854,99.958,427.281,92.783,422.806,91.103z M422.952,101.079c-1.928,1.687-4.623,2.04-5.917-0.607    c-1.157-2.371,0.179-4.902,2.04-6.537c0.493-0.242,0.994-0.4,1.48-0.417C424,93.389,425.376,98.96,422.952,101.079z"/>
	</g>
</g>
<g>
	<g>
		<path d="M452.177,91.103c-2.102-0.789-4.998-0.354-6.532,1.357c-0.65,0.725-1.347,1.702-1.786,2.582    c-0.328,0.655-0.377,1.116-0.29,1.584c-0.482,1.391-0.553,2.872,0.029,4.347c1.862,4.719,7.073,6.086,10.67,2.188    C457.225,99.958,456.651,92.783,452.177,91.103z M452.323,101.079c-1.928,1.687-4.623,2.04-5.917-0.607    c-1.156-2.371,0.18-4.902,2.04-6.537c0.492-0.242,0.994-0.4,1.48-0.417C453.37,93.389,454.747,98.96,452.323,101.079z"/>
	</g>
</g>
<g>
</g>
<g>
</g>
<g>
</g>
<g>
</g>
<g>
</g>
<g>
</g>
<g>
</g>
<g>
</g>
<g>
</g>
<g>
</g>
<g>
</g>
<g>
</g>
<g>
</g>
<g>
</g>
<g>
</g>
</svg>
