<?xml version="1.0" encoding="iso-8859-1"?>
<!-- Generator: Adobe Illustrator 19.0.0, SVG Export Plug-In . SVG Version: 6.00 Build 0)  -->
<svg xmlns="http://www.w3.org/2000/svg" xmlns:xlink="http://www.w3.org/1999/xlink" version="1.1" id="Layer_1" x="0px" y="0px" viewBox="0 0 511.996 511.996" style="enable-background:new 0 0 511.996 511.996;" xml:space="preserve">
<g>
	<g>
		<path d="M161.19,260.861c0.033-5.66-1.274-11.209-1.899-16.83c-0.412-3.713-0.809-8.741-3.631-11.479    c-6.678-6.476-11.618,3.52-12.091,9.14c-0.488,5.816,0.403,11.918,0.934,17.705c0.249,2.717,0.56,5.43,0.846,8.144    c0.14,1.335,0.287,2.697,0.843,3.919c0.102,0.225,0.227,0.455,0.438,0.587c0.185,0.116,0.41,0.141,0.627,0.161    c2.367,0.213,4.659-0.238,7.002-0.164c1.889,0.06,2.999,0.409,4.63-0.933C161.992,268.56,161.169,264.39,161.19,260.861z     M157.705,265.923c-1.558,4.178-5.637,2.758-8.894,2.3c0.479-4.303-0.926-9.916-1.282-13.665    c-0.315-3.315-0.832-6.677-0.877-10.011c-0.034-2.559,2.751-17.267,7.876-7.567c1.506,2.849,1.378,7.051,1.618,10.221    c0.256,3.407,1.066,6.482,1.466,9.841C157.824,258.829,158.398,264.065,157.705,265.923z"/>
	</g>
</g>
<g>
	<g>
		<path d="M176.093,461.655c-0.396-2.452-0.488-4.89-3.449-5.353c-2.293-0.36-4.773,0.232-7.071,0.46    c-1.741,0.172-3.561,0.592-4.821,1.805c-0.324,0.313-0.608,0.678-0.758,1.103c-0.484,1.355,0.01,3.067-0.196,4.5    c-0.188,1.311-0.348,2.535-0.365,3.873c-0.029,2.345-0.295,5.733,1.595,7.507c0.764,0.723,1.651,0.807,2.652,0.856    c1.992,0.098,4.206,0.17,6.207,0.001c2.532-0.213,5.329-0.946,5.9-3.727C176.548,468.96,176.694,465.381,176.093,461.655z     M173.028,469.592c-0.14,1.598,0.268,2.221-1.298,2.948c-1.149,0.534-3.206,0.233-4.392,0.171    c-0.884-0.046-2.381-0.417-3.245-0.123c-0.151-0.022-0.269-0.033-0.373-0.039c-0.053-0.308-0.113-0.616-0.141-0.927    c-0.288-2.197-2.275-8.849-0.038-10.476c0.407-0.295,0.915-0.408,1.412-0.483c1.27-0.192,2.555-0.154,3.801-0.332    c0.864-0.124,2.093-0.583,2.953-0.26c0.965,0.362,0.779,1.062,0.931,1.883C173.127,464.636,173.266,466.871,173.028,469.592z"/>
	</g>
</g>
<g>
	<g>
		<path d="M241.811,250.97c-0.471-5.792-0.642-11.957-2.123-17.602c-1.43-5.455-8.016-14.453-13.481-6.926    c-2.309,3.183-1.836,8.205-1.604,11.933c0.35,5.645,0.016,11.336,1.021,16.906c0.646,3.578,0.475,7.699,4.023,9.698    c1.743,0.982,3.442,0.864,5.329,0.554c1.742-0.286,3.577-0.255,5.296-0.849c0.826-0.286,1.695-0.751,1.973-1.58    c0.103-0.307,0.114-0.635,0.122-0.958C242.466,258.335,242.119,254.749,241.811,250.97z M229.93,259.67    c-1.003-1.712-1.336-6.968-1.434-8.765c-0.183-3.378,0.086-6.547-0.247-9.947c-0.309-3.163-1.157-7.281-0.164-10.346    c3.381-10.436,8.654,3.576,9.06,6.101c0.529,3.292,0.597,6.693,0.857,10.012c0.293,3.755-0.126,9.525,1.086,13.682    C235.956,261.417,232.182,263.517,229.93,259.67z"/>
	</g>
</g>
<g>
	<g>
		<path d="M268.821,385.882c-0.754-10.334-2.561-19.973-4.365-30.098c-1.703-9.562-2.339-19.399-3.192-29.089    c-0.306-3.473-0.49-6.787-1.217-10.175c-0.818-3.811-0.93-8.957-2.886-12.365c-3.093-5.385-12.185-2.945-17.354-3.002    c-5.416-0.061-10.902,0.193-16.343,0.754c-1.81,0.095-3.579,0.356-5.353,0.662c-1.555,0.219-3.104,0.456-4.642,0.727    c-0.094,0.016-0.168,0.054-0.244,0.089c-5.737,0.802-11.631,1.004-17.402,1.575c-5.879,0.581-11.819,0.728-17.715,1.146    c-7.698,0.171-15.475,0.981-23.004,2.382c-5.082,0.946-14.458,0.105-16.579,5.94c-1.343,3.694-0.568,8.783-0.718,12.676    c-0.134,3.463,0.254,6.759,0.55,10.233c0.825,9.691,1.889,19.492,1.854,29.204c-0.037,10.284-0.161,20.091,0.873,30.4    c0.828,8.27,0.832,16.681,2.505,24.77c0.552,2.666,0.395,4.044,3.149,5.273c3.194,1.427,7.482,0.645,10.765,0.299    c8.729-0.918,17.733-0.808,26.475-1.908c0.423-0.007,0.839-0.008,1.24,0.007c5.14,0.194,10.546-1.324,15.721-1.731    c5.592-0.441,11.115-0.306,16.713-0.824c3.663-0.339,7.801-0.651,11.608-1.492c9.521-0.209,19.116-2.096,28.6-2.74    c3.292-0.224,7.652-0.19,10.554-2.142c2.501-1.683,2.111-3.015,2.196-5.736C270.87,402.457,269.427,394.171,268.821,385.882z     M264.149,413.392c-4.388,1.301-9.506,0.827-14.015,1.298c-6.272,0.655-12.895,1.248-19.136,2.747    c-3.715-0.238-7.282,0.634-11.012,1.241c-5.472,0.89-10.892,0.488-16.369,0.853c-4.996,0.332-9.832,0.98-14.753,1.773    c-1.148,0.185-2.314,0.28-3.486,0.342c-6.9-0.624-14.114-0.006-20.933,0.464c-4.522,0.311-9.484,1.657-14.029,1.131    c-2.978-0.346-3.218-3.658-3.628-6.56c-1.126-7.963-1.274-16.2-2.122-24.217c-0.866-8.19-0.931-16.085-0.54-24.274    c0.371-7.775-0.562-15.877-1.245-23.633c-0.668-7.593-1.331-14.893-1.038-22.494c0.255-6.609,0.659-7.649,7.11-8.692    c2.803-0.454,5.586-1.001,8.374-1.527c4.205-0.794,8.369-0.926,12.572-1.582c1.182-0.185,2.357-0.429,3.53-0.689    c1.26-0.055,2.561-0.111,3.974-0.039c5.584,0.288,11.102-0.298,16.692-0.712c9.568-0.711,19.585-0.623,28.801-3.412    c0.881,0.03,1.763,0.051,2.643,0.036c4.252-0.076,8.376-0.661,12.656-0.602c2.837,0.039,5.672,0.1,8.511,0.065    c6.533-0.08,7.11,0.873,8.498,7.341c1.596,7.438,2.197,14.742,2.844,22.338c0.661,7.758,1.134,15.9,2.836,23.496    c1.791,7.999,3.086,15.789,3.64,24.005c0.542,8.043,1.812,16.182,2.072,24.22C266.689,409.237,267.022,412.542,264.149,413.392z"/>
	</g>
</g>
<g>
	<g>
		<path d="M390.607,478.333c-0.622-7.101-1.673-14.081-3.054-21.075c-2.629-13.308-2.531-27.404-6.418-40.428    c1.785-0.969,3.072-2.251,3.368-3.97c0.957-5.569-7.843-8.8-11.533-10.935c-8.569-4.957-15.936-12.011-21.973-19.795    c-5.414-6.981-10.381-14.279-14.263-22.256c-1.845-3.79-3.542-7.66-5.431-11.424c-1.492-2.974-2.887-6.573-5.991-8.229    c-3.744-1.997-8.361-0.583-12.296-0.067c-3.866,0.507-7.76,0.901-11.609,1.517c-4.124,0.659-8.345,0.425-12.514,0.988    c-3.605,0.487-7.483,1.163-11.199,1.496c-1.741-10.457-2.443-21.307-3.61-31.841c-0.457-4.13-0.31-11.271-2.146-16.604    c0.869-2.206,0.126-3.994-0.164-6.408c-0.603-5.011-0.165-9.87-0.545-14.856c-0.579-7.604-6.434-6.094-12.403-6.118    c-1.717-0.007-3.439,0.047-5.166,0.123c-0.537-6.656-0.824-13.306-1.314-19.947c-1.256-17.001-3.304-33.84-7.534-50.359    c-0.241-0.942-0.531-1.743-0.866-2.44c0.049-0.383,0.091-0.768,0.113-1.164c0.144-2.633,0.34-5.679,0.029-8.309    c-0.277-2.328-0.989-4.758-1.385-7.073c-0.261-1.529-0.425-2.93-1.615-4.051c-1.818-1.712-4.553-1.304-6.974-0.869    c-0.35-5.626-0.75-11.247-1.262-16.887c-0.796-8.787-1.363-17.672-2.425-26.426c-0.375-3.084-1.101-6.101-1.529-9.172    c-0.224-1.603-0.659-3.062-1.591-4.26c0.219-0.316,0.355-0.696,0.349-1.111c-0.059-3.819-0.208-8.537-1.293-12.243    c-0.747-2.552-1.884-4.077-4.631-4.397c-2.593-0.302-5.431,0.755-8.028,1.005c-1.898,0.183-3.815,0.275-5.716,0.461    c-0.202-1.476-0.369-2.954-0.411-4.432c-0.079-2.777-0.314-5.423-0.823-8.142c-0.423-2.254-0.233-5.122-1.121-7.311    c1.555-0.358,2.911-1.001,3.438-1.826c1.73-2.712-0.547-4.907-2.466-6.631c-4.319-3.878-9.528-8.031-12.065-13.338    c-4.196-8.777-6.501-18.336-8.889-27.796c-1.233-4.882-3.232-9.563-4.704-14.375c-0.568-1.857-1.225-4.196-2.363-6.031    c-0.568-1.442-1.091-2.744-1.378-3.74c-1.059-3.694-2.994-10.145-8.201-6.516c-3.897,2.717-4.434,9.307-4.795,13.503    c-0.241,2.806-0.61,5.88-0.599,8.902c-0.571,3.422-1.201,6.841-1.459,10.29c-0.727,9.729-1.356,19.543-3.98,28.91    c-1.587,5.664-6.006,10.652-9.594,15.215c-1.595,2.027-3.461,4.582-1.289,6.955c0.661,0.722,2.107,1.122,3.7,1.208    c-0.497,2.309,0.182,5.101,0.153,7.395c-0.036,2.766,0.19,5.412,0.588,8.161c0.315,2.169,0.362,4.383,0.419,6.595    c-4.774,0.385-10.661,0.039-15.182,1.603c-2.266,0.784-2.498,1.698-2.598,3.989c-0.14,3.201,0.484,7.797,2.042,10.735    c-1.188,1.542-1.459,3.369-1.391,5.348c0.106,3.1-0.091,6.198,0.07,9.299c0.457,8.807,1.427,17.656,2.152,26.45    c0.466,5.645,1.037,11.251,1.659,16.853c-2.46-0.013-5.224,0.055-6.72,2.054c-0.98,1.31-0.901,2.717-0.895,4.27    c0.008,2.35-0.276,4.866-0.148,7.206c0.145,2.645,0.862,5.61,1.456,8.181c0.09,0.387,0.196,0.759,0.311,1.127    c-0.21,0.745-0.357,1.584-0.433,2.553c-1.326,17-0.45,33.941,1.234,50.905c0.657,6.626,1.519,13.228,2.134,19.876    c-1.713,0.222-3.42,0.465-5.109,0.766c-5.877,1.049-11.904,0.569-11.168,8.159c0.484,4.977,1.75,9.689,2.016,14.729    c0.129,2.429-0.295,4.318,0.94,6.341c-0.892,5.568,0.48,12.578,0.74,16.725c0.716,11.476,2.053,23.229,1.927,34.687    c-0.048,4.42,0.565,8.799,0.504,13.231c-0.08,5.868,0.833,11.957,1.497,17.784c2.666,23.383,5.053,46.779,4.538,70.315    c-0.234,10.715,0.26,21.752,1.159,32.447c0.396,4.719,0.805,9.438,1.186,14.159c0.114-0.002,0.226-0.005,0.34-0.008    c0.051,0.09,0.099,0.179,0.16,0.265c1.314,1.841,4.672,2.043,6.716,2.12c1.424,0.054,2.717,0.048,3.974-0.084    c6.37,0.623,12.874,0.932,19.221,0.93c15.626-0.007,31.37-0.042,46.981,0.404c17.421,0.5,34.794,0.473,52.224,0.072    c17.811-0.41,36.151,0.947,53.844-1.41c9.586-1.278,19.18-1.167,28.804-1.771c2.424-0.152,4.833-0.442,7.236-0.779    c5.417-0.123,10.871-0.136,16.207-0.044c6.432,0.11,22.792,2.109,21.997-6.978c0.237-0.594,0.411-1.275,0.511-2.066    C393.144,491.824,391.2,485.092,390.607,478.333z M373.323,410.118c0.975,0.595,1.937,1.237,2.928,1.814l-0.897,0.286    c-4.521,0.447-8.862,1.751-13.514,1.913c-9.025,0.314-18.019,1.157-27.023,1.865c-9.271,0.728-18.405,2.003-27.652,2.933    c-7.349,0.739-14.817,1.371-22.092,2.657c-0.322-2.723-0.61-5.45-0.884-8.178c1.456-0.031,2.929-0.316,4.51-0.469    c4.939-0.476,9.889-0.874,14.831-1.305c7.096-0.618,14.231-1.12,21.306-1.936c7.351-0.848,14.685-1.924,22.042-2.739    c3.986-0.441,7.971-0.878,11.943-1.459c2.031-0.296,4.137-0.415,6.196-0.697C367.704,406.65,370.482,408.383,373.323,410.118z     M294.206,348.469c6.454-0.284,12.82-0.811,19.242-1.729c1.504-0.215,3.514-0.828,5.027-0.734c2.98,0.186,4.44,1.458,6,3.659    c2.423,3.419,3.97,8.024,5.729,11.853c2.968,6.455,6.539,12.62,10.806,18.283c4.564,6.058,8.906,11.729,14.295,17.101    c1.633,1.628,3.343,3.108,5.105,4.507c-12.042,1.379-24.067,3.09-36.067,4.642c-7.169,0.927-14.402,1.301-21.589,2.068    c-5.841,0.624-12.932,0.615-18.849,2.476c-1.038-10.931-1.75-21.903-2.401-32.882c-0.347-5.854-0.494-12.01-1.581-17.777    c-0.647-3.43-0.887-6.897-1.35-10.339C283.722,350.092,289.089,348.693,294.206,348.469z M254.118,273.551    c-0.031-0.299-0.051-0.597-0.08-0.897c2.42-0.103,4.838-0.105,7.329-0.219c1.009-0.046,2.525-0.578,3.517-0.352    c3.901,0.893,2.49,5.486,2.405,8.16c-0.106,3.316,0.059,6.682,0.802,9.878c-0.307-0.207-0.618-0.409-0.962-0.569    c-4.226-1.969-8.825-1.533-13.459-0.732C255.734,284.31,254.61,278.201,254.118,273.551z M246.612,287.14    c-1.509,1.519-4.506,1.882-7.256,2.05c0-0.095,0.002-0.185,0-0.286c-0.054-1.885,0.06-3.724,0.048-5.612    c-0.017-2.785-0.804-6.026-1.984-8.74c3.437-0.292,6.848-0.67,10.169-1.236C248.39,278.405,249.126,284.61,246.612,287.14z     M234.609,182.695c-0.093-1.706-0.192-3.41-0.292-5.114c2.083-0.137,3.997,0.16,4.72,1.893c0.453,1.087,0.192,3.275,0.424,4.483    c0.484,2.515,0.276,4.15,0.291,6.624c0.003,0.468-0.017,0.953-0.044,1.442c-1.32-0.419-2.891-0.617-4.767-0.734    c-0.696-0.044-1.414-0.085-2.141-0.124C234.297,188.835,234.788,185.975,234.609,182.695z M239.071,197.594    c0.27,0.303,0.487,0.807,0.671,1.419c0.046,0.209,0.084,0.421,0.146,0.623c0.009,0.033,0.031,0.055,0.044,0.086    c0.464,1.984,0.673,4.662,0.985,5.998c3.149,13.491,3.756,27.437,4.815,41.218c0.53,6.901,0.464,13.843,1.036,20.785    c0.029,0.352,0.077,0.751,0.133,1.173c-6.651,0.581-13.322,1.48-19.898,2.067c-1.368,0.122-2.747,0.202-4.13,0.259    c-0.938-10.09-1.948-20.176-2.859-30.261c-0.753-8.335-1.475-16.677-2.373-24.998c-0.168-1.561-2.745-14.688-3.09-18.411    c3.553-0.217,7.153-0.245,10.531-1.189c1.227-0.038,2.447-0.064,3.651-0.042C231.211,196.363,237.162,195.446,239.071,197.594z     M234.35,289.572c-3.27,0.406-6.534,0.859-9.804,1.256c-0.378-5.117-0.819-10.233-1.281-15.347    c3.589-0.226,7.242-0.417,10.888-0.674c-0.44,2.728,0.686,5.066,0.487,8.028C234.498,284.921,234.004,287.383,234.35,289.572z     M206.097,285.092c-0.079-1.61-0.283-3.139-0.529-4.731c-0.111-0.727-0.687-2.878-0.77-4.234    c4.582,0.072,9.219-0.061,13.688-0.336c0.432,5.19,0.884,10.377,1.398,15.556c-3.728,0.385-7.475,0.733-11.187,1.248    c-0.67-0.124-1.341-0.202-2.013-0.261C206.981,290.007,206.205,287.297,206.097,285.092z M201.718,285.177    c-0.088,1.74-0.394,4.878,0.317,7.117c-1.574,0.087-3.164,0.24-4.785,0.385c-3.041,0.271-6.184,0.404-9.296,0.668    c-0.003-0.246-0.018-0.509-0.038-0.808c-0.082-1.195-0.409-3.99-0.601-5.862c-0.205-1.983,0-6.263-1.095-8.894    c2.43-0.264,4.838-0.573,7.086-0.665c2.785-0.114,5.84-0.381,8.819-0.89C201.551,279.099,201.856,282.469,201.718,285.177z     M200.295,272.362c-2.442,0.185-4.893,0.517-7.346,0.63c-1.935,0.09-3.835,0.202-5.714,0.379    c-1.951,0.076-3.903,0.254-5.854,0.491c0.093-2.308-0.383-8.783-0.477-9.566c-0.442-3.669-0.363-7.321-0.881-10.966    c-1.052-7.391-1.316-17.298,2.235-24.175c3.207-6.211,11.857-7.597,16.9-2.442c3.688,3.771,3.971,10.304,4.436,15.278    c0.924,9.878,1.276,19.825,2.022,29.728C203.828,271.863,202.052,272.061,200.295,272.362z M152.432,290.822    c0.313,1.861,0.74,3.653,1.011,5.52c0.015,0.1,0.033,0.187,0.049,0.281c-2.738,0.308-5.753,0.465-7.5-0.772    c-2.91-2.06-3.254-8.299-3.338-13.45c3.371-0.014,6.796-0.227,10.232-0.531C152.188,284.747,151.97,288.076,152.432,290.822z     M142.572,277.928c-0.017-0.425-0.039-0.827-0.07-1.178c-0.63-6.937-1.888-13.765-2.551-20.654    c-1.326-13.758-3.125-27.601-2.34-41.433c0.078-1.368-0.177-4.043-0.061-6.078c0.007-0.032,0.024-0.059,0.028-0.092    c0.026-0.21,0.026-0.425,0.036-0.639c0.076-0.634,0.203-1.169,0.417-1.513c1.511-2.445,7.53-2.564,9.964-3.033    c1.182-0.227,2.389-0.411,3.603-0.585c3.491,0.349,7.042-0.242,10.58-0.639c0.3,3.726,0.017,17.1,0.12,18.668    c0.547,8.351,1.268,16.694,1.96,25.034c0.836,10.091,1.575,20.201,2.385,30.301c-1.373,0.183-2.744,0.341-4.113,0.456    C155.952,277.098,149.225,277.358,142.572,277.928z M143.411,126.928c5.761-2.962,12.264-3.358,18.602-4.203    c0.194,4.931,1.071,9.951,1.398,14.816c0.487,7.235,0.98,14.47,1.505,21.703c0.485,6.67,1.781,13.144,2.145,19.859    c0.006,0.1,0.01,0.199,0.016,0.299c-1.344,0.052-2.685,0.194-4.024,0.394c-0.005-0.137-0.003-0.261-0.01-0.406    c-0.33-6.611-0.836-13.584-2.355-20.039c-0.574-2.44-1.093-8.66-3.362-10.276c-2.609-1.859-6.862,0.596-8.315,2.855    c-2.206,3.428-1.796,9.243-1.795,13.09c0.001,2.216,0.21,4.461,0.53,6.703c0,2.675-0.38,6.76,0.587,9.682    c-1.077,0.193-2.153,0.395-3.227,0.576c-0.046-0.511-0.091-1.01-0.14-1.475c-0.745-6.977-1.259-13.984-1.901-20.971    c-0.585-6.359-1.259-12.705-2.006-19.046c-0.292-2.481-0.123-4.835-0.148-7.318C140.879,130.108,140.451,128.451,143.411,126.928z     M194.363,186.431c-0.117-1.746-0.054-3.404-0.291-5.051c1.395-0.052,2.792-0.084,4.209-0.056    c1.258,0.024,2.455-0.026,3.619-0.159c0.124,3.743-0.054,7.333,0.846,11.021c-2.695,0.095-5.402,0.06-8.086,0.281    C195.174,190.567,194.489,188.327,194.363,186.431z M191.202,192.873c-2.407,0.021-4.838,0.321-7.288,0.657    c-0.046-0.002-0.084-0.016-0.131-0.016c-0.161,0-0.321,0.009-0.48,0.013c0.037-0.444-0.022-0.895-0.134-1.44    c-0.314-1.501-0.541-2.928-0.745-4.458c-0.222-1.667-0.245-3.536-0.541-5.283c1.297-0.183,2.549-0.339,3.716-0.427    c1.818-0.137,3.605-0.273,5.389-0.386C190.574,184.926,189.664,190.651,191.202,192.873z M186.228,177.42    c-2.685,0.263-5.362,0.499-8.031,0.816c0.101-5.438-1.333-11.185-1.756-16.519c-0.524-6.615-2.849-17.252,2.84-22.42    c4.512-4.098,11.225-2.879,12.414,3.456c0.748,3.982,1.351,7.888,1.649,11.937c0.534,7.275,0.947,14.578,1.366,21.838    C191.779,176.776,188.888,177.159,186.228,177.42z M171.811,183.659c2.374-0.171,4.807-0.53,7.151-0.884    c-0.182,2.015-0.065,4.047,0.045,6.085c0.073,1.373,0.041,3.457,0.732,4.916c-2.29,0.265-4.567,0.678-6.852,0.993    C173.142,190.945,172.332,187.408,171.811,183.659z M198.984,176.298c0.619-3.54-0.638-8.266-0.787-11.336    c-0.313-6.386-0.645-12.784-2.062-19.036c-1.565-6.904-4.044-14.231-13.026-12.102c-7.71,1.828-10.114,8.878-10.407,15.922    c-0.103,2.5,0.694,23.541,3.033,28.816c-0.443,0.063-0.889,0.118-1.333,0.19c-0.271,0.044-1.519,0.226-3.045,0.475    c-0.488-6.201-1.393-12.101-2.211-18.27c-1.713-12.917-2.367-25.811-4.695-38.59c0.139-0.022,0.277-0.048,0.416-0.071    c4.687,0.67,10.714-0.433,14.349-0.797c3.916-0.392,7.589-0.344,11.495-0.501c2.375-0.095,4.27-0.365,5.998-1.596    c0.631,0.011,1.263,0.016,1.897,0.008c-0.098,12.989,1.475,25.803,2.007,38.822c0.25,6.12,0.376,12,0.938,18.089    C200.704,176.283,199.846,176.283,198.984,176.298z M158.102,184.465c2.467-0.223,4.947-0.539,7.373-0.97    c0.61,0.099,1.239,0.163,1.879,0.206c0.098,1.102,0.225,2.201,0.441,3.303c0.55,2.81,0.426,5.46,0.75,8.179    c-0.11,0.005-0.219,0.016-0.33,0.02c-2.62,0.075-5.073-0.273-7.692,0.03c-0.543,0.063-1.086,0.153-1.628,0.25    c-0.163-1.003-0.301-2.005-0.371-3.042C158.351,189.889,158.757,186.983,158.102,184.465z M154.461,192.473    c0.029,1.05-0.016,2.401,0.14,3.689c-0.747,0.059-1.496,0.066-2.25-0.026c-4.965-0.604-6.296-5.653-6.883-10.496    c2.893-0.285,5.794-0.741,8.472-0.874c0.294-0.015,0.593-0.041,0.888-0.059C154.345,187.239,154.397,190.078,154.461,192.473z     M153.466,180.815c-1.102,0.172-2.001-0.107-2.248-1.708c-0.416-2.698,0.133-5.356-0.388-8.102    c-0.737-3.882-0.37-7.329-0.298-11.224c0.048-2.583-0.175-6.045,3.308-6.451c0.461-0.054,0.964-0.009,1.321,0.285    c0.19,0.156,0.322,0.37,0.445,0.583c1.556,2.692,1.788,6.125,2.273,9.154c0.693,4.33,0.926,8.729,1.289,13.102    c0.051,0.616,0.129,2.568,0.301,3.425c-0.635-0.143-1.891-0.121-1.975-0.12C156.368,179.771,154.774,180.611,153.466,180.815z     M157.206,117.796c0.33-1.951,0.377-4.009,0.365-6.063c2.484-0.242,4.872-0.688,7.012-1.518c0.063,2.479,0.294,4.965,1.116,6.886    C162.832,117.185,159.946,117.434,157.206,117.796z M157.534,107.456c0.003-0.53,0.013-1.054,0.033-1.568    c0.193-4.761-0.294-9.772-0.384-14.55c-0.04-2.174-0.874-4.19,1.22-5.469c1.379-0.841,3.526-0.989,5.335-1.229    c0.001,6.26,0.234,12.48,0.733,18.74c0.086,1.083,0.09,2.363,0.089,3.715C162.369,106.79,159.922,107.085,157.534,107.456z     M166.988,280.353c0.425,5.117,0.87,10.233,1.376,15.339c-3.289,0.171-6.584,0.285-9.874,0.448    c-0.036-2.215-0.947-4.556-1.443-6.588c-0.705-2.884,0.002-5.381-0.9-7.992C159.782,281.187,163.413,280.748,166.988,280.353z     M166.143,220.421c-0.52-5.852,0.321-12.763-1.394-18.568c0.813-0.053,1.625-0.09,2.433-0.078c3.886,0.055,7.349-0.85,11.122-1.61    c0.761-0.153,1.48-0.288,2.162-0.448c0.131-0.006,0.262-0.006,0.392-0.011c4.739-0.202,9.585-0.103,14.034-1.468    c1.062,0.151,2.196,0.161,3.443,0.193c3.848,0.1,7.414,0.396,11.232-0.326c0.794-0.151,1.601-0.254,2.411-0.34    c-0.69,6.014,1.325,12.679,1.818,18.532c0.672,7.974,1.219,15.959,1.88,23.935c0.858,10.359,1.617,20.736,2.45,31.106    c-2.684,0.034-5.375,0.048-8.053,0.138c-0.632-6.48-1.443-12.972-1.754-19.473c-0.321-6.695-0.704-13.667-2.468-20.164    c-2.389-8.801-10.939-14.903-20.146-11.276c-8.858,3.491-10.064,15.306-9.921,23.536c0.093,5.331,0.741,10.484,0.946,15.774    c0.179,4.636,0.779,9.793,2.246,14.31c-2.547,0.363-5.093,0.795-7.636,1.205c-0.962-10.358-1.999-20.711-2.933-31.064    C167.685,236.352,166.851,228.392,166.143,220.421z M215.538,179.493c-0.211,2.593,0.687,5.386,0.956,7.929    c0.109,1.034,0.145,2.045,0.157,3.061c-0.55-0.002-1.101,0.002-1.646,0.033c-2.632,0.152-4.989,0.916-7.583,1.293    c-0.109,0.016-0.218,0.023-0.329,0.038c-0.148-2.735-0.726-5.324-0.668-8.188c0.024-1.187-0.044-2.357-0.147-3.522    c0.275-0.103,0.548-0.227,0.821-0.347C209.889,179.841,212.731,179.726,215.538,179.493z M212.335,150.466    c0.106-0.531,0.263-1.098,0.694-1.426c0.221-0.168,0.492-0.253,0.759-0.327c1.15-0.323,2.46-0.493,3.474,0.138    c2.104,1.309,1.398,4.615,1.827,6.682c0.648,3.124,1.347,6.24,1.299,9.449c-0.025,1.777,0.068,3.648,0.421,5.394    c0.123,0.606,0.346,1.365,0.423,2.097c0.095,0.896-0.028,1.751-0.82,2.236c-1.298,0.794-3.339,0.064-4.792,0.133    c-0.585,0.029-1.2,0.024-1.714-0.254c-0.962-0.521-0.712-1.887-0.795-2.809c-0.394-4.37-0.92-8.742-0.981-13.128    C212.09,155.929,211.797,153.149,212.335,150.466z M182.825,278.268c-0.407,3.254,0.177,6.895,0.409,9.999    c0.172,2.307,0.154,3.943,0.865,5.502c-0.997,0.138-1.989,0.294-2.964,0.495c-1.545,0.318-3.078,0.611-4.613,0.889    c-1.159,0.083-2.32,0.167-3.478,0.248c-0.383-5.19-0.828-10.377-1.296-15.565C175.387,279.43,179.122,278.911,182.825,278.268z     M223.21,190.002c-0.727,0.219-1.467,0.341-2.213,0.412c-0.067-1.296-0.342-2.618-0.495-3.658    c-0.349-2.371-0.785-5.177-1.697-7.588c0.293-0.033,0.593-0.06,0.885-0.095c2.662-0.329,5.599-0.378,8.498-0.595    C228.441,183.351,227.996,188.554,223.21,190.002z M220.275,103.552c3.457,0.858,2.128,3.099,2.267,5.992    c0.09,1.882,0.193,3.777,0.709,5.544c-1.088-0.233-2.223-0.317-3.33-0.449c-0.974-0.117-1.93-0.238-2.878-0.354    c0.179-1.964-0.471-4.226-0.711-6.15c-0.156-1.252-0.255-2.7-0.623-4.006C217.312,103.782,219.226,103.291,220.275,103.552z     M212.586,104.546c-0.029,0.368-0.044,0.724-0.048,0.889c-0.043,1.294,0.029,2.594,0.113,3.885    c0.101,1.566,0.159,3.096,0.599,4.553c-1.506-0.141-3.019-0.252-4.581-0.269c0.52-2.885,0.257-5.769-0.14-8.655    C209.876,104.804,211.228,104.668,212.586,104.546z M220.121,120.287c3.178,0.992,3.041,2.698,3.536,5.719    c0.402,2.451,0.973,4.74,1.112,7.234c0.355,6.374,0.781,12.742,1.297,19.107c0.568,6.994,1.265,13.985,1.73,20.986    c0.031,0.468,0.072,0.966,0.115,1.478c-1.089,0.007-2.184-0.007-3.278-0.011c0.452-3.045-0.626-7.004-1.086-9.639    c-0.07-2.262-0.25-4.511-0.631-6.694c-0.66-3.789-1.256-9.589-4.018-12.587c-1.82-1.976-6.431-3.663-8.682-1.383    c-1.958,1.983-1.401,8.199-1.546,10.701c-0.387,6.62,0.313,13.576,1.124,20.146c0.017,0.144,0.04,0.267,0.059,0.402    c-1.353,0.033-2.699,0.123-4.032,0.303c-0.013-0.1-0.024-0.198-0.037-0.298c-0.795-6.677-0.631-13.279-1.299-19.932    c-0.725-7.215-1.484-14.427-2.247-21.639c-0.512-4.849-0.512-9.944-1.168-14.836C207.463,119.086,213.938,118.359,220.121,120.287    z M204.963,113.661c-2.762,0.115-5.648,0.365-8.485,0.774c0.574-2.437,0.17-5.525-0.319-8.427c2.066,0.21,4.181-0.263,6.295-0.442    c0.248-0.021,0.494-0.048,0.741-0.071C203.638,108.253,204.057,111.102,204.963,113.661z M195.724,103.473    c-0.169-0.992-0.319-1.935-0.398-2.766c-0.585-6.251-1.425-12.42-2.499-18.587c1.823-0.073,3.964-0.298,5.467,0.294    c2.283,0.9,1.808,3.03,2.143,5.178c0.733,4.721,1.115,9.74,2.122,14.395C200.236,102.335,197.944,102.682,195.724,103.473z     M176.278,20.679c0.097-0.134,0.255-0.259,0.414-0.213c0.152,0.043,0.222,0.213,0.269,0.363c0.245,0.766,0.481,1.544,0.712,2.329    c0.769,2.621,1.46,5.319,2.128,7.932c1.888,7.403,2.971,14.709,5.689,21.98c2.702,7.23,6.319,12.165,11.675,17.816    c0.92,0.971,5.197,4.164,4.588,5.823c-0.622,1.692-6.571,0.655-8.034,0.666c-2.008,0.017-4.029,0.061-6.048,0.177    c0.273-0.481,0.335-1.036,0.017-1.519c-1.004-5.019-3.077-9.853-4.287-14.83c-1.451-5.972-2.592-12.151-3.605-18.214    c-1.141-6.823-2.841-13.629-3.742-20.446C175.969,21.907,175.901,21.199,176.278,20.679z M172.244,63.732    c0.172-6.283-0.07-12.543,0.237-18.825c0.338-6.939-0.047-13.892,0.011-20.836c0.023-2.683,0.257-5.595,0.175-8.458    c0.029,0.076,0.066,0.164,0.092,0.239c0.002,0.007,0.006,0.013,0.008,0.02c0.165,1.229,0.206,2.52,0.294,3.539    c0.278,3.209,0.673,6.114,1.247,9.295c1.126,6.258,1.815,12.585,2.977,18.837c1.868,10.065,3.852,20.3,7.164,30.007    c0.033,0.098,0.079,0.169,0.118,0.254c-2.246,0.227-4.479,0.57-6.669,1.106c-2.106-0.143-4.219-0.113-6.327,0.024    C172.722,74.169,172.112,68.509,172.244,63.732z M175.116,82.931c2.66-0.29,5.817-0.249,8.559-0.915    c2.091,0.099,4.18,0.06,6.4,0.09c0.151,4.836,1.132,9.55,1.518,14.415c0.293,3.704,0.586,7.409,0.881,11.112    c0.172,2.164,0.931,4.91,0.361,7.02c-0.021,0.078-0.02,0.148-0.028,0.222c-4.035-0.576-8.808,0.101-12.155,0.499    c-3.755,0.446-7.633,0.584-11.359,1.224c-0.875-1.976-0.617-4.758-0.816-6.886c-0.346-3.7-0.694-7.399-1.042-11.099    c-0.456-4.859-0.3-9.672-0.982-14.462c1.544-0.292,3.031-0.535,4.492-0.815C172.343,83.251,173.745,83.079,175.116,82.931z     M154.685,78.089c1.132-1.613,2.522-3.276,2.853-3.773c4.304-6.487,7.019-11.97,8.438-19.558    c1.428-7.629,1.239-15.012,1.827-22.63c0.245-3.177-0.287-6.467,0.519-9.573c0.191-0.733,0.686-1.61,1.43-1.476    c0.182,8.438,0.31,17.036-0.299,25.462c-0.446,6.171-0.592,12.3-0.8,18.47c-0.076,2.236-0.19,4.434-0.352,6.667    c-0.102,1.418-0.337,4.456-0.302,5.637c0.011,0.419,0.183,1.275,0.254,1.914c-2.082,0.236-4.155,0.547-6.207,0.887    c-1.819,0.301-3.63,0.542-5.427,0.957c-0.657,0.152-2.718,0.964-3.341,0.432C152.784,81.083,153.62,79.608,154.685,78.089z     M152.311,112.018c0.159,2.165,0.48,4.299,1.234,6.359c-2.108,0.392-4.105,0.924-6.102,1.506    c-0.504-1.503-1.035-2.972-1.256-4.575c-0.147-1.065-0.252-2.174-0.693-3.119C147.674,112.087,149.98,112.074,152.311,112.018z     M138.89,122.579c-0.013-1.753-0.024-4.874-0.19-5.656c-0.396-1.879-1.2-2.738,0.142-3.826c0.823-0.669,2.729-0.584,3.745-0.696    c0.25-0.028,0.52-0.04,0.777-0.063c-0.037,1.853-0.241,3.777,0.021,5.589c0.129,0.881,0.313,1.989,0.677,2.972    c-0.474,0.145-0.943,0.288-1.425,0.433C141.38,121.708,140.07,122.019,138.89,122.579z M135.302,192.977    c0.021-1.231-0.612-3.341-0.353-4.489c0.414-1.831,2.249-2.454,4.325-2.677c0.194,1.696,0.391,3.391,0.592,5.088    c0.387,3.262,1.363,5.995,3.238,8.035c-0.709,0.163-1.41,0.327-2.088,0.491c-1.828,0.438-3.341,0.903-4.569,1.542    c-0.11-0.478-0.214-0.951-0.292-1.413C135.744,197.112,135.258,195.537,135.302,192.977z M126.195,301.754    c-0.311,0.217-0.581,0.47-0.849,0.726c0.183-3.276-0.234-6.62-0.908-9.868c-0.543-2.62-2.723-6.903,0.966-8.453    c0.938-0.394,2.523-0.13,3.525-0.259c2.473-0.315,4.856-0.73,7.258-1.043c0.022,0.3,0.054,0.597,0.075,0.897    c0.315,4.665,0.256,10.876,3.065,14.966C134.626,298.728,130.02,299.089,126.195,301.754z M135.433,401.663    c-1.11-10.259-2.972-20.38-2.896-30.711c0.068-9.185-0.893-18.499-1.672-27.666c-0.466-5.486-0.668-10.956-0.947-16.453    c-0.28-5.509-1.576-11.338-0.696-16.823c0.529-3.294,1.064-3.27,4.216-4.082c2.417-0.624,4.722-1.137,7.224-1.312    c4.189-0.292,7.682-0.358,11.278-1.396c4.588-0.277,9.376-1.483,13.281-1.976c0.604-0.076,1.208-0.142,1.812-0.213    c4.872,0.973,10.327-0.207,14.989-1.043c9.038-1.621,19.529,0.396,28.059-3.471c6.135,0.178,12.272-0.466,18.522-0.761    c3.932-0.185,8.856,0.18,13.423-0.336c3.72,0.403,7.172-0.131,11.349-0.563c2.494-0.258,4.852-0.147,7.342,0.052    c3.245,0.258,3.767,0.144,4.854,3.297c1.808,5.252,1.534,11.217,2.205,16.692c0.67,5.462,1.412,10.886,1.895,16.372    c0.808,9.164,1.463,18.505,3.108,27.542c1.85,10.163,1.754,20.455,2.424,30.751c0.781,12.015,2.007,23.874,3.527,35.706    c-6.748-0.998-14.167,1.283-20.74,2.1c-6.462,0.803-13.106,1.322-19.649,2.273c-6.777-1.251-15.136,0.967-21.68,1.396    c-4.047,0.264-8.029-0.022-12.108,0.412c-4.604,0.491-8.903,1.371-13.503,1.473c-9.309,0.208-18.86,1.528-28.189,2.096    c-3.52,0.214-7.032,0.594-10.538,0.988c-4.823-0.037-9.81-0.025-14.228,1.437C137.558,425.527,136.728,413.633,135.433,401.663z     M247.919,501.389c-0.936,0.187-1.88,0.354-2.825,0.51c-0.005,0.001-0.009,0.001-0.014,0.002c-0.001,0-0.003,0.001-0.005,0.001    c-11.541,1.903-23.754,1.62-35.344,2.93c-0.321,0.037-0.639,0.079-0.959,0.116c-7.225-0.082-14.444-0.144-21.651-0.125    c-8.475,0.022-16.906-0.116-25.374-0.223c-1.668-0.021-5.786,0.213-10.128,0.183c-0.995-4.036-0.049-8.902-0.532-12.938    c-0.677-5.661-1.559-11.246-2.13-16.94c-0.495-4.932-0.503-9.725-0.354-14.673c0.056-1.892-0.538-4.974,0.285-6.643    c1.283-2.608,6.393-2.493,8.942-2.848c5.564-0.774,11.289-0.964,16.729-2.281c10.908,0.003,21.897-1.417,32.745-2.211    c7.56-0.554,15.079-0.753,22.647-1.37c5.299-0.432,11.342-0.367,16.403-2.415c5.05,0.136,10.157-0.531,15.218-0.705    c2.573-0.089,7.585-1.08,9.299,1.268c1.096,1.504,1.041,4.642,1.422,6.495c0.997,4.85,1.812,9.571,2.173,14.516    c0.416,5.707,0.506,11.361,0.812,17.054c0.25,4.652,2.537,10.053,1.434,14.619c-0.703,2.907-2.785,2.76-5.773,3.147    c-2.809,0.364-5.558,0.988-8.377,1.282c-4.651,0.485-9.311,0.772-13.953,1.307C248.403,501.377,248.179,501.338,247.919,501.389z     M288.039,502.922c-0.156,0.48-0.427,0.895-0.766,1.265c-2.352,0.029-4.699,0.088-7.035,0.218    c-8.698,0.481-17.414,0.714-26.138,0.809c4.919-0.375,9.818-0.961,14.658-1.83c3.369-0.606,9.132-0.517,11.364-3.743    c2.65-3.829,0.041-10.533-0.519-14.63c-0.954-6.968-0.777-14.261-1.296-21.305c-0.468-6.35-1.588-12.424-3.017-18.644    c-0.851-3.708-1.683-6.416-5.685-7.048c-5.366-0.848-11.221-0.029-16.614,0.342c-4.981,0.344-10.967,0.028-15.752,1.525    c-0.226,0.07-0.34,0.217-0.378,0.385c-2.77,0.188-5.535,0.41-8.304,0.664c-7.53,0.691-15.111,1.193-22.66,1.589    c-3.088,0.162-5.932-0.239-8.974,0.317c-4.083,0.746-8.102,1.152-12.242,1.534c-1.405,0.129-2.861,0.195-4.337,0.247    c-2.366-0.172-4.882,0.024-7.392,0.34c-1.39,0.12-2.761,0.293-4.093,0.558c-1.078,0.152-2.141,0.295-3.16,0.401    c-5.376,0.561-11.285,0.761-16.425,2.517c-3.833,1.311-4.188,4.121-4.389,7.92c-0.338,6.374-0.398,12.55,0.233,18.885    c0.699,7.029,2.127,14.183,2.385,21.211c0.082,2.234-0.286,5.315-0.132,8.202c-2.382-0.144-4.598-0.426-6.272-0.933    c-0.385-4.091-0.779-8.184-1.08-12.28c-0.726-9.879-1.036-19.862-1.198-29.75c-0.107-6.53-0.285-13.03-0.535-19.522    c0.015-0.005,0.029-0.006,0.045-0.012c0.935-0.327,1.929-0.531,2.953-0.659c6.14,0.587,12.779-0.293,18.615-0.285    c8.376,0.011,16.869-0.472,25.122-2.115c3.023-0.17,6.044-0.298,9.056-0.311c4.02-0.02,7.93-1.249,12.001-1.432    c4.039-0.182,7.894,0.45,11.906-0.02c6.428-0.755,14.43-0.102,20.773-2.404c6.426-0.249,12.843-1.095,19.142-2.203    c6.71-1.18,14.71-1.342,21.304-3.851c0.909,6.798,1.906,13.591,2.979,20.402c1.541,9.77,2.951,19.658,3.933,29.513    c0.541,5.428,0.915,10.878,1.37,16.314C287.645,497.036,288.671,500.981,288.039,502.922z M368.362,500.17    c-5.211-0.211-10.628,0.846-15.778,1.17c-0.958-4.216-1.7-9.027-1.972-13.237c-0.375-5.819-0.767-15.41,4.375-19.253    c2.532-1.892,4.194-1.561,7.148-0.595c3.723,1.217,3.667,1.743,4.406,5.259c0.662,3.147,1.232,6.388,1.634,9.579    c0.71,5.629,1.329,11.271,2.155,16.889C369.677,500.051,369.018,500.106,368.362,500.17z M385.769,498.208    c-0.576,0.894-0.363,0.296-2.585,0.19c-2.504-0.121-5.268,0.535-7.727,0.919c-0.069,0.01-0.139,0.018-0.208,0.029    c-1.399-9.102-2.201-18.275-4.482-27.234c-0.769-3.018-1.759-6.636-4.515-8.451c-3.311-2.18-8.642-1.009-11.946,0.623    c-7.993,3.949-7.556,13.302-7.981,20.901c-0.253,4.519,0.753,9.032,1.675,13.459c0.18,0.867,0.384,1.872,0.7,2.83    c-7.265,0.186-14.531,0.327-21.784,0.846c-7.31,0.523-14.516,1.626-21.841,1.798c-3.271,0.077-6.561,0.067-9.853,0.055    c0.38-2.375,0.083-4.923-0.16-7.46c-0.537-5.592-1.009-11.192-1.506-16.787c-0.952-10.69-2.362-21.648-4.435-32.163    c-1.276-6.478-2.321-12.986-3.201-19.514c7.209-1.244,14.561-1.825,21.827-2.589c9.235-0.972,18.395-2.142,27.645-3.016    c10.23-0.967,20.486-1.696,30.709-2.66c2.027-0.191,5.763-0.45,9.349-1.221c2.286,14.044,3.788,28.298,6.531,42.301    c1.514,7.735,1.79,15.534,2.999,23.288C385.55,488.032,387.898,494.903,385.769,498.208z"/>
	</g>
</g>
<g>
	<g>
		<path d="M262.573,457.045c-0.618-2.606-0.438-7.94-3.857-8.461c-0.444-0.068-0.896-0.025-1.343,0.021    c-2.793,0.284-5.575,0.669-8.34,1.154c-3.572,0.626-3.619,2.651-3.578,5.891c0.048,3.773,0.808,7.274,2.198,10.808    c1.041,2.643,3.921,2.884,6.453,2.659c2-0.178,4.168-0.63,6.115-1.069c0.978-0.221,1.836-0.456,2.465-1.299    C264.537,464.268,263.216,459.759,262.573,457.045z M259.156,464.357c-0.902-0.14-2.313,0.483-3.176,0.679    c-1.158,0.264-3.133,0.915-4.357,0.586c-1.668-0.447-1.374-1.131-1.787-2.682c-0.702-2.638-0.949-4.865-0.926-7.591    c0.007-0.834-0.295-1.489,0.589-2.012c1.173-0.693,3.368-0.595,4.691-0.804c1.274-0.201,2.764-0.335,3.671,0.583    c2.083,2.109,1.521,7.549,1.634,10.202c0.025,0.313,0.02,0.625,0.021,0.939C259.416,464.279,259.301,464.31,259.156,464.357z"/>
	</g>
</g>
<g>
	<g>
		<path d="M219.562,463.591c0.092-1.599,0.089-3.183,0.044-4.783c-0.086-3.096-1.032-5.019-4.39-5.168    c-1.44-0.064-3.181,0.187-4.59,0.34c-0.871,0.095-1.68,0.401-2.485,0.738c-1.468,0.268-2.933,0.622-4.411,1.046    c-3.942,1.129-3.75,3.055-3.586,6.825c0.126,2.901-0.165,8.426,2.455,10.534c1.073,0.863,2.498,0.737,3.782,0.686    c1.595-0.064,3.192-0.392,4.782-0.432c1.148-0.029,2.191,0.352,3.32,0.348c2.052-0.007,4.512-1.218,5.085-3.315    C220.151,468.275,219.437,465.767,219.562,463.591z M215.291,469.79c-0.826,0.443-1.488,0.041-2.344-0.075    c-1.115-0.151-2.154,0.029-3.27,0.142c-0.804,0.082-4.196,0.941-4.805,0.516c-1.686-1.177-1.322-6.193-1.429-8.07    c-0.103-1.799-0.401-2.618,1.24-3.501c1.251-0.673,2.905-0.851,4.282-1.062c0.44-0.068,0.863-0.164,1.282-0.272    c0.517-0.018,1.042-0.039,1.588-0.049c0.745-0.015,1.513-0.242,2.242-0.232c1.779,0.028,1.882,0.273,1.939,1.933    c0.085,2.44-0.237,4.884-0.09,7.313C216.008,467.8,216.665,469.05,215.291,469.79z"/>
	</g>
</g>
<g>
	<g>
		<path d="M321.769,445.254c0.092-1.599,0.088-3.183,0.044-4.783c-0.086-3.096-1.032-5.019-4.39-5.168    c-1.44-0.064-3.181,0.187-4.59,0.34c-0.871,0.094-1.68,0.401-2.486,0.738c-1.468,0.268-2.933,0.622-4.411,1.046    c-3.942,1.129-3.75,3.055-3.586,6.825c0.126,2.901-0.165,8.426,2.455,10.532c1.072,0.863,2.497,0.737,3.781,0.686    c1.595-0.064,3.191-0.392,4.782-0.432c1.147-0.029,2.191,0.352,3.321,0.348c2.051-0.007,4.511-1.218,5.085-3.315    C322.357,449.937,321.643,447.428,321.769,445.254z M317.498,451.451c-0.826,0.443-1.488,0.041-2.344-0.075    c-1.115-0.151-2.154,0.029-3.27,0.142c-0.804,0.082-4.196,0.941-4.805,0.516c-1.687-1.177-1.325-6.193-1.432-8.07    c-0.103-1.799-0.401-2.618,1.24-3.501c1.252-0.673,2.905-0.851,4.282-1.062c0.44-0.067,0.863-0.164,1.282-0.272    c0.517-0.018,1.042-0.039,1.588-0.049c0.745-0.014,1.513-0.242,2.242-0.232c1.779,0.028,1.882,0.273,1.941,1.933    c0.085,2.44-0.237,4.884-0.09,7.313C318.215,449.461,318.872,450.712,317.498,451.451z"/>
	</g>
</g>
<g>
	<g>
		<path d="M324.641,478.449c0.092-1.599,0.088-3.183,0.044-4.783c-0.086-3.096-1.032-5.019-4.39-5.168    c-1.44-0.064-3.181,0.187-4.59,0.34c-0.871,0.095-1.68,0.401-2.486,0.738c-1.468,0.268-2.933,0.622-4.411,1.046    c-3.942,1.129-3.75,3.055-3.586,6.825c0.126,2.901-0.165,8.426,2.455,10.532c1.073,0.863,2.498,0.737,3.782,0.686    c1.595-0.064,3.191-0.392,4.781-0.432c1.148-0.029,2.191,0.352,3.32,0.348c2.051-0.007,4.511-1.218,5.085-3.315    C325.23,483.132,324.517,480.624,324.641,478.449z M320.37,484.647c-0.825,0.443-1.488,0.041-2.344-0.075    c-1.115-0.151-2.154,0.03-3.27,0.142c-0.804,0.082-4.196,0.941-4.805,0.516c-1.686-1.177-1.322-6.193-1.429-8.07    c-0.103-1.799-0.401-2.618,1.24-3.501c1.252-0.673,2.905-0.851,4.282-1.062c0.439-0.068,0.863-0.164,1.282-0.272    c0.517-0.018,1.042-0.039,1.588-0.049c0.745-0.015,1.513-0.242,2.242-0.232c1.779,0.028,1.882,0.273,1.939,1.933    c0.085,2.44-0.237,4.884-0.09,7.313C321.088,482.657,321.746,483.908,320.37,484.647z"/>
	</g>
</g>
<g>
	<g>
		<path d="M218.375,484.98c-0.17-1.89-0.669-4.464-2.585-5.449c-0.126-0.064-0.256-0.117-0.391-0.161    c-0.556-0.178-1.166-0.182-1.757-0.162c-3.264,0.108-9.964,0.34-10.538,4.658c-0.341,2.568-0.069,5.577,0.483,8.082    c0.468,2.122,0.316,6.034,2.639,7.194c2.093,1.044,5.909,0.301,8.016-0.439c2.358-0.827,3.778-2.692,4.326-5.104    C219.213,490.76,218.631,487.828,218.375,484.98z M215.017,493.131c-0.701,2.258-2.327,2.464-4.414,2.759    c-0.429,0.061-2.473,0.523-2.885,0.236c-0.33-0.23-0.396-2.718-0.501-3.168c-0.404-1.731-0.898-3.271-1.081-5.055    c-0.148-1.445-0.774-3.391,0.587-4.459c0.964-0.757,2.565-0.477,3.653-0.581c0.975-0.094,2.559-0.919,3.533-0.246    c0.278,0.192,0.462,0.483,0.584,0.824c0.302,0.841,0.236,1.993,0.314,2.77C215.02,488.391,215.681,490.991,215.017,493.131z"/>
	</g>
</g>
<g>
	<g>
		<path d="M214.972,361.005c-0.581-2.978-0.651-6.139-1.301-9.06c-1.069-4.81-5.887-3.836-9.713-3.67    c-4.304,0.188-11.039-1.403-14.337,2.543c-2.631,3.147-1.609,8.284-0.689,12.687c-0.018,0.318-0.024,0.638-0.055,0.949    c-0.387,3.881-1.221,10.603,2.663,13.104c4.827,3.108,11.91,0.478,16.999-0.286c5.857-0.879,7.071-2.623,7.248-8.332    C215.874,366.132,215.514,363.785,214.972,361.005z M211.269,368.107c-0.163,2.797,0.62,3.494-3.131,4.539    c-1.08,0.301-3.883,0.811-4.819,0.998c-2.176,0.437-5.375,1.096-7.542,0.446c-2.674-0.803-2.575-2.577-2.724-5.029    c-0.293-4.847-0.261-9.85-0.204-14.736c1.98-3.013,7.481-1.39,10.445-1.489c1.131-0.038,4.854-1.02,5.614-0.244    c0.878,0.898,0.516,3.392,0.715,4.551C210.244,360.787,211.483,364.411,211.269,368.107z"/>
	</g>
</g>
<g>
	<g>
		<path d="M187.91,98.146c-0.352-3.646-1.195-7.691-3.776-10.49c-3.621-3.928-10.974-2-13.386,2.513    c-1.754,3.283-1.594,8.055-1.451,11.646c0.08,2.034-0.353,10.516,2.675,10.753c3.462,0.271,7.074-0.141,10.531-0.504    c2.198-0.231,4.681-0.762,5.541-3.102C189.142,105.976,188.206,101.208,187.91,98.146z M184.432,107.816    c-0.882,0.858-3.393,0.641-4.536,0.676c-2.159,0.064-4.341,0.487-6.518,0.43c-0.147-0.072-0.3-0.132-0.461-0.169    c-0.275-3.77-0.488-7.633-0.273-11.352c0.176-3.03,0.722-7.506,4.489-8.152c3.924-0.672,6.114,2.408,6.976,5.755    C184.707,97.32,186.143,106.15,184.432,107.816z"/>
	</g>
</g>
<g>
	<g>
		<path d="M367.204,437.09c-0.966-4.104-3.063-9.052-6.901-11.213c-4.24-2.388-9.812-1.19-13.335,2.082    c-3.721,3.456-4.368,9.731-4.333,14.508c0.014,1.884,0.247,3.753,0.48,5.62c-0.2,3.53-0.068,8.139,1.663,10.292    c2.358,2.934,8.919,0.679,12.012,0.519c3.911-0.201,10.066-0.546,11.995-4.762C370.787,449.763,368.269,441.613,367.204,437.09z     M362.768,453.392c-2.692,1.876-8.27,1.221-11.518,1.514c-0.618,0.056-1.868,0.37-2.806,0.455c0.118-0.409-0.381-1.43-0.588-2.199    c-0.231-0.859-0.499-1.703-0.779-2.542c0.022-1.096,0.025-2.174-0.062-3.176c-0.329-3.767-0.464-7.547,0.331-11.272    c1.198-5.613,8.834-10.68,13.173-4.847c2.44,3.28,2.6,7.31,3.255,11.175C364.336,445.816,366.068,451.092,362.768,453.392z"/>
	</g>
</g>
<g>
</g>
<g>
</g>
<g>
</g>
<g>
</g>
<g>
</g>
<g>
</g>
<g>
</g>
<g>
</g>
<g>
</g>
<g>
</g>
<g>
</g>
<g>
</g>
<g>
</g>
<g>
</g>
<g>
</g>
</svg>
