<?xml version="1.0" encoding="iso-8859-1"?>
<!-- Generator: Adobe Illustrator 19.0.0, SVG Export Plug-In . SVG Version: 6.00 Build 0)  -->
<svg xmlns="http://www.w3.org/2000/svg" xmlns:xlink="http://www.w3.org/1999/xlink" version="1.1" id="Layer_1" x="0px" y="0px" viewBox="0 0 512.003 512.003" style="enable-background:new 0 0 512.003 512.003;" xml:space="preserve">
<g>
	<g>
		<path d="M451.606,251.154c4.366,3.604,11.518,5.404,16.922,5.386c5.89-0.02,14.299-3.726,18.459-7.944    c3.964-4.019,5.02-9.367,4.437-14.754c-0.768-7.102-3.612-13.475-9.081-18.324c-3.268-2.897-6.568-4.114-10.113-4.427    c-0.289-0.093-0.577-0.183-0.867-0.264c-8.455-2.364-15.426,1.486-19.981,7.626c-0.726-3.827-1.545-7.595-2.325-11.211    c-2.427-11.258-5.395-22.031-8.98-32.916c-0.095-0.29-0.199-0.579-0.297-0.869c0.272,0.123,0.547,0.244,0.828,0.35    c5.502,2.051,13.367,0.896,18.625-1.365c5.41-2.327,11.697-9.031,13.871-14.541c2.072-5.251,0.949-10.586-1.698-15.313    c-3.489-6.232-8.603-10.983-15.536-13.301c-4.14-1.385-7.654-1.212-11.04-0.111c-0.303,0.028-0.603,0.057-0.902,0.097    c-9.169,1.197-14.122,8.094-15.654,16.042c-3.361-7.544-7.117-15.239-11.768-21.779c-3.237-4.552-6.496-8.99-10.056-13.204    c5.578-0.572,11.815-4.245,15.602-7.988c4.188-4.14,7.594-12.676,7.608-18.6c0.013-5.645-2.98-10.201-7.168-13.637    c-5.524-4.53-12.017-7.085-19.318-6.715c-4.361,0.222-7.568,1.664-10.319,3.925c-0.271,0.136-0.541,0.274-0.803,0.419    c-8.182,4.506-10.24,12.856-8.678,20.888c-2.234-1.888-4.488-3.757-6.805-5.566c-6.8-5.315-13.672-10.656-21.124-15.238    c-4.398-2.705-9.011-5.016-13.706-7.163c0.154-0.063,0.31-0.12,0.461-0.189c5.336-2.451,10.068-8.84,12.175-14.161    c2.17-5.476,1.855-14.661-0.515-20.09c-2.258-5.173-6.832-8.142-12.049-9.602c-6.879-1.926-13.852-1.654-20.388,1.622    c-3.903,1.956-6.259,4.568-7.869,7.744c-0.194,0.233-0.385,0.468-0.568,0.707c-5.775,7.543-4.152,16.177,0.699,22.956    c-6.548-2.067-13.184-3.857-19.829-5.515c-4.263-1.064-8.487-1.784-12.809-2.336c-2.533-0.891-5.635-1.061-8.754-0.972    c0.002-0.002,0.005-0.004,0.007-0.006c4.073-4.229,6.148-11.903,6.168-17.627c0.022-5.89-3.623-14.326-7.811-18.517    c-3.99-3.992-9.331-5.087-14.722-4.542c-7.107,0.718-13.501,3.515-18.389,8.95c-2.92,3.246-4.161,6.537-4.5,10.082    c-0.095,0.289-0.186,0.576-0.27,0.866c-2.424,8.434,1.371,15.429,7.473,20.027c-4.259,0.034-8.486,0.644-13.203,1.208    c-8.349,0.997-16.918,3.311-25.025,5.546c-4.205,1.159-8.374,2.408-12.501,3.762c0.794-1.44,1.475-2.971,2.01-4.608    c1.355-4.151,1.158-7.662,0.032-11.04c-0.029-0.301-0.062-0.603-0.103-0.901c-2.054-14.896-19.09-18.552-31.175-14.472    c-5.457,1.843-11.299,5.759-13.381,11.468c-2.013,5.516-0.8,13.373,1.499,18.615c2.078,4.739,7.539,10.128,12.583,12.814    c-1.836,0.966-3.653,1.97-5.454,3.017c-6.903,4.016-12.961,9.543-19.473,14.142c-3.191,2.254-6.2,4.657-9.102,7.185    c0.149-1.42,0.191-2.872,0.104-4.358c-0.253-4.358-1.719-7.557-3.999-10.291c-0.137-0.27-0.278-0.538-0.425-0.801    c-7.349-13.119-24.544-10.306-34.307-2.097c-4.409,3.707-8.417,9.485-8.273,15.561c0.14,5.87,4.135,12.743,8.188,16.785    c3.418,3.408,9.783,6.266,15.231,7.173c-0.756,0.765-1.501,1.541-2.228,2.337c-2.274,2.491-4.71,5.109-6.277,8.093    c-1.868,3.56-3.408,7.214-5.603,10.597c-4.296,6.62-7.995,13.771-10.948,21.118c-0.42-1.267-0.942-2.52-1.573-3.757    c-1.984-3.889-4.613-6.227-7.799-7.813c-0.235-0.192-0.471-0.381-0.711-0.562c-12.004-9.056-26.617,0.436-32.253,11.879    c-2.545,5.168-3.893,12.07-1.316,17.574c2.489,5.319,8.911,10.003,14.248,12.073c5.409,2.098,14.394,1.756,19.835-0.558    c-2.384,9.012-3.679,18.466-5.019,27.638c-0.833,5.701-1.339,11.445-1.587,17.202c-1.337-2.19-3.008-4.209-5.047-6.016    c-3.268-2.897-6.568-4.114-10.113-4.427c-0.289-0.093-0.577-0.183-0.867-0.264c-14.481-4.051-24.622,10.119-25.693,22.829    c-0.484,5.74,0.78,12.657,5.189,16.843c4.257,4.043,11.948,6.062,17.67,6.041c5.89-0.02,14.299-3.726,18.459-7.944    c0.414-0.419,0.788-0.856,1.139-1.302c0.269,2.717,0.572,5.429,0.956,8.13c1.58,11.135,3.406,22.792,6.299,33.656    c0.912,3.427,1.886,6.878,2.952,10.307c-2.16-1.586-4.576-2.868-7.278-3.771c-4.141-1.385-7.654-1.212-11.04-0.111    c-0.303,0.027-0.603,0.057-0.902,0.097c-14.91,1.947-18.688,18.957-14.695,31.071c1.804,5.47,5.678,11.339,11.372,13.463    c5.502,2.051,13.367,0.896,18.625-1.365c5.41-2.327,11.697-9.031,13.871-14.541c0.122-0.308,0.23-0.618,0.331-0.928    c3.787,6.39,8.218,12.451,12.478,18.492c2.617,3.711,5.103,7.357,7.84,10.774c1.865,2.601,4.198,4.788,6.427,7.096    c0.72,0.746,1.433,1.497,2.145,2.248c-3.262-1.189-6.751-1.755-10.448-1.567c-4.361,0.222-7.568,1.664-10.319,3.925    c-0.271,0.136-0.541,0.274-0.805,0.419c-13.171,7.254-10.482,24.469-2.343,34.29c3.676,4.435,9.424,8.486,15.502,8.385    c5.871-0.097,12.772-4.044,16.843-8.068c4.188-4.14,7.594-12.676,7.608-18.6c0.002-1.246-0.148-2.435-0.419-3.574    c0.617,0.49,1.229,0.983,1.867,1.453c15.084,11.104,31.327,20.244,47.7,29.097c0.337,0.182,0.683,0.353,1.022,0.531    c-4.182-0.05-8.324,0.826-12.302,2.82c-3.903,1.956-6.259,4.568-7.869,7.744c-0.193,0.233-0.385,0.468-0.568,0.707    c-6.397,8.354-3.717,18.045,2.373,25.074c-0.481,0.209-0.935,0.554-1.311,1.078c-2.818,3.921-4.469,8.749-6.311,13.137    c-1.49,3.548-2.166,7.385-3.669,10.957c-0.896,2.131-1.758,3.969-2.06,6.142c-3.669-0.096-7.338-0.19-11.009-0.206    c-1.802-0.008-5.241,0.619-6.841-0.565c-3.114-2.307-1.411-13.252-1.713-16.916c-0.26-3.158,0.548-8.057-2.42-10.293    c-3.143-2.369-9.563-0.518-13.185-0.768c-5.273-0.364-10.327-0.435-15.665-0.183c-5.055,0.239-10.417,0.48-15.402,1.369    c-4.289,0.765-9.153,1.017-12.104,4.576c-2.994,3.611-1.784,7.794-1.631,12.091c0.186,5.229,0.455,8.891,1.956,13.449    c-2.787-0.072-5.57-0.106-8.318-0.001c-1.199,0.046-2.695,0.07-4.26,0.177c-5.048-0.34-11.18,0.415-12.866,5.673    c-0.779,2.427-0.575,5.309-0.219,7.785c0.51,3.555,0.659,7.643,1.825,11.052c2.348,6.868,10.194,5.779,16.183,5.32    c8.323-0.637,16.631-0.513,24.996-0.504c8.466,0.007,16.998,1.073,25.394,1.03c8.072-0.042,16.234-0.795,24.335-1    c18.091-0.459,36.236-1.725,54.345-1.722c9.998,0.002,19.998,0.034,29.995,0.079c3.915,0.018,7.813-0.615,11.698-0.299    c5.272,0.428,10.493,0.419,15.781,0.391c9.093-0.048,18.327-0.408,27.392,0.296c9.335,0.725,19.117-0.26,28.528-0.28    c9.452-0.02,18.917,0.574,28.393,0.589c9.063,0.014,18.673-0.97,27.655-0.198c17.955,1.543,36.16-0.627,54.122-0.93    c11.4-0.192,22.819,0.012,34.22,0.016c6.376,0.002,14.895,2.903,20.399-1.355c6.107-4.724,4.806-13.009,3.664-19.565    c-0.658-3.774-2.465-5.67-4.884-6.509c-0.245-0.388-0.572-0.751-1.008-1.061c-3.054-2.182-7.832-1.207-11.345-0.972    c-1.439,0.096-2.87,0.194-4.301,0.29c0.84-3.752-0.513-8.175-0.555-11.957c-0.043-3.823,0.095-9-2.455-12.182    c-2.59-3.23-7.308-3.019-11.067-3.047c-5.81-0.043-11.557-0.597-17.352-0.579c-5.869,0.018-11.801-0.243-17.656,0.174    c-3.87,0.276-7.64,0.05-9.62,3.855c-2.125,4.084-1.712,9.771-1.64,14.193c0.053,3.207-0.171,6.983,0.446,10.361    c-1.547,0.001-3.093,0.001-4.64,0.002c-3.008,0.001-6.016,0.026-9.024,0.036c0.174-0.37,0.301-0.773,0.36-1.21    c0.48-3.625-1.331-6.82-3.256-9.769c-2.354-3.607-4.694-7.265-7.073-10.842c-1.859-2.794-4.091-5.236-5.904-8.063    c-1.269-1.98-2.687-3.603-4.397-5.008c3.13-2.994,5.532-6.654,6.961-11.029c1.355-4.151,1.158-7.662,0.032-11.04    c-0.029-0.301-0.062-0.603-0.103-0.901c-1.169-8.476-7.19-13.308-14.387-15.151c7.309-4.006,13.977-9.364,20.311-14.7    c4.419-3.723,8.671-7.688,12.873-11.711c-0.152,0.893-0.235,1.797-0.213,2.709c0.14,5.87,4.135,12.743,8.188,16.785    c4.171,4.159,12.73,7.504,18.654,7.476c5.645-0.027,10.18-3.053,13.585-7.267c4.49-5.556,6.998-12.067,6.575-19.366    c-0.252-4.358-1.719-7.557-3.998-10.291c-0.137-0.27-0.278-0.538-0.425-0.801c-5.109-9.121-14.977-10.537-23.798-7.796    c5.048-6.271,9.299-13.505,13.833-19.895c5.538-7.805,11.059-15.927,16.103-24.29c0.203,0.71,0.457,1.404,0.772,2.076    c2.489,5.319,8.911,10.004,14.248,12.073c5.491,2.13,14.673,1.75,20.086-0.659c5.157-2.295,8.093-6.889,9.515-12.117    c1.877-6.893,1.554-13.864-1.769-20.375c-1.984-3.889-4.613-6.227-7.801-7.813c-0.235-0.192-0.471-0.381-0.711-0.562    c-6.593-4.974-13.97-4.345-20.216-0.88c3.087-8.686,4.661-17.743,5.53-26.979C450.966,259.22,451.416,255.185,451.606,251.154z     M452.967,228.461c1.601-4.961,4.659-9.375,8.505-11.343c7.007-3.585,16.209,0.04,20.377,6.298    c1.104,1.657,1.993,3.433,2.768,5.263c0.59,1.95,0.944,4.033,1.009,6.236c0.401,13.519-16.401,18.588-27.134,13.494    c-2.701-1.282-4.5-3.413-5.56-5.979c0.353-0.468,0.582-1.037,0.61-1.696C453.71,236.74,453.46,232.611,452.967,228.461z     M33.346,251.455c-11.528-5.471-6.804-26.283,2.981-31.289c7.007-3.585,16.209,0.041,20.377,6.298    c1.104,1.657,1.994,3.433,2.768,5.263c0.59,1.95,0.944,4.033,1.009,6.236C60.882,251.481,44.08,256.55,33.346,251.455z     M437.296,138.935c5.042-6.045,14.929-6.313,21.216-2.19c1.665,1.093,3.18,2.377,4.608,3.758c1.308,1.563,2.449,3.341,3.372,5.342    c5.665,12.282-7.808,23.528-19.678,23.046C434.064,168.373,430.256,147.375,437.296,138.935z M429.418,169.158    c0.063-0.125,0.135-0.257,0.21-0.391c0.27,0.667,0.544,1.33,0.813,1.999c7.898,19.721,11.92,40.478,15.336,61.404    c-4.673-5.664-12.019-9.584-17.445-14.385c-3.292-2.913-6.848-5.541-10.101-8.49c-1.705-1.547-2.941-3.343-4.498-5.005    c-0.319-0.341-0.706-0.665-1.112-0.99c3.448-6.777,6.56-13.712,9.913-20.555C424.775,178.176,427.127,173.704,429.418,169.158z     M345.953,342.738c5.183,0.591,10.545,0.882,15.656,1.914c-4.845,4.637-9.779,9.348-15.321,13.11    C346.488,352.76,345.811,347.712,345.953,342.738z M328.585,464.262c0.8,5.536,1.759,11.195,2.98,16.679    c-5.752,0.054-11.502,0.106-17.253,0.15c0.109-1.884-0.184-3.463-0.222-5.804c-0.05-3.221,1.067-5.696-0.522-8.779    c-2.566-4.976-6.401-4.465-11.316-3.473c-3.603,0.727-6.875,2.557-10.398,3.619c-3.51,1.059-7.122,1.806-10.645,2.825    c-6.989,2.022-13.578,2.859-20.757,3.821c-8.299,1.112-16.258-1.054-24.432-2.343c-6.904-1.088-13.615-2.479-20.414-3.95    c-3.754-0.812-9.441-3.726-12.232,0.186c-1.395,1.957-1.463,4.704-1.468,6.977c-0.004,1.44,0.148,2.895,0.283,4.325    c0.019,0.203,0.197,0.911,0.387,1.689c-4.304-0.011-8.609-0.125-12.915-0.281c-0.087-5.577-0.396-11.047-0.052-16.612    c0.158-2.553,0.588-5.753-0.289-8.298c4.377-2.981,8.101-8.305,9.904-12.854c2.17-5.476,1.854-14.661-0.515-20.09    c-0.539-1.235-1.217-2.336-1.999-3.33c8.656,2.791,17.637,4.814,26.251,6.41c7.306,1.353,14.705,2.562,22.134,3.296    c-2.773,1.433-5.321,3.334-7.545,5.807c-2.92,3.246-4.161,6.537-4.5,10.082c-0.095,0.289-0.186,0.576-0.27,0.866    c-4.154,14.452,9.942,24.693,22.644,25.856c5.736,0.525,12.663-0.69,16.88-5.068c4.073-4.229,6.148-11.903,6.168-17.627    c0.021-5.602-3.277-13.498-7.201-17.864c0.806,0.101,1.609,0.212,2.408,0.345c4.777,0.791,9.884-0.836,14.67-1.393    c10.534-1.227,19.833-6.076,29.793-9.025c0.27-0.08,0.538-0.171,0.808-0.253c-1.817,5.491-0.617,13.096,1.627,18.213    c1.399,3.19,4.335,6.67,7.64,9.426C325.041,451.929,327.949,459.857,328.585,464.262z M308.701,481.129    c-4.803,0.033-9.606,0.065-14.406,0.079c-29.51,0.087-59.069-1.243-88.599-1.022c0.338-3.597-0.813-8.14,1.5-9.593    c3.245-2.037,11.401,1.539,14.922,2.508c5.653,1.555,11.769,1.846,17.553,2.919c5.509,1.022,11.075,2.546,16.747,2.248    c11.175-0.586,21.255-3.345,31.975-6.298c5.462-1.505,11.467-4.646,17.115-4.917c5.009-0.24,3.312,4.404,3.154,8.234    C308.584,477.212,308.662,479.178,308.701,481.129z M170.105,124.527c-5.416-0.629-10.736-2.068-16.003-3.441    c-0.247-0.064-0.511-0.136-0.781-0.209c5.062-4.12,10.608-7.769,16.156-11.203c0.104,2.558,0.324,5.082,0.419,7.639    c0.063,1.706-0.079,3.433-0.138,5.043C169.73,123.071,169.907,123.802,170.105,124.527z M324.405,62.511    c0.265,0.081,2.028,3.764,2.132,3.962c1.282,2.456,2.251,5.064,3.497,7.54c3.813,7.57,6.492,15.694,9.738,23.581    c-3.401-2.05-6.862-4.01-10.394-5.862c-7.246-3.801-15.057-7.1-22.755-9.827c-3.714-1.316-7.361-2.337-11.026-3.228    c3.432-1.531,6.849-3.453,10.023-5.058c5.528-2.796,10.85-6.204,16.204-9.326C322.026,64.179,324.686,62.597,324.405,62.511z     M379.8,150.302c1.304,0.011,2.941-0.598,3.502,0.917c0.137,0.372-1.771,3.861-1.949,4.229c-0.813,1.683-3.19,4.831-4.573,7.864    c-1.68-2.862-3.467-5.664-5.352-8.402c-1.138-1.653-2.298-3.326-3.475-5C371.845,150.482,375.897,150.272,379.8,150.302z     M368.093,146.202c0.211-3.955,1.047-8.143,1.723-11.902c0.202-1.12,0.642-2.468,0.943-3.839    c4.555,4.748,8.687,9.884,12.276,15.383c-0.449-0.04-0.901-0.067-1.349-0.075C377.329,145.684,372.535,145.507,368.093,146.202z     M380.063,182.302c0.646,1.667,1.256,3.383,1.835,5.123c-3.168,0.602-6.596,2.818-9.369,3.766    c-4.63,1.582-9.236,3.234-13.889,4.782c-9.732,3.239-19.352,6.901-29.248,9.668c-9.609,2.687-19.63,4.625-29.122,7.713    c-7.391,2.406-15.114,4.765-21.75,8.855c-0.86-2.152-2.008-4.173-3.434-5.977c5.356-4.07,10.57-8.585,15.321-13.221    c7.684-7.499,16.484-13.946,24.131-21.523c6.665-6.604,13.643-12.899,20.875-18.929c4.282-3.57,8.373-7.465,12.349-11.374    c2.688-2.642,6.027-4.479,8.648-7.123c1.417,1.751,2.802,3.551,4.162,5.41C368.124,159.786,375.403,170.282,380.063,182.302z     M395.16,173.527c0.577,2.146-3.693,8.193-4.704,10.323c-0.853,1.797-1.556,3.71-2.299,5.607    c-1.826-6.316-4.243-12.42-7.152-18.293c1.033,0.121,2.06,0.185,2.932,0.354C385.45,171.812,395.572,175.063,395.16,173.527z     M391.111,258.823c0.228-1.45,0.432-2.927,0.611-4.419c4.087,2.873,8.806,5.79,12.032,9.596    c-4.614,2.459-10.242,2.988-15.082,4.832C389.726,265.66,390.55,262.399,391.111,258.823z M390.204,198.419    c2.259,1.506,4.591,2.906,6.996,4.167c1.327,0.696,3.942,1.137,3.934,2.556c-0.007,1.276-4.629,4.3-5.616,5.212    c-0.817,0.754-2.409,1.898-3.968,3.225C391.383,208.5,391.028,203.44,390.204,198.419z M391.73,223.272    c1.583,0.859,3.076,1.894,4.585,2.897c2.159,1.436,6.123,2.953,7.73,4.861c1.661,1.973,0.305,2.482-1.427,4.383    c-1.799,1.975-3.788,3.77-5.583,5.749c-1.314,1.448-3.048,2.755-4.654,4.148c0.038-1.988,0.005-3.965-0.138-5.898    C391.843,234.044,391.785,228.655,391.73,223.272z M393.655,250.347c1.229-1.301,2.915-2.373,4.128-3.516    c2.067-1.948,3.923-4.132,5.926-6.159c1.145-1.159,3.409-2.978,5.023-4.942c0.266,2.606,0.435,5.219,0.42,7.847    c-0.034,5.949-0.371,12.254-1.331,18.324C404.025,257.174,398.541,253.861,393.655,250.347z M405.122,226.313    c-3.599-1.991-6.978-4.765-10.641-6.593c-0.393-0.196-1.152-0.543-1.558-0.809c0.925-1.536,3.022-2.776,4.273-3.906    c1.982-1.79,5.46-4.114,7.523-6.709c0.38,3.598,0.786,7.198,1.413,10.78c0.505,2.889,1.038,5.779,1.514,8.676    C406.785,227.195,405.872,226.729,405.122,226.313z M401.708,199.897c-3.669-1.706-7.24-3.499-10.897-5.196    c1.52-3.381,2.725-6.976,4.164-10.389c0.776-1.843,2.373-4.47,3.39-6.879c1.377,3.995,2.603,8.068,3.625,12.263    c0.911,3.737,1.479,7.511,1.934,11.302C403.217,200.589,402.441,200.238,401.708,199.897z M385.999,230.325    c-0.056,0.005-0.114,0.006-0.169,0.014c-4.181,0.658-8.388,0.396-12.597,0.493c-3.862,0.089-7.704,0.63-11.585,0.435    c-9.702-0.486-19.404-0.85-29.126-1.25c-8.958-0.369-17.804,0.076-26.733,0.23c-4.227,0.073-8.34,0.311-12.558,0.532    c-4.294,0.225-8.624-0.164-12.875,0.353c-0.075-2.071-0.367-4.131-0.907-6.115c8.053-2.219,15.826-6.174,23.925-8.315    c9.048-2.393,18.132-4.501,27.148-6.97c9.261-2.537,18.316-5.827,27.399-8.889c4.415-1.488,8.885-2.774,13.238-4.42    c2.76-1.044,8.698-4.391,12.078-4.682c1.445,5.084,2.493,10.332,2.856,15.443C386.633,214.84,385.833,222.632,385.999,230.325z     M280.321,234.001c8.271,1.39,17.166,0.184,25.466,0.184c9.668,0,19.231-0.427,28.936-0.034    c9.984,0.405,19.974,1.256,29.954,1.222c3.76-0.013,7.466-0.372,11.228-0.368c3.374,0.002,6.94,0.291,10.246-0.555    c0.286,6.148,0.545,12.18,0.172,18.384c-0.205,3.402-0.727,6.787-1.396,10.154c-1.074,2.536-1.68,5.476-2.403,7.726    c-1.165,3.621-2.445,7.297-3.856,10.854c-3.035-2.603-7.774-4.103-11.275-5.76c-4.6-2.177-9.03-4.506-13.703-6.515    c-9.323-4.009-18.319-8.759-27.592-12.887c-3.794-1.69-7.784-3.168-11.735-4.452c-4.572-1.487-8.941-3.561-13.498-5.062    c-4.351-1.433-8.645-3.039-12.974-4.583c-2.66-0.949-5.563-2.481-8.448-3.241C279.897,237.407,280.2,235.711,280.321,234.001z     M257.878,420.752c-2.105-0.069-6.064-4.123-7.836-5.404c-4.975-3.598-9.521-7.991-13.718-12.458    c-2.153-2.292-4.104-4.571-5.799-7.24c-0.087-0.136-0.171-0.274-0.256-0.414c8.235,1.704,17.202,1.988,25.493,2.376    c9.18,0.43,17.911-0.914,26.788-2.692c-2.593,2.998-4.943,6.293-7.503,9.241c-3.605,4.153-7.095,8.11-11.203,11.793    C262.429,417.22,259.933,420.819,257.878,420.752z M270.271,458.323c-5.555,11.488-26.332,6.615-31.267-3.205    c-3.535-7.032,0.156-16.209,6.444-20.331c1.664-1.093,3.446-1.969,5.281-2.73c1.955-0.576,4.04-0.915,6.243-0.964    C270.493,430.788,275.442,447.626,270.271,458.323z M172.628,344.977c0.26,0.215,0.525,0.426,0.783,0.642    c4.523,3.771,9.579,6.33,14.819,8.673c-2.424,0.802-4.864,1.492-7.285,2.329c-2.759,0.953-5.637,3.286-8.571,4.199    c-0.088-3.01,0.076-6.066,0.066-9.05C172.433,349.765,172.716,347.278,172.628,344.977z M182.148,360.979    c3.018-1.091,6.13-1.688,9.031-3.026c-0.076,0.182-0.154,0.362-0.231,0.543c-1.663,3.93-3.573,8.407-4.837,12.69    c-3.845-2.171-7.681-4.321-11.487-6.547C177.174,363.566,179.56,361.914,182.148,360.979z M185.198,347.325    c-4.245-2.18-7.958-4.765-11.579-7.885c-3.643-3.139-7.177-6.065-10.397-9.256c0.053-0.09,0.093-0.184,0.13-0.278    c5.422-6.499,11.165-12.831,17.241-18.717c7.891-7.647,15.058-15.969,23.118-23.458c6.383-5.931,13.377-11.398,20.203-16.81    c3.89-3.086,7.377-6.378,10.648-9.872c-2.638,5.263-5.088,10.605-7.52,16.014c-2.465,5.481-5.123,10.72-7.225,16.374    c-2.203,5.925-5.736,11.257-7.933,17.109c-3.804,10.138-9.37,19.747-13.362,29.797c-1.48,3.727-3.025,7.415-4.582,11.095    C191.236,349.796,188.008,348.767,185.198,347.325z M194.218,366.812c1.112-2.939,1.809-5.888,3.109-8.781    c2.259-5.023,3.807-10.32,5.931-15.411c4.287-10.275,9.377-20.38,13.54-30.721c2.216-5.503,5.387-10.612,7.51-16.203    c2.336-6.156,5.224-12.06,7.548-18.198c1.902-5.02,4.03-9.845,6.377-14.652c1.848-3.788,4.132-7.534,5.141-11.624    c1.819,1.181,3.802,2.094,5.871,2.747c-1.711,2.897-2.777,6.598-3.704,9.491c-1.75,5.458-3.344,11.013-4.946,16.52    c-3.375,11.602-7.021,23.15-10.461,34.727c-3.514,11.823-7.877,23.361-11.612,35.088c-1.791,5.623-3.725,11.184-5.396,16.856    c-1.365,4.635-3.385,10.099-3.911,15.065c-6.153-2.102-12.189-4.474-17.914-7.613    C192.045,371.584,193.286,369.274,194.218,366.812z M258.889,341.057c-0.035-12.113,0.645-24.159,0.729-36.246    c0.069-9.817,0.466-19.644,0.984-29.434c0.353-6.673,1.324-13.835,0.032-20.449c0.408-0.054,0.819-0.101,1.223-0.174    c0.539,2.122,0.652,4.741,1.12,6.635c0.713,2.882,1.738,5.684,2.675,8.5c1.857,5.576,4.175,10.781,6.298,16.24    c4.406,11.333,7.547,23.338,10.248,35.196c3.178,13.949,7.849,27.366,12.303,40.872c-11.887,4.235-24.429,4.528-36.952,4.423    C259.455,358.585,258.914,349.25,258.889,341.057z M258.123,388.685c-0.524-0.651-1.049-1.302-1.572-1.953    c-1.146-1.444-2.376-2.891-3.463-4.374c-2.391-3.263-4.003-6.597-5.931-10.115c-0.233-0.426-0.469-0.805-0.707-1.159    c2.545,0.204,5.088,0.326,7.608,0.312c5.321-0.028,10.598,0.008,15.879-0.117c-1.494,2.468-3.842,4.853-5.373,7.066    c-2.245,3.246-4.716,5.966-6.685,9.407C258.629,389.21,258.711,389.521,258.123,388.685z M254.116,390.293    c-4.154-0.128-8.301-0.382-12.406-0.693c-3.578-0.272-7.057-0.812-10.49-1.527c2.077-2.083,3.72-4.519,5.678-6.774    c1.071-1.233,1.969-2.364,2.862-3.733c0.3-0.46,2.802-4.85,2.683-4.817C242.583,372.709,250.228,384.907,254.116,390.293z     M255.238,303.709c-0.129,11.287-0.834,22.528-0.882,33.84c-0.022,5.192-0.387,10.285-0.35,15.459    c0.02,2.754-0.232,5.522-0.488,8.265c-0.099,1.059-0.228,2.116-0.349,3.173c-0.1,0.862,0.152,2.031-0.853,2.122    c-2.105,0.189-4.402-0.167-6.499-0.364c-4.382-0.412-8.735-1.076-13.116-1.499c-3.739-0.362-7.88-1.579-11.814-1.8    c1.433-4.461,2.99-8.911,4.205-13.411c3.262-12.079,8.719-23.559,11.619-35.794c2.743-11.574,7.015-22.675,10.303-34.092    c1.49-5.17,2.858-10.428,4.457-15.554c0.863-2.769,2.615-6.018,2.641-9.048c1.284,0.149,2.579,0.199,3.868,0.158    C257.876,271.346,255.425,287.458,255.238,303.709z M215.453,383.234c0.102-2.863,1.481-5.802,2.143-8.578    c0.388-1.627,0.81-3.237,1.25-4.843c0.728,2.767,1.834,5.511,2.76,8.096c0.992,2.775,1.938,5.861,3.232,8.637    c-3.153-0.846-6.29-1.8-9.452-2.807C215.414,383.575,215.447,383.413,215.453,383.234z M224.798,374.872    c-0.97-2.879-2.388-5.281-3.865-7.837c4.116,1.342,8.312,1.947,12.806,2.56c1.98,0.27,3.979,0.538,5.99,0.786    c-0.27,0.292-0.542,0.606-0.82,0.97c-3.258,4.272-6.362,9.344-10.264,13.221C227.101,381.483,225.768,377.753,224.798,374.872z     M269.438,390.008c-2.709,0.216-5.434,0.32-8.165,0.355c1.836-2.798,3.623-5.407,5.682-8.094c2.009-2.62,4.802-5.66,6.663-8.834    c3.626,4.614,6.939,9.471,10.811,13.898C279.441,388.576,274.392,389.612,269.438,390.008z M280.364,375.323    c-1.149-1.416-2.237-2.883-3.34-4.337c0.619-0.038,1.237-0.072,1.857-0.116c4.209-0.307,9.244-0.71,13.547-2.254    c-0.776,2.177-1.582,4.337-2.481,6.49c-0.395,0.947-1.793,6.374-2.986,8.705c-0.021-0.76-1.222-1.471-1.934-2.377    C283.438,379.408,281.988,377.325,280.364,375.323z M292.621,380.207c1.393-3.499,3.235-7.188,4.16-10.957    c1.294,4.051,2.552,8.115,3.707,12.219c-0.034,0.455,0.033,0.923,0.175,1.372c-1.264,0.413-2.537,0.805-3.826,1.156    c-2.043,0.557-4.126,1.14-6.229,1.717C291.465,383.946,291.962,381.861,292.621,380.207z M296.735,347.587    c-1.365-4.709-3.227-9.188-4.545-13.98c-1.553-5.646-3.085-11.29-4.626-16.937c-3.135-11.492-6.34-23.11-10.834-34.141    c-2.498-6.134-5.128-12.147-7.402-18.388c-1.165-3.196-2.036-7.167-3.8-10.328c1.574-0.534,3.074-1.242,4.49-2.089    c0.529,1.771,1.445,3.493,2.211,5.042c2.556,5.17,4.132,10.652,6.446,15.933c5.292,12.079,10.717,24.218,16.398,36.166    c5.26,11.062,10.78,21.963,15.541,33.169c2.069,4.87,4.514,9.573,6.635,14.407c2.244,5.116,5.42,9.94,6.91,15.357    c-5.51,3.243-11.155,6.228-17.037,8.652c-1.429-5.367-2.625-10.669-4.513-15.907C300.563,358.868,298.412,353.374,296.735,347.587    z M263.545,248.375c-5.711,1.563-11.429,1.895-16.766-1.189c-12.308-7.114-7.241-22.561,1.516-30.847    c3.059-2.138,6.43-2.946,10.687-2.226c10.992,1.859,18.859,11.489,15.254,22.94C272.445,242.749,269.452,246.758,263.545,248.375z     M173.735,114.81c-0.08-0.901-0.825-5.118-0.733-7.246c1.975,0.963,3.764,2.516,5.604,3.651c2.801,1.726,5.51,3,8.447,4.107    c-3.408,1.861-6.754,3.89-10.035,6.144c-1.26,0.866-2.496,1.778-3.723,2.713c0.212-0.941,0.326-1.901,0.422-2.717    C173.961,119.401,173.919,116.887,173.735,114.81z M176.83,105.198c0.422-0.255,0.849-0.513,1.269-0.766    c4.903-2.964,10.048-5.851,15.355-8.467c-0.718,1.78-1.419,3.524-1.993,5.381c-0.998,3.236-2.162,6.695-2.687,10.144    C184.584,109.679,180.704,107.771,176.83,105.198z M193.618,107.567c1.17-4.159,2.953-8.041,4.456-12.067    c0.961-2.573,0.292-2.309,1.975-0.297c1.216,1.456,3.644,2.898,5.256,4.137c2.371,1.821,4.845,3.543,7.591,4.68    c-7.191,2.632-14.168,5.423-20.913,8.754C192.74,111.162,193.109,109.374,193.618,107.567z M228.986,104.416    c7.283-2.029,14.62-2.122,22.083-2.843c2.857-0.276,5.843-0.544,8.84-0.691c-1.433,17.983-2.034,36.209-1.119,54.297    c0.878,17.367,0.095,35.351-1.993,52.661c-2.23-0.069-4.388,0.143-6.473,0.787c-0.823-7.274-4.105-14.981-6.621-21.555    c-4.016-10.493-7.65-21.184-11.422-31.751c-3.01-8.432-6.627-16.935-10.543-24.996c-3.203-6.591-5.117-14.026-9.048-20.267    C218.058,108.006,223.39,105.975,228.986,104.416z M240.284,94.78c-2.846-0.799-5.258-7.014-6.742-9.287    c-0.333-0.51-0.718-0.993-1.14-1.454c4.917-0.726,9.868-1.247,14.759-1.485c1.185-0.057,2.369-0.042,3.553-0.002    C247.989,86.218,242.172,95.309,240.284,94.78z M251.401,89.088c1.423-1.831,2.664-4.123,4.506-5.583    c0.375-0.297,0.654-0.547,0.897-0.755c0.629-0.001,1.256-0.011,1.885-0.047h0.006c0.169,0.148,0.358,0.327,0.579,0.548    c3.503,3.503,5.97,8.143,8.98,12.209c-1.794-0.08-3.583-0.084-5.354,0.025c-5.732,0.357-11.366,0.642-16.943,1.132    c0.175-0.232,0.347-0.464,0.518-0.695C248.172,93.623,249.651,91.339,251.401,89.088z M365.548,133.124    c-0.253,1.33-0.504,2.664-0.718,3.999c-0.364,2.266-0.808,4.602-1.106,6.936c-3.826-5.119-7.937-10.082-12.524-14.425    c1.753-0.419,3.487-0.958,4.796-1.093c2.422-0.251,6.691-1.521,8.836-0.581C366.975,128.9,366.002,130.733,365.548,133.124z     M350.502,124.839c-3.19,0.168-2.678-2.091-2.794-5.071c-0.087-2.252-0.062-4.362-0.334-6.591    c-0.074-0.604-0.114-1.288-0.176-1.988c2.003,1.357,3.99,2.729,5.944,4.122c3.372,2.404,6.635,4.973,9.766,7.693    C358.445,123.215,353.327,124.691,350.502,124.839z M353.902,141.063c-15.466,12.33-29.585,26.382-44.231,39.609    c-7.905,7.14-15.728,14.492-23.635,21.556c-3.459,3.09-7.335,5.865-10.57,9.197c-0.738,0.76-1.656,1.6-2.486,2.513    c-0.89-0.844-1.839-1.633-2.88-2.319c0-0.005,0.001-0.009,0.001-0.015c7.972-15.038,13.76-31.363,21.91-46.311    c4.6-8.437,7.749-17.876,11.694-26.641c3.805-8.45,5.722-17.473,8.427-26.247c6.675,3.112,13.205,6.593,19.455,10.098    C340.443,127.472,347.554,133.732,353.902,141.063z M306.577,103.987c-1.472-0.692-2.987-1.316-4.525-1.896    c1.665-1.182,3.272-2.488,4.989-3.508c1.898-1.127,3.797-2.074,5.759-3.066c0.516-0.26,1.304-0.827,1.838-0.889    c1.828-0.216,0.612-1.261,1.799,0.765c1.714,2.923,1.984,7.118,2.814,10.374c0.419,1.648,0.88,3.212,1.419,4.75    C315.95,108.289,311.203,106.161,306.577,103.987z M329.464,114.854c1.924-0.462,3.827-1.018,5.816-1.703    c1.648-0.568,3.345-1.158,5.001-1.691c0.717-0.204,1.433-0.408,2.15-0.611c0.012,0.103,0.033,0.215,0.095,0.359    c0.638,3.969,0.673,8.022,0.88,12.038C339.011,120.119,334.305,117.379,329.464,114.854z M333.413,109.29    c-2.246,0.871-4.877,1.396-7.231,2.321c-0.817-2.856-2.014-5.636-2.722-8.501c-0.544-2.204-1.175-4.633-1.942-7.007    c6.33,3.09,12.506,6.62,18.502,10.394C337.626,107.258,335.16,108.611,333.413,109.29z M310.714,91.293    c-1.023,0.554-2.017,1.136-2.961,1.677c-3.067,1.752-6.257,4.772-9.45,6.509c-1.086-2.336-1.683-5.13-2.384-7.451    c-0.699-2.314-1.534-4.487-2.484-6.625C299.334,86.995,305.129,89.021,310.714,91.293z M294.435,105.378    c5.22,1.651,10.412,3.726,15.532,6.035c-3.929,7.665-5.994,16.524-9.351,24.519c-4.021,9.576-8.176,19.567-13.176,28.661    c-4.115,7.485-7.116,15.587-10.656,23.334c-3.339,7.308-7.646,14.211-10.635,21.667c-1.14-0.44-2.337-0.801-3.605-1.053    c-0.416-0.083-0.828-0.154-1.24-0.224c1.692-17.235,3.119-35.175,1.877-52.475c-0.732-10.194-0.436-20.68-0.619-30.916    c-0.142-7.921,1.18-16.178,0.917-24.152c2.481-0.018,4.94,0.089,7.308,0.398C278.574,102.183,286.918,103,294.435,105.378z     M285.143,97.685c-2.771-0.466-5.61-0.939-8.462-1.351c4.141-3.386,7.117-8.578,11.721-11.287    c2.01,4.552,3.011,9.771,4.941,14.337C290.614,98.701,287.863,98.142,285.143,97.685z M273.313,94.23    c-1.511-2.098-3.203-4.15-4.771-6.16c-1.426-1.828-2.708-3.908-4.043-5.897c2.003-0.198,4.01-0.359,6.054-0.308    c4.303,0.104,8.624,0.577,12.924,1.323C279.557,86.193,276.229,90.269,273.313,94.23z M260.04,75.274    c-3.935,0.372-7.845-0.097-11.785,0.025c-4.837,0.149-9.849,0.83-14.659,1.404c-1.538,0.183-3.066,0.407-4.589,0.65    c1.683-1.993,3.184-4.202,4.318-5.41c4.304-4.587,8.525-9.244,12.863-13.797c2.619-2.749,5.239-5.197,8.246-7.546    c0.402-0.314,1.738-1.604,1.674-1.582c2.44-0.812,0.778-0.49,2.455,0.532c2.437,1.487,4.42,5.102,6.25,7.207    c2.145,2.469,4.308,4.906,6.424,7.404c3.307,3.904,6.737,7.71,10.146,11.526C274.245,74.418,267.267,74.592,260.04,75.274z     M236.544,97.701c-6.093,0.893-12.141,2.217-18.193,4.355c-0.068,0.025-0.135,0.048-0.203,0.073    c3.37-5.35,6.334-10.842,9.431-16.36C231.154,89.068,233.435,93.88,236.544,97.701z M218.611,93.202    c-1.08,2.218-2.753,4.551-3.738,6.997c-4.588-1.848-8.362-5.353-12.259-8.373c5.639-2.312,11.402-4.218,17.211-5.485    c0.874-0.191,1.755-0.372,2.635-0.551C221.131,88.235,219.83,90.7,218.611,93.202z M185.618,92.698    c-4.664,2.604-9.165,5.301-13.559,8.109c0.823-2.83,0.897-6.383,1.29-8.437c1.083-5.648,2.099-11.309,3.062-16.976    c0.507-2.981,1.307-5.843,1.872-8.807c0.344-1.805,0.226-3.007,0.493-3.589c0.311-0.129,0.623-0.257,0.935-0.385    c0.409,0.047,0.97,0.208,1.769,0.496c10.714,3.868,21.01,9.468,31.395,14.031c1.375,0.604,2.981,1.676,4.657,2.611    C206.399,82.646,195.705,87.067,185.618,92.698z M186.624,120.844c6.172-3.707,13.015-5.918,19.677-8.369    c1.324-0.487,2.638-0.984,3.948-1.484c2.681,6.844,4.731,13.903,7.794,20.592c3.979,8.69,8.192,17.805,11.022,26.923    c5.413,17.439,13.653,34.038,17.082,52.072c-0.524,0.337-1.045,0.695-1.561,1.105c-1.709,1.355-3.241,2.868-4.63,4.511    c-2.086-2.381-4.721-4.445-6.982-6.575c-3.683-3.469-7.294-7.103-10.802-10.739c-7.394-7.66-14.464-15.652-21.416-23.749    c-6.116-7.124-12.685-13.865-18.73-20.999c-3.317-3.914-6.764-7.649-10.016-11.621c-1.433-1.75-3.882-3.784-5.648-5.804    c1.379-1.288,2.777-2.544,4.202-3.745C175.599,128.717,180.969,124.242,186.624,120.844z M157.68,126.192    c3.509,0.907,7.008,1.478,10.531,2.126c-5.516,4.782-10.663,10.167-15.418,15.774c0.04-0.663,0.073-1.325-0.006-1.992    c-0.209-1.77-0.594-3.545-0.753-5.355c-0.272-3.097-0.925-6.142-1.488-9.208c-0.245-1.094-0.432-2.199-0.556-3.316    c0.507,0.083,1.005,0.203,1.495,0.359C153.157,124.414,156.027,125.765,157.68,126.192z M164.44,138.567    c1.121,1.724,2.613,3.283,3.855,4.824c2.98,3.698,6.082,7.249,9.146,10.87c6.408,7.572,13.041,14.889,19.482,22.462    c6.779,7.972,13.435,16.136,20.779,23.561c6.461,6.532,12.552,13.585,19.638,19.438c-0.036,0.056-0.079,0.109-0.114,0.165    c-0.767,1.227-1.25,2.325-1.568,3.39c-8.408-2.409-16.344-7.114-24.508-10.261c-9.379-3.615-18.971-7.342-27.957-11.909    c-8.202-4.168-16.949-7.042-25.175-11.165c-7.645-3.833-15.323-7.555-22.934-11.366c2.739-4.714,5.489-9.376,8.426-13.996    C149.338,155.414,156.475,146.346,164.44,138.567z M233.371,226.473c0.23,1.072,1,1.561,1.832,1.603    c0.033,0.639,0.08,1.298,0.142,2.013c-0.158,1.009-0.278,2.014-0.351,3.007c-3.289-0.528-6.937-0.012-10.213-0.062    c-5.48-0.083-11.009-0.664-16.49-0.939c-9.102-0.46-18.133-0.524-27.189-0.508c-9.588,0.018-19.172,1.071-28.724,0.076    c-5.22-0.543-10.34-0.579-15.553-0.944c-3.024-0.211-6.316-0.629-9.42-0.412c-0.176-4.771-0.189-9.539,0.158-14.347    c0.538-7.438,1-14.794,2.007-22.204c0.155-1.144,0.349-2.258,0.572-3.354c1.181-3.212,2.079-6.569,3.677-9.589    c1.529,1.472,3.014,2.817,5.192,3.802c5.294,2.395,10.454,5.216,15.591,7.96c8.812,4.708,18.249,7.971,27.136,12.504    c8.657,4.416,17.818,7.88,26.751,11.604c4.349,1.812,8.5,3.936,12.892,5.665c2.273,0.895,4.531,1.704,6.753,2.746    C229.14,225.562,233.704,228.024,233.371,226.473z M126.202,189.159c-0.97-4.939-6.345-8.806-7.004-13.911    c-0.432-3.341,0.165-3,3.524-3.692c2.33-0.481,4.626-1.099,6.974-1.501c1.212-0.208,3.074-0.131,4.819-0.326    C130.16,174.906,127.717,181.985,126.202,189.159z M123.011,220.703c-0.129,6.874,0.057,13.728,0.418,20.689    c-1.502-1.04-3.161-1.948-4.27-2.734c-3.589-2.543-7.35-4.807-10.795-7.543c1.362-1.036,3.159-1.663,4.474-2.631    c1.792-1.318,3.361-2.872,5.172-4.182C119.331,223.347,121.436,222.164,123.011,220.703z M120.428,210.323    c-2.583-2.945-6.552-5.43-9.121-8.588c4.668-1.898,9.145-4.306,13.779-6.325c-0.435,2.911-0.765,5.752-1.049,8.389    c-0.341,3.18-0.578,6.331-0.751,9.471C122.318,212.173,121.175,211.175,120.428,210.323z M123.448,251.84    c0.224-0.201,0.452-0.407,0.678-0.617c0.592,5.526,1.608,11.009,2.926,16.429c-1.413-1.257-3.061-2.081-4.905-3.223    c-2.538-1.573-6.106-2.771-8.802-4.453C116.405,256.914,120.211,254.742,123.448,251.84z M123.635,191.536    c-4.586,1.28-8.69,3.755-13.05,5.59c0.552-3.018,1.167-6.024,1.86-9.012c0.774-3.333,1.638-6.815,2.626-10.203    C117.029,182.765,121.061,187.717,123.635,191.536z M114.513,210.857c0.89,0.856,5.857,5.026,5.666,6.374    c-0.194,1.364-8.538,6.859-10.084,7.884c-0.827,0.548-1.71,1.029-2.579,1.525c0.175-6.895,0.725-13.781,1.647-20.617    C110.912,207.727,112.878,209.286,114.513,210.857z M120.221,244.694c0.362,0.3,3.168,2.246,3.157,2.722    c0.012-0.513-7.071,4.603-6.594,4.25c-2.622,1.933-5.157,3.724-7.315,6.123c-0.575-3.473-1.033-6.989-1.342-10.572    c-0.324-3.758-0.53-7.524-0.622-11.293C111.722,238.887,116.222,241.379,120.221,244.694z M117.105,266.436    c2.748,1.536,5.43,3.162,8.271,4.514c-1.02,1.446-1.894,3.004-2.797,4.578c-1.888,3.292-4.146,6.645-5.874,10.062    c-2.562-7.397-4.686-14.826-6.242-22.447C112.557,264.404,115.072,265.298,117.105,266.436z M119.815,288.454    c0.174-1.47,2.035-3.436,2.744-4.777c0.936-1.769,1.832-3.557,2.777-5.324c0.983-1.837,1.85-4.089,2.895-6.129    c1.75,6.357,3.874,12.614,6.182,18.729c0.374,0.992,0.783,1.982,1.182,2.973c-0.323-0.107-0.653-0.213-1.002-0.324    c-3.496-1.108-7.009-2.159-10.523-3.214c-1.078-0.324-2.346-0.406-3.344-0.923c-0.807-0.419-1.087-0.392-1.151-0.367    C119.633,289.067,119.758,288.93,119.815,288.454z M133.131,271.319c-2.24-9.606-4.354-18.609-5.019-28.504    c-0.219-3.253-0.434-6.487-0.592-9.717c4.704,0.859,21.441,2.356,22.82,2.51c9.907,1.106,19.75,0.171,29.686,0.195    c8.779,0.02,17.502,0.15,26.29,0.543c5.209,0.232,10.378,0.636,15.575,1.002c3.818,0.27,8.461-0.491,12.302,0.178    c0.239,0.206,0.528,0.347,0.862,0.399c0.14,1.291,0.381,2.554,0.764,3.773c-17.18,8.169-34.669,15.451-52.312,22.537    c-8.74,3.51-17.722,6.167-26.499,9.593c-6.332,2.471-14.994,3.671-20.895,7.79C134.962,278.213,133.937,274.775,133.131,271.319z     M137.177,148.713c3.868,0.083,7.686,0.296,11.55,0.362c-1.735,2.182-3.429,4.374-5.046,6.562c-1.8,2.437-3.468,5.13-5.046,7.899    c-1.311-4.006-5.127-8.871-5.967-11.372c-0.345-1.025-0.384-3.375-1.151-3.996C133.305,148.176,136.359,148.694,137.177,148.713z     M132.674,143.951c3.535-4.793,7.245-9.405,11.176-13.98c0.678-0.789,1.383-1.556,2.102-2.313c0.594,3.37,1.994,7.011,2.303,9.771    c0.257,2.289,0.483,4.87,1.013,7.265c-4.647-0.027-9.275-0.208-13.917-0.402C134.625,144.262,133.676,144.087,132.674,143.951z     M134.015,164.88c-0.292,0.828-12.201,2.192-13.755,2.512c-0.435,0.089-0.87,0.181-1.302,0.276    c0.753-1.525,1.542-3.045,2.288-4.568c2.301-3.713,3.998-8.075,6.283-11.788c0.462,1.412,1.016,2.728,1.349,3.622    c0.681,1.828,1.375,3.645,2.397,5.29C131.798,161.062,134.381,163.843,134.015,164.88z M120.303,153.422    c-3.839,8.562-9.009,16.074-11.569,25.207c-1.839,6.557-3.292,13.057-4.419,19.569c-1.588-3.633-4.33-7.287-6.193-9.874    c-4.878-6.778-10.233-13.152-14.639-20.276c-0.574-0.927-1.207-2.071-1.948-3.025c0.095-0.034,0.19-0.067,0.285-0.087    c3.809-0.787,7.233-3.205,10.771-4.664c7.072-2.913,14.247-5.596,21.38-8.398c2.187-0.859,5.481-1.507,8.36-2.562    C121.62,150.655,120.935,152.013,120.303,153.422z M103.385,261.097c-1.995-1.874-4.646-3.515-6.305-4.893    c-3.622-3.006-7.132-6.268-10.565-9.497c-4.544-4.274-9.665-8.047-14.394-12.156c3.048-2.232,5.849-5.609,8.549-7.704    c4.519-3.509,8.707-7.655,12.99-11.513c2.14-1.928,6.347-4.148,9.147-6.849c-1.07,8.88-1.572,17.845-1.597,27.068    C101.185,244.085,101.946,252.633,103.385,261.097z M105.049,269.552c3.811,16.935,10.3,33.394,18.737,48.578    c-6.704-2.183-13.336-4.513-20.13-6.483c-3.734-1.084-7.546-1.651-11.284-2.725c-2.6-0.746-5.247-1.726-7.918-2.374    c1.27-2.879,3.202-5.876,4.282-8.516c1.784-4.356,3.838-8.527,6.157-12.632c2.379-4.208,5.39-8.016,7.874-12.162    C103.461,272.084,104.359,270.848,105.049,269.552z M121.078,297.282c-0.521-1.303-1.026-2.603-1.525-3.902    c0.165,0.05,0.33,0.102,0.502,0.154c3.615,1.07,7.236,2.147,10.83,3.283c0.909,0.287,4.472,0.912,4.894,1.696    c0.133,0.246-2.497,5.409-2.672,5.789c-1.453,3.17-2.844,6.133-3.85,9.428C126.248,308.387,123.363,303.002,121.078,297.282z     M132.714,317.907c0.882-1.744,1.034-4.079,1.737-5.919c1.322-3.459,3.147-6.731,4.582-10.146    c2.773,5.93,5.922,11.759,9.384,17.309c-1.156-0.039-2.28-0.033-3.173-0.076c-3.501-0.169-7.756-0.989-11.194-0.582    c-0.46-0.052-0.919-0.104-1.378-0.157C132.687,318.2,132.7,318.069,132.714,317.907z M145.243,323.443    c0.893,0.038,4.857,0.023,5.117,0.401c0.406,0.588-0.339,1.709-0.493,2.396c-0.903,4.049-1.685,7.928-2.153,12.049    c-0.099,0.871-0.308,2.084-0.447,3.377c-4.926-5.521-9.067-12.287-12.79-18.768C138.065,323.208,141.631,323.293,145.243,323.443z     M141.84,296.477c-1.6-3.816-3.168-7.703-4.596-11.637c2.483-0.59,4.966-1.872,7.254-2.714c4.374-1.608,8.907-2.479,13.218-4.146    c9.445-3.65,19.129-6.535,28.602-10.129c9.569-3.63,19.214-7.314,28.612-11.38c4.748-2.054,9.294-4.573,14.08-6.571    c2.983-1.244,6.005-2.418,8.715-4.155c0.758,1.165,1.68,2.272,2.813,3.302c0.117,0.107,0.242,0.204,0.361,0.308    c-0.528,0.893-1.039,1.79-1.547,2.687c-11.965,11.974-25.949,21.489-38.383,32.94c-7.877,7.255-14.784,15.429-22.563,22.761    c-6.39,6.023-12.556,12.541-18.075,19.387c-2.315-2.622-4.405-5.489-6.17-8.826C150.222,310.873,145.094,304.244,141.84,296.477z     M152.053,340.032c0.331-3.521,0.536-7.096,1.403-10.553c0.148-0.588,0.368-1.236,0.602-1.911    c0.096,0.133,0.186,0.272,0.283,0.405c3.451,4.768,7.981,8.665,12.599,12.403c-1.474,0.346-2.926,0.859-4.375,1.222    c-3.038,0.761-6.011,0.816-8.958,1.793c-0.661,0.176-1.305,0.399-1.942,0.643C151.663,342.698,151.932,341.326,152.053,340.032z     M153.77,347.978c1.98-0.687,3.718-0.791,5.767-1.125c2.878-0.47,5.802-1.936,8.731-2.367c0.385,2.913-0.221,6.642-0.23,9.249    c-0.008,2.242-0.128,4.521-0.111,6.781c-3.196-2.307-5.932-5.233-8.948-7.763c-1.77-1.485-3.591-3.076-5.37-4.715    C153.662,348.019,153.718,347.996,153.77,347.978z M217.834,391.943c-0.637,0.31-1.269,0.61-1.893,0.859    c-5.055,2.018-9.71,4.844-14.624,7.206c-3.028,1.456-6.069,2.863-9.149,4.206c-0.802,0.35-1.777,1.085-2.741,1.783    c-6.3-8.656-13.368-17.24-17.413-27.219c-1.391-3.429-2.863-6.77-4.117-10.256c-0.034-0.095-0.068-0.201-0.102-0.299    C182.958,378.772,200.172,386.604,217.834,391.943z M218.555,396.778c1.77-0.707,4.361-2.435,6.267-1.322    c0.861,0.502,1.453,2.388,2.004,3.239c1.436,2.218,3.021,4.255,4.805,6.196c3.916,4.263,8.201,8.59,12.698,12.247    c1.437,1.168,3.225,2.762,5.139,4.297c-0.633-0.057-1.264-0.102-1.899-0.175c-7.537-0.867-15.119-1.674-22.696-3.069    c-11.214-2.065-22.3-5.112-32.94-9.108C201.171,406.383,209.85,400.259,218.555,396.778z M320.02,412.789    c-3.801,1.464-7.579,2.387-11.305,4.105c-5.44,2.508-11.739,4.357-17.611,5.514c-4.232,0.833-8.502,1.288-12.79,1.577    c-0.244-0.273-0.567-0.48-0.979-0.559c-4.154-0.808-8.297-1.11-12.443-1.28c0.916-0.982,1.764-1.94,2.526-2.619    c8.165-7.274,15.254-15.879,21.827-24.616c3.643,0.663,7.783,4.06,11.269,5.334c4.917,1.797,9.801,3.638,14.682,5.536    c3.59,1.396,6.879,3.283,10.276,5.003C323.617,411.446,321.79,412.107,320.02,412.789z M323.806,404.327    c-5.816-2.992-12.144-5.199-18.289-7.403c-3.759-1.349-7.353-2.739-10.844-4.689c-0.041-0.023-0.079-0.042-0.12-0.064    c5.692-1.512,11.354-3.338,16.693-5.522c9.264-3.788,17.947-9.101,26.214-14.78c1.349-0.927,2.695-1.823,4.042-2.71    c-0.083,1.559-0.134,3.124-0.418,4.457c-0.808,3.788-1.684,7.475-2.941,11.13c-1.851,5.382-3.644,10.844-5.241,16.304    c-0.427,1.461-1.31,6.769-2.155,7.117C330.28,408.358,324.678,404.775,323.806,404.327z M324.936,357.258    c1.766,0.875,3.779,1.325,5.73,2.025c3.008,1.08,6.455,1.403,9.479,2.482c-3.331,2.151-6.669,4.311-10.049,6.424    C328.792,364.375,326.816,360.824,324.936,357.258z M333.83,355.935c-2.35-0.536-4.734-1.443-7.126-2.116    c1.66-0.867,3.224-2.095,4.772-3.104c3.595-2.344,6.865-4.887,10.124-7.559c0.023,4.853,0.7,9.767,0.325,14.658    C339.333,356.92,336.439,356.529,333.83,355.935z M335.203,341.733c-1.953,1.498-4.021,2.747-6.053,4.121    c-1.975,1.336-5.107,3.671-7.455,4.424c-0.06,0.019-0.114,0.049-0.171,0.073c-1.356-2.898-2.658-5.828-3.931-8.72    c-4.764-10.822-9.904-21.312-15.139-31.983c-3.162-6.446-6.189-12.948-9.273-19.43c-2.508-5.27-4.323-10.924-7.058-16.063    c-4.422-8.31-6.774-17.624-12.583-25.067c0.5-0.464,0.975-0.959,1.43-1.475c0.728,0.946,1.305,2.051,1.989,2.937    c1.404,1.818,3.12,3.303,4.416,5.225c2.382,3.531,5.151,6.392,7.994,9.596c7.039,7.938,13.876,16.022,20.919,23.912    c6.367,7.134,13.237,13.966,19.169,21.478c5.594,7.085,12.555,13.003,18.282,19.962c-0.191,0.174-0.374,0.359-0.566,0.53    C343.221,334.773,339.403,338.512,335.203,341.733z M347.223,338.425c5.09-4.419,10.103-9.367,14.476-14.704    c1.147,5.523,2.835,11.552,2.462,16.891C358.657,339.321,352.87,338.989,347.223,338.425z M350.8,327.779    c-1.447-2.483-3.664-4.41-5.692-6.55c-3.605-3.807-7.51-7.44-10.816-11.514c-6.643-8.186-13.851-15.723-20.878-23.561    c-7.267-8.106-14.278-16.423-21.715-24.424c-3.339-3.594-6.391-7.543-9.875-10.952c-1.826-1.786-3.339-3.764-5.383-5.07    c0.59-0.859,1.135-1.762,1.594-2.743c0.116-0.249,0.204-0.509,0.311-0.761c2.848,1.206,5.665,2.764,8.508,3.87    c4.721,1.836,9.555,3.529,14.223,5.457c8.429,3.481,17.222,5.991,25.46,9.938c8.256,3.955,16.486,8.066,24.876,11.725    c8.487,3.703,16.774,9.6,25.691,12.19c-3.061,7.294-6.284,15.05-10.403,21.713C362.142,314.469,356.924,321.598,350.8,327.779z     M375.018,321.129c2.481-0.012,4.901-0.006,7.351-0.121c-0.391,0.576-0.785,1.147-1.154,1.738    c-3.269,5.241-7.954,10.465-12.627,15.156c-0.304-5.8-2.158-11.704-2.944-17.38C368.59,320.265,372.513,321.141,375.018,321.129z     M373.817,316.479c-1.952,0.113-4.261-0.307-6.493-0.462c0.286-0.447,0.595-0.884,0.869-1.335    c2.476-4.07,4.784-8.332,6.892-12.678c0.45,1.253,1.04,2.468,1.441,3.443c1.345,3.275,4.987,7.146,6.057,10.875    C379.651,316.419,376.761,316.309,373.817,316.479z M380.026,290.638c1.318-3.465,2.424-6.946,3.439-10.441    c0.326-0.1,0.622-0.334,0.817-0.744c0.554-1.153,1.071-2.284,1.569-3.408c2.985,2.78,5.779,5.913,8.025,9.261    c1.145,1.706,2.85,3.914,3.898,6.099c-4.946,1.049-9.918,1.954-14.853,3.081c-1.448,0.331-3.222,0.463-4.817,0.901    C378.775,293.806,379.422,292.223,380.026,290.638z M397.743,283.045c-2.22-3.484-5.084-6.749-8.104-9.667    c5.353-2.39,11.935-2.775,17.081-5.854c-0.209,0.877-0.423,1.752-0.669,2.61c-0.942,3.302-1.577,6.643-2.644,9.898    c-0.917,2.797-1.776,5.589-2.058,8.53C400.26,286.639,398.865,284.805,397.743,283.045z M410.478,282.462    c0.216-0.534,0.422-1.071,0.602-1.62c0.932-2.848,1.26-5.89,2.085-8.748c0.084-0.292,0.15-0.586,0.229-0.88    c1.714,4.202,3.712,8.277,5.248,12.565c2.638,7.358,5.996,14.505,8.619,21.825c-2.448,0.678-5.286,0.956-7.621,1.534    c-4.286,1.061-8.117,2.456-12.176,4.167c-4.193,1.769-8.502,3.682-12.826,5.414c2.126-2.615,4.219-5.084,5.995-8.189    C405.116,300.696,409.301,291.538,410.478,282.462z M414.659,224.198c-0.734-4.811-1.416-9.603-2.057-14.406    c2.515,2.916,5.413,5.311,8.341,7.891c3.778,3.329,7.495,6.552,11.411,9.672c2.529,2.015,5.976,4.281,8.407,6.788    c-5.631,4.397-11.55,8.32-16.897,13.17c-2.577,2.336-5.359,4.453-7.893,6.828c0.125-1.44,0.25-2.882,0.384-4.32    C417.159,241.182,415.959,232.713,414.659,224.198z M421.214,173.493c-1.765,3.128-2.895,6.59-4.573,9.803    c-2.062,3.945-3.958,7.964-5.83,11.994c-1.99-14.008-7.605-28.364-13.8-40.848c-0.782-1.576-1.611-3.113-2.468-4.627    c5.2,1.701,10.177,3.916,15.103,6.442c3.429,1.759,6.902,3.49,10.418,5.078c1.719,0.776,4.788,1.308,6.717,2.391    C425.247,167.079,422.972,170.378,421.214,173.493z M406.554,122.568c7.39,11.248,13.259,23.097,18.539,35.31    c-3.408-1.403-6.756-2.861-10.076-4.539c-7.735-3.91-15.458-7.483-23.867-9.61c-0.055-3.045,0.49-6.123,0.497-9.163    c0.008-4.077-0.765-8.108-1.135-12.161c-0.561-6.12-1.102-12.351-1.549-18.523C395.317,109.673,401.783,115.307,406.554,122.568z     M389.403,79.154c2.489-7.468,11.596-11.326,18.953-9.78c1.949,0.409,3.828,1.053,5.663,1.817    c1.787,0.979,3.499,2.217,5.088,3.743c9.757,9.367,1.317,24.755-9.912,28.637c-4.069,1.407-8.037,0.266-11.381-2.255    c-0.144-0.13-0.278-0.266-0.423-0.395c-0.664-0.591-1.323-1.179-1.984-1.769C390.289,93.761,387.398,85.172,389.403,79.154z     M395.735,170.426c-0.24-0.075-0.483-0.149-0.727-0.22c-2.646-0.772-5.373-1.277-8.023-2.052    c-0.575-0.169-5.152-0.992-6.621-1.513c0.572-0.29,1.214-2.355,1.506-2.934c1.02-2.03,2.242-4.003,3.32-6.013    c0.699-1.302,1.65-2.863,2.25-4.481C390.581,158.828,393.349,164.543,395.735,170.426z M385.688,122.403    c0.355,4.018,1.07,8.134,1.097,12.161c0.008,1.094-0.066,2.191-0.158,3.289c-6.111-7.998-13.259-15.13-21.04-21.734    c-5.007-4.249-10.22-8.208-15.602-11.916c4.188-0.171,8.422-0.783,12.506-1.053c6.91-0.456,14.62-0.263,21.691,0.256    C384.591,109.728,385.133,116.123,385.688,122.403z M342.921,69.382c8.422,4.924,16.598,9.782,24.405,15.714    c5.55,4.218,10.898,8.895,16.06,13.643c-2.746-0.021-5.512,0.141-8.247,0.104c-3.965-0.053-7.945-0.613-11.906-0.293    c-5.586,0.45-11.143,0.823-16.586,2.042c-4.218-9.057-6.662-18.951-11.323-27.699c-1.416-2.658-2.632-5.722-4.058-8.576    c0.353,0.163,0.711,0.306,1.061,0.475C335.813,66.47,339.569,67.424,342.921,69.382z M328.576,21.632    c1.949-0.409,3.928-0.575,5.915-0.615c2.03,0.177,4.096,0.623,6.164,1.38c12.701,4.651,11.163,22.134,2.444,30.205    c-9.363,8.668-26.928-3.451-27.942-14.394C314.432,30.372,321.218,23.175,328.576,21.632z M275.08,47.093    c1.95,0.201,3.611,0.734,5.197,0.725c1.57,0.344,3.14,0.687,4.703,1.056c10.68,2.515,21.3,5.76,31.568,9.65    c1.063,0.402,2.123,0.792,3.184,1.183c-4.503,2.225-8.512,5.117-12.845,7.649c-2.415,1.411-5.125,2.71-7.666,3.881    c-2.022,0.931-6.211,3.32-8.354,3.676c-5.221,0.867-9.168-6.914-12.457-10.248c-4.783-4.847-9.102-10.26-13.469-15.486    c-0.521-0.623-1.074-1.389-1.672-2.172C267.201,46.937,271.274,46.702,275.08,47.093z M239.004,29.962    c-3.537-7.032,0.155-16.209,6.442-20.331c1.665-1.092,3.447-1.969,5.282-2.73c1.955-0.576,4.04-0.915,6.243-0.964    c13.522-0.304,18.47,16.535,13.299,27.231C264.716,44.655,243.939,39.782,239.004,29.962z M189.449,58.808    c10.367-3.827,21.049-5.966,31.766-8.386c5.134-1.159,10.199-2.165,15.384-3.157c1.873-0.359,3.85-0.46,5.739-0.807    c2.424,0.658,5.184,0.825,7.939,0.821c-1.946,1.617-3.867,3.222-5.659,5.067c-4.405,4.534-8.675,9.197-12.951,13.854    c-2.179,2.373-4.317,4.752-6.446,7.168c-2.103,2.386-2.698,3.121-5.912,1.363c-9.751-5.331-20.369-9.155-30.445-14.004    c-0.578-0.278-1.205-0.618-1.864-0.982C187.821,59.435,188.621,59.113,189.449,58.808z M151.865,37.185    c0.426-12.752,21.397-16.711,29.886-9.731c6.08,4.999,6.42,14.883,2.341,21.199c-1.08,1.674-2.355,3.196-3.724,4.635    c-0.405,0.344-0.826,0.674-1.26,0.995c-3.02,1.166-6.004,2.417-8.957,3.74C159.953,58.838,151.521,47.45,151.865,37.185z     M139.102,85.649c7.337-5.481,14.882-11.221,23.111-15.224c3.636-1.769,7.243-3.414,10.87-5.005    c-0.073,0.518-0.152,1.015-0.253,1.47c-1.298,5.898-2.665,11.856-3.642,17.82c-0.59,3.604-1.079,7.22-1.709,10.819    c-0.717,4.09-0.565,4.135-4.201,3.94c-8.032-0.433-16.149,0.171-24.154-0.425c-4.915-0.366-9.821-0.873-14.719-0.745    C129.155,93.93,133.867,89.56,139.102,85.649z M157.485,104.174c1.989,0.114,5.062,0.929,7.817,1.098    c-6.797,4.684-13.332,9.728-19.72,15.314c-5.821,5.091-11.405,11.779-15.763,18.434c-0.776,0.407-1.559,0.788-2.238,1.356    c-0.131-0.463-0.265-0.922-0.38-1.363c-0.99-3.804-1.102-7.451-1.498-11.375c-0.844-8.373-2.171-16.936-3.983-25.188    C133.552,104.042,145.575,103.495,157.485,104.174z M86.928,88.737c-4.257-12.029,13.823-23.367,24.274-19.966    c7.485,2.435,11.409,11.514,9.916,18.883c-0.395,1.952-1.026,3.835-1.776,5.675c-0.242,0.448-0.498,0.891-0.773,1.33    c-2.463,2.45-5.047,4.771-7.628,7.097C101.833,105.618,90.278,98.205,86.928,88.737z M84.199,150.747    c4.186-9.01,9.648-17.247,14.711-25.738c4.085-6.849,10.099-12.912,16.14-18.32c0.549-0.337,1.079-0.704,1.594-1.099    c1.088,6.997,2.603,13.918,3.351,20.955c0.371,3.483,0.29,7.168,0.988,10.607c0.399,1.968,1.099,3.874,1.567,5.835    c-2.014,1.27-4.955,1.807-6.987,2.501c-2.713,0.925-5.366,2.062-8.046,3.074c-6.459,2.442-12.967,4.962-19.269,7.778    c-2.449,1.094-4.938,1.954-7.416,2.88C81.845,156.357,82.916,153.509,84.199,150.747z M42.638,169.065    c-8.735-9.301,3.257-26.953,14.194-28.044c7.832-0.781,15.077,5.953,16.673,13.3c0.423,1.946,0.603,3.924,0.657,5.91    c-0.163,2.031-0.594,4.099-1.336,6.174C68.265,179.138,50.772,177.726,42.638,169.065z M70.22,210.551    c0.507-9.167,1.933-18.313,3.703-27.339c0.677-3.453,1.581-6.929,2.515-10.35c0.538-0.938,0.995-1.932,1.389-2.96    c1.855,2.842,3.659,5.706,5.644,8.474c4.316,6.023,9.587,11.336,13.203,17.862c0.809,1.46,3.653,5.436,3.286,7.348    c-0.401,2.083-6.332,5.039-7.978,6.446c-4.729,4.045-9.207,8.421-13.767,12.612c-1.778,1.634-3.835,2.994-5.568,4.697    c-1.04,1.023-2.06,2.625-3.13,3.996C69.534,224.414,69.836,217.482,70.22,210.551z M56.854,338.269    c-12.749-0.517-16.557-21.516-9.516-29.956c5.042-6.044,14.929-6.313,21.216-2.19c1.665,1.093,3.18,2.377,4.608,3.758    c1.308,1.563,2.449,3.341,3.372,5.342C82.197,327.506,68.724,338.752,56.854,338.269z M82.399,298.559    c-0.494,1.149-1.109,2.28-1.728,3.413c-4.349-13.737-6.641-28.16-9.059-42.316c-1.249-7.3-1.836-14.634-2.026-21.985    c3.313,3.657,7.819,6.881,10.987,9.847c3.034,2.842,5.991,5.845,8.927,8.798c2.735,2.751,7.879,5.55,9.803,8.849    c1.738,2.983-3.648,8.534-5.397,11.176c-2.343,3.54-4.209,7.273-6.271,10.974C85.578,291.006,84.071,294.665,82.399,298.559z     M107.94,403.574c-12.059,4.171-23.267-13.99-19.793-24.416c2.489-7.467,11.596-11.326,18.953-9.78    c1.949,0.409,3.827,1.053,5.661,1.817c1.787,0.979,3.499,2.217,5.088,3.743C127.607,384.304,119.168,399.691,107.94,403.574z     M121.174,346.669c-0.773,5.997-1.172,11.78-1.178,17.702c-1.156-1.081-2.302-2.171-3.428-3.277    c-0.842-0.827-1.731-1.594-2.633-2.341c-8.806-12.975-19.056-25.18-26.165-39.165c-1.242-2.444-2.371-4.929-3.413-7.445    c2.241,0.576,4.52,1.398,6.582,1.975c4.029,1.126,8.101,1.844,12.124,2.988c7.265,2.067,14.298,4.669,21.459,7.005    C124.607,331.405,122.092,339.539,121.174,346.669z M125.161,366.974c0.352-7.163,0.869-14.193,1.78-21.349    c0.71-5.578,2.355-11.531,2.906-17.329c2.006,3.143,4.089,6.222,6.254,9.22c6.797,9.416,14.902,17.701,23.92,24.909    c-2.614,0.386-5.471,1.312-7.656,1.608c-3.802,0.514-7.536,1.228-11.348,1.597c-4.032,0.391-8.034,0.683-12.069,1.087    C127.818,366.83,126.494,366.861,125.161,366.974z M161.004,393.21c-7.754-4.51-15.209-9.077-22.671-14.086    c-3.507-2.355-6.894-4.908-10.174-7.595c4.094-0.097,8.195-0.306,12.288-0.444c4.307-0.145,8.534-1.233,12.799-1.776    c1.246-0.158,2.485-0.325,3.73-0.49c0.183-0.025,3.622-0.71,5.314-0.972c-0.576,1.043,1.445,5.375,1.881,6.554    c1.294,3.495,2.761,6.982,4.404,10.333c3.509,7.153,8.333,13.652,13.053,20.101C174.467,401.524,167.804,397.165,161.004,393.21z     M160.007,434.044c-0.726-7.837,6.06-15.032,13.419-16.577c1.949-0.409,3.928-0.575,5.915-0.615    c2.03,0.177,4.096,0.623,6.164,1.38c12.701,4.651,11.162,22.134,2.444,30.205C178.586,457.106,161.02,444.987,160.007,434.044z     M156.125,471.783c1.078-3.156,1.642-6.407,3.095-9.417c1.711-3.544,2.823-7.238,4.691-10.763    c0.053-0.101,0.083-0.198,0.125-0.298c1.711,1.396,3.553,2.603,5.451,3.555c4.296,2.155,9.806,3.475,14.723,2.381    c-1.852,7.323-2.102,14.72-2.119,22.373c-6.705-0.269-13.41-0.518-20.108-0.469c-2.777,0.02-5.553-0.013-8.326-0.068    C154.105,476.552,155.294,474.215,156.125,471.783z M73.362,462.002c0.815-2.495,6.808-3.561,9.117-3.938    c4.327-0.708,9.175-0.916,13.551-1.112c4.067-0.182,8.678-0.699,12.674-0.11c1.393,0.205,11.242-0.452,11.718,0.263    c0.396,0.595-0.193,3.164-0.127,4.121c0.144,2.086,0.67,4.127,0.909,6.201c0.455,3.952-0.711,7.785,0.249,11.684    c0.004,0.016,0.013,0.032,0.018,0.049c-6.551,0.467-13.189,0.698-19.721,1.45c-6.893,0.794-14.604,1.388-21.526,1.222    c-2.273-0.054-4.568-0.143-6.867-0.228c0.137-0.366,0.247-0.764,0.335-1.196c0.789-3.888,0.332-9.635,0.147-13.557    C73.778,465.606,72.964,463.218,73.362,462.002z M396.799,464.859c0.464-5.294,1.484-5.908,6.792-6.126    c4.174-0.171,8.389-0.014,12.567-0.015c3.466-0.001,6.761,0.145,10.21,0.454c4.03,0.361,8.253-0.412,12.24,0.157    c5.862,0.837,4.173,5.869,3.985,10.578c-0.137,3.434,0.106,6.894,0.233,10.332c-3.515,0.186-7.035,0.32-10.587,0.323    c-12.158,0.008-24.317,0.012-36.474,0.015C397.386,475.638,396.334,470.166,396.799,464.859z M418.371,487.628    c8.297,0.004,16.783,0.503,25.054-0.183c3.812-0.317,7.634-0.629,11.452-0.88c0.338-0.022,0.771-0.073,1.261-0.133    c0.008,0.001,0.015,0.005,0.023,0.006c2.086,0.32,7.737,0.654,8.542,2.245c0.868,1.718,1.073,6.917,0.905,8.489    c-0.556,5.212-3.418,5.195-7.939,4.973c-3.011-0.148-5.739-0.698-8.802-0.66c-16.01,0.198-31.995,0.266-47.993,0.616    c-31.537,0.688-62.942,0.599-94.47,0.013c-7.14-0.133-14.421-0.326-21.542,0.176c-7.862,0.555-15.748-0.148-23.648-0.144    c-15.687,0.006-31.269,0.054-46.914,0.106c-31.281,0.101-62.459,1.119-93.671,2.469c-15.367,0.664-30.869-0.579-46.318-0.57    c-3.674,0.002-7.339-0.138-10.994,0.232c-1.771,0.179-3.4,0.338-5.175,0.403c-2.783,0.103-5.606,0.649-7.072-1.594    c-0.741-1.134-0.35-3.796-0.589-5.166c-0.303-1.737-0.983-3.334-1.158-5.119c-0.407-4.159,2.542-5.525,5.971-6.149    c0.033-0.001,0.075,0.002,0.107,0.001c2.891-0.147,5.87-0.239,8.772,0.048c5.707,0.568,11.222,0.78,16.978,0.964    c5.816,0.186,11.89-0.243,17.711-0.496c6.475-0.283,13.108-0.837,19.582-1.318c5.339-0.396,10.764-0.175,16.083-0.672    c6.502-0.609,13.021,0.258,19.578,0.231c13.746-0.057,27.809,0.205,41.501,1.311c7.059,0.57,14.2,0.134,21.273,0.13    c7.553-0.005,15.064,0.562,22.61,0.596c14.536,0.067,29.253-0.69,43.746,0.405c13.377,1.01,26.79-0.385,40.151-0.353    c14.783,0.035,29.565-0.003,44.348,0.004C384.613,487.614,401.492,487.621,418.371,487.628z M360.672,462.52    c2.006,3.114,3.611,6.49,5.653,9.618c1.733,2.654,2.571,6.067,4.507,8.503c-10.59,0.054-21.179,0.134-31.765,0.233    c-0.006-0.046-0.001-0.088-0.008-0.134c-0.758-4.756-1.834-9.875-3.225-14.746c-1.134-3.971-1.542-8.072-2.7-12.057    c-0.32-1.101-0.544-2.206-0.847-3.25c0.993,0.584,1.979,1.079,2.927,1.446c5.266,2.035,10.592,0.873,15.301-1.809    c0.687-0.391,1.348-0.809,1.997-1.241C354.173,454.052,357.93,458.263,360.672,462.52z M353.921,416.188    c6.08,4.999,6.42,14.883,2.341,21.199c-1.08,1.674-2.355,3.196-3.724,4.635c-1.555,1.318-3.324,2.472-5.318,3.409    c-12.241,5.753-23.584-7.639-23.186-19.513c0.141-4.228,2.547-7.483,6.001-9.699c2.192-0.871,4.372-1.78,6.535-2.716    C342.783,412.002,349.813,412.81,353.921,416.188z M372.382,381.54c-7.1,6.887-14.988,13.159-23.151,18.713    c-3.813,2.594-8.151,4.635-12.634,6.432c0.239-1.061,0.442-2.074,0.663-2.866c1.025-3.674,2.227-7.26,3.443-10.879    c1.37-4.076,2.843-8.272,3.833-12.442c0.597-2.518,1.214-5.073,1.71-7.612c0.219-1.121,0.18-4.593,0.542-6.167    c0.272,0.577,2.849-0.127,4.138-0.014c2.375,0.209,4.741,0.796,7.118,1.059c3.563,0.393,7.133,0.636,10.687,0.961    c4.422,0.405,8.74,0.656,13.151,1.348c0.713,0.111,1.546,0.323,2.407,0.488C380.314,374.258,376.204,377.835,372.382,381.54z     M385.57,355.874c0.164,2.723,0.732,6.994-0.023,9.983c-2.529-0.133-5.178-1.101-7.605-1.473    c-2.326-0.355-4.763-0.409-7.109-0.556c-6.012-0.377-11.931-1.071-17.93-1.79c-0.177-0.021-0.365-0.046-0.558-0.072    c2.74-1.892,5.444-3.87,8.088-6.055c8.209-6.781,14.943-15.143,21.878-23.125c1.28-1.473,2.47-2.958,3.622-4.459    c-0.539,4.385-0.521,8.949-0.543,13.082C385.364,346.246,385.28,351.052,385.57,355.874z M382.182,307.247    c-1.392-2.329-2.253-5.013-3.53-7.422c2.36-1.179,7.724-1.497,9.468-1.871c3.533-0.758,7.073-1.397,10.602-2.135    c-1.01,2.284-2.034,4.564-3.194,6.77c-2.352,4.471-5.522,8.36-8.637,12.317C385.834,312.157,383.699,309.786,382.182,307.247z     M413.359,367.868c7.485,2.435,11.409,11.514,9.916,18.883c-0.395,1.952-1.026,3.835-1.776,5.675    c-0.966,1.794-2.192,3.515-3.706,5.115c-9.297,9.824-24.745,1.494-28.708-9.705C384.827,375.806,402.907,364.468,413.359,367.868z     M412.726,334.253c-5.29,7.701-10.668,15.357-16.144,22.953c-1.881,2.61-4.008,5.055-6.252,7.416    c0.007-0.176,0.013-0.352,0.02-0.507c0.245-5.142-0.422-10.237-0.452-15.374c-0.028-5.001-0.47-10.159-0.127-15.147    c0.159-2.321,0.603-4.612,0.719-6.951c0.047-0.937-0.025-1.949-0.046-2.949c6.544-1.98,13.138-5.353,19.341-7.898    c5.741-2.356,12.179-3.182,18.055-5.041C423.139,318.812,417.963,326.63,412.726,334.253z M453.771,293.329    c7.83-0.78,15.075,5.953,16.672,13.3c0.423,1.946,0.603,3.924,0.657,5.91c-0.163,2.031-0.594,4.099-1.336,6.174    c-4.561,12.734-22.054,11.32-30.187,2.66C430.842,312.073,442.834,294.42,453.771,293.329z M445.388,258.752    c-1.214,9.82-2.387,19.955-6.142,29.197c-2.153,5.299-4.643,10.488-7.362,15.579c-2.401-6.475-5.397-12.719-7.715-19.263    c-2.319-6.547-6.573-13.408-7.751-20.221c-0.407-2.353-0.803-0.876,0.205-3.01c0.798-1.688,2.846-3.121,4.228-4.289    c2.717-2.298,5.368-4.634,8.009-7.022c5.264-4.757,11.25-8.489,16.726-12.921c0.068,2.268,0.419,4.603,1.125,6.801    c0.009,0.475,0.018,0.782,0.016,0.823C446.576,249.246,445.979,253.973,445.388,258.752z"/>
	</g>
</g>
<g>
</g>
<g>
</g>
<g>
</g>
<g>
</g>
<g>
</g>
<g>
</g>
<g>
</g>
<g>
</g>
<g>
</g>
<g>
</g>
<g>
</g>
<g>
</g>
<g>
</g>
<g>
</g>
<g>
</g>
</svg>
