<?xml version="1.0" encoding="iso-8859-1"?>
<!-- Generator: Adobe Illustrator 19.0.0, SVG Export Plug-In . SVG Version: 6.00 Build 0)  -->
<svg xmlns="http://www.w3.org/2000/svg" xmlns:xlink="http://www.w3.org/1999/xlink" version="1.1" id="Layer_1" x="0px" y="0px" viewBox="0 0 512 512" style="enable-background:new 0 0 512 512;" xml:space="preserve">
<g>
	<g>
		<path d="M85.79,222.839c0.167-3.502-0.429-6.968-0.435-10.479c-0.01-5.558,0.941-13.687-1.788-18.796    c-5.09-9.528-18.296-13.06-26.995-5.877c-8.65,7.144-9.478,20.22-8.457,31.725c-0.095,3.398-1.723,11.694,2.856,12.953    c1.96,0.539,4.494,0.125,6.516,0.368c3.641,0.438,7.462,0.307,11.125,0.094c3.751-0.218,7.387-0.625,11.156-0.729    c1.927-0.052,4.03,0.16,5.18-1.589C86.195,228.613,85.685,225.033,85.79,222.839z M81.537,225.452    c-0.103,0.867-0.156,1.737-0.16,2.61c-0.292-0.042-0.584-0.083-0.876-0.124c-2.165,1.105-7.178,0.022-9.704,0.372    c-3.639,0.505-7.835,0.816-11.494,0.48c-1.072-0.098-5.906-0.083-6.539-0.474c-0.473-0.293-0.797-0.816-1.022-1.47    c0.946-11.727-2.607-25.256,6.281-34.457c5.711-5.911,15.175-5.633,20.257,0.761c3.947,4.969,3.192,12.246,3.182,18.38    c-0.004,2.782,0.15,5.485,0.319,8.251C81.897,221.711,81.694,223.527,81.537,225.452z"/>
	</g>
</g>
<g>
	<g>
		<path d="M126.731,222.839c0.167-3.502-0.429-6.968-0.436-10.479c-0.01-5.558,0.941-13.687-1.788-18.796    c-5.09-9.528-18.296-13.06-26.995-5.877c-8.65,7.144-9.478,20.22-8.457,31.725c-0.095,3.398-1.722,11.694,2.857,12.953    c1.96,0.539,4.494,0.125,6.516,0.368c3.641,0.438,7.462,0.307,11.125,0.094c3.751-0.218,7.387-0.625,11.156-0.729    c1.927-0.052,4.03,0.16,5.18-1.589C127.136,228.613,126.626,225.033,126.731,222.839z M122.479,225.452    c-0.103,0.867-0.156,1.737-0.16,2.61c-0.292-0.042-0.584-0.083-0.876-0.124c-2.165,1.105-7.178,0.022-9.705,0.372    c-3.638,0.505-7.835,0.816-11.494,0.48c-1.072-0.098-5.906-0.083-6.539-0.474c-0.473-0.293-0.797-0.816-1.022-1.47    c0.946-11.727-2.607-25.256,6.281-34.457c5.711-5.911,15.175-5.633,20.257,0.761c3.947,4.969,3.192,12.246,3.183,18.38    c-0.004,2.782,0.15,5.485,0.319,8.251C122.839,221.711,122.636,223.527,122.479,225.452z"/>
	</g>
</g>
<g>
	<g>
		<path d="M166.928,222.839c0.167-3.502-0.429-6.968-0.436-10.479c-0.01-5.558,0.941-13.687-1.788-18.796    c-5.09-9.528-18.296-13.06-26.995-5.877c-8.65,7.144-9.478,20.22-8.457,31.725c-0.094,3.398-1.722,11.694,2.857,12.953    c1.961,0.539,4.495,0.125,6.516,0.368c3.641,0.438,7.462,0.307,11.125,0.094c3.751-0.218,7.387-0.625,11.156-0.729    c1.927-0.052,4.03,0.16,5.18-1.589C167.333,228.613,166.823,225.033,166.928,222.839z M162.675,225.452    c-0.103,0.867-0.156,1.737-0.16,2.61c-0.292-0.042-0.584-0.083-0.876-0.124c-2.165,1.105-7.178,0.022-9.704,0.372    c-3.639,0.505-7.835,0.816-11.494,0.48c-1.072-0.098-5.906-0.083-6.539-0.474c-0.473-0.293-0.798-0.816-1.022-1.47    c0.946-11.727-2.607-25.256,6.281-34.457c5.711-5.911,15.175-5.633,20.256,0.761c3.947,4.969,3.192,12.246,3.182,18.38    c-0.004,2.782,0.15,5.485,0.319,8.251C163.034,221.711,162.832,223.527,162.675,225.452z"/>
	</g>
</g>
<g>
	<g>
		<path d="M207.869,222.839c0.167-3.502-0.429-6.968-0.436-10.479c-0.01-5.558,0.941-13.687-1.787-18.796    c-5.09-9.528-18.296-13.06-26.995-5.877c-8.65,7.144-9.478,20.22-8.457,31.725c-0.095,3.398-1.722,11.694,2.857,12.953    c1.96,0.539,4.494,0.125,6.516,0.368c3.641,0.438,7.462,0.307,11.125,0.094c3.751-0.218,7.387-0.625,11.156-0.729    c1.927-0.052,4.03,0.16,5.18-1.589C208.274,228.613,207.764,225.033,207.869,222.839z M203.617,225.452    c-0.103,0.867-0.156,1.737-0.159,2.61c-0.292-0.042-0.584-0.083-0.876-0.124c-2.165,1.105-7.178,0.022-9.704,0.372    c-3.639,0.505-7.835,0.816-11.494,0.48c-1.072-0.098-5.906-0.083-6.539-0.474c-0.473-0.293-0.797-0.816-1.022-1.47    c0.943-11.727-2.609-25.256,6.278-34.457c5.711-5.911,15.175-5.633,20.257,0.761c3.947,4.969,3.192,12.246,3.183,18.38    c-0.004,2.782,0.15,5.485,0.319,8.251C203.976,221.711,203.774,223.527,203.617,225.452z"/>
	</g>
</g>
<g>
	<g>
		<path d="M248.811,222.839c0.167-3.502-0.429-6.968-0.436-10.479c-0.01-5.558,0.941-13.687-1.787-18.796    c-5.09-9.528-18.296-13.06-26.995-5.877c-8.65,7.144-9.477,20.22-8.456,31.725c-0.096,3.398-1.724,11.694,2.854,12.953    c1.96,0.539,4.494,0.125,6.517,0.368c3.641,0.438,7.461,0.307,11.125,0.094c3.752-0.218,7.388-0.625,11.156-0.729    c1.927-0.052,4.03,0.16,5.18-1.589C249.215,228.613,248.705,225.033,248.811,222.839z M244.557,225.452    c-0.103,0.867-0.157,1.737-0.16,2.61c-0.293-0.042-0.584-0.083-0.876-0.124c-2.165,1.105-7.178,0.022-9.704,0.372    c-3.639,0.505-7.836,0.816-11.494,0.48c-1.072-0.098-5.907-0.083-6.539-0.474c-0.473-0.293-0.798-0.816-1.022-1.47    c0.945-11.727-2.608-25.256,6.281-34.457c5.711-5.911,15.176-5.633,20.257,0.761c3.947,4.969,3.192,12.246,3.182,18.38    c-0.004,2.782,0.15,5.485,0.319,8.251C244.915,221.711,244.714,223.527,244.557,225.452z"/>
	</g>
</g>
<g>
	<g>
		<path d="M509.825,146.452c-2.924-1.748-7.163-0.919-10.371-0.938c-4.152-0.024-8.162,0.23-12.295,0.4    c0.221-3.401,0.029-6.928-0.152-10.295c-0.135-2.524,0.925-5.93,0.17-8.361c-0.666-2.143-2.962-3.136-5.588-3.577    c0.344-1.833,0.097-3.921,0.321-5.667c0.45-3.516,0.715-6.754,0.219-10.286c-0.216-1.531,0.016-4.178-1.599-5.112    c-1.556-0.9-4.858-0.963-6.709-0.96c-1.672,0.003-3.32,0.525-4.995,0.484c-1.284-0.031-2.572-0.522-3.867-0.429    c-1.759,0.126-3.19,0.854-3.902,2.526c-1.116,2.619-0.288,6.275-0.113,8.991c0.241,3.76,0.117,7.503-0.045,11.269    c-0.008,0.174,0.008,0.334,0.03,0.488c-1.365,0.367-2.608,0.935-3.408,2.266c-1.407,2.346-0.764,5.493-0.734,8.042    c0.04,3.293-0.885,6.703-0.606,9.966c-15.623-0.103-31.201,1.324-46.82,1.457c-8.713,0.074-17.416,0.416-26.113,0.566    c-8.276,0.143-16.559-0.636-24.839-0.5c-8.162,0.135-16.446,0.097-24.646,0.064c-9.525-0.039-18.999-0.429-28.507-0.167    c-7.694,0.211-15.321,0.58-23.009,0.983c-8.744,0.458-17.507,0.47-26.245,1.123c-8.738-0.651-17.501-0.665-26.245-1.123    c-7.689-0.403-15.314-0.772-23.009-0.983c-9.507-0.261-18.981,0.128-28.506,0.167c-8.2,0.033-16.484,0.071-24.646-0.064    c-8.28-0.136-16.563,0.643-24.839,0.5c-8.698-0.15-17.401-0.492-26.113-0.566c-15.62-0.133-31.197-1.56-46.82-1.457    c0.279-3.264-0.645-6.674-0.606-9.966c0.031-2.549,0.674-5.695-0.734-8.042c-0.8-1.332-2.042-1.899-3.408-2.266    c0.022-0.155,0.038-0.314,0.03-0.488c-0.163-3.767-0.286-7.51-0.045-11.269c0.175-2.716,1.003-6.371-0.113-8.991    c-0.712-1.671-2.144-2.399-3.902-2.526c-1.295-0.093-2.583,0.397-3.867,0.429c-1.676,0.041-3.323-0.482-4.995-0.484    c-1.852-0.003-5.153,0.06-6.709,0.96c-1.615,0.935-1.384,3.582-1.599,5.112c-0.497,3.532-0.231,6.77,0.219,10.286    c0.223,1.745-0.023,3.834,0.321,5.667c-2.626,0.441-4.922,1.436-5.588,3.577c-0.754,2.431,0.305,5.836,0.17,8.361    c-0.18,3.367-0.373,6.893-0.151,10.295c-4.134-0.17-8.143-0.426-12.295-0.4c-3.208,0.019-7.448-0.81-10.372,0.938    c-1.503,0.899-2.328,2.373-2.154,4.125c0.142,1.417,1.34,2.962,1.878,4.181c0.748,1.69,1.22,3.644,2.256,5.205    c0.637,0.959,1.501,1.663,2.509,2.188c0.083,0.42,0.375,0.805,0.926,0.98c0.741,0.236,2.848,3.039,3.503,3.641    c1.088,1.002,2.208,1.964,3.276,2.993c2.308,2.221,4.451,5.303,7.389,6.706c0.56,0.267,1.14,0.491,1.731,0.692    c-2.154,22.82-1.702,45.839-1.525,68.764c0.039,5.087-0.486,10.124-0.758,15.194c-0.192,3.6-1.309,8.526-0.638,12.331    c-3.036,0.143-5.566,1.035-6.294,3.513c-0.641,2.18,0.853,3.548,2.247,4.805c1.628,1.469,2.666,1.52,2.626,3.602    c-0.021,1.137-0.806,2.566-0.899,3.806c-0.22,2.954,1.146,4.597,3.162,5.544c-0.541,2.537-1.168,5.12-1.206,7.685    c-0.024,1.731,0.446,3.556,0.059,5.285c-0.689,0.518-1.567,0.855-2.256,1.455c-1.675,1.457-2.933,3.689-2.426,5.994    c0.348,1.585,1.476,2.201,2.324,3.419c2.126,3.054,0.847,4.109,1.199,7.069c0.202,1.703,0.898,2.816,1.898,3.536    c-0.278,4.26-0.837,8.504-1.083,12.76c-0.295,5.09,0.232,10.232,0.018,15.327c-0.423,9.984,0.437,19.752-0.298,29.791    c-0.473,6.474-3.006,14.174,3.255,18.559c6.827,4.78,18.738,2.311,26.477,2.45c11.368,0.205,22.721,0.146,34.091,0.115    c10.717-0.03,21.498-0.792,32.215-0.155c18.914,1.126,38.012-0.41,56.905,1.094c10.515,0.837,21.186,0.108,31.718,0.752    c5.387,0.33,11.016,0.253,16.398-0.065c3.746-0.221,7.467-0.126,11.169-0.358c7.526,0.312,15.263,1.372,22.747,0.676    c0.551-0.051,1.005-0.222,1.383-0.461c0.377,0.238,0.832,0.409,1.383,0.461c7.484,0.696,15.221-0.364,22.747-0.676    c3.701,0.232,7.422,0.137,11.169,0.358c5.381,0.319,11.011,0.394,16.398,0.065c10.533-0.644,21.202,0.085,31.718-0.752    c18.893-1.503,37.991,0.032,56.905-1.094c10.718-0.638,21.499,0.125,32.216,0.155c11.37,0.031,22.723,0.09,34.091-0.115    c7.74-0.139,19.65,2.331,26.477-2.45c6.262-4.385,3.73-12.084,3.255-18.559c-0.734-10.039,0.125-19.807-0.298-29.791    c-0.215-5.095,0.312-10.236,0.018-15.326c-0.247-4.256-0.805-8.501-1.083-12.76c1-0.72,1.696-1.834,1.898-3.536    c0.351-2.96-0.928-4.015,1.198-7.069c0.848-1.219,1.976-1.835,2.324-3.419c0.508-2.305-0.752-4.537-2.426-5.994    c-0.689-0.6-1.567-0.937-2.257-1.455c-0.387-1.729,0.083-3.554,0.059-5.285c-0.038-2.564-0.665-5.147-1.206-7.685    c2.016-0.946,3.383-2.588,3.162-5.544c-0.093-1.24-0.877-2.669-0.899-3.806c-0.04-2.082,0.998-2.134,2.626-3.602    c1.394-1.257,2.886-2.625,2.247-4.805c-0.728-2.477-3.258-3.37-6.294-3.513c0.669-3.806-0.446-8.732-0.638-12.331    c-0.271-5.069-0.796-10.108-0.758-15.194c0.177-22.924,0.628-45.944-1.525-68.764c0.591-0.202,1.171-0.426,1.731-0.692    c2.937-1.403,5.08-4.485,7.389-6.706c1.068-1.029,2.188-1.991,3.276-2.993c0.655-0.603,2.762-3.406,3.503-3.641    c0.552-0.176,0.844-0.56,0.926-0.98c1.008-0.525,1.872-1.229,2.509-2.188c1.036-1.562,1.509-3.515,2.256-5.205    c0.539-1.219,1.737-2.764,1.878-4.181C512.154,148.824,511.328,147.35,509.825,146.452z M464.852,108.75    c0.227-3.409,1.328-2.683,3.974-2.714c2.24-0.025,4.381-0.743,6.64-0.628c0.284,0.014,1.815,0.075,2.711,0.187    c-0.007,0.228,0.065,0.629,0.054,1.105c-0.061,2.708,0.557,5.224,0.221,8.001c-0.316,2.616-0.948,5.897-0.292,8.674    c-1.906-0.049-3.703,0.058-4.92,0.117c-2.394,0.118-4.906,0.301-7.365,0.613C465.618,119.123,464.526,113.662,464.852,108.75z     M461.158,133.569c-0.053-2.148-0.659-2.572,1.166-3.752c3.108-2.009,9.817-1.709,13.482-1.532    c1.59,0.076,5.642,0.161,6.326,1.363c0.449,0.789-0.229,4.194-0.165,5.202c0.246,3.846,0.816,7.459,1.666,11.159    c-7.448,0.094-14.872-0.448-22.302-0.669c-0.042-0.216-0.108-0.425-0.204-0.625c-0.396-2.287,0.122-5.292,0.073-7.564    C461.174,135.957,461.188,134.763,461.158,133.569z M33.772,106.7c-0.01-0.476,0.061-0.877,0.054-1.105    c0.896-0.113,2.427-0.174,2.711-0.187c2.259-0.115,4.4,0.603,6.64,0.628c2.646,0.03,3.748-0.696,3.974,2.714    c0.326,4.912-0.765,10.373-1.025,15.355c-2.459-0.312-4.971-0.494-7.365-0.613c-1.217-0.06-3.014-0.166-4.92-0.117    c0.656-2.777,0.024-6.058-0.292-8.674C33.214,111.924,33.832,109.408,33.772,106.7z M29.873,129.648    c0.684-1.201,4.736-1.286,6.326-1.363c3.665-0.177,10.373-0.477,13.482,1.532c1.825,1.18,1.22,1.604,1.166,3.752    c-0.03,1.194-0.017,2.388-0.042,3.582c-0.049,2.272,0.469,5.276,0.073,7.564c-0.095,0.2-0.161,0.41-0.204,0.625    c-7.429,0.221-14.853,0.762-22.302,0.669c0.848-3.7,1.42-7.314,1.666-11.159C30.101,133.841,29.424,130.435,29.873,129.648z     M182.936,386.494c-0.441,5.429-0.136,11.024-1.059,16.404c-9.836-0.267-19.672-0.161-29.514-0.126    c0.002-0.041,0.012-0.075,0.012-0.117c0-1.077-0.027-2.212-0.142-3.324c-0.147-8.236,0.944-16.334,1.343-24.563    c0.45-9.268,1.378-19.737,10.184-25.081c2.662-1.616,5.514-2.521,8.657-2.304c4.743,0.328,5.801,2.62,7.24,6.59    c1.779,4.906,2.893,9.883,3.457,15.095C183.729,374.739,183.398,380.809,182.936,386.494z M190.264,387.146    c-0.221,5.24-1.181,10.7-1.113,15.932c-0.846-0.018-1.69-0.042-2.535-0.063c0.807-6.411,0.228-13.151,0.116-19.564    c-0.123-7.166-0.063-14.142-1.428-21.203c-0.937-4.846-2.084-12.274-5.784-15.854c-2.993-2.897-8.586-2.683-12.319-1.772    c-11.319,2.765-15.349,14.152-16.621,24.404c-0.708,5.703-1.3,11.719-1.581,17.476c-0.124,2.532-0.321,5.693-0.19,8.768    c-0.023,0.201-0.018,0.395-0.04,0.656c-0.022,0.254-0.154,0.971-0.132,1.483c0.076,1.738-0.282,3.495-0.281,5.243    c0,0.044,0.01,0.082,0.012,0.125c-1.066,0.001-2.132,0.003-3.198,0c0.216-12.136-0.046-24.184,1.025-36.319    c0.536-6.077,0.836-12.373,4.032-17.772c4.019-6.789,10.361-10.546,18.327-10.878c8.592-0.358,14.644,2.831,17.835,10.833    c2.332,5.848,2.985,12.524,3.336,18.773C190.093,373.918,190.538,380.646,190.264,387.146z M273.987,404.216    c-0.034,0.002-0.064,0.012-0.096,0.016c-1.529-0.016-3.063-0.024-4.597-0.022c-4.792-0.387-9.732-0.107-14.259,0.115    c-1.259,0.062-2.525,0.087-3.794,0.106c-4.335-0.246-8.752-0.243-13.126-0.199c-0.033-0.003-0.063-0.013-0.096-0.016    c-0.615-0.04-1.231-0.071-1.847-0.105c1.984-9.046,1.346-18.375,1.574-27.597c0.145-5.858,0.185-12.519,2.074-18.093    c2.045-6.032,6.458-8.3,11.612-10.472c2.316-0.307,4.635-0.775,6.97-0.847c0.04-0.001,0.092,0,0.139,0    c6.009,2.493,11.337,4.508,13.646,11.319c1.889,5.574,1.929,12.235,2.074,18.093c0.228,9.222-0.41,18.551,1.574,27.597    C275.219,404.146,274.602,404.177,273.987,404.216z M281.946,403.808c-1.159,0.048-2.318,0.102-3.478,0.158    c-0.396-12.465-0.883-24.958-1.374-37.41c-0.207-5.244-1.379-11.372-5.033-15.381c-2.118-2.325-4.897-3.805-7.813-4.89    c-1.281-0.477-2.326-1.349-3.61-1.676c-1.678-0.427-3.634-0.379-5.348-0.272c-0.989,0.062-2.051,0.135-3.021,0.312    c-0.757,0.139-1.237,0.543-1.946,0.765c-3.849,1.211-7.547,2.649-10.382,5.76c-3.654,4.009-4.826,10.137-5.033,15.381    c-0.491,12.454-0.977,24.945-1.374,37.41c-1.159-0.056-2.318-0.111-3.478-0.158c1.094-4.543,0.261-10.037,0.147-14.373    c-0.189-7.241-0.837-14.606-0.437-21.837c0.392-7.08,1.799-14.007,6.477-19.55c2.514-2.978,5.575-4.91,9.161-6.485    c3.67-1.612,6.908-0.963,10.594-1.849c3.687,0.887,6.924,0.238,10.595,1.849c3.586,1.574,6.647,3.508,9.161,6.485    c4.68,5.543,6.086,12.469,6.477,19.55c0.4,7.232-0.248,14.596-0.437,21.837C281.685,393.771,280.852,399.265,281.946,403.808z     M359.769,399.33c-0.115,1.112-0.14,2.247-0.142,3.324c0,0.042,0.01,0.076,0.012,0.117c-9.841-0.035-19.678-0.141-29.514,0.126    c-0.922-5.38-0.617-10.975-1.059-16.404c-0.462-5.685-0.792-11.754-0.178-17.425c0.564-5.213,1.678-10.19,3.457-15.095    c1.44-3.969,2.497-6.262,7.24-6.59c3.143-0.218,5.993,0.688,8.656,2.304c8.805,5.345,9.733,15.813,10.184,25.081    C358.827,382.995,359.917,391.093,359.769,399.33z M363.634,402.778c0.002-0.043,0.012-0.081,0.012-0.125    c0.001-1.748-0.357-3.505-0.281-5.243c0.022-0.511-0.109-1.228-0.132-1.483c-0.022-0.261-0.015-0.456-0.04-0.656    c0.13-3.075-0.068-6.236-0.19-8.768c-0.281-5.756-0.873-11.774-1.581-17.476c-1.272-10.254-5.302-21.639-16.621-24.404    c-3.733-0.913-9.326-1.126-12.319,1.772c-3.7,3.581-4.847,11.008-5.784,15.854c-1.365,7.062-1.305,14.038-1.428,21.203    c-0.111,6.413-0.69,13.153,0.116,19.564c-0.845,0.02-1.689,0.045-2.535,0.063c0.07-5.231-0.892-10.691-1.113-15.932    c-0.274-6.5,0.171-13.227,0.536-19.729c0.351-6.25,1.004-12.925,3.336-18.773c3.191-8.003,9.243-11.192,17.835-10.833    c7.966,0.332,14.309,4.089,18.327,10.878c3.196,5.399,3.494,11.695,4.032,17.772c1.072,12.134,0.81,24.182,1.025,36.319    C365.765,402.782,364.7,402.78,363.634,402.778z M485.691,401.256c-2.482,3.396-8.956,2.406-12.576,2.189    c-10.767-0.644-21.71-0.614-32.503-0.879c-19.967-0.491-39.883-0.628-59.841-0.001c-3.405,0.107-6.809,0.157-10.213,0.186    c0.389-2.565,0.161-5.158,0.371-7.806c0.311-3.956,0.711-7.865,0.873-11.836c0.314-7.723-0.477-15.871-1.584-23.52    c-2.03-14.03-11.328-24.683-26.084-25.386c-6.764-0.322-13.768,0.553-18.289,6.005c-4.548,5.486-6.215,12.145-7.296,19.028    c-1.202,7.654-1.096,15.401-1.488,23.115c-0.334,6.576,0.795,13.105,0.837,19.63c-0.217,0.33-0.323,0.73-0.29,1.184    c-10.353,0.148-20.732,0.15-31.081,0.472c0.334-2.457,0.166-5.176,0.28-7.358c0.228-4.353,0.321-8.757,0.388-13.12    c0.125-8.026,0.732-16.013-0.74-23.971c-0.112-0.601-0.242-1.197-0.392-1.789c-1.846-7.287-6.599-13.938-13.113-17.756    c-7.464-4.374-16.354-3.965-24.618-3.104c-11.36,1.186-20.668,11.206-22.785,22.648c-1.472,7.959-0.865,15.945-0.74,23.971    c0.068,4.363,0.16,8.767,0.388,13.12c0.114,2.182-0.055,4.901,0.28,7.358c-10.348-0.323-20.728-0.324-31.081-0.472    c0.033-0.455-0.072-0.854-0.29-1.184c0.042-6.525,1.171-13.055,0.837-19.63c-0.392-7.714-0.285-15.46-1.488-23.115    c-1.081-6.882-2.748-13.541-7.296-19.028c-4.52-5.452-11.525-6.327-18.289-6.005c-14.756,0.702-24.054,11.355-26.084,25.386    c-1.107,7.649-1.897,15.797-1.584,23.52c0.161,3.971,0.562,7.88,0.873,11.836c0.208,2.648-0.019,5.24,0.369,7.806    c-3.404-0.029-6.808-0.079-10.213-0.186c-19.959-0.628-39.875-0.491-59.841,0.001c-10.792,0.267-21.735,0.236-32.502,0.879    c-3.619,0.217-10.092,1.207-12.576-2.189c-2.299-3.144-1.015-8.797-0.969-12.474c0.124-9.902-1.962-19.872-1.186-29.707    c0.406-5.13-0.098-10.331,0.025-15.476c0.107-4.449,0.461-8.861,0.404-13.3c3.047,0.262,6.706-0.482,9.237-0.46    c9.839,0.084,19.663,0.768,29.53,0.833c20.7,0.136,41.323,0.122,61.994-0.897c18.85-0.929,37.56-0.023,56.416-0.173    c10.898-0.086,21.667,0.253,32.588-0.299c6.403-0.324,12.84-0.196,19.249-0.154c3.871,0.025,8.08,0.438,12.051-0.029    c3.241,0.741,7.081,0.326,10.057,0.212c3.659-0.141,7.837,0.383,11.631-0.115c3.676,0.303,7.511-0.045,11.062-0.069    c6.408-0.042,12.845-0.17,19.249,0.154c10.921,0.552,21.69,0.212,32.588,0.299c18.856,0.149,37.566-0.757,56.416,0.173    c20.671,1.019,41.293,1.034,61.994,0.897c9.868-0.065,19.692-0.749,29.53-0.833c2.531-0.022,6.19,0.722,9.237,0.46    c-0.057,4.439,0.296,8.851,0.404,13.3c0.124,5.143-0.379,10.346,0.025,15.476c0.776,9.836-1.31,19.805-1.186,29.707    C486.706,392.461,487.989,398.113,485.691,401.256z M488.644,324.124c-1.063,2.438-3.615,1.096-5.929,0.907    c-8.196-0.669-16.553,0.647-24.773,0.617c-10.179-0.036-20.555-0.93-30.699-0.441c-9.777,0.471-19.768,0.929-29.559,0.618    c-8.25-0.262-16.563-1.156-24.817-0.947c-8.817,0.225-17.714,0.175-26.547-0.04c-9.259-0.225-18.576,0.676-27.839,0.748    c-9.664,0.075-19.301-0.845-28.978-0.722c-5.015,0.063-10.03,0.132-15.046,0.211c-2.657,0.043-5.343-0.115-8.007-0.065    c-3.337-0.525-6.919-0.488-10.045-0.354c-2.824,0.122-5.549,0.177-8.252,0.493c-3.509-0.309-7.08-0.019-10.604-0.075    c-5.015-0.081-10.03-0.148-15.046-0.211c-9.677-0.122-19.314,0.798-28.978,0.722c-9.263-0.073-18.58-0.972-27.839-0.748    c-8.834,0.215-17.73,0.264-26.547,0.04c-8.254-0.209-16.568,0.685-24.817,0.947c-9.791,0.311-19.782-0.146-29.559-0.618    c-10.144-0.489-20.521,0.405-30.699,0.441c-8.22,0.03-16.576-1.286-24.772-0.617c-2.314,0.188-4.866,1.531-5.929-0.907    c-0.427-0.978,0.149-2.859-0.095-3.947c-0.089-0.394-0.217-0.723-0.358-1.034c4.158,0.759,8.302,0.361,12.628,0.532    c6.808,0.271,13.666,0.788,20.463,0.962c16.655,0.427,33.262-0.497,49.952-0.484c7.334,0.004,14.521,0.758,21.864,0.591    c7.414-0.169,14.773-0.672,22.172-1.074c15.557-0.843,31.22-0.249,46.758,0.539c19.521,0.99,39.193,0.304,58.707-0.553    c0.21-0.009,0.395-0.056,0.553-0.132c0.158,0.075,0.343,0.122,0.553,0.132c19.513,0.857,39.186,1.542,58.707,0.553    c15.538-0.788,31.202-1.383,46.758-0.539c7.399,0.402,14.758,0.905,22.172,1.074c7.342,0.167,14.53-0.585,21.864-0.591    c16.689-0.012,33.297,0.911,49.952,0.484c6.797-0.174,13.655-0.691,20.463-0.962c4.326-0.171,8.47,0.226,12.628-0.532    c-0.142,0.311-0.27,0.64-0.358,1.034C488.495,321.265,489.071,323.146,488.644,324.124z M491.029,312.829    c0.122,0.07,0.232,0.148,0.314,0.25c1.098,1.368,0.038,2.603-0.708,3.555c-13.925-0.706-27.777,1.191-41.691,1.425    c-16.67,0.279-33.508-2.197-50.192-0.681c-14.425,1.311-29.19-0.391-43.64-0.894c-15.812-0.551-31.452,1.004-47.228,0.886    c-8.678-0.065-17.404,0.629-26.065,0.229c-8.429-0.391-16.835-0.931-25.266-0.561c-0.21,0.009-0.395,0.056-0.553,0.13    c-0.158-0.074-0.343-0.122-0.553-0.13c-8.431-0.371-16.837,0.17-25.266,0.561c-8.661,0.4-17.387-0.294-26.065-0.229    c-15.777,0.118-31.416-1.437-47.228-0.886c-14.45,0.503-29.216,2.203-43.64,0.894c-16.684-1.515-33.52,0.961-50.191,0.681    c-13.914-0.233-27.766-2.13-41.691-1.425c-0.746-0.952-1.806-2.187-0.708-3.555c0.082-0.102,0.193-0.18,0.314-0.25    c20.145,1.068,40.521-0.657,60.744,0.264c20.503,0.935,41.024,1.244,61.544,1.258c10.518,0.007,20.668-0.372,31.116-1.425    c10.135-1.02,20.145-0.824,30.288-0.489c6.361,0.209,12.889,0.129,19.324,0.356c0.385,0.092,0.788,0.115,1.177,0.05    c1.847,0.077,3.689,0.176,5.512,0.324c6.903,0.563,14.542,1.698,21.499,1.08c1.674,0.097,3.346,0.197,5.02,0.307    c2.935,0.196,6.911,0.63,10.184-0.195c4.7-0.218,9.475-0.828,13.94-1.192c1.824-0.148,3.665-0.248,5.512-0.324    c0.389,0.064,0.792,0.041,1.177-0.05c6.435-0.227,12.964-0.147,19.324-0.356c10.142-0.335,20.153-0.531,30.288,0.489    c10.449,1.052,20.598,1.431,31.117,1.425c20.52-0.014,41.041-0.323,61.544-1.258C450.508,312.171,470.884,313.897,491.029,312.829    z M486.768,309.727c-2.037-0.243-4.093-0.529-6.048-0.713c-4.169-0.393-8.302-0.439-12.498-0.451c-0.216,0-0.432,0-0.648,0    c0.012-0.086,0.033-0.167,0.038-0.259c0.054-1.104,0.32-1.978,0.251-3.129c-0.067-1.143-0.093-2.289-0.128-3.433    c-0.002-0.221,0.003-0.441,0-0.664c-0.008-0.426-0.006-0.827-0.007-1.219c0.016-0.909,0.009-1.885-0.173-2.761    c4.665-0.178,9.331-0.488,13.948-0.864c1.844-0.149,4.095-0.227,6.163-0.619c-0.42,1.473-1.103,2.804-1.198,4.37    c-0.103,1.707-0.166,3.605-0.218,5.33C486.205,306.834,486.262,308.389,486.768,309.727z M477.693,292.042    c-16.631,1.227-33.624,0.765-50.25-0.445c-18.223-1.325-36.585-1.886-54.845-1.937c-19.649-0.055-39.379-0.263-59.016,0.341    c-8.744,0.269-17.857-0.46-26.58,0.469c-4.189,0.446-8.34,0.24-12.487,0.167c-6.224-1.165-13.553-0.104-19.521-0.18    c-5.555-0.07-11.254-0.406-16.801,0.17c-4.38,0.059-8.765,0.313-13.191-0.158c-8.723-0.929-17.836-0.201-26.58-0.469    c-19.636-0.603-39.367-0.395-59.016-0.341c-18.26,0.051-36.622,0.612-54.845,1.937c-16.626,1.21-33.62,1.671-50.25,0.445    c-2.576-0.19-10.796,0.181-11.945-2.306c-0.653-1.411,1.053-4.263,0.916-6.057c4.886,0.859,10.104,0.63,14.919,1.142    c8.061,0.856,16.141,0.522,24.232,0.466c14.465-0.098,28.875-1.242,43.299-1.307c29.679-0.134,59.178,2.405,88.855,2.299    c8.636-0.031,17.325,0.519,25.98,0.528c7.637,0.007,15.999,0.75,23.679-0.033c3.535,0.386,6.921,0.758,10.694,0.637    c4.328-0.139,9.013,0.208,13.34-0.576c7.535,0.698,15.694-0.021,23.158-0.027c8.654-0.008,17.344-0.559,25.98-0.528    c29.677,0.107,59.177-2.431,88.855-2.299c14.424,0.065,28.835,1.208,43.299,1.307c8.09,0.055,16.17,0.39,24.232-0.466    c4.816-0.511,10.034-0.282,14.919-1.142c-0.137,1.794,1.568,4.646,0.916,6.057C488.489,292.223,480.27,291.852,477.693,292.042z     M462.927,301.078c0.021,2.41,0.077,4.816,0.017,7.225c-0.002,0.092,0.013,0.171,0.019,0.258    c-4.117-0.003-8.233,0.003-12.35,0.008c0.166-0.904,0.359-1.677,0.155-2.666c-0.22-1.065-0.347-2.077-0.424-3.144    c0.001-0.432,0.004-0.865,0.008-1.298c0.008-1.432,0.178-2.926,0.019-4.344c1.578,0.012,3.158,0.032,4.739,0.076    c2.662,0.074,5.341,0.073,8.026,0.025C462.802,298.395,462.914,299.607,462.927,301.078z M435.387,297.105    c3.337,0.035,6.673,0.012,10.012,0.003c-0.317,2.162,0.042,4.61,0.053,6.64c0.009,1.665-0.217,3.332,0.29,4.823    c-2.405,0.002-4.809,0.003-7.214,0.004c-1.251,0.001-2.501,0.022-3.75,0.052c0.132-2.192,0.327-4.377,0.388-6.562    C435.214,300.341,435.638,298.722,435.387,297.105z M418.996,296.338c2.12,0.129,4.241,0.26,6.354,0.405    c1.77,0.122,3.537,0.202,5.306,0.259c0.004,0.051,0.021,0.1,0.029,0.15c-0.292,3.881-0.782,7.732-0.77,11.635    c-3.596,0.148-7.191,0.332-10.789,0.435c0.036-0.154,0.064-0.315,0.072-0.488C419.402,304.604,419.106,300.471,418.996,296.338z     M402.732,305.501c0.063-0.878,0.138-1.744,0.138-2.518c0-2.479,0.018-4.958-0.072-7.434c3.779,0.136,7.56,0.31,11.338,0.514    c-0.094,4.194,0.181,8.477,0.389,12.672c-0.007,0.203,0.01,0.39,0.043,0.565c-0.052,0-0.105,0.002-0.157,0.002    c-3.825,0.003-7.643,0.049-11.458,0.155C403.02,308.186,402.891,306.834,402.732,305.501z M398.1,304.005    c0,1.775-0.255,3.823,0.054,5.632c-2.469,0.108-4.938,0.238-7.404,0.419c-1.387,0.102-2.783,0.16-4.182,0.202    c0.105-4.897,0.528-10.109-0.013-15.03c2.07,0.021,4.138,0.025,6.209,0.056c1.782,0.027,3.566,0.065,5.351,0.113    c0.014,0.056,0.029,0.112,0.05,0.168C398.063,298.377,398.1,301.192,398.1,304.005z M381.954,310.318    c-3.305-0.01-6.62-0.103-9.924-0.178c0.055-3.081,0.041-6.158,0.016-9.24c-0.016-1.937,0.368-4.044-0.356-5.749    c3.428,0.006,6.855,0.012,10.283,0.035C381.421,300.14,381.851,305.388,381.954,310.318z M367.328,300.901    c-0.025,3.057-0.038,6.111,0.016,9.168c-0.925-0.008-1.852-0.021-2.772-0.014c-3.186,0.022-6.346,0.006-9.496-0.08    c0.039-3.042-0.006-6.086-0.022-9.128c-0.011-1.952,0.042-3.84-0.334-5.674c4.324-0.012,8.647-0.029,12.971-0.028    C366.96,296.85,367.345,298.961,367.328,300.901z M350.044,309.771c-3.175-0.173-6.349-0.432-9.541-0.823    c-0.403-0.049-0.805-0.087-1.207-0.132c0.14-2.968,0.585-6.893-0.019-10.242c-0.1-0.968-0.21-2.219-0.499-3.365    c3.874-0.01,7.748-0.017,11.621-0.029c-0.374,1.831-0.321,3.717-0.332,5.666C350.051,303.821,350.011,306.796,350.044,309.771z     M334.254,308.368c-3.71-0.248-7.409-0.313-11.104-0.277c0.124-4.016,0.548-8.762-0.491-12.799    c2.171-0.032,4.344-0.056,6.52-0.058c1.846-0.001,3.691-0.01,5.538-0.013c-0.026,0.556-0.063,1.217-0.091,1.932    C333.593,300.598,334.069,305.014,334.254,308.368z M317.975,308.21c-3.74,0.134-7.481,0.357-11.226,0.617    c0.091-3.873,0.095-7.752,0-11.625c-0.011-0.438-0.031-1.01-0.105-1.604c3.932-0.064,7.865-0.157,11.802-0.235    C317.421,299.425,317.857,304.192,317.975,308.21z M301.927,309.176c-1.946,0.146-3.895,0.294-5.846,0.44    c-2.019,0.15-4.062,0.246-6.114,0.316c0.03-2.014,0.071-4.109,0.02-6.215c-0.024-1.866-0.127-3.736-0.441-5.516    c-0.135-0.879-0.312-1.744-0.529-2.593c1.332-0.016,2.668-0.017,4.01,0.01c2.998,0.058,5.993,0.053,8.988,0.03    c-0.098,0.842-0.096,1.66-0.102,2.181C301.878,301.614,301.839,305.392,301.927,309.176z M284.751,310.057    c-3.342,0.046-6.683,0.046-9.967,0.064c-0.016,0-0.032,0.001-0.049,0.001c0.194-0.344,0.316-0.752,0.316-1.241    c-0.003-3.044,0.029-6.09-0.011-9.134c-0.018-1.372,0.011-2.773-0.296-4.055c3.628,0.156,7.267,0.056,10.938-0.024    c-0.209,0.83-0.38,1.675-0.511,2.534c-0.313,1.773-0.416,3.636-0.44,5.495C284.677,305.852,284.722,307.999,284.751,310.057z     M269.919,308.88c-0.009,0.522,0.124,0.951,0.335,1.309c-0.478,0.014-0.956,0.031-1.435,0.053    c-2.872-0.938-6.557-0.534-9.791-0.282c0.15-2.156,0.233-4.233,0.051-6.344c0.004-2.096-0.096-4.206-0.514-6.146    c0.028-0.841,0.075-1.684,0.092-2.54c3.673,0.275,7.753,0.594,11.643,0.468c-0.392,1.358-0.348,2.873-0.368,4.349    C269.892,302.79,269.923,305.836,269.919,308.88z M253.975,299.652c0.022,0.58,0.025,1.163,0.033,1.744    c-0.096,2.873-0.181,5.744-0.148,8.613c-3.362-0.209-7.229-0.556-10.58,0.236c-0.51-0.023-1.02-0.042-1.53-0.058    c0.211-0.357,0.344-0.786,0.335-1.309c-0.003-3.044,0.028-6.09-0.011-9.134c-0.02-1.492,0.028-3.023-0.378-4.394    c2.118-0.24,4.235-0.609,6.356-1.158c2.054,0.143,4.086,0.285,6.111,0.419c-0.001,0.165-0.006,0.33-0.007,0.494    C253.781,296.554,253.921,298.234,253.975,299.652z M227.274,303.697c-0.024-1.861-0.128-3.723-0.44-5.495    c-0.132-0.859-0.302-1.705-0.511-2.534c3.671,0.08,7.31,0.179,10.938,0.024c-0.309,1.282-0.279,2.683-0.296,4.055    c-0.04,3.044-0.008,6.09-0.011,9.134c-0.001,0.489,0.123,0.897,0.316,1.241c-0.017,0-0.032-0.001-0.048-0.001    c-3.283-0.018-6.625-0.018-9.967-0.064C227.283,307.999,227.327,305.852,227.274,303.697z M222.035,309.932    c-2.052-0.071-4.095-0.165-6.114-0.316c-1.952-0.146-3.9-0.294-5.846-0.44c0.09-3.784,0.05-7.562,0.012-11.348    c-0.006-0.52-0.003-1.338-0.102-2.181c2.995,0.023,5.992,0.028,8.988-0.03c1.343-0.025,2.679-0.024,4.011-0.01    c-0.217,0.849-0.395,1.713-0.529,2.593c-0.314,1.78-0.417,3.65-0.441,5.516C221.965,305.823,222.006,307.918,222.035,309.932z     M205.255,308.826c-3.745-0.259-7.486-0.482-11.226-0.617c0.118-4.019,0.554-8.785-0.471-12.847    c3.937,0.077,7.87,0.17,11.802,0.234c-0.073,0.594-0.094,1.166-0.105,1.604C205.161,301.074,205.164,304.954,205.255,308.826z     M188.855,308.091c-3.696-0.036-7.394,0.029-11.104,0.276c0.185-3.354,0.661-7.769-0.373-11.215    c-0.028-0.715-0.064-1.376-0.09-1.932c1.846,0.003,3.691,0.012,5.538,0.013c2.176,0.001,4.348,0.025,6.52,0.057    C188.307,299.329,188.731,304.074,188.855,308.091z M172.708,308.817c-0.403,0.044-0.804,0.083-1.207,0.132    c-3.192,0.39-6.367,0.649-9.541,0.823c0.034-2.974-0.006-5.95-0.023-8.924c-0.011-1.949,0.042-3.834-0.332-5.666    c3.873,0.013,7.747,0.02,11.621,0.029c-0.289,1.146-0.399,2.397-0.499,3.365C172.123,301.924,172.568,305.849,172.708,308.817z     M156.928,309.974c-3.151,0.085-6.31,0.102-9.496,0.08c-0.92-0.007-1.846,0.006-2.772,0.014c0.053-3.056,0.041-6.11,0.016-9.168    c-0.017-1.94,0.369-4.051-0.361-5.757c4.324,0,8.647,0.016,12.97,0.028c-0.376,1.834-0.323,3.723-0.334,5.674    C156.933,303.888,156.89,306.933,156.928,309.974z M139.959,300.901c-0.025,3.082-0.04,6.159,0.016,9.24    c-3.304,0.074-6.619,0.168-9.924,0.178c0.103-4.929,0.532-10.179-0.018-15.13c3.429-0.023,6.856-0.03,10.283-0.035    C139.591,296.857,139.975,298.964,139.959,300.901z M125.437,310.259c-1.399-0.042-2.794-0.101-4.182-0.202    c-2.467-0.181-4.936-0.311-7.404-0.419c0.31-1.81,0.054-3.857,0.054-5.632c0-2.813,0.038-5.627-0.065-8.439    c0.021-0.056,0.035-0.112,0.05-0.168c1.786-0.048,3.571-0.086,5.351-0.113c2.071-0.031,4.139-0.035,6.209-0.056    C124.909,300.15,125.332,305.363,125.437,310.259z M109.052,309.457c-3.815-0.107-7.634-0.152-11.458-0.155    c-0.052,0-0.105-0.002-0.157-0.002c0.033-0.176,0.051-0.363,0.043-0.565c0.208-4.194,0.483-8.477,0.389-12.672    c3.777-0.205,7.559-0.378,11.338-0.514c-0.09,2.477-0.072,4.956-0.072,7.434c0,0.773,0.075,1.639,0.138,2.518    C109.113,306.834,108.984,308.186,109.052,309.457z M92.807,308.734c0.009,0.174,0.035,0.335,0.072,0.488    c-3.598-0.103-7.193-0.286-10.789-0.435c0.011-3.904-0.479-7.754-0.77-11.635c0.009-0.05,0.024-0.098,0.029-0.15    c1.769-0.058,3.536-0.138,5.306-0.259c2.113-0.145,4.233-0.277,6.354-0.405C92.898,300.471,92.603,304.604,92.807,308.734z     M66.552,303.749c0.011-2.03,0.371-4.479,0.053-6.64c3.338,0.008,6.674,0.032,10.012-0.003c-0.252,1.617,0.174,3.237,0.221,4.961    c0.061,2.185,0.255,4.369,0.388,6.562c-1.249-0.03-2.499-0.051-3.75-0.052c-2.405,0-4.811-0.001-7.214-0.004    C66.769,307.08,66.542,305.414,66.552,303.749z M61.392,308.567c-4.117-0.004-8.233-0.011-12.35-0.008    c0.006-0.086,0.021-0.166,0.019-0.258c-0.061-2.409-0.004-4.816,0.017-7.225c0.012-1.47,0.125-2.682-0.208-3.857    c2.685,0.048,5.364,0.049,8.026-0.025c1.581-0.044,3.16-0.064,4.739-0.076c-0.16,1.418,0.01,2.911,0.019,4.344    c0.003,0.432,0.007,0.865,0.008,1.298c-0.076,1.066-0.205,2.077-0.424,3.144C61.033,306.892,61.226,307.665,61.392,308.567z     M44.277,299.859c0,0.39,0.001,0.793-0.007,1.219c-0.003,0.221,0.002,0.441,0,0.664c-0.035,1.145-0.061,2.291-0.128,3.433    c-0.069,1.15,0.197,2.025,0.251,3.129c0.004,0.092,0.025,0.173,0.038,0.259c-0.216,0.001-0.432,0-0.648,0    c-4.197,0.012-8.329,0.057-12.498,0.451c-1.957,0.184-4.011,0.47-6.048,0.713c0.507-1.337,0.563-2.893,0.518-4.411    c-0.052-1.726-0.115-3.623-0.218-5.33c-0.095-1.566-0.778-2.897-1.198-4.37c2.068,0.393,4.319,0.47,6.163,0.619    c4.617,0.375,9.284,0.686,13.948,0.864C44.268,297.974,44.262,298.95,44.277,299.859z M489.474,278.28    c0.637,0.144,1.252,0.575,1.421,1.206c0.665,2.473-7.651,2.021-9.084,2.098c-4.14,0.225-8.283,0.393-12.423,0.6    c-9.337,0.466-18.7,0.708-28.05,0.687c-14.446-0.032-28.708-2.168-43.187-2.001c-14.184,0.164-28.467,0.5-42.637,1.303    c-14.83,0.84-29.742,0.899-44.594,1.577c-8.021,0.366-16.241,0.663-24.267,0.527c-6.141-0.104-12.359-0.327-18.481,0.311    c-4.388-0.385-8.847-0.052-13.231,0.014c-3.001,0.046-6.01,0.116-9.013,0.249c-6.796-0.945-13.733-0.69-20.576-0.573    c-8.026,0.136-16.247-0.161-24.267-0.526c-14.852-0.678-29.764-0.738-44.594-1.577c-14.169-0.803-28.453-1.139-42.637-1.303    c-14.478-0.167-28.74,1.969-43.187,2.001c-9.351,0.021-18.713-0.221-28.05-0.687c-4.14-0.207-8.283-0.375-12.423-0.6    c-1.432-0.077-9.749,0.375-9.084-2.098c0.169-0.632,0.784-1.062,1.421-1.206c0.946-0.212,2.117-0.097,3.099-0.155    c0.208,0.033,0.416,0.068,0.633,0.096c5.661,0.755,11.396,0.616,17.129,0.678c22.43,0.243,44.919-2.596,67.384-0.393    c5.709,0.56,11.399,0.416,17.118,0.887c5.693,0.469,11.305-0.393,16.992-0.128c11.306,0.524,22.651,1.609,33.997,1.624    c12.367,0.018,24.755,1.536,37.087,1.452c9.66-0.066,20.555,1.613,30.234-0.48c2.241-0.014,4.495-0.048,6.771-0.074    c4.527-0.052,9.168,0.163,13.813,0.26c9.429,1.781,19.911,0.231,29.245,0.294c12.332,0.084,24.721-1.435,37.087-1.452    c11.346-0.016,22.691-1.099,33.997-1.624c5.688-0.264,11.298,0.597,16.992,0.128c5.72-0.471,11.41-0.326,17.118-0.887    c22.465-2.203,44.954,0.635,67.384,0.393c5.733-0.062,11.468,0.077,17.129-0.678c0.216-0.029,0.424-0.063,0.633-0.096    C487.356,278.183,488.529,278.068,489.474,278.28z M26.868,177.991c4.551,0.737,9.534,0.25,13.812-0.045    c17.737-1.228,35.8-0.939,53.601-0.602c18.365,0.347,36.837,1.324,55.171,0.309c17.274-0.957,34.875-0.685,52.156-0.179    c9.713,0.284,19.469,0.298,29.171,0.361c4.46,0.03,8.891,0.642,13.337,0.864c1.79,0.09,3.761,0.239,5.604-0.028    c2.555,0.113,5.102,0.045,7.337,0.059c3.512,0.02,7.253,0.345,10.834-0.03c4.446-0.222,8.875-0.834,13.334-0.864    c9.703-0.064,19.458-0.076,29.171-0.361c17.282-0.504,34.883-0.778,52.156,0.179c18.334,1.015,36.807,0.039,55.171-0.309    c17.801-0.336,35.864-0.626,53.601,0.602c4.279,0.296,9.262,0.782,13.812,0.045c0.218,23.741-1.099,47.551-0.388,71.322    c0.166,5.541,0.392,11.141,0.679,16.677c0.097,1.882,0.72,4.075,0.251,5.926c-0.286,1.132-0.591,1.723-1.198,2.106    c-2.377,0.397-4.497,0.883-5.765,1.08c-0.028,0.004-0.045,0.02-0.071,0.027c-2.651,0.128-5.448-0.03-8.005,0.098    c-2.719,0.137-5.522,0.069-8.244,0.033c-4.647-0.059-9.549-0.371-14.171-0.772c-1.224-0.106-2.454-0.179-3.681-0.271    c1.755-11.817,0.373-29.628-12.109-34.645c-5.921-2.379-12.404,0.405-15.832,5.515c-1.823,2.719-2.452,6.184-2.681,9.406    c-0.432,6.074-0.53,12.618-0.201,18.721c-10.216,0.035-20.431,0.353-30.577,0.774c-5.106,0.211-10.118-0.657-15.216-0.588    c-2.448,0.032-4.92,0.061-7.393,0.114c1.442-3.541,0.886-8.365,0.774-11.959c-0.139-4.465-0.97-9.11-2.326-13.365    c-2.431-7.632-8.296-12.393-16.639-11.669c-17.62,1.53-16.042,25.424-14.359,38.378c-2.915,0.073-5.83,0.122-8.746,0.133    c-10.065,0.035-20.491,0.39-30.495,1.29c-2.111,0.189-4.274,0.286-6.462,0.354c-1.922-0.323-3.888-0.553-5.869-0.736    c-0.397-3.105-0.048-7.062-0.017-9.875c0.066-5.827-0.55-12.858-2.573-18.372c-2.984-8.134-11.994-11.985-20.398-11.067    c-7.963,0.869-13.133,8.909-15.21,15.985c-2.164,7.369-1.701,15.913-0.113,23.504c-2.949,0.076-5.888,0.222-8.77,0.549    c-2.054-0.069-4.086-0.163-6.07-0.342c-10.004-0.899-20.43-1.254-30.495-1.29c-2.916-0.01-5.831-0.06-8.746-0.133    c1.684-12.954,3.26-36.848-14.359-38.378c-8.344-0.724-14.209,4.036-16.641,11.669c-1.355,4.255-2.187,8.9-2.325,13.365    c-0.112,3.595-0.668,8.419,0.774,11.959c-2.473-0.053-4.945-0.081-7.393-0.114c-5.097-0.069-10.11,0.801-15.216,0.588    c-10.145-0.421-20.362-0.739-30.577-0.774c0.329-6.104,0.231-12.647-0.201-18.721c-0.229-3.222-0.858-6.688-2.681-9.407    c-3.428-5.11-9.911-7.896-15.832-5.515c-12.482,5.017-13.864,22.829-12.109,34.645c-1.227,0.092-2.456,0.164-3.681,0.271    c-4.621,0.4-9.524,0.714-14.171,0.772c-2.722,0.034-5.525,0.104-8.244-0.033c-2.557-0.129-5.354,0.029-8.005-0.098    c-0.025-0.005-0.043-0.022-0.071-0.027c-1.268-0.197-3.388-0.682-5.765-1.08c-0.607-0.383-0.911-0.974-1.198-2.106    c-0.469-1.849,0.153-4.044,0.25-5.926c0.288-5.536,0.513-11.136,0.679-16.677C27.966,225.543,26.65,201.732,26.868,177.991z     M431.673,251.33c-0.905-2.497-3.956-6.911-7.211-8.327c3.831-1.4,8.366-0.254,11.402,3.735c3.263,4.287,4.719,9.256,5.338,14.569    c0.482,4.134,0.139,8.556,0.619,12.709c-2.959-0.195-5.924-0.339-8.892-0.459C433.991,266.382,434.062,257.923,431.673,251.33z     M418.75,248.318c0.76-1.546,1.782-2.78,2.952-3.727c1.931,0.395,4.76,3.295,5.65,4.459c2.013,2.634,2.238,5.973,2.525,9.124    c0.461,5.051,0.226,10.216-0.548,15.246c-3.915-0.122-7.835-0.188-11.757-0.204C417.863,265.609,415.329,255.283,418.75,248.318z     M350.005,263.165c0.044-4.113,0.473-8.118-0.541-12.151c-0.872-3.464-4.113-9.035-8.034-10.736    c16.455-4.388,17.042,22.517,16.73,33.301c-1.814,0.053-3.625,0.117-5.422,0.22c-0.983,0.055-1.967,0.102-2.951,0.155    c0.051-0.104,0.104-0.208,0.135-0.317C350.812,270.407,349.97,266.479,350.005,263.165z M346.307,272.203    c-0.583,0.598-0.601,1.352-0.299,1.949c-4.699,0.241-9.399,0.462-14.1,0.618c-0.317-2.357-0.93-4.583-0.926-7.038    c0.008-3.962-0.174-7.9,0.15-11.831c0.491-5.941,1.803-11.702,7.304-14.499c5.343,3.134,8.563,8.907,8.57,15.074    c0.004,3.36-0.445,6.735-0.523,10.1C346.461,267.6,347.05,271.441,346.307,272.203z M271.673,269.971    c0.045,1.802-0.158,3.738-0.178,5.619c-6.152-0.273-12.374-0.063-18.197,0.228c-3.734,0.187-7.595,0.182-11.472,0.228    c0.733-5.162-0.754-10.828-0.296-15.971c0.645-7.245,3.698-18.295,12.16-19.575c4.086-0.618,9.108,0.538,12.602,2.817    c4.89,3.19,4.887,9.69,5.389,14.875C272.067,262.203,271.573,265.996,271.673,269.971z M165.697,272.203    c-0.742-0.762-0.154-4.603-0.177-5.628c-0.079-3.365-0.528-6.74-0.523-10.1c0.009-6.168,3.229-11.941,8.571-15.074    c5.5,2.797,6.813,8.559,7.304,14.499c0.324,3.931,0.143,7.869,0.15,11.831c0.004,2.456-0.608,4.681-0.926,7.038    c-4.701-0.156-9.401-0.376-14.1-0.618C166.297,273.554,166.28,272.802,165.697,272.203z M161.999,263.165    c0.036,3.314-0.806,7.242,0.083,10.471c0.03,0.109,0.084,0.213,0.135,0.317c-0.983-0.053-1.968-0.1-2.95-0.155    c-1.797-0.102-3.608-0.167-5.422-0.22c-0.312-10.784,0.275-37.689,16.731-33.301c-3.921,1.701-7.162,7.272-8.034,10.736    C161.524,255.046,161.954,259.053,161.999,263.165z M94.43,273.217c-3.921,0.016-7.841,0.082-11.757,0.204    c-0.773-5.029-1.009-10.194-0.548-15.246c0.288-3.152,0.512-6.492,2.525-9.124c0.89-1.164,3.719-4.064,5.65-4.459    c1.17,0.946,2.192,2.18,2.952,3.727C96.675,255.283,94.141,265.609,94.43,273.217z M79.075,273.558    c-2.968,0.121-5.933,0.263-8.892,0.459c0.48-4.154,0.136-8.576,0.619-12.709c0.621-5.313,2.075-10.281,5.338-14.569    c3.036-3.99,7.57-5.136,11.402-3.735c-3.255,1.416-6.306,5.83-7.211,8.327C77.942,257.923,78.013,266.382,79.075,273.558z     M497.585,164.44c-2.951,2.565-6.532,6.683-10.248,7.696c-7.459,2.033-15.924,0.386-23.49,0.13    c-17.939-0.606-36.254-0.1-54.205,0.363c-17.35,0.447-34.725-0.566-52.036-0.502c-8.642,0.032-17.259-0.254-25.9-0.275    c-8.752-0.022-17.523,0.875-26.295,1.004c-8.391,0.123-16.778,0.028-25.156,0.258c-3.764,0.103-7.558,0.387-11.309,0.716    c-0.799,0.07-1.695,0.175-2.619,0.269c-6.01-0.668-12.347-0.407-18.403,0.171c-1.684-0.074-3.427-0.313-4.866-0.439    c-3.75-0.328-7.545-0.613-11.309-0.716c-8.379-0.23-16.765-0.135-25.156-0.258c-8.772-0.129-17.543-1.026-26.295-1.004    c-8.641,0.021-17.258,0.307-25.9,0.275c-17.311-0.065-34.687,0.948-52.036,0.502c-17.951-0.462-36.267-0.969-54.205-0.363    c-7.566,0.255-16.032,1.904-23.49-0.13c-3.717-1.013-7.297-5.132-10.248-7.696c-0.32-0.278-0.612-0.562-0.893-0.845    c2.874,0.125,5.796-0.046,7.994,0.161c17.26,1.635,34.752,0.138,52.044,1.397c8.546,0.623,17.344,0.451,25.927,0.533    c8.984,0.085,17.93-0.263,26.905-0.261c20.081,0.003,40.11,0.692,60.18,0.574c19.449-0.114,38.768-0.976,58.162-1.668    c3.36,0.164,6.735,0.258,10.067,0.315c7.438,0.127,16.335,1.833,23.851,0.103c15.578,0.583,31.131,1.159,46.769,1.251    c20.07,0.118,40.099-0.571,60.18-0.574c8.974-0.001,17.921,0.347,26.905,0.261c8.582-0.082,17.381,0.09,25.927-0.533    c17.292-1.259,34.784,0.237,52.044-1.397c2.198-0.208,5.12-0.036,7.995-0.161C498.197,163.878,497.905,164.162,497.585,164.44z     M504.342,157.917c-1.562,1.469-4.95,1.224-6.95,1.348c-3.487,0.215-7.005,0.409-10.498,0.481    c-8.463,0.176-17.041-0.259-25.513-0.389c-15.949-0.246-31.939,0.971-47.902,0.82c-16.398-0.156-33.145-1.532-49.515-0.344    c-16.936,1.229-33.884,1.453-50.879,1.52c-14.113,0.055-28.184-0.659-42.273-0.963c-4.568-0.3-9.236-0.105-13.561-0.109    c-5.794-0.004-11.999-0.543-17.909,0.15c-13.471,0.323-26.931,0.973-40.427,0.921c-16.995-0.066-33.942-0.291-50.879-1.52    c-16.37-1.187-33.115,0.188-49.515,0.344c-15.963,0.152-31.952-1.065-47.902-0.82c-8.472,0.131-17.05,0.565-25.513,0.389    c-3.494-0.072-7.012-0.267-10.498-0.481c-2-0.123-5.389,0.121-6.95-1.348c-0.726-0.682-2.566-5.609-1.821-6.511    c0.983-1.188,9.436-0.241,11.36-0.239c4.423,0.007,8.816,0.513,13.256,0.483c7.964-0.054,15.901-0.773,23.844-0.804    c15.8-0.062,31.525,0.88,47.319,0.767c15.818-0.113,31.514-0.253,47.298-0.786c8.342-0.281,16.583-0.128,24.93-0.078    c9.892,0.057,19.937-0.176,29.777,0.477c17.472,1.157,34.871,2.52,52.38,1.206c17.508,1.314,34.907-0.049,52.378-1.206    c9.84-0.652,19.885-0.418,29.777-0.477c8.346-0.05,16.586-0.202,24.93,0.078c15.784,0.532,31.48,0.673,47.298,0.786    c15.794,0.113,31.519-0.828,47.319-0.767c7.943,0.031,15.88,0.749,23.844,0.804c4.44,0.03,8.831-0.477,13.256-0.483    c1.924-0.002,10.377-0.949,11.36,0.239C506.908,152.308,505.068,157.235,504.342,157.917z"/>
	</g>
</g>
<g>
	<g>
		<path d="M463.89,219.413c1.021-11.505,0.193-24.58-8.457-31.725c-8.699-7.183-21.905-3.652-26.995,5.877    c-2.729,5.109-1.778,13.238-1.788,18.796c-0.007,3.511-0.604,6.976-0.436,10.478c0.105,2.193-0.405,5.774,0.841,7.669    c1.15,1.749,3.253,1.536,5.18,1.589c3.77,0.104,7.406,0.511,11.156,0.729c3.665,0.212,7.484,0.344,11.125-0.094    c2.022-0.243,4.556,0.171,6.516-0.368C465.612,231.106,463.984,222.81,463.89,219.413z M459.241,228.314    c-0.633,0.392-5.468,0.376-6.539,0.475c-3.658,0.336-7.855,0.025-11.494-0.48c-2.527-0.351-7.539,0.733-9.704-0.372    c-0.292,0.041-0.584,0.083-0.876,0.124c-0.003-0.874-0.058-1.744-0.16-2.61c-0.158-1.924-0.359-3.741-0.242-5.671    c0.168-2.765,0.323-5.468,0.319-8.251c-0.009-6.133-0.764-13.411,3.183-18.381c5.082-6.396,14.546-6.673,20.256-0.761    c8.888,9.201,5.335,22.73,6.28,34.457C460.038,227.498,459.714,228.021,459.241,228.314z"/>
	</g>
</g>
<g>
	<g>
		<path d="M422.949,219.413c1.021-11.505,0.193-24.58-8.457-31.725c-8.699-7.183-21.905-3.652-26.995,5.877    c-2.729,5.109-1.778,13.238-1.787,18.796c-0.007,3.511-0.603,6.976-0.436,10.478c0.105,2.193-0.405,5.774,0.841,7.669    c1.15,1.749,3.253,1.536,5.18,1.589c3.77,0.104,7.406,0.511,11.156,0.729c3.665,0.212,7.484,0.344,11.125-0.094    c2.022-0.243,4.556,0.171,6.516-0.368C424.671,231.106,423.043,222.81,422.949,219.413z M418.3,228.314    c-0.633,0.392-5.468,0.376-6.539,0.475c-3.658,0.336-7.855,0.025-11.494-0.48c-2.527-0.351-7.54,0.733-9.705-0.372    c-0.292,0.041-0.584,0.083-0.876,0.124c-0.003-0.874-0.057-1.744-0.16-2.61c-0.156-1.924-0.358-3.741-0.241-5.671    c0.168-2.765,0.322-5.468,0.319-8.251c-0.009-6.133-0.764-13.411,3.183-18.381c5.082-6.396,14.546-6.673,20.256-0.761    c8.888,9.201,5.335,22.73,6.279,34.457C419.097,227.498,418.773,228.021,418.3,228.314z"/>
	</g>
</g>
<g>
	<g>
		<path d="M382.752,219.413c1.021-11.505,0.192-24.58-8.457-31.725c-8.699-7.183-21.905-3.652-26.995,5.877    c-2.729,5.109-1.778,13.238-1.787,18.796c-0.008,3.511-0.604,6.976-0.436,10.478c0.105,2.193-0.405,5.774,0.841,7.669    c1.15,1.749,3.253,1.536,5.18,1.589c3.77,0.104,7.406,0.511,11.156,0.729c3.665,0.212,7.484,0.344,11.125-0.094    c2.022-0.243,4.556,0.171,6.516-0.368C384.474,231.106,382.846,222.81,382.752,219.413z M378.102,228.314    c-0.633,0.392-5.468,0.376-6.539,0.475c-3.658,0.336-7.855,0.025-11.494-0.48c-2.527-0.351-7.539,0.733-9.704-0.372    c-0.292,0.041-0.584,0.083-0.876,0.124c-0.003-0.874-0.058-1.744-0.16-2.61c-0.157-1.924-0.358-3.741-0.241-5.671    c0.168-2.765,0.323-5.468,0.319-8.251c-0.009-6.133-0.764-13.411,3.182-18.381c5.082-6.396,14.546-6.673,20.256-0.761    c8.888,9.201,5.335,22.73,6.279,34.457C378.9,227.498,378.575,228.021,378.102,228.314z"/>
	</g>
</g>
<g>
	<g>
		<path d="M341.81,219.413c1.021-11.505,0.193-24.58-8.457-31.725c-8.699-7.183-21.905-3.652-26.995,5.877    c-2.729,5.109-1.778,13.238-1.788,18.796c-0.006,3.511-0.602,6.976-0.435,10.478c0.105,2.193-0.405,5.774,0.841,7.669    c1.15,1.749,3.253,1.536,5.18,1.589c3.77,0.104,7.406,0.511,11.156,0.729c3.665,0.212,7.484,0.344,11.125-0.094    c2.022-0.243,4.556,0.171,6.516-0.368C343.533,231.106,341.905,222.81,341.81,219.413z M337.162,228.314    c-0.633,0.392-5.468,0.376-6.539,0.475c-3.658,0.336-7.855,0.025-11.494-0.48c-2.528-0.351-7.539,0.733-9.704-0.372    c-0.292,0.041-0.584,0.083-0.876,0.124c-0.003-0.874-0.057-1.744-0.16-2.61c-0.157-1.924-0.36-3.741-0.242-5.671    c0.168-2.765,0.322-5.468,0.319-8.251c-0.009-6.133-0.764-13.411,3.183-18.381c5.082-6.396,14.546-6.673,20.257-0.761    c8.888,9.201,5.335,22.73,6.279,34.457C337.96,227.498,337.635,228.021,337.162,228.314z"/>
	</g>
</g>
<g>
	<g>
		<path d="M300.871,219.413c1.021-11.505,0.194-24.58-8.457-31.725c-8.699-7.183-21.906-3.652-26.995,5.877    c-2.729,5.109-1.778,13.238-1.788,18.796c-0.008,3.511-0.604,6.976-0.437,10.478c0.106,2.193-0.404,5.774,0.842,7.669    c1.15,1.749,3.252,1.536,5.18,1.589c3.769,0.104,7.404,0.511,11.156,0.729c3.665,0.212,7.484,0.344,11.125-0.094    c2.022-0.243,4.556,0.171,6.517-0.368C302.594,231.106,300.966,222.81,300.871,219.413z M296.22,228.314    c-0.633,0.392-5.468,0.376-6.539,0.475c-3.658,0.336-7.855,0.025-11.494-0.48c-2.526-0.351-7.539,0.733-9.704-0.372    c-0.292,0.041-0.583,0.083-0.876,0.124c-0.003-0.874-0.058-1.744-0.16-2.61c-0.156-1.924-0.358-3.741-0.241-5.671    c0.168-2.765,0.323-5.468,0.319-8.251c-0.01-6.133-0.764-13.411,3.182-18.381c5.082-6.396,14.546-6.673,20.257-0.761    c8.888,9.201,5.335,22.73,6.279,34.457C297.017,227.498,296.693,228.021,296.22,228.314z"/>
	</g>
</g>
<g>
</g>
<g>
</g>
<g>
</g>
<g>
</g>
<g>
</g>
<g>
</g>
<g>
</g>
<g>
</g>
<g>
</g>
<g>
</g>
<g>
</g>
<g>
</g>
<g>
</g>
<g>
</g>
<g>
</g>
</svg>
