<?xml version="1.0" encoding="iso-8859-1"?>
<!-- Generator: Adobe Illustrator 19.0.0, SVG Export Plug-In . SVG Version: 6.00 Build 0)  -->
<svg xmlns="http://www.w3.org/2000/svg" xmlns:xlink="http://www.w3.org/1999/xlink" version="1.1" id="Layer_1" x="0px" y="0px" viewBox="0 0 512.003 512.003" style="enable-background:new 0 0 512.003 512.003;" xml:space="preserve">
<g>
	<g>
		<path d="M205.869,204.387c-0.917-3.461-1.876-8.667-6.294-8.732c-2.732-0.041-5.063,1.417-6.636,3.484    c-1.777,2.163-2.901,5.006-3.33,7.655c-0.431,2.667-0.618,8.545,2.661,9.441c1.921,0.524,4.146,0.177,6.083,0.068    c1.951-0.11,5.053-0.044,6.658-1.209C207.512,213.278,206.507,206.792,205.869,204.387z M203,210.302    c-0.262,1.363,0.159,1.078-1.049,1.705c-1.376,0.714-3.424,0.343-4.879,0.427c-0.9,0.052-2.142,0.35-3.046,0.172    c-0.153-0.054-0.266-0.084-0.349-0.096c-0.126-0.498-0.247-0.998-0.329-1.506c-0.096-0.609-0.189-1.287-0.259-1.973    c0.098-4.209,0.809-8.543,4.923-10.104c3.726-1.415,4.935,4.923,5.077,7.743C203.145,207.793,203.207,209.222,203,210.302z"/>
	</g>
</g>
<g>
	<g>
		<path d="M123.761,334.748c-0.917-3.461-1.876-8.667-6.294-8.732c-2.732-0.041-5.063,1.417-6.636,3.484    c-1.777,2.162-2.901,5.006-3.33,7.655c-0.431,2.667-0.618,8.546,2.661,9.441c1.921,0.524,4.146,0.177,6.083,0.069    c1.951-0.11,5.053-0.044,6.658-1.21C125.404,343.639,124.399,337.153,123.761,334.748z M120.892,340.664    c-0.262,1.363,0.159,1.078-1.049,1.704c-1.376,0.714-3.424,0.343-4.879,0.427c-0.9,0.052-2.142,0.35-3.046,0.172    c-0.153-0.054-0.266-0.084-0.349-0.096c-0.126-0.498-0.247-0.998-0.329-1.506c-0.096-0.609-0.189-1.287-0.259-1.973    c0.098-4.208,0.809-8.54,4.923-10.103c3.726-1.415,4.935,4.923,5.077,7.743C121.037,338.153,121.099,339.584,120.892,340.664z"/>
	</g>
</g>
<g>
	<g>
		<path d="M78.497,334.748c-0.917-3.461-1.876-8.667-6.294-8.732c-2.732-0.041-5.063,1.417-6.636,3.484    c-1.777,2.162-2.901,5.006-3.33,7.655c-0.431,2.667-0.618,8.546,2.661,9.441c1.921,0.524,4.146,0.177,6.083,0.069    c1.951-0.11,5.053-0.044,6.658-1.21C80.139,343.639,79.135,337.153,78.497,334.748z M75.629,340.664    c-0.262,1.363,0.159,1.078-1.049,1.704c-1.376,0.714-3.424,0.343-4.879,0.427c-0.9,0.052-2.142,0.35-3.046,0.172    c-0.153-0.054-0.266-0.084-0.35-0.096c-0.126-0.498-0.247-0.998-0.329-1.506c-0.096-0.609-0.188-1.287-0.259-1.973    c0.099-4.208,0.811-8.54,4.924-10.103c3.726-1.415,4.935,4.923,5.077,7.743C75.774,338.153,75.836,339.584,75.629,340.664z"/>
	</g>
</g>
<g>
	<g>
		<path d="M33.234,334.748c-0.917-3.461-1.876-8.667-6.294-8.732c-2.732-0.041-5.063,1.417-6.636,3.484    c-1.777,2.162-2.901,5.006-3.33,7.655c-0.431,2.667-0.618,8.546,2.661,9.441c1.921,0.524,4.146,0.177,6.083,0.069    c1.95-0.11,5.053-0.044,6.658-1.21C34.876,343.639,33.872,337.153,33.234,334.748z M30.364,340.664    c-0.262,1.363,0.159,1.078-1.049,1.704c-1.376,0.714-3.424,0.343-4.879,0.427c-0.9,0.052-2.142,0.35-3.046,0.172    c-0.153-0.054-0.266-0.084-0.35-0.096c-0.126-0.498-0.247-0.998-0.329-1.506c-0.096-0.609-0.188-1.287-0.259-1.973    c0.099-4.208,0.811-8.54,4.924-10.103c3.726-1.415,4.935,4.923,5.077,7.743C30.51,338.153,30.572,339.584,30.364,340.664z"/>
	</g>
</g>
<g>
	<g>
		<path d="M169.025,334.748c-0.917-3.461-1.876-8.667-6.294-8.732c-2.732-0.041-5.063,1.417-6.636,3.484    c-1.778,2.162-2.901,5.006-3.33,7.655c-0.431,2.667-0.618,8.546,2.661,9.441c1.921,0.524,4.146,0.177,6.083,0.069    c1.95-0.11,5.053-0.044,6.657-1.21C170.667,343.639,169.662,337.153,169.025,334.748z M166.155,340.664    c-0.262,1.363,0.159,1.078-1.049,1.704c-1.376,0.714-3.424,0.343-4.879,0.427c-0.9,0.052-2.142,0.35-3.046,0.172    c-0.153-0.054-0.266-0.084-0.349-0.096c-0.126-0.498-0.247-0.998-0.329-1.506c-0.096-0.609-0.189-1.287-0.259-1.973    c0.098-4.208,0.809-8.54,4.923-10.103c3.726-1.415,4.935,4.923,5.077,7.743C166.3,338.153,166.362,339.584,166.155,340.664z"/>
	</g>
</g>
<g>
	<g>
		<path d="M241.807,142.009c-0.93-4.911-3.471-10.013-8.961-10.621c-4.241-0.469-7.178,2.419-8.975,5.815    c-3.598,4.767-3.949,12.733-3.107,18.321c0.282,1.872,0.367,3.29,2.067,4.244c1.904,1.068,6.746,0.674,8.811,0.706    c2.571,0.04,7.189,0.64,8.81-1.706c1.351-1.956,1.422-5.955,1.6-8.237C242.264,147.839,242.31,144.663,241.807,142.009z     M237.014,155.795c-3.847,0.069-8.234,0.743-11.942,0.004c-0.029-0.096-0.05-0.197-0.078-0.295c0.251-2.66,0.536-5.263,0.57-8.001    c0.057-4.508,0.652-11.453,6.289-11.613c5.096-0.144,6.05,5.777,6.151,9.927C238.067,148.416,238.129,152.994,237.014,155.795z"/>
	</g>
</g>
<g>
	<g>
		<path d="M216.259,262.5c-8.183-8.832-20.398-0.814-22.97,8.948c-1.398,5.308-2.346,11.315-2.421,16.821    c-0.039,2.853-0.007,5.887,0.236,8.901c-0.014,0.35-0.031,0.701-0.035,1.051c-0.041,2.807-0.607,6.3,0.646,8.874    c0.451,0.926,1.507,1.356,2.468,1.416c6.359,0.394,13.923,0.208,20.178-1.222c4.342-0.992,4.676-4.312,5.093-8.286    c0.7-6.657,0.497-13.455,0.851-20.156C220.6,273.26,220.198,266.751,216.259,262.5z M214.756,282.069    c-0.325,5.159,0.204,10.406-0.326,15.549c-0.109,1.052-0.086,3.871-0.72,4.88c0.008-0.417-2.442-0.222-2.86-0.19    c-1.195,0.092-2.387,0.22-3.582,0.312c-3.699,0.284-7.418,0.389-11.12,0.254c-0.724-2.463-0.684-5.697-0.845-8.013    c0.003-0.179,0.014-0.363,0.016-0.537c0.004-4.487-0.027-8.556,0.573-13.038c0.561-4.201,1.128-9.191,3.633-12.785    c3.756-5.387,12.043-6.995,14.701,0.248C215.764,272.939,215.027,277.748,214.756,282.069z"/>
	</g>
</g>
<g>
	<g>
		<path d="M249.847,262.5c-8.183-8.832-20.398-0.814-22.97,8.948c-1.398,5.308-2.346,11.315-2.421,16.821    c-0.039,2.853-0.007,5.887,0.236,8.901c-0.013,0.35-0.03,0.701-0.034,1.051c-0.041,2.807-0.607,6.3,0.645,8.874    c0.451,0.926,1.507,1.356,2.468,1.416c6.359,0.394,13.923,0.208,20.178-1.222c4.342-0.992,4.676-4.312,5.093-8.286    c0.7-6.657,0.497-13.455,0.85-20.156C254.188,273.26,253.786,266.751,249.847,262.5z M248.345,282.069    c-0.325,5.159,0.204,10.406-0.326,15.549c-0.109,1.052-0.086,3.871-0.72,4.88c0.008-0.417-2.442-0.222-2.86-0.19    c-1.195,0.092-2.387,0.22-3.582,0.312c-3.699,0.284-7.418,0.389-11.12,0.254c-0.724-2.463-0.684-5.697-0.845-8.013    c0.004-0.179,0.016-0.363,0.016-0.537c0.004-4.487-0.027-8.556,0.573-13.038c0.561-4.201,1.128-9.191,3.633-12.785    c3.756-5.387,12.043-6.995,14.701,0.248C249.353,272.939,248.616,277.748,248.345,282.069z"/>
	</g>
</g>
<g>
	<g>
		<path d="M287.311,297.169c0.243-3.013,0.274-6.047,0.236-8.901c-0.074-5.507-1.022-11.513-2.421-16.821    c-2.57-9.761-14.785-17.779-22.97-8.948c-3.94,4.251-4.341,10.76-4.046,16.348c0.353,6.702,0.151,13.499,0.85,20.157    c0.417,3.973,0.751,7.293,5.093,8.286c6.255,1.43,13.818,1.616,20.178,1.222c0.961-0.06,2.017-0.489,2.468-1.416    c1.253-2.573,0.686-6.067,0.645-8.874C287.341,297.871,287.324,297.521,287.311,297.169z M282.267,302.874    c-3.701,0.135-7.419,0.03-11.12-0.254c-1.194-0.092-2.386-0.22-3.582-0.312c-0.418-0.032-2.867-0.227-2.86,0.19    c-0.633-1.009-0.611-3.828-0.72-4.88c-0.53-5.143-0.001-10.389-0.326-15.549c-0.272-4.322-1.008-9.131,0.529-13.318    c2.658-7.243,10.945-5.635,14.701-0.248c2.505,3.594,3.07,8.582,3.633,12.785c0.599,4.482,0.568,8.55,0.573,13.038    c0.001,0.174,0.011,0.358,0.016,0.537C282.95,297.178,282.991,300.413,282.267,302.874z"/>
	</g>
</g>
<g>
	<g>
		<path d="M322.394,206.794c-0.429-2.649-1.552-5.492-3.33-7.656c-1.572-2.067-3.904-3.525-6.636-3.484    c-4.418,0.065-5.377,5.271-6.294,8.732c-0.636,2.405-1.641,8.891,0.859,10.707c1.604,1.165,4.707,1.099,6.658,1.209    c1.937,0.11,4.163,0.456,6.083-0.068C323.012,215.34,322.826,209.461,322.394,206.794z M318.658,211.003    c-0.082,0.508-0.203,1.008-0.329,1.506c-0.084,0.012-0.196,0.042-0.349,0.096c-0.904,0.179-2.147-0.12-3.046-0.172    c-1.455-0.084-3.504,0.287-4.879-0.427c-1.206-0.627-0.787-0.343-1.049-1.705c-0.208-1.08-0.146-2.509-0.09-3.632    c0.143-2.82,1.352-9.158,5.077-7.743c4.114,1.562,4.826,5.895,4.924,10.104C318.845,209.717,318.754,210.394,318.658,211.003z"/>
	</g>
</g>
<g>
	<g>
		<path d="M265.852,206.794c-0.429-2.649-1.552-5.492-3.33-7.656c-1.573-2.067-3.904-3.525-6.636-3.484    c-4.418,0.065-5.377,5.271-6.294,8.732c-0.636,2.405-1.642,8.891,0.859,10.707c1.604,1.165,4.707,1.099,6.657,1.209    c1.937,0.11,4.163,0.456,6.083-0.068C266.471,215.34,266.285,209.461,265.852,206.794z M262.116,211.003    c-0.082,0.508-0.203,1.008-0.329,1.506c-0.084,0.012-0.196,0.042-0.349,0.096c-0.904,0.179-2.147-0.12-3.046-0.172    c-1.455-0.084-3.504,0.287-4.879-0.427c-1.206-0.627-0.787-0.343-1.049-1.705c-0.208-1.08-0.146-2.509-0.09-3.632    c0.142-2.82,1.352-9.158,5.077-7.743c4.114,1.562,4.826,5.895,4.924,10.104C262.304,209.717,262.212,210.394,262.116,211.003z"/>
	</g>
</g>
<g>
	<g>
		<path d="M404.503,337.155c-0.429-2.649-1.552-5.492-3.33-7.655c-1.572-2.067-3.904-3.525-6.636-3.484    c-4.418,0.065-5.377,5.271-6.294,8.732c-0.636,2.405-1.642,8.892,0.859,10.707c1.604,1.165,4.707,1.099,6.658,1.21    c1.937,0.11,4.163,0.456,6.083-0.069C405.121,345.701,404.935,339.822,404.503,337.155z M400.766,341.366    c-0.082,0.508-0.203,1.008-0.329,1.506c-0.084,0.012-0.196,0.042-0.349,0.096c-0.904,0.177-2.147-0.12-3.046-0.172    c-1.455-0.084-3.504,0.287-4.879-0.427c-1.206-0.627-0.787-0.343-1.049-1.704c-0.208-1.081-0.146-2.51-0.09-3.633    c0.142-2.82,1.352-9.158,5.077-7.743c4.114,1.562,4.826,5.895,4.924,10.104C400.954,340.079,400.862,340.757,400.766,341.366z"/>
	</g>
</g>
<g>
	<g>
		<path d="M449.767,337.155c-0.429-2.649-1.552-5.492-3.33-7.655c-1.572-2.067-3.904-3.525-6.636-3.484    c-4.418,0.065-5.377,5.271-6.294,8.732c-0.638,2.405-1.642,8.892,0.858,10.707c1.604,1.165,4.707,1.099,6.657,1.21    c1.937,0.11,4.163,0.456,6.083-0.069C450.384,345.701,450.198,339.822,449.767,337.155z M446.03,341.366    c-0.082,0.508-0.203,1.008-0.329,1.506c-0.084,0.012-0.196,0.042-0.35,0.096c-0.904,0.177-2.146-0.12-3.046-0.172    c-1.455-0.084-3.504,0.287-4.879-0.427c-1.206-0.627-0.787-0.343-1.049-1.704c-0.207-1.081-0.146-2.51-0.089-3.633    c0.142-2.82,1.352-9.158,5.077-7.743c4.114,1.562,4.826,5.895,4.924,10.104C446.219,340.079,446.127,340.757,446.03,341.366z"/>
	</g>
</g>
<g>
	<g>
		<path d="M495.029,337.155c-0.429-2.649-1.552-5.492-3.33-7.655c-1.572-2.067-3.904-3.525-6.636-3.484    c-4.418,0.065-5.377,5.271-6.294,8.732c-0.636,2.405-1.641,8.892,0.859,10.707c1.604,1.165,4.707,1.099,6.657,1.21    c1.937,0.11,4.163,0.456,6.083-0.069C495.648,345.701,495.461,339.822,495.029,337.155z M491.293,341.366    c-0.082,0.508-0.203,1.008-0.329,1.506c-0.084,0.012-0.196,0.042-0.349,0.096c-0.904,0.177-2.147-0.12-3.046-0.172    c-1.455-0.084-3.504,0.287-4.879-0.427c-1.206-0.627-0.787-0.343-1.049-1.704c-0.208-1.081-0.146-2.51-0.09-3.633    c0.142-2.82,1.352-9.158,5.077-7.743c4.114,1.562,4.826,5.895,4.924,10.104C491.482,340.079,491.39,340.757,491.293,341.366z"/>
	</g>
</g>
<g>
	<g>
		<path d="M359.239,337.155c-0.429-2.649-1.552-5.492-3.33-7.655c-1.572-2.067-3.904-3.525-6.636-3.484    c-4.418,0.065-5.377,5.271-6.294,8.732c-0.638,2.405-1.642,8.892,0.859,10.707c1.604,1.165,4.707,1.099,6.658,1.21    c1.937,0.11,4.163,0.456,6.083-0.069C359.858,345.701,359.672,339.822,359.239,337.155z M355.503,341.366    c-0.082,0.508-0.203,1.008-0.329,1.506c-0.084,0.012-0.196,0.042-0.349,0.096c-0.904,0.177-2.146-0.12-3.046-0.172    c-1.455-0.084-3.504,0.287-4.879-0.427c-1.206-0.627-0.786-0.343-1.049-1.704c-0.208-1.081-0.146-2.51-0.09-3.633    c0.142-2.82,1.352-9.158,5.077-7.743c4.114,1.562,4.826,5.895,4.924,10.104C355.69,340.079,355.599,340.757,355.503,341.366z"/>
	</g>
</g>
<g>
	<g>
		<path d="M288.133,137.204c-1.797-3.395-4.733-6.284-8.975-5.815c-5.491,0.608-8.03,5.709-8.961,10.621    c-0.503,2.653-0.457,5.829-0.245,8.523c0.179,2.282,0.25,6.281,1.6,8.237c1.621,2.346,6.238,1.746,8.81,1.707    c2.065-0.032,6.907,0.363,8.811-0.706c1.701-0.954,1.785-2.372,2.067-4.244C292.08,149.937,291.731,141.971,288.133,137.204z     M286.933,155.799c-3.707,0.738-8.096,0.064-11.942-0.004c-1.114-2.801-1.053-7.378-0.991-9.977    c0.1-4.15,1.055-10.071,6.151-9.928c5.638,0.16,6.234,7.106,6.289,11.613c0.034,2.739,0.319,5.341,0.57,8.001    C286.983,155.601,286.961,155.703,286.933,155.799z"/>
	</g>
</g>
<g>
	<g>
		<path d="M508.457,356.153c-0.839-0.536-1.658-0.884-2.476-1.127c0.181-0.361,0.305-0.777,0.323-1.274    c0.004-0.12,0.01-0.24,0.014-0.359c0.237-1.098,0.256-2.292,0.151-3.511c0.299-6.263,0.704-12.414,0.401-18.784    c-0.314-6.617,0.303-13.322,0.524-19.947c0.126-3.776,0.421-7.537,0.155-11.313c-0.19-2.686,0.356-6.373-0.746-8.854    c-1.815-4.082-6.529-3.559-10.299-3.712c-6.772-0.274-13.74-0.745-20.508-0.258c-6.339,0.456-6.781,3.124-6.823,8.885    c-0.03,4.087-0.01,8.176-0.01,12.263c0,1.81-0.071,3.625-0.047,5.433c0.014,1.062,0.62,2.911,0.309,3.89    c-0.145,0.46,0.774,0.556-1.203,0.499c-1.663-0.049-3.333,0.001-4.998,0c-2.114-0.001-6.798,0.844-9.596,0.408    c-0.367-5.705,0.134-11.615-0.035-17.3c-0.126-4.268,0.152-11.464-3.505-14.443c-3.559-2.899-8.65-2.161-12.839-2.424    c-2.441-0.153-4.81-0.24-7.265-0.255c-2.039-0.013-4.525-0.62-6.447,0.295c-3.953,1.882-2.433,7.307-2.432,10.794    c0.002,5.021-0.846,10.146-0.383,15.136c0.226,2.439,0.096,4.792,0.204,7.231c0.014,0.32,0.001,0.638-0.008,0.921    c-0.943,0.012-2.148,0.19-2.312,0.187c-2.921-0.03-5.856,0.026-8.773-0.054c-3.154-0.086-2.471-0.569-2.711-3.654    c-0.487-6.21-0.13-12.463-0.699-18.665c-0.31-3.376-0.741-7.344-4.277-8.806c-3.406-1.409-8.345-1.002-12.025-1.213    c-3.416-0.195-8.404-1.43-11.592,0.173c-6.269,3.151-2.91,16.847-2.973,22.246c-0.028,2.347-0.439,5.269,0.285,7.535    c0.039,0.122,0.067,0.214,0.099,0.318c-0.992-0.045-2.365,0.071-2.674,0.069c-2.545-0.018-5.601,0.58-8.067-0.211    c-1.913-0.613-1.714-2.527-1.811-4.231c-0.317-5.604-0.733-11.218-1.93-16.715c-0.724-3.322-1.544-7.368-4.766-9.128    c-3.606-1.969-8.947-1.068-12.941-1.192c-2.734-0.085-5.555-0.335-8.23,0.146c-0.034-0.607-0.062-1.215-0.1-1.821    c-0.501-8.007-0.74-16.174-0.751-24.182c-0.009-5.957,0.401-12.656-0.58-18.695c2.73-0.196,5.427-0.776,6.911-2.362    c2.195-2.343,2.405-6.633,0.937-9.383c-1.383-2.59-4.586-4.775-7.614-5.823c0.083-0.388,0.152-0.792,0.194-1.225    c0.348-3.546,0.003-7.679-0.505-11.196c-0.915-6.332-0.98-12.598-0.884-18.908c0.092-6.038,2.771-17.274-3.579-21.069    c-2.793-1.67-6.272-0.991-9.373-1.18c-2.238-0.136-4.45-0.508-6.663-0.846c-0.961-0.147-2.635,0.313-3.48-0.104    c-0.999-0.493-1.455-2.279-1.636-3.268c-0.429-2.359-0.004-4.802-0.112-7.184c-0.113-2.506-0.45-4.999-0.472-7.509    c-0.04-4.587,0.944-9.969-0.138-14.58c0.432,0.195,0.867,0.383,1.307,0.557c2.799,1.104,5.938,3.081,8.943,3.389    c4.777,0.488,7.178-4.566,8.844-8.786c2.721,1.55,5.597,2.678,8.581,1.57c4.193-1.557,6.464-8.584,5.103-12.624    c-1.698-5.037-9.618-6.777-13.787-8.784c-4.917-2.366-10.005-4.502-14.87-6.732c-5.065-2.321-9.514-5.901-14.594-7.983    c-7.246-2.97-13.665-7.31-20.014-11.848c-2.961-2.116-6.041-4.085-9.063-6.119c-0.625-0.529-1.246-1.061-1.906-1.57    c-2.716-2.096-6.654-7.556-10.483-7.39c-3.105,0.134-7.013,4.536-9.185,6.43c-1.729,1.507-3.653,2.872-5.431,4.362    c-2.125,1.405-4.251,2.81-6.318,4.288c-6.348,4.539-12.767,8.879-20.014,11.848c-5.08,2.081-9.528,5.662-14.594,7.983    c-4.865,2.229-9.953,4.366-14.87,6.732c-4.168,2.006-12.09,3.746-13.787,8.784c-1.361,4.041,0.91,11.066,5.103,12.624    c2.984,1.109,5.86-0.019,8.581-1.57c1.667,4.22,4.067,9.274,8.844,8.786c3.005-0.307,6.145-2.284,8.943-3.389    c0.44-0.174,0.876-0.362,1.307-0.557c-1.08,4.613-0.096,9.993-0.137,14.58c-0.022,2.51-0.359,5.003-0.472,7.509    c-0.108,2.382,0.318,4.826-0.112,7.184c-0.181,0.99-0.637,2.775-1.636,3.268c-0.845,0.417-2.518-0.043-3.48,0.104    c-2.213,0.338-4.425,0.711-6.663,0.846c-3.1,0.189-6.58-0.49-9.373,1.18c-6.35,3.797-3.671,15.032-3.579,21.069    c0.096,6.309,0.03,12.577-0.884,18.908c-0.508,3.517-0.854,7.65-0.505,11.196c0.043,0.434,0.111,0.837,0.194,1.225    c-3.028,1.048-6.233,3.232-7.614,5.823c-1.468,2.75-1.259,7.04,0.937,9.383c1.486,1.586,4.181,2.166,6.911,2.362    c-0.981,6.039-0.571,12.738-0.579,18.695c-0.011,8.008-0.251,16.174-0.751,24.182c-0.038,0.605-0.065,1.214-0.1,1.821    c-2.674-0.481-5.495-0.231-8.23-0.146c-3.994,0.124-9.335-0.777-12.941,1.192c-3.222,1.76-4.042,5.806-4.766,9.128    c-1.198,5.497-1.613,11.111-1.93,16.715c-0.096,1.704,0.102,3.619-1.811,4.231c-2.467,0.791-5.522,0.193-8.067,0.211    c-0.309,0.002-1.681-0.115-2.675-0.069c0.032-0.104,0.06-0.196,0.099-0.318c0.724-2.265,0.313-5.186,0.285-7.535    c-0.063-5.398,3.297-19.093-2.973-22.246c-3.188-1.602-8.176-0.368-11.592-0.173c-3.68,0.211-8.619-0.196-12.025,1.213    c-3.536,1.463-3.967,5.43-4.277,8.806c-0.569,6.202-0.213,12.456-0.699,18.665c-0.241,3.085,0.441,3.567-2.711,3.654    c-2.917,0.08-5.852,0.024-8.773,0.054c-0.163,0.001-1.368-0.175-2.312-0.187c-0.01-0.284-0.022-0.601-0.008-0.921    c0.108-2.438-0.022-4.791,0.204-7.231c0.465-4.989-0.385-10.115-0.383-15.136c0.001-3.486,1.521-8.912-2.432-10.794    c-1.923-0.915-4.409-0.308-6.448-0.295c-2.455,0.016-4.825,0.102-7.265,0.255c-4.189,0.263-9.28-0.475-12.839,2.424    c-3.657,2.978-3.379,10.175-3.505,14.443c-0.169,5.685,0.333,11.596-0.036,17.3c-2.798,0.436-7.482-0.408-9.596-0.408    c-1.663,0-3.334-0.049-4.998,0c-1.978,0.058-1.058-0.039-1.203-0.499c-0.31-0.979,0.295-2.828,0.309-3.89    c0.024-1.809-0.047-3.624-0.047-5.433c0-4.087,0.02-8.175-0.01-12.263c-0.042-5.762-0.483-8.429-6.823-8.885    c-6.768-0.487-13.736-0.017-20.508,0.258c-3.77,0.153-8.484-0.369-10.299,3.712c-1.103,2.482-0.557,6.169-0.746,8.854    c-0.266,3.775,0.029,7.537,0.155,11.312c0.222,6.625,0.838,13.331,0.524,19.947c-0.302,6.37,0.102,12.521,0.401,18.784    c-0.105,1.219-0.086,2.414,0.151,3.511c0.004,0.12,0.01,0.238,0.014,0.359c0.018,0.497,0.142,0.913,0.323,1.274    c-0.819,0.243-1.637,0.592-2.476,1.127c-4.726,3.012-4.831,11.176,0.317,13.699c1.83,0.896,4.049,1.3,6.289,1.529    c-1.131,10.941-0.06,21.771,0.016,32.75c0.044,6.427,0.23,12.852,0.447,19.275c0.11,3.24,0.228,6.48,0.343,9.72    c0.047,1.3,0.201,2.585,0.258,3.864c0.063,1.408-0.071,2.763,0.783,3.993c0.539,0.777,1.522,1.453,2.489,1.522    c1.088,0.079,1.938-0.842,2.932-1.283c2.867-1.045,6.746-0.86,9.997-0.577c2.403,0.571,4.759,1.368,7.2,1.609    c1.846,0.182,2.665-2.361,1.468-3.544c-1.045-1.032-1.939-2.772-2.078-4.249c-0.235-2.499,2.495-3.63,4.39-2.589    c2.211,1.215,4.004,3.239,6.452,4.128c1.172,0.426,2.561-0.689,2.495-1.901c-0.194-3.537-2.469-8.161-1.282-11.614    c2.567-7.47,6.033,3.534,6.865,5.752c0.783,2.087,4.126,1.94,4.089-0.553c-0.078-5.198-0.408-9.896,1.14-14.971    c0.756-2.479,1.704-5.117,2.965-7.383c1.454-2.611,2.649-4.605,2.795-0.605c0.197,5.412-4.714,14.269-0.836,18.958    c1.038,1.255,2.775,0.584,3.575-0.461c2.729-3.566,3.597-8.131,5.03-12.288c0.731-2.119,1.606-4.218,2.927-6.043    c1.286-1.775,2.95-4.063,5.358-3.952c3.674,0.169,0.511,7.305-0.031,9.234c-0.947,3.369-1.989,6.555-3.322,9.778    c-0.901,2.179,1.911,3.582,3.602,2.768c2.33-1.121,3.501-3.843,5.157-5.725c2.611-2.967,7.215-6.452,11.528-6.178    c-0.03,3.26-2.944,6.15-2.538,9.462c0.21,1.709,1.62,3.279,3.527,2.687c3.823-1.188,6.726-4.082,10.67-5.117    c2.726-0.715,4.461-1.643,3.237,1.558c-0.591,1.546-1.084,2.699-1.281,4.3c-0.103,0.839,0.563,1.921,1.308,2.281    c2.402,1.161,5.933-1.081,8.133-1.903c1.144-0.427,2.642-1.056,3.893-0.774c5.12,1.151,2.238,6.911,4.219,10.016    c1.077,1.687,3.239,1.929,4.708,0.607c0.671-0.604,2.466-3.166,3.465-2.869c1.497,0.445,1.162,3.592,1.999,4.664    c1.03,1.318,2.176,1.797,3.765,1.162c2.17-0.868,2.546-3.707,4.46-4.853c4.146-2.484,4.93,3.393,7.905,4.815    c0.948,0.454,2.145,0.442,2.914-0.376c2.555-2.721,0.798-6.885,3.267-9.475c1.733-1.817,1.342-1.465,3.136-0.153    c0.823,0.602,1.577,1.303,2.393,1.916c1.229,0.924,2.296,1.634,3.752,2.132c1.488,0.508,2.997-0.827,3.009-2.292    c0.024-2.946-2.956-8.26-0.274-10.684c1.833-1.657,3.444,1.425,4.574,3.14c0.895,1.359,1.433,2.489,2.696,3.537    c1.657,1.375,3.947,0.863,4.669-1.233c0.735-2.131-0.058-4.562,0.129-6.815c0.137-1.678,0.459-3.401,0.98-5.001    c0.613-1.883,0.901-3.756,2.167-1.979c2.4,3.372-0.52,9.78,4.021,12.053c1.387,0.694,3.589,0.507,4.311-1.13    c2.035-4.615,2.445-10.11,5.166-14.428c2.741-4.347,2.765,1.528,2.397,3.658c-0.326,1.887-0.47,3.135-0.125,5.064    c0.194,1.083,1.525,2.092,2.626,1.999c3.711-0.316,4.991-3.896,6.799-6.653c0.806-1.229,1.744-2.53,2.718-3.619    c1.753-1.963,2.003-3.325,3.916-0.456c1.507,2.259,1.077,3.16,0.206,5.543c-0.637,1.744-1.387,3.232-1.814,5.046    c-0.451,1.918,1.203,3.561,3.117,3.117c2.774-0.643,3.718-2.852,6.076-4.145c3.931-2.156,2.791,1.434,3.631,4.077    c0.593,1.866,2.771,2.386,4.206,1.11c1.899-1.688,3.944-3.3,5.855-5.004c2.418-0.716,4.795-0.497,7.041,2.01    c1.831,2.041,5.604,0.458,5.477-2.269c-0.173-3.729-1.995-10.511,1.831-13.193c4.258-2.986,7.742,3.416,9.48,5.841    c1.346,1.88,2.685,3.577,4.118,5.137c0.113,0.31,0.3,0.618,0.594,0.907c2.344,2.31,5.067,4.373,7.538,6.57    c1.435,1.275,3.613,0.755,4.206-1.11c0.841-2.643-0.299-6.233,3.631-4.077c2.359,1.293,3.302,3.502,6.077,4.145    c1.914,0.444,3.568-1.198,3.117-3.117c-0.427-1.814-1.178-3.302-1.814-5.046c-0.87-2.383-1.301-3.284,0.207-5.543    c1.914-2.87,2.163-1.507,3.916,0.456c0.974,1.089,1.912,2.391,2.718,3.619c1.81,2.757,3.089,6.337,6.799,6.653    c1.101,0.094,2.432-0.916,2.626-1.999c0.345-1.929,0.202-3.177-0.125-5.064c-0.368-2.131-0.344-8.006,2.397-3.658    c2.722,4.317,3.131,9.812,5.166,14.428c0.722,1.637,2.924,1.825,4.311,1.13c4.54-2.273,1.62-8.681,4.02-12.053    c1.264-1.777,1.552,0.095,2.167,1.979c0.521,1.6,0.842,3.323,0.98,5.001c0.185,2.253-0.607,4.684,0.129,6.815    c0.722,2.095,3.013,2.608,4.669,1.233c1.262-1.048,1.801-2.177,2.696-3.537c1.129-1.715,2.741-4.797,4.573-3.14    c2.682,2.424-0.298,7.737-0.274,10.684c0.012,1.466,1.521,2.8,3.009,2.292c1.456-0.497,2.524-1.209,3.752-2.132    c0.816-0.613,1.569-1.314,2.393-1.916c1.794-1.313,1.403-1.666,3.136,0.153c2.468,2.59,0.712,6.754,3.267,9.475    c0.768,0.818,1.965,0.829,2.914,0.376c2.975-1.422,3.759-7.298,7.905-4.815c1.915,1.147,2.29,3.985,4.46,4.853    c1.589,0.635,2.734,0.156,3.765-1.162c0.837-1.072,0.503-4.219,1.999-4.664c1-0.297,2.794,2.264,3.465,2.869    c1.469,1.323,3.631,1.08,4.708-0.607c1.981-3.106-0.9-8.865,4.219-10.016c1.251-0.282,2.749,0.347,3.893,0.774    c2.2,0.822,5.732,3.064,8.133,1.903c0.745-0.36,1.412-1.442,1.308-2.281c-0.196-1.601-0.69-2.754-1.281-4.3    c-1.224-3.201,0.511-2.273,3.237-1.558c3.945,1.035,6.848,3.93,10.672,5.117c1.906,0.592,3.318-0.978,3.527-2.687    c0.406-3.311-2.508-6.202-2.538-9.462c4.312-0.274,8.916,3.211,11.528,6.178c1.657,1.882,2.828,4.604,5.157,5.725    c1.69,0.813,4.502-0.589,3.602-2.768c-1.333-3.222-2.375-6.409-3.322-9.778c-0.542-1.929-3.705-9.066-0.031-9.234    c2.408-0.111,4.072,2.177,5.358,3.952c1.322,1.825,2.197,3.924,2.927,6.043c1.433,4.157,2.301,8.722,5.03,12.288    c0.799,1.044,2.537,1.715,3.575,0.461c3.878-4.689-1.035-13.546-0.836-18.958c0.146-4,1.342-2.006,2.795,0.605    c1.261,2.265,2.209,4.903,2.965,7.383c1.548,5.074,1.218,9.772,1.14,14.971c-0.037,2.494,3.308,2.64,4.089,0.553    c0.832-2.218,4.298-13.222,6.865-5.752c1.187,3.453-1.088,8.077-1.282,11.614c-0.067,1.212,1.323,2.326,2.495,1.901    c2.448-0.889,4.241-2.913,6.452-4.128c1.894-1.041,4.625,0.09,4.39,2.589c-0.139,1.477-1.032,3.217-2.078,4.249    c-1.196,1.183-0.378,3.726,1.468,3.544c2.44-0.241,4.797-1.038,7.2-1.609c3.251-0.284,7.13-0.467,9.997,0.577    c0.995,0.441,1.844,1.362,2.932,1.283c0.967-0.07,1.951-0.745,2.489-1.522c0.854-1.23,0.72-2.585,0.783-3.993    c0.058-1.28,0.212-2.565,0.258-3.864c0.114-3.24,0.233-6.48,0.343-9.72c0.217-6.424,0.403-12.848,0.447-19.275    c0.075-10.978,1.147-21.809,0.016-32.75c2.24-0.231,4.46-0.633,6.289-1.529C513.289,367.329,513.183,359.165,508.457,356.153z     M343.01,290.538c2.625,0.147,6.333-0.352,8.806,0.332c6.617,1.827,5.299,14.895,5.439,20.209    c0.119,4.531-0.512,10.668,5.287,11.316c3.476,0.388,7.223,0.245,10.725,0.282c2.468,0.026,5.385,0.66,7.465-0.914    c3.01-2.276,1.06-7.864,1.028-11.161c-0.032-3.292-0.179-6.527-0.416-9.799c-0.149-2.035-0.858-4.865-0.369-6.833    c1.073-4.317,9.643-1.901,13.491-1.695c2.119,0.113,4.874-0.276,5.878,1.341c1.701,2.738,0.169,9.393,0.114,12.5    c-0.084,4.794-0.939,12.041,1.353,16.446c2.273,4.37,9.017,2.304,12.929,2.263c3.603-0.039,10.77,1.488,12.485-2.798    c0.748-1.872-0.092-4.2-0.142-6.123c-0.074-2.907-0.523-5.602-0.704-8.485c-0.212-3.369,0.135-6.817,0.142-10.19    c0.001-0.765-0.72-6.764-0.049-7.556c0.274-0.324,5.597,0.159,6.504,0.174c2.851,0.05,5.989-0.012,8.81,0.292    c3.315,0.357,4.678,0.941,5.196,4.286c0.562,3.63,0.528,7.105,0.485,10.764c-0.039,3.338-0.079,6.675-0.118,10.013    c-0.024,2.017-0.75,5.38,0.395,7.251c2.259,3.692,9.961,2.274,13.454,2.29c3.525,0.016,10.127,1.019,13.163-1.487    c3.198-2.639,1.529-8.561,1.561-12.105c0.053-5.775-0.531-11.874-0.221-17.685c2.583-0.589,6.193-0.074,8.472-0.082    c3.883-0.013,7.74,0.131,11.619,0.263c1.359,0.047,3.116-0.246,4.402,0.305c2.107,0.901,0.062-0.665,0.775,2.001    c1.052,3.938,0.64,8.392,0.475,12.399c-0.31,7.531-1.012,15.229-0.673,22.75c0.323,7.154-0.581,14.346-0.237,21.45    c-0.167,0.081-0.343,0.157-0.534,0.217c-2.344,0.742-5.834,0.725-8.271,0.767c-6.758,0.119-13.607-0.407-20.355-0.734    c-6.972-0.338-13.963,0.344-20.928,0.397c-8.017,0.061-16.036,0.002-24.052,0.013c-15.479,0.02-30.932-0.019-46.401-0.61    c-7.539-0.288-15.115-0.713-22.65-0.858c-7.123-0.138-14.391,0.203-21.478-0.285c-0.251-0.018-0.471,0.01-0.679,0.054    c0.05-3.732,0.049-8.437-1.957-11.586c2.448-0.445,4.83-1.239,6.259-3.165c2.064-2.782,1.759-8.734,0.605-11.891    c-0.717-1.963-2.064-3.198-3.669-3.862c0.246-0.717,0.281-1.485,0.164-2.284c0.129-0.904,0.112-1.878,0.022-2.976    c-0.283-3.46-0.201-6.822-0.3-10.285c-0.153-5.301-0.309-10.639-0.554-15.956C338.175,289.807,340.674,290.406,343.01,290.538z     M186.292,123.47c-1.326,0.681-2.58,2.025-3.987,2.5c-1.914,0.646-4.703-0.034-3.879-2.942c0.752-2.657,6.727-4.046,8.914-5.152    c11.205-5.661,21.603-12.067,32.854-17.562c7.272-3.552,13.599-8.85,20.147-13.52c3.923-2.8,8.81-6.099,12.243-10.068    c1.392-0.9,2.691-1.52,3.517-1.328c1.419,0.329,2.912,3.122,4.043,4.114c1.499,1.313,3.181,2.698,4.775,3.893    c1.857,1.394,3.8,2.712,5.879,3.755c0.886,0.445,1.864,0.601,2.73,1.009c1.418,0.671,2.615,1.885,3.858,2.829    c1.561,1.185,3.157,2.332,4.761,3.457c3.087,2.164,6.275,4.204,9.667,5.86c11.251,5.495,21.649,11.902,32.854,17.562    c2.188,1.104,8.162,2.495,8.914,5.152c0.823,2.907-1.966,3.588-3.88,2.942c-1.407-0.476-2.661-1.82-3.987-2.5    c-6.987-3.583-14.458-6.142-21.343-9.994c-0.063-0.036-0.126-0.07-0.188-0.105c-6.324-3.529-12.842-6.691-19.265-10.033    c-1.609-0.837-3.213-1.685-4.806-2.554c-1.234-0.672-2.018-1.425-3.065-2.293c-2.51-2.081-5.502-4.084-8.343-5.684    c-3.539-1.994-6.69-5.738-10.702-6.806c-4.083-1.087-9.316,2.376-12.369,4.673c-5.723,4.306-10.99,8.693-17.344,12.033    c-6.873,3.612-13.877,6.977-20.654,10.769C200.75,117.328,193.278,119.887,186.292,123.47z M203.327,129.723    c-2.048,1.052-5.718,2.88-7.926,3.196c-3.679,0.527-3.433-2.483-5.454-4.711c-0.017-0.019-0.033-0.034-0.051-0.053    c0.466-0.262,0.928-0.507,1.382-0.712c6.855-3.108,13.436-6.421,20.044-9.955c7.217-3.859,14.089-8.106,20.976-12.649    c5.755-3.798,11.752-6.785,16.469-11.59c0.013-0.01,0.027-0.019,0.04-0.029c3.38-2.584,5.755-5.807,10.027-3.271    c1.264,0.75,2.488,1.637,3.705,2.568c4.815,5.243,11.127,8.333,17.17,12.32c6.887,4.543,13.759,8.791,20.976,12.649    c6.609,3.533,13.189,6.846,20.043,9.955c0.454,0.205,0.915,0.45,1.382,0.712c-0.018,0.019-0.034,0.034-0.051,0.053    c-2.021,2.229-1.776,5.238-5.454,4.711c-2.208-0.316-5.877-2.143-7.926-3.196c-3.125-1.606-6.175-3.386-9.359-4.942    c-6.748-3.299-13.545-7.274-19.496-11.815c-2.978-2.272-6.2-5.698-9.746-8.152c-3.989-3.684-9.036-7.017-13.795-7.444    c-3.84-0.344-7.914,2.188-10.844,4.441c-1.604,1.232-3.431,2.605-5.06,4.146c-2.942,2.298-5.657,5.073-8.197,7.01    c-5.951,4.54-12.747,8.515-19.496,11.815C209.503,126.337,206.451,128.118,203.327,129.723z M301.289,161.182    c-0.201,2.7-0.722,4.724,0.221,7.087c-0.408,0.001-0.818,0.023-1.232,0.094c-2.437,0.416-4.084,1.576-4.971,3.912    c-0.972,2.561-0.416,5.478-0.303,8.138c0.187,4.448-0.837,8.633-0.899,13.022c-0.038,2.646,0.644,1.929-1.638,2.595    c-1.291,0.377-3.893-0.02-5.148-0.093c-1.357-0.124-2.713-0.252-4.07-0.384c-0.784-0.208-1.329-0.299-1.672-0.291    c-0.386-1.572-0.232-3.467-0.34-4.9c-0.326-4.331-0.506-8.485-0.444-12.825c0.044-3.086,0.1-6.675-2.349-8.943    c-2.078-1.924-5.068-2.008-7.724-2.028c-3.393-0.024-6.809-0.386-10.185-0.133c-2.996-0.272-6.063-0.195-8.718-0.217    c-3.151-0.027-6.748-0.336-9.972,0.338c-0.185,0.003-0.371,0.01-0.557,0.011c-2.656,0.019-5.647,0.104-7.724,2.028    c-2.449,2.268-2.393,5.857-2.349,8.943c0.061,4.34-0.118,8.494-0.444,12.825c-0.108,1.432,0.045,3.328-0.34,4.9    c-0.343-0.009-0.888,0.082-1.672,0.291c-1.356,0.131-2.712,0.258-4.069,0.384c-1.254,0.074-3.857,0.47-5.148,0.093    c-2.282-0.665-1.6,0.051-1.638-2.595c-0.063-4.389-1.087-8.575-0.899-13.022c0.112-2.66,0.67-5.576-0.303-8.138    c-0.888-2.336-2.534-3.496-4.971-3.912c-0.414-0.071-0.824-0.093-1.232-0.094c0.943-2.363,0.42-4.387,0.221-7.087    c-0.243-3.273-0.13-6.599-0.163-9.878c-0.061-6.044,0.003-11.814-2.067-17.554c-0.007-0.019-0.021-0.033-0.028-0.051    c1.853-1.026,3.699-2.096,5.625-3.024c8.082-3.896,15.912-8.553,22.941-14.102c2.931-2.314,5.956-4.648,8.838-7.058    c0.852-0.583,1.704-1.17,2.577-1.72c2.315-1.459,6.557-4.619,9.409-4.354c1.459,0.135,2.534,1.555,3.589,2.472    c4.324,3.759,9.024,7.091,13.545,10.66c7.029,5.55,14.859,10.206,22.941,14.102c1.925,0.928,3.772,1.998,5.625,3.024    c-0.007,0.018-0.021,0.033-0.028,0.051c-2.07,5.74-2.006,11.51-2.067,17.554C301.419,154.585,301.532,157.91,301.289,161.182z     M183.74,196.214c0.07-4.614,0.226-9.236,0.211-13.849c-0.008-2.763-0.894-6.228,3.374-7.352c1.702-0.448,4.29,0.459,6.093,0.368    c3.16-0.159,6.514-1.061,9.578-1.083c1.16-0.009,6.87-0.106,7.441,0.358c0.846,0.691,0.001,5.829-0.059,7.415    c-0.145,3.85,0.439,7.542,0.414,11.365c-0.039,5.618,1.47,9.019,7.59,9.68c3.476,0.376,6.92-0.177,10.373-0.478    c2.565-0.223,5.335,0.095,7.009-2.202c1.294-1.775,1.435-4.496,1.599-6.636c0.325-4.238,0.636-8.657,0.501-12.908    c-0.05-1.561-1.062-6.086-0.088-7.357c0.758-0.988,2.423-0.622,3.507-0.66c0.819-0.028,1.631-0.057,2.438-0.09    c2.819,0.09,5.777-0.245,8.09-0.177c3.823,0.111,8.346,0.655,12.388-0.072c2.149,0.193,4.307,0.264,6.514,0.339    c1.084,0.037,2.749-0.328,3.507,0.66c0.976,1.271-0.038,5.796-0.088,7.357c-0.135,4.251,0.177,8.67,0.501,12.908    c0.164,2.14,0.306,4.861,1.599,6.636c1.674,2.299,4.444,1.979,7.009,2.202c3.453,0.301,6.897,0.854,10.373,0.478    c6.121-0.662,7.629-4.063,7.59-9.68c-0.027-3.822,0.558-7.515,0.414-11.365c-0.06-1.586-0.905-6.724-0.059-7.415    c0.571-0.466,6.282-0.367,7.441-0.358c3.064,0.022,6.418,0.925,9.578,1.083c1.803,0.091,4.391-0.816,6.093-0.368    c4.268,1.123,3.383,4.588,3.374,7.352c-0.014,4.614,0.141,9.236,0.212,13.849c0.128,8.349-0.642,16.2,0.651,24.461    c-0.111,0.135-0.22,0.273-0.364,0.376c-1.304,0.929-3.455,0.226-5.057,0.369c-3.643,0.325-7.386,0.89-11.09,0.64    c-8.441-0.572-16.693-1-25.196-0.705c-5.999,0.208-13.114-0.45-19.474,0.435c-1.702-0.264-3.488,0.043-5.379,0.041    c-4.429-0.004-8.859-0.018-13.287,0c-1.978,0.008-4.007-0.1-6.049-0.191c-6.03-0.65-12.614-0.091-18.224-0.285    c-8.504-0.295-16.755,0.133-25.196,0.705c-3.704,0.252-7.447-0.315-11.091-0.64c-1.602-0.143-3.753,0.56-5.057-0.369    c-0.144-0.103-0.254-0.241-0.364-0.376C184.382,212.415,183.613,204.563,183.74,196.214z M174.234,232.561    c-0.61-3.529,2.969-4.755,5.785-5.165c1.551-0.226,3.136-0.288,4.703-0.288c2.311,0.001,4.556,0.863,6.88,0.975    c9.406,0.456,18.935-0.474,28.374-0.628c5.06-0.083,10.114-0.299,15.172-0.421c1.271-0.031,2.579-0.031,3.9-0.043    c3.389,0.203,6.823,0.154,10.02,0.166c4.062,0.016,8.123-0.003,12.185,0c2.147,0.001,4.451,0.116,6.562-0.389    c3.016,0.279,6.122,0.195,9.039,0.266c5.06,0.121,10.113,0.338,15.172,0.421c9.44,0.154,18.968,1.083,28.374,0.628    c2.557-0.123,4.757-1.322,7.315-1.418c3.218-0.121,10.896,1.017,10.053,5.896c-0.526,3.04-8.123,2.257-10.63,2.221    c-5.083-0.071-10.054,0.098-15.134-0.369c-9.358-0.859-19.171-0.757-28.577-0.54c-0.045,0.001-0.09,0.002-0.134,0.003    c-6.449-0.68-13.179-0.414-19.721-0.274c-1.555-0.103-3.189-0.154-4.69,0.064c-2.253,0.004-4.546-0.051-6.857-0.111    c-0.53-0.034-1.067-0.049-1.608-0.041c-5.332-0.133-10.73-0.21-15.916,0.463c-1.977-0.024-3.953-0.06-5.928-0.105    c-9.406-0.217-19.22-0.319-28.577,0.54c-5.08,0.467-10.051,0.298-15.134,0.369C182.357,234.817,174.76,235.602,174.234,232.561z     M182.418,305.461c0.018-7.732,0.098-15.519,0.354-23.239c0.277-8.296,0.431-16.636,0.407-24.918    c-0.016-5.168,1.296-11.449,0.235-16.794c0.184-0.003,0.369-0.007,0.541-0.009c12.847-0.152,25.773-0.002,38.606-1.129    c6.719-0.59,13.482-0.142,20.194-0.622c5.358,0.329,10.73,0.341,16.195,0.355c7.57,0.018,15.176,0.574,22.721-0.061    c2.594,0.03,5.186,0.1,7.771,0.327c12.833,1.127,25.759,0.977,38.606,1.129c0.172,0.002,0.357,0.006,0.541,0.009    c-1.061,5.346,0.251,11.625,0.235,16.794c-0.024,8.282,0.13,16.622,0.407,24.918c0.257,7.72,0.336,15.507,0.354,23.239    c0.01,4.382-1,9.982,0.589,14.348c-2.262,0.509-5.609,0.313-7.253,0.406c-6.164,0.347-12.302,0.689-18.462,0.953    c-6.503,0.278-12.974,0.615-19.503,0.814c-3.609,0.11-7.171,0.092-10.721,0.182c-2.93-0.001-5.877,0.152-8.778,0.058    c-5.632-0.182-11.207,0.072-16.826,0.109c-1.899,0.012-3.804,0.043-5.708,0.071c-5.267-0.369-10.517-0.256-15.873-0.419    c-6.53-0.198-13-0.537-19.504-0.814c-6.161-0.263-12.298-0.605-18.462-0.953c-1.644-0.092-4.991,0.103-7.253-0.406    C183.419,315.443,182.409,309.843,182.418,305.461z M11.811,293.947c1.286-0.55,3.043-0.258,4.402-0.305    c3.88-0.132,7.735-0.277,11.618-0.263c2.28,0.008,5.89-0.507,8.472,0.082c0.31,5.813-0.274,11.91-0.221,17.685    c0.033,3.545-1.637,9.466,1.561,12.105c3.036,2.505,9.638,1.503,13.163,1.487c3.492-0.016,11.195,1.403,13.454-2.29    c1.144-1.871,0.419-5.234,0.395-7.251c-0.039-3.338-0.079-6.675-0.117-10.013c-0.043-3.657-0.078-7.132,0.485-10.764    c0.518-3.344,1.881-3.929,5.196-4.286c2.821-0.304,5.959-0.242,8.81-0.292c0.906-0.016,6.231-0.498,6.504-0.174    c0.671,0.791-0.05,6.791-0.049,7.556c0.007,3.373,0.355,6.822,0.142,10.19c-0.181,2.883-0.63,5.579-0.704,8.485    c-0.049,1.923-0.89,4.251-0.142,6.123c1.713,4.286,8.882,2.76,12.484,2.798c3.912,0.042,10.656,2.107,12.929-2.263    c2.292-4.405,1.437-11.653,1.353-16.446c-0.054-3.107-1.588-9.762,0.114-12.5c1.005-1.617,3.76-1.227,5.878-1.341    c3.849-0.205,12.418-2.621,13.491,1.695c0.489,1.968-0.221,4.798-0.369,6.833c-0.237,3.272-0.384,6.507-0.416,9.799    c-0.033,3.297-1.983,8.884,1.028,11.161c2.08,1.573,4.996,0.939,7.465,0.914c3.502-0.037,7.25,0.106,10.725-0.282    c5.799-0.648,5.168-6.785,5.287-11.316c0.14-5.314-1.178-18.381,5.439-20.209c2.474-0.683,6.182-0.184,8.806-0.332    c2.336-0.132,4.836-0.732,7.259-1.032c-0.245,5.317-0.401,10.655-0.554,15.956c-0.1,3.463-0.018,6.825-0.3,10.285    c-0.09,1.098-0.106,2.072,0.022,2.976c-0.116,0.799-0.082,1.567,0.164,2.284c-1.606,0.664-2.952,1.901-3.669,3.862    c-1.153,3.157-1.458,9.108,0.605,11.891c1.428,1.926,3.81,2.72,6.259,3.165c-2.006,3.148-2.007,7.854-1.957,11.586    c-0.207-0.044-0.428-0.071-0.679-0.054c-7.089,0.488-14.355,0.147-21.478,0.285c-7.536,0.145-15.111,0.57-22.65,0.858    c-15.468,0.591-30.92,0.63-46.401,0.61c-8.016-0.011-16.035,0.048-24.052-0.013c-6.966-0.053-13.956-0.735-20.928-0.397    c-6.748,0.327-13.597,0.852-20.355,0.734c-2.438-0.042-5.928-0.026-8.271-0.767c-0.192-0.061-0.367-0.136-0.534-0.217    c0.344-7.103-0.56-14.295-0.237-21.45c0.339-7.521-0.363-15.219-0.673-22.75c-0.165-4.008-0.578-8.462,0.475-12.399    C11.75,293.282,9.705,294.848,11.811,293.947z M12.248,366.183c-2.354-0.308-6.045-0.289-6.484-2.732    c-0.312-1.733,0.206-2.526,1.191-3.403c1.137-1.012,2.882-1.373,4.753-1.518c5.028,1.313,11.148,0.549,15.904,0.483    c7.275-0.099,14.518-0.71,21.801-0.841c8.234-0.149,16.507,0.294,24.757,0.289c17.422-0.01,34.813,0.096,52.22-0.55    c16.543-0.614,33.274-0.329,49.755-1.864c0.296-0.028,0.554-0.109,0.791-0.215c0.135,3.042,0.379,5.746,0.58,8.596    c-3.229,0.814-7.139,0.356-10.353,0.358l-15.177,0.011c-9.411,0.007-18.822,0.014-28.232,0.021    c-16.545,0.012-33.074,0.512-49.594,0.893c-16.627,0.384-33.239,0.801-49.886,0.965C20.234,366.715,16.262,366.708,12.248,366.183    z M179.152,415.736c-2.214-2.728-4.595-4.964-8.386-2.248c-2.06,1.477-2.809,3.682-3.139,6.105    c-0.173,1.264-0.083,3.136,0.061,4.865c-2.741-2-5.428-4.615-8.89-3.743c-1.69,0.426-2.52,1.436-3.217,2.988    c-0.662,1.475-0.582,5.235-1.029,7.608c-1.681-1.743-2.598-4.527-5.584-4.684c-2.54-0.133-5.597,1.887-7.145,4.118    c-0.167-0.707-0.567-1.471-0.886-1.976c-0.506-0.798-1.775-2.013-2.626-2.436c-2.005-0.997-3.783-0.588-5.44,0.313    c-0.402-0.991-1.005-2.061-1.499-2.823c-0.691-1.065-1.359-1.82-2.098-2.377c-2.811-4.048-7.302-2.587-11.79-1.139    c1.656-3.505,2.9-6.947-2.431-8.933c-3.012-1.122-6.016-0.418-8.935,0.635c-1.795,0.648-3.362,1.723-4.909,2.797    c0.24-0.582,0.446-1.129,0.547-1.589c0.301-1.382,0.557-3.07,0.173-4.461c-0.763-2.762-3.164-3.323-5.88-3.141    c-3.305,0.222-7.502,2.054-10.191,3.946c-0.268,0.189-0.52,0.403-0.775,0.609c1.638-6.484,2.054-13.367-3.289-14.58    c-4.124-0.937-8.328,4.146-10.409,6.857c-1.507,1.964-2.717,4.143-3.696,6.414c0.105-0.791,0.206-1.581,0.297-2.373    c0.36-3.128,0.583-6.453-1.769-8.862c-0.48-0.491-1.21-0.669-1.867-0.493c-4.662,1.24-7.073,6.806-8.762,10.833    c-1.542,3.677-2.316,6.903-2.654,10.22c-1.775-2.764-4.095-4.657-7.1-3.234c-5.148,2.437-3.712,10.142-2.852,15.69    c-3.301-2.223-6.792-5.39-10.15-2.811c-2.802,0.943-3.836,3.819-3.936,6.825c-3.762-0.941-8.474-0.328-11.396,0.684    c-0.073,0.026-0.143,0.054-0.216,0.08c0.02-10.655-0.856-21.411-0.803-32.077c0.03-5.83-0.93-11.48-1.147-17.277    c-0.177-4.743,0.141-9.633-0.464-14.341c0.3,0.02,0.605,0.038,0.895,0.061c5.683,0.44,11.526-0.047,17.225-0.048    c9.179-0.002,18.344-0.579,27.514-0.572c18.98,0.014,37.929-1.163,56.922-1.149l34.557,0.026    c5.774,0.004,11.551-0.044,17.325,0.013c2.696,0.027,5.729,0.204,8.488-0.282c0.25,7.318,1.125,14.467,1.138,21.82    c0.007,3.971-0.358,7.753-0.06,11.726c0.18,2.403,0.855,4.524,1.394,6.781C179.682,411.908,179.339,413.832,179.152,415.736z     M328.717,355.13c-0.391,5.672-0.618,11.412-0.951,17.337c-0.421,7.494-1.228,14.703-0.987,22.261    c0.093,2.922,0.071,5.587,0.266,8.182c-0.374-0.22-0.77-0.401-1.192-0.529c-2.887-0.873-5.081,0.997-6.273,3.482    c-0.583,1.217-0.954,2.584-1.288,3.938c-2.056-4.786-4.808-9.538-9.494-10.765c-5.039-1.318-5.508,3.036-5.413,7.397    c-1.123-1.482-2.519-2.859-3.883-4.112c-2.1-1.931-4.629-3.833-7.654-3.39c-6.885,1.011-6.134,7.112-4.621,12.572    c-2.049-1.876-4.144-3.588-7.297-2.451c-1.557,0.562-2.681,1.815-3.343,3.288c-0.076,0.171-0.119,0.339-0.167,0.509    c-1.271-1.671-2.712-3.288-3.794-4.635c-3.098-3.858-5.926-7.663-10.638-9.638c-4.084-1.712-7.852-1.715-10.95,1.749    c-2.463,2.753-3.639,5.949-4.038,9.29c-1.975-0.729-4.126-0.832-6.56,0.062c-1.64,0.602-3.302,1.826-4.584,3.331    c-0.06,0.037-0.122,0.068-0.182,0.105c-0.057-0.256-0.139-0.513-0.254-0.772c-0.662-1.473-1.786-2.726-3.343-3.288    c-3.154-1.139-5.248,0.574-7.297,2.451c1.514-5.46,2.264-11.561-4.621-12.572c-3.025-0.445-5.554,1.458-7.654,3.39    c-1.364,1.254-2.76,2.629-3.883,4.112c0.093-4.361-0.375-8.717-5.413-7.397c-4.686,1.226-7.437,5.979-9.494,10.765    c-0.335-1.354-0.704-2.72-1.288-3.938c-1.192-2.485-3.385-4.354-6.273-3.482c-0.422,0.128-0.818,0.309-1.192,0.529    c0.195-2.595,0.173-5.26,0.266-8.182c0.241-7.559-0.565-14.768-0.987-22.261c-0.334-5.925-0.56-11.665-0.951-17.337    c-0.312-4.53,0.883-9.972-0.113-14.598c0.134,0.019,0.269,0.037,0.399,0.057c11.501,1.752,23.475,1.974,35.086,2.152    c5.226,0.081,10.463-0.009,15.695-0.021c6.135,0.765,12.752,0.371,18.381,0.215c5.859-0.162,11.805,0.273,17.672,0.35    c4.513,0.06,10.235,0.492,14.939-0.528c2.668,0.016,5.335,0.023,7.999-0.018c11.61-0.179,23.585-0.4,35.086-2.152    c0.13-0.02,0.265-0.038,0.399-0.057C327.835,345.158,329.029,350.601,328.717,355.13z M324.752,336.132    c-3.881,0.334-7.851,0.733-11.739,0.89c-14.221,0.578-28.708-0.393-42.963,0.274c-5.518-0.095-11.075-0.247-16.567-0.074    c-3.456,0.109-6.888,0.109-10.328,0.135c-14.641-0.783-29.542,0.258-44.161-0.335c-3.889-0.157-7.858-0.557-11.739-0.89    c-2.385-0.205-5.3-0.529-7.682-1.033c-3.363-0.712-3.855-2.18-3.583-5.676c0.151-1.933-0.37-3.826,1.957-4.293    c3.697-0.743,7.111,0.775,10.836,1.09c4.041,0.341,8.098,0.283,12.143,0.52c11.91,0.699,24.203,1.484,36.258,0.738    c3.276,0.126,6.554,0.234,9.813,0.326c5.892,0.167,11.769-0.344,17.679-0.065c4.867,0.228,10.106,0.642,15.044-0.042    c10.473,0.313,21.061-0.352,31.364-0.956c4.045-0.237,8.102-0.179,12.143-0.52c3.725-0.315,7.139-1.832,10.836-1.09    c2.329,0.468,1.806,2.36,1.957,4.294c0.273,3.496-0.22,4.965-3.583,5.676C330.052,335.603,327.137,335.927,324.752,336.132z     M496.669,386.065c-0.216,5.797-1.176,11.447-1.147,17.277c0.054,10.665-0.822,21.421-0.803,32.077    c-0.072-0.026-0.143-0.054-0.216-0.08c-2.922-1.012-7.633-1.626-11.396-0.684c-0.101-3.007-1.133-5.882-3.936-6.825    c-3.36-2.579-6.849,0.588-10.15,2.811c0.86-5.549,2.296-13.253-2.852-15.69c-3.005-1.423-5.325,0.47-7.1,3.234    c-0.337-3.318-1.111-6.543-2.653-10.22c-1.689-4.027-4.099-9.594-8.762-10.833c-0.658-0.175-1.387,0.002-1.867,0.493    c-2.352,2.408-2.129,5.734-1.769,8.862c0.091,0.792,0.192,1.582,0.297,2.373c-0.979-2.271-2.189-4.45-3.696-6.414    c-2.079-2.711-6.285-7.794-10.409-6.857c-5.342,1.213-4.927,8.096-3.289,14.58c-0.255-0.206-0.507-0.42-0.775-0.609    c-2.69-1.893-6.887-3.726-10.191-3.946c-2.717-0.182-5.117,0.379-5.88,3.141c-0.384,1.39-0.128,3.079,0.173,4.461    c0.1,0.46,0.306,1.007,0.547,1.589c-1.547-1.073-3.114-2.149-4.909-2.797c-2.92-1.053-5.923-1.758-8.935-0.635    c-5.331,1.986-4.087,5.428-2.431,8.933c-4.489-1.448-8.979-2.91-11.79,1.139c-0.738,0.558-1.407,1.313-2.098,2.377    c-0.495,0.763-1.097,1.833-1.499,2.823c-1.657-0.9-3.435-1.31-5.44-0.313c-0.85,0.424-2.12,1.637-2.626,2.436    c-0.319,0.505-0.717,1.269-0.886,1.976c-1.549-2.231-4.605-4.251-7.145-4.118c-2.986,0.156-3.903,2.941-5.584,4.684    c-0.447-2.373-0.368-6.133-1.029-7.608c-0.696-1.552-1.527-2.563-3.217-2.988c-3.462-0.87-6.149,1.743-8.89,3.743    c0.144-1.729,0.234-3.6,0.061-4.865c-0.33-2.423-1.079-4.628-3.139-6.105c-3.791-2.718-6.172-0.481-8.386,2.248    c-0.187-1.904-0.53-3.828-1.117-5.635c0.538-2.255,1.214-4.377,1.394-6.781c0.298-3.973-0.067-7.756-0.06-11.726    c0.012-7.353,0.888-14.501,1.138-21.82c2.759,0.487,5.793,0.308,8.488,0.282c5.774-0.057,11.551-0.009,17.325-0.013l34.557-0.026    c18.993-0.013,37.941,1.163,56.922,1.149c9.169-0.007,18.334,0.57,27.514,0.572c5.698,0.001,11.542,0.488,17.225,0.048    c0.289-0.022,0.594-0.041,0.895-0.061C496.528,376.434,496.845,381.323,496.669,386.065z M506.24,363.451    c-0.439,2.443-4.132,2.424-6.484,2.732c-4.014,0.526-7.986,0.533-12.022,0.493c-16.647-0.164-33.26-0.581-49.886-0.965    c-16.521-0.381-33.049-0.88-49.594-0.893c-9.411-0.007-18.822-0.013-28.232-0.021l-15.177-0.011    c-3.216-0.002-7.125,0.456-10.353-0.358c0.201-2.849,0.445-5.554,0.58-8.596c0.236,0.107,0.496,0.187,0.791,0.215    c16.481,1.535,33.212,1.25,49.755,1.864c17.407,0.646,34.797,0.54,52.22,0.55c8.25,0.004,16.523-0.438,24.757-0.289    c7.283,0.131,14.527,0.742,21.801,0.841c4.756,0.064,10.877,0.829,15.904-0.483c1.871,0.146,3.616,0.506,4.753,1.518    C506.035,360.925,506.553,361.717,506.24,363.451z"/>
	</g>
</g>
<g>
	<g>
		<path d="M320.901,297.169c0.243-3.013,0.275-6.047,0.236-8.901c-0.074-5.507-1.022-11.513-2.421-16.821    c-2.57-9.761-14.786-17.779-22.97-8.948c-3.94,4.251-4.342,10.76-4.046,16.348c0.353,6.702,0.15,13.499,0.849,20.157    c0.417,3.973,0.751,7.293,5.093,8.286c6.255,1.43,13.818,1.616,20.178,1.222c0.961-0.06,2.017-0.489,2.468-1.416    c1.253-2.573,0.686-6.067,0.646-8.874C320.931,297.871,320.914,297.521,320.901,297.169z M315.856,302.874    c-3.701,0.135-7.419,0.03-11.12-0.254c-1.194-0.092-2.386-0.22-3.582-0.312c-0.418-0.032-2.867-0.227-2.86,0.19    c-0.633-1.009-0.611-3.828-0.72-4.88c-0.53-5.143,0-10.389-0.325-15.549c-0.273-4.322-1.009-9.131,0.528-13.318    c2.658-7.243,10.945-5.635,14.701-0.248c2.505,3.594,3.072,8.582,3.633,12.785c0.599,4.482,0.568,8.55,0.573,13.038    c0,0.174,0.011,0.358,0.016,0.537C316.539,297.178,316.58,300.413,315.856,302.874z"/>
	</g>
</g>
<g>
</g>
<g>
</g>
<g>
</g>
<g>
</g>
<g>
</g>
<g>
</g>
<g>
</g>
<g>
</g>
<g>
</g>
<g>
</g>
<g>
</g>
<g>
</g>
<g>
</g>
<g>
</g>
<g>
</g>
</svg>
