<?xml version="1.0" encoding="iso-8859-1"?>
<!-- Generator: Adobe Illustrator 19.0.0, SVG Export Plug-In . SVG Version: 6.00 Build 0)  -->
<svg xmlns="http://www.w3.org/2000/svg" xmlns:xlink="http://www.w3.org/1999/xlink" version="1.1" id="Layer_1" x="0px" y="0px" viewBox="0 0 512.004 512.004" style="enable-background:new 0 0 512.004 512.004;" xml:space="preserve">
<g>
	<g>
		<path d="M222.94,371.46c-0.119-7.419,0.127-15.882-3.651-22.58c-2.61-4.63-7.46-6.848-11.798-2.927    c-4.965,4.488-5.295,10.448-5.834,16.676c-0.52,6.002-1.515,11.606-1.445,17.66c0.062,5.433,0.136,10.865,0.135,16.299    c-0.001,2.499,0.179,4.931,0.387,7.355c-0.15,1.983-0.265,3.97-0.406,5.953c-0.291,4.087,0.512,7.832,0.448,11.831    c-0.043,2.714-0.912,6.003,1.106,8.213c1.73,1.894,4.546,1.862,6.907,1.808c4.813-0.111,11.363,2.147,12.803-4.414    c0.867-3.954,0.137-8.896,0.094-12.924c-0.05-4.612,0.567-9.045,0.723-13.626C222.739,391.017,223.097,381.241,222.94,371.46z     M218.491,369.396c-0.307,17.596-1.829,35.043-1.738,52.646c0.011,2.211,0.799,4.151-2.103,4.89    c-0.854,0.217-3.075-0.275-4.055-0.25c-1.06,0.026-2.68,0.523-3.648,0.139c-2.711-1.075-1.483-4.031-1.659-6.18    c-0.062-0.75-0.154-1.482-0.258-2.208c0.068-4.967-0.328-9.949-0.816-14.855c-0.875-8.784-0.269-18.582,0.05-27.41    c0.172-4.764,0.907-9.846,1.622-14.591c0.489-3.244,0.544-6.755,2.271-9.585c1.635-2.681,4.117-4.896,7.073-2.049    c1.411,1.359,1.908,3.879,2.36,5.73C218.698,360.206,218.571,364.774,218.491,369.396z"/>
	</g>
</g>
<g>
	<g>
		<path d="M251.15,371.46c-0.119-7.419,0.127-15.882-3.65-22.58c-2.611-4.63-7.46-6.848-11.798-2.927    c-4.965,4.488-5.295,10.448-5.834,16.676c-0.52,6.002-1.515,11.606-1.445,17.66c0.062,5.433,0.136,10.865,0.135,16.299    c-0.001,2.499,0.178,4.931,0.386,7.355c-0.15,1.983-0.265,3.97-0.406,5.953c-0.291,4.087,0.512,7.832,0.448,11.831    c-0.043,2.714-0.912,6.003,1.106,8.213c1.73,1.894,4.546,1.862,6.907,1.808c4.813-0.111,11.363,2.147,12.803-4.414    c0.867-3.954,0.137-8.896,0.094-12.924c-0.05-4.612,0.567-9.045,0.723-13.626C250.949,391.017,251.308,381.241,251.15,371.46z     M246.701,369.396c-0.307,17.596-1.829,35.043-1.738,52.646c0.011,2.211,0.799,4.151-2.103,4.89    c-0.854,0.217-3.076-0.275-4.055-0.25c-1.06,0.026-2.68,0.523-3.648,0.139c-2.711-1.075-1.483-4.031-1.659-6.18    c-0.062-0.75-0.156-1.482-0.258-2.208c0.068-4.967-0.328-9.949-0.816-14.855c-0.875-8.784-0.269-18.582,0.05-27.41    c0.172-4.764,0.907-9.846,1.622-14.591c0.489-3.244,0.544-6.755,2.271-9.585c1.635-2.681,4.117-4.896,7.074-2.049    c1.411,1.359,1.908,3.879,2.36,5.73C246.908,360.206,246.782,364.774,246.701,369.396z"/>
	</g>
</g>
<g>
	<g>
		<path d="M350.542,299.466c-0.169-6.707-1.359-13.642-0.98-20.307c0.405-7.118,0.391-14.14,0.453-21.266    c0.063-7.079,0.627-14.075,0.509-21.205c-0.114-6.901-0.675-13.602-1.876-20.392c-0.896-5.067-1.104-7.04-5.399-9.663    c-2.463-1.504-4.844-2.086-7.493-2.3c-0.044-0.408-0.075-0.823-0.127-1.226c-0.852-6.597-2.334-11.57-9.215-13.457    c-0.116-0.032-0.234-0.053-0.35-0.083c0.589-5.62-0.191-11.922-1.672-17.314c2.129-0.374,4.256-0.797,6.372-1.213    c5.453-1.071,5.81-4.647,5.535-9.644c-0.098-1.792-0.148-3.111-0.332-4.162c0.017-1.231-0.078-2.46-0.199-3.604    c-0.249-2.37,0.327-5.352,0.044-7.946c5.586-3.773,6.45-13.515,0.579-17.584c-2.861-1.983-6.494-0.716-8.73,1.615    c-1.87,1.95-3.43,5.663-3.023,8.357c0.431,2.849,2.176,5.921,4.947,7.053c0.691,0.282,1.431,0.442,2.181,0.5    c-0.32,2.307-0.047,4.967,0.156,6.886c0.007,0.065,0.013,0.138,0.02,0.204c-0.292-0.152-0.602-0.309-0.938-0.472    c-5.972-2.911-11.79-7.3-16.847-11.592c-5.293-4.492-10.873-8.677-16.538-12.681c-4.24-2.997-8.096-7.102-12.843-9.33    c0.294-4.337-0.132-9.013-0.524-13.171c-0.258-2.742-0.855-5.477-1.229-8.202c-0.098-0.712-0.212-1.353-0.366-1.96    c1.541-0.053,2.967-0.282,4.423-1.283c1.259-0.865,2.346-2.61,1.71-4.204c-4.481-11.231-9.402-22.473-13.548-33.985    c-2.391-6.638-5.234-13.252-8.334-19.507c-0.29-2.645-1.05-5.284-2.121-7.385c-0.829-1.625-1.724-3.994-2.98-5.983    c2.001-0.74,3.82-1.992,5.174-3.799c2.192-2.929,2.802-7.129,2.217-10.685c-0.644-3.91-3.814-6.448-7.412-7.718    c-3.654-1.29-7.88-1.048-10.838,1.59c-1.259,1.123-2.284,2.382-3.01,3.744c-0.258,0.291-0.493,0.591-0.694,0.899    c-1.885,2.903-2.086,7.654-0.426,10.706c1.096,2.014,2.706,3.512,4.562,4.524c-2.124,2.777-3.406,6.85-4.545,9.204    c-1.053,2.176-2.753,5.039-3.092,7.709c-2.573,5.415-4.95,11.042-6.987,16.7c-4.146,11.512-9.067,22.754-13.548,33.985    c-0.636,1.593,0.452,3.338,1.71,4.204c1.455,1.001,2.882,1.23,4.423,1.283c-0.153,0.607-0.268,1.248-0.366,1.96    c-0.375,2.726-0.971,5.46-1.229,8.202c-0.392,4.156-0.819,8.832-0.524,13.171c-4.747,2.228-8.604,6.333-12.843,9.33    c-5.665,4.004-11.245,8.19-16.538,12.681c-5.057,4.291-10.875,8.68-16.847,11.592c-0.335,0.163-0.646,0.32-0.938,0.472    c0.007-0.066,0.013-0.139,0.02-0.204c0.204-1.919,0.476-4.579,0.156-6.886c0.75-0.057,1.491-0.218,2.181-0.5    c2.772-1.132,4.516-4.203,4.947-7.053c0.408-2.693-1.153-6.407-3.023-8.357c-2.235-2.33-5.87-3.598-8.73-1.615    c-5.871,4.069-5.007,13.812,0.579,17.584c-0.282,2.595,0.294,5.576,0.044,7.946c-0.12,1.143-0.216,2.372-0.199,3.604    c-0.184,1.05-0.233,2.37-0.332,4.162c-0.275,4.997,0.083,8.572,5.535,9.644c2.116,0.416,4.242,0.839,6.372,1.213    c-1.481,5.392-2.261,11.693-1.672,17.314c-0.116,0.031-0.234,0.051-0.35,0.083c-6.882,1.887-8.363,6.859-9.215,13.457    c-0.052,0.403-0.084,0.818-0.127,1.226c-2.649,0.214-5.03,0.797-7.493,2.3c-4.294,2.623-4.503,4.596-5.399,9.663    c-1.2,6.791-1.762,13.492-1.876,20.392c-0.118,7.13,0.446,14.125,0.509,21.205c0.063,7.125,0.049,14.149,0.452,21.266    c0.38,6.665-0.811,13.6-0.98,20.307c-0.12,4.794,0.767,11.088,4.32,14.624c2.777,2.765,5.98,3.183,9.391,3.438    c-0.045,2.727,0.082,5.479,1.029,8.053c1.688,4.588,5.618,6.81,9.994,7.916c-0.143,2.54,0.017,5.12-0.377,7.664    c-0.617,3.987-0.792,7.807-0.842,11.86c-0.128,10.392-1.136,20.776-1.063,31.167c0.109,15.305,0.736,30.669,0.428,45.991    c-0.917,2.478-1.783,5.251-1.578,7.719c-1.343,0.031-2.678,0.145-3.984,0.487c-7.312,1.912-10.226,14.839-3.761,19.443    c1.947,1.387,4.534,1.945,7.216,2.228c-0.369,2.053-0.26,4.238-0.429,6.491c-0.298,3.975-0.417,7.876-0.333,11.854    c0.081,3.88,0.532,7.743,0.701,11.625c0.081,1.852,0,3.895,0.036,5.938c-0.285,2.638-0.553,5.326-0.195,7.798    c1.175,8.122,11.06,7.366,17.243,7.41c9.42,0.066,18.804,0.188,28.205,0.68c9.291,0.487,18.699-0.337,28.012-0.321    c10.885,0.018,21.798,0.24,32.673-0.075c8.597-0.249,17.655-0.257,26.214,0.374c5.902,0.436,11.313,0.253,13.352-6.192    c2.733-8.639,3.03-16.647,2.678-25.561c-0.125-3.17-0.103-6.46-0.219-9.746c0.003,0,0.006,0,0.009,0    c0.026-1.166-0.057-2.393-0.21-3.618c-0.174-2.231-0.466-4.438-0.96-6.584c2.951-0.257,5.848-0.784,7.979-2.303    c6.464-4.604,3.551-17.531-3.761-19.443c-1.306-0.342-2.641-0.456-3.984-0.487c0.205-2.467-0.661-5.241-1.578-7.719    c-0.308-15.321,0.319-30.686,0.428-45.991c0.074-10.391-0.935-20.775-1.063-31.167c-0.05-4.053-0.225-7.871-0.842-11.86    c-0.394-2.544-0.234-5.124-0.377-7.664c4.377-1.107,8.306-3.329,9.994-7.916c0.947-2.574,1.075-5.325,1.029-8.053    c3.411-0.255,6.613-0.673,9.391-3.438C349.775,310.553,350.662,304.26,350.542,299.466z M328.915,136.078    c0.363-1.293,1.079-3.28,2.075-4.157c2.24-1.971,4.155-0.37,5.179,1.785c0.8,2.659,0.148,6.342-1.712,7.456    C331.231,143.096,328.06,139.124,328.915,136.078z M176.659,251.913c-0.099,8.811-0.217,17.623-0.286,26.435    c-0.034,4.387-0.013,8.778-0.068,13.165c-0.05,3.923-1.026,7.7-1.124,11.613c-0.054,2.152,0.001,4.3,0.045,6.449    c-0.131-0.01-0.258-0.01-0.391-0.024c-3.213-0.369-3.847-2.53-4.719-5.367c-1.347-4.384-0.933-9.491-0.801-14.068    c0.159-5.491,0.449-10.549,0.041-16.067c-0.421-5.706-0.161-11.438-0.31-17.154c-0.274-10.542-1.82-21.131-0.957-31.739    c0.365-4.485,0.393-11.292,4.396-13.763c1.12-0.692,2.263-1.334,3.399-1.994c-0.207,5.783,0.13,11.805,0.344,17.346    C176.557,235.181,176.755,243.439,176.659,251.913z M250.456,11.011c0.534-1.268,1.124-2.502,1.845-3.566    c1.147-1.165,2.645-2.036,3.994-2.978c0.008-0.004,0.011-0.014,0.018-0.02c1.003-0.219,2.155-0.195,3.512,0.172    c5.075,1.374,6.78,6.56,4.19,11.079c-2.559,4.463-9.148,4.16-12.384,0.572C250.38,14.881,250.118,12.851,250.456,11.011z     M242.764,56.617c2.134-6.49,4.78-12.929,7.4-19.133c1.19-2.818,1.996-5.88,3.182-8.732c0.324-0.78,0.74-1.546,0.996-2.352    c0.25-0.792,0.309-1.399,0.933-2.04c0.49-0.503,0.815,0.686,1.024,1.076c0.546,1.017,1.126,1.972,1.572,3.051    c0.59,1.428,1.19,2.648,1.877,4.022c0.734,1.469,0.948,3.237,1.805,4.674c0.13,0.217,0.27,0.426,0.419,0.629    c2.575,6.104,5.167,12.429,7.263,18.805c3.482,10.59,6.943,21.214,10.905,31.451c-1.001-0.045-1.999-0.136-2.729-0.042    c-2.69,0.345-5.164,0.88-7.904,0.653c-1.85-0.153-3.579-0.275-5.283-0.246c-4.193-0.893-9.104-0.967-12.475-0.792    c-4.588,0.236-9.715-0.241-14.346,0.783c-0.927-0.128-1.859-0.275-2.82-0.398c-0.728-0.094-1.728-0.003-2.729,0.042    C235.821,77.831,239.282,67.207,242.764,56.617z M234.276,95.465c2.453,0.201,4.888,0.528,7.38,0.29    c0.119-0.011,0.247-0.021,0.371-0.032c3.538,0.252,7.165-0.001,10.579-0.049c4.188-0.058,8.701,0.76,12.693-0.341    c1.811,0.211,3.6,0.284,5.046,0.422c2.494,0.238,4.928-0.09,7.38-0.29c-0.025,3.345-0.215,6.6,0.035,10.007    c0.263,3.572,0.424,8.259-0.021,12.154c-3.891,0.354-7.793-0.194-11.676-0.406c-1.694-0.093-3.306,0.178-4.964,0.127    c-2.007-0.061-4.014-0.095-6.021-0.086c-2.253,0.009-4.47-0.138-6.704-0.122c-4.706,0.033-9.404,0.917-14.112,0.489    c-0.445-3.896-0.284-8.583-0.021-12.154C234.491,102.065,234.303,98.81,234.276,95.465z M197.42,150.467    c2.296-1.512,4.229-3.264,6.322-5.044c5.09-4.331,10.257-8.526,15.571-12.571c2.15-1.637,4.074-3.457,6.101-5.234    c2.224-1.951,3.522-4.217,6.828-3.348c3.589,0.944,7.129,0.436,10.816,0.409c2.387-0.018,4.466,0.172,6.41-0.231    c0.888,0.072,1.773,0.152,2.649,0.266c2.947,0.385,6.558,0.237,9.853-0.398c2.104,0.576,4.353,0.344,6.97,0.363    c4.342,0.031,8.663,0.651,12.941-0.345c0.301-0.071,0.608-0.203,0.9-0.378c1.355,1.257,2.651,2.652,3.802,3.661    c2.028,1.777,3.951,3.597,6.102,5.234c5.315,4.046,10.482,8.241,15.571,12.571c2.093,1.781,4.025,3.532,6.322,5.044    c0.681,0.448,1.326,0.967,1.963,1.502c-1.06,0-2.073,0.011-2.988,0.005c-5.108-0.033-10.027-0.834-15.069-0.883    c-6.802-0.065-13.609,0.088-20.409,0.067c-4.37-0.013-8.447-1.118-12.715-0.487c-4.651-0.011-9.482,0.579-13.728,0.636    c-0.772,0.01-1.572,0.001-2.389-0.017c-0.018-0.007-0.029-0.018-0.046-0.024c-5.229-1.716-10.042-0.125-15.278-0.108    c-6.8,0.021-13.607-0.131-20.408-0.067c-5.042,0.049-9.961,0.85-15.069,0.883c-0.915,0.006-1.928-0.005-2.988-0.005    C196.095,151.434,196.741,150.917,197.42,150.467z M177.544,141.162c-1.86-1.115-2.512-4.797-1.712-7.456    c1.024-2.155,2.94-3.755,5.18-1.785c0.996,0.877,1.714,2.864,2.075,4.157C183.941,139.124,180.77,143.096,177.544,141.162z     M185.342,165.099c-0.859-0.01-1.812,0.276-2.673,0.195c-0.049-0.004-0.097-0.01-0.145-0.018    c-2.312-0.338-3.092-3.501-2.266-5.435c0.929-2.177,5.064-3.259,7.206-2.982c0.936,0.124,1.716,0.616,2.714,0.707    c2.437,0.222,4.911-0.07,7.354-0.042c5.399,0.061,10.675-0.58,15.982-0.626c6.541-0.055,13.14-0.132,19.677,0.075    c1.539,0.049,2.915-0.07,4.321-0.245c4.74,0.442,9.833-0.055,14.124,0.001c6.076,0.079,12.58,0.698,18.619-0.526    c0.573,0.043,1.149,0.095,1.731,0.18c2.381,0.349,4.396,0.667,6.824,0.59c6.537-0.207,13.137-0.13,19.677-0.075    c5.307,0.044,10.583,0.686,15.982,0.626c2.24-0.025,4.577,0.328,6.805,0.075c2.891-0.328,8.136-1.434,10.043,1.57    c0.989,1.558,0.818,5.331-1.155,6.091c-0.893,0.344-2.054-0.217-2.98-0.229c-1.757-0.023-3.591,0.341-5.343,0.493    c-5.391,0.469-11.181-0.782-16.695-0.59c-3.156,0.11-6.215,0.919-9.364,1.063c-2.906,0.132-5.779-0.404-8.687-0.402    c-2.051,0.002-4.193,0.001-6.354,0.033c-2.233-0.167-4.478-0.193-6.779,0.092c-5.21,0.643-10.454-0.024-15.68,0.16    c-5.498,0.194-10.983,0.462-16.504,0.282c-5.624-0.183-11.243-0.56-16.872-0.566c-2.907-0.002-5.78,0.534-8.687,0.402    c-3.149-0.143-6.208-0.952-9.363-1.063c-5.513-0.192-11.304,1.059-16.695,0.59C188.566,165.387,186.941,165.116,185.342,165.099z     M319.909,172.723c-1.074,4.837-0.554,9.628-1.05,14.439c-2.068-0.122-4.196-0.67-6.202-0.788    c-2.693-0.159-5.324-0.574-8.005-0.933c-4.274-0.575-8.638-0.989-12.941-1.144c-5.823-0.21-11.434-0.581-17.318-0.344    c-1.933,0.077-3.859,0.072-5.761,0.445c-1.83-0.157-3.706-0.107-5.638-0.106c-5.256,0.003-10.595-0.202-15.842,0.134    c-1.007,0.065-2.072,0.096-3.168,0.115c-0.161-0.042-0.324-0.089-0.483-0.122c-1.944-0.401-3.915-0.386-5.893-0.466    c-5.884-0.237-11.495,0.135-17.318,0.344c-4.303,0.154-8.667,0.569-12.941,1.144c-2.681,0.361-5.311,0.775-8.005,0.933    c-2.006,0.118-4.134,0.665-6.202,0.788c-0.497-4.813,0.022-9.602-1.05-14.439c2.336-0.028,4.614-0.397,7.055-0.356    c3.941,0.067,7.873-0.183,11.787,0.333c2.981,0.394,5.851,0.581,8.838,0.163c2.267-0.317,4.513-0.572,6.745-0.819    c2.817,0.124,5.686-0.034,8.399,0.033c6.688,0.166,13.153,0.541,19.815-0.266c6.383-0.773,12.791,0.72,19.162-0.264    c1.379-0.213,2.737-0.314,4.078-0.388c4.712,0.634,9.437,1.029,14.262,1.705c2.986,0.417,5.855,0.231,8.838-0.163    c3.914-0.516,7.845-0.267,11.787-0.333C315.296,172.326,317.574,172.695,319.909,172.723z M217.651,503.908    c-0.864-0.025-1.726-0.04-2.591-0.074c-3.413-0.133-6.81-0.217-10.221-0.246c0.457-3.909,0.159-8.096-0.055-11.943    c-0.289-5.191-1.579-13.194,3.053-16.889c6.938-5.537,9.221,4.601,9.699,9.766C218.127,490.898,217.829,497.48,217.651,503.908z     M244.215,487.476c-0.063,5.539-0.367,11.028-0.509,16.55c-1.793,0.021-3.585,0.04-5.374,0.042    c-2.383,0.003-4.761,0.008-7.139,0.007c-0.037-4.773-0.186-9.5-0.572-14.307c-0.396-4.94-0.218-11.855,3.666-15.533    c5.833-5.523,10.082-0.322,10.046,5.806C244.32,482.518,244.243,484.998,244.215,487.476z M277.716,503.4    c-4.619,0.028-9.242,0.11-13.866,0.214c0.423-4.087-0.253-8.069-0.126-12.281c0.148-4.905-0.321-13.171,3.798-16.509    c7.613-6.171,10.083,5.519,10.316,10.688C278.105,491.458,277.352,497.458,277.716,503.4z M304.847,487.16    c-0.012,5.532-0.034,10.931-0.481,16.442c-4.103,0.01-8.219,0.085-12.309-0.046c-0.117-0.003-0.235-0.004-0.352-0.009    c0.959-4.851,0.576-10.187,0.685-15.034c0.068-3.031-0.28-5.967,0.43-8.959c0.591-2.495,3.389-9.986,7.042-8.699    c0.897,0.317,3.303,4.542,3.637,5.331C304.874,479.447,304.855,483.656,304.847,487.16z M321.932,492.461    c-0.525,3.417-2.156,6.905-2.223,10.364c-0.002,0.102-0.14,0.424-0.277,0.736c-1.599-0.029-3.537,0.41-5.078,0.302    c-1.678-0.118-3.364-0.182-5.054-0.22c0.446-8.528,0.907-18.111-1.119-26.362c-0.927-3.772-4.263-10.566-8.702-10.612    c-6.588-0.07-9.994,7.846-10.946,13.258c-0.685,3.899-0.336,7.957-0.529,11.9c-0.185,3.791-0.116,7.854,0.674,11.65    c-2.12-0.043-4.24-0.074-6.364-0.082c0.76-8.101,0.862-17.557-1.3-25.268c-1.353-4.825-4.983-9.592-10.506-8.93    c-6.81,0.816-9.281,7.163-10.053,13.072c-0.896,6.863-1.069,14.488,0.242,21.42c-4.078,0.096-8.155,0.195-12.226,0.268    c-0.035-8.773,0.647-17.674-0.045-26.403c-0.505-6.372-4.471-11.042-11.339-9.329c-5.659,1.412-9.306,7.419-10.252,12.802    c-0.744,4.23-0.235,8.43,0.041,12.672c0.219,3.341,0.403,7.019,1.279,10.363c-2.015-0.008-4.029-0.014-6.044-0.045    c0.114-9.164,3.04-37.868-12.077-34.791c-6.202,1.262-8.805,7.098-9.252,12.76c-0.533,6.76,0.046,14.728,1.443,21.588    c-3.404,0.06-8.381,0.81-11.298-0.64c-0.804-0.399-1.178-0.878-1.334-1.451c0.906-3.409,0.718-7.445,0.627-10.648    c-0.195-6.953-0.516-13.756-0.174-20.727c0.177-3.592-0.659-6.086-1.075-9.521c0.572-0.082,1.063,0.018,1.635,0.096    c6.464,0.889,12.927-0.292,19.355,0.436c6.788,0.769,13.739-0.232,20.598-0.44c2.866-0.087,5.846,0.015,8.687-0.415    c0.371-0.056,0.734-0.135,1.093-0.218c4.946-0.172,9.971,0.602,14.859-0.017c5.177-0.655,10.526-0.174,15.771-0.164    c0.583,0.162,1.173,0.307,1.783,0.399c2.84,0.431,5.82,0.328,8.687,0.415c6.859,0.21,13.812,1.21,20.598,0.44    c6.148-0.697,12.325,0.333,18.509-0.351c-0.164,3.425,0.747,7.207,0.909,10.341C321.811,477.935,322.975,485.684,321.932,492.461z     M330.866,444.06c2.283,0.765,4.068,4.83,2.57,7.094c-1.542,2.331-9.835,1.533-12.526,1.885    c-5.014,0.658-9.868,0.277-14.898,0.231c-2.092-0.019-3.953,0.22-6.013,0.449c-2.808,0.313-5.222-0.191-8.005-0.38    c-3.622-0.246-7.327-0.078-10.994,0.097c-8.216-1.159-16.826-1.323-24.863-0.613c-6.634,0.585-13.364,0.525-20.071,0.861    c-0.41-0.03-0.821-0.062-1.235-0.077c-4.894-0.177-9.936-0.599-14.827-0.267c-2.781,0.189-5.197,0.693-8.005,0.38    c-2.06-0.229-3.92-0.468-6.013-0.449c-5.03,0.045-9.884,0.427-14.898-0.231c-2.691-0.353-10.983,0.447-12.526-1.885    c-1.498-2.264,0.287-6.33,2.57-7.094c2.118-0.709,5.081-0.19,7.356-0.224c1.952,0.406,4.092,0.427,5.878,0.701    c4.105,0.632,8.752,0.374,12.881,0.206c2.271-0.093,4.509-0.563,6.775-0.615c2.334-0.053,4.562,0.663,6.877,0.762    c2.609,0.112,5.308-0.153,8.003-0.412c1.385,0.025,2.762,0.035,4.112,0.077c5.289,0.164,10.335-0.153,15.526-0.415    c5.553-0.28,11.293-0.394,16.86-0.428c0.928-0.006,1.858,0.002,2.789,0.011c2.998,0.654,6.628,0.295,9.365,0.359    c4.466,0.106,9.133,0.997,13.546,0.807c2.315-0.099,4.544-0.815,6.877-0.762c2.265,0.051,4.504,0.522,6.774,0.615    c4.129,0.168,8.775,0.426,12.882-0.206c1.784-0.275,3.926-0.296,5.878-0.701C325.785,443.87,328.749,443.349,330.866,444.06z     M192.05,342.004c0.069-0.895-0.103-4.695-0.41-7.624c4.029,0.367,8.078,0.29,12.091,0.895c4.185,0.63,8.245,1.057,12.488,1.056    c2.709-0.001,5.501-0.117,8.312-0.334c2.537,0.214,5.373-0.14,7.198-0.072c3.217,0.12,6.354-0.231,9.56-0.263    c3.686-0.038,7.216,0.893,10.911,0.513c8.076-0.83,16.905-0.487,25.317-1.47c6.049,1.124,12.349,1.625,18.267,1.626    c4.242,0.001,8.303-0.426,12.488-1.056c4.014-0.605,8.063-0.527,12.091-0.895c-0.308,2.93-0.481,6.729-0.41,7.624    c0.396,5.082,0.331,10.075,0.333,15.175c0.002,10.953,0.909,21.908,0.062,32.848c-0.805,10.384-0.654,20.817-0.764,31.228    c-0.046,4.386-0.263,8.784-0.305,13.161c-0.009,0.903,0.056,1.71,0.207,2.439c-1.011,0.119-2.051,0.178-2.857,0.264    c-0.079,0.009-0.159,0.008-0.238,0.015c-0.34-0.034-0.675-0.077-1.018-0.102c-2.058-0.147-4.088-0.063-6.107,0.118    c-4.097-0.289-8.183-0.903-12.256-0.897c-3.701,0.004-7.017,0.569-10.76,0.181c-3.069-0.319-6.205-0.26-9.294-0.18    c-0.309-0.054-0.622-0.105-0.954-0.146c-2.85-0.345-5.712-0.249-8.578-0.253c-5.666-0.007-11.287,0.489-16.953,0.517    c-3.362,0.017-6.624,0.396-9.942,0.618c-1.742-0.344-3.472-0.685-5.015-0.727c-3.239-0.086-6.536-0.165-9.759,0.169    c-3.744,0.388-7.059-0.177-10.76-0.181c-4.074-0.004-8.16,0.608-12.257,0.897c-2.019-0.181-4.049-0.264-6.107-0.118    c-0.342,0.024-0.679,0.068-1.018,0.102c-0.079-0.008-0.159-0.008-0.238-0.016c-0.805-0.086-1.846-0.145-2.857-0.264    c0.151-0.729,0.216-1.537,0.207-2.44c-0.042-4.377-0.258-8.775-0.305-13.161c-0.109-10.41,0.042-20.844-0.764-31.228    c-0.848-10.94,0.058-21.894,0.062-32.848C191.719,352.079,191.654,347.086,192.05,342.004z M329.142,225.839    c-0.27,8.702-0.858,17.329-0.958,26.074c-0.107,9.516-0.228,19.033-0.302,28.549c-0.033,4.278-0.244,8.585-0.121,12.861    c0.121,4.273,1.033,8.336,0.873,12.633c-0.164,4.416,0.135,8.917-0.142,13.312c-0.336,5.338-3.826,6.242-8.786,6.707    c-9.649,0.906-19.178,1.464-28.74,1.54c-0.071-0.031-0.122-0.076-0.2-0.102c-5.565-1.893-12.888-1.155-18.653-0.748    c-7.072,0.5-13.914,1.246-21.051,1.152c-7.482-0.098-14.961-0.487-22.445-0.332c-12.125,0.25-24.25-0.377-36.32-1.51    c-4.958-0.466-8.449-1.37-8.786-6.707c-0.277-4.396,0.022-8.896-0.142-13.312c-0.16-4.297,0.751-8.36,0.873-12.633    c0.121-4.275-0.088-8.583-0.121-12.861c-0.074-9.516-0.194-19.033-0.302-28.549c-0.099-8.745-0.687-17.372-0.958-26.074    c-0.128-4.119-0.061-8.247-0.074-12.367c-0.013-4.225-0.9-9.695,0.857-13.709c1.476-3.373,3.962-4.515,6.819-5.203    c5.126,0.489,10.544-0.803,15.559-1.582c5.528-0.858,11.147-1.144,16.686-1.634c3.215-0.285,6.441-0.628,9.671-0.929    c4.44,0.275,9.122-0.203,13.27-0.439c1.228,0.127,2.4,0.193,3.48-0.097c6.566,0.057,14.609,1.382,21.137-0.124    c6.351,0.249,12.71,1.032,19.03,1.59c5.539,0.49,11.159,0.776,16.686,1.634c5.016,0.779,10.433,2.071,15.559,1.582    c2.857,0.688,5.342,1.83,6.819,5.203c1.758,4.014,0.871,9.484,0.857,13.709C329.202,217.591,329.27,221.72,329.142,225.839z     M342.954,256.894c-0.148,5.715,0.111,11.447-0.31,17.154c-0.408,5.519-0.117,10.577,0.041,16.067    c0.132,4.577,0.546,9.684-0.801,14.068c-0.872,2.837-1.506,4.998-4.719,5.367c-0.132,0.015-0.259,0.014-0.391,0.024    c0.044-2.149,0.099-4.297,0.045-6.449c-0.098-3.912-1.075-7.688-1.124-11.613c-0.055-4.387-0.034-8.778-0.068-13.165    c-0.068-8.811-0.185-17.624-0.286-26.435c-0.096-8.474,0.102-16.732,0.428-25.168c0.214-5.54,0.553-11.563,0.344-17.346    c1.136,0.66,2.279,1.302,3.399,1.994c4.003,2.47,4.031,9.278,4.396,13.763C344.775,235.762,343.228,246.351,342.954,256.894z"/>
	</g>
</g>
<g>
	<g>
		<path d="M315.64,230.921c-0.05-5.08,1.581-14.367-3.146-18.046c-3.084-2.401-8.008-2.094-12.635-1.707    c1.055-7.504-4.715-15.261-12.482-15.415c-4.273-0.085-6.899,2.449-8.559,6.223c-1.022,2.321-2.255,6.317-1.634,9.301    c-0.004,0-0.008-0.001-0.012-0.001c-1.443-0.008-2.872-0.015-4.3-0.013c-0.135-1.837,0.023-6.378-0.295-7.434    c-0.679-2.259-1.631-4.512-3.386-6.127c-3.808-3.504-9.921-3.109-14.66-2.5c-4.857,0.625-8.16,3.535-10.645,7.661    c-1.461,2.424-2.879,6.148-2.072,9.067c-0.298,0.133-0.624,0.243-0.997,0.311c-1.155,0.017-2.31,0.022-3.468,0.023    c-0.882-0.087-1.786-0.216-2.666-0.359c0.959-3.025-0.407-7.444-1.499-9.929c-1.661-3.773-4.285-6.308-8.559-6.223    c-7.768,0.153-13.537,7.911-12.482,15.415c-4.627-0.387-9.552-0.693-12.635,1.707c-4.727,3.68-3.096,12.966-3.145,18.047    c-0.082,8.601,0.897,17.081,1.165,25.631c0.124,3.947-0.307,7.911-0.477,11.848c-0.178,4.139,0.697,8.071,0.763,12.196    c0.138,8.547,1.013,17.31,1.798,25.844c0.576,6.261,4.196,8.357,10.211,8.5c6.094,0.146,13.455,0.53,20.075-0.479    c0.32,0.006,0.64,0.01,0.963,0.017c7.587,0.148,15.151,0.741,22.735,0.755c8.146,0.014,16.299,0.127,24.443,0.007    c2.336-0.034,4.859-0.068,7.321-0.391c5.706,0.501,11.706,0.213,16.815,0.09c6.015-0.143,9.635-2.239,10.211-8.5    c0.786-8.533,1.661-17.298,1.798-25.844c0.066-4.125,0.942-8.058,0.763-12.196c-0.17-3.937-0.6-7.901-0.477-11.848    C314.743,248.002,315.722,239.521,315.64,230.921z M287.377,200.326c6.744-0.023,7.267,6.127,8.552,11.134    c-1.234,0.061-2.391,0.065-3.418-0.053c-3.612-0.414-6.972-0.413-10.623-0.167C282.87,206.955,281.452,200.346,287.377,200.326z     M257.17,199.082c5.159-0.303,9.621-0.185,11.087,5.937c0.501,2.09,0.2,4.203,0.167,6.319c-0.227,0.008-0.452,0.004-0.68,0.013    c-3.051,0.116-6.107-0.179-9.154-0.234c-3.461-0.063-6.697,0.588-10.139,0.829c-1.067,0.074-2.138,0.113-3.21,0.157    C247.15,205.644,249.103,199.556,257.17,199.082z M224.624,200.326c5.925,0.021,4.507,6.629,5.489,10.914    c-3.651-0.246-7.011-0.247-10.623,0.167c-1.027,0.118-2.186,0.114-3.418,0.053C217.359,206.452,217.881,200.303,224.624,200.326z     M309.604,232.946c-0.095,7.165-1.005,14.315-1.748,21.414c-0.714,6.829,0.527,13.61-0.825,20.339    c-0.694,3.455-0.36,7.002-0.931,10.483c-0.52,3.161-0.77,6.444-1.027,9.638c-0.183,2.268-0.14,4.536-0.406,6.8    c-0.043,0.37-0.372,4.381-0.553,4.792c-0.044,0.003-0.066,0.004-0.118,0.009c-0.605,0.05-1.21,0.059-1.817,0.026    c-1.876,0.025-3.75,0.015-5.627,0.053c-4.397,0.088-9.246-0.077-13.878,0.455c-2.321,0.097-4.603,0.28-6.637,0.263    c-8.16-0.07-16.324,0.063-24.485,0.043c-7.46-0.018-14.853-0.449-22.325-0.316c-4.601-0.519-9.41-0.357-13.775-0.445    c-1.877-0.037-3.75-0.028-5.627-0.053c-0.607,0.032-1.213,0.023-1.817-0.026c-0.052-0.004-0.074-0.006-0.118-0.009    c-0.181-0.41-0.51-4.422-0.553-4.792c-0.266-2.263-0.223-4.531-0.406-6.8c-0.257-3.194-0.509-6.477-1.027-9.638    c-0.572-3.481-0.236-7.028-0.931-10.483c-1.353-6.728-0.111-13.51-0.825-20.339c-0.743-7.099-1.653-14.249-1.748-21.414    c-0.05-3.734-0.353-7.55-0.114-11.276c0.275-4.272,2.086-4.495,5.876-4.43c1.665,0.029,3.308-0.004,4.941-0.076    c1.482,0.389,2.98,0.692,4.64,0.771c3.683,0.174,7.38,0.164,11.067,0.229c7.385,0.129,14.972,0.756,22.339,0.15    c6.394-0.526,12.822,0.174,19.156-0.783c3.004-0.455,6.839-0.591,10.211-1.449c1.472,0.009,2.846,0.007,3.981,0.068    c6.51,0.353,12.762,1.204,19.343,1.09c3.79-0.065,5.602,0.158,5.876,4.43C309.956,225.395,309.653,229.212,309.604,232.946z"/>
	</g>
</g>
<g>
	<g>
		<path d="M311.676,409.894c-0.141-1.983-0.256-3.97-0.406-5.953c0.209-2.424,0.388-4.856,0.387-7.356    c-0.001-5.434,0.073-10.866,0.135-16.299c0.07-6.054-0.926-11.658-1.445-17.66c-0.54-6.228-0.869-12.188-5.834-16.676    c-4.338-3.921-9.188-1.704-11.798,2.927c-3.777,6.698-3.532,15.161-3.651,22.58c-0.157,9.782,0.201,19.557,0.533,29.322    c0.156,4.582,0.772,9.015,0.723,13.627c-0.043,4.028-0.775,8.97,0.094,12.925c1.44,6.562,7.99,4.303,12.803,4.414    c2.361,0.054,5.177,0.086,6.907-1.808c2.018-2.21,1.15-5.499,1.106-8.213C311.164,417.725,311.966,413.981,311.676,409.894z     M307.789,403.575c-0.489,4.907-0.885,9.888-0.816,14.855c-0.104,0.726-0.196,1.458-0.258,2.208    c-0.177,2.149,1.051,5.105-1.659,6.18c-0.968,0.384-2.587-0.114-3.648-0.139c-0.98-0.024-3.202,0.468-4.055,0.25    c-2.902-0.739-2.114-2.679-2.103-4.89c0.092-17.602-1.431-35.05-1.738-52.646c-0.082-4.621-0.207-9.188,0.901-13.721    c0.452-1.85,0.948-4.37,2.36-5.73c2.957-2.847,5.438-0.632,7.073,2.049c1.727,2.831,1.782,6.342,2.271,9.585    c0.715,4.744,1.45,9.826,1.622,14.591C308.058,384.994,308.664,394.794,307.789,403.575z"/>
	</g>
</g>
<g>
	<g>
		<path d="M283.465,409.894c-0.141-1.983-0.256-3.97-0.406-5.953c0.208-2.424,0.388-4.856,0.387-7.356    c-0.001-5.434,0.073-10.866,0.135-16.299c0.069-6.054-0.926-11.658-1.445-17.66c-0.54-6.228-0.869-12.188-5.834-16.676    c-4.338-3.921-9.188-1.704-11.798,2.927c-3.777,6.698-3.532,15.161-3.651,22.58c-0.157,9.782,0.202,19.557,0.534,29.322    c0.154,4.582,0.771,9.015,0.722,13.627c-0.043,4.028-0.775,8.97,0.094,12.925c1.44,6.562,7.99,4.303,12.803,4.414    c2.361,0.054,5.177,0.086,6.907-1.808c2.018-2.21,1.15-5.499,1.106-8.213C282.954,417.725,283.756,413.981,283.465,409.894z     M279.577,403.575c-0.489,4.907-0.885,9.888-0.816,14.855c-0.104,0.726-0.196,1.458-0.258,2.208    c-0.177,2.149,1.052,5.105-1.659,6.18c-0.968,0.384-2.587-0.114-3.648-0.139c-0.98-0.024-3.202,0.468-4.055,0.25    c-2.902-0.739-2.114-2.679-2.103-4.89c0.092-17.602-1.431-35.05-1.738-52.646c-0.081-4.621-0.206-9.188,0.901-13.721    c0.452-1.85,0.948-4.37,2.36-5.73c2.957-2.847,5.438-0.632,7.074,2.049c1.727,2.831,1.782,6.342,2.271,9.585    c0.715,4.744,1.45,9.826,1.622,14.591C279.847,384.994,280.452,394.794,279.577,403.575z"/>
	</g>
</g>
<g>
	<g>
		<path d="M251.819,80.097c-0.382-0.809-0.956-0.869-1.61-1.353c-0.413-0.305-0.729-0.738-1.103-1.09    c-1.249-1.175-2.723-1.886-4.472-1.651c-2.817,0.38-7.126,2.944-6.15,6.318c0.552,1.904,2.865,1.952,3.922,0.512    c0.433-0.588,0.858-1.017,1.512-1.371c0.326-0.177,0.665-0.353,1.029-0.439c0.13-0.031,0.208-0.053,0.268-0.072    c0.537,0.229,0.981,0.914,1.409,1.286c0.703,0.612,1.401,1.031,2.297,1.311c0.784,0.245,1.871,0.004,2.416-0.639    c0.046-0.055,0.093-0.11,0.139-0.164C252.16,81.939,252.265,81.043,251.819,80.097z"/>
	</g>
</g>
<g>
	<g>
		<path d="M271.15,79.577c-1.069-1.266-1.691-2.499-3.121-3.439c-1.594-1.048-3.378-1.534-5.267-1.111    c-2.238,0.501-6.839,3.299-5.07,6.168c1.668,2.703,4.565-1.784,6.604-1.463c1.605,0.253,2.402,2.303,3.292,3.408    C269.606,85.646,273.245,82.057,271.15,79.577z"/>
	</g>
</g>
<g>
	<g>
		<path d="M262.651,67.921c-0.513-0.686-0.901-1.017-1.209-1.455c-0.453-0.644-0.821-1.323-1.421-1.85    c-1.673-1.467-4.108-1.649-6.182-1.172c-2.497,0.575-8.19,2.934-5.853,6.434c0.443,0.664,1.477,1.128,2.211,0.58    c1.309-0.976,4.32-3.158,6.098-2.204c0.748,0.401,1.093,1.826,1.774,2.462c1.101,1.028,2.388,1.155,3.72,0.491    C262.859,70.673,263.391,68.912,262.651,67.921z"/>
	</g>
</g>
<g>
	<g>
		<path d="M245.056,106.879c-0.058-1.923-0.049-3.883-0.575-5.743c-0.48-1.697-2.96-1.698-3.441,0    c-0.525,1.859-0.516,3.823-0.575,5.743c-0.062,2.039-0.236,4.122,0.014,6.148c0.363,2.926,4.199,2.933,4.562,0    C245.292,111.004,245.118,108.915,245.056,106.879z"/>
	</g>
</g>
<g>
	<g>
		<path d="M257.366,106.915c0.02-2.495,0.559-4.425-0.321-6.848c-0.537-1.478-2.727-1.662-3.192,0    c-0.761,2.725-4.193,13.969,0.798,14.93C259.101,115.855,257.347,109.222,257.366,106.915z"/>
	</g>
</g>
<g>
	<g>
		<path d="M269.967,104.34c-0.012-0.548,0.045-1.111,0.013-1.656c-0.001-0.014-0.003-0.023-0.004-0.036    c1.153-1.419,0.071-3.841-1.92-3.911c-3.235-0.115-3.089,4.048-3.009,6.229c0.033,0.916,0.1,1.83,0.173,2.744    c-0.128,1.876-0.429,3.735,0.198,5.566c0.584,1.708,2.636,2.338,3.993,1.054c1.44-1.363,0.837-4.293,0.745-6.033    C270.085,106.979,269.996,105.66,269.967,104.34z"/>
	</g>
</g>
<g>
	<g>
		<path d="M296.745,253.753c-2.837-9.238-6.73-16.549-14.597-22.446c-8.33-6.245-18.02-10.844-28.545-8.493    c-1.587,0.354-3.161,0.746-4.718,1.175c-1.809,0.308-3.813,0.732-5.489,1.266c-3.675,1.171-7.743,3.576-10.856,5.793    c-1.581,1.127-3.067,2.413-4.454,3.818c-0.824,0.786-1.627,1.607-2.394,2.49c-0.152,0.177-0.25,0.372-0.309,0.574    c-4.094,5.169-6.944,11.465-8.006,17.8c-1.478,8.823-0.857,18.496,4.538,25.906c5.875,8.069,13.018,14.293,22.952,16.499    c18.116,4.025,39.328-0.516,47.405-19.034C295.532,271.629,299.248,261.904,296.745,253.753z M290.207,270.362    c-2.832,8.001-5.785,14.989-13.345,19.657c-7.414,4.579-17.3,5.125-25.724,4.246c-9.05-0.946-15.998-4.472-22.186-11.12    c-6.488-6.97-8.281-14.38-7.769-23.721c0.431-7.876,3.822-15.781,9.297-21.573c5.122-3.203,10.139-5.924,16.112-7.572    c3.89-1.074,8.017-2.141,12.026-2.529c4.22-0.409,9.157,1.396,12.899,3.325c7.728,3.986,14.331,8.992,18.012,17.006    c1.369,2.982,2.88,6.566,3.228,9.825C293.227,262.299,291.635,266.327,290.207,270.362z"/>
	</g>
</g>
<g>
	<g>
		<path d="M227.5,225.382c-1.112-3.88-8.599-3.612-13.816-1.772c-0.802,0.228-1.595,0.481-2.423,0.694    c-1.274,0.329-2.149,0.393-3.029,1.47c-1.453,1.781-1.147,4.387-1.064,6.513c0.131,3.341-0.489,6.634,0.167,9.949    c0.15,0.757,1.052,1.455,1.829,1.392c2.223-0.178,2.591-1.354,4.025-2.793c2.059-2.067,4.765-3.503,6.824-5.642    c1.92-1.995,3.431-4.311,5.537-6.148C226.706,228.036,228.014,227.177,227.5,225.382z M219.956,229.393    c-1.15,1.312-2.11,2.705-3.387,3.911c-1.439,1.358-2.987,2.55-4.569,3.73c-0.172,0.129-0.679,0.659-1.216,1.221    c0.034-1.556,0.22-3.114,0.209-4.675c-0.011-1.667-0.788-4.243,0.662-5.478c2.368-0.506,4.687-1.418,7.113-1.654    c0.942-0.092,1.91-0.12,2.855-0.087c0.163,0.005,0.511,0.071,0.879,0.136C221.558,227.333,220.517,228.754,219.956,229.393z"/>
	</g>
</g>
<g>
	<g>
		<path d="M224.88,292.627c-1.581-1.635-3.261-3.183-4.763-4.893c-2.082-2.371-4.224-5.008-7.273-6.141    c-0.531-0.197-1.335,0.012-1.699,0.449c-1.26,1.514-1.338,3.314-1.151,5.168c-0.077,2.108,0.278,4.273,0.529,6.323    c0.285,2.334-0.309,5.593,1.531,7.495c1.383,1.429,3.44,1.267,5.23,0.992c3.511-0.537,7.248-0.166,10.753,0.505    c0.575,0.11,1.274,0.044,1.682-0.445C232.204,299.099,226.701,294.511,224.88,292.627z M220.771,297.996    c-1.597-0.146-3.718,0.78-5.172,0.41c-1.768-0.448-1.231-6.023-1.521-7.562c-0.226-1.202-1.08-3.615-0.874-5.233    c2.918,1.794,5.18,5.337,7.528,7.633c1.193,1.165,2.369,2.347,3.491,3.58c0.505,0.556,1.008,1.125,1.481,1.715    C224.059,298.295,222.391,298.144,220.771,297.996z"/>
	</g>
</g>
<g>
	<g>
		<path d="M300.767,286.232c0.105-2.042,0.434-4.672-1.464-5.988c-0.585-0.405-1.47-0.222-1.952,0.252    c-3.097,3.044-5.407,6.588-8.296,9.797c-2.433,2.703-5.08,5.257-6.995,8.377c-0.56,0.912-0.063,2.385,1.057,2.597    c1.925,0.364,3.762,0.216,5.708,0.182c2.452-0.043,5.028,0.662,7.418,0.451c3.139-0.277,4.313-2.896,4.708-5.666    C301.434,292.842,300.595,289.616,300.767,286.232z M297.427,297.034c-1.171,1.714-2.998,0.949-4.464,0.834    c-2.014-0.157-4.096,0.137-6.14,0.171c1.787-2.231,3.883-4.204,5.612-6.489c1.773-2.342,3.064-4.908,5.274-6.953    c-0.079,1.129-0.237,2.489-0.252,2.732c-0.11,1.957,0.435,3.626,0.492,5.591C297.976,293.86,297.976,296.231,297.427,297.034z"/>
	</g>
</g>
<g>
	<g>
		<path d="M302.783,228.676c0.01-2.031,1.303-4.134-0.679-5.646c-2.416-1.843-7.797-0.723-10.59-0.735    c-3.248-0.014-6.676-0.572-9.861,0.204c-1.083,0.264-1.565,1.584-1.024,2.518c1.562,2.698,2.145,3.455,4.625,5.104    c0.835,0.89,1.866,1.624,2.96,2.464c3.072,2.357,5.118,5.618,7.754,8.386c1.189,1.249,3.502,2.991,5.393,2.428    c1.915-0.57,1.944-2.669,2.046-4.379C303.616,235.49,302.765,232.149,302.783,228.676z M300.103,239.602    c-2.136-1.138-4.662-5.085-5.848-6.388c-1.055-1.159-2.137-2.285-3.4-3.221c-0.607-0.45-1.282-0.836-1.957-1.229    c-0.232-0.256-0.48-0.503-0.767-0.726c-1.115-0.869-2.052-1.588-2.883-2.467c1.836,0.017,3.715,0.297,5.509,0.302    c1.193,0.003,8.23-0.888,9.026,0.138c0.126,0.162-0.269,2.366-0.265,2.665c0.026,1.832,0.52,3.634,0.641,5.458    C300.248,235.479,300.517,237.904,300.103,239.602z"/>
	</g>
</g>
<g>
	<g>
		<path d="M276.454,243.202c0.21-1.087-0.7-1.941-1.728-2.036c-0.082-0.008-0.161-0.006-0.243-0.01    c-2.01-0.51-4.923,0.423-6.484,0.492c-2.235,0.099-2.243,3.389,0,3.479c0.597,0.023,1.206-0.014,1.818-0.075    c0.362-0.019,0.728-0.046,1.085-0.083c-0.682,0.576-1.367,1.117-1.798,1.592c-1.559,1.718-2.996,3.557-4.53,5.307    c-1.899,2.165-3.935,4.172-5.763,6.392c-2.404-2.015-4.855,1.419-6.131,3c-2.014,2.494-5.605,2.246-8.486,3.038    c-1.648,0.452-3.313,0.874-4.964,1.339c0.119-0.2,0.242-0.397,0.364-0.595c0.691-0.725,1.215-1.573,1.738-2.427    c1.024-1.672-1.393-3.602-2.746-2.118c-0.37,0.405-0.704,0.835-1.025,1.275c-1.985,2.059-5.687,4.123-4.809,7.303    c0.014,0.053,0.041,0.1,0.058,0.152c0.05,0.587,0.409,1.111,0.929,1.413c1.81,1.748,5.412,2.512,7.262,3.075    c2.687,0.818,3.744-3.252,1.149-4.166c-0.61-0.215-1.229-0.394-1.849-0.572c4.107-1.277,8.386-2.134,12.47-3.418    c1.206,2.721,4.646,3.338,6.808,0.974c1.266-1.384,1.636-3.696,0.987-5.535c2.917-3.029,5.828-6.066,8.706-9.127    c0.95-1.01,1.79-2.081,2.689-3.114c0.04,0.867,0.114,1.696,0.137,2.356c0.099,2.711,4.115,2.714,4.217-0.001    c0.075-2.003-0.178-4.004,0.002-5.975C276.374,244.492,276.527,243.835,276.454,243.202z"/>
	</g>
</g>
<g>
	<g>
		<path d="M257.098,232.859c-0.577-0.76-1.619-0.855-2.179,0c-0.606,0.922-0.578,2.046-0.981,3.05    c-0.481,1.198-0.779,2.232-0.405,3.526c0.413,1.435,2.415,2.127,3.485,0.921c0.909-1.024,0.381-2.031,0.656-3.224    C257.996,235.745,257.994,234.04,257.098,232.859z"/>
	</g>
</g>
<g>
	<g>
		<path d="M258.921,287.502c-0.014-0.078-0.181-0.565-0.213-0.635c-0.044-0.139-0.087-0.277-0.116-0.424    c-0.003-0.061-0.042-0.361-0.046-0.404c-0.029-0.292-0.064-0.585-0.092-0.877c-0.099-1.027-0.157-2.01-0.48-2.997    c-0.471-1.434-2.342-1.359-2.842,0c-0.674,1.83-1.868,5.895,0.225,7.492c0.224,0.21,0.492,0.372,0.779,0.441    c0.051,0.012,0.102,0.024,0.152,0.036C257.975,290.543,259.204,289.103,258.921,287.502z"/>
	</g>
</g>
<g>
	<g>
		<path d="M231.266,257.811c-1.248-0.387-2.535,0.06-3.8,0.169c-1.259,0.109-2.647,0.151-3.83,0.625    c-0.944,0.377-1.558,2.008-0.331,2.529c2.583,1.094,7.164,1.971,9.042-0.665C233.054,259.478,232.292,258.13,231.266,257.811z"/>
	</g>
</g>
<g>
	<g>
		<path d="M286.251,259.489c-0.982-0.209-1.89,0.045-2.878,0.078c-0.964,0.033-1.913,0.076-2.848,0.335l0.019,0.019    c-0.298,0.072-0.576,0.215-0.793,0.432c-0.956,0.956-0.477,2.547,0.775,2.933c1.958,0.604,4.999,1.294,6.646-0.311    C288.251,261.925,287.801,259.817,286.251,259.489z"/>
	</g>
</g>
<g>
	<g>
		<path d="M269.708,281.553c-1.091-1.192-2.68-2.217-3.691-1.889c-1.57,0.51-1.017,3.241-0.464,4.297    c0.309,0.588,0.807,1.071,1.38,1.407c0.31,0.181,0.653,0.297,1.005,0.354c0.081,0.013,1.142,0.102,1.122,0    c-0.371,0.031-0.374,0.024-0.01-0.018c0.143,0.002,0.279-0.028,0.405-0.089C271.741,284.715,270.97,282.931,269.708,281.553z"/>
	</g>
</g>
<g>
	<g>
		<path d="M279.046,277.451c-0.237-0.436-0.546-0.664-0.925-0.939c-0.013-0.011-0.02-0.017-0.035-0.03    c-0.191-0.158-0.388-0.307-0.591-0.447c0.523,0.427-0.688-0.536-0.422-0.341c-0.193-0.141-0.388-0.29-0.588-0.422    c-0.171-0.143-0.369-0.242-0.59-0.295c0.179,0.052,0.172,0.026-0.021-0.074c-0.226-0.108-0.456-0.196-0.697-0.253    c-0.394-0.093-0.862-0.19-1.279-0.011c-2.415,0.579,1.182,6.615,3.911,5.852C279.126,280.125,279.684,278.623,279.046,277.451z"/>
	</g>
</g>
<g>
	<g>
		<path d="M269.726,235.986c-0.015-0.036-0.023-0.052-0.034-0.078c-0.002-0.023-0.008-0.056-0.02-0.113    c-0.271-1.243-1.961-1.488-2.727-0.602c-0.061,0.049-0.135,0.107-0.241,0.194c-0.107,0.125-0.201,0.259-0.294,0.394    c-0.031,0.03-0.254,0.297-0.289,0.341c-0.538,0.655-0.843,1.359-0.916,2.209c-0.053,0.628,0.333,1.24,0.807,1.605    c0.552,0.426,1.112,0.473,1.783,0.366c0.05-0.008,0.098-0.015,0.148-0.023c0.829-0.131,1.331-0.909,1.414-1.717    c0.119-0.268,0.239-0.535,0.327-0.818c0.082-0.263,0.132-0.52,0.169-0.792C269.899,236.612,269.859,236.304,269.726,235.986z"/>
	</g>
</g>
<g>
	<g>
		<path d="M282.136,248.839c-1.416,0.367-3.29,1.359-4.081,2.634c-0.905,1.459-0.224,3.608,1.69,3.687    c0.778,0.032,1.437-0.376,2.011-0.951c0.907-0.909,1.603-2.235,2.227-2.905c0.028-0.088,0.068-0.373,0.131-0.44    C285.504,249.363,283.222,248.558,282.136,248.839z"/>
	</g>
</g>
<g>
	<g>
		<path d="M245.556,241.086c-0.03-0.114-0.18-0.489-0.241-0.64c0.005,0.014,0.008,0.02,0.017,0.041    c0.131,0.32-0.177-0.436-0.141-0.351c-0.256-0.6-0.579-1.104-0.971-1.623c-0.135-0.179-0.265-0.388-0.424-0.547    c-0.01-0.01-0.205-0.162-0.31-0.244c-0.15-0.119-0.3-0.257-0.464-0.354c-0.049-0.029-0.573-0.326-0.271-0.151    c-0.151-0.087-0.306-0.183-0.478-0.231c-1.469-0.303-1.911,0.78-1.801,2.174c0.145,1.826,1.24,4.182,2.219,4.636    c1.32,0.613,3.021-0.098,3.001-1.722C245.687,241.75,245.637,241.402,245.556,241.086z"/>
	</g>
</g>
<g>
	<g>
		<path d="M236.162,248.738c-0.932-0.854-1.921-0.94-3.114-0.872c-0.801,0.045-1.538-0.095-2.282,0.041    c-0.844,0.154-1.589-0.377-1.898,0.968c-0.186,0.813,0.199,1.445,0.839,1.942c1.157,0.898,3.15,1.354,4.104,1.625    C235.868,253.026,238.061,250.478,236.162,248.738z"/>
	</g>
</g>
<g>
	<g>
		<path d="M231.608,271.908c-0.397-0.397-1.113-0.656-1.665-0.44c0.415-0.014,0.33,0.007-0.255,0.065    c-0.15,0.063-0.301,0.127-0.451,0.191c-0.06,0.028-0.085,0.041-0.099,0.049c-0.023,0.009-0.039,0.014-0.071,0.026    c-0.762,0.286-1.219,0.631-1.716,1.3c-0.978,1.316,0.35,3.184,1.818,3.169c0.058-0.001,0.117-0.001,0.175-0.002    c0.649-0.007,1.232-0.328,1.609-0.83c0.204-0.213,0.385-0.452,0.564-0.691c0.092-0.121,0.184-0.242,0.264-0.372    c0.104-0.158,0.181-0.33,0.231-0.516c0.078-0.575,0.091-0.67,0.036-0.284C232.152,272.953,232.075,272.373,231.608,271.908z"/>
	</g>
</g>
<g>
	<g>
		<path d="M241.801,279.392c-0.922,0.795-1.659,1.723-2.042,2.898c-0.192,0.589-0.286,1.258-0.279,1.879    c0.003,0.311,0.024,0.685,0.107,0.986c0.04,0.147,0.537,1.281,0.393,0.739c0.205,0.77,1.241,1.291,1.946,0.792    c0.476-0.336,1.002-0.514,1.317-1.054c0.373-0.638,0.456-1.379,0.524-2.097c0.102-1.064,0.259-2.113,0.352-3.184    C244.228,279.081,242.609,278.694,241.801,279.392z"/>
	</g>
</g>
<g>
</g>
<g>
</g>
<g>
</g>
<g>
</g>
<g>
</g>
<g>
</g>
<g>
</g>
<g>
</g>
<g>
</g>
<g>
</g>
<g>
</g>
<g>
</g>
<g>
</g>
<g>
</g>
<g>
</g>
</svg>
