<svg id="Layer_1" height="512" viewBox="0 0 512 512" width="512" xmlns="http://www.w3.org/2000/svg" data-name="Layer 1"><path d="m447.286 280.7-2.776 1.522c-10.081-12.659-27.76-17.6-41.2-10.676l-.135.071-6.175 3.375a44.471 44.471 0 0 0 -51.763-4.888l-32.262 17.828h-42.907a61.342 61.342 0 0 1 -26.917-6.269l-5.891-2.9a99.392 99.392 0 0 0 -104.827 10.4q-.2.15-.38.316l-14.221 12.871a49.522 49.522 0 0 1 -19.091 10.757l-8.215-27.385a6 6 0 0 0 -5.747-4.276h-68.779a6 6 0 0 0 -5.957 6.715l22.926 191.054a6 6 0 0 0 5.957 5.285h103.168a6 6 0 0 0 5.747-7.724l-13.684-45.615 42.548-27.334a25.373 25.373 0 0 1 18.774-2.476q.189.048.381.084l85.862 16.065a109.22 109.22 0 0 0 68.462-9.821 6.013 6.013 0 0 0 .736-.44l148.514-103.626a6 6 0 0 0 1.729-7.979 40.041 40.041 0 0 0 -53.877-14.934zm-38.424 1.482c7.729-3.939 18.2-1.137 24.891 5.937l-56.993 31.242-3.674 1.969a49.344 49.344 0 0 0 -8.191-15.077zm-57.753-1.608c.048-.026.1-.054.142-.082a32.459 32.459 0 0 1 34.238.808l-29.6 16.211a47.9 47.9 0 0 0 -19.671-8.706zm-306.86 191.926-21.486-179.054h57.552l53.715 179.054zm300.163-75.349a97.132 97.132 0 0 1 -60.5 8.553l-85.663-16.03a37.326 37.326 0 0 0 -27.61 3.8c-.095.054-.187.11-.278.169l-39.791 25.557-28.381-94.6a61.5 61.5 0 0 0 23.693-13.351l14.035-12.7a87.462 87.462 0 0 1 92.05-9.012l5.891 2.895a73.418 73.418 0 0 0 32.21 7.5h57.12c18 0 33 13.356 35.943 30.854l-41.922-1.928a243.783 243.783 0 0 0 -45 2.112 6 6 0 0 0 1.672 11.883 231.639 231.639 0 0 1 42.778-2.008l48.722 2.241q.138.006.276.006a6 6 0 0 0 6-6c0-1.162-.054-2.311-.133-3.454l6.955-3.727 70.577-38.695a28.007 28.007 0 0 1 34.511 6.045z"/><path d="m65.35 445.071a19.757 19.757 0 1 0 19.756-19.979 19.891 19.891 0 0 0 -19.756 19.979zm19.756-7.979a7.983 7.983 0 1 1 -7.756 7.979 7.878 7.878 0 0 1 7.756-7.979z"/><path d="m284.853 27.5c-60.144 0-109.074 48.871-109.074 108.942s48.93 108.941 109.074 108.941 109.074-48.871 109.074-108.941-48.927-108.942-109.074-108.942zm0 205.883a96.942 96.942 0 1 1 97.074-96.941 97.118 97.118 0 0 1 -97.074 96.941z"/><path d="m287.588 92.041c15.514.638 19.188 13.406 19.563 14.9a6 6 0 0 0 11.675-2.777 32.412 32.412 0 0 0 -26.4-23.675v-7.589a6 6 0 0 0 -12 0v7.612a26.681 26.681 0 0 0 -14.358 7.076c-8.468 8.243-8.969 19.9-8.921 23.283.185 13 9.885 23.973 23.583 26.687l1.2.239c1.025.2 2.284.457 3.054.607.442.086 1.592.437 2.086.588a4.322 4.322 0 0 1 .507.189c.08.035.159.068.24.1l1.882.733a4.985 4.985 0 0 1 .487.22c.888.459 1.105.588 1.75.971.265.156.579.343.984.58l.2.131c.063.04.132.085.21.132 1.942 1.2 11.645 7.641 12.031 17.014.234 5.691-1.21 10.014-4.415 13.214-4.921 4.913-12.847 5.948-16.775 5.771a23.745 23.745 0 0 1 -11.3-4.2c-2.9-2.007-6.475-5.477-7.04-10.614a6 6 0 1 0 -11.927 1.311c1.584 14.423 15.476 23.276 26.518 25.141v6.421a6 6 0 0 0 12 0v-6.763a32.861 32.861 0 0 0 17-8.574c5.556-5.547 8.3-13.224 7.928-22.2-.619-15.015-13.658-24.223-17.739-26.744-.053-.034-.5-.318-.549-.345l-1.01-.595c-.784-.465-1.212-.715-2.359-1.309a17 17 0 0 0 -1.65-.745l-1.771-.689a16.309 16.309 0 0 0 -1.7-.625c-1.18-.361-2.321-.7-3.3-.89-.755-.147-1.989-.394-2.991-.595l-1.22-.243c-9.492-1.881-13.83-8.933-13.919-15.087-.064-4.464 1.294-10.62 5.293-14.513 3.073-2.989 7.492-4.389 13.153-4.148z"/></svg>