<svg height="496pt" viewBox="-11 0 496 496.00008" width="496pt" xmlns="http://www.w3.org/2000/svg"><path d="m0 452.042969c0 24.265625 21.007812 43.957031 46.421875 43.957031h272.507813c22.773437 0 41.734374-15.832031 45.425781-36.589844 21.882812-3.410156 38.644531-21.554687 38.644531-43.398437v-198.011719h22.148438c1.542968.03125 3.058593-.390625 4.363281-1.207031l40.515625-26.316407c2.269531-1.46875 3.636718-3.988281 3.636718-6.691406 0-2.699218-1.367187-5.21875-3.636718-6.6875l-40.515625-26.582031c-1.277344-.910156-2.792969-1.4375-4.363281-1.515625h-22.148438v-43.640625c-.199219-2.683594-1.484375-5.167969-3.554688-6.886719l-92.226562-93.957031c-.515625-.738281-1.148438-1.386719-1.878906-1.914063l-.25-.234374c-1.507813-1.523438-3.566406-2.3789068-5.707032-2.367188h-214.984374c-22.773438 0-41.898438 15.835938-45.589844 36.589844-21.882813 3.410156-38.808594 21.554687-38.808594 43.398437zm136-250.042969v-37h281v37zm297-6.574219v-23.226562l17.847656 11.613281zm-124-166.609375 66.339844 68.183594h-55.648438c-2.777344.0625-5.46875-.980469-7.472656-2.902344-2.007812-1.921875-3.164062-4.566406-3.21875-7.34375zm-224.601562-12.816406h208.601562v70.753906c.121094 14.621094 12.070312 26.371094 26.691406 26.246094h67.308594v36h-258.601562c-4.582032.179688-8.246094 3.867188-8.398438 8.449219v1.023437l-23.808594-.472656h-.070312c-4.464844.117188-8.015625 3.78125-8 8.246094l.25 34.820312c.035156 4.394532 3.609375 7.9375 8 7.933594h23.628906v1.175781c0 4.417969 3.984375 7.824219 8.398438 7.824219h16.902343l-.109375 12c-.070312 4.574219 1.644532 8.996094 4.777344 12.328125 2.695312 2.875 6.425781 4.554687 10.363281 4.671875h97.136719c4.417969 0 8-3.582031 8-8s-3.582031-8-8-8h-96.246094c-.015625-1-.027344-.5-.027344-.621094l.113282-12.378906h225.691406v198.011719c0 15.441406-13.5 27.988281-30.089844 27.988281h-272.511718c-16.589844 0-30.398438-12.546875-30.398438-27.988281v-370.785157c0-.40625.261719-.820312.261719-1.242187.023437-.34375.023437-.6875 0-1.035156.585937-14.964844 13.921875-26.949219 30.136719-26.949219zm35.601562 177h-15.683594l-.339844-18.714844 16.023438.1875zm-104-113.011719c0-12.828125 10-23.660156 22-26.964843v362.988281c0 24.261719 20.988281 43.988281 46.398438 43.988281h263.367187c-3.699219 12-15.21875 20-28.835937 20h-272.507813c-16.589844 0-30.421875-12.515625-30.421875-27.957031zm0 0"/><path d="m96.460938 284h131.53125c4.417968 0 8-3.582031 8-8s-3.582032-8-8-8h-131.53125c-4.421876 0-8 3.582031-8 8s3.578124 8 8 8zm0 0"/><path d="m96.460938 323h228.910156c4.421875 0 8-3.582031 8-8s-3.578125-8-8-8h-228.910156c-4.421876 0-8 3.582031-8 8s3.578124 8 8 8zm0 0"/><path d="m96.460938 362h228.910156c4.421875 0 8-3.582031 8-8s-3.578125-8-8-8h-228.910156c-4.421876 0-8 3.582031-8 8s3.578124 8 8 8zm0 0"/><path d="m96.460938 401h228.910156c4.421875 0 8-3.582031 8-8s-3.578125-8-8-8h-228.910156c-4.421876 0-8 3.582031-8 8s3.578124 8 8 8zm0 0"/></svg>