<svg height="512pt" viewBox="-59 0 512 512" width="512pt" xmlns="http://www.w3.org/2000/svg"><path d="m206.949219 412c0-5.519531-4.480469-10-10-10s-10 4.480469-10 10 4.480469 10 10 10 10-4.480469 10-10zm0 0"/><path d="m186.949219 140h20c5.523437 0 10-4.476562 10-10s-4.476563-10-10-10h-20c-5.523438 0-10 4.476562-10 10s4.476562 10 10 10zm0 0"/><path d="m186.949219 180h20c5.523437 0 10-4.476562 10-10s-4.476563-10-10-10h-20c-5.523438 0-10 4.476562-10 10s4.476562 10 10 10zm0 0"/><path d="m393.648438 447.664062c-21.539063-85.746093-38.757813-172.550781-116.613282-255.953124l7.542969-71.710938h12.371094c33.085937 0 60-26.914062 60-60s-26.914063-60-60-60c-16.941407 0-12.71875 0-33.058594 0-16.199219 0-28.476563 12.9375-29.683594 25.765625l-4.382812 46.167969c-.921875 4.691406-5.003907 8.066406-9.8125 8.066406h-46.121094c-4.808594 0-8.890625-3.375-9.8125-8.066406l-4.382813-46.167969c-1.214843-13.007813-13.5-25.765625-29.683593-25.765625-20.421875 0-15.882813 0-33.0625 0-33.082031 0-60 26.914062-60 60s26.917969 60 60 60h12.375l7.546875 71.753906c-44.492188 48.089844-78.886719 112.523438-97.210938 182.40625-2.480468 9.433594-13.390625 51.003906-19.328125 73.433594-1.085937 4.109375.542969 8.457031 4.066407 10.839844 51.085937 34.542968 119.46875 53.566406 192.550781 53.566406 73.15625 0 141.558593-19.042969 192.609375-53.621094 3.480468-2.355468 5.113281-6.640625 4.089844-10.714844zm-101.488282-427.664062h4.792969c22.054687 0 40 17.945312 40 40s-17.945313 40-40 40h-10.269531l6.9375-65.957031c.644531-4.757813.113281-9.578125-1.460938-14.042969zm-195.210937 80c-22.054688 0-40-17.945312-40-40s17.945312-40.011719 40-40.011719h4.789062c-1.65625 4.640625-2.082031 9.484375-1.453125 14.0625l6.933594 65.949219zm31.21875-79.820312c1.222656.21875 2.441406.199218 3.609375-.023438 4.015625.710938 7.238281 3.804688 8.046875 7.910156l4.382812 46.167969c1.214844 13.007813 13.5 25.765625 29.683594 25.765625h46.121094c14.722656 0 27.167969-10.539062 29.59375-25.0625.035156-.234375.066406-.46875.089843-.703125l4.378907-46.160156c.808593-4.070313 4.027343-7.195313 8.0625-7.917969 1.167969.222656 2.386719.238281 3.609375.019531 5.015625.917969 8.835937 5.71875 8.042968 11.238281-.015624.121094-.03125.246094-.042968.371094l-16.074219 152.824219-57.46875 19.707031c-2.097656.71875-4.410156.71875-6.5.003906l-57.476563-19.710937-16.070312-152.824219c-.015625-.132812-.03125-.265625-.050781-.394531-.765625-5.277344 2.851562-10.25 8.0625-11.210937zm-89.164063 359.058593c.546875-2.085937 1.109375-4.167969 1.6875-6.242187 26.722656 23.371094 67.539063 39.941406 115.027344 46.277344.449219.058593.894531.085937 1.335938.085937 4.933593 0 9.226562-3.652344 9.898437-8.675781.730469-5.476563-3.117187-10.503906-8.589844-11.234375-47.324219-6.3125-88.316406-24.046875-111.140625-47.835938 18.769532-56.414062 48.382813-107.738281 85.15625-147.179687l44.113282 15.128906-35.789063 28.628906c-4.3125 3.449219-5.011719 9.742188-1.5625 14.054688s9.742187 5.015625 14.058594 1.5625l43.75-35 43.753906 35c4.292969 3.433594 10.589844 2.769531 14.054687-1.5625 3.453126-4.3125 2.753907-10.605469-1.558593-14.054688l-35.789063-28.628906 44.144532-15.140625c37.0625 39.394531 66.792968 90.375 85.71875 146.519531-22.695313 24.152344-63.914063 42.144532-111.734376 48.515625-5.472656.730469-9.320312 5.757813-8.589843 11.234375.667969 5.023438 4.964843 8.679688 9.898437 8.679688.441406 0 .886719-.03125 1.332032-.089844 47.960937-6.390625 89.019531-23.191406 115.707031-46.910156 1.105469 3.925781 2.167969 7.871094 3.167969 11.835937 0 0 .9375 3.707031 2.398437 9.519531-38.738281 30.308594-98.882813 48.273438-162.503906 48.273438-63.152344 0-123.0625-17.769531-161.886719-47.761719zm157.945313 112.761719c-66.320313 0-128.292969-16.386719-175.4375-46.265625 2.382812-9.023437 5.308593-20.140625 8.082031-30.6875 42.214844 29.59375 103.4375 46.953125 167.355469 46.953125 64.25 0 125.613281-17.472656 167.789062-47.273438.941407 3.746094 1.914063 7.601563 2.878907 11.445313 1.71875 6.824219 3.417968 13.578125 4.902343 19.46875-47.121093 29.9375-109.144531 46.359375-175.570312 46.359375zm0 0"/></svg>