<svg height="512pt" viewBox="0 0 512 512.001" width="512pt" xmlns="http://www.w3.org/2000/svg"><path d="m500.742188 310.6875-16.910157-7.453125c-3.8125-1.679687-8.269531.050781-9.949219 3.863281-1.683593 3.8125.046876 8.257813 3.863282 9.941406l16.910156 7.464844c1.148438.5 1.386719 1.207032 1.386719 1.71875 0 .503906-.238281 1.207032-1.386719 1.710938l-138.230469 60.957031c-.867187.382813-1.972656.382813-2.847656 0-43.414063-19.144531-29.1875-12.871094-67.65625-29.839844l50.148437-23.078125c18.097657 10.96875 47.980469 2.609375 47.980469-15.816406 0-11.613281-12.757812-20.710938-29.046875-20.710938-18.304687 0-31.710937 11.421876-28.605468 24.363282l-58.910157 27.113281c-6.253906-2.757813-45.882812-20.230469-52.132812-22.988281-1.855469-.8125-1.867188-2.609375 0-3.429688l138.222656-60.957031c.875-.382813 1.980469-.382813 2.855469 0 67.898437 29.933594-4.355469-1.917969 93.695312 41.316406 3.8125 1.683594 8.269532-.046875 9.949219-3.863281 1.679687-3.8125-.050781-8.257812-3.863281-9.949219l-54.570313-24.054687v-126.339844c0-20.578125 0-29.476562 0-50.523438 0-13.777343-11.214843-24.921874-24.917969-24.921874h-68.792968v-23.691407c0-22.886719-18.621094-41.519531-41.511719-41.519531h-28.519531c-4.175782 0-7.546875 3.378906-7.546875 7.546875 0 4.171875 3.371093 7.542969 7.546875 7.542969h28.519531c14.570313 0 26.421875 11.863281 26.421875 26.429687v23.691407h-12.246094v-23.691407c0-7.816406-6.359375-14.183593-14.175781-14.183593h-131.199219c-7.816406 0-14.183594 6.367187-14.183594 14.183593v23.691407h-12.242187v-23.691407c0-14.566406 11.859375-26.429687 26.425781-26.429687h72.496094c4.167969 0 7.546875-3.371094 7.546875-7.542969 0-4.167969-3.378906-7.546875-7.546875-7.546875h-72.496094c-22.886718 0-41.519531 18.632812-41.519531 41.519531v23.691407h-68.78125c-13.742187 0-24.921875 11.179687-24.921875 24.921874v183.03125c0 4.164063 3.371094 7.542969 7.546875 7.542969 4.164063 0 7.542969-3.378906 7.542969-7.542969v-85.425781c11.421875 15.976563 28.488281 27.648438 48.257812 32.09375v22.128907c0 8.886718 7.234375 16.121093 16.125 16.121093h22.667969c8.890625 0 16.125-7.234375 16.125-16.121093v-20.15625h165.113281v20.15625c0 8.886718 7.234375 16.121093 16.121094 16.121093h22.671875c8.890625 0 16.121094-7.234375 16.121094-16.121093v-22.128907c19.773437-4.441406 36.84375-16.117187 48.261719-32.09375v72.597657l-24.035157-10.59375c-4.746093-2.09375-10.28125-2.09375-15.03125 0l-138.21875 60.945312c-13.867187 6.117188-13.847656 24.949219 0 31.058594l26.335938 11.609375v4.949219h-175.804688c-24.660156 0-44.710937-20.050782-44.710937-44.699219v-10.261719c0-4.164062-3.378906-7.542969-7.542969-7.542969-4.175781 0-7.546875 3.378907-7.546875 7.542969v10.261719c0 32.96875 26.820312 59.789062 59.800781 59.789062h175.808594v55.949219c0 11.097656 9.617187 20.070312 24.96875 26.851562v9.933594l-25.449219 33.785156c-2.507812 3.332032-1.839844 8.0625 1.488282 10.566407 3.328124 2.507812 8.058593 1.84375 10.566406-1.488281l13.394531-17.78125v13.242187c0 4.167969 3.378906 7.546875 7.546875 7.546875 4.164062 0 7.542969-3.378906 7.542969-7.546875v-13.234375l13.390625 17.773438c1.484375 1.972656 3.746094 3.007812 6.035156 3.007812 6.152344 0 9.785156-7.085938 6.019531-12.085938l-25.445312-33.78125v-4.476562c70.210937 20.835938 198.738281 8.226562 198.738281-32.316406v-75.984375l26.335938-11.609375c6.410156-2.828125 10.394531-8.785156 10.394531-15.523438 0-6.75-3.984375-12.707031-10.394531-15.535156zm-145.734376 3.847656c9.15625 0 13.953126 4.175782 13.953126 5.621094s-4.796876 5.617188-13.953126 5.617188c-9.085937 0-13.957031-4.160157-13.957031-5.617188 0-1.445312 4.796875-5.621094 13.957031-5.621094zm-218.878906-272.109375h129.378906v22.785157h-129.378906zm-32.953125 199.535157c0 .566406-.464843 1.03125-1.035156 1.03125h-22.667969c-.570312 0-1.035156-.464844-1.035156-1.03125v-20.203126c.902344.027344 1.804688.046876 2.710938.046876h22.027343zm0-35.246094h-22.027343c-.910157 0-1.808594-.035156-2.710938-.070313v-20.605469c0-.570312.464844-1.035156 1.035156-1.035156h22.667969c.570313 0 1.035156.464844 1.035156 1.035156zm220.027344 35.246094c0 .566406-.460937 1.03125-1.03125 1.03125h-22.667969c-.570312 0-1.03125-.464844-1.03125-1.03125v-20.15625h22.027344c.902344 0 1.804688-.015626 2.703125-.046876zm0-35.316407c-.898437.035157-1.796875.070313-2.703125.070313h-22.03125v-20.675782c0-.570312.464844-1.035156 1.03125-1.035156h22.671875c.570313 0 1.03125.464844 1.03125 1.035156zm15.09375-2.386719v-18.222656c0-8.890625-7.234375-16.121094-16.125-16.121094h-22.667969c-8.890625 0-16.125 7.230469-16.125 16.121094v20.675782h-165.113281v-20.675782c0-8.890625-7.234375-16.121094-16.125-16.121094h-22.667969c-8.890625 0-16.125 7.230469-16.125 16.121094v18.222656c-27.804687-7.792968-48.257812-33.347656-48.257812-63.601562v-50.523438c0-5.421874 4.40625-9.828124 9.832031-9.828124h351.804687c5.828126 0 9.828126 4.773437 9.828126 9.828124v50.523438c0 30.253906-20.453126 55.8125-48.257813 63.601562zm-77.71875 235.195313c-7.484375-4.214844-9.878906-8.007813-9.878906-10.109375 0-7.101562 0-62.625 0-69.328125l9.878906 4.355469zm198.734375-10.109375c0 3.269531-5.785156 10.601562-27.453125 17.324219-41.703125 12.921875-111.988281 13.570312-156.191406-.796875v-74.96875c7.179687 3.324218-3.28125-1.328125 71.824219 31.789062 4.777343 2.105469 10.238281 2.113282 15.027343 0l96.792969-42.675781zm0 0"/></svg>