<svg height="480pt" viewBox="0 -24 480 480" width="480pt" xmlns="http://www.w3.org/2000/svg"><path d="m440 0h-400c-22.082031.0273438-39.9726562 17.917969-40 40v272c.0273438 22.082031 17.917969 39.972656 40 40h400c22.082031-.027344 39.972656-17.917969 40-40v-272c-.027344-22.082031-17.917969-39.9726562-40-40zm24 312c0 13.253906-10.746094 24-24 24h-400c-13.253906 0-24-10.746094-24-24v-272c0-13.253906 10.746094-24 24-24h400c13.253906 0 24 10.746094 24 24zm0 0"/><path d="m440 32h-400c-4.417969 0-8 3.582031-8 8v272c0 4.417969 3.582031 8 8 8h400c4.417969 0 8-3.582031 8-8v-272c0-4.417969-3.582031-8-8-8zm-8 272h-384v-256h384zm0 0"/><path d="m472 368h-464c-4.417969 0-8 3.582031-8 8 .0390625 30.910156 25.089844 55.960938 56 56h368c30.910156-.039062 55.960938-25.089844 56-56 0-4.417969-3.582031-8-8-8zm-48 48h-368c-19-.019531-35.375-13.386719-39.199219-32h446.398438c-3.824219 18.613281-20.199219 31.980469-39.199219 32zm0 0"/><path d="m56 408h368c4.417969 0 8-3.582031 8-8s-3.582031-8-8-8h-368c-4.417969 0-8 3.582031-8 8s3.582031 8 8 8zm0 0"/></svg>