<svg height="64.000000pt" preserveaspectratio="xMidYMid meet" version="1.0" viewbox="0 0 64.000000 64.000000" width="64.000000pt" xmlns="http://www.w3.org/2000/svg">
<g fill="#000000" stroke="none" transform="translate(0.000000,64.000000) scale(0.100000,-0.100000)">
	<path d="M195 534 c-97 -50 -132 -161 -83 -262 24 -51 143 -182 164 -182 29 0 12 41 -41 97 -107 112 -124 202 -52 281 66 72 213 32 233 -63 3 -17 17 -38 30 -48 l24 -18 0 36 c0 65 -53 141 -113 164 -41 16 -127 13 -162 -5z"></path>
	<path d="M245 438 c-75 -43 -49 -158 35 -158 82 0 112 118 39 155 -33 18 -47 18 -74 3z"></path>
	<path d="M344 278 c-38 -34 -70 -65 -72 -69 -2 -4 6 -13 17 -21 12 -9 21 -28 23 -53 l3 -40 99 -3 c109 -3 116 0 116 54 0 19 6 34 15 38 8 3 15 12 15 20 0 14 -127 136 -141 136 -4 0 -38 -28 -75 -62z m108 -25 c23 -22 28 -35 28 -75 l0 -48 -62 0 -63 0 1 46 c1 35 8 52 30 75 15 16 30 29 33 29 3 0 18 -12 33 -27z"></path>
</g></svg>