<svg height="512" viewBox="0 0 60 60" width="512" xmlns="http://www.w3.org/2000/svg"><g id="013---Hair-Dye"><path id="Shape" d="m32.7 8.778c-.2510745-.25995658-.6228779-.3642126-.9725073-.27269716-.3496295.09151544-.6226744.3645604-.7141899.71418984-.0915154.34962943.0127406.72143285.2726972.97250732l4.439 4.439c-.1911498.6866768.0039383 1.423039.51 1.925 1.761 1.761 3.081 3.34 6.107 3.7 2.2369515.2063115 4.3385883 1.1623377 5.964 2.713l4.9 4.9c1.031783.9890898 2.512863 1.3525968 3.8853314.9535914s2.4278147-1.4999048 2.7685001-2.888c.3406853-1.3880953-.0850484-2.8525016-1.1168315-3.8415914l-4.781-4.781c-1.5501651-1.6256415-2.5058101-3.7272148-2.712-5.964-.372-3.1-2.108-4.513-3.7-6.107-.5053974-.49936785-1.2377831-.69312269-1.924-.509l-4.439-4.439c-.3923789-.37897221-1.0160848-.37355237-1.4018186.01218143-.3857338.38573379-.3911536 1.00943968-.0121814 1.40181857l4.243 4.243-1.416 1.414-4.241-4.242c-.3923789-.37897221-1.0160848-.37355237-1.4018186.01218142-.3857338.3857338-.3911536 1.00943969-.0121814 1.40181858l4.242 4.242-1.414 1.414-4.243-4.242c-.3923789-.37897221-1.0160848-.37355237-1.4018186.01218142-.3857338.3857338-.3911536 1.00943969-.0121814 1.40181858l4.243 4.242-1.415 1.415zm16.564 2.809c.2578997 2.6823088 1.4152492 5.1985925 3.284 7.14l4.781 4.781c.7892615.7503703.8846332 1.9755302.221 2.839-.3726456.405477-.8919414.6451315-1.4422661.6656043-.5503246.0204728-1.0859914-.1799356-1.4877339-.5566043l-4.9-4.9c-1.9411763-1.8692481-4.4575237-3.0269794-7.14-3.285-2.358-.281-3.4-1.6-4.931-3.129l8.488-8.483c1.582 1.579 2.847 2.575 3.129 4.928z"/><path id="Shape" d="m45.21 41.048c-1.209-3.508.345-8.237.769-16.013.0196496-.3572656-.1527923-.6978756-.4523686-.8935255-.2995763-.1956498-.6807741-.2166157-1-.055-.3192259.1616158-.5279818.4812599-.5476314.8385255-.412 7.581-1.933 12.234-.821 16.266-4.115.377-9.158 1.403-9.158 3.809.0824635.8303963.6005452 1.5541869 1.36 1.9l.489 2.445c-1.19.167-2.486.3-3.872.4v-6.917c2.1031686-2.238331 3.6249938-4.9585248 4.432-7.922 1.6-.423 4.591-1.89 4.591-6.946 0-2.339-.54-3.749-1.652-4.311-.5534634-.266995-1.1879399-.3127746-1.774-.128 0-.637-.022-1.268-.067-1.866-.0178386-.237121-.1195909-.4601251-.287-.629-3.858-3.89-5.52-4.026-12.72-4.026-4.788 0-6.585-2.736-7.23-4.368-.1156044-.2919097-.3615931-.5125786-.6642972-.5959205s-.6269762-.0196799-.8757028.1719205c-2.856 2.2-4.261 5.9-4.3 11.314-.5856649-.184515-1.219613-.1391053-1.773.127-1.117.562-1.657 1.972-1.657 4.311 0 5.04 2.971 6.513 4.574 6.94.8008288 2.9868397 2.33491 5.7263932 4.463 7.97v6.874c-10.237-.744-12.844-2.999-14.211-4.544 6.6-3.156 1.166-15.883 2.13-25.933.983-10.204 9.544-10.673 12.149-10.58.2148988.0236433.4319448-.01781492.623-.119 4.1926166-2.09297153 8.8982361-2.93746309 13.557-2.433.3553006.03840605.7041013-.11565592.9150123-.40415227.2109109-.28849634.2518897-.6675976.1075-.9945s-.4522117-.55194168-.8075123-.59034773c-4.9712617-.52664769-9.9905489.35234255-14.487 2.537-6.192-.159-13.141 2.984-14.049 12.392-1.006 10.5 4.444 23.172-1.99 24.654-.43340948.0272187-.80090493.328436-.91267137.7480702-.11176644.4196343.05721807.863739.41967137 1.1029298 1.63 1.5 2.839 5.216 16.665 6.182.3483131 1.3208937 1.5419553 2.2419849 2.908 2.244h8.94c1.3625076.0052842 2.5515019-.9229332 2.877-2.246 1.57-.109 3.033-.26 4.371-.451.91 4.548.758 3.3.758 5.691 0 1.6568542 1.3431458 3 3 3h14c1.6568542 0 3-1.3431458 3-3 0-2.536-.267-.568 1.64-10.1.7594548-.3458131 1.2775365-1.0696037 1.36-1.9 0-3.611-11.119-4.126-14.79-3.952zm-6.765-15.614c.023.011.555.3.555 2.526 0 2.675-1 3.966-2.048 4.587.3915128-2.2663855.596201-4.5611009.612-6.861.46-.263.771-.309.881-.252zm-28.445 2.526c0-2.221.532-2.515.555-2.526.11-.055.421-.01.88.253.0148497 2.2971082.2155041 4.5892507.6 6.854-1.045-.623-2.035-1.914-2.035-4.581zm5.569 9.261c-1.792-3.826-2.152-7.982-2.152-13.446 0-4.214.858-7.222 2.618-9.143 1.118 1.873 3.534 4.368 8.465 4.368 6.92 0 7.952.105 11.037 3.171.031.518.046 1.056.046 1.6 0 5.452-.364 9.6-2.177 13.445-2.1 4.471-5.094 6.738-8.906 6.738-3.842.004-6.846-2.262-8.931-6.733zm13.425 14.785h-8.94c-.2898028.0040895-.5671242-.1177566-.7601299-.3339768-.1930057-.2162201-.2827076-.5055421-.2458701-.7930232 0-.051-.011.715-.011-6.435 3.3655828 2.0335543 7.5833719 2.0243014 10.94-.024v6.58c.005641.264511-.0953646.520171-.280269.7094017-.1849043.1892307-.4381603.2961212-.702731.2965983zm18.006-9.006c6.09 0 10.231 1.264 10.941 2-.71.736-4.851 2-10.941 2s-10.231-1.264-10.941-2c.71-.736 4.851-2 10.941-2zm8 14c0 .5522847-.4477153 1-1 1h-14c-.5522847 0-1-.4477153-1-1v-1h10c.5522847 0 1-.4477153 1-1s-.4477153-1-1-1h-10.18c-.65-3.25 1.034 5.171-1.234-6.167 6.1821627 1.5348259 12.6458373 1.5348259 18.828 0-1.686 8.429-1.414 6.367-1.414 9.167z"/></g></svg>