<svg id="Capa_1" style="enable-background:new 0 0 427.972 427.972;" version="1.1" viewbox="0 0 427.972 427.972" x="0px" xmlns="http://www.w3.org/2000/svg" y="0px">
<g><path d="M426.398,238.441l-7.616-111.077c-0.494-7.195-3.766-13.761-9.212-18.488c-5.447-4.727-12.408-7.042-19.6-6.517 c-14.137,1.03-25.101,12.94-24.961,27.113l0.899,90.552l-39.225,50.237c-6.262,8.019-16.651,11.239-26.075,8.824l42.678-55.422 c7.491-9.728,6.246-23.821-2.833-32.084c-4.847-4.412-11.115-6.592-17.657-6.134c-6.539,0.457-12.446,3.485-16.634,8.528 l-64.473,77.645c-10.633,12.806-16.399,29.024-16.238,45.668l1.001,103.112c0.04,4.11,3.38,7.421,7.49,7.427l107.354,0.146 c0.003,0,0.007,0,0.01,0c2.1,0,4.104-0.88,5.524-2.427c1.423-1.55,2.13-3.625,1.947-5.722l-4.382-50.472l71.267-94.714 C423.474,264.256,427.286,251.401,426.398,238.441z M403.677,265.619l-72.994,97.01c-1.112,1.478-1.639,3.315-1.479,5.158 l3.922,45.174l-91.746-0.125l-0.929-95.695c-0.128-13.099,4.411-25.862,12.779-35.94l64.473-77.646 c1.545-1.861,3.725-2.978,6.137-3.146c2.413-0.172,4.728,0.635,6.517,2.264c3.351,3.049,3.81,8.25,1.045,11.839l-48.431,62.893 c-1.27,1.649-1.797,3.751-1.456,5.804c0.341,2.053,1.52,3.872,3.254,5.022c17.332,11.495,40.938,7.657,53.737-8.737l40.839-52.305 c1.046-1.338,1.605-2.992,1.589-4.69l-0.925-93.174c-0.063-6.275,4.792-11.548,11.051-12.005c3.198-0.23,6.267,0.793,8.678,2.885 c2.412,2.093,3.86,5,4.079,8.186l7.616,111.077C412.074,248.831,409.321,258.118,403.677,265.619z"></path>
<path d="M121.81,193.973c-4.188-5.043-10.095-8.072-16.634-8.528c-6.535-0.456-12.809,1.722-17.655,6.134 c-9.081,8.264-10.326,22.357-2.835,32.085l42.679,55.422c-9.418,2.412-19.814-0.804-26.076-8.824l-39.225-50.237l0.899-90.552 c0.14-14.173-10.823-26.083-24.96-27.113c-7.182-0.521-14.151,1.789-19.6,6.517c-5.446,4.727-8.718,11.293-9.212,18.488 L1.574,238.441c-0.889,12.96,2.924,25.815,10.734,36.196l71.268,94.714l-4.382,50.472c-0.183,2.096,0.524,4.172,1.947,5.722 c1.421,1.547,3.425,2.427,5.524,2.427c0.003,0,0.007,0,0.01,0l107.354-0.146c4.11-0.006,7.45-3.317,7.49-7.427l1.002-103.112 c0.161-16.643-5.605-32.861-16.238-45.667L121.81,193.973z M186.592,412.836l-91.745,0.125l3.922-45.174 c0.16-1.843-0.366-3.68-1.479-5.158l-72.995-97.01c-5.644-7.5-8.397-16.788-7.756-26.151l7.617-111.077 c0.219-3.186,1.667-6.093,4.079-8.186c2.187-1.898,4.926-2.917,7.792-2.917c0.294,0,0.589,0.011,0.886,0.032 c6.259,0.456,11.112,5.729,11.05,12.005l-0.925,93.174c-0.017,1.698,0.543,3.352,1.589,4.69l40.839,52.305 c12.801,16.394,36.405,20.23,53.738,8.738c1.734-1.15,2.913-2.969,3.254-5.022s-0.187-4.156-1.456-5.805l-48.432-62.892 c-2.764-3.59-2.305-8.79,1.047-11.84c1.789-1.629,4.101-2.43,6.515-2.264c2.413,0.168,4.593,1.286,6.138,3.147l64.473,77.646 c8.368,10.079,12.907,22.842,12.779,35.94L186.592,412.836z"></path>
<path d="M360.908,84.394c0-22.542-8.779-43.735-24.719-59.675C320.249,8.778,299.057,0,276.514,0 c-22.542,0-43.735,8.778-59.676,24.718l-2.852,2.853l-2.853-2.853C195.194,8.778,174.001,0,151.458,0 c-22.542,0-43.735,8.778-59.676,24.718c-32.904,32.905-32.904,86.445,0.001,119.351l116.899,116.899 c1.465,1.464,3.385,2.197,5.304,2.197s3.839-0.732,5.304-2.197l116.899-116.9C352.129,128.129,360.908,106.936,360.908,84.394z M213.987,245.059L102.39,133.462c-27.057-27.057-27.057-71.081,0-98.138C115.496,22.218,132.923,15,151.458,15 c18.536,0,35.962,7.218,49.069,20.325l8.156,8.156c1.406,1.407,3.313,2.197,5.303,2.197s3.897-0.791,5.304-2.197l8.155-8.156 C240.552,22.218,257.979,15,276.514,15c18.536,0,35.962,7.218,49.068,20.325c13.107,13.107,20.326,30.533,20.326,49.069 s-7.219,35.962-20.326,49.069L213.987,245.059z"></path>
</g><g></g><g></g><g></g><g></g><g></g><g></g><g></g><g></g><g></g><g></g><g></g><g></g><g></g><g></g><g></g></svg>