<svg viewBox="0 0 512 512" xmlns="http://www.w3.org/2000/svg"><path d="m321.828125 182.671875h-22.574219c-4.144531 0-7.5 3.359375-7.5 7.5s3.355469 7.5 7.5 7.5h15.074219v116.65625h-116.65625v-116.65625h72.582031c4.140625 0 7.5-3.359375 7.5-7.5s-3.359375-7.5-7.5-7.5h-80.082031c-4.140625 0-7.5 3.359375-7.5 7.5v131.65625c0 4.140625 3.359375 7.5 7.5 7.5h131.65625c4.140625 0 7.5-3.359375 7.5-7.5v-131.65625c0-4.140625-3.359375-7.5-7.5-7.5zm0 0"/><path d="m504.5 206.722656c4.140625 0 7.5-3.355468 7.5-7.5 0-4.140625-3.359375-7.5-7.5-7.5h-64.910156v-41.777344h64.910156c4.140625 0 7.5-3.355468 7.5-7.5 0-4.140624-3.359375-7.5-7.5-7.5h-64.910156v-55.035156c0-4.140625-3.359375-7.5-7.5-7.5h-55.035156v-64.910156c0-4.140625-3.359376-7.5-7.5-7.5-4.144532 0-7.5 3.359375-7.5 7.5v64.910156h-41.777344v-64.910156c0-4.140625-3.359375-7.5-7.5-7.5s-7.5 3.359375-7.5 7.5v64.910156h-41.777344v-64.910156c0-4.140625-3.359375-7.5-7.5-7.5s-7.5 3.359375-7.5 7.5v64.910156h-41.777344v-64.910156c0-4.140625-3.355468-7.5-7.5-7.5-4.140625 0-7.5 3.359375-7.5 7.5v64.910156h-41.773437v-64.910156c0-4.140625-3.359375-7.5-7.5-7.5-4.144531 0-7.5 3.359375-7.5 7.5v64.910156h-55.039063c-4.140625 0-7.5 3.359375-7.5 7.5v55.035156h-64.910156c-4.140625 0-7.5 3.359376-7.5 7.5 0 4.144532 3.359375 7.5 7.5 7.5h64.910156v41.777344h-64.910156c-4.140625 0-7.5 3.359375-7.5 7.5 0 4.144532 3.359375 7.5 7.5 7.5h64.910156v41.777344h-64.910156c-4.140625 0-7.5 3.359375-7.5 7.5s3.359375 7.5 7.5 7.5h64.910156v41.777344h-64.910156c-4.140625 0-7.5 3.359375-7.5 7.5s3.359375 7.5 7.5 7.5h64.910156v41.777344h-64.910156c-4.140625 0-7.5 3.355468-7.5 7.5 0 4.140624 3.359375 7.5 7.5 7.5h64.910156v55.035156c0 4.140625 3.359375 7.5 7.5 7.5h55.039063v64.910156c0 4.140625 3.355469 7.5 7.5 7.5 4.140625 0 7.5-3.359375 7.5-7.5v-64.910156h41.773437v64.910156c0 4.140625 3.359375 7.5 7.5 7.5 4.144532 0 7.5-3.359375 7.5-7.5v-64.910156h41.777344v64.910156c0 4.140625 3.359375 7.5 7.5 7.5s7.5-3.359375 7.5-7.5v-64.910156h41.777344v64.910156c0 4.140625 3.359375 7.5 7.5 7.5s7.5-3.359375 7.5-7.5v-64.910156h41.777344v64.910156c0 4.140625 3.355468 7.5 7.5 7.5 4.140624 0 7.5-3.359375 7.5-7.5v-64.910156h55.035156c4.140625 0 7.5-3.359375 7.5-7.5v-55.035156h64.910156c4.140625 0 7.5-3.359376 7.5-7.5 0-4.144532-3.359375-7.5-7.5-7.5h-64.910156v-41.777344h64.910156c4.140625 0 7.5-3.359375 7.5-7.5s-3.359375-7.5-7.5-7.5h-64.910156v-41.777344h64.910156c4.140625 0 7.5-3.359375 7.5-7.5s-3.359375-7.5-7.5-7.5h-64.910156v-41.777344zm-79.910156 41.777344h-15.539063c-4.144531 0-7.5 3.359375-7.5 7.5s3.355469 7.5 7.5 7.5h15.539063v41.777344h-15.539063c-4.144531 0-7.5 3.359375-7.5 7.5s3.355469 7.5 7.5 7.5h15.539063v41.777344h-15.539063c-4.144531 0-7.5 3.355468-7.5 7.5 0 4.140624 3.355469 7.5 7.5 7.5h15.539063v47.535156h-47.535156v-15.539063c0-4.144531-3.359376-7.5-7.5-7.5-4.144532 0-7.5 3.355469-7.5 7.5v15.539063h-41.777344v-15.539063c0-4.144531-3.359375-7.5-7.5-7.5s-7.5 3.355469-7.5 7.5v15.539063h-41.777344v-15.539063c0-4.144531-3.359375-7.5-7.5-7.5s-7.5 3.355469-7.5 7.5v15.539063h-41.777344v-15.539063c0-4.144531-3.355468-7.5-7.5-7.5-4.140625 0-7.5 3.355469-7.5 7.5v15.539063h-41.773437v-15.539063c0-4.144531-3.359375-7.5-7.5-7.5-4.144531 0-7.5 3.355469-7.5 7.5v15.539063h-47.539063v-47.535156h15.539063c4.144531 0 7.5-3.359376 7.5-7.5 0-4.144532-3.355469-7.5-7.5-7.5h-15.539063v-41.777344h15.539063c4.144531 0 7.5-3.359375 7.5-7.5s-3.355469-7.5-7.5-7.5h-15.539063v-41.777344h15.539063c4.144531 0 7.5-3.359375 7.5-7.5s-3.355469-7.5-7.5-7.5h-15.539063v-41.777344h15.539063c4.144531 0 7.5-3.355468 7.5-7.5 0-4.140625-3.355469-7.5-7.5-7.5h-15.539063v-41.777344h15.539063c4.144531 0 7.5-3.355468 7.5-7.5 0-4.140624-3.355469-7.5-7.5-7.5h-15.539063v-47.535156h47.539063v15.539063c0 4.144531 3.355469 7.5 7.5 7.5 4.140625 0 7.5-3.355469 7.5-7.5v-15.539063h41.773437v15.539063c0 4.144531 3.359375 7.5 7.5 7.5 4.144532 0 7.5-3.355469 7.5-7.5v-15.539063h41.777344v15.539063c0 4.144531 3.359375 7.5 7.5 7.5s7.5-3.355469 7.5-7.5v-15.539063h41.777344v15.539063c0 4.144531 3.359375 7.5 7.5 7.5s7.5-3.355469 7.5-7.5v-15.539063h41.777344v15.539063c0 4.144531 3.355468 7.5 7.5 7.5 4.140624 0 7.5-3.355469 7.5-7.5v-15.539063h47.535156v47.535156h-15.539063c-4.144531 0-7.5 3.359376-7.5 7.5 0 4.144532 3.355469 7.5 7.5 7.5h15.539063v41.777344h-15.539063c-4.144531 0-7.5 3.359375-7.5 7.5 0 4.144532 3.355469 7.5 7.5 7.5h15.539063zm0 0"/></svg>