<?xml version="1.0" encoding="iso-8859-1"?>
<!-- Generator: Adobe Illustrator 19.0.0, SVG Export Plug-In . SVG Version: 6.00 Build 0)  -->
<svg version="1.1" id="Capa_1" xmlns="http://www.w3.org/2000/svg" xmlns:xlink="http://www.w3.org/1999/xlink" x="0px" y="0px"
	 viewBox="0 0 512.002 512.002" style="enable-background:new 0 0 512.002 512.002;" xml:space="preserve">
<g>
	<g>
		<path d="M212.731,295.59c-3.905-3.904-10.235-3.904-14.141,0c-10.436,10.438-27.415,10.436-37.851,0
			c-3.906-3.904-10.236-3.904-14.143,0c-3.905,3.905-3.905,10.237,0,14.143c9.117,9.116,21.093,13.675,33.068,13.675
			c11.975,0,23.95-4.559,33.067-13.675C216.637,305.828,216.637,299.496,212.731,295.59z"/>
	</g>
</g>
<g>
	<g>
		<path d="M365.404,295.59c-3.905-3.904-10.235-3.904-14.141,0c-10.435,10.435-27.414,10.437-37.851,0
			c-3.906-3.904-10.236-3.904-14.143,0c-3.905,3.905-3.905,10.237,0,14.143c9.117,9.116,21.093,13.675,33.067,13.675
			c11.976,0,23.951-4.559,33.068-13.675C369.31,305.828,369.31,299.496,365.404,295.59z"/>
	</g>
</g>
<g>
	<g>
		<path d="M469.011,286.667c-0.04-22.334-17.115-40.762-38.883-42.966V228c0-58.413-28.934-110.194-73.221-141.768
			C349.258,36.76,306.713,0,256.129,0C205.546,0,163,36.76,155.349,86.232c-44.287,31.574-73.22,83.355-73.22,141.768v15.681
			c-21.888,2.086-39.096,20.565-39.137,42.985l-0.046,25.33c-0.021,11.571,4.47,22.455,12.645,30.645
			c8.176,8.189,19.051,12.7,30.622,12.7h4.845c21.966,75.896,82.733,136.462,162.536,156.362c0.795,0.198,1.607,0.297,2.42,0.297
			c0.81,0,1.62-0.099,2.411-0.295l0.167-0.042c18.297-4.557,35.956-11.372,52.486-20.259c4.864-2.614,6.688-8.678,4.072-13.543
			c-2.614-4.864-8.675-6.687-13.543-4.072c-14.385,7.733-29.713,13.747-45.589,17.891c-90.734-23.777-153.89-105.436-153.89-199.45
			v-12.766l4.316-0.977c56.932-12.885,111.762-36.149,160.805-68.006c33.711,43.927,85.976,69.88,141.729,69.88h1.15v11.812
			c0,33.929-8.462,67.626-24.472,97.451c-2.612,4.866-0.785,10.929,4.081,13.54c1.505,0.809,3.124,1.191,4.721,1.191
			c3.565,0,7.016-1.911,8.819-5.272c7.469-13.914,13.424-28.6,17.822-43.741h4.691c11.571,0,22.446-4.511,30.622-12.7
			c8.175-8.189,12.665-19.073,12.645-30.646L469.011,286.667z M86.213,335.341L86.213,335.341c-6.223,0-12.07-2.426-16.467-6.829
			c-4.396-4.404-6.812-10.257-6.8-16.479l0.046-25.329c0.021-11.397,8.292-20.895,19.137-22.85v28.376
			c0,14.694,1.408,29.112,4.107,43.111H86.213z M256.129,20c34.348,0,64.073,21.084,76.189,51.592
			C309.294,60.332,283.439,54,256.129,54s-53.166,6.332-76.189,17.593C192.056,41.084,221.781,20,256.129,20z M410.129,256v4.36
			h-1.15c-49.121,0-95.2-22.677-125.158-61.127c6.923-4.909,13.722-9.987,20.372-15.245c4.332-3.426,5.067-9.715,1.643-14.047
			c-3.426-4.331-9.715-5.066-14.047-1.643c-55.309,43.731-120.89,75.079-189.659,90.659V256v-28
			c-0.001-84.916,69.083-154,153.999-154s154,69.084,154,154V256z M442.258,328.511c-4.362,4.369-10.152,6.788-16.32,6.825
			c2.762-14.194,4.191-28.659,4.191-43.165v-28.273c10.72,2.057,18.862,11.497,18.883,22.805l0.046,25.328
			C449.07,318.255,446.655,324.107,442.258,328.511z"/>
	</g>
</g>
<g>
	<g>
		<path d="M332.411,146.561c-3.68-4.118-10.002-4.475-14.12-0.794l-0.138,0.123c-4.118,3.681-4.474,10.002-0.794,14.12
			c1.976,2.211,4.712,3.337,7.461,3.337c2.371,0,4.752-0.839,6.659-2.543l0.138-0.123C335.735,157,336.091,150.679,332.411,146.561z
			"/>
	</g>
</g>
<g>
	<g>
		<path d="M435.471,469.198l-55.246-55.244l-21.245-55.543c-3.281-8.575-12.211-13.605-21.251-11.953
			c-37.702,6.885-67.658,36.841-74.536,74.512l-0.043,0.235c-1.604,8.783,3.219,17.64,11.469,21.057l54.514,22.583l44.228,44.228
			c1.953,1.952,4.512,2.929,7.071,2.929s5.118-0.977,7.071-2.929c3.905-3.905,3.905-10.237,0-14.143l-38.562-38.562l22.707-22.707
			l49.68,49.68c3.906,3.904,10.236,3.904,14.143,0C439.376,479.436,439.376,473.104,435.471,469.198z M332.452,444.571
			l-49.493-20.503c5.533-29.071,28.574-52.174,57.615-57.796l19.416,50.761L332.452,444.571z"/>
	</g>
</g>
<g>
	<g>
		<path d="M461.202,494.93c-1.86-1.861-4.44-2.93-7.07-2.93s-5.21,1.069-7.08,2.93c-1.86,1.86-2.92,4.44-2.92,7.07
			s1.06,5.21,2.92,7.069c1.87,1.86,4.45,2.931,7.08,2.931c2.63,0,5.21-1.07,7.07-2.931c1.859-1.859,2.93-4.439,2.93-7.069
			S463.062,496.79,461.202,494.93z"/>
	</g>
</g>
<g>
</g>
<g>
</g>
<g>
</g>
<g>
</g>
<g>
</g>
<g>
</g>
<g>
</g>
<g>
</g>
<g>
</g>
<g>
</g>
<g>
</g>
<g>
</g>
<g>
</g>
<g>
</g>
<g>
</g>
</svg>
