<svg height="480pt" viewBox="0 0 480 480" width="480pt" xmlns="http://www.w3.org/2000/svg"><path d="m328 344h-8c-2.121094 0-4.15625.84375-5.65625 2.34375l-74.34375 74.34375-74.34375-74.34375c-1.5-1.5-3.535156-2.34375-5.65625-2.34375l-8.800781.039062c-97.503907 9.753907-151.199219 55.160157-151.199219 127.960938 0 4.417969 3.582031 8 8 8s8-3.582031 8-8c0-71.585938 57.664062-99.113281 113.503906-108.902344l-8.664062 17.328125c-1.976563 3.953125-.371094 8.761719 3.585937 10.734375l27.574219 13.785156v27.054688c0 3.535156 2.320312 6.648438 5.703125 7.664062l74.296875 22.289063v10.046875c0 4.417969 3.582031 8 8 8s8-3.582031 8-8v-10.046875l74.296875-22.289063c3.382813-1.015624 5.703125-4.128906 5.703125-7.664062v-27.054688l27.574219-13.746093c3.957031-1.972657 5.5625-6.78125 3.585937-10.734375l-8.632812-17.265625c56.191406 9.871093 113.472656 37.464843 113.472656 108.800781 0 4.417969 3.582031 8 8 8s8-3.582031 8-8c0-72.800781-53.695312-118.207031-152-128zm-160 82.046875v-26.046875c.015625-3.046875-1.699219-5.839844-4.425781-7.199219l-24.839844-12.417969 10.019531-20c1.078125-.117187 2.175782-.277343 3.246094-.382812h4.6875l75.3125 75.3125v9.933594zm173.265625-45.597656-24.839844 12.414062c-2.707031 1.351563-4.417969 4.113281-4.425781 7.136719v26.046875l-64 19.199219v-9.933594l75.335938-75.3125h3.863281c1.34375.136719 2.722656.328125 4.074219.480469zm0 0"/><path d="m91.078125 278.3125c29.671875 21.855469 64.386719 35.847656 100.921875 40.671875v25.015625c0 4.417969 3.582031 8 8 8s8-3.582031 8-8v-24.503906c9.960938 5.023437 20.859375 7.921875 32 8.503906 11.140625-.582031 22.039062-3.480469 32-8.503906v24.503906c0 4.417969 3.582031 8 8 8s8-3.582031 8-8v-25.015625c36.539062-4.824219 71.257812-18.820313 100.929688-40.679687 18.949218-14.808594 13.167968-71.449219-18.761719-183.617188-.726563-2.574219-1.3125-4.617188-1.753907-6.191406l15.019532-37.527344c1.480468-3.699219.019531-7.925781-3.433594-9.914062-59.65625-34.070313-99.113281-41.054688-140-41.054688s-80.34375 6.984375-140 41.054688c-3.464844 1.980468-4.941406 6.207031-3.464844 9.914062l15.015625 37.527344c-.4375 1.601562-1.023437 3.617187-1.75 6.191406-31.898437 112.167969-37.679687 168.808594-18.722656 183.625zm60.921875-54.3125v-42.742188c44.152344-7.472656 86.828125-21.960937 126.398438-42.921874 9.265624 10.398437 30.144531 32.230468 49.601562 41.40625v44.257812c0 47.265625-59.023438 88-88 88s-88-40.734375-88-88zm-32-24c0-8.835938 7.164062-16 16-16v32c-8.835938 0-16-7.164062-16-16zm224-16c8.835938 0 16 7.164062 16 16s-7.164062 16-16 16zm-104-168c36.953125 0 72.800781 6.160156 125.96875 35.535156l-25.96875 64.847656c-31.929688-16.566406-81.945312-20.382812-100-20.382812s-68.070312 3.816406-100 20.382812l-25.96875-64.847656c53.167969-29.375 89.015625-35.535156 125.96875-35.535156zm-111.433594 114.96875c.898438 2.25 2.769532 3.972656 5.085938 4.683594 2.316406.710937 4.832031.332031 6.835937-1.027344 24.359375-16.480469 73.96875-22.625 99.511719-22.625s75.152344 6.144531 99.511719 22.625c2.003906 1.359375 4.519531 1.738281 6.835937 1.027344 2.316406-.710938 4.1875-2.433594 5.085938-4.683594l7.199218-18.066406c35.445313 128.511718 24.703126 149.441406 20.421876 152.800781-22.867188 16.71875-48.976563 28.472656-76.65625 34.511719 20.800781-17.085938 38.105468-40.894532 41.015624-68.214844h.585938c17.671875 0 32-14.328125 32-32s-14.328125-32-32-32c-14.726562 0-43.304688-27.679688-57.855469-45.128906-2.617187-3.136719-7.175781-3.796875-10.578125-1.535156-.460937.3125-48 31.296874-140.886718 46.777343-17.640626.363281-31.648438 14.960938-31.285157 32.601563.367188 17.644531 14.964844 31.648437 32.605469 31.285156h.574219c2.914062 27.320312 20.195312 51.128906 41.019531 68.214844-27.679688-6.042969-53.792969-17.800782-76.664062-34.519532-4.289063-3.351562-15.035157-24.28125 20.414062-152.800781zm0 0"/><path d="m258.992188 257.769531c-11.3125 8.261719-26.671876 8.261719-37.984376 0-2.214843-1.914062-5.296874-2.46875-8.035156-1.441406-2.742187 1.027344-4.703125 3.46875-5.117187 6.363281-.410157 2.898438.792969 5.789063 3.136719 7.539063 17.125 13.089843 40.890624 13.089843 58.015624 0 2.34375-1.75 3.546876-4.640625 3.136719-7.539063-.414062-2.894531-2.375-5.335937-5.117187-6.363281-2.738282-1.027344-5.820313-.472656-8.035156 1.441406zm0 0"/><path d="m304 200c0 8.835938-7.164062 16-16 16s-16-7.164062-16-16 7.164062-16 16-16 16 7.164062 16 16zm0 0"/><path d="m208 200c0 8.835938-7.164062 16-16 16s-16-7.164062-16-16 7.164062-16 16-16 16 7.164062 16 16zm0 0"/><path d="m224 64h8v8c0 4.417969 3.582031 8 8 8s8-3.582031 8-8v-8h8c4.417969 0 8-3.582031 8-8s-3.582031-8-8-8h-8v-8c0-4.417969-3.582031-8-8-8s-8 3.582031-8 8v8h-8c-4.417969 0-8 3.582031-8 8s3.582031 8 8 8zm0 0"/></svg>