<svg id="Capa_1" enable-background="new 0 0 512 512" height="512" viewBox="0 0 512 512" width="512" xmlns="http://www.w3.org/2000/svg"><g><path d="m484.936 147.78h-22.201v-22.211c0-14.926-12.141-27.069-27.063-27.069h-408.608c-14.923 0-27.064 12.144-27.064 27.069v211.609c0 14.926 12.141 27.069 27.064 27.069h22.173v22.211c0 14.91 12.141 27.041 27.063 27.041h233.599c5.522 0 10-4.478 10-10s-4.478-10-10-10h-233.598c-3.829 0-7.063-3.225-7.063-7.041v-22.211h366.434c14.923 0 27.063-12.144 27.063-27.069v-169.398h22.201c3.896 0 7.064 3.158 7.064 7.041v211.638c0 3.816-3.235 7.041-7.064 7.041h-85.208c-5.522 0-10 4.478-10 10s4.478 10 10 10h85.208c14.924 0 27.064-12.131 27.064-27.041v-211.638c0-14.91-12.141-27.041-27.064-27.041zm-42.202 189.399c0 3.832-3.234 7.069-7.063 7.069h-204.976v-22.068c0-5.522-4.478-10-10-10s-10 4.478-10 10v22.068h-183.631c-3.829 0-7.064-3.237-7.064-7.069v-211.61c0-3.832 3.235-7.069 7.064-7.069h183.631v22.041c0 5.522 4.478 10 10 10s10-4.478 10-10v-22.041h204.976c3.829 0 7.063 3.237 7.063 7.069z"/><path d="m188.285 237.117-62.952-51.98v-23.955c0-5.522-4.478-10-10-10s-10 4.478-10 10v23.955l-62.925 51.98c-4.258 3.518-4.857 9.82-1.341 14.079 1.978 2.394 4.836 3.631 7.716 3.631 2.242 0 4.499-.75 6.363-2.29l50.187-41.458v56.024l-24.982 27.742c-3.696 4.104-3.365 10.427.739 14.122 4.104 3.696 10.426 3.366 14.122-.739l20.125-22.347 20.149 22.351c1.975 2.19 4.697 3.305 7.431 3.305 2.387 0 4.781-.849 6.692-2.572 4.103-3.698 4.43-10.021.732-14.123l-25.008-27.742v-56.026l50.218 41.465c4.26 3.517 10.562 2.914 14.078-1.344 3.517-4.258 2.915-10.561-1.344-14.078z"/><path d="m220.695 240.953c-5.522 0-10 4.478-10 10v32.04c0 5.522 4.478 10 10 10s10-4.478 10-10v-32.04c0-5.522-4.477-10-10-10z"/><path d="m220.695 169.727c-5.522 0-10 4.478-10 10v32.04c0 5.522 4.478 10 10 10s10-4.478 10-10v-32.04c0-5.523-4.477-10-10-10z"/><path d="m406.531 253.429h-67.69c-5.522 0-10 4.478-10 10s4.478 10 10 10h67.69c5.522 0 10-4.478 10-10s-4.477-10-10-10z"/><path d="m266.899 273.429h21.968c5.522 0 10-4.478 10-10s-4.478-10-10-10h-21.968c-5.522 0-10 4.478-10 10s4.478 10 10 10z"/><path d="m406.531 297.605h-27.042c-5.522 0-10 4.478-10 10s4.478 10 10 10h27.042c5.522 0 10-4.478 10-10s-4.477-10-10-10z"/><path d="m339.465 297.605h-72.565c-5.522 0-10 4.478-10 10s4.478 10 10 10h72.565c5.522 0 10-4.478 10-10s-4.478-10-10-10z"/><path d="m274.07 225.736h59.555c8.656 0 15.698-7.043 15.698-15.699v-49.194c0-8.656-7.042-15.699-15.698-15.699h-59.555c-8.655 0-15.697 7.043-15.697 15.699v49.194c0 8.656 7.042 15.699 15.697 15.699zm4.303-60.592h50.95v40.593h-50.95z"/><path d="m354.828 393.5c-5.522 0-10 4.478-10 10s4.478 10 10 10h.028c5.522 0 9.986-4.478 9.986-10s-4.491-10-10.014-10z"/></g></svg>