<svg id="Capa_1" enable-background="new 0 0 512 512" height="512" viewBox="0 0 512 512" width="512" xmlns="http://www.w3.org/2000/svg"><g><path d="m511.495 265.822c-1.906-10.973-9.053-20.367-19.113-25.125l-15.051-7.133-6.077-15c-9.499-23.507-32.025-38.696-57.387-38.696h-89.75l-49.787-47.592c-3.036-2.902-7.85-2.794-10.751.242-2.902 3.036-2.794 7.849.242 10.751l38.287 36.599h-59.418l-55.76-80.816h30.623l22.301 21.314c3.036 2.902 7.849 2.793 10.751-.243s2.793-7.849-.243-10.751l-24.505-23.421c-1.415-1.352-3.297-2.107-5.254-2.107h-87.437c-2.807 0-5.387 1.547-6.709 4.024s-1.171 5.481.392 7.813l56.418 84.187h-7.23c-15.368 0-29.45-8.39-36.753-21.899l-42.615-78.738c-1.329-2.455-3.896-3.985-6.688-3.985h-62.773c-2.163 0-4.223.921-5.666 2.533s-2.13 3.761-1.892 5.911l10.684 96.178h-22.73c-4.2 0-7.604 3.404-7.604 7.604v32.238c0 1.707.574 3.364 1.63 4.705 13.548 17.204 30.011 31.536 48.934 42.6 18.915 11.051 39.484 18.36 61.136 21.725l51.811 8.052-68.089 96.758c-1.634 2.322-1.839 5.36-.531 7.879s3.91 4.101 6.749 4.101h91.81c1.893 0 3.718-.706 5.118-1.98l32.743-29.8h65.903c17.381 0 30.996-19.831 30.996-45.147 0-2.121-.099-4.214-.289-6.27l63.213 9.823c6.561 1.018 13.213 1.533 19.771 1.533 34.388 0 66.723-13.397 91.051-37.725 7.882-7.889 11.447-19.157 9.539-30.142zm-56.296-45.77c.713 1.363 1.371 2.766 1.957 4.216l3.854 9.513c-6.525 1.242-15.983 2.461-24.811 1.445-4.811-.553-5.403-4.568-5.469-5.786-.065-1.192.082-5.162 4.707-6.215 6.223-1.416 12.862-2.467 19.762-3.173zm-307.784-121h21.038l55.76 80.816h-22.639zm-99.053-8.598 19.329 77.013c.753 3.001.094 6.122-1.809 8.562s-4.769 3.839-7.863 3.839h-12.383l-9.932-89.414zm149.036 184.608h30.245l-95.687 115.259h-15.666zm-6.89 115.259h-38.787l95.687-115.259h69.743zm76.858-49.386c1.249 6.642 3.488 12.623 6.485 17.605h-25.829zm29.849 17.605c-7.461 0-15.775-12.295-15.775-29.939 0-.157.007-.323.009-.482l25.221-22.953c3.536 5.171 6.334 13.293 6.334 23.435-.001 17.644-8.322 29.939-15.789 29.939zm193.985-73.328c-21.454 21.453-49.969 33.268-80.295 33.268-5.78 0-11.647-.455-17.437-1.353l-69.179-10.751c-1.643-4.317-3.764-8.209-6.3-11.514l23.933-21.781c2.323-2.114 3.106-5.438 1.973-8.368-1.133-2.929-3.951-4.86-7.092-4.86h-143.352c-2.475 0-4.795 1.204-6.218 3.228l-13.958 19.835-59.238-9.206c-19.763-3.071-38.537-9.742-55.798-19.827-16.519-9.658-30.983-22.044-43.03-36.843v-21.965h23.621 19.188c7.813 0 15.05-3.533 19.855-9.693 4.806-6.16 6.471-14.04 4.569-21.617l-18.4-73.311h21.409l40.455 74.75c9.961 18.426 29.17 29.872 50.13 29.872h237.83c11.368 0 21.98 4.045 30.224 11.049-4.126.633-8.147 1.388-12.03 2.272-10.301 2.345-17.093 11.34-16.517 21.874.58 10.599 8.359 18.849 18.917 20.064 2.903.334 5.829.475 8.708.475 11.651-.001 22.486-2.318 27.5-3.573l15.205 7.205c5.684 2.688 9.561 7.785 10.637 13.983 1.08 6.21-.857 12.33-5.31 16.787z"/><circle cx="340.705" cy="229.325" r="7.604"/><circle cx="368.151" cy="229.325" r="7.604"/><circle cx="313.259" cy="229.325" r="7.604"/><path d="m285.804 221.721c-4.197 0-7.594 3.407-7.594 7.604s3.397 7.604 7.594 7.604c4.208 0 7.614-3.407 7.614-7.604s-3.406-7.604-7.614-7.604z"/><circle cx="258.358" cy="229.325" r="7.604"/><circle cx="230.913" cy="229.325" r="7.604"/><circle cx="203.467" cy="229.325" r="7.604"/><circle cx="176.022" cy="229.325" r="7.604"/><circle cx="148.576" cy="229.325" r="7.604"/><path d="m121.12 221.721c-4.198 0-7.594 3.407-7.594 7.604s3.397 7.604 7.594 7.604c4.207 0 7.604-3.407 7.604-7.604s-3.396-7.604-7.604-7.604z"/><circle cx="93.674" cy="229.325" r="7.604"/><path d="m446.985 374.943c-4.27-15.975-18.955-27.69-36.012-27.69-17.058 0-31.742 11.715-36.012 27.69-15.626 2.039-27.732 15.438-27.732 31.611 0 17.578 14.301 31.879 31.88 31.879h63.73c17.578 0 31.879-14.301 31.879-31.879-.001-16.173-12.108-29.572-27.733-31.611zm-4.147 48.282h-63.73c-9.193 0-16.672-7.479-16.672-16.671s7.479-16.671 16.672-16.671h2.289c3.979 0 7.285-3.068 7.583-7.035.857-11.432 10.518-20.386 21.993-20.386s21.136 8.955 21.993 20.386c.298 3.968 3.604 7.035 7.583 7.035h2.289c9.192 0 16.671 7.479 16.671 16.671s-7.479 16.671-16.671 16.671z"/><path d="m108.204 431.284c-4.381-16.944-19.89-29.407-37.92-29.407-9.951 0-19.43 3.733-26.687 10.506-5.527 5.149-9.394 11.701-11.239 18.905-16.537 1.997-29.395 16.113-29.395 33.176 0 8.929 3.477 17.323 9.791 23.637 6.314 6.313 14.709 9.79 23.637 9.79h51.15c4.2 0 7.604-3.405 7.604-7.604s-3.405-7.604-7.604-7.604h-51.15c-4.866 0-9.442-1.895-12.883-5.336s-5.336-8.017-5.336-12.883c0-10.041 8.173-18.209 18.22-18.209h2.433c3.976 0 7.281-3.064 7.582-7.029.456-6.019 3.141-11.6 7.562-15.719 4.437-4.141 10.231-6.421 16.316-6.421 12.456 0 22.945 9.723 23.878 22.135.299 3.967 3.604 7.034 7.583 7.034h2.433c4.866 0 9.442 1.895 12.889 5.343 3.438 3.43 5.331 7.999 5.331 12.867 0 5.699-2.591 10.959-7.108 14.431-3.33 2.559-3.955 7.333-1.396 10.663s7.333 3.954 10.663 1.396c8.293-6.373 13.049-16.028 13.049-26.489 0-8.936-3.479-17.329-9.791-23.627-5.356-5.358-12.207-8.672-19.612-9.555z"/><path d="m296.275 87.998h49.225c14.531 0 26.354-11.822 26.354-26.354 0-12.977-9.429-23.794-21.795-25.96-3.86-12.516-15.598-21.575-29.172-21.575-13.573 0-25.311 9.059-29.172 21.575-12.366 2.166-21.795 12.983-21.795 25.96.001 14.532 11.824 26.354 26.355 26.354zm0-37.5h1.768c3.979 0 7.285-3.068 7.583-7.035.595-7.932 7.299-14.145 15.262-14.145s14.667 6.213 15.262 14.145c.298 3.968 3.604 7.035 7.583 7.035h1.768c6.146 0 11.146 5 11.146 11.146s-5 11.146-11.146 11.146h-49.225c-6.146 0-11.146-5-11.146-11.146-.001-6.146 4.999-11.146 11.145-11.146z"/></g></svg>