<svg id="Capa_1" enable-background="new 0 0 512 512" height="512" viewBox="0 0 512 512" width="512" xmlns="http://www.w3.org/2000/svg"><g><path d="m447.854 345.679c-1.807-7.61-5.625-14.53-11.004-20.106 6.991-4.239 13.522-9.347 19.452-15.278 6.542-6.547 9.5-15.9 7.917-25.017-1.582-9.107-7.515-16.904-15.863-20.854l-11.179-5.298-4.506-11.123c-7.679-19.003-25.89-31.283-46.393-31.283h-69.486l-33.525-32.04c-3.035-2.902-7.849-2.792-10.751.243-2.902 3.036-2.793 7.849.244 10.751l22.021 21.046h-41.423l-41.287-59.839h20.098l16.633 15.899c3.036 2.901 7.849 2.793 10.752-.243 2.902-3.036 2.793-7.849-.243-10.751l-18.838-18.006c-1.415-1.352-3.297-2.107-5.255-2.107h-68.335c-2.808 0-5.387 1.547-6.709 4.024s-1.17 5.481.392 7.813l42.365 63.209h-2.542c-11.4 0-21.847-6.224-27.266-16.246l-33.306-61.541c-1.329-2.455-3.895-3.985-6.687-3.985h-49.064c-2.162 0-4.224.921-5.666 2.533s-2.13 3.761-1.891 5.911l8.146 73.329h-15.912c-4.2 0-7.604 3.404-7.604 7.604v25.197c0 1.707.574 3.364 1.63 4.704 10.718 13.61 23.743 24.949 38.714 33.702 14.963 8.742 31.237 14.525 48.367 17.187l37.853 5.882-33.387 47.454c-9.371-5.253-20.126-8.256-31.495-8.256-16.467 0-32.165 6.181-44.199 17.403-10.239 9.548-17.034 21.981-19.549 35.557-28.975 1.191-52.178 25.136-52.178 54.398 0 14.545 5.662 28.218 15.945 38.499 3.383 3.384 7.189 6.306 11.311 8.683 3.638 2.097 8.287.85 10.386-2.788 2.098-3.638.85-8.288-2.788-10.386-2.968-1.712-5.712-3.819-8.156-6.262-7.409-7.409-11.49-17.263-11.49-27.746 0-21.635 17.601-39.237 39.237-39.237h4.41c3.979 0 7.286-3.069 7.583-7.037.93-12.446 6.492-24.01 15.661-32.559 9.209-8.588 21.222-13.317 33.827-13.317 25.82 0 47.558 20.152 49.489 45.879.297 3.968 3.603 7.035 7.582 7.035h4.421c10.482 0 20.336 4.081 27.747 11.491 7.409 7.409 11.49 17.263 11.49 27.746 0 21.635-17.601 39.237-39.237 39.237h-113.748c-4.2 0-7.604 3.404-7.604 7.604s3.404 7.604 7.604 7.604h113.746c30.021 0 54.445-24.424 54.445-54.445 0-14.545-5.662-28.218-15.946-38.5-9.75-9.75-22.549-15.346-36.249-15.899-.428-2.293-.992-4.536-1.655-6.736h29.089c1.893 0 3.718-.706 5.118-1.98l25.12-22.861h50.868c14.516 0 25.887-16.229 25.887-36.948 0-.988-.033-1.967-.085-2.94l44.445 6.907c-.983 2.285-1.773 4.651-2.349 7.083-18.687 1.883-33.322 17.709-33.322 36.889 0 9.903 3.855 19.212 10.855 26.212s16.309 10.855 26.212 10.855h77.368c20.439 0 37.067-16.628 37.067-37.067 0-9.909-3.855-19.221-10.855-26.222-6.11-6.108-13.981-9.822-22.47-10.667zm-30.249-94.13c.342.706.67 1.423.968 2.159l2.244 5.539c-4.803.801-11.045 1.426-16.894.753-2.316-.266-2.752-1.971-2.806-2.963-.064-1.173.298-2.672 2.389-3.148 4.455-1.015 9.182-1.797 14.099-2.34zm-236.472-94.667h12.461l41.287 59.839h-13.643zm-81.828-6.726 14.791 58.937c.463 1.846.057 3.765-1.113 5.266s-2.933 2.361-4.837 2.361h-8.191l-7.394-66.564zm118.638 144.29h19.245l-65.167 78.497c-1.685-1.962-3.485-3.822-5.387-5.57zm-6.889 86.766h-26.132l72.033-86.766h49.44zm59.71-33.778c.81 3.224 1.925 6.22 3.289 8.936h-13.109zm24.338 8.937c-4.885 0-10.548-9.316-10.659-21.385l17.701-16.109c2.091 3.772 3.637 9.17 3.637 15.754.001 12.243-5.74 21.74-10.679 21.74zm18.452-47.878 17.612-16.028c2.323-2.114 3.107-5.438 1.974-8.368-1.134-2.929-3.952-4.86-7.092-4.86h-112.052c-2.475 0-4.795 1.204-6.219 3.228l-10.313 14.658-45.279-7.036c-15.24-2.368-29.717-7.513-43.028-15.289-12.567-7.348-23.594-16.746-32.809-27.955v-14.914h16.802 14.997c6.622 0 12.756-2.995 16.829-8.216 4.072-5.221 5.483-11.899 3.871-18.321l-13.862-55.235h13.614l31.148 57.554c8.076 14.939 23.65 24.219 40.642 24.219h185.889c7.166 0 13.927 2.157 19.563 5.977-1.936.351-3.847.73-5.71 1.154-8.857 2.016-14.695 9.749-14.2 18.807.499 9.108 7.182 16.198 16.254 17.241 2.326.268 4.669.381 6.974.381 8.86 0 17.116-1.675 21.337-2.699l11.353 5.38c3.947 1.867 6.64 5.407 7.387 9.711.75 4.315-.596 8.567-3.689 11.663-16.454 16.454-38.324 25.516-61.584 25.516-4.432 0-8.932-.35-13.374-1.038l-53.13-8.257c-1.08-2.653-2.392-5.092-3.905-7.273zm130.558 95.936h-77.368c-5.841 0-11.331-2.273-15.458-6.401-4.128-4.128-6.401-9.617-6.401-15.458 0-12.059 9.806-21.869 21.859-21.869h2.778c3.979 0 7.285-3.067 7.582-7.035.364-4.852 1.957-9.431 4.608-13.443.75.017 1.502.044 2.249.044 13.32 0 26.25-2.537 38.246-7.37 6.673 4.876 10.915 12.412 11.543 20.769.298 3.967 3.604 7.034 7.582 7.034h2.778c5.841 0 11.331 2.273 15.458 6.401 4.128 4.128 6.401 9.621 6.401 15.468.002 12.055-9.804 21.86-21.857 21.86z"/><circle cx="270.094" cy="257.032" r="7.604"/><circle cx="296.911" cy="257.032" r="7.604"/><circle cx="216.461" cy="257.032" r="7.604"/><circle cx="323.728" cy="257.032" r="7.604"/><circle cx="350.545" cy="257.032" r="7.604"/><circle cx="162.837" cy="257.032" r="7.604"/><circle cx="189.654" cy="257.032" r="7.604"/><path d="m243.278 249.428c-4.198 0-7.594 3.406-7.594 7.604 0 4.197 3.396 7.604 7.594 7.604 4.207 0 7.604-3.407 7.604-7.604s-3.397-7.604-7.604-7.604z"/><path d="m490.132 64.14c-9.063-9.051-20.918-14.288-33.613-14.906-5.46-28.113-30.434-49.234-59.683-49.234-15.435 0-30.149 5.795-41.43 16.316-9.497 8.85-15.834 20.348-18.252 32.919-27.012 1.333-48.579 23.729-48.579 51.066 0 13.649 5.316 26.489 14.975 36.161 9.663 9.652 22.503 14.968 36.154 14.968h43.206l-2.916 44.742c-.222 3.415 1.863 6.557 5.097 7.679.818.284 1.658.421 2.49.421 2.452 0 4.817-1.189 6.265-3.295l34.085-49.546h26.044c28.192 0 51.129-22.936 51.129-51.129.002-13.663-5.315-26.504-14.972-36.162zm-93.166 105.471 1.649-25.293c.137-2.098-.602-4.159-2.04-5.694-1.438-1.534-3.446-2.405-5.549-2.405h-8.097l7.667-50.85h38.834l-23.518 39.411c-1.402 2.35-1.434 5.272-.083 7.651s3.876 3.85 6.613 3.85h7.454zm57.011-33.389h-15.582l2.226-3.236c1.601-2.327 1.78-5.349.466-7.849-1.315-2.5-3.907-4.065-6.731-4.065h-8.521l23.518-39.411c1.402-2.35 1.434-5.272.083-7.651-1.352-2.379-3.876-3.85-6.613-3.85h-58.771c-3.761 0-6.958 2.751-7.519 6.47l-8.985 59.591h-27.845c-9.591 0-18.614-3.736-25.4-10.513-6.784-6.794-10.521-15.817-10.521-25.408 0-19.807 16.114-35.921 35.921-35.921h4.106c3.98 0 7.287-3.07 7.583-7.039.852-11.435 5.959-22.053 14.382-29.901 8.457-7.888 19.488-12.232 31.06-12.232 23.71 0 43.675 18.51 45.453 42.138.298 3.967 3.604 7.034 7.582 7.034h4.106c9.591 0 18.615 3.736 25.404 10.517 6.782 6.782 10.517 15.804 10.517 25.404.002 19.808-16.112 35.922-35.919 35.922z"/><circle cx="136.021" cy="257.032" r="7.604"/></g></svg>