<svg id="Capa_1" enable-background="new 0 0 512 512" height="512" viewBox="0 0 512 512" width="512" xmlns="http://www.w3.org/2000/svg"><g><path d="m77.153 226.664-16.009 12.277c-1.6 1.227-2.647 3.04-2.911 5.039s.278 4.021 1.505 5.621l18.015 23.489c1.039 1.354 2.502 2.319 4.155 2.741 13.017 3.318 26.256 4.981 39.562 4.981 6.7 0 13.419-.422 20.131-1.267 20.026-2.532 39.172-8.725 56.909-18.409l41.368-22.608 4.418 107.553c.116 2.836 1.803 5.371 4.374 6.574 1.028.481 2.128.717 3.222.717 1.644 0 3.276-.533 4.628-1.57l66.894-51.305c1.502-1.152 2.52-2.823 2.856-4.686l7.162-39.774 47.828-36.682c12.94-9.925 11.829-32.365-2.53-51.087-1.033-1.347-2.116-2.625-3.227-3.857l50.861-27.797c.044-.024.093-.051.136-.076l.427-.238c3.646-2.084 4.911-6.729 2.827-10.374-2.084-3.646-6.731-4.911-10.374-2.827l-56.405 30.83c-3.384-2.055-6.863-3.623-10.325-4.612l5.163-28.675c.556-3.091-.844-6.206-3.526-7.84-2.681-1.635-6.092-1.452-8.584.459l-104.449 80.108c-1.963 1.506-3.071 3.873-2.97 6.345l.898 21.864-47.962 26.212c-16.058 8.768-33.394 14.376-51.522 16.668-17.276 2.176-34.59 1.253-51.504-2.741l-11.762-15.337 16.716-12.82c.001 0 .001-.001.002-.001l.002.002 13.981-10.722c5.845-4.483 9.232-11.28 9.293-18.646.06-7.366-3.215-14.217-8.986-18.795l-53.75-42.639 14.676-11.254 70.91 31.705c17.761 7.951 38.396 5.53 53.851-6.321l173.28-132.904c7.779-5.969 17.09-8.916 26.414-8.755-2.309 2.449-4.506 4.919-6.568 7.404-6.392 7.702-6.311 18.38.196 25.968 4.02 4.687 9.569 7.144 15.254 7.143 3.573 0 7.199-.97 10.532-2.967 11.553-6.921 20.876-17.699 24.677-22.462l14.893-3.198c5.442-1.175 10.914.316 15.011 4.089 4.106 3.783 6.043 9.128 5.316 14.661-2.923 22.129-12.649 42.317-28.127 58.381-2.914 3.024-2.824 7.837.2 10.751 3.023 2.914 7.837 2.823 10.75-.2 17.748-18.42 28.9-41.568 32.253-66.945 1.361-10.354-2.411-20.759-10.09-27.832-7.669-7.065-18.33-9.969-28.515-7.771l-14.714 3.16-12.604-7.405c-20.281-11.955-45.455-10.418-64.133 3.912l-65.195 50.003-123.83-13.492c-1.951-.213-3.898.335-5.451 1.525l-63.707 48.861c-2.228 1.708-3.332 4.505-2.874 7.275.459 2.77 2.406 5.061 5.065 5.961l87.054 29.439-4.344 3.332c-11.015 8.447-25.724 10.174-38.386 4.506l-75.049-33.556c-2.55-1.139-5.515-.791-7.73.908l-45.741 35.076c-1.716 1.316-2.791 3.301-2.955 5.457s.598 4.281 2.096 5.841zm264.062-13.847c4.127 3.555 8.51 6.313 12.915 8.181l-16.694 12.803zm25.448-35.294c9.359 12.203 10.54 25.78 5.342 29.766-5.191 3.983-17.994-.68-27.355-12.885-.032-.042-.064-.088-.097-.131l5.374-29.846c5.217 1.88 11.372 6.101 16.736 13.096zm-54.837 112.697-27.02 20.724 5.248-135.838 49.311-37.819zm-37.456-103.087-5.248 135.838-10.234 7.849-5.25-127.787zm130.05-147.4c-3.399 2.036-5.78-.275-6.428-1.031-.812-.947-2.441-3.461-.037-6.358 3.644-4.391 7.757-8.754 12.251-13.014 1.139.542 2.264 1.131 3.367 1.781l7.474 4.392c-4.015 4.441-9.94 10.224-16.627 14.23zm-234.908 24.144 104.983 11.439-41.801 32.061-84.355-27.261zm-49.982 38.334 14.149-10.852 84.355 27.261-15.294 11.73zm-78.283 50.089 56.74 45.011c2.075 1.646 3.253 4.109 3.231 6.757-.022 2.649-1.239 5.092-3.341 6.704l-8.582 6.582-56.336-58.7z"/><path d="m146.497 221.992c-1.42 1.419-2.23 3.376-2.23 5.383 0 1.997.811 3.954 2.23 5.373 1.409 1.409 3.376 2.23 5.373 2.23 2.007 0 3.964-.821 5.383-2.23 1.409-1.419 2.22-3.376 2.22-5.373 0-2.007-.811-3.964-2.22-5.383-1.419-1.409-3.376-2.22-5.383-2.22-1.997 0-3.964.811-5.373 2.22z"/><path d="m325.01 85.003c-3.325 2.555-3.964 7.319-1.409 10.655 1.5 1.956 3.761 2.98 6.042 2.98 1.612 0 3.244-.517 4.623-1.571 3.335-2.555 3.964-7.329 1.409-10.665-2.555-3.326-7.33-3.954-10.665-1.399z"/><path d="m302.788 102.044c-3.325 2.555-3.954 7.329-1.399 10.655 1.49 1.957 3.751 2.981 6.032 2.981 1.612 0 3.244-.517 4.623-1.571 3.335-2.555 3.964-7.329 1.409-10.655-2.554-3.336-7.329-3.965-10.665-1.41z"/><path d="m236.134 153.168c-3.335 2.555-3.964 7.329-1.409 10.665 1.5 1.946 3.751 2.97 6.042 2.97 1.612 0 3.234-.507 4.613-1.571 3.335-2.555 3.963-7.319 1.409-10.655-2.556-3.335-7.33-3.964-10.655-1.409z"/><path d="m213.912 170.209c-3.335 2.555-3.964 7.329-1.409 10.665 1.5 1.947 3.751 2.97 6.042 2.97 1.612 0 3.234-.507 4.612-1.571 3.335-2.555 3.964-7.319 1.409-10.655s-7.329-3.964-10.654-1.409z"/><path d="m191.691 187.251c-3.335 2.555-3.964 7.329-1.409 10.665 1.5 1.946 3.751 2.97 6.042 2.97 1.612 0 3.234-.507 4.623-1.561 3.325-2.565 3.954-7.33 1.399-10.665-2.556-3.335-7.331-3.964-10.655-1.409z"/><path d="m280.567 119.085c-3.325 2.555-3.954 7.329-1.399 10.655 1.49 1.956 3.751 2.98 6.032 2.98 1.622 0 3.244-.517 4.623-1.571 3.335-2.555 3.964-7.33 1.409-10.655-2.555-3.335-7.33-3.963-10.665-1.409z"/><path d="m169.468 204.292c-3.335 2.555-3.963 7.329-1.409 10.665 1.5 1.946 3.761 2.98 6.042 2.98 1.612 0 3.244-.517 4.623-1.571 3.335-2.565 3.954-7.329 1.409-10.665-2.564-3.335-7.329-3.964-10.665-1.409z"/><path d="m258.345 136.127c-3.325 2.555-3.954 7.329-1.399 10.665 1.49 1.946 3.751 2.97 6.032 2.97 1.622 0 3.244-.507 4.623-1.571 3.335-2.555 3.963-7.329 1.409-10.655-2.555-3.336-7.33-3.964-10.665-1.409z"/><path d="m408.065 475.194c4.199 0 7.603-3.404 7.603-7.603s-3.404-7.603-7.603-7.603h-60.826c-4.199 0-7.603 3.404-7.603 7.603s3.404 7.603 7.603 7.603z"/><path d="m96.333 467.591c0 4.199 3.404 7.603 7.603 7.603h60.826c4.199 0 7.603-3.404 7.603-7.603s-3.404-7.603-7.603-7.603h-60.826c-4.199 0-7.603 3.404-7.603 7.603z"/><path d="m286.413 475.194c4.199 0 7.603-3.404 7.603-7.603s-3.404-7.603-7.603-7.603h-60.826c-4.199 0-7.603 3.404-7.603 7.603s3.404 7.603 7.603 7.603z"/><path d="m511.975 430.785c0-4.199-3.404-7.603-7.603-7.603h-94.009v-13.972c0-16.089-13.09-29.179-29.179-29.179s-29.179 13.09-29.179 29.179v13.972h-106.156v-13.972c0-16.089-13.09-29.179-29.179-29.179s-29.179 13.09-29.179 29.179v13.972h-51.754c-4.199 0-7.603 3.404-7.603 7.603s3.404 7.603 7.603 7.603h361.032v21.6h-27.879c-4.199 0-7.603 3.404-7.603 7.603s3.404 7.603 7.603 7.603h27.878v21.6h-481.536v-21.6h27.879c4.199 0 7.603-3.404 7.603-7.603s-3.404-7.603-7.603-7.603h-27.879v-21.6h90.092c4.199 0 7.603-3.404 7.603-7.603s-3.404-7.603-7.603-7.603h-23.99v-13.972c0-16.089-13.089-29.179-29.178-29.179-16.089 0-29.178 13.09-29.178 29.179v13.972h-15.35c-4.199 0-7.603 3.404-7.603 7.603v73.612c0 4.199 3.404 7.603 7.603 7.603h496.743c4.199 0 7.603-3.404 7.603-7.603v-73.612zm-309.278-7.603v-13.972c0-7.704 6.268-13.972 13.972-13.972s13.972 6.268 13.972 13.972v13.972zm164.515 0v-13.972c0-7.704 6.268-13.972 13.972-13.972s13.972 6.268 13.972 13.972v13.972zm-329.029-13.973c0-7.704 6.268-13.972 13.972-13.972s13.972 6.268 13.972 13.972v13.972h-27.944z"/><path d="m135.186 346.349c1.614 0 3.242-.512 4.622-1.571l50.161-38.471c3.332-2.555 3.961-7.328 1.406-10.66s-7.327-3.961-10.66-1.406l-50.161 38.471c-3.332 2.555-3.961 7.328-1.406 10.66 1.497 1.952 3.754 2.977 6.038 2.977z"/><path d="m54.893 101.055c1.614 0 3.242-.512 4.622-1.571l50.16-38.471c3.332-2.555 3.961-7.328 1.406-10.66s-7.327-3.961-10.66-1.406l-50.161 38.471c-3.332 2.555-3.961 7.328-1.406 10.66 1.497 1.952 3.755 2.977 6.039 2.977z"/><path d="m146.053 299.075c-2.556-3.332-7.327-3.961-10.66-1.406l-50.16 38.471c-3.332 2.555-3.961 7.328-1.406 10.66 1.497 1.952 3.755 2.976 6.039 2.976 1.614 0 3.242-.512 4.622-1.571l50.16-38.471c3.331-2.554 3.961-7.326 1.405-10.659z"/><path d="m347.587 68.215c-3.325 2.555-3.954 7.329-1.399 10.655 1.49 1.957 3.751 2.981 6.032 2.981 1.612 0 3.244-.517 4.623-1.571 3.335-2.555 3.964-7.329 1.409-10.655-2.555-3.336-7.33-3.965-10.665-1.41z"/></g></svg>