<svg id="Capa_1" enable-background="new 0 0 512 512" height="512" viewBox="0 0 512 512" width="512" xmlns="http://www.w3.org/2000/svg"><g><path d="m387.57 345.807c4.199 0 7.604-3.404 7.604-7.604v-35.11c0-15.351-5.68-30.067-15.993-41.434l-21.956-24.216c-4.928-5.446-12.255-7.634-19.233-5.938 0 0 .015-69.579.031-71.945.274-41.631.733-111.309-78.16-158.482-2.404-1.437-5.402-1.437-7.805 0-16.57 9.908-30.664 21.497-41.89 34.445-2.751 3.173-2.409 7.975.764 10.726s7.975 2.409 10.726-.764c9.285-10.709 20.81-20.435 34.303-28.957 33.023 20.837 49.794 45.89 58.285 70.743h-116.53c1.799-5.286 3.961-10.574 6.578-15.813 1.877-3.756.352-8.324-3.404-10.2-3.758-1.876-8.324-.352-10.201 3.404-17.18 34.389-16.949 69.358-16.78 94.892.015 2.368.031 71.932.031 71.932-6.955-1.666-14.249.525-19.166 5.948l-21.964 24.228c-10.307 11.37-15.984 26.083-15.984 41.429v167.642c0 4.2 3.404 7.604 7.604 7.604h2.11l-6.402 24.107c-.606 2.282-.118 4.716 1.321 6.588 1.44 1.872 3.667 2.968 6.028 2.968h50.995c2.361 0 4.588-1.097 6.028-2.968 1.439-1.872 1.928-4.305 1.321-6.588l-6.403-24.107h2.11c4.2 0 7.604-3.404 7.604-7.604v-10.137h25.15l-9.627 42.104c-.516 2.256.024 4.625 1.467 6.435 1.443 1.809 3.632 2.864 5.946 2.864h87.777c2.314 0 4.503-1.054 5.946-2.864s1.983-4.179 1.467-6.435l-9.627-42.104h25.214v10.139c0 4.199 3.404 7.604 7.604 7.604h2.108l-6.402 24.105c-.606 2.282-.118 4.716 1.321 6.588 1.44 1.872 3.667 2.968 6.028 2.968h50.995c2.361 0 4.588-1.097 6.028-2.968 1.439-1.871 1.928-4.305 1.321-6.588l-6.402-24.105h2.113c4.199 0 7.604-3.404 7.604-7.604v-99.246c0-4.199-3.404-7.604-7.604-7.604s-7.604 3.404-7.604 7.604v26.875h-41.903v-87.669h41.903v27.508c.001 4.2 3.405 7.604 7.605 7.604zm-250.196 150.985 4.806-18.097h21.609l4.806 18.097zm206.027 0 4.806-18.097h21.609l4.806 18.097zm-169.466-186.097v87.669h-41.9v-87.669zm0 102.876v49.558h-41.9v-49.558zm15.212-232.856h9.316v10.952c0 4.199 3.404 7.604 7.604 7.604s7.604-3.404 7.604-7.604v-10.952h18.057v10.952c0 4.199 3.404 7.604 7.604 7.604s7.604-3.404 7.604-7.604v-10.952h18.057v10.952c0 4.199 3.404 7.604 7.604 7.604s7.604-3.404 7.604-7.604v-10.952h18.057v10.952c0 4.199 3.404 7.604 7.604 7.604 4.199 0 7.604-3.404 7.604-7.604v-10.952h9.317v150.539h-133.636zm-.031-21.262c-.012-1.74-.023-3.533-.029-5.362h133.757c-.006 1.825-.018 3.618-.029 5.369-.014 2.084-.025 4.093-.029 6.047h-133.641c-.004-1.956-.015-3.968-.029-6.054zm129.374-56.974c2.789 12.626 3.826 24.959 4.184 36.404h-133.405c.368-11.366 1.42-23.737 4.214-36.404zm-174.413 169.397 21.964-24.228c1.886-2.08 4.119-1.522 4.992-1.185.872.337 2.902 1.423 2.902 4.231v44.793h-41.265c1.447-8.753 5.365-16.946 11.407-23.611zm146.24 224.915h-68.699l8.276-36.195h52.147zm-101.17-51.403v-98.927h133.637v98.927zm190.819-31.817v49.559h-41.903v-49.559zm-41.903-162.874c0-2.81 2.033-3.897 2.906-4.233.87-.337 3.1-.894 4.985 1.189l21.962 24.223c6.045 6.664 9.966 14.856 11.414 23.611h-41.267z"/><path d="m305.864 244.076c-4.2 0-7.604 3.404-7.604 7.604v50.572c0 4.199 3.404 7.604 7.604 7.604 4.199 0 7.604-3.404 7.604-7.604v-50.572c-.001-4.199-3.405-7.604-7.604-7.604z"/><path d="m272.598 272.396c-4.199 0-7.604 3.404-7.604 7.604v22.252c0 4.199 3.404 7.604 7.604 7.604s7.604-3.404 7.604-7.604v-22.252c0-4.199-3.404-7.604-7.604-7.604z"/></g></svg>