<svg id="Capa_1" enable-background="new 0 0 512 512" height="512" viewBox="0 0 512 512" width="512" xmlns="http://www.w3.org/2000/svg"><g><path d="m485.239 136.672c-2.706-3.211-7.504-3.619-10.715-.913s-3.62 7.504-.913 10.715c15.382 18.247 23.181 40.258 23.181 65.42 0 33.428-14.109 61.811-40.803 82.081-9.401 7.139-20.342 13.227-32.672 18.225v-200.692c9.887 4.039 18.918 8.801 27.053 14.295 3.48 2.35 8.206 1.434 10.557-2.046 2.349-3.481 1.434-8.207-2.047-10.557-32.956-22.258-78.606-33.543-135.68-33.543-68.914 0-141.579 24.37-194.767 53.216l-23.321-38.917c-1.374-2.293-3.85-3.696-6.523-3.696h-67.623c-4.2 0-7.604 3.404-7.604 7.604v87.405c-14.313 5.677-23.362 15.286-23.362 26.626 0 11.341 9.049 20.949 23.362 26.626v36.141c0 4.199 3.404 7.604 7.604 7.604s7.604-3.404 7.604-7.604v-31.978c5.107.867 10.565 1.333 16.284 1.333 2.027 0 4.175-.066 6.398-.181 11.447 13.824 29.812 28.26 52.677 41.705l-19.646 32.778h-55.713v-10.737c0-4.199-3.404-7.604-7.604-7.604s-7.604 3.404-7.604 7.604v18.341c0 4.199 3.404 7.604 7.604 7.604h67.624c2.672 0 5.148-1.402 6.522-3.695l22.097-36.867c11.617 6.183 24.137 12.075 37.314 17.501 16.632 6.848 33.624 12.724 50.649 17.563v70.979c0 18.381 14.954 33.335 33.335 33.335h117.606c18.381 0 33.335-14.954 33.335-33.335v-63.116c25.941-6.328 47.925-16.278 65.738-29.805 30.626-23.257 46.814-55.828 46.814-94.193 0-28.441-9.253-54.453-26.761-75.222zm-77.129-30.594v211.516c-24.249 7.479-52.848 11.339-84.909 11.339-48.681 0-101.303-12.237-146.53-29.971v-172.192c49.858-20.592 101.732-31.906 146.53-31.906 32.433.001 60.817 3.763 84.909 11.214zm-369.54-.61h55.712l20.918 34.907c-22.381 13.276-40.395 27.111-51.932 39.693-2.953-.193-5.777-.295-8.413-.295-5.719 0-11.177.466-16.284 1.333v-75.638zm-13.625 117.015c-6.097-3.164-9.738-7.122-9.738-10.588 0-3.465 3.641-7.423 9.738-10.587 7.748-4.021 18.649-6.327 29.909-6.327 11.808 0 28.641 2.384 42.884 6.074 17.03 4.412 23.759 8.841 25.579 10.84-1.82 1.999-8.549 6.428-25.579 10.84-14.242 3.69-31.076 6.074-42.884 6.074-11.259 0-22.16-2.306-29.909-6.326zm55.064 19.366c8.437-1.292 17.068-3.103 24.893-5.295 22.864-6.403 33.979-14.469 33.979-24.659s-11.115-18.256-33.979-24.659c-7.043-1.972-14.739-3.64-22.359-4.896 18.169-16.517 46.597-34.199 78.919-48.962v159.29c-34.596-15.073-63.665-33.149-81.453-50.819zm286.105 175.286h-117.607c-9.996 0-18.128-8.132-18.128-18.128v-26.997h153.861v26.997c.001 9.996-8.13 18.128-18.126 18.128zm18.127-60.332h-153.861v-24.73c31.874 7.893 63.527 12.069 92.82 12.069 22.106 0 42.468-1.692 61.041-5.042z"/><circle cx="276.319" cy="392.279" r="7.604"/><circle cx="307.312" cy="392.279" r="7.604"/><circle cx="338.306" cy="392.279" r="7.604"/><circle cx="369.157" cy="392.279" r="7.604"/><circle cx="245.315" cy="392.279" r="7.604"/></g></svg>