<svg id="Capa_1" enable-background="new 0 0 512 512" height="512" viewBox="0 0 512 512" width="512" xmlns="http://www.w3.org/2000/svg"><g><path d="m302.049 198.571h-23.135c-7.799 0-15.09 3.474-20.004 9.531-4.911 6.054-6.807 13.898-5.202 21.516l13.711 65.344c2.489 11.861 13.089 20.469 25.205 20.469h23.645c7.426 0 14.368-3.306 19.05-9.07 4.68-5.764 6.491-13.238 4.966-20.506l-14.221-67.783c-2.369-11.3-12.469-19.501-24.015-19.501zm21.464 98.204c-1.78 2.192-4.42 3.449-7.244 3.449h-23.645c-4.961 0-9.302-3.526-10.322-8.384l-13.712-65.35c-.656-3.118.12-6.328 2.13-8.806 2.013-2.481 5-3.904 8.194-3.904h23.135c4.39 0 8.231 3.118 9.132 7.414v.001l14.221 67.783c.579 2.763-.109 5.605-1.889 7.797z"/><path d="m496.338 388.34c-12.266-4.401-25.839 1.996-30.244 14.267-1.632 4.545-5.973 7.599-10.802 7.599h-40.935l-7.686-20.165c8.075-1.042 15.906-3.264 23.385-6.646 3.827-1.731 5.525-6.235 3.795-10.062-1.731-3.826-6.234-5.526-10.062-3.795-8.781 3.972-18.164 5.985-27.89 5.985h-87.305c-45.523 0-82.559-37.036-82.559-82.559v-107.083l141.342-.002c14.477 0 28.204 4.577 39.497 12.692h-37.802c-7.78 0-15.056 3.464-19.961 9.504-4.904 6.04-6.801 13.872-5.203 21.487l13.727 65.437c2.484 11.84 13.067 20.433 25.165 20.433h80.349c-1.504 13.3-6.909 25.932-15.62 36.189-2.719 3.201-2.329 8 .872 10.718 3.203 2.72 8 2.328 10.718-.873 12.693-14.943 19.683-33.992 19.683-53.639 0-6.71-.816-13.398-2.421-19.867-1.6-6.492-3.989-12.786-7.101-18.711l-28.51-54.243c-14.379-27.347-42.501-44.336-73.393-44.336h-31.454l-7.644-21.879c-3.568-10.215-13.237-17.079-24.058-17.079h-8.8v-9.987c67.205-1.45 134.358-9.562 199.938-24.217 11.446-2.567 18.681-13.969 16.128-25.425-1.243-5.551-4.571-10.286-9.373-13.333-4.803-3.048-10.502-4.043-16.049-2.799-62.526 13.974-126.554 21.74-190.644 23.183v-2.804c0-12.036-9.792-21.829-21.829-21.829-12.036 0-21.828 9.792-21.828 21.829v2.796c-32.349-.734-64.899-3.063-97.053-7.007-4.155-.511-7.961 2.453-8.473 6.621-.511 4.168 2.453 7.962 6.622 8.473 40.01 4.908 80.631 7.397 120.734 7.397 72.475 0 145.076-8.013 215.792-23.817 1.58-.353 3.207-.071 4.579.799 1.373.871 2.325 2.226 2.679 3.807.73 3.275-1.34 6.536-4.608 7.269-71.588 15.998-145.083 24.109-218.443 24.109-73.37 0-146.864-8.111-218.439-24.108-1.588-.356-2.943-1.308-3.814-2.681-.87-1.371-1.153-2.997-.796-4.59.351-1.583 1.3-2.934 2.669-3.803 1.371-.871 3-1.157 4.593-.799 20.558 4.595 41.507 8.572 62.267 11.822 4.152.648 8.04-2.187 8.689-6.336.65-4.149-2.188-8.039-6.337-8.688-20.438-3.2-41.063-7.116-61.299-11.638-5.555-1.243-11.261-.25-16.065 2.802-4.802 3.049-8.127 7.786-9.359 13.327-1.244 5.549-.25 11.25 2.798 16.054 3.047 4.802 7.781 8.131 13.335 9.374 65.566 14.654 132.717 22.766 199.929 24.216v9.987h-7.036c-10.821 0-20.489 6.864-24.058 17.079l-7.643 21.881h-106.522c-2.541 0-4.83-1.409-5.974-3.676l-12.333-24.43c-2.922-5.786-8.763-9.38-15.245-9.38h-17.416c-9.417 0-17.077 7.661-17.077 17.078v45.806c-22.76 11.222-38.46 34.663-38.46 61.71 0 37.922 30.852 68.774 68.774 68.774s68.775-30.852 68.775-68.774c0-1.326-.047-2.641-.121-3.949l73.4 12.116v27.013c0 50.256 38.117 91.77 86.958 97.167l-7.657 20.075h-103.025c-13.039 0-23.646 10.608-23.646 23.646s10.607 23.646 23.646 23.646h268.188c24.729 0 46.957-15.638 55.312-38.913 4.405-12.272-1.994-25.839-14.266-30.245zm-40.52-112.016c2.541 4.836 4.491 9.976 5.8 15.288.702 2.829 1.213 5.707 1.541 8.611h-80.359c-4.943 0-9.266-3.511-10.281-8.347l-13.727-65.437c-.652-3.111.123-6.31 2.127-8.778 2.003-2.468 4.975-3.883 8.154-3.883h53.074c1.898 2.617 3.628 5.387 5.162 8.305zm-188.845-196.972v-3.022c0-3.651 2.969-6.621 6.62-6.621s6.621 2.97 6.621 6.621v3.027c-2.206.015-4.413.046-6.619.046-2.204 0-4.415-.036-6.622-.051zm0 42.588c2.207.014 4.415.046 6.622.046 2.206 0 4.413-.031 6.619-.046v9.773h-13.241zm-22.244 24.981h14.551c.03 0 .059.004.088.004h28.449c.03 0 .059-.004.088-.004h16.316c4.363 0 8.261 2.768 9.701 6.887l5.892 16.864h-90.677l5.891-16.864c1.44-4.119 5.338-6.887 9.701-6.887zm-122.389 110.863c0 29.536-24.03 53.566-53.567 53.566-29.536 0-53.566-24.03-53.566-53.566 0-18.291 9.221-34.462 23.252-44.131v65.025c0 4.2 3.404 7.604 7.604 7.604h43.093c2.783 0 5.345-1.521 6.676-3.964l17.679-32.43 8.418 1.39c.262 2.134.411 4.302.411 6.506zm-68.672-51.383c4.794-1.412 9.861-2.183 15.106-2.183 21.43 0 39.951 12.654 48.509 30.878l-6.623-1.093c-3.193-.527-6.367 1.023-7.915 3.863l-18.103 33.208h-30.974zm157.154 44.135-76.199-12.578c-8.533-28.286-34.818-48.949-65.849-48.949-5.19 0-10.241.597-15.106 1.692v-40.437c0-1.031.839-1.87 1.869-1.87h17.416c.71 0 1.35.394 1.669 1.027l12.332 24.429c3.747 7.42 11.238 12.03 19.551 12.03h104.317zm103.012 140.196h76.826l7.422 19.475h-91.677zm182.457 22.715c-6.193 17.252-22.669 28.843-40.999 28.843h-268.188c-4.652 0-8.438-3.785-8.438-8.438s3.785-8.438 8.438-8.438h268.188c11.229 0 21.321-7.1 25.115-17.669 1.572-4.379 6.418-6.661 10.793-5.091 4.379 1.572 6.662 6.414 5.091 10.793z"/></g></svg>