<svg id="Capa_1" enable-background="new 0 0 512 512" height="512" viewBox="0 0 512 512" width="512" xmlns="http://www.w3.org/2000/svg"><g><path d="m510.494 227.004c-4.982-14.558-20.882-22.346-35.436-17.365-3.584 1.226-6.952 2.347-10.297 3.426-3.997 1.29-6.191 5.575-4.902 9.572 1.29 3.997 5.58 6.19 9.571 4.901 3.43-1.107 6.88-2.254 10.55-3.51 6.622-2.265 13.858 1.277 16.126 7.901 2.267 6.625-1.277 13.859-7.902 16.126-39.485 13.521-80.255 23.607-121.327 30.034.016-.777.028-1.557.028-2.34 0-7.648-.776-15.367-2.268-23.022 24.335-3.87 48.72-9.096 72.606-15.588 4.052-1.101 6.445-5.279 5.344-9.332s-5.281-6.445-9.332-5.344c-23.825 6.474-48.156 11.657-72.423 15.462-5.396-16.864-14.244-32.972-25.985-46.808-15.554-18.329-34.364-30.747-54.525-36.299v-.458c17.926-1.83 35.537-5.676 52.445-11.465 5.772-1.973 10.429-6.078 13.111-11.557 2.679-5.474 3.068-11.666 1.095-17.439-4.074-11.904-17.078-18.275-28.997-14.202-12.231 4.189-24.942 7.102-37.88 8.727-1.601-11.871-11.789-21.055-24.087-21.055s-22.485 9.184-24.087 21.055c-12.946-1.626-25.66-4.538-37.892-8.728-11.9-4.073-24.904 2.296-28.996 14.206-1.973 5.771-1.581 11.965 1.103 17.44 2.685 5.477 7.343 9.58 13.11 11.552 16.914 5.791 34.525 9.637 52.449 11.466v.458c-20.161 5.553-38.973 17.971-54.527 36.299-11.745 13.839-20.595 29.951-25.993 46.817-38.617-6.055-77.009-15.561-114.221-28.296-7.05-2.413-14.621-1.936-21.315 1.344-6.695 3.28-11.711 8.97-14.124 16.02-2.414 7.05-1.936 14.62 1.344 21.315s8.97 11.711 16.02 14.124c19.042 6.52 38.382 12.259 57.914 17.193-11.142 7.291-18.524 19.873-18.524 34.154 0 22.495 18.301 40.796 40.796 40.796s40.796-18.301 40.796-40.796c0-8.203-2.442-15.842-6.625-22.246 4.453.758 8.91 1.472 13.37 2.145 3.73 21.65 14.378 40.148 31.352 54.16 3.236 2.673 8.03 2.216 10.705-1.023 2.673-3.239 2.215-8.032-1.024-10.705-17.878-14.759-27.328-35.635-27.328-60.371 0-26.226 10.37-53.486 28.45-74.79 18.739-22.08 42.621-34.24 67.247-34.24s48.506 12.16 67.241 34.239c18.078 21.304 28.446 48.564 28.446 74.791 0 24.81-9.501 45.731-27.476 60.504-17.143 14.088-41.346 21.85-68.157 21.861-.02 0-.039-.003-.059-.003-.019 0-.037.003-.055.003-14.96-.006-28.975-2.357-41.657-6.989-3.947-1.441-8.311.589-9.751 4.534s.589 8.31 4.534 9.751c12.18 4.449 25.38 7.032 39.326 7.72v27.694c0 4.199 3.404 7.604 7.604 7.604s7.604-3.404 7.604-7.604v-27.714c27.341-1.377 52.072-10.154 70.267-25.107 17.075-14.032 27.781-32.58 31.525-54.305 4.46-.673 8.916-1.387 13.368-2.145-4.18 6.402-6.62 14.038-6.62 22.237 0 22.495 18.301 40.796 40.796 40.796s40.796-18.301 40.796-40.796c0-14.279-7.38-26.86-18.52-34.151 19.525-4.934 38.863-10.673 57.908-17.195 14.558-4.982 22.348-20.88 17.365-35.439zm-411.427 112.373c-14.109 0-25.588-11.479-25.588-25.588s11.479-25.588 25.588-25.588 25.588 11.479 25.588 25.588c0 14.11-11.479 25.588-25.588 25.588zm-75.26-91.322c-3.207-1.098-5.795-3.38-7.288-6.427s-1.711-6.492-.613-9.699c2.267-6.624 9.501-10.167 16.126-7.901 37.581 12.862 76.342 22.505 115.341 28.707-1.49 7.653-2.266 15.368-2.266 23.014 0 .781.012 1.557.028 2.332-41.093-6.428-81.863-16.512-121.328-30.026zm299.093-133.968c3.982-1.36 8.325.766 9.684 4.736.659 1.93.53 4.001-.365 5.831-.894 1.827-2.447 3.195-4.374 3.854-15.33 5.249-31.281 8.779-47.522 10.551v-15.329c14.546-1.708 28.84-4.938 42.577-9.643zm-138.729 14.419c-1.926-.658-3.48-2.028-4.377-3.857-.896-1.829-1.028-3.899-.372-5.816 1.366-3.977 5.707-6.109 9.683-4.748 13.741 4.707 28.038 7.936 42.593 9.645v15.329c-16.24-1.772-32.192-5.302-47.527-10.553zm62.734 23.473v-40.286c0-5.026 4.084-9.116 9.105-9.116s9.105 4.089 9.105 9.116v40.286c-3.018-.305-6.054-.468-9.104-.468-3.051 0-6.087.163-9.106.468zm166.041 187.398c-14.109 0-25.588-11.479-25.588-25.588s11.479-25.588 25.588-25.588 25.588 11.479 25.588 25.588c0 14.11-11.479 25.588-25.588 25.588z"/><path d="m309.875 252.21c.99.444 2.051.666 3.113.666 1.069 0 2.138-.225 3.134-.676 1.985-.898 3.49-2.604 4.132-4.686l6.732-21.812c.667-2.16.339-4.503-.896-6.396-15.514-23.785-41.714-37.985-70.087-37.985-28.359 0-54.556 14.196-70.076 37.974-1.237 1.894-1.565 4.241-.897 6.402l6.742 21.804c.643 2.08 2.147 3.785 4.131 4.682 1.983.897 4.255.901 6.245.01 16.967-7.606 35.088-11.463 53.856-11.463 18.772 0 36.897 3.862 53.871 11.48zm1.493-27.475-3.184 10.319c-14.277-5.435-29.211-8.558-44.573-9.333v-28.766c19.084 2.113 36.378 12.114 47.757 27.78zm-110.721-.009c11.385-15.662 28.678-25.66 47.756-27.772v28.766c-15.36.774-30.292 3.892-44.567 9.321z"/><path d="m412.946 294.093c-10.86 0-19.696 8.836-19.696 19.696s8.836 19.695 19.696 19.695c10.859 0 19.695-8.835 19.695-19.695s-8.835-19.696-19.695-19.696zm0 24.184c-2.474 0-4.488-2.013-4.488-4.488s2.014-4.488 4.488-4.488 4.487 2.013 4.487 4.488-2.013 4.488-4.487 4.488z"/><path d="m99.067 294.093c-10.86 0-19.696 8.836-19.696 19.696s8.836 19.695 19.696 19.695 19.696-8.835 19.696-19.695-8.835-19.696-19.696-19.696zm0 24.184c-2.474 0-4.488-2.013-4.488-4.488s2.014-4.488 4.488-4.488 4.488 2.013 4.488 4.488c.001 2.475-2.013 4.488-4.488 4.488z"/><path d="m235.823 379.041c-4.2 0-7.604 3.404-7.604 7.604v30.381c0 4.199 3.404 7.604 7.604 7.604s7.604-3.404 7.604-7.604v-30.381c0-4.2-3.404-7.604-7.604-7.604z"/><path d="m276.191 379.041c-4.2 0-7.604 3.404-7.604 7.604v30.381c0 4.199 3.404 7.604 7.604 7.604s7.604-3.404 7.604-7.604v-30.381c0-4.2-3.404-7.604-7.604-7.604z"/></g></svg>