<svg id="Capa_1" enable-background="new 0 0 512 512" height="512" viewBox="0 0 512 512" width="512" xmlns="http://www.w3.org/2000/svg"><g><path d="m507.294 216.241-51.804-21.351v-31.864c0-13.355-10.87-24.221-24.231-24.221h-39.581c-11.901 0-21.817 8.63-23.838 19.959l-31.519-12.991v-30.815c0-38.583-18.297-75.604-48.945-99.032-18.475-14.124-44.282-14.124-62.758.001-15.14 11.577-27.602 26.72-36.041 43.793-8.441 17.077-12.903 36.179-12.903 55.238v30.812l-31.519 12.992c-2.021-11.328-11.938-19.958-23.838-19.958h-39.59c-13.355 0-24.221 10.866-24.221 24.221v31.865l-51.8 21.351c-2.848 1.174-4.706 3.95-4.706 7.03v75.522c0 2.247.995 4.38 2.716 5.825 1.38 1.158 3.114 1.779 4.888 1.779.439 0 .881-.038 1.321-.115l168.684-29.748c3.392 37.81 11.277 75.022 23.558 111.138l-84.935 35.418c-2.832 1.181-4.677 3.949-4.677 7.018v55.094c0 2.252.998 4.388 2.726 5.833 1.379 1.153 3.109 1.771 4.878 1.771.448 0 .898-.04 1.345-.12l110.694-19.895v9.076c0 13.674 11.125 24.799 24.799 24.799s24.799-11.125 24.799-24.799v-9.077l110.691 19.896c.448.08.898.12 1.345.12 1.769 0 3.5-.618 4.878-1.771 1.727-1.445 2.726-3.581 2.726-5.833v-55.094c0-3.069-1.845-5.837-4.677-7.018l-84.92-35.415c2.891-8.506 5.55-17.081 7.91-25.583 1.123-4.047-1.246-8.238-5.293-9.361-4.047-1.124-8.238 1.246-9.361 5.293-2.194 7.902-4.648 15.873-7.319 23.787l-15.98-6.664v-11.282c0-13.674-11.125-24.799-24.799-24.799s-24.799 11.125-24.799 24.799v11.285l-15.967 6.658c-16.149-47.836-24.348-97.648-24.348-148.198v-118.652c0-16.735 3.917-33.506 11.329-48.5 7.408-14.99 18.351-28.286 31.644-38.451 13.037-9.966 31.248-9.967 44.286 0 26.908 20.569 42.972 53.074 42.972 86.95v118.653c0 31.009-3.142 62.161-9.337 92.589-.838 4.115 1.819 8.131 5.934 8.968 4.118.838 8.13-1.819 8.968-5.934 3.541-17.391 6.112-35.012 7.705-52.709l168.692 29.757c.44.078.881.116 1.321.116 1.774 0 3.507-.621 4.888-1.779 1.722-1.445 2.716-3.577 2.716-5.825v-75.522c-.001-3.08-1.859-5.856-4.707-7.03zm-122.067 218.936v40.933l-104.432-18.771v-65.713zm-138.821-71.312c0-5.288 4.302-9.591 9.591-9.591 5.288 0 9.591 4.302 9.591 9.591v118.002c0 5.289-4.302 9.591-9.591 9.591-5.288 0-9.591-4.302-9.591-9.591zm-15.208 93.475-104.435 18.77v-40.933l104.435-43.549zm-159.485-294.315c0-4.97 4.044-9.013 9.013-9.013h39.591c4.97 0 9.013 4.044 9.013 9.013v1.847l-57.618 23.75v-25.597zm-25.691 121.272v-21.201l27.807-7.765c4.045-1.13 6.408-5.324 5.279-9.369s-5.324-6.408-9.369-5.279l-33.366 9.317c-3.286.918-5.559 3.912-5.559 7.324v29.655l-15.606 2.752v-61.37l160.467-66.142v48.881l-73.999 20.662c-4.045 1.129-6.408 5.324-5.279 9.369.939 3.361 3.993 5.561 7.32 5.561.677 0 1.365-.091 2.049-.282l69.909-19.52v6.721c0 9.253.289 18.479.818 27.678zm336.643-121.272c0-4.97 4.043-9.013 9.013-9.013h39.581c4.975 0 9.023 4.044 9.023 9.013v25.596l-57.617-23.748zm-46.344 70.585v-6.722l129.654 36.212v21.195l-130.467-23.014c.535-9.222.813-18.452.813-27.671zm160.471 56.121-15.609-2.753v-29.649c0-3.412-2.272-6.406-5.558-7.324l-139.303-38.906v-48.877l160.471 66.141v61.368z"/><path d="m240.731 97.913c3.96-4.352 9.381-6.749 15.266-6.749 5.884 0 11.305 2.397 15.266 6.749 3.777 4.15 8.944 6.582 14.549 6.846.339.016.676.024 1.013.024 5.237 0 10.216-1.922 14.114-5.47 4.151-3.776 6.583-8.944 6.848-14.55.264-5.605-1.67-10.978-5.447-15.13-11.848-13.02-28.739-20.487-46.343-20.488-17.604 0-34.496 7.467-46.344 20.488-3.777 4.15-5.711 9.523-5.447 15.129.264 5.605 2.696 10.772 6.846 14.549 3.877 3.528 8.897 5.471 14.136 5.471 5.905.001 11.57-2.503 15.543-6.869zm50.36-18.043c1.043 1.146 1.577 2.63 1.504 4.178s-.745 2.974-1.892 4.018c-1.145 1.042-2.62 1.575-4.176 1.503-1.548-.073-2.975-.745-4.017-1.89-5.13-5.639-11.674-9.385-18.91-10.925v-11.778c10.504 1.713 20.244 6.93 27.491 14.894zm-61.609 7.809c-1.113 1.223-2.638 1.897-4.294 1.897-1.445 0-2.83-.537-3.901-1.511-1.146-1.043-1.817-2.469-1.89-4.017s.461-3.032 1.503-4.177c7.248-7.965 16.989-13.181 27.492-14.894v11.777c-7.235 1.54-13.779 5.286-18.91 10.925z"/><path d="m211.332 159.73c.122.01.243.01.375.01 4.025 0 7.391-3.173 7.584-7.239 0-.01 0-.01 0-.01.202-4.187-3.042-7.756-7.229-7.949-4.197-.203-7.766 3.031-7.958 7.229-.204 4.198 3.031 7.756 7.228 7.959z"/><path d="m210.825 188.128h.111c4.147 0 7.543-3.336 7.594-7.493.06-4.207-3.295-7.654-7.493-7.715-4.207-.051-7.655 3.305-7.715 7.502-.05 4.198 3.306 7.656 7.503 7.706z"/><path d="m210.876 216.527h.081c4.198-.041 7.563-3.478 7.523-7.675-.041-4.207-3.477-7.573-7.675-7.533-4.207.041-7.574 3.477-7.533 7.685.04 4.167 3.437 7.523 7.604 7.523z"/><path d="m219.788 329.643c.466 0 .943-.05 1.419-.132 4.127-.781 6.844-4.755 6.063-8.882-.77-4.126-4.745-6.844-8.871-6.073-4.126.781-6.844 4.755-6.073 8.881.689 3.651 3.883 6.206 7.462 6.206z"/><path d="m211.525 244.915h.284c4.198-.152 7.472-3.681 7.32-7.878-.152-4.198-3.68-7.472-7.878-7.32s-7.472 3.68-7.32 7.878c.152 4.106 3.518 7.32 7.594 7.32z"/><path d="m215.61 301.559c.294 0 .588-.02.893-.05 4.167-.487 7.157-4.268 6.671-8.435-.487-4.167-4.258-7.158-8.425-6.671-4.177.476-7.168 4.258-6.682 8.425.446 3.872 3.741 6.731 7.543 6.731z"/><path d="m213.025 273.283c.172 0 .355-.01.537-.02 4.188-.304 7.341-3.934 7.047-8.121s-3.924-7.35-8.111-7.056c-4.198.294-7.35 3.934-7.056 8.121.283 4.003 3.619 7.076 7.583 7.076z"/><path d="m306.554 266.206c.294-4.188-2.869-7.827-7.056-8.121s-7.827 2.869-8.121 7.056c-.294 4.188 2.869 7.827 7.056 8.121.183.01.365.01.538.01 3.953.011 7.299-3.062 7.583-7.066z"/><path d="m300.745 229.717c-4.198-.152-7.726 3.123-7.888 7.32h.01c-.162 4.197 3.112 7.725 7.31 7.878.102 0 .193.01.284.01 4.076 0 7.442-3.224 7.594-7.33.162-4.198-3.113-7.726-7.31-7.878z"/><path d="m301.191 201.319c-4.198-.041-7.634 3.325-7.675 7.533-.051 4.198 3.325 7.635 7.523 7.675h.081c4.156 0 7.553-3.356 7.604-7.523.04-4.197-3.336-7.645-7.533-7.685z"/><path d="m293.455 180.636c.061 4.157 3.457 7.493 7.604 7.493h.111c4.198-.061 7.553-3.508 7.493-7.705-.051-4.197-3.508-7.553-7.705-7.502-4.198.059-7.554 3.506-7.503 7.714z"/><path d="m290.789 329.511c.476.081.943.132 1.409.132 3.589 0 6.783-2.555 7.472-6.205.771-4.126-1.947-8.1-6.073-8.881-4.127-.771-8.101 1.947-8.882 6.073-.77 4.127 1.947 8.101 6.074 8.881z"/><path d="m297.247 286.402c-4.177-.487-7.948 2.504-8.425 6.671-.487 4.167 2.495 7.949 6.671 8.435.294.03.599.05.882.05 3.812 0 7.097-2.859 7.553-6.732-.01 0-.01 0-.01 0 .486-4.166-2.504-7.948-6.671-8.424z"/><path d="m299.934 144.543c-4.198.193-7.432 3.761-7.229 7.958.193 4.066 3.548 7.239 7.584 7.239.122 0 .244 0 .365-.01 4.197-.203 7.442-3.761 7.239-7.959-.203-4.197-3.762-7.431-7.959-7.228z"/></g></svg>