<svg id="Capa_1" enable-background="new 0 0 512 512" height="512" viewBox="0 0 512 512" width="512" xmlns="http://www.w3.org/2000/svg"><g><path d="m473.96 164.377h-122.406c.184-7.916.273-14.935.308-20.902 8.258-3.088 14.165-11.036 14.165-20.359v-21.784c0-11.993-9.757-21.75-21.75-21.75h-60.42v-8.219h84.569c10.932 0 19.826-8.894 19.826-19.827 0-10.932-8.894-19.826-19.826-19.826h-84.908c-1.645-8.694-9.287-15.294-18.453-15.294h-18.14c-9.167 0-16.809 6.601-18.453 15.297h-41.048c-4.199 0-7.604 3.404-7.604 7.604s3.404 7.604 7.604 7.604h40.706v9.237h-84.565c-2.549 0-4.623-2.074-4.623-4.623 0-1.231.48-2.39 1.34-3.249.884-.879 2.049-1.364 3.284-1.364h10.585c4.199 0 7.604-3.404 7.604-7.604s-3.404-7.604-7.604-7.604h-10.585c-5.283 0-10.26 2.058-14.026 5.807-3.744 3.745-5.805 8.721-5.805 14.014 0 10.935 8.896 19.831 19.831 19.831h84.568v8.216h-60.42c-11.993 0-21.75 9.757-21.75 21.75v21.784c0 9.322 5.907 17.271 14.165 20.359.035 5.969.124 12.989.308 20.907h-122.407c-20.97-.001-38.03 17.058-38.03 38.028v94.775c0 20.97 17.06 38.03 38.03 38.03h138.577c3.436 18.88 7.579 37.66 12.569 55.711-12.525 10.523-48.889 44.559-38.445 77.198 2.723 8.511 8.218 14.786 16.332 18.651 6.679 3.182 14.521 4.359 22.47 4.359 15.75 0 31.911-4.619 40.258-7.418 6.807 7.512 16.238 11.867 26.206 11.867 9.967 0 19.398-4.356 26.205-11.867 8.347 2.799 24.507 7.418 40.258 7.418 7.949 0 15.791-1.177 22.47-4.359 8.113-3.865 13.608-10.141 16.332-18.651 10.444-32.639-25.92-66.675-38.445-77.198 4.99-18.053 9.134-36.834 12.57-55.715h68.589c4.199 0 7.604-3.404 7.604-7.604 0-4.199-3.404-7.604-7.604-7.604h-65.97c8.408-51.777 11.798-102.961 13.106-140.419h122.848c12.59 0 22.832 10.238 22.832 22.822v94.775c0 12.584-10.242 22.822-22.832 22.822h-36.702c-4.199 0-7.604 3.404-7.604 7.604 0 4.199 3.404 7.604 7.604 7.604h36.702c20.975 0 38.04-17.06 38.04-38.029v-94.775c0-20.97-17.065-38.03-38.04-38.03zm-100.916-112.84c0 2.547-2.072 4.619-4.618 4.619h-84.569v-9.237h84.569c2.547-.001 4.618 2.071 4.618 4.618zm-129.703-16.329c0-1.976 1.607-3.584 3.584-3.584h18.14c1.976 0 3.584 1.608 3.584 3.584v44.374h-25.308zm-82.169 66.124c0-3.607 2.935-6.542 6.542-6.542h176.563c3.607 0 6.542 2.935 6.542 6.542v21.784c0 3.607-2.935 6.543-6.542 6.543h-176.563c-3.607 0-6.542-2.935-6.542-6.543zm-123.142 218.675c-12.584 0-22.822-10.238-22.822-22.822v-94.775c0-12.584 10.238-22.822 22.822-22.822h122.851c1.307 37.458 4.698 88.643 13.106 140.419zm135.561 153.034c-4.284-2.045-6.946-5.08-8.377-9.551-4.51-14.096 5.305-30.257 14.334-41.332 4.912-6.025 10.152-11.248 14.373-15.128 7.323 23.306 16.217 44.976 27.017 63.519-13.55 4.041-35.068 8.352-47.347 2.492zm82.404 7.335c-6.894 0-13.168-3.576-17.216-9.812-56.43-86.944-62.985-262.577-63.433-325.698h161.298c-.449 63.121-7.004 238.754-63.434 325.698-4.046 6.236-10.321 9.812-17.215 9.812zm76.448-58.218c9.029 11.075 18.844 27.235 14.334 41.332-1.431 4.472-4.093 7.507-8.377 9.551-12.281 5.86-33.8 1.548-47.347-2.492 10.801-18.544 19.695-40.214 27.018-63.52 4.22 3.881 9.46 9.104 14.372 15.129z"/><path d="m255.995 165.621c-29.408 0-53.334 27.305-53.334 60.866s23.926 60.866 53.334 60.866 53.334-27.305 53.334-60.866-23.925-60.866-53.334-60.866zm0 15.208c21.023 0 38.126 20.483 38.126 45.659 0 3.147-.267 6.221-.776 9.19-12.108-1.257-24.638-1.901-37.354-1.901-12.711 0-25.238.644-37.346 1.901-.509-2.97-.776-6.043-.776-9.19 0-25.176 17.104-45.659 38.126-45.659zm0 91.317c-13.681 0-25.698-8.679-32.425-21.678 10.541-.984 21.405-1.484 32.421-1.484 11.021 0 21.887.5 32.43 1.484-6.728 12.999-18.744 21.678-32.426 21.678z"/><path d="m255.995 338.215c-8.124 0-14.508 3.943-18.462 11.403-3.923 7.4-5.749 18.459-5.749 34.801 0 16.31 1.919 36.146 5.008 51.767 4.511 22.809 10.254 32.54 19.203 32.54s14.692-9.732 19.203-32.54c3.089-15.621 5.008-35.457 5.008-51.767 0-16.342-1.827-27.401-5.749-34.801-3.954-7.46-10.338-11.403-18.462-11.403zm.044 111.215c-1.442-3.738-3.328-10.12-5.177-20.778-2.423-13.967-3.87-30.502-3.87-44.232 0-16.673 2.164-24.255 3.979-27.68 1.495-2.821 2.811-3.317 5.025-3.317s3.53.497 5.025 3.317c1.815 3.425 3.979 11.006 3.979 27.68-.001 26.626-4.737 53.744-8.961 65.01z"/><path d="m472.777 249.798c0-27.245-22.165-49.411-49.41-49.411s-49.411 22.166-49.411 49.411 22.166 49.41 49.411 49.41 49.41-22.165 49.41-49.41zm-49.41 34.202c-18.859 0-34.203-15.343-34.203-34.202s15.343-34.203 34.203-34.203 34.202 15.343 34.202 34.203-15.343 34.202-34.202 34.202z"/><path d="m423.367 227.353c-12.376 0-22.444 10.069-22.444 22.444 0 12.376 10.069 22.444 22.444 22.444 12.376 0 22.444-10.068 22.444-22.444 0-12.375-10.068-22.444-22.444-22.444zm0 29.681c-3.99 0-7.237-3.246-7.237-7.236s3.247-7.237 7.237-7.237 7.236 3.247 7.236 7.237-3.246 7.236-7.236 7.236z"/><path d="m88.63 200.387c-27.245 0-49.41 22.166-49.41 49.411s22.165 49.41 49.41 49.41 49.411-22.165 49.411-49.41-22.166-49.411-49.411-49.411zm0 83.613c-18.859 0-34.202-15.343-34.202-34.202s15.343-34.203 34.202-34.203 34.203 15.343 34.203 34.203-15.344 34.202-34.203 34.202z"/><path d="m88.63 227.353c-12.376 0-22.444 10.069-22.444 22.444 0 12.376 10.068 22.444 22.444 22.444s22.444-10.068 22.444-22.444c0-12.375-10.068-22.444-22.444-22.444zm0 29.681c-3.99 0-7.236-3.246-7.236-7.236s3.246-7.237 7.236-7.237 7.237 3.247 7.237 7.237-3.247 7.236-7.237 7.236z"/></g></svg>