<svg id="Capa_1" enable-background="new 0 0 512 512" height="512" viewBox="0 0 512 512" width="512" xmlns="http://www.w3.org/2000/svg"><g><path d="m512 265.392c0-4.2-3.404-7.604-7.604-7.604s-7.604 3.404-7.604 7.604v10.244c-29.245-16.605-108.147-62.145-151.364-94.234-17.4-12.914-24.69-30.011-29.613-49.799-.01-.049-.02-.1-.03-.148-.037-.176-.087-.345-.135-.515-1.704-6.945-3.131-14.216-4.607-21.753-6.392-32.63-13.637-69.613-50.269-99.117-2.783-2.243-6.754-2.243-9.539 0-36.638 29.506-43.885 66.49-50.278 99.122-1.477 7.538-2.904 14.809-4.609 21.755-.048.168-.097.336-.134.509-.01.047-.02.098-.029.145-4.923 19.789-12.214 36.887-29.615 49.803-20.56 15.264-51.225 35.152-91.145 59.109-3.601 2.161-4.768 6.832-2.607 10.433s6.831 4.768 10.433 2.607c40.344-24.212 71.427-44.378 92.384-59.938 5.487-4.072 10.13-8.507 14.107-13.22-1.771 20.052-3.226 44.155-4.351 72.191-.399 9.943-.719 19.527-.976 28.388l-155.275 22.407c-3.312.478-5.922 3.065-6.43 6.372l-4.009 26.11-3.49.25v-43.007c6.653-3.741 21.234-11.994 39.34-22.566 3.627-2.117 4.85-6.774 2.732-10.401-2.117-3.627-6.773-4.85-10.401-2.732-12.902 7.533-23.991 13.875-31.675 18.234v-10.249c0-4.2-3.404-7.604-7.604-7.604s-7.603 3.405-7.603 7.604l.003 78.89c0 2.111.878 4.127 2.423 5.566 1.546 1.439 3.623 2.169 5.725 2.019l175.261-12.566v42.022l-73.944 65.497c-2.159 1.912-3.05 4.881-2.301 7.666l7.341 27.304c.768 2.858 3.126 5.011 6.043 5.518l93.276 16.191c.435.075.87.112 1.302.112 2.496 0 4.87-1.232 6.299-3.347l13.463-19.922h42.228l13.455 19.92c1.675 2.48 4.645 3.748 7.601 3.236l93.287-16.191c2.918-.506 5.276-2.661 6.044-5.521l7.33-27.304c.748-2.784-.144-5.752-2.301-7.663l-19.548-17.317c-3.145-2.785-7.95-2.493-10.735.65-2.784 3.144-2.494 7.949.65 10.734l16.027 14.198-3.177 11.833-57.164-43.464v-21.815l19.412 17.198c1.447 1.282 3.247 1.912 5.039 1.912 2.101 0 4.192-.866 5.695-2.562 2.784-3.144 2.493-7.95-.651-10.734l-29.496-26.129v-42.022l175.261 12.566c2.108.147 4.18-.582 5.725-2.019 1.546-1.439 2.423-3.455 2.423-5.566zm-255.996-239.424c21.696 19.477 30.278 42.26 35.755 65.364h-71.516c5.477-23.104 14.062-45.886 35.761-65.364zm-221.745 308.78 2.629-17.119 147.122-21.232c-.281 11.919-.435 21.579-.516 27.651zm149.156 66.889v21.817l-57.159 43.46-3.181-11.83zm188.245 73.672-71.239 12.365-12.961-19.191c-1.414-2.094-3.775-3.348-6.301-3.348h-50.308c-2.525 0-4.886 1.254-6.3 3.346l-12.971 19.193-71.238-12.366 55.279-42.031c1.891-1.438 3.001-3.677 3.001-6.053v-42.481h-.003v-53.5c0-.017.003-.034.003-.051.01-1.419 1.165-142.483 12.478-196.626.004-.022.006-.043.01-.064 1.836-7.414 3.31-14.932 4.771-22.386.363-1.855.728-3.714 1.098-5.575h78.041c.37 1.86.734 3.717 1.097 5.571 1.46 7.453 2.933 14.97 4.769 22.383.005.024.006.048.011.072 11.313 54.133 12.469 195.207 12.479 196.626 0 .012.002.023.002.034v53.517h-.002v42.481c0 2.376 1.111 4.615 3.002 6.053zm-43.154-151.261c-.08-6.072-.235-15.732-.516-27.651l147.121 21.232 2.629 17.119zm168.282 12.065-3.49-.25-4.009-26.11c-.508-3.307-3.118-5.894-6.43-6.372l-155.274-22.408c-.257-8.861-.577-18.444-.976-28.388-1.126-28.036-2.58-52.139-4.351-72.191 3.976 4.713 8.619 9.147 14.106 13.219 48.421 35.953 140.394 88.216 160.425 99.492v43.008z"/><path d="m299.511 189.292c0-36.593-19.112-65.257-43.511-65.257-24.398 0-43.51 28.664-43.51 65.257 0 6.9.713 12.845 1.963 17.982.065.346.157.684.268 1.015 6.818 25.898 27.819 30.317 41.279 30.317 13.468 0 34.484-4.424 41.291-30.358.101-.307.187-.621.248-.941 1.256-5.144 1.972-11.099 1.972-18.015zm-43.511-50.048c11.975 0 22.498 13.964 26.541 32.993-7.399-8.46-16.634-13.344-26.538-13.344-9.906 0-19.143 4.883-26.543 13.342 4.043-19.029 14.566-32.991 26.54-32.991zm0 84.155c-8.807 0-15.547-2.257-20.033-6.708-2.753-2.732-4.824-6.415-6.206-11.015 4.358-18.681 14.997-31.575 26.242-31.575 11.241 0 21.878 12.897 26.234 31.583-1.381 4.596-3.452 8.277-6.204 11.007-4.486 4.451-11.226 6.708-20.033 6.708z"/><path d="m256 335.67c-8.166 0-14.417 7.21-18.581 21.432-3.211 10.969-4.98 25.415-4.98 40.677 0 15.261 1.768 29.708 4.98 40.677 4.163 14.221 10.415 21.432 18.581 21.432s14.418-7.21 18.581-21.432c3.211-10.969 4.979-25.415 4.979-40.677s-1.768-29.708-4.979-40.677c-4.163-14.222-10.415-21.432-18.581-21.432zm0 108.074c-3.357-4.661-8.353-20.544-8.353-45.965s4.995-41.304 8.353-45.966c3.357 4.661 8.353 20.544 8.353 45.966-.001 25.422-4.996 41.304-8.353 45.965z"/></g></svg>