<svg id="Capa_1" enable-background="new 0 0 512 512" height="512" viewBox="0 0 512 512" width="512" xmlns="http://www.w3.org/2000/svg"><g><path d="m488.851 179.762v-19.138h15.543c4.2 0 7.604-3.404 7.604-7.604 0-4.199-3.404-7.604-7.604-7.604h-15.595c-.261-5.051-2.326-9.766-5.938-13.377-3.864-3.848-8.989-5.967-14.43-5.967-10.896 0-19.8 8.586-20.364 19.344h-15.599c-4.2 0-7.604 3.404-7.604 7.604 0 4.199 3.404 7.604 7.604 7.604h15.544v9.764l-37.705-8.638v-23.029h15.542c4.2 0 7.604-3.404 7.604-7.604 0-4.199-3.404-7.604-7.604-7.604h-15.574c-.168-5.186-2.247-10.052-5.957-13.779-3.864-3.848-8.989-5.967-14.43-5.967-11.032 0-20.025 8.8-20.385 19.746h-15.579c-4.2 0-7.604 3.404-7.604 7.604 0 4.199 3.404 7.604 7.604 7.604h15.544v13.673l-33.153-7.595v-29.839c0-38.583-18.297-75.604-48.944-99.032-18.476-14.124-44.284-14.122-62.758.001-15.14 11.577-27.602 26.721-36.04 43.793-8.442 17.079-12.903 36.18-12.903 55.238v29.844l-33.142 7.592v-13.675h15.544c4.2 0 7.604-3.404 7.604-7.604 0-4.199-3.404-7.604-7.604-7.604h-15.579c-.359-10.946-9.353-19.746-20.386-19.746-5.44 0-10.563 2.119-14.451 5.99-3.689 3.704-5.767 8.569-5.935 13.757h-15.574c-4.2 0-7.604 3.404-7.604 7.604 0 4.199 3.404 7.604 7.604 7.604h15.542v23.03l-37.706 8.638v-9.764h15.544c4.2 0 7.604-3.404 7.604-7.604 0-4.199-3.404-7.604-7.604-7.604h-15.598c-.564-10.758-9.468-19.344-20.364-19.344-5.441 0-10.564 2.119-14.442 5.979-3.598 3.601-5.663 8.315-5.924 13.365h-15.595c-4.2 0-7.604 3.404-7.604 7.604 0 4.199 3.404 7.604 7.604 7.604h15.542v19.137c-13.668 3.505-23.146 15.659-23.146 29.847v26.702c0 19.423 15.799 35.538 35.219 35.923l142.242 2.816c3.317 38.321 11.26 76.033 23.702 112.622l-38.068 15.876c-3.876 1.617-5.708 6.069-4.091 9.945 1.218 2.92 4.044 4.679 7.021 4.679.975 0 1.967-.189 2.924-.588l62.248-25.96v65.711l-78.566 14.123c-6.424 1.154-12.978-.583-17.984-4.768-5.009-4.188-7.881-10.336-7.881-16.866 0-4.354 1.275-8.567 3.695-12.193 2.09-3.144 4.973-5.702 8.337-7.398 3.749-1.892 5.255-6.465 3.364-10.214-1.892-3.749-6.465-5.255-10.214-3.364-5.711 2.881-10.604 7.222-14.143 12.545-4.086 6.123-6.246 13.255-6.246 20.625 0 11.047 4.86 21.447 13.334 28.533 6.753 5.647 15.171 8.661 23.815 8.661 2.198-.001 4.413-.196 6.617-.592l75.874-13.639v9.078c0 13.674 11.125 24.799 24.799 24.799 13.673 0 24.798-11.125 24.798-24.799v-9.077l75.873 13.638c2.204.396 4.415.591 6.613.591 8.646 0 17.068-3.016 23.823-8.665 8.472-7.085 13.331-17.482 13.331-28.53 0-15.055-8.978-28.527-22.873-34.322l-66.737-27.832c12.443-36.585 20.387-74.296 23.704-112.619l87.301-1.729c4.199-.083 7.535-3.554 7.452-7.753-.082-4.199-3.563-7.541-7.753-7.452l-85.949 1.702c.475-8.711.74-17.446.74-26.207v-73.212l148.334 33.983c7.149 1.64 12.143 7.901 12.143 15.228v26.705c0 11.201-9.113 20.493-20.315 20.714l-21.717.426c-4.198.082-7.536 3.553-7.453 7.751.082 4.148 3.469 7.455 7.6 7.455.051 0 .101 0 .152-.001l21.717-.426c19.417-.382 35.218-16.496 35.218-35.919v-26.705c0-14.182-9.478-26.336-23.149-29.849zm-370.442-59.252c.995-.99 2.309-1.536 3.699-1.536 2.644 0 4.81 1.985 5.144 4.539h-10.289c.147-1.135.638-2.191 1.446-3.003zm-1.512 18.211h10.423v17.158l-10.423 2.388zm-77.032 4.094c.995-.99 2.309-1.536 3.7-1.536 2.505 0 4.6 1.777 5.097 4.137h-10.194c.204-.983.682-1.885 1.397-2.601zm8.911 17.809v13.248l-10.422 2.387v-15.636h10.422zm-13.256 96.406c-11.2-.222-20.312-9.516-20.312-20.718v-26.702c0-7.329 4.989-13.59 12.133-15.226l148.33-33.979v73.206c0 8.76.265 17.496.74 26.208zm230.066 224.835c0 5.289-4.302 9.591-9.59 9.591s-9.591-4.302-9.591-9.591v-118.002c0-5.288 4.303-9.591 9.591-9.591s9.59 4.302 9.59 9.591zm119.638-32.039c0 6.527-2.871 12.672-7.879 16.859-5.006 4.187-11.558 5.929-17.988 4.772l-78.564-14.121v-65.713l90.912 37.914c8.213 3.425 13.519 11.387 13.519 20.289zm-64.116-216.215c0 50.554-8.199 100.364-24.349 148.192l-15.965-6.658v-11.282c0-13.674-11.125-24.798-24.798-24.798-13.674 0-24.799 11.125-24.799 24.798v11.284l-15.971 6.661c-16.149-47.836-24.348-97.648-24.348-148.197v-118.651c0-16.734 3.918-33.505 11.329-48.5 7.409-14.989 18.351-28.285 31.643-38.45 13.037-9.965 31.247-9.967 44.286 0 26.908 20.57 42.972 53.074 42.972 86.95zm147.323-92.331c1.391 0 2.704.546 3.687 1.524.725.725 1.205 1.629 1.41 2.612h-10.194c.497-2.359 2.592-4.136 5.097-4.136zm-5.211 19.344h10.423v15.636l-10.423-2.388zm-73.332-41.649c1.391 0 2.704.546 3.675 1.512.828.832 1.323 1.891 1.471 3.027h-10.289c.334-2.554 2.5-4.539 5.143-4.539zm-5.211 19.746h10.423v19.545l-10.423-2.388z"/><path d="m209.651 69.635c-7.796 8.568-7.168 21.882 1.399 29.677 3.876 3.528 8.897 5.471 14.137 5.471 5.905 0 11.569-2.503 15.542-6.87 3.96-4.352 9.382-6.748 15.266-6.748s11.305 2.397 15.265 6.749c3.777 4.15 8.944 6.582 14.549 6.846.339.016.676.024 1.013.024 5.237 0 10.216-1.922 14.114-5.47 8.569-7.796 9.198-21.109 1.401-29.679-11.847-13.02-28.738-20.487-46.342-20.488-17.604 0-34.496 7.467-46.344 20.488zm19.831 18.043c-1.114 1.223-2.639 1.897-4.295 1.897-1.446 0-2.831-.537-3.901-1.511-2.365-2.152-2.539-5.828-.386-8.195 7.247-7.964 16.988-13.181 27.492-14.894v11.777c-7.236 1.542-13.78 5.288-18.91 10.926zm61.607-7.808c1.044 1.146 1.577 2.63 1.504 4.178s-.745 2.974-1.891 4.018c-1.145 1.043-2.628 1.577-4.176 1.503-1.548-.073-2.974-.745-4.018-1.89-5.13-5.639-11.674-9.385-18.909-10.925v-11.778c10.503 1.713 20.244 6.929 27.49 14.894z"/></g></svg>