<svg id="Capa_1" enable-background="new 0 0 512 512" height="512" viewBox="0 0 512 512" width="512" xmlns="http://www.w3.org/2000/svg"><g><path d="m508.262 278.987-22.316-13.813v-33.32c0-4.2-3.404-7.604-7.604-7.604s-7.604 3.404-7.604 7.604v23.906l-31.962-19.783v-33.104c0-4.2-3.404-7.604-7.604-7.604s-7.604 3.404-7.604 7.604v23.691l-31.971-19.789v-32.883c0-4.2-3.404-7.604-7.604-7.604s-7.604 3.404-7.604 7.604v23.469l-31.963-19.784v-32.676c0-4.2-3.404-7.604-7.604-7.604s-7.604 3.404-7.604 7.604v23.263l-18.567-11.493v-47.077c0-38.516-11.494-74.182-31.535-97.852h-.001c-6.41-7.571-14.62-11.742-23.115-11.742-.001 0 0 0-.001 0-8.495 0-16.706 4.171-23.118 11.744-20.042 23.669-31.536 59.335-31.536 97.852v47.083l-18.567 11.492v-23.269c0-4.2-3.404-7.604-7.604-7.604s-7.604 3.404-7.604 7.604v32.681l-31.962 19.782v-23.473c0-4.2-3.404-7.604-7.604-7.604s-7.604 3.404-7.604 7.604v32.885l-31.972 19.789v-23.693c0-4.2-3.404-7.604-7.604-7.604s-7.604 3.404-7.604 7.604v33.105l-31.962 19.782v-23.906c0-4.2-3.404-7.604-7.604-7.604s-7.604 3.404-7.604 7.604v33.319l-22.312 13.81c-2.24 1.386-3.602 3.832-3.602 6.466v48.517c0 2.461 1.191 4.77 3.197 6.197 1.304.928 2.848 1.407 4.408 1.407.839 0 1.682-.139 2.495-.421l194.512-67.588c3.113 25.817 8.054 55.989 13.519 85.895l-31.328 29.369c-3.063 2.872-3.219 7.685-.347 10.748 1.497 1.597 3.521 2.403 5.55 2.403 1.863 0 3.732-.681 5.199-2.056l24.233-22.718c3.946 20.791 8.022 40.995 11.776 59.013h-74.362c.654-.826 1.379-1.635 2.21-2.414l11.954-11.213c3.063-2.873 3.217-7.685.344-10.748-2.874-3.063-7.684-3.217-10.748-.343l-11.951 11.21c-10.898 10.211-14.257 25.182-8.767 39.069 5.49 13.888 18.18 22.516 33.118 22.516h68.529c2.733 12.35 4.553 20.275 4.908 21.812.796 3.451 3.868 5.896 7.41 5.896s6.614-2.445 7.41-5.896c.354-1.537 2.174-9.46 4.908-21.809h68.54c14.934 0 27.622-8.629 33.114-22.52 5.49-13.889 2.133-28.859-8.762-39.068l-67.48-63.244c5.466-29.908 10.409-60.083 13.522-85.902l94.185 32.722c.826.287 1.667.423 2.495.423 3.148 0 6.092-1.97 7.183-5.11 1.378-3.967-.721-8.3-4.688-9.678l-97.48-33.867c.842-8.737 1.4-16.753 1.612-23.827l186.101 79.164v9.887l-59.055-20.52c-3.97-1.379-8.3.72-9.679 4.687-1.378 3.967.721 8.3 4.687 9.678l69.156 24.028c.814.283 1.656.421 2.495.421 1.56 0 3.104-.48 4.408-1.407 2.006-1.426 3.197-3.735 3.197-6.197v-48.514c0-2.632-1.362-5.078-3.602-6.464zm-306.917-104.422v43.177l-186.001 79.12v-7.177zm-186.001 148.709v-9.885l186.098-79.162c.212 7.073.769 15.088 1.612 23.823zm159.805 145.81c-10.231 0-16.51-6.663-18.974-12.899-.573-1.45-1.003-3.061-1.245-4.762h81.621c1.338 6.298 2.611 12.215 3.793 17.661zm161.704.003h-65.206c1.183-5.447 2.456-11.365 3.794-17.664h81.627c-.242 1.701-.672 3.311-1.245 4.76-2.465 6.239-8.744 12.904-18.97 12.904zm13.953-35.283c.831.778 1.555 1.587 2.208 2.412h-74.372c3.754-18.017 7.83-38.219 11.777-59.009zm-55.363-205.614c0 52.981-26.238 180.38-39.448 241.159-13.208-60.779-39.443-188.177-39.443-241.159v-118.594c0-34.46 10.443-67.367 27.934-88.025 3.525-4.162 7.506-6.363 11.512-6.363s7.987 2.201 11.512 6.363c17.49 20.659 27.933 53.565 27.933 88.025zm15.208-10.452v-43.18l186.005 115.13v7.172z"/><path d="m231.161 65.458c-2.826 3.106-2.599 7.915.508 10.742 1.456 1.326 3.288 1.98 5.115 1.98 2.066 0 4.126-.838 5.627-2.487 3.473-3.817 8.426-6.007 13.588-6.007 5.161 0 10.115 2.19 13.589 6.007 2.826 3.106 7.636 3.333 10.742.506 3.106-2.826 3.333-7.636.506-10.742-6.35-6.978-15.402-10.98-24.837-10.98-9.436 0-18.489 4.002-24.838 10.981z"/></g></svg>